%
M48
M72
T01C0.0150
T02C0.0315
T03C0.0354
T04C0.0394
T05C0.0400
T06C0.0433
T07C0.0720
T08C0.1181
%
T01
X4999Y12410
X29624Y22035
X28499Y20910
X27749Y20160
X28749Y17535
X31124Y17160
X28999Y15160
X28874Y14410
X33374Y13285
X33374Y12660
T02
X33999Y14785
X36124Y11410
T03
X20124Y18410
X21124Y18410
X22124Y18410
X23124Y18410
X24124Y18410
X25124Y18410
X26124Y18410
X27124Y18410
X28124Y18410
X29124Y18410
X30124Y18410
X31124Y18410
X32124Y18410
X33124Y18410
X34124Y18410
X35124Y18410
X36124Y18410
X37124Y18410
X33124Y10535
X32124Y10535
X31124Y10535
X27124Y10535
X26124Y10535
X23124Y10535
X22124Y10535
X21124Y10535
X20124Y10535
X38039Y8676
X38039Y6944
T04
X2624Y14785
X2624Y13785
X2624Y12910
X3624Y12910
X3624Y13785
X3624Y14785
X3624Y11910
X2624Y11910
T05
X24624Y24660
X24624Y23660
X24624Y22660
T06
X38499Y4660
X36499Y4660
X36499Y3660
X36499Y2660
X38499Y2660
T07
X5347Y6906
X2691Y5906
X5347Y4906
X26807Y5914
X24151Y6914
X24151Y4914
T08
X12874Y9785
X12874Y2035
M30
