G75*
G70*
%OFA0B0*%
%FSLAX24Y24*%
%IPPOS*%
%LPD*%
%AMOC8*
5,1,8,0,0,1.08239X$1,22.5*
%
%ADD10C,0.0080*%
%ADD11C,0.0050*%
%ADD12R,0.0158X0.0551*%
%ADD13C,0.0060*%
%ADD14C,0.0020*%
%ADD15R,0.5039X0.2913*%
%ADD16R,0.0039X0.0394*%
%ADD17R,0.5000X0.0394*%
D10*
X025975Y010480D02*
X026475Y010480D01*
X026475Y011630D01*
X025975Y011630D01*
X025975Y010480D01*
X025850Y014480D02*
X026350Y014480D01*
X026350Y015630D01*
X025850Y015630D01*
X025850Y014480D01*
X040850Y020230D02*
X041350Y020230D01*
X041350Y021380D01*
X040850Y021380D01*
X040850Y020230D01*
X038100Y021230D02*
X037600Y021230D01*
X037600Y022380D01*
X038100Y022380D01*
X038100Y021230D01*
X027175Y022305D02*
X027175Y022805D01*
X026025Y022805D01*
X026025Y022305D01*
X027175Y022305D01*
X023100Y022730D02*
X022600Y022730D01*
X022600Y023880D01*
X023100Y023880D01*
X023100Y022730D01*
X043975Y026080D02*
X043975Y026780D01*
X045475Y026780D01*
X045475Y026080D01*
X043975Y026080D01*
X043975Y026955D02*
X043975Y027655D01*
X045475Y027655D01*
X045475Y026955D01*
X043975Y026955D01*
X046975Y027130D02*
X046975Y025980D01*
X047475Y025980D01*
X047475Y027130D01*
X046975Y027130D01*
X047625Y027430D02*
X048325Y027430D01*
X048325Y025930D01*
X047625Y025930D01*
X047625Y027430D01*
X052600Y023880D02*
X052600Y022730D01*
X053100Y022730D01*
X053100Y023880D01*
X052600Y023880D01*
X054525Y022305D02*
X054525Y021805D01*
X055675Y021805D01*
X055675Y022305D01*
X054525Y022305D01*
X055100Y021755D02*
X055100Y020605D01*
X055600Y020605D01*
X055600Y021755D01*
X055100Y021755D01*
X047075Y005805D02*
X046375Y005805D01*
X046375Y004305D01*
X047075Y004305D01*
X047075Y005805D01*
X047475Y005630D02*
X047475Y004480D01*
X047975Y004480D01*
X047975Y005630D01*
X047475Y005630D01*
X046975Y004130D02*
X046475Y004130D01*
X046475Y002980D01*
X046975Y002980D01*
X046975Y004130D01*
X047154Y003870D02*
X047154Y003240D01*
X047548Y003870D02*
X047902Y003870D01*
X048296Y003870D02*
X048296Y003240D01*
X048875Y002305D02*
X048875Y000805D01*
X049575Y000805D01*
X049575Y002305D01*
X048875Y002305D01*
D11*
X048849Y003543D02*
X048849Y004567D01*
X050601Y004567D02*
X050601Y003543D01*
D12*
X049725Y004055D03*
D13*
X026111Y012156D02*
X026111Y013954D01*
X022339Y013954D01*
X022339Y012156D01*
X026111Y012156D01*
X025453Y012575D02*
X025455Y012601D01*
X025461Y012627D01*
X025470Y012651D01*
X025483Y012674D01*
X025499Y012695D01*
X025518Y012713D01*
X025539Y012729D01*
X025563Y012741D01*
X025587Y012749D01*
X025613Y012754D01*
X025640Y012755D01*
X025666Y012752D01*
X025691Y012745D01*
X025715Y012735D01*
X025738Y012721D01*
X025758Y012705D01*
X025775Y012685D01*
X025790Y012663D01*
X025801Y012639D01*
X025809Y012614D01*
X025813Y012588D01*
X025813Y012562D01*
X025809Y012536D01*
X025801Y012511D01*
X025790Y012487D01*
X025775Y012465D01*
X025758Y012445D01*
X025738Y012429D01*
X025715Y012415D01*
X025691Y012405D01*
X025666Y012398D01*
X025640Y012395D01*
X025613Y012396D01*
X025587Y012401D01*
X025563Y012409D01*
X025539Y012421D01*
X025518Y012437D01*
X025499Y012455D01*
X025483Y012476D01*
X025470Y012499D01*
X025461Y012523D01*
X025455Y012549D01*
X025453Y012575D01*
X038826Y021294D02*
X040624Y021294D01*
X040624Y025066D01*
X038826Y025066D01*
X038826Y021294D01*
X039065Y021772D02*
X039067Y021798D01*
X039073Y021824D01*
X039082Y021848D01*
X039095Y021871D01*
X039111Y021892D01*
X039130Y021910D01*
X039151Y021926D01*
X039175Y021938D01*
X039199Y021946D01*
X039225Y021951D01*
X039252Y021952D01*
X039278Y021949D01*
X039303Y021942D01*
X039327Y021932D01*
X039350Y021918D01*
X039370Y021902D01*
X039387Y021882D01*
X039402Y021860D01*
X039413Y021836D01*
X039421Y021811D01*
X039425Y021785D01*
X039425Y021759D01*
X039421Y021733D01*
X039413Y021708D01*
X039402Y021684D01*
X039387Y021662D01*
X039370Y021642D01*
X039350Y021626D01*
X039327Y021612D01*
X039303Y021602D01*
X039278Y021595D01*
X039252Y021592D01*
X039225Y021593D01*
X039199Y021598D01*
X039175Y021606D01*
X039151Y021618D01*
X039130Y021634D01*
X039111Y021652D01*
X039095Y021673D01*
X039082Y021696D01*
X039073Y021720D01*
X039067Y021746D01*
X039065Y021772D01*
X025624Y022794D02*
X025624Y026566D01*
X023826Y026566D01*
X023826Y022794D01*
X025624Y022794D01*
X024065Y023272D02*
X024067Y023298D01*
X024073Y023324D01*
X024082Y023348D01*
X024095Y023371D01*
X024111Y023392D01*
X024130Y023410D01*
X024151Y023426D01*
X024175Y023438D01*
X024199Y023446D01*
X024225Y023451D01*
X024252Y023452D01*
X024278Y023449D01*
X024303Y023442D01*
X024327Y023432D01*
X024350Y023418D01*
X024370Y023402D01*
X024387Y023382D01*
X024402Y023360D01*
X024413Y023336D01*
X024421Y023311D01*
X024425Y023285D01*
X024425Y023259D01*
X024421Y023233D01*
X024413Y023208D01*
X024402Y023184D01*
X024387Y023162D01*
X024370Y023142D01*
X024350Y023126D01*
X024327Y023112D01*
X024303Y023102D01*
X024278Y023095D01*
X024252Y023092D01*
X024225Y023093D01*
X024199Y023098D01*
X024175Y023106D01*
X024151Y023118D01*
X024130Y023134D01*
X024111Y023152D01*
X024095Y023173D01*
X024082Y023196D01*
X024073Y023220D01*
X024067Y023246D01*
X024065Y023272D01*
X053826Y022794D02*
X055624Y022794D01*
X055624Y026566D01*
X053826Y026566D01*
X053826Y022794D01*
X054065Y023272D02*
X054067Y023298D01*
X054073Y023324D01*
X054082Y023348D01*
X054095Y023371D01*
X054111Y023392D01*
X054130Y023410D01*
X054151Y023426D01*
X054175Y023438D01*
X054199Y023446D01*
X054225Y023451D01*
X054252Y023452D01*
X054278Y023449D01*
X054303Y023442D01*
X054327Y023432D01*
X054350Y023418D01*
X054370Y023402D01*
X054387Y023382D01*
X054402Y023360D01*
X054413Y023336D01*
X054421Y023311D01*
X054425Y023285D01*
X054425Y023259D01*
X054421Y023233D01*
X054413Y023208D01*
X054402Y023184D01*
X054387Y023162D01*
X054370Y023142D01*
X054350Y023126D01*
X054327Y023112D01*
X054303Y023102D01*
X054278Y023095D01*
X054252Y023092D01*
X054225Y023093D01*
X054199Y023098D01*
X054175Y023106D01*
X054151Y023118D01*
X054130Y023134D01*
X054111Y023152D01*
X054095Y023173D01*
X054082Y023196D01*
X054073Y023220D01*
X054067Y023246D01*
X054065Y023272D01*
D14*
X053916Y022884D02*
X055534Y022884D01*
X055534Y026476D01*
X053916Y026476D01*
X053916Y022884D01*
X040534Y021384D02*
X038916Y021384D01*
X038916Y024976D01*
X040534Y024976D01*
X040534Y021384D01*
X025534Y022884D02*
X023916Y022884D01*
X023916Y026476D01*
X025534Y026476D01*
X025534Y022884D01*
X026021Y013864D02*
X022429Y013864D01*
X022429Y012246D01*
X026021Y012246D01*
X026021Y013864D01*
D15*
X058725Y004383D03*
D16*
X061225Y002729D03*
D17*
X058705Y002729D03*
M02*
