G75*
G70*
%OFA0B0*%
%FSLAX24Y24*%
%IPPOS*%
%LPD*%
%AMOC8*
5,1,8,0,0,1.08239X$1,22.5*
%
%ADD10C,0.1241*%
%ADD11R,0.0178X0.0690*%
%ADD12R,0.0690X0.0178*%
%ADD13R,0.0375X0.0375*%
%ADD14R,0.0375X0.0375*%
%ADD15R,0.0966X0.0690*%
%ADD16R,0.1044X0.0847*%
%ADD17R,0.1359X0.0847*%
%ADD18R,0.1280X0.0257*%
%ADD19C,0.0414*%
%ADD20R,0.1155X0.1155*%
%ADD21R,0.0850X0.0650*%
%ADD22R,0.0850X0.1560*%
%ADD23R,0.0840X0.0270*%
%ADD24C,0.1060*%
%ADD25C,0.1320*%
%ADD26OC8,0.0651*%
%ADD27OC8,0.0660*%
%ADD28R,0.0375X0.0414*%
%ADD29C,0.0720*%
%ADD30R,0.0651X0.0651*%
%ADD31R,0.0690X0.0769*%
%ADD32R,0.0454X0.0375*%
%ADD33R,0.0336X0.0651*%
%ADD34R,0.0414X0.0375*%
%ADD35C,0.0436*%
%ADD36C,0.0330*%
%ADD37C,0.0350*%
D10*
X001599Y001160D03*
X023224Y001660D03*
X023724Y015910D03*
D11*
X019812Y012023D03*
X019615Y012023D03*
X019419Y012023D03*
X019222Y012023D03*
X019025Y012023D03*
X018828Y012023D03*
X018631Y012023D03*
X018434Y012023D03*
X018237Y012023D03*
X018041Y012023D03*
X017844Y012023D03*
X017647Y012023D03*
X017450Y012023D03*
X017253Y012023D03*
X017056Y012023D03*
X016859Y012023D03*
X016663Y012023D03*
X016466Y012023D03*
X016269Y012023D03*
X016072Y012023D03*
X015875Y012023D03*
X015678Y012023D03*
X015481Y012023D03*
X015285Y012023D03*
X015088Y012023D03*
X015088Y006039D03*
X015285Y006039D03*
X015481Y006039D03*
X015678Y006039D03*
X015875Y006039D03*
X016072Y006039D03*
X016269Y006039D03*
X016466Y006039D03*
X016663Y006039D03*
X016859Y006039D03*
X017056Y006039D03*
X017253Y006039D03*
X017450Y006039D03*
X017647Y006039D03*
X017844Y006039D03*
X018041Y006039D03*
X018237Y006039D03*
X018434Y006039D03*
X018631Y006039D03*
X018828Y006039D03*
X019025Y006039D03*
X019222Y006039D03*
X019419Y006039D03*
X019615Y006039D03*
X019812Y006039D03*
D12*
X020442Y006669D03*
X020442Y006866D03*
X020442Y007063D03*
X020442Y007259D03*
X020442Y007456D03*
X020442Y007653D03*
X020442Y007850D03*
X020442Y008047D03*
X020442Y008244D03*
X020442Y008441D03*
X020442Y008637D03*
X020442Y008834D03*
X020442Y009031D03*
X020442Y009228D03*
X020442Y009425D03*
X020442Y009622D03*
X020442Y009819D03*
X020442Y010015D03*
X020442Y010212D03*
X020442Y010409D03*
X020442Y010606D03*
X020442Y010803D03*
X020442Y011000D03*
X020442Y011196D03*
X020442Y011393D03*
X014458Y011393D03*
X014458Y011196D03*
X014458Y011000D03*
X014458Y010803D03*
X014458Y010606D03*
X014458Y010409D03*
X014458Y010212D03*
X014458Y010015D03*
X014458Y009819D03*
X014458Y009622D03*
X014458Y009425D03*
X014458Y009228D03*
X014458Y009031D03*
X014458Y008834D03*
X014458Y008637D03*
X014458Y008441D03*
X014458Y008244D03*
X014458Y008047D03*
X014458Y007850D03*
X014458Y007653D03*
X014458Y007456D03*
X014458Y007259D03*
X014458Y007063D03*
X014458Y006866D03*
X014458Y006669D03*
D13*
X014357Y006257D03*
X013757Y006257D03*
X016812Y004879D03*
X016812Y004279D03*
X018915Y004377D03*
X019291Y004377D03*
X019672Y004377D03*
X020048Y004377D03*
X020424Y004377D03*
X020424Y004977D03*
X020048Y004977D03*
X019672Y004977D03*
X019291Y004977D03*
X018915Y004977D03*
X017334Y002598D03*
X016734Y002598D03*
X008876Y007233D03*
X008876Y007833D03*
X005174Y008081D03*
X004574Y008081D03*
X004595Y015159D03*
X005195Y015159D03*
X005753Y015223D03*
X006353Y015223D03*
X006366Y016698D03*
X005766Y016698D03*
X010406Y016780D03*
X010406Y016180D03*
X014975Y013195D03*
X014975Y012595D03*
X015575Y012597D03*
X015575Y013197D03*
X021067Y011719D03*
X021667Y011719D03*
X021663Y011294D03*
X021063Y011294D03*
D14*
G36*
X021090Y006666D02*
X020962Y007016D01*
X021312Y007144D01*
X021440Y006794D01*
X021090Y006666D01*
G37*
G36*
X021295Y006102D02*
X021167Y006452D01*
X021517Y006580D01*
X021645Y006230D01*
X021295Y006102D01*
G37*
D15*
X003953Y005744D03*
X001472Y005744D03*
D16*
X001269Y012717D03*
X001269Y016221D03*
D17*
X003592Y016221D03*
X003592Y012717D03*
D18*
X003631Y013839D03*
X003631Y014154D03*
X003631Y014469D03*
X003631Y014784D03*
X003631Y015099D03*
D19*
X002450Y015335D03*
X002450Y013602D03*
X006038Y006558D03*
X007219Y006558D03*
D20*
X003074Y007535D03*
X003074Y002335D03*
D21*
X007260Y014859D03*
X007260Y015759D03*
X007260Y016659D03*
D22*
X009740Y015769D03*
D23*
X010458Y009969D03*
X010458Y009469D03*
X010458Y008969D03*
X010458Y008469D03*
X008518Y008469D03*
X008518Y008969D03*
X008518Y009469D03*
X008518Y009969D03*
D24*
X005718Y009633D03*
X004536Y009633D03*
X004536Y010814D03*
X005718Y010814D03*
D25*
X002765Y010223D03*
D26*
X008150Y012256D03*
X009150Y012256D03*
X010150Y012256D03*
X011150Y012256D03*
X012150Y012256D03*
X012150Y013256D03*
X011150Y013256D03*
X010150Y013256D03*
X009150Y013256D03*
X008150Y013256D03*
D27*
X012050Y015444D03*
X013050Y015444D03*
X014050Y015444D03*
X015050Y015444D03*
X016050Y015444D03*
X017050Y015444D03*
X018050Y015444D03*
X019050Y015444D03*
X020050Y015444D03*
X021050Y015444D03*
X022050Y015444D03*
X022050Y016444D03*
X021050Y016444D03*
X020050Y016444D03*
X019050Y016444D03*
X018050Y016444D03*
X017050Y016444D03*
X016050Y016444D03*
X015050Y016444D03*
X014050Y016444D03*
X013050Y016444D03*
X012050Y016444D03*
X022101Y014110D03*
X023100Y014106D03*
X024100Y014106D03*
X024100Y013106D03*
X023100Y013106D03*
X023100Y012106D03*
X024100Y012106D03*
X024100Y011106D03*
X023100Y011106D03*
X023100Y010106D03*
X024100Y010106D03*
X024100Y009106D03*
X023100Y009106D03*
X023100Y008106D03*
X024100Y008106D03*
X024100Y007106D03*
X023100Y007106D03*
X023100Y006106D03*
X024100Y006106D03*
X024100Y005106D03*
X023100Y005106D03*
X023100Y004106D03*
X024100Y004106D03*
X021100Y001831D03*
X020100Y001831D03*
X019100Y001831D03*
X018100Y001831D03*
X017100Y001831D03*
X016100Y001831D03*
X015100Y001831D03*
X014100Y001831D03*
X012850Y001831D03*
X011850Y001831D03*
X010850Y001831D03*
X009850Y001831D03*
X008850Y001831D03*
X007850Y001831D03*
X006850Y001831D03*
X005850Y001831D03*
X004850Y001831D03*
X004850Y000831D03*
X005850Y000831D03*
X006850Y000831D03*
X007850Y000831D03*
X008850Y000831D03*
X009850Y000831D03*
X010850Y000831D03*
X011850Y000831D03*
X012850Y000831D03*
X014100Y000831D03*
X015100Y000831D03*
X016100Y000831D03*
X017100Y000831D03*
X018100Y000831D03*
X019100Y000831D03*
X020100Y000831D03*
X021100Y000831D03*
D28*
X017337Y003126D03*
X016845Y003126D03*
X016845Y003776D03*
X017337Y003776D03*
X007599Y008810D03*
X007599Y009410D03*
X007599Y010060D03*
X007599Y010660D03*
D29*
X022104Y003273D03*
D30*
X011000Y014892D03*
X011000Y016270D03*
D31*
X006016Y015904D03*
X004914Y015904D03*
D32*
X004994Y006991D03*
X004994Y006125D03*
X008262Y006125D03*
X008262Y006991D03*
D33*
X007514Y007444D03*
X006923Y007444D03*
X005742Y007444D03*
D34*
X009062Y010610D03*
X009662Y010610D03*
D35*
X009613Y011356D03*
X009000Y011406D03*
X008650Y012922D03*
X009650Y012922D03*
X010650Y012922D03*
X011638Y012909D03*
X014238Y011756D03*
X014350Y012985D03*
X016050Y011281D03*
X019590Y008832D03*
X017038Y006919D03*
X018900Y006744D03*
X020499Y006115D03*
X021659Y003901D03*
X019100Y002815D03*
X014770Y006069D03*
X006109Y008526D03*
X005425Y014156D03*
X006415Y014306D03*
X008525Y014797D03*
X008525Y015297D03*
X008525Y015797D03*
X008150Y016547D03*
X004900Y016797D03*
X002400Y016797D03*
X002400Y016297D03*
X023610Y012724D03*
D36*
X017912Y006799D03*
X016945Y005388D03*
X016379Y003042D03*
D37*
X016125Y004309D03*
X015950Y005094D03*
X017578Y004384D03*
X016663Y006747D03*
X015144Y007842D03*
X015119Y008842D03*
X012963Y009944D03*
X012588Y009944D03*
X012213Y009944D03*
X011337Y009573D03*
X012950Y010681D03*
X013325Y010681D03*
X013700Y010681D03*
X009606Y007843D03*
X007174Y010060D03*
X006424Y009635D03*
X005600Y005756D03*
M02*
