G75*
%MOIN*%
%OFA0B0*%
%FSLAX25Y25*%
%IPPOS*%
%LPD*%
%AMOC8*
5,1,8,0,0,1.08239X$1,22.5*
%
%ADD10C,0.00500*%
%ADD11C,0.00800*%
%ADD12C,0.00400*%
%ADD13C,0.01000*%
%ADD14C,0.00000*%
%ADD15C,0.00600*%
%ADD16C,0.00300*%
D10*
X0032750Y0135200D02*
X0032750Y0135300D01*
X0052750Y0135300D01*
X0052750Y0135200D01*
X0032750Y0135200D01*
X0032750Y0135300D02*
X0032750Y0135800D01*
X0052750Y0135800D01*
X0052750Y0135300D01*
X0052750Y0135800D02*
X0052750Y0136300D01*
X0049982Y0136300D01*
X0050213Y0136531D01*
X0050213Y0136800D01*
X0052750Y0136800D01*
X0052750Y0136300D01*
X0052750Y0136800D02*
X0052750Y0137300D01*
X0050213Y0137300D01*
X0050213Y0137800D01*
X0052750Y0137800D01*
X0052750Y0137300D01*
X0052750Y0137800D02*
X0052750Y0138300D01*
X0050213Y0138300D01*
X0050213Y0138800D01*
X0052750Y0138800D01*
X0052750Y0138300D01*
X0052750Y0138800D02*
X0052750Y0139300D01*
X0050213Y0139300D01*
X0050213Y0139800D01*
X0052750Y0139800D01*
X0052750Y0139300D01*
X0052750Y0139800D02*
X0052750Y0140300D01*
X0050213Y0140300D01*
X0050213Y0140354D01*
X0051233Y0140354D01*
X0051614Y0140734D01*
X0051614Y0140800D01*
X0052750Y0140800D01*
X0052750Y0140300D01*
X0052750Y0140800D02*
X0052750Y0141300D01*
X0051587Y0141300D01*
X0051233Y0141654D01*
X0047893Y0141654D01*
X0047539Y0141300D01*
X0046282Y0141300D01*
X0045929Y0141654D01*
X0043989Y0141654D01*
X0043136Y0140800D01*
X0042178Y0140800D01*
X0041325Y0141654D01*
X0039385Y0141654D01*
X0039032Y0141300D01*
X0037075Y0141300D01*
X0036721Y0141654D02*
X0034081Y0141654D01*
X0033727Y0141300D01*
X0032750Y0141300D01*
X0032750Y0141800D01*
X0052750Y0141800D01*
X0052750Y0141300D01*
X0052750Y0141800D02*
X0052750Y0142300D01*
X0032750Y0142300D01*
X0032750Y0142400D01*
X0052750Y0142400D01*
X0052750Y0142300D01*
X0051614Y0141273D02*
X0051587Y0141300D01*
X0051614Y0141273D02*
X0051614Y0140800D01*
X0050213Y0140300D02*
X0050213Y0139800D01*
X0050213Y0139300D02*
X0050213Y0138800D01*
X0050213Y0138300D02*
X0050213Y0137800D01*
X0050213Y0137300D02*
X0050213Y0136800D01*
X0049982Y0136300D02*
X0049832Y0136150D01*
X0049294Y0136150D01*
X0049144Y0136300D01*
X0046079Y0136300D01*
X0046579Y0136800D01*
X0048913Y0136800D01*
X0048913Y0136531D01*
X0049144Y0136300D01*
X0048913Y0136800D02*
X0048913Y0137300D01*
X0047010Y0137300D01*
X0047010Y0137800D01*
X0048913Y0137800D01*
X0048913Y0137300D01*
X0048913Y0137800D02*
X0048913Y0138300D01*
X0047010Y0138300D01*
X0047010Y0138800D01*
X0048913Y0138800D01*
X0048913Y0138300D01*
X0048913Y0138800D02*
X0048913Y0139300D01*
X0047010Y0139300D01*
X0047010Y0139800D01*
X0048913Y0139800D01*
X0048913Y0139300D01*
X0048913Y0139800D02*
X0048913Y0140300D01*
X0047010Y0140300D01*
X0047010Y0140572D01*
X0046782Y0140800D01*
X0047512Y0140800D01*
X0047512Y0140734D01*
X0047893Y0140354D01*
X0048913Y0140354D01*
X0048913Y0140300D01*
X0047512Y0140800D02*
X0047512Y0141273D01*
X0047539Y0141300D01*
X0046782Y0140800D02*
X0046282Y0141300D01*
X0047010Y0140300D02*
X0047010Y0139800D01*
X0047010Y0139300D02*
X0047010Y0138800D01*
X0047010Y0138300D02*
X0047010Y0137800D01*
X0047010Y0137300D02*
X0047010Y0137231D01*
X0046579Y0136800D01*
X0046079Y0136300D02*
X0045929Y0136150D01*
X0043989Y0136150D01*
X0043608Y0136531D01*
X0042908Y0137231D01*
X0042908Y0137300D01*
X0042406Y0137300D01*
X0042406Y0137800D01*
X0042908Y0137800D01*
X0042908Y0137300D01*
X0042908Y0137800D02*
X0042908Y0138300D01*
X0042406Y0138300D01*
X0042406Y0138800D01*
X0042908Y0138800D01*
X0042908Y0138300D01*
X0042908Y0138800D02*
X0042908Y0139300D01*
X0042406Y0139300D01*
X0042406Y0139800D01*
X0042908Y0139800D01*
X0042908Y0139300D01*
X0042908Y0139800D02*
X0042908Y0140300D01*
X0042406Y0140300D01*
X0042406Y0140572D01*
X0042178Y0140800D01*
X0042406Y0140300D02*
X0042406Y0139800D01*
X0042406Y0139300D02*
X0042406Y0138800D01*
X0042406Y0138300D02*
X0042406Y0137800D01*
X0042406Y0137300D02*
X0042406Y0137231D01*
X0041975Y0136800D01*
X0043339Y0136800D01*
X0043839Y0136300D02*
X0041475Y0136300D01*
X0041975Y0136800D01*
X0041475Y0136300D02*
X0041325Y0136150D01*
X0039385Y0136150D01*
X0039004Y0136531D01*
X0038304Y0137231D01*
X0038304Y0137300D01*
X0037802Y0137300D01*
X0037802Y0137800D01*
X0038304Y0137800D01*
X0038304Y0137300D01*
X0038304Y0137800D02*
X0038304Y0138300D01*
X0037802Y0138300D01*
X0037802Y0138470D01*
X0037473Y0138800D01*
X0038304Y0138800D01*
X0038304Y0138300D01*
X0038304Y0138800D02*
X0038304Y0139300D01*
X0037769Y0139300D01*
X0037802Y0139333D02*
X0037802Y0139800D01*
X0038304Y0139800D01*
X0038304Y0139300D01*
X0038304Y0139800D02*
X0038304Y0140300D01*
X0037802Y0140300D01*
X0037802Y0140572D01*
X0037574Y0140800D01*
X0038532Y0140800D01*
X0038304Y0140572D01*
X0038304Y0140300D01*
X0037802Y0140300D02*
X0037802Y0139800D01*
X0037802Y0139333D02*
X0037371Y0138902D01*
X0037473Y0138800D01*
X0037802Y0138300D02*
X0037802Y0137800D01*
X0037802Y0137300D02*
X0037802Y0137231D01*
X0037102Y0136531D01*
X0036721Y0136150D01*
X0034081Y0136150D01*
X0033931Y0136300D01*
X0032750Y0136300D01*
X0032750Y0136800D01*
X0033700Y0136800D01*
X0033700Y0136531D01*
X0033931Y0136300D01*
X0033700Y0136800D02*
X0033700Y0137300D01*
X0032750Y0137300D01*
X0032750Y0137800D01*
X0033700Y0137800D01*
X0033700Y0137300D01*
X0033700Y0137800D02*
X0033700Y0138300D01*
X0032750Y0138300D01*
X0032750Y0138800D01*
X0033700Y0138800D01*
X0033700Y0138300D01*
X0033700Y0138800D02*
X0033700Y0139300D01*
X0032750Y0139300D01*
X0032750Y0139800D01*
X0033700Y0139800D01*
X0033700Y0139300D01*
X0033700Y0139800D02*
X0033700Y0140300D01*
X0032750Y0140300D01*
X0032750Y0140800D01*
X0033700Y0140800D01*
X0033700Y0140300D01*
X0033700Y0140800D02*
X0033700Y0141273D01*
X0033727Y0141300D01*
X0032750Y0141300D02*
X0032750Y0140800D01*
X0032750Y0140300D02*
X0032750Y0139800D01*
X0032750Y0139300D02*
X0032750Y0138800D01*
X0032750Y0138300D02*
X0032750Y0137800D01*
X0032750Y0137300D02*
X0032750Y0136800D01*
X0032750Y0136300D02*
X0032750Y0135800D01*
X0035000Y0137450D02*
X0035000Y0137800D01*
X0036502Y0137800D01*
X0036502Y0137770D01*
X0036183Y0137450D01*
X0035000Y0137450D01*
X0035000Y0137800D02*
X0035000Y0138252D01*
X0036183Y0138252D01*
X0036502Y0137932D01*
X0036502Y0137800D01*
X0037371Y0136800D02*
X0038735Y0136800D01*
X0039235Y0136300D02*
X0036871Y0136300D01*
X0039604Y0137770D02*
X0039604Y0137800D01*
X0041106Y0137800D01*
X0041106Y0137770D01*
X0040787Y0137450D01*
X0039924Y0137450D01*
X0039604Y0137770D01*
X0039604Y0137800D02*
X0039604Y0138300D01*
X0041106Y0138300D01*
X0041106Y0137800D01*
X0041106Y0138300D02*
X0041106Y0138800D01*
X0039604Y0138800D01*
X0039604Y0139300D01*
X0041106Y0139300D01*
X0041106Y0138800D01*
X0041106Y0139300D02*
X0041106Y0139800D01*
X0039604Y0139800D01*
X0039604Y0140034D01*
X0039870Y0140300D01*
X0040840Y0140300D01*
X0041106Y0140034D01*
X0041106Y0139800D01*
X0040840Y0140300D02*
X0040787Y0140354D01*
X0039924Y0140354D01*
X0039870Y0140300D01*
X0039604Y0139800D02*
X0039604Y0139300D01*
X0039604Y0138800D02*
X0039604Y0138300D01*
X0038532Y0140800D02*
X0039032Y0141300D01*
X0037574Y0140800D02*
X0036721Y0141654D01*
X0036183Y0140354D02*
X0036236Y0140300D01*
X0035000Y0140300D01*
X0035000Y0140354D01*
X0036183Y0140354D01*
X0036236Y0140300D02*
X0036502Y0140034D01*
X0036502Y0139872D01*
X0036431Y0139800D01*
X0035000Y0139800D01*
X0035000Y0140300D01*
X0035000Y0139800D02*
X0035000Y0139552D01*
X0036183Y0139552D01*
X0036431Y0139800D01*
X0032750Y0141800D02*
X0032750Y0142300D01*
X0041679Y0141300D02*
X0043635Y0141300D01*
X0043136Y0140800D02*
X0042908Y0140572D01*
X0042908Y0140300D01*
X0044208Y0140034D02*
X0044474Y0140300D01*
X0045444Y0140300D01*
X0045710Y0140034D01*
X0045710Y0139800D01*
X0044208Y0139800D01*
X0044208Y0140034D01*
X0044208Y0139800D02*
X0044208Y0139300D01*
X0045710Y0139300D01*
X0045710Y0138800D01*
X0044208Y0138800D01*
X0044208Y0139300D01*
X0044208Y0138800D02*
X0044208Y0138300D01*
X0045710Y0138300D01*
X0045710Y0137800D01*
X0044208Y0137800D01*
X0044208Y0138300D01*
X0044208Y0137800D02*
X0044208Y0137770D01*
X0044528Y0137450D01*
X0045391Y0137450D01*
X0045710Y0137770D01*
X0045710Y0137800D01*
X0045710Y0138300D02*
X0045710Y0138800D01*
X0045710Y0139300D02*
X0045710Y0139800D01*
X0045444Y0140300D02*
X0045391Y0140354D01*
X0044528Y0140354D01*
X0044474Y0140300D01*
X0057550Y0140300D02*
X0057550Y0139800D01*
X0058500Y0139800D01*
X0058500Y0139300D01*
X0057550Y0139300D01*
X0057550Y0139800D01*
X0057550Y0139300D02*
X0057550Y0138800D01*
X0058500Y0138800D01*
X0058500Y0138300D01*
X0057550Y0138300D01*
X0057550Y0138800D01*
X0057550Y0138300D02*
X0057550Y0137800D01*
X0058500Y0137800D01*
X0058500Y0137300D01*
X0057550Y0137300D01*
X0057550Y0137800D01*
X0057550Y0137300D02*
X0057550Y0136800D01*
X0058500Y0136800D01*
X0058500Y0136531D01*
X0058731Y0136300D01*
X0057550Y0136300D01*
X0057550Y0136800D01*
X0057550Y0136300D02*
X0057550Y0135800D01*
X0073150Y0135800D01*
X0073150Y0135300D01*
X0057550Y0135300D01*
X0057550Y0135800D01*
X0057550Y0135300D02*
X0057550Y0135200D01*
X0073150Y0135200D01*
X0073150Y0135300D01*
X0073150Y0135800D02*
X0073150Y0136300D01*
X0070879Y0136300D01*
X0071379Y0136800D01*
X0073150Y0136800D01*
X0073150Y0136300D01*
X0073150Y0136800D02*
X0073150Y0137300D01*
X0071810Y0137300D01*
X0071810Y0137800D01*
X0073150Y0137800D01*
X0073150Y0137300D01*
X0073150Y0137800D02*
X0073150Y0138300D01*
X0071810Y0138300D01*
X0071810Y0138800D01*
X0073150Y0138800D01*
X0073150Y0138300D01*
X0073150Y0138800D02*
X0073150Y0139300D01*
X0071810Y0139300D01*
X0071810Y0139800D01*
X0073150Y0139800D01*
X0073150Y0139300D01*
X0073150Y0139800D02*
X0073150Y0140300D01*
X0071810Y0140300D01*
X0071810Y0140800D01*
X0073150Y0140800D01*
X0073150Y0140300D01*
X0073150Y0140800D02*
X0073150Y0141300D01*
X0071783Y0141300D01*
X0071430Y0141654D01*
X0070891Y0141654D01*
X0070537Y0141300D01*
X0068981Y0141300D01*
X0068627Y0141654D01*
X0068089Y0141654D01*
X0067735Y0141300D01*
X0067179Y0141300D01*
X0066826Y0141654D01*
X0063485Y0141654D01*
X0063131Y0141300D01*
X0061875Y0141300D01*
X0061521Y0141654D02*
X0058881Y0141654D01*
X0058527Y0141300D01*
X0057550Y0141300D01*
X0057550Y0141800D01*
X0073150Y0141800D01*
X0073150Y0141300D01*
X0073150Y0141800D02*
X0073150Y0142300D01*
X0057550Y0142300D01*
X0057550Y0142400D01*
X0073150Y0142400D01*
X0073150Y0142300D01*
X0071810Y0141273D02*
X0071783Y0141300D01*
X0071810Y0141273D02*
X0071810Y0140800D01*
X0071810Y0140300D02*
X0071810Y0139800D01*
X0071810Y0139300D02*
X0071810Y0138800D01*
X0071810Y0138300D02*
X0071810Y0137800D01*
X0071810Y0137300D02*
X0071810Y0137231D01*
X0071379Y0136800D01*
X0070879Y0136300D02*
X0070729Y0136150D01*
X0068789Y0136150D01*
X0068408Y0136531D01*
X0067708Y0137231D01*
X0067708Y0137300D01*
X0064404Y0137300D01*
X0064404Y0137800D01*
X0067708Y0137800D01*
X0067708Y0137300D01*
X0067708Y0137800D02*
X0067708Y0138300D01*
X0065472Y0138300D01*
X0065805Y0138633D01*
X0065805Y0138800D01*
X0067708Y0138800D01*
X0067708Y0138300D01*
X0067708Y0138800D02*
X0067708Y0139300D01*
X0065676Y0139300D01*
X0065805Y0139171D02*
X0065424Y0139552D01*
X0064404Y0139552D01*
X0064404Y0139800D01*
X0067708Y0139800D01*
X0067708Y0139300D01*
X0067708Y0139800D02*
X0067708Y0140300D01*
X0064404Y0140300D01*
X0064404Y0140354D01*
X0066826Y0140354D01*
X0067206Y0140734D01*
X0067206Y0140800D01*
X0067708Y0140800D01*
X0067708Y0140300D01*
X0067708Y0140800D02*
X0067708Y0141273D01*
X0067735Y0141300D01*
X0067206Y0141273D02*
X0067179Y0141300D01*
X0067206Y0141273D02*
X0067206Y0140800D01*
X0069008Y0140800D02*
X0070510Y0140800D01*
X0070510Y0140300D01*
X0069008Y0140300D01*
X0069008Y0140800D01*
X0069008Y0141273D01*
X0068981Y0141300D01*
X0069008Y0140300D02*
X0069008Y0139800D01*
X0070510Y0139800D01*
X0070510Y0139300D01*
X0069008Y0139300D01*
X0069008Y0139800D01*
X0069008Y0139300D02*
X0069008Y0138800D01*
X0070510Y0138800D01*
X0070510Y0138300D01*
X0069008Y0138300D01*
X0069008Y0138800D01*
X0069008Y0138300D02*
X0069008Y0137800D01*
X0070510Y0137800D01*
X0070510Y0137770D01*
X0070191Y0137450D01*
X0069328Y0137450D01*
X0069008Y0137770D01*
X0069008Y0137800D01*
X0068139Y0136800D02*
X0064404Y0136800D01*
X0064404Y0137300D01*
X0064404Y0137800D02*
X0064404Y0138252D01*
X0065424Y0138252D01*
X0065472Y0138300D01*
X0065805Y0138800D02*
X0065805Y0139171D01*
X0064404Y0139800D02*
X0064404Y0140300D01*
X0063104Y0140300D02*
X0062602Y0140300D01*
X0062602Y0140572D01*
X0061521Y0141654D01*
X0062375Y0140800D02*
X0063104Y0140800D01*
X0063104Y0140300D01*
X0063104Y0139800D01*
X0062602Y0139800D01*
X0062602Y0140300D01*
X0062602Y0139800D02*
X0062602Y0139300D01*
X0063104Y0139300D01*
X0063104Y0138800D01*
X0062602Y0138800D01*
X0062602Y0139300D01*
X0062602Y0138800D02*
X0062602Y0138300D01*
X0063104Y0138300D01*
X0063104Y0137800D01*
X0062602Y0137800D01*
X0062602Y0138300D01*
X0062602Y0137800D02*
X0062602Y0137300D01*
X0063104Y0137300D01*
X0063104Y0136800D01*
X0062171Y0136800D01*
X0062602Y0137231D01*
X0062602Y0137300D01*
X0063104Y0137300D02*
X0063104Y0137800D01*
X0063104Y0138300D02*
X0063104Y0138800D01*
X0063104Y0139300D02*
X0063104Y0139800D01*
X0063104Y0140800D02*
X0063104Y0141273D01*
X0063131Y0141300D01*
X0061302Y0140034D02*
X0061036Y0140300D01*
X0059800Y0140300D01*
X0059800Y0140354D01*
X0060983Y0140354D01*
X0061036Y0140300D01*
X0061302Y0140034D02*
X0061302Y0139800D01*
X0059800Y0139800D01*
X0059800Y0140300D01*
X0059800Y0139800D02*
X0059800Y0139300D01*
X0061302Y0139300D01*
X0061302Y0138800D01*
X0059800Y0138800D01*
X0059800Y0139300D01*
X0059800Y0138800D02*
X0059800Y0138300D01*
X0061302Y0138300D01*
X0061302Y0137800D01*
X0059800Y0137800D01*
X0059800Y0138300D01*
X0059800Y0137800D02*
X0059800Y0137450D01*
X0060983Y0137450D01*
X0061302Y0137770D01*
X0061302Y0137800D01*
X0061302Y0138300D02*
X0061302Y0138800D01*
X0061302Y0139300D02*
X0061302Y0139800D01*
X0058500Y0139800D02*
X0058500Y0140300D01*
X0057550Y0140300D01*
X0057550Y0140800D01*
X0058500Y0140800D01*
X0058500Y0140300D01*
X0058500Y0140800D02*
X0058500Y0141273D01*
X0058527Y0141300D01*
X0057550Y0141300D02*
X0057550Y0140800D01*
X0057550Y0141800D02*
X0057550Y0142300D01*
X0058500Y0139300D02*
X0058500Y0138800D01*
X0058500Y0138300D02*
X0058500Y0137800D01*
X0058500Y0137300D02*
X0058500Y0136800D01*
X0058731Y0136300D02*
X0058881Y0136150D01*
X0061521Y0136150D01*
X0061671Y0136300D01*
X0063335Y0136300D01*
X0063485Y0136150D01*
X0064023Y0136150D01*
X0064173Y0136300D01*
X0068639Y0136300D01*
X0070510Y0137800D02*
X0070510Y0138300D01*
X0070510Y0138800D02*
X0070510Y0139300D01*
X0070510Y0139800D02*
X0070510Y0140300D01*
X0070510Y0140800D02*
X0070510Y0141273D01*
X0070537Y0141300D01*
X0064404Y0136800D02*
X0064404Y0136531D01*
X0064173Y0136300D01*
X0063335Y0136300D02*
X0063104Y0136531D01*
X0063104Y0136800D01*
X0062171Y0136800D02*
X0061671Y0136300D01*
X0199025Y0136275D02*
X0199025Y0135775D01*
X0199975Y0135775D01*
X0199975Y0135306D01*
X0200006Y0135275D01*
X0199025Y0135275D01*
X0199025Y0135775D01*
X0199025Y0135275D02*
X0199025Y0134775D01*
X0223425Y0134775D01*
X0223425Y0134275D01*
X0199025Y0134275D01*
X0199025Y0134775D01*
X0199025Y0134275D02*
X0199025Y0133975D01*
X0223425Y0133975D01*
X0223425Y0134275D01*
X0223425Y0134775D02*
X0223425Y0135275D01*
X0221061Y0135275D01*
X0221092Y0135306D01*
X0221092Y0135775D01*
X0223425Y0135775D01*
X0223425Y0135275D01*
X0223425Y0135775D02*
X0223425Y0136275D01*
X0221092Y0136275D01*
X0221092Y0136775D01*
X0223425Y0136775D01*
X0223425Y0136275D01*
X0223425Y0136775D02*
X0223425Y0137275D01*
X0221092Y0137275D01*
X0221092Y0137775D01*
X0223425Y0137775D01*
X0223425Y0137275D01*
X0223425Y0137775D02*
X0223425Y0138275D01*
X0221092Y0138275D01*
X0221092Y0138775D01*
X0223425Y0138775D01*
X0223425Y0138275D01*
X0223425Y0138775D02*
X0223425Y0139275D01*
X0222259Y0139275D01*
X0222493Y0139509D01*
X0222493Y0139775D01*
X0223425Y0139775D01*
X0223425Y0139275D01*
X0223425Y0139775D02*
X0223425Y0140275D01*
X0222266Y0140275D01*
X0222112Y0140429D01*
X0218771Y0140429D01*
X0218618Y0140275D01*
X0217662Y0140275D01*
X0217508Y0140429D01*
X0214168Y0140429D01*
X0214014Y0140275D01*
X0212357Y0140275D01*
X0212204Y0140429D01*
X0210264Y0140429D01*
X0209183Y0139347D01*
X0209183Y0139275D01*
X0208447Y0139275D01*
X0208681Y0139509D01*
X0208681Y0139775D01*
X0209610Y0139775D01*
X0209183Y0139275D02*
X0209183Y0138775D01*
X0205879Y0138775D01*
X0205879Y0139129D01*
X0208301Y0139129D01*
X0208447Y0139275D01*
X0208681Y0139775D02*
X0208681Y0140048D01*
X0208454Y0140275D01*
X0210110Y0140275D01*
X0210803Y0139129D02*
X0211666Y0139129D01*
X0212019Y0138775D01*
X0210483Y0138775D01*
X0210483Y0138809D01*
X0210803Y0139129D01*
X0210483Y0138775D02*
X0210483Y0138647D01*
X0210803Y0138327D01*
X0212204Y0138327D01*
X0212256Y0138275D01*
X0213787Y0138275D01*
X0213787Y0137775D01*
X0212756Y0137775D01*
X0212256Y0138275D01*
X0212366Y0138428D02*
X0212019Y0138775D01*
X0212366Y0138428D02*
X0212905Y0138428D01*
X0213251Y0138775D01*
X0213787Y0138775D01*
X0213787Y0138275D01*
X0213787Y0138775D02*
X0213787Y0139275D01*
X0213285Y0139275D01*
X0213285Y0139347D01*
X0212857Y0139775D01*
X0213787Y0139775D01*
X0213787Y0139275D01*
X0213787Y0139775D02*
X0213787Y0140048D01*
X0214014Y0140275D01*
X0213285Y0139275D02*
X0213285Y0138809D01*
X0213251Y0138775D01*
X0212857Y0139775D02*
X0212357Y0140275D01*
X0215087Y0139129D02*
X0217508Y0139129D01*
X0217655Y0139275D01*
X0218625Y0139275D01*
X0218771Y0139129D01*
X0219792Y0139129D01*
X0219792Y0138775D01*
X0215087Y0138775D01*
X0215087Y0139129D01*
X0215087Y0138775D02*
X0215087Y0138327D01*
X0216107Y0138327D01*
X0216488Y0137946D01*
X0216488Y0137775D01*
X0219792Y0137775D01*
X0219792Y0137275D01*
X0216355Y0137275D01*
X0216488Y0137408D01*
X0216488Y0137775D01*
X0216355Y0137275D02*
X0216107Y0137027D01*
X0215087Y0137027D01*
X0215087Y0136775D01*
X0219792Y0136775D01*
X0219792Y0136275D01*
X0215087Y0136275D01*
X0215087Y0136775D01*
X0215087Y0136275D02*
X0215087Y0136225D01*
X0217508Y0136225D01*
X0217889Y0135844D01*
X0217889Y0135775D01*
X0219792Y0135775D01*
X0219792Y0135306D01*
X0219823Y0135275D01*
X0217858Y0135275D01*
X0217889Y0135306D01*
X0217889Y0135775D01*
X0217858Y0135275D02*
X0217508Y0134925D01*
X0214168Y0134925D01*
X0213818Y0135275D01*
X0212554Y0135275D01*
X0213054Y0135775D01*
X0213787Y0135775D01*
X0213787Y0135306D01*
X0213818Y0135275D01*
X0213787Y0135775D02*
X0213787Y0136275D01*
X0213285Y0136275D01*
X0213285Y0136775D01*
X0213787Y0136775D01*
X0213787Y0136275D01*
X0213787Y0136775D02*
X0213787Y0137275D01*
X0213256Y0137275D01*
X0212756Y0137775D01*
X0213256Y0137275D02*
X0213285Y0137245D01*
X0213285Y0136775D01*
X0213285Y0136275D02*
X0213285Y0136006D01*
X0213054Y0135775D01*
X0212554Y0135275D02*
X0212204Y0134925D01*
X0210264Y0134925D01*
X0209914Y0135275D01*
X0208651Y0135275D01*
X0208681Y0135306D01*
X0208681Y0135775D01*
X0209414Y0135775D01*
X0209914Y0135275D01*
X0209414Y0135775D02*
X0209183Y0136006D01*
X0209183Y0136275D01*
X0205879Y0136275D01*
X0205879Y0136775D01*
X0209413Y0136775D01*
X0209183Y0136545D01*
X0209183Y0136275D01*
X0209413Y0136775D02*
X0209564Y0136925D01*
X0210102Y0136925D01*
X0210253Y0136775D01*
X0211917Y0136775D01*
X0211985Y0136707D02*
X0211985Y0136545D01*
X0211716Y0136275D01*
X0210753Y0136275D01*
X0210253Y0136775D01*
X0210264Y0137027D02*
X0211666Y0137027D01*
X0211985Y0136707D01*
X0211716Y0136275D02*
X0211666Y0136225D01*
X0210803Y0136225D01*
X0210753Y0136275D01*
X0210264Y0137027D02*
X0209883Y0137408D01*
X0209516Y0137775D01*
X0207280Y0137775D01*
X0207280Y0137946D01*
X0206899Y0138327D01*
X0205879Y0138327D01*
X0205879Y0138775D01*
X0206951Y0138275D02*
X0209183Y0138275D01*
X0209183Y0138108D01*
X0209516Y0137775D01*
X0209183Y0138275D02*
X0209183Y0138775D01*
X0208454Y0140275D02*
X0208301Y0140429D01*
X0204960Y0140429D01*
X0204806Y0140275D01*
X0203150Y0140275D01*
X0202996Y0140429D02*
X0200356Y0140429D01*
X0200202Y0140275D01*
X0199025Y0140275D01*
X0199025Y0140775D01*
X0223425Y0140775D01*
X0223425Y0140275D01*
X0223425Y0140775D02*
X0223425Y0141275D01*
X0199025Y0141275D01*
X0199025Y0141575D01*
X0223425Y0141575D01*
X0223425Y0141275D01*
X0222266Y0140275D02*
X0222493Y0140048D01*
X0222493Y0139775D01*
X0222259Y0139275D02*
X0222112Y0139129D01*
X0221092Y0139129D01*
X0221092Y0138775D01*
X0221092Y0138275D02*
X0221092Y0137775D01*
X0221092Y0137275D02*
X0221092Y0136775D01*
X0221092Y0136275D02*
X0221092Y0135775D01*
X0221061Y0135275D02*
X0220711Y0134925D01*
X0220173Y0134925D01*
X0219823Y0135275D01*
X0219792Y0135775D02*
X0219792Y0136275D01*
X0219792Y0136775D02*
X0219792Y0137275D01*
X0219792Y0137775D02*
X0219792Y0138275D01*
X0216159Y0138275D01*
X0217655Y0139275D02*
X0217889Y0139509D01*
X0217889Y0139775D01*
X0218391Y0139775D01*
X0218391Y0139509D01*
X0218625Y0139275D01*
X0218391Y0139775D02*
X0218391Y0140048D01*
X0218618Y0140275D01*
X0217889Y0140048D02*
X0217662Y0140275D01*
X0217889Y0140048D02*
X0217889Y0139775D01*
X0219792Y0138775D02*
X0219792Y0138275D01*
X0213787Y0137775D02*
X0213787Y0137275D01*
X0210016Y0137275D02*
X0207147Y0137275D01*
X0207280Y0137408D01*
X0207280Y0137775D01*
X0207147Y0137275D02*
X0206899Y0137027D01*
X0205879Y0137027D01*
X0205879Y0136775D01*
X0205879Y0136275D02*
X0205879Y0136225D01*
X0208301Y0136225D01*
X0208681Y0135844D01*
X0208681Y0135775D01*
X0208651Y0135275D02*
X0208301Y0134925D01*
X0204960Y0134925D01*
X0204610Y0135275D01*
X0204047Y0135275D01*
X0204077Y0135306D01*
X0204077Y0135775D01*
X0204579Y0135775D01*
X0204579Y0135306D01*
X0204610Y0135275D01*
X0204579Y0135775D02*
X0204579Y0136275D01*
X0203647Y0136275D01*
X0203296Y0136626D01*
X0204077Y0137408D01*
X0204077Y0137775D01*
X0204579Y0137775D01*
X0204579Y0137275D01*
X0203945Y0137275D01*
X0204077Y0137775D02*
X0204077Y0138275D01*
X0204579Y0138275D01*
X0204579Y0137775D01*
X0204579Y0137275D02*
X0204579Y0136775D01*
X0203445Y0136775D01*
X0203647Y0136275D02*
X0204077Y0135844D01*
X0204077Y0135775D01*
X0204047Y0135275D02*
X0203697Y0134925D01*
X0203158Y0134925D01*
X0202808Y0135275D01*
X0201244Y0135275D01*
X0201275Y0135306D01*
X0201275Y0135775D01*
X0202308Y0135775D01*
X0202808Y0135275D01*
X0202308Y0135775D02*
X0201808Y0136275D01*
X0201275Y0136275D01*
X0201275Y0136326D01*
X0201757Y0136326D01*
X0201808Y0136275D01*
X0201275Y0136275D02*
X0201275Y0135775D01*
X0201244Y0135275D02*
X0200894Y0134925D01*
X0200356Y0134925D01*
X0200006Y0135275D01*
X0199975Y0135775D02*
X0199975Y0136275D01*
X0199025Y0136275D01*
X0199025Y0136775D01*
X0199975Y0136775D01*
X0199975Y0136275D01*
X0199975Y0136775D02*
X0199975Y0137275D01*
X0199025Y0137275D01*
X0199025Y0137775D01*
X0199975Y0137775D01*
X0199975Y0137275D01*
X0199975Y0137775D02*
X0199975Y0138275D01*
X0199025Y0138275D01*
X0199025Y0138775D01*
X0199975Y0138775D01*
X0199975Y0138275D01*
X0199975Y0138775D02*
X0199975Y0139275D01*
X0199025Y0139275D01*
X0199025Y0139775D01*
X0199975Y0139775D01*
X0199975Y0139275D01*
X0199975Y0139775D02*
X0199975Y0140048D01*
X0200202Y0140275D01*
X0199025Y0140275D02*
X0199025Y0139775D01*
X0199025Y0139275D02*
X0199025Y0138775D01*
X0199025Y0138275D02*
X0199025Y0137775D01*
X0199025Y0137275D02*
X0199025Y0136775D01*
X0201275Y0137626D02*
X0201275Y0137775D01*
X0202606Y0137775D01*
X0202458Y0137626D01*
X0201275Y0137626D01*
X0201275Y0137775D02*
X0201275Y0138275D01*
X0202777Y0138275D01*
X0202777Y0137946D01*
X0202606Y0137775D01*
X0202777Y0138275D02*
X0202777Y0138775D01*
X0201275Y0138775D01*
X0201275Y0139129D01*
X0202458Y0139129D01*
X0202777Y0138809D01*
X0202777Y0138775D01*
X0204077Y0138775D02*
X0204579Y0138775D01*
X0204579Y0138275D01*
X0204579Y0138775D02*
X0204579Y0139275D01*
X0204077Y0139275D01*
X0204077Y0139347D01*
X0202996Y0140429D01*
X0203650Y0139775D02*
X0204579Y0139775D01*
X0204579Y0139275D01*
X0204579Y0139775D02*
X0204579Y0140048D01*
X0204806Y0140275D01*
X0204077Y0139275D02*
X0204077Y0138775D01*
X0204077Y0138275D01*
X0204579Y0136775D02*
X0204579Y0136275D01*
X0201275Y0138275D02*
X0201275Y0138775D01*
X0199025Y0140775D02*
X0199025Y0141275D01*
X0199439Y0133061D02*
X0199439Y0109439D01*
X0223061Y0109439D01*
X0223061Y0133061D01*
X0199439Y0133061D01*
X0204360Y0121250D02*
X0204362Y0121419D01*
X0204368Y0121588D01*
X0204379Y0121757D01*
X0204393Y0121925D01*
X0204412Y0122093D01*
X0204435Y0122261D01*
X0204461Y0122428D01*
X0204492Y0122594D01*
X0204527Y0122760D01*
X0204566Y0122924D01*
X0204610Y0123088D01*
X0204657Y0123250D01*
X0204708Y0123411D01*
X0204763Y0123571D01*
X0204822Y0123730D01*
X0204884Y0123887D01*
X0204951Y0124042D01*
X0205022Y0124196D01*
X0205096Y0124348D01*
X0205174Y0124498D01*
X0205255Y0124646D01*
X0205340Y0124792D01*
X0205429Y0124936D01*
X0205521Y0125078D01*
X0205617Y0125217D01*
X0205716Y0125354D01*
X0205818Y0125489D01*
X0205924Y0125621D01*
X0206033Y0125750D01*
X0206145Y0125877D01*
X0206260Y0126001D01*
X0206378Y0126122D01*
X0206499Y0126240D01*
X0206623Y0126355D01*
X0206750Y0126467D01*
X0206879Y0126576D01*
X0207011Y0126682D01*
X0207146Y0126784D01*
X0207283Y0126883D01*
X0207422Y0126979D01*
X0207564Y0127071D01*
X0207708Y0127160D01*
X0207854Y0127245D01*
X0208002Y0127326D01*
X0208152Y0127404D01*
X0208304Y0127478D01*
X0208458Y0127549D01*
X0208613Y0127616D01*
X0208770Y0127678D01*
X0208929Y0127737D01*
X0209089Y0127792D01*
X0209250Y0127843D01*
X0209412Y0127890D01*
X0209576Y0127934D01*
X0209740Y0127973D01*
X0209906Y0128008D01*
X0210072Y0128039D01*
X0210239Y0128065D01*
X0210407Y0128088D01*
X0210575Y0128107D01*
X0210743Y0128121D01*
X0210912Y0128132D01*
X0211081Y0128138D01*
X0211250Y0128140D01*
X0211419Y0128138D01*
X0211588Y0128132D01*
X0211757Y0128121D01*
X0211925Y0128107D01*
X0212093Y0128088D01*
X0212261Y0128065D01*
X0212428Y0128039D01*
X0212594Y0128008D01*
X0212760Y0127973D01*
X0212924Y0127934D01*
X0213088Y0127890D01*
X0213250Y0127843D01*
X0213411Y0127792D01*
X0213571Y0127737D01*
X0213730Y0127678D01*
X0213887Y0127616D01*
X0214042Y0127549D01*
X0214196Y0127478D01*
X0214348Y0127404D01*
X0214498Y0127326D01*
X0214646Y0127245D01*
X0214792Y0127160D01*
X0214936Y0127071D01*
X0215078Y0126979D01*
X0215217Y0126883D01*
X0215354Y0126784D01*
X0215489Y0126682D01*
X0215621Y0126576D01*
X0215750Y0126467D01*
X0215877Y0126355D01*
X0216001Y0126240D01*
X0216122Y0126122D01*
X0216240Y0126001D01*
X0216355Y0125877D01*
X0216467Y0125750D01*
X0216576Y0125621D01*
X0216682Y0125489D01*
X0216784Y0125354D01*
X0216883Y0125217D01*
X0216979Y0125078D01*
X0217071Y0124936D01*
X0217160Y0124792D01*
X0217245Y0124646D01*
X0217326Y0124498D01*
X0217404Y0124348D01*
X0217478Y0124196D01*
X0217549Y0124042D01*
X0217616Y0123887D01*
X0217678Y0123730D01*
X0217737Y0123571D01*
X0217792Y0123411D01*
X0217843Y0123250D01*
X0217890Y0123088D01*
X0217934Y0122924D01*
X0217973Y0122760D01*
X0218008Y0122594D01*
X0218039Y0122428D01*
X0218065Y0122261D01*
X0218088Y0122093D01*
X0218107Y0121925D01*
X0218121Y0121757D01*
X0218132Y0121588D01*
X0218138Y0121419D01*
X0218140Y0121250D01*
X0218138Y0121081D01*
X0218132Y0120912D01*
X0218121Y0120743D01*
X0218107Y0120575D01*
X0218088Y0120407D01*
X0218065Y0120239D01*
X0218039Y0120072D01*
X0218008Y0119906D01*
X0217973Y0119740D01*
X0217934Y0119576D01*
X0217890Y0119412D01*
X0217843Y0119250D01*
X0217792Y0119089D01*
X0217737Y0118929D01*
X0217678Y0118770D01*
X0217616Y0118613D01*
X0217549Y0118458D01*
X0217478Y0118304D01*
X0217404Y0118152D01*
X0217326Y0118002D01*
X0217245Y0117854D01*
X0217160Y0117708D01*
X0217071Y0117564D01*
X0216979Y0117422D01*
X0216883Y0117283D01*
X0216784Y0117146D01*
X0216682Y0117011D01*
X0216576Y0116879D01*
X0216467Y0116750D01*
X0216355Y0116623D01*
X0216240Y0116499D01*
X0216122Y0116378D01*
X0216001Y0116260D01*
X0215877Y0116145D01*
X0215750Y0116033D01*
X0215621Y0115924D01*
X0215489Y0115818D01*
X0215354Y0115716D01*
X0215217Y0115617D01*
X0215078Y0115521D01*
X0214936Y0115429D01*
X0214792Y0115340D01*
X0214646Y0115255D01*
X0214498Y0115174D01*
X0214348Y0115096D01*
X0214196Y0115022D01*
X0214042Y0114951D01*
X0213887Y0114884D01*
X0213730Y0114822D01*
X0213571Y0114763D01*
X0213411Y0114708D01*
X0213250Y0114657D01*
X0213088Y0114610D01*
X0212924Y0114566D01*
X0212760Y0114527D01*
X0212594Y0114492D01*
X0212428Y0114461D01*
X0212261Y0114435D01*
X0212093Y0114412D01*
X0211925Y0114393D01*
X0211757Y0114379D01*
X0211588Y0114368D01*
X0211419Y0114362D01*
X0211250Y0114360D01*
X0211081Y0114362D01*
X0210912Y0114368D01*
X0210743Y0114379D01*
X0210575Y0114393D01*
X0210407Y0114412D01*
X0210239Y0114435D01*
X0210072Y0114461D01*
X0209906Y0114492D01*
X0209740Y0114527D01*
X0209576Y0114566D01*
X0209412Y0114610D01*
X0209250Y0114657D01*
X0209089Y0114708D01*
X0208929Y0114763D01*
X0208770Y0114822D01*
X0208613Y0114884D01*
X0208458Y0114951D01*
X0208304Y0115022D01*
X0208152Y0115096D01*
X0208002Y0115174D01*
X0207854Y0115255D01*
X0207708Y0115340D01*
X0207564Y0115429D01*
X0207422Y0115521D01*
X0207283Y0115617D01*
X0207146Y0115716D01*
X0207011Y0115818D01*
X0206879Y0115924D01*
X0206750Y0116033D01*
X0206623Y0116145D01*
X0206499Y0116260D01*
X0206378Y0116378D01*
X0206260Y0116499D01*
X0206145Y0116623D01*
X0206033Y0116750D01*
X0205924Y0116879D01*
X0205818Y0117011D01*
X0205716Y0117146D01*
X0205617Y0117283D01*
X0205521Y0117422D01*
X0205429Y0117564D01*
X0205340Y0117708D01*
X0205255Y0117854D01*
X0205174Y0118002D01*
X0205096Y0118152D01*
X0205022Y0118304D01*
X0204951Y0118458D01*
X0204884Y0118613D01*
X0204822Y0118770D01*
X0204763Y0118929D01*
X0204708Y0119089D01*
X0204657Y0119250D01*
X0204610Y0119412D01*
X0204566Y0119576D01*
X0204527Y0119740D01*
X0204492Y0119906D01*
X0204461Y0120072D01*
X0204435Y0120239D01*
X0204412Y0120407D01*
X0204393Y0120575D01*
X0204379Y0120743D01*
X0204368Y0120912D01*
X0204362Y0121081D01*
X0204360Y0121250D01*
D11*
X0198250Y0108125D02*
X0186750Y0108125D01*
X0186750Y0103125D01*
X0198250Y0103125D01*
X0198250Y0108125D01*
X0192625Y0103125D02*
X0192625Y0098125D01*
X0181125Y0098125D01*
X0181125Y0103125D01*
X0192625Y0103125D01*
X0196875Y0087625D02*
X0201875Y0087625D01*
X0206875Y0087625D01*
X0211875Y0087625D01*
X0216875Y0087625D01*
X0216875Y0076125D01*
X0211875Y0076125D01*
X0211875Y0087625D01*
X0211875Y0076125D01*
X0206875Y0076125D01*
X0206875Y0087625D01*
X0206875Y0076125D01*
X0201875Y0076125D01*
X0201875Y0087625D01*
X0201875Y0076125D01*
X0196875Y0076125D01*
X0196875Y0087625D01*
X0195125Y0081875D02*
X0195125Y0076875D01*
X0183625Y0076875D01*
X0183625Y0081875D01*
X0195125Y0081875D01*
X0174542Y0093292D02*
X0174542Y0040418D01*
X0121708Y0040418D01*
X0121708Y0093292D01*
X0174542Y0093292D01*
X0205000Y0064500D02*
X0210000Y0064500D01*
X0215000Y0064500D01*
X0215000Y0053000D01*
X0210000Y0053000D01*
X0210000Y0064500D01*
X0210000Y0053000D01*
X0205000Y0053000D01*
X0205000Y0064500D01*
X0221250Y0069875D02*
X0221250Y0081375D01*
X0226250Y0081375D01*
X0226250Y0069875D01*
X0221250Y0069875D01*
X0230157Y0075069D02*
X0230157Y0077431D01*
X0226250Y0082375D02*
X0221250Y0082375D01*
X0221250Y0093875D01*
X0226250Y0093875D01*
X0226250Y0082375D01*
X0237638Y0082549D02*
X0242362Y0082549D01*
X0249843Y0077431D02*
X0249843Y0075069D01*
X0253750Y0070500D02*
X0258750Y0070500D01*
X0258750Y0082000D01*
X0253750Y0082000D01*
X0253750Y0070500D01*
X0242362Y0069951D02*
X0237638Y0069951D01*
X0228875Y0051250D02*
X0217375Y0051250D01*
X0217375Y0046250D01*
X0228875Y0046250D01*
X0228875Y0051250D01*
X0213002Y0045468D02*
X0213002Y0025782D01*
X0258278Y0025782D01*
X0258278Y0045468D01*
X0213002Y0045468D01*
X0218000Y0025000D02*
X0218000Y0020000D01*
X0229500Y0020000D01*
X0229500Y0025000D01*
X0218000Y0025000D01*
X0177500Y0021125D02*
X0172500Y0021125D01*
X0172500Y0032625D01*
X0177500Y0032625D01*
X0177500Y0021125D01*
X0113125Y0034875D02*
X0108125Y0034875D01*
X0108125Y0046375D01*
X0113125Y0046375D01*
X0113125Y0034875D01*
X0113125Y0044875D02*
X0108125Y0044875D01*
X0108125Y0056375D01*
X0113125Y0056375D01*
X0113125Y0044875D01*
X0116375Y0094375D02*
X0104875Y0094375D01*
X0104875Y0099375D01*
X0116375Y0099375D01*
X0116375Y0094375D01*
X0116375Y0099375D02*
X0116375Y0104375D01*
X0104875Y0104375D01*
X0104875Y0099375D01*
X0116375Y0099375D01*
X0041801Y0117038D02*
X0038265Y0120574D01*
X0030134Y0112442D01*
X0033669Y0108906D01*
X0041801Y0117038D01*
X0255207Y0051934D02*
X0260719Y0051934D01*
X0260719Y0046816D01*
X0255207Y0046816D01*
X0259813Y0045074D02*
X0267687Y0045074D01*
X0267687Y0026176D01*
X0259813Y0026176D01*
X0259813Y0045074D01*
X0260719Y0046816D02*
X0262293Y0046816D01*
X0262293Y0051934D02*
X0260719Y0051934D01*
D12*
X0108301Y0029575D02*
X0107700Y0030176D01*
X0107700Y0032578D01*
X0108301Y0033178D01*
X0109502Y0033178D01*
X0110102Y0032578D01*
X0111383Y0031377D02*
X0113185Y0031377D01*
X0113785Y0030776D01*
X0113785Y0030176D01*
X0113185Y0029575D01*
X0111984Y0029575D01*
X0111383Y0030176D01*
X0111383Y0031377D01*
X0112584Y0032578D01*
X0113785Y0033178D01*
X0110102Y0030176D02*
X0109502Y0029575D01*
X0108301Y0029575D01*
X0142700Y0028301D02*
X0143301Y0027700D01*
X0144502Y0027700D01*
X0145102Y0028301D01*
X0145102Y0031303D01*
X0146383Y0030102D02*
X0147584Y0031303D01*
X0147584Y0027700D01*
X0146383Y0027700D02*
X0148785Y0027700D01*
X0142700Y0028301D02*
X0142700Y0031303D01*
X0178950Y0023828D02*
X0178950Y0021426D01*
X0179551Y0020825D01*
X0180752Y0020825D01*
X0181352Y0021426D01*
X0182633Y0021426D02*
X0183234Y0020825D01*
X0184435Y0020825D01*
X0185035Y0021426D01*
X0185035Y0022627D01*
X0184435Y0023227D01*
X0183834Y0023227D01*
X0182633Y0022627D01*
X0182633Y0024428D01*
X0185035Y0024428D01*
X0181352Y0023828D02*
X0180752Y0024428D01*
X0179551Y0024428D01*
X0178950Y0023828D01*
X0206003Y0032981D02*
X0206003Y0034783D01*
X0207204Y0035984D01*
X0207204Y0036585D01*
X0208485Y0035984D02*
X0209086Y0036585D01*
X0210287Y0036585D01*
X0210887Y0035984D01*
X0210887Y0035384D01*
X0208485Y0032981D01*
X0210887Y0032981D01*
X0206003Y0034783D02*
X0204802Y0035984D01*
X0204802Y0036585D01*
X0203199Y0052901D02*
X0200797Y0052901D01*
X0200197Y0053501D01*
X0200197Y0054702D01*
X0200797Y0055303D01*
X0201398Y0056584D02*
X0200197Y0057785D01*
X0203800Y0057785D01*
X0203800Y0056584D02*
X0203800Y0058986D01*
X0203199Y0060267D02*
X0200797Y0062669D01*
X0203199Y0062669D01*
X0203800Y0062068D01*
X0203800Y0060867D01*
X0203199Y0060267D01*
X0200797Y0060267D01*
X0200197Y0060867D01*
X0200197Y0062068D01*
X0200797Y0062669D01*
X0200699Y0065401D02*
X0198297Y0065401D01*
X0197697Y0066001D01*
X0197697Y0067202D01*
X0198297Y0067803D01*
X0198898Y0069084D02*
X0197697Y0070285D01*
X0201300Y0070285D01*
X0201300Y0069084D02*
X0201300Y0071486D01*
X0201300Y0072767D02*
X0198898Y0075169D01*
X0198297Y0075169D01*
X0197697Y0074568D01*
X0197697Y0073367D01*
X0198297Y0072767D01*
X0201300Y0072767D02*
X0201300Y0075169D01*
X0202697Y0074568D02*
X0202697Y0073367D01*
X0203297Y0072767D01*
X0204498Y0073968D02*
X0204498Y0074568D01*
X0205099Y0075169D01*
X0205699Y0075169D01*
X0206300Y0074568D01*
X0206300Y0073367D01*
X0205699Y0072767D01*
X0206300Y0071486D02*
X0206300Y0069084D01*
X0206300Y0070285D02*
X0202697Y0070285D01*
X0203898Y0069084D01*
X0203297Y0067803D02*
X0202697Y0067202D01*
X0202697Y0066001D01*
X0203297Y0065401D01*
X0205699Y0065401D01*
X0206300Y0066001D01*
X0206300Y0067202D01*
X0205699Y0067803D01*
X0207697Y0069684D02*
X0208297Y0069084D01*
X0210699Y0069084D01*
X0211300Y0069684D01*
X0211300Y0070885D01*
X0210699Y0071486D01*
X0210699Y0072767D02*
X0211300Y0073367D01*
X0211300Y0074568D01*
X0210699Y0075169D01*
X0210099Y0075169D01*
X0209498Y0074568D01*
X0209498Y0073968D01*
X0209498Y0074568D02*
X0208898Y0075169D01*
X0208297Y0075169D01*
X0207697Y0074568D01*
X0207697Y0073367D01*
X0208297Y0072767D01*
X0208297Y0071486D02*
X0207697Y0070885D01*
X0207697Y0069684D01*
X0212697Y0069684D02*
X0212697Y0070885D01*
X0213297Y0071486D01*
X0214498Y0072767D02*
X0214498Y0075169D01*
X0212697Y0074568D02*
X0214498Y0072767D01*
X0215699Y0071486D02*
X0216300Y0070885D01*
X0216300Y0069684D01*
X0215699Y0069084D01*
X0213297Y0069084D01*
X0212697Y0069684D01*
X0212697Y0074568D02*
X0216300Y0074568D01*
X0221426Y0068803D02*
X0220825Y0068203D01*
X0220825Y0065801D01*
X0221426Y0065200D01*
X0222627Y0065200D01*
X0223227Y0065801D01*
X0224508Y0065200D02*
X0226910Y0065200D01*
X0225709Y0065200D02*
X0225709Y0068803D01*
X0224508Y0067602D01*
X0223227Y0068203D02*
X0222627Y0068803D01*
X0221426Y0068803D01*
X0228191Y0067002D02*
X0230593Y0067002D01*
X0229993Y0068803D02*
X0229993Y0065200D01*
X0228191Y0067002D02*
X0229993Y0068803D01*
X0237075Y0067553D02*
X0237075Y0066953D01*
X0238276Y0065752D01*
X0238276Y0063950D01*
X0238276Y0065752D02*
X0239477Y0066953D01*
X0239477Y0067553D01*
X0240758Y0066352D02*
X0241959Y0067553D01*
X0241959Y0063950D01*
X0240758Y0063950D02*
X0243160Y0063950D01*
X0253325Y0066426D02*
X0253325Y0068828D01*
X0253926Y0069428D01*
X0255127Y0069428D01*
X0255727Y0068828D01*
X0257008Y0068227D02*
X0258209Y0069428D01*
X0258209Y0065825D01*
X0257008Y0065825D02*
X0259410Y0065825D01*
X0260691Y0066426D02*
X0261292Y0065825D01*
X0262493Y0065825D01*
X0263093Y0066426D01*
X0263093Y0067627D01*
X0262493Y0068227D01*
X0261892Y0068227D01*
X0260691Y0067627D01*
X0260691Y0069428D01*
X0263093Y0069428D01*
X0255727Y0066426D02*
X0255127Y0065825D01*
X0253926Y0065825D01*
X0253325Y0066426D01*
X0255450Y0057178D02*
X0257252Y0057178D01*
X0257852Y0056578D01*
X0257852Y0054176D01*
X0257252Y0053575D01*
X0255450Y0053575D01*
X0255450Y0057178D01*
X0259133Y0055977D02*
X0260334Y0057178D01*
X0260334Y0053575D01*
X0259133Y0053575D02*
X0261535Y0053575D01*
X0239968Y0050078D02*
X0237566Y0047676D01*
X0238167Y0047075D01*
X0239368Y0047075D01*
X0239968Y0047676D01*
X0239968Y0050078D01*
X0239368Y0050678D01*
X0238167Y0050678D01*
X0237566Y0050078D01*
X0237566Y0047676D01*
X0236285Y0047075D02*
X0233883Y0047075D01*
X0236285Y0049477D01*
X0236285Y0050078D01*
X0235685Y0050678D01*
X0234484Y0050678D01*
X0233883Y0050078D01*
X0232602Y0050078D02*
X0232002Y0050678D01*
X0230801Y0050678D01*
X0230200Y0050078D01*
X0230200Y0047676D01*
X0230801Y0047075D01*
X0232002Y0047075D01*
X0232602Y0047676D01*
X0219800Y0053301D02*
X0219800Y0054502D01*
X0219199Y0055102D01*
X0219800Y0056383D02*
X0219800Y0058785D01*
X0219800Y0057584D02*
X0216197Y0057584D01*
X0217398Y0056383D01*
X0216797Y0055102D02*
X0216197Y0054502D01*
X0216197Y0053301D01*
X0216797Y0052700D01*
X0219199Y0052700D01*
X0219800Y0053301D01*
X0219800Y0060066D02*
X0219800Y0062468D01*
X0219800Y0061267D02*
X0216197Y0061267D01*
X0217398Y0060066D01*
X0203800Y0054702D02*
X0203800Y0053501D01*
X0203199Y0052901D01*
X0203800Y0054702D02*
X0203199Y0055303D01*
X0200699Y0065401D02*
X0201300Y0066001D01*
X0201300Y0067202D01*
X0200699Y0067803D01*
X0202697Y0074568D02*
X0203297Y0075169D01*
X0203898Y0075169D01*
X0204498Y0074568D01*
X0189410Y0083926D02*
X0189410Y0086328D01*
X0188810Y0086928D01*
X0187609Y0086928D01*
X0187008Y0086328D01*
X0187008Y0085727D01*
X0187609Y0085127D01*
X0189410Y0085127D01*
X0189410Y0083926D02*
X0188810Y0083325D01*
X0187609Y0083325D01*
X0187008Y0083926D01*
X0185727Y0083926D02*
X0185127Y0083325D01*
X0183926Y0083325D01*
X0183325Y0083926D01*
X0183325Y0086328D01*
X0183926Y0086928D01*
X0185127Y0086928D01*
X0185727Y0086328D01*
X0187676Y0093325D02*
X0188877Y0093325D01*
X0189477Y0093926D01*
X0190758Y0093926D02*
X0190758Y0094526D01*
X0191359Y0095127D01*
X0192560Y0095127D01*
X0193160Y0094526D01*
X0193160Y0093926D01*
X0192560Y0093325D01*
X0191359Y0093325D01*
X0190758Y0093926D01*
X0191359Y0095127D02*
X0190758Y0095727D01*
X0190758Y0096328D01*
X0191359Y0096928D01*
X0192560Y0096928D01*
X0193160Y0096328D01*
X0193160Y0095727D01*
X0192560Y0095127D01*
X0189477Y0096328D02*
X0188877Y0096928D01*
X0187676Y0096928D01*
X0187075Y0096328D01*
X0187075Y0093926D01*
X0187676Y0093325D01*
X0212225Y0097676D02*
X0212826Y0097075D01*
X0214027Y0097075D01*
X0214627Y0097676D01*
X0214627Y0100678D01*
X0215908Y0100078D02*
X0216509Y0100678D01*
X0217710Y0100678D01*
X0218310Y0100078D01*
X0218310Y0099477D01*
X0215908Y0097075D01*
X0218310Y0097075D01*
X0221450Y0098178D02*
X0221450Y0094575D01*
X0221450Y0095776D02*
X0223252Y0095776D01*
X0223852Y0096377D01*
X0223852Y0097578D01*
X0223252Y0098178D01*
X0221450Y0098178D01*
X0222651Y0095776D02*
X0223852Y0094575D01*
X0225133Y0094575D02*
X0227535Y0096977D01*
X0227535Y0097578D01*
X0226935Y0098178D01*
X0225734Y0098178D01*
X0225133Y0097578D01*
X0225133Y0094575D02*
X0227535Y0094575D01*
X0212225Y0097676D02*
X0212225Y0100678D01*
X0226452Y0117142D02*
X0227052Y0117142D01*
X0227653Y0117742D01*
X0227653Y0118943D01*
X0228254Y0119544D01*
X0228854Y0119544D01*
X0229455Y0118943D01*
X0229455Y0117742D01*
X0228854Y0117142D01*
X0226452Y0117142D02*
X0225851Y0117742D01*
X0225851Y0118943D01*
X0226452Y0119544D01*
X0227052Y0120825D02*
X0225851Y0122026D01*
X0229455Y0122026D01*
X0229455Y0120825D02*
X0229455Y0123227D01*
X0144358Y0155200D02*
X0141289Y0155200D01*
X0142824Y0155200D02*
X0142824Y0159804D01*
X0141289Y0158269D01*
X0139754Y0159804D02*
X0139754Y0155200D01*
X0136685Y0155200D02*
X0136685Y0159804D01*
X0138220Y0158269D01*
X0139754Y0159804D01*
X0135150Y0159804D02*
X0135150Y0155200D01*
X0132081Y0155200D02*
X0132081Y0159804D01*
X0133616Y0158269D01*
X0135150Y0159804D01*
X0130546Y0159804D02*
X0129012Y0159804D01*
X0129779Y0159804D02*
X0129779Y0155200D01*
X0129012Y0155200D02*
X0130546Y0155200D01*
X0127477Y0155967D02*
X0127477Y0159037D01*
X0126710Y0159804D01*
X0124408Y0159804D01*
X0124408Y0155200D01*
X0126710Y0155200D01*
X0127477Y0155967D01*
X0122873Y0155967D02*
X0122873Y0159037D01*
X0122106Y0159804D01*
X0120571Y0159804D01*
X0119804Y0159037D01*
X0119804Y0155967D01*
X0120571Y0155200D01*
X0122106Y0155200D01*
X0122873Y0155967D01*
X0118269Y0155967D02*
X0117502Y0155200D01*
X0115967Y0155200D01*
X0115200Y0155967D01*
X0115967Y0157502D02*
X0117502Y0157502D01*
X0118269Y0156735D01*
X0118269Y0155967D01*
X0115967Y0157502D02*
X0115200Y0158269D01*
X0115200Y0159037D01*
X0115967Y0159804D01*
X0117502Y0159804D01*
X0118269Y0159037D01*
X0110060Y0109428D02*
X0108859Y0109428D01*
X0108258Y0108828D01*
X0106977Y0108828D02*
X0106377Y0109428D01*
X0105176Y0109428D01*
X0104575Y0108828D01*
X0104575Y0106426D01*
X0105176Y0105825D01*
X0106377Y0105825D01*
X0106977Y0106426D01*
X0108258Y0105825D02*
X0110660Y0108227D01*
X0110660Y0108828D01*
X0110060Y0109428D01*
X0110660Y0105825D02*
X0108258Y0105825D01*
X0108258Y0092553D02*
X0110660Y0092553D01*
X0110660Y0091953D01*
X0108258Y0089551D01*
X0108258Y0088950D01*
X0106977Y0089551D02*
X0106377Y0088950D01*
X0105176Y0088950D01*
X0104575Y0089551D01*
X0104575Y0091953D01*
X0105176Y0092553D01*
X0106377Y0092553D01*
X0106977Y0091953D01*
X0108301Y0061303D02*
X0107700Y0060703D01*
X0107700Y0058301D01*
X0108301Y0057700D01*
X0109502Y0057700D01*
X0110102Y0058301D01*
X0111383Y0057700D02*
X0113785Y0057700D01*
X0112584Y0057700D02*
X0112584Y0061303D01*
X0111383Y0060102D01*
X0110102Y0060703D02*
X0109502Y0061303D01*
X0108301Y0061303D01*
X0041851Y0110300D02*
X0039303Y0112848D01*
X0040577Y0114122D01*
X0041426Y0114122D01*
X0042276Y0113272D01*
X0042276Y0112423D01*
X0041002Y0111149D01*
X0041851Y0111999D02*
X0043550Y0111999D01*
X0044455Y0112904D02*
X0046154Y0114603D01*
X0045305Y0113754D02*
X0042757Y0116301D01*
X0042757Y0114603D01*
X0230825Y0023828D02*
X0230825Y0021426D01*
X0231426Y0020825D01*
X0232627Y0020825D01*
X0233227Y0021426D01*
X0234508Y0020825D02*
X0236910Y0020825D01*
X0235709Y0020825D02*
X0235709Y0024428D01*
X0234508Y0023227D01*
X0233227Y0023828D02*
X0232627Y0024428D01*
X0231426Y0024428D01*
X0230825Y0023828D01*
X0238191Y0023828D02*
X0238191Y0023227D01*
X0238792Y0022627D01*
X0240593Y0022627D01*
X0240593Y0021426D02*
X0240593Y0023828D01*
X0239993Y0024428D01*
X0238792Y0024428D01*
X0238191Y0023828D01*
X0238191Y0021426D02*
X0238792Y0020825D01*
X0239993Y0020825D01*
X0240593Y0021426D01*
X0264697Y0022718D02*
X0268300Y0022718D01*
X0268300Y0021517D02*
X0268300Y0023919D01*
X0265898Y0021517D02*
X0264697Y0022718D01*
X0265297Y0020236D02*
X0264697Y0019635D01*
X0264697Y0018434D01*
X0265297Y0017834D01*
X0267699Y0017834D01*
X0268300Y0018434D01*
X0268300Y0019635D01*
X0267699Y0020236D01*
X0264697Y0016553D02*
X0264697Y0014151D01*
X0264697Y0015352D02*
X0268300Y0015352D01*
X0266498Y0012869D02*
X0267099Y0012269D01*
X0267099Y0010467D01*
X0268300Y0010467D02*
X0264697Y0010467D01*
X0264697Y0012269D01*
X0265297Y0012869D01*
X0266498Y0012869D01*
D13*
X0166826Y0045221D02*
X0166828Y0045329D01*
X0166834Y0045438D01*
X0166844Y0045546D01*
X0166858Y0045653D01*
X0166876Y0045760D01*
X0166897Y0045867D01*
X0166923Y0045972D01*
X0166953Y0046077D01*
X0166986Y0046180D01*
X0167023Y0046282D01*
X0167064Y0046382D01*
X0167108Y0046481D01*
X0167157Y0046579D01*
X0167208Y0046674D01*
X0167263Y0046767D01*
X0167322Y0046859D01*
X0167384Y0046948D01*
X0167449Y0047035D01*
X0167517Y0047119D01*
X0167588Y0047201D01*
X0167662Y0047280D01*
X0167739Y0047356D01*
X0167819Y0047430D01*
X0167902Y0047500D01*
X0167987Y0047568D01*
X0168074Y0047632D01*
X0168164Y0047693D01*
X0168256Y0047751D01*
X0168350Y0047805D01*
X0168446Y0047856D01*
X0168543Y0047903D01*
X0168643Y0047947D01*
X0168744Y0047987D01*
X0168846Y0048023D01*
X0168949Y0048055D01*
X0169054Y0048084D01*
X0169160Y0048108D01*
X0169266Y0048129D01*
X0169373Y0048146D01*
X0169481Y0048159D01*
X0169589Y0048168D01*
X0169698Y0048173D01*
X0169806Y0048174D01*
X0169915Y0048171D01*
X0170023Y0048164D01*
X0170131Y0048153D01*
X0170238Y0048138D01*
X0170345Y0048119D01*
X0170451Y0048096D01*
X0170556Y0048070D01*
X0170661Y0048039D01*
X0170763Y0048005D01*
X0170865Y0047967D01*
X0170965Y0047925D01*
X0171064Y0047880D01*
X0171161Y0047831D01*
X0171255Y0047778D01*
X0171348Y0047722D01*
X0171439Y0047663D01*
X0171528Y0047600D01*
X0171614Y0047535D01*
X0171698Y0047466D01*
X0171779Y0047394D01*
X0171857Y0047319D01*
X0171933Y0047241D01*
X0172006Y0047160D01*
X0172076Y0047077D01*
X0172142Y0046992D01*
X0172206Y0046904D01*
X0172266Y0046813D01*
X0172323Y0046721D01*
X0172376Y0046626D01*
X0172426Y0046530D01*
X0172472Y0046432D01*
X0172515Y0046332D01*
X0172554Y0046231D01*
X0172589Y0046128D01*
X0172621Y0046025D01*
X0172648Y0045920D01*
X0172672Y0045814D01*
X0172692Y0045707D01*
X0172708Y0045600D01*
X0172720Y0045492D01*
X0172728Y0045384D01*
X0172732Y0045275D01*
X0172732Y0045167D01*
X0172728Y0045058D01*
X0172720Y0044950D01*
X0172708Y0044842D01*
X0172692Y0044735D01*
X0172672Y0044628D01*
X0172648Y0044522D01*
X0172621Y0044417D01*
X0172589Y0044314D01*
X0172554Y0044211D01*
X0172515Y0044110D01*
X0172472Y0044010D01*
X0172426Y0043912D01*
X0172376Y0043816D01*
X0172323Y0043721D01*
X0172266Y0043629D01*
X0172206Y0043538D01*
X0172142Y0043450D01*
X0172076Y0043365D01*
X0172006Y0043282D01*
X0171933Y0043201D01*
X0171857Y0043123D01*
X0171779Y0043048D01*
X0171698Y0042976D01*
X0171614Y0042907D01*
X0171528Y0042842D01*
X0171439Y0042779D01*
X0171348Y0042720D01*
X0171256Y0042664D01*
X0171161Y0042611D01*
X0171064Y0042562D01*
X0170965Y0042517D01*
X0170865Y0042475D01*
X0170763Y0042437D01*
X0170661Y0042403D01*
X0170556Y0042372D01*
X0170451Y0042346D01*
X0170345Y0042323D01*
X0170238Y0042304D01*
X0170131Y0042289D01*
X0170023Y0042278D01*
X0169915Y0042271D01*
X0169806Y0042268D01*
X0169698Y0042269D01*
X0169589Y0042274D01*
X0169481Y0042283D01*
X0169373Y0042296D01*
X0169266Y0042313D01*
X0169160Y0042334D01*
X0169054Y0042358D01*
X0168949Y0042387D01*
X0168846Y0042419D01*
X0168744Y0042455D01*
X0168643Y0042495D01*
X0168543Y0042539D01*
X0168446Y0042586D01*
X0168350Y0042637D01*
X0168256Y0042691D01*
X0168164Y0042749D01*
X0168074Y0042810D01*
X0167987Y0042874D01*
X0167902Y0042942D01*
X0167819Y0043012D01*
X0167739Y0043086D01*
X0167662Y0043162D01*
X0167588Y0043241D01*
X0167517Y0043323D01*
X0167449Y0043407D01*
X0167384Y0043494D01*
X0167322Y0043583D01*
X0167263Y0043675D01*
X0167208Y0043768D01*
X0167157Y0043863D01*
X0167108Y0043961D01*
X0167064Y0044060D01*
X0167023Y0044160D01*
X0166986Y0044262D01*
X0166953Y0044365D01*
X0166923Y0044470D01*
X0166897Y0044575D01*
X0166876Y0044682D01*
X0166858Y0044789D01*
X0166844Y0044896D01*
X0166834Y0045004D01*
X0166828Y0045113D01*
X0166826Y0045221D01*
D14*
X0271200Y0091527D02*
X0271200Y0091607D01*
D15*
X0211000Y0096650D02*
X0211000Y0100850D01*
X0206300Y0102150D02*
X0203700Y0102150D01*
X0199000Y0100850D02*
X0199000Y0099950D01*
X0199000Y0097550D01*
X0199000Y0096650D01*
X0199000Y0097550D02*
X0199069Y0097552D01*
X0199137Y0097558D01*
X0199205Y0097568D01*
X0199272Y0097581D01*
X0199338Y0097599D01*
X0199403Y0097620D01*
X0199467Y0097645D01*
X0199529Y0097673D01*
X0199590Y0097705D01*
X0199649Y0097740D01*
X0199705Y0097779D01*
X0199760Y0097821D01*
X0199811Y0097866D01*
X0199861Y0097914D01*
X0199907Y0097964D01*
X0199950Y0098017D01*
X0199991Y0098073D01*
X0200028Y0098130D01*
X0200061Y0098190D01*
X0200092Y0098252D01*
X0200118Y0098315D01*
X0200141Y0098379D01*
X0200161Y0098445D01*
X0200176Y0098512D01*
X0200188Y0098579D01*
X0200196Y0098647D01*
X0200200Y0098716D01*
X0200200Y0098784D01*
X0200196Y0098853D01*
X0200188Y0098921D01*
X0200176Y0098988D01*
X0200161Y0099055D01*
X0200141Y0099121D01*
X0200118Y0099185D01*
X0200092Y0099248D01*
X0200061Y0099310D01*
X0200028Y0099370D01*
X0199991Y0099427D01*
X0199950Y0099483D01*
X0199907Y0099536D01*
X0199861Y0099586D01*
X0199811Y0099634D01*
X0199760Y0099679D01*
X0199705Y0099721D01*
X0199649Y0099760D01*
X0199590Y0099795D01*
X0199529Y0099827D01*
X0199467Y0099855D01*
X0199403Y0099880D01*
X0199338Y0099901D01*
X0199272Y0099919D01*
X0199205Y0099932D01*
X0199137Y0099942D01*
X0199069Y0099948D01*
X0199000Y0099950D01*
D16*
X0198666Y0093636D02*
X0195530Y0090500D01*
X0195530Y0092068D02*
X0198666Y0092068D01*
X0198666Y0090500D02*
X0195530Y0093636D01*
X0197098Y0093636D02*
X0197098Y0090500D01*
X0190619Y0108900D02*
X0191103Y0109384D01*
X0191103Y0109867D01*
X0190619Y0110351D01*
X0189168Y0110351D01*
X0189168Y0109384D01*
X0189652Y0108900D01*
X0190619Y0108900D01*
X0189168Y0110351D02*
X0190136Y0111319D01*
X0191103Y0111802D01*
X0187189Y0111802D02*
X0187189Y0108900D01*
X0186222Y0108900D02*
X0188156Y0108900D01*
X0186222Y0110835D02*
X0187189Y0111802D01*
X0185210Y0111319D02*
X0184726Y0111802D01*
X0183759Y0111802D01*
X0183275Y0111319D01*
X0183275Y0109384D01*
X0183759Y0108900D01*
X0184726Y0108900D01*
X0185210Y0109384D01*
M02*
