G75*
G70*
%OFA0B0*%
%FSLAX24Y24*%
%IPPOS*%
%LPD*%
%AMOC8*
5,1,8,0,0,1.08239X$1,22.5*
%
%ADD10OC8,0.0800*%
%ADD11C,0.1241*%
%ADD12C,0.0560*%
%ADD13C,0.0454*%
%ADD14C,0.1720*%
%ADD15C,0.1562*%
%ADD16C,0.0720*%
%ADD17C,0.1360*%
%ADD18C,0.0350*%
%ADD19C,0.0532*%
D10*
X020225Y005170D03*
X021225Y005170D03*
X021225Y006170D03*
X021225Y007170D03*
X020225Y007170D03*
X020225Y006170D03*
X020225Y008170D03*
X020225Y009170D03*
X021225Y009170D03*
X021225Y008170D03*
X021225Y010170D03*
X021225Y011170D03*
X020225Y011170D03*
X020225Y010170D03*
X020225Y012170D03*
X020225Y013170D03*
X020225Y014170D03*
X021225Y014170D03*
X021225Y013170D03*
X021225Y012170D03*
X021225Y015170D03*
X021225Y016170D03*
X020225Y016170D03*
X020225Y015170D03*
X020225Y017170D03*
X020225Y018170D03*
X021225Y018170D03*
X021225Y017170D03*
X021225Y019170D03*
X021225Y020170D03*
X020225Y020170D03*
X020225Y019170D03*
X020225Y021170D03*
X020225Y022170D03*
X021225Y022170D03*
X021225Y021170D03*
X021225Y023170D03*
X021225Y024170D03*
X020225Y024170D03*
X020225Y023170D03*
D11*
X001850Y002625D03*
X011725Y003250D03*
X020775Y003250D03*
X033600Y002625D03*
X020275Y026100D03*
X011725Y026050D03*
X002725Y027125D03*
X033725Y027125D03*
D12*
X032156Y025993D03*
X032156Y025206D03*
X032156Y024419D03*
X032156Y023631D03*
X032156Y022844D03*
X032156Y022056D03*
X032156Y021269D03*
X032156Y020481D03*
X032156Y019694D03*
X032156Y018907D03*
X023494Y018907D03*
X023494Y019694D03*
X023494Y020481D03*
X023494Y021269D03*
X023494Y022056D03*
X023494Y022844D03*
X023494Y023631D03*
X023494Y024419D03*
X023494Y025206D03*
X023494Y025993D03*
X009656Y025993D03*
X009656Y025206D03*
X009656Y024419D03*
X009656Y023631D03*
X009656Y022844D03*
X009656Y022056D03*
X009656Y021269D03*
X009656Y020481D03*
X009656Y019694D03*
X009656Y018907D03*
X000994Y018907D03*
X000994Y019694D03*
X000994Y020481D03*
X000994Y021269D03*
X000994Y022056D03*
X000994Y022844D03*
X000994Y023631D03*
X000994Y024419D03*
X000994Y025206D03*
X000994Y025993D03*
D13*
X015209Y002894D03*
X016941Y002894D03*
D14*
X007275Y005854D03*
D15*
X009165Y004732D03*
X007275Y003394D03*
D16*
X007545Y007850D02*
X008205Y007850D01*
X008205Y008850D02*
X007545Y008850D01*
X007545Y009850D02*
X008205Y009850D01*
D17*
X001975Y008850D03*
D18*
X009375Y012725D03*
X009575Y012400D03*
X010625Y013150D03*
X010875Y013400D03*
X011125Y013150D03*
X010875Y014150D03*
X011375Y014150D03*
X011875Y014150D03*
X012625Y013900D03*
X013125Y013900D03*
X013625Y013900D03*
X013825Y013650D03*
X014075Y013400D03*
X014075Y012900D03*
X014075Y012400D03*
X013650Y012275D03*
X014075Y011900D03*
X014075Y010150D03*
X012575Y009900D03*
X012075Y010150D03*
X009475Y013775D03*
X012625Y016150D03*
X013125Y016150D03*
X013625Y016150D03*
X014125Y016150D03*
X016575Y014950D03*
X017075Y014950D03*
X025075Y020700D03*
X012900Y021775D03*
X011800Y022850D03*
X005375Y026275D03*
X004500Y026275D03*
X002775Y021425D03*
D19*
X018150Y021275D03*
M02*
