G75*
%MOIN*%
%OFA0B0*%
%FSLAX25Y25*%
%IPPOS*%
%LPD*%
%AMOC8*
5,1,8,0,0,1.08239X$1,22.5*
%
%ADD10C,0.10433*%
%ADD11R,0.09465X0.09465*%
%ADD12C,0.36024*%
%ADD13R,0.04528X0.03740*%
%ADD14R,0.03346X0.06496*%
%ADD15C,0.04134*%
%ADD16R,0.02362X0.09646*%
%ADD17C,0.03291*%
%ADD18C,0.02953*%
%ADD19C,0.03072*%
D10*
X0018750Y0128750D03*
X0257500Y0128750D03*
D11*
X0237250Y0118750D03*
X0185250Y0118750D03*
D12*
X0211250Y0118750D03*
D13*
X0069589Y0127194D03*
X0069589Y0135856D03*
X0036911Y0135856D03*
X0036911Y0127194D03*
D14*
X0044392Y0122667D03*
X0056203Y0122667D03*
X0062108Y0122667D03*
D15*
X0059156Y0131525D03*
X0047344Y0131525D03*
D16*
X0013465Y0010512D03*
X0015827Y0010512D03*
X0018189Y0010512D03*
X0020551Y0010512D03*
X0022913Y0010512D03*
X0025276Y0010512D03*
X0027638Y0010512D03*
X0030000Y0010512D03*
X0032362Y0010512D03*
X0034724Y0010512D03*
X0037087Y0010512D03*
X0039449Y0010512D03*
X0041811Y0010512D03*
X0044173Y0010512D03*
X0046535Y0010512D03*
X0048898Y0010512D03*
X0051260Y0010512D03*
X0053622Y0010512D03*
X0055984Y0010512D03*
X0058346Y0010512D03*
X0074882Y0010512D03*
X0077244Y0010512D03*
X0079606Y0010512D03*
X0081969Y0010512D03*
X0084331Y0010512D03*
X0086693Y0010512D03*
X0089055Y0010512D03*
X0091417Y0010512D03*
X0093780Y0010512D03*
X0096142Y0010512D03*
X0098504Y0010512D03*
X0100866Y0010512D03*
X0103228Y0010512D03*
X0105591Y0010512D03*
X0107953Y0010512D03*
X0110315Y0010512D03*
X0112677Y0010512D03*
X0115039Y0010512D03*
X0117402Y0010512D03*
X0119764Y0010512D03*
X0122126Y0010512D03*
X0124488Y0010512D03*
X0126850Y0010512D03*
X0129213Y0010512D03*
X0131575Y0010512D03*
X0133937Y0010512D03*
X0136299Y0010512D03*
X0138661Y0010512D03*
X0141024Y0010512D03*
X0143386Y0010512D03*
X0145748Y0010512D03*
X0148110Y0010512D03*
X0150472Y0010512D03*
X0152835Y0010512D03*
X0155197Y0010512D03*
X0157559Y0010512D03*
X0159921Y0010512D03*
X0162283Y0010512D03*
X0164646Y0010512D03*
X0167008Y0010512D03*
X0169370Y0010512D03*
X0171732Y0010512D03*
X0174094Y0010512D03*
X0176457Y0010512D03*
X0178819Y0010512D03*
X0181181Y0010512D03*
X0183543Y0010512D03*
X0185906Y0010512D03*
X0188268Y0010512D03*
X0190630Y0010512D03*
X0192992Y0010512D03*
X0195354Y0010512D03*
X0197717Y0010512D03*
X0200079Y0010512D03*
X0202441Y0010512D03*
X0204803Y0010512D03*
X0207165Y0010512D03*
X0209528Y0010512D03*
X0211890Y0010512D03*
X0214252Y0010512D03*
X0216614Y0010512D03*
X0218976Y0010512D03*
X0221339Y0010512D03*
X0223701Y0010512D03*
X0226063Y0010512D03*
X0228425Y0010512D03*
X0230787Y0010512D03*
X0233150Y0010512D03*
X0235512Y0010512D03*
X0237874Y0010512D03*
X0240236Y0010512D03*
X0242598Y0010512D03*
X0244961Y0010512D03*
X0247323Y0010512D03*
X0249685Y0010512D03*
X0252047Y0010512D03*
X0254409Y0010512D03*
X0256772Y0010512D03*
X0259134Y0010512D03*
X0261496Y0010512D03*
D17*
X0226875Y0018125D03*
X0198125Y0024375D03*
X0198125Y0028125D03*
X0198125Y0031875D03*
X0198125Y0035625D03*
X0198125Y0039375D03*
X0198750Y0043125D03*
X0201250Y0045625D03*
X0226250Y0053125D03*
X0218750Y0070625D03*
X0218750Y0076250D03*
X0218750Y0081875D03*
X0211250Y0089375D03*
X0218750Y0091250D03*
X0200000Y0088750D03*
X0196250Y0088750D03*
X0193125Y0087500D03*
X0180000Y0093750D03*
X0168750Y0102500D03*
X0168750Y0108875D03*
X0176250Y0111875D03*
X0178750Y0108750D03*
X0183750Y0105625D03*
X0197500Y0100000D03*
X0190625Y0075625D03*
X0190625Y0071875D03*
X0186875Y0071875D03*
X0183750Y0070000D03*
X0171250Y0068750D03*
X0171875Y0060000D03*
X0170625Y0055000D03*
X0162500Y0044375D03*
X0159375Y0043125D03*
X0148750Y0043125D03*
X0126875Y0048125D03*
X0123750Y0046250D03*
X0118125Y0040000D03*
X0118125Y0036250D03*
X0119375Y0031250D03*
X0123125Y0027500D03*
X0125625Y0025000D03*
X0118750Y0019375D03*
X0175000Y0020000D03*
X0204375Y0071875D03*
X0209375Y0071875D03*
X0250625Y0049375D03*
X0260625Y0079375D03*
X0256250Y0083750D03*
X0118750Y0096875D03*
X0103750Y0096875D03*
X0103750Y0101475D03*
X0030500Y0109650D03*
D18*
X0107500Y0050625D03*
X0107500Y0040625D03*
X0126875Y0055625D03*
X0130000Y0053351D03*
X0130000Y0050399D03*
X0169375Y0042500D03*
X0150000Y0091875D03*
D19*
X0051875Y0125000D03*
M02*
