G75*
%MOIN*%
%OFA0B0*%
%FSLAX25Y25*%
%IPPOS*%
%LPD*%
%AMOC8*
5,1,8,0,0,1.08239X$1,22.5*
%
%ADD10C,0.00000*%
D10*
X0005000Y0005000D02*
X0005000Y0075866D01*
X0005192Y0075868D01*
X0005383Y0075875D01*
X0005575Y0075887D01*
X0005766Y0075903D01*
X0005956Y0075924D01*
X0006146Y0075950D01*
X0006336Y0075980D01*
X0006524Y0076015D01*
X0006712Y0076054D01*
X0006899Y0076098D01*
X0007084Y0076147D01*
X0007268Y0076200D01*
X0007451Y0076257D01*
X0007633Y0076319D01*
X0007813Y0076386D01*
X0007991Y0076456D01*
X0008168Y0076531D01*
X0008342Y0076611D01*
X0008515Y0076694D01*
X0008685Y0076782D01*
X0008854Y0076873D01*
X0009020Y0076969D01*
X0009183Y0077069D01*
X0009345Y0077173D01*
X0009503Y0077281D01*
X0009659Y0077392D01*
X0009812Y0077508D01*
X0009963Y0077627D01*
X0010110Y0077749D01*
X0010254Y0077876D01*
X0010396Y0078005D01*
X0010534Y0078138D01*
X0010669Y0078275D01*
X0010800Y0078415D01*
X0010928Y0078557D01*
X0011052Y0078703D01*
X0011173Y0078852D01*
X0011290Y0079004D01*
X0011404Y0079158D01*
X0011514Y0079316D01*
X0011619Y0079476D01*
X0011721Y0079638D01*
X0011819Y0079803D01*
X0011913Y0079970D01*
X0012003Y0080140D01*
X0012088Y0080311D01*
X0012170Y0080485D01*
X0012247Y0080660D01*
X0012320Y0080838D01*
X0012388Y0081017D01*
X0012452Y0081198D01*
X0012512Y0081380D01*
X0012567Y0081563D01*
X0012618Y0081748D01*
X0012664Y0081934D01*
X0012706Y0082122D01*
X0012743Y0082310D01*
X0012776Y0082499D01*
X0012803Y0082688D01*
X0012827Y0082879D01*
X0012845Y0083070D01*
X0012859Y0083261D01*
X0012869Y0083452D01*
X0012873Y0083644D01*
X0012873Y0083836D01*
X0012869Y0084028D01*
X0012859Y0084219D01*
X0012845Y0084410D01*
X0012827Y0084601D01*
X0012803Y0084792D01*
X0012776Y0084981D01*
X0012743Y0085170D01*
X0012706Y0085358D01*
X0012664Y0085546D01*
X0012618Y0085732D01*
X0012567Y0085917D01*
X0012512Y0086100D01*
X0012452Y0086282D01*
X0012388Y0086463D01*
X0012320Y0086642D01*
X0012247Y0086820D01*
X0012170Y0086995D01*
X0012088Y0087169D01*
X0012003Y0087340D01*
X0011913Y0087510D01*
X0011819Y0087677D01*
X0011721Y0087842D01*
X0011619Y0088004D01*
X0011514Y0088164D01*
X0011404Y0088322D01*
X0011290Y0088476D01*
X0011173Y0088628D01*
X0011052Y0088777D01*
X0010928Y0088923D01*
X0010800Y0089065D01*
X0010669Y0089205D01*
X0010534Y0089342D01*
X0010396Y0089475D01*
X0010254Y0089604D01*
X0010110Y0089731D01*
X0009963Y0089853D01*
X0009812Y0089972D01*
X0009659Y0090088D01*
X0009503Y0090199D01*
X0009345Y0090307D01*
X0009183Y0090411D01*
X0009020Y0090511D01*
X0008854Y0090607D01*
X0008685Y0090698D01*
X0008515Y0090786D01*
X0008342Y0090869D01*
X0008168Y0090949D01*
X0007991Y0091024D01*
X0007813Y0091094D01*
X0007633Y0091161D01*
X0007451Y0091223D01*
X0007268Y0091280D01*
X0007084Y0091333D01*
X0006899Y0091382D01*
X0006712Y0091426D01*
X0006524Y0091465D01*
X0006336Y0091500D01*
X0006146Y0091530D01*
X0005956Y0091556D01*
X0005766Y0091577D01*
X0005575Y0091593D01*
X0005383Y0091605D01*
X0005192Y0091612D01*
X0005000Y0091614D01*
X0005000Y0142795D01*
X0271142Y0142795D01*
X0271142Y0091614D01*
X0270950Y0091612D01*
X0270759Y0091605D01*
X0270567Y0091593D01*
X0270376Y0091577D01*
X0270186Y0091556D01*
X0269996Y0091530D01*
X0269806Y0091500D01*
X0269618Y0091465D01*
X0269430Y0091426D01*
X0269243Y0091382D01*
X0269058Y0091333D01*
X0268874Y0091280D01*
X0268691Y0091223D01*
X0268509Y0091161D01*
X0268329Y0091094D01*
X0268151Y0091024D01*
X0267974Y0090949D01*
X0267800Y0090869D01*
X0267627Y0090786D01*
X0267457Y0090698D01*
X0267288Y0090607D01*
X0267122Y0090511D01*
X0266959Y0090411D01*
X0266797Y0090307D01*
X0266639Y0090199D01*
X0266483Y0090088D01*
X0266330Y0089972D01*
X0266179Y0089853D01*
X0266032Y0089731D01*
X0265888Y0089604D01*
X0265746Y0089475D01*
X0265608Y0089342D01*
X0265473Y0089205D01*
X0265342Y0089065D01*
X0265214Y0088923D01*
X0265090Y0088777D01*
X0264969Y0088628D01*
X0264852Y0088476D01*
X0264738Y0088322D01*
X0264628Y0088164D01*
X0264523Y0088004D01*
X0264421Y0087842D01*
X0264323Y0087677D01*
X0264229Y0087510D01*
X0264139Y0087340D01*
X0264054Y0087169D01*
X0263972Y0086995D01*
X0263895Y0086820D01*
X0263822Y0086642D01*
X0263754Y0086463D01*
X0263690Y0086282D01*
X0263630Y0086100D01*
X0263575Y0085917D01*
X0263524Y0085732D01*
X0263478Y0085546D01*
X0263436Y0085358D01*
X0263399Y0085170D01*
X0263366Y0084981D01*
X0263339Y0084792D01*
X0263315Y0084601D01*
X0263297Y0084410D01*
X0263283Y0084219D01*
X0263273Y0084028D01*
X0263269Y0083836D01*
X0263269Y0083644D01*
X0263273Y0083452D01*
X0263283Y0083261D01*
X0263297Y0083070D01*
X0263315Y0082879D01*
X0263339Y0082688D01*
X0263366Y0082499D01*
X0263399Y0082310D01*
X0263436Y0082122D01*
X0263478Y0081934D01*
X0263524Y0081748D01*
X0263575Y0081563D01*
X0263630Y0081380D01*
X0263690Y0081198D01*
X0263754Y0081017D01*
X0263822Y0080838D01*
X0263895Y0080660D01*
X0263972Y0080485D01*
X0264054Y0080311D01*
X0264139Y0080140D01*
X0264229Y0079970D01*
X0264323Y0079803D01*
X0264421Y0079638D01*
X0264523Y0079476D01*
X0264628Y0079316D01*
X0264738Y0079158D01*
X0264852Y0079004D01*
X0264969Y0078852D01*
X0265090Y0078703D01*
X0265214Y0078557D01*
X0265342Y0078415D01*
X0265473Y0078275D01*
X0265608Y0078138D01*
X0265746Y0078005D01*
X0265888Y0077876D01*
X0266032Y0077749D01*
X0266179Y0077627D01*
X0266330Y0077508D01*
X0266483Y0077392D01*
X0266639Y0077281D01*
X0266797Y0077173D01*
X0266959Y0077069D01*
X0267122Y0076969D01*
X0267288Y0076873D01*
X0267457Y0076782D01*
X0267627Y0076694D01*
X0267800Y0076611D01*
X0267974Y0076531D01*
X0268151Y0076456D01*
X0268329Y0076386D01*
X0268509Y0076319D01*
X0268691Y0076257D01*
X0268874Y0076200D01*
X0269058Y0076147D01*
X0269243Y0076098D01*
X0269430Y0076054D01*
X0269618Y0076015D01*
X0269806Y0075980D01*
X0269996Y0075950D01*
X0270186Y0075924D01*
X0270376Y0075903D01*
X0270567Y0075887D01*
X0270759Y0075875D01*
X0270950Y0075868D01*
X0271142Y0075866D01*
X0271142Y0005000D01*
X0071570Y0005000D01*
X0071570Y0019055D01*
X0071568Y0019132D01*
X0071562Y0019209D01*
X0071553Y0019285D01*
X0071540Y0019361D01*
X0071523Y0019436D01*
X0071502Y0019511D01*
X0071478Y0019584D01*
X0071450Y0019656D01*
X0071419Y0019726D01*
X0071385Y0019795D01*
X0071347Y0019862D01*
X0071305Y0019927D01*
X0071261Y0019990D01*
X0071214Y0020051D01*
X0071163Y0020109D01*
X0071110Y0020165D01*
X0071054Y0020218D01*
X0070996Y0020269D01*
X0070935Y0020316D01*
X0070872Y0020360D01*
X0070807Y0020402D01*
X0070740Y0020440D01*
X0070671Y0020474D01*
X0070601Y0020505D01*
X0070529Y0020533D01*
X0070456Y0020557D01*
X0070381Y0020578D01*
X0070306Y0020595D01*
X0070230Y0020608D01*
X0070154Y0020617D01*
X0070077Y0020623D01*
X0070000Y0020625D01*
X0062603Y0020625D01*
X0062518Y0020623D01*
X0062433Y0020617D01*
X0062348Y0020607D01*
X0062264Y0020594D01*
X0062181Y0020576D01*
X0062098Y0020555D01*
X0062017Y0020529D01*
X0061937Y0020500D01*
X0061858Y0020468D01*
X0061781Y0020432D01*
X0061705Y0020392D01*
X0061632Y0020349D01*
X0061560Y0020302D01*
X0061491Y0020252D01*
X0061424Y0020199D01*
X0061360Y0020143D01*
X0061298Y0020085D01*
X0061240Y0020023D01*
X0061184Y0019959D01*
X0061131Y0019892D01*
X0061081Y0019823D01*
X0061034Y0019751D01*
X0060991Y0019678D01*
X0060951Y0019602D01*
X0060915Y0019525D01*
X0060883Y0019446D01*
X0060854Y0019366D01*
X0060828Y0019285D01*
X0060807Y0019202D01*
X0060789Y0019119D01*
X0060776Y0019035D01*
X0060766Y0018950D01*
X0060760Y0018865D01*
X0060758Y0018780D01*
X0060758Y0005000D01*
X0005000Y0005000D01*
X0013829Y0128750D02*
X0013831Y0128890D01*
X0013837Y0129030D01*
X0013847Y0129169D01*
X0013861Y0129308D01*
X0013879Y0129447D01*
X0013900Y0129585D01*
X0013926Y0129723D01*
X0013956Y0129860D01*
X0013989Y0129995D01*
X0014027Y0130130D01*
X0014068Y0130264D01*
X0014113Y0130397D01*
X0014161Y0130528D01*
X0014214Y0130657D01*
X0014270Y0130786D01*
X0014329Y0130912D01*
X0014393Y0131037D01*
X0014459Y0131160D01*
X0014530Y0131281D01*
X0014603Y0131400D01*
X0014680Y0131517D01*
X0014761Y0131631D01*
X0014844Y0131743D01*
X0014931Y0131853D01*
X0015021Y0131961D01*
X0015113Y0132065D01*
X0015209Y0132167D01*
X0015308Y0132267D01*
X0015409Y0132363D01*
X0015513Y0132457D01*
X0015620Y0132547D01*
X0015729Y0132634D01*
X0015841Y0132719D01*
X0015955Y0132800D01*
X0016071Y0132878D01*
X0016189Y0132952D01*
X0016310Y0133023D01*
X0016432Y0133091D01*
X0016557Y0133155D01*
X0016683Y0133216D01*
X0016810Y0133273D01*
X0016940Y0133326D01*
X0017071Y0133376D01*
X0017203Y0133421D01*
X0017336Y0133464D01*
X0017471Y0133502D01*
X0017606Y0133536D01*
X0017743Y0133567D01*
X0017880Y0133594D01*
X0018018Y0133616D01*
X0018157Y0133635D01*
X0018296Y0133650D01*
X0018435Y0133661D01*
X0018575Y0133668D01*
X0018715Y0133671D01*
X0018855Y0133670D01*
X0018995Y0133665D01*
X0019134Y0133656D01*
X0019274Y0133643D01*
X0019413Y0133626D01*
X0019551Y0133605D01*
X0019689Y0133581D01*
X0019826Y0133552D01*
X0019962Y0133520D01*
X0020097Y0133483D01*
X0020231Y0133443D01*
X0020364Y0133399D01*
X0020495Y0133351D01*
X0020625Y0133300D01*
X0020754Y0133245D01*
X0020881Y0133186D01*
X0021006Y0133123D01*
X0021129Y0133058D01*
X0021251Y0132988D01*
X0021370Y0132915D01*
X0021488Y0132839D01*
X0021603Y0132760D01*
X0021716Y0132677D01*
X0021826Y0132591D01*
X0021934Y0132502D01*
X0022039Y0132410D01*
X0022142Y0132315D01*
X0022242Y0132217D01*
X0022339Y0132117D01*
X0022433Y0132013D01*
X0022525Y0131907D01*
X0022613Y0131799D01*
X0022698Y0131688D01*
X0022780Y0131574D01*
X0022859Y0131458D01*
X0022934Y0131341D01*
X0023006Y0131221D01*
X0023074Y0131099D01*
X0023139Y0130975D01*
X0023201Y0130849D01*
X0023259Y0130722D01*
X0023313Y0130593D01*
X0023364Y0130462D01*
X0023410Y0130330D01*
X0023453Y0130197D01*
X0023493Y0130063D01*
X0023528Y0129928D01*
X0023560Y0129791D01*
X0023587Y0129654D01*
X0023611Y0129516D01*
X0023631Y0129378D01*
X0023647Y0129239D01*
X0023659Y0129099D01*
X0023667Y0128960D01*
X0023671Y0128820D01*
X0023671Y0128680D01*
X0023667Y0128540D01*
X0023659Y0128401D01*
X0023647Y0128261D01*
X0023631Y0128122D01*
X0023611Y0127984D01*
X0023587Y0127846D01*
X0023560Y0127709D01*
X0023528Y0127572D01*
X0023493Y0127437D01*
X0023453Y0127303D01*
X0023410Y0127170D01*
X0023364Y0127038D01*
X0023313Y0126907D01*
X0023259Y0126778D01*
X0023201Y0126651D01*
X0023139Y0126525D01*
X0023074Y0126401D01*
X0023006Y0126279D01*
X0022934Y0126159D01*
X0022859Y0126042D01*
X0022780Y0125926D01*
X0022698Y0125812D01*
X0022613Y0125701D01*
X0022525Y0125593D01*
X0022433Y0125487D01*
X0022339Y0125383D01*
X0022242Y0125283D01*
X0022142Y0125185D01*
X0022039Y0125090D01*
X0021934Y0124998D01*
X0021826Y0124909D01*
X0021716Y0124823D01*
X0021603Y0124740D01*
X0021488Y0124661D01*
X0021370Y0124585D01*
X0021251Y0124512D01*
X0021129Y0124442D01*
X0021006Y0124377D01*
X0020881Y0124314D01*
X0020754Y0124255D01*
X0020625Y0124200D01*
X0020495Y0124149D01*
X0020364Y0124101D01*
X0020231Y0124057D01*
X0020097Y0124017D01*
X0019962Y0123980D01*
X0019826Y0123948D01*
X0019689Y0123919D01*
X0019551Y0123895D01*
X0019413Y0123874D01*
X0019274Y0123857D01*
X0019134Y0123844D01*
X0018995Y0123835D01*
X0018855Y0123830D01*
X0018715Y0123829D01*
X0018575Y0123832D01*
X0018435Y0123839D01*
X0018296Y0123850D01*
X0018157Y0123865D01*
X0018018Y0123884D01*
X0017880Y0123906D01*
X0017743Y0123933D01*
X0017606Y0123964D01*
X0017471Y0123998D01*
X0017336Y0124036D01*
X0017203Y0124079D01*
X0017071Y0124124D01*
X0016940Y0124174D01*
X0016810Y0124227D01*
X0016683Y0124284D01*
X0016557Y0124345D01*
X0016432Y0124409D01*
X0016310Y0124477D01*
X0016189Y0124548D01*
X0016071Y0124622D01*
X0015955Y0124700D01*
X0015841Y0124781D01*
X0015729Y0124866D01*
X0015620Y0124953D01*
X0015513Y0125043D01*
X0015409Y0125137D01*
X0015308Y0125233D01*
X0015209Y0125333D01*
X0015113Y0125435D01*
X0015021Y0125539D01*
X0014931Y0125647D01*
X0014844Y0125757D01*
X0014761Y0125869D01*
X0014680Y0125983D01*
X0014603Y0126100D01*
X0014530Y0126219D01*
X0014459Y0126340D01*
X0014393Y0126463D01*
X0014329Y0126588D01*
X0014270Y0126714D01*
X0014214Y0126843D01*
X0014161Y0126972D01*
X0014113Y0127103D01*
X0014068Y0127236D01*
X0014027Y0127370D01*
X0013989Y0127505D01*
X0013956Y0127640D01*
X0013926Y0127777D01*
X0013900Y0127915D01*
X0013879Y0128053D01*
X0013861Y0128192D01*
X0013847Y0128331D01*
X0013837Y0128470D01*
X0013831Y0128610D01*
X0013829Y0128750D01*
X0045572Y0131525D02*
X0045574Y0131609D01*
X0045580Y0131692D01*
X0045590Y0131775D01*
X0045604Y0131858D01*
X0045621Y0131940D01*
X0045643Y0132021D01*
X0045668Y0132100D01*
X0045697Y0132179D01*
X0045730Y0132256D01*
X0045766Y0132331D01*
X0045806Y0132405D01*
X0045849Y0132477D01*
X0045896Y0132546D01*
X0045946Y0132613D01*
X0045999Y0132678D01*
X0046055Y0132740D01*
X0046113Y0132800D01*
X0046175Y0132857D01*
X0046239Y0132910D01*
X0046306Y0132961D01*
X0046375Y0133008D01*
X0046446Y0133053D01*
X0046519Y0133093D01*
X0046594Y0133130D01*
X0046671Y0133164D01*
X0046749Y0133194D01*
X0046828Y0133220D01*
X0046909Y0133243D01*
X0046991Y0133261D01*
X0047073Y0133276D01*
X0047156Y0133287D01*
X0047239Y0133294D01*
X0047323Y0133297D01*
X0047407Y0133296D01*
X0047490Y0133291D01*
X0047574Y0133282D01*
X0047656Y0133269D01*
X0047738Y0133253D01*
X0047819Y0133232D01*
X0047900Y0133208D01*
X0047978Y0133180D01*
X0048056Y0133148D01*
X0048132Y0133112D01*
X0048206Y0133073D01*
X0048278Y0133031D01*
X0048348Y0132985D01*
X0048416Y0132936D01*
X0048481Y0132884D01*
X0048544Y0132829D01*
X0048604Y0132771D01*
X0048662Y0132710D01*
X0048716Y0132646D01*
X0048768Y0132580D01*
X0048816Y0132512D01*
X0048861Y0132441D01*
X0048902Y0132368D01*
X0048941Y0132294D01*
X0048975Y0132218D01*
X0049006Y0132140D01*
X0049033Y0132061D01*
X0049057Y0131980D01*
X0049076Y0131899D01*
X0049092Y0131817D01*
X0049104Y0131734D01*
X0049112Y0131650D01*
X0049116Y0131567D01*
X0049116Y0131483D01*
X0049112Y0131400D01*
X0049104Y0131316D01*
X0049092Y0131233D01*
X0049076Y0131151D01*
X0049057Y0131070D01*
X0049033Y0130989D01*
X0049006Y0130910D01*
X0048975Y0130832D01*
X0048941Y0130756D01*
X0048902Y0130682D01*
X0048861Y0130609D01*
X0048816Y0130538D01*
X0048768Y0130470D01*
X0048716Y0130404D01*
X0048662Y0130340D01*
X0048604Y0130279D01*
X0048544Y0130221D01*
X0048481Y0130166D01*
X0048416Y0130114D01*
X0048348Y0130065D01*
X0048278Y0130019D01*
X0048206Y0129977D01*
X0048132Y0129938D01*
X0048056Y0129902D01*
X0047978Y0129870D01*
X0047900Y0129842D01*
X0047819Y0129818D01*
X0047738Y0129797D01*
X0047656Y0129781D01*
X0047574Y0129768D01*
X0047490Y0129759D01*
X0047407Y0129754D01*
X0047323Y0129753D01*
X0047239Y0129756D01*
X0047156Y0129763D01*
X0047073Y0129774D01*
X0046991Y0129789D01*
X0046909Y0129807D01*
X0046828Y0129830D01*
X0046749Y0129856D01*
X0046671Y0129886D01*
X0046594Y0129920D01*
X0046519Y0129957D01*
X0046446Y0129997D01*
X0046375Y0130042D01*
X0046306Y0130089D01*
X0046239Y0130140D01*
X0046175Y0130193D01*
X0046113Y0130250D01*
X0046055Y0130310D01*
X0045999Y0130372D01*
X0045946Y0130437D01*
X0045896Y0130504D01*
X0045849Y0130573D01*
X0045806Y0130645D01*
X0045766Y0130719D01*
X0045730Y0130794D01*
X0045697Y0130871D01*
X0045668Y0130950D01*
X0045643Y0131029D01*
X0045621Y0131110D01*
X0045604Y0131192D01*
X0045590Y0131275D01*
X0045580Y0131358D01*
X0045574Y0131441D01*
X0045572Y0131525D01*
X0057384Y0131525D02*
X0057386Y0131609D01*
X0057392Y0131692D01*
X0057402Y0131775D01*
X0057416Y0131858D01*
X0057433Y0131940D01*
X0057455Y0132021D01*
X0057480Y0132100D01*
X0057509Y0132179D01*
X0057542Y0132256D01*
X0057578Y0132331D01*
X0057618Y0132405D01*
X0057661Y0132477D01*
X0057708Y0132546D01*
X0057758Y0132613D01*
X0057811Y0132678D01*
X0057867Y0132740D01*
X0057925Y0132800D01*
X0057987Y0132857D01*
X0058051Y0132910D01*
X0058118Y0132961D01*
X0058187Y0133008D01*
X0058258Y0133053D01*
X0058331Y0133093D01*
X0058406Y0133130D01*
X0058483Y0133164D01*
X0058561Y0133194D01*
X0058640Y0133220D01*
X0058721Y0133243D01*
X0058803Y0133261D01*
X0058885Y0133276D01*
X0058968Y0133287D01*
X0059051Y0133294D01*
X0059135Y0133297D01*
X0059219Y0133296D01*
X0059302Y0133291D01*
X0059386Y0133282D01*
X0059468Y0133269D01*
X0059550Y0133253D01*
X0059631Y0133232D01*
X0059712Y0133208D01*
X0059790Y0133180D01*
X0059868Y0133148D01*
X0059944Y0133112D01*
X0060018Y0133073D01*
X0060090Y0133031D01*
X0060160Y0132985D01*
X0060228Y0132936D01*
X0060293Y0132884D01*
X0060356Y0132829D01*
X0060416Y0132771D01*
X0060474Y0132710D01*
X0060528Y0132646D01*
X0060580Y0132580D01*
X0060628Y0132512D01*
X0060673Y0132441D01*
X0060714Y0132368D01*
X0060753Y0132294D01*
X0060787Y0132218D01*
X0060818Y0132140D01*
X0060845Y0132061D01*
X0060869Y0131980D01*
X0060888Y0131899D01*
X0060904Y0131817D01*
X0060916Y0131734D01*
X0060924Y0131650D01*
X0060928Y0131567D01*
X0060928Y0131483D01*
X0060924Y0131400D01*
X0060916Y0131316D01*
X0060904Y0131233D01*
X0060888Y0131151D01*
X0060869Y0131070D01*
X0060845Y0130989D01*
X0060818Y0130910D01*
X0060787Y0130832D01*
X0060753Y0130756D01*
X0060714Y0130682D01*
X0060673Y0130609D01*
X0060628Y0130538D01*
X0060580Y0130470D01*
X0060528Y0130404D01*
X0060474Y0130340D01*
X0060416Y0130279D01*
X0060356Y0130221D01*
X0060293Y0130166D01*
X0060228Y0130114D01*
X0060160Y0130065D01*
X0060090Y0130019D01*
X0060018Y0129977D01*
X0059944Y0129938D01*
X0059868Y0129902D01*
X0059790Y0129870D01*
X0059712Y0129842D01*
X0059631Y0129818D01*
X0059550Y0129797D01*
X0059468Y0129781D01*
X0059386Y0129768D01*
X0059302Y0129759D01*
X0059219Y0129754D01*
X0059135Y0129753D01*
X0059051Y0129756D01*
X0058968Y0129763D01*
X0058885Y0129774D01*
X0058803Y0129789D01*
X0058721Y0129807D01*
X0058640Y0129830D01*
X0058561Y0129856D01*
X0058483Y0129886D01*
X0058406Y0129920D01*
X0058331Y0129957D01*
X0058258Y0129997D01*
X0058187Y0130042D01*
X0058118Y0130089D01*
X0058051Y0130140D01*
X0057987Y0130193D01*
X0057925Y0130250D01*
X0057867Y0130310D01*
X0057811Y0130372D01*
X0057758Y0130437D01*
X0057708Y0130504D01*
X0057661Y0130573D01*
X0057618Y0130645D01*
X0057578Y0130719D01*
X0057542Y0130794D01*
X0057509Y0130871D01*
X0057480Y0130950D01*
X0057455Y0131029D01*
X0057433Y0131110D01*
X0057416Y0131192D01*
X0057402Y0131275D01*
X0057392Y0131358D01*
X0057386Y0131441D01*
X0057384Y0131525D01*
X0252579Y0128750D02*
X0252581Y0128890D01*
X0252587Y0129030D01*
X0252597Y0129169D01*
X0252611Y0129308D01*
X0252629Y0129447D01*
X0252650Y0129585D01*
X0252676Y0129723D01*
X0252706Y0129860D01*
X0252739Y0129995D01*
X0252777Y0130130D01*
X0252818Y0130264D01*
X0252863Y0130397D01*
X0252911Y0130528D01*
X0252964Y0130657D01*
X0253020Y0130786D01*
X0253079Y0130912D01*
X0253143Y0131037D01*
X0253209Y0131160D01*
X0253280Y0131281D01*
X0253353Y0131400D01*
X0253430Y0131517D01*
X0253511Y0131631D01*
X0253594Y0131743D01*
X0253681Y0131853D01*
X0253771Y0131961D01*
X0253863Y0132065D01*
X0253959Y0132167D01*
X0254058Y0132267D01*
X0254159Y0132363D01*
X0254263Y0132457D01*
X0254370Y0132547D01*
X0254479Y0132634D01*
X0254591Y0132719D01*
X0254705Y0132800D01*
X0254821Y0132878D01*
X0254939Y0132952D01*
X0255060Y0133023D01*
X0255182Y0133091D01*
X0255307Y0133155D01*
X0255433Y0133216D01*
X0255560Y0133273D01*
X0255690Y0133326D01*
X0255821Y0133376D01*
X0255953Y0133421D01*
X0256086Y0133464D01*
X0256221Y0133502D01*
X0256356Y0133536D01*
X0256493Y0133567D01*
X0256630Y0133594D01*
X0256768Y0133616D01*
X0256907Y0133635D01*
X0257046Y0133650D01*
X0257185Y0133661D01*
X0257325Y0133668D01*
X0257465Y0133671D01*
X0257605Y0133670D01*
X0257745Y0133665D01*
X0257884Y0133656D01*
X0258024Y0133643D01*
X0258163Y0133626D01*
X0258301Y0133605D01*
X0258439Y0133581D01*
X0258576Y0133552D01*
X0258712Y0133520D01*
X0258847Y0133483D01*
X0258981Y0133443D01*
X0259114Y0133399D01*
X0259245Y0133351D01*
X0259375Y0133300D01*
X0259504Y0133245D01*
X0259631Y0133186D01*
X0259756Y0133123D01*
X0259879Y0133058D01*
X0260001Y0132988D01*
X0260120Y0132915D01*
X0260238Y0132839D01*
X0260353Y0132760D01*
X0260466Y0132677D01*
X0260576Y0132591D01*
X0260684Y0132502D01*
X0260789Y0132410D01*
X0260892Y0132315D01*
X0260992Y0132217D01*
X0261089Y0132117D01*
X0261183Y0132013D01*
X0261275Y0131907D01*
X0261363Y0131799D01*
X0261448Y0131688D01*
X0261530Y0131574D01*
X0261609Y0131458D01*
X0261684Y0131341D01*
X0261756Y0131221D01*
X0261824Y0131099D01*
X0261889Y0130975D01*
X0261951Y0130849D01*
X0262009Y0130722D01*
X0262063Y0130593D01*
X0262114Y0130462D01*
X0262160Y0130330D01*
X0262203Y0130197D01*
X0262243Y0130063D01*
X0262278Y0129928D01*
X0262310Y0129791D01*
X0262337Y0129654D01*
X0262361Y0129516D01*
X0262381Y0129378D01*
X0262397Y0129239D01*
X0262409Y0129099D01*
X0262417Y0128960D01*
X0262421Y0128820D01*
X0262421Y0128680D01*
X0262417Y0128540D01*
X0262409Y0128401D01*
X0262397Y0128261D01*
X0262381Y0128122D01*
X0262361Y0127984D01*
X0262337Y0127846D01*
X0262310Y0127709D01*
X0262278Y0127572D01*
X0262243Y0127437D01*
X0262203Y0127303D01*
X0262160Y0127170D01*
X0262114Y0127038D01*
X0262063Y0126907D01*
X0262009Y0126778D01*
X0261951Y0126651D01*
X0261889Y0126525D01*
X0261824Y0126401D01*
X0261756Y0126279D01*
X0261684Y0126159D01*
X0261609Y0126042D01*
X0261530Y0125926D01*
X0261448Y0125812D01*
X0261363Y0125701D01*
X0261275Y0125593D01*
X0261183Y0125487D01*
X0261089Y0125383D01*
X0260992Y0125283D01*
X0260892Y0125185D01*
X0260789Y0125090D01*
X0260684Y0124998D01*
X0260576Y0124909D01*
X0260466Y0124823D01*
X0260353Y0124740D01*
X0260238Y0124661D01*
X0260120Y0124585D01*
X0260001Y0124512D01*
X0259879Y0124442D01*
X0259756Y0124377D01*
X0259631Y0124314D01*
X0259504Y0124255D01*
X0259375Y0124200D01*
X0259245Y0124149D01*
X0259114Y0124101D01*
X0258981Y0124057D01*
X0258847Y0124017D01*
X0258712Y0123980D01*
X0258576Y0123948D01*
X0258439Y0123919D01*
X0258301Y0123895D01*
X0258163Y0123874D01*
X0258024Y0123857D01*
X0257884Y0123844D01*
X0257745Y0123835D01*
X0257605Y0123830D01*
X0257465Y0123829D01*
X0257325Y0123832D01*
X0257185Y0123839D01*
X0257046Y0123850D01*
X0256907Y0123865D01*
X0256768Y0123884D01*
X0256630Y0123906D01*
X0256493Y0123933D01*
X0256356Y0123964D01*
X0256221Y0123998D01*
X0256086Y0124036D01*
X0255953Y0124079D01*
X0255821Y0124124D01*
X0255690Y0124174D01*
X0255560Y0124227D01*
X0255433Y0124284D01*
X0255307Y0124345D01*
X0255182Y0124409D01*
X0255060Y0124477D01*
X0254939Y0124548D01*
X0254821Y0124622D01*
X0254705Y0124700D01*
X0254591Y0124781D01*
X0254479Y0124866D01*
X0254370Y0124953D01*
X0254263Y0125043D01*
X0254159Y0125137D01*
X0254058Y0125233D01*
X0253959Y0125333D01*
X0253863Y0125435D01*
X0253771Y0125539D01*
X0253681Y0125647D01*
X0253594Y0125757D01*
X0253511Y0125869D01*
X0253430Y0125983D01*
X0253353Y0126100D01*
X0253280Y0126219D01*
X0253209Y0126340D01*
X0253143Y0126463D01*
X0253079Y0126588D01*
X0253020Y0126714D01*
X0252964Y0126843D01*
X0252911Y0126972D01*
X0252863Y0127103D01*
X0252818Y0127236D01*
X0252777Y0127370D01*
X0252739Y0127505D01*
X0252706Y0127640D01*
X0252676Y0127777D01*
X0252650Y0127915D01*
X0252629Y0128053D01*
X0252611Y0128192D01*
X0252597Y0128331D01*
X0252587Y0128470D01*
X0252581Y0128610D01*
X0252579Y0128750D01*
M02*
