G75*
%MOIN*%
%OFA0B0*%
%FSLAX25Y25*%
%IPPOS*%
%LPD*%
%AMOC8*
5,1,8,0,0,1.08239X$1,22.5*
%
%ADD10R,0.08875X0.08875*%
%ADD11R,0.03150X0.03543*%
%ADD12R,0.03543X0.03150*%
%ADD13R,0.07087X0.06299*%
%ADD14R,0.06299X0.01181*%
%ADD15R,0.01181X0.06299*%
%ADD16R,0.07480X0.04331*%
%ADD17R,0.23622X0.09843*%
%ADD18R,0.09843X0.03937*%
%ADD19R,0.01772X0.09055*%
%ADD20R,0.02200X0.05000*%
%ADD21R,0.06102X0.05118*%
%ADD22R,0.02480X0.03268*%
%ADD23C,0.01200*%
%ADD24C,0.02700*%
%ADD25C,0.02362*%
%ADD26C,0.01600*%
%ADD27C,0.02481*%
D10*
X0185250Y0118750D03*
X0237250Y0118750D03*
D11*
X0223750Y0091125D03*
X0223750Y0085125D03*
X0223750Y0078625D03*
X0223750Y0072625D03*
X0214375Y0078875D03*
X0209375Y0078875D03*
X0204375Y0078875D03*
X0199375Y0078875D03*
X0199375Y0084875D03*
X0204375Y0084875D03*
X0209375Y0084875D03*
X0214375Y0084875D03*
X0212500Y0061750D03*
X0207500Y0061750D03*
X0207500Y0055750D03*
X0212500Y0055750D03*
X0175000Y0029875D03*
X0175000Y0023875D03*
X0110625Y0037625D03*
X0110625Y0043625D03*
X0110625Y0047625D03*
X0110625Y0053625D03*
X0256250Y0073250D03*
X0256250Y0079250D03*
D12*
X0226125Y0048750D03*
X0220125Y0048750D03*
X0220750Y0022500D03*
X0226750Y0022500D03*
X0192375Y0079375D03*
X0186375Y0079375D03*
X0183875Y0100625D03*
X0189875Y0100625D03*
X0189500Y0105625D03*
X0195500Y0105625D03*
X0113625Y0101875D03*
X0107625Y0101875D03*
X0107625Y0096875D03*
X0113625Y0096875D03*
G36*
X0035723Y0116723D02*
X0038226Y0119226D01*
X0040453Y0116999D01*
X0037950Y0114496D01*
X0035723Y0116723D01*
G37*
G36*
X0031481Y0112481D02*
X0033984Y0114984D01*
X0036211Y0112757D01*
X0033708Y0110254D01*
X0031481Y0112481D01*
G37*
D13*
X0263750Y0041137D03*
X0263750Y0030113D03*
D14*
X0178046Y0043253D03*
X0178046Y0045221D03*
X0178046Y0047190D03*
X0178046Y0049158D03*
X0178046Y0051127D03*
X0178046Y0053095D03*
X0178046Y0055064D03*
X0178046Y0057032D03*
X0178046Y0059001D03*
X0178046Y0060969D03*
X0178046Y0062938D03*
X0178046Y0064906D03*
X0178046Y0066875D03*
X0178046Y0068844D03*
X0178046Y0070812D03*
X0178046Y0072781D03*
X0178046Y0074749D03*
X0178046Y0076718D03*
X0178046Y0078686D03*
X0178046Y0080655D03*
X0178046Y0082623D03*
X0178046Y0084592D03*
X0178046Y0086560D03*
X0178046Y0088529D03*
X0178046Y0090497D03*
X0118204Y0090497D03*
X0118204Y0088529D03*
X0118204Y0086560D03*
X0118204Y0084592D03*
X0118204Y0082623D03*
X0118204Y0080655D03*
X0118204Y0078686D03*
X0118204Y0076718D03*
X0118204Y0074749D03*
X0118204Y0072781D03*
X0118204Y0070812D03*
X0118204Y0068844D03*
X0118204Y0066875D03*
X0118204Y0064906D03*
X0118204Y0062938D03*
X0118204Y0060969D03*
X0118204Y0059001D03*
X0118204Y0057032D03*
X0118204Y0055064D03*
X0118204Y0053095D03*
X0118204Y0051127D03*
X0118204Y0049158D03*
X0118204Y0047190D03*
X0118204Y0045221D03*
X0118204Y0043253D03*
D15*
X0124503Y0036954D03*
X0126471Y0036954D03*
X0128440Y0036954D03*
X0130408Y0036954D03*
X0132377Y0036954D03*
X0134345Y0036954D03*
X0136314Y0036954D03*
X0138282Y0036954D03*
X0140251Y0036954D03*
X0142219Y0036954D03*
X0144188Y0036954D03*
X0146156Y0036954D03*
X0148125Y0036954D03*
X0150094Y0036954D03*
X0152062Y0036954D03*
X0154031Y0036954D03*
X0155999Y0036954D03*
X0157968Y0036954D03*
X0159936Y0036954D03*
X0161905Y0036954D03*
X0163873Y0036954D03*
X0165842Y0036954D03*
X0167810Y0036954D03*
X0169779Y0036954D03*
X0171747Y0036954D03*
X0171747Y0096796D03*
X0169779Y0096796D03*
X0167810Y0096796D03*
X0165842Y0096796D03*
X0163873Y0096796D03*
X0161905Y0096796D03*
X0159936Y0096796D03*
X0157968Y0096796D03*
X0155999Y0096796D03*
X0154031Y0096796D03*
X0152062Y0096796D03*
X0150094Y0096796D03*
X0148125Y0096796D03*
X0146156Y0096796D03*
X0144188Y0096796D03*
X0142219Y0096796D03*
X0140251Y0096796D03*
X0138282Y0096796D03*
X0136314Y0096796D03*
X0134345Y0096796D03*
X0132377Y0096796D03*
X0130408Y0096796D03*
X0128440Y0096796D03*
X0126471Y0096796D03*
X0124503Y0096796D03*
D16*
X0232717Y0080778D03*
X0232717Y0071722D03*
X0247283Y0071722D03*
X0247283Y0080778D03*
D17*
X0244006Y0035625D03*
D18*
X0220384Y0030625D03*
X0220384Y0040625D03*
D19*
X0013465Y0010512D03*
X0015827Y0010512D03*
X0018189Y0010512D03*
X0020551Y0010512D03*
X0022913Y0010512D03*
X0025276Y0010512D03*
X0027638Y0010512D03*
X0030000Y0010512D03*
X0032362Y0010512D03*
X0034724Y0010512D03*
X0037087Y0010512D03*
X0039449Y0010512D03*
X0041811Y0010512D03*
X0044173Y0010512D03*
X0046535Y0010512D03*
X0048898Y0010512D03*
X0051260Y0010512D03*
X0053622Y0010512D03*
X0055984Y0010512D03*
X0058346Y0010512D03*
X0074882Y0010512D03*
X0077244Y0010512D03*
X0079606Y0010512D03*
X0081969Y0010512D03*
X0084331Y0010512D03*
X0086693Y0010512D03*
X0089055Y0010512D03*
X0091417Y0010512D03*
X0093780Y0010512D03*
X0096142Y0010512D03*
X0098504Y0010512D03*
X0100866Y0010512D03*
X0103228Y0010512D03*
X0105591Y0010512D03*
X0107953Y0010512D03*
X0110315Y0010512D03*
X0112677Y0010512D03*
X0115039Y0010512D03*
X0117402Y0010512D03*
X0119764Y0010512D03*
X0122126Y0010512D03*
X0124488Y0010512D03*
X0126850Y0010512D03*
X0129213Y0010512D03*
X0131575Y0010512D03*
X0133937Y0010512D03*
X0136299Y0010512D03*
X0138661Y0010512D03*
X0141024Y0010512D03*
X0143386Y0010512D03*
X0145748Y0010512D03*
X0148110Y0010512D03*
X0150472Y0010512D03*
X0152835Y0010512D03*
X0155197Y0010512D03*
X0157559Y0010512D03*
X0159921Y0010512D03*
X0162283Y0010512D03*
X0164646Y0010512D03*
X0167008Y0010512D03*
X0169370Y0010512D03*
X0171732Y0010512D03*
X0174094Y0010512D03*
X0176457Y0010512D03*
X0178819Y0010512D03*
X0181181Y0010512D03*
X0183543Y0010512D03*
X0185906Y0010512D03*
X0188268Y0010512D03*
X0190630Y0010512D03*
X0192992Y0010512D03*
X0195354Y0010512D03*
X0197717Y0010512D03*
X0200079Y0010512D03*
X0202441Y0010512D03*
X0204803Y0010512D03*
X0207165Y0010512D03*
X0209528Y0010512D03*
X0211890Y0010512D03*
X0214252Y0010512D03*
X0216614Y0010512D03*
X0218976Y0010512D03*
X0221339Y0010512D03*
X0223701Y0010512D03*
X0226063Y0010512D03*
X0228425Y0010512D03*
X0230787Y0010512D03*
X0233150Y0010512D03*
X0235512Y0010512D03*
X0237874Y0010512D03*
X0240236Y0010512D03*
X0242598Y0010512D03*
X0244961Y0010512D03*
X0247323Y0010512D03*
X0249685Y0010512D03*
X0252047Y0010512D03*
X0254409Y0010512D03*
X0256772Y0010512D03*
X0259134Y0010512D03*
X0261496Y0010512D03*
D20*
X0208700Y0093650D03*
X0205000Y0093650D03*
X0201300Y0093650D03*
X0201300Y0103850D03*
X0208700Y0103850D03*
D21*
X0195600Y0112392D03*
X0195600Y0130108D03*
X0226900Y0130108D03*
X0226900Y0112392D03*
D22*
X0254222Y0049375D03*
X0263278Y0049375D03*
D23*
X0260847Y0049345D02*
X0256850Y0049345D01*
X0256850Y0049355D02*
X0254243Y0049355D01*
X0254243Y0049395D01*
X0256850Y0049395D01*
X0256850Y0051192D01*
X0256755Y0051544D01*
X0256573Y0051861D01*
X0256314Y0052119D01*
X0255998Y0052302D01*
X0255645Y0052396D01*
X0254243Y0052396D01*
X0254243Y0049395D01*
X0254202Y0049395D01*
X0254202Y0049355D01*
X0251595Y0049355D01*
X0251595Y0047558D01*
X0251689Y0047206D01*
X0251872Y0046889D01*
X0252130Y0046631D01*
X0252447Y0046448D01*
X0252800Y0046354D01*
X0254202Y0046354D01*
X0254202Y0049355D01*
X0254243Y0049355D01*
X0254243Y0046354D01*
X0255645Y0046354D01*
X0255998Y0046448D01*
X0256314Y0046631D01*
X0256573Y0046889D01*
X0256755Y0047206D01*
X0256850Y0047558D01*
X0256850Y0049355D01*
X0256850Y0050543D02*
X0260847Y0050543D01*
X0260847Y0051502D02*
X0260847Y0047248D01*
X0261544Y0046551D01*
X0261759Y0046551D01*
X0261759Y0045477D01*
X0259714Y0045477D01*
X0259016Y0044780D01*
X0259016Y0037494D01*
X0259714Y0036797D01*
X0267786Y0036797D01*
X0268484Y0037494D01*
X0268484Y0044780D01*
X0267786Y0045477D01*
X0265741Y0045477D01*
X0265741Y0049727D01*
X0265708Y0049759D01*
X0265708Y0051502D01*
X0265268Y0051942D01*
X0265268Y0061297D01*
X0264102Y0062463D01*
X0262825Y0063741D01*
X0239731Y0063741D01*
X0240641Y0064266D01*
X0241791Y0066257D01*
X0241791Y0073964D01*
X0241804Y0074103D01*
X0241910Y0074359D01*
X0241998Y0074466D01*
X0244954Y0077422D01*
X0250046Y0077422D01*
X0250709Y0076758D01*
X0250709Y0075508D01*
X0251139Y0075078D01*
X0243050Y0075078D01*
X0242353Y0074381D01*
X0242353Y0069064D01*
X0243050Y0068367D01*
X0251517Y0068367D01*
X0252214Y0069064D01*
X0252214Y0074004D01*
X0253485Y0072733D01*
X0253485Y0070985D01*
X0254182Y0070288D01*
X0258318Y0070288D01*
X0259015Y0070985D01*
X0259015Y0075515D01*
X0258348Y0076182D01*
X0258360Y0076185D01*
X0258677Y0076368D01*
X0258935Y0076626D01*
X0259118Y0076943D01*
X0259212Y0077296D01*
X0259212Y0079063D01*
X0256437Y0079063D01*
X0256437Y0079437D01*
X0256063Y0079437D01*
X0256063Y0079063D01*
X0253470Y0079063D01*
X0252214Y0080318D01*
X0252214Y0083436D01*
X0251517Y0084133D01*
X0243050Y0084133D01*
X0242353Y0083436D01*
X0242353Y0079885D01*
X0238942Y0076474D01*
X0238863Y0076395D01*
X0238209Y0074818D01*
X0238209Y0067406D01*
X0238185Y0067223D01*
X0238002Y0066905D01*
X0237684Y0066721D01*
X0237500Y0066697D01*
X0228604Y0066697D01*
X0230274Y0068367D01*
X0236950Y0068367D01*
X0237647Y0069064D01*
X0237647Y0074381D01*
X0236950Y0075078D01*
X0228483Y0075078D01*
X0227786Y0074381D01*
X0227786Y0073513D01*
X0226515Y0073513D01*
X0226515Y0074890D01*
X0225848Y0075557D01*
X0225860Y0075560D01*
X0226177Y0075743D01*
X0226435Y0076001D01*
X0226618Y0076318D01*
X0226712Y0076671D01*
X0226712Y0078438D01*
X0223937Y0078438D01*
X0223937Y0078812D01*
X0223563Y0078812D01*
X0223563Y0078438D01*
X0220788Y0078438D01*
X0220788Y0076671D01*
X0220882Y0076318D01*
X0221065Y0076001D01*
X0221323Y0075743D01*
X0221640Y0075560D01*
X0221652Y0075557D01*
X0220985Y0074890D01*
X0220985Y0070360D01*
X0221682Y0069663D01*
X0225818Y0069663D01*
X0226087Y0069932D01*
X0226775Y0069932D01*
X0226241Y0069398D01*
X0226241Y0069398D01*
X0225716Y0068873D01*
X0225609Y0068785D01*
X0225353Y0068679D01*
X0225214Y0068666D01*
X0185947Y0068666D01*
X0186245Y0069386D01*
X0186370Y0069334D01*
X0187380Y0069334D01*
X0188314Y0069721D01*
X0188750Y0070157D01*
X0189186Y0069721D01*
X0190120Y0069334D01*
X0191130Y0069334D01*
X0192064Y0069721D01*
X0192779Y0070436D01*
X0193166Y0071370D01*
X0193166Y0072380D01*
X0192779Y0073314D01*
X0192343Y0073750D01*
X0192779Y0074186D01*
X0193166Y0075120D01*
X0193166Y0076130D01*
X0193049Y0076413D01*
X0194329Y0076413D01*
X0194682Y0076507D01*
X0194999Y0076690D01*
X0195257Y0076948D01*
X0195439Y0077265D01*
X0195534Y0077618D01*
X0195534Y0079188D01*
X0192562Y0079188D01*
X0192562Y0079562D01*
X0192188Y0079562D01*
X0192188Y0082337D01*
X0190421Y0082337D01*
X0190068Y0082243D01*
X0189751Y0082060D01*
X0189493Y0081802D01*
X0189310Y0081485D01*
X0189307Y0081473D01*
X0188640Y0082140D01*
X0184110Y0082140D01*
X0183413Y0081443D01*
X0183413Y0080477D01*
X0182583Y0080477D01*
X0182583Y0080654D01*
X0178046Y0080654D01*
X0173509Y0080654D01*
X0173509Y0080477D01*
X0168538Y0080477D01*
X0168538Y0082801D01*
X0173706Y0082801D01*
X0173706Y0081958D01*
X0173604Y0081781D01*
X0173509Y0081428D01*
X0173509Y0080655D01*
X0178046Y0080655D01*
X0178046Y0080654D01*
X0178046Y0080655D01*
X0182583Y0080655D01*
X0182583Y0081428D01*
X0182489Y0081781D01*
X0182386Y0081958D01*
X0182386Y0082801D01*
X0196610Y0082801D01*
X0196610Y0082610D01*
X0197277Y0081943D01*
X0197265Y0081939D01*
X0196948Y0081757D01*
X0196690Y0081499D01*
X0196507Y0081182D01*
X0196413Y0080829D01*
X0196413Y0079062D01*
X0199188Y0079062D01*
X0199188Y0078688D01*
X0199562Y0078688D01*
X0199562Y0075716D01*
X0201132Y0075716D01*
X0201485Y0075810D01*
X0201802Y0075993D01*
X0201875Y0076066D01*
X0201948Y0075993D01*
X0202265Y0075810D01*
X0202618Y0075716D01*
X0204188Y0075716D01*
X0204188Y0078688D01*
X0201413Y0078688D01*
X0199562Y0078688D01*
X0199562Y0079062D01*
X0204188Y0079062D01*
X0204188Y0078688D01*
X0204562Y0078688D01*
X0204562Y0075716D01*
X0206132Y0075716D01*
X0206485Y0075810D01*
X0206802Y0075993D01*
X0206875Y0076066D01*
X0206948Y0075993D01*
X0207265Y0075810D01*
X0207618Y0075716D01*
X0209188Y0075716D01*
X0209188Y0078688D01*
X0207337Y0078688D01*
X0204562Y0078688D01*
X0204562Y0079062D01*
X0209188Y0079062D01*
X0209188Y0078688D01*
X0209562Y0078688D01*
X0209562Y0075716D01*
X0211132Y0075716D01*
X0211485Y0075810D01*
X0211802Y0075993D01*
X0211875Y0076066D01*
X0211948Y0075993D01*
X0212265Y0075810D01*
X0212618Y0075716D01*
X0214188Y0075716D01*
X0214188Y0078688D01*
X0212337Y0078688D01*
X0209562Y0078688D01*
X0209562Y0079062D01*
X0214188Y0079062D01*
X0214188Y0078688D01*
X0214562Y0078688D01*
X0214562Y0075716D01*
X0216132Y0075716D01*
X0216485Y0075810D01*
X0216802Y0075993D01*
X0217060Y0076251D01*
X0217243Y0076568D01*
X0217337Y0076921D01*
X0217337Y0078688D01*
X0214562Y0078688D01*
X0214562Y0079062D01*
X0217337Y0079062D01*
X0217337Y0080829D01*
X0217243Y0081182D01*
X0217060Y0081499D01*
X0216802Y0081757D01*
X0216485Y0081939D01*
X0216473Y0081943D01*
X0217140Y0082610D01*
X0217140Y0083084D01*
X0220985Y0083084D01*
X0220985Y0082860D01*
X0221682Y0082163D01*
X0225818Y0082163D01*
X0226515Y0082860D01*
X0226515Y0087390D01*
X0225818Y0088087D01*
X0221682Y0088087D01*
X0220985Y0087390D01*
X0220985Y0086666D01*
X0217140Y0086666D01*
X0217140Y0087140D01*
X0216443Y0087837D01*
X0216166Y0087837D01*
X0216166Y0097617D01*
X0215117Y0098666D01*
X0213242Y0100541D01*
X0210674Y0100541D01*
X0210991Y0100857D01*
X0210991Y0106843D01*
X0210491Y0107343D01*
X0210491Y0110601D01*
X0222658Y0110601D01*
X0222658Y0109340D01*
X0223355Y0108642D01*
X0230444Y0108642D01*
X0231141Y0109340D01*
X0231141Y0115444D01*
X0230444Y0116141D01*
X0223355Y0116141D01*
X0222658Y0115444D01*
X0222658Y0114182D01*
X0199842Y0114182D01*
X0199842Y0115444D01*
X0199145Y0116141D01*
X0192056Y0116141D01*
X0191359Y0115444D01*
X0191359Y0110682D01*
X0191217Y0110541D01*
X0180552Y0110541D01*
X0180189Y0110904D01*
X0179255Y0111291D01*
X0178245Y0111291D01*
X0177311Y0110904D01*
X0176596Y0110189D01*
X0176209Y0109255D01*
X0176209Y0108245D01*
X0176596Y0107311D01*
X0177311Y0106596D01*
X0178245Y0106209D01*
X0179255Y0106209D01*
X0180189Y0106596D01*
X0180552Y0106959D01*
X0186341Y0106959D01*
X0186341Y0105812D01*
X0189313Y0105812D01*
X0189313Y0105438D01*
X0186341Y0105438D01*
X0186341Y0103868D01*
X0186435Y0103515D01*
X0186618Y0103198D01*
X0186876Y0102940D01*
X0186916Y0102917D01*
X0186810Y0102735D01*
X0186807Y0102723D01*
X0186140Y0103390D01*
X0181610Y0103390D01*
X0180913Y0102693D01*
X0180913Y0102195D01*
X0180084Y0101367D01*
X0173528Y0094810D01*
X0173528Y0096045D01*
X0173538Y0096055D01*
X0173538Y0118995D01*
X0151518Y0141014D01*
X0253329Y0141014D01*
X0252241Y0140739D01*
X0248633Y0138382D01*
X0248633Y0138382D01*
X0248633Y0138382D01*
X0245986Y0134981D01*
X0244587Y0130905D01*
X0244587Y0126595D01*
X0245986Y0122519D01*
X0248633Y0119118D01*
X0248633Y0119118D01*
X0248633Y0119118D01*
X0252241Y0116761D01*
X0256419Y0115703D01*
X0260714Y0116059D01*
X0264660Y0117790D01*
X0264660Y0117790D01*
X0267831Y0120709D01*
X0267831Y0120709D01*
X0269361Y0123536D01*
X0269361Y0093367D01*
X0266240Y0092231D01*
X0263631Y0090042D01*
X0261929Y0087093D01*
X0261338Y0083740D01*
X0261929Y0080387D01*
X0263631Y0077438D01*
X0266240Y0075250D01*
X0266240Y0075250D01*
X0269361Y0074114D01*
X0269361Y0006781D01*
X0263572Y0006781D01*
X0263572Y0015533D01*
X0263487Y0015618D01*
X0263487Y0025773D01*
X0267786Y0025773D01*
X0268484Y0026470D01*
X0268484Y0033756D01*
X0267786Y0034453D01*
X0259714Y0034453D01*
X0259016Y0033756D01*
X0259016Y0028194D01*
X0257953Y0027131D01*
X0257143Y0026322D01*
X0257143Y0016427D01*
X0256772Y0016427D01*
X0256772Y0010512D01*
X0256772Y0010512D01*
X0256772Y0016427D01*
X0255703Y0016427D01*
X0255591Y0016397D01*
X0255478Y0016427D01*
X0254409Y0016427D01*
X0253341Y0016427D01*
X0253228Y0016397D01*
X0253116Y0016427D01*
X0252047Y0016427D01*
X0250979Y0016427D01*
X0250866Y0016397D01*
X0250754Y0016427D01*
X0249685Y0016427D01*
X0248617Y0016427D01*
X0248504Y0016397D01*
X0248391Y0016427D01*
X0247323Y0016427D01*
X0247323Y0010512D01*
X0247323Y0010512D01*
X0249685Y0010512D01*
X0249685Y0016427D01*
X0249685Y0010512D01*
X0249685Y0010512D01*
X0249685Y0010512D01*
X0252047Y0010512D01*
X0252047Y0010512D01*
X0252047Y0016427D01*
X0252047Y0010512D01*
X0252047Y0010512D01*
X0249774Y0010512D01*
X0249685Y0010512D01*
X0249685Y0010512D01*
X0247412Y0010512D01*
X0247323Y0010512D01*
X0247323Y0010512D01*
X0247323Y0016427D01*
X0246254Y0016427D01*
X0246142Y0016397D01*
X0246029Y0016427D01*
X0244961Y0016427D01*
X0244961Y0010512D01*
X0247323Y0010512D01*
X0247323Y0010512D01*
X0245050Y0010512D01*
X0244961Y0010512D01*
X0244961Y0010512D01*
X0244961Y0010512D01*
X0244961Y0016427D01*
X0243892Y0016427D01*
X0243780Y0016397D01*
X0243667Y0016427D01*
X0242598Y0016427D01*
X0241530Y0016427D01*
X0241417Y0016397D01*
X0241305Y0016427D01*
X0240236Y0016427D01*
X0239168Y0016427D01*
X0239055Y0016397D01*
X0238942Y0016427D01*
X0237874Y0016427D01*
X0236806Y0016427D01*
X0236693Y0016397D01*
X0236580Y0016427D01*
X0235512Y0016427D01*
X0235512Y0010512D01*
X0237874Y0010512D01*
X0237874Y0016427D01*
X0237874Y0010512D01*
X0237874Y0010512D01*
X0237874Y0010512D01*
X0240236Y0010512D01*
X0240236Y0010512D01*
X0240236Y0016427D01*
X0240236Y0010512D01*
X0240236Y0010512D01*
X0237963Y0010512D01*
X0237874Y0010512D01*
X0237874Y0010512D01*
X0235601Y0010512D01*
X0235512Y0010512D01*
X0235512Y0010512D01*
X0235512Y0010512D01*
X0235512Y0016427D01*
X0234443Y0016427D01*
X0234331Y0016397D01*
X0234218Y0016427D01*
X0233150Y0016427D01*
X0233150Y0010512D01*
X0235512Y0010512D01*
X0235512Y0010512D01*
X0233239Y0010512D01*
X0233150Y0010512D01*
X0233150Y0010512D01*
X0233150Y0010512D01*
X0233150Y0016427D01*
X0232081Y0016427D01*
X0231968Y0016397D01*
X0231856Y0016427D01*
X0230787Y0016427D01*
X0229719Y0016427D01*
X0229606Y0016397D01*
X0229494Y0016427D01*
X0228425Y0016427D01*
X0227357Y0016427D01*
X0227244Y0016397D01*
X0227131Y0016427D01*
X0226063Y0016427D01*
X0226063Y0010512D01*
X0226063Y0010512D01*
X0226063Y0016427D01*
X0224995Y0016427D01*
X0224882Y0016397D01*
X0224769Y0016427D01*
X0223701Y0016427D01*
X0223701Y0010512D01*
X0226063Y0010512D01*
X0228425Y0010512D01*
X0228425Y0016427D01*
X0228425Y0010512D01*
X0228425Y0010512D01*
X0228425Y0010512D01*
X0226152Y0010512D01*
X0226063Y0010512D01*
X0226063Y0010512D01*
X0226063Y0010512D01*
X0225974Y0010512D01*
X0223701Y0010512D01*
X0223701Y0010512D01*
X0223701Y0010512D01*
X0223701Y0016427D01*
X0222632Y0016427D01*
X0222520Y0016397D01*
X0222407Y0016427D01*
X0221339Y0016427D01*
X0221339Y0010512D01*
X0223701Y0010512D01*
X0223701Y0010512D01*
X0221428Y0010512D01*
X0221339Y0010512D01*
X0221339Y0010512D01*
X0221339Y0010512D01*
X0221339Y0016427D01*
X0220270Y0016427D01*
X0220157Y0016397D01*
X0220045Y0016427D01*
X0218976Y0016427D01*
X0217908Y0016427D01*
X0217795Y0016397D01*
X0217683Y0016427D01*
X0216614Y0016427D01*
X0215546Y0016427D01*
X0215433Y0016397D01*
X0215320Y0016427D01*
X0214252Y0016427D01*
X0214252Y0010512D01*
X0214252Y0010512D01*
X0214252Y0016427D01*
X0213680Y0016427D01*
X0213680Y0031912D01*
X0214272Y0031321D01*
X0214272Y0028163D01*
X0214969Y0027466D01*
X0218959Y0027466D01*
X0218959Y0025265D01*
X0218485Y0025265D01*
X0217788Y0024568D01*
X0217788Y0020432D01*
X0218485Y0019735D01*
X0223015Y0019735D01*
X0223682Y0020402D01*
X0223685Y0020390D01*
X0223868Y0020073D01*
X0224126Y0019815D01*
X0224443Y0019632D01*
X0224796Y0019538D01*
X0226563Y0019538D01*
X0226563Y0022313D01*
X0226937Y0022313D01*
X0226937Y0019538D01*
X0228704Y0019538D01*
X0229057Y0019632D01*
X0229374Y0019815D01*
X0229632Y0020073D01*
X0229814Y0020390D01*
X0229909Y0020743D01*
X0229909Y0022313D01*
X0226937Y0022313D01*
X0226937Y0022687D01*
X0226563Y0022687D01*
X0226563Y0025462D01*
X0224796Y0025462D01*
X0224443Y0025368D01*
X0224126Y0025185D01*
X0223868Y0024927D01*
X0223685Y0024610D01*
X0223682Y0024598D01*
X0223015Y0025265D01*
X0222541Y0025265D01*
X0222541Y0027466D01*
X0225798Y0027466D01*
X0226496Y0028163D01*
X0226496Y0033087D01*
X0225798Y0033784D01*
X0216873Y0033784D01*
X0216791Y0033867D01*
X0216791Y0036367D01*
X0215742Y0037416D01*
X0215691Y0037466D01*
X0225798Y0037466D01*
X0226496Y0038163D01*
X0226496Y0043087D01*
X0225798Y0043784D01*
X0222174Y0043784D01*
X0222174Y0045985D01*
X0222390Y0045985D01*
X0223057Y0046652D01*
X0223060Y0046640D01*
X0223243Y0046323D01*
X0223501Y0046065D01*
X0223818Y0045882D01*
X0224171Y0045788D01*
X0225938Y0045788D01*
X0225938Y0048563D01*
X0226312Y0048563D01*
X0226312Y0045788D01*
X0228079Y0045788D01*
X0228432Y0045882D01*
X0228749Y0046065D01*
X0229007Y0046323D01*
X0229189Y0046640D01*
X0229284Y0046993D01*
X0229284Y0048563D01*
X0226312Y0048563D01*
X0226312Y0048937D01*
X0225938Y0048937D01*
X0225938Y0051712D01*
X0224171Y0051712D01*
X0223818Y0051618D01*
X0223501Y0051435D01*
X0223243Y0051177D01*
X0223060Y0050860D01*
X0223057Y0050848D01*
X0222390Y0051515D01*
X0217860Y0051515D01*
X0217163Y0050818D01*
X0217163Y0050541D01*
X0210117Y0050541D01*
X0208066Y0052591D01*
X0209257Y0052591D01*
X0209610Y0052685D01*
X0209927Y0052868D01*
X0210000Y0052941D01*
X0210073Y0052868D01*
X0210390Y0052685D01*
X0210743Y0052591D01*
X0212313Y0052591D01*
X0212313Y0055563D01*
X0209538Y0055563D01*
X0207687Y0055563D01*
X0207687Y0055937D01*
X0212313Y0055937D01*
X0212313Y0055563D01*
X0212687Y0055563D01*
X0212687Y0052591D01*
X0214257Y0052591D01*
X0214610Y0052685D01*
X0214927Y0052868D01*
X0215185Y0053126D01*
X0215368Y0053443D01*
X0215462Y0053796D01*
X0215462Y0055563D01*
X0212687Y0055563D01*
X0212687Y0055937D01*
X0215462Y0055937D01*
X0215462Y0057704D01*
X0215368Y0058057D01*
X0215185Y0058374D01*
X0214927Y0058632D01*
X0214610Y0058814D01*
X0214598Y0058818D01*
X0215265Y0059485D01*
X0215265Y0059759D01*
X0261175Y0059759D01*
X0261287Y0059648D01*
X0261287Y0051942D01*
X0260847Y0051502D01*
X0261087Y0051742D02*
X0256641Y0051742D01*
X0254243Y0051742D02*
X0254202Y0051742D01*
X0254202Y0052396D02*
X0252800Y0052396D01*
X0252447Y0052302D01*
X0252130Y0052119D01*
X0251872Y0051861D01*
X0251689Y0051544D01*
X0251595Y0051192D01*
X0251595Y0049395D01*
X0254202Y0049395D01*
X0254202Y0052396D01*
X0254202Y0050543D02*
X0254243Y0050543D01*
X0254202Y0049345D02*
X0254243Y0049345D01*
X0254202Y0048146D02*
X0254243Y0048146D01*
X0254202Y0046948D02*
X0254243Y0046948D01*
X0256607Y0046948D02*
X0261147Y0046948D01*
X0260847Y0048146D02*
X0256850Y0048146D01*
X0261759Y0045749D02*
X0222174Y0045749D01*
X0222174Y0044551D02*
X0259016Y0044551D01*
X0259016Y0043352D02*
X0226230Y0043352D01*
X0226496Y0042154D02*
X0259016Y0042154D01*
X0259016Y0040955D02*
X0257007Y0040955D01*
X0257007Y0041039D02*
X0256310Y0041737D01*
X0231702Y0041737D01*
X0231004Y0041039D01*
X0231004Y0030211D01*
X0231702Y0029513D01*
X0256310Y0029513D01*
X0257007Y0030211D01*
X0257007Y0041039D01*
X0257007Y0039757D02*
X0259016Y0039757D01*
X0259016Y0038558D02*
X0257007Y0038558D01*
X0257007Y0037360D02*
X0259150Y0037360D01*
X0257007Y0036161D02*
X0269361Y0036161D01*
X0269361Y0034963D02*
X0257007Y0034963D01*
X0257007Y0033764D02*
X0259024Y0033764D01*
X0259016Y0032566D02*
X0257007Y0032566D01*
X0257007Y0031367D02*
X0259016Y0031367D01*
X0259016Y0030169D02*
X0256966Y0030169D01*
X0259016Y0028970D02*
X0226496Y0028970D01*
X0226496Y0030169D02*
X0231046Y0030169D01*
X0231004Y0031367D02*
X0226496Y0031367D01*
X0226496Y0032566D02*
X0231004Y0032566D01*
X0231004Y0033764D02*
X0225818Y0033764D01*
X0226496Y0038558D02*
X0231004Y0038558D01*
X0231004Y0037360D02*
X0215797Y0037360D01*
X0216791Y0036161D02*
X0231004Y0036161D01*
X0231004Y0034963D02*
X0216791Y0034963D01*
X0215000Y0035625D02*
X0215000Y0033125D01*
X0217500Y0030625D01*
X0220384Y0030625D01*
X0220750Y0030259D01*
X0220750Y0022500D01*
X0217788Y0022978D02*
X0213680Y0022978D01*
X0213680Y0024176D02*
X0217788Y0024176D01*
X0218959Y0025375D02*
X0213680Y0025375D01*
X0213680Y0026573D02*
X0218959Y0026573D01*
X0222541Y0026573D02*
X0257395Y0026573D01*
X0257143Y0025375D02*
X0229031Y0025375D01*
X0229057Y0025368D02*
X0228704Y0025462D01*
X0226937Y0025462D01*
X0226937Y0022687D01*
X0229909Y0022687D01*
X0229909Y0024257D01*
X0229814Y0024610D01*
X0229632Y0024927D01*
X0229374Y0025185D01*
X0229057Y0025368D01*
X0229909Y0024176D02*
X0257143Y0024176D01*
X0257143Y0022978D02*
X0229909Y0022978D01*
X0229909Y0021779D02*
X0257143Y0021779D01*
X0257143Y0020581D02*
X0229866Y0020581D01*
X0226937Y0020581D02*
X0226563Y0020581D01*
X0226563Y0021779D02*
X0226937Y0021779D01*
X0226937Y0022978D02*
X0226563Y0022978D01*
X0226563Y0024176D02*
X0226937Y0024176D01*
X0226937Y0025375D02*
X0226563Y0025375D01*
X0224469Y0025375D02*
X0222541Y0025375D01*
X0226104Y0027772D02*
X0258593Y0027772D01*
X0263487Y0025375D02*
X0269361Y0025375D01*
X0269361Y0026573D02*
X0268484Y0026573D01*
X0268484Y0027772D02*
X0269361Y0027772D01*
X0269361Y0028970D02*
X0268484Y0028970D01*
X0268484Y0030169D02*
X0269361Y0030169D01*
X0269361Y0031367D02*
X0268484Y0031367D01*
X0268484Y0032566D02*
X0269361Y0032566D01*
X0269361Y0033764D02*
X0268476Y0033764D01*
X0268350Y0037360D02*
X0269361Y0037360D01*
X0269361Y0038558D02*
X0268484Y0038558D01*
X0268484Y0039757D02*
X0269361Y0039757D01*
X0269361Y0040955D02*
X0268484Y0040955D01*
X0268484Y0042154D02*
X0269361Y0042154D01*
X0269361Y0043352D02*
X0268484Y0043352D01*
X0268484Y0044551D02*
X0269361Y0044551D01*
X0269361Y0045749D02*
X0265741Y0045749D01*
X0265741Y0046948D02*
X0269361Y0046948D01*
X0269361Y0048146D02*
X0265741Y0048146D01*
X0265741Y0049345D02*
X0269361Y0049345D01*
X0269361Y0050543D02*
X0265708Y0050543D01*
X0265468Y0051742D02*
X0269361Y0051742D01*
X0269361Y0052940D02*
X0265268Y0052940D01*
X0265268Y0054139D02*
X0269361Y0054139D01*
X0269361Y0055337D02*
X0265268Y0055337D01*
X0265268Y0056536D02*
X0269361Y0056536D01*
X0269361Y0057734D02*
X0265268Y0057734D01*
X0265268Y0058933D02*
X0269361Y0058933D01*
X0269361Y0060132D02*
X0265268Y0060132D01*
X0265235Y0061330D02*
X0269361Y0061330D01*
X0269361Y0062529D02*
X0264037Y0062529D01*
X0264102Y0062463D02*
X0264102Y0062463D01*
X0262838Y0063727D02*
X0269361Y0063727D01*
X0269361Y0064926D02*
X0241022Y0064926D01*
X0240641Y0064266D02*
X0240641Y0064266D01*
X0240641Y0064266D01*
X0241714Y0066124D02*
X0269361Y0066124D01*
X0269361Y0067323D02*
X0241791Y0067323D01*
X0241791Y0068521D02*
X0242896Y0068521D01*
X0242353Y0069720D02*
X0241791Y0069720D01*
X0241791Y0070918D02*
X0242353Y0070918D01*
X0242353Y0072117D02*
X0241791Y0072117D01*
X0241791Y0073315D02*
X0242353Y0073315D01*
X0240000Y0073964D02*
X0240002Y0074062D01*
X0240008Y0074160D01*
X0240017Y0074258D01*
X0240031Y0074355D01*
X0240048Y0074452D01*
X0240069Y0074548D01*
X0240094Y0074643D01*
X0240122Y0074737D01*
X0240155Y0074829D01*
X0240190Y0074921D01*
X0240230Y0075011D01*
X0240272Y0075099D01*
X0240319Y0075186D01*
X0240368Y0075270D01*
X0240421Y0075353D01*
X0240477Y0075433D01*
X0240537Y0075512D01*
X0240599Y0075588D01*
X0240664Y0075661D01*
X0240732Y0075732D01*
X0245045Y0080045D01*
X0246813Y0080778D02*
X0247283Y0080778D01*
X0248061Y0080000D01*
X0250000Y0080000D01*
X0252500Y0077500D01*
X0252500Y0076250D01*
X0255500Y0073250D01*
X0256250Y0073250D01*
X0259015Y0073315D02*
X0269361Y0073315D01*
X0269361Y0072117D02*
X0259015Y0072117D01*
X0258948Y0070918D02*
X0269361Y0070918D01*
X0269361Y0069720D02*
X0252214Y0069720D01*
X0252214Y0070918D02*
X0253552Y0070918D01*
X0253485Y0072117D02*
X0252214Y0072117D01*
X0252214Y0073315D02*
X0252903Y0073315D01*
X0250709Y0075712D02*
X0243244Y0075712D01*
X0242485Y0074514D02*
X0242046Y0074514D01*
X0240000Y0073964D02*
X0240000Y0067406D01*
X0238198Y0067323D02*
X0229230Y0067323D01*
X0226982Y0067607D02*
X0230365Y0070990D01*
X0232133Y0071722D02*
X0232717Y0071722D01*
X0225278Y0071722D01*
X0223750Y0072625D01*
X0226515Y0074514D02*
X0227919Y0074514D01*
X0226123Y0075712D02*
X0238580Y0075712D01*
X0238863Y0076395D02*
X0238863Y0076395D01*
X0238942Y0076474D02*
X0238942Y0076474D01*
X0239378Y0076911D02*
X0226712Y0076911D01*
X0226712Y0078109D02*
X0227796Y0078109D01*
X0227786Y0078119D02*
X0228483Y0077422D01*
X0236950Y0077422D01*
X0237647Y0078119D01*
X0237647Y0083436D01*
X0236950Y0084133D01*
X0228483Y0084133D01*
X0227786Y0083436D01*
X0227786Y0078119D01*
X0227786Y0079308D02*
X0226712Y0079308D01*
X0226712Y0078812D02*
X0226712Y0080579D01*
X0226618Y0080932D01*
X0226435Y0081249D01*
X0226177Y0081507D01*
X0225860Y0081689D01*
X0225507Y0081784D01*
X0223937Y0081784D01*
X0223937Y0078812D01*
X0226712Y0078812D01*
X0226712Y0080506D02*
X0227786Y0080506D01*
X0227786Y0081705D02*
X0225803Y0081705D01*
X0226515Y0082903D02*
X0227786Y0082903D01*
X0228452Y0084102D02*
X0226515Y0084102D01*
X0226515Y0085300D02*
X0261613Y0085300D01*
X0261401Y0084102D02*
X0251548Y0084102D01*
X0252214Y0082903D02*
X0261485Y0082903D01*
X0261338Y0083740D02*
X0261338Y0083740D01*
X0261824Y0086499D02*
X0226515Y0086499D01*
X0226208Y0087697D02*
X0262278Y0087697D01*
X0261929Y0087093D02*
X0261929Y0087093D01*
X0262970Y0088896D02*
X0226515Y0088896D01*
X0226515Y0088860D02*
X0226515Y0093390D01*
X0225818Y0094087D01*
X0221682Y0094087D01*
X0220985Y0093390D01*
X0220985Y0093041D01*
X0220552Y0093041D01*
X0220189Y0093404D01*
X0219255Y0093791D01*
X0218245Y0093791D01*
X0217311Y0093404D01*
X0216596Y0092689D01*
X0216209Y0091755D01*
X0216209Y0090745D01*
X0216596Y0089811D01*
X0217311Y0089096D01*
X0218245Y0088709D01*
X0219255Y0088709D01*
X0220189Y0089096D01*
X0220552Y0089459D01*
X0220985Y0089459D01*
X0220985Y0088860D01*
X0221682Y0088163D01*
X0225818Y0088163D01*
X0226515Y0088860D01*
X0226515Y0090094D02*
X0263694Y0090094D01*
X0263631Y0090042D02*
X0263631Y0090042D01*
X0263631Y0090042D01*
X0265122Y0091293D02*
X0226515Y0091293D01*
X0226515Y0092491D02*
X0266956Y0092491D01*
X0266240Y0092231D02*
X0266240Y0092231D01*
X0269361Y0093690D02*
X0226215Y0093690D01*
X0221285Y0093690D02*
X0219498Y0093690D01*
X0218002Y0093690D02*
X0216166Y0093690D01*
X0216166Y0094888D02*
X0269361Y0094888D01*
X0269361Y0096087D02*
X0216166Y0096087D01*
X0216166Y0097285D02*
X0269361Y0097285D01*
X0269361Y0098484D02*
X0215298Y0098484D01*
X0214100Y0099682D02*
X0269361Y0099682D01*
X0269361Y0100881D02*
X0210991Y0100881D01*
X0210991Y0102079D02*
X0269361Y0102079D01*
X0269361Y0103278D02*
X0210991Y0103278D01*
X0210991Y0104476D02*
X0269361Y0104476D01*
X0269361Y0105675D02*
X0210991Y0105675D01*
X0210960Y0106873D02*
X0269361Y0106873D01*
X0269361Y0108072D02*
X0210491Y0108072D01*
X0210491Y0109270D02*
X0222727Y0109270D01*
X0222658Y0110469D02*
X0210491Y0110469D01*
X0208700Y0112392D02*
X0208700Y0103850D01*
X0208750Y0103900D01*
X0202935Y0099682D02*
X0193034Y0099682D01*
X0193034Y0100438D02*
X0190062Y0100438D01*
X0190062Y0100812D01*
X0193034Y0100812D01*
X0193034Y0102382D01*
X0192939Y0102735D01*
X0192757Y0103052D01*
X0192499Y0103310D01*
X0192459Y0103333D01*
X0192564Y0103515D01*
X0192568Y0103527D01*
X0193235Y0102860D01*
X0197765Y0102860D01*
X0198462Y0103557D01*
X0198462Y0103834D01*
X0199009Y0103834D01*
X0199009Y0100857D01*
X0199707Y0100159D01*
X0202458Y0100159D01*
X0204609Y0098008D01*
X0205080Y0097537D01*
X0205000Y0097537D01*
X0205000Y0093650D01*
X0205000Y0093650D01*
X0205000Y0097537D01*
X0203717Y0097537D01*
X0203364Y0097443D01*
X0203048Y0097260D01*
X0203011Y0097223D01*
X0202893Y0097341D01*
X0201442Y0097341D01*
X0200742Y0098041D01*
X0192599Y0098041D01*
X0192757Y0098198D01*
X0192939Y0098515D01*
X0193034Y0098868D01*
X0193034Y0100438D01*
X0193034Y0100881D02*
X0199009Y0100881D01*
X0199009Y0102079D02*
X0193034Y0102079D01*
X0192817Y0103278D02*
X0192531Y0103278D01*
X0189875Y0105250D02*
X0189875Y0100625D01*
X0192922Y0098484D02*
X0204134Y0098484D01*
X0205000Y0097285D02*
X0205000Y0097285D01*
X0205000Y0096087D02*
X0205000Y0096087D01*
X0205000Y0094888D02*
X0205000Y0094888D01*
X0205000Y0093690D02*
X0205000Y0093690D01*
X0203092Y0097285D02*
X0202948Y0097285D01*
X0201300Y0094950D02*
X0201300Y0093650D01*
X0201300Y0091200D01*
X0203125Y0089375D01*
X0211250Y0089375D01*
X0209375Y0084875D02*
X0204375Y0084875D01*
X0199375Y0084875D01*
X0200342Y0084592D01*
X0178046Y0084592D01*
X0178046Y0082623D01*
X0178046Y0084592D02*
X0166747Y0084592D01*
X0166747Y0085753D01*
X0165625Y0086875D01*
X0165625Y0087505D01*
X0167810Y0089690D01*
X0170940Y0089690D01*
X0181875Y0100625D01*
X0183875Y0100625D01*
X0180797Y0102079D02*
X0173538Y0102079D01*
X0173538Y0100881D02*
X0179599Y0100881D01*
X0180084Y0101367D02*
X0180084Y0101367D01*
X0181498Y0103278D02*
X0173538Y0103278D01*
X0173538Y0104476D02*
X0186341Y0104476D01*
X0186252Y0103278D02*
X0186572Y0103278D01*
X0186341Y0106873D02*
X0180466Y0106873D01*
X0178750Y0108750D02*
X0191959Y0108750D01*
X0195600Y0112392D01*
X0208700Y0112392D01*
X0226900Y0112392D01*
X0231141Y0112866D02*
X0269361Y0112866D01*
X0269361Y0111668D02*
X0231141Y0111668D01*
X0231141Y0110469D02*
X0269361Y0110469D01*
X0269361Y0109270D02*
X0231072Y0109270D01*
X0232319Y0113122D02*
X0231622Y0113819D01*
X0231622Y0123681D01*
X0232319Y0124378D01*
X0242181Y0124378D01*
X0242878Y0123681D01*
X0242878Y0113819D01*
X0242181Y0113122D01*
X0232319Y0113122D01*
X0231622Y0114065D02*
X0231141Y0114065D01*
X0231141Y0115263D02*
X0231622Y0115263D01*
X0231622Y0116462D02*
X0190878Y0116462D01*
X0190878Y0117660D02*
X0231622Y0117660D01*
X0231622Y0118859D02*
X0190878Y0118859D01*
X0190878Y0120057D02*
X0231622Y0120057D01*
X0231622Y0121256D02*
X0190878Y0121256D01*
X0190878Y0122454D02*
X0231622Y0122454D01*
X0231622Y0123653D02*
X0190878Y0123653D01*
X0190878Y0123681D02*
X0190181Y0124378D01*
X0180319Y0124378D01*
X0179622Y0123681D01*
X0179622Y0113819D01*
X0180319Y0113122D01*
X0190181Y0113122D01*
X0190878Y0113819D01*
X0190878Y0123681D01*
X0192014Y0126256D02*
X0192367Y0126162D01*
X0195000Y0126162D01*
X0195000Y0129508D01*
X0191162Y0129508D01*
X0191162Y0127367D01*
X0191256Y0127014D01*
X0191439Y0126697D01*
X0191697Y0126439D01*
X0192014Y0126256D01*
X0191194Y0127248D02*
X0165284Y0127248D01*
X0166483Y0126050D02*
X0244774Y0126050D01*
X0244587Y0127248D02*
X0231306Y0127248D01*
X0231338Y0127367D02*
X0231338Y0129508D01*
X0227500Y0129508D01*
X0227500Y0130708D01*
X0231338Y0130708D01*
X0231338Y0132850D01*
X0231244Y0133203D01*
X0231061Y0133519D01*
X0230803Y0133778D01*
X0230486Y0133960D01*
X0230133Y0134055D01*
X0227500Y0134055D01*
X0227500Y0130708D01*
X0226300Y0130708D01*
X0226300Y0134055D01*
X0223666Y0134055D01*
X0223313Y0133960D01*
X0222997Y0133778D01*
X0222738Y0133519D01*
X0222556Y0133203D01*
X0222461Y0132850D01*
X0222461Y0130708D01*
X0226300Y0130708D01*
X0226300Y0129508D01*
X0227500Y0129508D01*
X0227500Y0126162D01*
X0230133Y0126162D01*
X0230486Y0126256D01*
X0230803Y0126439D01*
X0231061Y0126697D01*
X0231244Y0127014D01*
X0231338Y0127367D01*
X0231338Y0128447D02*
X0244587Y0128447D01*
X0244587Y0129645D02*
X0227500Y0129645D01*
X0227500Y0128447D02*
X0226300Y0128447D01*
X0226300Y0129508D02*
X0226300Y0126162D01*
X0223666Y0126162D01*
X0223313Y0126256D01*
X0222997Y0126439D01*
X0222738Y0126697D01*
X0222556Y0127014D01*
X0222461Y0127367D01*
X0222461Y0129508D01*
X0226300Y0129508D01*
X0226300Y0129645D02*
X0196200Y0129645D01*
X0196200Y0129508D02*
X0196200Y0130708D01*
X0195000Y0130708D01*
X0195000Y0129508D01*
X0196200Y0129508D01*
X0196200Y0126162D01*
X0198834Y0126162D01*
X0199187Y0126256D01*
X0199503Y0126439D01*
X0199762Y0126697D01*
X0199944Y0127014D01*
X0200039Y0127367D01*
X0200039Y0129508D01*
X0196200Y0129508D01*
X0196200Y0128447D02*
X0195000Y0128447D01*
X0195000Y0129645D02*
X0162887Y0129645D01*
X0164086Y0128447D02*
X0191162Y0128447D01*
X0191162Y0130708D02*
X0195000Y0130708D01*
X0195000Y0134055D01*
X0192367Y0134055D01*
X0192014Y0133960D01*
X0191697Y0133778D01*
X0191439Y0133519D01*
X0191256Y0133203D01*
X0191162Y0132850D01*
X0191162Y0130708D01*
X0191162Y0130844D02*
X0161689Y0130844D01*
X0160490Y0132042D02*
X0191162Y0132042D01*
X0191278Y0133241D02*
X0159291Y0133241D01*
X0158093Y0134439D02*
X0245801Y0134439D01*
X0245986Y0134981D02*
X0245986Y0134981D01*
X0246498Y0135638D02*
X0156894Y0135638D01*
X0155696Y0136836D02*
X0247431Y0136836D01*
X0248363Y0138035D02*
X0154497Y0138035D01*
X0153299Y0139233D02*
X0249937Y0139233D01*
X0251771Y0140432D02*
X0152100Y0140432D01*
X0149375Y0140625D02*
X0071875Y0140625D01*
X0015000Y0083750D01*
X0015000Y0019375D01*
X0013465Y0017840D01*
X0013465Y0010512D01*
X0015827Y0010512D02*
X0015827Y0017077D01*
X0016875Y0018125D01*
X0016875Y0082500D01*
X0073125Y0138750D01*
X0148125Y0138750D01*
X0165842Y0121033D01*
X0165842Y0096796D01*
X0167810Y0096796D02*
X0167810Y0089690D01*
X0166019Y0090432D02*
X0166019Y0092456D01*
X0151397Y0092456D01*
X0151220Y0092354D01*
X0150867Y0092259D01*
X0150094Y0092259D01*
X0150094Y0096796D01*
X0150093Y0096796D01*
X0150093Y0092259D01*
X0149320Y0092259D01*
X0148967Y0092354D01*
X0148790Y0092456D01*
X0126326Y0092456D01*
X0127617Y0091166D01*
X0163867Y0091166D01*
X0164916Y0090117D01*
X0165310Y0089722D01*
X0166019Y0090432D01*
X0165682Y0090094D02*
X0164938Y0090094D01*
X0166019Y0091293D02*
X0127489Y0091293D01*
X0126875Y0089375D02*
X0124503Y0091747D01*
X0124503Y0096796D01*
X0124424Y0096875D01*
X0118750Y0096875D01*
X0113625Y0096875D01*
X0116587Y0095084D02*
X0116948Y0095084D01*
X0117311Y0094721D01*
X0118245Y0094334D01*
X0119255Y0094334D01*
X0120189Y0094721D01*
X0120552Y0095084D01*
X0122712Y0095084D01*
X0122712Y0091005D01*
X0126133Y0087584D01*
X0162383Y0087584D01*
X0163834Y0086133D01*
X0164883Y0085084D01*
X0164956Y0085011D01*
X0164956Y0063652D01*
X0164938Y0063632D01*
X0164956Y0062915D01*
X0164956Y0062196D01*
X0164976Y0062177D01*
X0165084Y0058043D01*
X0165084Y0049291D01*
X0146133Y0049291D01*
X0145084Y0048242D01*
X0141886Y0045043D01*
X0122741Y0045043D01*
X0122741Y0045221D01*
X0118204Y0045221D01*
X0118204Y0045222D01*
X0122741Y0045222D01*
X0122741Y0045995D01*
X0122646Y0046348D01*
X0122544Y0046525D01*
X0122544Y0047368D01*
X0124439Y0047368D01*
X0124721Y0046686D01*
X0125436Y0045971D01*
X0126370Y0045584D01*
X0127380Y0045584D01*
X0128314Y0045971D01*
X0129029Y0046686D01*
X0129416Y0047620D01*
X0129416Y0048027D01*
X0130982Y0048027D01*
X0132372Y0049416D01*
X0132372Y0051381D01*
X0131878Y0051875D01*
X0132372Y0052369D01*
X0132372Y0054334D01*
X0130982Y0055723D01*
X0129247Y0055723D01*
X0129247Y0056607D01*
X0127857Y0057997D01*
X0125893Y0057997D01*
X0124750Y0056855D01*
X0122544Y0056855D01*
X0122544Y0091581D01*
X0121846Y0092278D01*
X0118955Y0092278D01*
X0118945Y0092288D01*
X0087880Y0092288D01*
X0071334Y0075742D01*
X0071334Y0022154D01*
X0070898Y0022406D01*
X0061632Y0022406D01*
X0060137Y0021543D01*
X0060137Y0066980D01*
X0096367Y0103209D01*
X0104466Y0103209D01*
X0104466Y0102062D01*
X0107438Y0102062D01*
X0107438Y0101688D01*
X0107812Y0101688D01*
X0107812Y0097062D01*
X0107438Y0097062D01*
X0107438Y0096688D01*
X0107812Y0096688D01*
X0107812Y0093913D01*
X0109579Y0093913D01*
X0109932Y0094007D01*
X0110249Y0094190D01*
X0110507Y0094448D01*
X0110689Y0094765D01*
X0110693Y0094777D01*
X0111360Y0094110D01*
X0115890Y0094110D01*
X0116587Y0094807D01*
X0116587Y0095084D01*
X0116587Y0094888D02*
X0117144Y0094888D01*
X0120356Y0094888D02*
X0122712Y0094888D01*
X0122712Y0093690D02*
X0086847Y0093690D01*
X0088046Y0094888D02*
X0104527Y0094888D01*
X0104560Y0094765D02*
X0104743Y0094448D01*
X0105001Y0094190D01*
X0105318Y0094007D01*
X0105671Y0093913D01*
X0107438Y0093913D01*
X0107438Y0096688D01*
X0104466Y0096688D01*
X0104466Y0095118D01*
X0104560Y0094765D01*
X0104466Y0096087D02*
X0089244Y0096087D01*
X0090443Y0097285D02*
X0104466Y0097285D01*
X0104466Y0097062D02*
X0107438Y0097062D01*
X0107438Y0098913D01*
X0107438Y0101688D01*
X0104466Y0101688D01*
X0104466Y0100118D01*
X0104560Y0099765D01*
X0104743Y0099448D01*
X0104816Y0099375D01*
X0104743Y0099302D01*
X0104560Y0098985D01*
X0104466Y0098632D01*
X0104466Y0097062D01*
X0104466Y0098484D02*
X0091641Y0098484D01*
X0092840Y0099682D02*
X0104608Y0099682D01*
X0104466Y0100881D02*
X0094038Y0100881D01*
X0095237Y0102079D02*
X0104466Y0102079D01*
X0107438Y0100881D02*
X0107812Y0100881D01*
X0107812Y0099682D02*
X0107438Y0099682D01*
X0107438Y0098484D02*
X0107812Y0098484D01*
X0107812Y0097285D02*
X0107438Y0097285D01*
X0107438Y0096087D02*
X0107812Y0096087D01*
X0107812Y0094888D02*
X0107438Y0094888D01*
X0113625Y0101875D02*
X0125625Y0101875D01*
X0126471Y0101029D01*
X0126471Y0096796D01*
X0128440Y0096796D02*
X0128440Y0102185D01*
X0125625Y0105000D01*
X0095625Y0105000D01*
X0058346Y0067721D01*
X0058346Y0010512D01*
X0055984Y0010512D02*
X0055984Y0068484D01*
X0094375Y0106875D01*
X0126875Y0106875D01*
X0130408Y0103342D01*
X0130408Y0096796D01*
X0132377Y0096796D02*
X0132377Y0104498D01*
X0128125Y0108750D01*
X0093125Y0108750D01*
X0053622Y0069247D01*
X0053622Y0010512D01*
X0051260Y0010512D02*
X0051260Y0070010D01*
X0091875Y0110625D01*
X0129375Y0110625D01*
X0134345Y0105655D01*
X0134345Y0096796D01*
X0136314Y0096796D02*
X0136314Y0106811D01*
X0130625Y0112500D01*
X0090625Y0112500D01*
X0048898Y0070773D01*
X0048898Y0010512D01*
X0046535Y0010512D02*
X0046535Y0071535D01*
X0089375Y0114375D01*
X0131875Y0114375D01*
X0138282Y0107968D01*
X0138282Y0096796D01*
X0140251Y0096796D02*
X0140251Y0109124D01*
X0133125Y0116250D01*
X0088125Y0116250D01*
X0044173Y0072298D01*
X0044173Y0010512D01*
X0041811Y0010512D02*
X0041811Y0073061D01*
X0086875Y0118125D01*
X0134375Y0118125D01*
X0142219Y0110281D01*
X0142219Y0096796D01*
X0144188Y0096796D02*
X0144188Y0111437D01*
X0135625Y0120000D01*
X0085625Y0120000D01*
X0039449Y0073824D01*
X0039449Y0010512D01*
X0037087Y0010512D02*
X0037087Y0074587D01*
X0084375Y0121875D01*
X0136875Y0121875D01*
X0146156Y0112594D01*
X0146156Y0096796D01*
X0148125Y0096796D02*
X0148125Y0113750D01*
X0138125Y0123750D01*
X0083125Y0123750D01*
X0034724Y0075349D01*
X0034724Y0010512D01*
X0032362Y0010512D02*
X0032362Y0076112D01*
X0081875Y0125625D01*
X0139375Y0125625D01*
X0152062Y0112938D01*
X0152062Y0096796D01*
X0150094Y0096796D02*
X0150093Y0096796D01*
X0150093Y0101333D01*
X0149916Y0101333D01*
X0149916Y0112552D01*
X0150271Y0112196D01*
X0150271Y0101333D01*
X0150094Y0101333D01*
X0150094Y0096796D01*
X0150093Y0097285D02*
X0150094Y0097285D01*
X0150093Y0096087D02*
X0150094Y0096087D01*
X0150093Y0094888D02*
X0150094Y0094888D01*
X0150093Y0093690D02*
X0150094Y0093690D01*
X0150093Y0092491D02*
X0150094Y0092491D01*
X0154031Y0096796D02*
X0154031Y0114094D01*
X0140625Y0127500D01*
X0080625Y0127500D01*
X0030000Y0076875D01*
X0030000Y0010512D01*
X0027638Y0010512D02*
X0027638Y0077638D01*
X0079375Y0129375D01*
X0141875Y0129375D01*
X0155999Y0115251D01*
X0155999Y0096796D01*
X0157968Y0096796D02*
X0157968Y0116407D01*
X0143125Y0131250D01*
X0078125Y0131250D01*
X0025276Y0078401D01*
X0025276Y0010512D01*
X0022913Y0010512D02*
X0022913Y0079163D01*
X0076875Y0133125D01*
X0144375Y0133125D01*
X0159936Y0117564D01*
X0159936Y0096796D01*
X0161905Y0096796D02*
X0161905Y0118720D01*
X0145625Y0135000D01*
X0075625Y0135000D01*
X0020551Y0079926D01*
X0020551Y0010512D01*
X0018189Y0010512D02*
X0018189Y0016314D01*
X0018750Y0016875D01*
X0018750Y0081250D01*
X0074375Y0136875D01*
X0146875Y0136875D01*
X0163873Y0119877D01*
X0163873Y0096796D01*
X0167632Y0101136D02*
X0167632Y0119836D01*
X0169956Y0117511D01*
X0169956Y0101333D01*
X0169779Y0101333D01*
X0169779Y0096796D01*
X0169779Y0092259D01*
X0170552Y0092259D01*
X0170905Y0092354D01*
X0171082Y0092456D01*
X0171174Y0092456D01*
X0170198Y0091480D01*
X0169601Y0091480D01*
X0169601Y0092259D01*
X0169778Y0092259D01*
X0169778Y0096796D01*
X0169779Y0096796D01*
X0169778Y0096796D01*
X0169778Y0101333D01*
X0169005Y0101333D01*
X0168652Y0101239D01*
X0168475Y0101136D01*
X0167632Y0101136D01*
X0167632Y0102079D02*
X0169956Y0102079D01*
X0169956Y0103278D02*
X0167632Y0103278D01*
X0167632Y0104476D02*
X0169956Y0104476D01*
X0169956Y0105675D02*
X0167632Y0105675D01*
X0167632Y0106873D02*
X0169956Y0106873D01*
X0169956Y0108072D02*
X0167632Y0108072D01*
X0167632Y0109270D02*
X0169956Y0109270D01*
X0169956Y0110469D02*
X0167632Y0110469D01*
X0167632Y0111668D02*
X0169956Y0111668D01*
X0169956Y0112866D02*
X0167632Y0112866D01*
X0167632Y0114065D02*
X0169956Y0114065D01*
X0169956Y0115263D02*
X0167632Y0115263D01*
X0167632Y0116462D02*
X0169956Y0116462D01*
X0169808Y0117660D02*
X0167632Y0117660D01*
X0167632Y0118859D02*
X0168609Y0118859D01*
X0171747Y0118253D02*
X0149375Y0140625D01*
X0167681Y0124851D02*
X0245186Y0124851D01*
X0245597Y0123653D02*
X0242878Y0123653D01*
X0242878Y0122454D02*
X0246037Y0122454D01*
X0245986Y0122519D02*
X0245986Y0122519D01*
X0246970Y0121256D02*
X0242878Y0121256D01*
X0242878Y0120057D02*
X0247903Y0120057D01*
X0249031Y0118859D02*
X0242878Y0118859D01*
X0242878Y0117660D02*
X0250865Y0117660D01*
X0252241Y0116761D02*
X0252241Y0116761D01*
X0253425Y0116462D02*
X0242878Y0116462D01*
X0242878Y0115263D02*
X0269361Y0115263D01*
X0269361Y0114065D02*
X0242878Y0114065D01*
X0256419Y0115703D02*
X0256419Y0115703D01*
X0260714Y0116059D02*
X0260714Y0116059D01*
X0261631Y0116462D02*
X0269361Y0116462D01*
X0269361Y0117660D02*
X0264363Y0117660D01*
X0265821Y0118859D02*
X0269361Y0118859D01*
X0269361Y0120057D02*
X0267123Y0120057D01*
X0268127Y0121256D02*
X0269361Y0121256D01*
X0269361Y0122454D02*
X0268775Y0122454D01*
X0244587Y0130844D02*
X0231338Y0130844D01*
X0231338Y0132042D02*
X0244978Y0132042D01*
X0245389Y0133241D02*
X0231222Y0133241D01*
X0227500Y0133241D02*
X0226300Y0133241D01*
X0226300Y0132042D02*
X0227500Y0132042D01*
X0227500Y0130844D02*
X0226300Y0130844D01*
X0222461Y0130844D02*
X0200039Y0130844D01*
X0200039Y0130708D02*
X0200039Y0132850D01*
X0199944Y0133203D01*
X0199762Y0133519D01*
X0199503Y0133778D01*
X0199187Y0133960D01*
X0198834Y0134055D01*
X0196200Y0134055D01*
X0196200Y0130708D01*
X0200039Y0130708D01*
X0200039Y0132042D02*
X0222461Y0132042D01*
X0222577Y0133241D02*
X0199923Y0133241D01*
X0196200Y0133241D02*
X0195000Y0133241D01*
X0195000Y0132042D02*
X0196200Y0132042D01*
X0196200Y0130844D02*
X0195000Y0130844D01*
X0195000Y0127248D02*
X0196200Y0127248D01*
X0200007Y0127248D02*
X0222493Y0127248D01*
X0222461Y0128447D02*
X0200039Y0128447D01*
X0199842Y0115263D02*
X0222658Y0115263D01*
X0226300Y0127248D02*
X0227500Y0127248D01*
X0252241Y0140739D02*
X0252241Y0140739D01*
X0206400Y0098750D02*
X0201300Y0103850D01*
X0201300Y0104325D01*
X0200000Y0105625D01*
X0195500Y0105625D01*
X0198183Y0103278D02*
X0199009Y0103278D01*
X0206400Y0098750D02*
X0212500Y0098750D01*
X0214375Y0096875D01*
X0214375Y0084875D01*
X0223500Y0084875D01*
X0223750Y0085125D01*
X0223563Y0081784D02*
X0221993Y0081784D01*
X0221640Y0081689D01*
X0221323Y0081507D01*
X0221065Y0081249D01*
X0220882Y0080932D01*
X0220788Y0080579D01*
X0220788Y0078812D01*
X0223563Y0078812D01*
X0223563Y0081784D01*
X0223563Y0081705D02*
X0223937Y0081705D01*
X0223937Y0080506D02*
X0223563Y0080506D01*
X0223563Y0079308D02*
X0223937Y0079308D01*
X0221697Y0081705D02*
X0216854Y0081705D01*
X0217140Y0082903D02*
X0220985Y0082903D01*
X0220788Y0080506D02*
X0217337Y0080506D01*
X0217337Y0079308D02*
X0220788Y0079308D01*
X0220788Y0078109D02*
X0217337Y0078109D01*
X0217335Y0076911D02*
X0220788Y0076911D01*
X0221377Y0075712D02*
X0193166Y0075712D01*
X0192915Y0074514D02*
X0220985Y0074514D01*
X0220985Y0073315D02*
X0192778Y0073315D01*
X0193166Y0072117D02*
X0220985Y0072117D01*
X0220985Y0070918D02*
X0192979Y0070918D01*
X0192060Y0069720D02*
X0221625Y0069720D01*
X0225214Y0066875D02*
X0225312Y0066877D01*
X0225410Y0066883D01*
X0225508Y0066892D01*
X0225605Y0066906D01*
X0225702Y0066923D01*
X0225798Y0066944D01*
X0225893Y0066969D01*
X0225987Y0066997D01*
X0226079Y0067030D01*
X0226171Y0067065D01*
X0226261Y0067105D01*
X0226349Y0067147D01*
X0226436Y0067194D01*
X0226520Y0067243D01*
X0226603Y0067296D01*
X0226683Y0067352D01*
X0226762Y0067412D01*
X0226838Y0067474D01*
X0226911Y0067539D01*
X0226982Y0067607D01*
X0225214Y0066875D02*
X0178046Y0066875D01*
X0178046Y0064906D02*
X0237500Y0064906D01*
X0237598Y0064908D01*
X0237696Y0064914D01*
X0237794Y0064923D01*
X0237891Y0064937D01*
X0237988Y0064954D01*
X0238084Y0064975D01*
X0238179Y0065000D01*
X0238273Y0065028D01*
X0238365Y0065061D01*
X0238457Y0065096D01*
X0238547Y0065136D01*
X0238635Y0065178D01*
X0238722Y0065225D01*
X0238806Y0065274D01*
X0238889Y0065327D01*
X0238969Y0065383D01*
X0239048Y0065443D01*
X0239124Y0065505D01*
X0239197Y0065570D01*
X0239268Y0065638D01*
X0239336Y0065709D01*
X0239401Y0065782D01*
X0239463Y0065858D01*
X0239523Y0065937D01*
X0239579Y0066017D01*
X0239632Y0066100D01*
X0239681Y0066184D01*
X0239728Y0066271D01*
X0239770Y0066359D01*
X0239810Y0066449D01*
X0239845Y0066541D01*
X0239878Y0066633D01*
X0239906Y0066727D01*
X0239931Y0066822D01*
X0239952Y0066918D01*
X0239969Y0067015D01*
X0239983Y0067112D01*
X0239992Y0067210D01*
X0239998Y0067308D01*
X0240000Y0067406D01*
X0238209Y0068521D02*
X0237104Y0068521D01*
X0237647Y0069720D02*
X0238209Y0069720D01*
X0238209Y0070918D02*
X0237647Y0070918D01*
X0237647Y0072117D02*
X0238209Y0072117D01*
X0238209Y0073315D02*
X0237647Y0073315D01*
X0237515Y0074514D02*
X0238209Y0074514D01*
X0237637Y0078109D02*
X0240577Y0078109D01*
X0241775Y0079308D02*
X0237647Y0079308D01*
X0237647Y0080506D02*
X0242353Y0080506D01*
X0242353Y0081705D02*
X0237647Y0081705D01*
X0237647Y0082903D02*
X0242353Y0082903D01*
X0243018Y0084102D02*
X0236982Y0084102D01*
X0244443Y0076911D02*
X0250557Y0076911D01*
X0253224Y0079308D02*
X0256063Y0079308D01*
X0256063Y0079437D02*
X0253288Y0079437D01*
X0253288Y0081204D01*
X0253382Y0081557D01*
X0253565Y0081874D01*
X0253823Y0082132D01*
X0254140Y0082314D01*
X0254493Y0082409D01*
X0256063Y0082409D01*
X0256063Y0079437D01*
X0256437Y0079437D02*
X0256437Y0082409D01*
X0258007Y0082409D01*
X0258360Y0082314D01*
X0258677Y0082132D01*
X0258935Y0081874D01*
X0259118Y0081557D01*
X0259212Y0081204D01*
X0259212Y0079437D01*
X0256437Y0079437D01*
X0256437Y0079308D02*
X0262552Y0079308D01*
X0261929Y0080387D02*
X0261929Y0080387D01*
X0261908Y0080506D02*
X0259212Y0080506D01*
X0259032Y0081705D02*
X0261697Y0081705D01*
X0263244Y0078109D02*
X0259212Y0078109D01*
X0259099Y0076911D02*
X0264260Y0076911D01*
X0265688Y0075712D02*
X0258818Y0075712D01*
X0259015Y0074514D02*
X0268262Y0074514D01*
X0269361Y0068521D02*
X0251671Y0068521D01*
X0246813Y0080778D02*
X0246715Y0080776D01*
X0246617Y0080770D01*
X0246519Y0080761D01*
X0246422Y0080747D01*
X0246325Y0080730D01*
X0246229Y0080709D01*
X0246134Y0080684D01*
X0246040Y0080656D01*
X0245948Y0080623D01*
X0245856Y0080588D01*
X0245766Y0080548D01*
X0245678Y0080506D01*
X0245591Y0080459D01*
X0245507Y0080410D01*
X0245424Y0080357D01*
X0245344Y0080301D01*
X0245265Y0080241D01*
X0245189Y0080179D01*
X0245116Y0080114D01*
X0245045Y0080046D01*
X0252214Y0080506D02*
X0253288Y0080506D01*
X0253468Y0081705D02*
X0252214Y0081705D01*
X0256063Y0081705D02*
X0256437Y0081705D01*
X0256437Y0080506D02*
X0256063Y0080506D01*
X0232133Y0071722D02*
X0232035Y0071720D01*
X0231937Y0071714D01*
X0231839Y0071705D01*
X0231742Y0071691D01*
X0231645Y0071674D01*
X0231549Y0071653D01*
X0231454Y0071628D01*
X0231360Y0071600D01*
X0231268Y0071567D01*
X0231176Y0071532D01*
X0231086Y0071492D01*
X0230998Y0071450D01*
X0230911Y0071403D01*
X0230827Y0071354D01*
X0230744Y0071301D01*
X0230664Y0071245D01*
X0230585Y0071185D01*
X0230509Y0071123D01*
X0230436Y0071058D01*
X0230365Y0070990D01*
X0226562Y0069720D02*
X0225875Y0069720D01*
X0214562Y0076911D02*
X0214188Y0076911D01*
X0214188Y0078109D02*
X0214562Y0078109D01*
X0209562Y0078109D02*
X0209188Y0078109D01*
X0209188Y0076911D02*
X0209562Y0076911D01*
X0204562Y0076911D02*
X0204188Y0076911D01*
X0204188Y0078109D02*
X0204562Y0078109D01*
X0199562Y0078109D02*
X0199188Y0078109D01*
X0199188Y0078688D02*
X0199188Y0075716D01*
X0197618Y0075716D01*
X0197265Y0075810D01*
X0196948Y0075993D01*
X0196690Y0076251D01*
X0196507Y0076568D01*
X0196413Y0076921D01*
X0196413Y0078688D01*
X0199188Y0078688D01*
X0199188Y0076911D02*
X0199562Y0076911D01*
X0196415Y0076911D02*
X0195219Y0076911D01*
X0195534Y0078109D02*
X0196413Y0078109D01*
X0196413Y0079308D02*
X0192562Y0079308D01*
X0192562Y0079562D02*
X0195534Y0079562D01*
X0195534Y0081132D01*
X0195439Y0081485D01*
X0195257Y0081802D01*
X0194999Y0082060D01*
X0194682Y0082243D01*
X0194329Y0082337D01*
X0192562Y0082337D01*
X0192562Y0079562D01*
X0192562Y0080506D02*
X0192188Y0080506D01*
X0192188Y0081705D02*
X0192562Y0081705D01*
X0195313Y0081705D02*
X0196896Y0081705D01*
X0196413Y0080506D02*
X0195534Y0080506D01*
X0189437Y0081705D02*
X0189075Y0081705D01*
X0186375Y0079375D02*
X0185686Y0078686D01*
X0178046Y0078686D01*
X0166747Y0078686D01*
X0166747Y0062938D01*
X0166875Y0058066D01*
X0166875Y0047500D01*
X0168750Y0047500D01*
X0171747Y0044503D01*
X0171747Y0036954D01*
X0171747Y0033253D01*
X0175125Y0029875D01*
X0175000Y0029875D01*
X0177765Y0030169D02*
X0181753Y0030169D01*
X0181753Y0031367D02*
X0177765Y0031367D01*
X0177765Y0032140D02*
X0177068Y0032837D01*
X0174695Y0032837D01*
X0173538Y0033995D01*
X0173538Y0045245D01*
X0169492Y0049291D01*
X0168666Y0049291D01*
X0168666Y0053367D01*
X0169186Y0052846D01*
X0170120Y0052459D01*
X0170633Y0052459D01*
X0171788Y0051305D01*
X0173706Y0051305D01*
X0173706Y0042169D01*
X0174404Y0041472D01*
X0177295Y0041472D01*
X0177305Y0041462D01*
X0181005Y0041462D01*
X0181753Y0040715D01*
X0181753Y0016427D01*
X0181181Y0016427D01*
X0180113Y0016427D01*
X0180000Y0016397D01*
X0179887Y0016427D01*
X0178819Y0016427D01*
X0178819Y0010512D01*
X0178819Y0010512D01*
X0181181Y0010512D01*
X0181181Y0016427D01*
X0181181Y0010512D01*
X0181181Y0010512D01*
X0181181Y0010512D01*
X0178908Y0010512D01*
X0178819Y0010512D01*
X0178819Y0010512D01*
X0178819Y0016427D01*
X0177750Y0016427D01*
X0177638Y0016397D01*
X0177525Y0016427D01*
X0176457Y0016427D01*
X0176457Y0010512D01*
X0178819Y0010512D01*
X0178819Y0010512D01*
X0176546Y0010512D01*
X0176457Y0010512D01*
X0176457Y0010512D01*
X0176457Y0010512D01*
X0176457Y0016427D01*
X0175388Y0016427D01*
X0175276Y0016397D01*
X0175163Y0016427D01*
X0174095Y0016427D01*
X0174095Y0010512D01*
X0176457Y0010512D01*
X0176457Y0010512D01*
X0174183Y0010512D01*
X0174095Y0010512D01*
X0174095Y0010512D01*
X0174094Y0010512D01*
X0174094Y0016427D01*
X0173523Y0016427D01*
X0173523Y0020716D01*
X0174813Y0020716D01*
X0174813Y0023688D01*
X0175187Y0023688D01*
X0175187Y0020716D01*
X0176757Y0020716D01*
X0177110Y0020810D01*
X0177427Y0020993D01*
X0177685Y0021251D01*
X0177868Y0021568D01*
X0177962Y0021921D01*
X0177962Y0023688D01*
X0175187Y0023688D01*
X0175187Y0024062D01*
X0177962Y0024062D01*
X0177962Y0025829D01*
X0177868Y0026182D01*
X0177685Y0026499D01*
X0177427Y0026757D01*
X0177110Y0026939D01*
X0177098Y0026943D01*
X0177765Y0027610D01*
X0177765Y0032140D01*
X0177339Y0032566D02*
X0181753Y0032566D01*
X0181753Y0033764D02*
X0173768Y0033764D01*
X0173538Y0034963D02*
X0181753Y0034963D01*
X0181753Y0036161D02*
X0173538Y0036161D01*
X0173538Y0037360D02*
X0181753Y0037360D01*
X0181753Y0038558D02*
X0173538Y0038558D01*
X0173538Y0039757D02*
X0181753Y0039757D01*
X0181512Y0040955D02*
X0173538Y0040955D01*
X0173538Y0042154D02*
X0173722Y0042154D01*
X0173706Y0043352D02*
X0173538Y0043352D01*
X0173538Y0044551D02*
X0173706Y0044551D01*
X0173706Y0045749D02*
X0173033Y0045749D01*
X0173706Y0046948D02*
X0171834Y0046948D01*
X0170636Y0048146D02*
X0173706Y0048146D01*
X0173706Y0049345D02*
X0168666Y0049345D01*
X0168666Y0050543D02*
X0173706Y0050543D01*
X0171351Y0051742D02*
X0168666Y0051742D01*
X0168666Y0052940D02*
X0169092Y0052940D01*
X0170625Y0055000D02*
X0172530Y0053095D01*
X0178046Y0053095D01*
X0178046Y0051127D02*
X0186373Y0051127D01*
X0192992Y0044508D01*
X0192992Y0010512D01*
X0190630Y0010512D02*
X0190630Y0043745D01*
X0185217Y0049158D01*
X0178046Y0049158D01*
X0178046Y0047190D02*
X0184060Y0047190D01*
X0188268Y0042982D01*
X0188268Y0010512D01*
X0185906Y0010512D02*
X0185906Y0042219D01*
X0182904Y0045221D01*
X0178046Y0045221D01*
X0178046Y0043253D02*
X0181747Y0043253D01*
X0183543Y0041457D01*
X0183543Y0010512D01*
X0181181Y0010993D02*
X0181181Y0010993D01*
X0181181Y0012191D02*
X0181181Y0012191D01*
X0181181Y0013390D02*
X0181181Y0013390D01*
X0181181Y0014588D02*
X0181181Y0014588D01*
X0181181Y0015787D02*
X0181181Y0015787D01*
X0181753Y0016985D02*
X0173523Y0016985D01*
X0173523Y0018184D02*
X0181753Y0018184D01*
X0181753Y0019382D02*
X0173523Y0019382D01*
X0173523Y0020581D02*
X0181753Y0020581D01*
X0181753Y0021779D02*
X0177924Y0021779D01*
X0177962Y0022978D02*
X0181753Y0022978D01*
X0181753Y0024176D02*
X0177962Y0024176D01*
X0177962Y0025375D02*
X0181753Y0025375D01*
X0181753Y0026573D02*
X0177610Y0026573D01*
X0177765Y0027772D02*
X0181753Y0027772D01*
X0181753Y0028970D02*
X0177765Y0028970D01*
X0171732Y0029518D02*
X0167810Y0033440D01*
X0167810Y0036954D01*
X0165842Y0036954D02*
X0165842Y0032283D01*
X0169370Y0028755D01*
X0169370Y0010512D01*
X0167008Y0010512D02*
X0167008Y0027992D01*
X0163873Y0031127D01*
X0163873Y0036954D01*
X0161905Y0036954D02*
X0161905Y0029970D01*
X0164646Y0027229D01*
X0164646Y0010512D01*
X0162283Y0010512D02*
X0162283Y0026467D01*
X0157968Y0030782D01*
X0157968Y0036954D01*
X0159936Y0036954D02*
X0159936Y0042564D01*
X0159375Y0043125D01*
X0157027Y0042154D02*
X0151884Y0042154D01*
X0151884Y0042523D02*
X0151291Y0043117D01*
X0151291Y0043630D01*
X0150904Y0044564D01*
X0150189Y0045279D01*
X0149255Y0045666D01*
X0148245Y0045666D01*
X0147311Y0045279D01*
X0146596Y0044564D01*
X0146209Y0043630D01*
X0146209Y0042620D01*
X0146596Y0041686D01*
X0146988Y0041294D01*
X0123419Y0041294D01*
X0122722Y0040596D01*
X0122722Y0037705D01*
X0122712Y0037695D01*
X0122712Y0030041D01*
X0122620Y0030041D01*
X0121686Y0029654D01*
X0120971Y0028939D01*
X0120584Y0028005D01*
X0120584Y0026995D01*
X0120971Y0026061D01*
X0121686Y0025346D01*
X0122620Y0024959D01*
X0123084Y0024959D01*
X0123084Y0024495D01*
X0123471Y0023561D01*
X0124186Y0022846D01*
X0125120Y0022459D01*
X0126130Y0022459D01*
X0126649Y0022674D01*
X0126649Y0016427D01*
X0125782Y0016427D01*
X0125669Y0016397D01*
X0125557Y0016427D01*
X0124488Y0016427D01*
X0123420Y0016427D01*
X0123307Y0016397D01*
X0123194Y0016427D01*
X0122126Y0016427D01*
X0122126Y0010512D01*
X0122126Y0010512D01*
X0122126Y0016427D01*
X0121057Y0016427D01*
X0120945Y0016397D01*
X0120832Y0016427D01*
X0119764Y0016427D01*
X0119764Y0010512D01*
X0122126Y0010512D01*
X0124488Y0010512D01*
X0124488Y0016427D01*
X0124488Y0010512D01*
X0124488Y0010512D01*
X0124488Y0010512D01*
X0122215Y0010512D01*
X0122126Y0010512D01*
X0122126Y0010512D01*
X0122126Y0010512D01*
X0119853Y0010512D01*
X0119764Y0010512D01*
X0119764Y0010512D01*
X0119764Y0010512D01*
X0119764Y0016427D01*
X0118695Y0016427D01*
X0118583Y0016397D01*
X0118470Y0016427D01*
X0117402Y0016427D01*
X0117402Y0010512D01*
X0119764Y0010512D01*
X0119764Y0010512D01*
X0117491Y0010512D01*
X0117402Y0010512D01*
X0117402Y0010512D01*
X0117402Y0010512D01*
X0117402Y0016427D01*
X0116830Y0016427D01*
X0116830Y0028827D01*
X0110994Y0034663D01*
X0112693Y0034663D01*
X0113390Y0035360D01*
X0113390Y0037858D01*
X0116791Y0041258D01*
X0116791Y0041462D01*
X0143370Y0041462D01*
X0147617Y0045709D01*
X0168008Y0045709D01*
X0169956Y0043761D01*
X0169956Y0041491D01*
X0169779Y0041491D01*
X0169779Y0036954D01*
X0169778Y0036954D01*
X0169778Y0041491D01*
X0169005Y0041491D01*
X0168652Y0041396D01*
X0168475Y0041294D01*
X0161727Y0041294D01*
X0161727Y0042163D01*
X0161916Y0042620D01*
X0161916Y0043630D01*
X0161529Y0044564D01*
X0160814Y0045279D01*
X0159880Y0045666D01*
X0158870Y0045666D01*
X0157936Y0045279D01*
X0157221Y0044564D01*
X0156834Y0043630D01*
X0156834Y0042620D01*
X0157221Y0041686D01*
X0157613Y0041294D01*
X0151884Y0041294D01*
X0151884Y0042523D01*
X0151291Y0043352D02*
X0156834Y0043352D01*
X0157216Y0044551D02*
X0150909Y0044551D01*
X0148750Y0043125D02*
X0150094Y0041781D01*
X0150094Y0036954D01*
X0152062Y0036954D02*
X0152062Y0027313D01*
X0155197Y0024178D01*
X0155197Y0010512D01*
X0157559Y0010512D02*
X0157559Y0024941D01*
X0154031Y0028469D01*
X0154031Y0036954D01*
X0155999Y0036954D02*
X0155999Y0029626D01*
X0159921Y0025704D01*
X0159921Y0010512D01*
X0152835Y0010512D02*
X0152835Y0023415D01*
X0148125Y0028125D01*
X0148125Y0036954D01*
X0146156Y0036954D02*
X0146156Y0026969D01*
X0150472Y0022653D01*
X0150472Y0010512D01*
X0148110Y0010512D02*
X0148110Y0021890D01*
X0144188Y0025812D01*
X0144188Y0036954D01*
X0142219Y0036954D02*
X0142219Y0024656D01*
X0145748Y0021127D01*
X0145748Y0010512D01*
X0143386Y0010512D02*
X0143386Y0020364D01*
X0140251Y0023499D01*
X0140251Y0036954D01*
X0138282Y0036954D02*
X0138282Y0022343D01*
X0141024Y0019601D01*
X0141024Y0010512D01*
X0138661Y0010512D02*
X0138661Y0018839D01*
X0136314Y0021186D01*
X0136314Y0036954D01*
X0134345Y0036954D02*
X0134345Y0020030D01*
X0136299Y0018076D01*
X0136299Y0010512D01*
X0133937Y0010512D02*
X0133937Y0017313D01*
X0132377Y0018873D01*
X0132377Y0036954D01*
X0130408Y0036954D02*
X0130408Y0017717D01*
X0131575Y0016550D01*
X0131575Y0010512D01*
X0129213Y0010512D02*
X0129213Y0015787D01*
X0128440Y0016560D01*
X0128440Y0036954D01*
X0126471Y0036954D02*
X0126471Y0025846D01*
X0125625Y0025000D01*
X0123216Y0024176D02*
X0116830Y0024176D01*
X0116830Y0022978D02*
X0124054Y0022978D01*
X0126649Y0021779D02*
X0116830Y0021779D01*
X0116830Y0020581D02*
X0126649Y0020581D01*
X0126649Y0019382D02*
X0116830Y0019382D01*
X0116830Y0018184D02*
X0126649Y0018184D01*
X0126649Y0016985D02*
X0116830Y0016985D01*
X0117402Y0015787D02*
X0117402Y0015787D01*
X0117402Y0014588D02*
X0117402Y0014588D01*
X0117402Y0013390D02*
X0117402Y0013390D01*
X0117402Y0012191D02*
X0117402Y0012191D01*
X0117402Y0010993D02*
X0117402Y0010993D01*
X0119764Y0010993D02*
X0119764Y0010993D01*
X0119764Y0012191D02*
X0119764Y0012191D01*
X0119764Y0013390D02*
X0119764Y0013390D01*
X0119764Y0014588D02*
X0119764Y0014588D01*
X0119764Y0015787D02*
X0119764Y0015787D01*
X0122126Y0015787D02*
X0122126Y0015787D01*
X0122126Y0014588D02*
X0122126Y0014588D01*
X0122126Y0013390D02*
X0122126Y0013390D01*
X0122126Y0012191D02*
X0122126Y0012191D01*
X0122126Y0010993D02*
X0122126Y0010993D01*
X0124488Y0010993D02*
X0124488Y0010993D01*
X0124488Y0010512D02*
X0126850Y0010512D01*
X0126850Y0010512D01*
X0124577Y0010512D01*
X0124488Y0010512D01*
X0124488Y0010512D01*
X0124488Y0012191D02*
X0124488Y0012191D01*
X0124488Y0013390D02*
X0124488Y0013390D01*
X0124488Y0014588D02*
X0124488Y0014588D01*
X0124488Y0015787D02*
X0124488Y0015787D01*
X0115039Y0010512D02*
X0115039Y0028086D01*
X0105000Y0038125D01*
X0105000Y0053750D01*
X0108282Y0057032D01*
X0118204Y0057032D01*
X0118204Y0055064D02*
X0126314Y0055064D01*
X0126875Y0055625D01*
X0128120Y0057734D02*
X0165084Y0057734D01*
X0165084Y0056536D02*
X0129247Y0056536D01*
X0131368Y0055337D02*
X0165084Y0055337D01*
X0165084Y0054139D02*
X0132372Y0054139D01*
X0132372Y0052940D02*
X0165084Y0052940D01*
X0165084Y0051742D02*
X0132011Y0051742D01*
X0132372Y0050543D02*
X0165084Y0050543D01*
X0165084Y0049345D02*
X0132300Y0049345D01*
X0131102Y0048146D02*
X0144989Y0048146D01*
X0143791Y0046948D02*
X0129137Y0046948D01*
X0127779Y0045749D02*
X0142592Y0045749D01*
X0142628Y0043253D02*
X0146875Y0047500D01*
X0166875Y0047500D01*
X0169167Y0044551D02*
X0161534Y0044551D01*
X0161916Y0043352D02*
X0169956Y0043352D01*
X0169956Y0042154D02*
X0161727Y0042154D01*
X0169778Y0040955D02*
X0169779Y0040955D01*
X0169778Y0039757D02*
X0169779Y0039757D01*
X0169778Y0038558D02*
X0169779Y0038558D01*
X0169778Y0037360D02*
X0169779Y0037360D01*
X0171732Y0029518D02*
X0171732Y0010512D01*
X0174094Y0010993D02*
X0174095Y0010993D01*
X0174094Y0012191D02*
X0174095Y0012191D01*
X0174094Y0013390D02*
X0174095Y0013390D01*
X0174094Y0014588D02*
X0174095Y0014588D01*
X0174094Y0015787D02*
X0174095Y0015787D01*
X0176457Y0015787D02*
X0176457Y0015787D01*
X0176457Y0014588D02*
X0176457Y0014588D01*
X0176457Y0013390D02*
X0176457Y0013390D01*
X0176457Y0012191D02*
X0176457Y0012191D01*
X0176457Y0010993D02*
X0176457Y0010993D01*
X0178819Y0010993D02*
X0178819Y0010993D01*
X0178819Y0012191D02*
X0178819Y0012191D01*
X0178819Y0013390D02*
X0178819Y0013390D01*
X0178819Y0014588D02*
X0178819Y0014588D01*
X0178819Y0015787D02*
X0178819Y0015787D01*
X0175187Y0021779D02*
X0174813Y0021779D01*
X0174813Y0022978D02*
X0175187Y0022978D01*
X0195354Y0010512D02*
X0195354Y0045271D01*
X0185561Y0055064D01*
X0178046Y0055064D01*
X0178046Y0057032D02*
X0197968Y0057032D01*
X0213750Y0041250D01*
X0213750Y0036875D01*
X0215000Y0035625D01*
X0211890Y0034360D02*
X0201250Y0045625D01*
X0198750Y0043125D02*
X0209528Y0031722D01*
X0209528Y0010512D01*
X0211890Y0010512D02*
X0211890Y0034360D01*
X0213680Y0031367D02*
X0214226Y0031367D01*
X0214272Y0030169D02*
X0213680Y0030169D01*
X0213680Y0028970D02*
X0214272Y0028970D01*
X0214664Y0027772D02*
X0213680Y0027772D01*
X0213680Y0021779D02*
X0217788Y0021779D01*
X0217788Y0020581D02*
X0213680Y0020581D01*
X0213680Y0019382D02*
X0257143Y0019382D01*
X0257143Y0018184D02*
X0213680Y0018184D01*
X0213680Y0016985D02*
X0257143Y0016985D01*
X0256772Y0015787D02*
X0256772Y0015787D01*
X0256772Y0014588D02*
X0256772Y0014588D01*
X0256772Y0013390D02*
X0256772Y0013390D01*
X0256772Y0012191D02*
X0256772Y0012191D01*
X0256772Y0010993D02*
X0256772Y0010993D01*
X0256772Y0010512D02*
X0256772Y0010512D01*
X0254410Y0010512D01*
X0254410Y0010512D01*
X0254498Y0010512D01*
X0256772Y0010512D01*
X0254409Y0010512D02*
X0254409Y0010512D01*
X0254409Y0010512D01*
X0252047Y0010512D01*
X0252047Y0010512D01*
X0252136Y0010512D01*
X0254409Y0010512D01*
X0254409Y0016427D01*
X0254409Y0010512D01*
X0254409Y0010993D02*
X0254409Y0010993D01*
X0254409Y0012191D02*
X0254409Y0012191D01*
X0254409Y0013390D02*
X0254409Y0013390D01*
X0254409Y0014588D02*
X0254409Y0014588D01*
X0254409Y0015787D02*
X0254409Y0015787D01*
X0252047Y0015787D02*
X0252047Y0015787D01*
X0252047Y0014588D02*
X0252047Y0014588D01*
X0252047Y0013390D02*
X0252047Y0013390D01*
X0252047Y0012191D02*
X0252047Y0012191D01*
X0252047Y0010993D02*
X0252047Y0010993D01*
X0249685Y0010993D02*
X0249685Y0010993D01*
X0249685Y0012191D02*
X0249685Y0012191D01*
X0249685Y0013390D02*
X0249685Y0013390D01*
X0249685Y0014588D02*
X0249685Y0014588D01*
X0249685Y0015787D02*
X0249685Y0015787D01*
X0247323Y0015787D02*
X0247323Y0015787D01*
X0247323Y0014588D02*
X0247323Y0014588D01*
X0247323Y0013390D02*
X0247323Y0013390D01*
X0247323Y0012191D02*
X0247323Y0012191D01*
X0247323Y0010993D02*
X0247323Y0010993D01*
X0244961Y0010993D02*
X0244961Y0010993D01*
X0244960Y0010512D02*
X0244960Y0010512D01*
X0242599Y0010512D01*
X0242599Y0010512D01*
X0242687Y0010512D01*
X0244960Y0010512D01*
X0244961Y0012191D02*
X0244961Y0012191D01*
X0244961Y0013390D02*
X0244961Y0013390D01*
X0244961Y0014588D02*
X0244961Y0014588D01*
X0244961Y0015787D02*
X0244961Y0015787D01*
X0242598Y0015787D02*
X0242598Y0015787D01*
X0242598Y0016427D02*
X0242598Y0010512D01*
X0242598Y0010512D01*
X0240236Y0010512D01*
X0240236Y0010512D01*
X0242509Y0010512D01*
X0242598Y0010512D01*
X0242598Y0010512D01*
X0242598Y0016427D01*
X0242598Y0014588D02*
X0242598Y0014588D01*
X0242598Y0013390D02*
X0242598Y0013390D01*
X0242598Y0012191D02*
X0242598Y0012191D01*
X0242598Y0010993D02*
X0242598Y0010993D01*
X0240236Y0010993D02*
X0240236Y0010993D01*
X0240236Y0012191D02*
X0240236Y0012191D01*
X0240236Y0013390D02*
X0240236Y0013390D01*
X0240236Y0014588D02*
X0240236Y0014588D01*
X0240236Y0015787D02*
X0240236Y0015787D01*
X0237874Y0015787D02*
X0237874Y0015787D01*
X0237874Y0014588D02*
X0237874Y0014588D01*
X0237874Y0013390D02*
X0237874Y0013390D01*
X0237874Y0012191D02*
X0237874Y0012191D01*
X0237874Y0010993D02*
X0237874Y0010993D01*
X0235512Y0010993D02*
X0235512Y0010993D01*
X0235512Y0012191D02*
X0235512Y0012191D01*
X0235512Y0013390D02*
X0235512Y0013390D01*
X0235512Y0014588D02*
X0235512Y0014588D01*
X0235512Y0015787D02*
X0235512Y0015787D01*
X0233150Y0015787D02*
X0233150Y0015787D01*
X0233150Y0014588D02*
X0233150Y0014588D01*
X0233150Y0013390D02*
X0233150Y0013390D01*
X0233150Y0012191D02*
X0233150Y0012191D01*
X0233150Y0010993D02*
X0233150Y0010993D01*
X0233149Y0010512D02*
X0233149Y0010512D01*
X0230788Y0010512D01*
X0230788Y0010512D01*
X0230876Y0010512D01*
X0233149Y0010512D01*
X0230787Y0010512D02*
X0230787Y0010512D01*
X0230787Y0010512D01*
X0228425Y0010512D01*
X0228425Y0010512D01*
X0228514Y0010512D01*
X0230787Y0010512D01*
X0230787Y0016427D01*
X0230787Y0010512D01*
X0230787Y0010993D02*
X0230787Y0010993D01*
X0230787Y0012191D02*
X0230787Y0012191D01*
X0230787Y0013390D02*
X0230787Y0013390D01*
X0230787Y0014588D02*
X0230787Y0014588D01*
X0230787Y0015787D02*
X0230787Y0015787D01*
X0228425Y0015787D02*
X0228425Y0015787D01*
X0228425Y0014588D02*
X0228425Y0014588D01*
X0228425Y0013390D02*
X0228425Y0013390D01*
X0228425Y0012191D02*
X0228425Y0012191D01*
X0228425Y0010993D02*
X0228425Y0010993D01*
X0226063Y0010993D02*
X0226063Y0010993D01*
X0226063Y0012191D02*
X0226063Y0012191D01*
X0226063Y0013390D02*
X0226063Y0013390D01*
X0226063Y0014588D02*
X0226063Y0014588D01*
X0226063Y0015787D02*
X0226063Y0015787D01*
X0223701Y0015787D02*
X0223701Y0015787D01*
X0223701Y0014588D02*
X0223701Y0014588D01*
X0223701Y0013390D02*
X0223701Y0013390D01*
X0223701Y0012191D02*
X0223701Y0012191D01*
X0223701Y0010993D02*
X0223701Y0010993D01*
X0221339Y0010993D02*
X0221339Y0010993D01*
X0221338Y0010512D02*
X0221338Y0010512D01*
X0218977Y0010512D01*
X0218977Y0010512D01*
X0219065Y0010512D01*
X0221338Y0010512D01*
X0221339Y0012191D02*
X0221339Y0012191D01*
X0221339Y0013390D02*
X0221339Y0013390D01*
X0221339Y0014588D02*
X0221339Y0014588D01*
X0221339Y0015787D02*
X0221339Y0015787D01*
X0218976Y0015787D02*
X0218976Y0015787D01*
X0218976Y0016427D02*
X0218976Y0010512D01*
X0218976Y0010512D01*
X0216614Y0010512D01*
X0216614Y0016427D01*
X0216614Y0010512D01*
X0216614Y0010512D01*
X0216614Y0010512D01*
X0214252Y0010512D01*
X0214252Y0010512D01*
X0214341Y0010512D01*
X0216614Y0010512D01*
X0216614Y0010512D01*
X0216703Y0010512D01*
X0218976Y0010512D01*
X0218976Y0010512D01*
X0218976Y0016427D01*
X0218976Y0014588D02*
X0218976Y0014588D01*
X0218976Y0013390D02*
X0218976Y0013390D01*
X0218976Y0012191D02*
X0218976Y0012191D01*
X0218976Y0010993D02*
X0218976Y0010993D01*
X0216614Y0010993D02*
X0216614Y0010993D01*
X0216614Y0012191D02*
X0216614Y0012191D01*
X0216614Y0013390D02*
X0216614Y0013390D01*
X0216614Y0014588D02*
X0216614Y0014588D01*
X0216614Y0015787D02*
X0216614Y0015787D01*
X0214252Y0015787D02*
X0214252Y0015787D01*
X0214252Y0014588D02*
X0214252Y0014588D01*
X0214252Y0013390D02*
X0214252Y0013390D01*
X0214252Y0012191D02*
X0214252Y0012191D01*
X0214252Y0010993D02*
X0214252Y0010993D01*
X0207165Y0010512D02*
X0207165Y0030335D01*
X0198125Y0039375D01*
X0198125Y0035625D02*
X0205000Y0028750D01*
X0205000Y0021250D01*
X0204803Y0021053D01*
X0204803Y0010512D01*
X0202441Y0010512D02*
X0202441Y0021816D01*
X0203125Y0022500D01*
X0203125Y0026875D01*
X0198125Y0031875D01*
X0198125Y0028125D02*
X0201250Y0025000D01*
X0201250Y0023750D01*
X0200079Y0022579D01*
X0200079Y0010512D01*
X0197717Y0010512D02*
X0197717Y0023967D01*
X0198125Y0024375D01*
X0220384Y0040625D02*
X0220384Y0048491D01*
X0220125Y0048750D01*
X0209375Y0048750D01*
X0199124Y0059001D01*
X0178046Y0059001D01*
X0178046Y0060969D02*
X0178046Y0060970D01*
X0178046Y0060969D01*
X0173509Y0060969D01*
X0173509Y0060196D01*
X0173604Y0059843D01*
X0173706Y0059666D01*
X0173706Y0054886D01*
X0173271Y0054886D01*
X0173166Y0054992D01*
X0173166Y0055505D01*
X0172779Y0056439D01*
X0172064Y0057154D01*
X0171130Y0057541D01*
X0170120Y0057541D01*
X0169186Y0057154D01*
X0168666Y0056633D01*
X0168666Y0057352D01*
X0168684Y0057372D01*
X0168666Y0058089D01*
X0168666Y0058808D01*
X0168646Y0058827D01*
X0168585Y0061147D01*
X0173509Y0061147D01*
X0173509Y0060970D01*
X0178046Y0060970D01*
X0182583Y0060970D01*
X0182583Y0061147D01*
X0204735Y0061147D01*
X0204735Y0059485D01*
X0205402Y0058818D01*
X0205390Y0058814D01*
X0205073Y0058632D01*
X0204815Y0058374D01*
X0204632Y0058057D01*
X0204538Y0057704D01*
X0204538Y0056119D01*
X0199866Y0060792D01*
X0198382Y0060792D01*
X0182583Y0060792D01*
X0182583Y0060969D01*
X0178046Y0060969D01*
X0178046Y0062938D02*
X0206312Y0062938D01*
X0207500Y0061750D01*
X0212500Y0061750D01*
X0214713Y0058933D02*
X0261287Y0058933D01*
X0261287Y0057734D02*
X0215454Y0057734D01*
X0215462Y0056536D02*
X0261287Y0056536D01*
X0261287Y0055337D02*
X0215462Y0055337D01*
X0215462Y0054139D02*
X0261287Y0054139D01*
X0261287Y0052940D02*
X0214999Y0052940D01*
X0212687Y0052940D02*
X0212313Y0052940D01*
X0212313Y0054139D02*
X0212687Y0054139D01*
X0212687Y0055337D02*
X0212313Y0055337D01*
X0210001Y0052940D02*
X0209999Y0052940D01*
X0208915Y0051742D02*
X0251804Y0051742D01*
X0251595Y0050543D02*
X0229274Y0050543D01*
X0229284Y0050507D02*
X0229189Y0050860D01*
X0229007Y0051177D01*
X0228749Y0051435D01*
X0228432Y0051618D01*
X0228079Y0051712D01*
X0226312Y0051712D01*
X0226312Y0048937D01*
X0229284Y0048937D01*
X0229284Y0050507D01*
X0229284Y0049345D02*
X0251595Y0049345D01*
X0251595Y0048146D02*
X0229284Y0048146D01*
X0229272Y0046948D02*
X0251838Y0046948D01*
X0231004Y0040955D02*
X0226496Y0040955D01*
X0226496Y0039757D02*
X0231004Y0039757D01*
X0226312Y0046948D02*
X0225938Y0046948D01*
X0225938Y0048146D02*
X0226312Y0048146D01*
X0226312Y0049345D02*
X0225938Y0049345D01*
X0225938Y0050543D02*
X0226312Y0050543D01*
X0217163Y0050543D02*
X0210114Y0050543D01*
X0204538Y0056536D02*
X0204121Y0056536D01*
X0204546Y0057734D02*
X0202923Y0057734D01*
X0201724Y0058933D02*
X0205287Y0058933D01*
X0204735Y0060132D02*
X0200526Y0060132D01*
X0189190Y0069720D02*
X0188310Y0069720D01*
X0186875Y0071875D02*
X0185969Y0072781D01*
X0178046Y0072781D01*
X0178046Y0074749D02*
X0187751Y0074749D01*
X0190625Y0071875D01*
X0190625Y0075625D02*
X0189625Y0076625D01*
X0182812Y0076563D01*
X0182657Y0076718D01*
X0178046Y0076718D01*
X0173509Y0080506D02*
X0168538Y0080506D01*
X0168538Y0081705D02*
X0173583Y0081705D01*
X0166747Y0084592D02*
X0166747Y0078686D01*
X0164956Y0078109D02*
X0122544Y0078109D01*
X0122544Y0076911D02*
X0164956Y0076911D01*
X0164956Y0075712D02*
X0122544Y0075712D01*
X0122544Y0074514D02*
X0164956Y0074514D01*
X0164956Y0073315D02*
X0122544Y0073315D01*
X0122544Y0072117D02*
X0164956Y0072117D01*
X0164956Y0070918D02*
X0122544Y0070918D01*
X0122544Y0069720D02*
X0164956Y0069720D01*
X0164956Y0068521D02*
X0122544Y0068521D01*
X0122544Y0067323D02*
X0164956Y0067323D01*
X0164956Y0066124D02*
X0122544Y0066124D01*
X0122544Y0064926D02*
X0164956Y0064926D01*
X0164956Y0063727D02*
X0122544Y0063727D01*
X0122544Y0062529D02*
X0164956Y0062529D01*
X0164998Y0061330D02*
X0122544Y0061330D01*
X0122544Y0060132D02*
X0165030Y0060132D01*
X0165061Y0058933D02*
X0122544Y0058933D01*
X0122544Y0057734D02*
X0125630Y0057734D01*
X0123750Y0052770D02*
X0130000Y0052770D01*
X0130000Y0053351D01*
X0130000Y0050980D02*
X0123125Y0050980D01*
X0122770Y0051127D02*
X0118204Y0051127D01*
X0118204Y0053095D02*
X0122965Y0053095D01*
X0123027Y0053093D01*
X0123089Y0053088D01*
X0123151Y0053079D01*
X0123212Y0053067D01*
X0123272Y0053052D01*
X0123332Y0053033D01*
X0123390Y0053011D01*
X0123447Y0052985D01*
X0123502Y0052956D01*
X0123556Y0052925D01*
X0123607Y0052890D01*
X0123657Y0052853D01*
X0123705Y0052813D01*
X0123750Y0052770D01*
X0123126Y0050980D02*
X0123093Y0051009D01*
X0123059Y0051036D01*
X0123022Y0051060D01*
X0122983Y0051080D01*
X0122942Y0051097D01*
X0122900Y0051110D01*
X0122857Y0051119D01*
X0122814Y0051125D01*
X0122770Y0051127D01*
X0125217Y0049158D02*
X0118204Y0049158D01*
X0118204Y0047190D02*
X0114685Y0047190D01*
X0113750Y0048125D01*
X0113750Y0053125D01*
X0113125Y0053750D01*
X0108875Y0053750D01*
X0110625Y0053625D01*
X0107860Y0052188D02*
X0107860Y0051360D01*
X0108527Y0050693D01*
X0108515Y0050689D01*
X0108198Y0050507D01*
X0107940Y0050249D01*
X0107757Y0049932D01*
X0107663Y0049579D01*
X0107663Y0047812D01*
X0110438Y0047812D01*
X0110438Y0047438D01*
X0110812Y0047438D01*
X0110812Y0043812D01*
X0110438Y0043812D01*
X0110438Y0043438D01*
X0107663Y0043438D01*
X0107663Y0041671D01*
X0107757Y0041318D01*
X0107940Y0041001D01*
X0108198Y0040743D01*
X0108515Y0040560D01*
X0108527Y0040557D01*
X0107860Y0039890D01*
X0107860Y0037798D01*
X0106791Y0038867D01*
X0106791Y0053008D01*
X0107045Y0053263D01*
X0107036Y0053138D01*
X0107084Y0053082D01*
X0107084Y0053008D01*
X0107564Y0052529D01*
X0107860Y0052188D01*
X0107860Y0051742D02*
X0106791Y0051742D01*
X0106791Y0052940D02*
X0107152Y0052940D01*
X0106791Y0050543D02*
X0108262Y0050543D01*
X0107663Y0049345D02*
X0106791Y0049345D01*
X0106791Y0048146D02*
X0107663Y0048146D01*
X0107663Y0047438D02*
X0107663Y0045671D01*
X0107675Y0045625D01*
X0107663Y0045579D01*
X0107663Y0043812D01*
X0110438Y0043812D01*
X0110438Y0046784D01*
X0110438Y0047438D01*
X0107663Y0047438D01*
X0107663Y0046948D02*
X0106791Y0046948D01*
X0106791Y0045749D02*
X0107663Y0045749D01*
X0107663Y0044551D02*
X0106791Y0044551D01*
X0106791Y0043352D02*
X0107663Y0043352D01*
X0107663Y0042154D02*
X0106791Y0042154D01*
X0106791Y0040955D02*
X0107986Y0040955D01*
X0107860Y0039757D02*
X0106791Y0039757D01*
X0107099Y0038558D02*
X0107860Y0038558D01*
X0110625Y0037625D02*
X0115000Y0042000D01*
X0115000Y0042500D01*
X0115753Y0043253D01*
X0118204Y0043253D01*
X0142628Y0043253D01*
X0144061Y0042154D02*
X0146402Y0042154D01*
X0146209Y0043352D02*
X0145260Y0043352D01*
X0146458Y0044551D02*
X0146591Y0044551D01*
X0130000Y0050399D02*
X0130000Y0050980D01*
X0126875Y0048125D02*
X0125217Y0049158D01*
X0124613Y0046948D02*
X0122544Y0046948D01*
X0122741Y0045749D02*
X0125971Y0045749D01*
X0123081Y0040955D02*
X0116488Y0040955D01*
X0115289Y0039757D02*
X0122722Y0039757D01*
X0122722Y0038558D02*
X0114091Y0038558D01*
X0113390Y0037360D02*
X0122712Y0037360D01*
X0122712Y0036161D02*
X0113390Y0036161D01*
X0112993Y0034963D02*
X0122712Y0034963D01*
X0122712Y0033764D02*
X0111893Y0033764D01*
X0113091Y0032566D02*
X0122712Y0032566D01*
X0122712Y0031367D02*
X0114290Y0031367D01*
X0115488Y0030169D02*
X0122712Y0030169D01*
X0121002Y0028970D02*
X0116687Y0028970D01*
X0116830Y0027772D02*
X0120584Y0027772D01*
X0120759Y0026573D02*
X0116830Y0026573D01*
X0116830Y0025375D02*
X0121657Y0025375D01*
X0123125Y0027500D02*
X0124503Y0028878D01*
X0124503Y0036954D01*
X0113864Y0043896D02*
X0113405Y0043438D01*
X0110812Y0043438D01*
X0110812Y0043812D01*
X0113587Y0043812D01*
X0113587Y0045579D01*
X0113575Y0045625D01*
X0113587Y0045671D01*
X0113587Y0045756D01*
X0113667Y0045676D01*
X0113667Y0045222D01*
X0118204Y0045222D01*
X0118204Y0045221D01*
X0113667Y0045221D01*
X0113667Y0044448D01*
X0113761Y0044095D01*
X0113864Y0043918D01*
X0113864Y0043896D01*
X0113667Y0044551D02*
X0113587Y0044551D01*
X0113587Y0045749D02*
X0113593Y0045749D01*
X0110812Y0045749D02*
X0110438Y0045749D01*
X0110438Y0044551D02*
X0110812Y0044551D01*
X0110812Y0046948D02*
X0110438Y0046948D01*
X0103125Y0055000D02*
X0107126Y0059001D01*
X0118204Y0059001D01*
X0118204Y0060969D02*
X0105969Y0060969D01*
X0101250Y0056250D01*
X0101250Y0035625D01*
X0110315Y0026560D01*
X0110315Y0010512D01*
X0112677Y0010512D02*
X0112677Y0027323D01*
X0103125Y0036875D01*
X0103125Y0055000D01*
X0099375Y0057500D02*
X0104813Y0062938D01*
X0118204Y0062938D01*
X0118204Y0064906D02*
X0103656Y0064906D01*
X0097500Y0058750D01*
X0097500Y0033125D01*
X0105591Y0025034D01*
X0105591Y0010512D01*
X0107953Y0010512D02*
X0107953Y0025797D01*
X0099375Y0034375D01*
X0099375Y0057500D01*
X0095625Y0060000D02*
X0102500Y0066875D01*
X0118204Y0066875D01*
X0118204Y0068844D02*
X0101344Y0068844D01*
X0093750Y0061250D01*
X0093750Y0030625D01*
X0100866Y0023509D01*
X0100866Y0010512D01*
X0098504Y0010512D02*
X0098504Y0022746D01*
X0091875Y0029375D01*
X0091875Y0062500D01*
X0100187Y0070812D01*
X0118204Y0070812D01*
X0118204Y0072781D02*
X0099031Y0072781D01*
X0090000Y0063750D01*
X0090000Y0028125D01*
X0096142Y0021983D01*
X0096142Y0010512D01*
X0093780Y0010512D02*
X0093780Y0021220D01*
X0088125Y0026875D01*
X0088125Y0065000D01*
X0097874Y0074749D01*
X0118204Y0074749D01*
X0118204Y0076718D02*
X0096718Y0076718D01*
X0086250Y0066250D01*
X0086250Y0025625D01*
X0091417Y0020458D01*
X0091417Y0010512D01*
X0089055Y0010512D02*
X0089055Y0019695D01*
X0084375Y0024375D01*
X0084375Y0067500D01*
X0095561Y0078686D01*
X0118204Y0078686D01*
X0118204Y0080655D02*
X0094405Y0080655D01*
X0082500Y0068750D01*
X0082500Y0023125D01*
X0086693Y0018932D01*
X0086693Y0010512D01*
X0084331Y0010512D02*
X0084331Y0018169D01*
X0080625Y0021875D01*
X0080625Y0070000D01*
X0093248Y0082623D01*
X0118204Y0082623D01*
X0118204Y0084592D02*
X0092092Y0084592D01*
X0078750Y0071250D01*
X0078750Y0020625D01*
X0081969Y0017406D01*
X0081969Y0010512D01*
X0079606Y0010512D02*
X0079606Y0016644D01*
X0076875Y0019375D01*
X0076875Y0072500D01*
X0090935Y0086560D01*
X0118204Y0086560D01*
X0118204Y0088529D02*
X0089779Y0088529D01*
X0075000Y0073750D01*
X0075000Y0018125D01*
X0077244Y0015881D01*
X0077244Y0010512D01*
X0075000Y0010630D02*
X0074882Y0010512D01*
X0074882Y0015118D01*
X0073125Y0016875D01*
X0073125Y0075000D01*
X0088622Y0090497D01*
X0118204Y0090497D01*
X0122544Y0090094D02*
X0123623Y0090094D01*
X0122712Y0091293D02*
X0122544Y0091293D01*
X0122712Y0092491D02*
X0085649Y0092491D01*
X0084450Y0091293D02*
X0086886Y0091293D01*
X0085687Y0090094D02*
X0083252Y0090094D01*
X0082053Y0088896D02*
X0084489Y0088896D01*
X0083290Y0087697D02*
X0080855Y0087697D01*
X0079656Y0086499D02*
X0082092Y0086499D01*
X0080893Y0085300D02*
X0078457Y0085300D01*
X0077259Y0084102D02*
X0079695Y0084102D01*
X0078496Y0082903D02*
X0076060Y0082903D01*
X0074862Y0081705D02*
X0077298Y0081705D01*
X0076099Y0080506D02*
X0073663Y0080506D01*
X0072465Y0079308D02*
X0074900Y0079308D01*
X0073702Y0078109D02*
X0071266Y0078109D01*
X0070068Y0076911D02*
X0072503Y0076911D01*
X0071334Y0075712D02*
X0068869Y0075712D01*
X0067671Y0074514D02*
X0071334Y0074514D01*
X0071334Y0073315D02*
X0066472Y0073315D01*
X0065274Y0072117D02*
X0071334Y0072117D01*
X0071334Y0070918D02*
X0064075Y0070918D01*
X0062877Y0069720D02*
X0071334Y0069720D01*
X0071334Y0068521D02*
X0061678Y0068521D01*
X0060480Y0067323D02*
X0071334Y0067323D01*
X0071334Y0066124D02*
X0060137Y0066124D01*
X0060137Y0064926D02*
X0071334Y0064926D01*
X0071334Y0063727D02*
X0060137Y0063727D01*
X0060137Y0062529D02*
X0071334Y0062529D01*
X0071334Y0061330D02*
X0060137Y0061330D01*
X0060137Y0060132D02*
X0071334Y0060132D01*
X0071334Y0058933D02*
X0060137Y0058933D01*
X0060137Y0057734D02*
X0071334Y0057734D01*
X0071334Y0056536D02*
X0060137Y0056536D01*
X0060137Y0055337D02*
X0071334Y0055337D01*
X0071334Y0054139D02*
X0060137Y0054139D01*
X0060137Y0052940D02*
X0071334Y0052940D01*
X0071334Y0051742D02*
X0060137Y0051742D01*
X0060137Y0050543D02*
X0071334Y0050543D01*
X0071334Y0049345D02*
X0060137Y0049345D01*
X0060137Y0048146D02*
X0071334Y0048146D01*
X0071334Y0046948D02*
X0060137Y0046948D01*
X0060137Y0045749D02*
X0071334Y0045749D01*
X0071334Y0044551D02*
X0060137Y0044551D01*
X0060137Y0043352D02*
X0071334Y0043352D01*
X0071334Y0042154D02*
X0060137Y0042154D01*
X0060137Y0040955D02*
X0071334Y0040955D01*
X0071334Y0039757D02*
X0060137Y0039757D01*
X0060137Y0038558D02*
X0071334Y0038558D01*
X0071334Y0037360D02*
X0060137Y0037360D01*
X0060137Y0036161D02*
X0071334Y0036161D01*
X0071334Y0034963D02*
X0060137Y0034963D01*
X0060137Y0033764D02*
X0071334Y0033764D01*
X0071334Y0032566D02*
X0060137Y0032566D01*
X0060137Y0031367D02*
X0071334Y0031367D01*
X0071334Y0030169D02*
X0060137Y0030169D01*
X0060137Y0028970D02*
X0071334Y0028970D01*
X0071334Y0027772D02*
X0060137Y0027772D01*
X0060137Y0026573D02*
X0071334Y0026573D01*
X0071334Y0025375D02*
X0060137Y0025375D01*
X0060137Y0024176D02*
X0071334Y0024176D01*
X0071334Y0022978D02*
X0060137Y0022978D01*
X0060137Y0021779D02*
X0060546Y0021779D01*
X0095625Y0031875D02*
X0095625Y0060000D01*
X0122544Y0079308D02*
X0164956Y0079308D01*
X0164956Y0080506D02*
X0122544Y0080506D01*
X0122544Y0081705D02*
X0164956Y0081705D01*
X0164956Y0082903D02*
X0122544Y0082903D01*
X0122544Y0084102D02*
X0164956Y0084102D01*
X0164668Y0085300D02*
X0122544Y0085300D01*
X0122544Y0086499D02*
X0163469Y0086499D01*
X0165625Y0086875D02*
X0163125Y0089375D01*
X0126875Y0089375D01*
X0126020Y0087697D02*
X0122544Y0087697D01*
X0122544Y0088896D02*
X0124822Y0088896D01*
X0149916Y0102079D02*
X0150271Y0102079D01*
X0150271Y0103278D02*
X0149916Y0103278D01*
X0149916Y0104476D02*
X0150271Y0104476D01*
X0150271Y0105675D02*
X0149916Y0105675D01*
X0149916Y0106873D02*
X0150271Y0106873D01*
X0150271Y0108072D02*
X0149916Y0108072D01*
X0149916Y0109270D02*
X0150271Y0109270D01*
X0150271Y0110469D02*
X0149916Y0110469D01*
X0149916Y0111668D02*
X0150271Y0111668D01*
X0150093Y0100881D02*
X0150094Y0100881D01*
X0150093Y0099682D02*
X0150094Y0099682D01*
X0150093Y0098484D02*
X0150094Y0098484D01*
X0169778Y0098484D02*
X0169779Y0098484D01*
X0169778Y0099682D02*
X0169779Y0099682D01*
X0169778Y0100881D02*
X0169779Y0100881D01*
X0173538Y0099682D02*
X0178400Y0099682D01*
X0177202Y0098484D02*
X0173538Y0098484D01*
X0173538Y0097285D02*
X0176003Y0097285D01*
X0174805Y0096087D02*
X0173538Y0096087D01*
X0173528Y0094888D02*
X0173606Y0094888D01*
X0171747Y0096796D02*
X0171747Y0118253D01*
X0173538Y0117660D02*
X0179622Y0117660D01*
X0179622Y0116462D02*
X0173538Y0116462D01*
X0173538Y0115263D02*
X0179622Y0115263D01*
X0179622Y0114065D02*
X0173538Y0114065D01*
X0173538Y0112866D02*
X0191359Y0112866D01*
X0191359Y0111668D02*
X0173538Y0111668D01*
X0173538Y0110469D02*
X0176876Y0110469D01*
X0176216Y0109270D02*
X0173538Y0109270D01*
X0173538Y0108072D02*
X0176281Y0108072D01*
X0177034Y0106873D02*
X0173538Y0106873D01*
X0173538Y0105675D02*
X0189313Y0105675D01*
X0189500Y0105625D02*
X0189875Y0105250D01*
X0190878Y0114065D02*
X0191359Y0114065D01*
X0191359Y0115263D02*
X0190878Y0115263D01*
X0179622Y0118859D02*
X0173538Y0118859D01*
X0172475Y0120057D02*
X0179622Y0120057D01*
X0179622Y0121256D02*
X0171277Y0121256D01*
X0170078Y0122454D02*
X0179622Y0122454D01*
X0179622Y0123653D02*
X0168880Y0123653D01*
X0169778Y0097285D02*
X0169779Y0097285D01*
X0169778Y0096087D02*
X0169779Y0096087D01*
X0169778Y0094888D02*
X0169779Y0094888D01*
X0169778Y0093690D02*
X0169779Y0093690D01*
X0169778Y0092491D02*
X0169779Y0092491D01*
X0178046Y0090497D02*
X0188622Y0090497D01*
X0190625Y0092500D01*
X0196250Y0092500D01*
X0200000Y0088750D01*
X0196250Y0088750D02*
X0194375Y0090625D01*
X0191875Y0090625D01*
X0189779Y0088529D01*
X0178046Y0088529D01*
X0178046Y0086560D02*
X0192185Y0086560D01*
X0193125Y0087500D01*
X0183675Y0081705D02*
X0182509Y0081705D01*
X0182583Y0080506D02*
X0183413Y0080506D01*
X0190000Y0076250D02*
X0190625Y0075625D01*
X0183750Y0070000D02*
X0182938Y0070812D01*
X0178046Y0070812D01*
X0178046Y0068844D02*
X0171344Y0068844D01*
X0171250Y0068750D01*
X0166747Y0062938D02*
X0178046Y0062938D01*
X0173527Y0060132D02*
X0168612Y0060132D01*
X0168643Y0058933D02*
X0173706Y0058933D01*
X0173706Y0057734D02*
X0168675Y0057734D01*
X0172682Y0056536D02*
X0173706Y0056536D01*
X0173706Y0055337D02*
X0173166Y0055337D01*
X0209375Y0084875D02*
X0214375Y0084875D01*
X0216583Y0087697D02*
X0221292Y0087697D01*
X0220985Y0088896D02*
X0219705Y0088896D01*
X0217795Y0088896D02*
X0216166Y0088896D01*
X0216166Y0090094D02*
X0216479Y0090094D01*
X0216209Y0091293D02*
X0216166Y0091293D01*
X0216166Y0092491D02*
X0216514Y0092491D01*
X0218750Y0091250D02*
X0223625Y0091250D01*
X0223750Y0091125D01*
X0201300Y0094950D02*
X0200000Y0096250D01*
X0183750Y0096250D01*
X0180000Y0093750D01*
X0103228Y0024272D02*
X0095625Y0031875D01*
X0103228Y0024272D02*
X0103228Y0010512D01*
X0015217Y0086499D02*
X0014318Y0086499D01*
X0014213Y0087093D02*
X0014213Y0087093D01*
X0014452Y0085735D01*
X0051317Y0122600D01*
X0050498Y0122939D01*
X0050227Y0123209D01*
X0046969Y0123209D01*
X0041449Y0117690D01*
X0041645Y0117494D01*
X0041645Y0116507D01*
X0038442Y0113304D01*
X0037499Y0113304D01*
X0037505Y0113293D01*
X0037600Y0112940D01*
X0037600Y0112575D01*
X0037505Y0112222D01*
X0037322Y0111906D01*
X0036073Y0110657D01*
X0034111Y0112619D01*
X0033846Y0112354D01*
X0035808Y0110391D01*
X0034559Y0109142D01*
X0034242Y0108959D01*
X0033889Y0108865D01*
X0033524Y0108865D01*
X0033171Y0108959D01*
X0032855Y0109142D01*
X0031745Y0110252D01*
X0033846Y0112354D01*
X0033581Y0112619D01*
X0031619Y0114581D01*
X0030369Y0113331D01*
X0030187Y0113015D01*
X0030092Y0112662D01*
X0030092Y0112297D01*
X0030187Y0111944D01*
X0030369Y0111628D01*
X0031480Y0110517D01*
X0033581Y0112619D01*
X0033846Y0112884D01*
X0031884Y0114846D01*
X0033133Y0116095D01*
X0033449Y0116278D01*
X0033802Y0116372D01*
X0034168Y0116372D01*
X0034521Y0116278D01*
X0034532Y0116271D01*
X0034532Y0117215D01*
X0037734Y0120418D01*
X0038721Y0120418D01*
X0038917Y0120222D01*
X0044437Y0125742D01*
X0045486Y0126791D01*
X0050227Y0126791D01*
X0050498Y0127061D01*
X0051391Y0127431D01*
X0052359Y0127431D01*
X0053252Y0127061D01*
X0053936Y0126377D01*
X0054275Y0125558D01*
X0057205Y0128487D01*
X0057143Y0128513D01*
X0056144Y0129513D01*
X0055603Y0130818D01*
X0055603Y0132232D01*
X0056144Y0133537D01*
X0057143Y0134537D01*
X0058449Y0135078D01*
X0059862Y0135078D01*
X0061168Y0134537D01*
X0062167Y0133537D01*
X0062193Y0133475D01*
X0069732Y0141014D01*
X0022936Y0141014D01*
X0025910Y0139710D01*
X0025910Y0139710D01*
X0029081Y0136791D01*
X0029081Y0136791D01*
X0031132Y0133001D01*
X0031132Y0133001D01*
X0031841Y0128750D01*
X0031841Y0128750D01*
X0031132Y0124499D01*
X0029081Y0120709D01*
X0025910Y0117790D01*
X0025910Y0117790D01*
X0021964Y0116059D01*
X0021964Y0116059D01*
X0017669Y0115703D01*
X0017669Y0115703D01*
X0013491Y0116761D01*
X0013491Y0116761D01*
X0009883Y0119118D01*
X0009883Y0119118D01*
X0007236Y0122519D01*
X0007236Y0122519D01*
X0006781Y0123846D01*
X0006781Y0093367D01*
X0009902Y0092231D01*
X0009902Y0092231D01*
X0012510Y0090042D01*
X0012510Y0090042D01*
X0014213Y0087093D01*
X0013864Y0087697D02*
X0016415Y0087697D01*
X0017614Y0088896D02*
X0013172Y0088896D01*
X0012448Y0090094D02*
X0018812Y0090094D01*
X0020011Y0091293D02*
X0011020Y0091293D01*
X0009186Y0092491D02*
X0021209Y0092491D01*
X0022408Y0093690D02*
X0006781Y0093690D01*
X0006781Y0094888D02*
X0023606Y0094888D01*
X0024805Y0096087D02*
X0006781Y0096087D01*
X0006781Y0097285D02*
X0026003Y0097285D01*
X0027202Y0098484D02*
X0006781Y0098484D01*
X0006781Y0099682D02*
X0028400Y0099682D01*
X0029599Y0100881D02*
X0006781Y0100881D01*
X0006781Y0102079D02*
X0030797Y0102079D01*
X0031996Y0103278D02*
X0006781Y0103278D01*
X0006781Y0104476D02*
X0033194Y0104476D01*
X0034393Y0105675D02*
X0006781Y0105675D01*
X0006781Y0106873D02*
X0035591Y0106873D01*
X0036790Y0108072D02*
X0006781Y0108072D01*
X0006781Y0109270D02*
X0032726Y0109270D01*
X0031961Y0110469D02*
X0006781Y0110469D01*
X0006781Y0111668D02*
X0030346Y0111668D01*
X0030147Y0112866D02*
X0006781Y0112866D01*
X0006781Y0114065D02*
X0031103Y0114065D01*
X0032135Y0114065D02*
X0032665Y0114065D01*
X0032301Y0115263D02*
X0006781Y0115263D01*
X0006781Y0116462D02*
X0014675Y0116462D01*
X0012115Y0117660D02*
X0006781Y0117660D01*
X0006781Y0118859D02*
X0010281Y0118859D01*
X0009153Y0120057D02*
X0006781Y0120057D01*
X0006781Y0121256D02*
X0008220Y0121256D01*
X0007287Y0122454D02*
X0006781Y0122454D01*
X0006781Y0123653D02*
X0006847Y0123653D01*
X0022881Y0116462D02*
X0034532Y0116462D01*
X0034976Y0117660D02*
X0025613Y0117660D01*
X0027071Y0118859D02*
X0036175Y0118859D01*
X0037373Y0120057D02*
X0028373Y0120057D01*
X0029377Y0121256D02*
X0039951Y0121256D01*
X0041149Y0122454D02*
X0030025Y0122454D01*
X0030674Y0123653D02*
X0042348Y0123653D01*
X0043546Y0124851D02*
X0031191Y0124851D01*
X0031391Y0126050D02*
X0044745Y0126050D01*
X0046227Y0125000D02*
X0051875Y0125000D01*
X0050950Y0127248D02*
X0031591Y0127248D01*
X0031791Y0128447D02*
X0045492Y0128447D01*
X0045332Y0128513D02*
X0046638Y0127972D01*
X0048051Y0127972D01*
X0049357Y0128513D01*
X0050356Y0129513D01*
X0050897Y0130818D01*
X0050897Y0132232D01*
X0050356Y0133537D01*
X0049357Y0134537D01*
X0048051Y0135078D01*
X0046638Y0135078D01*
X0045332Y0134537D01*
X0044333Y0133537D01*
X0043792Y0132232D01*
X0043792Y0130818D01*
X0044333Y0129513D01*
X0045332Y0128513D01*
X0044278Y0129645D02*
X0031692Y0129645D01*
X0031492Y0130844D02*
X0043792Y0130844D01*
X0043792Y0132042D02*
X0031292Y0132042D01*
X0031002Y0133241D02*
X0044210Y0133241D01*
X0045234Y0134439D02*
X0030354Y0134439D01*
X0029705Y0135638D02*
X0064356Y0135638D01*
X0065554Y0136836D02*
X0029032Y0136836D01*
X0027730Y0138035D02*
X0066753Y0138035D01*
X0067951Y0139233D02*
X0026428Y0139233D01*
X0024264Y0140432D02*
X0069150Y0140432D01*
X0063157Y0134439D02*
X0061266Y0134439D01*
X0057045Y0134439D02*
X0049455Y0134439D01*
X0050479Y0133241D02*
X0056021Y0133241D01*
X0055603Y0132042D02*
X0050897Y0132042D01*
X0050897Y0130844D02*
X0055603Y0130844D01*
X0056089Y0129645D02*
X0050411Y0129645D01*
X0049197Y0128447D02*
X0057164Y0128447D01*
X0055966Y0127248D02*
X0052800Y0127248D01*
X0054072Y0126050D02*
X0054767Y0126050D01*
X0051172Y0122454D02*
X0046214Y0122454D01*
X0045015Y0121256D02*
X0049973Y0121256D01*
X0048775Y0120057D02*
X0043816Y0120057D01*
X0042618Y0118859D02*
X0047576Y0118859D01*
X0046378Y0117660D02*
X0041479Y0117660D01*
X0041600Y0116462D02*
X0045179Y0116462D01*
X0043981Y0115263D02*
X0040401Y0115263D01*
X0039203Y0114065D02*
X0042782Y0114065D01*
X0041584Y0112866D02*
X0037600Y0112866D01*
X0037084Y0111668D02*
X0040385Y0111668D01*
X0039187Y0110469D02*
X0035730Y0110469D01*
X0035062Y0111668D02*
X0034532Y0111668D01*
X0033160Y0111668D02*
X0032630Y0111668D01*
X0033333Y0112866D02*
X0033828Y0112866D01*
X0034687Y0109270D02*
X0037988Y0109270D01*
X0038088Y0116861D02*
X0046227Y0125000D01*
X0263487Y0024176D02*
X0269361Y0024176D01*
X0269361Y0022978D02*
X0263487Y0022978D01*
X0263487Y0021779D02*
X0269361Y0021779D01*
X0269361Y0020581D02*
X0263487Y0020581D01*
X0263487Y0019382D02*
X0269361Y0019382D01*
X0269361Y0018184D02*
X0263487Y0018184D01*
X0263487Y0016985D02*
X0269361Y0016985D01*
X0269361Y0015787D02*
X0263487Y0015787D01*
X0263572Y0014588D02*
X0269361Y0014588D01*
X0269361Y0013390D02*
X0263572Y0013390D01*
X0263572Y0012191D02*
X0269361Y0012191D01*
X0269361Y0010993D02*
X0263572Y0010993D01*
X0263572Y0009794D02*
X0269361Y0009794D01*
X0269361Y0008596D02*
X0263572Y0008596D01*
X0263572Y0007397D02*
X0269361Y0007397D01*
D24*
X0226875Y0018125D03*
X0198125Y0024375D03*
X0198125Y0028125D03*
X0198125Y0031875D03*
X0198125Y0035625D03*
X0198125Y0039375D03*
X0198750Y0043125D03*
X0201250Y0045625D03*
X0226250Y0053125D03*
X0218750Y0070625D03*
X0218750Y0076250D03*
X0218750Y0081875D03*
X0211250Y0089375D03*
X0218750Y0091250D03*
X0200000Y0088750D03*
X0196250Y0088750D03*
X0193125Y0087500D03*
X0180000Y0093750D03*
X0168750Y0102500D03*
X0168750Y0108875D03*
X0176250Y0111875D03*
X0178750Y0108750D03*
X0183750Y0105625D03*
X0197500Y0100000D03*
X0190625Y0075625D03*
X0190625Y0071875D03*
X0186875Y0071875D03*
X0183750Y0070000D03*
X0171250Y0068750D03*
X0171875Y0060000D03*
X0170625Y0055000D03*
X0162500Y0044375D03*
X0159375Y0043125D03*
X0148750Y0043125D03*
X0126875Y0048125D03*
X0123750Y0046250D03*
X0118125Y0040000D03*
X0118125Y0036250D03*
X0119375Y0031250D03*
X0123125Y0027500D03*
X0125625Y0025000D03*
X0118750Y0019375D03*
X0175000Y0020000D03*
X0204375Y0071875D03*
X0209375Y0071875D03*
X0250625Y0049375D03*
X0260625Y0079375D03*
X0256250Y0083750D03*
X0118750Y0096875D03*
X0103750Y0096875D03*
X0103750Y0101475D03*
X0030500Y0109650D03*
D25*
X0107500Y0050625D03*
X0107500Y0040625D03*
X0126875Y0055625D03*
X0130000Y0053351D03*
X0130000Y0050399D03*
X0169375Y0042500D03*
X0150000Y0091875D03*
D26*
X0212500Y0061750D02*
X0262000Y0061750D01*
X0263278Y0060472D01*
X0263278Y0049375D01*
X0263750Y0048903D01*
X0263750Y0041137D01*
X0263750Y0030113D02*
X0259943Y0026307D01*
X0259943Y0010512D01*
X0261496Y0010512D01*
X0261496Y0027859D01*
X0263750Y0030113D01*
X0259943Y0026307D02*
X0259134Y0025497D01*
X0259134Y0010512D01*
D27*
X0051875Y0125000D03*
M02*
