%
M48
M72
T01C0.01181
T02C0.01500
T03C0.03543
T04C0.07300
%
T01
X126875Y55625
X130000Y53351
X130000Y50399
X107500Y50625
X107500Y40625
X169375Y42500
X150000Y91875
T02
X13750Y113750
X30000Y114375
X36250Y117500
X103750Y101875
X103750Y96875
X118750Y96875
X168750Y102500
X178750Y101875
X191250Y105000
X196250Y88750
X193125Y87500
X200000Y88750
X190625Y75625
X190625Y71875
X186875Y71875
X183750Y70000
X171875Y68750
X171875Y60000
X170625Y55000
X159375Y43125
X148750Y43125
X126875Y48125
X123750Y46250
X123125Y27500
X125625Y25000
X175000Y20000
X198125Y24375
X198125Y28125
X198125Y31875
X198125Y35625
X198125Y39375
X198750Y43125
X201250Y45625
X168750Y116875
X196250Y132500
X196875Y121250
T03
X21594Y131875
X33406Y131875
T04
X212750Y117500
X264750Y117500
M30
