G75*
%MOIN*%
%OFA0B0*%
%FSLAX25Y25*%
%IPPOS*%
%LPD*%
%AMOC8*
5,1,8,0,0,1.08239X$1,22.5*
%
%ADD10R,0.09465X0.09465*%
%ADD11R,0.03740X0.04134*%
%ADD12R,0.04134X0.03740*%
%ADD13R,0.07677X0.06890*%
%ADD14R,0.04528X0.03740*%
%ADD15R,0.03346X0.06496*%
%ADD16C,0.00000*%
%ADD17C,0.04134*%
%ADD18R,0.06890X0.01772*%
%ADD19R,0.01772X0.06890*%
%ADD20R,0.08071X0.04921*%
%ADD21R,0.24213X0.10433*%
%ADD22R,0.10433X0.04528*%
%ADD23R,0.02362X0.09646*%
%ADD24R,0.02791X0.05591*%
%ADD25R,0.05709X0.06693*%
%ADD26R,0.03071X0.03858*%
%ADD27C,0.03291*%
%ADD28C,0.02953*%
D10*
X0212750Y0117500D03*
X0264750Y0117500D03*
D11*
X0256250Y0079250D03*
X0256250Y0073250D03*
X0223750Y0072625D03*
X0223750Y0078625D03*
X0211875Y0078875D03*
X0206875Y0078875D03*
X0201875Y0078875D03*
X0196875Y0078875D03*
X0196875Y0084875D03*
X0201875Y0084875D03*
X0206875Y0084875D03*
X0211875Y0084875D03*
X0212500Y0061750D03*
X0207500Y0061750D03*
X0207500Y0055750D03*
X0212500Y0055750D03*
X0175000Y0029875D03*
X0175000Y0023875D03*
X0110625Y0037625D03*
X0110625Y0043625D03*
X0110625Y0047625D03*
X0110625Y0053625D03*
D12*
X0107625Y0096875D03*
X0107625Y0101875D03*
X0113625Y0101875D03*
X0113625Y0096875D03*
X0185125Y0100625D03*
X0191125Y0100625D03*
X0192375Y0079375D03*
X0186375Y0079375D03*
X0220125Y0048750D03*
X0226125Y0048750D03*
X0226750Y0022500D03*
X0220750Y0022500D03*
X0024250Y0113750D03*
X0018250Y0113750D03*
D13*
X0263750Y0041137D03*
X0263750Y0030113D03*
D14*
X0043839Y0127544D03*
X0043839Y0136206D03*
X0011161Y0136206D03*
X0011161Y0127544D03*
D15*
X0018642Y0123017D03*
X0024547Y0123017D03*
X0036358Y0123017D03*
D16*
X0005000Y0075866D02*
X0005000Y0005000D01*
X0067008Y0005000D01*
X0067008Y0018780D01*
X0067007Y0018780D02*
X0067009Y0018867D01*
X0067015Y0018954D01*
X0067024Y0019041D01*
X0067038Y0019127D01*
X0067055Y0019212D01*
X0067076Y0019297D01*
X0067101Y0019380D01*
X0067129Y0019463D01*
X0067161Y0019544D01*
X0067197Y0019623D01*
X0067236Y0019701D01*
X0067278Y0019777D01*
X0067324Y0019851D01*
X0067373Y0019923D01*
X0067425Y0019993D01*
X0067480Y0020060D01*
X0067538Y0020125D01*
X0067599Y0020188D01*
X0067663Y0020247D01*
X0067729Y0020304D01*
X0067798Y0020357D01*
X0067869Y0020408D01*
X0067942Y0020455D01*
X0068017Y0020500D01*
X0068094Y0020540D01*
X0068172Y0020578D01*
X0068253Y0020611D01*
X0068334Y0020642D01*
X0068417Y0020668D01*
X0068502Y0020691D01*
X0068587Y0020710D01*
X0068672Y0020725D01*
X0068759Y0020737D01*
X0068845Y0020745D01*
X0068932Y0020749D01*
X0069020Y0020749D01*
X0069107Y0020745D01*
X0069193Y0020737D01*
X0069280Y0020725D01*
X0069365Y0020710D01*
X0069450Y0020691D01*
X0069535Y0020668D01*
X0069618Y0020642D01*
X0069699Y0020611D01*
X0069780Y0020578D01*
X0069858Y0020540D01*
X0069935Y0020500D01*
X0070010Y0020455D01*
X0070083Y0020408D01*
X0070154Y0020357D01*
X0070223Y0020304D01*
X0070289Y0020247D01*
X0070353Y0020188D01*
X0070414Y0020125D01*
X0070472Y0020060D01*
X0070527Y0019993D01*
X0070579Y0019923D01*
X0070628Y0019851D01*
X0070674Y0019777D01*
X0070716Y0019701D01*
X0070755Y0019623D01*
X0070791Y0019544D01*
X0070823Y0019463D01*
X0070851Y0019380D01*
X0070876Y0019297D01*
X0070897Y0019212D01*
X0070914Y0019127D01*
X0070928Y0019041D01*
X0070937Y0018954D01*
X0070943Y0018867D01*
X0070945Y0018780D01*
X0070945Y0005000D01*
X0271142Y0005000D01*
X0271142Y0075866D01*
X0270950Y0075868D01*
X0270759Y0075875D01*
X0270567Y0075887D01*
X0270376Y0075903D01*
X0270186Y0075924D01*
X0269996Y0075950D01*
X0269806Y0075980D01*
X0269618Y0076015D01*
X0269430Y0076054D01*
X0269243Y0076098D01*
X0269058Y0076147D01*
X0268874Y0076200D01*
X0268691Y0076257D01*
X0268509Y0076319D01*
X0268329Y0076386D01*
X0268151Y0076456D01*
X0267974Y0076531D01*
X0267800Y0076611D01*
X0267627Y0076694D01*
X0267457Y0076782D01*
X0267288Y0076873D01*
X0267122Y0076969D01*
X0266959Y0077069D01*
X0266797Y0077173D01*
X0266639Y0077281D01*
X0266483Y0077392D01*
X0266330Y0077508D01*
X0266179Y0077627D01*
X0266032Y0077749D01*
X0265888Y0077876D01*
X0265746Y0078005D01*
X0265608Y0078138D01*
X0265473Y0078275D01*
X0265342Y0078415D01*
X0265214Y0078557D01*
X0265090Y0078703D01*
X0264969Y0078852D01*
X0264852Y0079004D01*
X0264738Y0079158D01*
X0264628Y0079316D01*
X0264523Y0079476D01*
X0264421Y0079638D01*
X0264323Y0079803D01*
X0264229Y0079970D01*
X0264139Y0080140D01*
X0264054Y0080311D01*
X0263972Y0080485D01*
X0263895Y0080660D01*
X0263822Y0080838D01*
X0263754Y0081017D01*
X0263690Y0081198D01*
X0263630Y0081380D01*
X0263575Y0081563D01*
X0263524Y0081748D01*
X0263478Y0081934D01*
X0263436Y0082122D01*
X0263399Y0082310D01*
X0263366Y0082499D01*
X0263339Y0082688D01*
X0263315Y0082879D01*
X0263297Y0083070D01*
X0263283Y0083261D01*
X0263273Y0083452D01*
X0263269Y0083644D01*
X0263269Y0083836D01*
X0263273Y0084028D01*
X0263283Y0084219D01*
X0263297Y0084410D01*
X0263315Y0084601D01*
X0263339Y0084792D01*
X0263366Y0084981D01*
X0263399Y0085170D01*
X0263436Y0085358D01*
X0263478Y0085546D01*
X0263524Y0085732D01*
X0263575Y0085917D01*
X0263630Y0086100D01*
X0263690Y0086282D01*
X0263754Y0086463D01*
X0263822Y0086642D01*
X0263895Y0086820D01*
X0263972Y0086995D01*
X0264054Y0087169D01*
X0264139Y0087340D01*
X0264229Y0087510D01*
X0264323Y0087677D01*
X0264421Y0087842D01*
X0264523Y0088004D01*
X0264628Y0088164D01*
X0264738Y0088322D01*
X0264852Y0088476D01*
X0264969Y0088628D01*
X0265090Y0088777D01*
X0265214Y0088923D01*
X0265342Y0089065D01*
X0265473Y0089205D01*
X0265608Y0089342D01*
X0265746Y0089475D01*
X0265888Y0089604D01*
X0266032Y0089731D01*
X0266179Y0089853D01*
X0266330Y0089972D01*
X0266483Y0090088D01*
X0266639Y0090199D01*
X0266797Y0090307D01*
X0266959Y0090411D01*
X0267122Y0090511D01*
X0267288Y0090607D01*
X0267457Y0090698D01*
X0267627Y0090786D01*
X0267800Y0090869D01*
X0267974Y0090949D01*
X0268151Y0091024D01*
X0268329Y0091094D01*
X0268509Y0091161D01*
X0268691Y0091223D01*
X0268874Y0091280D01*
X0269058Y0091333D01*
X0269243Y0091382D01*
X0269430Y0091426D01*
X0269618Y0091465D01*
X0269806Y0091500D01*
X0269996Y0091530D01*
X0270186Y0091556D01*
X0270376Y0091577D01*
X0270567Y0091593D01*
X0270759Y0091605D01*
X0270950Y0091612D01*
X0271142Y0091614D01*
X0271142Y0142795D01*
X0005000Y0142795D01*
X0005000Y0091614D01*
X0005192Y0091612D01*
X0005383Y0091605D01*
X0005575Y0091593D01*
X0005766Y0091577D01*
X0005956Y0091556D01*
X0006146Y0091530D01*
X0006336Y0091500D01*
X0006524Y0091465D01*
X0006712Y0091426D01*
X0006899Y0091382D01*
X0007084Y0091333D01*
X0007268Y0091280D01*
X0007451Y0091223D01*
X0007633Y0091161D01*
X0007813Y0091094D01*
X0007991Y0091024D01*
X0008168Y0090949D01*
X0008342Y0090869D01*
X0008515Y0090786D01*
X0008685Y0090698D01*
X0008854Y0090607D01*
X0009020Y0090511D01*
X0009183Y0090411D01*
X0009345Y0090307D01*
X0009503Y0090199D01*
X0009659Y0090088D01*
X0009812Y0089972D01*
X0009963Y0089853D01*
X0010110Y0089731D01*
X0010254Y0089604D01*
X0010396Y0089475D01*
X0010534Y0089342D01*
X0010669Y0089205D01*
X0010800Y0089065D01*
X0010928Y0088923D01*
X0011052Y0088777D01*
X0011173Y0088628D01*
X0011290Y0088476D01*
X0011404Y0088322D01*
X0011514Y0088164D01*
X0011619Y0088004D01*
X0011721Y0087842D01*
X0011819Y0087677D01*
X0011913Y0087510D01*
X0012003Y0087340D01*
X0012088Y0087169D01*
X0012170Y0086995D01*
X0012247Y0086820D01*
X0012320Y0086642D01*
X0012388Y0086463D01*
X0012452Y0086282D01*
X0012512Y0086100D01*
X0012567Y0085917D01*
X0012618Y0085732D01*
X0012664Y0085546D01*
X0012706Y0085358D01*
X0012743Y0085170D01*
X0012776Y0084981D01*
X0012803Y0084792D01*
X0012827Y0084601D01*
X0012845Y0084410D01*
X0012859Y0084219D01*
X0012869Y0084028D01*
X0012873Y0083836D01*
X0012873Y0083644D01*
X0012869Y0083452D01*
X0012859Y0083261D01*
X0012845Y0083070D01*
X0012827Y0082879D01*
X0012803Y0082688D01*
X0012776Y0082499D01*
X0012743Y0082310D01*
X0012706Y0082122D01*
X0012664Y0081934D01*
X0012618Y0081748D01*
X0012567Y0081563D01*
X0012512Y0081380D01*
X0012452Y0081198D01*
X0012388Y0081017D01*
X0012320Y0080838D01*
X0012247Y0080660D01*
X0012170Y0080485D01*
X0012088Y0080311D01*
X0012003Y0080140D01*
X0011913Y0079970D01*
X0011819Y0079803D01*
X0011721Y0079638D01*
X0011619Y0079476D01*
X0011514Y0079316D01*
X0011404Y0079158D01*
X0011290Y0079004D01*
X0011173Y0078852D01*
X0011052Y0078703D01*
X0010928Y0078557D01*
X0010800Y0078415D01*
X0010669Y0078275D01*
X0010534Y0078138D01*
X0010396Y0078005D01*
X0010254Y0077876D01*
X0010110Y0077749D01*
X0009963Y0077627D01*
X0009812Y0077508D01*
X0009659Y0077392D01*
X0009503Y0077281D01*
X0009345Y0077173D01*
X0009183Y0077069D01*
X0009020Y0076969D01*
X0008854Y0076873D01*
X0008685Y0076782D01*
X0008515Y0076694D01*
X0008342Y0076611D01*
X0008168Y0076531D01*
X0007991Y0076456D01*
X0007813Y0076386D01*
X0007633Y0076319D01*
X0007451Y0076257D01*
X0007268Y0076200D01*
X0007084Y0076147D01*
X0006899Y0076098D01*
X0006712Y0076054D01*
X0006524Y0076015D01*
X0006336Y0075980D01*
X0006146Y0075950D01*
X0005956Y0075924D01*
X0005766Y0075903D01*
X0005575Y0075887D01*
X0005383Y0075875D01*
X0005192Y0075868D01*
X0005000Y0075866D01*
X0019822Y0131875D02*
X0019824Y0131959D01*
X0019830Y0132042D01*
X0019840Y0132125D01*
X0019854Y0132208D01*
X0019871Y0132290D01*
X0019893Y0132371D01*
X0019918Y0132450D01*
X0019947Y0132529D01*
X0019980Y0132606D01*
X0020016Y0132681D01*
X0020056Y0132755D01*
X0020099Y0132827D01*
X0020146Y0132896D01*
X0020196Y0132963D01*
X0020249Y0133028D01*
X0020305Y0133090D01*
X0020363Y0133150D01*
X0020425Y0133207D01*
X0020489Y0133260D01*
X0020556Y0133311D01*
X0020625Y0133358D01*
X0020696Y0133403D01*
X0020769Y0133443D01*
X0020844Y0133480D01*
X0020921Y0133514D01*
X0020999Y0133544D01*
X0021078Y0133570D01*
X0021159Y0133593D01*
X0021241Y0133611D01*
X0021323Y0133626D01*
X0021406Y0133637D01*
X0021489Y0133644D01*
X0021573Y0133647D01*
X0021657Y0133646D01*
X0021740Y0133641D01*
X0021824Y0133632D01*
X0021906Y0133619D01*
X0021988Y0133603D01*
X0022069Y0133582D01*
X0022150Y0133558D01*
X0022228Y0133530D01*
X0022306Y0133498D01*
X0022382Y0133462D01*
X0022456Y0133423D01*
X0022528Y0133381D01*
X0022598Y0133335D01*
X0022666Y0133286D01*
X0022731Y0133234D01*
X0022794Y0133179D01*
X0022854Y0133121D01*
X0022912Y0133060D01*
X0022966Y0132996D01*
X0023018Y0132930D01*
X0023066Y0132862D01*
X0023111Y0132791D01*
X0023152Y0132718D01*
X0023191Y0132644D01*
X0023225Y0132568D01*
X0023256Y0132490D01*
X0023283Y0132411D01*
X0023307Y0132330D01*
X0023326Y0132249D01*
X0023342Y0132167D01*
X0023354Y0132084D01*
X0023362Y0132000D01*
X0023366Y0131917D01*
X0023366Y0131833D01*
X0023362Y0131750D01*
X0023354Y0131666D01*
X0023342Y0131583D01*
X0023326Y0131501D01*
X0023307Y0131420D01*
X0023283Y0131339D01*
X0023256Y0131260D01*
X0023225Y0131182D01*
X0023191Y0131106D01*
X0023152Y0131032D01*
X0023111Y0130959D01*
X0023066Y0130888D01*
X0023018Y0130820D01*
X0022966Y0130754D01*
X0022912Y0130690D01*
X0022854Y0130629D01*
X0022794Y0130571D01*
X0022731Y0130516D01*
X0022666Y0130464D01*
X0022598Y0130415D01*
X0022528Y0130369D01*
X0022456Y0130327D01*
X0022382Y0130288D01*
X0022306Y0130252D01*
X0022228Y0130220D01*
X0022150Y0130192D01*
X0022069Y0130168D01*
X0021988Y0130147D01*
X0021906Y0130131D01*
X0021824Y0130118D01*
X0021740Y0130109D01*
X0021657Y0130104D01*
X0021573Y0130103D01*
X0021489Y0130106D01*
X0021406Y0130113D01*
X0021323Y0130124D01*
X0021241Y0130139D01*
X0021159Y0130157D01*
X0021078Y0130180D01*
X0020999Y0130206D01*
X0020921Y0130236D01*
X0020844Y0130270D01*
X0020769Y0130307D01*
X0020696Y0130347D01*
X0020625Y0130392D01*
X0020556Y0130439D01*
X0020489Y0130490D01*
X0020425Y0130543D01*
X0020363Y0130600D01*
X0020305Y0130660D01*
X0020249Y0130722D01*
X0020196Y0130787D01*
X0020146Y0130854D01*
X0020099Y0130923D01*
X0020056Y0130995D01*
X0020016Y0131069D01*
X0019980Y0131144D01*
X0019947Y0131221D01*
X0019918Y0131300D01*
X0019893Y0131379D01*
X0019871Y0131460D01*
X0019854Y0131542D01*
X0019840Y0131625D01*
X0019830Y0131708D01*
X0019824Y0131791D01*
X0019822Y0131875D01*
X0031634Y0131875D02*
X0031636Y0131959D01*
X0031642Y0132042D01*
X0031652Y0132125D01*
X0031666Y0132208D01*
X0031683Y0132290D01*
X0031705Y0132371D01*
X0031730Y0132450D01*
X0031759Y0132529D01*
X0031792Y0132606D01*
X0031828Y0132681D01*
X0031868Y0132755D01*
X0031911Y0132827D01*
X0031958Y0132896D01*
X0032008Y0132963D01*
X0032061Y0133028D01*
X0032117Y0133090D01*
X0032175Y0133150D01*
X0032237Y0133207D01*
X0032301Y0133260D01*
X0032368Y0133311D01*
X0032437Y0133358D01*
X0032508Y0133403D01*
X0032581Y0133443D01*
X0032656Y0133480D01*
X0032733Y0133514D01*
X0032811Y0133544D01*
X0032890Y0133570D01*
X0032971Y0133593D01*
X0033053Y0133611D01*
X0033135Y0133626D01*
X0033218Y0133637D01*
X0033301Y0133644D01*
X0033385Y0133647D01*
X0033469Y0133646D01*
X0033552Y0133641D01*
X0033636Y0133632D01*
X0033718Y0133619D01*
X0033800Y0133603D01*
X0033881Y0133582D01*
X0033962Y0133558D01*
X0034040Y0133530D01*
X0034118Y0133498D01*
X0034194Y0133462D01*
X0034268Y0133423D01*
X0034340Y0133381D01*
X0034410Y0133335D01*
X0034478Y0133286D01*
X0034543Y0133234D01*
X0034606Y0133179D01*
X0034666Y0133121D01*
X0034724Y0133060D01*
X0034778Y0132996D01*
X0034830Y0132930D01*
X0034878Y0132862D01*
X0034923Y0132791D01*
X0034964Y0132718D01*
X0035003Y0132644D01*
X0035037Y0132568D01*
X0035068Y0132490D01*
X0035095Y0132411D01*
X0035119Y0132330D01*
X0035138Y0132249D01*
X0035154Y0132167D01*
X0035166Y0132084D01*
X0035174Y0132000D01*
X0035178Y0131917D01*
X0035178Y0131833D01*
X0035174Y0131750D01*
X0035166Y0131666D01*
X0035154Y0131583D01*
X0035138Y0131501D01*
X0035119Y0131420D01*
X0035095Y0131339D01*
X0035068Y0131260D01*
X0035037Y0131182D01*
X0035003Y0131106D01*
X0034964Y0131032D01*
X0034923Y0130959D01*
X0034878Y0130888D01*
X0034830Y0130820D01*
X0034778Y0130754D01*
X0034724Y0130690D01*
X0034666Y0130629D01*
X0034606Y0130571D01*
X0034543Y0130516D01*
X0034478Y0130464D01*
X0034410Y0130415D01*
X0034340Y0130369D01*
X0034268Y0130327D01*
X0034194Y0130288D01*
X0034118Y0130252D01*
X0034040Y0130220D01*
X0033962Y0130192D01*
X0033881Y0130168D01*
X0033800Y0130147D01*
X0033718Y0130131D01*
X0033636Y0130118D01*
X0033552Y0130109D01*
X0033469Y0130104D01*
X0033385Y0130103D01*
X0033301Y0130106D01*
X0033218Y0130113D01*
X0033135Y0130124D01*
X0033053Y0130139D01*
X0032971Y0130157D01*
X0032890Y0130180D01*
X0032811Y0130206D01*
X0032733Y0130236D01*
X0032656Y0130270D01*
X0032581Y0130307D01*
X0032508Y0130347D01*
X0032437Y0130392D01*
X0032368Y0130439D01*
X0032301Y0130490D01*
X0032237Y0130543D01*
X0032175Y0130600D01*
X0032117Y0130660D01*
X0032061Y0130722D01*
X0032008Y0130787D01*
X0031958Y0130854D01*
X0031911Y0130923D01*
X0031868Y0130995D01*
X0031828Y0131069D01*
X0031792Y0131144D01*
X0031759Y0131221D01*
X0031730Y0131300D01*
X0031705Y0131379D01*
X0031683Y0131460D01*
X0031666Y0131542D01*
X0031652Y0131625D01*
X0031642Y0131708D01*
X0031636Y0131791D01*
X0031634Y0131875D01*
D17*
X0033406Y0131875D03*
X0021594Y0131875D03*
D18*
X0118204Y0090497D03*
X0118204Y0088529D03*
X0118204Y0086560D03*
X0118204Y0084592D03*
X0118204Y0082623D03*
X0118204Y0080655D03*
X0118204Y0078686D03*
X0118204Y0076718D03*
X0118204Y0074749D03*
X0118204Y0072781D03*
X0118204Y0070812D03*
X0118204Y0068844D03*
X0118204Y0066875D03*
X0118204Y0064906D03*
X0118204Y0062938D03*
X0118204Y0060969D03*
X0118204Y0059001D03*
X0118204Y0057032D03*
X0118204Y0055064D03*
X0118204Y0053095D03*
X0118204Y0051127D03*
X0118204Y0049158D03*
X0118204Y0047190D03*
X0118204Y0045221D03*
X0118204Y0043253D03*
X0178046Y0043253D03*
X0178046Y0045221D03*
X0178046Y0047190D03*
X0178046Y0049158D03*
X0178046Y0051127D03*
X0178046Y0053095D03*
X0178046Y0055064D03*
X0178046Y0057032D03*
X0178046Y0059001D03*
X0178046Y0060969D03*
X0178046Y0062938D03*
X0178046Y0064906D03*
X0178046Y0066875D03*
X0178046Y0068844D03*
X0178046Y0070812D03*
X0178046Y0072781D03*
X0178046Y0074749D03*
X0178046Y0076718D03*
X0178046Y0078686D03*
X0178046Y0080655D03*
X0178046Y0082623D03*
X0178046Y0084592D03*
X0178046Y0086560D03*
X0178046Y0088529D03*
X0178046Y0090497D03*
D19*
X0171747Y0096796D03*
X0169779Y0096796D03*
X0167810Y0096796D03*
X0165842Y0096796D03*
X0163873Y0096796D03*
X0161905Y0096796D03*
X0159936Y0096796D03*
X0157968Y0096796D03*
X0155999Y0096796D03*
X0154031Y0096796D03*
X0152062Y0096796D03*
X0150094Y0096796D03*
X0148125Y0096796D03*
X0146156Y0096796D03*
X0144188Y0096796D03*
X0142219Y0096796D03*
X0140251Y0096796D03*
X0138282Y0096796D03*
X0136314Y0096796D03*
X0134345Y0096796D03*
X0132377Y0096796D03*
X0130408Y0096796D03*
X0128440Y0096796D03*
X0126471Y0096796D03*
X0124503Y0096796D03*
X0124503Y0036954D03*
X0126471Y0036954D03*
X0128440Y0036954D03*
X0130408Y0036954D03*
X0132377Y0036954D03*
X0134345Y0036954D03*
X0136314Y0036954D03*
X0138282Y0036954D03*
X0140251Y0036954D03*
X0142219Y0036954D03*
X0144188Y0036954D03*
X0146156Y0036954D03*
X0148125Y0036954D03*
X0150094Y0036954D03*
X0152062Y0036954D03*
X0154031Y0036954D03*
X0155999Y0036954D03*
X0157968Y0036954D03*
X0159936Y0036954D03*
X0161905Y0036954D03*
X0163873Y0036954D03*
X0165842Y0036954D03*
X0167810Y0036954D03*
X0169779Y0036954D03*
X0171747Y0036954D03*
D20*
X0232717Y0071722D03*
X0232717Y0080778D03*
X0247283Y0080778D03*
X0247283Y0071722D03*
D21*
X0244006Y0035625D03*
D22*
X0220384Y0030625D03*
X0220384Y0040625D03*
D23*
X0221339Y0010512D03*
X0223701Y0010512D03*
X0226063Y0010512D03*
X0228425Y0010512D03*
X0230787Y0010512D03*
X0233150Y0010512D03*
X0235512Y0010512D03*
X0237874Y0010512D03*
X0240236Y0010512D03*
X0242598Y0010512D03*
X0244961Y0010512D03*
X0247323Y0010512D03*
X0249685Y0010512D03*
X0252047Y0010512D03*
X0254409Y0010512D03*
X0256772Y0010512D03*
X0259134Y0010512D03*
X0261496Y0010512D03*
X0218976Y0010512D03*
X0216614Y0010512D03*
X0214252Y0010512D03*
X0211890Y0010512D03*
X0209528Y0010512D03*
X0207165Y0010512D03*
X0204803Y0010512D03*
X0202441Y0010512D03*
X0200079Y0010512D03*
X0197717Y0010512D03*
X0195354Y0010512D03*
X0192992Y0010512D03*
X0190630Y0010512D03*
X0188268Y0010512D03*
X0185906Y0010512D03*
X0183543Y0010512D03*
X0181181Y0010512D03*
X0178819Y0010512D03*
X0176457Y0010512D03*
X0174094Y0010512D03*
X0171732Y0010512D03*
X0169370Y0010512D03*
X0167008Y0010512D03*
X0164646Y0010512D03*
X0162283Y0010512D03*
X0159921Y0010512D03*
X0157559Y0010512D03*
X0155197Y0010512D03*
X0152835Y0010512D03*
X0150472Y0010512D03*
X0148110Y0010512D03*
X0145748Y0010512D03*
X0143386Y0010512D03*
X0141024Y0010512D03*
X0138661Y0010512D03*
X0136299Y0010512D03*
X0133937Y0010512D03*
X0131575Y0010512D03*
X0129213Y0010512D03*
X0126850Y0010512D03*
X0124488Y0010512D03*
X0122126Y0010512D03*
X0119764Y0010512D03*
X0117402Y0010512D03*
X0115039Y0010512D03*
X0112677Y0010512D03*
X0110315Y0010512D03*
X0107953Y0010512D03*
X0105591Y0010512D03*
X0103228Y0010512D03*
X0100866Y0010512D03*
X0098504Y0010512D03*
X0096142Y0010512D03*
X0093780Y0010512D03*
X0091417Y0010512D03*
X0089055Y0010512D03*
X0086693Y0010512D03*
X0084331Y0010512D03*
X0081969Y0010512D03*
X0079606Y0010512D03*
X0077244Y0010512D03*
X0074882Y0010512D03*
X0058346Y0010512D03*
X0055984Y0010512D03*
X0053622Y0010512D03*
X0051260Y0010512D03*
X0048898Y0010512D03*
X0046535Y0010512D03*
X0044173Y0010512D03*
X0041811Y0010512D03*
X0039449Y0010512D03*
X0037087Y0010512D03*
X0034724Y0010512D03*
X0032362Y0010512D03*
X0030000Y0010512D03*
X0027638Y0010512D03*
X0025276Y0010512D03*
X0022913Y0010512D03*
X0020551Y0010512D03*
X0018189Y0010512D03*
X0015827Y0010512D03*
X0013465Y0010512D03*
D24*
X0203800Y0126150D03*
X0207500Y0126150D03*
X0211200Y0126150D03*
X0211200Y0136350D03*
X0203800Y0136350D03*
D25*
X0196358Y0138150D03*
X0178642Y0138150D03*
X0178642Y0106850D03*
X0196358Y0106850D03*
D26*
X0254222Y0049375D03*
X0263278Y0049375D03*
D27*
X0201250Y0045625D03*
X0198750Y0043125D03*
X0198125Y0039375D03*
X0198125Y0035625D03*
X0198125Y0031875D03*
X0198125Y0028125D03*
X0198125Y0024375D03*
X0175000Y0020000D03*
X0159375Y0043125D03*
X0148750Y0043125D03*
X0126875Y0048125D03*
X0123750Y0046250D03*
X0123125Y0027500D03*
X0125625Y0025000D03*
X0170625Y0055000D03*
X0171875Y0060000D03*
X0171875Y0068750D03*
X0183750Y0070000D03*
X0186875Y0071875D03*
X0190625Y0071875D03*
X0190625Y0075625D03*
X0193125Y0087500D03*
X0196250Y0088750D03*
X0200000Y0088750D03*
X0191250Y0105000D03*
X0178750Y0101875D03*
X0168750Y0102500D03*
X0168750Y0116875D03*
X0196250Y0132500D03*
X0196875Y0121250D03*
X0118750Y0096875D03*
X0103750Y0096875D03*
X0103750Y0101875D03*
X0036250Y0117500D03*
X0030000Y0114375D03*
X0013750Y0113750D03*
D28*
X0107500Y0050625D03*
X0107500Y0040625D03*
X0126875Y0055625D03*
X0130000Y0053351D03*
X0130000Y0050399D03*
X0169375Y0042500D03*
X0150000Y0091875D03*
M02*
