%
M48
M72
T01C0.01181
T02C0.01500
T03C0.03543
T04C0.07300
T05C0.09843
%
T01
X150000Y91875
X126875Y55625
X130000Y53351
X130000Y50399
X107500Y50625
X107500Y40625
X169375Y42500
T02
X30500Y109650
X51250Y126250
X103750Y101475
X103750Y96875
X118750Y96875
X168750Y102500
X168750Y108875
X176250Y111875
X183750Y105000
X187500Y108750
X178750Y101875
X180000Y93750
X193125Y87500
X196250Y88750
X200000Y88750
X190625Y75625
X190625Y71875
X186875Y71875
X183750Y70000
X171250Y68750
X171875Y60000
X170625Y55000
X159375Y43125
X148750Y43125
X126875Y48125
X123750Y46250
X123125Y27500
X125625Y25000
X175000Y20000
X198125Y24375
X198125Y28125
X198125Y31875
X198125Y35625
X198125Y39375
X198750Y43125
X201250Y45625
T03
X47344Y134025
X59156Y134025
T04
X185250Y118750
X237250Y118750
T05
X18750Y128750
X257500Y128750
M30
