G75*
G70*
%OFA0B0*%
%FSLAX24Y24*%
%IPPOS*%
%LPD*%
%AMOC8*
5,1,8,0,0,1.08239X$1,22.5*
%
%ADD10C,0.0000*%
%ADD11C,0.0040*%
%ADD12C,0.0100*%
%ADD13C,0.0320*%
%ADD14C,0.0080*%
%ADD15R,0.0009X0.0018*%
%ADD16R,0.0009X0.0036*%
%ADD17R,0.0009X0.0054*%
%ADD18R,0.0009X0.0090*%
%ADD19R,0.0009X0.0117*%
%ADD20R,0.0009X0.0153*%
%ADD21R,0.0009X0.0189*%
%ADD22R,0.0009X0.0243*%
%ADD23R,0.0009X0.0279*%
%ADD24R,0.0009X0.0342*%
%ADD25R,0.0009X0.0387*%
%ADD26R,0.0009X0.0459*%
%ADD27R,0.0009X0.0522*%
%ADD28R,0.0009X0.0594*%
%ADD29R,0.0009X0.0675*%
%ADD30R,0.0009X0.0765*%
%ADD31R,0.0009X0.0846*%
%ADD32R,0.0009X0.0945*%
%ADD33R,0.0009X0.1053*%
%ADD34R,0.0009X0.1152*%
%ADD35R,0.0009X0.1278*%
%ADD36R,0.0009X0.1395*%
%ADD37R,0.0009X0.1530*%
%ADD38R,0.0009X0.1674*%
%ADD39R,0.0009X0.1818*%
%ADD40R,0.0009X0.1971*%
%ADD41R,0.0009X0.2142*%
%ADD42R,0.0009X0.2322*%
%ADD43R,0.0009X0.2511*%
%ADD44R,0.0009X0.2718*%
%ADD45R,0.0009X0.2925*%
%ADD46R,0.0009X0.3150*%
%ADD47R,0.0009X0.3402*%
%ADD48R,0.0009X0.3654*%
%ADD49R,0.0009X0.3933*%
%ADD50R,0.0009X0.4230*%
%ADD51R,0.0009X0.4563*%
%ADD52R,0.0009X0.4914*%
%ADD53R,0.0009X0.5301*%
%ADD54R,0.0009X0.5742*%
%ADD55R,0.0009X0.6246*%
%ADD56R,0.0009X0.6858*%
%ADD57R,0.0009X0.0180*%
%ADD58R,0.0009X0.0162*%
%ADD59R,0.0009X0.0369*%
%ADD60R,0.0009X0.0360*%
%ADD61R,0.0009X0.0171*%
%ADD62R,0.0009X0.0189*%
%ADD63R,0.0009X0.0252*%
%ADD64R,0.0009X0.0225*%
%ADD65R,0.0009X0.0144*%
%ADD66R,0.0009X0.1161*%
%ADD67R,0.0009X0.0378*%
%ADD68R,0.0009X0.0198*%
%ADD69R,0.0009X0.0306*%
%ADD70R,0.0009X0.0270*%
%ADD71R,0.0009X0.0351*%
%ADD72R,0.0009X0.1170*%
%ADD73R,0.0009X0.0369*%
%ADD74R,0.0009X0.0369*%
%ADD75R,0.0009X0.0180*%
%ADD76R,0.0009X0.0198*%
%ADD77R,0.0009X0.0387*%
%ADD78R,0.0009X0.0189*%
%ADD79R,0.0009X0.0162*%
%ADD80R,0.0009X0.0423*%
%ADD81R,0.0009X0.0207*%
%ADD82R,0.0009X0.1170*%
%ADD83R,0.0009X0.0441*%
%ADD84R,0.0009X0.0216*%
%ADD85R,0.0009X0.0387*%
%ADD86R,0.0009X0.0369*%
%ADD87R,0.0009X0.0477*%
%ADD88R,0.0009X0.0414*%
%ADD89R,0.0009X0.0495*%
%ADD90R,0.0009X0.0432*%
%ADD91R,0.0009X0.0513*%
%ADD92R,0.0009X0.0234*%
%ADD93R,0.0009X0.0450*%
%ADD94R,0.0009X0.0531*%
%ADD95R,0.0009X0.0468*%
%ADD96R,0.0009X0.0549*%
%ADD97R,0.0009X0.0486*%
%ADD98R,0.0009X0.0567*%
%ADD99R,0.0009X0.0252*%
%ADD100R,0.0009X0.0585*%
%ADD101R,0.0009X0.0261*%
%ADD102R,0.0009X0.0675*%
%ADD103R,0.0009X0.1161*%
%ADD104R,0.0009X0.0378*%
%ADD105R,0.0009X0.0594*%
%ADD106R,0.0009X0.0261*%
%ADD107R,0.0009X0.0684*%
%ADD108R,0.0009X0.0612*%
%ADD109R,0.0009X0.0684*%
%ADD110R,0.0009X0.0630*%
%ADD111R,0.0009X0.0693*%
%ADD112R,0.0009X0.0288*%
%ADD113R,0.0009X0.0333*%
%ADD114R,0.0009X0.0297*%
%ADD115R,0.0009X0.0171*%
%ADD116R,0.0009X0.0243*%
%ADD117R,0.0009X0.0297*%
%ADD118R,0.0009X0.0279*%
%ADD119R,0.0009X0.0234*%
%ADD120R,0.0009X0.0234*%
%ADD121R,0.0009X0.0315*%
%ADD122R,0.0009X0.0666*%
%ADD123R,0.0009X0.0657*%
%ADD124R,0.0009X0.0216*%
%ADD125R,0.0009X0.0324*%
%ADD126R,0.0009X0.0225*%
%ADD127R,0.0009X0.0648*%
%ADD128R,0.0009X0.0207*%
%ADD129R,0.0009X0.0639*%
%ADD130R,0.0009X0.0342*%
%ADD131R,0.0009X0.0621*%
%ADD132R,0.0009X0.0207*%
%ADD133R,0.0009X0.0351*%
%ADD134R,0.0009X0.0621*%
%ADD135R,0.0009X0.0603*%
%ADD136R,0.0009X0.0135*%
%ADD137R,0.0009X0.0342*%
%ADD138R,0.0009X0.0099*%
%ADD139R,0.0009X0.0576*%
%ADD140R,0.0009X0.0045*%
%ADD141R,0.0009X0.0396*%
%ADD142R,0.0009X0.0135*%
%ADD143R,0.0009X0.0009*%
%ADD144R,0.0009X0.0405*%
%ADD145R,0.0009X0.0567*%
%ADD146R,0.0009X0.0414*%
%ADD147R,0.0009X0.0162*%
%ADD148R,0.0009X0.0360*%
%ADD149R,0.0009X0.0144*%
%ADD150R,0.0009X0.0189*%
%ADD151R,0.0009X0.0036*%
%ADD152R,0.0009X0.0396*%
%ADD153R,0.0009X0.0027*%
%ADD154R,0.0009X0.0063*%
%ADD155R,0.0009X0.0108*%
%ADD156R,0.0009X0.0162*%
%ADD157R,0.0009X0.0342*%
%ADD158R,0.0009X0.0207*%
%ADD159R,0.0009X0.0324*%
%ADD160R,0.0009X0.0306*%
%ADD161R,0.0009X0.0315*%
%ADD162R,0.0009X0.0297*%
%ADD163R,0.0009X0.0612*%
%ADD164R,0.0009X0.0558*%
%ADD165R,0.0009X0.0531*%
%ADD166R,0.0009X0.0252*%
%ADD167R,0.0009X0.0513*%
%ADD168R,0.0009X0.0459*%
%ADD169R,0.0009X0.0450*%
%ADD170R,0.0009X0.0414*%
%ADD171R,0.0009X0.1215*%
%ADD172R,0.0009X0.1215*%
%ADD173R,0.0009X0.1206*%
%ADD174R,0.0009X0.1197*%
%ADD175R,0.0009X0.1179*%
%ADD176R,0.0009X0.1188*%
%ADD177R,0.0009X0.1188*%
%ADD178R,0.0009X0.1224*%
%ADD179R,0.0009X0.1260*%
%ADD180R,0.0009X0.1296*%
%ADD181R,0.0009X0.1305*%
%ADD182R,0.0009X0.1323*%
%ADD183R,0.0009X0.1332*%
%ADD184R,0.0009X0.1350*%
%ADD185R,0.0009X0.1368*%
%ADD186R,0.0009X0.1368*%
%ADD187R,0.0009X0.1386*%
%ADD188R,0.0009X0.1404*%
%ADD189R,0.0009X0.1413*%
%ADD190R,0.0009X0.1422*%
%ADD191R,0.0009X0.1422*%
%ADD192R,0.0009X0.1440*%
%ADD193R,0.0009X0.1449*%
%ADD194R,0.0009X0.1179*%
%ADD195R,0.0009X0.1458*%
%ADD196R,0.0009X0.1458*%
%ADD197R,0.0009X0.1467*%
%ADD198R,0.0009X0.1476*%
%ADD199R,0.0009X0.0144*%
%ADD200R,0.0009X0.1485*%
%ADD201R,0.0009X0.1494*%
%ADD202R,0.0009X0.0459*%
%ADD203R,0.0009X0.1179*%
%ADD204R,0.0009X0.0441*%
%ADD205R,0.0009X0.0432*%
%ADD206R,0.0009X0.0432*%
%ADD207R,0.0009X0.1179*%
%ADD208R,0.0009X0.0468*%
%ADD209R,0.0009X0.0486*%
%ADD210R,0.0009X0.0072*%
%ADD211R,0.0009X0.0054*%
%ADD212R,0.0009X0.0045*%
%ADD213R,0.0009X0.0054*%
%ADD214R,0.0009X0.0072*%
%ADD215R,0.0009X0.0324*%
%ADD216R,0.0009X0.0081*%
%ADD217R,0.0009X0.0081*%
%ADD218R,0.0009X0.0072*%
%ADD219R,0.0009X0.0027*%
%ADD220R,0.0009X0.0324*%
%ADD221R,0.0009X0.0279*%
%ADD222R,0.0009X0.0405*%
%ADD223R,0.0009X0.0027*%
%ADD224R,0.0009X0.0252*%
%ADD225R,0.0009X0.0063*%
%ADD226R,0.0009X0.0540*%
%ADD227R,0.0009X0.0558*%
%ADD228R,0.0009X0.0972*%
%ADD229R,0.0009X0.1008*%
%ADD230R,0.0009X0.1314*%
%ADD231R,0.0009X0.1314*%
%ADD232R,0.0009X0.1287*%
%ADD233R,0.0009X0.1260*%
%ADD234R,0.0009X0.1251*%
%ADD235R,0.0009X0.1242*%
%ADD236R,0.0009X0.1197*%
%ADD237R,0.0009X0.1152*%
%ADD238R,0.0009X0.1143*%
%ADD239R,0.0009X0.1116*%
%ADD240R,0.0009X0.1089*%
%ADD241R,0.0009X0.1062*%
%ADD242R,0.0009X0.1035*%
%ADD243R,0.0009X0.0999*%
%ADD244R,0.0009X0.0954*%
%ADD245R,0.0009X0.0909*%
%ADD246R,0.0009X0.0819*%
%ADD247C,0.0050*%
%ADD248C,0.0090*%
%ADD249R,0.0167X0.0128*%
%ADD250R,0.0138X0.0138*%
%ADD251C,0.0060*%
D10*
X000180Y000180D02*
X000180Y023175D01*
X053672Y023175D01*
X053672Y000180D01*
X000180Y000180D01*
X001214Y001805D02*
X001216Y001853D01*
X001222Y001901D01*
X001232Y001948D01*
X001245Y001994D01*
X001263Y002039D01*
X001283Y002083D01*
X001308Y002125D01*
X001336Y002164D01*
X001366Y002201D01*
X001400Y002235D01*
X001437Y002267D01*
X001475Y002296D01*
X001516Y002321D01*
X001559Y002343D01*
X001604Y002361D01*
X001650Y002375D01*
X001697Y002386D01*
X001745Y002393D01*
X001793Y002396D01*
X001841Y002395D01*
X001889Y002390D01*
X001937Y002381D01*
X001983Y002369D01*
X002028Y002352D01*
X002072Y002332D01*
X002114Y002309D01*
X002154Y002282D01*
X002192Y002252D01*
X002227Y002219D01*
X002259Y002183D01*
X002289Y002145D01*
X002315Y002104D01*
X002337Y002061D01*
X002357Y002017D01*
X002372Y001972D01*
X002384Y001925D01*
X002392Y001877D01*
X002396Y001829D01*
X002396Y001781D01*
X002392Y001733D01*
X002384Y001685D01*
X002372Y001638D01*
X002357Y001593D01*
X002337Y001549D01*
X002315Y001506D01*
X002289Y001465D01*
X002259Y001427D01*
X002227Y001391D01*
X002192Y001358D01*
X002154Y001328D01*
X002114Y001301D01*
X002072Y001278D01*
X002028Y001258D01*
X001983Y001241D01*
X001937Y001229D01*
X001889Y001220D01*
X001841Y001215D01*
X001793Y001214D01*
X001745Y001217D01*
X001697Y001224D01*
X001650Y001235D01*
X001604Y001249D01*
X001559Y001267D01*
X001516Y001289D01*
X001475Y001314D01*
X001437Y001343D01*
X001400Y001375D01*
X001366Y001409D01*
X001336Y001446D01*
X001308Y001485D01*
X001283Y001527D01*
X001263Y001571D01*
X001245Y001616D01*
X001232Y001662D01*
X001222Y001709D01*
X001216Y001757D01*
X001214Y001805D01*
X002687Y006801D02*
X002689Y006849D01*
X002695Y006897D01*
X002705Y006944D01*
X002718Y006990D01*
X002736Y007035D01*
X002756Y007079D01*
X002781Y007121D01*
X002809Y007160D01*
X002839Y007197D01*
X002873Y007231D01*
X002910Y007263D01*
X002948Y007292D01*
X002989Y007317D01*
X003032Y007339D01*
X003077Y007357D01*
X003123Y007371D01*
X003170Y007382D01*
X003218Y007389D01*
X003266Y007392D01*
X003314Y007391D01*
X003362Y007386D01*
X003410Y007377D01*
X003456Y007365D01*
X003501Y007348D01*
X003545Y007328D01*
X003587Y007305D01*
X003627Y007278D01*
X003665Y007248D01*
X003700Y007215D01*
X003732Y007179D01*
X003762Y007141D01*
X003788Y007100D01*
X003810Y007057D01*
X003830Y007013D01*
X003845Y006968D01*
X003857Y006921D01*
X003865Y006873D01*
X003869Y006825D01*
X003869Y006777D01*
X003865Y006729D01*
X003857Y006681D01*
X003845Y006634D01*
X003830Y006589D01*
X003810Y006545D01*
X003788Y006502D01*
X003762Y006461D01*
X003732Y006423D01*
X003700Y006387D01*
X003665Y006354D01*
X003627Y006324D01*
X003587Y006297D01*
X003545Y006274D01*
X003501Y006254D01*
X003456Y006237D01*
X003410Y006225D01*
X003362Y006216D01*
X003314Y006211D01*
X003266Y006210D01*
X003218Y006213D01*
X003170Y006220D01*
X003123Y006231D01*
X003077Y006245D01*
X003032Y006263D01*
X002989Y006285D01*
X002948Y006310D01*
X002910Y006339D01*
X002873Y006371D01*
X002839Y006405D01*
X002809Y006442D01*
X002781Y006481D01*
X002756Y006523D01*
X002736Y006567D01*
X002718Y006612D01*
X002705Y006658D01*
X002695Y006705D01*
X002689Y006753D01*
X002687Y006801D01*
X010145Y012864D02*
X010147Y012905D01*
X010153Y012946D01*
X010163Y012986D01*
X010176Y013025D01*
X010193Y013062D01*
X010214Y013098D01*
X010238Y013132D01*
X010265Y013163D01*
X010294Y013191D01*
X010327Y013217D01*
X010361Y013239D01*
X010398Y013258D01*
X010436Y013273D01*
X010476Y013285D01*
X010516Y013293D01*
X010557Y013297D01*
X010599Y013297D01*
X010640Y013293D01*
X010680Y013285D01*
X010720Y013273D01*
X010758Y013258D01*
X010794Y013239D01*
X010829Y013217D01*
X010862Y013191D01*
X010891Y013163D01*
X010918Y013132D01*
X010942Y013098D01*
X010963Y013062D01*
X010980Y013025D01*
X010993Y012986D01*
X011003Y012946D01*
X011009Y012905D01*
X011011Y012864D01*
X011009Y012823D01*
X011003Y012782D01*
X010993Y012742D01*
X010980Y012703D01*
X010963Y012666D01*
X010942Y012630D01*
X010918Y012596D01*
X010891Y012565D01*
X010862Y012537D01*
X010829Y012511D01*
X010795Y012489D01*
X010758Y012470D01*
X010720Y012455D01*
X010680Y012443D01*
X010640Y012435D01*
X010599Y012431D01*
X010557Y012431D01*
X010516Y012435D01*
X010476Y012443D01*
X010436Y012455D01*
X010398Y012470D01*
X010362Y012489D01*
X010327Y012511D01*
X010294Y012537D01*
X010265Y012565D01*
X010238Y012596D01*
X010214Y012630D01*
X010193Y012666D01*
X010176Y012703D01*
X010163Y012742D01*
X010153Y012782D01*
X010147Y012823D01*
X010145Y012864D01*
X002687Y013809D02*
X002689Y013857D01*
X002695Y013905D01*
X002705Y013952D01*
X002718Y013998D01*
X002736Y014043D01*
X002756Y014087D01*
X002781Y014129D01*
X002809Y014168D01*
X002839Y014205D01*
X002873Y014239D01*
X002910Y014271D01*
X002948Y014300D01*
X002989Y014325D01*
X003032Y014347D01*
X003077Y014365D01*
X003123Y014379D01*
X003170Y014390D01*
X003218Y014397D01*
X003266Y014400D01*
X003314Y014399D01*
X003362Y014394D01*
X003410Y014385D01*
X003456Y014373D01*
X003501Y014356D01*
X003545Y014336D01*
X003587Y014313D01*
X003627Y014286D01*
X003665Y014256D01*
X003700Y014223D01*
X003732Y014187D01*
X003762Y014149D01*
X003788Y014108D01*
X003810Y014065D01*
X003830Y014021D01*
X003845Y013976D01*
X003857Y013929D01*
X003865Y013881D01*
X003869Y013833D01*
X003869Y013785D01*
X003865Y013737D01*
X003857Y013689D01*
X003845Y013642D01*
X003830Y013597D01*
X003810Y013553D01*
X003788Y013510D01*
X003762Y013469D01*
X003732Y013431D01*
X003700Y013395D01*
X003665Y013362D01*
X003627Y013332D01*
X003587Y013305D01*
X003545Y013282D01*
X003501Y013262D01*
X003456Y013245D01*
X003410Y013233D01*
X003362Y013224D01*
X003314Y013219D01*
X003266Y013218D01*
X003218Y013221D01*
X003170Y013228D01*
X003123Y013239D01*
X003077Y013253D01*
X003032Y013271D01*
X002989Y013293D01*
X002948Y013318D01*
X002910Y013347D01*
X002873Y013379D01*
X002839Y013413D01*
X002809Y013450D01*
X002781Y013489D01*
X002756Y013531D01*
X002736Y013575D01*
X002718Y013620D01*
X002705Y013666D01*
X002695Y013713D01*
X002689Y013761D01*
X002687Y013809D01*
X014436Y017805D02*
X014438Y017859D01*
X014444Y017913D01*
X014454Y017967D01*
X014468Y018019D01*
X014485Y018071D01*
X014506Y018121D01*
X014531Y018169D01*
X014560Y018216D01*
X014591Y018260D01*
X014626Y018301D01*
X014664Y018341D01*
X014704Y018377D01*
X014747Y018410D01*
X014792Y018440D01*
X014840Y018467D01*
X014889Y018490D01*
X014940Y018509D01*
X014992Y018525D01*
X015045Y018537D01*
X015099Y018545D01*
X015153Y018549D01*
X015207Y018549D01*
X015261Y018545D01*
X015315Y018537D01*
X015368Y018525D01*
X015420Y018509D01*
X015471Y018490D01*
X015520Y018467D01*
X015568Y018440D01*
X015613Y018410D01*
X015656Y018377D01*
X015696Y018341D01*
X015734Y018301D01*
X015769Y018260D01*
X015800Y018216D01*
X015829Y018169D01*
X015854Y018121D01*
X015875Y018071D01*
X015892Y018019D01*
X015906Y017967D01*
X015916Y017913D01*
X015922Y017859D01*
X015924Y017805D01*
X015922Y017751D01*
X015916Y017697D01*
X015906Y017643D01*
X015892Y017591D01*
X015875Y017539D01*
X015854Y017489D01*
X015829Y017441D01*
X015800Y017394D01*
X015769Y017350D01*
X015734Y017309D01*
X015696Y017269D01*
X015656Y017233D01*
X015613Y017200D01*
X015568Y017170D01*
X015520Y017143D01*
X015471Y017120D01*
X015420Y017101D01*
X015368Y017085D01*
X015315Y017073D01*
X015261Y017065D01*
X015207Y017061D01*
X015153Y017061D01*
X015099Y017065D01*
X015045Y017073D01*
X014992Y017085D01*
X014940Y017101D01*
X014889Y017120D01*
X014840Y017143D01*
X014792Y017170D01*
X014747Y017200D01*
X014704Y017233D01*
X014664Y017269D01*
X014626Y017309D01*
X014591Y017350D01*
X014560Y017394D01*
X014531Y017441D01*
X014506Y017489D01*
X014485Y017539D01*
X014468Y017591D01*
X014454Y017643D01*
X014444Y017697D01*
X014438Y017751D01*
X014436Y017805D01*
X021645Y012864D02*
X021647Y012905D01*
X021653Y012946D01*
X021663Y012986D01*
X021676Y013025D01*
X021693Y013062D01*
X021714Y013098D01*
X021738Y013132D01*
X021765Y013163D01*
X021794Y013191D01*
X021827Y013217D01*
X021861Y013239D01*
X021898Y013258D01*
X021936Y013273D01*
X021976Y013285D01*
X022016Y013293D01*
X022057Y013297D01*
X022099Y013297D01*
X022140Y013293D01*
X022180Y013285D01*
X022220Y013273D01*
X022258Y013258D01*
X022294Y013239D01*
X022329Y013217D01*
X022362Y013191D01*
X022391Y013163D01*
X022418Y013132D01*
X022442Y013098D01*
X022463Y013062D01*
X022480Y013025D01*
X022493Y012986D01*
X022503Y012946D01*
X022509Y012905D01*
X022511Y012864D01*
X022509Y012823D01*
X022503Y012782D01*
X022493Y012742D01*
X022480Y012703D01*
X022463Y012666D01*
X022442Y012630D01*
X022418Y012596D01*
X022391Y012565D01*
X022362Y012537D01*
X022329Y012511D01*
X022295Y012489D01*
X022258Y012470D01*
X022220Y012455D01*
X022180Y012443D01*
X022140Y012435D01*
X022099Y012431D01*
X022057Y012431D01*
X022016Y012435D01*
X021976Y012443D01*
X021936Y012455D01*
X021898Y012470D01*
X021862Y012489D01*
X021827Y012511D01*
X021794Y012537D01*
X021765Y012565D01*
X021738Y012596D01*
X021714Y012630D01*
X021693Y012666D01*
X021676Y012703D01*
X021663Y012742D01*
X021653Y012782D01*
X021647Y012823D01*
X021645Y012864D01*
X025936Y017805D02*
X025938Y017859D01*
X025944Y017913D01*
X025954Y017967D01*
X025968Y018019D01*
X025985Y018071D01*
X026006Y018121D01*
X026031Y018169D01*
X026060Y018216D01*
X026091Y018260D01*
X026126Y018301D01*
X026164Y018341D01*
X026204Y018377D01*
X026247Y018410D01*
X026292Y018440D01*
X026340Y018467D01*
X026389Y018490D01*
X026440Y018509D01*
X026492Y018525D01*
X026545Y018537D01*
X026599Y018545D01*
X026653Y018549D01*
X026707Y018549D01*
X026761Y018545D01*
X026815Y018537D01*
X026868Y018525D01*
X026920Y018509D01*
X026971Y018490D01*
X027020Y018467D01*
X027068Y018440D01*
X027113Y018410D01*
X027156Y018377D01*
X027196Y018341D01*
X027234Y018301D01*
X027269Y018260D01*
X027300Y018216D01*
X027329Y018169D01*
X027354Y018121D01*
X027375Y018071D01*
X027392Y018019D01*
X027406Y017967D01*
X027416Y017913D01*
X027422Y017859D01*
X027424Y017805D01*
X027422Y017751D01*
X027416Y017697D01*
X027406Y017643D01*
X027392Y017591D01*
X027375Y017539D01*
X027354Y017489D01*
X027329Y017441D01*
X027300Y017394D01*
X027269Y017350D01*
X027234Y017309D01*
X027196Y017269D01*
X027156Y017233D01*
X027113Y017200D01*
X027068Y017170D01*
X027020Y017143D01*
X026971Y017120D01*
X026920Y017101D01*
X026868Y017085D01*
X026815Y017073D01*
X026761Y017065D01*
X026707Y017061D01*
X026653Y017061D01*
X026599Y017065D01*
X026545Y017073D01*
X026492Y017085D01*
X026440Y017101D01*
X026389Y017120D01*
X026340Y017143D01*
X026292Y017170D01*
X026247Y017200D01*
X026204Y017233D01*
X026164Y017269D01*
X026126Y017309D01*
X026091Y017350D01*
X026060Y017394D01*
X026031Y017441D01*
X026006Y017489D01*
X025985Y017539D01*
X025968Y017591D01*
X025954Y017643D01*
X025944Y017697D01*
X025938Y017751D01*
X025936Y017805D01*
X033145Y012864D02*
X033147Y012905D01*
X033153Y012946D01*
X033163Y012986D01*
X033176Y013025D01*
X033193Y013062D01*
X033214Y013098D01*
X033238Y013132D01*
X033265Y013163D01*
X033294Y013191D01*
X033327Y013217D01*
X033361Y013239D01*
X033398Y013258D01*
X033436Y013273D01*
X033476Y013285D01*
X033516Y013293D01*
X033557Y013297D01*
X033599Y013297D01*
X033640Y013293D01*
X033680Y013285D01*
X033720Y013273D01*
X033758Y013258D01*
X033794Y013239D01*
X033829Y013217D01*
X033862Y013191D01*
X033891Y013163D01*
X033918Y013132D01*
X033942Y013098D01*
X033963Y013062D01*
X033980Y013025D01*
X033993Y012986D01*
X034003Y012946D01*
X034009Y012905D01*
X034011Y012864D01*
X034009Y012823D01*
X034003Y012782D01*
X033993Y012742D01*
X033980Y012703D01*
X033963Y012666D01*
X033942Y012630D01*
X033918Y012596D01*
X033891Y012565D01*
X033862Y012537D01*
X033829Y012511D01*
X033795Y012489D01*
X033758Y012470D01*
X033720Y012455D01*
X033680Y012443D01*
X033640Y012435D01*
X033599Y012431D01*
X033557Y012431D01*
X033516Y012435D01*
X033476Y012443D01*
X033436Y012455D01*
X033398Y012470D01*
X033362Y012489D01*
X033327Y012511D01*
X033294Y012537D01*
X033265Y012565D01*
X033238Y012596D01*
X033214Y012630D01*
X033193Y012666D01*
X033176Y012703D01*
X033163Y012742D01*
X033153Y012782D01*
X033147Y012823D01*
X033145Y012864D01*
X037436Y017805D02*
X037438Y017859D01*
X037444Y017913D01*
X037454Y017967D01*
X037468Y018019D01*
X037485Y018071D01*
X037506Y018121D01*
X037531Y018169D01*
X037560Y018216D01*
X037591Y018260D01*
X037626Y018301D01*
X037664Y018341D01*
X037704Y018377D01*
X037747Y018410D01*
X037792Y018440D01*
X037840Y018467D01*
X037889Y018490D01*
X037940Y018509D01*
X037992Y018525D01*
X038045Y018537D01*
X038099Y018545D01*
X038153Y018549D01*
X038207Y018549D01*
X038261Y018545D01*
X038315Y018537D01*
X038368Y018525D01*
X038420Y018509D01*
X038471Y018490D01*
X038520Y018467D01*
X038568Y018440D01*
X038613Y018410D01*
X038656Y018377D01*
X038696Y018341D01*
X038734Y018301D01*
X038769Y018260D01*
X038800Y018216D01*
X038829Y018169D01*
X038854Y018121D01*
X038875Y018071D01*
X038892Y018019D01*
X038906Y017967D01*
X038916Y017913D01*
X038922Y017859D01*
X038924Y017805D01*
X038922Y017751D01*
X038916Y017697D01*
X038906Y017643D01*
X038892Y017591D01*
X038875Y017539D01*
X038854Y017489D01*
X038829Y017441D01*
X038800Y017394D01*
X038769Y017350D01*
X038734Y017309D01*
X038696Y017269D01*
X038656Y017233D01*
X038613Y017200D01*
X038568Y017170D01*
X038520Y017143D01*
X038471Y017120D01*
X038420Y017101D01*
X038368Y017085D01*
X038315Y017073D01*
X038261Y017065D01*
X038207Y017061D01*
X038153Y017061D01*
X038099Y017065D01*
X038045Y017073D01*
X037992Y017085D01*
X037940Y017101D01*
X037889Y017120D01*
X037840Y017143D01*
X037792Y017170D01*
X037747Y017200D01*
X037704Y017233D01*
X037664Y017269D01*
X037626Y017309D01*
X037591Y017350D01*
X037560Y017394D01*
X037531Y017441D01*
X037506Y017489D01*
X037485Y017539D01*
X037468Y017591D01*
X037454Y017643D01*
X037444Y017697D01*
X037438Y017751D01*
X037436Y017805D01*
X044645Y012864D02*
X044647Y012905D01*
X044653Y012946D01*
X044663Y012986D01*
X044676Y013025D01*
X044693Y013062D01*
X044714Y013098D01*
X044738Y013132D01*
X044765Y013163D01*
X044794Y013191D01*
X044827Y013217D01*
X044861Y013239D01*
X044898Y013258D01*
X044936Y013273D01*
X044976Y013285D01*
X045016Y013293D01*
X045057Y013297D01*
X045099Y013297D01*
X045140Y013293D01*
X045180Y013285D01*
X045220Y013273D01*
X045258Y013258D01*
X045294Y013239D01*
X045329Y013217D01*
X045362Y013191D01*
X045391Y013163D01*
X045418Y013132D01*
X045442Y013098D01*
X045463Y013062D01*
X045480Y013025D01*
X045493Y012986D01*
X045503Y012946D01*
X045509Y012905D01*
X045511Y012864D01*
X045509Y012823D01*
X045503Y012782D01*
X045493Y012742D01*
X045480Y012703D01*
X045463Y012666D01*
X045442Y012630D01*
X045418Y012596D01*
X045391Y012565D01*
X045362Y012537D01*
X045329Y012511D01*
X045295Y012489D01*
X045258Y012470D01*
X045220Y012455D01*
X045180Y012443D01*
X045140Y012435D01*
X045099Y012431D01*
X045057Y012431D01*
X045016Y012435D01*
X044976Y012443D01*
X044936Y012455D01*
X044898Y012470D01*
X044862Y012489D01*
X044827Y012511D01*
X044794Y012537D01*
X044765Y012565D01*
X044738Y012596D01*
X044714Y012630D01*
X044693Y012666D01*
X044676Y012703D01*
X044663Y012742D01*
X044653Y012782D01*
X044647Y012823D01*
X044645Y012864D01*
X048936Y017805D02*
X048938Y017859D01*
X048944Y017913D01*
X048954Y017967D01*
X048968Y018019D01*
X048985Y018071D01*
X049006Y018121D01*
X049031Y018169D01*
X049060Y018216D01*
X049091Y018260D01*
X049126Y018301D01*
X049164Y018341D01*
X049204Y018377D01*
X049247Y018410D01*
X049292Y018440D01*
X049340Y018467D01*
X049389Y018490D01*
X049440Y018509D01*
X049492Y018525D01*
X049545Y018537D01*
X049599Y018545D01*
X049653Y018549D01*
X049707Y018549D01*
X049761Y018545D01*
X049815Y018537D01*
X049868Y018525D01*
X049920Y018509D01*
X049971Y018490D01*
X050020Y018467D01*
X050068Y018440D01*
X050113Y018410D01*
X050156Y018377D01*
X050196Y018341D01*
X050234Y018301D01*
X050269Y018260D01*
X050300Y018216D01*
X050329Y018169D01*
X050354Y018121D01*
X050375Y018071D01*
X050392Y018019D01*
X050406Y017967D01*
X050416Y017913D01*
X050422Y017859D01*
X050424Y017805D01*
X050422Y017751D01*
X050416Y017697D01*
X050406Y017643D01*
X050392Y017591D01*
X050375Y017539D01*
X050354Y017489D01*
X050329Y017441D01*
X050300Y017394D01*
X050269Y017350D01*
X050234Y017309D01*
X050196Y017269D01*
X050156Y017233D01*
X050113Y017200D01*
X050068Y017170D01*
X050020Y017143D01*
X049971Y017120D01*
X049920Y017101D01*
X049868Y017085D01*
X049815Y017073D01*
X049761Y017065D01*
X049707Y017061D01*
X049653Y017061D01*
X049599Y017065D01*
X049545Y017073D01*
X049492Y017085D01*
X049440Y017101D01*
X049389Y017120D01*
X049340Y017143D01*
X049292Y017170D01*
X049247Y017200D01*
X049204Y017233D01*
X049164Y017269D01*
X049126Y017309D01*
X049091Y017350D01*
X049060Y017394D01*
X049031Y017441D01*
X049006Y017489D01*
X048985Y017539D01*
X048968Y017591D01*
X048954Y017643D01*
X048944Y017697D01*
X048938Y017751D01*
X048936Y017805D01*
X051589Y021555D02*
X051591Y021603D01*
X051597Y021651D01*
X051607Y021698D01*
X051620Y021744D01*
X051638Y021789D01*
X051658Y021833D01*
X051683Y021875D01*
X051711Y021914D01*
X051741Y021951D01*
X051775Y021985D01*
X051812Y022017D01*
X051850Y022046D01*
X051891Y022071D01*
X051934Y022093D01*
X051979Y022111D01*
X052025Y022125D01*
X052072Y022136D01*
X052120Y022143D01*
X052168Y022146D01*
X052216Y022145D01*
X052264Y022140D01*
X052312Y022131D01*
X052358Y022119D01*
X052403Y022102D01*
X052447Y022082D01*
X052489Y022059D01*
X052529Y022032D01*
X052567Y022002D01*
X052602Y021969D01*
X052634Y021933D01*
X052664Y021895D01*
X052690Y021854D01*
X052712Y021811D01*
X052732Y021767D01*
X052747Y021722D01*
X052759Y021675D01*
X052767Y021627D01*
X052771Y021579D01*
X052771Y021531D01*
X052767Y021483D01*
X052759Y021435D01*
X052747Y021388D01*
X052732Y021343D01*
X052712Y021299D01*
X052690Y021256D01*
X052664Y021215D01*
X052634Y021177D01*
X052602Y021141D01*
X052567Y021108D01*
X052529Y021078D01*
X052489Y021051D01*
X052447Y021028D01*
X052403Y021008D01*
X052358Y020991D01*
X052312Y020979D01*
X052264Y020970D01*
X052216Y020965D01*
X052168Y020964D01*
X052120Y020967D01*
X052072Y020974D01*
X052025Y020985D01*
X051979Y020999D01*
X051934Y021017D01*
X051891Y021039D01*
X051850Y021064D01*
X051812Y021093D01*
X051775Y021125D01*
X051741Y021159D01*
X051711Y021196D01*
X051683Y021235D01*
X051658Y021277D01*
X051638Y021321D01*
X051620Y021366D01*
X051607Y021412D01*
X051597Y021459D01*
X051591Y021507D01*
X051589Y021555D01*
X050156Y007746D02*
X050158Y007787D01*
X050164Y007828D01*
X050174Y007868D01*
X050187Y007907D01*
X050204Y007944D01*
X050225Y007980D01*
X050249Y008014D01*
X050276Y008045D01*
X050305Y008073D01*
X050338Y008099D01*
X050372Y008121D01*
X050409Y008140D01*
X050447Y008155D01*
X050487Y008167D01*
X050527Y008175D01*
X050568Y008179D01*
X050610Y008179D01*
X050651Y008175D01*
X050691Y008167D01*
X050731Y008155D01*
X050769Y008140D01*
X050805Y008121D01*
X050840Y008099D01*
X050873Y008073D01*
X050902Y008045D01*
X050929Y008014D01*
X050953Y007980D01*
X050974Y007944D01*
X050991Y007907D01*
X051004Y007868D01*
X051014Y007828D01*
X051020Y007787D01*
X051022Y007746D01*
X051020Y007705D01*
X051014Y007664D01*
X051004Y007624D01*
X050991Y007585D01*
X050974Y007548D01*
X050953Y007512D01*
X050929Y007478D01*
X050902Y007447D01*
X050873Y007419D01*
X050840Y007393D01*
X050806Y007371D01*
X050769Y007352D01*
X050731Y007337D01*
X050691Y007325D01*
X050651Y007317D01*
X050610Y007313D01*
X050568Y007313D01*
X050527Y007317D01*
X050487Y007325D01*
X050447Y007337D01*
X050409Y007352D01*
X050373Y007371D01*
X050338Y007393D01*
X050305Y007419D01*
X050276Y007447D01*
X050249Y007478D01*
X050225Y007512D01*
X050204Y007548D01*
X050187Y007585D01*
X050174Y007624D01*
X050164Y007664D01*
X050158Y007705D01*
X050156Y007746D01*
X038656Y007746D02*
X038658Y007787D01*
X038664Y007828D01*
X038674Y007868D01*
X038687Y007907D01*
X038704Y007944D01*
X038725Y007980D01*
X038749Y008014D01*
X038776Y008045D01*
X038805Y008073D01*
X038838Y008099D01*
X038872Y008121D01*
X038909Y008140D01*
X038947Y008155D01*
X038987Y008167D01*
X039027Y008175D01*
X039068Y008179D01*
X039110Y008179D01*
X039151Y008175D01*
X039191Y008167D01*
X039231Y008155D01*
X039269Y008140D01*
X039305Y008121D01*
X039340Y008099D01*
X039373Y008073D01*
X039402Y008045D01*
X039429Y008014D01*
X039453Y007980D01*
X039474Y007944D01*
X039491Y007907D01*
X039504Y007868D01*
X039514Y007828D01*
X039520Y007787D01*
X039522Y007746D01*
X039520Y007705D01*
X039514Y007664D01*
X039504Y007624D01*
X039491Y007585D01*
X039474Y007548D01*
X039453Y007512D01*
X039429Y007478D01*
X039402Y007447D01*
X039373Y007419D01*
X039340Y007393D01*
X039306Y007371D01*
X039269Y007352D01*
X039231Y007337D01*
X039191Y007325D01*
X039151Y007317D01*
X039110Y007313D01*
X039068Y007313D01*
X039027Y007317D01*
X038987Y007325D01*
X038947Y007337D01*
X038909Y007352D01*
X038873Y007371D01*
X038838Y007393D01*
X038805Y007419D01*
X038776Y007447D01*
X038749Y007478D01*
X038725Y007512D01*
X038704Y007548D01*
X038687Y007585D01*
X038674Y007624D01*
X038664Y007664D01*
X038658Y007705D01*
X038656Y007746D01*
X027156Y007746D02*
X027158Y007787D01*
X027164Y007828D01*
X027174Y007868D01*
X027187Y007907D01*
X027204Y007944D01*
X027225Y007980D01*
X027249Y008014D01*
X027276Y008045D01*
X027305Y008073D01*
X027338Y008099D01*
X027372Y008121D01*
X027409Y008140D01*
X027447Y008155D01*
X027487Y008167D01*
X027527Y008175D01*
X027568Y008179D01*
X027610Y008179D01*
X027651Y008175D01*
X027691Y008167D01*
X027731Y008155D01*
X027769Y008140D01*
X027805Y008121D01*
X027840Y008099D01*
X027873Y008073D01*
X027902Y008045D01*
X027929Y008014D01*
X027953Y007980D01*
X027974Y007944D01*
X027991Y007907D01*
X028004Y007868D01*
X028014Y007828D01*
X028020Y007787D01*
X028022Y007746D01*
X028020Y007705D01*
X028014Y007664D01*
X028004Y007624D01*
X027991Y007585D01*
X027974Y007548D01*
X027953Y007512D01*
X027929Y007478D01*
X027902Y007447D01*
X027873Y007419D01*
X027840Y007393D01*
X027806Y007371D01*
X027769Y007352D01*
X027731Y007337D01*
X027691Y007325D01*
X027651Y007317D01*
X027610Y007313D01*
X027568Y007313D01*
X027527Y007317D01*
X027487Y007325D01*
X027447Y007337D01*
X027409Y007352D01*
X027373Y007371D01*
X027338Y007393D01*
X027305Y007419D01*
X027276Y007447D01*
X027249Y007478D01*
X027225Y007512D01*
X027204Y007548D01*
X027187Y007585D01*
X027174Y007624D01*
X027164Y007664D01*
X027158Y007705D01*
X027156Y007746D01*
X015656Y007746D02*
X015658Y007787D01*
X015664Y007828D01*
X015674Y007868D01*
X015687Y007907D01*
X015704Y007944D01*
X015725Y007980D01*
X015749Y008014D01*
X015776Y008045D01*
X015805Y008073D01*
X015838Y008099D01*
X015872Y008121D01*
X015909Y008140D01*
X015947Y008155D01*
X015987Y008167D01*
X016027Y008175D01*
X016068Y008179D01*
X016110Y008179D01*
X016151Y008175D01*
X016191Y008167D01*
X016231Y008155D01*
X016269Y008140D01*
X016305Y008121D01*
X016340Y008099D01*
X016373Y008073D01*
X016402Y008045D01*
X016429Y008014D01*
X016453Y007980D01*
X016474Y007944D01*
X016491Y007907D01*
X016504Y007868D01*
X016514Y007828D01*
X016520Y007787D01*
X016522Y007746D01*
X016520Y007705D01*
X016514Y007664D01*
X016504Y007624D01*
X016491Y007585D01*
X016474Y007548D01*
X016453Y007512D01*
X016429Y007478D01*
X016402Y007447D01*
X016373Y007419D01*
X016340Y007393D01*
X016306Y007371D01*
X016269Y007352D01*
X016231Y007337D01*
X016191Y007325D01*
X016151Y007317D01*
X016110Y007313D01*
X016068Y007313D01*
X016027Y007317D01*
X015987Y007325D01*
X015947Y007337D01*
X015909Y007352D01*
X015873Y007371D01*
X015838Y007393D01*
X015805Y007419D01*
X015776Y007447D01*
X015749Y007478D01*
X015725Y007512D01*
X015704Y007548D01*
X015687Y007585D01*
X015674Y007624D01*
X015664Y007664D01*
X015658Y007705D01*
X015656Y007746D01*
X001214Y021555D02*
X001216Y021603D01*
X001222Y021651D01*
X001232Y021698D01*
X001245Y021744D01*
X001263Y021789D01*
X001283Y021833D01*
X001308Y021875D01*
X001336Y021914D01*
X001366Y021951D01*
X001400Y021985D01*
X001437Y022017D01*
X001475Y022046D01*
X001516Y022071D01*
X001559Y022093D01*
X001604Y022111D01*
X001650Y022125D01*
X001697Y022136D01*
X001745Y022143D01*
X001793Y022146D01*
X001841Y022145D01*
X001889Y022140D01*
X001937Y022131D01*
X001983Y022119D01*
X002028Y022102D01*
X002072Y022082D01*
X002114Y022059D01*
X002154Y022032D01*
X002192Y022002D01*
X002227Y021969D01*
X002259Y021933D01*
X002289Y021895D01*
X002315Y021854D01*
X002337Y021811D01*
X002357Y021767D01*
X002372Y021722D01*
X002384Y021675D01*
X002392Y021627D01*
X002396Y021579D01*
X002396Y021531D01*
X002392Y021483D01*
X002384Y021435D01*
X002372Y021388D01*
X002357Y021343D01*
X002337Y021299D01*
X002315Y021256D01*
X002289Y021215D01*
X002259Y021177D01*
X002227Y021141D01*
X002192Y021108D01*
X002154Y021078D01*
X002114Y021051D01*
X002072Y021028D01*
X002028Y021008D01*
X001983Y020991D01*
X001937Y020979D01*
X001889Y020970D01*
X001841Y020965D01*
X001793Y020964D01*
X001745Y020967D01*
X001697Y020974D01*
X001650Y020985D01*
X001604Y020999D01*
X001559Y021017D01*
X001516Y021039D01*
X001475Y021064D01*
X001437Y021093D01*
X001400Y021125D01*
X001366Y021159D01*
X001336Y021196D01*
X001308Y021235D01*
X001283Y021277D01*
X001263Y021321D01*
X001245Y021366D01*
X001232Y021412D01*
X001222Y021459D01*
X001216Y021507D01*
X001214Y021555D01*
X051589Y001805D02*
X051591Y001853D01*
X051597Y001901D01*
X051607Y001948D01*
X051620Y001994D01*
X051638Y002039D01*
X051658Y002083D01*
X051683Y002125D01*
X051711Y002164D01*
X051741Y002201D01*
X051775Y002235D01*
X051812Y002267D01*
X051850Y002296D01*
X051891Y002321D01*
X051934Y002343D01*
X051979Y002361D01*
X052025Y002375D01*
X052072Y002386D01*
X052120Y002393D01*
X052168Y002396D01*
X052216Y002395D01*
X052264Y002390D01*
X052312Y002381D01*
X052358Y002369D01*
X052403Y002352D01*
X052447Y002332D01*
X052489Y002309D01*
X052529Y002282D01*
X052567Y002252D01*
X052602Y002219D01*
X052634Y002183D01*
X052664Y002145D01*
X052690Y002104D01*
X052712Y002061D01*
X052732Y002017D01*
X052747Y001972D01*
X052759Y001925D01*
X052767Y001877D01*
X052771Y001829D01*
X052771Y001781D01*
X052767Y001733D01*
X052759Y001685D01*
X052747Y001638D01*
X052732Y001593D01*
X052712Y001549D01*
X052690Y001506D01*
X052664Y001465D01*
X052634Y001427D01*
X052602Y001391D01*
X052567Y001358D01*
X052529Y001328D01*
X052489Y001301D01*
X052447Y001278D01*
X052403Y001258D01*
X052358Y001241D01*
X052312Y001229D01*
X052264Y001220D01*
X052216Y001215D01*
X052168Y001214D01*
X052120Y001217D01*
X052072Y001224D01*
X052025Y001235D01*
X051979Y001249D01*
X051934Y001267D01*
X051891Y001289D01*
X051850Y001314D01*
X051812Y001343D01*
X051775Y001375D01*
X051741Y001409D01*
X051711Y001446D01*
X051683Y001485D01*
X051658Y001527D01*
X051638Y001571D01*
X051620Y001616D01*
X051607Y001662D01*
X051597Y001709D01*
X051591Y001757D01*
X051589Y001805D01*
D11*
X048388Y002402D02*
X048311Y002325D01*
X048158Y002325D01*
X048081Y002402D01*
X048081Y002478D01*
X048158Y002555D01*
X048311Y002555D01*
X048388Y002478D01*
X048388Y002402D01*
X048311Y002555D02*
X048388Y002632D01*
X048388Y002709D01*
X048311Y002785D01*
X048158Y002785D01*
X048081Y002709D01*
X048081Y002632D01*
X048158Y002555D01*
X047928Y002402D02*
X047851Y002325D01*
X047621Y002325D01*
X047621Y002785D01*
X047851Y002785D01*
X047928Y002709D01*
X047928Y002402D01*
X047467Y002325D02*
X047160Y002325D01*
X047160Y002785D01*
X047467Y002785D01*
X047314Y002555D02*
X047160Y002555D01*
X047007Y002325D02*
X046700Y002325D01*
X046700Y002785D01*
X036888Y002785D02*
X036735Y002709D01*
X036581Y002555D01*
X036811Y002555D01*
X036888Y002478D01*
X036888Y002402D01*
X036811Y002325D01*
X036658Y002325D01*
X036581Y002402D01*
X036581Y002555D01*
X036428Y002402D02*
X036428Y002709D01*
X036351Y002785D01*
X036121Y002785D01*
X036121Y002325D01*
X036351Y002325D01*
X036428Y002402D01*
X035967Y002325D02*
X035660Y002325D01*
X035660Y002785D01*
X035967Y002785D01*
X035814Y002555D02*
X035660Y002555D01*
X035507Y002325D02*
X035200Y002325D01*
X035200Y002785D01*
X025513Y002555D02*
X025206Y002555D01*
X025436Y002785D01*
X025436Y002325D01*
X025053Y002402D02*
X025053Y002709D01*
X024976Y002785D01*
X024746Y002785D01*
X024746Y002325D01*
X024976Y002325D01*
X025053Y002402D01*
X024592Y002325D02*
X024285Y002325D01*
X024285Y002785D01*
X024592Y002785D01*
X024439Y002555D02*
X024285Y002555D01*
X024132Y002325D02*
X023825Y002325D01*
X023825Y002785D01*
X014013Y002709D02*
X014013Y002632D01*
X013706Y002325D01*
X014013Y002325D01*
X013553Y002402D02*
X013553Y002709D01*
X013476Y002785D01*
X013246Y002785D01*
X013246Y002325D01*
X013476Y002325D01*
X013553Y002402D01*
X013706Y002709D02*
X013783Y002785D01*
X013936Y002785D01*
X014013Y002709D01*
X013092Y002785D02*
X012785Y002785D01*
X012785Y002325D01*
X013092Y002325D01*
X012939Y002555D02*
X012785Y002555D01*
X012632Y002325D02*
X012325Y002325D01*
X012325Y002785D01*
X005092Y006950D02*
X004785Y006950D01*
X004632Y006950D02*
X004325Y007410D01*
X004632Y007410D02*
X004325Y006950D01*
X004785Y007257D02*
X004939Y007410D01*
X004939Y006950D01*
X001910Y006519D02*
X001910Y006442D01*
X001450Y006442D01*
X001450Y006519D02*
X001450Y006365D01*
X001527Y006672D02*
X001680Y006672D01*
X001757Y006749D01*
X001757Y006903D01*
X001680Y006979D01*
X001527Y006979D01*
X001450Y006903D01*
X001450Y006749D01*
X001527Y006672D01*
X001757Y007133D02*
X001757Y007210D01*
X001603Y007363D01*
X001450Y007363D02*
X001757Y007363D01*
X001757Y007516D02*
X001757Y007670D01*
X001834Y007593D02*
X001527Y007593D01*
X001450Y007516D01*
X001450Y007823D02*
X001680Y007823D01*
X001757Y007900D01*
X001757Y008130D01*
X001450Y008130D01*
X001527Y008284D02*
X001680Y008284D01*
X001757Y008361D01*
X001757Y008514D01*
X001680Y008591D01*
X001527Y008591D01*
X001450Y008514D01*
X001450Y008361D01*
X001527Y008284D01*
X001160Y008054D02*
X000700Y008054D01*
X000700Y008207D02*
X000700Y007900D01*
X001007Y008207D02*
X001160Y008054D01*
X001527Y008744D02*
X001450Y008821D01*
X001450Y008974D01*
X001527Y009051D01*
X001834Y009051D01*
X001910Y008974D01*
X001910Y008821D01*
X001834Y008744D01*
X001007Y008898D02*
X000930Y008821D01*
X000700Y008821D01*
X000700Y009128D02*
X001007Y009128D01*
X001007Y008898D01*
X000930Y009281D02*
X001007Y009358D01*
X001007Y009512D01*
X000930Y009588D01*
X000777Y009588D01*
X000700Y009512D01*
X000700Y009358D01*
X000777Y009281D01*
X000930Y009281D01*
X000700Y009742D02*
X000700Y009895D01*
X000700Y009818D02*
X001007Y009818D01*
X001007Y009895D01*
X001007Y010049D02*
X001007Y010279D01*
X000930Y010356D01*
X000853Y010279D01*
X000853Y010125D01*
X000777Y010049D01*
X000700Y010125D01*
X000700Y010356D01*
X001007Y010509D02*
X001007Y010586D01*
X000853Y010739D01*
X000700Y010739D02*
X001007Y010739D01*
X000930Y010893D02*
X000853Y010893D01*
X000853Y011200D01*
X000777Y011200D02*
X000930Y011200D01*
X001007Y011123D01*
X001007Y010969D01*
X000930Y010893D01*
X000700Y010969D02*
X000700Y011123D01*
X000777Y011200D01*
X000853Y011353D02*
X001160Y011353D01*
X001450Y011353D02*
X001603Y011507D01*
X001603Y011430D02*
X001603Y011660D01*
X001450Y011660D02*
X001910Y011660D01*
X001910Y011430D01*
X001834Y011353D01*
X001680Y011353D01*
X001603Y011430D01*
X001603Y011200D02*
X001603Y010893D01*
X001680Y010893D01*
X001757Y010969D01*
X001757Y011123D01*
X001680Y011200D01*
X001527Y011200D01*
X001450Y011123D01*
X001450Y010969D01*
X001450Y010739D02*
X001450Y010586D01*
X001450Y010662D02*
X001910Y010662D01*
X001910Y010739D01*
X001757Y010356D02*
X001757Y010202D01*
X001680Y010125D01*
X001450Y010125D01*
X001450Y010356D01*
X001527Y010432D01*
X001603Y010356D01*
X001603Y010125D01*
X001527Y009972D02*
X001450Y009895D01*
X001450Y009665D01*
X001373Y009665D02*
X001297Y009742D01*
X001297Y009818D01*
X001237Y009818D02*
X001160Y009818D01*
X001373Y009665D02*
X001757Y009665D01*
X001757Y009972D02*
X001527Y009972D01*
X000853Y011353D02*
X000700Y011507D01*
X000853Y011660D01*
X001160Y011660D01*
X007575Y015950D02*
X007575Y016180D01*
X007651Y016257D01*
X007958Y016257D01*
X008035Y016180D01*
X008035Y015950D01*
X007575Y015950D01*
X007728Y016410D02*
X007575Y016564D01*
X008035Y016564D01*
X008035Y016717D02*
X008035Y016410D01*
X008035Y017325D02*
X008035Y017555D01*
X007958Y017632D01*
X007651Y017632D01*
X007575Y017555D01*
X007575Y017325D01*
X008035Y017325D01*
X008035Y017785D02*
X007728Y018092D01*
X007651Y018092D01*
X007575Y018016D01*
X007575Y017862D01*
X007651Y017785D01*
X008035Y017785D02*
X008035Y018092D01*
X008035Y018700D02*
X008035Y018930D01*
X007958Y019007D01*
X007651Y019007D01*
X007575Y018930D01*
X007575Y018700D01*
X008035Y018700D01*
X007958Y019160D02*
X008035Y019237D01*
X008035Y019391D01*
X007958Y019467D01*
X007882Y019467D01*
X007805Y019391D01*
X007805Y019314D01*
X007805Y019391D02*
X007728Y019467D01*
X007651Y019467D01*
X007575Y019391D01*
X007575Y019237D01*
X007651Y019160D01*
X006079Y019035D02*
X006079Y018575D01*
X006155Y018575D02*
X006002Y018575D01*
X005848Y018575D02*
X005848Y018805D01*
X005772Y018882D01*
X005618Y018882D01*
X005618Y018728D02*
X005848Y018728D01*
X005848Y018575D02*
X005618Y018575D01*
X005542Y018652D01*
X005618Y018728D01*
X005388Y018575D02*
X005388Y018882D01*
X005081Y018882D02*
X005081Y018652D01*
X005158Y018575D01*
X005388Y018575D01*
X004928Y018575D02*
X004928Y018805D01*
X004851Y018882D01*
X004621Y018882D01*
X004621Y018575D01*
X004467Y018575D02*
X004237Y018575D01*
X004160Y018652D01*
X004237Y018728D01*
X004467Y018728D01*
X004467Y018805D02*
X004467Y018575D01*
X004467Y018805D02*
X004391Y018882D01*
X004237Y018882D01*
X004007Y019035D02*
X003853Y018882D01*
X003700Y019035D01*
X003700Y018575D01*
X004007Y018575D02*
X004007Y019035D01*
X004007Y019325D02*
X003700Y019325D01*
X003700Y019785D01*
X004007Y019785D01*
X004160Y019709D02*
X004160Y019402D01*
X004237Y019325D01*
X004391Y019325D01*
X004467Y019402D01*
X004621Y019402D02*
X004698Y019325D01*
X004851Y019325D01*
X004928Y019402D01*
X004928Y019785D01*
X004621Y019785D02*
X004621Y019402D01*
X004467Y019709D02*
X004391Y019785D01*
X004237Y019785D01*
X004160Y019709D01*
X003853Y019555D02*
X003700Y019555D01*
X006002Y019035D02*
X006079Y019035D01*
X011950Y021825D02*
X011950Y022285D01*
X012103Y022132D01*
X012257Y022285D01*
X012257Y021825D01*
X012410Y021902D02*
X012487Y021825D01*
X012641Y021825D01*
X012717Y021902D01*
X012871Y021902D02*
X012948Y021825D01*
X013101Y021825D01*
X013178Y021902D01*
X013178Y022285D01*
X012871Y022285D02*
X012871Y021902D01*
X012717Y022209D02*
X012641Y022285D01*
X012487Y022285D01*
X012410Y022209D01*
X012410Y021902D01*
X014450Y021285D02*
X014450Y020825D01*
X014757Y020825D01*
X014910Y020825D02*
X015217Y020825D01*
X015371Y020825D02*
X015601Y020825D01*
X015678Y020902D01*
X015678Y021209D01*
X015601Y021285D01*
X015371Y021285D01*
X015371Y020825D01*
X015064Y021055D02*
X014910Y021055D01*
X014910Y021285D02*
X014910Y020825D01*
X014910Y021285D02*
X015217Y021285D01*
X015831Y021132D02*
X015985Y021285D01*
X015985Y020825D01*
X016138Y020825D02*
X015831Y020825D01*
X016441Y019061D02*
X016748Y019061D01*
X016901Y019061D02*
X016901Y018677D01*
X016978Y018601D01*
X017132Y018601D01*
X017208Y018677D01*
X017208Y019061D01*
X017362Y018984D02*
X017362Y018908D01*
X017439Y018831D01*
X017592Y018831D01*
X017669Y018754D01*
X017669Y018677D01*
X017592Y018601D01*
X017439Y018601D01*
X017362Y018677D01*
X017362Y018984D02*
X017439Y019061D01*
X017592Y019061D01*
X017669Y018984D01*
X017822Y019061D02*
X017822Y018601D01*
X018129Y018601D01*
X017976Y018831D02*
X017822Y018831D01*
X017822Y019061D02*
X018129Y019061D01*
X016595Y018831D02*
X016441Y018831D01*
X016441Y018601D02*
X016441Y019061D01*
X019700Y019950D02*
X019930Y019950D01*
X020007Y020027D01*
X020007Y020334D01*
X019930Y020410D01*
X019700Y020410D01*
X019700Y019950D01*
X020160Y020027D02*
X020160Y020180D01*
X020391Y020180D01*
X020467Y020103D01*
X020467Y020027D01*
X020391Y019950D01*
X020237Y019950D01*
X020160Y020027D01*
X020160Y020180D02*
X020314Y020334D01*
X020467Y020410D01*
X025950Y020825D02*
X026257Y020825D01*
X026410Y020825D02*
X026717Y020825D01*
X026871Y020825D02*
X027101Y020825D01*
X027178Y020902D01*
X027178Y021209D01*
X027101Y021285D01*
X026871Y021285D01*
X026871Y020825D01*
X026564Y021055D02*
X026410Y021055D01*
X026410Y021285D02*
X026410Y020825D01*
X025950Y020825D02*
X025950Y021285D01*
X026410Y021285D02*
X026717Y021285D01*
X027331Y021209D02*
X027408Y021285D01*
X027561Y021285D01*
X027638Y021209D01*
X027638Y021132D01*
X027561Y021055D01*
X027638Y020978D01*
X027638Y020902D01*
X027561Y020825D01*
X027408Y020825D01*
X027331Y020902D01*
X027485Y021055D02*
X027561Y021055D01*
X027941Y019061D02*
X028248Y019061D01*
X028401Y019061D02*
X028401Y018677D01*
X028478Y018601D01*
X028632Y018601D01*
X028708Y018677D01*
X028708Y019061D01*
X028862Y018984D02*
X028939Y019061D01*
X029092Y019061D01*
X029169Y018984D01*
X029092Y018831D02*
X029169Y018754D01*
X029169Y018677D01*
X029092Y018601D01*
X028939Y018601D01*
X028862Y018677D01*
X028939Y018831D02*
X029092Y018831D01*
X028939Y018831D02*
X028862Y018908D01*
X028862Y018984D01*
X029322Y019061D02*
X029322Y018601D01*
X029629Y018601D01*
X029476Y018831D02*
X029322Y018831D01*
X029322Y019061D02*
X029629Y019061D01*
X028095Y018831D02*
X027941Y018831D01*
X027941Y018601D02*
X027941Y019061D01*
X020467Y017035D02*
X020160Y017035D01*
X020160Y016805D01*
X020314Y016882D01*
X020391Y016882D01*
X020467Y016805D01*
X020467Y016652D01*
X020391Y016575D01*
X020237Y016575D01*
X020160Y016652D01*
X020007Y016652D02*
X020007Y016959D01*
X019930Y017035D01*
X019700Y017035D01*
X019700Y016575D01*
X019930Y016575D01*
X020007Y016652D01*
X037325Y020825D02*
X037632Y020825D01*
X037785Y020825D02*
X038092Y020825D01*
X038246Y020825D02*
X038476Y020825D01*
X038553Y020902D01*
X038553Y021209D01*
X038476Y021285D01*
X038246Y021285D01*
X038246Y020825D01*
X037939Y021055D02*
X037785Y021055D01*
X037785Y021285D02*
X037785Y020825D01*
X037325Y020825D02*
X037325Y021285D01*
X037785Y021285D02*
X038092Y021285D01*
X038706Y021285D02*
X038706Y021055D01*
X038860Y021132D01*
X038936Y021132D01*
X039013Y021055D01*
X039013Y020902D01*
X038936Y020825D01*
X038783Y020825D01*
X038706Y020902D01*
X038706Y021285D02*
X039013Y021285D01*
X039441Y019061D02*
X039748Y019061D01*
X039901Y019061D02*
X039901Y018677D01*
X039978Y018601D01*
X040132Y018601D01*
X040208Y018677D01*
X040208Y019061D01*
X040362Y018984D02*
X040362Y018908D01*
X040439Y018831D01*
X040592Y018831D01*
X040669Y018754D01*
X040669Y018677D01*
X040592Y018601D01*
X040439Y018601D01*
X040362Y018677D01*
X040362Y018984D02*
X040439Y019061D01*
X040592Y019061D01*
X040669Y018984D01*
X040822Y019061D02*
X040822Y018601D01*
X041129Y018601D01*
X040976Y018831D02*
X040822Y018831D01*
X040822Y019061D02*
X041129Y019061D01*
X039595Y018831D02*
X039441Y018831D01*
X039441Y018601D02*
X039441Y019061D01*
X046700Y020075D02*
X047007Y020075D01*
X047160Y020075D02*
X047467Y020075D01*
X047621Y020075D02*
X047851Y020075D01*
X047928Y020152D01*
X047928Y020459D01*
X047851Y020535D01*
X047621Y020535D01*
X047621Y020075D01*
X047314Y020305D02*
X047160Y020305D01*
X047160Y020535D02*
X047160Y020075D01*
X046700Y020075D02*
X046700Y020535D01*
X047160Y020535D02*
X047467Y020535D01*
X048081Y020535D02*
X048388Y020535D01*
X048388Y020459D01*
X048081Y020152D01*
X048081Y020075D01*
X050941Y019061D02*
X051248Y019061D01*
X051401Y019061D02*
X051401Y018677D01*
X051478Y018601D01*
X051632Y018601D01*
X051708Y018677D01*
X051708Y019061D01*
X051862Y018984D02*
X051862Y018908D01*
X051939Y018831D01*
X052092Y018831D01*
X052169Y018754D01*
X052169Y018677D01*
X052092Y018601D01*
X051939Y018601D01*
X051862Y018677D01*
X051862Y018984D02*
X051939Y019061D01*
X052092Y019061D01*
X052169Y018984D01*
X052322Y019061D02*
X052322Y018601D01*
X052629Y018601D01*
X052476Y018831D02*
X052322Y018831D01*
X052322Y019061D02*
X052629Y019061D01*
X051095Y018831D02*
X050941Y018831D01*
X050941Y018601D02*
X050941Y019061D01*
X001910Y005752D02*
X001910Y005521D01*
X001834Y005445D01*
X001757Y005445D01*
X001680Y005521D01*
X001680Y005752D01*
X001450Y005752D02*
X001910Y005752D01*
X001680Y005521D02*
X001603Y005445D01*
X001527Y005445D01*
X001450Y005521D01*
X001450Y005752D01*
X001527Y005291D02*
X001450Y005215D01*
X001450Y005061D01*
X001527Y004984D01*
X001680Y004984D01*
X001757Y005061D01*
X001757Y005215D01*
X001680Y005291D01*
X001527Y005291D01*
X001527Y004831D02*
X001603Y004754D01*
X001603Y004524D01*
X001680Y004524D02*
X001450Y004524D01*
X001450Y004754D01*
X001527Y004831D01*
X001757Y004754D02*
X001757Y004601D01*
X001680Y004524D01*
X001603Y004370D02*
X001757Y004217D01*
X001757Y004140D01*
X001680Y003987D02*
X001757Y003910D01*
X001757Y003680D01*
X001910Y003680D02*
X001450Y003680D01*
X001450Y003910D01*
X001527Y003987D01*
X001680Y003987D01*
X001757Y004370D02*
X001450Y004370D01*
D12*
X002920Y006250D02*
X003629Y006250D01*
X002920Y006250D02*
X002879Y006279D01*
X002840Y006311D01*
X002803Y006346D01*
X002770Y006383D01*
X002739Y006423D01*
X002712Y006465D01*
X002687Y006509D01*
X002667Y006555D01*
X002650Y006603D01*
X002636Y006651D01*
X002627Y006701D01*
X002621Y006751D01*
X002619Y006801D01*
X002621Y006851D01*
X002627Y006901D01*
X002636Y006951D01*
X002650Y006999D01*
X002667Y007047D01*
X002687Y007093D01*
X002712Y007137D01*
X002739Y007179D01*
X002770Y007219D01*
X002803Y007256D01*
X002840Y007291D01*
X002879Y007323D01*
X002920Y007352D01*
X002881Y007313D02*
X002881Y007588D01*
X002408Y007628D02*
X006109Y007628D01*
X006109Y012982D01*
X005479Y012982D01*
X005480Y012982D02*
X005478Y013010D01*
X005473Y013038D01*
X005463Y013065D01*
X005451Y013091D01*
X005435Y013114D01*
X005416Y013135D01*
X005395Y013154D01*
X005372Y013170D01*
X005346Y013182D01*
X005319Y013192D01*
X005291Y013197D01*
X005263Y013199D01*
X005235Y013197D01*
X005207Y013192D01*
X005180Y013182D01*
X005155Y013170D01*
X005131Y013154D01*
X005110Y013135D01*
X005091Y013114D01*
X005075Y013091D01*
X005063Y013065D01*
X005053Y013038D01*
X005048Y013010D01*
X005046Y012982D01*
X002408Y012982D01*
X002408Y007628D01*
X003668Y007588D02*
X003668Y007313D01*
X003628Y007352D02*
X003669Y007323D01*
X003708Y007291D01*
X003745Y007256D01*
X003778Y007219D01*
X003809Y007179D01*
X003836Y007137D01*
X003861Y007093D01*
X003881Y007047D01*
X003898Y006999D01*
X003912Y006951D01*
X003921Y006901D01*
X003927Y006851D01*
X003929Y006801D01*
X003927Y006751D01*
X003921Y006701D01*
X003912Y006651D01*
X003898Y006603D01*
X003881Y006555D01*
X003861Y006509D01*
X003836Y006465D01*
X003809Y006423D01*
X003778Y006383D01*
X003745Y006346D01*
X003708Y006311D01*
X003669Y006279D01*
X003628Y006250D01*
X003668Y013022D02*
X003668Y013297D01*
X002881Y013297D02*
X002881Y013022D01*
X003628Y013258D02*
X003669Y013287D01*
X003708Y013319D01*
X003745Y013354D01*
X003778Y013391D01*
X003809Y013431D01*
X003836Y013473D01*
X003861Y013517D01*
X003881Y013563D01*
X003898Y013611D01*
X003912Y013659D01*
X003921Y013709D01*
X003927Y013759D01*
X003929Y013809D01*
X003927Y013859D01*
X003921Y013909D01*
X003912Y013959D01*
X003898Y014007D01*
X003881Y014055D01*
X003861Y014101D01*
X003836Y014145D01*
X003809Y014187D01*
X003778Y014227D01*
X003745Y014264D01*
X003708Y014299D01*
X003669Y014331D01*
X003628Y014360D01*
X003629Y014360D02*
X002920Y014360D01*
X002879Y014331D01*
X002840Y014299D01*
X002803Y014264D01*
X002770Y014227D01*
X002739Y014187D01*
X002712Y014145D01*
X002687Y014101D01*
X002667Y014055D01*
X002650Y014007D01*
X002636Y013959D01*
X002627Y013909D01*
X002621Y013859D01*
X002619Y013809D01*
X002621Y013759D01*
X002627Y013709D01*
X002636Y013659D01*
X002650Y013611D01*
X002667Y013563D01*
X002687Y013517D01*
X002712Y013473D01*
X002739Y013431D01*
X002770Y013391D01*
X002803Y013354D01*
X002840Y013319D01*
X002879Y013287D01*
X002920Y013258D01*
X006180Y018805D02*
X007305Y019930D01*
X006930Y019930D01*
X006680Y020055D02*
X003680Y020055D01*
X003680Y021805D01*
X006680Y021805D01*
X006680Y020055D01*
X007180Y020055D02*
X007180Y021805D01*
X009180Y021805D01*
X009180Y020055D01*
X007180Y020055D01*
X007305Y019930D02*
X007305Y019555D01*
X009680Y020055D02*
X009680Y021805D01*
X011680Y021805D01*
X011680Y020055D01*
X009680Y020055D01*
X009680Y021805D02*
X009680Y022555D01*
X011680Y022555D01*
X011680Y021805D01*
X009180Y021805D02*
X009180Y022555D01*
X007180Y022555D01*
X007180Y021805D01*
X006680Y021805D02*
X006680Y022555D01*
X003680Y022555D01*
X003680Y021805D01*
D13*
X006930Y018055D02*
X006930Y000305D01*
X018680Y000305D02*
X018680Y023055D01*
X030180Y023055D02*
X030180Y000305D01*
X041680Y000305D02*
X041680Y023055D01*
D14*
X040755Y020555D02*
X039605Y020555D01*
X039605Y020055D01*
X040755Y020055D01*
X040755Y020555D01*
X049105Y021055D02*
X049105Y021555D01*
X050255Y021555D01*
X050255Y021055D01*
X049105Y021055D01*
X051550Y021555D02*
X051552Y021605D01*
X051558Y021655D01*
X051568Y021704D01*
X051582Y021752D01*
X051599Y021799D01*
X051620Y021844D01*
X051645Y021888D01*
X051673Y021929D01*
X051705Y021968D01*
X051739Y022005D01*
X051776Y022039D01*
X051816Y022069D01*
X051858Y022096D01*
X051902Y022120D01*
X051948Y022141D01*
X051995Y022157D01*
X052043Y022170D01*
X052093Y022179D01*
X052142Y022184D01*
X052193Y022185D01*
X052243Y022182D01*
X052292Y022175D01*
X052341Y022164D01*
X052389Y022149D01*
X052435Y022131D01*
X052480Y022109D01*
X052523Y022083D01*
X052564Y022054D01*
X052603Y022022D01*
X052639Y021987D01*
X052671Y021949D01*
X052701Y021909D01*
X052728Y021866D01*
X052751Y021822D01*
X052770Y021776D01*
X052786Y021728D01*
X052798Y021679D01*
X052806Y021630D01*
X052810Y021580D01*
X052810Y021530D01*
X052806Y021480D01*
X052798Y021431D01*
X052786Y021382D01*
X052770Y021334D01*
X052751Y021288D01*
X052728Y021244D01*
X052701Y021201D01*
X052671Y021161D01*
X052639Y021123D01*
X052603Y021088D01*
X052564Y021056D01*
X052523Y021027D01*
X052480Y021001D01*
X052435Y020979D01*
X052389Y020961D01*
X052341Y020946D01*
X052292Y020935D01*
X052243Y020928D01*
X052193Y020925D01*
X052142Y020926D01*
X052093Y020931D01*
X052043Y020940D01*
X051995Y020953D01*
X051948Y020969D01*
X051902Y020990D01*
X051858Y021014D01*
X051816Y021041D01*
X051776Y021071D01*
X051739Y021105D01*
X051705Y021142D01*
X051673Y021181D01*
X051645Y021222D01*
X051620Y021266D01*
X051599Y021311D01*
X051582Y021358D01*
X051568Y021406D01*
X051558Y021455D01*
X051552Y021505D01*
X051550Y021555D01*
X029255Y020555D02*
X029255Y020055D01*
X028105Y020055D01*
X028105Y020555D01*
X029255Y020555D01*
X017755Y020555D02*
X017755Y020055D01*
X016605Y020055D01*
X016605Y020555D01*
X017755Y020555D01*
X001175Y021555D02*
X001177Y021605D01*
X001183Y021655D01*
X001193Y021704D01*
X001207Y021752D01*
X001224Y021799D01*
X001245Y021844D01*
X001270Y021888D01*
X001298Y021929D01*
X001330Y021968D01*
X001364Y022005D01*
X001401Y022039D01*
X001441Y022069D01*
X001483Y022096D01*
X001527Y022120D01*
X001573Y022141D01*
X001620Y022157D01*
X001668Y022170D01*
X001718Y022179D01*
X001767Y022184D01*
X001818Y022185D01*
X001868Y022182D01*
X001917Y022175D01*
X001966Y022164D01*
X002014Y022149D01*
X002060Y022131D01*
X002105Y022109D01*
X002148Y022083D01*
X002189Y022054D01*
X002228Y022022D01*
X002264Y021987D01*
X002296Y021949D01*
X002326Y021909D01*
X002353Y021866D01*
X002376Y021822D01*
X002395Y021776D01*
X002411Y021728D01*
X002423Y021679D01*
X002431Y021630D01*
X002435Y021580D01*
X002435Y021530D01*
X002431Y021480D01*
X002423Y021431D01*
X002411Y021382D01*
X002395Y021334D01*
X002376Y021288D01*
X002353Y021244D01*
X002326Y021201D01*
X002296Y021161D01*
X002264Y021123D01*
X002228Y021088D01*
X002189Y021056D01*
X002148Y021027D01*
X002105Y021001D01*
X002060Y020979D01*
X002014Y020961D01*
X001966Y020946D01*
X001917Y020935D01*
X001868Y020928D01*
X001818Y020925D01*
X001767Y020926D01*
X001718Y020931D01*
X001668Y020940D01*
X001620Y020953D01*
X001573Y020969D01*
X001527Y020990D01*
X001483Y021014D01*
X001441Y021041D01*
X001401Y021071D01*
X001364Y021105D01*
X001330Y021142D01*
X001298Y021181D01*
X001270Y021222D01*
X001245Y021266D01*
X001224Y021311D01*
X001207Y021358D01*
X001193Y021406D01*
X001183Y021455D01*
X001177Y021505D01*
X001175Y021555D01*
X010605Y003555D02*
X011755Y003555D01*
X011755Y003055D01*
X010605Y003055D01*
X010605Y003555D01*
X010970Y001516D02*
X011584Y001516D01*
X011891Y001209D02*
X012198Y001516D01*
X012505Y001209D01*
X012505Y000595D01*
X012812Y000595D02*
X012812Y001516D01*
X013425Y000595D01*
X013425Y001516D01*
X012505Y001055D02*
X011891Y001055D01*
X011891Y001209D02*
X011891Y000595D01*
X011277Y001055D02*
X010970Y001055D01*
X010970Y000595D02*
X010970Y001516D01*
X019720Y001516D02*
X019720Y000595D01*
X020027Y000902D01*
X020334Y000595D01*
X020334Y001516D01*
X020641Y001209D02*
X020948Y001516D01*
X021255Y001209D01*
X021255Y000595D01*
X021255Y001055D02*
X020641Y001055D01*
X020641Y001209D02*
X020641Y000595D01*
X021869Y000595D02*
X021869Y001516D01*
X022175Y001516D02*
X021562Y001516D01*
X022482Y001516D02*
X022482Y000595D01*
X023096Y000595D01*
X023403Y000595D02*
X023403Y001516D01*
X023864Y001516D01*
X024017Y001362D01*
X024017Y001055D01*
X023864Y000902D01*
X023403Y000902D01*
X023710Y000902D02*
X024017Y000595D01*
X025245Y000595D02*
X025245Y001516D01*
X025705Y001516D01*
X025859Y001362D01*
X025859Y001055D01*
X025705Y000902D01*
X025245Y000902D01*
X026166Y000748D02*
X026166Y001516D01*
X026779Y001516D02*
X026779Y000748D01*
X026626Y000595D01*
X026319Y000595D01*
X026166Y000748D01*
X027086Y000595D02*
X027086Y001516D01*
X027393Y001209D01*
X027700Y001516D01*
X027700Y000595D01*
X028007Y000595D02*
X028007Y001516D01*
X028467Y001516D01*
X028621Y001362D01*
X028621Y001055D01*
X028467Y000902D01*
X028007Y000902D01*
X031720Y001055D02*
X032027Y001055D01*
X031720Y000595D02*
X031720Y001516D01*
X032334Y001516D01*
X032641Y001516D02*
X032641Y000748D01*
X032794Y000595D01*
X033101Y000595D01*
X033255Y000748D01*
X033255Y001516D01*
X033562Y001516D02*
X033562Y000595D01*
X034175Y000595D01*
X034482Y000595D02*
X035096Y000595D01*
X034482Y000595D02*
X034482Y001516D01*
X034175Y001516D02*
X033562Y001516D01*
X033562Y001055D02*
X033869Y001055D01*
X036324Y000902D02*
X036784Y000902D01*
X036938Y001055D01*
X036938Y001362D01*
X036784Y001516D01*
X036324Y001516D01*
X036324Y000595D01*
X037245Y000748D02*
X037398Y000595D01*
X037705Y000595D01*
X037859Y000748D01*
X037859Y001516D01*
X038166Y001516D02*
X038472Y001209D01*
X038779Y001516D01*
X038779Y000595D01*
X039086Y000595D02*
X039086Y001516D01*
X039547Y001516D01*
X039700Y001362D01*
X039700Y001055D01*
X039547Y000902D01*
X039086Y000902D01*
X038166Y000595D02*
X038166Y001516D01*
X037245Y001516D02*
X037245Y000748D01*
X034755Y003055D02*
X033605Y003055D01*
X033605Y003555D01*
X034755Y003555D01*
X034755Y003055D01*
X042220Y001516D02*
X042527Y001516D01*
X042373Y001516D02*
X042373Y000595D01*
X042220Y000595D02*
X042527Y000595D01*
X042834Y000595D02*
X042834Y001516D01*
X043448Y000595D01*
X043448Y001516D01*
X044062Y001516D02*
X044369Y001516D01*
X044215Y001516D02*
X044215Y000748D01*
X044062Y000595D01*
X043908Y000595D01*
X043755Y000748D01*
X044675Y000595D02*
X045289Y000595D01*
X045596Y000748D02*
X045750Y000595D01*
X046057Y000595D01*
X046210Y000748D01*
X045596Y000748D02*
X045596Y001362D01*
X045750Y001516D01*
X046057Y001516D01*
X046210Y001362D01*
X046517Y001516D02*
X047131Y001516D01*
X046824Y001516D02*
X046824Y000595D01*
X047438Y000748D02*
X047591Y000595D01*
X047898Y000595D01*
X048052Y000748D01*
X048052Y001362D01*
X047898Y001516D01*
X047591Y001516D01*
X047438Y001362D01*
X047438Y000748D01*
X048359Y000595D02*
X048359Y001516D01*
X048819Y001516D01*
X048972Y001362D01*
X048972Y001055D01*
X048819Y000902D01*
X048359Y000902D01*
X048666Y000902D02*
X048972Y000595D01*
X049279Y000748D02*
X049433Y000595D01*
X049740Y000595D01*
X049893Y000748D01*
X049893Y000902D01*
X049740Y001055D01*
X049433Y001055D01*
X049279Y001209D01*
X049279Y001362D01*
X049433Y001516D01*
X049740Y001516D01*
X049893Y001362D01*
X051550Y001805D02*
X051552Y001855D01*
X051558Y001905D01*
X051568Y001954D01*
X051582Y002002D01*
X051599Y002049D01*
X051620Y002094D01*
X051645Y002138D01*
X051673Y002179D01*
X051705Y002218D01*
X051739Y002255D01*
X051776Y002289D01*
X051816Y002319D01*
X051858Y002346D01*
X051902Y002370D01*
X051948Y002391D01*
X051995Y002407D01*
X052043Y002420D01*
X052093Y002429D01*
X052142Y002434D01*
X052193Y002435D01*
X052243Y002432D01*
X052292Y002425D01*
X052341Y002414D01*
X052389Y002399D01*
X052435Y002381D01*
X052480Y002359D01*
X052523Y002333D01*
X052564Y002304D01*
X052603Y002272D01*
X052639Y002237D01*
X052671Y002199D01*
X052701Y002159D01*
X052728Y002116D01*
X052751Y002072D01*
X052770Y002026D01*
X052786Y001978D01*
X052798Y001929D01*
X052806Y001880D01*
X052810Y001830D01*
X052810Y001780D01*
X052806Y001730D01*
X052798Y001681D01*
X052786Y001632D01*
X052770Y001584D01*
X052751Y001538D01*
X052728Y001494D01*
X052701Y001451D01*
X052671Y001411D01*
X052639Y001373D01*
X052603Y001338D01*
X052564Y001306D01*
X052523Y001277D01*
X052480Y001251D01*
X052435Y001229D01*
X052389Y001211D01*
X052341Y001196D01*
X052292Y001185D01*
X052243Y001178D01*
X052193Y001175D01*
X052142Y001176D01*
X052093Y001181D01*
X052043Y001190D01*
X051995Y001203D01*
X051948Y001219D01*
X051902Y001240D01*
X051858Y001264D01*
X051816Y001291D01*
X051776Y001321D01*
X051739Y001355D01*
X051705Y001392D01*
X051673Y001431D01*
X051645Y001472D01*
X051620Y001516D01*
X051599Y001561D01*
X051582Y001608D01*
X051568Y001656D01*
X051558Y001705D01*
X051552Y001755D01*
X051550Y001805D01*
X046255Y003055D02*
X046255Y003555D01*
X045105Y003555D01*
X045105Y003055D01*
X046255Y003055D01*
X045289Y001516D02*
X044675Y001516D01*
X044675Y000595D01*
X044675Y001055D02*
X044982Y001055D01*
X023255Y003055D02*
X023255Y003555D01*
X022105Y003555D01*
X022105Y003055D01*
X023255Y003055D01*
X023096Y001516D02*
X022482Y001516D01*
X022482Y001055D02*
X022789Y001055D01*
X001175Y001805D02*
X001177Y001855D01*
X001183Y001905D01*
X001193Y001954D01*
X001207Y002002D01*
X001224Y002049D01*
X001245Y002094D01*
X001270Y002138D01*
X001298Y002179D01*
X001330Y002218D01*
X001364Y002255D01*
X001401Y002289D01*
X001441Y002319D01*
X001483Y002346D01*
X001527Y002370D01*
X001573Y002391D01*
X001620Y002407D01*
X001668Y002420D01*
X001718Y002429D01*
X001767Y002434D01*
X001818Y002435D01*
X001868Y002432D01*
X001917Y002425D01*
X001966Y002414D01*
X002014Y002399D01*
X002060Y002381D01*
X002105Y002359D01*
X002148Y002333D01*
X002189Y002304D01*
X002228Y002272D01*
X002264Y002237D01*
X002296Y002199D01*
X002326Y002159D01*
X002353Y002116D01*
X002376Y002072D01*
X002395Y002026D01*
X002411Y001978D01*
X002423Y001929D01*
X002431Y001880D01*
X002435Y001830D01*
X002435Y001780D01*
X002431Y001730D01*
X002423Y001681D01*
X002411Y001632D01*
X002395Y001584D01*
X002376Y001538D01*
X002353Y001494D01*
X002326Y001451D01*
X002296Y001411D01*
X002264Y001373D01*
X002228Y001338D01*
X002189Y001306D01*
X002148Y001277D01*
X002105Y001251D01*
X002060Y001229D01*
X002014Y001211D01*
X001966Y001196D01*
X001917Y001185D01*
X001868Y001178D01*
X001818Y001175D01*
X001767Y001176D01*
X001718Y001181D01*
X001668Y001190D01*
X001620Y001203D01*
X001573Y001219D01*
X001527Y001240D01*
X001483Y001264D01*
X001441Y001291D01*
X001401Y001321D01*
X001364Y001355D01*
X001330Y001392D01*
X001298Y001431D01*
X001270Y001472D01*
X001245Y001516D01*
X001224Y001561D01*
X001207Y001608D01*
X001193Y001656D01*
X001183Y001705D01*
X001177Y001755D01*
X001175Y001805D01*
D15*
X002571Y016145D03*
X000339Y019096D03*
D16*
X000348Y019088D03*
X002553Y016136D03*
X002337Y016037D03*
X002328Y016037D03*
D17*
X002346Y016037D03*
X002364Y016037D03*
X002292Y016019D03*
X000357Y019070D03*
D18*
X000366Y019051D03*
X002949Y016019D03*
X001428Y014335D03*
D19*
X000375Y019038D03*
D20*
X000384Y019011D03*
D21*
X000393Y018993D03*
X001716Y015411D03*
X001446Y015312D03*
X001419Y015303D03*
X001392Y015294D03*
X001347Y015276D03*
X001338Y015276D03*
X001311Y015267D03*
X001293Y015258D03*
X001284Y015258D03*
X001266Y015249D03*
X001257Y015249D03*
X001221Y015231D03*
X001212Y015231D03*
X001203Y015231D03*
X001194Y015222D03*
X001023Y015168D03*
X000996Y015159D03*
X000942Y015141D03*
X001239Y014844D03*
X001248Y014844D03*
X001257Y014844D03*
X001302Y014844D03*
X001311Y014844D03*
X001329Y014844D03*
X002814Y015564D03*
X001716Y013557D03*
X001383Y013566D03*
X001374Y013566D03*
X001356Y013566D03*
X001347Y013566D03*
X001338Y013566D03*
X001329Y013566D03*
X001311Y013566D03*
X001302Y013566D03*
X001293Y013566D03*
X001284Y013566D03*
X001266Y013566D03*
X001257Y013566D03*
X001248Y013566D03*
X001239Y013566D03*
X001221Y013566D03*
X001212Y013566D03*
X001203Y013566D03*
X001194Y013566D03*
X001176Y013566D03*
X001167Y013566D03*
X001158Y013566D03*
X001149Y013566D03*
X001131Y013566D03*
X001122Y013566D03*
X001113Y013566D03*
X001104Y013566D03*
X001086Y013566D03*
X001077Y013566D03*
X001068Y013566D03*
X001059Y013566D03*
X001041Y013566D03*
X001032Y013566D03*
X001023Y013566D03*
X001014Y013566D03*
X000996Y013566D03*
X000987Y013566D03*
X000978Y013566D03*
X000969Y013566D03*
X000951Y013566D03*
X000942Y013566D03*
X000933Y013566D03*
X000924Y013566D03*
X000906Y013566D03*
X000897Y013566D03*
X000888Y013566D03*
X000879Y013566D03*
X000861Y013566D03*
X000852Y013566D03*
X000852Y013008D03*
X001194Y013008D03*
X001203Y013008D03*
X001212Y013008D03*
X001221Y013008D03*
X001239Y013008D03*
X001248Y013008D03*
X001257Y013008D03*
X001266Y013008D03*
X001284Y013008D03*
X001293Y013008D03*
X001302Y013008D03*
X001311Y013008D03*
X001329Y013008D03*
X001338Y013008D03*
X001347Y013008D03*
X001356Y013008D03*
X001374Y013008D03*
X001383Y013008D03*
X001392Y013008D03*
X001401Y013008D03*
X001419Y013008D03*
X001428Y013008D03*
X001437Y013008D03*
X001446Y013008D03*
X001464Y013008D03*
X001473Y013008D03*
X001482Y013008D03*
X001491Y013008D03*
X001509Y013008D03*
X001518Y013008D03*
X001527Y013008D03*
X001536Y013008D03*
X001554Y013008D03*
X001563Y013008D03*
X001572Y013008D03*
X001581Y013008D03*
X001599Y013008D03*
X001608Y013008D03*
X001617Y013008D03*
X001626Y013008D03*
X001644Y013008D03*
X001653Y013008D03*
X001662Y013008D03*
X001671Y013008D03*
X001689Y013008D03*
X001698Y013008D03*
X001707Y013008D03*
X001338Y012684D03*
X001329Y012684D03*
X001239Y012684D03*
X001131Y012108D03*
X001122Y012108D03*
D22*
X001032Y012135D03*
X001554Y012189D03*
X001023Y012612D03*
X001014Y012603D03*
X000933Y013035D03*
X000924Y013035D03*
X001644Y013539D03*
X001653Y013539D03*
X001554Y014349D03*
X001554Y014754D03*
X002859Y017148D03*
X002814Y017166D03*
X002787Y017175D03*
X000402Y018966D03*
D23*
X000411Y018939D03*
X001581Y015411D03*
X000987Y014376D03*
X001599Y013521D03*
X000987Y013053D03*
X000978Y013053D03*
X001563Y012576D03*
D24*
X000870Y012419D03*
X001500Y015406D03*
X002445Y015659D03*
X002310Y016936D03*
X002220Y016973D03*
X002085Y017018D03*
X000420Y018908D03*
D25*
X000429Y018876D03*
X002724Y016770D03*
X002742Y016761D03*
D26*
X002868Y016680D03*
X002202Y015825D03*
X002193Y015825D03*
X000438Y018840D03*
D27*
X000447Y018809D03*
X002013Y015983D03*
D28*
X002949Y016586D03*
X001599Y014552D03*
X001599Y012392D03*
X000456Y018764D03*
D29*
X000465Y018723D03*
D30*
X000474Y018678D03*
X002013Y016833D03*
D31*
X000483Y018629D03*
D32*
X000492Y018579D03*
D33*
X000501Y018525D03*
D34*
X000510Y018466D03*
D35*
X000519Y018404D03*
X003021Y016216D03*
D36*
X001878Y016572D03*
X000528Y018336D03*
D37*
X000537Y018269D03*
D38*
X000546Y018197D03*
D39*
X000555Y018116D03*
D40*
X000564Y018039D03*
D41*
X000573Y017954D03*
D42*
X000582Y017855D03*
D43*
X000591Y017760D03*
D44*
X000600Y017656D03*
D45*
X000609Y017544D03*
D46*
X000618Y017431D03*
D47*
X000627Y017306D03*
D48*
X000636Y017171D03*
D49*
X000645Y017031D03*
D50*
X000654Y016874D03*
D51*
X000663Y016707D03*
D52*
X000672Y016532D03*
D53*
X000681Y016329D03*
D54*
X000690Y016109D03*
D55*
X000699Y015857D03*
D56*
X000708Y015541D03*
D57*
X000861Y015713D03*
X000879Y015704D03*
X000888Y015704D03*
X000897Y015704D03*
X000906Y015695D03*
X000924Y015695D03*
X000933Y015685D03*
X000942Y015685D03*
X000951Y015685D03*
X000969Y015676D03*
X000978Y015676D03*
X000987Y015668D03*
X000996Y015668D03*
X001014Y015659D03*
X001023Y015659D03*
X001203Y015595D03*
X001221Y015586D03*
X001248Y015578D03*
X001257Y015578D03*
X001284Y015569D03*
X001302Y015560D03*
X001329Y015550D03*
X001356Y015541D03*
X001383Y015533D03*
X001437Y015515D03*
X001464Y015316D03*
X001437Y015308D03*
X001428Y015308D03*
X001401Y015299D03*
X001383Y015290D03*
X001356Y015280D03*
X001329Y015271D03*
X001302Y015263D03*
X001248Y015245D03*
X000834Y014543D03*
X001131Y014281D03*
X000843Y013940D03*
X001716Y013940D03*
X001446Y012140D03*
X002877Y015704D03*
D58*
X002823Y015551D03*
X000834Y012410D03*
X000852Y012095D03*
X000861Y012095D03*
X000879Y012095D03*
X000888Y012095D03*
X000897Y012095D03*
X000906Y012095D03*
X000924Y012095D03*
X000933Y012095D03*
X000942Y012095D03*
D59*
X000879Y012423D03*
X001113Y013098D03*
X001122Y013098D03*
X001464Y013476D03*
X002616Y015636D03*
X002634Y015636D03*
X002643Y015636D03*
X002652Y015636D03*
X002661Y015636D03*
X002679Y015636D03*
X002688Y015636D03*
X002697Y015636D03*
X002706Y015636D03*
X002724Y015636D03*
X002733Y015636D03*
X001689Y016284D03*
X001581Y016266D03*
X001536Y016257D03*
X001527Y016257D03*
X001491Y016248D03*
X001482Y016248D03*
X001446Y016239D03*
X001437Y016239D03*
X001347Y016221D03*
X001338Y016221D03*
X001302Y016212D03*
X001293Y016212D03*
X001284Y016212D03*
X001257Y016203D03*
X001248Y016203D03*
X001239Y016203D03*
X001203Y016194D03*
X001194Y016194D03*
X001104Y016176D03*
X001059Y016167D03*
X001041Y016167D03*
X001014Y016158D03*
X000996Y016158D03*
X000951Y016149D03*
X000861Y016131D03*
X000852Y016131D03*
X002643Y016806D03*
X002652Y016806D03*
X002661Y016797D03*
X002688Y016788D03*
X001662Y017157D03*
X001563Y017193D03*
X001536Y017202D03*
X001464Y017229D03*
X001437Y017238D03*
X001338Y017274D03*
X001311Y017283D03*
X001266Y017301D03*
X001212Y017319D03*
X001167Y017337D03*
X001068Y017373D03*
X001041Y017382D03*
X001014Y017391D03*
X000969Y017409D03*
X000942Y017418D03*
X000888Y017436D03*
X000843Y017454D03*
D60*
X002499Y016865D03*
X002526Y016855D03*
X002544Y016846D03*
X002553Y016846D03*
X002562Y016838D03*
X002571Y016838D03*
X002589Y016829D03*
X002598Y016829D03*
X002607Y016820D03*
X002616Y016820D03*
X002634Y016810D03*
X001707Y016289D03*
X001698Y016289D03*
X001671Y016280D03*
X001662Y016280D03*
X001653Y016280D03*
X001644Y016280D03*
X001617Y016270D03*
X001608Y016270D03*
X001599Y016270D03*
X001572Y016261D03*
X001563Y016261D03*
X001554Y016261D03*
X001518Y016253D03*
X001509Y016253D03*
X001473Y016244D03*
X001464Y016244D03*
X001428Y016235D03*
X001419Y016235D03*
X001374Y016225D03*
X001356Y016225D03*
X001329Y016216D03*
X001311Y016216D03*
X001266Y016208D03*
X001221Y016199D03*
X001212Y016199D03*
X001176Y016190D03*
X001167Y016190D03*
X001131Y016180D03*
X001122Y016180D03*
X001113Y016180D03*
X001086Y016171D03*
X001077Y016171D03*
X001068Y016171D03*
X001032Y016163D03*
X001023Y016163D03*
X000987Y016154D03*
X000978Y016154D03*
X000969Y016154D03*
X000942Y016145D03*
X000933Y016145D03*
X000924Y016145D03*
X000888Y016135D03*
X000879Y016135D03*
X000843Y016126D03*
X001473Y015406D03*
X002508Y015650D03*
X002553Y015640D03*
X002562Y015640D03*
X002571Y015640D03*
X002589Y015640D03*
X002598Y015640D03*
X002607Y015640D03*
X002922Y015685D03*
X001473Y013480D03*
X001104Y013094D03*
D61*
X000843Y013008D03*
X000843Y013566D03*
X001716Y013008D03*
X001464Y015501D03*
X001446Y015510D03*
X001428Y015519D03*
X001419Y015519D03*
X001401Y015528D03*
X001392Y015528D03*
X001374Y015537D03*
X001347Y015546D03*
X001338Y015546D03*
X001311Y015555D03*
X001293Y015564D03*
X001266Y015573D03*
X001239Y015582D03*
X001212Y015591D03*
X001194Y015600D03*
X001032Y015654D03*
X000852Y015717D03*
X000843Y015717D03*
X002958Y016023D03*
X002031Y017841D03*
X002022Y017850D03*
X002013Y017850D03*
X002004Y017850D03*
X001986Y017859D03*
X001977Y017859D03*
X001239Y018129D03*
X001221Y018138D03*
X001212Y018138D03*
X001203Y018147D03*
X001194Y018147D03*
X001176Y018156D03*
X001167Y018156D03*
D62*
X001374Y015285D03*
X001239Y015240D03*
X000969Y015150D03*
X000843Y015105D03*
D63*
X000843Y014543D03*
X000996Y014354D03*
X001716Y014543D03*
X001626Y015406D03*
X001617Y015406D03*
X002796Y015586D03*
X002841Y017153D03*
X002832Y017161D03*
X002823Y017161D03*
X001716Y012383D03*
X001563Y012203D03*
D64*
X001536Y012171D03*
X001536Y012612D03*
X001527Y012621D03*
X001059Y012639D03*
X001041Y012630D03*
X001032Y012621D03*
X000843Y012414D03*
X000906Y013026D03*
X001203Y013233D03*
X001257Y013269D03*
X001284Y013287D03*
X001311Y013305D03*
X001338Y013323D03*
X001671Y013548D03*
X001527Y014322D03*
X001536Y014331D03*
X001536Y014772D03*
X001527Y014781D03*
X001032Y014781D03*
X001014Y014331D03*
X001662Y015411D03*
D65*
X002049Y018422D03*
X002022Y018431D03*
X002004Y018440D03*
X001977Y018449D03*
X000843Y012095D03*
D66*
X001554Y018084D03*
X001356Y018156D03*
X001329Y018165D03*
X001257Y018192D03*
X001158Y018228D03*
X001131Y018237D03*
X001104Y018246D03*
X001059Y018264D03*
X001032Y018273D03*
X000933Y018309D03*
X000906Y018318D03*
X000879Y018327D03*
X000861Y018336D03*
X000852Y018336D03*
D67*
X000852Y017450D03*
X000861Y017450D03*
X000879Y017441D03*
X000897Y017431D03*
X000906Y017431D03*
X000924Y017423D03*
X000933Y017423D03*
X000951Y017414D03*
X000978Y017405D03*
X000996Y017396D03*
X001023Y017386D03*
X001032Y017386D03*
X001059Y017378D03*
X001077Y017369D03*
X001086Y017369D03*
X001104Y017360D03*
X001122Y017351D03*
X001131Y017351D03*
X001149Y017341D03*
X001158Y017341D03*
X001176Y017333D03*
X001194Y017324D03*
X001203Y017324D03*
X001221Y017315D03*
X001248Y017306D03*
X001257Y017306D03*
X001284Y017296D03*
X001293Y017288D03*
X001302Y017288D03*
X001329Y017279D03*
X001347Y017270D03*
X001356Y017270D03*
X001374Y017261D03*
X001383Y017261D03*
X001392Y017251D03*
X001401Y017251D03*
X001419Y017243D03*
X001428Y017243D03*
X001446Y017234D03*
X001473Y017225D03*
X001482Y017225D03*
X001491Y017216D03*
X001509Y017216D03*
X001518Y017206D03*
X001527Y017206D03*
X001554Y017198D03*
X001572Y017189D03*
X001581Y017189D03*
X001599Y017180D03*
X001608Y017180D03*
X001617Y017171D03*
X001626Y017171D03*
X001644Y017161D03*
X001653Y017161D03*
X001671Y017153D03*
X001689Y017144D03*
X001698Y017144D03*
X001707Y017144D03*
X002679Y016793D03*
X002697Y016784D03*
X002706Y016775D03*
X002733Y016766D03*
X002742Y015641D03*
X001446Y013471D03*
X001437Y013471D03*
X001131Y013103D03*
D68*
X000861Y013013D03*
X001149Y012671D03*
X001158Y012671D03*
X001176Y012680D03*
X001194Y012680D03*
X001203Y012680D03*
X001212Y012680D03*
X001221Y012680D03*
X001248Y012689D03*
X001257Y012689D03*
X001266Y012689D03*
X001284Y012689D03*
X001293Y012689D03*
X001302Y012689D03*
X001311Y012689D03*
X001347Y012680D03*
X001356Y012680D03*
X001374Y012680D03*
X001383Y012680D03*
X001392Y012680D03*
X001401Y012671D03*
X001419Y012671D03*
X001428Y012671D03*
X001446Y012661D03*
X001113Y012661D03*
X001473Y012140D03*
X001482Y012140D03*
X001464Y012131D03*
X001113Y012113D03*
X001104Y012113D03*
X001104Y013940D03*
X001113Y013940D03*
X001122Y013940D03*
X001131Y013940D03*
X001149Y013940D03*
X001158Y013940D03*
X001167Y013940D03*
X001176Y013940D03*
X001194Y013940D03*
X001203Y013940D03*
X001212Y013940D03*
X001221Y013940D03*
X001239Y013940D03*
X001248Y013940D03*
X001257Y013940D03*
X001266Y013940D03*
X001284Y013940D03*
X001293Y013940D03*
X001302Y013940D03*
X001311Y013940D03*
X001329Y013940D03*
X001338Y013940D03*
X001347Y013940D03*
X001356Y013940D03*
X001374Y013940D03*
X001383Y013940D03*
X001392Y013940D03*
X001401Y013940D03*
X001419Y013940D03*
X001428Y013940D03*
X001437Y013940D03*
X001446Y013940D03*
X001464Y013940D03*
X001473Y013940D03*
X001482Y013940D03*
X001491Y013940D03*
X001509Y013940D03*
X001518Y013940D03*
X001527Y013940D03*
X001536Y013940D03*
X001554Y013940D03*
X001563Y013940D03*
X001572Y013940D03*
X001581Y013940D03*
X001599Y013940D03*
X001608Y013940D03*
X001617Y013940D03*
X001626Y013940D03*
X001644Y013940D03*
X001653Y013940D03*
X001662Y013940D03*
X001671Y013940D03*
X001689Y013940D03*
X001698Y013940D03*
X001707Y013940D03*
X001086Y013940D03*
X001077Y013940D03*
X001068Y013940D03*
X001059Y013940D03*
X001041Y013940D03*
X001032Y013940D03*
X001023Y013940D03*
X001014Y013940D03*
X000996Y013940D03*
X000987Y013940D03*
X000978Y013940D03*
X000969Y013940D03*
X000951Y013940D03*
X000942Y013940D03*
X000933Y013940D03*
X000924Y013940D03*
X000906Y013940D03*
X000897Y013940D03*
X000888Y013940D03*
X000879Y013940D03*
X000861Y013940D03*
X000852Y013940D03*
X001068Y014300D03*
X001086Y014291D03*
X001104Y014281D03*
X001113Y014281D03*
X001122Y014281D03*
X001113Y014821D03*
X001149Y014831D03*
X001158Y014831D03*
X001167Y014840D03*
X001176Y014840D03*
X001194Y014840D03*
X001203Y014840D03*
X001212Y014840D03*
X001221Y014840D03*
X001266Y014849D03*
X001284Y014849D03*
X001293Y014849D03*
X001338Y014840D03*
X001347Y014840D03*
X001356Y014840D03*
X001374Y014840D03*
X001383Y014840D03*
X001392Y014840D03*
X001401Y014831D03*
X001419Y014831D03*
X001428Y014831D03*
X001437Y014821D03*
X001446Y014821D03*
X001032Y015173D03*
X001014Y015164D03*
X000987Y015155D03*
X000978Y015155D03*
X000951Y015146D03*
X000933Y015136D03*
X000924Y015136D03*
X000906Y015128D03*
X000897Y015128D03*
X000888Y015119D03*
X000879Y015119D03*
X000861Y015110D03*
X000852Y015110D03*
X001698Y015406D03*
X001707Y015406D03*
D69*
X001554Y015407D03*
X001707Y014543D03*
X000852Y014543D03*
X001554Y013508D03*
X001023Y013067D03*
X000987Y012563D03*
X000861Y012419D03*
X001707Y012383D03*
X002976Y015695D03*
D70*
X001599Y015406D03*
X001563Y014740D03*
X001608Y013525D03*
X000969Y013049D03*
X000996Y012580D03*
X000852Y012419D03*
D71*
X001086Y013089D03*
X001482Y013485D03*
X001491Y013485D03*
X001698Y014547D03*
X000861Y014547D03*
X001482Y015411D03*
X002472Y015654D03*
X002481Y015654D03*
X002499Y015654D03*
X002517Y015645D03*
X002526Y015645D03*
X002544Y015645D03*
X002913Y015681D03*
X002517Y016860D03*
X002508Y016860D03*
X002481Y016869D03*
X002472Y016878D03*
X002463Y016878D03*
X002454Y016887D03*
X002436Y016887D03*
X002427Y016896D03*
X002418Y016896D03*
X002391Y016905D03*
X002373Y016914D03*
X002346Y016923D03*
X002328Y016932D03*
X002301Y016941D03*
X002256Y016959D03*
X002229Y016968D03*
X002202Y016977D03*
X002103Y017013D03*
X001698Y012387D03*
D72*
X002985Y017566D03*
X002760Y017648D03*
X002715Y017665D03*
X002580Y017710D03*
X002535Y017729D03*
X002490Y017746D03*
X002355Y017791D03*
X002310Y017810D03*
X002265Y017828D03*
X002220Y017845D03*
X002130Y017873D03*
X002085Y017890D03*
X001905Y017954D03*
X001860Y017971D03*
X001815Y017990D03*
X001770Y018008D03*
X001725Y018025D03*
X001680Y018035D03*
X001545Y018089D03*
X001500Y018106D03*
X001410Y018134D03*
X001365Y018151D03*
X001320Y018170D03*
X001275Y018188D03*
X001140Y018233D03*
X001095Y018250D03*
X001050Y018269D03*
X000915Y018314D03*
X000870Y018331D03*
D73*
X000870Y017445D03*
X001365Y017265D03*
X002625Y016815D03*
X001635Y016275D03*
X001140Y016185D03*
X000915Y016140D03*
D74*
X000960Y016149D03*
X001005Y016158D03*
X001050Y016167D03*
X001095Y016176D03*
X000870Y016131D03*
X001545Y016257D03*
X001590Y016266D03*
X001680Y016284D03*
X002670Y016797D03*
X001635Y017166D03*
X001410Y017247D03*
X001140Y017346D03*
X000915Y017427D03*
X002625Y015636D03*
X002670Y015636D03*
X002715Y015636D03*
X001455Y013476D03*
D75*
X001725Y014543D03*
X001410Y015299D03*
X001455Y015316D03*
X001455Y015505D03*
X001410Y015524D03*
X001275Y015569D03*
X001230Y015586D03*
X000960Y015676D03*
X000915Y015695D03*
X000870Y015713D03*
X001275Y015254D03*
X001725Y012383D03*
D76*
X001455Y012131D03*
X001095Y012113D03*
X001140Y012671D03*
X001185Y012680D03*
X001230Y012680D03*
X001275Y012689D03*
X001320Y012689D03*
X001365Y012680D03*
X001410Y012671D03*
X000870Y013013D03*
X000870Y013940D03*
X000915Y013940D03*
X000960Y013940D03*
X001005Y013940D03*
X001050Y013940D03*
X001095Y013940D03*
X001140Y013940D03*
X001185Y013940D03*
X001230Y013940D03*
X001275Y013940D03*
X001320Y013940D03*
X001365Y013940D03*
X001410Y013940D03*
X001455Y013940D03*
X001500Y013940D03*
X001545Y013940D03*
X001590Y013940D03*
X001635Y013940D03*
X001680Y013940D03*
X001455Y014291D03*
X001095Y014291D03*
X001140Y014831D03*
X001185Y014840D03*
X001275Y014849D03*
X001365Y014840D03*
X001410Y014831D03*
X001005Y015164D03*
X000960Y015146D03*
X000915Y015128D03*
X000870Y015119D03*
D77*
X000870Y014547D03*
X001140Y013107D03*
X002760Y016752D03*
D78*
X001320Y015267D03*
X001185Y015222D03*
X001230Y014844D03*
X001320Y014844D03*
X001320Y013566D03*
X001365Y013566D03*
X001275Y013566D03*
X001230Y013566D03*
X001185Y013566D03*
X001140Y013566D03*
X001095Y013566D03*
X001050Y013566D03*
X001005Y013566D03*
X000960Y013566D03*
X000915Y013566D03*
X000870Y013566D03*
X001185Y013008D03*
X001230Y013008D03*
X001275Y013008D03*
X001320Y013008D03*
X001365Y013008D03*
X001410Y013008D03*
X001455Y013008D03*
X001500Y013008D03*
X001545Y013008D03*
X001590Y013008D03*
X001635Y013008D03*
X001680Y013008D03*
D79*
X000915Y012095D03*
X000870Y012095D03*
D80*
X000879Y014547D03*
X002832Y016707D03*
X002823Y016716D03*
D81*
X001482Y014808D03*
X001473Y014808D03*
X001464Y014817D03*
X001104Y014817D03*
X001086Y014808D03*
X001077Y014808D03*
X001041Y014313D03*
X001698Y013557D03*
X001707Y013557D03*
X000879Y013017D03*
X001104Y012657D03*
X001464Y012657D03*
X001473Y012648D03*
X001482Y012648D03*
X001509Y012153D03*
X001086Y012117D03*
X001077Y012117D03*
D82*
X003084Y016244D03*
X003156Y017504D03*
X003111Y017521D03*
X003084Y017530D03*
X003057Y017540D03*
X003012Y017558D03*
X002958Y017575D03*
X002931Y017585D03*
X002913Y017594D03*
X002886Y017603D03*
X002733Y017656D03*
X002706Y017665D03*
X002688Y017675D03*
X002661Y017684D03*
X002634Y017693D03*
X002616Y017701D03*
X002607Y017701D03*
X002589Y017710D03*
X002562Y017720D03*
X002517Y017738D03*
X002508Y017738D03*
X002481Y017746D03*
X002364Y017791D03*
X002337Y017800D03*
X002319Y017810D03*
X002292Y017819D03*
X002283Y017819D03*
X002256Y017828D03*
X002238Y017836D03*
X002211Y017845D03*
X002193Y017855D03*
X002184Y017855D03*
X002166Y017864D03*
X002157Y017864D03*
X002139Y017873D03*
X002121Y017881D03*
X002112Y017881D03*
X002094Y017890D03*
X002067Y017900D03*
X002058Y017900D03*
X001968Y017935D03*
X001959Y017935D03*
X001941Y017945D03*
X001932Y017945D03*
X001923Y017954D03*
X001914Y017954D03*
X001896Y017963D03*
X001887Y017963D03*
X001869Y017971D03*
X001842Y017980D03*
X001833Y017980D03*
X001824Y017990D03*
X001806Y017990D03*
X001797Y017999D03*
X001788Y017999D03*
X001761Y018008D03*
X001743Y018016D03*
X001734Y018016D03*
X001716Y018025D03*
X001707Y018025D03*
X001698Y018035D03*
X001689Y018035D03*
X001671Y018044D03*
X001536Y018089D03*
X001527Y018098D03*
X001518Y018098D03*
X001509Y018098D03*
X001491Y018106D03*
X001482Y018106D03*
X001473Y018115D03*
X001464Y018115D03*
X001446Y018125D03*
X001437Y018125D03*
X001428Y018134D03*
X001419Y018134D03*
X001401Y018143D03*
X001392Y018143D03*
X001383Y018143D03*
X001374Y018151D03*
X001347Y018160D03*
X001338Y018160D03*
X001311Y018170D03*
X001302Y018179D03*
X001293Y018179D03*
X001284Y018179D03*
X001266Y018188D03*
X001248Y018196D03*
X001149Y018233D03*
X001122Y018241D03*
X001113Y018241D03*
X001086Y018250D03*
X001077Y018260D03*
X001068Y018260D03*
X001041Y018269D03*
X001023Y018278D03*
X001014Y018278D03*
X000996Y018286D03*
X000987Y018286D03*
X000978Y018295D03*
X000969Y018295D03*
X000951Y018305D03*
X000942Y018305D03*
X000924Y018314D03*
X000897Y018323D03*
X000888Y018323D03*
D83*
X002067Y015906D03*
X002076Y015897D03*
X002094Y015879D03*
X002121Y015861D03*
X002139Y015852D03*
X002148Y015843D03*
X002157Y015843D03*
X000888Y014547D03*
X001671Y012387D03*
D84*
X001527Y012167D03*
X001518Y012158D03*
X001068Y012122D03*
X001059Y012122D03*
X001068Y012644D03*
X001077Y012644D03*
X001086Y012653D03*
X001491Y012644D03*
X001509Y012635D03*
X001518Y012626D03*
X000897Y013022D03*
X000888Y013022D03*
X001194Y013229D03*
X001212Y013238D03*
X001221Y013247D03*
X001239Y013256D03*
X001248Y013265D03*
X001266Y013274D03*
X001293Y013292D03*
X001302Y013301D03*
X001329Y013319D03*
X001347Y013328D03*
X001356Y013337D03*
X001374Y013346D03*
X001383Y013355D03*
X001689Y013553D03*
X001518Y014318D03*
X001509Y014318D03*
X001032Y014318D03*
X001023Y014327D03*
X001041Y014786D03*
X001068Y014804D03*
X001491Y014804D03*
X001509Y014795D03*
X001518Y014786D03*
X001671Y015407D03*
X002886Y015677D03*
D85*
X001689Y014547D03*
X001428Y013467D03*
X001149Y013107D03*
X000888Y012423D03*
X001689Y012387D03*
X002031Y017022D03*
D86*
X001239Y017310D03*
X001113Y017355D03*
X000987Y017400D03*
X001149Y016185D03*
X001158Y016185D03*
X001383Y016230D03*
X001392Y016230D03*
X001401Y016230D03*
X001626Y016275D03*
X000906Y016140D03*
X000897Y016140D03*
X002751Y015645D03*
D87*
X002247Y015807D03*
X002886Y016662D03*
X000897Y014547D03*
D88*
X000897Y012428D03*
D89*
X000942Y012432D03*
X001653Y012387D03*
X001653Y014547D03*
X000906Y014547D03*
X002904Y016644D03*
D90*
X002841Y016703D03*
X000906Y012428D03*
D91*
X000915Y014547D03*
D92*
X001005Y014345D03*
X000915Y013031D03*
D93*
X000915Y012428D03*
X002175Y015830D03*
D94*
X002922Y016626D03*
X000924Y014547D03*
D95*
X001662Y014543D03*
X002229Y015811D03*
X002238Y015811D03*
X002211Y015821D03*
X002031Y015946D03*
X002877Y016676D03*
X000924Y012428D03*
D96*
X001626Y012387D03*
X001626Y014547D03*
X000933Y014547D03*
D97*
X002256Y015803D03*
X002274Y015803D03*
X002022Y015965D03*
X000933Y012428D03*
D98*
X000942Y014547D03*
X001617Y014547D03*
D99*
X000942Y013040D03*
X001554Y012590D03*
X001023Y012140D03*
X002796Y017171D03*
D100*
X001149Y015411D03*
X000951Y014547D03*
X001608Y014547D03*
D101*
X001563Y014358D03*
X000996Y014745D03*
X001608Y015411D03*
X001617Y013530D03*
X001626Y013530D03*
X000951Y013044D03*
X001014Y012144D03*
D102*
X000951Y012351D03*
D103*
X001455Y018120D03*
X001005Y018282D03*
X000960Y018300D03*
D104*
X000960Y017414D03*
X001005Y017396D03*
X001050Y017378D03*
X001095Y017360D03*
X001185Y017333D03*
X001230Y017315D03*
X001275Y017296D03*
X001320Y017279D03*
X001455Y017234D03*
X001500Y017216D03*
X001545Y017198D03*
X001590Y017180D03*
X001680Y017153D03*
X002715Y016775D03*
D105*
X001140Y015407D03*
X000960Y014552D03*
D106*
X000960Y013044D03*
X001005Y012594D03*
D107*
X000960Y012356D03*
D108*
X001581Y012391D03*
X000969Y014551D03*
X001113Y015406D03*
D109*
X000969Y012356D03*
D110*
X001572Y012391D03*
X001572Y014551D03*
X000978Y014551D03*
X001086Y015406D03*
X002022Y016900D03*
D111*
X000978Y012360D03*
D112*
X000996Y013058D03*
X001581Y013516D03*
X000987Y014723D03*
X001572Y015406D03*
X002904Y015641D03*
D113*
X002949Y015690D03*
X002436Y015663D03*
X002427Y015663D03*
X002418Y015663D03*
X002409Y015663D03*
X002391Y015672D03*
X002301Y015708D03*
X002292Y015717D03*
X001509Y015411D03*
X001509Y013494D03*
X001518Y013494D03*
X001068Y013080D03*
X001059Y013080D03*
X000987Y012180D03*
D114*
X000996Y012162D03*
X001014Y013062D03*
X001563Y013512D03*
X001572Y013512D03*
D115*
X001365Y015537D03*
X001320Y015555D03*
X001185Y015600D03*
X001005Y015663D03*
X001995Y017859D03*
X002040Y017841D03*
X001230Y018138D03*
D116*
X001635Y015411D03*
X001545Y014763D03*
X001545Y014340D03*
X001005Y014754D03*
X001545Y012603D03*
D117*
X001005Y013062D03*
D118*
X001590Y013521D03*
X001005Y012153D03*
X001590Y015411D03*
D119*
X001014Y014768D03*
D120*
X001023Y014777D03*
X001644Y015407D03*
X001653Y015407D03*
X001662Y013544D03*
X001041Y012131D03*
D121*
X001041Y013071D03*
X001032Y013071D03*
X001536Y013503D03*
X001536Y015411D03*
X002967Y015690D03*
D122*
X001041Y015407D03*
D123*
X001050Y015411D03*
D124*
X001050Y014795D03*
X001050Y014309D03*
X001500Y014309D03*
X001320Y013310D03*
X001275Y013283D03*
X001185Y013220D03*
X001500Y012635D03*
X001680Y015407D03*
X002805Y015578D03*
D125*
X002310Y015704D03*
X001050Y013076D03*
D126*
X001230Y013251D03*
X001365Y013341D03*
X001680Y013548D03*
X001050Y012630D03*
X001545Y012180D03*
X001050Y012126D03*
D127*
X001059Y015406D03*
X001068Y015406D03*
D128*
X001122Y014826D03*
X001131Y014826D03*
X001059Y014799D03*
X001059Y014304D03*
X001077Y014295D03*
X001464Y014295D03*
X001473Y014295D03*
X001482Y014304D03*
X001491Y014304D03*
X001689Y015411D03*
X001437Y012666D03*
X001167Y012675D03*
X001131Y012666D03*
X001122Y012666D03*
X001491Y012144D03*
D129*
X001077Y015411D03*
D130*
X002931Y015686D03*
X002409Y016901D03*
X002382Y016910D03*
X002292Y016946D03*
X002283Y016946D03*
X002274Y016955D03*
X002166Y016991D03*
X002157Y016991D03*
X002148Y017000D03*
X002139Y017000D03*
X002049Y017036D03*
X001077Y013085D03*
X001149Y012185D03*
X001158Y012185D03*
X001167Y012185D03*
X001176Y012185D03*
X001194Y012185D03*
X001203Y012185D03*
X001212Y012185D03*
X001221Y012185D03*
X001239Y012185D03*
X001248Y012185D03*
X001257Y012185D03*
X001266Y012185D03*
D131*
X001095Y015411D03*
D132*
X001095Y014817D03*
X001455Y014817D03*
X001455Y012657D03*
X001095Y012657D03*
X001500Y012153D03*
D133*
X001095Y013089D03*
X002490Y015654D03*
X002535Y015645D03*
X002760Y015636D03*
X002535Y016851D03*
X002490Y016869D03*
X002445Y016887D03*
X002400Y016905D03*
X002355Y016923D03*
X002130Y017004D03*
D134*
X002958Y016563D03*
X001104Y015411D03*
X001581Y014547D03*
D135*
X001131Y015411D03*
X001122Y015411D03*
D136*
X001140Y014304D03*
X002040Y018426D03*
X001230Y018714D03*
X001185Y018732D03*
D137*
X002040Y017036D03*
X002175Y016991D03*
X002265Y016955D03*
X002940Y015686D03*
X001500Y013490D03*
X001275Y012185D03*
X001230Y012185D03*
X001185Y012185D03*
X001140Y012185D03*
D138*
X001149Y014322D03*
X002841Y015528D03*
X002859Y015753D03*
D139*
X001167Y015407D03*
X001158Y015407D03*
X001608Y012392D03*
D140*
X001158Y014340D03*
X002859Y015501D03*
X002319Y016032D03*
X002544Y016131D03*
D141*
X002787Y016739D03*
X002769Y016748D03*
X002751Y016757D03*
X001419Y013463D03*
X001158Y013112D03*
D142*
X001437Y012153D03*
X001437Y014322D03*
X002832Y015537D03*
X002868Y015726D03*
X002031Y018426D03*
X002013Y018435D03*
X001986Y018444D03*
X001239Y018714D03*
X001221Y018723D03*
X001212Y018723D03*
X001194Y018732D03*
X001176Y018741D03*
X001167Y018741D03*
D143*
X002868Y015492D03*
X001167Y014358D03*
D144*
X001401Y013458D03*
X001167Y013116D03*
X002796Y016734D03*
X002778Y016743D03*
D145*
X001176Y015411D03*
D146*
X002814Y016721D03*
X001392Y013454D03*
X001176Y013121D03*
D147*
X001185Y018151D03*
D148*
X002580Y016829D03*
X001500Y016253D03*
X001455Y016244D03*
X001410Y016235D03*
X001365Y016225D03*
X001320Y016216D03*
X001275Y016208D03*
X001230Y016199D03*
X001185Y016190D03*
X002580Y015640D03*
D149*
X001203Y018728D03*
D150*
X001365Y015285D03*
X001230Y015240D03*
D151*
X001410Y014363D03*
D152*
X001410Y013463D03*
D153*
X001410Y012198D03*
D154*
X001419Y012180D03*
X001419Y014349D03*
X002373Y016041D03*
X002382Y016041D03*
X002391Y016041D03*
X002508Y016104D03*
X002517Y016113D03*
X002526Y016122D03*
D155*
X001428Y012166D03*
D156*
X001446Y014309D03*
X002049Y017836D03*
D157*
X002058Y017026D03*
X002067Y017026D03*
X002076Y017026D03*
X002094Y017018D03*
X002112Y017009D03*
X002121Y017009D03*
X002184Y016981D03*
X002193Y016981D03*
X002211Y016973D03*
X002238Y016964D03*
X002247Y016964D03*
X002319Y016936D03*
X002337Y016928D03*
X002364Y016919D03*
X002283Y015721D03*
X002454Y015659D03*
X002463Y015659D03*
X001491Y015406D03*
D158*
X001500Y014799D03*
D159*
X001518Y015407D03*
X001527Y015407D03*
X002319Y015695D03*
X002328Y015695D03*
X002337Y015686D03*
X002346Y015686D03*
X002364Y015677D03*
X002373Y015677D03*
X002382Y015677D03*
X002958Y015686D03*
X001527Y013499D03*
D160*
X001545Y015407D03*
D161*
X002355Y015681D03*
X001545Y013503D03*
D162*
X001563Y015411D03*
X002778Y015609D03*
D163*
X001590Y014551D03*
X001590Y012391D03*
D164*
X001617Y012391D03*
D165*
X001635Y012387D03*
X001635Y014547D03*
D166*
X001635Y013535D03*
X002895Y015650D03*
X002805Y017171D03*
D167*
X002913Y016635D03*
X001644Y014547D03*
X001644Y012387D03*
D168*
X001662Y012387D03*
D169*
X001671Y014543D03*
X002184Y015830D03*
X002166Y015839D03*
X002058Y015910D03*
X002049Y015920D03*
X002859Y016685D03*
D170*
X001680Y014543D03*
X001680Y012383D03*
D171*
X003057Y016230D03*
X001716Y016716D03*
D172*
X001725Y016716D03*
D173*
X001734Y016712D03*
X003066Y016235D03*
D174*
X001752Y016716D03*
X001743Y016716D03*
D175*
X002724Y017661D03*
X002742Y017652D03*
X002751Y017652D03*
X002769Y017643D03*
X002778Y017643D03*
X002868Y017607D03*
X002877Y017607D03*
X002904Y017598D03*
X002922Y017589D03*
X002967Y017571D03*
X002976Y017571D03*
X002994Y017562D03*
X003003Y017562D03*
X003021Y017553D03*
X003039Y017544D03*
X003048Y017544D03*
X003093Y017526D03*
X003102Y017526D03*
X003129Y017517D03*
X003138Y017508D03*
X003147Y017508D03*
X003174Y017499D03*
X002679Y017679D03*
X002652Y017688D03*
X002643Y017688D03*
X002598Y017706D03*
X002553Y017724D03*
X002544Y017724D03*
X002526Y017733D03*
X002499Y017742D03*
X002346Y017796D03*
X002301Y017814D03*
X002274Y017823D03*
X002247Y017832D03*
X002229Y017841D03*
X002148Y017868D03*
X002103Y017886D03*
X001878Y017967D03*
X001851Y017976D03*
X001779Y018003D03*
X001752Y018012D03*
D176*
X001761Y016711D03*
X001779Y016711D03*
D177*
X001770Y016711D03*
D178*
X001788Y016685D03*
D179*
X001797Y016666D03*
D180*
X001806Y016649D03*
X003003Y016208D03*
D181*
X001815Y016635D03*
D182*
X001824Y016626D03*
D183*
X001833Y016613D03*
D184*
X001842Y016604D03*
D185*
X001851Y016595D03*
D186*
X001860Y016586D03*
D187*
X001869Y016577D03*
D188*
X001887Y016559D03*
D189*
X001896Y016554D03*
D190*
X001905Y016550D03*
D191*
X001914Y016541D03*
D192*
X001923Y016531D03*
D193*
X001932Y016527D03*
X001941Y016518D03*
D194*
X002940Y017580D03*
X003075Y017535D03*
X001950Y017940D03*
D195*
X001950Y016514D03*
D196*
X001959Y016505D03*
D197*
X001968Y016500D03*
D198*
X001977Y016496D03*
X001986Y016487D03*
D199*
X001995Y018440D03*
D200*
X001995Y016482D03*
D201*
X002004Y016478D03*
D202*
X002040Y015933D03*
D203*
X002697Y017670D03*
X002571Y017715D03*
X002328Y017805D03*
X002202Y017850D03*
X002076Y017895D03*
X002949Y017580D03*
X003066Y017535D03*
D204*
X002850Y016698D03*
X002085Y015888D03*
D205*
X002103Y015875D03*
X002112Y015866D03*
D206*
X002130Y015856D03*
D207*
X002895Y017598D03*
X003030Y017553D03*
X003120Y017517D03*
X003165Y017499D03*
X002670Y017679D03*
X002625Y017697D03*
X002175Y017859D03*
D208*
X002220Y015821D03*
D209*
X002265Y015803D03*
X002895Y016658D03*
D210*
X002499Y016100D03*
X002409Y016046D03*
X002283Y016010D03*
D211*
X002301Y016028D03*
D212*
X002310Y016032D03*
D213*
X002355Y016037D03*
X002535Y016127D03*
D214*
X002490Y016091D03*
X002400Y016046D03*
X002850Y015515D03*
D215*
X002400Y015668D03*
D216*
X002418Y016050D03*
X002427Y016050D03*
X002436Y016059D03*
X002454Y016068D03*
X002463Y016068D03*
X002472Y016077D03*
D217*
X002445Y016059D03*
D218*
X002481Y016081D03*
D219*
X002562Y016140D03*
D220*
X002769Y015623D03*
D221*
X002787Y015600D03*
D222*
X002805Y016725D03*
D223*
X002841Y015807D03*
D224*
X002850Y017153D03*
D225*
X002850Y015780D03*
D226*
X002931Y016613D03*
D227*
X002940Y016604D03*
D228*
X002967Y016388D03*
D229*
X002976Y016370D03*
D230*
X002985Y016208D03*
D231*
X002994Y016208D03*
D232*
X003012Y016212D03*
D233*
X003030Y016216D03*
D234*
X003039Y016221D03*
D235*
X003048Y016226D03*
D236*
X003075Y016239D03*
D237*
X003093Y016253D03*
D238*
X003102Y016257D03*
D239*
X003111Y016262D03*
D240*
X003120Y016275D03*
D241*
X003129Y016280D03*
D242*
X003138Y016293D03*
D243*
X003147Y016311D03*
D244*
X003156Y016325D03*
D245*
X003165Y016347D03*
D246*
X003174Y016392D03*
D247*
X008188Y015979D02*
X008188Y015800D01*
X011182Y015800D01*
X011182Y016979D01*
X011182Y016956D01*
X011182Y016979D02*
X011182Y017060D01*
X008188Y017060D01*
X008188Y015979D01*
X008188Y015881D01*
X009405Y016255D02*
X009405Y016605D01*
X009555Y016605D02*
X009405Y016430D01*
X009555Y016255D01*
X009555Y016605D01*
X008188Y017175D02*
X008188Y017354D01*
X008188Y018435D01*
X011182Y018435D01*
X011182Y018354D01*
X011182Y017175D01*
X008188Y017175D01*
X008188Y017256D02*
X008188Y017354D01*
X009405Y017630D02*
X009405Y017980D01*
X009555Y017980D02*
X009405Y017805D01*
X009555Y017630D01*
X009555Y017980D01*
X008188Y018550D02*
X008188Y018729D01*
X008188Y019810D01*
X011182Y019810D01*
X011182Y019729D01*
X011182Y018550D01*
X008188Y018550D01*
X008188Y018631D02*
X008188Y018729D01*
X009405Y019005D02*
X009405Y019355D01*
X009555Y019355D02*
X009405Y019180D01*
X009555Y019005D01*
X009555Y019355D01*
X011182Y019706D02*
X011182Y019729D01*
X011759Y019388D02*
X011759Y016238D01*
X018649Y016238D01*
X018649Y019388D01*
X011759Y019388D01*
X011182Y018354D02*
X011182Y018331D01*
X012080Y020705D02*
X012530Y021005D01*
X012455Y021165D02*
X012530Y021240D01*
X012530Y021391D01*
X012455Y021466D01*
X012380Y021466D01*
X012305Y021391D01*
X012305Y021316D01*
X012305Y021391D02*
X012230Y021466D01*
X012155Y021466D01*
X012080Y021391D01*
X012080Y021240D01*
X012155Y021165D01*
X012080Y021005D02*
X012530Y020705D01*
X012830Y020705D02*
X013280Y021005D01*
X013055Y021165D02*
X013055Y021466D01*
X013280Y021391D02*
X012830Y021391D01*
X013055Y021165D01*
X012830Y021005D02*
X013280Y020705D01*
X019688Y019810D02*
X019688Y018729D01*
X019688Y018550D01*
X022682Y018550D01*
X022682Y019729D01*
X022682Y019706D01*
X022682Y019729D02*
X022682Y019810D01*
X019688Y019810D01*
X020905Y019355D02*
X020905Y019005D01*
X021055Y019005D02*
X020905Y019180D01*
X021055Y019355D01*
X021055Y019005D01*
X019688Y018729D02*
X019688Y018631D01*
X019688Y018435D02*
X022682Y018435D01*
X022682Y018354D01*
X022682Y017175D01*
X019688Y017175D01*
X019688Y017354D01*
X019688Y018435D01*
X020905Y017980D02*
X020905Y017630D01*
X021055Y017630D02*
X020905Y017805D01*
X021055Y017980D01*
X021055Y017630D01*
X019688Y017354D02*
X019688Y017256D01*
X022682Y018331D02*
X022682Y018354D01*
X023259Y019388D02*
X023259Y016238D01*
X030149Y016238D01*
X030149Y019388D01*
X023259Y019388D01*
X022952Y015088D02*
X022952Y011888D01*
X019015Y011888D01*
X019015Y008789D01*
X022952Y008789D01*
X022952Y005588D01*
X026759Y005588D01*
X029515Y008396D01*
X026759Y008396D01*
X026759Y005588D01*
X029515Y008396D02*
X029515Y012281D01*
X026759Y012281D01*
X026759Y015088D01*
X022952Y015088D01*
X019015Y011888D01*
X018015Y012281D02*
X015259Y012281D01*
X015259Y015088D01*
X011452Y015088D01*
X011452Y011888D01*
X007515Y011888D01*
X007515Y008789D01*
X011452Y008789D01*
X011452Y005588D01*
X015259Y005588D01*
X018015Y008396D01*
X015259Y008396D01*
X015259Y005588D01*
X018015Y008396D02*
X018015Y012281D01*
X011452Y015088D02*
X007515Y011888D01*
X003530Y020080D02*
X003080Y020380D01*
X003155Y020540D02*
X003080Y020615D01*
X003080Y020766D01*
X003155Y020841D01*
X003230Y020841D01*
X003530Y020540D01*
X003530Y020841D01*
X003530Y020380D02*
X003080Y020080D01*
X030515Y011888D02*
X030515Y008789D01*
X034452Y008789D01*
X034452Y005588D01*
X038259Y005588D01*
X041015Y008396D01*
X038259Y008396D01*
X038259Y005588D01*
X041015Y008396D02*
X041015Y012281D01*
X038259Y012281D01*
X038259Y015088D01*
X034452Y015088D01*
X034452Y011888D01*
X030515Y011888D01*
X034452Y015088D01*
X034759Y016238D02*
X034759Y019388D01*
X041649Y019388D01*
X041649Y016238D01*
X034759Y016238D01*
X042015Y011888D02*
X042015Y008789D01*
X045952Y008789D01*
X045952Y005588D01*
X049759Y005588D01*
X052515Y008396D01*
X049759Y008396D01*
X049759Y005588D01*
X052515Y008396D02*
X052515Y012281D01*
X049759Y012281D01*
X049759Y015088D01*
X045952Y015088D01*
X045952Y011888D01*
X042015Y011888D01*
X045952Y015088D01*
X046259Y016238D02*
X046259Y019388D01*
X053149Y019388D01*
X053149Y016238D01*
X046259Y016238D01*
D248*
X048054Y021100D02*
X048054Y021510D01*
X048259Y021510D01*
X048328Y021442D01*
X048328Y021305D01*
X048259Y021237D01*
X048054Y021237D01*
X048191Y021237D02*
X048328Y021100D01*
X048515Y021100D02*
X048515Y021168D01*
X048788Y021442D01*
X048788Y021510D01*
X048515Y021510D01*
X040334Y021260D02*
X040060Y021260D01*
X040060Y021055D01*
X040197Y021124D01*
X040266Y021124D01*
X040334Y021055D01*
X040334Y020918D01*
X040266Y020850D01*
X040129Y020850D01*
X040060Y020918D01*
X039874Y020850D02*
X039737Y020987D01*
X039805Y020987D02*
X039600Y020987D01*
X039600Y020850D02*
X039600Y021260D01*
X039805Y021260D01*
X039874Y021192D01*
X039874Y021055D01*
X039805Y020987D01*
X028959Y020987D02*
X028959Y020918D01*
X028891Y020850D01*
X028754Y020850D01*
X028685Y020918D01*
X028822Y021055D02*
X028891Y021055D01*
X028959Y020987D01*
X028891Y021055D02*
X028959Y021124D01*
X028959Y021192D01*
X028891Y021260D01*
X028754Y021260D01*
X028685Y021192D01*
X028499Y021192D02*
X028499Y021055D01*
X028430Y020987D01*
X028225Y020987D01*
X028362Y020987D02*
X028499Y020850D01*
X028225Y020850D02*
X028225Y021260D01*
X028430Y021260D01*
X028499Y021192D01*
X017459Y020850D02*
X017185Y020850D01*
X017322Y020850D02*
X017322Y021260D01*
X017185Y021124D01*
X016999Y021192D02*
X016999Y021055D01*
X016930Y020987D01*
X016725Y020987D01*
X016862Y020987D02*
X016999Y020850D01*
X016725Y020850D02*
X016725Y021260D01*
X016930Y021260D01*
X016999Y021192D01*
X022100Y002760D02*
X022305Y002760D01*
X022374Y002692D01*
X022374Y002555D01*
X022305Y002487D01*
X022100Y002487D01*
X022237Y002487D02*
X022374Y002350D01*
X022100Y002350D02*
X022100Y002760D01*
X022560Y002555D02*
X022834Y002555D01*
X022766Y002350D02*
X022766Y002760D01*
X022560Y002555D01*
X011334Y002624D02*
X011334Y002692D01*
X011266Y002760D01*
X011129Y002760D01*
X011060Y002692D01*
X010874Y002692D02*
X010874Y002555D01*
X010805Y002487D01*
X010600Y002487D01*
X010737Y002487D02*
X010874Y002350D01*
X011060Y002350D02*
X011334Y002624D01*
X011334Y002350D02*
X011060Y002350D01*
X010600Y002350D02*
X010600Y002760D01*
X010805Y002760D01*
X010874Y002692D01*
X033600Y002760D02*
X033600Y002350D01*
X033600Y002487D02*
X033805Y002487D01*
X033874Y002555D01*
X033874Y002692D01*
X033805Y002760D01*
X033600Y002760D01*
X033737Y002487D02*
X033874Y002350D01*
X034060Y002418D02*
X034129Y002350D01*
X034266Y002350D01*
X034334Y002418D01*
X034334Y002487D01*
X034266Y002555D01*
X034060Y002555D01*
X034060Y002418D01*
X034060Y002555D02*
X034197Y002692D01*
X034334Y002760D01*
X045100Y002760D02*
X045100Y002350D01*
X045100Y002487D02*
X045305Y002487D01*
X045374Y002555D01*
X045374Y002692D01*
X045305Y002760D01*
X045100Y002760D01*
X045237Y002487D02*
X045374Y002350D01*
X045560Y002418D02*
X045629Y002350D01*
X045766Y002350D01*
X045834Y002418D01*
X045834Y002487D01*
X045766Y002555D01*
X045629Y002555D01*
X045560Y002624D01*
X045560Y002692D01*
X045629Y002760D01*
X045766Y002760D01*
X045834Y002692D01*
X045834Y002624D01*
X045766Y002555D01*
X045629Y002555D02*
X045560Y002487D01*
X045560Y002418D01*
D249*
X047901Y003034D03*
X047901Y003576D03*
X036401Y003576D03*
X036401Y003034D03*
X024901Y003034D03*
X024901Y003576D03*
X013401Y003576D03*
X013401Y003034D03*
X014959Y020034D03*
X014959Y020576D03*
X026459Y020576D03*
X026459Y020034D03*
X037959Y020034D03*
X037959Y020576D03*
X049459Y020576D03*
X049459Y020034D03*
D250*
X049611Y020305D03*
X038111Y020305D03*
X026611Y020305D03*
X015111Y020305D03*
X013249Y003305D03*
X024749Y003305D03*
X036249Y003305D03*
X047749Y003305D03*
D251*
X050830Y001805D02*
X050832Y001878D01*
X050838Y001951D01*
X050848Y002023D01*
X050862Y002095D01*
X050879Y002166D01*
X050901Y002236D01*
X050926Y002305D01*
X050955Y002372D01*
X050987Y002437D01*
X051023Y002501D01*
X051063Y002563D01*
X051105Y002622D01*
X051151Y002679D01*
X051200Y002733D01*
X051252Y002785D01*
X051306Y002834D01*
X051363Y002880D01*
X051422Y002922D01*
X051484Y002962D01*
X051548Y002998D01*
X051613Y003030D01*
X051680Y003059D01*
X051749Y003084D01*
X051819Y003106D01*
X051890Y003123D01*
X051962Y003137D01*
X052034Y003147D01*
X052107Y003153D01*
X052180Y003155D01*
X052253Y003153D01*
X052326Y003147D01*
X052398Y003137D01*
X052470Y003123D01*
X052541Y003106D01*
X052611Y003084D01*
X052680Y003059D01*
X052747Y003030D01*
X052812Y002998D01*
X052876Y002962D01*
X052938Y002922D01*
X052997Y002880D01*
X053054Y002834D01*
X053108Y002785D01*
X053160Y002733D01*
X053209Y002679D01*
X053255Y002622D01*
X053297Y002563D01*
X053337Y002501D01*
X053373Y002437D01*
X053405Y002372D01*
X053434Y002305D01*
X053459Y002236D01*
X053481Y002166D01*
X053498Y002095D01*
X053512Y002023D01*
X053522Y001951D01*
X053528Y001878D01*
X053530Y001805D01*
X053528Y001732D01*
X053522Y001659D01*
X053512Y001587D01*
X053498Y001515D01*
X053481Y001444D01*
X053459Y001374D01*
X053434Y001305D01*
X053405Y001238D01*
X053373Y001173D01*
X053337Y001109D01*
X053297Y001047D01*
X053255Y000988D01*
X053209Y000931D01*
X053160Y000877D01*
X053108Y000825D01*
X053054Y000776D01*
X052997Y000730D01*
X052938Y000688D01*
X052876Y000648D01*
X052812Y000612D01*
X052747Y000580D01*
X052680Y000551D01*
X052611Y000526D01*
X052541Y000504D01*
X052470Y000487D01*
X052398Y000473D01*
X052326Y000463D01*
X052253Y000457D01*
X052180Y000455D01*
X052107Y000457D01*
X052034Y000463D01*
X051962Y000473D01*
X051890Y000487D01*
X051819Y000504D01*
X051749Y000526D01*
X051680Y000551D01*
X051613Y000580D01*
X051548Y000612D01*
X051484Y000648D01*
X051422Y000688D01*
X051363Y000730D01*
X051306Y000776D01*
X051252Y000825D01*
X051200Y000877D01*
X051151Y000931D01*
X051105Y000988D01*
X051063Y001047D01*
X051023Y001109D01*
X050987Y001173D01*
X050955Y001238D01*
X050926Y001305D01*
X050901Y001374D01*
X050879Y001444D01*
X050862Y001515D01*
X050848Y001587D01*
X050838Y001659D01*
X050832Y001732D01*
X050830Y001805D01*
X050830Y021555D02*
X050832Y021628D01*
X050838Y021701D01*
X050848Y021773D01*
X050862Y021845D01*
X050879Y021916D01*
X050901Y021986D01*
X050926Y022055D01*
X050955Y022122D01*
X050987Y022187D01*
X051023Y022251D01*
X051063Y022313D01*
X051105Y022372D01*
X051151Y022429D01*
X051200Y022483D01*
X051252Y022535D01*
X051306Y022584D01*
X051363Y022630D01*
X051422Y022672D01*
X051484Y022712D01*
X051548Y022748D01*
X051613Y022780D01*
X051680Y022809D01*
X051749Y022834D01*
X051819Y022856D01*
X051890Y022873D01*
X051962Y022887D01*
X052034Y022897D01*
X052107Y022903D01*
X052180Y022905D01*
X052253Y022903D01*
X052326Y022897D01*
X052398Y022887D01*
X052470Y022873D01*
X052541Y022856D01*
X052611Y022834D01*
X052680Y022809D01*
X052747Y022780D01*
X052812Y022748D01*
X052876Y022712D01*
X052938Y022672D01*
X052997Y022630D01*
X053054Y022584D01*
X053108Y022535D01*
X053160Y022483D01*
X053209Y022429D01*
X053255Y022372D01*
X053297Y022313D01*
X053337Y022251D01*
X053373Y022187D01*
X053405Y022122D01*
X053434Y022055D01*
X053459Y021986D01*
X053481Y021916D01*
X053498Y021845D01*
X053512Y021773D01*
X053522Y021701D01*
X053528Y021628D01*
X053530Y021555D01*
X053528Y021482D01*
X053522Y021409D01*
X053512Y021337D01*
X053498Y021265D01*
X053481Y021194D01*
X053459Y021124D01*
X053434Y021055D01*
X053405Y020988D01*
X053373Y020923D01*
X053337Y020859D01*
X053297Y020797D01*
X053255Y020738D01*
X053209Y020681D01*
X053160Y020627D01*
X053108Y020575D01*
X053054Y020526D01*
X052997Y020480D01*
X052938Y020438D01*
X052876Y020398D01*
X052812Y020362D01*
X052747Y020330D01*
X052680Y020301D01*
X052611Y020276D01*
X052541Y020254D01*
X052470Y020237D01*
X052398Y020223D01*
X052326Y020213D01*
X052253Y020207D01*
X052180Y020205D01*
X052107Y020207D01*
X052034Y020213D01*
X051962Y020223D01*
X051890Y020237D01*
X051819Y020254D01*
X051749Y020276D01*
X051680Y020301D01*
X051613Y020330D01*
X051548Y020362D01*
X051484Y020398D01*
X051422Y020438D01*
X051363Y020480D01*
X051306Y020526D01*
X051252Y020575D01*
X051200Y020627D01*
X051151Y020681D01*
X051105Y020738D01*
X051063Y020797D01*
X051023Y020859D01*
X050987Y020923D01*
X050955Y020988D01*
X050926Y021055D01*
X050901Y021124D01*
X050879Y021194D01*
X050862Y021265D01*
X050848Y021337D01*
X050838Y021409D01*
X050832Y021482D01*
X050830Y021555D01*
X000455Y021555D02*
X000457Y021628D01*
X000463Y021701D01*
X000473Y021773D01*
X000487Y021845D01*
X000504Y021916D01*
X000526Y021986D01*
X000551Y022055D01*
X000580Y022122D01*
X000612Y022187D01*
X000648Y022251D01*
X000688Y022313D01*
X000730Y022372D01*
X000776Y022429D01*
X000825Y022483D01*
X000877Y022535D01*
X000931Y022584D01*
X000988Y022630D01*
X001047Y022672D01*
X001109Y022712D01*
X001173Y022748D01*
X001238Y022780D01*
X001305Y022809D01*
X001374Y022834D01*
X001444Y022856D01*
X001515Y022873D01*
X001587Y022887D01*
X001659Y022897D01*
X001732Y022903D01*
X001805Y022905D01*
X001878Y022903D01*
X001951Y022897D01*
X002023Y022887D01*
X002095Y022873D01*
X002166Y022856D01*
X002236Y022834D01*
X002305Y022809D01*
X002372Y022780D01*
X002437Y022748D01*
X002501Y022712D01*
X002563Y022672D01*
X002622Y022630D01*
X002679Y022584D01*
X002733Y022535D01*
X002785Y022483D01*
X002834Y022429D01*
X002880Y022372D01*
X002922Y022313D01*
X002962Y022251D01*
X002998Y022187D01*
X003030Y022122D01*
X003059Y022055D01*
X003084Y021986D01*
X003106Y021916D01*
X003123Y021845D01*
X003137Y021773D01*
X003147Y021701D01*
X003153Y021628D01*
X003155Y021555D01*
X003153Y021482D01*
X003147Y021409D01*
X003137Y021337D01*
X003123Y021265D01*
X003106Y021194D01*
X003084Y021124D01*
X003059Y021055D01*
X003030Y020988D01*
X002998Y020923D01*
X002962Y020859D01*
X002922Y020797D01*
X002880Y020738D01*
X002834Y020681D01*
X002785Y020627D01*
X002733Y020575D01*
X002679Y020526D01*
X002622Y020480D01*
X002563Y020438D01*
X002501Y020398D01*
X002437Y020362D01*
X002372Y020330D01*
X002305Y020301D01*
X002236Y020276D01*
X002166Y020254D01*
X002095Y020237D01*
X002023Y020223D01*
X001951Y020213D01*
X001878Y020207D01*
X001805Y020205D01*
X001732Y020207D01*
X001659Y020213D01*
X001587Y020223D01*
X001515Y020237D01*
X001444Y020254D01*
X001374Y020276D01*
X001305Y020301D01*
X001238Y020330D01*
X001173Y020362D01*
X001109Y020398D01*
X001047Y020438D01*
X000988Y020480D01*
X000931Y020526D01*
X000877Y020575D01*
X000825Y020627D01*
X000776Y020681D01*
X000730Y020738D01*
X000688Y020797D01*
X000648Y020859D01*
X000612Y020923D01*
X000580Y020988D01*
X000551Y021055D01*
X000526Y021124D01*
X000504Y021194D01*
X000487Y021265D01*
X000473Y021337D01*
X000463Y021409D01*
X000457Y021482D01*
X000455Y021555D01*
X000455Y001805D02*
X000457Y001878D01*
X000463Y001951D01*
X000473Y002023D01*
X000487Y002095D01*
X000504Y002166D01*
X000526Y002236D01*
X000551Y002305D01*
X000580Y002372D01*
X000612Y002437D01*
X000648Y002501D01*
X000688Y002563D01*
X000730Y002622D01*
X000776Y002679D01*
X000825Y002733D01*
X000877Y002785D01*
X000931Y002834D01*
X000988Y002880D01*
X001047Y002922D01*
X001109Y002962D01*
X001173Y002998D01*
X001238Y003030D01*
X001305Y003059D01*
X001374Y003084D01*
X001444Y003106D01*
X001515Y003123D01*
X001587Y003137D01*
X001659Y003147D01*
X001732Y003153D01*
X001805Y003155D01*
X001878Y003153D01*
X001951Y003147D01*
X002023Y003137D01*
X002095Y003123D01*
X002166Y003106D01*
X002236Y003084D01*
X002305Y003059D01*
X002372Y003030D01*
X002437Y002998D01*
X002501Y002962D01*
X002563Y002922D01*
X002622Y002880D01*
X002679Y002834D01*
X002733Y002785D01*
X002785Y002733D01*
X002834Y002679D01*
X002880Y002622D01*
X002922Y002563D01*
X002962Y002501D01*
X002998Y002437D01*
X003030Y002372D01*
X003059Y002305D01*
X003084Y002236D01*
X003106Y002166D01*
X003123Y002095D01*
X003137Y002023D01*
X003147Y001951D01*
X003153Y001878D01*
X003155Y001805D01*
X003153Y001732D01*
X003147Y001659D01*
X003137Y001587D01*
X003123Y001515D01*
X003106Y001444D01*
X003084Y001374D01*
X003059Y001305D01*
X003030Y001238D01*
X002998Y001173D01*
X002962Y001109D01*
X002922Y001047D01*
X002880Y000988D01*
X002834Y000931D01*
X002785Y000877D01*
X002733Y000825D01*
X002679Y000776D01*
X002622Y000730D01*
X002563Y000688D01*
X002501Y000648D01*
X002437Y000612D01*
X002372Y000580D01*
X002305Y000551D01*
X002236Y000526D01*
X002166Y000504D01*
X002095Y000487D01*
X002023Y000473D01*
X001951Y000463D01*
X001878Y000457D01*
X001805Y000455D01*
X001732Y000457D01*
X001659Y000463D01*
X001587Y000473D01*
X001515Y000487D01*
X001444Y000504D01*
X001374Y000526D01*
X001305Y000551D01*
X001238Y000580D01*
X001173Y000612D01*
X001109Y000648D01*
X001047Y000688D01*
X000988Y000730D01*
X000931Y000776D01*
X000877Y000825D01*
X000825Y000877D01*
X000776Y000931D01*
X000730Y000988D01*
X000688Y001047D01*
X000648Y001109D01*
X000612Y001173D01*
X000580Y001238D01*
X000551Y001305D01*
X000526Y001374D01*
X000504Y001444D01*
X000487Y001515D01*
X000473Y001587D01*
X000463Y001659D01*
X000457Y001732D01*
X000455Y001805D01*
M02*
