G75*
G70*
%OFA0B0*%
%FSLAX24Y24*%
%IPPOS*%
%LPD*%
%AMOC8*
5,1,8,0,0,1.08239X$1,22.5*
%
%ADD10C,0.0000*%
%ADD11C,0.2540*%
%ADD12C,0.1000*%
%ADD13R,0.0827X0.0827*%
%ADD14C,0.0591*%
%ADD15C,0.1500*%
%ADD16C,0.0160*%
%ADD17C,0.0416*%
%ADD18C,0.0320*%
D10*
X000180Y000180D02*
X000180Y023175D01*
X053672Y023175D01*
X053672Y000180D01*
X000180Y000180D01*
X001214Y001805D02*
X001216Y001853D01*
X001222Y001901D01*
X001232Y001948D01*
X001245Y001994D01*
X001263Y002039D01*
X001283Y002083D01*
X001308Y002125D01*
X001336Y002164D01*
X001366Y002201D01*
X001400Y002235D01*
X001437Y002267D01*
X001475Y002296D01*
X001516Y002321D01*
X001559Y002343D01*
X001604Y002361D01*
X001650Y002375D01*
X001697Y002386D01*
X001745Y002393D01*
X001793Y002396D01*
X001841Y002395D01*
X001889Y002390D01*
X001937Y002381D01*
X001983Y002369D01*
X002028Y002352D01*
X002072Y002332D01*
X002114Y002309D01*
X002154Y002282D01*
X002192Y002252D01*
X002227Y002219D01*
X002259Y002183D01*
X002289Y002145D01*
X002315Y002104D01*
X002337Y002061D01*
X002357Y002017D01*
X002372Y001972D01*
X002384Y001925D01*
X002392Y001877D01*
X002396Y001829D01*
X002396Y001781D01*
X002392Y001733D01*
X002384Y001685D01*
X002372Y001638D01*
X002357Y001593D01*
X002337Y001549D01*
X002315Y001506D01*
X002289Y001465D01*
X002259Y001427D01*
X002227Y001391D01*
X002192Y001358D01*
X002154Y001328D01*
X002114Y001301D01*
X002072Y001278D01*
X002028Y001258D01*
X001983Y001241D01*
X001937Y001229D01*
X001889Y001220D01*
X001841Y001215D01*
X001793Y001214D01*
X001745Y001217D01*
X001697Y001224D01*
X001650Y001235D01*
X001604Y001249D01*
X001559Y001267D01*
X001516Y001289D01*
X001475Y001314D01*
X001437Y001343D01*
X001400Y001375D01*
X001366Y001409D01*
X001336Y001446D01*
X001308Y001485D01*
X001283Y001527D01*
X001263Y001571D01*
X001245Y001616D01*
X001232Y001662D01*
X001222Y001709D01*
X001216Y001757D01*
X001214Y001805D01*
X002687Y006801D02*
X002689Y006849D01*
X002695Y006897D01*
X002705Y006944D01*
X002718Y006990D01*
X002736Y007035D01*
X002756Y007079D01*
X002781Y007121D01*
X002809Y007160D01*
X002839Y007197D01*
X002873Y007231D01*
X002910Y007263D01*
X002948Y007292D01*
X002989Y007317D01*
X003032Y007339D01*
X003077Y007357D01*
X003123Y007371D01*
X003170Y007382D01*
X003218Y007389D01*
X003266Y007392D01*
X003314Y007391D01*
X003362Y007386D01*
X003410Y007377D01*
X003456Y007365D01*
X003501Y007348D01*
X003545Y007328D01*
X003587Y007305D01*
X003627Y007278D01*
X003665Y007248D01*
X003700Y007215D01*
X003732Y007179D01*
X003762Y007141D01*
X003788Y007100D01*
X003810Y007057D01*
X003830Y007013D01*
X003845Y006968D01*
X003857Y006921D01*
X003865Y006873D01*
X003869Y006825D01*
X003869Y006777D01*
X003865Y006729D01*
X003857Y006681D01*
X003845Y006634D01*
X003830Y006589D01*
X003810Y006545D01*
X003788Y006502D01*
X003762Y006461D01*
X003732Y006423D01*
X003700Y006387D01*
X003665Y006354D01*
X003627Y006324D01*
X003587Y006297D01*
X003545Y006274D01*
X003501Y006254D01*
X003456Y006237D01*
X003410Y006225D01*
X003362Y006216D01*
X003314Y006211D01*
X003266Y006210D01*
X003218Y006213D01*
X003170Y006220D01*
X003123Y006231D01*
X003077Y006245D01*
X003032Y006263D01*
X002989Y006285D01*
X002948Y006310D01*
X002910Y006339D01*
X002873Y006371D01*
X002839Y006405D01*
X002809Y006442D01*
X002781Y006481D01*
X002756Y006523D01*
X002736Y006567D01*
X002718Y006612D01*
X002705Y006658D01*
X002695Y006705D01*
X002689Y006753D01*
X002687Y006801D01*
X010145Y012864D02*
X010147Y012905D01*
X010153Y012946D01*
X010163Y012986D01*
X010176Y013025D01*
X010193Y013062D01*
X010214Y013098D01*
X010238Y013132D01*
X010265Y013163D01*
X010294Y013191D01*
X010327Y013217D01*
X010361Y013239D01*
X010398Y013258D01*
X010436Y013273D01*
X010476Y013285D01*
X010516Y013293D01*
X010557Y013297D01*
X010599Y013297D01*
X010640Y013293D01*
X010680Y013285D01*
X010720Y013273D01*
X010758Y013258D01*
X010794Y013239D01*
X010829Y013217D01*
X010862Y013191D01*
X010891Y013163D01*
X010918Y013132D01*
X010942Y013098D01*
X010963Y013062D01*
X010980Y013025D01*
X010993Y012986D01*
X011003Y012946D01*
X011009Y012905D01*
X011011Y012864D01*
X011009Y012823D01*
X011003Y012782D01*
X010993Y012742D01*
X010980Y012703D01*
X010963Y012666D01*
X010942Y012630D01*
X010918Y012596D01*
X010891Y012565D01*
X010862Y012537D01*
X010829Y012511D01*
X010795Y012489D01*
X010758Y012470D01*
X010720Y012455D01*
X010680Y012443D01*
X010640Y012435D01*
X010599Y012431D01*
X010557Y012431D01*
X010516Y012435D01*
X010476Y012443D01*
X010436Y012455D01*
X010398Y012470D01*
X010362Y012489D01*
X010327Y012511D01*
X010294Y012537D01*
X010265Y012565D01*
X010238Y012596D01*
X010214Y012630D01*
X010193Y012666D01*
X010176Y012703D01*
X010163Y012742D01*
X010153Y012782D01*
X010147Y012823D01*
X010145Y012864D01*
X002687Y013809D02*
X002689Y013857D01*
X002695Y013905D01*
X002705Y013952D01*
X002718Y013998D01*
X002736Y014043D01*
X002756Y014087D01*
X002781Y014129D01*
X002809Y014168D01*
X002839Y014205D01*
X002873Y014239D01*
X002910Y014271D01*
X002948Y014300D01*
X002989Y014325D01*
X003032Y014347D01*
X003077Y014365D01*
X003123Y014379D01*
X003170Y014390D01*
X003218Y014397D01*
X003266Y014400D01*
X003314Y014399D01*
X003362Y014394D01*
X003410Y014385D01*
X003456Y014373D01*
X003501Y014356D01*
X003545Y014336D01*
X003587Y014313D01*
X003627Y014286D01*
X003665Y014256D01*
X003700Y014223D01*
X003732Y014187D01*
X003762Y014149D01*
X003788Y014108D01*
X003810Y014065D01*
X003830Y014021D01*
X003845Y013976D01*
X003857Y013929D01*
X003865Y013881D01*
X003869Y013833D01*
X003869Y013785D01*
X003865Y013737D01*
X003857Y013689D01*
X003845Y013642D01*
X003830Y013597D01*
X003810Y013553D01*
X003788Y013510D01*
X003762Y013469D01*
X003732Y013431D01*
X003700Y013395D01*
X003665Y013362D01*
X003627Y013332D01*
X003587Y013305D01*
X003545Y013282D01*
X003501Y013262D01*
X003456Y013245D01*
X003410Y013233D01*
X003362Y013224D01*
X003314Y013219D01*
X003266Y013218D01*
X003218Y013221D01*
X003170Y013228D01*
X003123Y013239D01*
X003077Y013253D01*
X003032Y013271D01*
X002989Y013293D01*
X002948Y013318D01*
X002910Y013347D01*
X002873Y013379D01*
X002839Y013413D01*
X002809Y013450D01*
X002781Y013489D01*
X002756Y013531D01*
X002736Y013575D01*
X002718Y013620D01*
X002705Y013666D01*
X002695Y013713D01*
X002689Y013761D01*
X002687Y013809D01*
X014436Y017805D02*
X014438Y017859D01*
X014444Y017913D01*
X014454Y017967D01*
X014468Y018019D01*
X014485Y018071D01*
X014506Y018121D01*
X014531Y018169D01*
X014560Y018216D01*
X014591Y018260D01*
X014626Y018301D01*
X014664Y018341D01*
X014704Y018377D01*
X014747Y018410D01*
X014792Y018440D01*
X014840Y018467D01*
X014889Y018490D01*
X014940Y018509D01*
X014992Y018525D01*
X015045Y018537D01*
X015099Y018545D01*
X015153Y018549D01*
X015207Y018549D01*
X015261Y018545D01*
X015315Y018537D01*
X015368Y018525D01*
X015420Y018509D01*
X015471Y018490D01*
X015520Y018467D01*
X015568Y018440D01*
X015613Y018410D01*
X015656Y018377D01*
X015696Y018341D01*
X015734Y018301D01*
X015769Y018260D01*
X015800Y018216D01*
X015829Y018169D01*
X015854Y018121D01*
X015875Y018071D01*
X015892Y018019D01*
X015906Y017967D01*
X015916Y017913D01*
X015922Y017859D01*
X015924Y017805D01*
X015922Y017751D01*
X015916Y017697D01*
X015906Y017643D01*
X015892Y017591D01*
X015875Y017539D01*
X015854Y017489D01*
X015829Y017441D01*
X015800Y017394D01*
X015769Y017350D01*
X015734Y017309D01*
X015696Y017269D01*
X015656Y017233D01*
X015613Y017200D01*
X015568Y017170D01*
X015520Y017143D01*
X015471Y017120D01*
X015420Y017101D01*
X015368Y017085D01*
X015315Y017073D01*
X015261Y017065D01*
X015207Y017061D01*
X015153Y017061D01*
X015099Y017065D01*
X015045Y017073D01*
X014992Y017085D01*
X014940Y017101D01*
X014889Y017120D01*
X014840Y017143D01*
X014792Y017170D01*
X014747Y017200D01*
X014704Y017233D01*
X014664Y017269D01*
X014626Y017309D01*
X014591Y017350D01*
X014560Y017394D01*
X014531Y017441D01*
X014506Y017489D01*
X014485Y017539D01*
X014468Y017591D01*
X014454Y017643D01*
X014444Y017697D01*
X014438Y017751D01*
X014436Y017805D01*
X021645Y012864D02*
X021647Y012905D01*
X021653Y012946D01*
X021663Y012986D01*
X021676Y013025D01*
X021693Y013062D01*
X021714Y013098D01*
X021738Y013132D01*
X021765Y013163D01*
X021794Y013191D01*
X021827Y013217D01*
X021861Y013239D01*
X021898Y013258D01*
X021936Y013273D01*
X021976Y013285D01*
X022016Y013293D01*
X022057Y013297D01*
X022099Y013297D01*
X022140Y013293D01*
X022180Y013285D01*
X022220Y013273D01*
X022258Y013258D01*
X022294Y013239D01*
X022329Y013217D01*
X022362Y013191D01*
X022391Y013163D01*
X022418Y013132D01*
X022442Y013098D01*
X022463Y013062D01*
X022480Y013025D01*
X022493Y012986D01*
X022503Y012946D01*
X022509Y012905D01*
X022511Y012864D01*
X022509Y012823D01*
X022503Y012782D01*
X022493Y012742D01*
X022480Y012703D01*
X022463Y012666D01*
X022442Y012630D01*
X022418Y012596D01*
X022391Y012565D01*
X022362Y012537D01*
X022329Y012511D01*
X022295Y012489D01*
X022258Y012470D01*
X022220Y012455D01*
X022180Y012443D01*
X022140Y012435D01*
X022099Y012431D01*
X022057Y012431D01*
X022016Y012435D01*
X021976Y012443D01*
X021936Y012455D01*
X021898Y012470D01*
X021862Y012489D01*
X021827Y012511D01*
X021794Y012537D01*
X021765Y012565D01*
X021738Y012596D01*
X021714Y012630D01*
X021693Y012666D01*
X021676Y012703D01*
X021663Y012742D01*
X021653Y012782D01*
X021647Y012823D01*
X021645Y012864D01*
X025936Y017805D02*
X025938Y017859D01*
X025944Y017913D01*
X025954Y017967D01*
X025968Y018019D01*
X025985Y018071D01*
X026006Y018121D01*
X026031Y018169D01*
X026060Y018216D01*
X026091Y018260D01*
X026126Y018301D01*
X026164Y018341D01*
X026204Y018377D01*
X026247Y018410D01*
X026292Y018440D01*
X026340Y018467D01*
X026389Y018490D01*
X026440Y018509D01*
X026492Y018525D01*
X026545Y018537D01*
X026599Y018545D01*
X026653Y018549D01*
X026707Y018549D01*
X026761Y018545D01*
X026815Y018537D01*
X026868Y018525D01*
X026920Y018509D01*
X026971Y018490D01*
X027020Y018467D01*
X027068Y018440D01*
X027113Y018410D01*
X027156Y018377D01*
X027196Y018341D01*
X027234Y018301D01*
X027269Y018260D01*
X027300Y018216D01*
X027329Y018169D01*
X027354Y018121D01*
X027375Y018071D01*
X027392Y018019D01*
X027406Y017967D01*
X027416Y017913D01*
X027422Y017859D01*
X027424Y017805D01*
X027422Y017751D01*
X027416Y017697D01*
X027406Y017643D01*
X027392Y017591D01*
X027375Y017539D01*
X027354Y017489D01*
X027329Y017441D01*
X027300Y017394D01*
X027269Y017350D01*
X027234Y017309D01*
X027196Y017269D01*
X027156Y017233D01*
X027113Y017200D01*
X027068Y017170D01*
X027020Y017143D01*
X026971Y017120D01*
X026920Y017101D01*
X026868Y017085D01*
X026815Y017073D01*
X026761Y017065D01*
X026707Y017061D01*
X026653Y017061D01*
X026599Y017065D01*
X026545Y017073D01*
X026492Y017085D01*
X026440Y017101D01*
X026389Y017120D01*
X026340Y017143D01*
X026292Y017170D01*
X026247Y017200D01*
X026204Y017233D01*
X026164Y017269D01*
X026126Y017309D01*
X026091Y017350D01*
X026060Y017394D01*
X026031Y017441D01*
X026006Y017489D01*
X025985Y017539D01*
X025968Y017591D01*
X025954Y017643D01*
X025944Y017697D01*
X025938Y017751D01*
X025936Y017805D01*
X033145Y012864D02*
X033147Y012905D01*
X033153Y012946D01*
X033163Y012986D01*
X033176Y013025D01*
X033193Y013062D01*
X033214Y013098D01*
X033238Y013132D01*
X033265Y013163D01*
X033294Y013191D01*
X033327Y013217D01*
X033361Y013239D01*
X033398Y013258D01*
X033436Y013273D01*
X033476Y013285D01*
X033516Y013293D01*
X033557Y013297D01*
X033599Y013297D01*
X033640Y013293D01*
X033680Y013285D01*
X033720Y013273D01*
X033758Y013258D01*
X033794Y013239D01*
X033829Y013217D01*
X033862Y013191D01*
X033891Y013163D01*
X033918Y013132D01*
X033942Y013098D01*
X033963Y013062D01*
X033980Y013025D01*
X033993Y012986D01*
X034003Y012946D01*
X034009Y012905D01*
X034011Y012864D01*
X034009Y012823D01*
X034003Y012782D01*
X033993Y012742D01*
X033980Y012703D01*
X033963Y012666D01*
X033942Y012630D01*
X033918Y012596D01*
X033891Y012565D01*
X033862Y012537D01*
X033829Y012511D01*
X033795Y012489D01*
X033758Y012470D01*
X033720Y012455D01*
X033680Y012443D01*
X033640Y012435D01*
X033599Y012431D01*
X033557Y012431D01*
X033516Y012435D01*
X033476Y012443D01*
X033436Y012455D01*
X033398Y012470D01*
X033362Y012489D01*
X033327Y012511D01*
X033294Y012537D01*
X033265Y012565D01*
X033238Y012596D01*
X033214Y012630D01*
X033193Y012666D01*
X033176Y012703D01*
X033163Y012742D01*
X033153Y012782D01*
X033147Y012823D01*
X033145Y012864D01*
X037436Y017805D02*
X037438Y017859D01*
X037444Y017913D01*
X037454Y017967D01*
X037468Y018019D01*
X037485Y018071D01*
X037506Y018121D01*
X037531Y018169D01*
X037560Y018216D01*
X037591Y018260D01*
X037626Y018301D01*
X037664Y018341D01*
X037704Y018377D01*
X037747Y018410D01*
X037792Y018440D01*
X037840Y018467D01*
X037889Y018490D01*
X037940Y018509D01*
X037992Y018525D01*
X038045Y018537D01*
X038099Y018545D01*
X038153Y018549D01*
X038207Y018549D01*
X038261Y018545D01*
X038315Y018537D01*
X038368Y018525D01*
X038420Y018509D01*
X038471Y018490D01*
X038520Y018467D01*
X038568Y018440D01*
X038613Y018410D01*
X038656Y018377D01*
X038696Y018341D01*
X038734Y018301D01*
X038769Y018260D01*
X038800Y018216D01*
X038829Y018169D01*
X038854Y018121D01*
X038875Y018071D01*
X038892Y018019D01*
X038906Y017967D01*
X038916Y017913D01*
X038922Y017859D01*
X038924Y017805D01*
X038922Y017751D01*
X038916Y017697D01*
X038906Y017643D01*
X038892Y017591D01*
X038875Y017539D01*
X038854Y017489D01*
X038829Y017441D01*
X038800Y017394D01*
X038769Y017350D01*
X038734Y017309D01*
X038696Y017269D01*
X038656Y017233D01*
X038613Y017200D01*
X038568Y017170D01*
X038520Y017143D01*
X038471Y017120D01*
X038420Y017101D01*
X038368Y017085D01*
X038315Y017073D01*
X038261Y017065D01*
X038207Y017061D01*
X038153Y017061D01*
X038099Y017065D01*
X038045Y017073D01*
X037992Y017085D01*
X037940Y017101D01*
X037889Y017120D01*
X037840Y017143D01*
X037792Y017170D01*
X037747Y017200D01*
X037704Y017233D01*
X037664Y017269D01*
X037626Y017309D01*
X037591Y017350D01*
X037560Y017394D01*
X037531Y017441D01*
X037506Y017489D01*
X037485Y017539D01*
X037468Y017591D01*
X037454Y017643D01*
X037444Y017697D01*
X037438Y017751D01*
X037436Y017805D01*
X044645Y012864D02*
X044647Y012905D01*
X044653Y012946D01*
X044663Y012986D01*
X044676Y013025D01*
X044693Y013062D01*
X044714Y013098D01*
X044738Y013132D01*
X044765Y013163D01*
X044794Y013191D01*
X044827Y013217D01*
X044861Y013239D01*
X044898Y013258D01*
X044936Y013273D01*
X044976Y013285D01*
X045016Y013293D01*
X045057Y013297D01*
X045099Y013297D01*
X045140Y013293D01*
X045180Y013285D01*
X045220Y013273D01*
X045258Y013258D01*
X045294Y013239D01*
X045329Y013217D01*
X045362Y013191D01*
X045391Y013163D01*
X045418Y013132D01*
X045442Y013098D01*
X045463Y013062D01*
X045480Y013025D01*
X045493Y012986D01*
X045503Y012946D01*
X045509Y012905D01*
X045511Y012864D01*
X045509Y012823D01*
X045503Y012782D01*
X045493Y012742D01*
X045480Y012703D01*
X045463Y012666D01*
X045442Y012630D01*
X045418Y012596D01*
X045391Y012565D01*
X045362Y012537D01*
X045329Y012511D01*
X045295Y012489D01*
X045258Y012470D01*
X045220Y012455D01*
X045180Y012443D01*
X045140Y012435D01*
X045099Y012431D01*
X045057Y012431D01*
X045016Y012435D01*
X044976Y012443D01*
X044936Y012455D01*
X044898Y012470D01*
X044862Y012489D01*
X044827Y012511D01*
X044794Y012537D01*
X044765Y012565D01*
X044738Y012596D01*
X044714Y012630D01*
X044693Y012666D01*
X044676Y012703D01*
X044663Y012742D01*
X044653Y012782D01*
X044647Y012823D01*
X044645Y012864D01*
X048936Y017805D02*
X048938Y017859D01*
X048944Y017913D01*
X048954Y017967D01*
X048968Y018019D01*
X048985Y018071D01*
X049006Y018121D01*
X049031Y018169D01*
X049060Y018216D01*
X049091Y018260D01*
X049126Y018301D01*
X049164Y018341D01*
X049204Y018377D01*
X049247Y018410D01*
X049292Y018440D01*
X049340Y018467D01*
X049389Y018490D01*
X049440Y018509D01*
X049492Y018525D01*
X049545Y018537D01*
X049599Y018545D01*
X049653Y018549D01*
X049707Y018549D01*
X049761Y018545D01*
X049815Y018537D01*
X049868Y018525D01*
X049920Y018509D01*
X049971Y018490D01*
X050020Y018467D01*
X050068Y018440D01*
X050113Y018410D01*
X050156Y018377D01*
X050196Y018341D01*
X050234Y018301D01*
X050269Y018260D01*
X050300Y018216D01*
X050329Y018169D01*
X050354Y018121D01*
X050375Y018071D01*
X050392Y018019D01*
X050406Y017967D01*
X050416Y017913D01*
X050422Y017859D01*
X050424Y017805D01*
X050422Y017751D01*
X050416Y017697D01*
X050406Y017643D01*
X050392Y017591D01*
X050375Y017539D01*
X050354Y017489D01*
X050329Y017441D01*
X050300Y017394D01*
X050269Y017350D01*
X050234Y017309D01*
X050196Y017269D01*
X050156Y017233D01*
X050113Y017200D01*
X050068Y017170D01*
X050020Y017143D01*
X049971Y017120D01*
X049920Y017101D01*
X049868Y017085D01*
X049815Y017073D01*
X049761Y017065D01*
X049707Y017061D01*
X049653Y017061D01*
X049599Y017065D01*
X049545Y017073D01*
X049492Y017085D01*
X049440Y017101D01*
X049389Y017120D01*
X049340Y017143D01*
X049292Y017170D01*
X049247Y017200D01*
X049204Y017233D01*
X049164Y017269D01*
X049126Y017309D01*
X049091Y017350D01*
X049060Y017394D01*
X049031Y017441D01*
X049006Y017489D01*
X048985Y017539D01*
X048968Y017591D01*
X048954Y017643D01*
X048944Y017697D01*
X048938Y017751D01*
X048936Y017805D01*
X051589Y021555D02*
X051591Y021603D01*
X051597Y021651D01*
X051607Y021698D01*
X051620Y021744D01*
X051638Y021789D01*
X051658Y021833D01*
X051683Y021875D01*
X051711Y021914D01*
X051741Y021951D01*
X051775Y021985D01*
X051812Y022017D01*
X051850Y022046D01*
X051891Y022071D01*
X051934Y022093D01*
X051979Y022111D01*
X052025Y022125D01*
X052072Y022136D01*
X052120Y022143D01*
X052168Y022146D01*
X052216Y022145D01*
X052264Y022140D01*
X052312Y022131D01*
X052358Y022119D01*
X052403Y022102D01*
X052447Y022082D01*
X052489Y022059D01*
X052529Y022032D01*
X052567Y022002D01*
X052602Y021969D01*
X052634Y021933D01*
X052664Y021895D01*
X052690Y021854D01*
X052712Y021811D01*
X052732Y021767D01*
X052747Y021722D01*
X052759Y021675D01*
X052767Y021627D01*
X052771Y021579D01*
X052771Y021531D01*
X052767Y021483D01*
X052759Y021435D01*
X052747Y021388D01*
X052732Y021343D01*
X052712Y021299D01*
X052690Y021256D01*
X052664Y021215D01*
X052634Y021177D01*
X052602Y021141D01*
X052567Y021108D01*
X052529Y021078D01*
X052489Y021051D01*
X052447Y021028D01*
X052403Y021008D01*
X052358Y020991D01*
X052312Y020979D01*
X052264Y020970D01*
X052216Y020965D01*
X052168Y020964D01*
X052120Y020967D01*
X052072Y020974D01*
X052025Y020985D01*
X051979Y020999D01*
X051934Y021017D01*
X051891Y021039D01*
X051850Y021064D01*
X051812Y021093D01*
X051775Y021125D01*
X051741Y021159D01*
X051711Y021196D01*
X051683Y021235D01*
X051658Y021277D01*
X051638Y021321D01*
X051620Y021366D01*
X051607Y021412D01*
X051597Y021459D01*
X051591Y021507D01*
X051589Y021555D01*
X050156Y007746D02*
X050158Y007787D01*
X050164Y007828D01*
X050174Y007868D01*
X050187Y007907D01*
X050204Y007944D01*
X050225Y007980D01*
X050249Y008014D01*
X050276Y008045D01*
X050305Y008073D01*
X050338Y008099D01*
X050372Y008121D01*
X050409Y008140D01*
X050447Y008155D01*
X050487Y008167D01*
X050527Y008175D01*
X050568Y008179D01*
X050610Y008179D01*
X050651Y008175D01*
X050691Y008167D01*
X050731Y008155D01*
X050769Y008140D01*
X050805Y008121D01*
X050840Y008099D01*
X050873Y008073D01*
X050902Y008045D01*
X050929Y008014D01*
X050953Y007980D01*
X050974Y007944D01*
X050991Y007907D01*
X051004Y007868D01*
X051014Y007828D01*
X051020Y007787D01*
X051022Y007746D01*
X051020Y007705D01*
X051014Y007664D01*
X051004Y007624D01*
X050991Y007585D01*
X050974Y007548D01*
X050953Y007512D01*
X050929Y007478D01*
X050902Y007447D01*
X050873Y007419D01*
X050840Y007393D01*
X050806Y007371D01*
X050769Y007352D01*
X050731Y007337D01*
X050691Y007325D01*
X050651Y007317D01*
X050610Y007313D01*
X050568Y007313D01*
X050527Y007317D01*
X050487Y007325D01*
X050447Y007337D01*
X050409Y007352D01*
X050373Y007371D01*
X050338Y007393D01*
X050305Y007419D01*
X050276Y007447D01*
X050249Y007478D01*
X050225Y007512D01*
X050204Y007548D01*
X050187Y007585D01*
X050174Y007624D01*
X050164Y007664D01*
X050158Y007705D01*
X050156Y007746D01*
X038656Y007746D02*
X038658Y007787D01*
X038664Y007828D01*
X038674Y007868D01*
X038687Y007907D01*
X038704Y007944D01*
X038725Y007980D01*
X038749Y008014D01*
X038776Y008045D01*
X038805Y008073D01*
X038838Y008099D01*
X038872Y008121D01*
X038909Y008140D01*
X038947Y008155D01*
X038987Y008167D01*
X039027Y008175D01*
X039068Y008179D01*
X039110Y008179D01*
X039151Y008175D01*
X039191Y008167D01*
X039231Y008155D01*
X039269Y008140D01*
X039305Y008121D01*
X039340Y008099D01*
X039373Y008073D01*
X039402Y008045D01*
X039429Y008014D01*
X039453Y007980D01*
X039474Y007944D01*
X039491Y007907D01*
X039504Y007868D01*
X039514Y007828D01*
X039520Y007787D01*
X039522Y007746D01*
X039520Y007705D01*
X039514Y007664D01*
X039504Y007624D01*
X039491Y007585D01*
X039474Y007548D01*
X039453Y007512D01*
X039429Y007478D01*
X039402Y007447D01*
X039373Y007419D01*
X039340Y007393D01*
X039306Y007371D01*
X039269Y007352D01*
X039231Y007337D01*
X039191Y007325D01*
X039151Y007317D01*
X039110Y007313D01*
X039068Y007313D01*
X039027Y007317D01*
X038987Y007325D01*
X038947Y007337D01*
X038909Y007352D01*
X038873Y007371D01*
X038838Y007393D01*
X038805Y007419D01*
X038776Y007447D01*
X038749Y007478D01*
X038725Y007512D01*
X038704Y007548D01*
X038687Y007585D01*
X038674Y007624D01*
X038664Y007664D01*
X038658Y007705D01*
X038656Y007746D01*
X027156Y007746D02*
X027158Y007787D01*
X027164Y007828D01*
X027174Y007868D01*
X027187Y007907D01*
X027204Y007944D01*
X027225Y007980D01*
X027249Y008014D01*
X027276Y008045D01*
X027305Y008073D01*
X027338Y008099D01*
X027372Y008121D01*
X027409Y008140D01*
X027447Y008155D01*
X027487Y008167D01*
X027527Y008175D01*
X027568Y008179D01*
X027610Y008179D01*
X027651Y008175D01*
X027691Y008167D01*
X027731Y008155D01*
X027769Y008140D01*
X027805Y008121D01*
X027840Y008099D01*
X027873Y008073D01*
X027902Y008045D01*
X027929Y008014D01*
X027953Y007980D01*
X027974Y007944D01*
X027991Y007907D01*
X028004Y007868D01*
X028014Y007828D01*
X028020Y007787D01*
X028022Y007746D01*
X028020Y007705D01*
X028014Y007664D01*
X028004Y007624D01*
X027991Y007585D01*
X027974Y007548D01*
X027953Y007512D01*
X027929Y007478D01*
X027902Y007447D01*
X027873Y007419D01*
X027840Y007393D01*
X027806Y007371D01*
X027769Y007352D01*
X027731Y007337D01*
X027691Y007325D01*
X027651Y007317D01*
X027610Y007313D01*
X027568Y007313D01*
X027527Y007317D01*
X027487Y007325D01*
X027447Y007337D01*
X027409Y007352D01*
X027373Y007371D01*
X027338Y007393D01*
X027305Y007419D01*
X027276Y007447D01*
X027249Y007478D01*
X027225Y007512D01*
X027204Y007548D01*
X027187Y007585D01*
X027174Y007624D01*
X027164Y007664D01*
X027158Y007705D01*
X027156Y007746D01*
X015656Y007746D02*
X015658Y007787D01*
X015664Y007828D01*
X015674Y007868D01*
X015687Y007907D01*
X015704Y007944D01*
X015725Y007980D01*
X015749Y008014D01*
X015776Y008045D01*
X015805Y008073D01*
X015838Y008099D01*
X015872Y008121D01*
X015909Y008140D01*
X015947Y008155D01*
X015987Y008167D01*
X016027Y008175D01*
X016068Y008179D01*
X016110Y008179D01*
X016151Y008175D01*
X016191Y008167D01*
X016231Y008155D01*
X016269Y008140D01*
X016305Y008121D01*
X016340Y008099D01*
X016373Y008073D01*
X016402Y008045D01*
X016429Y008014D01*
X016453Y007980D01*
X016474Y007944D01*
X016491Y007907D01*
X016504Y007868D01*
X016514Y007828D01*
X016520Y007787D01*
X016522Y007746D01*
X016520Y007705D01*
X016514Y007664D01*
X016504Y007624D01*
X016491Y007585D01*
X016474Y007548D01*
X016453Y007512D01*
X016429Y007478D01*
X016402Y007447D01*
X016373Y007419D01*
X016340Y007393D01*
X016306Y007371D01*
X016269Y007352D01*
X016231Y007337D01*
X016191Y007325D01*
X016151Y007317D01*
X016110Y007313D01*
X016068Y007313D01*
X016027Y007317D01*
X015987Y007325D01*
X015947Y007337D01*
X015909Y007352D01*
X015873Y007371D01*
X015838Y007393D01*
X015805Y007419D01*
X015776Y007447D01*
X015749Y007478D01*
X015725Y007512D01*
X015704Y007548D01*
X015687Y007585D01*
X015674Y007624D01*
X015664Y007664D01*
X015658Y007705D01*
X015656Y007746D01*
X001214Y021555D02*
X001216Y021603D01*
X001222Y021651D01*
X001232Y021698D01*
X001245Y021744D01*
X001263Y021789D01*
X001283Y021833D01*
X001308Y021875D01*
X001336Y021914D01*
X001366Y021951D01*
X001400Y021985D01*
X001437Y022017D01*
X001475Y022046D01*
X001516Y022071D01*
X001559Y022093D01*
X001604Y022111D01*
X001650Y022125D01*
X001697Y022136D01*
X001745Y022143D01*
X001793Y022146D01*
X001841Y022145D01*
X001889Y022140D01*
X001937Y022131D01*
X001983Y022119D01*
X002028Y022102D01*
X002072Y022082D01*
X002114Y022059D01*
X002154Y022032D01*
X002192Y022002D01*
X002227Y021969D01*
X002259Y021933D01*
X002289Y021895D01*
X002315Y021854D01*
X002337Y021811D01*
X002357Y021767D01*
X002372Y021722D01*
X002384Y021675D01*
X002392Y021627D01*
X002396Y021579D01*
X002396Y021531D01*
X002392Y021483D01*
X002384Y021435D01*
X002372Y021388D01*
X002357Y021343D01*
X002337Y021299D01*
X002315Y021256D01*
X002289Y021215D01*
X002259Y021177D01*
X002227Y021141D01*
X002192Y021108D01*
X002154Y021078D01*
X002114Y021051D01*
X002072Y021028D01*
X002028Y021008D01*
X001983Y020991D01*
X001937Y020979D01*
X001889Y020970D01*
X001841Y020965D01*
X001793Y020964D01*
X001745Y020967D01*
X001697Y020974D01*
X001650Y020985D01*
X001604Y020999D01*
X001559Y021017D01*
X001516Y021039D01*
X001475Y021064D01*
X001437Y021093D01*
X001400Y021125D01*
X001366Y021159D01*
X001336Y021196D01*
X001308Y021235D01*
X001283Y021277D01*
X001263Y021321D01*
X001245Y021366D01*
X001232Y021412D01*
X001222Y021459D01*
X001216Y021507D01*
X001214Y021555D01*
X051589Y001805D02*
X051591Y001853D01*
X051597Y001901D01*
X051607Y001948D01*
X051620Y001994D01*
X051638Y002039D01*
X051658Y002083D01*
X051683Y002125D01*
X051711Y002164D01*
X051741Y002201D01*
X051775Y002235D01*
X051812Y002267D01*
X051850Y002296D01*
X051891Y002321D01*
X051934Y002343D01*
X051979Y002361D01*
X052025Y002375D01*
X052072Y002386D01*
X052120Y002393D01*
X052168Y002396D01*
X052216Y002395D01*
X052264Y002390D01*
X052312Y002381D01*
X052358Y002369D01*
X052403Y002352D01*
X052447Y002332D01*
X052489Y002309D01*
X052529Y002282D01*
X052567Y002252D01*
X052602Y002219D01*
X052634Y002183D01*
X052664Y002145D01*
X052690Y002104D01*
X052712Y002061D01*
X052732Y002017D01*
X052747Y001972D01*
X052759Y001925D01*
X052767Y001877D01*
X052771Y001829D01*
X052771Y001781D01*
X052767Y001733D01*
X052759Y001685D01*
X052747Y001638D01*
X052732Y001593D01*
X052712Y001549D01*
X052690Y001506D01*
X052664Y001465D01*
X052634Y001427D01*
X052602Y001391D01*
X052567Y001358D01*
X052529Y001328D01*
X052489Y001301D01*
X052447Y001278D01*
X052403Y001258D01*
X052358Y001241D01*
X052312Y001229D01*
X052264Y001220D01*
X052216Y001215D01*
X052168Y001214D01*
X052120Y001217D01*
X052072Y001224D01*
X052025Y001235D01*
X051979Y001249D01*
X051934Y001267D01*
X051891Y001289D01*
X051850Y001314D01*
X051812Y001343D01*
X051775Y001375D01*
X051741Y001409D01*
X051711Y001446D01*
X051683Y001485D01*
X051658Y001527D01*
X051638Y001571D01*
X051620Y001616D01*
X051607Y001662D01*
X051597Y001709D01*
X051591Y001757D01*
X051589Y001805D01*
D11*
X048030Y006978D03*
X048030Y010305D03*
X051180Y010305D03*
X048030Y013632D03*
X044133Y010305D03*
X039680Y010305D03*
X036530Y010305D03*
X032633Y010305D03*
X028180Y010305D03*
X025030Y010305D03*
X021133Y010305D03*
X016680Y010305D03*
X013530Y010305D03*
X009633Y010305D03*
X013530Y013632D03*
X025030Y013632D03*
X036530Y013632D03*
X036530Y006978D03*
X025030Y006978D03*
X013530Y006978D03*
D12*
X016326Y016770D02*
X017034Y017477D01*
X014034Y018840D02*
X013326Y018133D01*
X024826Y018133D02*
X025534Y018840D01*
X027826Y016770D02*
X028534Y017477D01*
X036326Y018133D02*
X037034Y018840D01*
X039326Y016770D02*
X040034Y017477D01*
X047826Y018133D02*
X048534Y018840D01*
X050826Y016770D02*
X051534Y017477D01*
D13*
X005263Y011959D03*
X003097Y011959D03*
X003097Y010305D03*
X005263Y010305D03*
X005263Y008651D03*
X003097Y008651D03*
D14*
X004180Y021010D02*
X004180Y021600D01*
X005180Y021600D02*
X005180Y021010D01*
X006180Y021010D02*
X006180Y021600D01*
X007680Y021600D02*
X007680Y021010D01*
X008680Y021010D02*
X008680Y021600D01*
X010180Y021600D02*
X010180Y021010D01*
X011180Y021010D02*
X011180Y021600D01*
D15*
X012357Y014805D02*
X008109Y014805D01*
X005263Y011959D01*
X005263Y010305D02*
X009633Y010305D01*
X005263Y008651D02*
X009109Y004805D01*
X015680Y004805D01*
X021133Y010258D01*
X021133Y010305D01*
X020007Y013632D02*
X021180Y014805D01*
X023857Y014805D01*
X025030Y013632D01*
X031507Y013632D01*
X032680Y014805D01*
X035357Y014805D01*
X036530Y013632D01*
X043007Y013632D01*
X044180Y014805D01*
X046857Y014805D01*
X048030Y013632D01*
X044133Y010305D02*
X035633Y001805D01*
X005180Y001805D01*
X001180Y005805D01*
X001180Y009805D01*
X001680Y010305D01*
X003097Y010305D01*
X012357Y014805D02*
X013530Y013632D01*
X020007Y013632D01*
D16*
X020969Y013336D02*
X021611Y013336D01*
X021702Y013426D02*
X021516Y013240D01*
X021415Y012996D01*
X021415Y012732D01*
X021516Y012488D01*
X021702Y012302D01*
X021946Y012201D01*
X022210Y012201D01*
X022453Y012302D01*
X022640Y012488D01*
X022741Y012732D01*
X022741Y012996D01*
X022640Y013240D01*
X022453Y013426D01*
X022210Y013527D01*
X021946Y013527D01*
X021702Y013426D01*
X021866Y013494D02*
X021128Y013494D01*
X021286Y013653D02*
X023620Y013653D01*
X023620Y013783D02*
X023620Y013446D01*
X023716Y013088D01*
X023902Y012766D01*
X024165Y012503D01*
X024486Y012318D01*
X024845Y012222D01*
X025216Y012222D01*
X025575Y012318D01*
X025896Y012503D01*
X026134Y012742D01*
X031684Y012742D01*
X032011Y012877D01*
X032261Y013128D01*
X033049Y013915D01*
X034989Y013915D01*
X035120Y013783D01*
X035120Y013446D01*
X035216Y013088D01*
X035402Y012766D01*
X035665Y012503D01*
X035986Y012318D01*
X036345Y012222D01*
X036716Y012222D01*
X037075Y012318D01*
X037396Y012503D01*
X037634Y012742D01*
X043184Y012742D01*
X043511Y012877D01*
X043761Y013128D01*
X044549Y013915D01*
X046489Y013915D01*
X046620Y013783D01*
X046620Y013446D01*
X046716Y013088D01*
X046902Y012766D01*
X047165Y012503D01*
X047486Y012318D01*
X047845Y012222D01*
X048216Y012222D01*
X048575Y012318D01*
X048896Y012503D01*
X049159Y012766D01*
X049344Y013088D01*
X049440Y013446D01*
X049440Y013817D01*
X049344Y014176D01*
X049159Y014498D01*
X048896Y014760D01*
X048575Y014946D01*
X048216Y015042D01*
X047879Y015042D01*
X047612Y015309D01*
X047361Y015560D01*
X047034Y015695D01*
X044003Y015695D01*
X043676Y015560D01*
X042638Y014522D01*
X037634Y014522D01*
X037396Y014760D01*
X037075Y014946D01*
X036716Y015042D01*
X036379Y015042D01*
X036112Y015309D01*
X035861Y015560D01*
X035534Y015695D01*
X032503Y015695D01*
X032176Y015560D01*
X031138Y014522D01*
X026134Y014522D01*
X025896Y014760D01*
X025575Y014946D01*
X025216Y015042D01*
X024879Y015042D01*
X024416Y015505D01*
X029806Y015505D01*
X030337Y014973D01*
X030385Y014858D01*
X030483Y014760D01*
X030611Y014707D01*
X030749Y014707D01*
X030877Y014760D01*
X030975Y014858D01*
X031028Y014986D01*
X031028Y015124D01*
X030975Y015252D01*
X030877Y015350D01*
X030762Y015398D01*
X030184Y015975D01*
X030100Y016059D01*
X029990Y016105D01*
X008554Y016105D01*
X005480Y019179D01*
X005480Y020694D01*
X005549Y020763D01*
X005615Y020923D01*
X005615Y021687D01*
X005549Y021847D01*
X005427Y021969D01*
X005267Y022036D01*
X005093Y022036D01*
X004933Y021969D01*
X004811Y021847D01*
X004745Y021687D01*
X004745Y020923D01*
X004811Y020763D01*
X004880Y020694D01*
X004880Y018995D01*
X004926Y018885D01*
X005010Y018801D01*
X008116Y015695D01*
X007932Y015695D01*
X007605Y015560D01*
X007355Y015309D01*
X004508Y012463D01*
X004373Y012136D01*
X004373Y011782D01*
X004508Y011454D01*
X004759Y011204D01*
X004933Y011132D01*
X004759Y011060D01*
X004508Y010809D01*
X004373Y010482D01*
X004373Y010128D01*
X004508Y009801D01*
X004759Y009550D01*
X004933Y009478D01*
X004759Y009406D01*
X004508Y009156D01*
X004373Y008828D01*
X004373Y008474D01*
X004508Y008147D01*
X008355Y004301D01*
X008605Y004050D01*
X008932Y003915D01*
X015857Y003915D01*
X016184Y004050D01*
X021029Y008895D01*
X021318Y008895D01*
X021677Y008991D01*
X021999Y009177D01*
X022261Y009439D01*
X022447Y009761D01*
X022543Y010119D01*
X022543Y010491D01*
X022447Y010849D01*
X022261Y011171D01*
X021999Y011433D01*
X021677Y011619D01*
X021318Y011715D01*
X020947Y011715D01*
X020589Y011619D01*
X020267Y011433D01*
X020004Y011171D01*
X019819Y010849D01*
X019723Y010491D01*
X019723Y010119D01*
X019725Y010109D01*
X015311Y005695D01*
X014128Y005695D01*
X014396Y005850D01*
X014659Y006112D01*
X014844Y006434D01*
X014940Y006793D01*
X014940Y007164D01*
X014844Y007522D01*
X014659Y007844D01*
X014396Y008107D01*
X014075Y008292D01*
X013716Y008388D01*
X013345Y008388D01*
X012986Y008292D01*
X012665Y008107D01*
X012402Y007844D01*
X012216Y007522D01*
X012120Y007164D01*
X012120Y006793D01*
X012216Y006434D01*
X012402Y006112D01*
X012665Y005850D01*
X012933Y005695D01*
X009478Y005695D01*
X005767Y009406D01*
X005745Y009415D01*
X008529Y009415D01*
X008767Y009177D01*
X009089Y008991D01*
X009447Y008895D01*
X009818Y008895D01*
X010177Y008991D01*
X010499Y009177D01*
X010761Y009439D01*
X010947Y009761D01*
X011043Y010119D01*
X011043Y010491D01*
X010947Y010849D01*
X010761Y011171D01*
X010499Y011433D01*
X010177Y011619D01*
X009818Y011715D01*
X009447Y011715D01*
X009089Y011619D01*
X008767Y011433D01*
X008529Y011195D01*
X005745Y011195D01*
X005767Y011204D01*
X008478Y013915D01*
X011989Y013915D01*
X012120Y013783D01*
X012120Y013446D01*
X012216Y013088D01*
X012402Y012766D01*
X012665Y012503D01*
X012986Y012318D01*
X013345Y012222D01*
X013716Y012222D01*
X014075Y012318D01*
X014396Y012503D01*
X014634Y012742D01*
X020184Y012742D01*
X020511Y012877D01*
X021549Y013915D01*
X023489Y013915D01*
X023620Y013783D01*
X023592Y013811D02*
X021445Y013811D01*
X022289Y013494D02*
X023620Y013494D01*
X023650Y013336D02*
X022544Y013336D01*
X022666Y013177D02*
X023693Y013177D01*
X023756Y013019D02*
X022731Y013019D01*
X022741Y012860D02*
X023848Y012860D01*
X023967Y012702D02*
X022728Y012702D01*
X022662Y012543D02*
X024125Y012543D01*
X024371Y012385D02*
X022536Y012385D01*
X022270Y012226D02*
X024829Y012226D01*
X025232Y012226D02*
X033385Y012226D01*
X033446Y012201D02*
X033202Y012302D01*
X033016Y012488D01*
X032915Y012732D01*
X032915Y012996D01*
X033016Y013240D01*
X033202Y013426D01*
X033446Y013527D01*
X033710Y013527D01*
X033953Y013426D01*
X034140Y013240D01*
X034241Y012996D01*
X034241Y012732D01*
X034140Y012488D01*
X033953Y012302D01*
X033710Y012201D01*
X033446Y012201D01*
X033770Y012226D02*
X036329Y012226D01*
X036732Y012226D02*
X044885Y012226D01*
X044946Y012201D02*
X045210Y012201D01*
X045453Y012302D01*
X045640Y012488D01*
X045741Y012732D01*
X045741Y012996D01*
X045640Y013240D01*
X045453Y013426D01*
X045210Y013527D01*
X044946Y013527D01*
X044702Y013426D01*
X044516Y013240D01*
X044415Y012996D01*
X044415Y012732D01*
X044516Y012488D01*
X044702Y012302D01*
X044946Y012201D01*
X045270Y012226D02*
X047829Y012226D01*
X048232Y012226D02*
X053442Y012226D01*
X053442Y012068D02*
X006630Y012068D01*
X006789Y012226D02*
X010385Y012226D01*
X010446Y012201D02*
X010710Y012201D01*
X010953Y012302D01*
X011140Y012488D01*
X011241Y012732D01*
X011241Y012996D01*
X011140Y013240D01*
X010953Y013426D01*
X010710Y013527D01*
X010446Y013527D01*
X010202Y013426D01*
X010016Y013240D01*
X009915Y012996D01*
X009915Y012732D01*
X010016Y012488D01*
X010202Y012302D01*
X010446Y012201D01*
X010770Y012226D02*
X013329Y012226D01*
X013732Y012226D02*
X021885Y012226D01*
X021619Y012385D02*
X014190Y012385D01*
X014436Y012543D02*
X021493Y012543D01*
X021427Y012702D02*
X014594Y012702D01*
X014075Y011619D02*
X013716Y011715D01*
X013345Y011715D01*
X012986Y011619D01*
X012665Y011433D01*
X012402Y011171D01*
X012216Y010849D01*
X012120Y010491D01*
X012120Y010119D01*
X012216Y009761D01*
X012402Y009439D01*
X012665Y009177D01*
X012986Y008991D01*
X013345Y008895D01*
X013716Y008895D01*
X014075Y008991D01*
X014396Y009177D01*
X014659Y009439D01*
X014844Y009761D01*
X014940Y010119D01*
X014940Y010491D01*
X014844Y010849D01*
X014659Y011171D01*
X014396Y011433D01*
X014075Y011619D01*
X014121Y011592D02*
X016089Y011592D01*
X016136Y011619D02*
X015814Y011433D01*
X015552Y011171D01*
X015366Y010849D01*
X015270Y010491D01*
X015270Y010119D01*
X015366Y009761D01*
X015552Y009439D01*
X015814Y009177D01*
X016136Y008991D01*
X016494Y008895D01*
X016866Y008895D01*
X017224Y008991D01*
X017546Y009177D01*
X017808Y009439D01*
X017994Y009761D01*
X018090Y010119D01*
X018090Y010491D01*
X017994Y010849D01*
X017808Y011171D01*
X017546Y011433D01*
X017224Y011619D01*
X016866Y011715D01*
X016494Y011715D01*
X016136Y011619D01*
X015815Y011434D02*
X014396Y011434D01*
X014554Y011275D02*
X015656Y011275D01*
X015520Y011117D02*
X014690Y011117D01*
X014782Y010958D02*
X015429Y010958D01*
X015353Y010800D02*
X014858Y010800D01*
X014900Y010641D02*
X015310Y010641D01*
X015270Y010483D02*
X014940Y010483D01*
X014940Y010324D02*
X015270Y010324D01*
X015270Y010166D02*
X014940Y010166D01*
X014910Y010007D02*
X015300Y010007D01*
X015343Y009849D02*
X014868Y009849D01*
X014803Y009690D02*
X015407Y009690D01*
X015498Y009532D02*
X014712Y009532D01*
X014592Y009373D02*
X015618Y009373D01*
X015776Y009215D02*
X014434Y009215D01*
X014187Y009056D02*
X016023Y009056D01*
X016485Y008898D02*
X013725Y008898D01*
X013335Y008898D02*
X009828Y008898D01*
X009438Y008898D02*
X006275Y008898D01*
X006117Y009056D02*
X008976Y009056D01*
X008729Y009215D02*
X005958Y009215D01*
X005800Y009373D02*
X008571Y009373D01*
X006592Y008581D02*
X018197Y008581D01*
X018355Y008739D02*
X006434Y008739D01*
X006751Y008422D02*
X018038Y008422D01*
X017880Y008264D02*
X016510Y008264D01*
X016465Y008308D02*
X016221Y008409D01*
X015958Y008409D01*
X015714Y008308D01*
X015527Y008122D01*
X015426Y007878D01*
X015426Y007614D01*
X015527Y007370D01*
X015714Y007184D01*
X015958Y007083D01*
X016221Y007083D01*
X016465Y007184D01*
X016652Y007370D01*
X016753Y007614D01*
X016753Y007878D01*
X016652Y008122D01*
X016465Y008308D01*
X016658Y008105D02*
X017721Y008105D01*
X017563Y007947D02*
X016724Y007947D01*
X016753Y007788D02*
X017404Y007788D01*
X017246Y007630D02*
X016753Y007630D01*
X016693Y007471D02*
X017087Y007471D01*
X016929Y007313D02*
X016594Y007313D01*
X016770Y007154D02*
X016393Y007154D01*
X016612Y006996D02*
X014940Y006996D01*
X014940Y007154D02*
X015786Y007154D01*
X015585Y007313D02*
X014901Y007313D01*
X014858Y007471D02*
X015486Y007471D01*
X015426Y007630D02*
X014783Y007630D01*
X014691Y007788D02*
X015426Y007788D01*
X015455Y007947D02*
X014556Y007947D01*
X014398Y008105D02*
X015520Y008105D01*
X015669Y008264D02*
X014124Y008264D01*
X012937Y008264D02*
X006909Y008264D01*
X007068Y008105D02*
X012663Y008105D01*
X012505Y007947D02*
X007226Y007947D01*
X007385Y007788D02*
X012370Y007788D01*
X012278Y007630D02*
X007543Y007630D01*
X007702Y007471D02*
X012203Y007471D01*
X012160Y007313D02*
X007860Y007313D01*
X008019Y007154D02*
X012120Y007154D01*
X012120Y006996D02*
X008177Y006996D01*
X008336Y006837D02*
X012120Y006837D01*
X012151Y006679D02*
X008494Y006679D01*
X008653Y006520D02*
X012193Y006520D01*
X012258Y006362D02*
X008811Y006362D01*
X008970Y006203D02*
X012350Y006203D01*
X012470Y006045D02*
X009128Y006045D01*
X009287Y005886D02*
X012629Y005886D01*
X012877Y005728D02*
X009445Y005728D01*
X007879Y004777D02*
X003467Y004777D01*
X003309Y004935D02*
X007720Y004935D01*
X007562Y005094D02*
X003150Y005094D01*
X002992Y005252D02*
X007403Y005252D01*
X007245Y005411D02*
X002833Y005411D01*
X002675Y005569D02*
X007086Y005569D01*
X006928Y005728D02*
X002516Y005728D01*
X002358Y005886D02*
X006769Y005886D01*
X006611Y006045D02*
X003596Y006045D01*
X003743Y006105D02*
X003442Y005981D01*
X003115Y005981D01*
X002814Y006105D01*
X002583Y006336D01*
X002458Y006638D01*
X002458Y006964D01*
X002583Y007266D01*
X002814Y007497D01*
X003115Y007622D01*
X003442Y007622D01*
X003743Y007497D01*
X003974Y007266D01*
X004099Y006964D01*
X004099Y006638D01*
X003974Y006336D01*
X003743Y006105D01*
X003841Y006203D02*
X006452Y006203D01*
X006294Y006362D02*
X003985Y006362D01*
X004050Y006520D02*
X006135Y006520D01*
X005977Y006679D02*
X004099Y006679D01*
X004099Y006837D02*
X005818Y006837D01*
X005660Y006996D02*
X004086Y006996D01*
X004020Y007154D02*
X005501Y007154D01*
X005343Y007313D02*
X003927Y007313D01*
X003769Y007471D02*
X005184Y007471D01*
X005026Y007630D02*
X002070Y007630D01*
X002070Y007788D02*
X004867Y007788D01*
X004709Y007947D02*
X002070Y007947D01*
X002070Y008105D02*
X002619Y008105D01*
X002626Y008098D02*
X003569Y008098D01*
X003651Y008180D01*
X003651Y009123D01*
X003569Y009205D01*
X002626Y009205D01*
X002544Y009123D01*
X002544Y008180D01*
X002626Y008098D01*
X002544Y008264D02*
X002070Y008264D01*
X002070Y008422D02*
X002544Y008422D01*
X002544Y008581D02*
X002070Y008581D01*
X002070Y008739D02*
X002544Y008739D01*
X002544Y008898D02*
X002070Y008898D01*
X002070Y009056D02*
X002544Y009056D01*
X002070Y009215D02*
X004567Y009215D01*
X004467Y009056D02*
X003651Y009056D01*
X003651Y008898D02*
X004401Y008898D01*
X004373Y008739D02*
X003651Y008739D01*
X003651Y008581D02*
X004373Y008581D01*
X004394Y008422D02*
X003651Y008422D01*
X003651Y008264D02*
X004460Y008264D01*
X004550Y008105D02*
X003576Y008105D01*
X002788Y007471D02*
X002070Y007471D01*
X002070Y007313D02*
X002629Y007313D01*
X002536Y007154D02*
X002070Y007154D01*
X002070Y006996D02*
X002471Y006996D01*
X002458Y006837D02*
X002070Y006837D01*
X002070Y006679D02*
X002458Y006679D01*
X002507Y006520D02*
X002070Y006520D01*
X002070Y006362D02*
X002572Y006362D01*
X002716Y006203D02*
X002070Y006203D01*
X002070Y006174D02*
X002070Y009415D01*
X003274Y009415D01*
X003601Y009550D01*
X003852Y009801D01*
X003987Y010128D01*
X003987Y010482D01*
X003852Y010809D01*
X003601Y011060D01*
X003274Y011195D01*
X001503Y011195D01*
X001176Y011060D01*
X000925Y010809D01*
X000676Y010560D01*
X000425Y010309D01*
X000410Y010272D01*
X000410Y020652D01*
X000573Y020412D01*
X000573Y020412D01*
X000573Y020412D01*
X000965Y020100D01*
X001431Y019917D01*
X001431Y019917D01*
X001931Y019880D01*
X002419Y019991D01*
X002852Y020242D01*
X003193Y020609D01*
X003410Y021060D01*
X003485Y021555D01*
X003410Y022050D01*
X003410Y022050D01*
X003193Y022501D01*
X003193Y022501D01*
X002852Y022868D01*
X002720Y022945D01*
X051259Y022945D01*
X050948Y022698D01*
X050666Y022284D01*
X050519Y021805D01*
X050519Y021305D01*
X050666Y020826D01*
X050948Y020412D01*
X050948Y020412D01*
X050948Y020412D01*
X051340Y020100D01*
X051806Y019917D01*
X051806Y019917D01*
X052306Y019880D01*
X052794Y019991D01*
X053227Y020242D01*
X053227Y020242D01*
X053442Y020473D01*
X053442Y002887D01*
X053227Y003118D01*
X052794Y003369D01*
X052794Y003369D01*
X052306Y003480D01*
X052306Y003480D01*
X051806Y003443D01*
X051340Y003260D01*
X050948Y002948D01*
X050666Y002534D01*
X050519Y002055D01*
X050519Y001555D01*
X050666Y001076D01*
X050948Y000662D01*
X050948Y000662D01*
X050948Y000662D01*
X051265Y000410D01*
X002711Y000410D01*
X002852Y000492D01*
X002852Y000492D01*
X003193Y000859D01*
X003410Y001310D01*
X003485Y001805D01*
X003410Y002300D01*
X003410Y002300D01*
X003396Y002331D01*
X004676Y001050D01*
X005003Y000915D01*
X035810Y000915D01*
X036137Y001050D01*
X036387Y001301D01*
X043981Y008895D01*
X044318Y008895D01*
X044677Y008991D01*
X044999Y009177D01*
X045261Y009439D01*
X045447Y009761D01*
X045543Y010119D01*
X045543Y010491D01*
X045447Y010849D01*
X045261Y011171D01*
X044999Y011433D01*
X044677Y011619D01*
X044318Y011715D01*
X043947Y011715D01*
X043589Y011619D01*
X043267Y011433D01*
X043004Y011171D01*
X042819Y010849D01*
X042723Y010491D01*
X042723Y010154D01*
X035264Y002695D01*
X005549Y002695D01*
X002070Y006174D01*
X002199Y006045D02*
X002961Y006045D01*
X003626Y004618D02*
X008037Y004618D01*
X008196Y004460D02*
X003784Y004460D01*
X003943Y004301D02*
X008354Y004301D01*
X008513Y004143D02*
X004101Y004143D01*
X004260Y003984D02*
X008766Y003984D01*
X005528Y002716D02*
X035285Y002716D01*
X035444Y002875D02*
X005369Y002875D01*
X005211Y003033D02*
X035602Y003033D01*
X035761Y003192D02*
X005052Y003192D01*
X004894Y003350D02*
X035919Y003350D01*
X036078Y003509D02*
X004735Y003509D01*
X004577Y003667D02*
X036236Y003667D01*
X036395Y003826D02*
X004418Y003826D01*
X003486Y002241D02*
X003419Y002241D01*
X003443Y002082D02*
X003644Y002082D01*
X003803Y001924D02*
X003467Y001924D01*
X003479Y001765D02*
X003961Y001765D01*
X004120Y001607D02*
X003455Y001607D01*
X003431Y001448D02*
X004278Y001448D01*
X004437Y001290D02*
X003401Y001290D01*
X003410Y001310D02*
X003410Y001310D01*
X003324Y001131D02*
X004595Y001131D01*
X004864Y000973D02*
X003248Y000973D01*
X003193Y000859D02*
X003193Y000859D01*
X003152Y000814D02*
X050845Y000814D01*
X050737Y000973D02*
X035949Y000973D01*
X036217Y001131D02*
X050649Y001131D01*
X050666Y001076D02*
X050666Y001076D01*
X050601Y001290D02*
X036376Y001290D01*
X036534Y001448D02*
X050552Y001448D01*
X050519Y001607D02*
X036693Y001607D01*
X036851Y001765D02*
X050519Y001765D01*
X050519Y001924D02*
X037010Y001924D01*
X037168Y002082D02*
X050527Y002082D01*
X050576Y002241D02*
X037327Y002241D01*
X037485Y002399D02*
X050625Y002399D01*
X050666Y002534D02*
X050666Y002534D01*
X050682Y002558D02*
X037644Y002558D01*
X037802Y002716D02*
X050791Y002716D01*
X050899Y002875D02*
X037961Y002875D01*
X038119Y003033D02*
X051055Y003033D01*
X050948Y002948D02*
X050948Y002948D01*
X050948Y002948D01*
X051254Y003192D02*
X038278Y003192D01*
X038436Y003350D02*
X051570Y003350D01*
X051340Y003260D02*
X051340Y003260D01*
X051806Y003443D02*
X051806Y003443D01*
X052826Y003350D02*
X053442Y003350D01*
X053442Y003192D02*
X053101Y003192D01*
X053227Y003118D02*
X053227Y003118D01*
X053307Y003033D02*
X053442Y003033D01*
X053442Y003509D02*
X038595Y003509D01*
X038753Y003667D02*
X053442Y003667D01*
X053442Y003826D02*
X038912Y003826D01*
X039070Y003984D02*
X053442Y003984D01*
X053442Y004143D02*
X039229Y004143D01*
X039387Y004301D02*
X053442Y004301D01*
X053442Y004460D02*
X039546Y004460D01*
X039704Y004618D02*
X053442Y004618D01*
X053442Y004777D02*
X039863Y004777D01*
X040021Y004935D02*
X053442Y004935D01*
X053442Y005094D02*
X040180Y005094D01*
X040338Y005252D02*
X053442Y005252D01*
X053442Y005411D02*
X040497Y005411D01*
X040655Y005569D02*
X047842Y005569D01*
X047845Y005568D02*
X048216Y005568D01*
X048575Y005664D01*
X048896Y005850D01*
X049159Y006112D01*
X049344Y006434D01*
X049440Y006793D01*
X049440Y007164D01*
X049344Y007522D01*
X049159Y007844D01*
X048896Y008107D01*
X048575Y008292D01*
X048216Y008388D01*
X047845Y008388D01*
X047486Y008292D01*
X047165Y008107D01*
X046902Y007844D01*
X046716Y007522D01*
X046620Y007164D01*
X046620Y006793D01*
X046716Y006434D01*
X046902Y006112D01*
X047165Y005850D01*
X047486Y005664D01*
X047845Y005568D01*
X048219Y005569D02*
X053442Y005569D01*
X053442Y005728D02*
X048684Y005728D01*
X048932Y005886D02*
X053442Y005886D01*
X053442Y006045D02*
X049091Y006045D01*
X049211Y006203D02*
X053442Y006203D01*
X053442Y006362D02*
X049302Y006362D01*
X049367Y006520D02*
X053442Y006520D01*
X053442Y006679D02*
X049410Y006679D01*
X049440Y006837D02*
X053442Y006837D01*
X053442Y006996D02*
X049440Y006996D01*
X049440Y007154D02*
X050286Y007154D01*
X050214Y007184D02*
X050458Y007083D01*
X050721Y007083D01*
X050965Y007184D01*
X051152Y007370D01*
X051253Y007614D01*
X051253Y007878D01*
X051152Y008122D01*
X050965Y008308D01*
X050721Y008409D01*
X050458Y008409D01*
X050214Y008308D01*
X050027Y008122D01*
X049926Y007878D01*
X049926Y007614D01*
X050027Y007370D01*
X050214Y007184D01*
X050085Y007313D02*
X049401Y007313D01*
X049358Y007471D02*
X049986Y007471D01*
X049926Y007630D02*
X049283Y007630D01*
X049191Y007788D02*
X049926Y007788D01*
X049955Y007947D02*
X049056Y007947D01*
X048898Y008105D02*
X050020Y008105D01*
X050169Y008264D02*
X048624Y008264D01*
X048575Y008991D02*
X048216Y008895D01*
X047845Y008895D01*
X047486Y008991D01*
X047165Y009177D01*
X046902Y009439D01*
X046716Y009761D01*
X046620Y010119D01*
X046620Y010491D01*
X046716Y010849D01*
X046902Y011171D01*
X047165Y011433D01*
X047486Y011619D01*
X047845Y011715D01*
X048216Y011715D01*
X048575Y011619D01*
X048896Y011433D01*
X049159Y011171D01*
X049344Y010849D01*
X049440Y010491D01*
X049440Y010119D01*
X049344Y009761D01*
X049159Y009439D01*
X048896Y009177D01*
X048575Y008991D01*
X048687Y009056D02*
X050523Y009056D01*
X050636Y008991D02*
X050994Y008895D01*
X051366Y008895D01*
X051724Y008991D01*
X052046Y009177D01*
X052308Y009439D01*
X052494Y009761D01*
X052590Y010119D01*
X052590Y010491D01*
X052494Y010849D01*
X052308Y011171D01*
X052046Y011433D01*
X051724Y011619D01*
X051366Y011715D01*
X050994Y011715D01*
X050636Y011619D01*
X050314Y011433D01*
X050052Y011171D01*
X049866Y010849D01*
X049770Y010491D01*
X049770Y010119D01*
X049866Y009761D01*
X050052Y009439D01*
X050314Y009177D01*
X050636Y008991D01*
X050985Y008898D02*
X048225Y008898D01*
X047835Y008898D02*
X044328Y008898D01*
X044789Y009056D02*
X047374Y009056D01*
X047127Y009215D02*
X045036Y009215D01*
X045195Y009373D02*
X046968Y009373D01*
X046849Y009532D02*
X045314Y009532D01*
X045406Y009690D02*
X046757Y009690D01*
X046693Y009849D02*
X045470Y009849D01*
X045513Y010007D02*
X046650Y010007D01*
X046620Y010166D02*
X045543Y010166D01*
X045543Y010324D02*
X046620Y010324D01*
X046620Y010483D02*
X045543Y010483D01*
X045502Y010641D02*
X046661Y010641D01*
X046703Y010800D02*
X045460Y010800D01*
X045384Y010958D02*
X046779Y010958D01*
X046871Y011117D02*
X045292Y011117D01*
X045157Y011275D02*
X047006Y011275D01*
X047165Y011434D02*
X044998Y011434D01*
X044724Y011592D02*
X047440Y011592D01*
X048621Y011592D02*
X050589Y011592D01*
X050315Y011434D02*
X048896Y011434D01*
X049054Y011275D02*
X050156Y011275D01*
X050020Y011117D02*
X049190Y011117D01*
X049282Y010958D02*
X049929Y010958D01*
X049853Y010800D02*
X049358Y010800D01*
X049400Y010641D02*
X049810Y010641D01*
X049770Y010483D02*
X049440Y010483D01*
X049440Y010324D02*
X049770Y010324D01*
X049770Y010166D02*
X049440Y010166D01*
X049410Y010007D02*
X049800Y010007D01*
X049843Y009849D02*
X049368Y009849D01*
X049303Y009690D02*
X049907Y009690D01*
X049998Y009532D02*
X049212Y009532D01*
X049092Y009373D02*
X050118Y009373D01*
X050276Y009215D02*
X048934Y009215D01*
X047437Y008264D02*
X043350Y008264D01*
X043508Y008422D02*
X053442Y008422D01*
X053442Y008264D02*
X051010Y008264D01*
X051158Y008105D02*
X053442Y008105D01*
X053442Y007947D02*
X051224Y007947D01*
X051253Y007788D02*
X053442Y007788D01*
X053442Y007630D02*
X051253Y007630D01*
X051193Y007471D02*
X053442Y007471D01*
X053442Y007313D02*
X051094Y007313D01*
X050893Y007154D02*
X053442Y007154D01*
X053442Y008581D02*
X043667Y008581D01*
X043825Y008739D02*
X053442Y008739D01*
X053442Y008898D02*
X051375Y008898D01*
X051837Y009056D02*
X053442Y009056D01*
X053442Y009215D02*
X052084Y009215D01*
X052242Y009373D02*
X053442Y009373D01*
X053442Y009532D02*
X052362Y009532D01*
X052453Y009690D02*
X053442Y009690D01*
X053442Y009849D02*
X052517Y009849D01*
X052560Y010007D02*
X053442Y010007D01*
X053442Y010166D02*
X052590Y010166D01*
X052590Y010324D02*
X053442Y010324D01*
X053442Y010483D02*
X052590Y010483D01*
X052550Y010641D02*
X053442Y010641D01*
X053442Y010800D02*
X052507Y010800D01*
X052431Y010958D02*
X053442Y010958D01*
X053442Y011117D02*
X052340Y011117D01*
X052204Y011275D02*
X053442Y011275D01*
X053442Y011434D02*
X052045Y011434D01*
X051771Y011592D02*
X053442Y011592D01*
X053442Y011751D02*
X006313Y011751D01*
X006472Y011909D02*
X053442Y011909D01*
X053442Y012385D02*
X048690Y012385D01*
X048936Y012543D02*
X053442Y012543D01*
X053442Y012702D02*
X049094Y012702D01*
X049213Y012860D02*
X053442Y012860D01*
X053442Y013019D02*
X049304Y013019D01*
X049368Y013177D02*
X053442Y013177D01*
X053442Y013336D02*
X049411Y013336D01*
X049440Y013494D02*
X053442Y013494D01*
X053442Y013653D02*
X049440Y013653D01*
X049440Y013811D02*
X053442Y013811D01*
X053442Y013970D02*
X049400Y013970D01*
X049357Y014128D02*
X053442Y014128D01*
X053442Y014287D02*
X049281Y014287D01*
X049189Y014445D02*
X053442Y014445D01*
X053442Y014604D02*
X049053Y014604D01*
X048893Y014762D02*
X053442Y014762D01*
X053442Y014921D02*
X048618Y014921D01*
X047842Y015079D02*
X053442Y015079D01*
X053442Y015238D02*
X047683Y015238D01*
X047525Y015396D02*
X053442Y015396D01*
X053442Y015555D02*
X047366Y015555D01*
X049128Y016979D02*
X049486Y016831D01*
X049874Y016831D01*
X050218Y016973D01*
X050186Y016898D01*
X050186Y016643D01*
X050284Y016408D01*
X050464Y016228D01*
X050699Y016130D01*
X050954Y016130D01*
X051189Y016228D01*
X052076Y017115D01*
X052174Y017350D01*
X052174Y017605D01*
X052076Y017840D01*
X051896Y018020D01*
X051661Y018117D01*
X051406Y018117D01*
X051171Y018020D01*
X050578Y017427D01*
X050654Y017611D01*
X050654Y017999D01*
X050506Y018357D01*
X050232Y018631D01*
X049874Y018779D01*
X049486Y018779D01*
X049142Y018637D01*
X049174Y018712D01*
X049174Y018967D01*
X049076Y019202D01*
X048896Y019382D01*
X048661Y019480D01*
X048406Y019480D01*
X048171Y019382D01*
X047284Y018495D01*
X047186Y018260D01*
X047186Y018005D01*
X047284Y017770D01*
X047464Y017590D01*
X047699Y017493D01*
X047954Y017493D01*
X048189Y017590D01*
X048782Y018183D01*
X048706Y017999D01*
X048706Y017611D01*
X048854Y017253D01*
X049128Y016979D01*
X049126Y016981D02*
X040442Y016981D01*
X040576Y017115D02*
X040674Y017350D01*
X040674Y017605D01*
X040576Y017840D01*
X040396Y018020D01*
X040161Y018117D01*
X039906Y018117D01*
X039671Y018020D01*
X039078Y017427D01*
X039154Y017611D01*
X039154Y017999D01*
X039006Y018357D01*
X038732Y018631D01*
X038374Y018779D01*
X037986Y018779D01*
X037642Y018637D01*
X037674Y018712D01*
X037674Y018967D01*
X037576Y019202D01*
X037396Y019382D01*
X037161Y019480D01*
X036906Y019480D01*
X036671Y019382D01*
X035784Y018495D01*
X035686Y018260D01*
X035686Y018005D01*
X035784Y017770D01*
X035964Y017590D01*
X036199Y017493D01*
X036454Y017493D01*
X036689Y017590D01*
X037282Y018183D01*
X037206Y017999D01*
X037206Y017611D01*
X037354Y017253D01*
X037628Y016979D01*
X037986Y016831D01*
X038374Y016831D01*
X038718Y016973D01*
X038686Y016898D01*
X038686Y016643D01*
X038784Y016408D01*
X038964Y016228D01*
X039199Y016130D01*
X039454Y016130D01*
X039689Y016228D01*
X040576Y017115D01*
X040586Y017140D02*
X048968Y017140D01*
X048836Y017298D02*
X040652Y017298D01*
X040674Y017457D02*
X048770Y017457D01*
X048706Y017615D02*
X048214Y017615D01*
X048373Y017774D02*
X048706Y017774D01*
X048706Y017932D02*
X048531Y017932D01*
X048690Y018091D02*
X048744Y018091D01*
X049174Y018725D02*
X049355Y018725D01*
X049174Y018883D02*
X053442Y018883D01*
X053442Y018725D02*
X050005Y018725D01*
X050297Y018566D02*
X053442Y018566D01*
X053442Y018408D02*
X050455Y018408D01*
X050550Y018249D02*
X053442Y018249D01*
X053442Y018091D02*
X051726Y018091D01*
X051984Y017932D02*
X053442Y017932D01*
X053442Y017774D02*
X052104Y017774D01*
X052169Y017615D02*
X053442Y017615D01*
X053442Y017457D02*
X052174Y017457D01*
X052152Y017298D02*
X053442Y017298D01*
X053442Y017140D02*
X052086Y017140D01*
X051942Y016981D02*
X053442Y016981D01*
X053442Y016823D02*
X051784Y016823D01*
X051625Y016664D02*
X053442Y016664D01*
X053442Y016506D02*
X051467Y016506D01*
X051308Y016347D02*
X053442Y016347D01*
X053442Y016189D02*
X051094Y016189D01*
X050559Y016189D02*
X039594Y016189D01*
X039808Y016347D02*
X050345Y016347D01*
X050243Y016506D02*
X039967Y016506D01*
X040125Y016664D02*
X050186Y016664D01*
X050186Y016823D02*
X040284Y016823D01*
X039059Y016189D02*
X028094Y016189D01*
X028189Y016228D02*
X029076Y017115D01*
X029174Y017350D01*
X029174Y017605D01*
X029076Y017840D01*
X028896Y018020D01*
X028661Y018117D01*
X028406Y018117D01*
X028171Y018020D01*
X027578Y017427D01*
X027654Y017611D01*
X027654Y017999D01*
X027506Y018357D01*
X027232Y018631D01*
X026874Y018779D01*
X026486Y018779D01*
X026142Y018637D01*
X026174Y018712D01*
X026174Y018967D01*
X026076Y019202D01*
X025896Y019382D01*
X025661Y019480D01*
X025406Y019480D01*
X025171Y019382D01*
X024284Y018495D01*
X024186Y018260D01*
X024186Y018005D01*
X024284Y017770D01*
X024464Y017590D01*
X024699Y017493D01*
X024954Y017493D01*
X025189Y017590D01*
X025782Y018183D01*
X025706Y017999D01*
X025706Y017611D01*
X025854Y017253D01*
X026128Y016979D01*
X026486Y016831D01*
X026874Y016831D01*
X027218Y016973D01*
X027186Y016898D01*
X027186Y016643D01*
X027284Y016408D01*
X027464Y016228D01*
X027699Y016130D01*
X027954Y016130D01*
X028189Y016228D01*
X028308Y016347D02*
X038845Y016347D01*
X038743Y016506D02*
X028467Y016506D01*
X028625Y016664D02*
X038686Y016664D01*
X038686Y016823D02*
X028784Y016823D01*
X028942Y016981D02*
X037626Y016981D01*
X037468Y017140D02*
X029086Y017140D01*
X029152Y017298D02*
X037336Y017298D01*
X037270Y017457D02*
X029174Y017457D01*
X029169Y017615D02*
X035939Y017615D01*
X035782Y017774D02*
X029104Y017774D01*
X028984Y017932D02*
X035717Y017932D01*
X035686Y018091D02*
X028726Y018091D01*
X028341Y018091D02*
X027616Y018091D01*
X027654Y017932D02*
X028083Y017932D01*
X027925Y017774D02*
X027654Y017774D01*
X027654Y017615D02*
X027766Y017615D01*
X027608Y017457D02*
X027590Y017457D01*
X027186Y016823D02*
X017284Y016823D01*
X017442Y016981D02*
X026126Y016981D01*
X025968Y017140D02*
X017586Y017140D01*
X017576Y017115D02*
X017674Y017350D01*
X017674Y017605D01*
X017576Y017840D01*
X017396Y018020D01*
X017161Y018117D01*
X016906Y018117D01*
X016671Y018020D01*
X016078Y017427D01*
X016154Y017611D01*
X016154Y017999D01*
X016006Y018357D01*
X015732Y018631D01*
X015374Y018779D01*
X014986Y018779D01*
X014642Y018637D01*
X014674Y018712D01*
X014674Y018967D01*
X014576Y019202D01*
X014396Y019382D01*
X014161Y019480D01*
X013906Y019480D01*
X013671Y019382D01*
X012784Y018495D01*
X012686Y018260D01*
X012686Y018005D01*
X012784Y017770D01*
X012964Y017590D01*
X013199Y017493D01*
X013454Y017493D01*
X013689Y017590D01*
X014282Y018183D01*
X014206Y017999D01*
X014206Y017611D01*
X014354Y017253D01*
X014628Y016979D01*
X014986Y016831D01*
X015374Y016831D01*
X015718Y016973D01*
X015686Y016898D01*
X015686Y016643D01*
X015784Y016408D01*
X015964Y016228D01*
X016199Y016130D01*
X016454Y016130D01*
X016689Y016228D01*
X017576Y017115D01*
X017652Y017298D02*
X025836Y017298D01*
X025770Y017457D02*
X017674Y017457D01*
X017669Y017615D02*
X018882Y017615D01*
X018885Y017608D02*
X018983Y017510D01*
X019111Y017457D01*
X019249Y017457D01*
X019377Y017510D01*
X019475Y017608D01*
X019528Y017736D01*
X019528Y017874D01*
X019475Y018002D01*
X019377Y018100D01*
X019262Y018148D01*
X017434Y019975D01*
X017404Y020005D01*
X017931Y020005D01*
X018837Y019098D01*
X018885Y018983D01*
X018983Y018885D01*
X019111Y018832D01*
X019249Y018832D01*
X019377Y018885D01*
X019475Y018983D01*
X019528Y019111D01*
X019528Y019249D01*
X019475Y019377D01*
X019377Y019475D01*
X019262Y019523D01*
X018309Y020475D01*
X018225Y020559D01*
X018115Y020605D01*
X011804Y020605D01*
X011577Y020832D01*
X011615Y020923D01*
X011615Y021687D01*
X011549Y021847D01*
X011427Y021969D01*
X011267Y022036D01*
X011093Y022036D01*
X010933Y021969D01*
X010811Y021847D01*
X010745Y021687D01*
X010745Y020923D01*
X010811Y020763D01*
X010916Y020658D01*
X010926Y020635D01*
X011010Y020551D01*
X011456Y020105D01*
X009304Y020105D01*
X008980Y020429D01*
X008980Y020694D01*
X009049Y020763D01*
X009115Y020923D01*
X009115Y021687D01*
X009049Y021847D01*
X008927Y021969D01*
X008767Y022036D01*
X008593Y022036D01*
X008433Y021969D01*
X008311Y021847D01*
X008245Y021687D01*
X008245Y020923D01*
X008311Y020763D01*
X008380Y020694D01*
X008380Y020245D01*
X008426Y020135D01*
X009010Y019551D01*
X009120Y019505D01*
X017056Y019505D01*
X018837Y017723D01*
X018885Y017608D01*
X018787Y017774D02*
X017604Y017774D01*
X017484Y017932D02*
X018629Y017932D01*
X018470Y018091D02*
X017226Y018091D01*
X016841Y018091D02*
X016116Y018091D01*
X016154Y017932D02*
X016583Y017932D01*
X016425Y017774D02*
X016154Y017774D01*
X016154Y017615D02*
X016266Y017615D01*
X016108Y017457D02*
X016090Y017457D01*
X014626Y016981D02*
X007678Y016981D01*
X007520Y017140D02*
X014468Y017140D01*
X014336Y017298D02*
X007361Y017298D01*
X007203Y017457D02*
X014270Y017457D01*
X014206Y017615D02*
X013714Y017615D01*
X013873Y017774D02*
X014206Y017774D01*
X014206Y017932D02*
X014031Y017932D01*
X014190Y018091D02*
X014244Y018091D01*
X014674Y018725D02*
X014855Y018725D01*
X014674Y018883D02*
X017678Y018883D01*
X017836Y018725D02*
X015505Y018725D01*
X015797Y018566D02*
X017995Y018566D01*
X018153Y018408D02*
X015955Y018408D01*
X016050Y018249D02*
X018312Y018249D01*
X018685Y018725D02*
X024513Y018725D01*
X024672Y018883D02*
X019372Y018883D01*
X019499Y019042D02*
X024830Y019042D01*
X024989Y019200D02*
X019528Y019200D01*
X019483Y019359D02*
X025147Y019359D01*
X025920Y019359D02*
X036647Y019359D01*
X036489Y019200D02*
X026077Y019200D01*
X026143Y019042D02*
X036330Y019042D01*
X036172Y018883D02*
X026174Y018883D01*
X026174Y018725D02*
X026355Y018725D01*
X027005Y018725D02*
X036013Y018725D01*
X035855Y018566D02*
X027297Y018566D01*
X027455Y018408D02*
X035748Y018408D01*
X035686Y018249D02*
X027550Y018249D01*
X025744Y018091D02*
X025690Y018091D01*
X025706Y017932D02*
X025531Y017932D01*
X025373Y017774D02*
X025706Y017774D01*
X025706Y017615D02*
X025214Y017615D01*
X024439Y017615D02*
X019478Y017615D01*
X019528Y017774D02*
X024282Y017774D01*
X024217Y017932D02*
X019504Y017932D01*
X019386Y018091D02*
X024186Y018091D01*
X024186Y018249D02*
X019160Y018249D01*
X019002Y018408D02*
X024248Y018408D01*
X024355Y018566D02*
X018843Y018566D01*
X018988Y018883D02*
X018526Y018883D01*
X018368Y019042D02*
X018861Y019042D01*
X018736Y019200D02*
X018209Y019200D01*
X018051Y019359D02*
X018577Y019359D01*
X018419Y019517D02*
X017892Y019517D01*
X017734Y019676D02*
X018260Y019676D01*
X018102Y019834D02*
X017575Y019834D01*
X017417Y019993D02*
X017943Y019993D01*
X018475Y020310D02*
X051077Y020310D01*
X050910Y020468D02*
X018316Y020468D01*
X018309Y020475D02*
X018309Y020475D01*
X018633Y020151D02*
X051276Y020151D01*
X051340Y020100D02*
X051340Y020100D01*
X051614Y019993D02*
X018792Y019993D01*
X018950Y019834D02*
X053442Y019834D01*
X053442Y019676D02*
X019109Y019676D01*
X019275Y019517D02*
X053442Y019517D01*
X053442Y019359D02*
X048920Y019359D01*
X049077Y019200D02*
X053442Y019200D01*
X053442Y019042D02*
X049143Y019042D01*
X048147Y019359D02*
X037420Y019359D01*
X037577Y019200D02*
X047989Y019200D01*
X047830Y019042D02*
X037643Y019042D01*
X037674Y018883D02*
X047672Y018883D01*
X047513Y018725D02*
X038505Y018725D01*
X038797Y018566D02*
X047355Y018566D01*
X047248Y018408D02*
X038955Y018408D01*
X039050Y018249D02*
X047186Y018249D01*
X047186Y018091D02*
X040226Y018091D01*
X040484Y017932D02*
X047217Y017932D01*
X047282Y017774D02*
X040604Y017774D01*
X040669Y017615D02*
X047439Y017615D01*
X050590Y017457D02*
X050608Y017457D01*
X050654Y017615D02*
X050766Y017615D01*
X050654Y017774D02*
X050925Y017774D01*
X051083Y017932D02*
X050654Y017932D01*
X050616Y018091D02*
X051341Y018091D01*
X052306Y019880D02*
X052306Y019880D01*
X052794Y019991D02*
X052794Y019991D01*
X052796Y019993D02*
X053442Y019993D01*
X053442Y020151D02*
X053071Y020151D01*
X053291Y020310D02*
X053442Y020310D01*
X053438Y020468D02*
X053442Y020468D01*
X050802Y020627D02*
X011783Y020627D01*
X011624Y020785D02*
X050694Y020785D01*
X050666Y020826D02*
X050666Y020826D01*
X050630Y020944D02*
X011615Y020944D01*
X011615Y021102D02*
X050581Y021102D01*
X050532Y021261D02*
X011615Y021261D01*
X011615Y021419D02*
X050519Y021419D01*
X050519Y021578D02*
X011615Y021578D01*
X011595Y021736D02*
X050519Y021736D01*
X050546Y021895D02*
X011501Y021895D01*
X010859Y021895D02*
X010501Y021895D01*
X010549Y021847D02*
X010427Y021969D01*
X010267Y022036D01*
X010093Y022036D01*
X009933Y021969D01*
X009811Y021847D01*
X009745Y021687D01*
X009745Y020923D01*
X009811Y020763D01*
X009933Y020641D01*
X010093Y020574D01*
X010267Y020574D01*
X010427Y020641D01*
X010549Y020763D01*
X010615Y020923D01*
X010615Y021687D01*
X010549Y021847D01*
X010595Y021736D02*
X010765Y021736D01*
X010745Y021578D02*
X010615Y021578D01*
X010615Y021419D02*
X010745Y021419D01*
X010745Y021261D02*
X010615Y021261D01*
X010615Y021102D02*
X010745Y021102D01*
X010745Y020944D02*
X010615Y020944D01*
X010558Y020785D02*
X010802Y020785D01*
X010934Y020627D02*
X010392Y020627D01*
X009968Y020627D02*
X008980Y020627D01*
X008980Y020468D02*
X011093Y020468D01*
X011251Y020310D02*
X009100Y020310D01*
X009258Y020151D02*
X011410Y020151D01*
X009802Y020785D02*
X009058Y020785D01*
X009115Y020944D02*
X009745Y020944D01*
X009745Y021102D02*
X009115Y021102D01*
X009115Y021261D02*
X009745Y021261D01*
X009745Y021419D02*
X009115Y021419D01*
X009115Y021578D02*
X009745Y021578D01*
X009765Y021736D02*
X009095Y021736D01*
X009001Y021895D02*
X009859Y021895D01*
X008359Y021895D02*
X008001Y021895D01*
X008049Y021847D02*
X007927Y021969D01*
X007767Y022036D01*
X007593Y022036D01*
X007433Y021969D01*
X007311Y021847D01*
X007245Y021687D01*
X007245Y020923D01*
X007311Y020763D01*
X007433Y020641D01*
X007593Y020574D01*
X007767Y020574D01*
X007927Y020641D01*
X008049Y020763D01*
X008115Y020923D01*
X008115Y021687D01*
X008049Y021847D01*
X008095Y021736D02*
X008265Y021736D01*
X008245Y021578D02*
X008115Y021578D01*
X008115Y021419D02*
X008245Y021419D01*
X008245Y021261D02*
X008115Y021261D01*
X008115Y021102D02*
X008245Y021102D01*
X008245Y020944D02*
X008115Y020944D01*
X008058Y020785D02*
X008302Y020785D01*
X008380Y020627D02*
X007892Y020627D01*
X007468Y020627D02*
X006392Y020627D01*
X006427Y020641D02*
X006549Y020763D01*
X006615Y020923D01*
X006615Y021687D01*
X006549Y021847D01*
X006427Y021969D01*
X006267Y022036D01*
X006093Y022036D01*
X005933Y021969D01*
X005811Y021847D01*
X005745Y021687D01*
X005745Y020923D01*
X005811Y020763D01*
X005933Y020641D01*
X006093Y020574D01*
X006267Y020574D01*
X006427Y020641D01*
X006558Y020785D02*
X007302Y020785D01*
X007245Y020944D02*
X006615Y020944D01*
X006615Y021102D02*
X007245Y021102D01*
X007245Y021261D02*
X006615Y021261D01*
X006615Y021419D02*
X007245Y021419D01*
X007245Y021578D02*
X006615Y021578D01*
X006595Y021736D02*
X007265Y021736D01*
X007359Y021895D02*
X006501Y021895D01*
X005859Y021895D02*
X005501Y021895D01*
X005595Y021736D02*
X005765Y021736D01*
X005745Y021578D02*
X005615Y021578D01*
X005615Y021419D02*
X005745Y021419D01*
X005745Y021261D02*
X005615Y021261D01*
X005615Y021102D02*
X005745Y021102D01*
X005745Y020944D02*
X005615Y020944D01*
X005558Y020785D02*
X005802Y020785D01*
X005968Y020627D02*
X005480Y020627D01*
X005480Y020468D02*
X008380Y020468D01*
X008380Y020310D02*
X005480Y020310D01*
X005480Y020151D02*
X008419Y020151D01*
X008568Y019993D02*
X005480Y019993D01*
X005480Y019834D02*
X008727Y019834D01*
X008885Y019676D02*
X005480Y019676D01*
X005480Y019517D02*
X009091Y019517D01*
X006569Y018091D02*
X012686Y018091D01*
X012686Y018249D02*
X006410Y018249D01*
X006252Y018408D02*
X012748Y018408D01*
X012855Y018566D02*
X006093Y018566D01*
X005935Y018725D02*
X013013Y018725D01*
X013172Y018883D02*
X005776Y018883D01*
X005618Y019042D02*
X013330Y019042D01*
X013489Y019200D02*
X005480Y019200D01*
X005480Y019359D02*
X013647Y019359D01*
X014420Y019359D02*
X017202Y019359D01*
X017361Y019200D02*
X014577Y019200D01*
X014643Y019042D02*
X017519Y019042D01*
X012939Y017615D02*
X007044Y017615D01*
X006886Y017774D02*
X012782Y017774D01*
X012717Y017932D02*
X006727Y017932D01*
X006354Y017457D02*
X000410Y017457D01*
X000410Y017615D02*
X006196Y017615D01*
X006037Y017774D02*
X000410Y017774D01*
X000410Y017932D02*
X005879Y017932D01*
X005720Y018091D02*
X000410Y018091D01*
X000410Y018249D02*
X005562Y018249D01*
X005403Y018408D02*
X000410Y018408D01*
X000410Y018566D02*
X005245Y018566D01*
X005086Y018725D02*
X000410Y018725D01*
X000410Y018883D02*
X004928Y018883D01*
X004880Y019042D02*
X000410Y019042D01*
X000410Y019200D02*
X004880Y019200D01*
X004880Y019359D02*
X000410Y019359D01*
X000410Y019517D02*
X004880Y019517D01*
X004880Y019676D02*
X000410Y019676D01*
X000410Y019834D02*
X004880Y019834D01*
X004880Y019993D02*
X002421Y019993D01*
X002419Y019991D02*
X002419Y019991D01*
X002696Y020151D02*
X004880Y020151D01*
X004880Y020310D02*
X002916Y020310D01*
X002852Y020242D02*
X002852Y020242D01*
X002852Y020242D01*
X003063Y020468D02*
X004880Y020468D01*
X004880Y020627D02*
X004392Y020627D01*
X004427Y020641D02*
X004549Y020763D01*
X004615Y020923D01*
X004615Y021687D01*
X004549Y021847D01*
X004427Y021969D01*
X004267Y022036D01*
X004093Y022036D01*
X003933Y021969D01*
X003811Y021847D01*
X003745Y021687D01*
X003745Y020923D01*
X003811Y020763D01*
X003933Y020641D01*
X004093Y020574D01*
X004267Y020574D01*
X004427Y020641D01*
X004558Y020785D02*
X004802Y020785D01*
X004745Y020944D02*
X004615Y020944D01*
X004615Y021102D02*
X004745Y021102D01*
X004745Y021261D02*
X004615Y021261D01*
X004615Y021419D02*
X004745Y021419D01*
X004745Y021578D02*
X004615Y021578D01*
X004595Y021736D02*
X004765Y021736D01*
X004859Y021895D02*
X004501Y021895D01*
X003859Y021895D02*
X003434Y021895D01*
X003409Y022053D02*
X050595Y022053D01*
X050644Y022212D02*
X003333Y022212D01*
X003256Y022370D02*
X050725Y022370D01*
X050666Y022284D02*
X050666Y022284D01*
X050833Y022529D02*
X003168Y022529D01*
X003021Y022687D02*
X050941Y022687D01*
X050948Y022698D02*
X050948Y022698D01*
X050948Y022698D01*
X051134Y022846D02*
X002874Y022846D01*
X002852Y022868D02*
X002852Y022868D01*
X003458Y021736D02*
X003765Y021736D01*
X003745Y021578D02*
X003482Y021578D01*
X003465Y021419D02*
X003745Y021419D01*
X003745Y021261D02*
X003441Y021261D01*
X003417Y021102D02*
X003745Y021102D01*
X003745Y020944D02*
X003354Y020944D01*
X003410Y021060D02*
X003410Y021060D01*
X003278Y020785D02*
X003802Y020785D01*
X003968Y020627D02*
X003202Y020627D01*
X003193Y020609D02*
X003193Y020609D01*
X001931Y019880D02*
X001931Y019880D01*
X001239Y019993D02*
X000410Y019993D01*
X000410Y020151D02*
X000901Y020151D01*
X000965Y020100D02*
X000965Y020100D01*
X000702Y020310D02*
X000410Y020310D01*
X000410Y020468D02*
X000535Y020468D01*
X000427Y020627D02*
X000410Y020627D01*
X000410Y017298D02*
X006513Y017298D01*
X006671Y017140D02*
X000410Y017140D01*
X000410Y016981D02*
X006830Y016981D01*
X006988Y016823D02*
X000410Y016823D01*
X000410Y016664D02*
X007147Y016664D01*
X007305Y016506D02*
X000410Y016506D01*
X000410Y016347D02*
X007464Y016347D01*
X007622Y016189D02*
X000410Y016189D01*
X000410Y016030D02*
X007781Y016030D01*
X007939Y015872D02*
X000410Y015872D01*
X000410Y015713D02*
X008098Y015713D01*
X007600Y015555D02*
X000410Y015555D01*
X000410Y015396D02*
X007442Y015396D01*
X007283Y015238D02*
X000410Y015238D01*
X000410Y015079D02*
X007125Y015079D01*
X006966Y014921D02*
X000410Y014921D01*
X000410Y014762D02*
X006808Y014762D01*
X006649Y014604D02*
X003504Y014604D01*
X003442Y014629D02*
X003115Y014629D01*
X002814Y014505D01*
X002583Y014274D01*
X002458Y013972D01*
X002458Y013646D01*
X002583Y013344D01*
X002814Y013113D01*
X003115Y012988D01*
X003442Y012988D01*
X003743Y013113D01*
X003974Y013344D01*
X004099Y013646D01*
X004099Y013972D01*
X003974Y014274D01*
X003743Y014505D01*
X003442Y014629D01*
X003053Y014604D02*
X000410Y014604D01*
X000410Y014445D02*
X002754Y014445D01*
X002596Y014287D02*
X000410Y014287D01*
X000410Y014128D02*
X002522Y014128D01*
X002458Y013970D02*
X000410Y013970D01*
X000410Y013811D02*
X002458Y013811D01*
X002458Y013653D02*
X000410Y013653D01*
X000410Y013494D02*
X002521Y013494D01*
X002591Y013336D02*
X000410Y013336D01*
X000410Y013177D02*
X002750Y013177D01*
X003042Y013019D02*
X000410Y013019D01*
X000410Y012860D02*
X004906Y012860D01*
X005064Y013019D02*
X003514Y013019D01*
X003807Y013177D02*
X005223Y013177D01*
X005381Y013336D02*
X003965Y013336D01*
X004036Y013494D02*
X005540Y013494D01*
X005698Y013653D02*
X004099Y013653D01*
X004099Y013811D02*
X005857Y013811D01*
X006015Y013970D02*
X004099Y013970D01*
X004034Y014128D02*
X006174Y014128D01*
X006332Y014287D02*
X003961Y014287D01*
X003803Y014445D02*
X006491Y014445D01*
X008057Y013494D02*
X010366Y013494D01*
X010111Y013336D02*
X007898Y013336D01*
X007740Y013177D02*
X009990Y013177D01*
X009924Y013019D02*
X007581Y013019D01*
X007423Y012860D02*
X009915Y012860D01*
X009927Y012702D02*
X007264Y012702D01*
X007106Y012543D02*
X009993Y012543D01*
X010119Y012385D02*
X006947Y012385D01*
X006155Y011592D02*
X009042Y011592D01*
X008767Y011434D02*
X005996Y011434D01*
X005838Y011275D02*
X008609Y011275D01*
X010224Y011592D02*
X012940Y011592D01*
X012665Y011434D02*
X010498Y011434D01*
X010657Y011275D02*
X012506Y011275D01*
X012371Y011117D02*
X010792Y011117D01*
X010884Y010958D02*
X012279Y010958D01*
X012203Y010800D02*
X010960Y010800D01*
X011002Y010641D02*
X012161Y010641D01*
X012120Y010483D02*
X011043Y010483D01*
X011043Y010324D02*
X012120Y010324D01*
X012120Y010166D02*
X011043Y010166D01*
X011013Y010007D02*
X012150Y010007D01*
X012193Y009849D02*
X010970Y009849D01*
X010906Y009690D02*
X012257Y009690D01*
X012349Y009532D02*
X010814Y009532D01*
X010695Y009373D02*
X012468Y009373D01*
X012627Y009215D02*
X010536Y009215D01*
X010289Y009056D02*
X012874Y009056D01*
X016875Y008898D02*
X018514Y008898D01*
X018672Y009056D02*
X017337Y009056D01*
X017584Y009215D02*
X018831Y009215D01*
X018989Y009373D02*
X017742Y009373D01*
X017862Y009532D02*
X019148Y009532D01*
X019306Y009690D02*
X017953Y009690D01*
X018017Y009849D02*
X019465Y009849D01*
X019623Y010007D02*
X018060Y010007D01*
X018090Y010166D02*
X019723Y010166D01*
X019723Y010324D02*
X018090Y010324D01*
X018090Y010483D02*
X019723Y010483D01*
X019763Y010641D02*
X018050Y010641D01*
X018007Y010800D02*
X019806Y010800D01*
X019882Y010958D02*
X017931Y010958D01*
X017840Y011117D02*
X019973Y011117D01*
X020109Y011275D02*
X017704Y011275D01*
X017545Y011434D02*
X020267Y011434D01*
X020542Y011592D02*
X017271Y011592D01*
X020469Y012860D02*
X021415Y012860D01*
X021424Y013019D02*
X020652Y013019D01*
X020811Y013177D02*
X021490Y013177D01*
X021724Y011592D02*
X024440Y011592D01*
X024486Y011619D02*
X024165Y011433D01*
X023902Y011171D01*
X023716Y010849D01*
X023620Y010491D01*
X023620Y010119D01*
X023716Y009761D01*
X023902Y009439D01*
X024165Y009177D01*
X024486Y008991D01*
X024845Y008895D01*
X025216Y008895D01*
X025575Y008991D01*
X025896Y009177D01*
X026159Y009439D01*
X026344Y009761D01*
X026440Y010119D01*
X026440Y010491D01*
X026344Y010849D01*
X026159Y011171D01*
X025896Y011433D01*
X025575Y011619D01*
X025216Y011715D01*
X024845Y011715D01*
X024486Y011619D01*
X024165Y011434D02*
X021998Y011434D01*
X022157Y011275D02*
X024006Y011275D01*
X023871Y011117D02*
X022292Y011117D01*
X022384Y010958D02*
X023779Y010958D01*
X023703Y010800D02*
X022460Y010800D01*
X022502Y010641D02*
X023661Y010641D01*
X023620Y010483D02*
X022543Y010483D01*
X022543Y010324D02*
X023620Y010324D01*
X023620Y010166D02*
X022543Y010166D01*
X022513Y010007D02*
X023650Y010007D01*
X023693Y009849D02*
X022470Y009849D01*
X022406Y009690D02*
X023757Y009690D01*
X023849Y009532D02*
X022314Y009532D01*
X022195Y009373D02*
X023968Y009373D01*
X024127Y009215D02*
X022036Y009215D01*
X021789Y009056D02*
X024374Y009056D01*
X024835Y008898D02*
X021328Y008898D01*
X020873Y008739D02*
X041308Y008739D01*
X041150Y008581D02*
X020714Y008581D01*
X020556Y008422D02*
X040991Y008422D01*
X040833Y008264D02*
X039510Y008264D01*
X039465Y008308D02*
X039221Y008409D01*
X038958Y008409D01*
X038714Y008308D01*
X038527Y008122D01*
X038426Y007878D01*
X038426Y007614D01*
X038527Y007370D01*
X038714Y007184D01*
X038958Y007083D01*
X039221Y007083D01*
X039465Y007184D01*
X039652Y007370D01*
X039753Y007614D01*
X039753Y007878D01*
X039652Y008122D01*
X039465Y008308D01*
X039658Y008105D02*
X040674Y008105D01*
X040516Y007947D02*
X039724Y007947D01*
X039753Y007788D02*
X040357Y007788D01*
X040199Y007630D02*
X039753Y007630D01*
X039693Y007471D02*
X040040Y007471D01*
X039882Y007313D02*
X039594Y007313D01*
X039723Y007154D02*
X039393Y007154D01*
X039565Y006996D02*
X037940Y006996D01*
X037940Y007154D02*
X038786Y007154D01*
X038585Y007313D02*
X037901Y007313D01*
X037940Y007164D02*
X037844Y007522D01*
X037659Y007844D01*
X037396Y008107D01*
X037075Y008292D01*
X036716Y008388D01*
X036345Y008388D01*
X035986Y008292D01*
X035665Y008107D01*
X035402Y007844D01*
X035216Y007522D01*
X035120Y007164D01*
X035120Y006793D01*
X035216Y006434D01*
X035402Y006112D01*
X035665Y005850D01*
X035986Y005664D01*
X036345Y005568D01*
X036716Y005568D01*
X037075Y005664D01*
X037396Y005850D01*
X037659Y006112D01*
X037844Y006434D01*
X037940Y006793D01*
X037940Y007164D01*
X037858Y007471D02*
X038486Y007471D01*
X038426Y007630D02*
X037783Y007630D01*
X037691Y007788D02*
X038426Y007788D01*
X038455Y007947D02*
X037556Y007947D01*
X037398Y008105D02*
X038520Y008105D01*
X038669Y008264D02*
X037124Y008264D01*
X037075Y008991D02*
X036716Y008895D01*
X036345Y008895D01*
X035986Y008991D01*
X035665Y009177D01*
X035402Y009439D01*
X035216Y009761D01*
X035120Y010119D01*
X035120Y010491D01*
X035216Y010849D01*
X035402Y011171D01*
X035665Y011433D01*
X035986Y011619D01*
X036345Y011715D01*
X036716Y011715D01*
X037075Y011619D01*
X037396Y011433D01*
X037659Y011171D01*
X037844Y010849D01*
X037940Y010491D01*
X037940Y010119D01*
X037844Y009761D01*
X037659Y009439D01*
X037396Y009177D01*
X037075Y008991D01*
X037187Y009056D02*
X039023Y009056D01*
X039136Y008991D02*
X039494Y008895D01*
X039866Y008895D01*
X040224Y008991D01*
X040546Y009177D01*
X040808Y009439D01*
X040994Y009761D01*
X041090Y010119D01*
X041090Y010491D01*
X040994Y010849D01*
X040808Y011171D01*
X040546Y011433D01*
X040224Y011619D01*
X039866Y011715D01*
X039494Y011715D01*
X039136Y011619D01*
X038814Y011433D01*
X038552Y011171D01*
X038366Y010849D01*
X038270Y010491D01*
X038270Y010119D01*
X038366Y009761D01*
X038552Y009439D01*
X038814Y009177D01*
X039136Y008991D01*
X039485Y008898D02*
X036725Y008898D01*
X036335Y008898D02*
X032828Y008898D01*
X032818Y008895D02*
X033177Y008991D01*
X033499Y009177D01*
X033761Y009439D01*
X033947Y009761D01*
X034043Y010119D01*
X034043Y010491D01*
X033947Y010849D01*
X033761Y011171D01*
X033499Y011433D01*
X033177Y011619D01*
X032818Y011715D01*
X032447Y011715D01*
X032089Y011619D01*
X031767Y011433D01*
X031504Y011171D01*
X031319Y010849D01*
X031223Y010491D01*
X031223Y010119D01*
X031319Y009761D01*
X031504Y009439D01*
X031767Y009177D01*
X032089Y008991D01*
X032447Y008895D01*
X032818Y008895D01*
X032438Y008898D02*
X028375Y008898D01*
X028366Y008895D02*
X028724Y008991D01*
X029046Y009177D01*
X029308Y009439D01*
X029494Y009761D01*
X029590Y010119D01*
X029590Y010491D01*
X029494Y010849D01*
X029308Y011171D01*
X029046Y011433D01*
X028724Y011619D01*
X028366Y011715D01*
X027994Y011715D01*
X027636Y011619D01*
X027314Y011433D01*
X027052Y011171D01*
X026866Y010849D01*
X026770Y010491D01*
X026770Y010119D01*
X026866Y009761D01*
X027052Y009439D01*
X027314Y009177D01*
X027636Y008991D01*
X027994Y008895D01*
X028366Y008895D01*
X027985Y008898D02*
X025225Y008898D01*
X025687Y009056D02*
X027523Y009056D01*
X027276Y009215D02*
X025934Y009215D01*
X026092Y009373D02*
X027118Y009373D01*
X026998Y009532D02*
X026212Y009532D01*
X026303Y009690D02*
X026907Y009690D01*
X026843Y009849D02*
X026368Y009849D01*
X026410Y010007D02*
X026800Y010007D01*
X026770Y010166D02*
X026440Y010166D01*
X026440Y010324D02*
X026770Y010324D01*
X026770Y010483D02*
X026440Y010483D01*
X026400Y010641D02*
X026810Y010641D01*
X026853Y010800D02*
X026358Y010800D01*
X026282Y010958D02*
X026929Y010958D01*
X027020Y011117D02*
X026190Y011117D01*
X026054Y011275D02*
X027156Y011275D01*
X027315Y011434D02*
X025896Y011434D01*
X025621Y011592D02*
X027589Y011592D01*
X028771Y011592D02*
X032042Y011592D01*
X031767Y011434D02*
X029045Y011434D01*
X029204Y011275D02*
X031609Y011275D01*
X031473Y011117D02*
X029340Y011117D01*
X029431Y010958D02*
X031382Y010958D01*
X031306Y010800D02*
X029507Y010800D01*
X029550Y010641D02*
X031263Y010641D01*
X031223Y010483D02*
X029590Y010483D01*
X029590Y010324D02*
X031223Y010324D01*
X031223Y010166D02*
X029590Y010166D01*
X029560Y010007D02*
X031253Y010007D01*
X031295Y009849D02*
X029517Y009849D01*
X029453Y009690D02*
X031360Y009690D01*
X031451Y009532D02*
X029362Y009532D01*
X029242Y009373D02*
X031571Y009373D01*
X031729Y009215D02*
X029084Y009215D01*
X028837Y009056D02*
X031976Y009056D01*
X033289Y009056D02*
X035874Y009056D01*
X035627Y009215D02*
X033536Y009215D01*
X033695Y009373D02*
X035468Y009373D01*
X035349Y009532D02*
X033814Y009532D01*
X033906Y009690D02*
X035257Y009690D01*
X035193Y009849D02*
X033970Y009849D01*
X034013Y010007D02*
X035150Y010007D01*
X035120Y010166D02*
X034043Y010166D01*
X034043Y010324D02*
X035120Y010324D01*
X035120Y010483D02*
X034043Y010483D01*
X034002Y010641D02*
X035161Y010641D01*
X035203Y010800D02*
X033960Y010800D01*
X033884Y010958D02*
X035279Y010958D01*
X035371Y011117D02*
X033792Y011117D01*
X033657Y011275D02*
X035506Y011275D01*
X035665Y011434D02*
X033498Y011434D01*
X033224Y011592D02*
X035940Y011592D01*
X037121Y011592D02*
X039089Y011592D01*
X038815Y011434D02*
X037396Y011434D01*
X037554Y011275D02*
X038656Y011275D01*
X038520Y011117D02*
X037690Y011117D01*
X037782Y010958D02*
X038429Y010958D01*
X038353Y010800D02*
X037858Y010800D01*
X037900Y010641D02*
X038310Y010641D01*
X038270Y010483D02*
X037940Y010483D01*
X037940Y010324D02*
X038270Y010324D01*
X038270Y010166D02*
X037940Y010166D01*
X037910Y010007D02*
X038300Y010007D01*
X038343Y009849D02*
X037868Y009849D01*
X037803Y009690D02*
X038407Y009690D01*
X038498Y009532D02*
X037712Y009532D01*
X037592Y009373D02*
X038618Y009373D01*
X038776Y009215D02*
X037434Y009215D01*
X035937Y008264D02*
X028010Y008264D01*
X027965Y008308D02*
X027721Y008409D01*
X027458Y008409D01*
X027214Y008308D01*
X027027Y008122D01*
X026926Y007878D01*
X026926Y007614D01*
X027027Y007370D01*
X027214Y007184D01*
X027458Y007083D01*
X027721Y007083D01*
X027965Y007184D01*
X028152Y007370D01*
X028253Y007614D01*
X028253Y007878D01*
X028152Y008122D01*
X027965Y008308D01*
X028158Y008105D02*
X035663Y008105D01*
X035505Y007947D02*
X028224Y007947D01*
X028253Y007788D02*
X035370Y007788D01*
X035278Y007630D02*
X028253Y007630D01*
X028193Y007471D02*
X035203Y007471D01*
X035160Y007313D02*
X028094Y007313D01*
X027893Y007154D02*
X035120Y007154D01*
X035120Y006996D02*
X026440Y006996D01*
X026440Y007154D02*
X027286Y007154D01*
X027085Y007313D02*
X026401Y007313D01*
X026440Y007164D02*
X026344Y007522D01*
X026159Y007844D01*
X025896Y008107D01*
X025575Y008292D01*
X025216Y008388D01*
X024845Y008388D01*
X024486Y008292D01*
X024165Y008107D01*
X023902Y007844D01*
X023716Y007522D01*
X023620Y007164D01*
X023620Y006793D01*
X023716Y006434D01*
X023902Y006112D01*
X024165Y005850D01*
X024486Y005664D01*
X024845Y005568D01*
X025216Y005568D01*
X025575Y005664D01*
X025896Y005850D01*
X026159Y006112D01*
X026344Y006434D01*
X026440Y006793D01*
X026440Y007164D01*
X026358Y007471D02*
X026986Y007471D01*
X026926Y007630D02*
X026283Y007630D01*
X026191Y007788D02*
X026926Y007788D01*
X026955Y007947D02*
X026056Y007947D01*
X025898Y008105D02*
X027020Y008105D01*
X027169Y008264D02*
X025624Y008264D01*
X024437Y008264D02*
X020397Y008264D01*
X020239Y008105D02*
X024163Y008105D01*
X024005Y007947D02*
X020080Y007947D01*
X019922Y007788D02*
X023870Y007788D01*
X023778Y007630D02*
X019763Y007630D01*
X019605Y007471D02*
X023703Y007471D01*
X023660Y007313D02*
X019446Y007313D01*
X019288Y007154D02*
X023620Y007154D01*
X023620Y006996D02*
X019129Y006996D01*
X018971Y006837D02*
X023620Y006837D01*
X023651Y006679D02*
X018812Y006679D01*
X018654Y006520D02*
X023693Y006520D01*
X023758Y006362D02*
X018495Y006362D01*
X018337Y006203D02*
X023850Y006203D01*
X023970Y006045D02*
X018178Y006045D01*
X018020Y005886D02*
X024129Y005886D01*
X024377Y005728D02*
X017861Y005728D01*
X017703Y005569D02*
X024842Y005569D01*
X025219Y005569D02*
X036342Y005569D01*
X036719Y005569D02*
X038138Y005569D01*
X037980Y005411D02*
X017544Y005411D01*
X017386Y005252D02*
X037821Y005252D01*
X037663Y005094D02*
X017227Y005094D01*
X017069Y004935D02*
X037504Y004935D01*
X037346Y004777D02*
X016910Y004777D01*
X016752Y004618D02*
X037187Y004618D01*
X037029Y004460D02*
X016593Y004460D01*
X016435Y004301D02*
X036870Y004301D01*
X036712Y004143D02*
X016276Y004143D01*
X016024Y003984D02*
X036553Y003984D01*
X037184Y005728D02*
X038297Y005728D01*
X038455Y005886D02*
X037432Y005886D01*
X037591Y006045D02*
X038614Y006045D01*
X038772Y006203D02*
X037711Y006203D01*
X037802Y006362D02*
X038931Y006362D01*
X039089Y006520D02*
X037867Y006520D01*
X037910Y006679D02*
X039248Y006679D01*
X039406Y006837D02*
X037940Y006837D01*
X035877Y005728D02*
X025684Y005728D01*
X025932Y005886D02*
X035629Y005886D01*
X035470Y006045D02*
X026091Y006045D01*
X026211Y006203D02*
X035350Y006203D01*
X035258Y006362D02*
X026302Y006362D01*
X026367Y006520D02*
X035193Y006520D01*
X035151Y006679D02*
X026410Y006679D01*
X026440Y006837D02*
X035120Y006837D01*
X039875Y008898D02*
X041467Y008898D01*
X041625Y009056D02*
X040337Y009056D01*
X040584Y009215D02*
X041784Y009215D01*
X041942Y009373D02*
X040742Y009373D01*
X040862Y009532D02*
X042101Y009532D01*
X042259Y009690D02*
X040953Y009690D01*
X041017Y009849D02*
X042418Y009849D01*
X042576Y010007D02*
X041060Y010007D01*
X041090Y010166D02*
X042723Y010166D01*
X042723Y010324D02*
X041090Y010324D01*
X041090Y010483D02*
X042723Y010483D01*
X042763Y010641D02*
X041050Y010641D01*
X041007Y010800D02*
X042806Y010800D01*
X042882Y010958D02*
X040931Y010958D01*
X040840Y011117D02*
X042973Y011117D01*
X043109Y011275D02*
X040704Y011275D01*
X040545Y011434D02*
X043267Y011434D01*
X043542Y011592D02*
X040271Y011592D01*
X037594Y012702D02*
X044427Y012702D01*
X044415Y012860D02*
X043469Y012860D01*
X043652Y013019D02*
X044424Y013019D01*
X044490Y013177D02*
X043811Y013177D01*
X043969Y013336D02*
X044611Y013336D01*
X044866Y013494D02*
X044128Y013494D01*
X044286Y013653D02*
X046620Y013653D01*
X046620Y013494D02*
X045289Y013494D01*
X045544Y013336D02*
X046650Y013336D01*
X046693Y013177D02*
X045666Y013177D01*
X045731Y013019D02*
X046756Y013019D01*
X046848Y012860D02*
X045741Y012860D01*
X045728Y012702D02*
X046967Y012702D01*
X047125Y012543D02*
X045662Y012543D01*
X045536Y012385D02*
X047371Y012385D01*
X044619Y012385D02*
X037190Y012385D01*
X037436Y012543D02*
X044493Y012543D01*
X044445Y013811D02*
X046592Y013811D01*
X043671Y015555D02*
X035866Y015555D01*
X036025Y015396D02*
X043512Y015396D01*
X043354Y015238D02*
X036183Y015238D01*
X036342Y015079D02*
X043195Y015079D01*
X043037Y014921D02*
X037118Y014921D01*
X037393Y014762D02*
X042878Y014762D01*
X042720Y014604D02*
X037553Y014604D01*
X035092Y013811D02*
X032945Y013811D01*
X032786Y013653D02*
X035120Y013653D01*
X035120Y013494D02*
X033789Y013494D01*
X034044Y013336D02*
X035150Y013336D01*
X035193Y013177D02*
X034166Y013177D01*
X034231Y013019D02*
X035256Y013019D01*
X035348Y012860D02*
X034241Y012860D01*
X034228Y012702D02*
X035467Y012702D01*
X035625Y012543D02*
X034162Y012543D01*
X034036Y012385D02*
X035871Y012385D01*
X033366Y013494D02*
X032628Y013494D01*
X032469Y013336D02*
X033111Y013336D01*
X032990Y013177D02*
X032311Y013177D01*
X032152Y013019D02*
X032924Y013019D01*
X032915Y012860D02*
X031969Y012860D01*
X032927Y012702D02*
X026094Y012702D01*
X025936Y012543D02*
X032993Y012543D01*
X033119Y012385D02*
X025690Y012385D01*
X026053Y014604D02*
X031220Y014604D01*
X031378Y014762D02*
X030879Y014762D01*
X031001Y014921D02*
X031537Y014921D01*
X031695Y015079D02*
X031028Y015079D01*
X030981Y015238D02*
X031854Y015238D01*
X032012Y015396D02*
X030766Y015396D01*
X030605Y015555D02*
X032171Y015555D01*
X030446Y015713D02*
X053442Y015713D01*
X053442Y015872D02*
X030288Y015872D01*
X030129Y016030D02*
X053442Y016030D01*
X039841Y018091D02*
X039116Y018091D01*
X039154Y017932D02*
X039583Y017932D01*
X039425Y017774D02*
X039154Y017774D01*
X039154Y017615D02*
X039266Y017615D01*
X039108Y017457D02*
X039090Y017457D01*
X037206Y017615D02*
X036714Y017615D01*
X036873Y017774D02*
X037206Y017774D01*
X037206Y017932D02*
X037031Y017932D01*
X037190Y018091D02*
X037244Y018091D01*
X037674Y018725D02*
X037855Y018725D01*
X030359Y014921D02*
X025618Y014921D01*
X025893Y014762D02*
X030481Y014762D01*
X030232Y015079D02*
X024842Y015079D01*
X024683Y015238D02*
X030073Y015238D01*
X029915Y015396D02*
X024525Y015396D01*
X027243Y016506D02*
X016967Y016506D01*
X017125Y016664D02*
X027186Y016664D01*
X027345Y016347D02*
X016808Y016347D01*
X016594Y016189D02*
X027559Y016189D01*
X016059Y016189D02*
X008471Y016189D01*
X008312Y016347D02*
X015845Y016347D01*
X015743Y016506D02*
X008154Y016506D01*
X007995Y016664D02*
X015686Y016664D01*
X015686Y016823D02*
X007837Y016823D01*
X008374Y013811D02*
X012092Y013811D01*
X012120Y013653D02*
X008215Y013653D01*
X010789Y013494D02*
X012120Y013494D01*
X012150Y013336D02*
X011044Y013336D01*
X011166Y013177D02*
X012193Y013177D01*
X012256Y013019D02*
X011231Y013019D01*
X011241Y012860D02*
X012348Y012860D01*
X012467Y012702D02*
X011228Y012702D01*
X011162Y012543D02*
X012625Y012543D01*
X012871Y012385D02*
X011036Y012385D01*
X004896Y011117D02*
X003464Y011117D01*
X003534Y011365D02*
X003155Y011365D01*
X003155Y011901D01*
X003155Y012016D01*
X003691Y012016D01*
X003691Y012396D01*
X003678Y012441D01*
X003655Y012482D01*
X003621Y012516D01*
X003580Y012540D01*
X003534Y012552D01*
X003155Y012552D01*
X003155Y012016D01*
X003040Y012016D01*
X003040Y012552D01*
X002660Y012552D01*
X002614Y012540D01*
X002573Y012516D01*
X002540Y012482D01*
X002516Y012441D01*
X002504Y012396D01*
X002504Y012016D01*
X003040Y012016D01*
X003040Y011901D01*
X003155Y011901D01*
X003691Y011901D01*
X003691Y011521D01*
X003678Y011476D01*
X003655Y011435D01*
X003621Y011401D01*
X003580Y011377D01*
X003534Y011365D01*
X003654Y011434D02*
X004529Y011434D01*
X004451Y011592D02*
X003691Y011592D01*
X003691Y011751D02*
X004386Y011751D01*
X004373Y011909D02*
X003155Y011909D01*
X003040Y011909D02*
X000410Y011909D01*
X000410Y011751D02*
X002504Y011751D01*
X002504Y011901D02*
X002504Y011521D01*
X002516Y011476D01*
X002540Y011435D01*
X002573Y011401D01*
X002614Y011377D01*
X002660Y011365D01*
X003040Y011365D01*
X003040Y011901D01*
X002504Y011901D01*
X002504Y012068D02*
X000410Y012068D01*
X000410Y012226D02*
X002504Y012226D01*
X002504Y012385D02*
X000410Y012385D01*
X000410Y012543D02*
X002627Y012543D01*
X003040Y012543D02*
X003155Y012543D01*
X003155Y012385D02*
X003040Y012385D01*
X003040Y012226D02*
X003155Y012226D01*
X003155Y012068D02*
X003040Y012068D01*
X003040Y011751D02*
X003155Y011751D01*
X003155Y011592D02*
X003040Y011592D01*
X003040Y011434D02*
X003155Y011434D01*
X002541Y011434D02*
X000410Y011434D01*
X000410Y011592D02*
X002504Y011592D01*
X003691Y012068D02*
X004373Y012068D01*
X004410Y012226D02*
X003691Y012226D01*
X003691Y012385D02*
X004476Y012385D01*
X004589Y012543D02*
X003568Y012543D01*
X004747Y012702D02*
X000410Y012702D01*
X000410Y011275D02*
X004688Y011275D01*
X004657Y010958D02*
X003703Y010958D01*
X003856Y010800D02*
X004504Y010800D01*
X004439Y010641D02*
X003921Y010641D01*
X003987Y010483D02*
X004373Y010483D01*
X004373Y010324D02*
X003987Y010324D01*
X003987Y010166D02*
X004373Y010166D01*
X004423Y010007D02*
X003937Y010007D01*
X003872Y009849D02*
X004488Y009849D01*
X004619Y009690D02*
X003741Y009690D01*
X003556Y009532D02*
X004804Y009532D01*
X004726Y009373D02*
X002070Y009373D01*
X000599Y010483D02*
X000410Y010483D01*
X000410Y010641D02*
X000757Y010641D01*
X000916Y010800D02*
X000410Y010800D01*
X000410Y010958D02*
X001074Y010958D01*
X001313Y011117D02*
X000410Y011117D01*
X000410Y010324D02*
X000440Y010324D01*
X014184Y005728D02*
X015344Y005728D01*
X015502Y005886D02*
X014432Y005886D01*
X014591Y006045D02*
X015661Y006045D01*
X015819Y006203D02*
X014711Y006203D01*
X014802Y006362D02*
X015978Y006362D01*
X016136Y006520D02*
X014867Y006520D01*
X014910Y006679D02*
X016295Y006679D01*
X016453Y006837D02*
X014940Y006837D01*
X003005Y000656D02*
X050957Y000656D01*
X051156Y000497D02*
X002858Y000497D01*
X040814Y005728D02*
X047377Y005728D01*
X047129Y005886D02*
X040972Y005886D01*
X041131Y006045D02*
X046970Y006045D01*
X046850Y006203D02*
X041289Y006203D01*
X041448Y006362D02*
X046758Y006362D01*
X046693Y006520D02*
X041606Y006520D01*
X041765Y006679D02*
X046651Y006679D01*
X046620Y006837D02*
X041923Y006837D01*
X042082Y006996D02*
X046620Y006996D01*
X046620Y007154D02*
X042240Y007154D01*
X042399Y007313D02*
X046660Y007313D01*
X046703Y007471D02*
X042557Y007471D01*
X042716Y007630D02*
X046778Y007630D01*
X046870Y007788D02*
X042874Y007788D01*
X043033Y007947D02*
X047005Y007947D01*
X047163Y008105D02*
X043191Y008105D01*
D17*
X030680Y015055D03*
X019180Y017805D03*
X019180Y019180D03*
D18*
X018055Y020305D01*
X011680Y020305D01*
X011180Y020805D01*
X011180Y021305D01*
X008680Y021305D02*
X008680Y020305D01*
X009180Y019805D01*
X017180Y019805D01*
X019180Y017805D01*
X008430Y015805D02*
X005180Y019055D01*
X005180Y021305D01*
X008430Y015805D02*
X029930Y015805D01*
X030680Y015055D01*
M02*
