G75*
G70*
%OFA0B0*%
%FSLAX24Y24*%
%IPPOS*%
%LPD*%
%AMOC8*
5,1,8,0,0,1.08239X$1,22.5*
%
%ADD10C,0.0120*%
%ADD11C,0.0000*%
D10*
X000749Y003565D02*
X000749Y033093D01*
X040119Y033093D01*
X040119Y003565D01*
X000749Y003565D01*
D11*
X012533Y005065D02*
X012535Y005113D01*
X012541Y005161D01*
X012551Y005208D01*
X012564Y005254D01*
X012582Y005299D01*
X012602Y005343D01*
X012627Y005385D01*
X012655Y005424D01*
X012685Y005461D01*
X012719Y005495D01*
X012756Y005527D01*
X012794Y005556D01*
X012835Y005581D01*
X012878Y005603D01*
X012923Y005621D01*
X012969Y005635D01*
X013016Y005646D01*
X013064Y005653D01*
X013112Y005656D01*
X013160Y005655D01*
X013208Y005650D01*
X013256Y005641D01*
X013302Y005629D01*
X013347Y005612D01*
X013391Y005592D01*
X013433Y005569D01*
X013473Y005542D01*
X013511Y005512D01*
X013546Y005479D01*
X013578Y005443D01*
X013608Y005405D01*
X013634Y005364D01*
X013656Y005321D01*
X013676Y005277D01*
X013691Y005232D01*
X013703Y005185D01*
X013711Y005137D01*
X013715Y005089D01*
X013715Y005041D01*
X013711Y004993D01*
X013703Y004945D01*
X013691Y004898D01*
X013676Y004853D01*
X013656Y004809D01*
X013634Y004766D01*
X013608Y004725D01*
X013578Y004687D01*
X013546Y004651D01*
X013511Y004618D01*
X013473Y004588D01*
X013433Y004561D01*
X013391Y004538D01*
X013347Y004518D01*
X013302Y004501D01*
X013256Y004489D01*
X013208Y004480D01*
X013160Y004475D01*
X013112Y004474D01*
X013064Y004477D01*
X013016Y004484D01*
X012969Y004495D01*
X012923Y004509D01*
X012878Y004527D01*
X012835Y004549D01*
X012794Y004574D01*
X012756Y004603D01*
X012719Y004635D01*
X012685Y004669D01*
X012655Y004706D01*
X012627Y004745D01*
X012602Y004787D01*
X012582Y004831D01*
X012564Y004876D01*
X012551Y004922D01*
X012541Y004969D01*
X012535Y005017D01*
X012533Y005065D01*
X012533Y012565D02*
X012535Y012613D01*
X012541Y012661D01*
X012551Y012708D01*
X012564Y012754D01*
X012582Y012799D01*
X012602Y012843D01*
X012627Y012885D01*
X012655Y012924D01*
X012685Y012961D01*
X012719Y012995D01*
X012756Y013027D01*
X012794Y013056D01*
X012835Y013081D01*
X012878Y013103D01*
X012923Y013121D01*
X012969Y013135D01*
X013016Y013146D01*
X013064Y013153D01*
X013112Y013156D01*
X013160Y013155D01*
X013208Y013150D01*
X013256Y013141D01*
X013302Y013129D01*
X013347Y013112D01*
X013391Y013092D01*
X013433Y013069D01*
X013473Y013042D01*
X013511Y013012D01*
X013546Y012979D01*
X013578Y012943D01*
X013608Y012905D01*
X013634Y012864D01*
X013656Y012821D01*
X013676Y012777D01*
X013691Y012732D01*
X013703Y012685D01*
X013711Y012637D01*
X013715Y012589D01*
X013715Y012541D01*
X013711Y012493D01*
X013703Y012445D01*
X013691Y012398D01*
X013676Y012353D01*
X013656Y012309D01*
X013634Y012266D01*
X013608Y012225D01*
X013578Y012187D01*
X013546Y012151D01*
X013511Y012118D01*
X013473Y012088D01*
X013433Y012061D01*
X013391Y012038D01*
X013347Y012018D01*
X013302Y012001D01*
X013256Y011989D01*
X013208Y011980D01*
X013160Y011975D01*
X013112Y011974D01*
X013064Y011977D01*
X013016Y011984D01*
X012969Y011995D01*
X012923Y012009D01*
X012878Y012027D01*
X012835Y012049D01*
X012794Y012074D01*
X012756Y012103D01*
X012719Y012135D01*
X012685Y012169D01*
X012655Y012206D01*
X012627Y012245D01*
X012602Y012287D01*
X012582Y012331D01*
X012564Y012376D01*
X012551Y012422D01*
X012541Y012469D01*
X012535Y012517D01*
X012533Y012565D01*
X037862Y011724D02*
X037864Y011750D01*
X037870Y011776D01*
X037880Y011801D01*
X037893Y011824D01*
X037909Y011844D01*
X037929Y011862D01*
X037951Y011877D01*
X037974Y011889D01*
X038000Y011897D01*
X038026Y011901D01*
X038052Y011901D01*
X038078Y011897D01*
X038104Y011889D01*
X038128Y011877D01*
X038149Y011862D01*
X038169Y011844D01*
X038185Y011824D01*
X038198Y011801D01*
X038208Y011776D01*
X038214Y011750D01*
X038216Y011724D01*
X038214Y011698D01*
X038208Y011672D01*
X038198Y011647D01*
X038185Y011624D01*
X038169Y011604D01*
X038149Y011586D01*
X038127Y011571D01*
X038104Y011559D01*
X038078Y011551D01*
X038052Y011547D01*
X038026Y011547D01*
X038000Y011551D01*
X037974Y011559D01*
X037950Y011571D01*
X037929Y011586D01*
X037909Y011604D01*
X037893Y011624D01*
X037880Y011647D01*
X037870Y011672D01*
X037864Y011698D01*
X037862Y011724D01*
X037862Y013456D02*
X037864Y013482D01*
X037870Y013508D01*
X037880Y013533D01*
X037893Y013556D01*
X037909Y013576D01*
X037929Y013594D01*
X037951Y013609D01*
X037974Y013621D01*
X038000Y013629D01*
X038026Y013633D01*
X038052Y013633D01*
X038078Y013629D01*
X038104Y013621D01*
X038128Y013609D01*
X038149Y013594D01*
X038169Y013576D01*
X038185Y013556D01*
X038198Y013533D01*
X038208Y013508D01*
X038214Y013482D01*
X038216Y013456D01*
X038214Y013430D01*
X038208Y013404D01*
X038198Y013379D01*
X038185Y013356D01*
X038169Y013336D01*
X038149Y013318D01*
X038127Y013303D01*
X038104Y013291D01*
X038078Y013283D01*
X038052Y013279D01*
X038026Y013279D01*
X038000Y013283D01*
X037974Y013291D01*
X037950Y013303D01*
X037929Y013318D01*
X037909Y013336D01*
X037893Y013356D01*
X037880Y013379D01*
X037870Y013404D01*
X037864Y013430D01*
X037862Y013456D01*
X040154Y015206D02*
X040154Y021924D01*
X037872Y021494D02*
X037874Y021538D01*
X037880Y021582D01*
X037890Y021626D01*
X037903Y021668D01*
X037920Y021709D01*
X037941Y021748D01*
X037965Y021785D01*
X037993Y021820D01*
X038023Y021853D01*
X038056Y021882D01*
X038092Y021909D01*
X038129Y021932D01*
X038169Y021952D01*
X038210Y021969D01*
X038253Y021981D01*
X038297Y021990D01*
X038341Y021995D01*
X038385Y021996D01*
X038429Y021993D01*
X038473Y021986D01*
X038516Y021975D01*
X038558Y021961D01*
X038599Y021943D01*
X038638Y021921D01*
X038674Y021896D01*
X038709Y021868D01*
X038741Y021837D01*
X038769Y021803D01*
X038795Y021767D01*
X038818Y021729D01*
X038837Y021689D01*
X038852Y021647D01*
X038864Y021604D01*
X038872Y021560D01*
X038876Y021516D01*
X038876Y021472D01*
X038872Y021428D01*
X038864Y021384D01*
X038852Y021341D01*
X038837Y021299D01*
X038818Y021259D01*
X038795Y021221D01*
X038769Y021185D01*
X038741Y021151D01*
X038709Y021120D01*
X038674Y021092D01*
X038638Y021067D01*
X038599Y021045D01*
X038558Y021027D01*
X038516Y021013D01*
X038473Y021002D01*
X038429Y020995D01*
X038385Y020992D01*
X038341Y020993D01*
X038297Y020998D01*
X038253Y021007D01*
X038210Y021019D01*
X038169Y021036D01*
X038129Y021056D01*
X038092Y021079D01*
X038056Y021106D01*
X038023Y021135D01*
X037993Y021168D01*
X037965Y021203D01*
X037941Y021240D01*
X037920Y021279D01*
X037903Y021320D01*
X037890Y021362D01*
X037880Y021406D01*
X037874Y021450D01*
X037872Y021494D01*
X037872Y015636D02*
X037874Y015680D01*
X037880Y015724D01*
X037890Y015768D01*
X037903Y015810D01*
X037920Y015851D01*
X037941Y015890D01*
X037965Y015927D01*
X037993Y015962D01*
X038023Y015995D01*
X038056Y016024D01*
X038092Y016051D01*
X038129Y016074D01*
X038169Y016094D01*
X038210Y016111D01*
X038253Y016123D01*
X038297Y016132D01*
X038341Y016137D01*
X038385Y016138D01*
X038429Y016135D01*
X038473Y016128D01*
X038516Y016117D01*
X038558Y016103D01*
X038599Y016085D01*
X038638Y016063D01*
X038674Y016038D01*
X038709Y016010D01*
X038741Y015979D01*
X038769Y015945D01*
X038795Y015909D01*
X038818Y015871D01*
X038837Y015831D01*
X038852Y015789D01*
X038864Y015746D01*
X038872Y015702D01*
X038876Y015658D01*
X038876Y015614D01*
X038872Y015570D01*
X038864Y015526D01*
X038852Y015483D01*
X038837Y015441D01*
X038818Y015401D01*
X038795Y015363D01*
X038769Y015327D01*
X038741Y015293D01*
X038709Y015262D01*
X038674Y015234D01*
X038638Y015209D01*
X038599Y015187D01*
X038558Y015169D01*
X038516Y015155D01*
X038473Y015144D01*
X038429Y015137D01*
X038385Y015134D01*
X038341Y015135D01*
X038297Y015140D01*
X038253Y015149D01*
X038210Y015161D01*
X038169Y015178D01*
X038129Y015198D01*
X038092Y015221D01*
X038056Y015248D01*
X038023Y015277D01*
X037993Y015310D01*
X037965Y015345D01*
X037941Y015382D01*
X037920Y015421D01*
X037903Y015462D01*
X037890Y015504D01*
X037880Y015548D01*
X037874Y015592D01*
X037872Y015636D01*
M02*
