%
M48
M72
T01C0.0150
T02C0.0252
T03C0.0315
T04C0.0320
T05C0.0394
T06C0.0400
T07C0.0470
T08C0.1181
%
T01
X24100Y5430
X24475Y6055
X24725Y6680
X23100Y8930
X23475Y9555
X23725Y10180
X22225Y13055
X22225Y13555
X20725Y13055
X25632Y12962
X23475Y15930
X23225Y16555
X22850Y17180
X23100Y17555
X23100Y17930
X23100Y18305
X23100Y18680
X23100Y19055
X24475Y19430
X24225Y20055
X23850Y20680
X25725Y22055
X25350Y22305
X24975Y22555
X26725Y23180
X26975Y23555
X27225Y23930
X24725Y24680
X22350Y25180
X21725Y25430
X21100Y25805
X18100Y24805
X18725Y24430
X19350Y24180
X24725Y26430
X25350Y26305
X27100Y25430
X27725Y25680
X28350Y26180
X31350Y25055
X30725Y24680
X30100Y24430
X32725Y23305
X33725Y22930
X34725Y22680
X36975Y22055
X36725Y21680
X35725Y20930
X35225Y20930
X33225Y20930
X33225Y20180
X35225Y19930
X35725Y19680
X39350Y21305
X39975Y21805
X39975Y22305
X39975Y22805
X39725Y23180
X37725Y23680
X36725Y23930
X35725Y24430
X38100Y24805
X39850Y24180
X41725Y23930
X42725Y24180
X43725Y24680
X46725Y23555
X45725Y23180
X44725Y22930
X48725Y24430
X49350Y24180
X48100Y24805
X51100Y25930
X51725Y25430
X52350Y25180
X54475Y25305
X54725Y26430
X55350Y26430
X57100Y25430
X57725Y25680
X58350Y26180
X57475Y24430
X54350Y23805
X55350Y22805
X54100Y27930
X60725Y27930
X61350Y27930
X40350Y26180
X39725Y26180
X35225Y26555
X37225Y22430
X24100Y27930
X18725Y19055
X18850Y18680
X18975Y18305
X19100Y17930
X19225Y17555
X16350Y17430
X15350Y17430
X14100Y17430
X13725Y16430
X14600Y16430
X61475Y15805
X62475Y16305
X61600Y16555
X62725Y15305
X62725Y14305
T02
X59906Y7021
X58725Y7021
X57544Y7021
X57544Y5839
X58725Y5839
X59906Y5839
T03
X47225Y1555
X46225Y1555
X45225Y1555
X34225Y1555
X33225Y1555
X32225Y1555
X42225Y21305
X42225Y25555
X41225Y25555
X40225Y25555
X39225Y25555
X38225Y25555
X37225Y25555
X36225Y25555
X35225Y25555
X34225Y25555
X33225Y25555
X32225Y25555
X43225Y25555
X44225Y25555
X45225Y25555
X46225Y25555
X47225Y25555
T04
X66525Y7555
X67925Y7555
T05
X67763Y10218
X68763Y10218
X66763Y10218
X65763Y10218
X64763Y10218
X63763Y10218
X62763Y10218
X61763Y10218
X60763Y10218
X59763Y10218
X58763Y10218
X58763Y11218
X59763Y11218
X60763Y11218
X61763Y11218
X62763Y11218
X63763Y11218
X64763Y11218
X65763Y11218
X66763Y11218
X67763Y11218
X68763Y11218
X57725Y12555
X56725Y12555
X56725Y13555
X57725Y13555
X57725Y14555
X56725Y14555
X56725Y15555
X57725Y15555
X57725Y16555
X56725Y16555
X56725Y17555
X57725Y17555
X57725Y18555
X56725Y18555
X56725Y19555
X57725Y19555
X57725Y20555
X56725Y20555
X56725Y21555
X57725Y21555
X57725Y22555
X56725Y22555
X59719Y24832
X60719Y24832
X61719Y24832
X62719Y24832
X63719Y24832
X64719Y24832
X65719Y24832
X66719Y24832
X67975Y24830
X68975Y24830
X69975Y24830
X70975Y24830
X71975Y24830
X72975Y24830
X73975Y24830
X74975Y24830
X75975Y24830
X75975Y25830
X74975Y25830
X73975Y25830
X72975Y25830
X71975Y25830
X70975Y25830
X69975Y25830
X68975Y25830
X67975Y25830
X66719Y25832
X65719Y25832
X64719Y25832
X63719Y25832
X62719Y25832
X61719Y25832
X60719Y25832
X59719Y25832
T06
X13365Y22960
X11585Y22960
X10505Y24040
X7945Y24040
X6865Y22960
X5085Y22960
X5085Y20400
X6865Y20400
X7945Y19320
X10505Y19320
X11585Y20400
X13365Y20400
X10505Y17540
X7945Y17540
X7945Y13445
X10505Y13445
X10505Y11665
X7945Y11665
X7945Y25820
X10505Y25820
X72225Y4555
X72225Y2555
T07
X77225Y5571
X77225Y7539
X76725Y9555
X76725Y17555
T08
X1725Y1805
X58725Y4147
X77225Y1805
X77225Y28055
X1725Y28055
M30
