G75*
%MOIN*%
%OFA0B0*%
%FSLAX25Y25*%
%IPPOS*%
%LPD*%
%AMOC8*
5,1,8,0,0,1.08239X$1,22.5*
%
%ADD10R,0.03150X0.03543*%
%ADD11R,0.03543X0.03150*%
%ADD12R,0.04724X0.04724*%
%ADD13R,0.08000X0.02600*%
%ADD14R,0.05118X0.05118*%
%ADD15R,0.14173X0.05118*%
%ADD16R,0.05118X0.04724*%
%ADD17R,0.05906X0.05906*%
%ADD18R,0.09449X0.07874*%
%ADD19R,0.09087X0.01969*%
%ADD20R,0.15000X0.10000*%
%ADD21R,0.14567X0.05906*%
D10*
X0044142Y0015000D03*
X0044142Y0021000D03*
X0196642Y0083750D03*
X0196642Y0089750D03*
X0196642Y0097500D03*
X0196642Y0103500D03*
X0225392Y0107500D03*
X0225392Y0113500D03*
X0044142Y0130625D03*
X0044142Y0136625D03*
D11*
X0243642Y0136750D03*
X0249642Y0136750D03*
X0249642Y0130500D03*
X0243642Y0130500D03*
X0243642Y0124250D03*
X0249642Y0124250D03*
X0249642Y0143000D03*
X0243642Y0143000D03*
D12*
X0255633Y0130500D03*
X0263901Y0130500D03*
X0263901Y0124250D03*
X0255633Y0124250D03*
D13*
X0264567Y0101125D03*
X0264567Y0096125D03*
X0264567Y0091125D03*
X0264567Y0086125D03*
X0264567Y0081125D03*
X0264567Y0076125D03*
X0264567Y0071125D03*
X0264567Y0066125D03*
X0264567Y0061125D03*
X0264567Y0056125D03*
X0224967Y0056125D03*
X0224967Y0061125D03*
X0224967Y0066125D03*
X0224967Y0071125D03*
X0224967Y0076125D03*
X0224967Y0081125D03*
X0224967Y0086125D03*
X0224967Y0091125D03*
X0224967Y0096125D03*
X0224967Y0101125D03*
D14*
X0235087Y0024742D03*
X0244142Y0024742D03*
X0253197Y0024742D03*
D15*
X0244142Y0048758D03*
D16*
X0262892Y0040750D03*
X0262892Y0032750D03*
X0225392Y0032750D03*
X0225392Y0040750D03*
D17*
X0063781Y0018000D03*
X0052002Y0018000D03*
X0052002Y0134250D03*
X0063781Y0134250D03*
D18*
X0289112Y0093448D03*
X0289112Y0058802D03*
D19*
X0286892Y0069826D03*
X0286892Y0072975D03*
X0286892Y0076125D03*
X0286892Y0079275D03*
X0286892Y0082424D03*
D20*
X0310766Y0093448D03*
X0310766Y0058802D03*
D21*
X0280392Y0049393D03*
X0280392Y0032857D03*
M02*
