%
M48
M72
T01C0.0130
T02C0.0236
T03C0.0315
T04C0.0320
T05C0.0394
T06C0.1181
%
T01
X16852Y7863
X23164Y8613
X23414Y8113
X23664Y7613
X25789Y6613
X25789Y6113
X27164Y6863
X25477Y9050
X23664Y11988
X23352Y11988
X23039Y11988
X25477Y14613
X23039Y2488
X23539Y1988
T02
X25539Y3238
T03
X10770Y3282
X9983Y3282
X9195Y3282
X8408Y3282
X7620Y3282
X6833Y3282
X6046Y3282
X5258Y3282
X4471Y3282
X3683Y3282
X3683Y11943
X4471Y11943
X5258Y11943
X6046Y11943
X6833Y11943
X7620Y11943
X8408Y11943
X9195Y11943
X9983Y11943
X10770Y11943
T04
X20977Y10313
X20977Y8413
T05
X18914Y4550
X17914Y4550
X16914Y4550
X15914Y4550
X14914Y4550
X13914Y4550
X12914Y4550
X11914Y4550
X10914Y4550
X9914Y4550
X8914Y4550
X7914Y4550
X6914Y4550
X5914Y4550
X5914Y12550
X6914Y12550
X7914Y12550
X8914Y12550
X9914Y12550
X10914Y12550
X11914Y12550
X12914Y12550
X13914Y12550
X14914Y12550
X15914Y12550
X16914Y12550
X17914Y12550
X18914Y12550
X29895Y8479
X29895Y6746
T06
X2477Y1800
X2477Y13363
X30227Y13300
X30289Y1800
M30
