G75*
%MOIN*%
%OFA0B0*%
%FSLAX25Y25*%
%IPPOS*%
%LPD*%
%AMOC8*
5,1,8,0,0,1.08239X$1,22.5*
%
%ADD10C,0.05365*%
%ADD11C,0.12402*%
%ADD12OC8,0.06102*%
%ADD13C,0.05591*%
%ADD14C,0.04528*%
%ADD15C,0.03072*%
%ADD16C,0.04843*%
D10*
X0209767Y0084125D03*
X0209767Y0103125D03*
D11*
X0024767Y0018000D03*
X0024767Y0133625D03*
X0302267Y0133000D03*
X0302892Y0018000D03*
D12*
X0189142Y0045500D03*
X0179142Y0045500D03*
X0169142Y0045500D03*
X0159142Y0045500D03*
X0149142Y0045500D03*
X0139142Y0045500D03*
X0129142Y0045500D03*
X0119142Y0045500D03*
X0109142Y0045500D03*
X0099142Y0045500D03*
X0089142Y0045500D03*
X0079142Y0045500D03*
X0069142Y0045500D03*
X0059142Y0045500D03*
X0059142Y0125500D03*
X0069142Y0125500D03*
X0079142Y0125500D03*
X0089142Y0125500D03*
X0099142Y0125500D03*
X0109142Y0125500D03*
X0119142Y0125500D03*
X0129142Y0125500D03*
X0139142Y0125500D03*
X0149142Y0125500D03*
X0159142Y0125500D03*
X0169142Y0125500D03*
X0179142Y0125500D03*
X0189142Y0125500D03*
D13*
X0107700Y0119432D03*
X0099826Y0119432D03*
X0091952Y0119432D03*
X0084078Y0119432D03*
X0076204Y0119432D03*
X0068330Y0119432D03*
X0060456Y0119432D03*
X0052582Y0119432D03*
X0044708Y0119432D03*
X0036834Y0119432D03*
X0036834Y0032818D03*
X0044708Y0032818D03*
X0052582Y0032818D03*
X0060456Y0032818D03*
X0068330Y0032818D03*
X0076204Y0032818D03*
X0084078Y0032818D03*
X0091952Y0032818D03*
X0099826Y0032818D03*
X0107700Y0032818D03*
D14*
X0298955Y0067464D03*
X0298955Y0084786D03*
D15*
X0271642Y0068625D03*
X0257892Y0066125D03*
X0257892Y0061125D03*
X0236642Y0076125D03*
X0234142Y0081125D03*
X0231642Y0086125D03*
X0254767Y0090500D03*
X0236642Y0119875D03*
X0233517Y0119875D03*
X0230392Y0119875D03*
X0254767Y0146125D03*
X0168517Y0078625D03*
X0230392Y0024875D03*
X0235392Y0019875D03*
D16*
X0255392Y0032375D03*
M02*
