G75*
%MOIN*%
%OFA0B0*%
%FSLAX25Y25*%
%IPPOS*%
%LPD*%
%AMOC8*
5,1,8,0,0,1.08239X$1,22.5*
%
%ADD10R,0.03740X0.04134*%
%ADD11R,0.04134X0.03740*%
%ADD12R,0.05315X0.05315*%
%ADD13C,0.05365*%
%ADD14R,0.08591X0.03191*%
%ADD15R,0.05709X0.05709*%
%ADD16R,0.14764X0.05709*%
%ADD17R,0.05709X0.05315*%
%ADD18C,0.12402*%
%ADD19OC8,0.06102*%
%ADD20C,0.05591*%
%ADD21R,0.06496X0.06496*%
%ADD22R,0.10039X0.08465*%
%ADD23R,0.09677X0.02559*%
%ADD24R,0.15591X0.10591*%
%ADD25C,0.04528*%
%ADD26R,0.15157X0.06496*%
%ADD27C,0.03072*%
%ADD28C,0.04843*%
D10*
X0044142Y0015000D03*
X0044142Y0021000D03*
X0196642Y0083750D03*
X0196642Y0089750D03*
X0196642Y0097500D03*
X0196642Y0103500D03*
X0225392Y0107500D03*
X0225392Y0113500D03*
X0044142Y0130625D03*
X0044142Y0136625D03*
D11*
X0243642Y0136750D03*
X0249642Y0136750D03*
X0249642Y0130500D03*
X0243642Y0130500D03*
X0243642Y0124250D03*
X0249642Y0124250D03*
X0249642Y0143000D03*
X0243642Y0143000D03*
D12*
X0255633Y0130500D03*
X0263901Y0130500D03*
X0263901Y0124250D03*
X0255633Y0124250D03*
D13*
X0209767Y0103125D03*
X0209767Y0084125D03*
D14*
X0224967Y0086125D03*
X0224967Y0081125D03*
X0224967Y0076125D03*
X0224967Y0071125D03*
X0224967Y0066125D03*
X0224967Y0061125D03*
X0224967Y0056125D03*
X0264567Y0056125D03*
X0264567Y0061125D03*
X0264567Y0066125D03*
X0264567Y0071125D03*
X0264567Y0076125D03*
X0264567Y0081125D03*
X0264567Y0086125D03*
X0264567Y0091125D03*
X0264567Y0096125D03*
X0264567Y0101125D03*
X0224967Y0101125D03*
X0224967Y0096125D03*
X0224967Y0091125D03*
D15*
X0235087Y0024742D03*
X0244142Y0024742D03*
X0253197Y0024742D03*
D16*
X0244142Y0048758D03*
D17*
X0262892Y0040750D03*
X0262892Y0032750D03*
X0225392Y0032750D03*
X0225392Y0040750D03*
D18*
X0024767Y0018000D03*
X0024767Y0133625D03*
X0302267Y0133000D03*
X0302892Y0018000D03*
D19*
X0189142Y0045500D03*
X0179142Y0045500D03*
X0169142Y0045500D03*
X0159142Y0045500D03*
X0149142Y0045500D03*
X0139142Y0045500D03*
X0129142Y0045500D03*
X0119142Y0045500D03*
X0109142Y0045500D03*
X0099142Y0045500D03*
X0089142Y0045500D03*
X0079142Y0045500D03*
X0069142Y0045500D03*
X0059142Y0045500D03*
X0059142Y0125500D03*
X0069142Y0125500D03*
X0079142Y0125500D03*
X0089142Y0125500D03*
X0099142Y0125500D03*
X0109142Y0125500D03*
X0119142Y0125500D03*
X0129142Y0125500D03*
X0139142Y0125500D03*
X0149142Y0125500D03*
X0159142Y0125500D03*
X0169142Y0125500D03*
X0179142Y0125500D03*
X0189142Y0125500D03*
D20*
X0107700Y0119432D03*
X0099826Y0119432D03*
X0091952Y0119432D03*
X0084078Y0119432D03*
X0076204Y0119432D03*
X0068330Y0119432D03*
X0060456Y0119432D03*
X0052582Y0119432D03*
X0044708Y0119432D03*
X0036834Y0119432D03*
X0036834Y0032818D03*
X0044708Y0032818D03*
X0052582Y0032818D03*
X0060456Y0032818D03*
X0068330Y0032818D03*
X0076204Y0032818D03*
X0084078Y0032818D03*
X0091952Y0032818D03*
X0099826Y0032818D03*
X0107700Y0032818D03*
D21*
X0063781Y0018000D03*
X0052002Y0018000D03*
X0052002Y0134250D03*
X0063781Y0134250D03*
D22*
X0289112Y0093448D03*
X0289112Y0058802D03*
D23*
X0286892Y0069826D03*
X0286892Y0072975D03*
X0286892Y0076125D03*
X0286892Y0079275D03*
X0286892Y0082424D03*
D24*
X0310766Y0093448D03*
X0310766Y0058802D03*
D25*
X0298955Y0067464D03*
X0298955Y0084786D03*
D26*
X0280392Y0049393D03*
X0280392Y0032857D03*
D27*
X0235392Y0019875D03*
X0230392Y0024875D03*
X0257892Y0061125D03*
X0257892Y0066125D03*
X0271642Y0068625D03*
X0236642Y0076125D03*
X0234142Y0081125D03*
X0231642Y0086125D03*
X0254767Y0090500D03*
X0236642Y0119875D03*
X0233517Y0119875D03*
X0230392Y0119875D03*
X0254767Y0146125D03*
X0168517Y0078625D03*
D28*
X0255392Y0032375D03*
M02*
