G75*
G70*
%OFA0B0*%
%FSLAX24Y24*%
%IPPOS*%
%LPD*%
%AMOC8*
5,1,8,0,0,1.08239X$1,22.5*
%
%ADD10C,0.0000*%
%ADD11R,0.0394X0.0787*%
%ADD12R,0.0276X0.0600*%
%ADD13R,0.0197X0.0600*%
%ADD14R,0.0354X0.0315*%
%ADD15R,0.0787X0.0394*%
%ADD16R,0.0600X0.0276*%
%ADD17R,0.0600X0.0197*%
%ADD18R,0.0315X0.0354*%
%ADD19R,0.0800X0.0260*%
%ADD20R,0.0260X0.0800*%
D10*
X000100Y000444D02*
X000100Y030003D01*
X078840Y030003D01*
X078840Y000444D01*
X000100Y000444D01*
X001134Y002069D02*
X001136Y002117D01*
X001142Y002165D01*
X001152Y002212D01*
X001165Y002258D01*
X001183Y002303D01*
X001203Y002347D01*
X001228Y002389D01*
X001256Y002428D01*
X001286Y002465D01*
X001320Y002499D01*
X001357Y002531D01*
X001395Y002560D01*
X001436Y002585D01*
X001479Y002607D01*
X001524Y002625D01*
X001570Y002639D01*
X001617Y002650D01*
X001665Y002657D01*
X001713Y002660D01*
X001761Y002659D01*
X001809Y002654D01*
X001857Y002645D01*
X001903Y002633D01*
X001948Y002616D01*
X001992Y002596D01*
X002034Y002573D01*
X002074Y002546D01*
X002112Y002516D01*
X002147Y002483D01*
X002179Y002447D01*
X002209Y002409D01*
X002235Y002368D01*
X002257Y002325D01*
X002277Y002281D01*
X002292Y002236D01*
X002304Y002189D01*
X002312Y002141D01*
X002316Y002093D01*
X002316Y002045D01*
X002312Y001997D01*
X002304Y001949D01*
X002292Y001902D01*
X002277Y001857D01*
X002257Y001813D01*
X002235Y001770D01*
X002209Y001729D01*
X002179Y001691D01*
X002147Y001655D01*
X002112Y001622D01*
X002074Y001592D01*
X002034Y001565D01*
X001992Y001542D01*
X001948Y001522D01*
X001903Y001505D01*
X001857Y001493D01*
X001809Y001484D01*
X001761Y001479D01*
X001713Y001478D01*
X001665Y001481D01*
X001617Y001488D01*
X001570Y001499D01*
X001524Y001513D01*
X001479Y001531D01*
X001436Y001553D01*
X001395Y001578D01*
X001357Y001607D01*
X001320Y001639D01*
X001286Y001673D01*
X001256Y001710D01*
X001228Y001749D01*
X001203Y001791D01*
X001183Y001835D01*
X001165Y001880D01*
X001152Y001926D01*
X001142Y001973D01*
X001136Y002021D01*
X001134Y002069D01*
X056351Y006944D02*
X056353Y006992D01*
X056359Y007040D01*
X056369Y007087D01*
X056382Y007133D01*
X056400Y007178D01*
X056420Y007222D01*
X056445Y007264D01*
X056473Y007303D01*
X056503Y007340D01*
X056537Y007374D01*
X056574Y007406D01*
X056612Y007435D01*
X056653Y007460D01*
X056696Y007482D01*
X056741Y007500D01*
X056787Y007514D01*
X056834Y007525D01*
X056882Y007532D01*
X056930Y007535D01*
X056978Y007534D01*
X057026Y007529D01*
X057074Y007520D01*
X057120Y007508D01*
X057165Y007491D01*
X057209Y007471D01*
X057251Y007448D01*
X057291Y007421D01*
X057329Y007391D01*
X057364Y007358D01*
X057396Y007322D01*
X057426Y007284D01*
X057452Y007243D01*
X057474Y007200D01*
X057494Y007156D01*
X057509Y007111D01*
X057521Y007064D01*
X057529Y007016D01*
X057533Y006968D01*
X057533Y006920D01*
X057529Y006872D01*
X057521Y006824D01*
X057509Y006777D01*
X057494Y006732D01*
X057474Y006688D01*
X057452Y006645D01*
X057426Y006604D01*
X057396Y006566D01*
X057364Y006530D01*
X057329Y006497D01*
X057291Y006467D01*
X057251Y006440D01*
X057209Y006417D01*
X057165Y006397D01*
X057120Y006380D01*
X057074Y006368D01*
X057026Y006359D01*
X056978Y006354D01*
X056930Y006353D01*
X056882Y006356D01*
X056834Y006363D01*
X056787Y006374D01*
X056741Y006388D01*
X056696Y006406D01*
X056653Y006428D01*
X056612Y006453D01*
X056574Y006482D01*
X056537Y006514D01*
X056503Y006548D01*
X056473Y006585D01*
X056445Y006624D01*
X056420Y006666D01*
X056400Y006710D01*
X056382Y006755D01*
X056369Y006801D01*
X056359Y006848D01*
X056353Y006896D01*
X056351Y006944D01*
X076634Y002069D02*
X076636Y002117D01*
X076642Y002165D01*
X076652Y002212D01*
X076665Y002258D01*
X076683Y002303D01*
X076703Y002347D01*
X076728Y002389D01*
X076756Y002428D01*
X076786Y002465D01*
X076820Y002499D01*
X076857Y002531D01*
X076895Y002560D01*
X076936Y002585D01*
X076979Y002607D01*
X077024Y002625D01*
X077070Y002639D01*
X077117Y002650D01*
X077165Y002657D01*
X077213Y002660D01*
X077261Y002659D01*
X077309Y002654D01*
X077357Y002645D01*
X077403Y002633D01*
X077448Y002616D01*
X077492Y002596D01*
X077534Y002573D01*
X077574Y002546D01*
X077612Y002516D01*
X077647Y002483D01*
X077679Y002447D01*
X077709Y002409D01*
X077735Y002368D01*
X077757Y002325D01*
X077777Y002281D01*
X077792Y002236D01*
X077804Y002189D01*
X077812Y002141D01*
X077816Y002093D01*
X077816Y002045D01*
X077812Y001997D01*
X077804Y001949D01*
X077792Y001902D01*
X077777Y001857D01*
X077757Y001813D01*
X077735Y001770D01*
X077709Y001729D01*
X077679Y001691D01*
X077647Y001655D01*
X077612Y001622D01*
X077574Y001592D01*
X077534Y001565D01*
X077492Y001542D01*
X077448Y001522D01*
X077403Y001505D01*
X077357Y001493D01*
X077309Y001484D01*
X077261Y001479D01*
X077213Y001478D01*
X077165Y001481D01*
X077117Y001488D01*
X077070Y001499D01*
X077024Y001513D01*
X076979Y001531D01*
X076936Y001553D01*
X076895Y001578D01*
X076857Y001607D01*
X076820Y001639D01*
X076786Y001673D01*
X076756Y001710D01*
X076728Y001749D01*
X076703Y001791D01*
X076683Y001835D01*
X076665Y001880D01*
X076652Y001926D01*
X076642Y001973D01*
X076636Y002021D01*
X076634Y002069D01*
X076634Y028319D02*
X076636Y028367D01*
X076642Y028415D01*
X076652Y028462D01*
X076665Y028508D01*
X076683Y028553D01*
X076703Y028597D01*
X076728Y028639D01*
X076756Y028678D01*
X076786Y028715D01*
X076820Y028749D01*
X076857Y028781D01*
X076895Y028810D01*
X076936Y028835D01*
X076979Y028857D01*
X077024Y028875D01*
X077070Y028889D01*
X077117Y028900D01*
X077165Y028907D01*
X077213Y028910D01*
X077261Y028909D01*
X077309Y028904D01*
X077357Y028895D01*
X077403Y028883D01*
X077448Y028866D01*
X077492Y028846D01*
X077534Y028823D01*
X077574Y028796D01*
X077612Y028766D01*
X077647Y028733D01*
X077679Y028697D01*
X077709Y028659D01*
X077735Y028618D01*
X077757Y028575D01*
X077777Y028531D01*
X077792Y028486D01*
X077804Y028439D01*
X077812Y028391D01*
X077816Y028343D01*
X077816Y028295D01*
X077812Y028247D01*
X077804Y028199D01*
X077792Y028152D01*
X077777Y028107D01*
X077757Y028063D01*
X077735Y028020D01*
X077709Y027979D01*
X077679Y027941D01*
X077647Y027905D01*
X077612Y027872D01*
X077574Y027842D01*
X077534Y027815D01*
X077492Y027792D01*
X077448Y027772D01*
X077403Y027755D01*
X077357Y027743D01*
X077309Y027734D01*
X077261Y027729D01*
X077213Y027728D01*
X077165Y027731D01*
X077117Y027738D01*
X077070Y027749D01*
X077024Y027763D01*
X076979Y027781D01*
X076936Y027803D01*
X076895Y027828D01*
X076857Y027857D01*
X076820Y027889D01*
X076786Y027923D01*
X076756Y027960D01*
X076728Y027999D01*
X076703Y028041D01*
X076683Y028085D01*
X076665Y028130D01*
X076652Y028176D01*
X076642Y028223D01*
X076636Y028271D01*
X076634Y028319D01*
X001134Y028319D02*
X001136Y028367D01*
X001142Y028415D01*
X001152Y028462D01*
X001165Y028508D01*
X001183Y028553D01*
X001203Y028597D01*
X001228Y028639D01*
X001256Y028678D01*
X001286Y028715D01*
X001320Y028749D01*
X001357Y028781D01*
X001395Y028810D01*
X001436Y028835D01*
X001479Y028857D01*
X001524Y028875D01*
X001570Y028889D01*
X001617Y028900D01*
X001665Y028907D01*
X001713Y028910D01*
X001761Y028909D01*
X001809Y028904D01*
X001857Y028895D01*
X001903Y028883D01*
X001948Y028866D01*
X001992Y028846D01*
X002034Y028823D01*
X002074Y028796D01*
X002112Y028766D01*
X002147Y028733D01*
X002179Y028697D01*
X002209Y028659D01*
X002235Y028618D01*
X002257Y028575D01*
X002277Y028531D01*
X002292Y028486D01*
X002304Y028439D01*
X002312Y028391D01*
X002316Y028343D01*
X002316Y028295D01*
X002312Y028247D01*
X002304Y028199D01*
X002292Y028152D01*
X002277Y028107D01*
X002257Y028063D01*
X002235Y028020D01*
X002209Y027979D01*
X002179Y027941D01*
X002147Y027905D01*
X002112Y027872D01*
X002074Y027842D01*
X002034Y027815D01*
X001992Y027792D01*
X001948Y027772D01*
X001903Y027755D01*
X001857Y027743D01*
X001809Y027734D01*
X001761Y027729D01*
X001713Y027728D01*
X001665Y027731D01*
X001617Y027738D01*
X001570Y027749D01*
X001524Y027763D01*
X001479Y027781D01*
X001436Y027803D01*
X001395Y027828D01*
X001357Y027857D01*
X001320Y027889D01*
X001286Y027923D01*
X001256Y027960D01*
X001228Y027999D01*
X001203Y028041D01*
X001183Y028085D01*
X001165Y028130D01*
X001152Y028176D01*
X001142Y028223D01*
X001136Y028271D01*
X001134Y028319D01*
D11*
X018095Y029149D03*
X018725Y029149D03*
X019355Y029149D03*
X021095Y029149D03*
X021725Y029149D03*
X022355Y029149D03*
X024095Y029149D03*
X024725Y029149D03*
X025355Y029149D03*
X027095Y029149D03*
X027725Y029149D03*
X028355Y029149D03*
X030095Y029149D03*
X030725Y029149D03*
X031355Y029149D03*
X033095Y029149D03*
X033725Y029149D03*
X034355Y029149D03*
X036095Y029149D03*
X036725Y029149D03*
X037355Y029149D03*
X039095Y029149D03*
X039725Y029149D03*
X040355Y029149D03*
X042095Y029149D03*
X042725Y029149D03*
X043355Y029149D03*
X045095Y029149D03*
X045725Y029149D03*
X046355Y029149D03*
X048095Y029149D03*
X048725Y029149D03*
X049355Y029149D03*
X051095Y029149D03*
X051725Y029149D03*
X052355Y029149D03*
X054095Y029149D03*
X054725Y029149D03*
X055355Y029149D03*
X057095Y029149D03*
X057725Y029149D03*
X058355Y029149D03*
X060095Y029149D03*
X060725Y029149D03*
X061355Y029149D03*
X061355Y027469D03*
X060725Y027469D03*
X060095Y027469D03*
X058355Y027469D03*
X057725Y027469D03*
X057095Y027469D03*
X055355Y027469D03*
X054725Y027469D03*
X054095Y027469D03*
X052355Y027469D03*
X051725Y027469D03*
X051095Y027469D03*
X049355Y027469D03*
X048725Y027469D03*
X048095Y027469D03*
X046355Y027469D03*
X045725Y027469D03*
X045095Y027469D03*
X043355Y027469D03*
X042725Y027469D03*
X042095Y027469D03*
X040355Y027469D03*
X039725Y027469D03*
X039095Y027469D03*
X037355Y027469D03*
X036725Y027469D03*
X036095Y027469D03*
X034355Y027469D03*
X033725Y027469D03*
X033095Y027469D03*
X031355Y027469D03*
X030725Y027469D03*
X030095Y027469D03*
X028355Y027469D03*
X027725Y027469D03*
X027095Y027469D03*
X025355Y027469D03*
X024725Y027469D03*
X024095Y027469D03*
X022355Y027469D03*
X021725Y027469D03*
X021095Y027469D03*
X019355Y027469D03*
X018725Y027469D03*
X018095Y027469D03*
D12*
X018312Y027723D03*
X019138Y027723D03*
X021312Y027723D03*
X022138Y027723D03*
X024312Y027723D03*
X025138Y027723D03*
X027312Y027723D03*
X028138Y027723D03*
X030312Y027723D03*
X031138Y027723D03*
X033312Y027723D03*
X034138Y027723D03*
X036312Y027723D03*
X037138Y027723D03*
X039312Y027723D03*
X040138Y027723D03*
X042312Y027723D03*
X043138Y027723D03*
X045312Y027723D03*
X046138Y027723D03*
X048312Y027723D03*
X049138Y027723D03*
X051312Y027723D03*
X052138Y027723D03*
X054312Y027723D03*
X055138Y027723D03*
X057312Y027723D03*
X058138Y027723D03*
X060312Y027723D03*
X061138Y027723D03*
X061138Y028914D03*
X060312Y028914D03*
X058138Y028914D03*
X057312Y028914D03*
X055138Y028914D03*
X054312Y028914D03*
X052138Y028914D03*
X051312Y028914D03*
X049138Y028914D03*
X048312Y028914D03*
X046138Y028914D03*
X045312Y028914D03*
X043138Y028914D03*
X042312Y028914D03*
X040138Y028914D03*
X039312Y028914D03*
X037138Y028914D03*
X036312Y028914D03*
X034138Y028914D03*
X033312Y028914D03*
X031138Y028914D03*
X030312Y028914D03*
X028138Y028914D03*
X027312Y028914D03*
X025138Y028914D03*
X024312Y028914D03*
X022138Y028914D03*
X021312Y028914D03*
X019138Y028914D03*
X018312Y028914D03*
D13*
X018725Y028914D03*
X018725Y027723D03*
X021725Y027723D03*
X021725Y028914D03*
X024725Y028914D03*
X027725Y028914D03*
X027725Y027723D03*
X024725Y027723D03*
X030725Y027723D03*
X030725Y028914D03*
X033725Y028914D03*
X033725Y027723D03*
X036725Y027723D03*
X039725Y027723D03*
X039725Y028914D03*
X036725Y028914D03*
X042725Y028914D03*
X042725Y027723D03*
X045725Y027723D03*
X048725Y027723D03*
X048725Y028914D03*
X045725Y028914D03*
X051725Y028914D03*
X051725Y027723D03*
X054725Y027723D03*
X057725Y027723D03*
X057725Y028914D03*
X054725Y028914D03*
X060725Y028914D03*
X060725Y027723D03*
D14*
X064300Y020444D03*
X064900Y020444D03*
X066550Y019819D03*
X066550Y019319D03*
X067150Y019319D03*
X067150Y019819D03*
X067150Y018819D03*
X066550Y018819D03*
X066550Y018319D03*
X066550Y017819D03*
X067150Y017819D03*
X067150Y018319D03*
X067150Y017319D03*
X066550Y017319D03*
X062650Y018319D03*
X062050Y018319D03*
X062050Y018819D03*
X062650Y018819D03*
X062650Y019319D03*
X062650Y019819D03*
X062050Y019819D03*
X062050Y019319D03*
D15*
X021575Y019689D03*
X021575Y020319D03*
X021575Y020949D03*
X019895Y020949D03*
X019895Y020319D03*
X019895Y019689D03*
X019895Y017449D03*
X019895Y016819D03*
X019895Y016189D03*
X021575Y016189D03*
X021575Y016819D03*
X021575Y017449D03*
X021575Y013949D03*
X021575Y013319D03*
X021575Y012689D03*
X019895Y012689D03*
X019895Y013319D03*
X019895Y013949D03*
X019895Y010449D03*
X019895Y009819D03*
X019895Y009189D03*
X021575Y009189D03*
X021575Y009819D03*
X021575Y010449D03*
X021575Y006949D03*
X019895Y006949D03*
X019895Y006319D03*
X019895Y005689D03*
X021575Y005689D03*
X021575Y006319D03*
D16*
X021320Y005905D03*
X020130Y005905D03*
X020130Y006732D03*
X021320Y006732D03*
X021320Y009405D03*
X021320Y010232D03*
X020130Y010232D03*
X020130Y009405D03*
X020130Y012905D03*
X021320Y012905D03*
X021320Y013732D03*
X020130Y013732D03*
X020130Y016405D03*
X021320Y016405D03*
X021320Y017232D03*
X020130Y017232D03*
X020130Y019905D03*
X020130Y020732D03*
X021320Y020732D03*
X021320Y019905D03*
D17*
X021320Y020319D03*
X020130Y020319D03*
X020130Y016819D03*
X021320Y016819D03*
X021320Y013319D03*
X020130Y013319D03*
X020130Y009819D03*
X021320Y009819D03*
X021320Y006319D03*
X020130Y006319D03*
D18*
X016100Y014519D03*
X015600Y014644D03*
X015100Y014644D03*
X014600Y014644D03*
X014100Y014644D03*
X013600Y014644D03*
X013600Y015244D03*
X014100Y015244D03*
X014600Y015244D03*
X015100Y015244D03*
X015600Y015244D03*
X016100Y015119D03*
X012975Y016894D03*
X012975Y017494D03*
X013600Y019144D03*
X014100Y019144D03*
X014600Y019144D03*
X015100Y019144D03*
X015600Y019144D03*
X016100Y019144D03*
X016100Y019744D03*
X015600Y019744D03*
X015100Y019744D03*
X014600Y019744D03*
X014100Y019744D03*
X013600Y019744D03*
X055975Y023644D03*
X055975Y024244D03*
D19*
X063390Y019819D03*
X063390Y019319D03*
X063390Y018819D03*
X063390Y018319D03*
X063390Y017819D03*
X063390Y017319D03*
X063390Y016819D03*
X065810Y016819D03*
X065810Y017319D03*
X065810Y017819D03*
X065810Y018319D03*
X065810Y018819D03*
X065810Y019319D03*
X065810Y019819D03*
D20*
X016600Y018404D03*
X016100Y018404D03*
X015600Y018404D03*
X015100Y018404D03*
X014600Y018404D03*
X014100Y018404D03*
X013600Y018404D03*
X013600Y015984D03*
X014100Y015984D03*
X014600Y015984D03*
X015100Y015984D03*
X015600Y015984D03*
X016100Y015984D03*
X016600Y015984D03*
M02*
