%
M48
M72
T01C0.0150
T02C0.0315
T03C0.0354
T04C0.0394
T05C0.0400
T06C0.0470
T07C0.1181
%
T01
X23100Y9194
X23475Y9819
X23725Y10444
X25632Y13226
X22225Y13319
X22225Y13819
X20725Y13319
X16975Y15944
X14600Y16694
X13725Y16694
X14100Y17694
X15350Y17694
X16350Y17694
X17975Y18194
X18100Y18569
X18350Y18819
X18600Y19069
X18850Y19319
X21600Y18069
X21850Y18319
X22100Y18569
X22350Y18819
X22600Y19069
X22850Y19319
X24475Y19694
X24225Y20319
X23850Y20944
X25350Y22569
X24975Y22819
X25725Y22319
X26725Y23444
X26975Y23819
X27225Y24194
X24725Y24944
X22350Y25444
X21725Y25694
X21100Y26069
X18100Y25069
X18725Y24694
X19350Y24444
X24725Y26694
X25350Y26569
X27725Y25944
X27100Y25694
X28350Y26444
X31350Y25319
X30725Y24944
X30100Y24694
X32725Y23569
X33725Y23194
X34725Y22944
X36975Y22319
X37225Y22694
X36725Y21944
X36100Y21194
X35600Y21194
X35100Y21194
X33350Y21194
X32350Y21194
X37725Y23944
X36725Y24194
X35725Y24694
X38100Y25069
X39850Y24444
X41725Y24194
X42725Y24444
X43725Y24944
X46725Y23819
X45725Y23444
X44725Y23194
X48725Y24694
X49350Y24444
X48100Y25069
X51100Y26194
X51725Y25694
X52350Y25444
X54475Y25569
X57100Y25694
X57725Y25944
X58350Y26444
X55350Y26694
X54725Y26694
X54100Y28194
X60725Y28194
X61350Y28194
X57475Y24694
X54350Y24069
X55350Y23069
X63975Y19319
X65225Y18819
X63975Y18319
X65225Y17819
X65225Y16819
X39975Y22069
X39975Y22569
X39975Y23069
X39725Y23444
X39350Y21569
X32350Y17694
X33350Y17444
X35100Y16444
X35600Y16944
X36100Y15444
X23475Y16194
X23225Y16819
X22850Y17444
X18100Y17819
X39725Y26444
X40350Y26444
X35225Y26819
X24100Y28194
X24725Y6944
X24475Y6319
X24100Y5694
T02
X32225Y25819
X33225Y25819
X34225Y25819
X35225Y25819
X36225Y25819
X37225Y25819
X38225Y25819
X39225Y25819
X40225Y25819
X41225Y25819
X42225Y25819
X43225Y25819
X44225Y25819
X45225Y25819
X46225Y25819
X47225Y25819
X42225Y21569
X47225Y1819
X46225Y1819
X45225Y1819
X34225Y1819
X33225Y1819
X32225Y1819
T03
X66350Y5194
T04
X57985Y23909
X58985Y23909
X58985Y22909
X57985Y22909
X57985Y21909
X58985Y21909
X58985Y20909
X57985Y20909
X57985Y19909
X58985Y19909
X58985Y18909
X57985Y18909
X57985Y17909
X58985Y17909
X58985Y16909
X57985Y16909
X57985Y15909
X58985Y15909
X58985Y14909
X57985Y14909
X57985Y13909
X58985Y13909
X60979Y11632
X61979Y11632
X62979Y11632
X63979Y11632
X64979Y11632
X65979Y11632
X66979Y11632
X67979Y11632
X69235Y11634
X70235Y11634
X71235Y11634
X72235Y11634
X73235Y11634
X74235Y11634
X75235Y11634
X76235Y11634
X77235Y11634
X77235Y10634
X76235Y10634
X75235Y10634
X74235Y10634
X73235Y10634
X72235Y10634
X71235Y10634
X70235Y10634
X69235Y10634
X67979Y10632
X66979Y10632
X65979Y10632
X64979Y10632
X63979Y10632
X62979Y10632
X61979Y10632
X60979Y10632
X59816Y8125
X58634Y8125
X58634Y6944
X59816Y6944
X59816Y5763
X58634Y5763
X70023Y25246
X69023Y25246
X68023Y25246
X67023Y25246
X66023Y25246
X65023Y25246
X64023Y25246
X63023Y25246
X62023Y25246
X61023Y25246
X60023Y25246
X60023Y26246
X61023Y26246
X62023Y26246
X63023Y26246
X64023Y26246
X65023Y26246
X66023Y26246
X67023Y26246
X68023Y26246
X69023Y26246
X70023Y26246
T05
X4695Y11929
X7255Y11929
X11195Y11929
X13755Y11929
X13755Y13709
X11195Y13709
X7255Y13709
X4695Y13709
X7945Y17804
X10505Y17804
X10505Y19584
X11585Y20664
X13365Y20664
X7945Y19584
X6865Y20664
X5085Y20664
X5085Y23224
X6865Y23224
X7945Y24304
X10505Y24304
X11585Y23224
X13365Y23224
X10505Y26084
X7945Y26084
T06
X77475Y7053
X77475Y5085
T07
X1725Y2069
X56942Y6944
X77225Y2069
X77225Y28319
X1725Y28319
M30
