G75*
%MOIN*%
%OFA0B0*%
%FSLAX25Y25*%
%IPPOS*%
%LPD*%
%AMOC8*
5,1,8,0,0,1.08239X$1,22.5*
%
%ADD10R,0.03543X0.03150*%
%ADD11R,0.04724X0.04724*%
%ADD12R,0.02600X0.08000*%
%ADD13R,0.02100X0.07800*%
%ADD14R,0.02000X0.05800*%
%ADD15R,0.05800X0.02000*%
%ADD16R,0.05118X0.05118*%
%ADD17R,0.14173X0.05118*%
%ADD18R,0.05118X0.04724*%
%ADD19R,0.01400X0.05800*%
%ADD20R,0.05800X0.01400*%
%ADD21R,0.03150X0.03543*%
%ADD22R,0.05000X0.02200*%
D10*
X0099125Y0046313D03*
X0105125Y0046313D03*
X0164750Y0092563D03*
X0170750Y0092563D03*
X0199750Y0099438D03*
X0205750Y0099438D03*
X0205750Y0104438D03*
X0199750Y0104438D03*
X0199750Y0121938D03*
X0199750Y0126938D03*
X0205750Y0126938D03*
X0205750Y0121938D03*
X0261000Y0135063D03*
X0267000Y0135063D03*
X0276000Y0126313D03*
X0282000Y0126313D03*
X0282000Y0121313D03*
X0282000Y0116313D03*
X0276000Y0116313D03*
X0276000Y0121313D03*
X0276000Y0111313D03*
X0282000Y0111313D03*
X0270125Y0105688D03*
X0264125Y0105688D03*
X0263500Y0078188D03*
X0269500Y0078188D03*
X0277250Y0078188D03*
X0283250Y0078188D03*
X0170750Y0162563D03*
X0164750Y0162563D03*
X0123875Y0170063D03*
X0117875Y0170063D03*
X0117875Y0175063D03*
X0123875Y0175063D03*
X0123875Y0180063D03*
X0123875Y0185063D03*
X0117875Y0185063D03*
X0117875Y0180063D03*
X0075125Y0124438D03*
X0069125Y0124438D03*
X0081000Y0105688D03*
X0087000Y0105688D03*
X0093500Y0105688D03*
X0099500Y0105688D03*
X0096625Y0099438D03*
X0102625Y0099438D03*
X0090125Y0099438D03*
X0084125Y0099438D03*
X0118500Y0100063D03*
X0124500Y0100063D03*
X0124500Y0105063D03*
X0124500Y0110063D03*
X0118500Y0110063D03*
X0118500Y0105063D03*
X0118500Y0115063D03*
X0124500Y0115063D03*
D11*
X0094384Y0114438D03*
X0094384Y0120063D03*
X0086116Y0120063D03*
X0086116Y0114438D03*
X0103616Y0170063D03*
X0103616Y0175688D03*
X0111884Y0175688D03*
X0111884Y0170063D03*
D12*
X0113375Y0162988D03*
X0118375Y0162988D03*
X0123375Y0162988D03*
X0128375Y0162988D03*
X0133375Y0162988D03*
X0138375Y0162988D03*
X0143375Y0162988D03*
X0148375Y0162988D03*
X0153375Y0162988D03*
X0158375Y0162988D03*
X0158375Y0123388D03*
X0153375Y0123388D03*
X0148375Y0123388D03*
X0143375Y0123388D03*
X0138375Y0123388D03*
X0133375Y0123388D03*
X0128375Y0123388D03*
X0123375Y0123388D03*
X0118375Y0123388D03*
X0113375Y0123388D03*
X0113375Y0092988D03*
X0118375Y0092988D03*
X0123375Y0092988D03*
X0128375Y0092988D03*
X0133375Y0092988D03*
X0138375Y0092988D03*
X0143375Y0092988D03*
X0148375Y0092988D03*
X0153375Y0092988D03*
X0158375Y0092988D03*
X0158375Y0053388D03*
X0153375Y0053388D03*
X0148375Y0053388D03*
X0143375Y0053388D03*
X0138375Y0053388D03*
X0133375Y0053388D03*
X0128375Y0053388D03*
X0123375Y0053388D03*
X0118375Y0053388D03*
X0113375Y0053388D03*
D13*
X0104625Y0054688D03*
X0099625Y0054688D03*
X0094625Y0054688D03*
X0089625Y0054688D03*
X0084625Y0054688D03*
X0079625Y0054688D03*
X0074625Y0054688D03*
X0069625Y0054688D03*
X0069625Y0091688D03*
X0074625Y0091688D03*
X0079625Y0091688D03*
X0084625Y0091688D03*
X0089625Y0091688D03*
X0094625Y0091688D03*
X0099625Y0091688D03*
X0104625Y0091688D03*
D14*
X0227375Y0099713D03*
X0230475Y0099713D03*
X0233675Y0099713D03*
X0236775Y0099713D03*
X0239975Y0099713D03*
X0243075Y0099713D03*
X0246275Y0099713D03*
X0249375Y0099713D03*
X0249375Y0132913D03*
X0246275Y0132913D03*
X0243075Y0132913D03*
X0239975Y0132913D03*
X0236775Y0132913D03*
X0233675Y0132913D03*
X0230475Y0132913D03*
X0227375Y0132913D03*
D15*
X0221775Y0127313D03*
X0221775Y0124213D03*
X0221775Y0121013D03*
X0221775Y0117913D03*
X0221775Y0114713D03*
X0221775Y0111613D03*
X0221775Y0108413D03*
X0221775Y0105313D03*
X0254975Y0105313D03*
X0254975Y0108413D03*
X0254975Y0111613D03*
X0254975Y0114713D03*
X0254975Y0117913D03*
X0254975Y0121013D03*
X0254975Y0124213D03*
X0254975Y0127313D03*
D16*
X0058055Y0125196D03*
X0049000Y0125196D03*
X0039945Y0125196D03*
X0039945Y0155821D03*
X0049000Y0155821D03*
X0058055Y0155821D03*
D17*
X0049000Y0131805D03*
X0049000Y0101180D03*
D18*
X0030250Y0109188D03*
X0030250Y0117188D03*
X0030250Y0139813D03*
X0030250Y0147813D03*
X0067750Y0147813D03*
X0067750Y0139813D03*
X0067750Y0117188D03*
X0067750Y0109188D03*
D19*
X0177700Y0101688D03*
X0180200Y0101688D03*
X0182800Y0101688D03*
X0185300Y0101688D03*
X0185300Y0124688D03*
X0182800Y0124688D03*
X0180200Y0124688D03*
X0177700Y0124688D03*
D20*
X0260000Y0141263D03*
X0260000Y0143763D03*
X0260000Y0146363D03*
X0260000Y0148863D03*
X0283000Y0148863D03*
X0283000Y0146363D03*
X0283000Y0143763D03*
X0283000Y0141263D03*
D21*
X0062750Y0055188D03*
X0062750Y0061188D03*
X0062750Y0067688D03*
X0062750Y0073688D03*
X0194000Y0093313D03*
X0194000Y0099313D03*
X0194000Y0104563D03*
X0194000Y0110563D03*
X0194000Y0115813D03*
X0194000Y0121813D03*
X0194000Y0127063D03*
X0194000Y0133063D03*
X0211500Y0133063D03*
X0211500Y0127063D03*
X0211500Y0121813D03*
X0211500Y0115813D03*
X0211500Y0110563D03*
X0211500Y0104563D03*
X0211500Y0099313D03*
X0211500Y0093313D03*
X0214625Y0143313D03*
X0214625Y0149313D03*
X0240250Y0149313D03*
X0240250Y0143313D03*
D22*
X0231600Y0142613D03*
X0231600Y0146313D03*
X0231600Y0150013D03*
X0221400Y0150013D03*
X0221400Y0142613D03*
M02*
