G75*
G70*
%OFA0B0*%
%FSLAX24Y24*%
%IPPOS*%
%LPD*%
%AMOC8*
5,1,8,0,0,1.08239X$1,22.5*
%
%ADD10C,0.0000*%
%ADD11R,0.0827X0.0866*%
%ADD12R,0.0827X0.0945*%
%ADD13R,0.1024X0.1142*%
%ADD14R,0.0512X0.0748*%
%ADD15R,0.0551X0.0768*%
%ADD16R,0.0472X0.1693*%
%ADD17R,0.0472X0.0787*%
%ADD18C,0.0040*%
%ADD19R,0.0315X0.0354*%
%ADD20R,0.0472X0.0512*%
%ADD21R,0.4252X0.4098*%
%ADD22R,0.0420X0.0850*%
%ADD23R,0.0354X0.0315*%
%ADD24R,0.2126X0.1575*%
%ADD25R,0.0906X0.1260*%
%ADD26R,0.0236X0.0787*%
%ADD27R,0.1890X0.1181*%
%ADD28R,0.0220X0.0520*%
%ADD29R,0.0394X0.0433*%
%ADD30R,0.0210X0.0780*%
%ADD31R,0.0780X0.0210*%
%ADD32R,0.0800X0.0260*%
%ADD33R,0.0472X0.0472*%
%ADD34R,0.0394X0.0500*%
%ADD35R,0.0591X0.0591*%
%ADD36R,0.1457X0.0591*%
%ADD37R,0.0240X0.0870*%
%ADD38R,0.0709X0.0472*%
%ADD39R,0.0610X0.0236*%
%ADD40R,0.0790X0.0590*%
%ADD41R,0.0790X0.1500*%
D10*
X000100Y000160D02*
X050100Y000160D01*
X050100Y063035D01*
X047975Y065160D01*
X002225Y065160D01*
X000100Y063035D01*
X000100Y000160D01*
X004698Y024567D02*
X004700Y024596D01*
X004706Y024624D01*
X004715Y024652D01*
X004728Y024678D01*
X004745Y024701D01*
X004764Y024723D01*
X004786Y024742D01*
X004811Y024757D01*
X004837Y024770D01*
X004865Y024778D01*
X004893Y024783D01*
X004922Y024784D01*
X004951Y024781D01*
X004979Y024774D01*
X005006Y024764D01*
X005032Y024750D01*
X005055Y024733D01*
X005076Y024713D01*
X005094Y024690D01*
X005109Y024665D01*
X005120Y024638D01*
X005128Y024610D01*
X005132Y024581D01*
X005132Y024553D01*
X005128Y024524D01*
X005120Y024496D01*
X005109Y024469D01*
X005094Y024444D01*
X005076Y024421D01*
X005055Y024401D01*
X005032Y024384D01*
X005006Y024370D01*
X004979Y024360D01*
X004951Y024353D01*
X004922Y024350D01*
X004893Y024351D01*
X004865Y024356D01*
X004837Y024364D01*
X004811Y024377D01*
X004786Y024392D01*
X004764Y024411D01*
X004745Y024433D01*
X004728Y024456D01*
X004715Y024482D01*
X004706Y024510D01*
X004700Y024538D01*
X004698Y024567D01*
X014128Y024567D02*
X014130Y024602D01*
X014136Y024637D01*
X014146Y024671D01*
X014159Y024704D01*
X014176Y024735D01*
X014197Y024763D01*
X014220Y024790D01*
X014247Y024813D01*
X014275Y024834D01*
X014306Y024851D01*
X014339Y024864D01*
X014373Y024874D01*
X014408Y024880D01*
X014443Y024882D01*
X014478Y024880D01*
X014513Y024874D01*
X014547Y024864D01*
X014580Y024851D01*
X014611Y024834D01*
X014639Y024813D01*
X014666Y024790D01*
X014689Y024763D01*
X014710Y024735D01*
X014727Y024704D01*
X014740Y024671D01*
X014750Y024637D01*
X014756Y024602D01*
X014758Y024567D01*
X014756Y024532D01*
X014750Y024497D01*
X014740Y024463D01*
X014727Y024430D01*
X014710Y024399D01*
X014689Y024371D01*
X014666Y024344D01*
X014639Y024321D01*
X014611Y024300D01*
X014580Y024283D01*
X014547Y024270D01*
X014513Y024260D01*
X014478Y024254D01*
X014443Y024252D01*
X014408Y024254D01*
X014373Y024260D01*
X014339Y024270D01*
X014306Y024283D01*
X014275Y024300D01*
X014247Y024321D01*
X014220Y024344D01*
X014197Y024371D01*
X014176Y024399D01*
X014159Y024430D01*
X014146Y024463D01*
X014136Y024497D01*
X014130Y024532D01*
X014128Y024567D01*
X014285Y044410D02*
X014287Y044445D01*
X014293Y044480D01*
X014303Y044514D01*
X014316Y044547D01*
X014333Y044578D01*
X014354Y044606D01*
X014377Y044633D01*
X014404Y044656D01*
X014432Y044677D01*
X014463Y044694D01*
X014496Y044707D01*
X014530Y044717D01*
X014565Y044723D01*
X014600Y044725D01*
X014635Y044723D01*
X014670Y044717D01*
X014704Y044707D01*
X014737Y044694D01*
X014768Y044677D01*
X014796Y044656D01*
X014823Y044633D01*
X014846Y044606D01*
X014867Y044578D01*
X014884Y044547D01*
X014897Y044514D01*
X014907Y044480D01*
X014913Y044445D01*
X014915Y044410D01*
X014913Y044375D01*
X014907Y044340D01*
X014897Y044306D01*
X014884Y044273D01*
X014867Y044242D01*
X014846Y044214D01*
X014823Y044187D01*
X014796Y044164D01*
X014768Y044143D01*
X014737Y044126D01*
X014704Y044113D01*
X014670Y044103D01*
X014635Y044097D01*
X014600Y044095D01*
X014565Y044097D01*
X014530Y044103D01*
X014496Y044113D01*
X014463Y044126D01*
X014432Y044143D01*
X014404Y044164D01*
X014377Y044187D01*
X014354Y044214D01*
X014333Y044242D01*
X014316Y044273D01*
X014303Y044306D01*
X014293Y044340D01*
X014287Y044375D01*
X014285Y044410D01*
X004540Y044410D02*
X004542Y044439D01*
X004548Y044467D01*
X004557Y044495D01*
X004570Y044521D01*
X004587Y044544D01*
X004606Y044566D01*
X004628Y044585D01*
X004653Y044600D01*
X004679Y044613D01*
X004707Y044621D01*
X004735Y044626D01*
X004764Y044627D01*
X004793Y044624D01*
X004821Y044617D01*
X004848Y044607D01*
X004874Y044593D01*
X004897Y044576D01*
X004918Y044556D01*
X004936Y044533D01*
X004951Y044508D01*
X004962Y044481D01*
X004970Y044453D01*
X004974Y044424D01*
X004974Y044396D01*
X004970Y044367D01*
X004962Y044339D01*
X004951Y044312D01*
X004936Y044287D01*
X004918Y044264D01*
X004897Y044244D01*
X004874Y044227D01*
X004848Y044213D01*
X004821Y044203D01*
X004793Y044196D01*
X004764Y044193D01*
X004735Y044194D01*
X004707Y044199D01*
X004679Y044207D01*
X004653Y044220D01*
X004628Y044235D01*
X004606Y044254D01*
X004587Y044276D01*
X004570Y044299D01*
X004557Y044325D01*
X004548Y044353D01*
X004542Y044381D01*
X004540Y044410D01*
X031697Y058680D02*
X031699Y058713D01*
X031705Y058745D01*
X031714Y058776D01*
X031727Y058806D01*
X031744Y058834D01*
X031764Y058860D01*
X031787Y058884D01*
X031812Y058904D01*
X031840Y058922D01*
X031869Y058936D01*
X031900Y058946D01*
X031932Y058953D01*
X031965Y058956D01*
X031998Y058955D01*
X032030Y058950D01*
X032061Y058941D01*
X032092Y058929D01*
X032120Y058913D01*
X032147Y058894D01*
X032171Y058872D01*
X032192Y058847D01*
X032211Y058820D01*
X032226Y058791D01*
X032237Y058761D01*
X032245Y058729D01*
X032249Y058696D01*
X032249Y058664D01*
X032245Y058631D01*
X032237Y058599D01*
X032226Y058569D01*
X032211Y058540D01*
X032192Y058513D01*
X032171Y058488D01*
X032147Y058466D01*
X032120Y058447D01*
X032092Y058431D01*
X032061Y058419D01*
X032030Y058410D01*
X031998Y058405D01*
X031965Y058404D01*
X031932Y058407D01*
X031900Y058414D01*
X031869Y058424D01*
X031840Y058438D01*
X031812Y058456D01*
X031787Y058476D01*
X031764Y058500D01*
X031744Y058526D01*
X031727Y058554D01*
X031714Y058584D01*
X031705Y058615D01*
X031699Y058647D01*
X031697Y058680D01*
X041146Y058680D02*
X041148Y058713D01*
X041154Y058745D01*
X041163Y058776D01*
X041176Y058806D01*
X041193Y058834D01*
X041213Y058860D01*
X041236Y058884D01*
X041261Y058904D01*
X041289Y058922D01*
X041318Y058936D01*
X041349Y058946D01*
X041381Y058953D01*
X041414Y058956D01*
X041447Y058955D01*
X041479Y058950D01*
X041510Y058941D01*
X041541Y058929D01*
X041569Y058913D01*
X041596Y058894D01*
X041620Y058872D01*
X041641Y058847D01*
X041660Y058820D01*
X041675Y058791D01*
X041686Y058761D01*
X041694Y058729D01*
X041698Y058696D01*
X041698Y058664D01*
X041694Y058631D01*
X041686Y058599D01*
X041675Y058569D01*
X041660Y058540D01*
X041641Y058513D01*
X041620Y058488D01*
X041596Y058466D01*
X041569Y058447D01*
X041541Y058431D01*
X041510Y058419D01*
X041479Y058410D01*
X041447Y058405D01*
X041414Y058404D01*
X041381Y058407D01*
X041349Y058414D01*
X041318Y058424D01*
X041289Y058438D01*
X041261Y058456D01*
X041236Y058476D01*
X041213Y058500D01*
X041193Y058526D01*
X041176Y058554D01*
X041163Y058584D01*
X041154Y058615D01*
X041148Y058647D01*
X041146Y058680D01*
X044925Y001852D02*
X044927Y001902D01*
X044933Y001952D01*
X044943Y002002D01*
X044956Y002050D01*
X044973Y002098D01*
X044994Y002144D01*
X045018Y002188D01*
X045046Y002230D01*
X045077Y002270D01*
X045111Y002307D01*
X045148Y002342D01*
X045187Y002373D01*
X045228Y002402D01*
X045272Y002427D01*
X045318Y002449D01*
X045365Y002467D01*
X045413Y002481D01*
X045462Y002492D01*
X045512Y002499D01*
X045562Y002502D01*
X045613Y002501D01*
X045663Y002496D01*
X045713Y002487D01*
X045761Y002475D01*
X045809Y002458D01*
X045855Y002438D01*
X045900Y002415D01*
X045943Y002388D01*
X045983Y002358D01*
X046021Y002325D01*
X046056Y002289D01*
X046089Y002250D01*
X046118Y002209D01*
X046144Y002166D01*
X046167Y002121D01*
X046186Y002074D01*
X046201Y002026D01*
X046213Y001977D01*
X046221Y001927D01*
X046225Y001877D01*
X046225Y001827D01*
X046221Y001777D01*
X046213Y001727D01*
X046201Y001678D01*
X046186Y001630D01*
X046167Y001583D01*
X046144Y001538D01*
X046118Y001495D01*
X046089Y001454D01*
X046056Y001415D01*
X046021Y001379D01*
X045983Y001346D01*
X045943Y001316D01*
X045900Y001289D01*
X045855Y001266D01*
X045809Y001246D01*
X045761Y001229D01*
X045713Y001217D01*
X045663Y001208D01*
X045613Y001203D01*
X045562Y001202D01*
X045512Y001205D01*
X045462Y001212D01*
X045413Y001223D01*
X045365Y001237D01*
X045318Y001255D01*
X045272Y001277D01*
X045228Y001302D01*
X045187Y001331D01*
X045148Y001362D01*
X045111Y001397D01*
X045077Y001434D01*
X045046Y001474D01*
X045018Y001516D01*
X044994Y001560D01*
X044973Y001606D01*
X044956Y001654D01*
X044943Y001702D01*
X044933Y001752D01*
X044927Y001802D01*
X044925Y001852D01*
X032130Y001852D02*
X032132Y001902D01*
X032138Y001952D01*
X032148Y002002D01*
X032161Y002050D01*
X032178Y002098D01*
X032199Y002144D01*
X032223Y002188D01*
X032251Y002230D01*
X032282Y002270D01*
X032316Y002307D01*
X032353Y002342D01*
X032392Y002373D01*
X032433Y002402D01*
X032477Y002427D01*
X032523Y002449D01*
X032570Y002467D01*
X032618Y002481D01*
X032667Y002492D01*
X032717Y002499D01*
X032767Y002502D01*
X032818Y002501D01*
X032868Y002496D01*
X032918Y002487D01*
X032966Y002475D01*
X033014Y002458D01*
X033060Y002438D01*
X033105Y002415D01*
X033148Y002388D01*
X033188Y002358D01*
X033226Y002325D01*
X033261Y002289D01*
X033294Y002250D01*
X033323Y002209D01*
X033349Y002166D01*
X033372Y002121D01*
X033391Y002074D01*
X033406Y002026D01*
X033418Y001977D01*
X033426Y001927D01*
X033430Y001877D01*
X033430Y001827D01*
X033426Y001777D01*
X033418Y001727D01*
X033406Y001678D01*
X033391Y001630D01*
X033372Y001583D01*
X033349Y001538D01*
X033323Y001495D01*
X033294Y001454D01*
X033261Y001415D01*
X033226Y001379D01*
X033188Y001346D01*
X033148Y001316D01*
X033105Y001289D01*
X033060Y001266D01*
X033014Y001246D01*
X032966Y001229D01*
X032918Y001217D01*
X032868Y001208D01*
X032818Y001203D01*
X032767Y001202D01*
X032717Y001205D01*
X032667Y001212D01*
X032618Y001223D01*
X032570Y001237D01*
X032523Y001255D01*
X032477Y001277D01*
X032433Y001302D01*
X032392Y001331D01*
X032353Y001362D01*
X032316Y001397D01*
X032282Y001434D01*
X032251Y001474D01*
X032223Y001516D01*
X032199Y001560D01*
X032178Y001606D01*
X032161Y001654D01*
X032148Y001702D01*
X032138Y001752D01*
X032132Y001802D01*
X032130Y001852D01*
D11*
X042012Y060550D03*
D12*
X042012Y059467D03*
D13*
X031461Y060786D03*
D14*
X031303Y052007D03*
X031303Y050294D03*
X042091Y051830D03*
D15*
X042130Y049743D03*
X041422Y049743D03*
D16*
X040644Y056584D03*
X040004Y056584D03*
X039020Y056584D03*
X038036Y056584D03*
X037051Y056584D03*
X036067Y056584D03*
X035083Y056584D03*
X034099Y056584D03*
D17*
X033114Y057036D03*
X020600Y041250D03*
X019600Y041250D03*
X018600Y041250D03*
X018600Y031320D03*
X019600Y031320D03*
X020600Y031320D03*
D18*
X031088Y057696D02*
X031088Y058522D01*
X031519Y058522D01*
X031519Y057696D01*
X031088Y057696D01*
X031088Y057718D02*
X031519Y057718D01*
X031519Y057756D02*
X031088Y057756D01*
X031088Y057795D02*
X031519Y057795D01*
X031519Y057833D02*
X031088Y057833D01*
X031088Y057872D02*
X031519Y057872D01*
X031519Y057910D02*
X031088Y057910D01*
X031088Y057949D02*
X031519Y057949D01*
X031519Y057987D02*
X031088Y057987D01*
X031088Y058026D02*
X031519Y058026D01*
X031519Y058064D02*
X031088Y058064D01*
X031088Y058103D02*
X031519Y058103D01*
X031519Y058141D02*
X031088Y058141D01*
X031088Y058180D02*
X031519Y058180D01*
X031519Y058218D02*
X031088Y058218D01*
X031088Y058257D02*
X031519Y058257D01*
X031519Y058295D02*
X031088Y058295D01*
X031088Y058334D02*
X031519Y058334D01*
X031519Y058372D02*
X031088Y058372D01*
X031088Y058411D02*
X031519Y058411D01*
X031519Y058449D02*
X031088Y058449D01*
X031088Y058488D02*
X031519Y058488D01*
X041719Y058427D02*
X041719Y057896D01*
X042328Y057896D01*
X042328Y058643D01*
X041798Y058643D01*
X041798Y058574D01*
X041719Y058427D01*
X041719Y058411D02*
X042328Y058411D01*
X042328Y058449D02*
X041731Y058449D01*
X041752Y058488D02*
X042328Y058488D01*
X042328Y058526D02*
X041772Y058526D01*
X041793Y058565D02*
X042328Y058565D01*
X042328Y058603D02*
X041798Y058603D01*
X041798Y058642D02*
X042328Y058642D01*
X042328Y058372D02*
X041719Y058372D01*
X041719Y058334D02*
X042328Y058334D01*
X042328Y058295D02*
X041719Y058295D01*
X041719Y058257D02*
X042328Y058257D01*
X042328Y058218D02*
X041719Y058218D01*
X041719Y058180D02*
X042328Y058180D01*
X042328Y058141D02*
X041719Y058141D01*
X041719Y058103D02*
X042328Y058103D01*
X042328Y058064D02*
X041719Y058064D01*
X041719Y058026D02*
X042328Y058026D01*
X042328Y057987D02*
X041719Y057987D01*
X041719Y057949D02*
X042328Y057949D01*
X042328Y057910D02*
X041719Y057910D01*
D19*
X040698Y048809D03*
X040698Y048209D03*
X040017Y048209D03*
X040017Y048809D03*
X035086Y048809D03*
X035086Y048209D03*
X034155Y048209D03*
X034155Y048809D03*
X033099Y048809D03*
X033099Y048209D03*
X025975Y053985D03*
X025975Y054585D03*
X024975Y048085D03*
X024975Y047485D03*
X022850Y047485D03*
X022850Y048085D03*
X020725Y048085D03*
X020725Y047485D03*
X018600Y047485D03*
X018600Y048085D03*
X013225Y041335D03*
X013225Y040735D03*
X012600Y040735D03*
X012600Y041335D03*
X011975Y041335D03*
X011975Y040735D03*
X012225Y037460D03*
X012225Y036860D03*
X011600Y036860D03*
X011600Y037460D03*
X027100Y037085D03*
X027100Y036485D03*
X028475Y036485D03*
X028475Y037085D03*
X037600Y020585D03*
X037600Y019985D03*
X036975Y018335D03*
X036975Y017735D03*
X037975Y016835D03*
X037975Y016235D03*
X038725Y016235D03*
X038725Y016835D03*
X039475Y017985D03*
X039475Y018585D03*
X040100Y018585D03*
X040100Y017985D03*
X040100Y019235D03*
X040100Y019835D03*
X039475Y019835D03*
X039475Y019235D03*
X035475Y018335D03*
X035475Y017735D03*
X031225Y012335D03*
X031225Y011735D03*
X030475Y011735D03*
X030475Y012335D03*
X037975Y009835D03*
X037975Y009235D03*
X044600Y009235D03*
X044600Y009835D03*
X046100Y008835D03*
X046100Y008235D03*
X046225Y016235D03*
X046225Y016835D03*
X045475Y016835D03*
X045475Y016235D03*
X045600Y019485D03*
X045600Y020085D03*
X011723Y008130D03*
X011723Y007530D03*
X011737Y006566D03*
X011737Y005966D03*
D20*
X011687Y008979D03*
X010887Y008979D03*
X027825Y055910D03*
X028625Y055910D03*
X029450Y055910D03*
X030250Y055910D03*
D21*
X025975Y002660D03*
D22*
X025975Y005940D03*
X026645Y005940D03*
X027315Y005940D03*
X025305Y005940D03*
X024635Y005940D03*
D23*
X024650Y007035D03*
X024050Y007035D03*
X025300Y007035D03*
X025900Y007035D03*
X039300Y013910D03*
X039900Y013910D03*
X039900Y014535D03*
X039300Y014535D03*
X039300Y015160D03*
X039900Y015160D03*
X040675Y009785D03*
X041275Y009785D03*
X046050Y013910D03*
X046650Y013910D03*
X046650Y014535D03*
X046050Y014535D03*
X046050Y015160D03*
X046650Y015160D03*
X028900Y054410D03*
X028300Y054410D03*
X025900Y055410D03*
X025300Y055410D03*
X025275Y054660D03*
X024675Y054660D03*
X014525Y039160D03*
X013925Y039160D03*
X013675Y038035D03*
X014275Y038035D03*
X011525Y039160D03*
X010925Y039160D03*
X006400Y014535D03*
X005800Y014535D03*
D24*
X026475Y012839D03*
X026475Y008981D03*
D25*
X015466Y045788D03*
X003911Y045788D03*
D26*
X005191Y046024D03*
X005506Y046024D03*
X005820Y046024D03*
X006135Y046024D03*
X006450Y046024D03*
X006765Y046024D03*
X007080Y046024D03*
X007395Y046024D03*
X007710Y046024D03*
X008025Y046024D03*
X008340Y046024D03*
X008655Y046024D03*
X008970Y046024D03*
X009285Y046024D03*
X009600Y046024D03*
X009915Y046024D03*
X010230Y046024D03*
X010545Y046024D03*
X012238Y046024D03*
X012553Y046024D03*
X012868Y046024D03*
X013183Y046024D03*
X013498Y046024D03*
X013813Y046024D03*
X014128Y046024D03*
X014443Y046024D03*
X014167Y042796D03*
X013852Y042796D03*
X013537Y042796D03*
X013222Y042796D03*
X012907Y042796D03*
X012592Y042796D03*
X012277Y042796D03*
X011962Y042796D03*
X010387Y042796D03*
X010072Y042796D03*
X009757Y042796D03*
X009443Y042796D03*
X009128Y042796D03*
X008813Y042796D03*
X008498Y042796D03*
X008183Y042796D03*
X007868Y042796D03*
X007553Y042796D03*
X007238Y042796D03*
X006923Y042796D03*
X006608Y042796D03*
X006293Y042796D03*
X005978Y042796D03*
X005663Y042796D03*
X005348Y042796D03*
X005033Y042796D03*
D27*
X004915Y025808D03*
X004915Y023327D03*
X014443Y023327D03*
X014443Y025808D03*
D28*
X012970Y038200D03*
X012600Y038200D03*
X012230Y038200D03*
X012230Y039120D03*
X012600Y039120D03*
X012970Y039120D03*
D29*
X036225Y018370D03*
X036225Y017700D03*
D30*
X035975Y019315D03*
X035475Y019315D03*
X036475Y019315D03*
X036975Y019315D03*
X036975Y021255D03*
X036475Y021255D03*
X035975Y021255D03*
X035475Y021255D03*
D31*
X041000Y020035D03*
X041000Y019535D03*
X041000Y019035D03*
X041000Y018535D03*
X041000Y018035D03*
X041000Y017535D03*
X041000Y017035D03*
X041000Y016535D03*
X044700Y016535D03*
X044700Y017035D03*
X044700Y017535D03*
X044700Y018035D03*
X044700Y018535D03*
X044700Y019035D03*
X044700Y019535D03*
X044700Y020035D03*
D32*
X044705Y015160D03*
X044705Y014660D03*
X044705Y014160D03*
X044705Y013660D03*
X044705Y013160D03*
X044705Y012660D03*
X044705Y012160D03*
X044705Y011660D03*
X044705Y011160D03*
X044705Y010660D03*
X040745Y010660D03*
X040745Y011160D03*
X040745Y011660D03*
X040745Y012160D03*
X040745Y012660D03*
X040745Y013160D03*
X040745Y013660D03*
X040745Y014160D03*
X040745Y014660D03*
X040745Y015160D03*
X037705Y015160D03*
X037705Y014660D03*
X037705Y014160D03*
X037705Y013660D03*
X037705Y013160D03*
X037705Y012660D03*
X037705Y012160D03*
X037705Y011660D03*
X037705Y011160D03*
X037705Y010660D03*
X033745Y010660D03*
X033745Y011160D03*
X033745Y011660D03*
X033745Y012160D03*
X033745Y012660D03*
X033745Y013160D03*
X033745Y013660D03*
X033745Y014160D03*
X033745Y014660D03*
X033745Y015160D03*
D33*
X037975Y017497D03*
X038725Y017497D03*
X038725Y018323D03*
X037975Y018323D03*
X045475Y018198D03*
X046225Y018198D03*
X046225Y017372D03*
X045475Y017372D03*
D34*
X031224Y013016D03*
X030476Y013016D03*
X030850Y013804D03*
X027474Y054016D03*
X027100Y054804D03*
X026726Y054016D03*
D35*
X027100Y039124D03*
X027100Y037946D03*
X028475Y037946D03*
X028475Y039124D03*
X004939Y014535D03*
X003761Y014535D03*
D36*
X029600Y002862D03*
X029600Y001208D03*
D37*
X025975Y048965D03*
X025475Y048965D03*
X024975Y048965D03*
X024475Y048965D03*
X023850Y048965D03*
X023350Y048965D03*
X022850Y048965D03*
X022350Y048965D03*
X021725Y048965D03*
X021225Y048965D03*
X020725Y048965D03*
X020225Y048965D03*
X019600Y048965D03*
X019100Y048965D03*
X018600Y048965D03*
X018100Y048965D03*
X018100Y051615D03*
X018600Y051615D03*
X019100Y051615D03*
X019600Y051615D03*
X020225Y051615D03*
X020725Y051615D03*
X021225Y051615D03*
X021725Y051615D03*
X022350Y051615D03*
X022850Y051615D03*
X023350Y051615D03*
X023850Y051615D03*
X024475Y051615D03*
X024975Y051615D03*
X025475Y051615D03*
X025975Y051615D03*
D38*
X025224Y056180D03*
X025224Y059172D03*
D39*
X026100Y058660D03*
X026100Y058266D03*
X026100Y057873D03*
X026100Y057479D03*
X026100Y057085D03*
X026100Y056691D03*
D40*
X027735Y056750D03*
X027735Y057650D03*
X027735Y058550D03*
D41*
X030215Y057660D03*
M02*
