G75*
G70*
%OFA0B0*%
%FSLAX24Y24*%
%IPPOS*%
%LPD*%
%AMOC8*
5,1,8,0,0,1.08239X$1,22.5*
%
%ADD10R,0.4098X0.4252*%
%ADD11R,0.0850X0.0420*%
%ADD12R,0.0315X0.0354*%
%ADD13R,0.2126X0.1575*%
%ADD14R,0.0394X0.0787*%
%ADD15R,0.0276X0.0600*%
%ADD16R,0.0197X0.0600*%
%ADD17R,0.0354X0.0315*%
%ADD18R,0.0787X0.0394*%
%ADD19R,0.0600X0.0276*%
%ADD20R,0.0600X0.0197*%
%ADD21R,0.0800X0.0260*%
%ADD22R,0.0260X0.0800*%
D10*
X064225Y003555D03*
D11*
X067505Y003555D03*
X067505Y002885D03*
X067505Y002215D03*
X067505Y004225D03*
X067505Y004895D03*
D12*
X068725Y005255D03*
X068725Y005855D03*
X068725Y004355D03*
X068725Y003755D03*
X016100Y018880D03*
X015600Y018880D03*
X015100Y018880D03*
X014600Y018880D03*
X014100Y018880D03*
X013600Y018880D03*
X013600Y019480D03*
X014100Y019480D03*
X014600Y019480D03*
X015100Y019480D03*
X015600Y019480D03*
X016100Y019480D03*
X012975Y017230D03*
X012975Y016630D03*
X013600Y014980D03*
X014100Y014980D03*
X014600Y014980D03*
X015100Y014980D03*
X015100Y014380D03*
X014600Y014380D03*
X014100Y014380D03*
X013600Y014380D03*
X055975Y023380D03*
X055975Y023980D03*
D13*
X072225Y011484D03*
X072225Y007626D03*
D14*
X061355Y027205D03*
X060725Y027205D03*
X060095Y027205D03*
X058355Y027205D03*
X057725Y027205D03*
X057095Y027205D03*
X055355Y027205D03*
X054725Y027205D03*
X054095Y027205D03*
X052355Y027205D03*
X051725Y027205D03*
X051095Y027205D03*
X049355Y027205D03*
X048725Y027205D03*
X048095Y027205D03*
X046355Y027205D03*
X045725Y027205D03*
X045095Y027205D03*
X043355Y027205D03*
X042725Y027205D03*
X042095Y027205D03*
X040355Y027205D03*
X039725Y027205D03*
X039095Y027205D03*
X037355Y027205D03*
X036725Y027205D03*
X036095Y027205D03*
X034355Y027205D03*
X033725Y027205D03*
X033095Y027205D03*
X031355Y027205D03*
X030725Y027205D03*
X030095Y027205D03*
X028355Y027205D03*
X027725Y027205D03*
X027095Y027205D03*
X025355Y027205D03*
X024725Y027205D03*
X024095Y027205D03*
X022355Y027205D03*
X021725Y027205D03*
X021095Y027205D03*
X019355Y027205D03*
X018725Y027205D03*
X018095Y027205D03*
X018095Y028885D03*
X018725Y028885D03*
X019355Y028885D03*
X021095Y028885D03*
X021725Y028885D03*
X022355Y028885D03*
X024095Y028885D03*
X024725Y028885D03*
X025355Y028885D03*
X027095Y028885D03*
X027725Y028885D03*
X028355Y028885D03*
X030095Y028885D03*
X030725Y028885D03*
X031355Y028885D03*
X033095Y028885D03*
X033725Y028885D03*
X034355Y028885D03*
X036095Y028885D03*
X036725Y028885D03*
X037355Y028885D03*
X039095Y028885D03*
X039725Y028885D03*
X040355Y028885D03*
X042095Y028885D03*
X042725Y028885D03*
X043355Y028885D03*
X045095Y028885D03*
X045725Y028885D03*
X046355Y028885D03*
X048095Y028885D03*
X048725Y028885D03*
X049355Y028885D03*
X051095Y028885D03*
X051725Y028885D03*
X052355Y028885D03*
X054095Y028885D03*
X054725Y028885D03*
X055355Y028885D03*
X057095Y028885D03*
X057725Y028885D03*
X058355Y028885D03*
X060095Y028885D03*
X060725Y028885D03*
X061355Y028885D03*
D15*
X061138Y028650D03*
X060312Y028650D03*
X058138Y028650D03*
X057312Y028650D03*
X055138Y028650D03*
X054312Y028650D03*
X052138Y028650D03*
X051312Y028650D03*
X049138Y028650D03*
X048312Y028650D03*
X046138Y028650D03*
X045312Y028650D03*
X043138Y028650D03*
X042312Y028650D03*
X040138Y028650D03*
X039312Y028650D03*
X037138Y028650D03*
X036312Y028650D03*
X034138Y028650D03*
X033312Y028650D03*
X031138Y028650D03*
X030312Y028650D03*
X028138Y028650D03*
X027312Y028650D03*
X025138Y028650D03*
X024312Y028650D03*
X022138Y028650D03*
X021312Y028650D03*
X019138Y028650D03*
X018312Y028650D03*
X018312Y027460D03*
X019138Y027460D03*
X021312Y027460D03*
X022138Y027460D03*
X024312Y027460D03*
X025138Y027460D03*
X027312Y027460D03*
X028138Y027460D03*
X030312Y027460D03*
X031138Y027460D03*
X033312Y027460D03*
X034138Y027460D03*
X036312Y027460D03*
X037138Y027460D03*
X039312Y027460D03*
X040138Y027460D03*
X042312Y027460D03*
X043138Y027460D03*
X045312Y027460D03*
X046138Y027460D03*
X048312Y027460D03*
X049138Y027460D03*
X051312Y027460D03*
X052138Y027460D03*
X054312Y027460D03*
X055138Y027460D03*
X057312Y027460D03*
X058138Y027460D03*
X060312Y027460D03*
X061138Y027460D03*
D16*
X060725Y027460D03*
X060725Y028650D03*
X057725Y028650D03*
X054725Y028650D03*
X054725Y027460D03*
X057725Y027460D03*
X051725Y027460D03*
X051725Y028650D03*
X048725Y028650D03*
X048725Y027460D03*
X045725Y027460D03*
X042725Y027460D03*
X042725Y028650D03*
X045725Y028650D03*
X039725Y028650D03*
X039725Y027460D03*
X036725Y027460D03*
X036725Y028650D03*
X033725Y028650D03*
X030725Y028650D03*
X030725Y027460D03*
X033725Y027460D03*
X027725Y027460D03*
X027725Y028650D03*
X024725Y028650D03*
X021725Y028650D03*
X021725Y027460D03*
X024725Y027460D03*
X018725Y027460D03*
X018725Y028650D03*
D17*
X059550Y016805D03*
X060150Y016805D03*
X060150Y016305D03*
X059550Y016305D03*
X059550Y015805D03*
X059550Y015305D03*
X060150Y015305D03*
X060150Y015805D03*
X064050Y015805D03*
X064050Y015305D03*
X064650Y015305D03*
X064650Y015805D03*
X064650Y016305D03*
X064050Y016305D03*
X064050Y016805D03*
X064650Y016805D03*
X062400Y017430D03*
X061800Y017430D03*
X064050Y014805D03*
X064650Y014805D03*
X064650Y014305D03*
X064050Y014305D03*
D18*
X019895Y005425D03*
X019895Y006055D03*
X019895Y006685D03*
X021575Y006685D03*
X021575Y006055D03*
X021575Y005425D03*
X021575Y008925D03*
X019895Y008925D03*
X019895Y009555D03*
X019895Y010185D03*
X021575Y010185D03*
X021575Y009555D03*
X021575Y012425D03*
X021575Y013055D03*
X021575Y013685D03*
X019895Y013685D03*
X019895Y013055D03*
X019895Y012425D03*
X019895Y015925D03*
X019895Y016555D03*
X019895Y017185D03*
X021575Y017185D03*
X021575Y016555D03*
X021575Y015925D03*
X021575Y019425D03*
X021575Y020055D03*
X021575Y020685D03*
X019895Y020685D03*
X019895Y020055D03*
X019895Y019425D03*
D19*
X020130Y019642D03*
X021320Y019642D03*
X021320Y020468D03*
X020130Y020468D03*
X020130Y016968D03*
X021320Y016968D03*
X021320Y016142D03*
X020130Y016142D03*
X020130Y013468D03*
X021320Y013468D03*
X021320Y012642D03*
X020130Y012642D03*
X020130Y009968D03*
X021320Y009968D03*
X021320Y009142D03*
X020130Y009142D03*
X020130Y006468D03*
X021320Y006468D03*
X021320Y005642D03*
X020130Y005642D03*
D20*
X020130Y006055D03*
X021320Y006055D03*
X021320Y009555D03*
X020130Y009555D03*
X020130Y013055D03*
X021320Y013055D03*
X021320Y016555D03*
X020130Y016555D03*
X020130Y020055D03*
X021320Y020055D03*
D21*
X060890Y016805D03*
X060890Y016305D03*
X060890Y015805D03*
X060890Y015305D03*
X060890Y014805D03*
X060890Y014305D03*
X060890Y013805D03*
X063310Y013805D03*
X063310Y014305D03*
X063310Y014805D03*
X063310Y015305D03*
X063310Y015805D03*
X063310Y016305D03*
X063310Y016805D03*
D22*
X016600Y015720D03*
X016100Y015720D03*
X015600Y015720D03*
X015100Y015720D03*
X014600Y015720D03*
X014100Y015720D03*
X013600Y015720D03*
X013600Y018140D03*
X014100Y018140D03*
X014600Y018140D03*
X015100Y018140D03*
X015600Y018140D03*
X016100Y018140D03*
X016600Y018140D03*
M02*
