G75*
G70*
%OFA0B0*%
%FSLAX24Y24*%
%IPPOS*%
%LPD*%
%AMOC8*
5,1,8,0,0,1.08239X$1,22.5*
%
%ADD10C,0.0000*%
%ADD11C,0.0560*%
%ADD12C,0.0611*%
%ADD13OC8,0.0651*%
%ADD14OC8,0.0690*%
%ADD15C,0.0690*%
%ADD16C,0.0945*%
%ADD17C,0.1060*%
%ADD18OC8,0.1060*%
%ADD19C,0.0690*%
%ADD20C,0.0493*%
%ADD21C,0.0828*%
%ADD22C,0.1359*%
%ADD23C,0.0540*%
%ADD24OC8,0.0591*%
%ADD25C,0.0350*%
%ADD26C,0.0532*%
%ADD27C,0.0476*%
%ADD28C,0.0397*%
%ADD29C,0.0436*%
D10*
X000100Y000160D02*
X050100Y000160D01*
X050100Y063035D01*
X047975Y065160D01*
X002225Y065160D01*
X000100Y063035D01*
X000100Y000160D01*
X004698Y024567D02*
X004700Y024596D01*
X004706Y024624D01*
X004715Y024652D01*
X004728Y024678D01*
X004745Y024701D01*
X004764Y024723D01*
X004786Y024742D01*
X004811Y024757D01*
X004837Y024770D01*
X004865Y024778D01*
X004893Y024783D01*
X004922Y024784D01*
X004951Y024781D01*
X004979Y024774D01*
X005006Y024764D01*
X005032Y024750D01*
X005055Y024733D01*
X005076Y024713D01*
X005094Y024690D01*
X005109Y024665D01*
X005120Y024638D01*
X005128Y024610D01*
X005132Y024581D01*
X005132Y024553D01*
X005128Y024524D01*
X005120Y024496D01*
X005109Y024469D01*
X005094Y024444D01*
X005076Y024421D01*
X005055Y024401D01*
X005032Y024384D01*
X005006Y024370D01*
X004979Y024360D01*
X004951Y024353D01*
X004922Y024350D01*
X004893Y024351D01*
X004865Y024356D01*
X004837Y024364D01*
X004811Y024377D01*
X004786Y024392D01*
X004764Y024411D01*
X004745Y024433D01*
X004728Y024456D01*
X004715Y024482D01*
X004706Y024510D01*
X004700Y024538D01*
X004698Y024567D01*
X014128Y024567D02*
X014130Y024602D01*
X014136Y024637D01*
X014146Y024671D01*
X014159Y024704D01*
X014176Y024735D01*
X014197Y024763D01*
X014220Y024790D01*
X014247Y024813D01*
X014275Y024834D01*
X014306Y024851D01*
X014339Y024864D01*
X014373Y024874D01*
X014408Y024880D01*
X014443Y024882D01*
X014478Y024880D01*
X014513Y024874D01*
X014547Y024864D01*
X014580Y024851D01*
X014611Y024834D01*
X014639Y024813D01*
X014666Y024790D01*
X014689Y024763D01*
X014710Y024735D01*
X014727Y024704D01*
X014740Y024671D01*
X014750Y024637D01*
X014756Y024602D01*
X014758Y024567D01*
X014756Y024532D01*
X014750Y024497D01*
X014740Y024463D01*
X014727Y024430D01*
X014710Y024399D01*
X014689Y024371D01*
X014666Y024344D01*
X014639Y024321D01*
X014611Y024300D01*
X014580Y024283D01*
X014547Y024270D01*
X014513Y024260D01*
X014478Y024254D01*
X014443Y024252D01*
X014408Y024254D01*
X014373Y024260D01*
X014339Y024270D01*
X014306Y024283D01*
X014275Y024300D01*
X014247Y024321D01*
X014220Y024344D01*
X014197Y024371D01*
X014176Y024399D01*
X014159Y024430D01*
X014146Y024463D01*
X014136Y024497D01*
X014130Y024532D01*
X014128Y024567D01*
X014285Y044410D02*
X014287Y044445D01*
X014293Y044480D01*
X014303Y044514D01*
X014316Y044547D01*
X014333Y044578D01*
X014354Y044606D01*
X014377Y044633D01*
X014404Y044656D01*
X014432Y044677D01*
X014463Y044694D01*
X014496Y044707D01*
X014530Y044717D01*
X014565Y044723D01*
X014600Y044725D01*
X014635Y044723D01*
X014670Y044717D01*
X014704Y044707D01*
X014737Y044694D01*
X014768Y044677D01*
X014796Y044656D01*
X014823Y044633D01*
X014846Y044606D01*
X014867Y044578D01*
X014884Y044547D01*
X014897Y044514D01*
X014907Y044480D01*
X014913Y044445D01*
X014915Y044410D01*
X014913Y044375D01*
X014907Y044340D01*
X014897Y044306D01*
X014884Y044273D01*
X014867Y044242D01*
X014846Y044214D01*
X014823Y044187D01*
X014796Y044164D01*
X014768Y044143D01*
X014737Y044126D01*
X014704Y044113D01*
X014670Y044103D01*
X014635Y044097D01*
X014600Y044095D01*
X014565Y044097D01*
X014530Y044103D01*
X014496Y044113D01*
X014463Y044126D01*
X014432Y044143D01*
X014404Y044164D01*
X014377Y044187D01*
X014354Y044214D01*
X014333Y044242D01*
X014316Y044273D01*
X014303Y044306D01*
X014293Y044340D01*
X014287Y044375D01*
X014285Y044410D01*
X004540Y044410D02*
X004542Y044439D01*
X004548Y044467D01*
X004557Y044495D01*
X004570Y044521D01*
X004587Y044544D01*
X004606Y044566D01*
X004628Y044585D01*
X004653Y044600D01*
X004679Y044613D01*
X004707Y044621D01*
X004735Y044626D01*
X004764Y044627D01*
X004793Y044624D01*
X004821Y044617D01*
X004848Y044607D01*
X004874Y044593D01*
X004897Y044576D01*
X004918Y044556D01*
X004936Y044533D01*
X004951Y044508D01*
X004962Y044481D01*
X004970Y044453D01*
X004974Y044424D01*
X004974Y044396D01*
X004970Y044367D01*
X004962Y044339D01*
X004951Y044312D01*
X004936Y044287D01*
X004918Y044264D01*
X004897Y044244D01*
X004874Y044227D01*
X004848Y044213D01*
X004821Y044203D01*
X004793Y044196D01*
X004764Y044193D01*
X004735Y044194D01*
X004707Y044199D01*
X004679Y044207D01*
X004653Y044220D01*
X004628Y044235D01*
X004606Y044254D01*
X004587Y044276D01*
X004570Y044299D01*
X004557Y044325D01*
X004548Y044353D01*
X004542Y044381D01*
X004540Y044410D01*
X031697Y058680D02*
X031699Y058713D01*
X031705Y058745D01*
X031714Y058776D01*
X031727Y058806D01*
X031744Y058834D01*
X031764Y058860D01*
X031787Y058884D01*
X031812Y058904D01*
X031840Y058922D01*
X031869Y058936D01*
X031900Y058946D01*
X031932Y058953D01*
X031965Y058956D01*
X031998Y058955D01*
X032030Y058950D01*
X032061Y058941D01*
X032092Y058929D01*
X032120Y058913D01*
X032147Y058894D01*
X032171Y058872D01*
X032192Y058847D01*
X032211Y058820D01*
X032226Y058791D01*
X032237Y058761D01*
X032245Y058729D01*
X032249Y058696D01*
X032249Y058664D01*
X032245Y058631D01*
X032237Y058599D01*
X032226Y058569D01*
X032211Y058540D01*
X032192Y058513D01*
X032171Y058488D01*
X032147Y058466D01*
X032120Y058447D01*
X032092Y058431D01*
X032061Y058419D01*
X032030Y058410D01*
X031998Y058405D01*
X031965Y058404D01*
X031932Y058407D01*
X031900Y058414D01*
X031869Y058424D01*
X031840Y058438D01*
X031812Y058456D01*
X031787Y058476D01*
X031764Y058500D01*
X031744Y058526D01*
X031727Y058554D01*
X031714Y058584D01*
X031705Y058615D01*
X031699Y058647D01*
X031697Y058680D01*
X041146Y058680D02*
X041148Y058713D01*
X041154Y058745D01*
X041163Y058776D01*
X041176Y058806D01*
X041193Y058834D01*
X041213Y058860D01*
X041236Y058884D01*
X041261Y058904D01*
X041289Y058922D01*
X041318Y058936D01*
X041349Y058946D01*
X041381Y058953D01*
X041414Y058956D01*
X041447Y058955D01*
X041479Y058950D01*
X041510Y058941D01*
X041541Y058929D01*
X041569Y058913D01*
X041596Y058894D01*
X041620Y058872D01*
X041641Y058847D01*
X041660Y058820D01*
X041675Y058791D01*
X041686Y058761D01*
X041694Y058729D01*
X041698Y058696D01*
X041698Y058664D01*
X041694Y058631D01*
X041686Y058599D01*
X041675Y058569D01*
X041660Y058540D01*
X041641Y058513D01*
X041620Y058488D01*
X041596Y058466D01*
X041569Y058447D01*
X041541Y058431D01*
X041510Y058419D01*
X041479Y058410D01*
X041447Y058405D01*
X041414Y058404D01*
X041381Y058407D01*
X041349Y058414D01*
X041318Y058424D01*
X041289Y058438D01*
X041261Y058456D01*
X041236Y058476D01*
X041213Y058500D01*
X041193Y058526D01*
X041176Y058554D01*
X041163Y058584D01*
X041154Y058615D01*
X041148Y058647D01*
X041146Y058680D01*
X044925Y001852D02*
X044927Y001902D01*
X044933Y001952D01*
X044943Y002002D01*
X044956Y002050D01*
X044973Y002098D01*
X044994Y002144D01*
X045018Y002188D01*
X045046Y002230D01*
X045077Y002270D01*
X045111Y002307D01*
X045148Y002342D01*
X045187Y002373D01*
X045228Y002402D01*
X045272Y002427D01*
X045318Y002449D01*
X045365Y002467D01*
X045413Y002481D01*
X045462Y002492D01*
X045512Y002499D01*
X045562Y002502D01*
X045613Y002501D01*
X045663Y002496D01*
X045713Y002487D01*
X045761Y002475D01*
X045809Y002458D01*
X045855Y002438D01*
X045900Y002415D01*
X045943Y002388D01*
X045983Y002358D01*
X046021Y002325D01*
X046056Y002289D01*
X046089Y002250D01*
X046118Y002209D01*
X046144Y002166D01*
X046167Y002121D01*
X046186Y002074D01*
X046201Y002026D01*
X046213Y001977D01*
X046221Y001927D01*
X046225Y001877D01*
X046225Y001827D01*
X046221Y001777D01*
X046213Y001727D01*
X046201Y001678D01*
X046186Y001630D01*
X046167Y001583D01*
X046144Y001538D01*
X046118Y001495D01*
X046089Y001454D01*
X046056Y001415D01*
X046021Y001379D01*
X045983Y001346D01*
X045943Y001316D01*
X045900Y001289D01*
X045855Y001266D01*
X045809Y001246D01*
X045761Y001229D01*
X045713Y001217D01*
X045663Y001208D01*
X045613Y001203D01*
X045562Y001202D01*
X045512Y001205D01*
X045462Y001212D01*
X045413Y001223D01*
X045365Y001237D01*
X045318Y001255D01*
X045272Y001277D01*
X045228Y001302D01*
X045187Y001331D01*
X045148Y001362D01*
X045111Y001397D01*
X045077Y001434D01*
X045046Y001474D01*
X045018Y001516D01*
X044994Y001560D01*
X044973Y001606D01*
X044956Y001654D01*
X044943Y001702D01*
X044933Y001752D01*
X044927Y001802D01*
X044925Y001852D01*
X032130Y001852D02*
X032132Y001902D01*
X032138Y001952D01*
X032148Y002002D01*
X032161Y002050D01*
X032178Y002098D01*
X032199Y002144D01*
X032223Y002188D01*
X032251Y002230D01*
X032282Y002270D01*
X032316Y002307D01*
X032353Y002342D01*
X032392Y002373D01*
X032433Y002402D01*
X032477Y002427D01*
X032523Y002449D01*
X032570Y002467D01*
X032618Y002481D01*
X032667Y002492D01*
X032717Y002499D01*
X032767Y002502D01*
X032818Y002501D01*
X032868Y002496D01*
X032918Y002487D01*
X032966Y002475D01*
X033014Y002458D01*
X033060Y002438D01*
X033105Y002415D01*
X033148Y002388D01*
X033188Y002358D01*
X033226Y002325D01*
X033261Y002289D01*
X033294Y002250D01*
X033323Y002209D01*
X033349Y002166D01*
X033372Y002121D01*
X033391Y002074D01*
X033406Y002026D01*
X033418Y001977D01*
X033426Y001927D01*
X033430Y001877D01*
X033430Y001827D01*
X033426Y001777D01*
X033418Y001727D01*
X033406Y001678D01*
X033391Y001630D01*
X033372Y001583D01*
X033349Y001538D01*
X033323Y001495D01*
X033294Y001454D01*
X033261Y001415D01*
X033226Y001379D01*
X033188Y001346D01*
X033148Y001316D01*
X033105Y001289D01*
X033060Y001266D01*
X033014Y001246D01*
X032966Y001229D01*
X032918Y001217D01*
X032868Y001208D01*
X032818Y001203D01*
X032767Y001202D01*
X032717Y001205D01*
X032667Y001212D01*
X032618Y001223D01*
X032570Y001237D01*
X032523Y001255D01*
X032477Y001277D01*
X032433Y001302D01*
X032392Y001331D01*
X032353Y001362D01*
X032316Y001397D01*
X032282Y001434D01*
X032251Y001474D01*
X032223Y001516D01*
X032199Y001560D01*
X032178Y001606D01*
X032161Y001654D01*
X032148Y001702D01*
X032138Y001752D01*
X032132Y001802D01*
X032130Y001852D01*
D11*
X012482Y003490D03*
X012482Y004277D03*
X012482Y005065D03*
X012482Y005852D03*
X012482Y006639D03*
X012482Y007427D03*
X012482Y008214D03*
X012482Y009002D03*
X012482Y009789D03*
X012482Y010576D03*
X003820Y010576D03*
X003820Y009789D03*
X003820Y009002D03*
X003820Y008214D03*
X003820Y007427D03*
X003820Y006639D03*
X003820Y005852D03*
X003820Y005065D03*
X003820Y004277D03*
X003820Y003490D03*
D12*
X031973Y058680D03*
X041422Y058680D03*
D13*
X030679Y044547D03*
X029679Y044547D03*
X029679Y043547D03*
X029679Y042547D03*
X030679Y042547D03*
X030679Y043547D03*
X030679Y041547D03*
X030679Y040547D03*
X029679Y040547D03*
X029679Y041547D03*
X029679Y039547D03*
X030679Y039547D03*
X030679Y038547D03*
X030679Y037547D03*
X029679Y037547D03*
X029679Y038547D03*
X029679Y036547D03*
X029677Y035291D03*
X030677Y035291D03*
X030679Y036547D03*
X030677Y034291D03*
X029677Y034291D03*
X029677Y033291D03*
X029677Y032291D03*
X030677Y032291D03*
X030677Y033291D03*
X030677Y031291D03*
X030677Y030291D03*
X029677Y030291D03*
X029677Y031291D03*
X029677Y029291D03*
X029677Y028291D03*
X030677Y028291D03*
X030677Y029291D03*
X032954Y026297D03*
X033954Y026297D03*
X034954Y026297D03*
X035954Y026297D03*
X036954Y026297D03*
X037954Y026297D03*
X038954Y026297D03*
X039954Y026297D03*
X040954Y026297D03*
X041954Y026297D03*
X042954Y026297D03*
X042954Y025297D03*
X041954Y025297D03*
X040954Y025297D03*
X039954Y025297D03*
X038954Y025297D03*
X037954Y025297D03*
X036954Y025297D03*
X035954Y025297D03*
X034954Y025297D03*
X033954Y025297D03*
X032954Y025297D03*
X026450Y022093D03*
X026450Y014219D03*
X044292Y027334D03*
X045292Y027334D03*
X045292Y028334D03*
X045292Y029334D03*
X045292Y030334D03*
X045292Y031334D03*
X045292Y032334D03*
X045292Y033334D03*
X045292Y034334D03*
X045292Y035334D03*
X045292Y036334D03*
X045292Y037334D03*
X044292Y037334D03*
X044292Y036334D03*
X044292Y035334D03*
X044292Y034334D03*
X044292Y033334D03*
X044292Y032334D03*
X044292Y031334D03*
X044292Y030334D03*
X044292Y029334D03*
X044292Y028334D03*
D14*
X031550Y009535D03*
D15*
X030150Y009535D03*
D16*
X022850Y009478D02*
X022850Y008593D01*
X022850Y014593D02*
X022850Y015478D01*
D17*
X029600Y005660D03*
D18*
X031600Y005660D03*
D19*
X014443Y024567D03*
X014600Y044410D03*
D20*
X004757Y044410D03*
X004915Y024567D03*
D21*
X035634Y007557D03*
X036225Y006572D03*
X036816Y007557D03*
X037406Y006572D03*
X037997Y007557D03*
X038587Y006572D03*
X039178Y007557D03*
X039768Y006572D03*
X040359Y007557D03*
X040949Y006572D03*
X041540Y007557D03*
X042131Y006572D03*
X042721Y007557D03*
X042131Y005391D03*
X042721Y004407D03*
X041540Y004407D03*
X040949Y005391D03*
X040359Y004407D03*
X039768Y005391D03*
X039178Y004407D03*
X038587Y005391D03*
X037997Y004407D03*
X037406Y005391D03*
X036816Y004407D03*
X036225Y005391D03*
X035634Y004407D03*
D22*
X032780Y001852D03*
X045575Y001852D03*
D23*
X046100Y010460D03*
X046100Y012360D03*
X039350Y012360D03*
X039350Y010460D03*
D24*
X021350Y010285D03*
X021350Y009285D03*
X021350Y008285D03*
X021350Y007285D03*
X021350Y006285D03*
X021350Y005285D03*
X021350Y004285D03*
X021350Y003285D03*
X021350Y011285D03*
X021350Y012285D03*
X021350Y013285D03*
X021350Y014285D03*
X021350Y015285D03*
X021350Y016285D03*
X021350Y017285D03*
X021350Y018285D03*
X021350Y019285D03*
X021350Y020285D03*
X013475Y020285D03*
X013475Y019285D03*
X013475Y018285D03*
X013475Y017285D03*
X013475Y014285D03*
X013475Y013285D03*
X013475Y009285D03*
X013475Y008285D03*
X013475Y007285D03*
D25*
X025975Y007660D03*
X031725Y012910D03*
X031725Y014160D03*
X035100Y018285D03*
X037350Y018285D03*
X042350Y017035D03*
X042350Y016535D03*
X044225Y015785D03*
X045225Y015785D03*
X041725Y009785D03*
X038475Y009160D03*
X034475Y027660D03*
X043475Y035160D03*
X040350Y047160D03*
X039975Y047785D03*
X039600Y047160D03*
X040725Y047785D03*
X041350Y049160D03*
X037975Y055285D03*
X032475Y055285D03*
X030225Y053910D03*
X029725Y053285D03*
X027850Y055410D03*
X026475Y055785D03*
X025600Y053660D03*
X024975Y051035D03*
X025475Y050660D03*
X025975Y050285D03*
X025975Y049535D03*
X026600Y049160D03*
X024475Y048285D03*
X023850Y049535D03*
X023850Y050285D03*
X023350Y050660D03*
X022850Y051035D03*
X021725Y050285D03*
X021225Y050660D03*
X020725Y051035D03*
X019600Y050285D03*
X019100Y050660D03*
X018600Y051035D03*
X019600Y049535D03*
X020225Y048285D03*
X021725Y049535D03*
X022350Y048285D03*
X018100Y048285D03*
X013225Y041910D03*
X012975Y039910D03*
X013850Y039535D03*
X011975Y040285D03*
X011600Y038160D03*
X012475Y045285D03*
X012975Y045285D03*
X019600Y040285D03*
X020600Y039910D03*
X026600Y043410D03*
X027100Y043410D03*
X027600Y043410D03*
X028100Y043410D03*
X033100Y047785D03*
X034100Y047785D03*
X035100Y047785D03*
D26*
X032600Y040785D03*
X032100Y027785D03*
X042225Y020035D03*
X041810Y012229D03*
X041725Y009035D03*
X042975Y009035D03*
X036711Y010674D03*
X028600Y055035D03*
D27*
X024975Y049910D03*
X022850Y049910D03*
X020725Y049910D03*
X018600Y049910D03*
D28*
X040975Y015785D03*
D29*
X017225Y053285D03*
M02*
