G75*
G70*
%OFA0B0*%
%FSLAX24Y24*%
%IPPOS*%
%LPD*%
%AMOC8*
5,1,8,0,0,1.08239X$1,22.5*
%
%ADD10C,0.0040*%
%ADD11C,0.0080*%
D10*
X005584Y015603D02*
X005507Y015680D01*
X005507Y015757D01*
X005584Y015834D01*
X005814Y015834D01*
X005814Y015680D01*
X005738Y015603D01*
X005584Y015603D01*
X005814Y015834D02*
X005661Y015987D01*
X005507Y016064D01*
X005584Y016416D02*
X005738Y016416D01*
X005814Y016493D01*
X005814Y016646D02*
X005661Y016723D01*
X005584Y016723D01*
X005507Y016646D01*
X005507Y016493D01*
X005584Y016416D01*
X005814Y016646D02*
X005814Y016876D01*
X005507Y016876D01*
X006121Y016876D02*
X006121Y016416D01*
X005968Y016416D02*
X006275Y016416D01*
X006428Y016416D02*
X006582Y016569D01*
X006505Y016569D02*
X006735Y016569D01*
X006735Y016416D02*
X006735Y016876D01*
X006505Y016876D01*
X006428Y016800D01*
X006428Y016646D01*
X006505Y016569D01*
X006275Y016723D02*
X006121Y016876D01*
X006121Y016064D02*
X006121Y015603D01*
X005968Y015603D02*
X006275Y015603D01*
X006428Y015603D02*
X006582Y015757D01*
X006505Y015757D02*
X006735Y015757D01*
X006735Y015603D02*
X006735Y016064D01*
X006505Y016064D01*
X006428Y015987D01*
X006428Y015834D01*
X006505Y015757D01*
X006275Y015910D02*
X006121Y016064D01*
X024543Y021643D02*
X024619Y021567D01*
X024773Y021567D01*
X024849Y021643D01*
X024849Y021797D02*
X024696Y021874D01*
X024619Y021874D01*
X024543Y021797D01*
X024543Y021643D01*
X024849Y021797D02*
X024849Y022027D01*
X024543Y022027D01*
X025003Y021950D02*
X025003Y021797D01*
X025080Y021720D01*
X025310Y021720D01*
X025310Y021567D02*
X025310Y022027D01*
X025080Y022027D01*
X025003Y021950D01*
X025156Y021720D02*
X025003Y021567D01*
D11*
X035249Y018408D02*
X035849Y018408D01*
X035249Y018408D02*
X035249Y011912D01*
X035849Y011912D01*
X037049Y011912D02*
X040918Y011912D01*
X040918Y018408D01*
X037049Y018408D01*
M02*
