G75*
G70*
%OFA0B0*%
%FSLAX24Y24*%
%IPPOS*%
%LPD*%
%AMOC8*
5,1,8,0,0,1.08239X$1,22.5*
%
%ADD10C,0.1241*%
%ADD11OC8,0.0651*%
%ADD12R,0.0277X0.0532*%
%ADD13OC8,0.0532*%
%ADD14R,0.0375X0.0414*%
%ADD15R,0.0572X0.0532*%
%ADD16R,0.0611X0.0611*%
%ADD17R,0.1462X0.0611*%
%ADD18C,0.0765*%
%ADD19C,0.1060*%
%ADD20OC8,0.1060*%
%ADD21OC8,0.0690*%
%ADD22C,0.0690*%
%ADD23R,0.0450X0.0180*%
%ADD24R,0.0414X0.0375*%
%ADD25R,0.0532X0.0572*%
%ADD26C,0.0920*%
%ADD27R,0.0180X0.0450*%
%ADD28C,0.0660*%
%ADD29C,0.0350*%
%ADD30C,0.0532*%
D10*
X001725Y001805D03*
X058725Y004147D03*
X077225Y001805D03*
X077225Y028055D03*
X001725Y028055D03*
D11*
X056725Y022555D03*
X057725Y022555D03*
X057725Y021555D03*
X056725Y021555D03*
X056725Y020555D03*
X057725Y020555D03*
X057725Y019555D03*
X056725Y019555D03*
X056725Y018555D03*
X057725Y018555D03*
X057725Y017555D03*
X056725Y017555D03*
X056725Y016555D03*
X057725Y016555D03*
X057725Y015555D03*
X056725Y015555D03*
X056725Y014555D03*
X057725Y014555D03*
X057725Y013555D03*
X056725Y013555D03*
X056725Y012555D03*
X057725Y012555D03*
X058763Y011218D03*
X059763Y011218D03*
X060763Y011218D03*
X061763Y011218D03*
X062763Y011218D03*
X063763Y011218D03*
X064763Y011218D03*
X065763Y011218D03*
X066763Y011218D03*
X067763Y011218D03*
X068763Y011218D03*
X068763Y010218D03*
X067763Y010218D03*
X066763Y010218D03*
X065763Y010218D03*
X064763Y010218D03*
X063763Y010218D03*
X062763Y010218D03*
X061763Y010218D03*
X060763Y010218D03*
X059763Y010218D03*
X058763Y010218D03*
X059719Y024832D03*
X060719Y024832D03*
X061719Y024832D03*
X062719Y024832D03*
X063719Y024832D03*
X064719Y024832D03*
X065719Y024832D03*
X066719Y024832D03*
X067975Y024830D03*
X068975Y024830D03*
X069975Y024830D03*
X070975Y024830D03*
X071975Y024830D03*
X072975Y024830D03*
X073975Y024830D03*
X074975Y024830D03*
X075975Y024830D03*
X075975Y025830D03*
X074975Y025830D03*
X073975Y025830D03*
X072975Y025830D03*
X071975Y025830D03*
X070975Y025830D03*
X069975Y025830D03*
X068975Y025830D03*
X067975Y025830D03*
X066719Y025832D03*
X065719Y025832D03*
X064719Y025832D03*
X063719Y025832D03*
X062719Y025832D03*
X061719Y025832D03*
X060719Y025832D03*
X059719Y025832D03*
D12*
X048099Y004067D03*
X047351Y004067D03*
X047351Y003043D03*
X047725Y003043D03*
X048099Y003043D03*
D13*
X047225Y001555D03*
X046225Y001555D03*
X045225Y001555D03*
X034225Y001555D03*
X033225Y001555D03*
X032225Y001555D03*
X032225Y025555D03*
X033225Y025555D03*
X034225Y025555D03*
X035225Y025555D03*
X036225Y025555D03*
X037225Y025555D03*
X038225Y025555D03*
X039225Y025555D03*
X040225Y025555D03*
X041225Y025555D03*
X042225Y025555D03*
X043225Y025555D03*
X044225Y025555D03*
X045225Y025555D03*
X046225Y025555D03*
X047225Y025555D03*
D14*
X047225Y026255D03*
X047225Y026855D03*
X052850Y023605D03*
X052850Y023005D03*
X055350Y021480D03*
X055350Y020880D03*
X041100Y021105D03*
X041100Y020505D03*
X037850Y021505D03*
X037850Y022105D03*
X022850Y023005D03*
X022850Y023605D03*
X026100Y015355D03*
X026100Y014755D03*
X026225Y011355D03*
X026225Y010755D03*
X046725Y003855D03*
X046725Y003255D03*
X047725Y004755D03*
X047725Y005355D03*
D15*
X046725Y005455D03*
X046725Y004655D03*
X049225Y001955D03*
X049225Y001155D03*
X047975Y026280D03*
X047975Y027080D03*
D16*
X048225Y002428D03*
X048225Y000932D03*
D17*
X049725Y002980D03*
X049725Y005130D03*
D18*
X076873Y005571D02*
X077578Y005571D01*
X077578Y007539D02*
X076873Y007539D01*
X076725Y009203D02*
X076725Y009908D01*
X076725Y017203D02*
X076725Y017908D01*
D19*
X072225Y004555D03*
D20*
X072225Y002555D03*
D21*
X066525Y007555D03*
D22*
X067925Y007555D03*
D23*
X040874Y021517D03*
X040874Y021773D03*
X040874Y022028D03*
X040874Y022284D03*
X040874Y022540D03*
X040874Y022796D03*
X040874Y023052D03*
X040874Y023308D03*
X040874Y023564D03*
X040874Y023820D03*
X040874Y024076D03*
X040874Y024332D03*
X040874Y024587D03*
X040874Y024843D03*
X038576Y024843D03*
X038576Y024587D03*
X038576Y024332D03*
X038576Y024076D03*
X038576Y023820D03*
X038576Y023564D03*
X038576Y023308D03*
X038576Y023052D03*
X038576Y022796D03*
X038576Y022540D03*
X038576Y022284D03*
X038576Y022028D03*
X038576Y021773D03*
X038576Y021517D03*
X025874Y023017D03*
X025874Y023273D03*
X025874Y023528D03*
X025874Y023784D03*
X025874Y024040D03*
X025874Y024296D03*
X025874Y024552D03*
X025874Y024808D03*
X025874Y025064D03*
X025874Y025320D03*
X025874Y025576D03*
X025874Y025832D03*
X025874Y026087D03*
X025874Y026343D03*
X023576Y026343D03*
X023576Y026087D03*
X023576Y025832D03*
X023576Y025576D03*
X023576Y025320D03*
X023576Y025064D03*
X023576Y024808D03*
X023576Y024552D03*
X023576Y024296D03*
X023576Y024040D03*
X023576Y023784D03*
X023576Y023528D03*
X023576Y023273D03*
X023576Y023017D03*
X053576Y023017D03*
X053576Y023273D03*
X053576Y023528D03*
X053576Y023784D03*
X053576Y024040D03*
X053576Y024296D03*
X053576Y024552D03*
X053576Y024808D03*
X053576Y025064D03*
X053576Y025320D03*
X053576Y025576D03*
X053576Y025832D03*
X053576Y026087D03*
X053576Y026343D03*
X055874Y026343D03*
X055874Y026087D03*
X055874Y025832D03*
X055874Y025576D03*
X055874Y025320D03*
X055874Y025064D03*
X055874Y024808D03*
X055874Y024552D03*
X055874Y024296D03*
X055874Y024040D03*
X055874Y023784D03*
X055874Y023528D03*
X055874Y023273D03*
X055874Y023017D03*
D24*
X055400Y022055D03*
X054800Y022055D03*
X026900Y022555D03*
X026300Y022555D03*
D25*
X044325Y026430D03*
X045125Y026430D03*
X045125Y027305D03*
X044325Y027305D03*
D26*
X057544Y007021D03*
X058725Y007021D03*
X059906Y007021D03*
X059906Y005839D03*
X058725Y005839D03*
X057544Y005839D03*
D27*
X025888Y011906D03*
X025632Y011906D03*
X025377Y011906D03*
X025121Y011906D03*
X024865Y011906D03*
X024609Y011906D03*
X024353Y011906D03*
X024097Y011906D03*
X023841Y011906D03*
X023585Y011906D03*
X023329Y011906D03*
X023073Y011906D03*
X022818Y011906D03*
X022562Y011906D03*
X022562Y014204D03*
X022818Y014204D03*
X023073Y014204D03*
X023329Y014204D03*
X023585Y014204D03*
X023841Y014204D03*
X024097Y014204D03*
X024353Y014204D03*
X024609Y014204D03*
X024865Y014204D03*
X025121Y014204D03*
X025377Y014204D03*
X025632Y014204D03*
X025888Y014204D03*
D28*
X010805Y013445D02*
X010205Y013445D01*
X008245Y013445D02*
X007645Y013445D01*
X007645Y011665D02*
X008245Y011665D01*
X010205Y011665D02*
X010805Y011665D01*
X010805Y017540D02*
X010205Y017540D01*
X008245Y017540D02*
X007645Y017540D01*
X007645Y019320D02*
X008245Y019320D01*
X010205Y019320D02*
X010805Y019320D01*
X011585Y020100D02*
X011585Y020700D01*
X013365Y020700D02*
X013365Y020100D01*
X013365Y022660D02*
X013365Y023260D01*
X011585Y023260D02*
X011585Y022660D01*
X010805Y024040D02*
X010205Y024040D01*
X008245Y024040D02*
X007645Y024040D01*
X006865Y023260D02*
X006865Y022660D01*
X005085Y022660D02*
X005085Y023260D01*
X005085Y020700D02*
X005085Y020100D01*
X006865Y020100D02*
X006865Y020700D01*
X007645Y025820D02*
X008245Y025820D01*
X010205Y025820D02*
X010805Y025820D01*
D29*
X018100Y024805D03*
X018725Y024430D03*
X019350Y024180D03*
X022350Y025180D03*
X021725Y025430D03*
X021100Y025805D03*
X024725Y026430D03*
X025350Y026305D03*
X027100Y025430D03*
X027725Y025680D03*
X028350Y026180D03*
X031350Y025055D03*
X030725Y024680D03*
X030100Y024430D03*
X032725Y023305D03*
X033725Y022930D03*
X034725Y022680D03*
X036975Y022055D03*
X036725Y021680D03*
X035725Y020930D03*
X035225Y020930D03*
X033225Y020930D03*
X033225Y020180D03*
X035225Y019930D03*
X035725Y019680D03*
X039350Y021305D03*
X039975Y021805D03*
X039975Y022305D03*
X039975Y022805D03*
X039725Y023180D03*
X037725Y023680D03*
X036725Y023930D03*
X035725Y024430D03*
X038100Y024805D03*
X039850Y024180D03*
X041725Y023930D03*
X042725Y024180D03*
X043725Y024680D03*
X046725Y023555D03*
X045725Y023180D03*
X044725Y022930D03*
X048725Y024430D03*
X049350Y024180D03*
X048100Y024805D03*
X051100Y025930D03*
X051725Y025430D03*
X052350Y025180D03*
X054475Y025305D03*
X054725Y026430D03*
X055350Y026430D03*
X057100Y025430D03*
X057725Y025680D03*
X058350Y026180D03*
X057475Y024430D03*
X054350Y023805D03*
X055350Y022805D03*
X054100Y027930D03*
X060725Y027930D03*
X061350Y027930D03*
X040350Y026180D03*
X039725Y026180D03*
X035225Y026555D03*
X027225Y023930D03*
X026975Y023555D03*
X026725Y023180D03*
X024975Y022555D03*
X025350Y022305D03*
X025725Y022055D03*
X023850Y020680D03*
X024225Y020055D03*
X024475Y019430D03*
X023100Y019055D03*
X023100Y018680D03*
X023100Y018305D03*
X023100Y017930D03*
X023100Y017555D03*
X022850Y017180D03*
X023225Y016555D03*
X023475Y015930D03*
X019225Y017555D03*
X019100Y017930D03*
X018975Y018305D03*
X018850Y018680D03*
X018725Y019055D03*
X016350Y017430D03*
X015350Y017430D03*
X014100Y017430D03*
X013725Y016430D03*
X014600Y016430D03*
X022225Y013555D03*
X022225Y013055D03*
X020725Y013055D03*
X025632Y012962D03*
X023725Y010180D03*
X023475Y009555D03*
X023100Y008930D03*
X024725Y006680D03*
X024475Y006055D03*
X024100Y005430D03*
X061475Y015805D03*
X062475Y016305D03*
X061600Y016555D03*
X062725Y015305D03*
X062725Y014305D03*
X037225Y022430D03*
X024725Y024680D03*
X024100Y027930D03*
D30*
X042225Y021305D03*
M02*
