G75*
G70*
%OFA0B0*%
%FSLAX24Y24*%
%IPPOS*%
%LPD*%
%AMOC8*
5,1,8,0,0,1.08239X$1,22.5*
%
%ADD10C,0.1241*%
%ADD11OC8,0.0651*%
%ADD12OC8,0.0532*%
%ADD13R,0.4158X0.4312*%
%ADD14R,0.0910X0.0480*%
%ADD15C,0.0765*%
%ADD16R,0.0375X0.0414*%
%ADD17C,0.1060*%
%ADD18OC8,0.1060*%
%ADD19OC8,0.0690*%
%ADD20C,0.0690*%
%ADD21R,0.2186X0.1635*%
%ADD22C,0.0250*%
%ADD23R,0.0454X0.0847*%
%ADD24C,0.0920*%
%ADD25R,0.0414X0.0375*%
%ADD26R,0.0847X0.0454*%
%ADD27C,0.0660*%
%ADD28R,0.0860X0.0320*%
%ADD29R,0.0320X0.0860*%
%ADD30C,0.0350*%
%ADD31C,0.0532*%
D10*
X001725Y001805D03*
X058725Y004147D03*
X077225Y001805D03*
X077225Y028055D03*
X001725Y028055D03*
D11*
X056725Y022555D03*
X057725Y022555D03*
X057725Y021555D03*
X056725Y021555D03*
X056725Y020555D03*
X057725Y020555D03*
X057725Y019555D03*
X056725Y019555D03*
X056725Y018555D03*
X057725Y018555D03*
X057725Y017555D03*
X056725Y017555D03*
X056725Y016555D03*
X057725Y016555D03*
X057725Y015555D03*
X056725Y015555D03*
X056725Y014555D03*
X057725Y014555D03*
X057725Y013555D03*
X056725Y013555D03*
X056725Y012555D03*
X057725Y012555D03*
X058763Y011218D03*
X059763Y011218D03*
X060763Y011218D03*
X061763Y011218D03*
X062763Y011218D03*
X063763Y011218D03*
X064763Y011218D03*
X065763Y011218D03*
X066763Y011218D03*
X067763Y011218D03*
X068763Y011218D03*
X068763Y010218D03*
X067763Y010218D03*
X066763Y010218D03*
X065763Y010218D03*
X064763Y010218D03*
X063763Y010218D03*
X062763Y010218D03*
X061763Y010218D03*
X060763Y010218D03*
X059763Y010218D03*
X058763Y010218D03*
X059719Y024832D03*
X060719Y024832D03*
X061719Y024832D03*
X062719Y024832D03*
X063719Y024832D03*
X064719Y024832D03*
X065719Y024832D03*
X066719Y024832D03*
X067975Y024830D03*
X068975Y024830D03*
X069975Y024830D03*
X070975Y024830D03*
X071975Y024830D03*
X072975Y024830D03*
X073975Y024830D03*
X074975Y024830D03*
X075975Y024830D03*
X075975Y025830D03*
X074975Y025830D03*
X073975Y025830D03*
X072975Y025830D03*
X071975Y025830D03*
X070975Y025830D03*
X069975Y025830D03*
X068975Y025830D03*
X067975Y025830D03*
X066719Y025832D03*
X065719Y025832D03*
X064719Y025832D03*
X063719Y025832D03*
X062719Y025832D03*
X061719Y025832D03*
X060719Y025832D03*
X059719Y025832D03*
D12*
X047225Y025555D03*
X046225Y025555D03*
X045225Y025555D03*
X044225Y025555D03*
X043225Y025555D03*
X042225Y025555D03*
X041225Y025555D03*
X040225Y025555D03*
X039225Y025555D03*
X038225Y025555D03*
X037225Y025555D03*
X036225Y025555D03*
X035225Y025555D03*
X034225Y025555D03*
X033225Y025555D03*
X032225Y025555D03*
X032225Y001555D03*
X033225Y001555D03*
X034225Y001555D03*
X045225Y001555D03*
X046225Y001555D03*
X047225Y001555D03*
D13*
X064225Y003555D03*
D14*
X067505Y003555D03*
X067505Y002885D03*
X067505Y002215D03*
X067505Y004225D03*
X067505Y004895D03*
D15*
X076873Y005571D02*
X077578Y005571D01*
X077578Y007539D02*
X076873Y007539D01*
X076725Y009203D02*
X076725Y009908D01*
X076725Y017203D02*
X076725Y017908D01*
D16*
X055975Y023380D03*
X055975Y023980D03*
X016100Y019480D03*
X015600Y019480D03*
X015100Y019480D03*
X014600Y019480D03*
X014100Y019480D03*
X013600Y019480D03*
X013600Y018880D03*
X014100Y018880D03*
X014600Y018880D03*
X015100Y018880D03*
X015600Y018880D03*
X016100Y018880D03*
X012975Y017230D03*
X012975Y016630D03*
X013600Y014980D03*
X014100Y014980D03*
X014600Y014980D03*
X015100Y014980D03*
X015100Y014380D03*
X014600Y014380D03*
X014100Y014380D03*
X013600Y014380D03*
X068725Y005855D03*
X068725Y005255D03*
X068725Y004355D03*
X068725Y003755D03*
D17*
X072225Y004555D03*
D18*
X072225Y002555D03*
D19*
X066525Y007555D03*
D20*
X067925Y007555D03*
D21*
X072225Y007626D03*
X072225Y011484D03*
D22*
X059444Y027174D03*
X056444Y027174D03*
X053444Y027174D03*
X050444Y027174D03*
X047444Y027174D03*
X044444Y027174D03*
X041444Y027174D03*
X038444Y027174D03*
X035444Y027174D03*
X032444Y027174D03*
X029444Y027174D03*
X026444Y027174D03*
X023444Y027174D03*
X020444Y027174D03*
X017444Y027174D03*
X021606Y018774D03*
X021606Y015274D03*
X021606Y011774D03*
X021606Y008274D03*
X021606Y004774D03*
D23*
X021725Y027205D03*
X022355Y027205D03*
X021095Y027205D03*
X019355Y027205D03*
X018725Y027205D03*
X018095Y027205D03*
X018095Y028885D03*
X018725Y028885D03*
X019355Y028885D03*
X021095Y028885D03*
X021725Y028885D03*
X022355Y028885D03*
X024095Y028885D03*
X024725Y028885D03*
X025355Y028885D03*
X027095Y028885D03*
X027725Y028885D03*
X028355Y028885D03*
X030095Y028885D03*
X030725Y028885D03*
X031355Y028885D03*
X033095Y028885D03*
X033725Y028885D03*
X034355Y028885D03*
X036095Y028885D03*
X036725Y028885D03*
X037355Y028885D03*
X039095Y028885D03*
X039725Y028885D03*
X040355Y028885D03*
X042095Y028885D03*
X042725Y028885D03*
X043355Y028885D03*
X045095Y028885D03*
X045725Y028885D03*
X046355Y028885D03*
X048095Y028885D03*
X048725Y028885D03*
X049355Y028885D03*
X051095Y028885D03*
X051725Y028885D03*
X052355Y028885D03*
X054095Y028885D03*
X054725Y028885D03*
X055355Y028885D03*
X057095Y028885D03*
X057725Y028885D03*
X058355Y028885D03*
X060095Y028885D03*
X060725Y028885D03*
X061355Y028885D03*
X061355Y027205D03*
X060725Y027205D03*
X060095Y027205D03*
X058355Y027205D03*
X057725Y027205D03*
X057095Y027205D03*
X055355Y027205D03*
X054725Y027205D03*
X054095Y027205D03*
X052355Y027205D03*
X051725Y027205D03*
X051095Y027205D03*
X049355Y027205D03*
X048725Y027205D03*
X048095Y027205D03*
X046355Y027205D03*
X045725Y027205D03*
X045095Y027205D03*
X043355Y027205D03*
X042725Y027205D03*
X042095Y027205D03*
X040355Y027205D03*
X039725Y027205D03*
X039095Y027205D03*
X037355Y027205D03*
X036725Y027205D03*
X036095Y027205D03*
X034355Y027205D03*
X033725Y027205D03*
X033095Y027205D03*
X031355Y027205D03*
X030725Y027205D03*
X030095Y027205D03*
X028355Y027205D03*
X027725Y027205D03*
X027095Y027205D03*
X025355Y027205D03*
X024725Y027205D03*
X024095Y027205D03*
D24*
X057544Y007021D03*
X058725Y007021D03*
X059906Y007021D03*
X059906Y005839D03*
X058725Y005839D03*
X057544Y005839D03*
D25*
X064050Y014305D03*
X064650Y014305D03*
X064650Y014805D03*
X064050Y014805D03*
X064050Y015305D03*
X064050Y015805D03*
X064650Y015805D03*
X064650Y015305D03*
X064650Y016305D03*
X064050Y016305D03*
X064050Y016805D03*
X064650Y016805D03*
X062400Y017430D03*
X061800Y017430D03*
X060150Y016805D03*
X059550Y016805D03*
X059550Y016305D03*
X060150Y016305D03*
X060150Y015805D03*
X060150Y015305D03*
X059550Y015305D03*
X059550Y015805D03*
D26*
X021575Y015925D03*
X021575Y016555D03*
X021575Y017185D03*
X019895Y017185D03*
X019895Y016555D03*
X019895Y015925D03*
X019895Y013685D03*
X019895Y013055D03*
X019895Y012425D03*
X021575Y012425D03*
X021575Y013055D03*
X021575Y013685D03*
X021575Y010185D03*
X021575Y009555D03*
X019895Y009555D03*
X019895Y010185D03*
X019895Y008925D03*
X021575Y008925D03*
X021575Y006685D03*
X021575Y006055D03*
X021575Y005425D03*
X019895Y005425D03*
X019895Y006055D03*
X019895Y006685D03*
X019895Y019425D03*
X019895Y020055D03*
X019895Y020685D03*
X021575Y020685D03*
X021575Y020055D03*
X021575Y019425D03*
D27*
X013365Y020100D02*
X013365Y020700D01*
X011585Y020700D02*
X011585Y020100D01*
X010805Y019320D02*
X010205Y019320D01*
X008245Y019320D02*
X007645Y019320D01*
X006865Y020100D02*
X006865Y020700D01*
X005085Y020700D02*
X005085Y020100D01*
X005085Y022660D02*
X005085Y023260D01*
X006865Y023260D02*
X006865Y022660D01*
X007645Y024040D02*
X008245Y024040D01*
X010205Y024040D02*
X010805Y024040D01*
X011585Y023260D02*
X011585Y022660D01*
X013365Y022660D02*
X013365Y023260D01*
X010805Y025820D02*
X010205Y025820D01*
X008245Y025820D02*
X007645Y025820D01*
X007645Y017540D02*
X008245Y017540D01*
X010205Y017540D02*
X010805Y017540D01*
X010805Y013445D02*
X010205Y013445D01*
X008245Y013445D02*
X007645Y013445D01*
X007645Y011665D02*
X008245Y011665D01*
X010205Y011665D02*
X010805Y011665D01*
D28*
X060890Y013805D03*
X060890Y014305D03*
X060890Y014805D03*
X060890Y015305D03*
X060890Y015805D03*
X060890Y016305D03*
X060890Y016805D03*
X063310Y016805D03*
X063310Y016305D03*
X063310Y015805D03*
X063310Y015305D03*
X063310Y014805D03*
X063310Y014305D03*
X063310Y013805D03*
D29*
X016600Y015720D03*
X016100Y015720D03*
X015600Y015720D03*
X015100Y015720D03*
X014600Y015720D03*
X014100Y015720D03*
X013600Y015720D03*
X013600Y018140D03*
X014100Y018140D03*
X014600Y018140D03*
X015100Y018140D03*
X015600Y018140D03*
X016100Y018140D03*
X016600Y018140D03*
D30*
X016350Y017430D03*
X015350Y017430D03*
X014100Y017430D03*
X013725Y016430D03*
X014600Y016430D03*
X019100Y017930D03*
X018975Y018305D03*
X018850Y018680D03*
X018725Y019055D03*
X019225Y017555D03*
X022850Y017180D03*
X023100Y017555D03*
X023100Y017930D03*
X023100Y018305D03*
X023100Y018680D03*
X023100Y019055D03*
X024475Y019430D03*
X024225Y020055D03*
X023850Y020680D03*
X025725Y022055D03*
X025350Y022305D03*
X024975Y022555D03*
X026725Y023180D03*
X026975Y023555D03*
X027225Y023930D03*
X024725Y024680D03*
X022350Y025180D03*
X021725Y025430D03*
X021100Y025805D03*
X018100Y024805D03*
X018725Y024430D03*
X019350Y024180D03*
X024725Y026430D03*
X025350Y026305D03*
X027100Y025430D03*
X027725Y025680D03*
X028350Y026180D03*
X031350Y025055D03*
X030725Y024680D03*
X030100Y024430D03*
X032725Y023305D03*
X033725Y022930D03*
X034725Y022680D03*
X036975Y022055D03*
X036725Y021680D03*
X035725Y020930D03*
X035225Y020930D03*
X033225Y020930D03*
X033225Y020180D03*
X035225Y019930D03*
X035725Y019680D03*
X039350Y021305D03*
X039975Y021805D03*
X039975Y022305D03*
X039975Y022805D03*
X039725Y023180D03*
X037725Y023680D03*
X036725Y023930D03*
X035725Y024430D03*
X038100Y024805D03*
X039850Y024180D03*
X041725Y023930D03*
X042725Y024180D03*
X043725Y024680D03*
X046725Y023555D03*
X045725Y023180D03*
X044725Y022930D03*
X048725Y024430D03*
X049350Y024180D03*
X048100Y024805D03*
X051100Y025930D03*
X051725Y025430D03*
X052350Y025180D03*
X054475Y025305D03*
X054725Y026430D03*
X055350Y026430D03*
X057100Y025430D03*
X057725Y025680D03*
X058350Y026180D03*
X057475Y024430D03*
X054350Y023805D03*
X055350Y022805D03*
X054100Y027930D03*
X060725Y027930D03*
X061350Y027930D03*
X040350Y026180D03*
X039725Y026180D03*
X035225Y026555D03*
X037225Y022430D03*
X024100Y027930D03*
X023225Y016555D03*
X023475Y015930D03*
X022225Y013555D03*
X022225Y013055D03*
X020725Y013055D03*
X025632Y012962D03*
X023725Y010180D03*
X023475Y009555D03*
X023100Y008930D03*
X024725Y006680D03*
X024475Y006055D03*
X024100Y005430D03*
X061475Y015805D03*
X062475Y016305D03*
X061600Y016555D03*
X062725Y015305D03*
X062725Y014305D03*
D31*
X042225Y021305D03*
M02*
