G75*
G70*
%OFA0B0*%
%FSLAX24Y24*%
%IPPOS*%
%LPD*%
%AMOC8*
5,1,8,0,0,1.08239X$1,22.5*
%
%ADD10C,0.0710*%
%ADD11C,0.1523*%
%ADD12OC8,0.0651*%
%ADD13C,0.1241*%
%ADD14OC8,0.0690*%
%ADD15C,0.0690*%
%ADD16C,0.0660*%
%ADD17C,0.0540*%
%ADD18OC8,0.0350*%
%ADD19OC8,0.0397*%
%ADD20OC8,0.0532*%
%ADD21OC8,0.0436*%
D10*
X020993Y030401D03*
X020993Y031975D03*
X022449Y031975D03*
X023827Y031975D03*
X024811Y031975D03*
X025796Y031975D03*
X026780Y031975D03*
X027764Y031975D03*
X028748Y031975D03*
X029733Y031975D03*
X030717Y031975D03*
X031701Y031975D03*
X032685Y031975D03*
X032685Y030401D03*
X031701Y030401D03*
X030717Y030401D03*
X029733Y030401D03*
X028748Y030401D03*
X027764Y030401D03*
X026780Y030401D03*
X025796Y030401D03*
X024811Y030401D03*
X023827Y030401D03*
X022449Y030401D03*
X022449Y033550D03*
X023827Y033550D03*
X024811Y033550D03*
X025796Y033550D03*
X026780Y033550D03*
X027764Y033550D03*
X028748Y033550D03*
X029733Y033550D03*
X030717Y033550D03*
X031701Y033550D03*
X032685Y033550D03*
X032685Y035125D03*
X031701Y035125D03*
X030717Y035125D03*
X029733Y035125D03*
X028748Y035125D03*
X027764Y035125D03*
X026780Y035125D03*
X025796Y035125D03*
X024811Y035125D03*
X023827Y035125D03*
X022449Y035125D03*
X020993Y035125D03*
X020993Y033550D03*
D11*
X019339Y033944D03*
X034339Y033944D03*
D12*
X031193Y023625D03*
X031193Y022625D03*
X030193Y022625D03*
X029193Y022625D03*
X028193Y022625D03*
X027193Y022625D03*
X027193Y023625D03*
X028193Y023625D03*
X029193Y023625D03*
X030193Y023625D03*
X033470Y020631D03*
X033470Y019631D03*
X033470Y018631D03*
X034470Y018631D03*
X034470Y019631D03*
X034470Y020631D03*
X036568Y020750D03*
X037568Y020750D03*
X037568Y021750D03*
X036568Y021750D03*
X036568Y022750D03*
X037568Y022750D03*
X034470Y017631D03*
X033470Y017631D03*
X033470Y016631D03*
X033470Y015631D03*
X034470Y015631D03*
X034470Y016631D03*
X034470Y014631D03*
X033470Y014631D03*
X033470Y013631D03*
X034470Y013631D03*
X034468Y012375D03*
X033468Y012375D03*
X033468Y011375D03*
X034468Y011375D03*
X034468Y010375D03*
X033468Y010375D03*
X033468Y009375D03*
X033468Y008375D03*
X033468Y007375D03*
X034468Y007375D03*
X034468Y008375D03*
X034468Y009375D03*
X034468Y006375D03*
X033468Y006375D03*
X033468Y005375D03*
X033468Y004375D03*
X034468Y004375D03*
X034468Y005375D03*
X019856Y011588D03*
X018856Y011588D03*
X018856Y012588D03*
X018856Y013588D03*
X018856Y014588D03*
X018856Y015588D03*
X019856Y015588D03*
X019856Y014588D03*
X019856Y013588D03*
X019856Y012588D03*
X019856Y016588D03*
X019856Y017588D03*
X019856Y018588D03*
X018856Y018588D03*
X018856Y017588D03*
X018856Y016588D03*
X018856Y019588D03*
X018856Y020588D03*
X018856Y021588D03*
X019856Y021588D03*
X019856Y020588D03*
X019856Y019588D03*
X021193Y022625D03*
X021193Y023625D03*
X022193Y023625D03*
X022193Y022625D03*
X023193Y022625D03*
X023193Y023625D03*
X024193Y023625D03*
X024193Y022625D03*
X025193Y022625D03*
X025193Y023625D03*
X026193Y023625D03*
X026193Y022625D03*
D13*
X009068Y005375D03*
X037193Y005375D03*
X037193Y041375D03*
X009068Y041375D03*
D14*
X010568Y035125D03*
X016193Y036700D03*
D15*
X016193Y035300D03*
X011568Y035125D03*
D16*
X008818Y032175D02*
X008818Y031575D01*
X008818Y027175D02*
X008818Y026575D01*
D17*
X010818Y018730D02*
X010818Y018250D01*
X011818Y018250D02*
X011818Y018730D01*
X012818Y018730D02*
X012818Y018250D01*
X014068Y018250D02*
X014068Y018730D01*
X015068Y018730D02*
X015068Y018250D01*
X016068Y018250D02*
X016068Y018730D01*
X016068Y015250D02*
X016068Y014770D01*
X015068Y014770D02*
X015068Y015250D01*
X014068Y015250D02*
X014068Y014770D01*
X012818Y014770D02*
X012818Y015250D01*
X011818Y015250D02*
X011818Y014770D01*
X010818Y014770D02*
X010818Y015250D01*
D18*
X009818Y013625D03*
X009193Y013625D03*
X009506Y011938D03*
X012568Y012125D03*
X013193Y012625D03*
X014193Y012250D03*
X013693Y011625D03*
X014693Y011625D03*
X015193Y012625D03*
X015818Y013500D03*
X016568Y013125D03*
X016318Y012500D03*
X015193Y010250D03*
X014693Y010250D03*
X013818Y010250D03*
X013193Y010250D03*
X013193Y007875D03*
X012693Y007875D03*
X012193Y007875D03*
X014193Y007875D03*
X015818Y009125D03*
X016193Y008750D03*
X017443Y017500D03*
X017693Y018625D03*
X017693Y019625D03*
X017693Y020750D03*
X016818Y022500D03*
X015568Y022500D03*
X016318Y025375D03*
X015943Y025875D03*
X016568Y026375D03*
X015943Y026875D03*
X016068Y027375D03*
X016193Y028250D03*
X015693Y028250D03*
X016693Y028250D03*
X017193Y028250D03*
X017693Y028250D03*
X018193Y028250D03*
X018693Y027750D03*
X018943Y028000D03*
X018943Y028375D03*
X018943Y029375D03*
X019193Y029625D03*
X019443Y029875D03*
X019693Y030125D03*
X019943Y030375D03*
X020193Y030625D03*
X020443Y030875D03*
X020693Y031125D03*
X020943Y031375D03*
X021318Y031375D03*
X021568Y031625D03*
X021568Y032000D03*
X021443Y032375D03*
X020443Y032000D03*
X020193Y031750D03*
X019943Y031500D03*
X019693Y031250D03*
X019443Y031000D03*
X019193Y030750D03*
X018943Y030500D03*
X018693Y030250D03*
X018443Y030000D03*
X018193Y029750D03*
X018193Y029375D03*
X018318Y027500D03*
X017943Y026875D03*
X020193Y026750D03*
X020193Y027250D03*
X020693Y027250D03*
X020693Y026750D03*
X020693Y026250D03*
X020693Y025750D03*
X022193Y025875D03*
X023693Y024500D03*
X024918Y025800D03*
X022193Y028375D03*
X022443Y031125D03*
X023443Y032625D03*
X026318Y028875D03*
X029193Y028638D03*
X030131Y028475D03*
X032193Y029000D03*
X033693Y027625D03*
X033818Y026625D03*
X037643Y027600D03*
X037493Y023875D03*
X036318Y018375D03*
X036443Y018000D03*
X036568Y017250D03*
X037068Y016000D03*
X037568Y016000D03*
X038068Y014000D03*
X036568Y014000D03*
X036318Y011875D03*
X036443Y007375D03*
X035943Y007375D03*
X029943Y012875D03*
X029943Y014375D03*
X030068Y016600D03*
X032443Y017125D03*
X032568Y018125D03*
X026468Y020125D03*
X025893Y019125D03*
X025437Y018631D03*
X024743Y016550D03*
X025193Y020850D03*
X026093Y021500D03*
X026693Y021900D03*
X027943Y025000D03*
X028568Y025000D03*
X029193Y025000D03*
X030693Y031250D03*
X020318Y023125D03*
X019818Y022875D03*
X018943Y023750D03*
X019318Y024125D03*
X012693Y023750D03*
X012193Y023750D03*
X011693Y023750D03*
X011193Y023750D03*
X010693Y023750D03*
X010193Y023750D03*
X010818Y037875D03*
X011318Y037875D03*
X011818Y037875D03*
X012318Y037875D03*
X012818Y037875D03*
X013318Y037875D03*
X013818Y037875D03*
X014318Y037875D03*
X014818Y037875D03*
X015318Y038125D03*
X015318Y038625D03*
X015318Y039125D03*
X015318Y039625D03*
X015318Y040125D03*
X015318Y040625D03*
X015318Y041125D03*
X015318Y041625D03*
X015318Y042125D03*
X015318Y042625D03*
X010568Y042625D03*
X010568Y040375D03*
X010568Y039875D03*
X010568Y039375D03*
X010568Y038875D03*
X010568Y038375D03*
D19*
X018568Y028125D03*
X020193Y025750D03*
X019443Y024625D03*
X020443Y023625D03*
X020943Y020500D03*
X017193Y024375D03*
X016318Y024875D03*
D20*
X015193Y021250D03*
X013568Y021250D03*
X033443Y024950D03*
D21*
X023068Y026875D03*
X022568Y025375D03*
M02*
