%
M48
M72
T01C0.0150
T02C0.0236
T03C0.0315
T04C0.0320
T05C0.0354
T06C0.0394
T07C0.0400
T08C0.0433
T09C0.0720
T10C0.1181
%
T01
X25426Y28651
X28301Y26401
X27676Y25901
X34176Y25901
X37426Y23776
X39676Y23776
X30801Y14026
X30926Y12026
X30801Y11151
X33551Y10651
X34801Y11026
X35176Y9526
X37051Y12151
X37551Y12651
X39676Y12526
X39676Y11901
X39051Y8401
X36301Y31526
X35676Y31526
X31926Y31401
X31926Y32151
X21926Y13776
X21926Y13276
X23551Y11651
X24426Y11651
X27051Y8276
X26676Y7901
X28551Y13276
X28551Y13776
X20051Y11651
X14926Y10151
X13176Y10151
X11176Y12151
X10551Y12526
X9051Y13026
X6926Y11776
X6426Y11776
X5176Y12276
X4801Y13026
X4801Y13526
X8301Y15276
X9051Y15026
X11426Y14901
X12301Y13276
X13676Y12401
X8801Y10401
X8801Y9901
X8301Y8526
X9551Y8151
X12551Y7526
X12426Y7026
X6301Y7151
X6426Y8526
X3926Y8651
X3926Y9151
X3426Y9401
X3426Y7276
X4051Y7026
T02
X24676Y21401
X6476Y16769
X32676Y29401
X36551Y9151
T03
X31219Y24689
X32007Y24689
X32794Y24689
X33582Y24689
X34369Y24689
X35156Y24689
X35944Y24689
X36731Y24689
X37519Y24689
X38306Y24689
X38306Y33350
X37519Y33350
X36731Y33350
X35944Y33350
X35156Y33350
X34369Y33350
X33582Y33350
X32794Y33350
X32007Y33350
X31219Y33350
T04
X8129Y14051
X6229Y14051
T05
X15329Y13826
X15229Y12826
X14329Y12826
X14229Y11826
X15329Y11826
X14229Y13826
X21551Y15276
X22551Y15276
X23551Y15276
X24551Y15276
X25551Y15276
X26551Y15276
X27551Y15276
X28551Y15276
X29551Y15276
X30551Y15276
X31551Y15276
X32551Y15276
X33551Y15276
X34551Y15276
X35551Y15276
X36551Y15276
X37551Y15276
X38551Y15276
X39591Y21185
X39591Y22917
X29176Y26651
X29926Y10526
X28551Y7401
X27551Y7401
X24551Y7401
X23551Y7401
X22551Y7401
X21551Y7401
X32551Y7401
X33551Y7401
X34551Y7401
X38176Y8276
T06
X4051Y23276
X4051Y22276
X5051Y22276
X5051Y23276
X5051Y21276
X4051Y21276
X4051Y20276
X5051Y20276
X5051Y19276
X4051Y19276
X4051Y18276
X5051Y18276
X5051Y17276
X5051Y16276
X4051Y16276
X4051Y17276
T07
X26176Y28151
X26176Y29151
X26176Y30151
T08
X40051Y18526
X38051Y18526
X38051Y17526
X38051Y16526
X40051Y16526
T09
X11400Y20522
X8743Y19522
X11400Y18522
X30203Y18530
X30203Y20530
X32859Y19530
T10
X18926Y23401
X18926Y15651
M30
