G75*
G70*
%OFA0B0*%
%FSLAX24Y24*%
%IPPOS*%
%LPD*%
%AMOC8*
5,1,8,0,0,1.08239X$1,22.5*
%
%ADD10C,0.0120*%
%ADD11C,0.0000*%
D10*
X002176Y005651D02*
X002176Y035179D01*
X041546Y035179D01*
X041546Y005651D01*
X002176Y005651D01*
D11*
X018335Y015651D02*
X018337Y015699D01*
X018343Y015747D01*
X018353Y015794D01*
X018366Y015840D01*
X018384Y015885D01*
X018404Y015929D01*
X018429Y015971D01*
X018457Y016010D01*
X018487Y016047D01*
X018521Y016081D01*
X018558Y016113D01*
X018596Y016142D01*
X018637Y016167D01*
X018680Y016189D01*
X018725Y016207D01*
X018771Y016221D01*
X018818Y016232D01*
X018866Y016239D01*
X018914Y016242D01*
X018962Y016241D01*
X019010Y016236D01*
X019058Y016227D01*
X019104Y016215D01*
X019149Y016198D01*
X019193Y016178D01*
X019235Y016155D01*
X019275Y016128D01*
X019313Y016098D01*
X019348Y016065D01*
X019380Y016029D01*
X019410Y015991D01*
X019436Y015950D01*
X019458Y015907D01*
X019478Y015863D01*
X019493Y015818D01*
X019505Y015771D01*
X019513Y015723D01*
X019517Y015675D01*
X019517Y015627D01*
X019513Y015579D01*
X019505Y015531D01*
X019493Y015484D01*
X019478Y015439D01*
X019458Y015395D01*
X019436Y015352D01*
X019410Y015311D01*
X019380Y015273D01*
X019348Y015237D01*
X019313Y015204D01*
X019275Y015174D01*
X019235Y015147D01*
X019193Y015124D01*
X019149Y015104D01*
X019104Y015087D01*
X019058Y015075D01*
X019010Y015066D01*
X018962Y015061D01*
X018914Y015060D01*
X018866Y015063D01*
X018818Y015070D01*
X018771Y015081D01*
X018725Y015095D01*
X018680Y015113D01*
X018637Y015135D01*
X018596Y015160D01*
X018558Y015189D01*
X018521Y015221D01*
X018487Y015255D01*
X018457Y015292D01*
X018429Y015331D01*
X018404Y015373D01*
X018384Y015417D01*
X018366Y015462D01*
X018353Y015508D01*
X018343Y015555D01*
X018337Y015603D01*
X018335Y015651D01*
X018335Y023401D02*
X018337Y023449D01*
X018343Y023497D01*
X018353Y023544D01*
X018366Y023590D01*
X018384Y023635D01*
X018404Y023679D01*
X018429Y023721D01*
X018457Y023760D01*
X018487Y023797D01*
X018521Y023831D01*
X018558Y023863D01*
X018596Y023892D01*
X018637Y023917D01*
X018680Y023939D01*
X018725Y023957D01*
X018771Y023971D01*
X018818Y023982D01*
X018866Y023989D01*
X018914Y023992D01*
X018962Y023991D01*
X019010Y023986D01*
X019058Y023977D01*
X019104Y023965D01*
X019149Y023948D01*
X019193Y023928D01*
X019235Y023905D01*
X019275Y023878D01*
X019313Y023848D01*
X019348Y023815D01*
X019380Y023779D01*
X019410Y023741D01*
X019436Y023700D01*
X019458Y023657D01*
X019478Y023613D01*
X019493Y023568D01*
X019505Y023521D01*
X019513Y023473D01*
X019517Y023425D01*
X019517Y023377D01*
X019513Y023329D01*
X019505Y023281D01*
X019493Y023234D01*
X019478Y023189D01*
X019458Y023145D01*
X019436Y023102D01*
X019410Y023061D01*
X019380Y023023D01*
X019348Y022987D01*
X019313Y022954D01*
X019275Y022924D01*
X019235Y022897D01*
X019193Y022874D01*
X019149Y022854D01*
X019104Y022837D01*
X019058Y022825D01*
X019010Y022816D01*
X018962Y022811D01*
X018914Y022810D01*
X018866Y022813D01*
X018818Y022820D01*
X018771Y022831D01*
X018725Y022845D01*
X018680Y022863D01*
X018637Y022885D01*
X018596Y022910D01*
X018558Y022939D01*
X018521Y022971D01*
X018487Y023005D01*
X018457Y023042D01*
X018429Y023081D01*
X018404Y023123D01*
X018384Y023167D01*
X018366Y023212D01*
X018353Y023258D01*
X018343Y023305D01*
X018337Y023353D01*
X018335Y023401D01*
X039414Y022917D02*
X039416Y022943D01*
X039422Y022969D01*
X039432Y022994D01*
X039445Y023017D01*
X039461Y023037D01*
X039481Y023055D01*
X039503Y023070D01*
X039526Y023082D01*
X039552Y023090D01*
X039578Y023094D01*
X039604Y023094D01*
X039630Y023090D01*
X039656Y023082D01*
X039680Y023070D01*
X039701Y023055D01*
X039721Y023037D01*
X039737Y023017D01*
X039750Y022994D01*
X039760Y022969D01*
X039766Y022943D01*
X039768Y022917D01*
X039766Y022891D01*
X039760Y022865D01*
X039750Y022840D01*
X039737Y022817D01*
X039721Y022797D01*
X039701Y022779D01*
X039679Y022764D01*
X039656Y022752D01*
X039630Y022744D01*
X039604Y022740D01*
X039578Y022740D01*
X039552Y022744D01*
X039526Y022752D01*
X039502Y022764D01*
X039481Y022779D01*
X039461Y022797D01*
X039445Y022817D01*
X039432Y022840D01*
X039422Y022865D01*
X039416Y022891D01*
X039414Y022917D01*
X039414Y021185D02*
X039416Y021211D01*
X039422Y021237D01*
X039432Y021262D01*
X039445Y021285D01*
X039461Y021305D01*
X039481Y021323D01*
X039503Y021338D01*
X039526Y021350D01*
X039552Y021358D01*
X039578Y021362D01*
X039604Y021362D01*
X039630Y021358D01*
X039656Y021350D01*
X039680Y021338D01*
X039701Y021323D01*
X039721Y021305D01*
X039737Y021285D01*
X039750Y021262D01*
X039760Y021237D01*
X039766Y021211D01*
X039768Y021185D01*
X039766Y021159D01*
X039760Y021133D01*
X039750Y021108D01*
X039737Y021085D01*
X039721Y021065D01*
X039701Y021047D01*
X039679Y021032D01*
X039656Y021020D01*
X039630Y021012D01*
X039604Y021008D01*
X039578Y021008D01*
X039552Y021012D01*
X039526Y021020D01*
X039502Y021032D01*
X039481Y021047D01*
X039461Y021065D01*
X039445Y021085D01*
X039432Y021108D01*
X039422Y021133D01*
X039416Y021159D01*
X039414Y021185D01*
M02*
