%
M48
M72
T01C0.0130
T02C0.0150
T03C0.0236
T04C0.0354
T05C0.0394
T06C0.0400
T07C0.0402
T08C0.0730
T09C0.1181
%
T01
X16945Y5388
X17912Y6799
X16379Y3042
T02
X6424Y9635
X7174Y10060
X9606Y7843
X11337Y9573
X12213Y9944
X12588Y9944
X12963Y9944
X12950Y10681
X13325Y10681
X13700Y10681
X15119Y8842
X15144Y7842
X16663Y6747
X15950Y5094
X16125Y4309
X17578Y4384
X5600Y5756
T03
X2400Y16797
X2400Y16297
X5425Y14156
X6415Y14306
X8525Y14797
X8525Y15297
X8525Y15797
X8150Y16547
X4900Y16797
X8650Y12922
X9650Y12922
X10650Y12922
X11638Y12909
X9613Y11356
X9000Y11406
X6109Y8526
X14238Y11756
X14350Y12985
X16050Y11281
X19590Y8832
X17038Y6919
X18900Y6744
X20499Y6115
X21659Y3901
X19100Y2815
X14770Y6069
X23610Y12724
T04
X6038Y6558
X7219Y6558
X2450Y13602
X2450Y15335
T05
X8150Y12256
X9150Y12256
X10150Y12256
X11150Y12256
X12150Y12256
X12150Y13256
X11150Y13256
X10150Y13256
X9150Y13256
X8150Y13256
X22104Y3273
T06
X6850Y1831
X5850Y1831
X4850Y1831
X4850Y831
X5850Y831
X6850Y831
X7850Y831
X8850Y831
X9850Y831
X10850Y831
X11850Y831
X12850Y831
X14100Y831
X15100Y831
X16100Y831
X17100Y831
X18100Y831
X19100Y831
X20100Y831
X21100Y831
X21100Y1831
X20100Y1831
X19100Y1831
X18100Y1831
X17100Y1831
X16100Y1831
X15100Y1831
X14100Y1831
X12850Y1831
X11850Y1831
X10850Y1831
X9850Y1831
X8850Y1831
X7850Y1831
X12050Y15444
X13050Y15444
X14050Y15444
X15050Y15444
X16050Y15444
X17050Y15444
X18050Y15444
X19050Y15444
X20050Y15444
X21050Y15444
X22050Y15444
X22050Y16444
X21050Y16444
X20050Y16444
X19050Y16444
X18050Y16444
X17050Y16444
X16050Y16444
X15050Y16444
X14050Y16444
X13050Y16444
X12050Y16444
X22101Y14110
X23100Y14106
X24100Y14106
X24100Y13106
X23100Y13106
X23100Y12106
X24100Y12106
X24100Y11106
X23100Y11106
X23100Y10106
X24100Y10106
X24100Y9106
X23100Y9106
X23100Y8106
X24100Y8106
X24100Y7106
X23100Y7106
X23100Y6106
X24100Y6106
X24100Y5106
X23100Y5106
X23100Y4106
X24100Y4106
T07
X4454Y10815
X5635Y10815
X5635Y9634
X4454Y9634
T08
X3074Y7535
X3074Y2335
T09
X2753Y10225
X1599Y1160
X23224Y1660
X23724Y15910
M30
