G75*
%MOIN*%
%OFA0B0*%
%FSLAX25Y25*%
%IPPOS*%
%LPD*%
%AMOC8*
5,1,8,0,0,1.08239X$1,22.5*
%
%ADD10OC8,0.04724*%
%ADD11C,0.27559*%
%ADD12R,0.03937X0.04331*%
%ADD13R,0.04331X0.03937*%
%ADD14C,0.05512*%
%ADD15OC8,0.05512*%
%ADD16C,0.01000*%
%ADD17C,0.02700*%
%ADD18C,0.04252*%
%ADD19C,0.02400*%
%ADD20C,0.01200*%
%ADD21C,0.02481*%
D10*
X0118500Y0015000D03*
X0128500Y0015000D03*
X0138500Y0015000D03*
X0248500Y0015000D03*
X0258500Y0015000D03*
X0268500Y0015000D03*
X0268500Y0255000D03*
X0258500Y0255000D03*
X0248500Y0255000D03*
X0238500Y0255000D03*
X0228500Y0255000D03*
X0218500Y0255000D03*
X0208500Y0255000D03*
X0198500Y0255000D03*
X0188500Y0255000D03*
X0178500Y0255000D03*
X0168500Y0255000D03*
X0158500Y0255000D03*
X0148500Y0255000D03*
X0138500Y0255000D03*
X0128500Y0255000D03*
X0118500Y0255000D03*
D11*
X0071000Y0019375D03*
X0309750Y0019375D03*
D12*
X0302112Y0267613D03*
X0297388Y0267613D03*
X0280862Y0267613D03*
X0276138Y0267613D03*
X0259612Y0267613D03*
X0254888Y0267613D03*
X0238362Y0267613D03*
X0233638Y0267613D03*
X0217112Y0267613D03*
X0212388Y0267613D03*
X0195862Y0267613D03*
X0191138Y0267613D03*
X0174612Y0267613D03*
X0169888Y0267613D03*
X0169888Y0278637D03*
X0174612Y0278637D03*
X0191138Y0278637D03*
X0195862Y0278637D03*
X0212388Y0278637D03*
X0217112Y0278637D03*
X0233638Y0278637D03*
X0238362Y0278637D03*
X0254888Y0278637D03*
X0259612Y0278637D03*
X0276138Y0278637D03*
X0280862Y0278637D03*
X0297388Y0278637D03*
X0302112Y0278637D03*
X0318638Y0278637D03*
X0323362Y0278637D03*
X0323362Y0267613D03*
X0318638Y0267613D03*
X0339888Y0267613D03*
X0344612Y0267613D03*
X0344612Y0278637D03*
X0339888Y0278637D03*
X0153362Y0278637D03*
X0148638Y0278637D03*
X0148638Y0267613D03*
X0153362Y0267613D03*
X0132112Y0267613D03*
X0127388Y0267613D03*
X0127388Y0278637D03*
X0132112Y0278637D03*
X0110862Y0278637D03*
X0106138Y0278637D03*
X0106138Y0267613D03*
X0110862Y0267613D03*
X0089612Y0267613D03*
X0084888Y0267613D03*
X0084888Y0278637D03*
X0089612Y0278637D03*
X0068362Y0278637D03*
X0063638Y0278637D03*
X0063638Y0267613D03*
X0068362Y0267613D03*
X0047112Y0267613D03*
X0042388Y0267613D03*
X0042388Y0278637D03*
X0047112Y0278637D03*
D13*
X0022762Y0246112D03*
X0022762Y0241388D03*
X0011738Y0241388D03*
X0011738Y0246112D03*
X0011738Y0224862D03*
X0011738Y0220138D03*
X0022762Y0220138D03*
X0022762Y0224862D03*
X0022762Y0203612D03*
X0022762Y0198888D03*
X0011738Y0198888D03*
X0011738Y0203612D03*
X0011738Y0182362D03*
X0011738Y0177638D03*
X0022762Y0177638D03*
X0022762Y0182362D03*
X0022762Y0161112D03*
X0022762Y0156388D03*
X0011738Y0156388D03*
X0011738Y0161112D03*
X0364238Y0161112D03*
X0364238Y0156388D03*
X0375262Y0156388D03*
X0375262Y0161112D03*
X0375262Y0177638D03*
X0375262Y0182362D03*
X0364238Y0182362D03*
X0364238Y0177638D03*
X0364238Y0198888D03*
X0364238Y0203612D03*
X0375262Y0203612D03*
X0375262Y0198888D03*
X0375262Y0220138D03*
X0375262Y0224862D03*
X0364238Y0224862D03*
X0364238Y0220138D03*
X0364238Y0241388D03*
X0364238Y0246112D03*
X0375262Y0246112D03*
X0375262Y0241388D03*
D14*
X0021000Y0056250D03*
D15*
X0031000Y0056250D03*
X0031000Y0066250D03*
X0021000Y0066250D03*
X0021000Y0076250D03*
X0031000Y0076250D03*
X0031000Y0086250D03*
X0021000Y0086250D03*
X0021000Y0096250D03*
X0031000Y0096250D03*
X0031000Y0106250D03*
X0021000Y0106250D03*
X0021000Y0116250D03*
X0031000Y0116250D03*
X0031000Y0126250D03*
X0021000Y0126250D03*
X0021000Y0136250D03*
X0031000Y0136250D03*
X0031000Y0146250D03*
X0021000Y0146250D03*
X0357875Y0116875D03*
X0367875Y0116875D03*
X0367875Y0106875D03*
X0357875Y0106875D03*
X0357875Y0096875D03*
X0367875Y0096875D03*
X0367875Y0086875D03*
X0357875Y0086875D03*
X0357875Y0076875D03*
X0367875Y0076875D03*
X0367875Y0066875D03*
X0357875Y0066875D03*
X0357875Y0056875D03*
X0367875Y0056875D03*
D16*
X0034413Y0007725D02*
X0031522Y0006056D01*
X0064329Y0006056D01*
X0061870Y0007476D01*
X0059101Y0010245D01*
X0057143Y0013635D01*
X0056130Y0017417D01*
X0056130Y0021333D01*
X0057143Y0025115D01*
X0059101Y0028505D01*
X0061870Y0031274D01*
X0065260Y0033232D01*
X0069042Y0034245D01*
X0072958Y0034245D01*
X0076740Y0033232D01*
X0080130Y0031274D01*
X0082899Y0028505D01*
X0084857Y0025115D01*
X0085870Y0021333D01*
X0085870Y0017417D01*
X0084857Y0013635D01*
X0082899Y0010245D01*
X0080130Y0007476D01*
X0077671Y0006056D01*
X0303079Y0006056D01*
X0300620Y0007476D01*
X0297851Y0010245D01*
X0295893Y0013635D01*
X0294880Y0017417D01*
X0294880Y0021333D01*
X0295893Y0025115D01*
X0297851Y0028505D01*
X0300620Y0031274D01*
X0304010Y0033232D01*
X0307792Y0034245D01*
X0311708Y0034245D01*
X0315490Y0033232D01*
X0318880Y0031274D01*
X0321649Y0028505D01*
X0323607Y0025115D01*
X0324620Y0021333D01*
X0324620Y0017417D01*
X0323607Y0013635D01*
X0321649Y0010245D01*
X0318880Y0007476D01*
X0316421Y0006056D01*
X0355337Y0006056D01*
X0354625Y0006336D01*
X0354625Y0006336D01*
X0350780Y0009402D01*
X0350780Y0009402D01*
X0350780Y0009402D01*
X0348009Y0013466D01*
X0348009Y0013466D01*
X0346559Y0018166D01*
X0346559Y0023084D01*
X0346559Y0023084D01*
X0348009Y0027784D01*
X0350780Y0031848D01*
X0350780Y0031848D01*
X0354625Y0034914D01*
X0359203Y0036711D01*
X0359203Y0036711D01*
X0364108Y0037079D01*
X0364108Y0037079D01*
X0368903Y0035984D01*
X0368903Y0035984D01*
X0373163Y0033525D01*
X0373163Y0033525D01*
X0376508Y0029920D01*
X0376508Y0029920D01*
X0377345Y0028181D01*
X0377345Y0153329D01*
X0372645Y0153329D01*
X0372006Y0153968D01*
X0372006Y0155184D01*
X0370925Y0155184D01*
X0369934Y0156175D01*
X0368684Y0157425D01*
X0368684Y0164489D01*
X0368306Y0164868D01*
X0367934Y0165765D01*
X0367934Y0166735D01*
X0368306Y0167632D01*
X0368993Y0168319D01*
X0369890Y0168691D01*
X0370860Y0168691D01*
X0371757Y0168319D01*
X0372444Y0167632D01*
X0372816Y0166735D01*
X0372816Y0165765D01*
X0372444Y0164868D01*
X0372066Y0164489D01*
X0372066Y0163592D01*
X0372645Y0164171D01*
X0373059Y0164171D01*
X0373059Y0167614D01*
X0372681Y0167993D01*
X0372309Y0168890D01*
X0372309Y0169860D01*
X0372681Y0170757D01*
X0373368Y0171444D01*
X0374265Y0171816D01*
X0375235Y0171816D01*
X0376132Y0171444D01*
X0376819Y0170757D01*
X0377191Y0169860D01*
X0377191Y0168890D01*
X0376819Y0167993D01*
X0376441Y0167614D01*
X0376441Y0164171D01*
X0377345Y0164171D01*
X0377345Y0174579D01*
X0372673Y0174579D01*
X0372816Y0174235D01*
X0372816Y0173265D01*
X0372444Y0172368D01*
X0371757Y0171681D01*
X0370860Y0171309D01*
X0370325Y0171309D01*
X0365929Y0166913D01*
X0365929Y0164171D01*
X0366855Y0164171D01*
X0367494Y0163532D01*
X0367494Y0153968D01*
X0366855Y0153329D01*
X0365929Y0153329D01*
X0365929Y0122538D01*
X0364938Y0121548D01*
X0361721Y0118331D01*
X0361721Y0115282D01*
X0359468Y0113029D01*
X0356282Y0113029D01*
X0354029Y0115282D01*
X0354029Y0118468D01*
X0356282Y0120721D01*
X0359331Y0120721D01*
X0362548Y0123938D01*
X0362548Y0124493D01*
X0362444Y0124243D01*
X0361757Y0123556D01*
X0360860Y0123184D01*
X0359890Y0123184D01*
X0358993Y0123556D01*
X0358306Y0124243D01*
X0357934Y0125140D01*
X0357934Y0125675D01*
X0337175Y0146434D01*
X0336184Y0147425D01*
X0336184Y0176989D01*
X0335806Y0177368D01*
X0335434Y0178265D01*
X0335434Y0179235D01*
X0335806Y0180132D01*
X0336493Y0180819D01*
X0337390Y0181191D01*
X0338360Y0181191D01*
X0339257Y0180819D01*
X0339944Y0180132D01*
X0340316Y0179235D01*
X0340316Y0178265D01*
X0339944Y0177368D01*
X0339566Y0176989D01*
X0339566Y0148825D01*
X0342434Y0145956D01*
X0342434Y0176989D01*
X0342056Y0177368D01*
X0341684Y0178265D01*
X0341684Y0179235D01*
X0342056Y0180132D01*
X0342743Y0180819D01*
X0343640Y0181191D01*
X0344610Y0181191D01*
X0345507Y0180819D01*
X0346194Y0180132D01*
X0346566Y0179235D01*
X0346566Y0178265D01*
X0346194Y0177368D01*
X0345816Y0176989D01*
X0345816Y0146325D01*
X0360325Y0131816D01*
X0360860Y0131816D01*
X0361757Y0131444D01*
X0362444Y0130757D01*
X0362548Y0130507D01*
X0362548Y0153329D01*
X0361621Y0153329D01*
X0360982Y0153968D01*
X0360982Y0154097D01*
X0359913Y0154097D01*
X0358801Y0155209D01*
X0358801Y0155209D01*
X0357459Y0156551D01*
X0357459Y0174411D01*
X0357197Y0174148D01*
X0356015Y0173658D01*
X0354735Y0173658D01*
X0353553Y0174148D01*
X0352648Y0175053D01*
X0352158Y0176235D01*
X0352158Y0177515D01*
X0352648Y0178697D01*
X0353553Y0179602D01*
X0354735Y0180092D01*
X0356015Y0180092D01*
X0357197Y0179602D01*
X0357459Y0179339D01*
X0357459Y0198809D01*
X0356765Y0198809D01*
X0355868Y0199181D01*
X0355181Y0199868D01*
X0354809Y0200765D01*
X0354809Y0201735D01*
X0355181Y0202632D01*
X0355868Y0203319D01*
X0356765Y0203691D01*
X0357459Y0203691D01*
X0357459Y0244051D01*
X0340676Y0260834D01*
X0307837Y0260834D01*
X0308231Y0260441D01*
X0337325Y0260441D01*
X0351441Y0246325D01*
X0351441Y0197856D01*
X0352081Y0197216D01*
X0352081Y0195284D01*
X0350716Y0193919D01*
X0348784Y0193919D01*
X0347534Y0195169D01*
X0345659Y0195169D01*
X0345062Y0195766D01*
X0343841Y0194544D01*
X0341909Y0194544D01*
X0340544Y0195909D01*
X0340544Y0197841D01*
X0341184Y0198481D01*
X0341184Y0198825D01*
X0344309Y0201950D01*
X0344309Y0242425D01*
X0333425Y0253309D01*
X0310450Y0253309D01*
X0310191Y0253050D01*
X0309200Y0252059D01*
X0303231Y0252059D01*
X0302591Y0251419D01*
X0300659Y0251419D01*
X0300019Y0252059D01*
X0280450Y0252059D01*
X0274566Y0246175D01*
X0274566Y0246175D01*
X0273575Y0245184D01*
X0214200Y0245184D01*
X0206441Y0237425D01*
X0205450Y0236434D01*
X0202950Y0236434D01*
X0202325Y0235809D01*
X0199200Y0235809D01*
X0198575Y0235184D01*
X0195731Y0235184D01*
X0195091Y0234544D01*
X0193159Y0234544D01*
X0191794Y0235909D01*
X0191794Y0236434D01*
X0185925Y0236434D01*
X0184934Y0237425D01*
X0183425Y0238934D01*
X0133575Y0238934D01*
X0133316Y0238675D01*
X0132325Y0237684D01*
X0131981Y0237684D01*
X0131341Y0237044D01*
X0129409Y0237044D01*
X0128044Y0238409D01*
X0128044Y0239544D01*
X0126909Y0239544D01*
X0125544Y0240909D01*
X0125544Y0242841D01*
X0126909Y0244206D01*
X0127419Y0244206D01*
X0127419Y0245341D01*
X0127888Y0245809D01*
X0126700Y0245809D01*
X0124825Y0243934D01*
X0122325Y0243934D01*
X0085191Y0206800D01*
X0085191Y0163011D01*
X0085569Y0162632D01*
X0085941Y0161735D01*
X0085941Y0160765D01*
X0085569Y0159868D01*
X0084882Y0159181D01*
X0083985Y0158809D01*
X0083015Y0158809D01*
X0082118Y0159181D01*
X0081431Y0159868D01*
X0081059Y0160765D01*
X0081059Y0161735D01*
X0081200Y0162075D01*
X0080860Y0161934D01*
X0079890Y0161934D01*
X0078993Y0162306D01*
X0078763Y0162535D01*
X0078694Y0162368D01*
X0078007Y0161681D01*
X0077110Y0161309D01*
X0076483Y0161309D01*
X0076566Y0161110D01*
X0076566Y0160140D01*
X0076194Y0159243D01*
X0075517Y0158566D01*
X0098425Y0158566D01*
X0105300Y0165441D01*
X0109200Y0165441D01*
X0110191Y0164450D01*
X0110191Y0164450D01*
X0111575Y0163066D01*
X0112110Y0163066D01*
X0113007Y0162694D01*
X0113694Y0162007D01*
X0114066Y0161110D01*
X0114066Y0160140D01*
X0113694Y0159243D01*
X0113007Y0158556D01*
X0112110Y0158184D01*
X0111140Y0158184D01*
X0110243Y0158556D01*
X0109750Y0159049D01*
X0109257Y0158556D01*
X0108360Y0158184D01*
X0107390Y0158184D01*
X0106493Y0158556D01*
X0106407Y0158641D01*
X0102066Y0154300D01*
X0101075Y0153309D01*
X0064892Y0153309D01*
X0064944Y0153257D01*
X0065316Y0152360D01*
X0065316Y0151390D01*
X0064944Y0150493D01*
X0064257Y0149806D01*
X0063360Y0149434D01*
X0062390Y0149434D01*
X0061493Y0149806D01*
X0060806Y0150493D01*
X0060434Y0151390D01*
X0060434Y0151434D01*
X0041550Y0151434D01*
X0038425Y0154559D01*
X0037434Y0155550D01*
X0037434Y0202044D01*
X0036909Y0202044D01*
X0035544Y0203409D01*
X0035544Y0205341D01*
X0036184Y0205981D01*
X0036184Y0207575D01*
X0037175Y0208566D01*
X0038059Y0209450D01*
X0038059Y0243200D01*
X0039050Y0244191D01*
X0047175Y0252316D01*
X0087175Y0252316D01*
X0088425Y0253566D01*
X0088769Y0253566D01*
X0089409Y0254206D01*
X0091341Y0254206D01*
X0092706Y0252841D01*
X0092706Y0251706D01*
X0093841Y0251706D01*
X0095206Y0250341D01*
X0095206Y0248409D01*
X0093841Y0247044D01*
X0093331Y0247044D01*
X0093331Y0245909D01*
X0091966Y0244544D01*
X0090034Y0244544D01*
X0089394Y0245184D01*
X0051075Y0245184D01*
X0045191Y0239300D01*
X0045191Y0205981D01*
X0045831Y0205341D01*
X0045831Y0203409D01*
X0044566Y0202144D01*
X0044566Y0159450D01*
X0045450Y0158566D01*
X0072733Y0158566D01*
X0072056Y0159243D01*
X0071684Y0160140D01*
X0071684Y0160142D01*
X0071485Y0160059D01*
X0070515Y0160059D01*
X0069618Y0160431D01*
X0068931Y0161118D01*
X0068559Y0162015D01*
X0068559Y0162985D01*
X0068931Y0163882D01*
X0069309Y0164261D01*
X0069309Y0165700D01*
X0074309Y0170700D01*
X0074309Y0213200D01*
X0075300Y0214191D01*
X0115047Y0253938D01*
X0115047Y0256430D01*
X0117070Y0258453D01*
X0119930Y0258453D01*
X0121953Y0256430D01*
X0121953Y0255219D01*
X0122434Y0255700D01*
X0123425Y0256691D01*
X0125308Y0256691D01*
X0127070Y0258453D01*
X0129930Y0258453D01*
X0131809Y0256573D01*
X0131809Y0257575D01*
X0132800Y0258566D01*
X0134309Y0260075D01*
X0135069Y0260834D01*
X0109242Y0260834D01*
X0109319Y0260757D01*
X0109691Y0259860D01*
X0109691Y0258890D01*
X0109319Y0257993D01*
X0108632Y0257306D01*
X0107735Y0256934D01*
X0106765Y0256934D01*
X0105868Y0257306D01*
X0105489Y0257684D01*
X0095261Y0257684D01*
X0094882Y0257306D01*
X0093985Y0256934D01*
X0093015Y0256934D01*
X0092118Y0257306D01*
X0091431Y0257993D01*
X0091059Y0258890D01*
X0091059Y0259860D01*
X0091431Y0260757D01*
X0091508Y0260834D01*
X0089691Y0260834D01*
X0089691Y0260140D01*
X0089319Y0259243D01*
X0088632Y0258556D01*
X0087735Y0258184D01*
X0086765Y0258184D01*
X0085868Y0258556D01*
X0085181Y0259243D01*
X0084809Y0260140D01*
X0084809Y0260834D01*
X0048199Y0260834D01*
X0045166Y0257801D01*
X0045166Y0257801D01*
X0043824Y0256459D01*
X0041949Y0256459D01*
X0029541Y0244051D01*
X0029541Y0203691D01*
X0030235Y0203691D01*
X0031132Y0203319D01*
X0031819Y0202632D01*
X0032191Y0201735D01*
X0032191Y0200765D01*
X0031819Y0199868D01*
X0031132Y0199181D01*
X0030235Y0198809D01*
X0029541Y0198809D01*
X0029541Y0161551D01*
X0028199Y0160209D01*
X0026811Y0158822D01*
X0026018Y0158822D01*
X0026018Y0153968D01*
X0025379Y0153329D01*
X0024873Y0153329D01*
X0024944Y0153257D01*
X0025316Y0152360D01*
X0025316Y0151390D01*
X0024944Y0150493D01*
X0024257Y0149806D01*
X0023360Y0149434D01*
X0023255Y0149434D01*
X0024846Y0147843D01*
X0024846Y0144657D01*
X0022593Y0142404D01*
X0019407Y0142404D01*
X0017154Y0144657D01*
X0017154Y0147289D01*
X0015791Y0145926D01*
X0015791Y0064699D01*
X0020393Y0060096D01*
X0021765Y0060096D01*
X0023179Y0059511D01*
X0024261Y0058429D01*
X0024846Y0057015D01*
X0024846Y0055485D01*
X0024261Y0054071D01*
X0023179Y0052989D01*
X0021765Y0052404D01*
X0020235Y0052404D01*
X0018821Y0052989D01*
X0017739Y0054071D01*
X0017154Y0055485D01*
X0017154Y0056857D01*
X0011209Y0062801D01*
X0011209Y0147824D01*
X0012551Y0149166D01*
X0016209Y0152824D01*
X0016209Y0160324D01*
X0017551Y0161666D01*
X0019288Y0163403D01*
X0019506Y0163403D01*
X0019506Y0163532D01*
X0020145Y0164171D01*
X0024959Y0164171D01*
X0024959Y0174579D01*
X0022345Y0174579D01*
X0017816Y0170050D01*
X0017816Y0169515D01*
X0017444Y0168618D01*
X0016757Y0167931D01*
X0015860Y0167559D01*
X0014890Y0167559D01*
X0013993Y0167931D01*
X0013306Y0168618D01*
X0012934Y0169515D01*
X0012934Y0170485D01*
X0013306Y0171382D01*
X0013993Y0172069D01*
X0014890Y0172441D01*
X0015425Y0172441D01*
X0019506Y0176522D01*
X0019506Y0184782D01*
X0020145Y0185421D01*
X0024959Y0185421D01*
X0024959Y0195829D01*
X0020145Y0195829D01*
X0019506Y0196468D01*
X0019506Y0196525D01*
X0018985Y0196309D01*
X0018015Y0196309D01*
X0017118Y0196681D01*
X0016431Y0197368D01*
X0016059Y0198265D01*
X0016059Y0199235D01*
X0016431Y0200132D01*
X0017118Y0200819D01*
X0018015Y0201191D01*
X0018985Y0201191D01*
X0019506Y0200975D01*
X0019506Y0206032D01*
X0019908Y0206434D01*
X0019011Y0206434D01*
X0018632Y0206056D01*
X0017735Y0205684D01*
X0016765Y0205684D01*
X0015868Y0206056D01*
X0015181Y0206743D01*
X0014809Y0207640D01*
X0014809Y0208610D01*
X0015181Y0209507D01*
X0015868Y0210194D01*
X0016765Y0210566D01*
X0017735Y0210566D01*
X0018632Y0210194D01*
X0019011Y0209816D01*
X0020300Y0209816D01*
X0021184Y0210700D01*
X0021184Y0217079D01*
X0020145Y0217079D01*
X0019506Y0217718D01*
X0019506Y0227282D01*
X0020145Y0227921D01*
X0024959Y0227921D01*
X0024959Y0230530D01*
X0024944Y0230493D01*
X0024257Y0229806D01*
X0023360Y0229434D01*
X0022390Y0229434D01*
X0021493Y0229806D01*
X0020806Y0230493D01*
X0020434Y0231390D01*
X0020434Y0232360D01*
X0020806Y0233257D01*
X0021184Y0233636D01*
X0021184Y0238329D01*
X0020145Y0238329D01*
X0019506Y0238968D01*
X0019506Y0248532D01*
X0020145Y0249171D01*
X0025379Y0249171D01*
X0026018Y0248532D01*
X0026018Y0248403D01*
X0027087Y0248403D01*
X0027250Y0248239D01*
X0029827Y0250816D01*
X0025358Y0249796D01*
X0020453Y0250164D01*
X0015875Y0251961D01*
X0015875Y0251961D01*
X0012030Y0255027D01*
X0012030Y0255027D01*
X0012030Y0255027D01*
X0009556Y0258655D01*
X0009556Y0249171D01*
X0014355Y0249171D01*
X0014994Y0248532D01*
X0014994Y0248475D01*
X0015515Y0248691D01*
X0016485Y0248691D01*
X0017382Y0248319D01*
X0018069Y0247632D01*
X0018441Y0246735D01*
X0018441Y0245765D01*
X0018069Y0244868D01*
X0017382Y0244181D01*
X0016485Y0243809D01*
X0015515Y0243809D01*
X0014994Y0244025D01*
X0014994Y0243691D01*
X0015860Y0243691D01*
X0016757Y0243319D01*
X0017444Y0242632D01*
X0017816Y0241735D01*
X0017816Y0240765D01*
X0017444Y0239868D01*
X0016757Y0239181D01*
X0015860Y0238809D01*
X0014890Y0238809D01*
X0014852Y0238825D01*
X0014355Y0238329D01*
X0009556Y0238329D01*
X0009556Y0227921D01*
X0014355Y0227921D01*
X0014994Y0227282D01*
X0014994Y0226816D01*
X0015860Y0226816D01*
X0016757Y0226444D01*
X0017444Y0225757D01*
X0017816Y0224860D01*
X0017816Y0223890D01*
X0017444Y0222993D01*
X0016757Y0222306D01*
X0016471Y0222187D01*
X0016757Y0222069D01*
X0017444Y0221382D01*
X0017816Y0220485D01*
X0017816Y0219515D01*
X0017444Y0218618D01*
X0016757Y0217931D01*
X0015860Y0217559D01*
X0014890Y0217559D01*
X0014852Y0217575D01*
X0014355Y0217079D01*
X0009556Y0217079D01*
X0009556Y0206671D01*
X0010252Y0206671D01*
X0010181Y0206743D01*
X0009809Y0207640D01*
X0009809Y0208610D01*
X0010181Y0209507D01*
X0010868Y0210194D01*
X0011765Y0210566D01*
X0012735Y0210566D01*
X0013632Y0210194D01*
X0014319Y0209507D01*
X0014691Y0208610D01*
X0014691Y0207640D01*
X0014319Y0206743D01*
X0014248Y0206671D01*
X0014355Y0206671D01*
X0014994Y0206032D01*
X0014994Y0196468D01*
X0014355Y0195829D01*
X0013623Y0195829D01*
X0013694Y0195757D01*
X0014066Y0194860D01*
X0014066Y0193890D01*
X0013694Y0192993D01*
X0013007Y0192306D01*
X0012110Y0191934D01*
X0011140Y0191934D01*
X0010243Y0192306D01*
X0009556Y0192992D01*
X0009556Y0188258D01*
X0009618Y0188319D01*
X0010515Y0188691D01*
X0011485Y0188691D01*
X0012382Y0188319D01*
X0013069Y0187632D01*
X0013441Y0186735D01*
X0013441Y0185765D01*
X0013298Y0185421D01*
X0014355Y0185421D01*
X0014994Y0184782D01*
X0014994Y0175218D01*
X0014355Y0174579D01*
X0013298Y0174579D01*
X0013441Y0174235D01*
X0013441Y0173265D01*
X0013069Y0172368D01*
X0012382Y0171681D01*
X0011485Y0171309D01*
X0010515Y0171309D01*
X0009618Y0171681D01*
X0009556Y0171742D01*
X0009556Y0164171D01*
X0012780Y0164171D01*
X0012800Y0164191D01*
X0013559Y0164191D01*
X0013559Y0164235D01*
X0013931Y0165132D01*
X0014618Y0165819D01*
X0015515Y0166191D01*
X0016485Y0166191D01*
X0017382Y0165819D01*
X0018069Y0165132D01*
X0018441Y0164235D01*
X0018441Y0163265D01*
X0018069Y0162368D01*
X0017382Y0161681D01*
X0016485Y0161309D01*
X0015950Y0161309D01*
X0015450Y0160809D01*
X0014994Y0160809D01*
X0014994Y0153968D01*
X0014355Y0153329D01*
X0013623Y0153329D01*
X0013694Y0153257D01*
X0014066Y0152360D01*
X0014066Y0151390D01*
X0013694Y0150493D01*
X0013007Y0149806D01*
X0012110Y0149434D01*
X0011140Y0149434D01*
X0010243Y0149806D01*
X0009556Y0150492D01*
X0009556Y0028220D01*
X0012030Y0031848D01*
X0012030Y0031848D01*
X0015875Y0034914D01*
X0015875Y0034914D01*
X0020453Y0036711D01*
X0020453Y0036711D01*
X0025358Y0037079D01*
X0025358Y0037079D01*
X0030153Y0035984D01*
X0030153Y0035984D01*
X0034413Y0033525D01*
X0034413Y0033525D01*
X0037758Y0029920D01*
X0037758Y0029920D01*
X0039892Y0025488D01*
X0039892Y0025488D01*
X0040625Y0020625D01*
X0039892Y0015762D01*
X0039892Y0015762D01*
X0037758Y0011330D01*
X0037758Y0011330D01*
X0034413Y0007725D01*
X0034413Y0007725D01*
X0034413Y0007725D01*
X0033799Y0007371D02*
X0062052Y0007371D01*
X0060976Y0008369D02*
X0035010Y0008369D01*
X0035937Y0009368D02*
X0059978Y0009368D01*
X0059031Y0010366D02*
X0036863Y0010366D01*
X0037774Y0011365D02*
X0058454Y0011365D01*
X0057878Y0012363D02*
X0038255Y0012363D01*
X0038736Y0013362D02*
X0057301Y0013362D01*
X0056949Y0014360D02*
X0039217Y0014360D01*
X0039698Y0015359D02*
X0056682Y0015359D01*
X0056414Y0016357D02*
X0039982Y0016357D01*
X0040132Y0017356D02*
X0056146Y0017356D01*
X0056130Y0018354D02*
X0040283Y0018354D01*
X0040433Y0019353D02*
X0056130Y0019353D01*
X0056130Y0020351D02*
X0040584Y0020351D01*
X0040516Y0021350D02*
X0056134Y0021350D01*
X0056402Y0022348D02*
X0040365Y0022348D01*
X0040215Y0023347D02*
X0056670Y0023347D01*
X0056937Y0024345D02*
X0040064Y0024345D01*
X0039914Y0025344D02*
X0057276Y0025344D01*
X0057852Y0026342D02*
X0039481Y0026342D01*
X0039000Y0027341D02*
X0058429Y0027341D01*
X0059005Y0028339D02*
X0038519Y0028339D01*
X0038038Y0029338D02*
X0059933Y0029338D01*
X0060932Y0030336D02*
X0037371Y0030336D01*
X0036445Y0031335D02*
X0061975Y0031335D01*
X0063704Y0032333D02*
X0035518Y0032333D01*
X0034592Y0033332D02*
X0065634Y0033332D01*
X0076366Y0033332D02*
X0087435Y0033332D01*
X0086437Y0034330D02*
X0033018Y0034330D01*
X0031289Y0035329D02*
X0085438Y0035329D01*
X0084440Y0036327D02*
X0028651Y0036327D01*
X0019475Y0036327D02*
X0009556Y0036327D01*
X0009556Y0035329D02*
X0016931Y0035329D01*
X0015143Y0034330D02*
X0009556Y0034330D01*
X0009556Y0033332D02*
X0013891Y0033332D01*
X0012638Y0032333D02*
X0009556Y0032333D01*
X0009556Y0031335D02*
X0011680Y0031335D01*
X0012030Y0031848D02*
X0012030Y0031848D01*
X0010999Y0030336D02*
X0009556Y0030336D01*
X0009556Y0029338D02*
X0010318Y0029338D01*
X0009638Y0028339D02*
X0009556Y0028339D01*
X0009556Y0037326D02*
X0083441Y0037326D01*
X0082443Y0038324D02*
X0009556Y0038324D01*
X0009556Y0039323D02*
X0081444Y0039323D01*
X0080446Y0040321D02*
X0009556Y0040321D01*
X0009556Y0041320D02*
X0079447Y0041320D01*
X0078449Y0042318D02*
X0009556Y0042318D01*
X0009556Y0043317D02*
X0077450Y0043317D01*
X0076452Y0044315D02*
X0009556Y0044315D01*
X0009556Y0045314D02*
X0074144Y0045314D01*
X0074178Y0045280D02*
X0075360Y0044790D01*
X0075977Y0044790D01*
X0102341Y0018426D01*
X0103683Y0017084D01*
X0115702Y0017084D01*
X0115047Y0016430D01*
X0115047Y0013570D01*
X0117070Y0011547D01*
X0119930Y0011547D01*
X0121953Y0013570D01*
X0121953Y0016430D01*
X0121298Y0017084D01*
X0125702Y0017084D01*
X0125047Y0016430D01*
X0125047Y0013570D01*
X0127070Y0011547D01*
X0128713Y0011547D01*
X0130584Y0009676D01*
X0131926Y0008334D01*
X0245074Y0008334D01*
X0246416Y0009676D01*
X0248287Y0011547D01*
X0249930Y0011547D01*
X0251953Y0013570D01*
X0251953Y0016430D01*
X0251298Y0017084D01*
X0253176Y0017084D01*
X0255047Y0015213D01*
X0255047Y0013570D01*
X0257070Y0011547D01*
X0259930Y0011547D01*
X0261953Y0013570D01*
X0261953Y0016430D01*
X0259930Y0018453D01*
X0258287Y0018453D01*
X0256530Y0020209D01*
X0260051Y0020209D01*
X0265047Y0015213D01*
X0265047Y0013570D01*
X0267070Y0011547D01*
X0269930Y0011547D01*
X0271953Y0013570D01*
X0271953Y0016430D01*
X0269930Y0018453D01*
X0268287Y0018453D01*
X0261949Y0024791D01*
X0244426Y0024791D01*
X0241301Y0021666D01*
X0105580Y0021666D01*
X0079217Y0048029D01*
X0079217Y0048646D01*
X0078727Y0049829D01*
X0077822Y0050733D01*
X0076640Y0051223D01*
X0075360Y0051223D01*
X0074178Y0050733D01*
X0073273Y0049829D01*
X0072783Y0048646D01*
X0072783Y0047367D01*
X0073273Y0046184D01*
X0074178Y0045280D01*
X0073220Y0046312D02*
X0009556Y0046312D01*
X0009556Y0047311D02*
X0072807Y0047311D01*
X0072783Y0048309D02*
X0009556Y0048309D01*
X0009556Y0049308D02*
X0073058Y0049308D01*
X0073751Y0050307D02*
X0009556Y0050307D01*
X0009556Y0051305D02*
X0090429Y0051305D01*
X0089431Y0052304D02*
X0009556Y0052304D01*
X0009556Y0053302D02*
X0018508Y0053302D01*
X0017644Y0054301D02*
X0009556Y0054301D01*
X0009556Y0055299D02*
X0017230Y0055299D01*
X0017154Y0056298D02*
X0009556Y0056298D01*
X0009556Y0057296D02*
X0016715Y0057296D01*
X0015716Y0058295D02*
X0009556Y0058295D01*
X0009556Y0059293D02*
X0014718Y0059293D01*
X0013719Y0060292D02*
X0009556Y0060292D01*
X0009556Y0061290D02*
X0012721Y0061290D01*
X0011722Y0062289D02*
X0009556Y0062289D01*
X0009556Y0063287D02*
X0011209Y0063287D01*
X0011209Y0064286D02*
X0009556Y0064286D01*
X0009556Y0065284D02*
X0011209Y0065284D01*
X0011209Y0066283D02*
X0009556Y0066283D01*
X0009556Y0067281D02*
X0011209Y0067281D01*
X0011209Y0068280D02*
X0009556Y0068280D01*
X0009556Y0069278D02*
X0011209Y0069278D01*
X0011209Y0070277D02*
X0009556Y0070277D01*
X0009556Y0071275D02*
X0011209Y0071275D01*
X0011209Y0072274D02*
X0009556Y0072274D01*
X0009556Y0073272D02*
X0011209Y0073272D01*
X0011209Y0074271D02*
X0009556Y0074271D01*
X0009556Y0075269D02*
X0011209Y0075269D01*
X0011209Y0076268D02*
X0009556Y0076268D01*
X0009556Y0077266D02*
X0011209Y0077266D01*
X0011209Y0078265D02*
X0009556Y0078265D01*
X0009556Y0079263D02*
X0011209Y0079263D01*
X0011209Y0080262D02*
X0009556Y0080262D01*
X0009556Y0081260D02*
X0011209Y0081260D01*
X0011209Y0082259D02*
X0009556Y0082259D01*
X0009556Y0083257D02*
X0011209Y0083257D01*
X0011209Y0084256D02*
X0009556Y0084256D01*
X0009556Y0085254D02*
X0011209Y0085254D01*
X0011209Y0086253D02*
X0009556Y0086253D01*
X0009556Y0087251D02*
X0011209Y0087251D01*
X0011209Y0088250D02*
X0009556Y0088250D01*
X0009556Y0089248D02*
X0011209Y0089248D01*
X0011209Y0090247D02*
X0009556Y0090247D01*
X0009556Y0091245D02*
X0011209Y0091245D01*
X0011209Y0092244D02*
X0009556Y0092244D01*
X0009556Y0093243D02*
X0011209Y0093243D01*
X0011209Y0094241D02*
X0009556Y0094241D01*
X0009556Y0095240D02*
X0011209Y0095240D01*
X0011209Y0096238D02*
X0009556Y0096238D01*
X0009556Y0097237D02*
X0011209Y0097237D01*
X0011209Y0098235D02*
X0009556Y0098235D01*
X0009556Y0099234D02*
X0011209Y0099234D01*
X0011209Y0100232D02*
X0009556Y0100232D01*
X0009556Y0101231D02*
X0011209Y0101231D01*
X0011209Y0102229D02*
X0009556Y0102229D01*
X0009556Y0103228D02*
X0011209Y0103228D01*
X0011209Y0104226D02*
X0009556Y0104226D01*
X0009556Y0105225D02*
X0011209Y0105225D01*
X0011209Y0106223D02*
X0009556Y0106223D01*
X0009556Y0107222D02*
X0011209Y0107222D01*
X0011209Y0108220D02*
X0009556Y0108220D01*
X0009556Y0109219D02*
X0011209Y0109219D01*
X0011209Y0110217D02*
X0009556Y0110217D01*
X0009556Y0111216D02*
X0011209Y0111216D01*
X0011209Y0112214D02*
X0009556Y0112214D01*
X0009556Y0113213D02*
X0011209Y0113213D01*
X0011209Y0114211D02*
X0009556Y0114211D01*
X0009556Y0115210D02*
X0011209Y0115210D01*
X0011209Y0116208D02*
X0009556Y0116208D01*
X0009556Y0117207D02*
X0011209Y0117207D01*
X0011209Y0118205D02*
X0009556Y0118205D01*
X0009556Y0119204D02*
X0011209Y0119204D01*
X0011209Y0120202D02*
X0009556Y0120202D01*
X0009556Y0121201D02*
X0011209Y0121201D01*
X0011209Y0122199D02*
X0009556Y0122199D01*
X0009556Y0123198D02*
X0011209Y0123198D01*
X0011209Y0124196D02*
X0009556Y0124196D01*
X0009556Y0125195D02*
X0011209Y0125195D01*
X0011209Y0126193D02*
X0009556Y0126193D01*
X0009556Y0127192D02*
X0011209Y0127192D01*
X0011209Y0128190D02*
X0009556Y0128190D01*
X0009556Y0129189D02*
X0011209Y0129189D01*
X0011209Y0130187D02*
X0009556Y0130187D01*
X0009556Y0131186D02*
X0011209Y0131186D01*
X0011209Y0132184D02*
X0009556Y0132184D01*
X0009556Y0133183D02*
X0011209Y0133183D01*
X0011209Y0134181D02*
X0009556Y0134181D01*
X0009556Y0135180D02*
X0011209Y0135180D01*
X0011209Y0136178D02*
X0009556Y0136178D01*
X0009556Y0137177D02*
X0011209Y0137177D01*
X0011209Y0138176D02*
X0009556Y0138176D01*
X0009556Y0139174D02*
X0011209Y0139174D01*
X0011209Y0140173D02*
X0009556Y0140173D01*
X0009556Y0141171D02*
X0011209Y0141171D01*
X0011209Y0142170D02*
X0009556Y0142170D01*
X0009556Y0143168D02*
X0011209Y0143168D01*
X0011209Y0144167D02*
X0009556Y0144167D01*
X0009556Y0145165D02*
X0011209Y0145165D01*
X0011209Y0146164D02*
X0009556Y0146164D01*
X0009556Y0147162D02*
X0011209Y0147162D01*
X0011546Y0148161D02*
X0009556Y0148161D01*
X0009556Y0149159D02*
X0012545Y0149159D01*
X0013359Y0150158D02*
X0013543Y0150158D01*
X0013969Y0151156D02*
X0014542Y0151156D01*
X0014066Y0152155D02*
X0015540Y0152155D01*
X0016209Y0153153D02*
X0013737Y0153153D01*
X0014994Y0154152D02*
X0016209Y0154152D01*
X0016209Y0155150D02*
X0014994Y0155150D01*
X0014994Y0156149D02*
X0016209Y0156149D01*
X0016209Y0157147D02*
X0014994Y0157147D01*
X0014994Y0158146D02*
X0016209Y0158146D01*
X0016209Y0159144D02*
X0014994Y0159144D01*
X0014994Y0160143D02*
X0016209Y0160143D01*
X0015782Y0161141D02*
X0017027Y0161141D01*
X0017841Y0162140D02*
X0018025Y0162140D01*
X0018388Y0163138D02*
X0019024Y0163138D01*
X0018441Y0164137D02*
X0020110Y0164137D01*
X0018066Y0165135D02*
X0024959Y0165135D01*
X0024959Y0166134D02*
X0016622Y0166134D01*
X0015378Y0166134D02*
X0009556Y0166134D01*
X0009556Y0167132D02*
X0024959Y0167132D01*
X0024959Y0168131D02*
X0016957Y0168131D01*
X0017656Y0169129D02*
X0024959Y0169129D01*
X0024959Y0170128D02*
X0017894Y0170128D01*
X0018892Y0171126D02*
X0024959Y0171126D01*
X0024959Y0172125D02*
X0019891Y0172125D01*
X0020889Y0173123D02*
X0024959Y0173123D01*
X0024959Y0174122D02*
X0021888Y0174122D01*
X0019103Y0176119D02*
X0014994Y0176119D01*
X0014994Y0177117D02*
X0019506Y0177117D01*
X0019506Y0178116D02*
X0014994Y0178116D01*
X0014994Y0179114D02*
X0019506Y0179114D01*
X0019506Y0180113D02*
X0014994Y0180113D01*
X0014994Y0181112D02*
X0019506Y0181112D01*
X0019506Y0182110D02*
X0014994Y0182110D01*
X0014994Y0183109D02*
X0019506Y0183109D01*
X0019506Y0184107D02*
X0014994Y0184107D01*
X0014671Y0185106D02*
X0019829Y0185106D01*
X0024959Y0186104D02*
X0013441Y0186104D01*
X0013288Y0187103D02*
X0024959Y0187103D01*
X0024959Y0188101D02*
X0012600Y0188101D01*
X0009556Y0189100D02*
X0024959Y0189100D01*
X0024959Y0190098D02*
X0009556Y0190098D01*
X0009556Y0191097D02*
X0024959Y0191097D01*
X0024959Y0192095D02*
X0012498Y0192095D01*
X0013736Y0193094D02*
X0024959Y0193094D01*
X0024959Y0194092D02*
X0014066Y0194092D01*
X0013970Y0195091D02*
X0024959Y0195091D01*
X0029541Y0195091D02*
X0037434Y0195091D01*
X0037434Y0196089D02*
X0029541Y0196089D01*
X0029541Y0197088D02*
X0037434Y0197088D01*
X0037434Y0198086D02*
X0029541Y0198086D01*
X0030900Y0199085D02*
X0037434Y0199085D01*
X0037434Y0200083D02*
X0031908Y0200083D01*
X0032191Y0201082D02*
X0037434Y0201082D01*
X0036873Y0202080D02*
X0032048Y0202080D01*
X0031373Y0203079D02*
X0035875Y0203079D01*
X0035544Y0204077D02*
X0029541Y0204077D01*
X0029541Y0205076D02*
X0035544Y0205076D01*
X0036184Y0206074D02*
X0029541Y0206074D01*
X0029541Y0207073D02*
X0036184Y0207073D01*
X0036681Y0208071D02*
X0029541Y0208071D01*
X0029541Y0209070D02*
X0037679Y0209070D01*
X0038059Y0210068D02*
X0029541Y0210068D01*
X0029541Y0211067D02*
X0038059Y0211067D01*
X0038059Y0212065D02*
X0029541Y0212065D01*
X0029541Y0213064D02*
X0038059Y0213064D01*
X0038059Y0214062D02*
X0029541Y0214062D01*
X0029541Y0215061D02*
X0038059Y0215061D01*
X0038059Y0216059D02*
X0029541Y0216059D01*
X0029541Y0217058D02*
X0038059Y0217058D01*
X0038059Y0218056D02*
X0029541Y0218056D01*
X0029541Y0219055D02*
X0038059Y0219055D01*
X0038059Y0220053D02*
X0029541Y0220053D01*
X0029541Y0221052D02*
X0038059Y0221052D01*
X0038059Y0222050D02*
X0029541Y0222050D01*
X0029541Y0223049D02*
X0038059Y0223049D01*
X0038059Y0224047D02*
X0029541Y0224047D01*
X0029541Y0225046D02*
X0038059Y0225046D01*
X0038059Y0226045D02*
X0029541Y0226045D01*
X0029541Y0227043D02*
X0038059Y0227043D01*
X0038059Y0228042D02*
X0029541Y0228042D01*
X0029541Y0229040D02*
X0038059Y0229040D01*
X0038059Y0230039D02*
X0029541Y0230039D01*
X0029541Y0231037D02*
X0038059Y0231037D01*
X0038059Y0232036D02*
X0029541Y0232036D01*
X0029541Y0233034D02*
X0038059Y0233034D01*
X0038059Y0234033D02*
X0029541Y0234033D01*
X0029541Y0235031D02*
X0038059Y0235031D01*
X0038059Y0236030D02*
X0029541Y0236030D01*
X0029541Y0237028D02*
X0038059Y0237028D01*
X0038059Y0238027D02*
X0029541Y0238027D01*
X0029541Y0239025D02*
X0038059Y0239025D01*
X0038059Y0240024D02*
X0029541Y0240024D01*
X0029541Y0241022D02*
X0038059Y0241022D01*
X0038059Y0242021D02*
X0029541Y0242021D01*
X0029541Y0243019D02*
X0038059Y0243019D01*
X0038877Y0244018D02*
X0029541Y0244018D01*
X0030506Y0245016D02*
X0039875Y0245016D01*
X0040874Y0246015D02*
X0031504Y0246015D01*
X0032503Y0247013D02*
X0041872Y0247013D01*
X0042871Y0248012D02*
X0033501Y0248012D01*
X0034500Y0249010D02*
X0043869Y0249010D01*
X0044868Y0250009D02*
X0035498Y0250009D01*
X0036497Y0251007D02*
X0045866Y0251007D01*
X0046865Y0252006D02*
X0037495Y0252006D01*
X0038494Y0253004D02*
X0087864Y0253004D01*
X0089206Y0254003D02*
X0039492Y0254003D01*
X0040491Y0255001D02*
X0115047Y0255001D01*
X0115047Y0254003D02*
X0091544Y0254003D01*
X0092542Y0253004D02*
X0114114Y0253004D01*
X0113115Y0252006D02*
X0092706Y0252006D01*
X0094539Y0251007D02*
X0112117Y0251007D01*
X0111118Y0250009D02*
X0095206Y0250009D01*
X0095206Y0249010D02*
X0110119Y0249010D01*
X0109121Y0248012D02*
X0094808Y0248012D01*
X0093331Y0247013D02*
X0108122Y0247013D01*
X0107124Y0246015D02*
X0093331Y0246015D01*
X0092438Y0245016D02*
X0106125Y0245016D01*
X0105127Y0244018D02*
X0049909Y0244018D01*
X0050907Y0245016D02*
X0089562Y0245016D01*
X0099136Y0238027D02*
X0045191Y0238027D01*
X0045191Y0239025D02*
X0100134Y0239025D01*
X0101133Y0240024D02*
X0045914Y0240024D01*
X0046913Y0241022D02*
X0102131Y0241022D01*
X0103130Y0242021D02*
X0047911Y0242021D01*
X0048910Y0243019D02*
X0104128Y0243019D01*
X0116417Y0238027D02*
X0128427Y0238027D01*
X0128044Y0239025D02*
X0117416Y0239025D01*
X0118414Y0240024D02*
X0126430Y0240024D01*
X0125544Y0241022D02*
X0119413Y0241022D01*
X0120411Y0242021D02*
X0125544Y0242021D01*
X0125723Y0243019D02*
X0121410Y0243019D01*
X0124909Y0244018D02*
X0126721Y0244018D01*
X0127419Y0245016D02*
X0125907Y0245016D01*
X0132667Y0238027D02*
X0184333Y0238027D01*
X0185331Y0237028D02*
X0115419Y0237028D01*
X0114420Y0236030D02*
X0191794Y0236030D01*
X0192672Y0235031D02*
X0113422Y0235031D01*
X0112423Y0234033D02*
X0344309Y0234033D01*
X0344309Y0235031D02*
X0195578Y0235031D01*
X0202545Y0236030D02*
X0344309Y0236030D01*
X0344309Y0237028D02*
X0206044Y0237028D01*
X0207042Y0238027D02*
X0344309Y0238027D01*
X0344309Y0239025D02*
X0208041Y0239025D01*
X0209039Y0240024D02*
X0344309Y0240024D01*
X0344309Y0241022D02*
X0210038Y0241022D01*
X0211036Y0242021D02*
X0344309Y0242021D01*
X0343715Y0243019D02*
X0212035Y0243019D01*
X0213034Y0244018D02*
X0342716Y0244018D01*
X0341718Y0245016D02*
X0214032Y0245016D01*
X0208992Y0251007D02*
X0204691Y0251007D01*
X0204691Y0251110D02*
X0204319Y0252007D01*
X0203632Y0252694D01*
X0202735Y0253066D01*
X0201765Y0253066D01*
X0201700Y0253039D01*
X0202150Y0253488D01*
X0202150Y0254713D01*
X0198787Y0254713D01*
X0198787Y0251350D01*
X0199909Y0251350D01*
X0199809Y0251110D01*
X0199809Y0250140D01*
X0200181Y0249243D01*
X0200559Y0248864D01*
X0200559Y0247441D01*
X0200515Y0247441D01*
X0199618Y0247069D01*
X0198931Y0246382D01*
X0198559Y0245485D01*
X0198559Y0244515D01*
X0198687Y0244206D01*
X0198159Y0244206D01*
X0197519Y0243566D01*
X0189825Y0243566D01*
X0187325Y0246066D01*
X0141956Y0246066D01*
X0146059Y0250169D01*
X0146059Y0250140D01*
X0146431Y0249243D01*
X0147118Y0248556D01*
X0148015Y0248184D01*
X0148985Y0248184D01*
X0149882Y0248556D01*
X0150261Y0248934D01*
X0151075Y0248934D01*
X0155379Y0253238D01*
X0157070Y0251547D01*
X0159930Y0251547D01*
X0161953Y0253570D01*
X0161953Y0256430D01*
X0160698Y0257684D01*
X0163425Y0257684D01*
X0165047Y0256062D01*
X0165047Y0253570D01*
X0167070Y0251547D01*
X0169930Y0251547D01*
X0171953Y0253570D01*
X0171953Y0256430D01*
X0169930Y0258453D01*
X0167438Y0258453D01*
X0165816Y0260075D01*
X0165056Y0260834D01*
X0191809Y0260834D01*
X0191809Y0256852D01*
X0190012Y0258650D01*
X0188787Y0258650D01*
X0188787Y0255287D01*
X0188213Y0255287D01*
X0188213Y0254713D01*
X0188787Y0254713D01*
X0188787Y0251350D01*
X0190012Y0251350D01*
X0191809Y0253148D01*
X0191809Y0249261D01*
X0191431Y0248882D01*
X0191059Y0247985D01*
X0191059Y0247015D01*
X0191431Y0246118D01*
X0192118Y0245431D01*
X0193015Y0245059D01*
X0193985Y0245059D01*
X0194882Y0245431D01*
X0195569Y0246118D01*
X0195941Y0247015D01*
X0195941Y0247985D01*
X0195569Y0248882D01*
X0195191Y0249261D01*
X0195191Y0253148D01*
X0196988Y0251350D01*
X0198213Y0251350D01*
X0198213Y0254713D01*
X0198787Y0254713D01*
X0198787Y0255287D01*
X0198213Y0255287D01*
X0198213Y0258650D01*
X0196988Y0258650D01*
X0195191Y0256852D01*
X0195191Y0260834D01*
X0294184Y0260834D01*
X0294184Y0260140D01*
X0294556Y0259243D01*
X0294608Y0259191D01*
X0276550Y0259191D01*
X0275559Y0258200D01*
X0271953Y0254594D01*
X0271953Y0256430D01*
X0269930Y0258453D01*
X0267070Y0258453D01*
X0265047Y0256430D01*
X0265047Y0253570D01*
X0266302Y0252316D01*
X0260698Y0252316D01*
X0261953Y0253570D01*
X0261953Y0256430D01*
X0259930Y0258453D01*
X0257070Y0258453D01*
X0255047Y0256430D01*
X0255047Y0253570D01*
X0256302Y0252316D01*
X0250698Y0252316D01*
X0251953Y0253570D01*
X0251953Y0256430D01*
X0249930Y0258453D01*
X0247070Y0258453D01*
X0245047Y0256430D01*
X0245047Y0253570D01*
X0246302Y0252316D01*
X0240698Y0252316D01*
X0241953Y0253570D01*
X0241953Y0256430D01*
X0239930Y0258453D01*
X0237070Y0258453D01*
X0235047Y0256430D01*
X0235047Y0253570D01*
X0236302Y0252316D01*
X0230698Y0252316D01*
X0231953Y0253570D01*
X0231953Y0256430D01*
X0229930Y0258453D01*
X0227070Y0258453D01*
X0225047Y0256430D01*
X0225047Y0253570D01*
X0226302Y0252316D01*
X0220698Y0252316D01*
X0221953Y0253570D01*
X0221953Y0256430D01*
X0219930Y0258453D01*
X0217070Y0258453D01*
X0215908Y0257291D01*
X0211092Y0257291D01*
X0209930Y0258453D01*
X0207070Y0258453D01*
X0205047Y0256430D01*
X0205047Y0253570D01*
X0207070Y0251547D01*
X0209531Y0251547D01*
X0203941Y0245956D01*
X0203941Y0248864D01*
X0204319Y0249243D01*
X0204691Y0250140D01*
X0204691Y0251110D01*
X0204320Y0252006D02*
X0206611Y0252006D01*
X0205613Y0253004D02*
X0202883Y0253004D01*
X0202150Y0254003D02*
X0205047Y0254003D01*
X0205047Y0255001D02*
X0198787Y0255001D01*
X0198787Y0255287D02*
X0202150Y0255287D01*
X0202150Y0256512D01*
X0200012Y0258650D01*
X0198787Y0258650D01*
X0198787Y0255287D01*
X0198787Y0256000D02*
X0198213Y0256000D01*
X0198213Y0256998D02*
X0198787Y0256998D01*
X0198787Y0257997D02*
X0198213Y0257997D01*
X0196336Y0257997D02*
X0195191Y0257997D01*
X0195191Y0258995D02*
X0276355Y0258995D01*
X0275559Y0258200D02*
X0275559Y0258200D01*
X0275356Y0257997D02*
X0270386Y0257997D01*
X0271385Y0256998D02*
X0274358Y0256998D01*
X0273359Y0256000D02*
X0271953Y0256000D01*
X0271953Y0255001D02*
X0272361Y0255001D01*
X0266614Y0257997D02*
X0260386Y0257997D01*
X0261385Y0256998D02*
X0265615Y0256998D01*
X0265047Y0256000D02*
X0261953Y0256000D01*
X0261953Y0255001D02*
X0265047Y0255001D01*
X0265047Y0254003D02*
X0261953Y0254003D01*
X0261387Y0253004D02*
X0265613Y0253004D01*
X0255613Y0253004D02*
X0251387Y0253004D01*
X0251953Y0254003D02*
X0255047Y0254003D01*
X0255047Y0255001D02*
X0251953Y0255001D01*
X0251953Y0256000D02*
X0255047Y0256000D01*
X0255615Y0256998D02*
X0251385Y0256998D01*
X0250386Y0257997D02*
X0256614Y0257997D01*
X0246614Y0257997D02*
X0240386Y0257997D01*
X0241385Y0256998D02*
X0245615Y0256998D01*
X0245047Y0256000D02*
X0241953Y0256000D01*
X0241953Y0255001D02*
X0245047Y0255001D01*
X0245047Y0254003D02*
X0241953Y0254003D01*
X0241387Y0253004D02*
X0245613Y0253004D01*
X0235613Y0253004D02*
X0231387Y0253004D01*
X0231953Y0254003D02*
X0235047Y0254003D01*
X0235047Y0255001D02*
X0231953Y0255001D01*
X0231953Y0256000D02*
X0235047Y0256000D01*
X0235615Y0256998D02*
X0231385Y0256998D01*
X0230386Y0257997D02*
X0236614Y0257997D01*
X0226614Y0257997D02*
X0220386Y0257997D01*
X0221385Y0256998D02*
X0225615Y0256998D01*
X0225047Y0256000D02*
X0221953Y0256000D01*
X0221953Y0255001D02*
X0225047Y0255001D01*
X0225047Y0254003D02*
X0221953Y0254003D01*
X0221387Y0253004D02*
X0225613Y0253004D01*
X0216614Y0257997D02*
X0210386Y0257997D01*
X0206614Y0257997D02*
X0200664Y0257997D01*
X0201663Y0256998D02*
X0205615Y0256998D01*
X0205047Y0256000D02*
X0202150Y0256000D01*
X0198787Y0254003D02*
X0198213Y0254003D01*
X0198213Y0253004D02*
X0198787Y0253004D01*
X0198787Y0252006D02*
X0198213Y0252006D01*
X0196333Y0252006D02*
X0195191Y0252006D01*
X0195191Y0253004D02*
X0195334Y0253004D01*
X0195191Y0251007D02*
X0199809Y0251007D01*
X0199864Y0250009D02*
X0195191Y0250009D01*
X0195441Y0249010D02*
X0200413Y0249010D01*
X0200559Y0248012D02*
X0195930Y0248012D01*
X0195940Y0247013D02*
X0199562Y0247013D01*
X0198779Y0246015D02*
X0195466Y0246015D01*
X0197971Y0244018D02*
X0189373Y0244018D01*
X0188375Y0245016D02*
X0198559Y0245016D01*
X0203941Y0246015D02*
X0203999Y0246015D01*
X0203941Y0247013D02*
X0204997Y0247013D01*
X0205996Y0248012D02*
X0203941Y0248012D01*
X0204087Y0249010D02*
X0206994Y0249010D01*
X0207993Y0250009D02*
X0204636Y0250009D01*
X0191809Y0250009D02*
X0152150Y0250009D01*
X0153148Y0251007D02*
X0191809Y0251007D01*
X0191809Y0252006D02*
X0190667Y0252006D01*
X0191666Y0253004D02*
X0191809Y0253004D01*
X0188787Y0253004D02*
X0188213Y0253004D01*
X0188213Y0252006D02*
X0188787Y0252006D01*
X0188213Y0251350D02*
X0188213Y0254713D01*
X0184850Y0254713D01*
X0184850Y0253488D01*
X0186988Y0251350D01*
X0188213Y0251350D01*
X0186333Y0252006D02*
X0180667Y0252006D01*
X0180012Y0251350D02*
X0182150Y0253488D01*
X0182150Y0254713D01*
X0178787Y0254713D01*
X0178787Y0251350D01*
X0180012Y0251350D01*
X0178787Y0252006D02*
X0178213Y0252006D01*
X0178213Y0251350D02*
X0178213Y0254713D01*
X0178787Y0254713D01*
X0178787Y0255287D01*
X0182150Y0255287D01*
X0182150Y0256512D01*
X0180012Y0258650D01*
X0178787Y0258650D01*
X0178787Y0255287D01*
X0178213Y0255287D01*
X0178213Y0254713D01*
X0174850Y0254713D01*
X0174850Y0253488D01*
X0176988Y0251350D01*
X0178213Y0251350D01*
X0178213Y0253004D02*
X0178787Y0253004D01*
X0178787Y0254003D02*
X0178213Y0254003D01*
X0178213Y0255001D02*
X0171953Y0255001D01*
X0171953Y0254003D02*
X0174850Y0254003D01*
X0175334Y0253004D02*
X0171387Y0253004D01*
X0170389Y0252006D02*
X0176333Y0252006D01*
X0174850Y0255287D02*
X0178213Y0255287D01*
X0178213Y0258650D01*
X0176988Y0258650D01*
X0174850Y0256512D01*
X0174850Y0255287D01*
X0174850Y0256000D02*
X0171953Y0256000D01*
X0171385Y0256998D02*
X0175337Y0256998D01*
X0176336Y0257997D02*
X0170386Y0257997D01*
X0166895Y0258995D02*
X0191809Y0258995D01*
X0191809Y0257997D02*
X0190664Y0257997D01*
X0191663Y0256998D02*
X0191809Y0256998D01*
X0191809Y0259994D02*
X0165897Y0259994D01*
X0164111Y0256998D02*
X0161385Y0256998D01*
X0161953Y0256000D02*
X0165047Y0256000D01*
X0165047Y0255001D02*
X0161953Y0255001D01*
X0161953Y0254003D02*
X0165047Y0254003D01*
X0165613Y0253004D02*
X0161387Y0253004D01*
X0160389Y0252006D02*
X0166611Y0252006D01*
X0156611Y0252006D02*
X0154147Y0252006D01*
X0155145Y0253004D02*
X0155613Y0253004D01*
X0151151Y0249010D02*
X0191559Y0249010D01*
X0191070Y0248012D02*
X0143903Y0248012D01*
X0144901Y0249010D02*
X0146663Y0249010D01*
X0146114Y0250009D02*
X0145900Y0250009D01*
X0142904Y0247013D02*
X0191060Y0247013D01*
X0191534Y0246015D02*
X0187376Y0246015D01*
X0185334Y0253004D02*
X0181666Y0253004D01*
X0182150Y0254003D02*
X0184850Y0254003D01*
X0184850Y0255287D02*
X0188213Y0255287D01*
X0188213Y0258650D01*
X0186988Y0258650D01*
X0184850Y0256512D01*
X0184850Y0255287D01*
X0184850Y0256000D02*
X0182150Y0256000D01*
X0181663Y0256998D02*
X0185337Y0256998D01*
X0186336Y0257997D02*
X0180664Y0257997D01*
X0178787Y0257997D02*
X0178213Y0257997D01*
X0178213Y0256998D02*
X0178787Y0256998D01*
X0178787Y0256000D02*
X0178213Y0256000D01*
X0178787Y0255001D02*
X0188213Y0255001D01*
X0188213Y0254003D02*
X0188787Y0254003D01*
X0188787Y0256000D02*
X0188213Y0256000D01*
X0188213Y0256998D02*
X0188787Y0256998D01*
X0188787Y0257997D02*
X0188213Y0257997D01*
X0195191Y0256998D02*
X0195337Y0256998D01*
X0195191Y0259994D02*
X0294245Y0259994D01*
X0300073Y0252006D02*
X0280397Y0252006D01*
X0279398Y0251007D02*
X0335727Y0251007D01*
X0336725Y0250009D02*
X0278400Y0250009D01*
X0277401Y0249010D02*
X0337724Y0249010D01*
X0338722Y0248012D02*
X0276403Y0248012D01*
X0275404Y0247013D02*
X0339721Y0247013D01*
X0340719Y0246015D02*
X0274406Y0246015D01*
X0303177Y0252006D02*
X0334728Y0252006D01*
X0333730Y0253004D02*
X0310145Y0253004D01*
X0337772Y0259994D02*
X0341517Y0259994D01*
X0342515Y0258995D02*
X0338770Y0258995D01*
X0339769Y0257997D02*
X0343514Y0257997D01*
X0344512Y0256998D02*
X0340767Y0256998D01*
X0341766Y0256000D02*
X0345511Y0256000D01*
X0346509Y0255001D02*
X0342764Y0255001D01*
X0343763Y0254003D02*
X0347508Y0254003D01*
X0348506Y0253004D02*
X0344761Y0253004D01*
X0345760Y0252006D02*
X0349505Y0252006D01*
X0350503Y0251007D02*
X0346758Y0251007D01*
X0347757Y0250009D02*
X0351502Y0250009D01*
X0352500Y0249010D02*
X0348756Y0249010D01*
X0349754Y0248012D02*
X0353499Y0248012D01*
X0354497Y0247013D02*
X0350753Y0247013D01*
X0351441Y0246015D02*
X0355496Y0246015D01*
X0356494Y0245016D02*
X0351441Y0245016D01*
X0351441Y0244018D02*
X0357459Y0244018D01*
X0357459Y0243019D02*
X0351441Y0243019D01*
X0351441Y0242021D02*
X0357459Y0242021D01*
X0357459Y0241022D02*
X0351441Y0241022D01*
X0351441Y0240024D02*
X0357459Y0240024D01*
X0357459Y0239025D02*
X0351441Y0239025D01*
X0351441Y0238027D02*
X0357459Y0238027D01*
X0357459Y0237028D02*
X0351441Y0237028D01*
X0351441Y0236030D02*
X0357459Y0236030D01*
X0357459Y0235031D02*
X0351441Y0235031D01*
X0351441Y0234033D02*
X0357459Y0234033D01*
X0357459Y0233034D02*
X0351441Y0233034D01*
X0351441Y0232036D02*
X0357459Y0232036D01*
X0357459Y0231037D02*
X0351441Y0231037D01*
X0351441Y0230039D02*
X0357459Y0230039D01*
X0357459Y0229040D02*
X0351441Y0229040D01*
X0351441Y0228042D02*
X0357459Y0228042D01*
X0357459Y0227043D02*
X0351441Y0227043D01*
X0351441Y0226045D02*
X0357459Y0226045D01*
X0357459Y0225046D02*
X0351441Y0225046D01*
X0351441Y0224047D02*
X0357459Y0224047D01*
X0357459Y0223049D02*
X0351441Y0223049D01*
X0351441Y0222050D02*
X0357459Y0222050D01*
X0357459Y0221052D02*
X0351441Y0221052D01*
X0351441Y0220053D02*
X0357459Y0220053D01*
X0357459Y0219055D02*
X0351441Y0219055D01*
X0351441Y0218056D02*
X0357459Y0218056D01*
X0357459Y0217058D02*
X0351441Y0217058D01*
X0351441Y0216059D02*
X0357459Y0216059D01*
X0357459Y0215061D02*
X0351441Y0215061D01*
X0351441Y0214062D02*
X0357459Y0214062D01*
X0357459Y0213064D02*
X0351441Y0213064D01*
X0351441Y0212065D02*
X0357459Y0212065D01*
X0357459Y0211067D02*
X0351441Y0211067D01*
X0351441Y0210068D02*
X0357459Y0210068D01*
X0357459Y0209070D02*
X0351441Y0209070D01*
X0351441Y0208071D02*
X0357459Y0208071D01*
X0357459Y0207073D02*
X0351441Y0207073D01*
X0351441Y0206074D02*
X0357459Y0206074D01*
X0357459Y0205076D02*
X0351441Y0205076D01*
X0351441Y0204077D02*
X0357459Y0204077D01*
X0355627Y0203079D02*
X0351441Y0203079D01*
X0351441Y0202080D02*
X0354952Y0202080D01*
X0354809Y0201082D02*
X0351441Y0201082D01*
X0351441Y0200083D02*
X0355092Y0200083D01*
X0356100Y0199085D02*
X0351441Y0199085D01*
X0351441Y0198086D02*
X0357459Y0198086D01*
X0357459Y0197088D02*
X0352081Y0197088D01*
X0352081Y0196089D02*
X0357459Y0196089D01*
X0357459Y0195091D02*
X0351887Y0195091D01*
X0350889Y0194092D02*
X0357459Y0194092D01*
X0357459Y0193094D02*
X0126441Y0193094D01*
X0126441Y0194092D02*
X0348611Y0194092D01*
X0347613Y0195091D02*
X0344387Y0195091D01*
X0341363Y0195091D02*
X0126441Y0195091D01*
X0126441Y0196089D02*
X0340544Y0196089D01*
X0340544Y0197088D02*
X0126441Y0197088D01*
X0126441Y0198086D02*
X0340790Y0198086D01*
X0341444Y0199085D02*
X0126441Y0199085D01*
X0126441Y0200083D02*
X0342442Y0200083D01*
X0343441Y0201082D02*
X0126441Y0201082D01*
X0126441Y0202080D02*
X0344309Y0202080D01*
X0344309Y0203079D02*
X0126441Y0203079D01*
X0126441Y0204077D02*
X0344309Y0204077D01*
X0344309Y0205076D02*
X0126441Y0205076D01*
X0126441Y0206074D02*
X0344309Y0206074D01*
X0344309Y0207073D02*
X0126441Y0207073D01*
X0126441Y0208071D02*
X0344309Y0208071D01*
X0344309Y0209070D02*
X0126441Y0209070D01*
X0126441Y0210068D02*
X0344309Y0210068D01*
X0344309Y0211067D02*
X0126441Y0211067D01*
X0126441Y0212065D02*
X0344309Y0212065D01*
X0344309Y0213064D02*
X0126441Y0213064D01*
X0126441Y0214062D02*
X0344309Y0214062D01*
X0344309Y0215061D02*
X0126441Y0215061D01*
X0126441Y0216059D02*
X0344309Y0216059D01*
X0344309Y0217058D02*
X0126441Y0217058D01*
X0126441Y0218056D02*
X0344309Y0218056D01*
X0344309Y0219055D02*
X0126441Y0219055D01*
X0126441Y0220053D02*
X0344309Y0220053D01*
X0344309Y0221052D02*
X0126441Y0221052D01*
X0126441Y0221989D02*
X0126819Y0222368D01*
X0127191Y0223265D01*
X0127191Y0224235D01*
X0126819Y0225132D01*
X0126132Y0225819D01*
X0125235Y0226191D01*
X0124265Y0226191D01*
X0123368Y0225819D01*
X0122681Y0225132D01*
X0122309Y0224235D01*
X0122309Y0223265D01*
X0122681Y0222368D01*
X0123059Y0221989D01*
X0123059Y0156136D01*
X0122681Y0155757D01*
X0122309Y0154860D01*
X0122309Y0153890D01*
X0122681Y0152993D01*
X0123368Y0152306D01*
X0124265Y0151934D01*
X0124294Y0151934D01*
X0123425Y0151066D01*
X0084050Y0151066D01*
X0080559Y0147575D01*
X0080559Y0145356D01*
X0079919Y0144716D01*
X0079919Y0142784D01*
X0081281Y0141422D01*
X0075291Y0135431D01*
X0075278Y0135431D01*
X0074797Y0134938D01*
X0074309Y0134450D01*
X0074309Y0134437D01*
X0074300Y0134428D01*
X0074309Y0133739D01*
X0074309Y0133050D01*
X0074319Y0133041D01*
X0074934Y0086239D01*
X0074934Y0085550D01*
X0074944Y0085541D01*
X0074944Y0085528D01*
X0075437Y0085047D01*
X0079934Y0080550D01*
X0080925Y0079559D01*
X0090925Y0079559D01*
X0094184Y0076300D01*
X0094184Y0075765D01*
X0094556Y0074868D01*
X0095243Y0074181D01*
X0096140Y0073809D01*
X0097110Y0073809D01*
X0098007Y0074181D01*
X0098694Y0074868D01*
X0099066Y0075765D01*
X0099066Y0076419D01*
X0099184Y0076300D01*
X0099184Y0075765D01*
X0099556Y0074868D01*
X0100243Y0074181D01*
X0101140Y0073809D01*
X0102110Y0073809D01*
X0103007Y0074181D01*
X0103694Y0074868D01*
X0104066Y0075765D01*
X0104066Y0076419D01*
X0104184Y0076300D01*
X0104184Y0075765D01*
X0104556Y0074868D01*
X0105243Y0074181D01*
X0106140Y0073809D01*
X0107110Y0073809D01*
X0108007Y0074181D01*
X0108694Y0074868D01*
X0109066Y0075765D01*
X0109066Y0076419D01*
X0109184Y0076300D01*
X0109184Y0075765D01*
X0109556Y0074868D01*
X0110243Y0074181D01*
X0111140Y0073809D01*
X0112110Y0073809D01*
X0113007Y0074181D01*
X0113694Y0074868D01*
X0114066Y0075765D01*
X0114066Y0076419D01*
X0114184Y0076300D01*
X0114184Y0075765D01*
X0114556Y0074868D01*
X0115243Y0074181D01*
X0116140Y0073809D01*
X0117110Y0073809D01*
X0118007Y0074181D01*
X0118694Y0074868D01*
X0119066Y0075765D01*
X0119066Y0076419D01*
X0119184Y0076300D01*
X0119184Y0075765D01*
X0119556Y0074868D01*
X0120243Y0074181D01*
X0121140Y0073809D01*
X0122110Y0073809D01*
X0123007Y0074181D01*
X0123694Y0074868D01*
X0124066Y0075765D01*
X0124066Y0076419D01*
X0124184Y0076300D01*
X0124184Y0075765D01*
X0124556Y0074868D01*
X0125243Y0074181D01*
X0126140Y0073809D01*
X0127110Y0073809D01*
X0128007Y0074181D01*
X0128694Y0074868D01*
X0129066Y0075765D01*
X0129066Y0076735D01*
X0128694Y0077632D01*
X0128007Y0078319D01*
X0127110Y0078691D01*
X0126575Y0078691D01*
X0112066Y0093200D01*
X0111075Y0094191D01*
X0089825Y0094191D01*
X0089552Y0094464D01*
X0088954Y0125563D01*
X0105816Y0142425D01*
X0105816Y0143394D01*
X0106456Y0144034D01*
X0106456Y0145966D01*
X0105091Y0147331D01*
X0103159Y0147331D01*
X0101909Y0146081D01*
X0100091Y0146081D01*
X0098841Y0147331D01*
X0096909Y0147331D01*
X0095659Y0146081D01*
X0093841Y0146081D01*
X0092591Y0147331D01*
X0090659Y0147331D01*
X0089409Y0146081D01*
X0087591Y0146081D01*
X0086341Y0147331D01*
X0085097Y0147331D01*
X0085450Y0147684D01*
X0123169Y0147684D01*
X0094934Y0119450D01*
X0094934Y0106136D01*
X0094556Y0105757D01*
X0094184Y0104860D01*
X0094184Y0103890D01*
X0094556Y0102993D01*
X0095243Y0102306D01*
X0096140Y0101934D01*
X0097110Y0101934D01*
X0098007Y0102306D01*
X0098694Y0102993D01*
X0099066Y0103890D01*
X0099066Y0104860D01*
X0098694Y0105757D01*
X0098316Y0106136D01*
X0098316Y0118050D01*
X0099934Y0119669D01*
X0099934Y0106136D01*
X0099556Y0105757D01*
X0099184Y0104860D01*
X0099184Y0103890D01*
X0099556Y0102993D01*
X0100243Y0102306D01*
X0101140Y0101934D01*
X0102110Y0101934D01*
X0103007Y0102306D01*
X0103694Y0102993D01*
X0104066Y0103890D01*
X0104066Y0104860D01*
X0103694Y0105757D01*
X0103316Y0106136D01*
X0103316Y0119925D01*
X0104934Y0121544D01*
X0104934Y0106136D01*
X0104556Y0105757D01*
X0104184Y0104860D01*
X0104184Y0103890D01*
X0104556Y0102993D01*
X0105243Y0102306D01*
X0106140Y0101934D01*
X0107110Y0101934D01*
X0108007Y0102306D01*
X0108694Y0102993D01*
X0109066Y0103890D01*
X0109066Y0104860D01*
X0108694Y0105757D01*
X0108316Y0106136D01*
X0108316Y0121800D01*
X0109934Y0123419D01*
X0109934Y0106136D01*
X0109556Y0105757D01*
X0109184Y0104860D01*
X0109184Y0103890D01*
X0109556Y0102993D01*
X0110243Y0102306D01*
X0111140Y0101934D01*
X0112110Y0101934D01*
X0113007Y0102306D01*
X0113694Y0102993D01*
X0114066Y0103890D01*
X0114066Y0104860D01*
X0113694Y0105757D01*
X0113316Y0106136D01*
X0113316Y0123675D01*
X0114934Y0125294D01*
X0114934Y0106136D01*
X0114556Y0105757D01*
X0114184Y0104860D01*
X0114184Y0103890D01*
X0114556Y0102993D01*
X0115243Y0102306D01*
X0116140Y0101934D01*
X0117110Y0101934D01*
X0118007Y0102306D01*
X0118694Y0102993D01*
X0119066Y0103890D01*
X0119066Y0104860D01*
X0118694Y0105757D01*
X0118316Y0106136D01*
X0118316Y0125550D01*
X0119934Y0127169D01*
X0119934Y0106136D01*
X0119556Y0105757D01*
X0119184Y0104860D01*
X0119184Y0103890D01*
X0119556Y0102993D01*
X0120243Y0102306D01*
X0121140Y0101934D01*
X0122110Y0101934D01*
X0123007Y0102306D01*
X0123694Y0102993D01*
X0124066Y0103890D01*
X0124066Y0104860D01*
X0123694Y0105757D01*
X0123316Y0106136D01*
X0123316Y0127425D01*
X0124934Y0129044D01*
X0124934Y0106136D01*
X0124556Y0105757D01*
X0124184Y0104860D01*
X0124184Y0103890D01*
X0124556Y0102993D01*
X0125243Y0102306D01*
X0126140Y0101934D01*
X0127110Y0101934D01*
X0128007Y0102306D01*
X0128694Y0102993D01*
X0129066Y0103890D01*
X0129066Y0104860D01*
X0128694Y0105757D01*
X0128316Y0106136D01*
X0128316Y0129300D01*
X0145434Y0146419D01*
X0145434Y0145765D01*
X0145806Y0144868D01*
X0146493Y0144181D01*
X0147390Y0143809D01*
X0147925Y0143809D01*
X0148059Y0143675D01*
X0148059Y0098825D01*
X0134934Y0085700D01*
X0134934Y0044925D01*
X0135925Y0043934D01*
X0140559Y0039300D01*
X0141550Y0038309D01*
X0150925Y0038309D01*
X0151684Y0037550D01*
X0151684Y0037015D01*
X0152056Y0036118D01*
X0152743Y0035431D01*
X0153640Y0035059D01*
X0154610Y0035059D01*
X0155507Y0035431D01*
X0156194Y0036118D01*
X0156566Y0037015D01*
X0156566Y0037669D01*
X0156684Y0037550D01*
X0156684Y0037015D01*
X0157056Y0036118D01*
X0157743Y0035431D01*
X0158640Y0035059D01*
X0159610Y0035059D01*
X0160507Y0035431D01*
X0161194Y0036118D01*
X0161566Y0037015D01*
X0161566Y0037669D01*
X0161684Y0037550D01*
X0161684Y0037015D01*
X0162056Y0036118D01*
X0162743Y0035431D01*
X0163640Y0035059D01*
X0164610Y0035059D01*
X0165507Y0035431D01*
X0166194Y0036118D01*
X0166566Y0037015D01*
X0166566Y0037669D01*
X0166684Y0037550D01*
X0166684Y0037015D01*
X0167056Y0036118D01*
X0167743Y0035431D01*
X0168640Y0035059D01*
X0169610Y0035059D01*
X0170507Y0035431D01*
X0171194Y0036118D01*
X0171566Y0037015D01*
X0171566Y0037669D01*
X0171684Y0037550D01*
X0171684Y0037015D01*
X0172056Y0036118D01*
X0172743Y0035431D01*
X0173640Y0035059D01*
X0174610Y0035059D01*
X0175507Y0035431D01*
X0176194Y0036118D01*
X0176566Y0037015D01*
X0176566Y0037985D01*
X0176194Y0038882D01*
X0175507Y0039569D01*
X0174610Y0039941D01*
X0174075Y0039941D01*
X0165816Y0048200D01*
X0164825Y0049191D01*
X0147950Y0049191D01*
X0145816Y0051325D01*
X0145816Y0079300D01*
X0197950Y0131434D01*
X0198941Y0132425D01*
X0198941Y0133608D01*
X0198993Y0133556D01*
X0199890Y0133184D01*
X0200434Y0133184D01*
X0200434Y0132640D01*
X0200806Y0131743D01*
X0201493Y0131056D01*
X0202390Y0130684D01*
X0203360Y0130684D01*
X0204257Y0131056D01*
X0204636Y0131434D01*
X0208794Y0131434D01*
X0152434Y0075075D01*
X0152434Y0067386D01*
X0152056Y0067007D01*
X0151684Y0066110D01*
X0151684Y0065140D01*
X0152056Y0064243D01*
X0152743Y0063556D01*
X0153640Y0063184D01*
X0154610Y0063184D01*
X0155507Y0063556D01*
X0156194Y0064243D01*
X0156566Y0065140D01*
X0156566Y0066110D01*
X0156194Y0067007D01*
X0155816Y0067386D01*
X0155816Y0073675D01*
X0157434Y0075294D01*
X0157434Y0067386D01*
X0157056Y0067007D01*
X0156684Y0066110D01*
X0156684Y0065140D01*
X0157056Y0064243D01*
X0157743Y0063556D01*
X0158640Y0063184D01*
X0159610Y0063184D01*
X0160507Y0063556D01*
X0161194Y0064243D01*
X0161566Y0065140D01*
X0161566Y0066110D01*
X0161194Y0067007D01*
X0160816Y0067386D01*
X0160816Y0075550D01*
X0162434Y0077169D01*
X0162434Y0067386D01*
X0162056Y0067007D01*
X0161684Y0066110D01*
X0161684Y0065140D01*
X0162056Y0064243D01*
X0162743Y0063556D01*
X0163640Y0063184D01*
X0164610Y0063184D01*
X0165507Y0063556D01*
X0166194Y0064243D01*
X0166566Y0065140D01*
X0166566Y0066110D01*
X0166194Y0067007D01*
X0165816Y0067386D01*
X0165816Y0077425D01*
X0167434Y0079044D01*
X0167434Y0067386D01*
X0167056Y0067007D01*
X0166684Y0066110D01*
X0166684Y0065140D01*
X0167056Y0064243D01*
X0167743Y0063556D01*
X0168640Y0063184D01*
X0169610Y0063184D01*
X0170507Y0063556D01*
X0171194Y0064243D01*
X0171566Y0065140D01*
X0171566Y0066110D01*
X0171194Y0067007D01*
X0170816Y0067386D01*
X0170816Y0079300D01*
X0172434Y0080919D01*
X0172434Y0067386D01*
X0172056Y0067007D01*
X0171684Y0066110D01*
X0171684Y0065140D01*
X0172056Y0064243D01*
X0172743Y0063556D01*
X0173640Y0063184D01*
X0174610Y0063184D01*
X0175507Y0063556D01*
X0176194Y0064243D01*
X0176566Y0065140D01*
X0176566Y0066110D01*
X0176194Y0067007D01*
X0175816Y0067386D01*
X0175816Y0081175D01*
X0242066Y0147425D01*
X0242066Y0165739D01*
X0242444Y0166118D01*
X0242816Y0167015D01*
X0242816Y0167985D01*
X0242444Y0168882D01*
X0241757Y0169569D01*
X0240860Y0169941D01*
X0239890Y0169941D01*
X0238993Y0169569D01*
X0238500Y0169076D01*
X0238007Y0169569D01*
X0237110Y0169941D01*
X0236140Y0169941D01*
X0235243Y0169569D01*
X0234556Y0168882D01*
X0234437Y0168596D01*
X0234319Y0168882D01*
X0233632Y0169569D01*
X0232735Y0169941D01*
X0231765Y0169941D01*
X0230868Y0169569D01*
X0230375Y0169076D01*
X0229882Y0169569D01*
X0228985Y0169941D01*
X0228015Y0169941D01*
X0227118Y0169569D01*
X0226625Y0169076D01*
X0226132Y0169569D01*
X0225235Y0169941D01*
X0224265Y0169941D01*
X0223368Y0169569D01*
X0222681Y0168882D01*
X0222309Y0167985D01*
X0222309Y0167015D01*
X0222681Y0166118D01*
X0223059Y0165739D01*
X0223059Y0145700D01*
X0217691Y0140331D01*
X0217691Y0143608D01*
X0217743Y0143556D01*
X0218640Y0143184D01*
X0219610Y0143184D01*
X0220507Y0143556D01*
X0221194Y0144243D01*
X0221566Y0145140D01*
X0221566Y0146110D01*
X0221194Y0147007D01*
X0220816Y0147386D01*
X0220816Y0174925D01*
X0221075Y0175184D01*
X0250644Y0175184D01*
X0251284Y0174544D01*
X0253216Y0174544D01*
X0254581Y0175909D01*
X0254581Y0177841D01*
X0253216Y0179206D01*
X0251284Y0179206D01*
X0250831Y0178753D01*
X0250831Y0180341D01*
X0249466Y0181706D01*
X0247534Y0181706D01*
X0247081Y0181253D01*
X0247081Y0182841D01*
X0245716Y0184206D01*
X0243784Y0184206D01*
X0243144Y0183566D01*
X0217800Y0183566D01*
X0216809Y0182575D01*
X0212434Y0178200D01*
X0212434Y0148267D01*
X0211757Y0148944D01*
X0210860Y0149316D01*
X0209890Y0149316D01*
X0208993Y0148944D01*
X0208614Y0148566D01*
X0185925Y0148566D01*
X0183425Y0146066D01*
X0161700Y0146066D01*
X0161566Y0146200D01*
X0161566Y0146735D01*
X0161194Y0147632D01*
X0160507Y0148319D01*
X0159610Y0148691D01*
X0158640Y0148691D01*
X0157743Y0148319D01*
X0157250Y0147826D01*
X0156757Y0148319D01*
X0155860Y0148691D01*
X0154890Y0148691D01*
X0153993Y0148319D01*
X0153500Y0147826D01*
X0153007Y0148319D01*
X0152110Y0148691D01*
X0151140Y0148691D01*
X0150243Y0148319D01*
X0149750Y0147826D01*
X0149257Y0148319D01*
X0148360Y0148691D01*
X0147706Y0148691D01*
X0163941Y0164925D01*
X0163941Y0165739D01*
X0164319Y0166118D01*
X0164691Y0167015D01*
X0164691Y0167985D01*
X0164319Y0168882D01*
X0163632Y0169569D01*
X0162735Y0169941D01*
X0161765Y0169941D01*
X0160868Y0169569D01*
X0160375Y0169076D01*
X0159882Y0169569D01*
X0158985Y0169941D01*
X0158015Y0169941D01*
X0157118Y0169569D01*
X0156431Y0168882D01*
X0156312Y0168596D01*
X0156194Y0168882D01*
X0155507Y0169569D01*
X0154610Y0169941D01*
X0153640Y0169941D01*
X0152743Y0169569D01*
X0152250Y0169076D01*
X0151757Y0169569D01*
X0150860Y0169941D01*
X0149890Y0169941D01*
X0148993Y0169569D01*
X0148500Y0169076D01*
X0148007Y0169569D01*
X0147110Y0169941D01*
X0146140Y0169941D01*
X0145243Y0169569D01*
X0144556Y0168882D01*
X0144437Y0168596D01*
X0144319Y0168882D01*
X0143632Y0169569D01*
X0142735Y0169941D01*
X0141765Y0169941D01*
X0140868Y0169569D01*
X0140375Y0169076D01*
X0139882Y0169569D01*
X0138985Y0169941D01*
X0138015Y0169941D01*
X0137118Y0169569D01*
X0136548Y0168999D01*
X0135716Y0169831D01*
X0133784Y0169831D01*
X0132419Y0168466D01*
X0132419Y0166534D01*
X0133059Y0165894D01*
X0133059Y0160700D01*
X0127191Y0154831D01*
X0127191Y0154860D01*
X0126819Y0155757D01*
X0126441Y0156136D01*
X0126441Y0221989D01*
X0126502Y0222050D02*
X0344309Y0222050D01*
X0344309Y0223049D02*
X0127101Y0223049D01*
X0127191Y0224047D02*
X0344309Y0224047D01*
X0344309Y0225046D02*
X0126855Y0225046D01*
X0125588Y0226045D02*
X0344309Y0226045D01*
X0344309Y0227043D02*
X0105434Y0227043D01*
X0106432Y0228042D02*
X0344309Y0228042D01*
X0344309Y0229040D02*
X0107431Y0229040D01*
X0108429Y0230039D02*
X0344309Y0230039D01*
X0344309Y0231037D02*
X0109428Y0231037D01*
X0110426Y0232036D02*
X0344309Y0232036D01*
X0344309Y0233034D02*
X0111425Y0233034D01*
X0104435Y0226045D02*
X0123912Y0226045D01*
X0122645Y0225046D02*
X0103437Y0225046D01*
X0102438Y0224047D02*
X0122309Y0224047D01*
X0122399Y0223049D02*
X0101440Y0223049D01*
X0100441Y0222050D02*
X0122998Y0222050D01*
X0123059Y0221052D02*
X0099443Y0221052D01*
X0098444Y0220053D02*
X0123059Y0220053D01*
X0123059Y0219055D02*
X0097446Y0219055D01*
X0096447Y0218056D02*
X0123059Y0218056D01*
X0123059Y0217058D02*
X0095449Y0217058D01*
X0094450Y0216059D02*
X0123059Y0216059D01*
X0123059Y0215061D02*
X0093452Y0215061D01*
X0092453Y0214062D02*
X0123059Y0214062D01*
X0123059Y0213064D02*
X0091455Y0213064D01*
X0090456Y0212065D02*
X0123059Y0212065D01*
X0123059Y0211067D02*
X0089458Y0211067D01*
X0088459Y0210068D02*
X0123059Y0210068D01*
X0123059Y0209070D02*
X0087461Y0209070D01*
X0086462Y0208071D02*
X0123059Y0208071D01*
X0123059Y0207073D02*
X0085464Y0207073D01*
X0085191Y0206074D02*
X0123059Y0206074D01*
X0123059Y0205076D02*
X0085191Y0205076D01*
X0085191Y0204077D02*
X0123059Y0204077D01*
X0123059Y0203079D02*
X0085191Y0203079D01*
X0085191Y0202080D02*
X0123059Y0202080D01*
X0123059Y0201082D02*
X0085191Y0201082D01*
X0085191Y0200083D02*
X0123059Y0200083D01*
X0123059Y0199085D02*
X0085191Y0199085D01*
X0085191Y0198086D02*
X0123059Y0198086D01*
X0123059Y0197088D02*
X0085191Y0197088D01*
X0085191Y0196089D02*
X0123059Y0196089D01*
X0123059Y0195091D02*
X0085191Y0195091D01*
X0085191Y0194092D02*
X0123059Y0194092D01*
X0123059Y0193094D02*
X0085191Y0193094D01*
X0085191Y0192095D02*
X0123059Y0192095D01*
X0123059Y0191097D02*
X0085191Y0191097D01*
X0085191Y0190098D02*
X0123059Y0190098D01*
X0123059Y0189100D02*
X0085191Y0189100D01*
X0085191Y0188101D02*
X0123059Y0188101D01*
X0123059Y0187103D02*
X0085191Y0187103D01*
X0085191Y0186104D02*
X0123059Y0186104D01*
X0123059Y0185106D02*
X0085191Y0185106D01*
X0085191Y0184107D02*
X0107511Y0184107D01*
X0107118Y0183944D02*
X0106739Y0183566D01*
X0095925Y0183566D01*
X0091050Y0178691D01*
X0090515Y0178691D01*
X0089618Y0178319D01*
X0088931Y0177632D01*
X0088559Y0176735D01*
X0088559Y0175765D01*
X0088931Y0174868D01*
X0089618Y0174181D01*
X0090515Y0173809D01*
X0091485Y0173809D01*
X0092382Y0174181D01*
X0093069Y0174868D01*
X0093441Y0175765D01*
X0093441Y0176300D01*
X0097325Y0180184D01*
X0106739Y0180184D01*
X0107118Y0179806D01*
X0108015Y0179434D01*
X0108985Y0179434D01*
X0109882Y0179806D01*
X0110569Y0180493D01*
X0110941Y0181390D01*
X0110941Y0182360D01*
X0110569Y0183257D01*
X0109882Y0183944D01*
X0108985Y0184316D01*
X0108015Y0184316D01*
X0107118Y0183944D01*
X0109489Y0184107D02*
X0123059Y0184107D01*
X0123059Y0183109D02*
X0110631Y0183109D01*
X0110941Y0182110D02*
X0123059Y0182110D01*
X0123059Y0181112D02*
X0110825Y0181112D01*
X0110189Y0180113D02*
X0123059Y0180113D01*
X0123059Y0179114D02*
X0096255Y0179114D01*
X0095257Y0178116D02*
X0123059Y0178116D01*
X0123059Y0177117D02*
X0094258Y0177117D01*
X0093441Y0176119D02*
X0123059Y0176119D01*
X0123059Y0175120D02*
X0093174Y0175120D01*
X0092240Y0174122D02*
X0123059Y0174122D01*
X0123059Y0173123D02*
X0085191Y0173123D01*
X0085191Y0172125D02*
X0123059Y0172125D01*
X0123059Y0171126D02*
X0085191Y0171126D01*
X0085191Y0170128D02*
X0123059Y0170128D01*
X0123059Y0169129D02*
X0085191Y0169129D01*
X0085191Y0168131D02*
X0123059Y0168131D01*
X0123059Y0167132D02*
X0085191Y0167132D01*
X0085191Y0166134D02*
X0123059Y0166134D01*
X0123059Y0165135D02*
X0109505Y0165135D01*
X0110504Y0164137D02*
X0123059Y0164137D01*
X0123059Y0163138D02*
X0111502Y0163138D01*
X0113562Y0162140D02*
X0123059Y0162140D01*
X0123059Y0161141D02*
X0114053Y0161141D01*
X0114066Y0160143D02*
X0123059Y0160143D01*
X0123059Y0159144D02*
X0113596Y0159144D01*
X0105912Y0158146D02*
X0123059Y0158146D01*
X0123059Y0157147D02*
X0104913Y0157147D01*
X0103915Y0156149D02*
X0123059Y0156149D01*
X0122429Y0155150D02*
X0102916Y0155150D01*
X0101917Y0154152D02*
X0122309Y0154152D01*
X0122614Y0153153D02*
X0064987Y0153153D01*
X0065316Y0152155D02*
X0123733Y0152155D01*
X0123515Y0151156D02*
X0065219Y0151156D01*
X0064609Y0150158D02*
X0083142Y0150158D01*
X0082143Y0149159D02*
X0076238Y0149159D01*
X0075860Y0149316D02*
X0074890Y0149316D01*
X0073993Y0148944D01*
X0073306Y0148257D01*
X0073188Y0147971D01*
X0073069Y0148257D01*
X0072382Y0148944D01*
X0071485Y0149316D01*
X0070515Y0149316D01*
X0069618Y0148944D01*
X0068931Y0148257D01*
X0068559Y0147360D01*
X0068559Y0146825D01*
X0068059Y0146325D01*
X0068059Y0073675D01*
X0069050Y0072684D01*
X0112800Y0028934D01*
X0202950Y0028934D01*
X0203941Y0029925D01*
X0219825Y0045809D01*
X0359200Y0045809D01*
X0360191Y0046800D01*
X0366419Y0053029D01*
X0369468Y0053029D01*
X0371721Y0055282D01*
X0371721Y0058468D01*
X0369468Y0060721D01*
X0366282Y0060721D01*
X0365191Y0059630D01*
X0365191Y0061800D01*
X0366419Y0063029D01*
X0369468Y0063029D01*
X0371721Y0065282D01*
X0371721Y0068468D01*
X0369468Y0070721D01*
X0366282Y0070721D01*
X0364029Y0068468D01*
X0364029Y0065419D01*
X0362800Y0064191D01*
X0361809Y0063200D01*
X0361809Y0058659D01*
X0359550Y0060918D01*
X0358359Y0060918D01*
X0358359Y0057359D01*
X0357391Y0057359D01*
X0357391Y0056391D01*
X0358359Y0056391D01*
X0358359Y0052875D01*
X0356550Y0051066D01*
X0217175Y0051066D01*
X0200300Y0034191D01*
X0115450Y0034191D01*
X0073316Y0076325D01*
X0073316Y0142425D01*
X0075325Y0144434D01*
X0075860Y0144434D01*
X0076757Y0144806D01*
X0077444Y0145493D01*
X0077816Y0146390D01*
X0077816Y0147360D01*
X0077444Y0148257D01*
X0076757Y0148944D01*
X0075860Y0149316D01*
X0074512Y0149159D02*
X0071863Y0149159D01*
X0073109Y0148161D02*
X0073266Y0148161D01*
X0070137Y0149159D02*
X0033809Y0149159D01*
X0034807Y0148161D02*
X0068891Y0148161D01*
X0068559Y0147162D02*
X0035043Y0147162D01*
X0035043Y0146734D02*
X0035043Y0147925D01*
X0032675Y0150293D01*
X0031484Y0150293D01*
X0031484Y0146734D01*
X0030516Y0146734D01*
X0030516Y0145766D01*
X0026957Y0145766D01*
X0026957Y0144575D01*
X0029325Y0142207D01*
X0030516Y0142207D01*
X0030516Y0145766D01*
X0031484Y0145766D01*
X0031484Y0142207D01*
X0032675Y0142207D01*
X0035043Y0144575D01*
X0035043Y0145766D01*
X0031484Y0145766D01*
X0031484Y0146734D01*
X0035043Y0146734D01*
X0035043Y0145165D02*
X0068059Y0145165D01*
X0068059Y0144167D02*
X0034635Y0144167D01*
X0033636Y0143168D02*
X0068059Y0143168D01*
X0068059Y0142170D02*
X0015791Y0142170D01*
X0015791Y0143168D02*
X0018642Y0143168D01*
X0017644Y0144167D02*
X0015791Y0144167D01*
X0015791Y0145165D02*
X0017154Y0145165D01*
X0017154Y0146164D02*
X0016028Y0146164D01*
X0017026Y0147162D02*
X0017154Y0147162D01*
X0023531Y0149159D02*
X0028191Y0149159D01*
X0027193Y0148161D02*
X0024529Y0148161D01*
X0024846Y0147162D02*
X0026957Y0147162D01*
X0026957Y0146734D02*
X0030516Y0146734D01*
X0030516Y0150293D01*
X0029325Y0150293D01*
X0026957Y0147925D01*
X0026957Y0146734D01*
X0026957Y0145165D02*
X0024846Y0145165D01*
X0024846Y0146164D02*
X0030516Y0146164D01*
X0031484Y0146164D02*
X0068059Y0146164D01*
X0068059Y0141171D02*
X0015791Y0141171D01*
X0015791Y0140173D02*
X0029204Y0140173D01*
X0029325Y0140293D02*
X0026957Y0137925D01*
X0026957Y0136734D01*
X0030516Y0136734D01*
X0030516Y0135766D01*
X0026957Y0135766D01*
X0026957Y0134575D01*
X0029325Y0132207D01*
X0030516Y0132207D01*
X0030516Y0135766D01*
X0031484Y0135766D01*
X0031484Y0132207D01*
X0032675Y0132207D01*
X0035043Y0134575D01*
X0035043Y0135766D01*
X0031484Y0135766D01*
X0031484Y0136734D01*
X0030516Y0136734D01*
X0030516Y0140293D01*
X0029325Y0140293D01*
X0030516Y0140173D02*
X0031484Y0140173D01*
X0031484Y0140293D02*
X0031484Y0136734D01*
X0035043Y0136734D01*
X0035043Y0137925D01*
X0032675Y0140293D01*
X0031484Y0140293D01*
X0031484Y0139174D02*
X0030516Y0139174D01*
X0030516Y0138176D02*
X0031484Y0138176D01*
X0031484Y0137177D02*
X0030516Y0137177D01*
X0030516Y0136178D02*
X0024846Y0136178D01*
X0024846Y0135180D02*
X0026957Y0135180D01*
X0027350Y0134181D02*
X0024371Y0134181D01*
X0024846Y0134657D02*
X0022593Y0132404D01*
X0019407Y0132404D01*
X0017154Y0134657D01*
X0017154Y0137843D01*
X0019407Y0140096D01*
X0022593Y0140096D01*
X0024846Y0137843D01*
X0024846Y0134657D01*
X0023373Y0133183D02*
X0028349Y0133183D01*
X0030516Y0133183D02*
X0031484Y0133183D01*
X0031484Y0134181D02*
X0030516Y0134181D01*
X0030516Y0135180D02*
X0031484Y0135180D01*
X0031484Y0136178D02*
X0057216Y0136178D01*
X0056890Y0136504D02*
X0057696Y0135699D01*
X0058748Y0135263D01*
X0059886Y0135263D01*
X0060938Y0135699D01*
X0061743Y0136504D01*
X0062179Y0137556D01*
X0062179Y0138694D01*
X0061743Y0139746D01*
X0060938Y0140551D01*
X0059886Y0140987D01*
X0058748Y0140987D01*
X0057696Y0140551D01*
X0056890Y0139746D01*
X0056455Y0138694D01*
X0056455Y0137556D01*
X0056890Y0136504D01*
X0056612Y0137177D02*
X0035043Y0137177D01*
X0034793Y0138176D02*
X0056455Y0138176D01*
X0056653Y0139174D02*
X0033794Y0139174D01*
X0032796Y0140173D02*
X0057317Y0140173D01*
X0061317Y0140173D02*
X0068059Y0140173D01*
X0068059Y0139174D02*
X0061980Y0139174D01*
X0062179Y0138176D02*
X0068059Y0138176D01*
X0068059Y0137177D02*
X0062022Y0137177D01*
X0061418Y0136178D02*
X0068059Y0136178D01*
X0068059Y0135180D02*
X0035043Y0135180D01*
X0034650Y0134181D02*
X0068059Y0134181D01*
X0068059Y0133183D02*
X0033651Y0133183D01*
X0032675Y0130293D02*
X0031484Y0130293D01*
X0031484Y0126734D01*
X0030516Y0126734D01*
X0030516Y0125766D01*
X0026957Y0125766D01*
X0026957Y0124575D01*
X0029325Y0122207D01*
X0030516Y0122207D01*
X0030516Y0125766D01*
X0031484Y0125766D01*
X0031484Y0122207D01*
X0032675Y0122207D01*
X0035043Y0124575D01*
X0035043Y0125766D01*
X0031484Y0125766D01*
X0031484Y0126734D01*
X0035043Y0126734D01*
X0035043Y0127925D01*
X0032675Y0130293D01*
X0032781Y0130187D02*
X0068059Y0130187D01*
X0068059Y0129189D02*
X0033779Y0129189D01*
X0034778Y0128190D02*
X0068059Y0128190D01*
X0068059Y0127192D02*
X0035043Y0127192D01*
X0035043Y0125195D02*
X0068059Y0125195D01*
X0068059Y0126193D02*
X0031484Y0126193D01*
X0030516Y0126193D02*
X0024846Y0126193D01*
X0024846Y0125195D02*
X0026957Y0125195D01*
X0027336Y0124196D02*
X0024386Y0124196D01*
X0024846Y0124657D02*
X0022593Y0122404D01*
X0019407Y0122404D01*
X0017154Y0124657D01*
X0017154Y0127843D01*
X0019407Y0130096D01*
X0022593Y0130096D01*
X0024846Y0127843D01*
X0024846Y0124657D01*
X0023388Y0123198D02*
X0028334Y0123198D01*
X0030516Y0123198D02*
X0031484Y0123198D01*
X0031484Y0124196D02*
X0030516Y0124196D01*
X0030516Y0125195D02*
X0031484Y0125195D01*
X0030516Y0126734D02*
X0026957Y0126734D01*
X0026957Y0127925D01*
X0029325Y0130293D01*
X0030516Y0130293D01*
X0030516Y0126734D01*
X0030516Y0127192D02*
X0031484Y0127192D01*
X0031484Y0128190D02*
X0030516Y0128190D01*
X0030516Y0129189D02*
X0031484Y0129189D01*
X0031484Y0130187D02*
X0030516Y0130187D01*
X0029219Y0130187D02*
X0015791Y0130187D01*
X0015791Y0129189D02*
X0018499Y0129189D01*
X0017501Y0128190D02*
X0015791Y0128190D01*
X0015791Y0127192D02*
X0017154Y0127192D01*
X0017154Y0126193D02*
X0015791Y0126193D01*
X0015791Y0125195D02*
X0017154Y0125195D01*
X0017614Y0124196D02*
X0015791Y0124196D01*
X0015791Y0123198D02*
X0018612Y0123198D01*
X0015791Y0122199D02*
X0068059Y0122199D01*
X0068059Y0121201D02*
X0015791Y0121201D01*
X0015791Y0120202D02*
X0029234Y0120202D01*
X0029325Y0120293D02*
X0026957Y0117925D01*
X0026957Y0116734D01*
X0030516Y0116734D01*
X0030516Y0115766D01*
X0026957Y0115766D01*
X0026957Y0114575D01*
X0029325Y0112207D01*
X0030516Y0112207D01*
X0030516Y0115766D01*
X0031484Y0115766D01*
X0031484Y0112207D01*
X0032675Y0112207D01*
X0035043Y0114575D01*
X0035043Y0115766D01*
X0031484Y0115766D01*
X0031484Y0116734D01*
X0030516Y0116734D01*
X0030516Y0120293D01*
X0029325Y0120293D01*
X0030516Y0120202D02*
X0031484Y0120202D01*
X0031484Y0120293D02*
X0031484Y0116734D01*
X0035043Y0116734D01*
X0035043Y0117925D01*
X0032675Y0120293D01*
X0031484Y0120293D01*
X0031484Y0119204D02*
X0030516Y0119204D01*
X0030516Y0118205D02*
X0031484Y0118205D01*
X0031484Y0117207D02*
X0030516Y0117207D01*
X0030516Y0116208D02*
X0024846Y0116208D01*
X0024846Y0115210D02*
X0026957Y0115210D01*
X0027321Y0114211D02*
X0024401Y0114211D01*
X0024846Y0114657D02*
X0022593Y0112404D01*
X0019407Y0112404D01*
X0017154Y0114657D01*
X0017154Y0117843D01*
X0019407Y0120096D01*
X0022593Y0120096D01*
X0024846Y0117843D01*
X0024846Y0114657D01*
X0023402Y0113213D02*
X0028319Y0113213D01*
X0029318Y0112214D02*
X0015791Y0112214D01*
X0015791Y0111216D02*
X0068059Y0111216D01*
X0068059Y0112214D02*
X0032682Y0112214D01*
X0031484Y0112214D02*
X0030516Y0112214D01*
X0030516Y0113213D02*
X0031484Y0113213D01*
X0031484Y0114211D02*
X0030516Y0114211D01*
X0030516Y0115210D02*
X0031484Y0115210D01*
X0031484Y0116208D02*
X0068059Y0116208D01*
X0068059Y0115210D02*
X0035043Y0115210D01*
X0034679Y0114211D02*
X0068059Y0114211D01*
X0068059Y0113213D02*
X0033681Y0113213D01*
X0032675Y0110293D02*
X0031484Y0110293D01*
X0031484Y0106734D01*
X0030516Y0106734D01*
X0030516Y0105766D01*
X0026957Y0105766D01*
X0026957Y0104575D01*
X0029325Y0102207D01*
X0030516Y0102207D01*
X0030516Y0105766D01*
X0031484Y0105766D01*
X0031484Y0102207D01*
X0032675Y0102207D01*
X0035043Y0104575D01*
X0035043Y0105766D01*
X0031484Y0105766D01*
X0031484Y0106734D01*
X0035043Y0106734D01*
X0035043Y0107925D01*
X0032675Y0110293D01*
X0032751Y0110217D02*
X0068059Y0110217D01*
X0068059Y0109219D02*
X0033749Y0109219D01*
X0034748Y0108220D02*
X0068059Y0108220D01*
X0068059Y0107222D02*
X0035043Y0107222D01*
X0035043Y0105225D02*
X0068059Y0105225D01*
X0068059Y0106223D02*
X0031484Y0106223D01*
X0030516Y0106223D02*
X0024846Y0106223D01*
X0024846Y0105225D02*
X0026957Y0105225D01*
X0027306Y0104226D02*
X0024416Y0104226D01*
X0024846Y0104657D02*
X0022593Y0102404D01*
X0019407Y0102404D01*
X0017154Y0104657D01*
X0017154Y0107843D01*
X0019407Y0110096D01*
X0022593Y0110096D01*
X0024846Y0107843D01*
X0024846Y0104657D01*
X0023417Y0103228D02*
X0028304Y0103228D01*
X0029303Y0102229D02*
X0015791Y0102229D01*
X0015791Y0101231D02*
X0068059Y0101231D01*
X0068059Y0102229D02*
X0032697Y0102229D01*
X0031484Y0102229D02*
X0030516Y0102229D01*
X0030516Y0103228D02*
X0031484Y0103228D01*
X0031484Y0104226D02*
X0030516Y0104226D01*
X0030516Y0105225D02*
X0031484Y0105225D01*
X0030516Y0106734D02*
X0026957Y0106734D01*
X0026957Y0107925D01*
X0029325Y0110293D01*
X0030516Y0110293D01*
X0030516Y0106734D01*
X0030516Y0107222D02*
X0031484Y0107222D01*
X0031484Y0108220D02*
X0030516Y0108220D01*
X0030516Y0109219D02*
X0031484Y0109219D01*
X0031484Y0110217D02*
X0030516Y0110217D01*
X0029249Y0110217D02*
X0015791Y0110217D01*
X0015791Y0109219D02*
X0018529Y0109219D01*
X0017530Y0108220D02*
X0015791Y0108220D01*
X0015791Y0107222D02*
X0017154Y0107222D01*
X0017154Y0106223D02*
X0015791Y0106223D01*
X0015791Y0105225D02*
X0017154Y0105225D01*
X0017584Y0104226D02*
X0015791Y0104226D01*
X0015791Y0103228D02*
X0018583Y0103228D01*
X0019407Y0100096D02*
X0017154Y0097843D01*
X0017154Y0094657D01*
X0019407Y0092404D01*
X0022593Y0092404D01*
X0024846Y0094657D01*
X0024846Y0097843D01*
X0022593Y0100096D01*
X0019407Y0100096D01*
X0018544Y0099234D02*
X0015791Y0099234D01*
X0015791Y0100232D02*
X0029264Y0100232D01*
X0029325Y0100293D02*
X0026957Y0097925D01*
X0026957Y0096734D01*
X0030516Y0096734D01*
X0030516Y0095766D01*
X0026957Y0095766D01*
X0026957Y0094575D01*
X0029325Y0092207D01*
X0030516Y0092207D01*
X0030516Y0095766D01*
X0031484Y0095766D01*
X0031484Y0092207D01*
X0032675Y0092207D01*
X0035043Y0094575D01*
X0035043Y0095766D01*
X0031484Y0095766D01*
X0031484Y0096734D01*
X0030516Y0096734D01*
X0030516Y0100293D01*
X0029325Y0100293D01*
X0030516Y0100232D02*
X0031484Y0100232D01*
X0031484Y0100293D02*
X0031484Y0096734D01*
X0035043Y0096734D01*
X0035043Y0097925D01*
X0032675Y0100293D01*
X0031484Y0100293D01*
X0031484Y0099234D02*
X0030516Y0099234D01*
X0030516Y0098235D02*
X0031484Y0098235D01*
X0031484Y0097237D02*
X0030516Y0097237D01*
X0030516Y0096238D02*
X0024846Y0096238D01*
X0024846Y0095240D02*
X0026957Y0095240D01*
X0027291Y0094241D02*
X0024431Y0094241D01*
X0023432Y0093243D02*
X0028289Y0093243D01*
X0029288Y0092244D02*
X0015791Y0092244D01*
X0015791Y0093243D02*
X0018568Y0093243D01*
X0017569Y0094241D02*
X0015791Y0094241D01*
X0015791Y0095240D02*
X0017154Y0095240D01*
X0017154Y0096238D02*
X0015791Y0096238D01*
X0015791Y0097237D02*
X0017154Y0097237D01*
X0017545Y0098235D02*
X0015791Y0098235D01*
X0023456Y0099234D02*
X0028265Y0099234D01*
X0027267Y0098235D02*
X0024455Y0098235D01*
X0024846Y0097237D02*
X0026957Y0097237D01*
X0030516Y0095240D02*
X0031484Y0095240D01*
X0031484Y0096238D02*
X0068059Y0096238D01*
X0068059Y0095240D02*
X0035043Y0095240D01*
X0034709Y0094241D02*
X0068059Y0094241D01*
X0068059Y0093243D02*
X0033711Y0093243D01*
X0032712Y0092244D02*
X0068059Y0092244D01*
X0068059Y0091245D02*
X0015791Y0091245D01*
X0015791Y0090247D02*
X0029279Y0090247D01*
X0029325Y0090293D02*
X0026957Y0087925D01*
X0026957Y0086734D01*
X0030516Y0086734D01*
X0030516Y0085766D01*
X0026957Y0085766D01*
X0026957Y0084575D01*
X0029325Y0082207D01*
X0030516Y0082207D01*
X0030516Y0085766D01*
X0031484Y0085766D01*
X0031484Y0082207D01*
X0032675Y0082207D01*
X0035043Y0084575D01*
X0035043Y0085766D01*
X0031484Y0085766D01*
X0031484Y0086734D01*
X0030516Y0086734D01*
X0030516Y0090293D01*
X0029325Y0090293D01*
X0030516Y0090247D02*
X0031484Y0090247D01*
X0031484Y0090293D02*
X0031484Y0086734D01*
X0035043Y0086734D01*
X0035043Y0087925D01*
X0032675Y0090293D01*
X0031484Y0090293D01*
X0031484Y0089248D02*
X0030516Y0089248D01*
X0030516Y0088250D02*
X0031484Y0088250D01*
X0031484Y0087251D02*
X0030516Y0087251D01*
X0030516Y0086253D02*
X0024846Y0086253D01*
X0024846Y0087251D02*
X0026957Y0087251D01*
X0027282Y0088250D02*
X0024440Y0088250D01*
X0024846Y0087843D02*
X0022593Y0090096D01*
X0019407Y0090096D01*
X0017154Y0087843D01*
X0017154Y0084657D01*
X0019407Y0082404D01*
X0022593Y0082404D01*
X0024846Y0084657D01*
X0024846Y0087843D01*
X0023441Y0089248D02*
X0028280Y0089248D01*
X0030516Y0092244D02*
X0031484Y0092244D01*
X0031484Y0093243D02*
X0030516Y0093243D01*
X0030516Y0094241D02*
X0031484Y0094241D01*
X0032721Y0090247D02*
X0068059Y0090247D01*
X0068059Y0089248D02*
X0033720Y0089248D01*
X0034718Y0088250D02*
X0068059Y0088250D01*
X0068059Y0087251D02*
X0035043Y0087251D01*
X0035043Y0085254D02*
X0068059Y0085254D01*
X0068059Y0084256D02*
X0034724Y0084256D01*
X0033725Y0083257D02*
X0068059Y0083257D01*
X0068059Y0082259D02*
X0032727Y0082259D01*
X0031484Y0082259D02*
X0030516Y0082259D01*
X0030516Y0083257D02*
X0031484Y0083257D01*
X0031484Y0084256D02*
X0030516Y0084256D01*
X0030516Y0085254D02*
X0031484Y0085254D01*
X0031484Y0086253D02*
X0068059Y0086253D01*
X0068059Y0081260D02*
X0015791Y0081260D01*
X0015791Y0080262D02*
X0029294Y0080262D01*
X0029325Y0080293D02*
X0026957Y0077925D01*
X0026957Y0076734D01*
X0030516Y0076734D01*
X0030516Y0075766D01*
X0026957Y0075766D01*
X0026957Y0074575D01*
X0029325Y0072207D01*
X0030516Y0072207D01*
X0030516Y0075766D01*
X0031484Y0075766D01*
X0031484Y0072207D01*
X0032675Y0072207D01*
X0035043Y0074575D01*
X0035043Y0075766D01*
X0031484Y0075766D01*
X0031484Y0076734D01*
X0030516Y0076734D01*
X0030516Y0080293D01*
X0029325Y0080293D01*
X0030516Y0080262D02*
X0031484Y0080262D01*
X0031484Y0080293D02*
X0031484Y0076734D01*
X0035043Y0076734D01*
X0035043Y0077925D01*
X0032675Y0080293D01*
X0031484Y0080293D01*
X0031484Y0079263D02*
X0030516Y0079263D01*
X0030516Y0078265D02*
X0031484Y0078265D01*
X0031484Y0077266D02*
X0030516Y0077266D01*
X0030516Y0076268D02*
X0024846Y0076268D01*
X0024846Y0077266D02*
X0026957Y0077266D01*
X0027297Y0078265D02*
X0024425Y0078265D01*
X0024846Y0077843D02*
X0022593Y0080096D01*
X0019407Y0080096D01*
X0017154Y0077843D01*
X0017154Y0074657D01*
X0019407Y0072404D01*
X0022593Y0072404D01*
X0024846Y0074657D01*
X0024846Y0077843D01*
X0023426Y0079263D02*
X0028295Y0079263D01*
X0029273Y0082259D02*
X0015791Y0082259D01*
X0015791Y0083257D02*
X0018553Y0083257D01*
X0017554Y0084256D02*
X0015791Y0084256D01*
X0015791Y0085254D02*
X0017154Y0085254D01*
X0017154Y0086253D02*
X0015791Y0086253D01*
X0015791Y0087251D02*
X0017154Y0087251D01*
X0017560Y0088250D02*
X0015791Y0088250D01*
X0015791Y0089248D02*
X0018559Y0089248D01*
X0024846Y0085254D02*
X0026957Y0085254D01*
X0027276Y0084256D02*
X0024446Y0084256D01*
X0023447Y0083257D02*
X0028275Y0083257D01*
X0032706Y0080262D02*
X0068059Y0080262D01*
X0068059Y0079263D02*
X0033705Y0079263D01*
X0034703Y0078265D02*
X0068059Y0078265D01*
X0068059Y0077266D02*
X0035043Y0077266D01*
X0035043Y0075269D02*
X0068059Y0075269D01*
X0068059Y0074271D02*
X0034739Y0074271D01*
X0033740Y0073272D02*
X0068462Y0073272D01*
X0069460Y0072274D02*
X0032742Y0072274D01*
X0031484Y0072274D02*
X0030516Y0072274D01*
X0030516Y0073272D02*
X0031484Y0073272D01*
X0031484Y0074271D02*
X0030516Y0074271D01*
X0030516Y0075269D02*
X0031484Y0075269D01*
X0031484Y0076268D02*
X0068059Y0076268D01*
X0073373Y0076268D02*
X0094184Y0076268D01*
X0094390Y0075269D02*
X0074371Y0075269D01*
X0075370Y0074271D02*
X0095153Y0074271D01*
X0098097Y0074271D02*
X0100153Y0074271D01*
X0099390Y0075269D02*
X0098860Y0075269D01*
X0099066Y0076268D02*
X0099184Y0076268D01*
X0103097Y0074271D02*
X0105153Y0074271D01*
X0104390Y0075269D02*
X0103860Y0075269D01*
X0104066Y0076268D02*
X0104184Y0076268D01*
X0108097Y0074271D02*
X0110153Y0074271D01*
X0109390Y0075269D02*
X0108860Y0075269D01*
X0109066Y0076268D02*
X0109184Y0076268D01*
X0113097Y0074271D02*
X0115153Y0074271D01*
X0114390Y0075269D02*
X0113860Y0075269D01*
X0114066Y0076268D02*
X0114184Y0076268D01*
X0118097Y0074271D02*
X0120153Y0074271D01*
X0119390Y0075269D02*
X0118860Y0075269D01*
X0119066Y0076268D02*
X0119184Y0076268D01*
X0123097Y0074271D02*
X0125153Y0074271D01*
X0124390Y0075269D02*
X0123860Y0075269D01*
X0124066Y0076268D02*
X0124184Y0076268D01*
X0126002Y0079263D02*
X0134934Y0079263D01*
X0134934Y0078265D02*
X0128062Y0078265D01*
X0128846Y0077266D02*
X0134934Y0077266D01*
X0134934Y0076268D02*
X0129066Y0076268D01*
X0128860Y0075269D02*
X0134934Y0075269D01*
X0134934Y0074271D02*
X0128097Y0074271D01*
X0125004Y0080262D02*
X0134934Y0080262D01*
X0134934Y0081260D02*
X0124005Y0081260D01*
X0123007Y0082259D02*
X0134934Y0082259D01*
X0134934Y0083257D02*
X0122008Y0083257D01*
X0121010Y0084256D02*
X0134934Y0084256D01*
X0134934Y0085254D02*
X0120011Y0085254D01*
X0119013Y0086253D02*
X0135487Y0086253D01*
X0136486Y0087251D02*
X0118014Y0087251D01*
X0117016Y0088250D02*
X0137484Y0088250D01*
X0138483Y0089248D02*
X0116017Y0089248D01*
X0115019Y0090247D02*
X0139481Y0090247D01*
X0140480Y0091245D02*
X0114020Y0091245D01*
X0113022Y0092244D02*
X0141478Y0092244D01*
X0142477Y0093243D02*
X0112023Y0093243D01*
X0112822Y0102229D02*
X0115428Y0102229D01*
X0114459Y0103228D02*
X0113791Y0103228D01*
X0114066Y0104226D02*
X0114184Y0104226D01*
X0114335Y0105225D02*
X0113915Y0105225D01*
X0113316Y0106223D02*
X0114934Y0106223D01*
X0114934Y0107222D02*
X0113316Y0107222D01*
X0113316Y0108220D02*
X0114934Y0108220D01*
X0114934Y0109219D02*
X0113316Y0109219D01*
X0113316Y0110217D02*
X0114934Y0110217D01*
X0114934Y0111216D02*
X0113316Y0111216D01*
X0113316Y0112214D02*
X0114934Y0112214D01*
X0114934Y0113213D02*
X0113316Y0113213D01*
X0113316Y0114211D02*
X0114934Y0114211D01*
X0114934Y0115210D02*
X0113316Y0115210D01*
X0113316Y0116208D02*
X0114934Y0116208D01*
X0114934Y0117207D02*
X0113316Y0117207D01*
X0113316Y0118205D02*
X0114934Y0118205D01*
X0114934Y0119204D02*
X0113316Y0119204D01*
X0113316Y0120202D02*
X0114934Y0120202D01*
X0114934Y0121201D02*
X0113316Y0121201D01*
X0113316Y0122199D02*
X0114934Y0122199D01*
X0114934Y0123198D02*
X0113316Y0123198D01*
X0113837Y0124196D02*
X0114934Y0124196D01*
X0114934Y0125195D02*
X0114836Y0125195D01*
X0118316Y0125195D02*
X0119934Y0125195D01*
X0119934Y0126193D02*
X0118959Y0126193D01*
X0118316Y0124196D02*
X0119934Y0124196D01*
X0119934Y0123198D02*
X0118316Y0123198D01*
X0118316Y0122199D02*
X0119934Y0122199D01*
X0119934Y0121201D02*
X0118316Y0121201D01*
X0118316Y0120202D02*
X0119934Y0120202D01*
X0119934Y0119204D02*
X0118316Y0119204D01*
X0118316Y0118205D02*
X0119934Y0118205D01*
X0119934Y0117207D02*
X0118316Y0117207D01*
X0118316Y0116208D02*
X0119934Y0116208D01*
X0119934Y0115210D02*
X0118316Y0115210D01*
X0118316Y0114211D02*
X0119934Y0114211D01*
X0119934Y0113213D02*
X0118316Y0113213D01*
X0118316Y0112214D02*
X0119934Y0112214D01*
X0119934Y0111216D02*
X0118316Y0111216D01*
X0118316Y0110217D02*
X0119934Y0110217D01*
X0119934Y0109219D02*
X0118316Y0109219D01*
X0118316Y0108220D02*
X0119934Y0108220D01*
X0119934Y0107222D02*
X0118316Y0107222D01*
X0118316Y0106223D02*
X0119934Y0106223D01*
X0119335Y0105225D02*
X0118915Y0105225D01*
X0119066Y0104226D02*
X0119184Y0104226D01*
X0119459Y0103228D02*
X0118791Y0103228D01*
X0117822Y0102229D02*
X0120428Y0102229D01*
X0122822Y0102229D02*
X0125428Y0102229D01*
X0124459Y0103228D02*
X0123791Y0103228D01*
X0124066Y0104226D02*
X0124184Y0104226D01*
X0124335Y0105225D02*
X0123915Y0105225D01*
X0123316Y0106223D02*
X0124934Y0106223D01*
X0124934Y0107222D02*
X0123316Y0107222D01*
X0123316Y0108220D02*
X0124934Y0108220D01*
X0124934Y0109219D02*
X0123316Y0109219D01*
X0123316Y0110217D02*
X0124934Y0110217D01*
X0124934Y0111216D02*
X0123316Y0111216D01*
X0123316Y0112214D02*
X0124934Y0112214D01*
X0124934Y0113213D02*
X0123316Y0113213D01*
X0123316Y0114211D02*
X0124934Y0114211D01*
X0124934Y0115210D02*
X0123316Y0115210D01*
X0123316Y0116208D02*
X0124934Y0116208D01*
X0124934Y0117207D02*
X0123316Y0117207D01*
X0123316Y0118205D02*
X0124934Y0118205D01*
X0124934Y0119204D02*
X0123316Y0119204D01*
X0123316Y0120202D02*
X0124934Y0120202D01*
X0124934Y0121201D02*
X0123316Y0121201D01*
X0123316Y0122199D02*
X0124934Y0122199D01*
X0124934Y0123198D02*
X0123316Y0123198D01*
X0123316Y0124196D02*
X0124934Y0124196D01*
X0124934Y0125195D02*
X0123316Y0125195D01*
X0123316Y0126193D02*
X0124934Y0126193D01*
X0124934Y0127192D02*
X0123316Y0127192D01*
X0124081Y0128190D02*
X0124934Y0128190D01*
X0128316Y0128190D02*
X0148059Y0128190D01*
X0148059Y0127192D02*
X0128316Y0127192D01*
X0128316Y0126193D02*
X0148059Y0126193D01*
X0148059Y0125195D02*
X0128316Y0125195D01*
X0128316Y0124196D02*
X0148059Y0124196D01*
X0148059Y0123198D02*
X0128316Y0123198D01*
X0128316Y0122199D02*
X0148059Y0122199D01*
X0148059Y0121201D02*
X0128316Y0121201D01*
X0128316Y0120202D02*
X0148059Y0120202D01*
X0148059Y0119204D02*
X0128316Y0119204D01*
X0128316Y0118205D02*
X0148059Y0118205D01*
X0148059Y0117207D02*
X0128316Y0117207D01*
X0128316Y0116208D02*
X0148059Y0116208D01*
X0148059Y0115210D02*
X0128316Y0115210D01*
X0128316Y0114211D02*
X0148059Y0114211D01*
X0148059Y0113213D02*
X0128316Y0113213D01*
X0128316Y0112214D02*
X0148059Y0112214D01*
X0148059Y0111216D02*
X0128316Y0111216D01*
X0128316Y0110217D02*
X0148059Y0110217D01*
X0148059Y0109219D02*
X0128316Y0109219D01*
X0128316Y0108220D02*
X0148059Y0108220D01*
X0148059Y0107222D02*
X0128316Y0107222D01*
X0128316Y0106223D02*
X0148059Y0106223D01*
X0148059Y0105225D02*
X0128915Y0105225D01*
X0129066Y0104226D02*
X0148059Y0104226D01*
X0148059Y0103228D02*
X0128791Y0103228D01*
X0127822Y0102229D02*
X0148059Y0102229D01*
X0148059Y0101231D02*
X0089422Y0101231D01*
X0089403Y0102229D02*
X0095428Y0102229D01*
X0094459Y0103228D02*
X0089384Y0103228D01*
X0089364Y0104226D02*
X0094184Y0104226D01*
X0094335Y0105225D02*
X0089345Y0105225D01*
X0089326Y0106223D02*
X0094934Y0106223D01*
X0094934Y0107222D02*
X0089307Y0107222D01*
X0089288Y0108220D02*
X0094934Y0108220D01*
X0094934Y0109219D02*
X0089268Y0109219D01*
X0089249Y0110217D02*
X0094934Y0110217D01*
X0094934Y0111216D02*
X0089230Y0111216D01*
X0089211Y0112214D02*
X0094934Y0112214D01*
X0094934Y0113213D02*
X0089192Y0113213D01*
X0089172Y0114211D02*
X0094934Y0114211D01*
X0094934Y0115210D02*
X0089153Y0115210D01*
X0089134Y0116208D02*
X0094934Y0116208D01*
X0094934Y0117207D02*
X0089115Y0117207D01*
X0089096Y0118205D02*
X0094934Y0118205D01*
X0094934Y0119204D02*
X0089076Y0119204D01*
X0089057Y0120202D02*
X0095687Y0120202D01*
X0096685Y0121201D02*
X0089038Y0121201D01*
X0089019Y0122199D02*
X0097684Y0122199D01*
X0098682Y0123198D02*
X0089000Y0123198D01*
X0088980Y0124196D02*
X0099681Y0124196D01*
X0100679Y0125195D02*
X0088961Y0125195D01*
X0089584Y0126193D02*
X0101678Y0126193D01*
X0102676Y0127192D02*
X0090583Y0127192D01*
X0091581Y0128190D02*
X0103675Y0128190D01*
X0104673Y0129189D02*
X0092580Y0129189D01*
X0093578Y0130187D02*
X0105672Y0130187D01*
X0106670Y0131186D02*
X0094577Y0131186D01*
X0095575Y0132184D02*
X0107669Y0132184D01*
X0108667Y0133183D02*
X0096574Y0133183D01*
X0097572Y0134181D02*
X0109666Y0134181D01*
X0110664Y0135180D02*
X0098571Y0135180D01*
X0099569Y0136178D02*
X0111663Y0136178D01*
X0112661Y0137177D02*
X0100568Y0137177D01*
X0101566Y0138176D02*
X0113660Y0138176D01*
X0114658Y0139174D02*
X0102565Y0139174D01*
X0103563Y0140173D02*
X0115657Y0140173D01*
X0116655Y0141171D02*
X0104562Y0141171D01*
X0105560Y0142170D02*
X0117654Y0142170D01*
X0118652Y0143168D02*
X0105816Y0143168D01*
X0106456Y0144167D02*
X0119651Y0144167D01*
X0120649Y0145165D02*
X0106456Y0145165D01*
X0106258Y0146164D02*
X0121648Y0146164D01*
X0122646Y0147162D02*
X0105260Y0147162D01*
X0102990Y0147162D02*
X0099010Y0147162D01*
X0100008Y0146164D02*
X0101992Y0146164D01*
X0096740Y0147162D02*
X0092760Y0147162D01*
X0093758Y0146164D02*
X0095742Y0146164D01*
X0090490Y0147162D02*
X0086510Y0147162D01*
X0087508Y0146164D02*
X0089492Y0146164D01*
X0081145Y0148161D02*
X0077484Y0148161D01*
X0077816Y0147162D02*
X0080559Y0147162D01*
X0080559Y0146164D02*
X0077722Y0146164D01*
X0077117Y0145165D02*
X0080368Y0145165D01*
X0079919Y0144167D02*
X0075057Y0144167D01*
X0074059Y0143168D02*
X0079919Y0143168D01*
X0080534Y0142170D02*
X0073316Y0142170D01*
X0073316Y0141171D02*
X0081030Y0141171D01*
X0080032Y0140173D02*
X0073316Y0140173D01*
X0073316Y0139174D02*
X0079033Y0139174D01*
X0078035Y0138176D02*
X0073316Y0138176D01*
X0073316Y0137177D02*
X0077036Y0137177D01*
X0076038Y0136178D02*
X0073316Y0136178D01*
X0073316Y0135180D02*
X0075033Y0135180D01*
X0074304Y0134181D02*
X0073316Y0134181D01*
X0073316Y0133183D02*
X0074309Y0133183D01*
X0074330Y0132184D02*
X0073316Y0132184D01*
X0073316Y0131186D02*
X0074343Y0131186D01*
X0074356Y0130187D02*
X0073316Y0130187D01*
X0073316Y0129189D02*
X0074369Y0129189D01*
X0074382Y0128190D02*
X0073316Y0128190D01*
X0073316Y0127192D02*
X0074396Y0127192D01*
X0074409Y0126193D02*
X0073316Y0126193D01*
X0073316Y0125195D02*
X0074422Y0125195D01*
X0074435Y0124196D02*
X0073316Y0124196D01*
X0073316Y0123198D02*
X0074448Y0123198D01*
X0074461Y0122199D02*
X0073316Y0122199D01*
X0073316Y0121201D02*
X0074474Y0121201D01*
X0074488Y0120202D02*
X0073316Y0120202D01*
X0073316Y0119204D02*
X0074501Y0119204D01*
X0074514Y0118205D02*
X0073316Y0118205D01*
X0073316Y0117207D02*
X0074527Y0117207D01*
X0074540Y0116208D02*
X0073316Y0116208D01*
X0073316Y0115210D02*
X0074553Y0115210D01*
X0074566Y0114211D02*
X0073316Y0114211D01*
X0073316Y0113213D02*
X0074580Y0113213D01*
X0074593Y0112214D02*
X0073316Y0112214D01*
X0073316Y0111216D02*
X0074606Y0111216D01*
X0074619Y0110217D02*
X0073316Y0110217D01*
X0073316Y0109219D02*
X0074632Y0109219D01*
X0074645Y0108220D02*
X0073316Y0108220D01*
X0073316Y0107222D02*
X0074658Y0107222D01*
X0074671Y0106223D02*
X0073316Y0106223D01*
X0073316Y0105225D02*
X0074685Y0105225D01*
X0074698Y0104226D02*
X0073316Y0104226D01*
X0073316Y0103228D02*
X0074711Y0103228D01*
X0074724Y0102229D02*
X0073316Y0102229D01*
X0073316Y0101231D02*
X0074737Y0101231D01*
X0074750Y0100232D02*
X0073316Y0100232D01*
X0073316Y0099234D02*
X0074763Y0099234D01*
X0074777Y0098235D02*
X0073316Y0098235D01*
X0073316Y0097237D02*
X0074790Y0097237D01*
X0074803Y0096238D02*
X0073316Y0096238D01*
X0073316Y0095240D02*
X0074816Y0095240D01*
X0074829Y0094241D02*
X0073316Y0094241D01*
X0073316Y0093243D02*
X0074842Y0093243D01*
X0074855Y0092244D02*
X0073316Y0092244D01*
X0073316Y0091245D02*
X0074869Y0091245D01*
X0074882Y0090247D02*
X0073316Y0090247D01*
X0073316Y0089248D02*
X0074895Y0089248D01*
X0074908Y0088250D02*
X0073316Y0088250D01*
X0073316Y0087251D02*
X0074921Y0087251D01*
X0074934Y0086253D02*
X0073316Y0086253D01*
X0073316Y0085254D02*
X0075224Y0085254D01*
X0076228Y0084256D02*
X0073316Y0084256D01*
X0073316Y0083257D02*
X0077227Y0083257D01*
X0078225Y0082259D02*
X0073316Y0082259D01*
X0073316Y0081260D02*
X0079224Y0081260D01*
X0080222Y0080262D02*
X0073316Y0080262D01*
X0073316Y0079263D02*
X0091221Y0079263D01*
X0092219Y0078265D02*
X0073316Y0078265D01*
X0073316Y0077266D02*
X0093218Y0077266D01*
X0082360Y0067281D02*
X0134934Y0067281D01*
X0134934Y0066283D02*
X0083358Y0066283D01*
X0084357Y0065284D02*
X0134934Y0065284D01*
X0134934Y0064286D02*
X0085355Y0064286D01*
X0086354Y0063287D02*
X0134934Y0063287D01*
X0134934Y0062289D02*
X0087352Y0062289D01*
X0088351Y0061290D02*
X0134934Y0061290D01*
X0134934Y0060292D02*
X0089349Y0060292D01*
X0090348Y0059293D02*
X0134934Y0059293D01*
X0134934Y0058295D02*
X0091346Y0058295D01*
X0092345Y0057296D02*
X0134934Y0057296D01*
X0134934Y0056298D02*
X0093343Y0056298D01*
X0094342Y0055299D02*
X0134934Y0055299D01*
X0134934Y0054301D02*
X0095340Y0054301D01*
X0096339Y0053302D02*
X0134934Y0053302D01*
X0134934Y0052304D02*
X0097337Y0052304D01*
X0098336Y0051305D02*
X0134934Y0051305D01*
X0134934Y0050307D02*
X0099334Y0050307D01*
X0100333Y0049308D02*
X0134934Y0049308D01*
X0134934Y0048309D02*
X0101331Y0048309D01*
X0102330Y0047311D02*
X0134934Y0047311D01*
X0134934Y0046312D02*
X0103328Y0046312D01*
X0104327Y0045314D02*
X0134934Y0045314D01*
X0135544Y0044315D02*
X0105325Y0044315D01*
X0106324Y0043317D02*
X0136542Y0043317D01*
X0137541Y0042318D02*
X0107322Y0042318D01*
X0108321Y0041320D02*
X0138539Y0041320D01*
X0139538Y0040321D02*
X0109319Y0040321D01*
X0110318Y0039323D02*
X0140536Y0039323D01*
X0141535Y0038324D02*
X0111316Y0038324D01*
X0112315Y0037326D02*
X0151684Y0037326D01*
X0151969Y0036327D02*
X0113313Y0036327D01*
X0114312Y0035329D02*
X0152989Y0035329D01*
X0155261Y0035329D02*
X0157989Y0035329D01*
X0156969Y0036327D02*
X0156281Y0036327D01*
X0156566Y0037326D02*
X0156684Y0037326D01*
X0160261Y0035329D02*
X0162989Y0035329D01*
X0161969Y0036327D02*
X0161281Y0036327D01*
X0161566Y0037326D02*
X0161684Y0037326D01*
X0165261Y0035329D02*
X0167989Y0035329D01*
X0166969Y0036327D02*
X0166281Y0036327D01*
X0166566Y0037326D02*
X0166684Y0037326D01*
X0170261Y0035329D02*
X0172989Y0035329D01*
X0171969Y0036327D02*
X0171281Y0036327D01*
X0171566Y0037326D02*
X0171684Y0037326D01*
X0173694Y0040321D02*
X0206431Y0040321D01*
X0205432Y0039323D02*
X0175754Y0039323D01*
X0176425Y0038324D02*
X0204434Y0038324D01*
X0203435Y0037326D02*
X0176566Y0037326D01*
X0176281Y0036327D02*
X0202437Y0036327D01*
X0201438Y0035329D02*
X0175261Y0035329D01*
X0172696Y0041320D02*
X0207429Y0041320D01*
X0208428Y0042318D02*
X0171697Y0042318D01*
X0170699Y0043317D02*
X0209426Y0043317D01*
X0210425Y0044315D02*
X0169700Y0044315D01*
X0168702Y0045314D02*
X0211423Y0045314D01*
X0212422Y0046312D02*
X0167703Y0046312D01*
X0166705Y0047311D02*
X0213420Y0047311D01*
X0214419Y0048309D02*
X0165706Y0048309D01*
X0147833Y0049308D02*
X0215417Y0049308D01*
X0216416Y0050307D02*
X0146834Y0050307D01*
X0145836Y0051305D02*
X0356789Y0051305D01*
X0357788Y0052304D02*
X0145816Y0052304D01*
X0145816Y0053302D02*
X0355730Y0053302D01*
X0356200Y0052832D02*
X0357391Y0052832D01*
X0357391Y0056391D01*
X0353832Y0056391D01*
X0353832Y0055200D01*
X0356200Y0052832D01*
X0357391Y0053302D02*
X0358359Y0053302D01*
X0358359Y0054301D02*
X0357391Y0054301D01*
X0357391Y0055299D02*
X0358359Y0055299D01*
X0358359Y0056298D02*
X0357391Y0056298D01*
X0357391Y0057296D02*
X0145816Y0057296D01*
X0145816Y0056298D02*
X0353832Y0056298D01*
X0353832Y0055299D02*
X0145816Y0055299D01*
X0145816Y0054301D02*
X0354731Y0054301D01*
X0353832Y0057359D02*
X0357391Y0057359D01*
X0357391Y0060918D01*
X0356200Y0060918D01*
X0353832Y0058550D01*
X0353832Y0057359D01*
X0353832Y0058295D02*
X0145816Y0058295D01*
X0145816Y0059293D02*
X0354575Y0059293D01*
X0355574Y0060292D02*
X0145816Y0060292D01*
X0145816Y0061290D02*
X0361809Y0061290D01*
X0361809Y0060292D02*
X0360176Y0060292D01*
X0361175Y0059293D02*
X0361809Y0059293D01*
X0361809Y0062289D02*
X0145816Y0062289D01*
X0145816Y0063287D02*
X0153392Y0063287D01*
X0154858Y0063287D02*
X0158392Y0063287D01*
X0159858Y0063287D02*
X0163392Y0063287D01*
X0164858Y0063287D02*
X0168392Y0063287D01*
X0169858Y0063287D02*
X0173392Y0063287D01*
X0174858Y0063287D02*
X0356023Y0063287D01*
X0356282Y0063029D02*
X0359468Y0063029D01*
X0361721Y0065282D01*
X0361721Y0068468D01*
X0359468Y0070721D01*
X0356282Y0070721D01*
X0354029Y0068468D01*
X0354029Y0065282D01*
X0356282Y0063029D01*
X0355025Y0064286D02*
X0176212Y0064286D01*
X0176566Y0065284D02*
X0354029Y0065284D01*
X0354029Y0066283D02*
X0176494Y0066283D01*
X0175920Y0067281D02*
X0354029Y0067281D01*
X0354029Y0068280D02*
X0175816Y0068280D01*
X0175816Y0069278D02*
X0354839Y0069278D01*
X0355837Y0070277D02*
X0175816Y0070277D01*
X0175816Y0071275D02*
X0377345Y0071275D01*
X0377345Y0070277D02*
X0369913Y0070277D01*
X0370911Y0069278D02*
X0377345Y0069278D01*
X0377345Y0068280D02*
X0371721Y0068280D01*
X0371721Y0067281D02*
X0377345Y0067281D01*
X0377345Y0066283D02*
X0371721Y0066283D01*
X0371721Y0065284D02*
X0377345Y0065284D01*
X0377345Y0064286D02*
X0370725Y0064286D01*
X0369727Y0063287D02*
X0377345Y0063287D01*
X0377345Y0062289D02*
X0365679Y0062289D01*
X0365191Y0061290D02*
X0377345Y0061290D01*
X0377345Y0060292D02*
X0369898Y0060292D01*
X0370897Y0059293D02*
X0377345Y0059293D01*
X0377345Y0058295D02*
X0371721Y0058295D01*
X0371721Y0057296D02*
X0377345Y0057296D01*
X0377345Y0056298D02*
X0371721Y0056298D01*
X0371721Y0055299D02*
X0377345Y0055299D01*
X0377345Y0054301D02*
X0370740Y0054301D01*
X0369742Y0053302D02*
X0377345Y0053302D01*
X0377345Y0052304D02*
X0365694Y0052304D01*
X0364696Y0051305D02*
X0377345Y0051305D01*
X0377345Y0050307D02*
X0363697Y0050307D01*
X0362699Y0049308D02*
X0377345Y0049308D01*
X0377345Y0048309D02*
X0361700Y0048309D01*
X0360702Y0047311D02*
X0377345Y0047311D01*
X0377345Y0046312D02*
X0359703Y0046312D01*
X0360191Y0046800D02*
X0360191Y0046800D01*
X0377345Y0045314D02*
X0219330Y0045314D01*
X0218331Y0044315D02*
X0377345Y0044315D01*
X0377345Y0043317D02*
X0217333Y0043317D01*
X0216334Y0042318D02*
X0377345Y0042318D01*
X0377345Y0041320D02*
X0215336Y0041320D01*
X0214337Y0040321D02*
X0377345Y0040321D01*
X0377345Y0039323D02*
X0213339Y0039323D01*
X0212340Y0038324D02*
X0377345Y0038324D01*
X0377345Y0037326D02*
X0211342Y0037326D01*
X0210343Y0036327D02*
X0358225Y0036327D01*
X0355681Y0035329D02*
X0209345Y0035329D01*
X0208346Y0034330D02*
X0353893Y0034330D01*
X0352641Y0033332D02*
X0315116Y0033332D01*
X0317046Y0032333D02*
X0351388Y0032333D01*
X0350430Y0031335D02*
X0318775Y0031335D01*
X0319818Y0030336D02*
X0349749Y0030336D01*
X0349068Y0029338D02*
X0320817Y0029338D01*
X0321745Y0028339D02*
X0348388Y0028339D01*
X0347872Y0027341D02*
X0322321Y0027341D01*
X0322898Y0026342D02*
X0347564Y0026342D01*
X0347256Y0025344D02*
X0323474Y0025344D01*
X0323813Y0024345D02*
X0346948Y0024345D01*
X0346640Y0023347D02*
X0324080Y0023347D01*
X0324348Y0022348D02*
X0346559Y0022348D01*
X0346559Y0021350D02*
X0324616Y0021350D01*
X0324620Y0020351D02*
X0346559Y0020351D01*
X0346559Y0019353D02*
X0324620Y0019353D01*
X0324620Y0018354D02*
X0346559Y0018354D01*
X0346809Y0017356D02*
X0324604Y0017356D01*
X0324336Y0016357D02*
X0347117Y0016357D01*
X0347425Y0015359D02*
X0324068Y0015359D01*
X0323801Y0014360D02*
X0347733Y0014360D01*
X0348080Y0013362D02*
X0323449Y0013362D01*
X0322872Y0012363D02*
X0348761Y0012363D01*
X0349442Y0011365D02*
X0322296Y0011365D01*
X0321719Y0010366D02*
X0350122Y0010366D01*
X0350823Y0009368D02*
X0320772Y0009368D01*
X0319774Y0008369D02*
X0352075Y0008369D01*
X0353327Y0007371D02*
X0318698Y0007371D01*
X0316968Y0006372D02*
X0354579Y0006372D01*
X0377269Y0028339D02*
X0377345Y0028339D01*
X0377345Y0029338D02*
X0376788Y0029338D01*
X0377345Y0030336D02*
X0376121Y0030336D01*
X0375195Y0031335D02*
X0377345Y0031335D01*
X0377345Y0032333D02*
X0374268Y0032333D01*
X0373342Y0033332D02*
X0377345Y0033332D01*
X0377345Y0034330D02*
X0371768Y0034330D01*
X0370039Y0035329D02*
X0377345Y0035329D01*
X0377345Y0036327D02*
X0367401Y0036327D01*
X0358359Y0058295D02*
X0357391Y0058295D01*
X0357391Y0059293D02*
X0358359Y0059293D01*
X0358359Y0060292D02*
X0357391Y0060292D01*
X0359727Y0063287D02*
X0361896Y0063287D01*
X0362895Y0064286D02*
X0360725Y0064286D01*
X0361721Y0065284D02*
X0363893Y0065284D01*
X0364029Y0066283D02*
X0361721Y0066283D01*
X0361721Y0067281D02*
X0364029Y0067281D01*
X0364029Y0068280D02*
X0361721Y0068280D01*
X0360911Y0069278D02*
X0364839Y0069278D01*
X0365837Y0070277D02*
X0359913Y0070277D01*
X0359468Y0073029D02*
X0361721Y0075282D01*
X0361721Y0078468D01*
X0359468Y0080721D01*
X0356282Y0080721D01*
X0354029Y0078468D01*
X0354029Y0075282D01*
X0356282Y0073029D01*
X0359468Y0073029D01*
X0359712Y0073272D02*
X0366038Y0073272D01*
X0366282Y0073029D02*
X0364029Y0075282D01*
X0364029Y0078468D01*
X0366282Y0080721D01*
X0369468Y0080721D01*
X0371721Y0078468D01*
X0371721Y0075282D01*
X0369468Y0073029D01*
X0366282Y0073029D01*
X0365039Y0074271D02*
X0360710Y0074271D01*
X0361709Y0075269D02*
X0364041Y0075269D01*
X0364029Y0076268D02*
X0361721Y0076268D01*
X0361721Y0077266D02*
X0364029Y0077266D01*
X0364029Y0078265D02*
X0361721Y0078265D01*
X0360926Y0079263D02*
X0364824Y0079263D01*
X0365822Y0080262D02*
X0359928Y0080262D01*
X0359468Y0083029D02*
X0356282Y0083029D01*
X0354029Y0085282D01*
X0354029Y0088468D01*
X0356282Y0090721D01*
X0359468Y0090721D01*
X0361721Y0088468D01*
X0361721Y0085282D01*
X0359468Y0083029D01*
X0359697Y0083257D02*
X0366053Y0083257D01*
X0366282Y0083029D02*
X0369468Y0083029D01*
X0371721Y0085282D01*
X0371721Y0088468D01*
X0369468Y0090721D01*
X0366282Y0090721D01*
X0364029Y0088468D01*
X0364029Y0085282D01*
X0366282Y0083029D01*
X0365054Y0084256D02*
X0360696Y0084256D01*
X0361694Y0085254D02*
X0364056Y0085254D01*
X0364029Y0086253D02*
X0361721Y0086253D01*
X0361721Y0087251D02*
X0364029Y0087251D01*
X0364029Y0088250D02*
X0361721Y0088250D01*
X0360941Y0089248D02*
X0364809Y0089248D01*
X0365807Y0090247D02*
X0359943Y0090247D01*
X0359468Y0093029D02*
X0356282Y0093029D01*
X0354029Y0095282D01*
X0354029Y0097914D01*
X0349541Y0093426D01*
X0348199Y0092084D01*
X0251301Y0092084D01*
X0241926Y0101459D01*
X0240758Y0101459D01*
X0240322Y0101023D01*
X0239140Y0100533D01*
X0237860Y0100533D01*
X0236678Y0101023D01*
X0235773Y0101928D01*
X0235283Y0103110D01*
X0235283Y0104390D01*
X0235773Y0105572D01*
X0236678Y0106477D01*
X0237860Y0106967D01*
X0239140Y0106967D01*
X0240322Y0106477D01*
X0240758Y0106041D01*
X0241926Y0106041D01*
X0310908Y0175023D01*
X0310908Y0175640D01*
X0311398Y0176822D01*
X0312303Y0177727D01*
X0313485Y0178217D01*
X0314765Y0178217D01*
X0315947Y0177727D01*
X0316852Y0176822D01*
X0317342Y0175640D01*
X0317342Y0174360D01*
X0316852Y0173178D01*
X0315947Y0172273D01*
X0314765Y0171783D01*
X0314148Y0171783D01*
X0246114Y0103750D01*
X0253199Y0096666D01*
X0346301Y0096666D01*
X0350320Y0100684D01*
X0349890Y0100684D01*
X0348993Y0101056D01*
X0348306Y0101743D01*
X0347934Y0102640D01*
X0347934Y0103175D01*
X0327300Y0123809D01*
X0326765Y0123809D01*
X0325868Y0124181D01*
X0325181Y0124868D01*
X0324809Y0125765D01*
X0324809Y0126735D01*
X0325181Y0127632D01*
X0325233Y0127684D01*
X0320886Y0127684D01*
X0320507Y0127306D01*
X0319610Y0126934D01*
X0318640Y0126934D01*
X0317743Y0127306D01*
X0317056Y0127993D01*
X0316684Y0128890D01*
X0316684Y0129860D01*
X0317056Y0130757D01*
X0317743Y0131444D01*
X0318640Y0131816D01*
X0319610Y0131816D01*
X0320507Y0131444D01*
X0320886Y0131066D01*
X0328575Y0131066D01*
X0350381Y0109260D01*
X0350515Y0109316D01*
X0351485Y0109316D01*
X0352382Y0108944D01*
X0353069Y0108257D01*
X0353441Y0107360D01*
X0353441Y0106390D01*
X0353069Y0105493D01*
X0352382Y0104806D01*
X0352215Y0104737D01*
X0352444Y0104507D01*
X0352816Y0103610D01*
X0352816Y0103180D01*
X0353801Y0104166D01*
X0354866Y0104166D01*
X0353832Y0105200D01*
X0353832Y0106391D01*
X0357391Y0106391D01*
X0357391Y0107359D01*
X0353832Y0107359D01*
X0353832Y0108550D01*
X0356200Y0110918D01*
X0357391Y0110918D01*
X0357391Y0107359D01*
X0358359Y0107359D01*
X0358359Y0110918D01*
X0359550Y0110918D01*
X0361918Y0108550D01*
X0361918Y0107359D01*
X0358359Y0107359D01*
X0358359Y0106391D01*
X0361918Y0106391D01*
X0361918Y0105200D01*
X0360884Y0104166D01*
X0361926Y0104166D01*
X0364029Y0106268D01*
X0364029Y0108468D01*
X0366282Y0110721D01*
X0369468Y0110721D01*
X0371721Y0108468D01*
X0371721Y0105282D01*
X0369468Y0103029D01*
X0367268Y0103029D01*
X0365166Y0100926D01*
X0363824Y0099584D01*
X0360605Y0099584D01*
X0361721Y0098468D01*
X0361721Y0095282D01*
X0359468Y0093029D01*
X0359682Y0093243D02*
X0366068Y0093243D01*
X0366282Y0093029D02*
X0369468Y0093029D01*
X0371721Y0095282D01*
X0371721Y0098468D01*
X0369468Y0100721D01*
X0366282Y0100721D01*
X0364029Y0098468D01*
X0364029Y0095282D01*
X0366282Y0093029D01*
X0365069Y0094241D02*
X0360681Y0094241D01*
X0361679Y0095240D02*
X0364071Y0095240D01*
X0364029Y0096238D02*
X0361721Y0096238D01*
X0361721Y0097237D02*
X0364029Y0097237D01*
X0364029Y0098235D02*
X0361721Y0098235D01*
X0360956Y0099234D02*
X0364794Y0099234D01*
X0364471Y0100232D02*
X0365792Y0100232D01*
X0365470Y0101231D02*
X0377345Y0101231D01*
X0377345Y0102229D02*
X0366468Y0102229D01*
X0369667Y0103228D02*
X0377345Y0103228D01*
X0377345Y0104226D02*
X0370666Y0104226D01*
X0371664Y0105225D02*
X0377345Y0105225D01*
X0377345Y0106223D02*
X0371721Y0106223D01*
X0371721Y0107222D02*
X0377345Y0107222D01*
X0377345Y0108220D02*
X0371721Y0108220D01*
X0370971Y0109219D02*
X0377345Y0109219D01*
X0377345Y0110217D02*
X0369972Y0110217D01*
X0369468Y0113029D02*
X0371721Y0115282D01*
X0371721Y0118468D01*
X0369468Y0120721D01*
X0366282Y0120721D01*
X0364029Y0118468D01*
X0364029Y0115282D01*
X0366282Y0113029D01*
X0369468Y0113029D01*
X0369652Y0113213D02*
X0377345Y0113213D01*
X0377345Y0114211D02*
X0370651Y0114211D01*
X0371649Y0115210D02*
X0377345Y0115210D01*
X0377345Y0116208D02*
X0371721Y0116208D01*
X0371721Y0117207D02*
X0377345Y0117207D01*
X0377345Y0118205D02*
X0371721Y0118205D01*
X0370986Y0119204D02*
X0377345Y0119204D01*
X0377345Y0120202D02*
X0369987Y0120202D01*
X0365763Y0120202D02*
X0363593Y0120202D01*
X0362595Y0119204D02*
X0364764Y0119204D01*
X0364029Y0118205D02*
X0361721Y0118205D01*
X0361721Y0117207D02*
X0364029Y0117207D01*
X0364029Y0116208D02*
X0361721Y0116208D01*
X0361649Y0115210D02*
X0364101Y0115210D01*
X0365099Y0114211D02*
X0360651Y0114211D01*
X0359652Y0113213D02*
X0366098Y0113213D01*
X0365777Y0110217D02*
X0360251Y0110217D01*
X0361249Y0109219D02*
X0364779Y0109219D01*
X0364029Y0108220D02*
X0361918Y0108220D01*
X0361918Y0106223D02*
X0363984Y0106223D01*
X0364029Y0107222D02*
X0358359Y0107222D01*
X0357391Y0107222D02*
X0353441Y0107222D01*
X0353372Y0106223D02*
X0353832Y0106223D01*
X0353832Y0105225D02*
X0352801Y0105225D01*
X0352561Y0104226D02*
X0354806Y0104226D01*
X0352863Y0103228D02*
X0352816Y0103228D01*
X0349868Y0100232D02*
X0249632Y0100232D01*
X0248634Y0101231D02*
X0348818Y0101231D01*
X0348104Y0102229D02*
X0247635Y0102229D01*
X0246637Y0103228D02*
X0347882Y0103228D01*
X0346883Y0104226D02*
X0246590Y0104226D01*
X0247589Y0105225D02*
X0345885Y0105225D01*
X0344886Y0106223D02*
X0248587Y0106223D01*
X0249586Y0107222D02*
X0343888Y0107222D01*
X0342889Y0108220D02*
X0250584Y0108220D01*
X0251583Y0109219D02*
X0341891Y0109219D01*
X0340892Y0110217D02*
X0252582Y0110217D01*
X0253580Y0111216D02*
X0339893Y0111216D01*
X0338895Y0112214D02*
X0254579Y0112214D01*
X0255577Y0113213D02*
X0337896Y0113213D01*
X0336898Y0114211D02*
X0256576Y0114211D01*
X0257574Y0115210D02*
X0335899Y0115210D01*
X0334901Y0116208D02*
X0258573Y0116208D01*
X0259571Y0117207D02*
X0333902Y0117207D01*
X0332904Y0118205D02*
X0260570Y0118205D01*
X0261568Y0119204D02*
X0331905Y0119204D01*
X0330907Y0120202D02*
X0262567Y0120202D01*
X0263565Y0121201D02*
X0329908Y0121201D01*
X0328910Y0122199D02*
X0264564Y0122199D01*
X0265562Y0123198D02*
X0327911Y0123198D01*
X0325852Y0124196D02*
X0266561Y0124196D01*
X0267559Y0125195D02*
X0325045Y0125195D01*
X0324809Y0126193D02*
X0268558Y0126193D01*
X0269556Y0127192D02*
X0318018Y0127192D01*
X0316974Y0128190D02*
X0270555Y0128190D01*
X0271553Y0129189D02*
X0316684Y0129189D01*
X0316820Y0130187D02*
X0272552Y0130187D01*
X0273550Y0131186D02*
X0317484Y0131186D01*
X0320766Y0131186D02*
X0334298Y0131186D01*
X0333300Y0132184D02*
X0274549Y0132184D01*
X0275547Y0133183D02*
X0332301Y0133183D01*
X0331303Y0134181D02*
X0276546Y0134181D01*
X0277544Y0135180D02*
X0319814Y0135180D01*
X0320130Y0134864D02*
X0321544Y0134279D01*
X0323074Y0134279D01*
X0324488Y0134864D01*
X0325570Y0135946D01*
X0326155Y0137360D01*
X0326155Y0138890D01*
X0325845Y0139639D01*
X0338559Y0126925D01*
X0338559Y0126390D01*
X0338931Y0125493D01*
X0339618Y0124806D01*
X0340515Y0124434D01*
X0341485Y0124434D01*
X0342382Y0124806D01*
X0343069Y0125493D01*
X0343441Y0126390D01*
X0343441Y0127360D01*
X0343069Y0128257D01*
X0342576Y0128750D01*
X0343069Y0129243D01*
X0343441Y0130140D01*
X0343441Y0131110D01*
X0343069Y0132007D01*
X0342382Y0132694D01*
X0341485Y0133066D01*
X0340950Y0133066D01*
X0321441Y0152575D01*
X0321441Y0156175D01*
X0322691Y0157425D01*
X0322691Y0160700D01*
X0320316Y0163075D01*
X0320316Y0163610D01*
X0319944Y0164507D01*
X0319257Y0165194D01*
X0318360Y0165566D01*
X0317390Y0165566D01*
X0316493Y0165194D01*
X0315806Y0164507D01*
X0315434Y0163610D01*
X0315434Y0162640D01*
X0315806Y0161743D01*
X0316299Y0161250D01*
X0315806Y0160757D01*
X0315434Y0159860D01*
X0315434Y0158890D01*
X0315806Y0157993D01*
X0316184Y0157614D01*
X0316184Y0149300D01*
X0323823Y0141661D01*
X0323074Y0141971D01*
X0321544Y0141971D01*
X0320130Y0141386D01*
X0319048Y0140304D01*
X0318463Y0138890D01*
X0318463Y0137360D01*
X0319048Y0135946D01*
X0320130Y0134864D01*
X0318952Y0136178D02*
X0278543Y0136178D01*
X0279541Y0137177D02*
X0318538Y0137177D01*
X0318463Y0138176D02*
X0280540Y0138176D01*
X0281538Y0139174D02*
X0318580Y0139174D01*
X0318994Y0140173D02*
X0282537Y0140173D01*
X0283535Y0141171D02*
X0319915Y0141171D01*
X0322316Y0143168D02*
X0285532Y0143168D01*
X0284534Y0142170D02*
X0323315Y0142170D01*
X0321318Y0144167D02*
X0286531Y0144167D01*
X0287529Y0145165D02*
X0320319Y0145165D01*
X0319321Y0146164D02*
X0288528Y0146164D01*
X0289526Y0147162D02*
X0318322Y0147162D01*
X0317324Y0148161D02*
X0290525Y0148161D01*
X0291523Y0149159D02*
X0316325Y0149159D01*
X0316184Y0150158D02*
X0292522Y0150158D01*
X0293520Y0151156D02*
X0316184Y0151156D01*
X0316184Y0152155D02*
X0294519Y0152155D01*
X0295517Y0153153D02*
X0316184Y0153153D01*
X0316184Y0154152D02*
X0296516Y0154152D01*
X0297515Y0155150D02*
X0316184Y0155150D01*
X0316184Y0156149D02*
X0298513Y0156149D01*
X0299512Y0157147D02*
X0316184Y0157147D01*
X0315743Y0158146D02*
X0300510Y0158146D01*
X0301509Y0159144D02*
X0315434Y0159144D01*
X0315551Y0160143D02*
X0302507Y0160143D01*
X0303506Y0161141D02*
X0316190Y0161141D01*
X0315641Y0162140D02*
X0304504Y0162140D01*
X0305503Y0163138D02*
X0315434Y0163138D01*
X0315652Y0164137D02*
X0306501Y0164137D01*
X0307500Y0165135D02*
X0316434Y0165135D01*
X0319316Y0165135D02*
X0336184Y0165135D01*
X0336184Y0164137D02*
X0320098Y0164137D01*
X0320316Y0163138D02*
X0336184Y0163138D01*
X0336184Y0162140D02*
X0321251Y0162140D01*
X0322250Y0161141D02*
X0336184Y0161141D01*
X0336184Y0160143D02*
X0322691Y0160143D01*
X0322691Y0159144D02*
X0336184Y0159144D01*
X0336184Y0158146D02*
X0322691Y0158146D01*
X0322413Y0157147D02*
X0336184Y0157147D01*
X0336184Y0156149D02*
X0321441Y0156149D01*
X0321441Y0155150D02*
X0336184Y0155150D01*
X0336184Y0154152D02*
X0321441Y0154152D01*
X0321441Y0153153D02*
X0336184Y0153153D01*
X0336184Y0152155D02*
X0321861Y0152155D01*
X0322860Y0151156D02*
X0336184Y0151156D01*
X0336184Y0150158D02*
X0323858Y0150158D01*
X0324857Y0149159D02*
X0336184Y0149159D01*
X0336184Y0148161D02*
X0325855Y0148161D01*
X0326854Y0147162D02*
X0336447Y0147162D01*
X0337446Y0146164D02*
X0327852Y0146164D01*
X0328851Y0145165D02*
X0338444Y0145165D01*
X0339443Y0144167D02*
X0329849Y0144167D01*
X0330848Y0143168D02*
X0340441Y0143168D01*
X0341440Y0142170D02*
X0331846Y0142170D01*
X0332845Y0141171D02*
X0342438Y0141171D01*
X0343437Y0140173D02*
X0333843Y0140173D01*
X0334842Y0139174D02*
X0344435Y0139174D01*
X0345434Y0138176D02*
X0335840Y0138176D01*
X0336839Y0137177D02*
X0346432Y0137177D01*
X0347431Y0136178D02*
X0337837Y0136178D01*
X0338836Y0135180D02*
X0348429Y0135180D01*
X0349428Y0134181D02*
X0339834Y0134181D01*
X0340833Y0133183D02*
X0350426Y0133183D01*
X0351425Y0132184D02*
X0342892Y0132184D01*
X0343409Y0131186D02*
X0352423Y0131186D01*
X0353422Y0130187D02*
X0343441Y0130187D01*
X0343015Y0129189D02*
X0354420Y0129189D01*
X0355419Y0128190D02*
X0343097Y0128190D01*
X0343441Y0127192D02*
X0356417Y0127192D01*
X0357416Y0126193D02*
X0343359Y0126193D01*
X0342771Y0125195D02*
X0357934Y0125195D01*
X0358352Y0124196D02*
X0335444Y0124196D01*
X0334446Y0125195D02*
X0339229Y0125195D01*
X0338641Y0126193D02*
X0333447Y0126193D01*
X0332449Y0127192D02*
X0338292Y0127192D01*
X0337294Y0128190D02*
X0331450Y0128190D01*
X0330452Y0129189D02*
X0336295Y0129189D01*
X0335297Y0130187D02*
X0329453Y0130187D01*
X0330304Y0135180D02*
X0324804Y0135180D01*
X0325666Y0136178D02*
X0329306Y0136178D01*
X0328307Y0137177D02*
X0326080Y0137177D01*
X0326155Y0138176D02*
X0327309Y0138176D01*
X0326310Y0139174D02*
X0326038Y0139174D01*
X0340230Y0148161D02*
X0342434Y0148161D01*
X0342434Y0149159D02*
X0339566Y0149159D01*
X0339566Y0150158D02*
X0342434Y0150158D01*
X0342434Y0151156D02*
X0339566Y0151156D01*
X0339566Y0152155D02*
X0342434Y0152155D01*
X0342434Y0153153D02*
X0339566Y0153153D01*
X0339566Y0154152D02*
X0342434Y0154152D01*
X0342434Y0155150D02*
X0339566Y0155150D01*
X0339566Y0156149D02*
X0342434Y0156149D01*
X0342434Y0157147D02*
X0339566Y0157147D01*
X0339566Y0158146D02*
X0342434Y0158146D01*
X0342434Y0159144D02*
X0339566Y0159144D01*
X0339566Y0160143D02*
X0342434Y0160143D01*
X0342434Y0161141D02*
X0339566Y0161141D01*
X0339566Y0162140D02*
X0342434Y0162140D01*
X0342434Y0163138D02*
X0339566Y0163138D01*
X0339566Y0164137D02*
X0342434Y0164137D01*
X0342434Y0165135D02*
X0339566Y0165135D01*
X0339566Y0166134D02*
X0342434Y0166134D01*
X0342434Y0167132D02*
X0339566Y0167132D01*
X0339566Y0168131D02*
X0342434Y0168131D01*
X0342434Y0169129D02*
X0339566Y0169129D01*
X0339566Y0170128D02*
X0342434Y0170128D01*
X0342434Y0171126D02*
X0339566Y0171126D01*
X0339566Y0172125D02*
X0342434Y0172125D01*
X0342434Y0173123D02*
X0339566Y0173123D01*
X0339566Y0174122D02*
X0342434Y0174122D01*
X0342434Y0175120D02*
X0339566Y0175120D01*
X0339566Y0176119D02*
X0342434Y0176119D01*
X0342306Y0177117D02*
X0339694Y0177117D01*
X0340254Y0178116D02*
X0341746Y0178116D01*
X0341684Y0179114D02*
X0340316Y0179114D01*
X0339952Y0180113D02*
X0342048Y0180113D01*
X0343449Y0181112D02*
X0338551Y0181112D01*
X0337199Y0181112D02*
X0250060Y0181112D01*
X0250831Y0180113D02*
X0335798Y0180113D01*
X0335434Y0179114D02*
X0253307Y0179114D01*
X0254306Y0178116D02*
X0313242Y0178116D01*
X0315008Y0178116D02*
X0335496Y0178116D01*
X0336056Y0177117D02*
X0316556Y0177117D01*
X0317143Y0176119D02*
X0336184Y0176119D01*
X0336184Y0175120D02*
X0317342Y0175120D01*
X0317243Y0174122D02*
X0336184Y0174122D01*
X0336184Y0173123D02*
X0316797Y0173123D01*
X0315589Y0172125D02*
X0336184Y0172125D01*
X0336184Y0171126D02*
X0313491Y0171126D01*
X0312492Y0170128D02*
X0336184Y0170128D01*
X0336184Y0169129D02*
X0311494Y0169129D01*
X0310495Y0168131D02*
X0336184Y0168131D01*
X0336184Y0167132D02*
X0309497Y0167132D01*
X0308498Y0166134D02*
X0336184Y0166134D01*
X0345816Y0166134D02*
X0357459Y0166134D01*
X0357459Y0167132D02*
X0345816Y0167132D01*
X0345816Y0168131D02*
X0357459Y0168131D01*
X0357459Y0169129D02*
X0345816Y0169129D01*
X0345816Y0170128D02*
X0357459Y0170128D01*
X0357459Y0171126D02*
X0345816Y0171126D01*
X0345816Y0172125D02*
X0357459Y0172125D01*
X0357459Y0173123D02*
X0345816Y0173123D01*
X0345816Y0174122D02*
X0353616Y0174122D01*
X0352620Y0175120D02*
X0345816Y0175120D01*
X0345816Y0176119D02*
X0352207Y0176119D01*
X0352158Y0177117D02*
X0345944Y0177117D01*
X0346504Y0178116D02*
X0352407Y0178116D01*
X0353066Y0179114D02*
X0346566Y0179114D01*
X0346202Y0180113D02*
X0357459Y0180113D01*
X0357459Y0181112D02*
X0344801Y0181112D01*
X0357459Y0182110D02*
X0247081Y0182110D01*
X0246813Y0183109D02*
X0357459Y0183109D01*
X0357459Y0184107D02*
X0245815Y0184107D01*
X0243685Y0184107D02*
X0126441Y0184107D01*
X0126441Y0183109D02*
X0217343Y0183109D01*
X0216344Y0182110D02*
X0126441Y0182110D01*
X0126441Y0181112D02*
X0215346Y0181112D01*
X0214347Y0180113D02*
X0126441Y0180113D01*
X0126441Y0179114D02*
X0213349Y0179114D01*
X0212434Y0178116D02*
X0126441Y0178116D01*
X0126441Y0177117D02*
X0212434Y0177117D01*
X0212434Y0176119D02*
X0126441Y0176119D01*
X0126441Y0175120D02*
X0212434Y0175120D01*
X0212434Y0174122D02*
X0126441Y0174122D01*
X0126441Y0173123D02*
X0212434Y0173123D01*
X0212434Y0172125D02*
X0126441Y0172125D01*
X0126441Y0171126D02*
X0212434Y0171126D01*
X0212434Y0170128D02*
X0126441Y0170128D01*
X0126441Y0169129D02*
X0133083Y0169129D01*
X0132419Y0168131D02*
X0126441Y0168131D01*
X0126441Y0167132D02*
X0132419Y0167132D01*
X0132819Y0166134D02*
X0126441Y0166134D01*
X0126441Y0165135D02*
X0133059Y0165135D01*
X0133059Y0164137D02*
X0126441Y0164137D01*
X0126441Y0163138D02*
X0133059Y0163138D01*
X0133059Y0162140D02*
X0126441Y0162140D01*
X0126441Y0161141D02*
X0133059Y0161141D01*
X0132502Y0160143D02*
X0126441Y0160143D01*
X0126441Y0159144D02*
X0131503Y0159144D01*
X0130505Y0158146D02*
X0126441Y0158146D01*
X0126441Y0157147D02*
X0129506Y0157147D01*
X0128508Y0156149D02*
X0126441Y0156149D01*
X0127071Y0155150D02*
X0127509Y0155150D01*
X0141185Y0142170D02*
X0148059Y0142170D01*
X0148059Y0143168D02*
X0142184Y0143168D01*
X0143182Y0144167D02*
X0146527Y0144167D01*
X0145683Y0145165D02*
X0144181Y0145165D01*
X0145179Y0146164D02*
X0145434Y0146164D01*
X0148175Y0149159D02*
X0209512Y0149159D01*
X0211238Y0149159D02*
X0212434Y0149159D01*
X0212434Y0150158D02*
X0149173Y0150158D01*
X0150172Y0151156D02*
X0212434Y0151156D01*
X0212434Y0152155D02*
X0151170Y0152155D01*
X0152169Y0153153D02*
X0212434Y0153153D01*
X0212434Y0154152D02*
X0153167Y0154152D01*
X0154166Y0155150D02*
X0212434Y0155150D01*
X0212434Y0156149D02*
X0155165Y0156149D01*
X0156163Y0157147D02*
X0212434Y0157147D01*
X0212434Y0158146D02*
X0157162Y0158146D01*
X0158160Y0159144D02*
X0212434Y0159144D01*
X0212434Y0160143D02*
X0159159Y0160143D01*
X0160157Y0161141D02*
X0212434Y0161141D01*
X0212434Y0162140D02*
X0161156Y0162140D01*
X0162154Y0163138D02*
X0212434Y0163138D01*
X0212434Y0164137D02*
X0163153Y0164137D01*
X0163941Y0165135D02*
X0212434Y0165135D01*
X0212434Y0166134D02*
X0164326Y0166134D01*
X0164691Y0167132D02*
X0212434Y0167132D01*
X0212434Y0168131D02*
X0164630Y0168131D01*
X0164072Y0169129D02*
X0212434Y0169129D01*
X0220816Y0169129D02*
X0222928Y0169129D01*
X0222370Y0168131D02*
X0220816Y0168131D01*
X0220816Y0167132D02*
X0222309Y0167132D01*
X0222674Y0166134D02*
X0220816Y0166134D01*
X0220816Y0165135D02*
X0223059Y0165135D01*
X0223059Y0164137D02*
X0220816Y0164137D01*
X0220816Y0163138D02*
X0223059Y0163138D01*
X0223059Y0162140D02*
X0220816Y0162140D01*
X0220816Y0161141D02*
X0223059Y0161141D01*
X0223059Y0160143D02*
X0220816Y0160143D01*
X0220816Y0159144D02*
X0223059Y0159144D01*
X0223059Y0158146D02*
X0220816Y0158146D01*
X0220816Y0157147D02*
X0223059Y0157147D01*
X0223059Y0156149D02*
X0220816Y0156149D01*
X0220816Y0155150D02*
X0223059Y0155150D01*
X0223059Y0154152D02*
X0220816Y0154152D01*
X0220816Y0153153D02*
X0223059Y0153153D01*
X0223059Y0152155D02*
X0220816Y0152155D01*
X0220816Y0151156D02*
X0223059Y0151156D01*
X0223059Y0150158D02*
X0220816Y0150158D01*
X0220816Y0149159D02*
X0223059Y0149159D01*
X0223059Y0148161D02*
X0220816Y0148161D01*
X0221039Y0147162D02*
X0223059Y0147162D01*
X0223059Y0146164D02*
X0221544Y0146164D01*
X0221566Y0145165D02*
X0222524Y0145165D01*
X0221526Y0144167D02*
X0221118Y0144167D01*
X0220527Y0143168D02*
X0217691Y0143168D01*
X0217691Y0142170D02*
X0219529Y0142170D01*
X0218530Y0141171D02*
X0217691Y0141171D01*
X0212434Y0141950D02*
X0209050Y0138566D01*
X0200925Y0138566D01*
X0200425Y0138066D01*
X0200316Y0138066D01*
X0200316Y0138610D01*
X0199944Y0139507D01*
X0199257Y0140194D01*
X0198360Y0140566D01*
X0197390Y0140566D01*
X0196970Y0140392D01*
X0196819Y0140757D01*
X0196132Y0141444D01*
X0195235Y0141816D01*
X0194265Y0141816D01*
X0193845Y0141642D01*
X0193694Y0142007D01*
X0193007Y0142694D01*
X0192110Y0143066D01*
X0191140Y0143066D01*
X0190243Y0142694D01*
X0189556Y0142007D01*
X0189184Y0141110D01*
X0189184Y0140140D01*
X0189556Y0139243D01*
X0189934Y0138864D01*
X0189934Y0134450D01*
X0153316Y0097831D01*
X0153316Y0144489D01*
X0153500Y0144674D01*
X0153993Y0144181D01*
X0154890Y0143809D01*
X0155425Y0143809D01*
X0158425Y0140809D01*
X0186075Y0140809D01*
X0187066Y0141800D01*
X0188575Y0143309D01*
X0206684Y0143309D01*
X0206684Y0143265D01*
X0207056Y0142368D01*
X0207743Y0141681D01*
X0208640Y0141309D01*
X0209610Y0141309D01*
X0210507Y0141681D01*
X0211194Y0142368D01*
X0211566Y0143265D01*
X0211566Y0144235D01*
X0211392Y0144655D01*
X0211757Y0144806D01*
X0212434Y0145483D01*
X0212434Y0141950D01*
X0212434Y0142170D02*
X0210996Y0142170D01*
X0211526Y0143168D02*
X0212434Y0143168D01*
X0212434Y0144167D02*
X0211566Y0144167D01*
X0212117Y0145165D02*
X0212434Y0145165D01*
X0211655Y0141171D02*
X0196405Y0141171D01*
X0193532Y0142170D02*
X0207254Y0142170D01*
X0206724Y0143168D02*
X0188434Y0143168D01*
X0187435Y0142170D02*
X0189718Y0142170D01*
X0189210Y0141171D02*
X0186437Y0141171D01*
X0187066Y0141800D02*
X0187066Y0141800D01*
X0189184Y0140173D02*
X0153316Y0140173D01*
X0153316Y0141171D02*
X0158063Y0141171D01*
X0157065Y0142170D02*
X0153316Y0142170D01*
X0153316Y0143168D02*
X0156066Y0143168D01*
X0154027Y0144167D02*
X0153316Y0144167D01*
X0153166Y0148161D02*
X0153834Y0148161D01*
X0156916Y0148161D02*
X0157584Y0148161D01*
X0160666Y0148161D02*
X0185520Y0148161D01*
X0184521Y0147162D02*
X0161389Y0147162D01*
X0161602Y0146164D02*
X0183523Y0146164D01*
X0189625Y0139174D02*
X0153316Y0139174D01*
X0153316Y0138176D02*
X0189934Y0138176D01*
X0189934Y0137177D02*
X0153316Y0137177D01*
X0153316Y0136178D02*
X0189934Y0136178D01*
X0189934Y0135180D02*
X0153316Y0135180D01*
X0153316Y0134181D02*
X0189666Y0134181D01*
X0188667Y0133183D02*
X0153316Y0133183D01*
X0153316Y0132184D02*
X0187669Y0132184D01*
X0186670Y0131186D02*
X0153316Y0131186D01*
X0153316Y0130187D02*
X0185672Y0130187D01*
X0184673Y0129189D02*
X0153316Y0129189D01*
X0153316Y0128190D02*
X0183675Y0128190D01*
X0182676Y0127192D02*
X0153316Y0127192D01*
X0153316Y0126193D02*
X0181678Y0126193D01*
X0180679Y0125195D02*
X0153316Y0125195D01*
X0153316Y0124196D02*
X0179681Y0124196D01*
X0178682Y0123198D02*
X0153316Y0123198D01*
X0153316Y0122199D02*
X0177684Y0122199D01*
X0176685Y0121201D02*
X0153316Y0121201D01*
X0153316Y0120202D02*
X0175687Y0120202D01*
X0174688Y0119204D02*
X0153316Y0119204D01*
X0153316Y0118205D02*
X0173690Y0118205D01*
X0172691Y0117207D02*
X0153316Y0117207D01*
X0153316Y0116208D02*
X0171692Y0116208D01*
X0170694Y0115210D02*
X0153316Y0115210D01*
X0153316Y0114211D02*
X0169695Y0114211D01*
X0168697Y0113213D02*
X0153316Y0113213D01*
X0153316Y0112214D02*
X0167698Y0112214D01*
X0166700Y0111216D02*
X0153316Y0111216D01*
X0153316Y0110217D02*
X0165701Y0110217D01*
X0164703Y0109219D02*
X0153316Y0109219D01*
X0153316Y0108220D02*
X0163704Y0108220D01*
X0162706Y0107222D02*
X0153316Y0107222D01*
X0153316Y0106223D02*
X0161707Y0106223D01*
X0160709Y0105225D02*
X0153316Y0105225D01*
X0153316Y0104226D02*
X0159710Y0104226D01*
X0158712Y0103228D02*
X0153316Y0103228D01*
X0153316Y0102229D02*
X0157713Y0102229D01*
X0156715Y0101231D02*
X0153316Y0101231D01*
X0153316Y0100232D02*
X0155716Y0100232D01*
X0154718Y0099234D02*
X0153316Y0099234D01*
X0153316Y0098235D02*
X0153719Y0098235D01*
X0148059Y0099234D02*
X0089460Y0099234D01*
X0089441Y0100232D02*
X0148059Y0100232D01*
X0147469Y0098235D02*
X0089480Y0098235D01*
X0089499Y0097237D02*
X0146471Y0097237D01*
X0145472Y0096238D02*
X0089518Y0096238D01*
X0089537Y0095240D02*
X0144474Y0095240D01*
X0143475Y0094241D02*
X0089775Y0094241D01*
X0097822Y0102229D02*
X0100428Y0102229D01*
X0099459Y0103228D02*
X0098791Y0103228D01*
X0099066Y0104226D02*
X0099184Y0104226D01*
X0099335Y0105225D02*
X0098915Y0105225D01*
X0098316Y0106223D02*
X0099934Y0106223D01*
X0099934Y0107222D02*
X0098316Y0107222D01*
X0098316Y0108220D02*
X0099934Y0108220D01*
X0099934Y0109219D02*
X0098316Y0109219D01*
X0098316Y0110217D02*
X0099934Y0110217D01*
X0099934Y0111216D02*
X0098316Y0111216D01*
X0098316Y0112214D02*
X0099934Y0112214D01*
X0099934Y0113213D02*
X0098316Y0113213D01*
X0098316Y0114211D02*
X0099934Y0114211D01*
X0099934Y0115210D02*
X0098316Y0115210D01*
X0098316Y0116208D02*
X0099934Y0116208D01*
X0099934Y0117207D02*
X0098316Y0117207D01*
X0098471Y0118205D02*
X0099934Y0118205D01*
X0099934Y0119204D02*
X0099470Y0119204D01*
X0103316Y0119204D02*
X0104934Y0119204D01*
X0104934Y0120202D02*
X0103593Y0120202D01*
X0104592Y0121201D02*
X0104934Y0121201D01*
X0104934Y0118205D02*
X0103316Y0118205D01*
X0103316Y0117207D02*
X0104934Y0117207D01*
X0104934Y0116208D02*
X0103316Y0116208D01*
X0103316Y0115210D02*
X0104934Y0115210D01*
X0104934Y0114211D02*
X0103316Y0114211D01*
X0103316Y0113213D02*
X0104934Y0113213D01*
X0104934Y0112214D02*
X0103316Y0112214D01*
X0103316Y0111216D02*
X0104934Y0111216D01*
X0104934Y0110217D02*
X0103316Y0110217D01*
X0103316Y0109219D02*
X0104934Y0109219D01*
X0104934Y0108220D02*
X0103316Y0108220D01*
X0103316Y0107222D02*
X0104934Y0107222D01*
X0104934Y0106223D02*
X0103316Y0106223D01*
X0103915Y0105225D02*
X0104335Y0105225D01*
X0104184Y0104226D02*
X0104066Y0104226D01*
X0103791Y0103228D02*
X0104459Y0103228D01*
X0105428Y0102229D02*
X0102822Y0102229D01*
X0107822Y0102229D02*
X0110428Y0102229D01*
X0109459Y0103228D02*
X0108791Y0103228D01*
X0109066Y0104226D02*
X0109184Y0104226D01*
X0109335Y0105225D02*
X0108915Y0105225D01*
X0108316Y0106223D02*
X0109934Y0106223D01*
X0109934Y0107222D02*
X0108316Y0107222D01*
X0108316Y0108220D02*
X0109934Y0108220D01*
X0109934Y0109219D02*
X0108316Y0109219D01*
X0108316Y0110217D02*
X0109934Y0110217D01*
X0109934Y0111216D02*
X0108316Y0111216D01*
X0108316Y0112214D02*
X0109934Y0112214D01*
X0109934Y0113213D02*
X0108316Y0113213D01*
X0108316Y0114211D02*
X0109934Y0114211D01*
X0109934Y0115210D02*
X0108316Y0115210D01*
X0108316Y0116208D02*
X0109934Y0116208D01*
X0109934Y0117207D02*
X0108316Y0117207D01*
X0108316Y0118205D02*
X0109934Y0118205D01*
X0109934Y0119204D02*
X0108316Y0119204D01*
X0108316Y0120202D02*
X0109934Y0120202D01*
X0109934Y0121201D02*
X0108316Y0121201D01*
X0108715Y0122199D02*
X0109934Y0122199D01*
X0109934Y0123198D02*
X0109714Y0123198D01*
X0128316Y0129189D02*
X0148059Y0129189D01*
X0148059Y0130187D02*
X0129203Y0130187D01*
X0130202Y0131186D02*
X0148059Y0131186D01*
X0148059Y0132184D02*
X0131200Y0132184D01*
X0132199Y0133183D02*
X0148059Y0133183D01*
X0148059Y0134181D02*
X0133197Y0134181D01*
X0134196Y0135180D02*
X0148059Y0135180D01*
X0148059Y0136178D02*
X0135194Y0136178D01*
X0136193Y0137177D02*
X0148059Y0137177D01*
X0148059Y0138176D02*
X0137191Y0138176D01*
X0138190Y0139174D02*
X0148059Y0139174D01*
X0148059Y0140173D02*
X0139188Y0140173D01*
X0140187Y0141171D02*
X0148059Y0141171D01*
X0149416Y0148161D02*
X0150084Y0148161D01*
X0148553Y0169129D02*
X0148447Y0169129D01*
X0144803Y0169129D02*
X0144072Y0169129D01*
X0140428Y0169129D02*
X0140322Y0169129D01*
X0136678Y0169129D02*
X0136417Y0169129D01*
X0152197Y0169129D02*
X0152303Y0169129D01*
X0155947Y0169129D02*
X0156678Y0169129D01*
X0160322Y0169129D02*
X0160428Y0169129D01*
X0126441Y0185106D02*
X0357459Y0185106D01*
X0357459Y0186104D02*
X0126441Y0186104D01*
X0126441Y0187103D02*
X0357459Y0187103D01*
X0357459Y0188101D02*
X0126441Y0188101D01*
X0126441Y0189100D02*
X0357459Y0189100D01*
X0357459Y0190098D02*
X0126441Y0190098D01*
X0126441Y0191097D02*
X0357459Y0191097D01*
X0357459Y0192095D02*
X0126441Y0192095D01*
X0106811Y0180113D02*
X0097254Y0180113D01*
X0094469Y0182110D02*
X0085191Y0182110D01*
X0085191Y0181112D02*
X0093471Y0181112D01*
X0092472Y0180113D02*
X0085191Y0180113D01*
X0085191Y0179114D02*
X0091474Y0179114D01*
X0089415Y0178116D02*
X0085191Y0178116D01*
X0085191Y0177117D02*
X0088718Y0177117D01*
X0088559Y0176119D02*
X0085191Y0176119D01*
X0085191Y0175120D02*
X0088826Y0175120D01*
X0089760Y0174122D02*
X0085191Y0174122D01*
X0074309Y0174122D02*
X0044566Y0174122D01*
X0044566Y0175120D02*
X0074309Y0175120D01*
X0074309Y0176119D02*
X0044566Y0176119D01*
X0044566Y0177117D02*
X0074309Y0177117D01*
X0074309Y0178116D02*
X0044566Y0178116D01*
X0044566Y0179114D02*
X0074309Y0179114D01*
X0074309Y0180113D02*
X0044566Y0180113D01*
X0044566Y0181112D02*
X0074309Y0181112D01*
X0074309Y0182110D02*
X0044566Y0182110D01*
X0044566Y0183109D02*
X0074309Y0183109D01*
X0074309Y0184107D02*
X0044566Y0184107D01*
X0044566Y0185106D02*
X0074309Y0185106D01*
X0074309Y0186104D02*
X0044566Y0186104D01*
X0044566Y0187103D02*
X0074309Y0187103D01*
X0074309Y0188101D02*
X0044566Y0188101D01*
X0044566Y0189100D02*
X0074309Y0189100D01*
X0074309Y0190098D02*
X0044566Y0190098D01*
X0044566Y0191097D02*
X0074309Y0191097D01*
X0074309Y0192095D02*
X0044566Y0192095D01*
X0044566Y0193094D02*
X0074309Y0193094D01*
X0074309Y0194092D02*
X0044566Y0194092D01*
X0044566Y0195091D02*
X0074309Y0195091D01*
X0074309Y0196089D02*
X0044566Y0196089D01*
X0044566Y0197088D02*
X0074309Y0197088D01*
X0074309Y0198086D02*
X0044566Y0198086D01*
X0044566Y0199085D02*
X0074309Y0199085D01*
X0074309Y0200083D02*
X0044566Y0200083D01*
X0044566Y0201082D02*
X0074309Y0201082D01*
X0074309Y0202080D02*
X0044566Y0202080D01*
X0045500Y0203079D02*
X0074309Y0203079D01*
X0074309Y0204077D02*
X0045831Y0204077D01*
X0045831Y0205076D02*
X0074309Y0205076D01*
X0074309Y0206074D02*
X0045191Y0206074D01*
X0045191Y0207073D02*
X0074309Y0207073D01*
X0074309Y0208071D02*
X0045191Y0208071D01*
X0045191Y0209070D02*
X0074309Y0209070D01*
X0074309Y0210068D02*
X0045191Y0210068D01*
X0045191Y0211067D02*
X0074309Y0211067D01*
X0074309Y0212065D02*
X0045191Y0212065D01*
X0045191Y0213064D02*
X0074309Y0213064D01*
X0075172Y0214062D02*
X0045191Y0214062D01*
X0045191Y0215061D02*
X0076170Y0215061D01*
X0077169Y0216059D02*
X0045191Y0216059D01*
X0045191Y0217058D02*
X0078167Y0217058D01*
X0079166Y0218056D02*
X0045191Y0218056D01*
X0045191Y0219055D02*
X0080164Y0219055D01*
X0081163Y0220053D02*
X0045191Y0220053D01*
X0045191Y0221052D02*
X0082161Y0221052D01*
X0083160Y0222050D02*
X0045191Y0222050D01*
X0045191Y0223049D02*
X0084158Y0223049D01*
X0085157Y0224047D02*
X0045191Y0224047D01*
X0045191Y0225046D02*
X0086155Y0225046D01*
X0087154Y0226045D02*
X0045191Y0226045D01*
X0045191Y0227043D02*
X0088152Y0227043D01*
X0089151Y0228042D02*
X0045191Y0228042D01*
X0045191Y0229040D02*
X0090149Y0229040D01*
X0091148Y0230039D02*
X0045191Y0230039D01*
X0045191Y0231037D02*
X0092146Y0231037D01*
X0093145Y0232036D02*
X0045191Y0232036D01*
X0045191Y0233034D02*
X0094143Y0233034D01*
X0095142Y0234033D02*
X0045191Y0234033D01*
X0045191Y0235031D02*
X0096140Y0235031D01*
X0097139Y0236030D02*
X0045191Y0236030D01*
X0045191Y0237028D02*
X0098137Y0237028D01*
X0115047Y0256000D02*
X0041489Y0256000D01*
X0044363Y0256998D02*
X0092860Y0256998D01*
X0094140Y0256998D02*
X0106610Y0256998D01*
X0107890Y0256998D02*
X0115615Y0256998D01*
X0116614Y0257997D02*
X0109321Y0257997D01*
X0109691Y0258995D02*
X0133230Y0258995D01*
X0134228Y0259994D02*
X0109635Y0259994D01*
X0120386Y0257997D02*
X0126614Y0257997D01*
X0125615Y0256998D02*
X0121385Y0256998D01*
X0121953Y0256000D02*
X0122734Y0256000D01*
X0130386Y0257997D02*
X0132231Y0257997D01*
X0131809Y0256998D02*
X0131385Y0256998D01*
X0091429Y0257997D02*
X0045361Y0257997D01*
X0046360Y0258995D02*
X0085428Y0258995D01*
X0084870Y0259994D02*
X0047358Y0259994D01*
X0029019Y0250009D02*
X0026290Y0250009D01*
X0025540Y0249010D02*
X0028021Y0249010D01*
X0022520Y0250009D02*
X0009556Y0250009D01*
X0009556Y0251007D02*
X0018304Y0251007D01*
X0019984Y0249010D02*
X0014516Y0249010D01*
X0015818Y0252006D02*
X0009556Y0252006D01*
X0009556Y0253004D02*
X0014566Y0253004D01*
X0013314Y0254003D02*
X0009556Y0254003D01*
X0009556Y0255001D02*
X0012062Y0255001D01*
X0011366Y0256000D02*
X0009556Y0256000D01*
X0009556Y0256998D02*
X0010686Y0256998D01*
X0010005Y0257997D02*
X0009556Y0257997D01*
X0017690Y0248012D02*
X0019506Y0248012D01*
X0019506Y0247013D02*
X0018325Y0247013D01*
X0018441Y0246015D02*
X0019506Y0246015D01*
X0019506Y0245016D02*
X0018131Y0245016D01*
X0016988Y0244018D02*
X0019506Y0244018D01*
X0019506Y0243019D02*
X0017057Y0243019D01*
X0017697Y0242021D02*
X0019506Y0242021D01*
X0019506Y0241022D02*
X0017816Y0241022D01*
X0017509Y0240024D02*
X0019506Y0240024D01*
X0019506Y0239025D02*
X0016381Y0239025D01*
X0021184Y0238027D02*
X0009556Y0238027D01*
X0009556Y0237028D02*
X0021184Y0237028D01*
X0021184Y0236030D02*
X0009556Y0236030D01*
X0009556Y0235031D02*
X0021184Y0235031D01*
X0021184Y0234033D02*
X0009556Y0234033D01*
X0009556Y0233034D02*
X0020713Y0233034D01*
X0020434Y0232036D02*
X0009556Y0232036D01*
X0009556Y0231037D02*
X0020580Y0231037D01*
X0021260Y0230039D02*
X0009556Y0230039D01*
X0009556Y0229040D02*
X0024959Y0229040D01*
X0024959Y0228042D02*
X0009556Y0228042D01*
X0014994Y0227043D02*
X0019506Y0227043D01*
X0019506Y0226045D02*
X0017157Y0226045D01*
X0017739Y0225046D02*
X0019506Y0225046D01*
X0019506Y0224047D02*
X0017816Y0224047D01*
X0017467Y0223049D02*
X0019506Y0223049D01*
X0019506Y0222050D02*
X0016776Y0222050D01*
X0017581Y0221052D02*
X0019506Y0221052D01*
X0019506Y0220053D02*
X0017816Y0220053D01*
X0017625Y0219055D02*
X0019506Y0219055D01*
X0019506Y0218056D02*
X0016883Y0218056D01*
X0021184Y0217058D02*
X0009556Y0217058D01*
X0009556Y0216059D02*
X0021184Y0216059D01*
X0021184Y0215061D02*
X0009556Y0215061D01*
X0009556Y0214062D02*
X0021184Y0214062D01*
X0021184Y0213064D02*
X0009556Y0213064D01*
X0009556Y0212065D02*
X0021184Y0212065D01*
X0021184Y0211067D02*
X0009556Y0211067D01*
X0009556Y0210068D02*
X0010742Y0210068D01*
X0010000Y0209070D02*
X0009556Y0209070D01*
X0009556Y0208071D02*
X0009809Y0208071D01*
X0010044Y0207073D02*
X0009556Y0207073D01*
X0014456Y0207073D02*
X0015044Y0207073D01*
X0014952Y0206074D02*
X0015849Y0206074D01*
X0014994Y0205076D02*
X0019506Y0205076D01*
X0019506Y0204077D02*
X0014994Y0204077D01*
X0014994Y0203079D02*
X0019506Y0203079D01*
X0019506Y0202080D02*
X0014994Y0202080D01*
X0014994Y0201082D02*
X0017752Y0201082D01*
X0019248Y0201082D02*
X0019506Y0201082D01*
X0016411Y0200083D02*
X0014994Y0200083D01*
X0014994Y0199085D02*
X0016059Y0199085D01*
X0016133Y0198086D02*
X0014994Y0198086D01*
X0014994Y0197088D02*
X0016711Y0197088D01*
X0014616Y0196089D02*
X0019884Y0196089D01*
X0029541Y0194092D02*
X0037434Y0194092D01*
X0037434Y0193094D02*
X0029541Y0193094D01*
X0029541Y0192095D02*
X0037434Y0192095D01*
X0037434Y0191097D02*
X0029541Y0191097D01*
X0029541Y0190098D02*
X0037434Y0190098D01*
X0037434Y0189100D02*
X0029541Y0189100D01*
X0029541Y0188101D02*
X0037434Y0188101D01*
X0037434Y0187103D02*
X0029541Y0187103D01*
X0029541Y0186104D02*
X0037434Y0186104D01*
X0037434Y0185106D02*
X0029541Y0185106D01*
X0029541Y0184107D02*
X0037434Y0184107D01*
X0037434Y0183109D02*
X0029541Y0183109D01*
X0029541Y0182110D02*
X0037434Y0182110D01*
X0037434Y0181112D02*
X0029541Y0181112D01*
X0029541Y0180113D02*
X0037434Y0180113D01*
X0037434Y0179114D02*
X0029541Y0179114D01*
X0029541Y0178116D02*
X0037434Y0178116D01*
X0037434Y0177117D02*
X0029541Y0177117D01*
X0029541Y0176119D02*
X0037434Y0176119D01*
X0037434Y0175120D02*
X0029541Y0175120D01*
X0029541Y0174122D02*
X0037434Y0174122D01*
X0037434Y0173123D02*
X0029541Y0173123D01*
X0029541Y0172125D02*
X0037434Y0172125D01*
X0037434Y0171126D02*
X0029541Y0171126D01*
X0029541Y0170128D02*
X0037434Y0170128D01*
X0037434Y0169129D02*
X0029541Y0169129D01*
X0029541Y0168131D02*
X0037434Y0168131D01*
X0037434Y0167132D02*
X0029541Y0167132D01*
X0029541Y0166134D02*
X0037434Y0166134D01*
X0037434Y0165135D02*
X0029541Y0165135D01*
X0029541Y0164137D02*
X0037434Y0164137D01*
X0037434Y0163138D02*
X0029541Y0163138D01*
X0029541Y0162140D02*
X0037434Y0162140D01*
X0037434Y0161141D02*
X0029131Y0161141D01*
X0028132Y0160143D02*
X0037434Y0160143D01*
X0037434Y0159144D02*
X0027134Y0159144D01*
X0026018Y0158146D02*
X0037434Y0158146D01*
X0037434Y0157147D02*
X0026018Y0157147D01*
X0026018Y0156149D02*
X0037434Y0156149D01*
X0037834Y0155150D02*
X0026018Y0155150D01*
X0026018Y0154152D02*
X0038832Y0154152D01*
X0039831Y0153153D02*
X0024987Y0153153D01*
X0025316Y0152155D02*
X0040830Y0152155D01*
X0044872Y0159144D02*
X0072154Y0159144D01*
X0070313Y0160143D02*
X0044566Y0160143D01*
X0044566Y0161141D02*
X0068921Y0161141D01*
X0068559Y0162140D02*
X0044566Y0162140D01*
X0044566Y0163138D02*
X0068623Y0163138D01*
X0069185Y0164137D02*
X0044566Y0164137D01*
X0044566Y0165135D02*
X0069309Y0165135D01*
X0069743Y0166134D02*
X0044566Y0166134D01*
X0044566Y0167132D02*
X0070742Y0167132D01*
X0071740Y0168131D02*
X0044566Y0168131D01*
X0044566Y0169129D02*
X0072739Y0169129D01*
X0073737Y0170128D02*
X0044566Y0170128D01*
X0044566Y0171126D02*
X0074309Y0171126D01*
X0074309Y0172125D02*
X0044566Y0172125D01*
X0044566Y0173123D02*
X0074309Y0173123D01*
X0085191Y0165135D02*
X0104995Y0165135D01*
X0103996Y0164137D02*
X0085191Y0164137D01*
X0085191Y0163138D02*
X0102998Y0163138D01*
X0101999Y0162140D02*
X0085773Y0162140D01*
X0085941Y0161141D02*
X0101000Y0161141D01*
X0100002Y0160143D02*
X0085683Y0160143D01*
X0084794Y0159144D02*
X0099003Y0159144D01*
X0082206Y0159144D02*
X0076096Y0159144D01*
X0076566Y0160143D02*
X0081317Y0160143D01*
X0081059Y0161141D02*
X0076553Y0161141D01*
X0078466Y0162140D02*
X0079394Y0162140D01*
X0060531Y0151156D02*
X0025219Y0151156D01*
X0024609Y0150158D02*
X0029190Y0150158D01*
X0030516Y0150158D02*
X0031484Y0150158D01*
X0031484Y0149159D02*
X0030516Y0149159D01*
X0030516Y0148161D02*
X0031484Y0148161D01*
X0031484Y0147162D02*
X0030516Y0147162D01*
X0030516Y0145165D02*
X0031484Y0145165D01*
X0031484Y0144167D02*
X0030516Y0144167D01*
X0030516Y0143168D02*
X0031484Y0143168D01*
X0028364Y0143168D02*
X0023358Y0143168D01*
X0024356Y0144167D02*
X0027365Y0144167D01*
X0028206Y0139174D02*
X0023516Y0139174D01*
X0024514Y0138176D02*
X0027207Y0138176D01*
X0026957Y0137177D02*
X0024846Y0137177D01*
X0018484Y0139174D02*
X0015791Y0139174D01*
X0015791Y0138176D02*
X0017486Y0138176D01*
X0017154Y0137177D02*
X0015791Y0137177D01*
X0015791Y0136178D02*
X0017154Y0136178D01*
X0017154Y0135180D02*
X0015791Y0135180D01*
X0015791Y0134181D02*
X0017629Y0134181D01*
X0018627Y0133183D02*
X0015791Y0133183D01*
X0015791Y0132184D02*
X0068059Y0132184D01*
X0068059Y0131186D02*
X0015791Y0131186D01*
X0023501Y0129189D02*
X0028221Y0129189D01*
X0027222Y0128190D02*
X0024499Y0128190D01*
X0024846Y0127192D02*
X0026957Y0127192D01*
X0033666Y0123198D02*
X0068059Y0123198D01*
X0068059Y0124196D02*
X0034664Y0124196D01*
X0032766Y0120202D02*
X0068059Y0120202D01*
X0068059Y0119204D02*
X0033764Y0119204D01*
X0034763Y0118205D02*
X0068059Y0118205D01*
X0068059Y0117207D02*
X0035043Y0117207D01*
X0028236Y0119204D02*
X0023486Y0119204D01*
X0024484Y0118205D02*
X0027237Y0118205D01*
X0026957Y0117207D02*
X0024846Y0117207D01*
X0018514Y0119204D02*
X0015791Y0119204D01*
X0015791Y0118205D02*
X0017516Y0118205D01*
X0017154Y0117207D02*
X0015791Y0117207D01*
X0015791Y0116208D02*
X0017154Y0116208D01*
X0017154Y0115210D02*
X0015791Y0115210D01*
X0015791Y0114211D02*
X0017599Y0114211D01*
X0018598Y0113213D02*
X0015791Y0113213D01*
X0023471Y0109219D02*
X0028251Y0109219D01*
X0027252Y0108220D02*
X0024470Y0108220D01*
X0024846Y0107222D02*
X0026957Y0107222D01*
X0033696Y0103228D02*
X0068059Y0103228D01*
X0068059Y0104226D02*
X0034694Y0104226D01*
X0032736Y0100232D02*
X0068059Y0100232D01*
X0068059Y0099234D02*
X0033734Y0099234D01*
X0034733Y0098235D02*
X0068059Y0098235D01*
X0068059Y0097237D02*
X0035043Y0097237D01*
X0018574Y0079263D02*
X0015791Y0079263D01*
X0015791Y0078265D02*
X0017575Y0078265D01*
X0017154Y0077266D02*
X0015791Y0077266D01*
X0015791Y0076268D02*
X0017154Y0076268D01*
X0017154Y0075269D02*
X0015791Y0075269D01*
X0015791Y0074271D02*
X0017539Y0074271D01*
X0018538Y0073272D02*
X0015791Y0073272D01*
X0015791Y0072274D02*
X0029258Y0072274D01*
X0028260Y0073272D02*
X0023462Y0073272D01*
X0024460Y0074271D02*
X0027261Y0074271D01*
X0026957Y0075269D02*
X0024846Y0075269D01*
X0022675Y0070293D02*
X0021484Y0070293D01*
X0021484Y0066734D01*
X0020516Y0066734D01*
X0020516Y0065766D01*
X0016957Y0065766D01*
X0016957Y0064575D01*
X0019325Y0062207D01*
X0020516Y0062207D01*
X0020516Y0065766D01*
X0021484Y0065766D01*
X0021484Y0062207D01*
X0022675Y0062207D01*
X0025043Y0064575D01*
X0025043Y0065766D01*
X0021484Y0065766D01*
X0021484Y0066734D01*
X0025043Y0066734D01*
X0025043Y0067925D01*
X0022675Y0070293D01*
X0022691Y0070277D02*
X0029309Y0070277D01*
X0029325Y0070293D02*
X0026957Y0067925D01*
X0026957Y0066734D01*
X0030516Y0066734D01*
X0030516Y0065766D01*
X0026957Y0065766D01*
X0026957Y0064575D01*
X0029325Y0062207D01*
X0030516Y0062207D01*
X0030516Y0065766D01*
X0031484Y0065766D01*
X0031484Y0062207D01*
X0032675Y0062207D01*
X0035043Y0064575D01*
X0035043Y0065766D01*
X0031484Y0065766D01*
X0031484Y0066734D01*
X0030516Y0066734D01*
X0030516Y0070293D01*
X0029325Y0070293D01*
X0030516Y0070277D02*
X0031484Y0070277D01*
X0031484Y0070293D02*
X0031484Y0066734D01*
X0035043Y0066734D01*
X0035043Y0067925D01*
X0032675Y0070293D01*
X0031484Y0070293D01*
X0031484Y0069278D02*
X0030516Y0069278D01*
X0030516Y0068280D02*
X0031484Y0068280D01*
X0031484Y0067281D02*
X0030516Y0067281D01*
X0030516Y0066283D02*
X0021484Y0066283D01*
X0020516Y0066283D02*
X0015791Y0066283D01*
X0015791Y0067281D02*
X0016957Y0067281D01*
X0016957Y0066734D02*
X0020516Y0066734D01*
X0020516Y0070293D01*
X0019325Y0070293D01*
X0016957Y0067925D01*
X0016957Y0066734D01*
X0016957Y0065284D02*
X0015791Y0065284D01*
X0016204Y0064286D02*
X0017246Y0064286D01*
X0017202Y0063287D02*
X0018245Y0063287D01*
X0018201Y0062289D02*
X0019243Y0062289D01*
X0019199Y0061290D02*
X0080444Y0061290D01*
X0081443Y0060292D02*
X0020198Y0060292D01*
X0020516Y0062289D02*
X0021484Y0062289D01*
X0021484Y0063287D02*
X0020516Y0063287D01*
X0020516Y0064286D02*
X0021484Y0064286D01*
X0021484Y0065284D02*
X0020516Y0065284D01*
X0020516Y0067281D02*
X0021484Y0067281D01*
X0021484Y0068280D02*
X0020516Y0068280D01*
X0020516Y0069278D02*
X0021484Y0069278D01*
X0021484Y0070277D02*
X0020516Y0070277D01*
X0019309Y0070277D02*
X0015791Y0070277D01*
X0015791Y0071275D02*
X0070459Y0071275D01*
X0071457Y0070277D02*
X0032691Y0070277D01*
X0033690Y0069278D02*
X0072456Y0069278D01*
X0073454Y0068280D02*
X0034688Y0068280D01*
X0035043Y0067281D02*
X0074453Y0067281D01*
X0075451Y0066283D02*
X0031484Y0066283D01*
X0031484Y0065284D02*
X0030516Y0065284D01*
X0030516Y0064286D02*
X0031484Y0064286D01*
X0031484Y0063287D02*
X0030516Y0063287D01*
X0030516Y0062289D02*
X0031484Y0062289D01*
X0032757Y0062289D02*
X0079446Y0062289D01*
X0078447Y0063287D02*
X0033755Y0063287D01*
X0034754Y0064286D02*
X0077449Y0064286D01*
X0076450Y0065284D02*
X0035043Y0065284D01*
X0032593Y0060096D02*
X0029407Y0060096D01*
X0027154Y0057843D01*
X0027154Y0054657D01*
X0029407Y0052404D01*
X0032593Y0052404D01*
X0034846Y0054657D01*
X0034846Y0057843D01*
X0032593Y0060096D01*
X0033397Y0059293D02*
X0082441Y0059293D01*
X0083440Y0058295D02*
X0034395Y0058295D01*
X0034846Y0057296D02*
X0084438Y0057296D01*
X0085437Y0056298D02*
X0034846Y0056298D01*
X0034846Y0055299D02*
X0086435Y0055299D01*
X0087434Y0054301D02*
X0034490Y0054301D01*
X0033492Y0053302D02*
X0088432Y0053302D01*
X0091428Y0050307D02*
X0078249Y0050307D01*
X0078942Y0049308D02*
X0092426Y0049308D01*
X0093425Y0048309D02*
X0079217Y0048309D01*
X0079935Y0047311D02*
X0094423Y0047311D01*
X0095422Y0046312D02*
X0080933Y0046312D01*
X0081932Y0045314D02*
X0096420Y0045314D01*
X0097419Y0044315D02*
X0082930Y0044315D01*
X0083929Y0043317D02*
X0098417Y0043317D01*
X0099416Y0042318D02*
X0084927Y0042318D01*
X0085926Y0041320D02*
X0100414Y0041320D01*
X0101413Y0040321D02*
X0086924Y0040321D01*
X0087923Y0039323D02*
X0102411Y0039323D01*
X0103410Y0038324D02*
X0088921Y0038324D01*
X0089920Y0037326D02*
X0104408Y0037326D01*
X0105407Y0036327D02*
X0090918Y0036327D01*
X0091917Y0035329D02*
X0106405Y0035329D01*
X0107404Y0034330D02*
X0092915Y0034330D01*
X0093914Y0033332D02*
X0108402Y0033332D01*
X0109401Y0032333D02*
X0094912Y0032333D01*
X0095911Y0031335D02*
X0110399Y0031335D01*
X0111398Y0030336D02*
X0096910Y0030336D01*
X0097908Y0029338D02*
X0112396Y0029338D01*
X0115310Y0034330D02*
X0200440Y0034330D01*
X0204352Y0030336D02*
X0299682Y0030336D01*
X0298683Y0029338D02*
X0203354Y0029338D01*
X0205351Y0031335D02*
X0300725Y0031335D01*
X0302454Y0032333D02*
X0206349Y0032333D01*
X0207348Y0033332D02*
X0304384Y0033332D01*
X0297755Y0028339D02*
X0098907Y0028339D01*
X0099905Y0027341D02*
X0297179Y0027341D01*
X0296602Y0026342D02*
X0100904Y0026342D01*
X0101902Y0025344D02*
X0296026Y0025344D01*
X0295687Y0024345D02*
X0262394Y0024345D01*
X0263393Y0023347D02*
X0295420Y0023347D01*
X0295152Y0022348D02*
X0264391Y0022348D01*
X0265390Y0021350D02*
X0294884Y0021350D01*
X0294880Y0020351D02*
X0266388Y0020351D01*
X0267387Y0019353D02*
X0294880Y0019353D01*
X0294880Y0018354D02*
X0270029Y0018354D01*
X0271027Y0017356D02*
X0294896Y0017356D01*
X0295164Y0016357D02*
X0271953Y0016357D01*
X0271953Y0015359D02*
X0295432Y0015359D01*
X0295699Y0014360D02*
X0271953Y0014360D01*
X0271745Y0013362D02*
X0296051Y0013362D01*
X0296628Y0012363D02*
X0270746Y0012363D01*
X0266254Y0012363D02*
X0260746Y0012363D01*
X0261745Y0013362D02*
X0265255Y0013362D01*
X0265047Y0014360D02*
X0261953Y0014360D01*
X0261953Y0015359D02*
X0264902Y0015359D01*
X0263904Y0016357D02*
X0261953Y0016357D01*
X0261027Y0017356D02*
X0262905Y0017356D01*
X0261907Y0018354D02*
X0260029Y0018354D01*
X0260908Y0019353D02*
X0257387Y0019353D01*
X0253904Y0016357D02*
X0251953Y0016357D01*
X0251953Y0015359D02*
X0254902Y0015359D01*
X0255047Y0014360D02*
X0251953Y0014360D01*
X0251745Y0013362D02*
X0255255Y0013362D01*
X0256254Y0012363D02*
X0250746Y0012363D01*
X0248104Y0011365D02*
X0297204Y0011365D01*
X0297781Y0010366D02*
X0247105Y0010366D01*
X0246107Y0009368D02*
X0298728Y0009368D01*
X0299726Y0008369D02*
X0245108Y0008369D01*
X0241984Y0022348D02*
X0104898Y0022348D01*
X0103899Y0023347D02*
X0242982Y0023347D01*
X0243981Y0024345D02*
X0102901Y0024345D01*
X0099417Y0021350D02*
X0085866Y0021350D01*
X0085870Y0020351D02*
X0100416Y0020351D01*
X0101414Y0019353D02*
X0085870Y0019353D01*
X0085870Y0018354D02*
X0102413Y0018354D01*
X0103412Y0017356D02*
X0085854Y0017356D01*
X0085586Y0016357D02*
X0115047Y0016357D01*
X0115047Y0015359D02*
X0085318Y0015359D01*
X0085051Y0014360D02*
X0115047Y0014360D01*
X0115255Y0013362D02*
X0084699Y0013362D01*
X0084122Y0012363D02*
X0116254Y0012363D01*
X0120746Y0012363D02*
X0126254Y0012363D01*
X0125255Y0013362D02*
X0121745Y0013362D01*
X0121953Y0014360D02*
X0125047Y0014360D01*
X0125047Y0015359D02*
X0121953Y0015359D01*
X0121953Y0016357D02*
X0125047Y0016357D01*
X0128896Y0011365D02*
X0083546Y0011365D01*
X0082969Y0010366D02*
X0129895Y0010366D01*
X0130893Y0009368D02*
X0082022Y0009368D01*
X0081024Y0008369D02*
X0131892Y0008369D01*
X0098419Y0022348D02*
X0085598Y0022348D01*
X0085330Y0023347D02*
X0097420Y0023347D01*
X0096422Y0024345D02*
X0085063Y0024345D01*
X0084724Y0025344D02*
X0095423Y0025344D01*
X0094425Y0026342D02*
X0084148Y0026342D01*
X0083571Y0027341D02*
X0093426Y0027341D01*
X0092428Y0028339D02*
X0082995Y0028339D01*
X0082067Y0029338D02*
X0091429Y0029338D01*
X0090431Y0030336D02*
X0081068Y0030336D01*
X0080025Y0031335D02*
X0089432Y0031335D01*
X0088434Y0032333D02*
X0078296Y0032333D01*
X0028508Y0053302D02*
X0023492Y0053302D01*
X0024356Y0054301D02*
X0027510Y0054301D01*
X0027154Y0055299D02*
X0024769Y0055299D01*
X0024846Y0056298D02*
X0027154Y0056298D01*
X0027154Y0057296D02*
X0024730Y0057296D01*
X0024316Y0058295D02*
X0027605Y0058295D01*
X0028603Y0059293D02*
X0023397Y0059293D01*
X0022757Y0062289D02*
X0029243Y0062289D01*
X0028245Y0063287D02*
X0023755Y0063287D01*
X0024754Y0064286D02*
X0027246Y0064286D01*
X0026957Y0065284D02*
X0025043Y0065284D01*
X0025043Y0067281D02*
X0026957Y0067281D01*
X0027312Y0068280D02*
X0024688Y0068280D01*
X0023690Y0069278D02*
X0028310Y0069278D01*
X0018310Y0069278D02*
X0015791Y0069278D01*
X0015791Y0068280D02*
X0017312Y0068280D01*
X0076369Y0073272D02*
X0134934Y0073272D01*
X0134934Y0072274D02*
X0077367Y0072274D01*
X0078366Y0071275D02*
X0134934Y0071275D01*
X0134934Y0070277D02*
X0079364Y0070277D01*
X0080363Y0069278D02*
X0134934Y0069278D01*
X0134934Y0068280D02*
X0081361Y0068280D01*
X0145816Y0068280D02*
X0152434Y0068280D01*
X0152434Y0069278D02*
X0145816Y0069278D01*
X0145816Y0070277D02*
X0152434Y0070277D01*
X0152434Y0071275D02*
X0145816Y0071275D01*
X0145816Y0072274D02*
X0152434Y0072274D01*
X0152434Y0073272D02*
X0145816Y0073272D01*
X0145816Y0074271D02*
X0152434Y0074271D01*
X0152629Y0075269D02*
X0145816Y0075269D01*
X0145816Y0076268D02*
X0153627Y0076268D01*
X0154626Y0077266D02*
X0145816Y0077266D01*
X0145816Y0078265D02*
X0155624Y0078265D01*
X0156623Y0079263D02*
X0145816Y0079263D01*
X0146778Y0080262D02*
X0157621Y0080262D01*
X0158620Y0081260D02*
X0147776Y0081260D01*
X0148775Y0082259D02*
X0159618Y0082259D01*
X0160617Y0083257D02*
X0149773Y0083257D01*
X0150772Y0084256D02*
X0161615Y0084256D01*
X0162614Y0085254D02*
X0151770Y0085254D01*
X0152769Y0086253D02*
X0163612Y0086253D01*
X0164611Y0087251D02*
X0153767Y0087251D01*
X0154766Y0088250D02*
X0165609Y0088250D01*
X0166608Y0089248D02*
X0155764Y0089248D01*
X0156763Y0090247D02*
X0167606Y0090247D01*
X0168605Y0091245D02*
X0157761Y0091245D01*
X0158760Y0092244D02*
X0169603Y0092244D01*
X0170602Y0093243D02*
X0159758Y0093243D01*
X0160757Y0094241D02*
X0171600Y0094241D01*
X0172599Y0095240D02*
X0161755Y0095240D01*
X0162754Y0096238D02*
X0173597Y0096238D01*
X0174596Y0097237D02*
X0163752Y0097237D01*
X0164751Y0098235D02*
X0175594Y0098235D01*
X0176593Y0099234D02*
X0165749Y0099234D01*
X0166748Y0100232D02*
X0177591Y0100232D01*
X0178590Y0101231D02*
X0167746Y0101231D01*
X0168745Y0102229D02*
X0179588Y0102229D01*
X0180587Y0103228D02*
X0169743Y0103228D01*
X0170742Y0104226D02*
X0181585Y0104226D01*
X0182584Y0105225D02*
X0171740Y0105225D01*
X0172739Y0106223D02*
X0183582Y0106223D01*
X0184581Y0107222D02*
X0173737Y0107222D01*
X0174736Y0108220D02*
X0185579Y0108220D01*
X0186578Y0109219D02*
X0175734Y0109219D01*
X0176733Y0110217D02*
X0187576Y0110217D01*
X0188575Y0111216D02*
X0177732Y0111216D01*
X0178730Y0112214D02*
X0189573Y0112214D01*
X0190572Y0113213D02*
X0179729Y0113213D01*
X0180727Y0114211D02*
X0191570Y0114211D01*
X0192569Y0115210D02*
X0181726Y0115210D01*
X0182724Y0116208D02*
X0193567Y0116208D01*
X0194566Y0117207D02*
X0183723Y0117207D01*
X0184721Y0118205D02*
X0195565Y0118205D01*
X0196563Y0119204D02*
X0185720Y0119204D01*
X0186718Y0120202D02*
X0197562Y0120202D01*
X0198560Y0121201D02*
X0187717Y0121201D01*
X0188715Y0122199D02*
X0199559Y0122199D01*
X0200557Y0123198D02*
X0189714Y0123198D01*
X0190712Y0124196D02*
X0201556Y0124196D01*
X0202554Y0125195D02*
X0191711Y0125195D01*
X0192709Y0126193D02*
X0203553Y0126193D01*
X0204551Y0127192D02*
X0193708Y0127192D01*
X0194706Y0128190D02*
X0205550Y0128190D01*
X0206548Y0129189D02*
X0195705Y0129189D01*
X0196703Y0130187D02*
X0207547Y0130187D01*
X0208545Y0131186D02*
X0204387Y0131186D01*
X0201363Y0131186D02*
X0197702Y0131186D01*
X0198700Y0132184D02*
X0200623Y0132184D01*
X0200434Y0133183D02*
X0198941Y0133183D01*
X0200316Y0138176D02*
X0200535Y0138176D01*
X0200082Y0139174D02*
X0209658Y0139174D01*
X0210657Y0140173D02*
X0199279Y0140173D01*
X0222831Y0128190D02*
X0264076Y0128190D01*
X0263078Y0127192D02*
X0221833Y0127192D01*
X0220834Y0126193D02*
X0262079Y0126193D01*
X0261081Y0125195D02*
X0219836Y0125195D01*
X0218837Y0124196D02*
X0260082Y0124196D01*
X0259084Y0123198D02*
X0217839Y0123198D01*
X0216840Y0122199D02*
X0258085Y0122199D01*
X0257087Y0121201D02*
X0215842Y0121201D01*
X0214843Y0120202D02*
X0256088Y0120202D01*
X0255089Y0119204D02*
X0213845Y0119204D01*
X0212846Y0118205D02*
X0254091Y0118205D01*
X0253092Y0117207D02*
X0211848Y0117207D01*
X0210849Y0116208D02*
X0252094Y0116208D01*
X0251095Y0115210D02*
X0209851Y0115210D01*
X0208852Y0114211D02*
X0250097Y0114211D01*
X0249098Y0113213D02*
X0207854Y0113213D01*
X0206855Y0112214D02*
X0248100Y0112214D01*
X0247101Y0111216D02*
X0205857Y0111216D01*
X0204858Y0110217D02*
X0246103Y0110217D01*
X0245104Y0109219D02*
X0203859Y0109219D01*
X0202861Y0108220D02*
X0244106Y0108220D01*
X0243107Y0107222D02*
X0201862Y0107222D01*
X0200864Y0106223D02*
X0236424Y0106223D01*
X0235629Y0105225D02*
X0199865Y0105225D01*
X0198867Y0104226D02*
X0235283Y0104226D01*
X0235283Y0103228D02*
X0197868Y0103228D01*
X0196870Y0102229D02*
X0235648Y0102229D01*
X0236471Y0101231D02*
X0195871Y0101231D01*
X0194873Y0100232D02*
X0243154Y0100232D01*
X0244152Y0099234D02*
X0193874Y0099234D01*
X0192876Y0098235D02*
X0245151Y0098235D01*
X0246149Y0097237D02*
X0191877Y0097237D01*
X0190879Y0096238D02*
X0247148Y0096238D01*
X0248146Y0095240D02*
X0189880Y0095240D01*
X0188882Y0094241D02*
X0249145Y0094241D01*
X0250143Y0093243D02*
X0187883Y0093243D01*
X0186885Y0092244D02*
X0251142Y0092244D01*
X0252628Y0097237D02*
X0346872Y0097237D01*
X0347871Y0098235D02*
X0251629Y0098235D01*
X0250631Y0099234D02*
X0348869Y0099234D01*
X0352352Y0096238D02*
X0354029Y0096238D01*
X0354029Y0097237D02*
X0353351Y0097237D01*
X0354071Y0095240D02*
X0351354Y0095240D01*
X0350355Y0094241D02*
X0355069Y0094241D01*
X0356068Y0093243D02*
X0349357Y0093243D01*
X0348358Y0092244D02*
X0377345Y0092244D01*
X0377345Y0093243D02*
X0369682Y0093243D01*
X0370681Y0094241D02*
X0377345Y0094241D01*
X0377345Y0095240D02*
X0371679Y0095240D01*
X0371721Y0096238D02*
X0377345Y0096238D01*
X0377345Y0097237D02*
X0371721Y0097237D01*
X0371721Y0098235D02*
X0377345Y0098235D01*
X0377345Y0099234D02*
X0370956Y0099234D01*
X0369958Y0100232D02*
X0377345Y0100232D01*
X0362985Y0105225D02*
X0361918Y0105225D01*
X0361987Y0104226D02*
X0360944Y0104226D01*
X0358359Y0108220D02*
X0357391Y0108220D01*
X0357391Y0109219D02*
X0358359Y0109219D01*
X0358359Y0110217D02*
X0357391Y0110217D01*
X0355499Y0110217D02*
X0349424Y0110217D01*
X0348425Y0111216D02*
X0377345Y0111216D01*
X0377345Y0112214D02*
X0347427Y0112214D01*
X0346428Y0113213D02*
X0356098Y0113213D01*
X0355099Y0114211D02*
X0345430Y0114211D01*
X0344431Y0115210D02*
X0354101Y0115210D01*
X0354029Y0116208D02*
X0343433Y0116208D01*
X0342434Y0117207D02*
X0354029Y0117207D01*
X0354029Y0118205D02*
X0341435Y0118205D01*
X0340437Y0119204D02*
X0354764Y0119204D01*
X0355763Y0120202D02*
X0339438Y0120202D01*
X0338440Y0121201D02*
X0359810Y0121201D01*
X0360809Y0122199D02*
X0337441Y0122199D01*
X0336443Y0123198D02*
X0359857Y0123198D01*
X0360893Y0123198D02*
X0361807Y0123198D01*
X0362398Y0124196D02*
X0362548Y0124196D01*
X0365929Y0124196D02*
X0377345Y0124196D01*
X0377345Y0123198D02*
X0365929Y0123198D01*
X0365590Y0122199D02*
X0377345Y0122199D01*
X0377345Y0121201D02*
X0364592Y0121201D01*
X0365929Y0125195D02*
X0377345Y0125195D01*
X0377345Y0126193D02*
X0365929Y0126193D01*
X0365929Y0127192D02*
X0377345Y0127192D01*
X0377345Y0128190D02*
X0365929Y0128190D01*
X0365929Y0129189D02*
X0377345Y0129189D01*
X0377345Y0130187D02*
X0365929Y0130187D01*
X0365929Y0131186D02*
X0377345Y0131186D01*
X0377345Y0132184D02*
X0365929Y0132184D01*
X0365929Y0133183D02*
X0377345Y0133183D01*
X0377345Y0134181D02*
X0365929Y0134181D01*
X0365929Y0135180D02*
X0377345Y0135180D01*
X0377345Y0136178D02*
X0365929Y0136178D01*
X0365929Y0137177D02*
X0377345Y0137177D01*
X0377345Y0138176D02*
X0365929Y0138176D01*
X0365929Y0139174D02*
X0377345Y0139174D01*
X0377345Y0140173D02*
X0365929Y0140173D01*
X0365929Y0141171D02*
X0377345Y0141171D01*
X0377345Y0142170D02*
X0365929Y0142170D01*
X0365929Y0143168D02*
X0377345Y0143168D01*
X0377345Y0144167D02*
X0365929Y0144167D01*
X0365929Y0145165D02*
X0377345Y0145165D01*
X0377345Y0146164D02*
X0365929Y0146164D01*
X0365929Y0147162D02*
X0377345Y0147162D01*
X0377345Y0148161D02*
X0365929Y0148161D01*
X0365929Y0149159D02*
X0377345Y0149159D01*
X0377345Y0150158D02*
X0365929Y0150158D01*
X0365929Y0151156D02*
X0377345Y0151156D01*
X0377345Y0152155D02*
X0365929Y0152155D01*
X0365929Y0153153D02*
X0377345Y0153153D01*
X0372006Y0154152D02*
X0367494Y0154152D01*
X0367494Y0155150D02*
X0372006Y0155150D01*
X0369960Y0156149D02*
X0367494Y0156149D01*
X0367494Y0157147D02*
X0368962Y0157147D01*
X0368684Y0158146D02*
X0367494Y0158146D01*
X0367494Y0159144D02*
X0368684Y0159144D01*
X0368684Y0160143D02*
X0367494Y0160143D01*
X0367494Y0161141D02*
X0368684Y0161141D01*
X0368684Y0162140D02*
X0367494Y0162140D01*
X0367494Y0163138D02*
X0368684Y0163138D01*
X0368684Y0164137D02*
X0366890Y0164137D01*
X0365929Y0165135D02*
X0368195Y0165135D01*
X0367934Y0166134D02*
X0365929Y0166134D01*
X0366148Y0167132D02*
X0368099Y0167132D01*
X0368804Y0168131D02*
X0367147Y0168131D01*
X0368145Y0169129D02*
X0372309Y0169129D01*
X0372420Y0170128D02*
X0369144Y0170128D01*
X0370142Y0171126D02*
X0373050Y0171126D01*
X0372201Y0172125D02*
X0377345Y0172125D01*
X0377345Y0173123D02*
X0372757Y0173123D01*
X0372816Y0174122D02*
X0377345Y0174122D01*
X0377345Y0171126D02*
X0376450Y0171126D01*
X0377080Y0170128D02*
X0377345Y0170128D01*
X0377345Y0169129D02*
X0377191Y0169129D01*
X0377345Y0168131D02*
X0376876Y0168131D01*
X0376441Y0167132D02*
X0377345Y0167132D01*
X0377345Y0166134D02*
X0376441Y0166134D01*
X0376441Y0165135D02*
X0377345Y0165135D01*
X0373059Y0165135D02*
X0372555Y0165135D01*
X0372610Y0164137D02*
X0372066Y0164137D01*
X0372816Y0166134D02*
X0373059Y0166134D01*
X0373059Y0167132D02*
X0372651Y0167132D01*
X0372624Y0168131D02*
X0371946Y0168131D01*
X0357459Y0165135D02*
X0345816Y0165135D01*
X0345816Y0164137D02*
X0357459Y0164137D01*
X0357459Y0163138D02*
X0345816Y0163138D01*
X0345816Y0162140D02*
X0357459Y0162140D01*
X0357459Y0161141D02*
X0345816Y0161141D01*
X0345816Y0160143D02*
X0357459Y0160143D01*
X0357459Y0159144D02*
X0345816Y0159144D01*
X0345816Y0158146D02*
X0357459Y0158146D01*
X0357459Y0157147D02*
X0345816Y0157147D01*
X0345816Y0156149D02*
X0357862Y0156149D01*
X0358860Y0155150D02*
X0345816Y0155150D01*
X0345816Y0154152D02*
X0359859Y0154152D01*
X0362548Y0153153D02*
X0345816Y0153153D01*
X0345816Y0152155D02*
X0362548Y0152155D01*
X0362548Y0151156D02*
X0345816Y0151156D01*
X0345816Y0150158D02*
X0362548Y0150158D01*
X0362548Y0149159D02*
X0345816Y0149159D01*
X0345816Y0148161D02*
X0362548Y0148161D01*
X0362548Y0147162D02*
X0345816Y0147162D01*
X0345977Y0146164D02*
X0362548Y0146164D01*
X0362548Y0145165D02*
X0346976Y0145165D01*
X0347974Y0144167D02*
X0362548Y0144167D01*
X0362548Y0143168D02*
X0348973Y0143168D01*
X0349971Y0142170D02*
X0362548Y0142170D01*
X0362548Y0141171D02*
X0350970Y0141171D01*
X0351968Y0140173D02*
X0362548Y0140173D01*
X0362548Y0139174D02*
X0352967Y0139174D01*
X0353965Y0138176D02*
X0362548Y0138176D01*
X0362548Y0137177D02*
X0354964Y0137177D01*
X0355962Y0136178D02*
X0362548Y0136178D01*
X0362548Y0135180D02*
X0356961Y0135180D01*
X0357959Y0134181D02*
X0362548Y0134181D01*
X0362548Y0133183D02*
X0358958Y0133183D01*
X0359956Y0132184D02*
X0362548Y0132184D01*
X0362548Y0131186D02*
X0362016Y0131186D01*
X0342434Y0146164D02*
X0342227Y0146164D01*
X0342434Y0147162D02*
X0341229Y0147162D01*
X0305015Y0169129D02*
X0242197Y0169129D01*
X0242755Y0168131D02*
X0304017Y0168131D01*
X0303018Y0167132D02*
X0242816Y0167132D01*
X0242451Y0166134D02*
X0302020Y0166134D01*
X0301021Y0165135D02*
X0242066Y0165135D01*
X0242066Y0164137D02*
X0300022Y0164137D01*
X0299024Y0163138D02*
X0242066Y0163138D01*
X0242066Y0162140D02*
X0298025Y0162140D01*
X0297027Y0161141D02*
X0242066Y0161141D01*
X0242066Y0160143D02*
X0296028Y0160143D01*
X0295030Y0159144D02*
X0242066Y0159144D01*
X0242066Y0158146D02*
X0294031Y0158146D01*
X0293033Y0157147D02*
X0242066Y0157147D01*
X0242066Y0156149D02*
X0292034Y0156149D01*
X0291036Y0155150D02*
X0242066Y0155150D01*
X0242066Y0154152D02*
X0290037Y0154152D01*
X0289039Y0153153D02*
X0242066Y0153153D01*
X0242066Y0152155D02*
X0288040Y0152155D01*
X0287042Y0151156D02*
X0242066Y0151156D01*
X0242066Y0150158D02*
X0286043Y0150158D01*
X0285045Y0149159D02*
X0242066Y0149159D01*
X0242066Y0148161D02*
X0284046Y0148161D01*
X0283048Y0147162D02*
X0241803Y0147162D01*
X0240804Y0146164D02*
X0282049Y0146164D01*
X0281051Y0145165D02*
X0239806Y0145165D01*
X0238807Y0144167D02*
X0280052Y0144167D01*
X0279054Y0143168D02*
X0237809Y0143168D01*
X0236810Y0142170D02*
X0278055Y0142170D01*
X0277057Y0141171D02*
X0235812Y0141171D01*
X0234813Y0140173D02*
X0276058Y0140173D01*
X0275060Y0139174D02*
X0233815Y0139174D01*
X0232816Y0138176D02*
X0274061Y0138176D01*
X0273063Y0137177D02*
X0231818Y0137177D01*
X0230819Y0136178D02*
X0272064Y0136178D01*
X0271066Y0135180D02*
X0229821Y0135180D01*
X0228822Y0134181D02*
X0270067Y0134181D01*
X0269069Y0133183D02*
X0227824Y0133183D01*
X0226825Y0132184D02*
X0268070Y0132184D01*
X0267072Y0131186D02*
X0225827Y0131186D01*
X0224828Y0130187D02*
X0266073Y0130187D01*
X0265075Y0129189D02*
X0223830Y0129189D01*
X0240576Y0106223D02*
X0242109Y0106223D01*
X0242155Y0101231D02*
X0240529Y0101231D01*
X0185886Y0091245D02*
X0377345Y0091245D01*
X0377345Y0090247D02*
X0369943Y0090247D01*
X0370941Y0089248D02*
X0377345Y0089248D01*
X0377345Y0088250D02*
X0371721Y0088250D01*
X0371721Y0087251D02*
X0377345Y0087251D01*
X0377345Y0086253D02*
X0371721Y0086253D01*
X0371694Y0085254D02*
X0377345Y0085254D01*
X0377345Y0084256D02*
X0370696Y0084256D01*
X0369697Y0083257D02*
X0377345Y0083257D01*
X0377345Y0082259D02*
X0176900Y0082259D01*
X0177898Y0083257D02*
X0356053Y0083257D01*
X0355054Y0084256D02*
X0178897Y0084256D01*
X0179895Y0085254D02*
X0354056Y0085254D01*
X0354029Y0086253D02*
X0180894Y0086253D01*
X0181892Y0087251D02*
X0354029Y0087251D01*
X0354029Y0088250D02*
X0182891Y0088250D01*
X0183889Y0089248D02*
X0354809Y0089248D01*
X0355807Y0090247D02*
X0184888Y0090247D01*
X0175901Y0081260D02*
X0377345Y0081260D01*
X0377345Y0080262D02*
X0369928Y0080262D01*
X0370926Y0079263D02*
X0377345Y0079263D01*
X0377345Y0078265D02*
X0371721Y0078265D01*
X0371721Y0077266D02*
X0377345Y0077266D01*
X0377345Y0076268D02*
X0371721Y0076268D01*
X0371709Y0075269D02*
X0377345Y0075269D01*
X0377345Y0074271D02*
X0370710Y0074271D01*
X0369712Y0073272D02*
X0377345Y0073272D01*
X0377345Y0072274D02*
X0175816Y0072274D01*
X0175816Y0073272D02*
X0356038Y0073272D01*
X0355039Y0074271D02*
X0175816Y0074271D01*
X0175816Y0075269D02*
X0354041Y0075269D01*
X0354029Y0076268D02*
X0175816Y0076268D01*
X0175816Y0077266D02*
X0354029Y0077266D01*
X0354029Y0078265D02*
X0175816Y0078265D01*
X0175816Y0079263D02*
X0354824Y0079263D01*
X0355822Y0080262D02*
X0175816Y0080262D01*
X0172434Y0080262D02*
X0171778Y0080262D01*
X0172434Y0079263D02*
X0170816Y0079263D01*
X0170816Y0078265D02*
X0172434Y0078265D01*
X0172434Y0077266D02*
X0170816Y0077266D01*
X0170816Y0076268D02*
X0172434Y0076268D01*
X0172434Y0075269D02*
X0170816Y0075269D01*
X0170816Y0074271D02*
X0172434Y0074271D01*
X0172434Y0073272D02*
X0170816Y0073272D01*
X0170816Y0072274D02*
X0172434Y0072274D01*
X0172434Y0071275D02*
X0170816Y0071275D01*
X0170816Y0070277D02*
X0172434Y0070277D01*
X0172434Y0069278D02*
X0170816Y0069278D01*
X0170816Y0068280D02*
X0172434Y0068280D01*
X0172330Y0067281D02*
X0170920Y0067281D01*
X0171494Y0066283D02*
X0171756Y0066283D01*
X0171684Y0065284D02*
X0171566Y0065284D01*
X0171212Y0064286D02*
X0172038Y0064286D01*
X0167038Y0064286D02*
X0166212Y0064286D01*
X0166566Y0065284D02*
X0166684Y0065284D01*
X0166756Y0066283D02*
X0166494Y0066283D01*
X0165920Y0067281D02*
X0167330Y0067281D01*
X0167434Y0068280D02*
X0165816Y0068280D01*
X0165816Y0069278D02*
X0167434Y0069278D01*
X0167434Y0070277D02*
X0165816Y0070277D01*
X0165816Y0071275D02*
X0167434Y0071275D01*
X0167434Y0072274D02*
X0165816Y0072274D01*
X0165816Y0073272D02*
X0167434Y0073272D01*
X0167434Y0074271D02*
X0165816Y0074271D01*
X0165816Y0075269D02*
X0167434Y0075269D01*
X0167434Y0076268D02*
X0165816Y0076268D01*
X0165816Y0077266D02*
X0167434Y0077266D01*
X0167434Y0078265D02*
X0166656Y0078265D01*
X0162434Y0076268D02*
X0161534Y0076268D01*
X0160816Y0075269D02*
X0162434Y0075269D01*
X0162434Y0074271D02*
X0160816Y0074271D01*
X0160816Y0073272D02*
X0162434Y0073272D01*
X0162434Y0072274D02*
X0160816Y0072274D01*
X0160816Y0071275D02*
X0162434Y0071275D01*
X0162434Y0070277D02*
X0160816Y0070277D01*
X0160816Y0069278D02*
X0162434Y0069278D01*
X0162434Y0068280D02*
X0160816Y0068280D01*
X0160920Y0067281D02*
X0162330Y0067281D01*
X0161756Y0066283D02*
X0161494Y0066283D01*
X0161566Y0065284D02*
X0161684Y0065284D01*
X0162038Y0064286D02*
X0161212Y0064286D01*
X0157038Y0064286D02*
X0156212Y0064286D01*
X0156566Y0065284D02*
X0156684Y0065284D01*
X0156756Y0066283D02*
X0156494Y0066283D01*
X0155920Y0067281D02*
X0157330Y0067281D01*
X0157434Y0068280D02*
X0155816Y0068280D01*
X0155816Y0069278D02*
X0157434Y0069278D01*
X0157434Y0070277D02*
X0155816Y0070277D01*
X0155816Y0071275D02*
X0157434Y0071275D01*
X0157434Y0072274D02*
X0155816Y0072274D01*
X0155816Y0073272D02*
X0157434Y0073272D01*
X0157434Y0074271D02*
X0156412Y0074271D01*
X0157410Y0075269D02*
X0157434Y0075269D01*
X0152330Y0067281D02*
X0145816Y0067281D01*
X0145816Y0066283D02*
X0151756Y0066283D01*
X0151684Y0065284D02*
X0145816Y0065284D01*
X0145816Y0064286D02*
X0152038Y0064286D01*
X0079948Y0007371D02*
X0300802Y0007371D01*
X0302532Y0006372D02*
X0078218Y0006372D01*
X0063782Y0006372D02*
X0032070Y0006372D01*
X0320232Y0127192D02*
X0324999Y0127192D01*
X0351719Y0109219D02*
X0354501Y0109219D01*
X0353832Y0108220D02*
X0353084Y0108220D01*
X0365191Y0060292D02*
X0365852Y0060292D01*
X0238553Y0169129D02*
X0238447Y0169129D01*
X0234803Y0169129D02*
X0234072Y0169129D01*
X0230428Y0169129D02*
X0230322Y0169129D01*
X0226678Y0169129D02*
X0226572Y0169129D01*
X0220816Y0170128D02*
X0306014Y0170128D01*
X0307012Y0171126D02*
X0220816Y0171126D01*
X0220816Y0172125D02*
X0308011Y0172125D01*
X0309009Y0173123D02*
X0220816Y0173123D01*
X0220816Y0174122D02*
X0310008Y0174122D01*
X0310908Y0175120D02*
X0253792Y0175120D01*
X0254581Y0176119D02*
X0311107Y0176119D01*
X0311694Y0177117D02*
X0254581Y0177117D01*
X0251193Y0179114D02*
X0250831Y0179114D01*
X0250708Y0175120D02*
X0221011Y0175120D01*
X0095468Y0183109D02*
X0085191Y0183109D01*
X0020553Y0210068D02*
X0018758Y0210068D01*
X0015742Y0210068D02*
X0013758Y0210068D01*
X0014500Y0209070D02*
X0015000Y0209070D01*
X0014809Y0208071D02*
X0014691Y0208071D01*
X0018651Y0206074D02*
X0019548Y0206074D01*
X0010752Y0192095D02*
X0009556Y0192095D01*
X0014897Y0175120D02*
X0018105Y0175120D01*
X0017106Y0174122D02*
X0013441Y0174122D01*
X0013382Y0173123D02*
X0016108Y0173123D01*
X0014128Y0172125D02*
X0012826Y0172125D01*
X0013200Y0171126D02*
X0009556Y0171126D01*
X0009556Y0170128D02*
X0012934Y0170128D01*
X0013094Y0169129D02*
X0009556Y0169129D01*
X0009556Y0168131D02*
X0013793Y0168131D01*
X0013934Y0165135D02*
X0009556Y0165135D01*
X0009556Y0150158D02*
X0009891Y0150158D01*
X0032810Y0150158D02*
X0061141Y0150158D01*
X0024959Y0230039D02*
X0024490Y0230039D01*
X0015012Y0244018D02*
X0014994Y0244018D01*
X0089072Y0258995D02*
X0091059Y0258995D01*
X0091115Y0259994D02*
X0089630Y0259994D01*
X0357134Y0174122D02*
X0357459Y0174122D01*
D17*
X0344125Y0178750D03*
X0337875Y0178750D03*
X0354750Y0196250D03*
X0357250Y0201250D03*
X0368500Y0206250D03*
X0374750Y0208125D03*
X0371000Y0220000D03*
X0371000Y0224375D03*
X0369750Y0228750D03*
X0374750Y0237500D03*
X0371625Y0245625D03*
X0368500Y0248750D03*
X0328500Y0267500D03*
X0323500Y0275000D03*
X0316000Y0275000D03*
X0306625Y0271875D03*
X0306000Y0278125D03*
X0297250Y0271250D03*
X0293500Y0278125D03*
X0282875Y0275000D03*
X0277250Y0275000D03*
X0275375Y0271250D03*
X0260375Y0275000D03*
X0255375Y0275000D03*
X0254750Y0271250D03*
X0238500Y0275000D03*
X0228500Y0278750D03*
X0216625Y0274375D03*
X0222875Y0267500D03*
X0204750Y0274375D03*
X0202875Y0266875D03*
X0196000Y0273125D03*
X0191000Y0275000D03*
X0187875Y0266875D03*
X0174125Y0274375D03*
X0169750Y0274375D03*
X0162875Y0275000D03*
X0159750Y0273125D03*
X0155375Y0271875D03*
X0166000Y0267500D03*
X0143500Y0254375D03*
X0148500Y0250625D03*
X0122875Y0267500D03*
X0123500Y0278125D03*
X0132250Y0275000D03*
X0111000Y0275000D03*
X0106000Y0275000D03*
X0093500Y0273125D03*
X0093500Y0278125D03*
X0084750Y0271875D03*
X0080375Y0278750D03*
X0068500Y0274375D03*
X0063500Y0274375D03*
X0059125Y0267500D03*
X0047250Y0274375D03*
X0042250Y0274375D03*
X0042250Y0263125D03*
X0016000Y0246250D03*
X0015375Y0241250D03*
X0022875Y0231875D03*
X0015375Y0224375D03*
X0015375Y0220000D03*
X0017250Y0208125D03*
X0012250Y0208125D03*
X0018500Y0198750D03*
X0011625Y0194375D03*
X0029750Y0201250D03*
X0011000Y0186250D03*
X0011000Y0173750D03*
X0015375Y0170000D03*
X0016000Y0163750D03*
X0011625Y0151875D03*
X0022875Y0151875D03*
X0062875Y0151875D03*
X0071000Y0146875D03*
X0075375Y0146875D03*
X0074125Y0160625D03*
X0071000Y0162500D03*
X0076625Y0163750D03*
X0080375Y0164375D03*
X0083500Y0161250D03*
X0107875Y0160625D03*
X0111625Y0160625D03*
X0114750Y0167500D03*
X0129750Y0166250D03*
X0138500Y0167500D03*
X0142250Y0167500D03*
X0146625Y0167500D03*
X0150375Y0167500D03*
X0154125Y0167500D03*
X0158500Y0167500D03*
X0162250Y0167500D03*
X0124750Y0154375D03*
X0147875Y0146250D03*
X0151625Y0146250D03*
X0155375Y0146250D03*
X0159125Y0146250D03*
X0170375Y0148125D03*
X0174750Y0148125D03*
X0179750Y0148125D03*
X0191625Y0140625D03*
X0194750Y0139375D03*
X0197875Y0138125D03*
X0200375Y0135625D03*
X0202875Y0133125D03*
X0209125Y0143750D03*
X0210375Y0146875D03*
X0219125Y0145625D03*
X0224750Y0167500D03*
X0228500Y0167500D03*
X0232250Y0167500D03*
X0236625Y0167500D03*
X0240375Y0167500D03*
X0317875Y0163125D03*
X0317875Y0159375D03*
X0319125Y0129375D03*
X0327250Y0126250D03*
X0341000Y0126875D03*
X0341000Y0130625D03*
X0360375Y0129375D03*
X0360375Y0125625D03*
X0351000Y0106875D03*
X0350375Y0103125D03*
X0304125Y0099375D03*
X0292875Y0098750D03*
X0292875Y0108125D03*
X0258500Y0106250D03*
X0231000Y0098125D03*
X0227250Y0091875D03*
X0229125Y0085625D03*
X0251000Y0089375D03*
X0279125Y0088750D03*
X0282875Y0083750D03*
X0287250Y0070000D03*
X0257250Y0061875D03*
X0174125Y0065625D03*
X0169125Y0065625D03*
X0164125Y0065625D03*
X0159125Y0065625D03*
X0154125Y0065625D03*
X0126625Y0076250D03*
X0121625Y0076250D03*
X0116625Y0076250D03*
X0111625Y0076250D03*
X0106625Y0076250D03*
X0101625Y0076250D03*
X0096625Y0076250D03*
X0096625Y0104375D03*
X0101625Y0104375D03*
X0106625Y0104375D03*
X0111625Y0104375D03*
X0116625Y0104375D03*
X0121625Y0104375D03*
X0126625Y0104375D03*
X0133500Y0128750D03*
X0145375Y0128750D03*
X0154750Y0128750D03*
X0161000Y0128750D03*
X0171625Y0128750D03*
X0091000Y0176250D03*
X0108500Y0181875D03*
X0121000Y0185625D03*
X0130375Y0185625D03*
X0124750Y0223750D03*
X0193500Y0247500D03*
X0201000Y0245000D03*
X0202250Y0250625D03*
X0296625Y0260625D03*
X0339750Y0275000D03*
X0344125Y0275000D03*
X0342875Y0206250D03*
X0369750Y0194375D03*
X0375375Y0194375D03*
X0371625Y0184375D03*
X0371000Y0178125D03*
X0370375Y0173750D03*
X0374750Y0169375D03*
X0370375Y0166250D03*
X0107250Y0259375D03*
X0093500Y0259375D03*
X0087250Y0260625D03*
X0154125Y0037500D03*
X0159125Y0037500D03*
X0164125Y0037500D03*
X0169125Y0037500D03*
X0174125Y0037500D03*
D18*
X0076000Y0048006D03*
X0238500Y0103750D03*
X0314125Y0175000D03*
X0355375Y0176875D03*
X0144125Y0263125D03*
D19*
X0153362Y0263125D01*
X0153362Y0267613D01*
X0153362Y0263125D02*
X0174612Y0263125D01*
X0176625Y0263125D01*
X0174612Y0263125D01*
X0174612Y0267613D01*
X0176625Y0263125D02*
X0193500Y0263125D01*
X0195862Y0263125D01*
X0195862Y0267613D01*
X0195862Y0263125D02*
X0217112Y0263125D01*
X0217112Y0267613D01*
X0217112Y0263125D02*
X0238362Y0263125D01*
X0238362Y0267613D01*
X0238362Y0263125D02*
X0259612Y0263125D01*
X0259612Y0267613D01*
X0259612Y0263125D02*
X0280862Y0263125D01*
X0280862Y0267613D01*
X0280862Y0263125D02*
X0296625Y0263125D01*
X0302112Y0263125D01*
X0302112Y0267613D01*
X0302112Y0263125D02*
X0323362Y0263125D01*
X0323362Y0267613D01*
X0323362Y0263125D02*
X0341625Y0263125D01*
X0359750Y0245000D01*
X0359750Y0241250D01*
X0364100Y0241250D01*
X0364238Y0241388D01*
X0359750Y0241250D02*
X0359750Y0220000D01*
X0364100Y0220000D01*
X0364238Y0220138D01*
X0359750Y0220000D02*
X0359750Y0201250D01*
X0359750Y0198750D01*
X0364100Y0198750D01*
X0364238Y0198888D01*
X0359750Y0198750D02*
X0359750Y0177500D01*
X0359125Y0176875D01*
X0355375Y0176875D01*
X0359750Y0177500D02*
X0364100Y0177500D01*
X0364238Y0177638D01*
X0359750Y0177500D02*
X0359750Y0157500D01*
X0360862Y0156388D01*
X0364238Y0156388D01*
X0314125Y0175000D02*
X0242875Y0103750D01*
X0252250Y0094375D01*
X0347250Y0094375D01*
X0354750Y0101875D01*
X0362875Y0101875D01*
X0367875Y0106875D01*
X0242875Y0103750D02*
X0238500Y0103750D01*
X0104631Y0019375D02*
X0076000Y0048006D01*
X0021000Y0056250D02*
X0013500Y0063750D01*
X0013500Y0146875D01*
X0018500Y0151875D01*
X0018500Y0159375D01*
X0020237Y0161112D01*
X0022762Y0161112D01*
X0025862Y0161112D01*
X0027250Y0162500D01*
X0027250Y0182362D01*
X0022762Y0182362D01*
X0027250Y0182362D02*
X0027250Y0201250D01*
X0027250Y0203612D01*
X0022762Y0203612D01*
X0027250Y0203612D02*
X0027250Y0224862D01*
X0022762Y0224862D01*
X0027250Y0224862D02*
X0027250Y0245000D01*
X0026138Y0246112D01*
X0022762Y0246112D01*
X0027250Y0245000D02*
X0041000Y0258750D01*
X0042875Y0258750D01*
X0047250Y0263125D01*
X0048500Y0263125D01*
X0068362Y0263125D01*
X0068362Y0267613D01*
X0068362Y0263125D02*
X0087250Y0263125D01*
X0089612Y0263125D01*
X0089612Y0267613D01*
X0089612Y0263125D02*
X0110862Y0263125D01*
X0112250Y0263125D01*
X0132112Y0263125D01*
X0132112Y0267613D01*
X0132112Y0263125D02*
X0144125Y0263125D01*
X0112250Y0263125D02*
X0110862Y0263125D01*
X0110862Y0267613D01*
X0048500Y0263125D02*
X0047112Y0264513D01*
X0047112Y0267613D01*
X0208500Y0255000D02*
X0218500Y0255000D01*
X0341625Y0263125D02*
X0343500Y0263125D01*
X0344612Y0264237D01*
X0344612Y0267613D01*
X0261000Y0022500D02*
X0245375Y0022500D01*
X0242250Y0019375D01*
X0104631Y0019375D01*
X0128500Y0015000D02*
X0132875Y0010625D01*
X0244125Y0010625D01*
X0248500Y0015000D01*
X0246625Y0019375D02*
X0254125Y0019375D01*
X0258500Y0015000D01*
X0261000Y0022500D02*
X0268500Y0015000D01*
X0246625Y0019375D02*
X0242250Y0015000D01*
X0138500Y0015000D01*
D20*
X0113500Y0030625D02*
X0069750Y0074375D01*
X0069750Y0145625D01*
X0071000Y0146875D01*
X0071625Y0143125D02*
X0075375Y0146875D01*
X0071625Y0143125D02*
X0071625Y0075625D01*
X0114750Y0032500D01*
X0201000Y0032500D01*
X0217875Y0049375D01*
X0357250Y0049375D01*
X0363500Y0055625D01*
X0363500Y0062500D01*
X0367875Y0066875D01*
X0367875Y0056875D02*
X0358500Y0047500D01*
X0219125Y0047500D01*
X0202250Y0030625D01*
X0113500Y0030625D01*
X0136625Y0045625D02*
X0142250Y0040000D01*
X0151625Y0040000D01*
X0154125Y0037500D01*
X0154750Y0041875D02*
X0159125Y0037500D01*
X0164125Y0037500D02*
X0157875Y0043750D01*
X0144750Y0043750D01*
X0140375Y0048125D01*
X0140375Y0082500D01*
X0191625Y0133750D01*
X0191625Y0140625D01*
X0194750Y0139375D02*
X0194750Y0133750D01*
X0142250Y0081250D01*
X0142250Y0049375D01*
X0146000Y0045625D01*
X0161000Y0045625D01*
X0169125Y0037500D01*
X0174125Y0037500D02*
X0164125Y0047500D01*
X0147250Y0047500D01*
X0144125Y0050625D01*
X0144125Y0080000D01*
X0197250Y0133125D01*
X0197250Y0137500D01*
X0197875Y0138125D01*
X0200375Y0135625D02*
X0201625Y0136875D01*
X0209750Y0136875D01*
X0214125Y0141250D01*
X0214125Y0177500D01*
X0218500Y0181875D01*
X0244750Y0181875D01*
X0248500Y0179375D02*
X0219125Y0179375D01*
X0216000Y0176250D01*
X0216000Y0140000D01*
X0209125Y0133125D01*
X0202875Y0133125D01*
X0209125Y0143750D02*
X0207875Y0145000D01*
X0187875Y0145000D01*
X0185375Y0142500D01*
X0159125Y0142500D01*
X0155375Y0146250D01*
X0159125Y0146250D02*
X0161000Y0144375D01*
X0184125Y0144375D01*
X0186625Y0146875D01*
X0210375Y0146875D01*
X0219125Y0145625D02*
X0219125Y0175625D01*
X0220375Y0176875D01*
X0252250Y0176875D01*
X0240375Y0167500D02*
X0240375Y0148125D01*
X0174125Y0081875D01*
X0174125Y0065625D01*
X0169125Y0065625D02*
X0169125Y0080000D01*
X0236625Y0147500D01*
X0236625Y0167500D01*
X0232250Y0167500D02*
X0232250Y0146250D01*
X0164125Y0078125D01*
X0164125Y0065625D01*
X0159125Y0065625D02*
X0159125Y0076250D01*
X0228500Y0145625D01*
X0228500Y0167500D01*
X0224750Y0167500D02*
X0224750Y0145000D01*
X0154125Y0074375D01*
X0154125Y0065625D01*
X0126625Y0076250D02*
X0110375Y0092500D01*
X0089125Y0092500D01*
X0087875Y0093750D01*
X0087250Y0126250D01*
X0104125Y0143125D01*
X0104125Y0145000D01*
X0101000Y0143750D02*
X0101000Y0143125D01*
X0085375Y0127500D01*
X0086000Y0092500D01*
X0087875Y0090625D01*
X0107250Y0090625D01*
X0121625Y0076250D01*
X0116625Y0076250D02*
X0104125Y0088750D01*
X0086625Y0088750D01*
X0084125Y0091250D01*
X0083500Y0128750D01*
X0097875Y0143125D01*
X0097875Y0145000D01*
X0094750Y0143750D02*
X0094750Y0143125D01*
X0081625Y0130000D01*
X0082250Y0090000D01*
X0085375Y0086875D01*
X0101000Y0086875D01*
X0111625Y0076250D01*
X0106625Y0076250D02*
X0097875Y0085000D01*
X0084125Y0085000D01*
X0080375Y0088750D01*
X0079750Y0131250D01*
X0091625Y0143125D01*
X0091625Y0145000D01*
X0088500Y0143750D02*
X0088500Y0143125D01*
X0077875Y0132500D01*
X0078500Y0087500D01*
X0082875Y0083125D01*
X0094750Y0083125D01*
X0101625Y0076250D01*
X0096625Y0076250D02*
X0091625Y0081250D01*
X0081625Y0081250D01*
X0076625Y0086250D01*
X0076000Y0133750D01*
X0085375Y0143125D01*
X0085375Y0145000D01*
X0082250Y0143750D02*
X0082250Y0146875D01*
X0084750Y0149375D01*
X0124125Y0149375D01*
X0134750Y0160000D01*
X0134750Y0167500D01*
X0138500Y0167500D02*
X0138500Y0160625D01*
X0096625Y0118750D01*
X0096625Y0104375D01*
X0101625Y0104375D02*
X0101625Y0120625D01*
X0142250Y0161250D01*
X0142250Y0167500D01*
X0146625Y0167500D02*
X0146625Y0162500D01*
X0106625Y0122500D01*
X0106625Y0104375D01*
X0111625Y0104375D02*
X0111625Y0124375D01*
X0150375Y0163125D01*
X0150375Y0167500D01*
X0154125Y0167500D02*
X0154125Y0163750D01*
X0116625Y0126250D01*
X0116625Y0104375D01*
X0121625Y0104375D02*
X0121625Y0128125D01*
X0158500Y0165000D01*
X0158500Y0167500D01*
X0162250Y0167500D02*
X0162250Y0165625D01*
X0126625Y0130000D01*
X0126625Y0104375D01*
X0136625Y0085000D02*
X0149750Y0098125D01*
X0149750Y0144375D01*
X0147875Y0146250D01*
X0151625Y0146250D02*
X0151625Y0096875D01*
X0138500Y0083750D01*
X0138500Y0046875D01*
X0143500Y0041875D01*
X0154750Y0041875D01*
X0136625Y0045625D02*
X0136625Y0085000D01*
X0124750Y0154375D02*
X0124750Y0223750D01*
X0130375Y0239375D02*
X0131625Y0239375D01*
X0132875Y0240625D01*
X0184125Y0240625D01*
X0186625Y0238125D01*
X0192875Y0238125D01*
X0194125Y0236875D01*
X0197875Y0236875D01*
X0198500Y0237500D01*
X0201625Y0237500D01*
X0202250Y0238125D01*
X0204750Y0238125D01*
X0213500Y0246875D01*
X0272875Y0246875D01*
X0279750Y0253750D01*
X0301625Y0253750D01*
X0308500Y0253750D01*
X0309750Y0255000D01*
X0334125Y0255000D01*
X0346000Y0243125D01*
X0346000Y0201250D01*
X0342875Y0198125D01*
X0342875Y0196875D01*
X0346625Y0197500D02*
X0347875Y0198750D01*
X0347875Y0244375D01*
X0335375Y0256875D01*
X0308500Y0256875D01*
X0307875Y0256250D01*
X0304125Y0256250D01*
X0300375Y0256250D01*
X0299750Y0255625D01*
X0278500Y0255625D01*
X0271625Y0248750D01*
X0212250Y0248750D01*
X0203500Y0240000D01*
X0201000Y0240000D01*
X0200375Y0239375D01*
X0196625Y0239375D01*
X0196000Y0240000D01*
X0187875Y0240000D01*
X0185375Y0242500D01*
X0131625Y0242500D01*
X0131000Y0241875D01*
X0127875Y0241875D01*
X0129750Y0244375D02*
X0186625Y0244375D01*
X0189125Y0241875D01*
X0199125Y0241875D01*
X0202250Y0241875D01*
X0211000Y0250625D01*
X0270375Y0250625D01*
X0277250Y0257500D01*
X0298500Y0257500D01*
X0299750Y0258750D01*
X0306625Y0258750D01*
X0336625Y0258750D01*
X0349750Y0245625D01*
X0349750Y0196250D01*
X0357250Y0201250D02*
X0359750Y0201250D01*
X0364238Y0203612D02*
X0366876Y0206250D01*
X0368500Y0206250D01*
X0374750Y0208125D02*
X0374750Y0204124D01*
X0375262Y0203612D01*
X0375262Y0198888D02*
X0375375Y0198775D01*
X0375375Y0194375D01*
X0369750Y0194375D02*
X0364238Y0188863D01*
X0364238Y0182362D01*
X0371625Y0184375D02*
X0373249Y0184375D01*
X0375262Y0182362D01*
X0374775Y0178125D02*
X0375262Y0177638D01*
X0374775Y0178125D02*
X0371000Y0178125D01*
X0370375Y0173750D02*
X0364238Y0167613D01*
X0364238Y0161112D01*
X0364725Y0160625D01*
X0364238Y0156388D02*
X0364238Y0123238D01*
X0357875Y0116875D01*
X0360375Y0125625D02*
X0337875Y0148125D01*
X0337875Y0178750D01*
X0344125Y0178750D02*
X0344125Y0145625D01*
X0360375Y0129375D01*
X0341000Y0130625D02*
X0319750Y0151875D01*
X0319750Y0156875D01*
X0321000Y0158125D01*
X0321000Y0160000D01*
X0317875Y0163125D01*
X0317875Y0159375D02*
X0317875Y0150000D01*
X0341000Y0126875D01*
X0327875Y0129375D02*
X0350375Y0106875D01*
X0351000Y0106875D01*
X0350375Y0103125D02*
X0327250Y0126250D01*
X0327875Y0129375D02*
X0319125Y0129375D01*
X0370375Y0158125D02*
X0371625Y0156875D01*
X0374775Y0156875D01*
X0375262Y0156388D01*
X0375262Y0161112D02*
X0374750Y0161624D01*
X0374750Y0169375D01*
X0370375Y0166250D02*
X0370375Y0158125D01*
X0371000Y0220000D02*
X0375124Y0220000D01*
X0375262Y0220138D01*
X0374775Y0224375D02*
X0375262Y0224862D01*
X0374775Y0224375D02*
X0371000Y0224375D01*
X0369750Y0228750D02*
X0368126Y0228750D01*
X0364238Y0224862D01*
X0374750Y0237500D02*
X0374750Y0240876D01*
X0375262Y0241388D01*
X0374775Y0245625D02*
X0375262Y0246112D01*
X0374775Y0245625D02*
X0371625Y0245625D01*
X0368500Y0248750D02*
X0366876Y0248750D01*
X0364238Y0246112D01*
X0339888Y0267613D02*
X0339775Y0267500D01*
X0328500Y0267500D01*
X0318638Y0267613D02*
X0314376Y0271875D01*
X0306625Y0271875D01*
X0306000Y0278125D02*
X0302624Y0278125D01*
X0302112Y0278637D01*
X0297388Y0278637D02*
X0296876Y0278125D01*
X0293500Y0278125D01*
X0297250Y0271250D02*
X0297250Y0267751D01*
X0297388Y0267613D01*
X0296625Y0263125D02*
X0296625Y0260625D01*
X0276138Y0267613D02*
X0275375Y0268376D01*
X0275375Y0271250D01*
X0277250Y0275000D02*
X0277250Y0277525D01*
X0276138Y0278637D01*
X0280862Y0278637D02*
X0282875Y0276624D01*
X0282875Y0275000D01*
X0260375Y0275000D02*
X0259612Y0275763D01*
X0259612Y0278637D01*
X0255375Y0278150D02*
X0254888Y0278637D01*
X0255375Y0278150D02*
X0255375Y0275000D01*
X0254750Y0271250D02*
X0254750Y0267751D01*
X0254888Y0267613D01*
X0238500Y0275000D02*
X0238500Y0278499D01*
X0238362Y0278637D01*
X0233638Y0278637D02*
X0233525Y0278750D01*
X0228500Y0278750D01*
X0217112Y0278637D02*
X0216625Y0278150D01*
X0216625Y0274375D01*
X0212388Y0278637D02*
X0208126Y0274375D01*
X0204750Y0274375D01*
X0202875Y0266875D02*
X0211650Y0266875D01*
X0212388Y0267613D01*
X0222875Y0267500D02*
X0233525Y0267500D01*
X0233638Y0267613D01*
X0196000Y0273125D02*
X0196000Y0278499D01*
X0195862Y0278637D01*
X0191138Y0278637D02*
X0191000Y0278499D01*
X0191000Y0275000D01*
X0174612Y0278637D02*
X0174125Y0278150D01*
X0174125Y0274375D01*
X0169750Y0274375D02*
X0169750Y0278499D01*
X0169888Y0278637D01*
X0162875Y0276875D02*
X0161625Y0278125D01*
X0153874Y0278125D01*
X0153362Y0278637D01*
X0149125Y0278150D02*
X0148638Y0278637D01*
X0148638Y0277362D01*
X0151000Y0275000D01*
X0157875Y0275000D01*
X0159750Y0273125D01*
X0162875Y0275000D02*
X0162875Y0276875D01*
X0155375Y0271875D02*
X0149750Y0271875D01*
X0149125Y0271250D01*
X0149125Y0268100D01*
X0148638Y0267613D01*
X0136000Y0259375D02*
X0164125Y0259375D01*
X0168500Y0255000D01*
X0158500Y0255000D02*
X0154750Y0255000D01*
X0150375Y0250625D01*
X0148500Y0250625D01*
X0148500Y0255000D02*
X0141000Y0247500D01*
X0126000Y0247500D01*
X0124125Y0245625D01*
X0121625Y0245625D01*
X0083500Y0207500D01*
X0083500Y0161250D01*
X0080375Y0164375D02*
X0081625Y0165625D01*
X0081625Y0208750D01*
X0120375Y0247500D01*
X0122875Y0247500D01*
X0124750Y0249375D01*
X0139750Y0249375D01*
X0143500Y0253125D01*
X0143500Y0254375D01*
X0136000Y0259375D02*
X0133500Y0256875D01*
X0133500Y0252500D01*
X0132250Y0251250D01*
X0123500Y0251250D01*
X0121625Y0249375D01*
X0119125Y0249375D01*
X0079750Y0210000D01*
X0079750Y0167500D01*
X0076625Y0164375D01*
X0076625Y0163750D01*
X0074125Y0163125D02*
X0073500Y0163750D01*
X0073500Y0164375D01*
X0077875Y0168750D01*
X0077875Y0211250D01*
X0117875Y0251250D01*
X0120375Y0251250D01*
X0124125Y0255000D01*
X0128500Y0255000D01*
X0118500Y0255000D02*
X0076000Y0212500D01*
X0076000Y0170000D01*
X0071000Y0165000D01*
X0071000Y0162500D01*
X0074125Y0163125D02*
X0074125Y0160625D01*
X0062875Y0151875D02*
X0061625Y0153125D01*
X0042250Y0153125D01*
X0039125Y0156250D01*
X0039125Y0203125D01*
X0037875Y0204375D01*
X0037875Y0206875D01*
X0039750Y0208750D01*
X0039750Y0242500D01*
X0047875Y0250625D01*
X0087875Y0250625D01*
X0089125Y0251875D01*
X0090375Y0251875D01*
X0089750Y0249375D02*
X0092875Y0249375D01*
X0091000Y0246875D02*
X0050375Y0246875D01*
X0043500Y0240000D01*
X0043500Y0204375D01*
X0042875Y0203750D01*
X0042875Y0158750D01*
X0044750Y0156875D01*
X0099125Y0156875D01*
X0106000Y0163750D01*
X0108500Y0163750D01*
X0111625Y0160625D01*
X0107875Y0160625D02*
X0106000Y0160625D01*
X0100375Y0155000D01*
X0043500Y0155000D01*
X0041000Y0157500D01*
X0041000Y0206250D01*
X0041625Y0206875D01*
X0041625Y0241250D01*
X0049125Y0248750D01*
X0089125Y0248750D01*
X0089750Y0249375D01*
X0093500Y0259375D02*
X0107250Y0259375D01*
X0106138Y0267613D02*
X0100626Y0273125D01*
X0093500Y0273125D01*
X0093500Y0278125D02*
X0090124Y0278125D01*
X0089612Y0278637D01*
X0084888Y0278637D02*
X0084775Y0278750D01*
X0080375Y0278750D01*
X0084750Y0271875D02*
X0084750Y0267751D01*
X0084888Y0267613D01*
X0087250Y0263125D02*
X0087250Y0260625D01*
X0063638Y0267613D02*
X0063525Y0267500D01*
X0059125Y0267500D01*
X0063500Y0274375D02*
X0063500Y0278499D01*
X0063638Y0278637D01*
X0068362Y0278637D02*
X0068500Y0278499D01*
X0068500Y0274375D01*
X0047250Y0274375D02*
X0047250Y0278499D01*
X0047112Y0278637D01*
X0042388Y0278637D02*
X0042250Y0278499D01*
X0042250Y0274375D01*
X0042388Y0267613D02*
X0042250Y0267475D01*
X0042250Y0263125D01*
X0016000Y0246250D02*
X0011876Y0246250D01*
X0011738Y0246112D01*
X0011738Y0241388D02*
X0011876Y0241250D01*
X0015375Y0241250D01*
X0022762Y0241388D02*
X0022875Y0241275D01*
X0022875Y0231875D01*
X0015375Y0224375D02*
X0012225Y0224375D01*
X0011738Y0224862D01*
X0011738Y0220138D02*
X0011876Y0220000D01*
X0015375Y0220000D01*
X0022762Y0220138D02*
X0022875Y0220025D01*
X0022875Y0210000D01*
X0021000Y0208125D01*
X0017250Y0208125D01*
X0012250Y0208125D02*
X0012250Y0204124D01*
X0011738Y0203612D01*
X0011738Y0198888D02*
X0011625Y0198775D01*
X0011625Y0194375D01*
X0018500Y0198750D02*
X0022624Y0198750D01*
X0022762Y0198888D01*
X0027250Y0201250D02*
X0029750Y0201250D01*
X0011000Y0186250D02*
X0011000Y0183100D01*
X0011738Y0182362D01*
X0011738Y0177638D02*
X0011000Y0176900D01*
X0011000Y0173750D01*
X0015375Y0170000D02*
X0022762Y0177387D01*
X0022762Y0177638D01*
X0016000Y0163750D02*
X0014750Y0162500D01*
X0013500Y0162500D01*
X0012112Y0161112D01*
X0011738Y0161112D01*
X0011738Y0156388D02*
X0011625Y0156275D01*
X0011625Y0151875D01*
X0022875Y0151875D02*
X0022875Y0156275D01*
X0022762Y0156388D01*
X0091000Y0176250D02*
X0096625Y0181875D01*
X0108500Y0181875D01*
X0201000Y0245000D02*
X0202250Y0246250D01*
X0202250Y0250625D01*
X0193500Y0247500D02*
X0193500Y0263125D01*
X0190400Y0266875D02*
X0191138Y0267613D01*
X0190400Y0266875D02*
X0187875Y0266875D01*
X0169888Y0267613D02*
X0169775Y0267500D01*
X0166000Y0267500D01*
X0132250Y0275000D02*
X0132112Y0275138D01*
X0132112Y0278637D01*
X0127388Y0278637D02*
X0126876Y0278125D01*
X0123500Y0278125D01*
X0122988Y0267613D02*
X0127388Y0267613D01*
X0122988Y0267613D02*
X0122875Y0267500D01*
X0111000Y0275000D02*
X0111000Y0278499D01*
X0110862Y0278637D01*
X0106138Y0278637D02*
X0106000Y0278499D01*
X0106000Y0275000D01*
X0316000Y0275000D02*
X0318638Y0277638D01*
X0318638Y0278637D01*
X0323362Y0278637D02*
X0323500Y0278499D01*
X0323500Y0275000D01*
X0339750Y0275000D02*
X0339750Y0278499D01*
X0339888Y0278637D01*
X0344612Y0278637D02*
X0344612Y0275487D01*
X0344125Y0275000D01*
D21*
X0306625Y0258750D03*
X0304125Y0256250D03*
X0301625Y0253750D03*
X0199125Y0241875D03*
X0196625Y0239375D03*
X0194125Y0236875D03*
X0130375Y0239375D03*
X0127875Y0241875D03*
X0129750Y0244375D03*
X0092875Y0249375D03*
X0091000Y0246875D03*
X0090375Y0251875D03*
X0041000Y0206250D03*
X0043500Y0204375D03*
X0037875Y0204375D03*
X0134750Y0167500D03*
X0104125Y0145000D03*
X0101000Y0143750D03*
X0097875Y0145000D03*
X0094750Y0143750D03*
X0091625Y0145000D03*
X0088500Y0143750D03*
X0085375Y0145000D03*
X0082250Y0143750D03*
X0244750Y0181875D03*
X0248500Y0179375D03*
X0252250Y0176875D03*
X0342875Y0196875D03*
X0346625Y0197500D03*
X0349750Y0196250D03*
M02*
