%
M48
M72
T01C0.0130
T02C0.0150
T03C0.0236
T04C0.0315
T05C0.0394
T06C0.0433
T07C0.1181
T08C0.1476
%
T01
X8225Y14375
X8538Y14500
X8850Y14375
X9163Y14500
X9475Y14375
X9788Y14500
X10100Y14375
X10413Y14500
X13475Y16750
X4350Y20438
X4100Y20625
X3788Y20438
X9100Y24688
X9288Y24938
X9038Y25188
X12788Y24188
X12975Y24438
X13038Y23938
X19413Y23688
X19663Y23938
X19913Y24188
X30163Y25375
X30413Y25625
X30663Y25875
X34288Y19688
X34663Y19750
X34975Y19625
X25225Y17688
X24850Y17938
X24475Y18188
T02
X24038Y16750
X23663Y16750
X23225Y16750
X22850Y16750
X22475Y16750
X21038Y14688
X20913Y14375
X21913Y14563
X20288Y13313
X20038Y13563
X19788Y13813
X19475Y13938
X19163Y14063
X17975Y14813
X17475Y14813
X17038Y14813
X15913Y14625
X15538Y14625
X15163Y14625
X14788Y14625
X12475Y15438
X11163Y16063
X10788Y16063
X11475Y16750
X12975Y16625
X13850Y16750
X14225Y16750
X14663Y16750
X15038Y16750
X15413Y16750
X15850Y16750
X16225Y16750
X13038Y18563
X12100Y18563
X10850Y18188
X9100Y17625
X8038Y16438
X7663Y16375
X7413Y16063
X7100Y16250
X8350Y16125
X6288Y15188
X7100Y14688
X7538Y14688
X2288Y15188
X1163Y15188
X1600Y16375
X1538Y17000
X1100Y17375
X1100Y18625
X1163Y19438
X1850Y19875
X2975Y20125
X1725Y20813
X1225Y20813
X1538Y22000
X1538Y22438
X2288Y23188
X1538Y24125
X1600Y24625
X4225Y26313
X5913Y26750
X6350Y27438
X6850Y27438
X8038Y27875
X8475Y27188
X9350Y27313
X9350Y27813
X10600Y27500
X11100Y27500
X12350Y27813
X13225Y27500
X12288Y26750
X10725Y25938
X9350Y25938
X8725Y26063
X4725Y27438
X4225Y27438
X14350Y25438
X14850Y25063
X16600Y26750
X16975Y27438
X17413Y27438
X16288Y27500
X15975Y27313
X15538Y27188
X18788Y26688
X19600Y27313
X19100Y27500
X20475Y27438
X20288Y26688
X21663Y27438
X22288Y26750
X22850Y27875
X23850Y27500
X25475Y27125
X25538Y27500
X26038Y27500
X27538Y27125
X27725Y27500
X28288Y27500
X29350Y27813
X29725Y27125
X30663Y27188
X30600Y27813
X31600Y27500
X32350Y27500
X32850Y26750
X33975Y27500
X34413Y27500
X29663Y26063
X36850Y24875
X37163Y24563
X37475Y23750
X36975Y22875
X37100Y22438
X37100Y22000
X37475Y20813
X36850Y20625
X35725Y20125
X35475Y19625
X36975Y19438
X37538Y19438
X37163Y18438
X37100Y17813
X37038Y17375
X37475Y16938
X37038Y16625
X34413Y17875
X33788Y17875
X31788Y16313
X31788Y15938
X31913Y12938
X32725Y12625
X34100Y12688
X34100Y13063
X36038Y12938
X36038Y12563
X35100Y10688
X35038Y10313
X30413Y9938
X29288Y9875
X29288Y10813
X25850Y10625
X23100Y9813
X22725Y9188
X22913Y8563
X25100Y8938
X27913Y8875
X28288Y8375
X28725Y7000
X25725Y6188
X17413Y6563
X16913Y6563
X16413Y6563
X15913Y6563
X15413Y6563
X12663Y7625
X12163Y7625
X11663Y7625
X11163Y7625
X10663Y7625
X10163Y7625
X9663Y7625
X9663Y10438
X10163Y10438
X10663Y10438
X11163Y10438
X11663Y10438
X12163Y10438
X12663Y10438
X13350Y12875
X14538Y12875
X15475Y12875
X16100Y12875
X17163Y12875
X34288Y20625
X20100Y24500
X20225Y25063
X19350Y24750
X12475Y22375
X15413Y3750
X15913Y3750
X16413Y3750
X16913Y3750
X17413Y3750
T03
X7600Y4801
X23850Y10375
X31413Y17500
X35538Y17688
X14413Y26313
X5932Y13813
T04
X11850Y25500
X12850Y25500
X13850Y25500
X14850Y25500
X15850Y25500
X16850Y25500
X17850Y25500
X18850Y25500
X19850Y25500
X20850Y25500
X21850Y25500
X22850Y25500
X23850Y25500
X24850Y25500
X25850Y25500
X26850Y25500
X26850Y1500
X25850Y1500
X24850Y1500
X13850Y1500
X12850Y1500
X11850Y1500
T05
X3100Y5625
X2100Y5625
X2100Y6625
X3100Y6625
X3100Y7625
X2100Y7625
X2100Y8625
X3100Y8625
X3100Y9625
X2100Y9625
X2100Y10625
X3100Y10625
X3100Y11625
X2100Y11625
X2100Y12625
X3100Y12625
X3100Y13625
X2100Y13625
X2100Y14625
X3100Y14625
X35788Y11688
X36788Y11688
X36788Y10688
X35788Y10688
X35788Y9688
X36788Y9688
X36788Y8688
X35788Y8688
X35788Y7688
X36788Y7688
X36788Y6688
X35788Y6688
X35788Y5688
X36788Y5688
T06
X32231Y13813
T07
X2413Y2063
X36288Y2063
X36288Y26625
X2413Y26625
T08
X7100Y1938
X30975Y1938
M30
