G75*
G70*
%OFA0B0*%
%FSLAX24Y24*%
%IPPOS*%
%LPD*%
%AMOC8*
5,1,8,0,0,1.08239X$1,22.5*
%
%ADD10C,0.0070*%
%ADD11C,0.0040*%
%ADD12R,0.0020X0.0010*%
%ADD13R,0.0040X0.0010*%
%ADD14R,0.0060X0.0010*%
%ADD15R,0.0100X0.0010*%
%ADD16R,0.0130X0.0010*%
%ADD17R,0.0170X0.0010*%
%ADD18R,0.0210X0.0010*%
%ADD19R,0.0270X0.0010*%
%ADD20R,0.0310X0.0010*%
%ADD21R,0.0380X0.0010*%
%ADD22R,0.0430X0.0010*%
%ADD23R,0.0510X0.0010*%
%ADD24R,0.0580X0.0010*%
%ADD25R,0.0660X0.0010*%
%ADD26R,0.0750X0.0010*%
%ADD27R,0.0850X0.0010*%
%ADD28R,0.0940X0.0010*%
%ADD29R,0.1050X0.0010*%
%ADD30R,0.1170X0.0010*%
%ADD31R,0.1280X0.0010*%
%ADD32R,0.1420X0.0010*%
%ADD33R,0.1550X0.0010*%
%ADD34R,0.1700X0.0010*%
%ADD35R,0.1860X0.0010*%
%ADD36R,0.2020X0.0010*%
%ADD37R,0.2190X0.0010*%
%ADD38R,0.2380X0.0010*%
%ADD39R,0.2580X0.0010*%
%ADD40R,0.2790X0.0010*%
%ADD41R,0.3020X0.0010*%
%ADD42R,0.3250X0.0010*%
%ADD43R,0.3500X0.0010*%
%ADD44R,0.3780X0.0010*%
%ADD45R,0.4060X0.0010*%
%ADD46R,0.4370X0.0010*%
%ADD47R,0.4700X0.0010*%
%ADD48R,0.5070X0.0010*%
%ADD49R,0.5460X0.0010*%
%ADD50R,0.5890X0.0010*%
%ADD51R,0.6380X0.0010*%
%ADD52R,0.6940X0.0010*%
%ADD53R,0.7620X0.0010*%
%ADD54R,0.0200X0.0010*%
%ADD55R,0.0180X0.0010*%
%ADD56R,0.0410X0.0010*%
%ADD57R,0.0400X0.0010*%
%ADD58R,0.0190X0.0010*%
%ADD59R,0.0280X0.0010*%
%ADD60R,0.0250X0.0010*%
%ADD61R,0.0160X0.0010*%
%ADD62R,0.1290X0.0010*%
%ADD63R,0.0420X0.0010*%
%ADD64R,0.0220X0.0010*%
%ADD65R,0.0340X0.0010*%
%ADD66R,0.0300X0.0010*%
%ADD67R,0.0390X0.0010*%
%ADD68R,0.1300X0.0010*%
%ADD69R,0.0470X0.0010*%
%ADD70R,0.0230X0.0010*%
%ADD71R,0.0490X0.0010*%
%ADD72R,0.0240X0.0010*%
%ADD73R,0.0530X0.0010*%
%ADD74R,0.0460X0.0010*%
%ADD75R,0.0550X0.0010*%
%ADD76R,0.0480X0.0010*%
%ADD77R,0.0570X0.0010*%
%ADD78R,0.0260X0.0010*%
%ADD79R,0.0500X0.0010*%
%ADD80R,0.0590X0.0010*%
%ADD81R,0.0520X0.0010*%
%ADD82R,0.0610X0.0010*%
%ADD83R,0.0540X0.0010*%
%ADD84R,0.0630X0.0010*%
%ADD85R,0.0650X0.0010*%
%ADD86R,0.0290X0.0010*%
%ADD87R,0.0760X0.0010*%
%ADD88R,0.0680X0.0010*%
%ADD89R,0.0700X0.0010*%
%ADD90R,0.0770X0.0010*%
%ADD91R,0.0320X0.0010*%
%ADD92R,0.0370X0.0010*%
%ADD93R,0.0330X0.0010*%
%ADD94R,0.0350X0.0010*%
%ADD95R,0.0740X0.0010*%
%ADD96R,0.0730X0.0010*%
%ADD97R,0.0360X0.0010*%
%ADD98R,0.0720X0.0010*%
%ADD99R,0.0710X0.0010*%
%ADD100R,0.0690X0.0010*%
%ADD101R,0.0670X0.0010*%
%ADD102R,0.0150X0.0010*%
%ADD103R,0.0110X0.0010*%
%ADD104R,0.0640X0.0010*%
%ADD105R,0.0050X0.0010*%
%ADD106R,0.0440X0.0010*%
%ADD107R,0.0010X0.0010*%
%ADD108R,0.0450X0.0010*%
%ADD109R,0.0030X0.0010*%
%ADD110R,0.0070X0.0010*%
%ADD111R,0.0120X0.0010*%
%ADD112R,0.0620X0.0010*%
%ADD113R,0.1350X0.0010*%
%ADD114R,0.1340X0.0010*%
%ADD115R,0.1330X0.0010*%
%ADD116R,0.1310X0.0010*%
%ADD117R,0.1320X0.0010*%
%ADD118R,0.1360X0.0010*%
%ADD119R,0.1400X0.0010*%
%ADD120R,0.1440X0.0010*%
%ADD121R,0.1450X0.0010*%
%ADD122R,0.1470X0.0010*%
%ADD123R,0.1480X0.0010*%
%ADD124R,0.1500X0.0010*%
%ADD125R,0.1520X0.0010*%
%ADD126R,0.1540X0.0010*%
%ADD127R,0.1560X0.0010*%
%ADD128R,0.1570X0.0010*%
%ADD129R,0.1580X0.0010*%
%ADD130R,0.1600X0.0010*%
%ADD131R,0.1610X0.0010*%
%ADD132R,0.1620X0.0010*%
%ADD133R,0.1630X0.0010*%
%ADD134R,0.1640X0.0010*%
%ADD135R,0.1650X0.0010*%
%ADD136R,0.1660X0.0010*%
%ADD137R,0.0080X0.0010*%
%ADD138R,0.0090X0.0010*%
%ADD139R,0.0600X0.0010*%
%ADD140R,0.1080X0.0010*%
%ADD141R,0.1120X0.0010*%
%ADD142R,0.1460X0.0010*%
%ADD143R,0.1430X0.0010*%
%ADD144R,0.1390X0.0010*%
%ADD145R,0.1380X0.0010*%
%ADD146R,0.1270X0.0010*%
%ADD147R,0.1240X0.0010*%
%ADD148R,0.1210X0.0010*%
%ADD149R,0.1180X0.0010*%
%ADD150R,0.1150X0.0010*%
%ADD151R,0.1110X0.0010*%
%ADD152R,0.1060X0.0010*%
%ADD153R,0.1010X0.0010*%
%ADD154R,0.0910X0.0010*%
%ADD155C,0.0030*%
%ADD156C,0.0080*%
%ADD157C,0.0060*%
%ADD158C,0.0100*%
%ADD159C,0.0050*%
%ADD160R,0.0660X0.0380*%
%ADD161C,0.0120*%
%ADD162R,0.1000X0.0200*%
%ADD163R,0.0200X0.0300*%
%ADD164C,0.0010*%
%ADD165R,0.0340X0.0580*%
%ADD166R,0.2500X0.0250*%
%ADD167C,0.0130*%
%ADD168C,0.0160*%
D10*
X023286Y011573D02*
X023418Y011442D01*
X023550Y011442D01*
X023682Y011573D01*
X023682Y011837D01*
X023814Y011969D01*
X023945Y011969D01*
X024077Y011837D01*
X024077Y011573D01*
X023945Y011442D01*
X023286Y011573D02*
X023286Y011837D01*
X023418Y011969D01*
X023286Y012233D02*
X023286Y012629D01*
X023418Y012761D01*
X023945Y012761D01*
X024077Y012629D01*
X024077Y012233D01*
X023286Y012233D01*
D11*
X020781Y016175D02*
X020474Y016175D01*
X020627Y016175D02*
X020627Y016636D01*
X020474Y016482D01*
X020320Y016636D02*
X020013Y016175D01*
X020320Y016175D02*
X020013Y016636D01*
X015737Y014718D02*
X015737Y014411D01*
X015737Y014565D02*
X015276Y014565D01*
X015430Y014411D01*
X015430Y014258D02*
X015506Y014181D01*
X015506Y013951D01*
X015276Y013951D02*
X015276Y014181D01*
X015353Y014258D01*
X015430Y014258D01*
X015506Y014181D02*
X015583Y014258D01*
X015660Y014258D01*
X015737Y014181D01*
X015737Y013951D01*
X015276Y013951D01*
X015276Y013797D02*
X015737Y013490D01*
X015737Y013797D02*
X015276Y013490D01*
X010612Y013268D02*
X010612Y012665D01*
X010579Y012665D01*
X010546Y012681D01*
X010519Y012665D01*
X010491Y012665D01*
X010146Y012528D01*
X010530Y012139D01*
X010557Y012117D01*
X010590Y012100D01*
X010612Y012095D01*
X010612Y011750D01*
X010563Y011821D01*
X010524Y011876D01*
X010458Y011952D01*
X009976Y012468D01*
X009219Y012161D01*
X009099Y012073D01*
X009099Y012057D01*
X009132Y012024D01*
X009263Y011980D01*
X009510Y011914D01*
X009822Y011837D01*
X010404Y011695D01*
X010502Y011673D01*
X010612Y011673D01*
X010612Y010428D01*
X010595Y010362D01*
X010568Y010319D01*
X010508Y010286D01*
X010453Y010264D01*
X010360Y010264D01*
X010316Y010280D01*
X010042Y010346D01*
X009987Y010368D01*
X009905Y010450D01*
X009877Y010516D01*
X009855Y010604D01*
X009855Y010713D01*
X009833Y010554D01*
X009779Y010439D01*
X009768Y010434D01*
X009620Y010434D01*
X009378Y010494D01*
X009318Y010532D01*
X009252Y010543D01*
X009159Y010626D01*
X009126Y010691D01*
X009093Y010796D01*
X009093Y012698D01*
X009154Y012665D01*
X009192Y012665D01*
X009625Y012840D01*
X009181Y013296D01*
X009093Y013345D01*
X009093Y013668D01*
X009192Y013531D01*
X009790Y012895D01*
X010552Y013208D01*
X010612Y013268D01*
X009959Y011371D02*
X010425Y011256D01*
X010425Y010752D01*
X010398Y010702D01*
X010310Y010697D01*
X010020Y010774D01*
X009981Y010790D01*
X009959Y010823D01*
X009959Y011371D01*
X009762Y011410D02*
X009762Y010911D01*
X009746Y010867D01*
X009707Y010839D01*
X009691Y010839D01*
X009367Y010922D01*
X009334Y010944D01*
X009291Y010982D01*
X009280Y011004D01*
X009280Y011536D01*
X009762Y011410D01*
X009378Y010313D02*
X009866Y010204D01*
X009927Y010187D01*
X010058Y010121D01*
X010129Y010072D01*
X010184Y009984D01*
X010206Y009918D01*
X010212Y009886D01*
X010212Y009025D01*
X010190Y008965D01*
X010135Y008893D01*
X010113Y008871D01*
X009921Y008871D01*
X009543Y008965D01*
X009543Y009864D01*
X009356Y009907D01*
X009324Y009918D01*
X009285Y009913D01*
X009269Y009891D01*
X009269Y009102D01*
X009280Y009030D01*
X009093Y009107D01*
X009093Y010193D01*
X009104Y010236D01*
X009137Y010280D01*
X009176Y010308D01*
X009236Y010324D01*
X009291Y010324D01*
X009378Y010313D01*
X009718Y009814D02*
X009713Y009809D01*
X009713Y009337D01*
X009948Y009277D01*
X010020Y009277D01*
X010036Y009293D01*
X010042Y009315D01*
X010042Y009705D01*
X010025Y009738D01*
X009987Y009759D01*
X009943Y009776D01*
X009718Y009814D01*
X009378Y008855D02*
X009866Y008745D01*
X009927Y008729D01*
X010058Y008663D01*
X010129Y008614D01*
X010184Y008526D01*
X010206Y008460D01*
X010212Y008427D01*
X010212Y007567D01*
X010190Y007506D01*
X010135Y007435D01*
X010113Y007413D01*
X009921Y007413D01*
X009543Y007506D01*
X009543Y008405D01*
X009356Y008449D01*
X009324Y008460D01*
X009285Y008455D01*
X009269Y008433D01*
X009269Y007643D01*
X009280Y007572D01*
X009093Y007649D01*
X009093Y008734D01*
X009104Y008778D01*
X009137Y008822D01*
X009176Y008849D01*
X009236Y008866D01*
X009291Y008866D01*
X009378Y008855D01*
X009718Y008356D02*
X009713Y008351D01*
X009713Y007879D01*
X009948Y007819D01*
X010020Y007819D01*
X010036Y007835D01*
X010042Y007857D01*
X010042Y008246D01*
X010025Y008279D01*
X009987Y008301D01*
X009943Y008318D01*
X009718Y008356D01*
X008501Y007994D02*
X008441Y008109D01*
X008265Y008318D01*
X008117Y008466D01*
X008074Y008482D01*
X007942Y008509D01*
X007832Y008515D01*
X007728Y008460D01*
X007668Y008367D01*
X007668Y008241D01*
X007690Y008082D01*
X007756Y007978D01*
X007788Y007835D01*
X007865Y007758D01*
X007947Y007654D01*
X008057Y007594D01*
X008128Y007583D01*
X008233Y007610D01*
X008309Y007704D01*
X008386Y007813D01*
X008408Y007890D01*
X008435Y007895D01*
X008479Y007934D01*
X008501Y007989D01*
X008315Y008049D02*
X008271Y008109D01*
X008161Y008252D01*
X008035Y008345D01*
X007876Y008394D01*
X007821Y008400D01*
X007794Y008351D01*
X007799Y008219D01*
X007849Y008087D01*
X007893Y007950D01*
X007958Y007835D01*
X008035Y007726D01*
X008167Y007726D01*
X008293Y007846D01*
X008315Y007912D01*
X008315Y008049D01*
X008359Y008636D02*
X008309Y008663D01*
X008265Y008663D01*
X008222Y008707D01*
X008183Y008767D01*
X008128Y008888D01*
X008057Y009003D01*
X008024Y009058D01*
X007942Y008975D01*
X007871Y008871D01*
X007810Y008795D01*
X007756Y008751D01*
X007701Y008729D01*
X007668Y008723D01*
X007635Y008740D01*
X007630Y008756D01*
X007662Y008800D01*
X007832Y009014D01*
X007969Y009217D01*
X007969Y009255D01*
X007931Y009266D01*
X007821Y009304D01*
X007723Y009337D01*
X007668Y009359D01*
X007635Y009359D01*
X007690Y009420D01*
X007772Y009425D01*
X007827Y009414D01*
X008002Y009365D01*
X008101Y009337D01*
X008238Y009277D01*
X008309Y009239D01*
X008348Y009222D01*
X008353Y009261D01*
X008320Y009304D01*
X008326Y009304D01*
X008348Y009321D01*
X008364Y009348D01*
X008386Y009359D01*
X008419Y009354D01*
X008452Y009321D01*
X008474Y009261D01*
X008501Y009189D01*
X008501Y008871D01*
X008485Y008806D01*
X008457Y008729D01*
X008430Y008685D01*
X008386Y008647D01*
X008359Y008636D01*
X008326Y008789D02*
X008315Y008827D01*
X008260Y008882D01*
X008216Y008959D01*
X008178Y009030D01*
X008161Y009113D01*
X008128Y009178D01*
X008315Y009074D01*
X008370Y009069D01*
X008370Y008871D01*
X008359Y008806D01*
X008326Y008789D01*
X008331Y009557D02*
X008309Y009557D01*
X008260Y009579D01*
X008222Y009611D01*
X008178Y009677D01*
X008057Y009918D01*
X008008Y010045D01*
X007986Y010143D01*
X007980Y010176D01*
X007980Y010214D01*
X007931Y010231D01*
X007832Y010264D01*
X007745Y010291D01*
X007706Y010313D01*
X007684Y010324D01*
X007673Y010346D01*
X007690Y010373D01*
X007723Y010395D01*
X007761Y010395D01*
X007805Y010384D01*
X007909Y010335D01*
X007986Y010302D01*
X008057Y010291D01*
X008123Y010275D01*
X008211Y010247D01*
X008276Y010220D01*
X008320Y010193D01*
X008320Y010236D01*
X008413Y010236D01*
X008413Y010187D01*
X008446Y010143D01*
X008490Y010099D01*
X008463Y010050D01*
X008463Y009853D01*
X008446Y009694D01*
X008381Y009584D01*
X008331Y009557D01*
X008315Y009683D02*
X008298Y009688D01*
X008276Y009716D01*
X008233Y009803D01*
X008183Y009875D01*
X008156Y009973D01*
X008128Y010045D01*
X008123Y010088D01*
X008123Y010154D01*
X008326Y010055D01*
X008353Y010045D01*
X008353Y009765D01*
X008326Y009699D01*
X008315Y009683D01*
X017195Y004344D02*
X017195Y004267D01*
X017271Y004191D01*
X017425Y004191D01*
X017502Y004114D01*
X017502Y004037D01*
X017425Y003960D01*
X017271Y003960D01*
X017195Y004037D01*
X017195Y004344D02*
X017271Y004421D01*
X017425Y004421D01*
X017502Y004344D01*
X017655Y004421D02*
X017885Y004421D01*
X017962Y004344D01*
X017962Y004037D01*
X017885Y003960D01*
X017655Y003960D01*
X017655Y004421D01*
X019269Y003900D02*
X019269Y003112D01*
X019269Y002718D01*
X019269Y002246D01*
X019269Y001852D02*
X019269Y001380D01*
X019269Y000986D02*
X019269Y000514D01*
X019271Y000475D01*
X019277Y000437D01*
X019286Y000400D01*
X019299Y000363D01*
X019316Y000328D01*
X019335Y000295D01*
X019358Y000264D01*
X019384Y000235D01*
X019413Y000209D01*
X019444Y000186D01*
X019477Y000167D01*
X019512Y000150D01*
X019549Y000137D01*
X019586Y000128D01*
X019624Y000122D01*
X019663Y000120D01*
X020056Y000120D01*
X020450Y000120D02*
X020844Y000120D01*
X021237Y000120D02*
X021631Y000120D01*
X022025Y000120D02*
X022418Y000120D01*
X022812Y000120D02*
X023206Y000120D01*
X023600Y000120D02*
X023993Y000120D01*
X024387Y000120D02*
X024781Y000120D01*
X025174Y000120D02*
X025568Y000120D01*
X025962Y000120D02*
X026355Y000120D01*
X026749Y000120D02*
X027143Y000120D01*
X027537Y000120D02*
X027930Y000120D01*
X028324Y000120D02*
X028718Y000120D01*
X028757Y000122D01*
X028795Y000128D01*
X028832Y000137D01*
X028869Y000150D01*
X028904Y000167D01*
X028937Y000186D01*
X028968Y000209D01*
X028997Y000235D01*
X029023Y000264D01*
X029046Y000295D01*
X029065Y000328D01*
X029082Y000363D01*
X029095Y000400D01*
X029104Y000437D01*
X029110Y000475D01*
X029112Y000514D01*
X029111Y000514D02*
X029111Y000986D01*
X029111Y001380D02*
X029111Y001852D01*
X029111Y002246D02*
X029111Y002718D01*
X029111Y003112D01*
X029111Y003900D01*
X029112Y003112D02*
X029110Y003073D01*
X029104Y003035D01*
X029095Y002998D01*
X029082Y002961D01*
X029065Y002926D01*
X029046Y002893D01*
X029023Y002862D01*
X028997Y002833D01*
X028968Y002807D01*
X028937Y002784D01*
X028904Y002765D01*
X028869Y002748D01*
X028832Y002735D01*
X028795Y002726D01*
X028757Y002720D01*
X028718Y002718D01*
X028718Y002324D02*
X028757Y002326D01*
X028795Y002332D01*
X028832Y002341D01*
X028869Y002354D01*
X028904Y002371D01*
X028937Y002390D01*
X028968Y002413D01*
X028997Y002439D01*
X029023Y002468D01*
X029046Y002499D01*
X029065Y002532D01*
X029082Y002567D01*
X029095Y002604D01*
X029104Y002641D01*
X029110Y002679D01*
X029112Y002718D01*
X028718Y002718D02*
X028324Y002718D01*
X028324Y002325D02*
X028718Y002325D01*
X027930Y002325D02*
X027537Y002325D01*
X027537Y002718D02*
X027930Y002718D01*
X027143Y002718D02*
X026749Y002718D01*
X026749Y002325D02*
X027143Y002325D01*
X026355Y002325D02*
X025962Y002325D01*
X025962Y002718D02*
X026355Y002718D01*
X025568Y002718D02*
X025174Y002718D01*
X025174Y002325D02*
X025568Y002325D01*
X024781Y002325D02*
X024387Y002325D01*
X024387Y002718D02*
X024781Y002718D01*
X023993Y002718D02*
X023600Y002718D01*
X023600Y002325D02*
X023993Y002325D01*
X023206Y002325D02*
X022812Y002325D01*
X022812Y002718D02*
X023206Y002718D01*
X022418Y002718D02*
X022025Y002718D01*
X022025Y002325D02*
X022418Y002325D01*
X021631Y002325D02*
X021237Y002325D01*
X020844Y002325D02*
X020450Y002325D01*
X020450Y002718D02*
X020844Y002718D01*
X021237Y002718D02*
X021631Y002718D01*
X020056Y002718D02*
X019663Y002718D01*
X019269Y002718D02*
X019271Y002679D01*
X019277Y002641D01*
X019286Y002604D01*
X019299Y002567D01*
X019316Y002532D01*
X019335Y002499D01*
X019358Y002468D01*
X019384Y002439D01*
X019413Y002413D01*
X019444Y002390D01*
X019477Y002371D01*
X019512Y002354D01*
X019549Y002341D01*
X019586Y002332D01*
X019624Y002326D01*
X019663Y002324D01*
X019663Y002325D02*
X020056Y002325D01*
X019663Y002718D02*
X019624Y002720D01*
X019586Y002726D01*
X019549Y002735D01*
X019512Y002748D01*
X019477Y002765D01*
X019444Y002784D01*
X019413Y002807D01*
X019384Y002833D01*
X019358Y002862D01*
X019335Y002893D01*
X019316Y002926D01*
X019299Y002961D01*
X019286Y002998D01*
X019277Y003035D01*
X019271Y003073D01*
X019269Y003112D01*
X011393Y038393D02*
X011317Y038393D01*
X011240Y038470D01*
X011086Y038470D02*
X011086Y038777D01*
X011010Y038854D01*
X010779Y038854D01*
X010779Y038393D01*
X011010Y038393D01*
X011086Y038470D01*
X011393Y038393D02*
X011470Y038470D01*
X011470Y038854D01*
X011393Y038854D02*
X011547Y038854D01*
X010626Y038700D02*
X010626Y038393D01*
X010626Y038623D02*
X010319Y038623D01*
X010319Y038700D02*
X010473Y038854D01*
X010626Y038700D01*
X010319Y038700D02*
X010319Y038393D01*
X010166Y038623D02*
X009859Y038623D01*
X009705Y038623D02*
X009705Y038470D01*
X009628Y038393D01*
X009475Y038393D01*
X009398Y038470D01*
X009398Y038623D02*
X009552Y038700D01*
X009628Y038700D01*
X009705Y038623D01*
X009705Y038854D02*
X009398Y038854D01*
X009398Y038623D01*
X009245Y038777D02*
X008938Y038470D01*
X008938Y038393D01*
X008784Y038470D02*
X008708Y038393D01*
X008554Y038393D01*
X008478Y038470D01*
X008478Y038623D02*
X008631Y038700D01*
X008708Y038700D01*
X008784Y038623D01*
X008784Y038470D01*
X008478Y038623D02*
X008478Y038854D01*
X008784Y038854D01*
X008938Y038854D02*
X009245Y038854D01*
X009245Y038777D01*
X008324Y038777D02*
X008247Y038854D01*
X008094Y038854D01*
X008017Y038777D01*
X007864Y038854D02*
X007864Y038393D01*
X008017Y038393D02*
X008324Y038700D01*
X008324Y038777D01*
X008324Y038393D02*
X008017Y038393D01*
X007710Y038700D02*
X007864Y038854D01*
X007710Y038700D02*
X007557Y038854D01*
X007557Y038393D01*
X007403Y038393D02*
X007096Y038393D01*
X007096Y038854D01*
D12*
X005180Y039020D03*
X008460Y041500D03*
D13*
X008470Y041480D03*
X008580Y041240D03*
X008580Y041230D03*
X010440Y040210D03*
X005190Y039030D03*
D14*
X005210Y039040D03*
X008480Y041460D03*
X008580Y041270D03*
X008580Y041260D03*
X008580Y041250D03*
X008590Y041200D03*
X008600Y041190D03*
D15*
X008600Y041920D03*
X010470Y040230D03*
X005230Y039050D03*
D16*
X005245Y039060D03*
D17*
X005275Y039070D03*
D18*
X005295Y039080D03*
X009105Y041770D03*
X009275Y040550D03*
X009385Y040250D03*
X009395Y040220D03*
X009405Y040190D03*
X009415Y040170D03*
X009415Y040160D03*
X009425Y040140D03*
X009425Y040130D03*
X009435Y040110D03*
X009435Y040100D03*
X009445Y040080D03*
X009445Y040070D03*
X009455Y040050D03*
X009455Y040040D03*
X009465Y040020D03*
X009465Y040010D03*
X009475Y040000D03*
X009475Y039990D03*
X009475Y039980D03*
X009485Y039970D03*
X009485Y039960D03*
X009545Y039780D03*
X009555Y039750D03*
X009565Y039720D03*
X009575Y039690D03*
X009615Y039580D03*
X009905Y040010D03*
X009905Y040020D03*
X009905Y040030D03*
X009905Y040040D03*
X009905Y040090D03*
X009905Y040100D03*
X009905Y040110D03*
X009905Y040120D03*
X011325Y040120D03*
X011325Y040110D03*
X011325Y040100D03*
X011325Y040090D03*
X011325Y040080D03*
X011325Y040070D03*
X011325Y040060D03*
X011325Y040050D03*
X011325Y040040D03*
X011325Y040030D03*
X011325Y040020D03*
X011325Y040010D03*
X011325Y040000D03*
X011325Y039990D03*
X011325Y039980D03*
X011325Y039970D03*
X011325Y039960D03*
X011325Y039950D03*
X011325Y039940D03*
X011325Y039930D03*
X011325Y039920D03*
X011325Y039910D03*
X011325Y039900D03*
X011325Y039890D03*
X011325Y039880D03*
X011325Y039870D03*
X011325Y039860D03*
X011325Y039850D03*
X011325Y039840D03*
X011325Y039830D03*
X011325Y039820D03*
X011325Y039810D03*
X011325Y039800D03*
X011325Y039790D03*
X011325Y039780D03*
X011325Y039770D03*
X011325Y039760D03*
X011325Y039750D03*
X011325Y039740D03*
X011325Y039730D03*
X011325Y039720D03*
X011325Y039710D03*
X011325Y039700D03*
X011325Y039690D03*
X011325Y039680D03*
X011325Y039670D03*
X011325Y039660D03*
X011325Y039650D03*
X011325Y039640D03*
X011325Y039630D03*
X011325Y039620D03*
X011325Y039610D03*
X011325Y039600D03*
X011325Y039590D03*
X011325Y040130D03*
X011325Y040140D03*
X011325Y040150D03*
X011325Y040160D03*
X011325Y040170D03*
X011325Y040180D03*
X011335Y040550D03*
X011945Y040540D03*
X011945Y040530D03*
X011945Y040520D03*
X011945Y040510D03*
X011945Y040500D03*
X011945Y040490D03*
X011945Y040480D03*
X011945Y040470D03*
X011945Y040460D03*
X011945Y040450D03*
X011945Y040440D03*
X011945Y040430D03*
X011945Y040420D03*
X011945Y040410D03*
X011945Y040400D03*
X011945Y040390D03*
X011945Y040380D03*
X011945Y040370D03*
X011945Y040360D03*
X011945Y040350D03*
X011945Y040340D03*
X011945Y040330D03*
X011945Y040320D03*
X011945Y040310D03*
X011945Y040300D03*
X011945Y040290D03*
X011945Y040280D03*
X011945Y040270D03*
X011945Y040260D03*
X011945Y040250D03*
X011945Y040240D03*
X011945Y040230D03*
X011945Y040220D03*
X011945Y040210D03*
X011945Y040200D03*
X011945Y040190D03*
X011945Y040180D03*
X011945Y040170D03*
X011945Y040160D03*
X011945Y040150D03*
X011945Y040140D03*
X011945Y040130D03*
X011945Y040120D03*
X011945Y040110D03*
X011945Y040100D03*
X011945Y040090D03*
X011945Y040080D03*
X011945Y040070D03*
X011945Y040060D03*
X011945Y040050D03*
X011945Y040040D03*
X011945Y040030D03*
X011945Y040020D03*
X011945Y040010D03*
X011945Y040000D03*
X011945Y039990D03*
X011945Y039980D03*
X011945Y039970D03*
X011945Y039960D03*
X012305Y040020D03*
X012305Y040120D03*
X012305Y040130D03*
X011945Y039590D03*
X012945Y039890D03*
X012945Y039900D03*
D19*
X012915Y039790D03*
X012855Y040370D03*
X012395Y040360D03*
X012385Y039780D03*
X012395Y039770D03*
X011915Y039680D03*
X011915Y039670D03*
X011355Y040470D03*
X011355Y040480D03*
X010465Y040360D03*
X010455Y040370D03*
X010005Y040370D03*
X009995Y040360D03*
X010005Y039760D03*
X009275Y040460D03*
X007315Y041740D03*
X007325Y041770D03*
X007345Y041820D03*
X005325Y039090D03*
D20*
X005355Y039100D03*
X009065Y041740D03*
X009275Y040410D03*
X009275Y040400D03*
X010425Y039740D03*
X011375Y040410D03*
X011375Y040420D03*
X011895Y039740D03*
X011895Y039730D03*
X012425Y040380D03*
X012895Y039760D03*
D21*
X012860Y039910D03*
X012860Y039920D03*
X012860Y039930D03*
X012860Y039940D03*
X012860Y039950D03*
X012860Y039960D03*
X012860Y039970D03*
X012860Y039980D03*
X012860Y039990D03*
X012860Y040000D03*
X012860Y040010D03*
X012860Y040020D03*
X012860Y040030D03*
X012860Y040040D03*
X012860Y040050D03*
X012860Y040060D03*
X012600Y039610D03*
X011860Y039840D03*
X011410Y040310D03*
X009280Y040310D03*
X009280Y040300D03*
X008930Y041180D03*
X009000Y041360D03*
X009000Y041370D03*
X009000Y041380D03*
X008970Y041900D03*
X008970Y041910D03*
X007620Y041320D03*
X007610Y041290D03*
X007600Y041270D03*
X007590Y041240D03*
X007580Y041220D03*
X007580Y041210D03*
X007570Y041190D03*
X007570Y041180D03*
X007560Y041170D03*
X007560Y041160D03*
X007550Y041140D03*
X007550Y041130D03*
X007540Y041110D03*
X007540Y041100D03*
X007530Y041080D03*
X007530Y041070D03*
X007520Y041060D03*
X007520Y041050D03*
X007520Y041040D03*
X007510Y041030D03*
X007510Y041020D03*
X007500Y041000D03*
X007500Y040990D03*
X007490Y040970D03*
X007490Y040960D03*
X007480Y040950D03*
X007480Y040940D03*
X007480Y040930D03*
X007470Y040920D03*
X007470Y040910D03*
X005390Y039110D03*
D22*
X005425Y039120D03*
X007485Y040900D03*
X007765Y041670D03*
X007775Y041690D03*
X007785Y041710D03*
X010235Y040520D03*
X010235Y039610D03*
X011435Y040230D03*
X011835Y039920D03*
X011835Y039910D03*
X012595Y039630D03*
X012635Y040520D03*
D23*
X012635Y040490D03*
X008815Y041080D03*
X008815Y041090D03*
X008695Y040910D03*
X007865Y041830D03*
X005465Y039130D03*
D24*
X005500Y039140D03*
X008640Y040880D03*
D25*
X009280Y039910D03*
X010230Y039710D03*
X010230Y040420D03*
X007970Y041920D03*
X005550Y039150D03*
X012630Y040420D03*
D26*
X012675Y039700D03*
X005595Y039160D03*
D27*
X005645Y039170D03*
X007695Y040880D03*
D28*
X005700Y039180D03*
D29*
X005755Y039190D03*
D30*
X005815Y039200D03*
D31*
X005880Y039210D03*
X008340Y042080D03*
D32*
X008380Y042000D03*
X005950Y039220D03*
D33*
X006025Y039230D03*
X007985Y040730D03*
D34*
X006100Y039240D03*
D35*
X006180Y039250D03*
D36*
X006270Y039260D03*
D37*
X006355Y039270D03*
D38*
X006450Y039280D03*
D39*
X006560Y039290D03*
D40*
X006665Y039300D03*
D41*
X006780Y039310D03*
D42*
X006905Y039320D03*
D43*
X007030Y039330D03*
D44*
X007170Y039340D03*
D45*
X007320Y039350D03*
D46*
X007475Y039360D03*
D47*
X007650Y039370D03*
D48*
X007835Y039380D03*
D49*
X008030Y039390D03*
D50*
X008255Y039400D03*
D51*
X008500Y039410D03*
D52*
X008780Y039420D03*
D53*
X009130Y039430D03*
D54*
X008940Y039600D03*
X008940Y039610D03*
X008950Y039620D03*
X008950Y039630D03*
X008950Y039640D03*
X008960Y039650D03*
X008960Y039660D03*
X008960Y039670D03*
X008970Y039680D03*
X008970Y039690D03*
X008970Y039700D03*
X008980Y039710D03*
X008980Y039720D03*
X008980Y039730D03*
X008990Y039740D03*
X008990Y039750D03*
X009000Y039770D03*
X009000Y039780D03*
X009070Y039980D03*
X009080Y040000D03*
X009080Y040010D03*
X009090Y040030D03*
X009090Y040040D03*
X009100Y040060D03*
X009100Y040070D03*
X009110Y040090D03*
X009120Y040120D03*
X009130Y040150D03*
X009140Y040180D03*
X009150Y040210D03*
X009160Y040240D03*
X009170Y040260D03*
X009380Y040260D03*
X009380Y040270D03*
X009390Y040240D03*
X009390Y040230D03*
X009400Y040210D03*
X009400Y040200D03*
X009410Y040180D03*
X009420Y040150D03*
X009430Y040120D03*
X009440Y040090D03*
X009450Y040060D03*
X009460Y040030D03*
X010240Y039570D03*
X010530Y039900D03*
X010910Y039580D03*
X010910Y040550D03*
X010240Y040560D03*
X008950Y041840D03*
X012640Y040560D03*
X012910Y040250D03*
D55*
X012960Y039690D03*
X012960Y039680D03*
X012960Y039670D03*
X012960Y039660D03*
X012960Y039650D03*
X012960Y039640D03*
X012960Y039630D03*
X012960Y039620D03*
X012960Y039610D03*
X012960Y039600D03*
X012960Y039590D03*
X012610Y039570D03*
X010500Y040250D03*
X009120Y041780D03*
X006580Y040920D03*
X006230Y039960D03*
D56*
X007045Y039690D03*
X007035Y039660D03*
X007025Y039630D03*
X007015Y039610D03*
X007005Y039580D03*
X007055Y039720D03*
X007065Y039740D03*
X007075Y039770D03*
X007085Y039800D03*
X007095Y039830D03*
X007115Y039880D03*
X007125Y039910D03*
X007135Y039940D03*
X007155Y039990D03*
X007165Y040020D03*
X007175Y040050D03*
X007195Y040100D03*
X007205Y040130D03*
X007215Y040160D03*
X007235Y040210D03*
X007245Y040240D03*
X007255Y040270D03*
X007285Y040350D03*
X007295Y040380D03*
X007325Y040460D03*
X007335Y040490D03*
X008305Y040510D03*
X008305Y040520D03*
X008315Y040460D03*
X008315Y040450D03*
X008325Y040410D03*
X008325Y040400D03*
X008335Y040360D03*
X008335Y040350D03*
X008335Y040340D03*
X008345Y040300D03*
X008345Y040290D03*
X008355Y040250D03*
X008355Y040240D03*
X008365Y040200D03*
X008365Y040190D03*
X008365Y040180D03*
X008375Y040140D03*
X008375Y040130D03*
X008385Y040090D03*
X008385Y040080D03*
X008385Y040070D03*
X008395Y040040D03*
X008395Y040030D03*
X008395Y040020D03*
X008405Y039980D03*
X008405Y039970D03*
X008415Y039930D03*
X008415Y039920D03*
X008415Y039910D03*
X008425Y039870D03*
X008425Y039860D03*
X008435Y039820D03*
X008435Y039810D03*
X008435Y039800D03*
X008445Y039770D03*
X008445Y039760D03*
X008445Y039750D03*
X008455Y039710D03*
X008455Y039700D03*
X008465Y039660D03*
X008465Y039650D03*
X008465Y039640D03*
X008475Y039610D03*
X008475Y039600D03*
X008475Y039590D03*
X009025Y041550D03*
X009025Y041560D03*
X009025Y041570D03*
X009025Y041580D03*
X009025Y041590D03*
X009025Y041600D03*
X009025Y041610D03*
X009025Y041620D03*
X009025Y041630D03*
X009025Y041640D03*
X009025Y041650D03*
X009025Y041660D03*
X009025Y041670D03*
X009025Y041680D03*
X009015Y041700D03*
X007745Y041630D03*
X007735Y041610D03*
X007735Y041600D03*
X007725Y041590D03*
X007725Y041580D03*
X007715Y041560D03*
X011425Y040270D03*
X011425Y040260D03*
X011845Y039890D03*
X011845Y039880D03*
X012595Y039620D03*
D57*
X011850Y039870D03*
X011420Y040280D03*
X009280Y040280D03*
X009010Y041430D03*
X009020Y041480D03*
X009020Y041490D03*
X009020Y041500D03*
X009020Y041510D03*
X009020Y041520D03*
X009020Y041530D03*
X009020Y041540D03*
X008970Y041890D03*
X007720Y041570D03*
X007710Y041550D03*
X007710Y041540D03*
X007700Y041530D03*
X007700Y041520D03*
X007700Y041510D03*
X007690Y041500D03*
X007690Y041490D03*
X007680Y041480D03*
X007680Y041470D03*
X007670Y041450D03*
X007660Y041420D03*
X008300Y040540D03*
X008300Y040530D03*
X008310Y040500D03*
X008310Y040490D03*
X008310Y040480D03*
X008310Y040470D03*
X008320Y040440D03*
X008320Y040430D03*
X008320Y040420D03*
X008330Y040390D03*
X008330Y040380D03*
X008330Y040370D03*
X008340Y040330D03*
X008340Y040320D03*
X008340Y040310D03*
X008350Y040280D03*
X008350Y040270D03*
X008350Y040260D03*
X008360Y040230D03*
X008360Y040220D03*
X008360Y040210D03*
X008370Y040170D03*
X008370Y040160D03*
X008370Y040150D03*
X008380Y040120D03*
X008380Y040110D03*
X008380Y040100D03*
X008390Y040060D03*
X008390Y040050D03*
X008400Y040010D03*
X008400Y040000D03*
X008400Y039990D03*
X008410Y039960D03*
X008410Y039950D03*
X008410Y039940D03*
X008420Y039900D03*
X008420Y039890D03*
X008420Y039880D03*
X008430Y039850D03*
X008430Y039840D03*
X008430Y039830D03*
X008440Y039790D03*
X008440Y039780D03*
X008450Y039740D03*
X008450Y039730D03*
X008450Y039720D03*
X008460Y039690D03*
X008460Y039680D03*
X008460Y039670D03*
X008470Y039630D03*
X008470Y039620D03*
X008480Y039580D03*
D58*
X008935Y039580D03*
X008935Y039590D03*
X008995Y039760D03*
X009005Y039790D03*
X009065Y039960D03*
X009065Y039970D03*
X009075Y039990D03*
X009085Y040020D03*
X009095Y040050D03*
X009105Y040080D03*
X009115Y040100D03*
X009115Y040110D03*
X009125Y040130D03*
X009125Y040140D03*
X009135Y040160D03*
X009135Y040170D03*
X009145Y040190D03*
X009145Y040200D03*
X009155Y040220D03*
X009155Y040230D03*
X009165Y040250D03*
X009175Y040270D03*
X008595Y041930D03*
X006575Y040910D03*
X006575Y040900D03*
X006565Y040890D03*
X006565Y040880D03*
X006565Y040870D03*
X006555Y040860D03*
X006555Y040850D03*
X006555Y040840D03*
X006255Y040020D03*
X006245Y040010D03*
X006245Y040000D03*
X006245Y039990D03*
X006235Y039980D03*
X006235Y039970D03*
X006225Y039950D03*
X006225Y039940D03*
X011325Y039580D03*
X011945Y039580D03*
X011945Y040550D03*
D59*
X012410Y040370D03*
X012640Y040550D03*
X012840Y040380D03*
X012910Y039780D03*
X011910Y039690D03*
X011360Y040460D03*
X010450Y039750D03*
X010240Y039580D03*
X010240Y040550D03*
X009280Y040450D03*
X009280Y040440D03*
X009080Y041750D03*
X009010Y041860D03*
X007340Y041810D03*
X007340Y041800D03*
X007330Y041790D03*
X007330Y041780D03*
X007320Y041760D03*
X007320Y041750D03*
D60*
X009275Y040490D03*
X009975Y040340D03*
X009985Y040350D03*
X010475Y040350D03*
X010485Y040340D03*
X010475Y039770D03*
X009975Y039790D03*
X011345Y040500D03*
X011345Y040510D03*
X011575Y040160D03*
X011595Y040130D03*
X011615Y040100D03*
X011635Y040070D03*
X011655Y040040D03*
X011675Y040010D03*
X011695Y039980D03*
X011925Y039650D03*
X012355Y039820D03*
X012365Y039810D03*
X012365Y039800D03*
X012375Y039790D03*
X012605Y039580D03*
X012925Y039810D03*
X012875Y040350D03*
X012865Y040360D03*
X012385Y040350D03*
X012375Y040340D03*
D61*
X012960Y039580D03*
X005930Y040920D03*
X005920Y040890D03*
X005910Y040870D03*
X005910Y040860D03*
X005900Y040840D03*
X005590Y039980D03*
D62*
X006035Y039620D03*
X006025Y039600D03*
X006025Y039590D03*
X006045Y039650D03*
X006055Y039680D03*
X006065Y039710D03*
X006085Y039760D03*
X006095Y039790D03*
X006105Y039820D03*
X006125Y039870D03*
X006135Y039900D03*
X006145Y039930D03*
X006185Y040040D03*
X006215Y040120D03*
X006225Y040150D03*
X006265Y040260D03*
X006305Y040370D03*
D63*
X007100Y039850D03*
X007100Y039840D03*
X007090Y039820D03*
X007090Y039810D03*
X007080Y039790D03*
X007080Y039780D03*
X007070Y039760D03*
X007070Y039750D03*
X007060Y039730D03*
X007050Y039710D03*
X007050Y039700D03*
X007040Y039680D03*
X007040Y039670D03*
X007030Y039650D03*
X007030Y039640D03*
X007020Y039620D03*
X007010Y039600D03*
X007010Y039590D03*
X007110Y039860D03*
X007110Y039870D03*
X007120Y039890D03*
X007120Y039900D03*
X007130Y039920D03*
X007130Y039930D03*
X007140Y039950D03*
X007140Y039960D03*
X007150Y039970D03*
X007150Y039980D03*
X007160Y040000D03*
X007160Y040010D03*
X007170Y040030D03*
X007170Y040040D03*
X007180Y040060D03*
X007180Y040070D03*
X007190Y040080D03*
X007190Y040090D03*
X007200Y040110D03*
X007200Y040120D03*
X007210Y040140D03*
X007210Y040150D03*
X007220Y040170D03*
X007220Y040180D03*
X007230Y040190D03*
X007230Y040200D03*
X007240Y040220D03*
X007240Y040230D03*
X007250Y040250D03*
X007250Y040260D03*
X007260Y040280D03*
X007260Y040290D03*
X007270Y040300D03*
X007270Y040310D03*
X007270Y040320D03*
X007280Y040330D03*
X007280Y040340D03*
X007290Y040360D03*
X007290Y040370D03*
X007300Y040390D03*
X007300Y040400D03*
X007310Y040410D03*
X007310Y040420D03*
X007310Y040430D03*
X007320Y040440D03*
X007320Y040450D03*
X007330Y040470D03*
X007330Y040480D03*
X007340Y040500D03*
X007340Y040510D03*
X007350Y040520D03*
X007350Y040530D03*
X007350Y040540D03*
X007740Y041620D03*
X007750Y041640D03*
X007760Y041650D03*
X007760Y041660D03*
X007770Y041680D03*
X009020Y041690D03*
X011430Y040250D03*
X011430Y040240D03*
X011840Y039900D03*
D64*
X011940Y039610D03*
X011940Y039600D03*
X012330Y039880D03*
X012320Y039910D03*
X012320Y039920D03*
X012320Y039930D03*
X012310Y039950D03*
X012310Y039960D03*
X012310Y039970D03*
X012310Y039980D03*
X012310Y039990D03*
X012310Y040000D03*
X012310Y040010D03*
X012300Y040030D03*
X012300Y040040D03*
X012300Y040050D03*
X012300Y040060D03*
X012300Y040070D03*
X012300Y040080D03*
X012300Y040090D03*
X012300Y040100D03*
X012300Y040110D03*
X012310Y040140D03*
X012310Y040150D03*
X012310Y040160D03*
X012310Y040170D03*
X012310Y040180D03*
X012310Y040190D03*
X012320Y040200D03*
X012320Y040210D03*
X012320Y040220D03*
X012320Y040230D03*
X012330Y040250D03*
X012910Y040280D03*
X012910Y040290D03*
X012920Y040270D03*
X012920Y040260D03*
X012940Y039880D03*
X012940Y039870D03*
X012940Y039860D03*
X010910Y039860D03*
X010910Y039850D03*
X010910Y039840D03*
X010910Y039830D03*
X010910Y039820D03*
X010910Y039810D03*
X010910Y039800D03*
X010910Y039790D03*
X010910Y039780D03*
X010910Y039770D03*
X010910Y039760D03*
X010910Y039750D03*
X010910Y039740D03*
X010910Y039730D03*
X010910Y039720D03*
X010910Y039710D03*
X010910Y039700D03*
X010910Y039690D03*
X010910Y039680D03*
X010910Y039670D03*
X010910Y039660D03*
X010910Y039650D03*
X010910Y039640D03*
X010910Y039630D03*
X010910Y039620D03*
X010910Y039610D03*
X010910Y039600D03*
X010910Y039590D03*
X010910Y039870D03*
X010910Y039880D03*
X010910Y039890D03*
X010910Y039900D03*
X010910Y039910D03*
X010910Y039920D03*
X010910Y039930D03*
X010910Y039940D03*
X010910Y039950D03*
X010910Y039960D03*
X010910Y039970D03*
X010910Y039980D03*
X010910Y039990D03*
X010910Y040000D03*
X010910Y040010D03*
X010910Y040020D03*
X010910Y040030D03*
X010910Y040040D03*
X010910Y040050D03*
X010910Y040060D03*
X010910Y040070D03*
X010910Y040080D03*
X010910Y040090D03*
X010910Y040100D03*
X010910Y040110D03*
X010910Y040120D03*
X010910Y040130D03*
X010910Y040140D03*
X010910Y040150D03*
X010910Y040160D03*
X010910Y040170D03*
X010910Y040180D03*
X010910Y040190D03*
X010910Y040200D03*
X010910Y040210D03*
X010910Y040220D03*
X010910Y040230D03*
X010910Y040240D03*
X010910Y040250D03*
X010910Y040260D03*
X010910Y040270D03*
X010910Y040280D03*
X010910Y040290D03*
X010910Y040300D03*
X010910Y040310D03*
X010910Y040320D03*
X010910Y040330D03*
X010910Y040340D03*
X010910Y040350D03*
X010910Y040360D03*
X010910Y040370D03*
X010910Y040380D03*
X010910Y040390D03*
X010910Y040400D03*
X010910Y040410D03*
X010910Y040420D03*
X010910Y040430D03*
X010910Y040440D03*
X010910Y040450D03*
X010910Y040460D03*
X010910Y040470D03*
X010910Y040480D03*
X010910Y040490D03*
X010910Y040500D03*
X010910Y040510D03*
X010910Y040520D03*
X010910Y040530D03*
X010910Y040540D03*
X010520Y040260D03*
X010530Y039890D03*
X010530Y039880D03*
X010530Y039870D03*
X010520Y039860D03*
X010520Y039850D03*
X010510Y039830D03*
X009930Y039880D03*
X009920Y039910D03*
X009920Y039920D03*
X009920Y039930D03*
X009910Y039940D03*
X009910Y039950D03*
X009910Y039960D03*
X009910Y039970D03*
X009910Y039980D03*
X009910Y039990D03*
X009910Y040000D03*
X009900Y040050D03*
X009900Y040060D03*
X009900Y040070D03*
X009900Y040080D03*
X009910Y040130D03*
X009910Y040140D03*
X009910Y040150D03*
X009910Y040160D03*
X009910Y040170D03*
X009910Y040180D03*
X009910Y040190D03*
X009920Y040200D03*
X009920Y040210D03*
X009920Y040220D03*
X009920Y040230D03*
X009930Y040240D03*
X009930Y040250D03*
X009540Y039790D03*
X009550Y039770D03*
X009550Y039760D03*
X009560Y039740D03*
X009560Y039730D03*
X009570Y039710D03*
X009570Y039700D03*
X009580Y039680D03*
X009580Y039670D03*
X009590Y039660D03*
X009590Y039650D03*
X009590Y039640D03*
X009600Y039630D03*
X009600Y039620D03*
X009600Y039610D03*
X009610Y039600D03*
X009610Y039590D03*
X009280Y040530D03*
X009280Y040540D03*
D65*
X009280Y040370D03*
X009280Y040360D03*
X010240Y040540D03*
X010240Y039590D03*
X011390Y040370D03*
X011880Y039780D03*
X012440Y039740D03*
X012600Y039600D03*
X012640Y040540D03*
X008960Y041950D03*
D66*
X009280Y040420D03*
X010020Y040380D03*
X011370Y040430D03*
X011900Y039720D03*
X012420Y039750D03*
X012600Y039590D03*
D67*
X011855Y039850D03*
X011855Y039860D03*
X011415Y040290D03*
X011415Y040300D03*
X012635Y040530D03*
X010235Y040530D03*
X010235Y039600D03*
X009275Y040290D03*
X009005Y041390D03*
X009005Y041400D03*
X009005Y041410D03*
X009005Y041420D03*
X009015Y041440D03*
X009015Y041450D03*
X009015Y041460D03*
X009015Y041470D03*
X009025Y041710D03*
X008975Y041880D03*
X007675Y041460D03*
X007665Y041440D03*
X007665Y041430D03*
X007655Y041410D03*
X007655Y041400D03*
X007645Y041390D03*
X007645Y041380D03*
X007635Y041370D03*
X007635Y041360D03*
X007635Y041350D03*
X007625Y041340D03*
X007625Y041330D03*
X007615Y041310D03*
X007615Y041300D03*
X007605Y041280D03*
X007595Y041260D03*
X007595Y041250D03*
X007585Y041230D03*
X007575Y041200D03*
X007555Y041150D03*
X007545Y041120D03*
X007535Y041090D03*
X007505Y041010D03*
X007495Y040980D03*
D68*
X006750Y041600D03*
X006740Y041570D03*
X006730Y041550D03*
X006730Y041540D03*
X006720Y041520D03*
X006720Y041510D03*
X006710Y041490D03*
X006700Y041460D03*
X006690Y041440D03*
X006690Y041430D03*
X006680Y041410D03*
X006680Y041400D03*
X006630Y041270D03*
X006630Y041260D03*
X006620Y041240D03*
X006610Y041220D03*
X006610Y041210D03*
X006600Y041190D03*
X006600Y041180D03*
X006590Y041160D03*
X006590Y041150D03*
X006580Y041130D03*
X006570Y041110D03*
X006570Y041100D03*
X006560Y041080D03*
X006560Y041070D03*
X006550Y041050D03*
X006550Y041040D03*
X006540Y041020D03*
X006540Y041010D03*
X006530Y041000D03*
X006530Y040990D03*
X006520Y040970D03*
X006520Y040960D03*
X006510Y040940D03*
X006510Y040930D03*
X006470Y040830D03*
X006470Y040820D03*
X006460Y040800D03*
X006460Y040790D03*
X006450Y040780D03*
X006450Y040770D03*
X006450Y040760D03*
X006440Y040750D03*
X006440Y040740D03*
X006430Y040720D03*
X006430Y040710D03*
X006420Y040690D03*
X006420Y040680D03*
X006410Y040670D03*
X006410Y040660D03*
X006410Y040650D03*
X006400Y040640D03*
X006400Y040630D03*
X006390Y040610D03*
X006390Y040600D03*
X006380Y040580D03*
X006380Y040570D03*
X006370Y040560D03*
X006370Y040550D03*
X006370Y040540D03*
X006360Y040530D03*
X006360Y040520D03*
X006360Y040510D03*
X006350Y040500D03*
X006300Y040360D03*
X006300Y040350D03*
X006290Y040340D03*
X006290Y040330D03*
X006290Y040320D03*
X006280Y040310D03*
X006280Y040300D03*
X006280Y040290D03*
X006270Y040280D03*
X006270Y040270D03*
X006260Y040250D03*
X006260Y040240D03*
X006250Y040230D03*
X006250Y040220D03*
X006250Y040210D03*
X006240Y040200D03*
X006240Y040190D03*
X006240Y040180D03*
X006230Y040170D03*
X006230Y040160D03*
X006220Y040140D03*
X006220Y040130D03*
X006210Y040110D03*
X006210Y040100D03*
X006200Y040090D03*
X006200Y040080D03*
X006200Y040070D03*
X006190Y040060D03*
X006190Y040050D03*
X006180Y040030D03*
X006140Y039920D03*
X006140Y039910D03*
X006130Y039890D03*
X006130Y039880D03*
X006120Y039860D03*
X006120Y039850D03*
X006110Y039840D03*
X006110Y039830D03*
X006100Y039810D03*
X006100Y039800D03*
X006090Y039780D03*
X006090Y039770D03*
X006080Y039750D03*
X006080Y039740D03*
X006070Y039730D03*
X006070Y039720D03*
X006060Y039700D03*
X006060Y039690D03*
X006050Y039670D03*
X006050Y039660D03*
X006040Y039640D03*
X006040Y039630D03*
X006030Y039610D03*
X006760Y041630D03*
X006770Y041650D03*
X006770Y041660D03*
X006780Y041680D03*
X006790Y041710D03*
X006840Y041850D03*
X006850Y041880D03*
X006860Y041900D03*
X006870Y041930D03*
X006880Y041960D03*
X006890Y041990D03*
X006910Y042040D03*
X006920Y042070D03*
X006930Y042100D03*
X006950Y042150D03*
X008350Y042070D03*
D69*
X007835Y041790D03*
X007825Y041780D03*
X010235Y039620D03*
D70*
X010495Y039800D03*
X010505Y039820D03*
X010515Y039840D03*
X010515Y040270D03*
X010515Y040280D03*
X010505Y040290D03*
X010505Y040300D03*
X009955Y040310D03*
X009945Y040290D03*
X009945Y040280D03*
X009935Y040270D03*
X009935Y040260D03*
X009925Y039900D03*
X009925Y039890D03*
X009935Y039870D03*
X009935Y039860D03*
X009945Y039850D03*
X009945Y039840D03*
X009955Y039820D03*
X009275Y040520D03*
X011335Y040530D03*
X011335Y040540D03*
X011935Y039620D03*
X012335Y039860D03*
X012335Y039870D03*
X012325Y039890D03*
X012325Y039900D03*
X012315Y039940D03*
X012325Y040240D03*
X012335Y040260D03*
X012335Y040270D03*
X012345Y040280D03*
X012345Y040290D03*
X012895Y040310D03*
X012895Y040320D03*
X012905Y040300D03*
X012935Y039850D03*
X012935Y039840D03*
D71*
X012635Y040500D03*
X010235Y039630D03*
X008755Y040970D03*
X008745Y040960D03*
X008735Y040950D03*
X008725Y040940D03*
X008775Y041000D03*
X008785Y041020D03*
X008795Y041030D03*
X008795Y041040D03*
X007845Y041810D03*
D72*
X008980Y041850D03*
X009090Y041760D03*
X009280Y040510D03*
X009280Y040500D03*
X009950Y040300D03*
X009960Y040320D03*
X009970Y040330D03*
X009950Y039830D03*
X009960Y039810D03*
X009970Y039800D03*
X010480Y039780D03*
X010490Y039790D03*
X010500Y039810D03*
X010500Y040310D03*
X010490Y040320D03*
X010490Y040330D03*
X011340Y040520D03*
X011560Y040180D03*
X011570Y040170D03*
X011580Y040150D03*
X011590Y040140D03*
X011600Y040120D03*
X011610Y040110D03*
X011620Y040090D03*
X011630Y040080D03*
X011640Y040060D03*
X011650Y040050D03*
X011660Y040030D03*
X011670Y040020D03*
X011680Y040000D03*
X011690Y039990D03*
X011700Y039970D03*
X011710Y039960D03*
X011930Y039640D03*
X011930Y039630D03*
X012350Y039830D03*
X012350Y039840D03*
X012340Y039850D03*
X012350Y040300D03*
X012360Y040310D03*
X012360Y040320D03*
X012370Y040330D03*
X012880Y040340D03*
X012890Y040330D03*
X012930Y039830D03*
X012930Y039820D03*
D73*
X010235Y039640D03*
X008835Y041140D03*
X007885Y041850D03*
D74*
X007820Y041770D03*
X010240Y040510D03*
X011450Y040190D03*
X011820Y039950D03*
X012590Y039640D03*
X012640Y040510D03*
D75*
X012635Y040480D03*
X012585Y039690D03*
X010235Y039650D03*
X010235Y040480D03*
X007905Y041870D03*
D76*
X007840Y041800D03*
X008780Y041010D03*
X008770Y040990D03*
X008760Y040980D03*
X012590Y039650D03*
D77*
X012635Y040470D03*
X010235Y040470D03*
X010235Y039660D03*
X007915Y041880D03*
D78*
X009280Y040480D03*
X009280Y040470D03*
X009980Y039780D03*
X009990Y039770D03*
X010460Y039760D03*
X011350Y040490D03*
X011920Y039660D03*
X012920Y039800D03*
D79*
X012590Y039660D03*
X010240Y040500D03*
X008810Y041060D03*
X008810Y041070D03*
X008800Y041050D03*
X008720Y040930D03*
X008710Y040920D03*
X007860Y041820D03*
D80*
X007925Y041890D03*
X010235Y040460D03*
X010235Y039670D03*
X012635Y040460D03*
D81*
X012590Y039670D03*
X010240Y040490D03*
X008830Y041120D03*
X008830Y041130D03*
X008820Y041110D03*
X008820Y041100D03*
X008680Y040900D03*
X007870Y041840D03*
D82*
X010235Y040450D03*
X010235Y039680D03*
X012635Y040450D03*
D83*
X012590Y039680D03*
X008840Y041150D03*
X008840Y041160D03*
X008840Y041170D03*
X008660Y040890D03*
X007890Y041860D03*
D84*
X009275Y039950D03*
X010235Y039690D03*
X010235Y040440D03*
D85*
X010235Y040430D03*
X010235Y039700D03*
X009275Y039920D03*
D86*
X009275Y040430D03*
X010015Y039750D03*
X010445Y040380D03*
X011365Y040440D03*
X011365Y040450D03*
X011905Y039710D03*
X011905Y039700D03*
X012405Y039760D03*
X012905Y039770D03*
D87*
X012670Y039720D03*
X012670Y039710D03*
D88*
X012630Y040400D03*
X012630Y040410D03*
X010230Y040410D03*
X010230Y039720D03*
X009280Y039880D03*
D89*
X009280Y039850D03*
X010230Y039730D03*
X010230Y040390D03*
X012630Y040390D03*
X007620Y040890D03*
D90*
X012665Y039730D03*
D91*
X011890Y039750D03*
X011380Y040400D03*
X010040Y039740D03*
X009280Y040390D03*
X009020Y041870D03*
D92*
X008965Y041920D03*
X008995Y041350D03*
X008995Y041340D03*
X008995Y041330D03*
X008995Y041320D03*
X008985Y041300D03*
X008945Y041200D03*
X008935Y041190D03*
X009275Y040320D03*
X011405Y040320D03*
X011405Y040330D03*
X011865Y039830D03*
X011865Y039820D03*
X012865Y039740D03*
D93*
X012885Y039750D03*
X011885Y039760D03*
X011885Y039770D03*
X011385Y040380D03*
X011385Y040390D03*
X009275Y040380D03*
X009055Y041730D03*
D94*
X008965Y041940D03*
X008975Y041260D03*
X009275Y040350D03*
X011395Y040350D03*
X011395Y040360D03*
X011875Y039800D03*
X011875Y039790D03*
D95*
X009280Y039800D03*
D96*
X009275Y039810D03*
D97*
X009280Y040330D03*
X009280Y040340D03*
X008950Y041210D03*
X008960Y041220D03*
X008960Y041230D03*
X008970Y041240D03*
X008970Y041250D03*
X008980Y041270D03*
X008980Y041280D03*
X008980Y041290D03*
X008990Y041310D03*
X009040Y041720D03*
X008970Y041930D03*
X011400Y040340D03*
X011870Y039810D03*
D98*
X009280Y039820D03*
X009280Y039830D03*
D99*
X009275Y039840D03*
D100*
X009275Y039860D03*
X009275Y039870D03*
X010235Y040400D03*
X007995Y041930D03*
D101*
X009275Y039900D03*
X009275Y039890D03*
D102*
X010505Y039910D03*
X010485Y040240D03*
X009135Y041790D03*
X008925Y041830D03*
X005925Y040910D03*
X005925Y040900D03*
X005915Y040880D03*
X005905Y040850D03*
X005605Y040020D03*
X005605Y040010D03*
X005595Y040000D03*
X005595Y039990D03*
X005585Y039970D03*
X005585Y039960D03*
X005575Y039950D03*
X005575Y039940D03*
X012895Y040240D03*
D103*
X010485Y039920D03*
X009145Y041800D03*
X008895Y041820D03*
D104*
X009280Y039940D03*
X009280Y039930D03*
X012630Y040430D03*
D105*
X010465Y039930D03*
X009175Y041820D03*
X008585Y041220D03*
X008585Y041210D03*
X008475Y041470D03*
D106*
X007800Y041740D03*
X007790Y041720D03*
X007780Y041700D03*
X011440Y040220D03*
X011440Y040210D03*
X011830Y039930D03*
D107*
X010445Y039940D03*
X009185Y041830D03*
D108*
X007815Y041760D03*
X007805Y041750D03*
X007795Y041730D03*
X011445Y040200D03*
X011825Y039940D03*
D109*
X012845Y040210D03*
X008835Y041800D03*
X008465Y041490D03*
D110*
X008485Y041450D03*
X008495Y041440D03*
X008505Y041430D03*
X008575Y041300D03*
X008575Y041290D03*
X008575Y041280D03*
X008865Y041810D03*
X010455Y040220D03*
X012865Y040220D03*
D111*
X012880Y040230D03*
D112*
X012630Y040440D03*
X007950Y041910D03*
D113*
X008365Y042040D03*
X007825Y040560D03*
X007825Y040550D03*
D114*
X007830Y040570D03*
X008360Y042050D03*
D115*
X008355Y042060D03*
X007825Y040590D03*
X007825Y040580D03*
D116*
X006755Y041610D03*
X006755Y041620D03*
X006765Y041640D03*
X006775Y041670D03*
X006785Y041690D03*
X006785Y041700D03*
X006795Y041720D03*
X006795Y041730D03*
X006835Y041830D03*
X006835Y041840D03*
X006845Y041860D03*
X006845Y041870D03*
X006855Y041890D03*
X006865Y041910D03*
X006865Y041920D03*
X006875Y041940D03*
X006875Y041950D03*
X006885Y041970D03*
X006885Y041980D03*
X006895Y042000D03*
X006895Y042010D03*
X006905Y042020D03*
X006905Y042030D03*
X006915Y042050D03*
X006915Y042060D03*
X006925Y042080D03*
X006925Y042090D03*
X006935Y042110D03*
X006935Y042120D03*
X006945Y042130D03*
X006945Y042140D03*
X006955Y042160D03*
X006955Y042170D03*
X006745Y041590D03*
X006745Y041580D03*
X006735Y041560D03*
X006725Y041530D03*
X006715Y041500D03*
X006705Y041480D03*
X006705Y041470D03*
X006695Y041450D03*
X006685Y041420D03*
X006625Y041250D03*
X006615Y041230D03*
X006605Y041200D03*
X006595Y041170D03*
X006585Y041140D03*
X006575Y041120D03*
X006565Y041090D03*
X006555Y041060D03*
X006545Y041030D03*
X006525Y040980D03*
X006515Y040950D03*
X006465Y040810D03*
X006435Y040730D03*
X006425Y040700D03*
X006395Y040620D03*
X006385Y040590D03*
D117*
X007830Y040600D03*
X007830Y040610D03*
X007830Y040620D03*
D118*
X007860Y040630D03*
D119*
X007880Y040640D03*
X008380Y042010D03*
D120*
X008390Y041980D03*
X007900Y040650D03*
D121*
X007915Y040660D03*
D122*
X007925Y040670D03*
D123*
X007940Y040680D03*
D124*
X007950Y040690D03*
D125*
X007960Y040700D03*
X007970Y040710D03*
D126*
X007980Y040720D03*
D127*
X008000Y040740D03*
D128*
X008005Y040750D03*
D129*
X008010Y040760D03*
X008020Y040770D03*
D130*
X008030Y040780D03*
D131*
X008035Y040790D03*
X008045Y040800D03*
D132*
X008050Y040810D03*
X008060Y040820D03*
D133*
X008065Y040830D03*
D134*
X008070Y040840D03*
X008080Y040850D03*
D135*
X008085Y040860D03*
D136*
X008090Y040870D03*
D137*
X008520Y041410D03*
X008530Y041400D03*
X008510Y041420D03*
X008570Y041320D03*
X008570Y041310D03*
X008610Y041180D03*
X009160Y041810D03*
D138*
X008545Y041380D03*
X008545Y041370D03*
X008555Y041360D03*
X008555Y041350D03*
X008565Y041340D03*
X008565Y041330D03*
X008535Y041390D03*
D139*
X007940Y041900D03*
D140*
X008190Y041940D03*
D141*
X008210Y041950D03*
D142*
X008390Y041960D03*
X008390Y041970D03*
D143*
X008385Y041990D03*
D144*
X008375Y042020D03*
D145*
X008370Y042030D03*
D146*
X008335Y042090D03*
D147*
X008330Y042100D03*
D148*
X008315Y042110D03*
D149*
X008310Y042120D03*
D150*
X008295Y042130D03*
D151*
X008275Y042140D03*
D152*
X008260Y042150D03*
D153*
X008235Y042160D03*
D154*
X008185Y042170D03*
D155*
X009620Y041984D02*
X009620Y041737D01*
X009681Y041675D01*
X009805Y041675D01*
X009867Y041737D01*
X009988Y041737D02*
X010050Y041675D01*
X010173Y041675D01*
X010235Y041737D01*
X010235Y041861D01*
X010173Y041922D01*
X010050Y041922D01*
X009988Y041861D01*
X009988Y041737D01*
X009867Y041984D02*
X009805Y042046D01*
X009681Y042046D01*
X009620Y041984D01*
X009620Y041446D02*
X009620Y041199D01*
X009743Y041075D01*
X009867Y041199D01*
X009867Y041446D01*
X010050Y041322D02*
X010173Y041322D01*
X010235Y041261D01*
X010235Y041199D01*
X009988Y041199D01*
X009988Y041261D02*
X010050Y041322D01*
X009988Y041261D02*
X009988Y041137D01*
X010050Y041075D01*
X010173Y041075D01*
X010356Y041075D02*
X010356Y041322D01*
X010356Y041199D02*
X010480Y041322D01*
X010542Y041322D01*
X010663Y041261D02*
X010725Y041322D01*
X010910Y041322D01*
X011032Y041322D02*
X011093Y041322D01*
X011093Y041075D01*
X011032Y041075D02*
X011155Y041075D01*
X011277Y041137D02*
X011339Y041075D01*
X011462Y041075D01*
X011524Y041137D01*
X011524Y041261D01*
X011462Y041322D01*
X011339Y041322D01*
X011277Y041261D01*
X011277Y041137D01*
X011093Y041446D02*
X011093Y041508D01*
X011155Y041675D02*
X011340Y041675D01*
X011340Y041922D01*
X011461Y041922D02*
X011461Y041675D01*
X011708Y041675D02*
X011708Y041861D01*
X011646Y041922D01*
X011461Y041922D01*
X011093Y041922D02*
X011093Y041737D01*
X011155Y041675D01*
X010972Y041675D02*
X010972Y041861D01*
X010910Y041922D01*
X010848Y041861D01*
X010848Y041675D01*
X010725Y041675D02*
X010725Y041922D01*
X010786Y041922D01*
X010848Y041861D01*
X010603Y041861D02*
X010542Y041922D01*
X010480Y041861D01*
X010480Y041675D01*
X010603Y041675D02*
X010603Y041861D01*
X010480Y041861D02*
X010418Y041922D01*
X010356Y041922D01*
X010356Y041675D01*
X010663Y041261D02*
X010725Y041199D01*
X010848Y041199D01*
X010910Y041137D01*
X010848Y041075D01*
X010663Y041075D01*
X011645Y041075D02*
X011645Y041322D01*
X011831Y041322D01*
X011892Y041261D01*
X011892Y041075D01*
X012382Y041075D02*
X012629Y041075D01*
X012506Y041075D02*
X012506Y041446D01*
X012382Y041322D01*
X012322Y041675D02*
X012137Y041675D01*
X012075Y041737D01*
X012075Y041861D01*
X012137Y041922D01*
X012322Y041922D01*
X012505Y041922D02*
X012629Y041922D01*
X012690Y041861D01*
X012690Y041675D01*
X012505Y041675D01*
X012444Y041737D01*
X012505Y041799D01*
X012690Y041799D01*
X012812Y041922D02*
X012935Y041922D01*
X012874Y041984D02*
X012874Y041737D01*
X012935Y041675D01*
X013057Y041675D02*
X013181Y041675D01*
X013119Y041675D02*
X013119Y041922D01*
X013057Y041922D01*
X013119Y042046D02*
X013119Y042108D01*
X013365Y041922D02*
X013303Y041861D01*
X013303Y041737D01*
X013365Y041675D01*
X013488Y041675D01*
X013550Y041737D01*
X013550Y041861D01*
X013488Y041922D01*
X013365Y041922D01*
X013671Y041922D02*
X013671Y041675D01*
X013918Y041675D02*
X013918Y041861D01*
X013856Y041922D01*
X013671Y041922D01*
X014408Y041922D02*
X014408Y041675D01*
X014655Y041675D02*
X014655Y041861D01*
X014593Y041922D01*
X014408Y041922D01*
X014776Y041861D02*
X014776Y041737D01*
X014838Y041675D01*
X014961Y041675D01*
X015023Y041737D01*
X015023Y041861D01*
X014961Y041922D01*
X014838Y041922D01*
X014776Y041861D01*
X015144Y041861D02*
X015206Y041922D01*
X015391Y041922D01*
X015391Y042046D02*
X015391Y041675D01*
X015206Y041675D01*
X015144Y041737D01*
X015144Y041861D01*
X015513Y041861D02*
X015575Y041922D01*
X015698Y041922D01*
X015760Y041861D01*
X015760Y041799D01*
X015513Y041799D01*
X015513Y041737D02*
X015513Y041861D01*
X015513Y041737D02*
X015575Y041675D01*
X015698Y041675D01*
X011953Y041675D02*
X011830Y041675D01*
X011891Y041675D02*
X011891Y041922D01*
X011830Y041922D01*
X011891Y042046D02*
X011891Y042108D01*
X009400Y016195D02*
X009086Y015881D01*
X009243Y015881D02*
X009243Y016195D01*
X009086Y016195D02*
X009400Y015881D01*
X009400Y016038D02*
X009086Y016038D01*
D156*
X003213Y005159D02*
X003215Y005209D01*
X003221Y005259D01*
X003231Y005308D01*
X003245Y005356D01*
X003262Y005403D01*
X003283Y005448D01*
X003308Y005492D01*
X003336Y005533D01*
X003368Y005572D01*
X003402Y005609D01*
X003439Y005643D01*
X003479Y005673D01*
X003521Y005700D01*
X003565Y005724D01*
X003611Y005745D01*
X003658Y005761D01*
X003706Y005774D01*
X003756Y005783D01*
X003805Y005788D01*
X003856Y005789D01*
X003906Y005786D01*
X003955Y005779D01*
X004004Y005768D01*
X004052Y005753D01*
X004098Y005735D01*
X004143Y005713D01*
X004186Y005687D01*
X004227Y005658D01*
X004266Y005626D01*
X004302Y005591D01*
X004334Y005553D01*
X004364Y005513D01*
X004391Y005470D01*
X004414Y005426D01*
X004433Y005380D01*
X004449Y005332D01*
X004461Y005283D01*
X004469Y005234D01*
X004473Y005184D01*
X004473Y005134D01*
X004469Y005084D01*
X004461Y005035D01*
X004449Y004986D01*
X004433Y004938D01*
X004414Y004892D01*
X004391Y004848D01*
X004364Y004805D01*
X004334Y004765D01*
X004302Y004727D01*
X004266Y004692D01*
X004227Y004660D01*
X004186Y004631D01*
X004143Y004605D01*
X004098Y004583D01*
X004052Y004565D01*
X004004Y004550D01*
X003955Y004539D01*
X003906Y004532D01*
X003856Y004529D01*
X003805Y004530D01*
X003756Y004535D01*
X003706Y004544D01*
X003658Y004557D01*
X003611Y004573D01*
X003565Y004594D01*
X003521Y004618D01*
X003479Y004645D01*
X003439Y004675D01*
X003402Y004709D01*
X003368Y004746D01*
X003336Y004785D01*
X003308Y004826D01*
X003283Y004870D01*
X003262Y004915D01*
X003245Y004962D01*
X003231Y005010D01*
X003221Y005059D01*
X003215Y005109D01*
X003213Y005159D01*
X002944Y005588D02*
X002944Y015115D01*
X013339Y015115D01*
X015829Y012625D01*
X015829Y008078D01*
X013339Y005588D01*
X002944Y005588D01*
X008861Y004974D02*
X008861Y004187D01*
X010828Y004187D01*
X010828Y004974D01*
X008861Y004974D01*
X009784Y004817D02*
X009784Y004344D01*
X010020Y004581D01*
X009784Y004817D01*
X010020Y004817D02*
X010020Y004581D01*
X010020Y004344D01*
X011579Y004405D02*
X011579Y004905D01*
X012729Y004905D01*
X012729Y004405D01*
X011579Y004405D01*
X016654Y008452D02*
X016654Y008952D01*
X017804Y008952D01*
X017804Y008452D01*
X016654Y008452D01*
X016654Y009633D02*
X016654Y010133D01*
X017804Y010133D01*
X017804Y009633D01*
X016654Y009633D01*
X016654Y010814D02*
X016654Y011314D01*
X017804Y011314D01*
X017804Y010814D01*
X016654Y010814D01*
X016654Y011996D02*
X016654Y012496D01*
X017804Y012496D01*
X017804Y011996D01*
X016654Y011996D01*
X016654Y013177D02*
X016654Y013677D01*
X017804Y013677D01*
X017804Y013177D01*
X016654Y013177D01*
X018521Y013000D02*
X018521Y007675D01*
X018521Y004155D02*
X028586Y004155D01*
X029466Y005315D02*
X029466Y006529D01*
X030142Y006694D02*
X030457Y007009D01*
X030457Y008966D01*
X030450Y008966D02*
X030170Y008966D01*
X029466Y007875D02*
X029466Y012729D01*
X030142Y012734D02*
X030457Y012419D01*
X030457Y010462D01*
X030450Y010462D02*
X030170Y010462D01*
X030457Y012419D02*
X033056Y012419D01*
X033371Y012734D01*
X033371Y006694D01*
X033056Y007009D01*
X030457Y007009D01*
X030142Y006694D02*
X033371Y006694D01*
X033056Y007009D02*
X033056Y012419D01*
X033371Y012734D02*
X030142Y012734D01*
X030142Y006694D01*
X033135Y004765D02*
X033137Y004815D01*
X033143Y004865D01*
X033153Y004914D01*
X033167Y004962D01*
X033184Y005009D01*
X033205Y005054D01*
X033230Y005098D01*
X033258Y005139D01*
X033290Y005178D01*
X033324Y005215D01*
X033361Y005249D01*
X033401Y005279D01*
X033443Y005306D01*
X033487Y005330D01*
X033533Y005351D01*
X033580Y005367D01*
X033628Y005380D01*
X033678Y005389D01*
X033727Y005394D01*
X033778Y005395D01*
X033828Y005392D01*
X033877Y005385D01*
X033926Y005374D01*
X033974Y005359D01*
X034020Y005341D01*
X034065Y005319D01*
X034108Y005293D01*
X034149Y005264D01*
X034188Y005232D01*
X034224Y005197D01*
X034256Y005159D01*
X034286Y005119D01*
X034313Y005076D01*
X034336Y005032D01*
X034355Y004986D01*
X034371Y004938D01*
X034383Y004889D01*
X034391Y004840D01*
X034395Y004790D01*
X034395Y004740D01*
X034391Y004690D01*
X034383Y004641D01*
X034371Y004592D01*
X034355Y004544D01*
X034336Y004498D01*
X034313Y004454D01*
X034286Y004411D01*
X034256Y004371D01*
X034224Y004333D01*
X034188Y004298D01*
X034149Y004266D01*
X034108Y004237D01*
X034065Y004211D01*
X034020Y004189D01*
X033974Y004171D01*
X033926Y004156D01*
X033877Y004145D01*
X033828Y004138D01*
X033778Y004135D01*
X033727Y004136D01*
X033678Y004141D01*
X033628Y004150D01*
X033580Y004163D01*
X033533Y004179D01*
X033487Y004200D01*
X033443Y004224D01*
X033401Y004251D01*
X033361Y004281D01*
X033324Y004315D01*
X033290Y004352D01*
X033258Y004391D01*
X033230Y004432D01*
X033205Y004476D01*
X033184Y004521D01*
X033167Y004568D01*
X033153Y004616D01*
X033143Y004665D01*
X033137Y004715D01*
X033135Y004765D01*
X033261Y013226D02*
X032473Y013226D01*
X032473Y015194D01*
X033261Y015194D01*
X033261Y013226D01*
X033103Y014035D02*
X032867Y014035D01*
X032631Y014271D01*
X033103Y014271D01*
X032867Y014035D01*
X032631Y014035D01*
X031863Y014035D02*
X031627Y014035D01*
X031391Y014271D01*
X031863Y014271D01*
X031627Y014035D01*
X031391Y014035D01*
X030865Y014033D02*
X030365Y014033D01*
X030365Y015183D01*
X030865Y015183D01*
X030865Y014033D01*
X031233Y013226D02*
X031233Y015194D01*
X032020Y015194D01*
X032020Y013226D01*
X031233Y013226D01*
X029466Y013915D02*
X029466Y014489D01*
X029466Y015809D02*
X019663Y015809D01*
X019663Y015120D01*
X018521Y015120D01*
X018521Y014075D01*
X012686Y015539D02*
X011536Y015539D01*
X011536Y016039D01*
X012686Y016039D01*
X012686Y015539D01*
X011674Y016614D02*
X010974Y016614D01*
X010974Y018114D01*
X011674Y018114D01*
X011674Y016614D01*
X010624Y015927D02*
X010624Y015427D01*
X009474Y015427D01*
X009474Y015927D01*
X010624Y015927D01*
X008339Y018229D02*
X008463Y018352D01*
X008463Y018599D01*
X008339Y018722D01*
X007722Y018722D01*
X007969Y018984D02*
X007722Y019231D01*
X008463Y019231D01*
X008463Y018984D02*
X008463Y019478D01*
X008339Y018229D02*
X007722Y018229D01*
X005926Y018127D02*
X005611Y018442D01*
X005611Y020399D01*
X005619Y020399D02*
X005898Y020399D01*
X005898Y021895D02*
X005619Y021895D01*
X005611Y021895D02*
X005611Y023852D01*
X005926Y024167D01*
X002698Y024167D01*
X003013Y023852D01*
X005611Y023852D01*
X005926Y024167D02*
X005926Y018127D01*
X002698Y018127D01*
X003013Y018442D01*
X003013Y023852D01*
X002698Y024167D02*
X002698Y018127D01*
X003013Y018442D02*
X005611Y018442D01*
X005308Y017551D02*
X005308Y017051D01*
X004158Y017051D01*
X004158Y017551D01*
X005308Y017551D01*
X005363Y016803D02*
X005363Y016251D01*
X004103Y016251D01*
X004103Y016803D01*
X005363Y016803D01*
X005308Y016007D02*
X005308Y015507D01*
X004158Y015507D01*
X004158Y016007D01*
X005308Y016007D01*
X005812Y028387D02*
X006796Y028387D01*
X005812Y028387D02*
X005812Y033112D01*
X006796Y033112D01*
X007339Y034650D02*
X007339Y038661D01*
X009961Y037574D02*
X009961Y037074D01*
X011111Y037074D01*
X011111Y037574D01*
X009961Y037574D01*
X009961Y036444D02*
X009961Y035944D01*
X011111Y035944D01*
X011111Y036444D01*
X009961Y036444D01*
X010271Y034710D02*
X010649Y034710D01*
X010271Y034710D02*
X010271Y034193D01*
X009765Y034177D02*
X008615Y034177D01*
X008615Y034677D01*
X009765Y034677D01*
X009765Y034177D01*
X009552Y033112D02*
X010536Y033112D01*
X010536Y028387D01*
X009552Y028387D01*
X011040Y032566D02*
X011040Y033066D01*
X012190Y033066D01*
X012190Y032566D01*
X011040Y032566D01*
X011017Y034190D02*
X010837Y034190D01*
X011211Y034710D02*
X011588Y034710D01*
X011588Y034193D01*
X003213Y040592D02*
X003215Y040642D01*
X003221Y040692D01*
X003231Y040741D01*
X003245Y040789D01*
X003262Y040836D01*
X003283Y040881D01*
X003308Y040925D01*
X003336Y040966D01*
X003368Y041005D01*
X003402Y041042D01*
X003439Y041076D01*
X003479Y041106D01*
X003521Y041133D01*
X003565Y041157D01*
X003611Y041178D01*
X003658Y041194D01*
X003706Y041207D01*
X003756Y041216D01*
X003805Y041221D01*
X003856Y041222D01*
X003906Y041219D01*
X003955Y041212D01*
X004004Y041201D01*
X004052Y041186D01*
X004098Y041168D01*
X004143Y041146D01*
X004186Y041120D01*
X004227Y041091D01*
X004266Y041059D01*
X004302Y041024D01*
X004334Y040986D01*
X004364Y040946D01*
X004391Y040903D01*
X004414Y040859D01*
X004433Y040813D01*
X004449Y040765D01*
X004461Y040716D01*
X004469Y040667D01*
X004473Y040617D01*
X004473Y040567D01*
X004469Y040517D01*
X004461Y040468D01*
X004449Y040419D01*
X004433Y040371D01*
X004414Y040325D01*
X004391Y040281D01*
X004364Y040238D01*
X004334Y040198D01*
X004302Y040160D01*
X004266Y040125D01*
X004227Y040093D01*
X004186Y040064D01*
X004143Y040038D01*
X004098Y040016D01*
X004052Y039998D01*
X004004Y039983D01*
X003955Y039972D01*
X003906Y039965D01*
X003856Y039962D01*
X003805Y039963D01*
X003756Y039968D01*
X003706Y039977D01*
X003658Y039990D01*
X003611Y040006D01*
X003565Y040027D01*
X003521Y040051D01*
X003479Y040078D01*
X003439Y040108D01*
X003402Y040142D01*
X003368Y040179D01*
X003336Y040218D01*
X003308Y040259D01*
X003283Y040303D01*
X003262Y040348D01*
X003245Y040395D01*
X003231Y040443D01*
X003221Y040492D01*
X003215Y040542D01*
X003213Y040592D01*
X032741Y040592D02*
X032743Y040642D01*
X032749Y040692D01*
X032759Y040741D01*
X032773Y040789D01*
X032790Y040836D01*
X032811Y040881D01*
X032836Y040925D01*
X032864Y040966D01*
X032896Y041005D01*
X032930Y041042D01*
X032967Y041076D01*
X033007Y041106D01*
X033049Y041133D01*
X033093Y041157D01*
X033139Y041178D01*
X033186Y041194D01*
X033234Y041207D01*
X033284Y041216D01*
X033333Y041221D01*
X033384Y041222D01*
X033434Y041219D01*
X033483Y041212D01*
X033532Y041201D01*
X033580Y041186D01*
X033626Y041168D01*
X033671Y041146D01*
X033714Y041120D01*
X033755Y041091D01*
X033794Y041059D01*
X033830Y041024D01*
X033862Y040986D01*
X033892Y040946D01*
X033919Y040903D01*
X033942Y040859D01*
X033961Y040813D01*
X033977Y040765D01*
X033989Y040716D01*
X033997Y040667D01*
X034001Y040617D01*
X034001Y040567D01*
X033997Y040517D01*
X033989Y040468D01*
X033977Y040419D01*
X033961Y040371D01*
X033942Y040325D01*
X033919Y040281D01*
X033892Y040238D01*
X033862Y040198D01*
X033830Y040160D01*
X033794Y040125D01*
X033755Y040093D01*
X033714Y040064D01*
X033671Y040038D01*
X033626Y040016D01*
X033580Y039998D01*
X033532Y039983D01*
X033483Y039972D01*
X033434Y039965D01*
X033384Y039962D01*
X033333Y039963D01*
X033284Y039968D01*
X033234Y039977D01*
X033186Y039990D01*
X033139Y040006D01*
X033093Y040027D01*
X033049Y040051D01*
X033007Y040078D01*
X032967Y040108D01*
X032930Y040142D01*
X032896Y040179D01*
X032864Y040218D01*
X032836Y040259D01*
X032811Y040303D01*
X032790Y040348D01*
X032773Y040395D01*
X032759Y040443D01*
X032749Y040492D01*
X032743Y040542D01*
X032741Y040592D01*
X033790Y015183D02*
X034290Y015183D01*
X034290Y014033D01*
X033790Y014033D01*
X033790Y015183D01*
D157*
X033474Y015386D02*
X033301Y015386D01*
X033387Y015386D02*
X033387Y015646D01*
X033301Y015559D01*
X033179Y015603D02*
X033136Y015646D01*
X033006Y015646D01*
X033006Y015386D01*
X033136Y015386D01*
X033179Y015429D01*
X033179Y015603D01*
X032885Y015646D02*
X032711Y015646D01*
X032711Y015386D01*
X032885Y015386D01*
X032798Y015516D02*
X032711Y015516D01*
X032590Y015386D02*
X032417Y015386D01*
X032417Y015646D01*
X032096Y015516D02*
X031923Y015516D01*
X032053Y015646D01*
X032053Y015386D01*
X031801Y015429D02*
X031801Y015603D01*
X031758Y015646D01*
X031628Y015646D01*
X031628Y015386D01*
X031758Y015386D01*
X031801Y015429D01*
X031507Y015386D02*
X031333Y015386D01*
X031333Y015646D01*
X031507Y015646D01*
X031420Y015516D02*
X031333Y015516D01*
X031212Y015386D02*
X031039Y015386D01*
X031039Y015646D01*
X030678Y013858D02*
X030505Y013858D01*
X030462Y013815D01*
X030462Y013728D01*
X030505Y013684D01*
X030548Y013684D01*
X030592Y013728D01*
X030592Y013858D01*
X030678Y013858D02*
X030722Y013815D01*
X030722Y013728D01*
X030678Y013684D01*
X030722Y013563D02*
X030635Y013477D01*
X030635Y013520D02*
X030635Y013390D01*
X030722Y013390D02*
X030462Y013390D01*
X030462Y013520D01*
X030505Y013563D01*
X030592Y013563D01*
X030635Y013520D01*
X033926Y013481D02*
X033969Y013524D01*
X034056Y013524D01*
X034100Y013481D01*
X034100Y013350D01*
X034186Y013350D02*
X033926Y013350D01*
X033926Y013481D01*
X033969Y013645D02*
X033926Y013688D01*
X033926Y013775D01*
X033969Y013819D01*
X034013Y013819D01*
X034186Y013645D01*
X034186Y013819D01*
X034186Y013524D02*
X034100Y013437D01*
X033925Y009048D02*
X033819Y009048D01*
X033712Y008941D01*
X033712Y008727D01*
X033819Y008621D01*
X033712Y008403D02*
X034352Y007976D01*
X034352Y008403D02*
X033712Y007976D01*
X034352Y008621D02*
X033925Y009048D01*
X034352Y009048D02*
X034352Y008621D01*
X032415Y004765D02*
X032417Y004838D01*
X032423Y004911D01*
X032433Y004983D01*
X032447Y005055D01*
X032464Y005126D01*
X032486Y005196D01*
X032511Y005265D01*
X032540Y005332D01*
X032572Y005397D01*
X032608Y005461D01*
X032648Y005523D01*
X032690Y005582D01*
X032736Y005639D01*
X032785Y005693D01*
X032837Y005745D01*
X032891Y005794D01*
X032948Y005840D01*
X033007Y005882D01*
X033069Y005922D01*
X033133Y005958D01*
X033198Y005990D01*
X033265Y006019D01*
X033334Y006044D01*
X033404Y006066D01*
X033475Y006083D01*
X033547Y006097D01*
X033619Y006107D01*
X033692Y006113D01*
X033765Y006115D01*
X033838Y006113D01*
X033911Y006107D01*
X033983Y006097D01*
X034055Y006083D01*
X034126Y006066D01*
X034196Y006044D01*
X034265Y006019D01*
X034332Y005990D01*
X034397Y005958D01*
X034461Y005922D01*
X034523Y005882D01*
X034582Y005840D01*
X034639Y005794D01*
X034693Y005745D01*
X034745Y005693D01*
X034794Y005639D01*
X034840Y005582D01*
X034882Y005523D01*
X034922Y005461D01*
X034958Y005397D01*
X034990Y005332D01*
X035019Y005265D01*
X035044Y005196D01*
X035066Y005126D01*
X035083Y005055D01*
X035097Y004983D01*
X035107Y004911D01*
X035113Y004838D01*
X035115Y004765D01*
X035113Y004692D01*
X035107Y004619D01*
X035097Y004547D01*
X035083Y004475D01*
X035066Y004404D01*
X035044Y004334D01*
X035019Y004265D01*
X034990Y004198D01*
X034958Y004133D01*
X034922Y004069D01*
X034882Y004007D01*
X034840Y003948D01*
X034794Y003891D01*
X034745Y003837D01*
X034693Y003785D01*
X034639Y003736D01*
X034582Y003690D01*
X034523Y003648D01*
X034461Y003608D01*
X034397Y003572D01*
X034332Y003540D01*
X034265Y003511D01*
X034196Y003486D01*
X034126Y003464D01*
X034055Y003447D01*
X033983Y003433D01*
X033911Y003423D01*
X033838Y003417D01*
X033765Y003415D01*
X033692Y003417D01*
X033619Y003423D01*
X033547Y003433D01*
X033475Y003447D01*
X033404Y003464D01*
X033334Y003486D01*
X033265Y003511D01*
X033198Y003540D01*
X033133Y003572D01*
X033069Y003608D01*
X033007Y003648D01*
X032948Y003690D01*
X032891Y003736D01*
X032837Y003785D01*
X032785Y003837D01*
X032736Y003891D01*
X032690Y003948D01*
X032648Y004007D01*
X032608Y004069D01*
X032572Y004133D01*
X032540Y004198D01*
X032511Y004265D01*
X032486Y004334D01*
X032464Y004404D01*
X032447Y004475D01*
X032433Y004547D01*
X032423Y004619D01*
X032417Y004692D01*
X032415Y004765D01*
X017227Y009151D02*
X017227Y009194D01*
X017184Y009237D01*
X017054Y009237D01*
X017054Y009151D01*
X017097Y009107D01*
X017184Y009107D01*
X017227Y009151D01*
X017140Y009324D02*
X017054Y009237D01*
X016933Y009237D02*
X016889Y009194D01*
X016759Y009194D01*
X016759Y009107D02*
X016759Y009368D01*
X016889Y009368D01*
X016933Y009324D01*
X016933Y009237D01*
X016846Y009194D02*
X016933Y009107D01*
X017140Y009324D02*
X017227Y009368D01*
X017184Y010288D02*
X017184Y010549D01*
X017054Y010418D01*
X017227Y010418D01*
X016933Y010418D02*
X016889Y010375D01*
X016759Y010375D01*
X016759Y010288D02*
X016759Y010549D01*
X016889Y010549D01*
X016933Y010505D01*
X016933Y010418D01*
X016846Y010375D02*
X016933Y010288D01*
X016933Y011469D02*
X016846Y011556D01*
X016889Y011556D02*
X016759Y011556D01*
X016759Y011469D02*
X016759Y011730D01*
X016889Y011730D01*
X016933Y011686D01*
X016933Y011600D01*
X016889Y011556D01*
X017054Y011513D02*
X017097Y011469D01*
X017184Y011469D01*
X017227Y011513D01*
X017227Y011556D01*
X017184Y011600D01*
X017140Y011600D01*
X017184Y011600D02*
X017227Y011643D01*
X017227Y011686D01*
X017184Y011730D01*
X017097Y011730D01*
X017054Y011686D01*
X017097Y012651D02*
X017054Y012694D01*
X017097Y012651D02*
X017184Y012651D01*
X017227Y012694D01*
X017227Y012781D01*
X017184Y012824D01*
X017140Y012824D01*
X017054Y012781D01*
X017054Y012911D01*
X017227Y012911D01*
X016933Y012867D02*
X016933Y012781D01*
X016889Y012737D01*
X016759Y012737D01*
X016759Y012651D02*
X016759Y012911D01*
X016889Y012911D01*
X016933Y012867D01*
X016846Y012737D02*
X016933Y012651D01*
X016933Y013832D02*
X016846Y013918D01*
X016889Y013918D02*
X016759Y013918D01*
X016759Y013832D02*
X016759Y014092D01*
X016889Y014092D01*
X016933Y014049D01*
X016933Y013962D01*
X016889Y013918D01*
X017054Y013875D02*
X017054Y013832D01*
X017054Y013875D02*
X017227Y014049D01*
X017227Y014092D01*
X017054Y014092D01*
X015499Y016039D02*
X013699Y016039D01*
X013649Y016089D01*
X013599Y016139D01*
X013599Y019939D01*
X013619Y019939D01*
X013619Y016139D01*
X013649Y016089D02*
X013649Y019989D01*
X013599Y019939D01*
X013649Y019989D02*
X013699Y020039D01*
X013719Y020039D01*
X013719Y020189D01*
X013699Y020189D01*
X013649Y020239D01*
X013649Y020489D01*
X013599Y020439D01*
X013619Y020439D01*
X013619Y020289D01*
X013599Y020289D02*
X013599Y020439D01*
X013649Y020489D02*
X013699Y020539D01*
X015499Y020539D01*
X015499Y020189D01*
X015499Y020039D01*
X015499Y016039D01*
X015599Y016139D01*
X015599Y019939D01*
X015499Y020039D01*
X015399Y020039D01*
X013749Y020039D01*
X013749Y020189D01*
X013719Y020189D01*
X013699Y020189D02*
X013699Y020039D01*
X013719Y020039D02*
X013749Y020039D01*
X013749Y020189D02*
X015399Y020189D01*
X015399Y020039D01*
X015399Y020189D02*
X015499Y020189D01*
X015599Y020289D01*
X015599Y020439D01*
X015499Y020539D01*
X014949Y019889D02*
X014949Y019689D01*
X015049Y019789D02*
X014849Y019789D01*
X014599Y019889D02*
X014599Y019539D01*
X015099Y019539D01*
X015099Y019339D01*
X014099Y019339D01*
X014099Y019539D01*
X014599Y019539D01*
X014599Y019039D02*
X014599Y016239D01*
X012109Y016237D02*
X012066Y016194D01*
X011979Y016194D01*
X011936Y016237D01*
X011814Y016237D02*
X011771Y016194D01*
X011684Y016194D01*
X011641Y016237D01*
X011641Y016411D01*
X011684Y016454D01*
X011771Y016454D01*
X011814Y016411D01*
X011936Y016411D02*
X011979Y016454D01*
X012066Y016454D01*
X012109Y016411D01*
X012109Y016367D01*
X012066Y016324D01*
X012109Y016281D01*
X012109Y016237D01*
X012066Y016324D02*
X012022Y016324D01*
X012070Y017429D02*
X012114Y017473D01*
X012114Y017560D01*
X012070Y017603D01*
X012114Y017724D02*
X012114Y017898D01*
X012114Y017811D02*
X011853Y017811D01*
X011940Y017724D01*
X011897Y017603D02*
X011853Y017560D01*
X011853Y017473D01*
X011897Y017429D01*
X012070Y017429D01*
X010331Y016342D02*
X010331Y016082D01*
X010417Y016082D02*
X010244Y016082D01*
X010123Y016082D02*
X010036Y016169D01*
X010079Y016169D02*
X009949Y016169D01*
X009949Y016082D02*
X009949Y016342D01*
X010079Y016342D01*
X010123Y016299D01*
X010123Y016212D01*
X010079Y016169D01*
X010244Y016256D02*
X010331Y016342D01*
X008665Y016218D02*
X008235Y016218D01*
X007995Y016218D01*
X007565Y016218D01*
X007995Y016218D02*
X007997Y016239D01*
X008002Y016259D01*
X008011Y016278D01*
X008023Y016295D01*
X008038Y016310D01*
X008055Y016322D01*
X008074Y016331D01*
X008094Y016336D01*
X008115Y016338D01*
X008136Y016336D01*
X008156Y016331D01*
X008175Y016322D01*
X008192Y016310D01*
X008207Y016295D01*
X008219Y016278D01*
X008228Y016259D01*
X008233Y016239D01*
X008235Y016218D01*
X008665Y018178D02*
X007565Y018178D01*
X006990Y019185D02*
X006350Y019612D01*
X006670Y019830D02*
X006670Y020257D01*
X006350Y020150D02*
X006670Y019830D01*
X006990Y019612D02*
X006350Y019185D01*
X006350Y020150D02*
X006990Y020150D01*
X004042Y017454D02*
X003955Y017411D01*
X003868Y017324D01*
X003998Y017324D01*
X004042Y017281D01*
X004042Y017237D01*
X003998Y017194D01*
X003911Y017194D01*
X003868Y017237D01*
X003868Y017324D01*
X003747Y017194D02*
X003573Y017194D01*
X003660Y017194D02*
X003660Y017454D01*
X003573Y017367D01*
X003452Y017324D02*
X003409Y017281D01*
X003279Y017281D01*
X003366Y017281D02*
X003452Y017194D01*
X003452Y017324D02*
X003452Y017411D01*
X003409Y017454D01*
X003279Y017454D01*
X003279Y017194D01*
X003345Y016656D02*
X003302Y016613D01*
X003302Y016439D01*
X003345Y016396D01*
X003432Y016396D01*
X003475Y016439D01*
X003596Y016396D02*
X003770Y016569D01*
X003770Y016613D01*
X003726Y016656D01*
X003640Y016656D01*
X003596Y016613D01*
X003475Y016613D02*
X003432Y016656D01*
X003345Y016656D01*
X003596Y016396D02*
X003770Y016396D01*
X003868Y015871D02*
X003868Y015741D01*
X003955Y015785D01*
X003998Y015785D01*
X004042Y015741D01*
X004042Y015655D01*
X003998Y015611D01*
X003911Y015611D01*
X003868Y015655D01*
X003747Y015611D02*
X003573Y015611D01*
X003660Y015611D02*
X003660Y015871D01*
X003573Y015785D01*
X003452Y015828D02*
X003452Y015741D01*
X003409Y015698D01*
X003279Y015698D01*
X003366Y015698D02*
X003452Y015611D01*
X003279Y015611D02*
X003279Y015871D01*
X003409Y015871D01*
X003452Y015828D01*
X003868Y015871D02*
X004042Y015871D01*
X008797Y013652D02*
X008797Y007424D01*
X008974Y005371D02*
X008974Y005111D01*
X009148Y005111D01*
X009269Y005111D02*
X009269Y005371D01*
X009443Y005371D01*
X009564Y005371D02*
X009694Y005371D01*
X009737Y005327D01*
X009737Y005154D01*
X009694Y005111D01*
X009564Y005111D01*
X009564Y005371D01*
X009356Y005241D02*
X009269Y005241D01*
X009269Y005111D02*
X009443Y005111D01*
X009858Y005111D02*
X010032Y005284D01*
X010032Y005327D01*
X009989Y005371D01*
X009902Y005371D01*
X009858Y005327D01*
X009858Y005111D02*
X010032Y005111D01*
X012095Y004250D02*
X012225Y004250D01*
X012268Y004207D01*
X012268Y004120D01*
X012225Y004077D01*
X012095Y004077D01*
X012182Y004077D02*
X012268Y003990D01*
X012390Y004033D02*
X012390Y004077D01*
X012433Y004120D01*
X012520Y004120D01*
X012563Y004077D01*
X012563Y004033D01*
X012520Y003990D01*
X012433Y003990D01*
X012390Y004033D01*
X012433Y004120D02*
X012390Y004164D01*
X012390Y004207D01*
X012433Y004250D01*
X012520Y004250D01*
X012563Y004207D01*
X012563Y004164D01*
X012520Y004120D01*
X012095Y003990D02*
X012095Y004250D01*
X010886Y007424D02*
X010886Y013652D01*
X013649Y020239D02*
X013599Y020289D01*
X004654Y028462D02*
X004634Y028462D01*
X004634Y028612D01*
X004654Y028612D02*
X004654Y028462D01*
X004604Y028412D01*
X004604Y028662D01*
X004554Y028712D01*
X004534Y028712D01*
X004534Y028862D01*
X004554Y028862D01*
X004604Y028912D01*
X004604Y032812D01*
X004654Y032762D01*
X004654Y028962D01*
X004634Y028962D01*
X004634Y032762D01*
X004604Y032812D02*
X004554Y032862D01*
X002754Y032862D01*
X002754Y028862D01*
X002754Y028712D01*
X002854Y028712D01*
X004504Y028712D01*
X004504Y028862D01*
X004534Y028862D01*
X004554Y028862D02*
X004554Y028712D01*
X004534Y028712D02*
X004504Y028712D01*
X004604Y028662D02*
X004654Y028612D01*
X004604Y028412D02*
X004554Y028362D01*
X002754Y028362D01*
X002754Y028712D01*
X002654Y028612D01*
X002654Y028462D01*
X002754Y028362D01*
X002854Y028712D02*
X002854Y028862D01*
X004504Y028862D01*
X004604Y028912D02*
X004654Y028962D01*
X004154Y029362D02*
X004154Y029562D01*
X003154Y029562D01*
X003154Y029362D01*
X003654Y029362D01*
X004154Y029362D01*
X003654Y029362D02*
X003654Y029012D01*
X003404Y029112D02*
X003204Y029112D01*
X003304Y029012D02*
X003304Y029212D01*
X002854Y028862D02*
X002754Y028862D01*
X002654Y028962D01*
X002654Y032762D01*
X002754Y032862D01*
X003654Y032662D02*
X003654Y029862D01*
X009192Y034832D02*
X009192Y035092D01*
X009322Y035092D01*
X009366Y035049D01*
X009366Y034962D01*
X009322Y034918D01*
X009192Y034918D01*
X009279Y034918D02*
X009366Y034832D01*
X009487Y034832D02*
X009660Y034832D01*
X009574Y034832D02*
X009574Y035092D01*
X009487Y035005D01*
X009781Y035049D02*
X009825Y035092D01*
X009912Y035092D01*
X009955Y035049D01*
X009955Y035005D01*
X009781Y034832D01*
X009955Y034832D01*
X010302Y035536D02*
X010302Y035797D01*
X010433Y035797D01*
X010476Y035753D01*
X010476Y035667D01*
X010433Y035623D01*
X010302Y035623D01*
X010389Y035623D02*
X010476Y035536D01*
X010597Y035536D02*
X010771Y035536D01*
X010684Y035536D02*
X010684Y035797D01*
X010597Y035710D01*
X010892Y035753D02*
X010935Y035797D01*
X011022Y035797D01*
X011065Y035753D01*
X010892Y035580D01*
X010935Y035536D01*
X011022Y035536D01*
X011065Y035580D01*
X011065Y035753D01*
X010892Y035753D02*
X010892Y035580D01*
X010858Y036659D02*
X010858Y036920D01*
X010772Y036833D01*
X010772Y036659D02*
X010945Y036659D01*
X010650Y036659D02*
X010477Y036659D01*
X010564Y036659D02*
X010564Y036920D01*
X010477Y036833D01*
X010356Y036876D02*
X010356Y036789D01*
X010312Y036746D01*
X010182Y036746D01*
X010182Y036659D02*
X010182Y036920D01*
X010312Y036920D01*
X010356Y036876D01*
X010269Y036746D02*
X010356Y036659D01*
X011753Y034741D02*
X011710Y034697D01*
X011710Y034524D01*
X011753Y034480D01*
X011840Y034480D01*
X011883Y034524D01*
X011883Y034697D01*
X011840Y034741D01*
X011753Y034741D01*
X011797Y034567D02*
X011883Y034480D01*
X012005Y034480D02*
X012178Y034480D01*
X012091Y034480D02*
X012091Y034741D01*
X012005Y034654D01*
X012542Y036417D02*
X013292Y036417D01*
X013292Y036767D01*
X013292Y036417D02*
X014292Y036417D01*
X014292Y036767D01*
X014292Y036417D02*
X015042Y036417D01*
X015042Y032817D01*
X012542Y032817D01*
X012542Y036417D01*
X013292Y036767D02*
X013333Y036813D01*
X013371Y036862D01*
X013405Y036913D01*
X013437Y036966D01*
X013466Y037020D01*
X013491Y037076D01*
X013513Y037134D01*
X013531Y037193D01*
X013545Y037253D01*
X013556Y037313D01*
X013564Y037375D01*
X013568Y037436D01*
X013568Y037498D01*
X013564Y037559D01*
X013556Y037621D01*
X013545Y037681D01*
X013531Y037741D01*
X013513Y037800D01*
X013491Y037858D01*
X013466Y037914D01*
X013437Y037968D01*
X013405Y038021D01*
X013371Y038072D01*
X013333Y038121D01*
X013292Y038167D01*
X013292Y038517D01*
X014292Y038517D01*
X014292Y038167D01*
X014251Y038121D01*
X014213Y038072D01*
X014179Y038021D01*
X014147Y037968D01*
X014118Y037914D01*
X014093Y037858D01*
X014071Y037800D01*
X014053Y037741D01*
X014039Y037681D01*
X014028Y037621D01*
X014020Y037559D01*
X014016Y037498D01*
X014016Y037436D01*
X014020Y037375D01*
X014028Y037313D01*
X014039Y037253D01*
X014053Y037193D01*
X014071Y037134D01*
X014093Y037076D01*
X014118Y037020D01*
X014147Y036966D01*
X014179Y036913D01*
X014213Y036862D01*
X014251Y036813D01*
X014292Y036767D01*
X013792Y035417D02*
X013792Y034517D01*
X014042Y034517D01*
X014042Y034667D01*
X013972Y034667D01*
X013792Y034517D02*
X014022Y034967D01*
X013562Y034967D01*
X013792Y034517D01*
X013542Y034517D01*
X013542Y034367D01*
X013612Y034367D01*
X013792Y034517D02*
X013792Y034017D01*
X012270Y032452D02*
X012140Y032322D01*
X012314Y032322D01*
X012270Y032452D02*
X012270Y032191D01*
X012019Y032191D02*
X011846Y032191D01*
X011932Y032191D02*
X011932Y032452D01*
X011846Y032365D01*
X011724Y032408D02*
X011724Y032322D01*
X011681Y032278D01*
X011551Y032278D01*
X011551Y032191D02*
X011551Y032452D01*
X011681Y032452D01*
X011724Y032408D01*
X011638Y032278D02*
X011724Y032191D01*
X002493Y040592D02*
X002495Y040665D01*
X002501Y040738D01*
X002511Y040810D01*
X002525Y040882D01*
X002542Y040953D01*
X002564Y041023D01*
X002589Y041092D01*
X002618Y041159D01*
X002650Y041224D01*
X002686Y041288D01*
X002726Y041350D01*
X002768Y041409D01*
X002814Y041466D01*
X002863Y041520D01*
X002915Y041572D01*
X002969Y041621D01*
X003026Y041667D01*
X003085Y041709D01*
X003147Y041749D01*
X003211Y041785D01*
X003276Y041817D01*
X003343Y041846D01*
X003412Y041871D01*
X003482Y041893D01*
X003553Y041910D01*
X003625Y041924D01*
X003697Y041934D01*
X003770Y041940D01*
X003843Y041942D01*
X003916Y041940D01*
X003989Y041934D01*
X004061Y041924D01*
X004133Y041910D01*
X004204Y041893D01*
X004274Y041871D01*
X004343Y041846D01*
X004410Y041817D01*
X004475Y041785D01*
X004539Y041749D01*
X004601Y041709D01*
X004660Y041667D01*
X004717Y041621D01*
X004771Y041572D01*
X004823Y041520D01*
X004872Y041466D01*
X004918Y041409D01*
X004960Y041350D01*
X005000Y041288D01*
X005036Y041224D01*
X005068Y041159D01*
X005097Y041092D01*
X005122Y041023D01*
X005144Y040953D01*
X005161Y040882D01*
X005175Y040810D01*
X005185Y040738D01*
X005191Y040665D01*
X005193Y040592D01*
X005191Y040519D01*
X005185Y040446D01*
X005175Y040374D01*
X005161Y040302D01*
X005144Y040231D01*
X005122Y040161D01*
X005097Y040092D01*
X005068Y040025D01*
X005036Y039960D01*
X005000Y039896D01*
X004960Y039834D01*
X004918Y039775D01*
X004872Y039718D01*
X004823Y039664D01*
X004771Y039612D01*
X004717Y039563D01*
X004660Y039517D01*
X004601Y039475D01*
X004539Y039435D01*
X004475Y039399D01*
X004410Y039367D01*
X004343Y039338D01*
X004274Y039313D01*
X004204Y039291D01*
X004133Y039274D01*
X004061Y039260D01*
X003989Y039250D01*
X003916Y039244D01*
X003843Y039242D01*
X003770Y039244D01*
X003697Y039250D01*
X003625Y039260D01*
X003553Y039274D01*
X003482Y039291D01*
X003412Y039313D01*
X003343Y039338D01*
X003276Y039367D01*
X003211Y039399D01*
X003147Y039435D01*
X003085Y039475D01*
X003026Y039517D01*
X002969Y039563D01*
X002915Y039612D01*
X002863Y039664D01*
X002814Y039718D01*
X002768Y039775D01*
X002726Y039834D01*
X002686Y039896D01*
X002650Y039960D01*
X002618Y040025D01*
X002589Y040092D01*
X002564Y040161D01*
X002542Y040231D01*
X002525Y040302D01*
X002511Y040374D01*
X002501Y040446D01*
X002495Y040519D01*
X002493Y040592D01*
X002493Y005159D02*
X002495Y005232D01*
X002501Y005305D01*
X002511Y005377D01*
X002525Y005449D01*
X002542Y005520D01*
X002564Y005590D01*
X002589Y005659D01*
X002618Y005726D01*
X002650Y005791D01*
X002686Y005855D01*
X002726Y005917D01*
X002768Y005976D01*
X002814Y006033D01*
X002863Y006087D01*
X002915Y006139D01*
X002969Y006188D01*
X003026Y006234D01*
X003085Y006276D01*
X003147Y006316D01*
X003211Y006352D01*
X003276Y006384D01*
X003343Y006413D01*
X003412Y006438D01*
X003482Y006460D01*
X003553Y006477D01*
X003625Y006491D01*
X003697Y006501D01*
X003770Y006507D01*
X003843Y006509D01*
X003916Y006507D01*
X003989Y006501D01*
X004061Y006491D01*
X004133Y006477D01*
X004204Y006460D01*
X004274Y006438D01*
X004343Y006413D01*
X004410Y006384D01*
X004475Y006352D01*
X004539Y006316D01*
X004601Y006276D01*
X004660Y006234D01*
X004717Y006188D01*
X004771Y006139D01*
X004823Y006087D01*
X004872Y006033D01*
X004918Y005976D01*
X004960Y005917D01*
X005000Y005855D01*
X005036Y005791D01*
X005068Y005726D01*
X005097Y005659D01*
X005122Y005590D01*
X005144Y005520D01*
X005161Y005449D01*
X005175Y005377D01*
X005185Y005305D01*
X005191Y005232D01*
X005193Y005159D01*
X005191Y005086D01*
X005185Y005013D01*
X005175Y004941D01*
X005161Y004869D01*
X005144Y004798D01*
X005122Y004728D01*
X005097Y004659D01*
X005068Y004592D01*
X005036Y004527D01*
X005000Y004463D01*
X004960Y004401D01*
X004918Y004342D01*
X004872Y004285D01*
X004823Y004231D01*
X004771Y004179D01*
X004717Y004130D01*
X004660Y004084D01*
X004601Y004042D01*
X004539Y004002D01*
X004475Y003966D01*
X004410Y003934D01*
X004343Y003905D01*
X004274Y003880D01*
X004204Y003858D01*
X004133Y003841D01*
X004061Y003827D01*
X003989Y003817D01*
X003916Y003811D01*
X003843Y003809D01*
X003770Y003811D01*
X003697Y003817D01*
X003625Y003827D01*
X003553Y003841D01*
X003482Y003858D01*
X003412Y003880D01*
X003343Y003905D01*
X003276Y003934D01*
X003211Y003966D01*
X003147Y004002D01*
X003085Y004042D01*
X003026Y004084D01*
X002969Y004130D01*
X002915Y004179D01*
X002863Y004231D01*
X002814Y004285D01*
X002768Y004342D01*
X002726Y004401D01*
X002686Y004463D01*
X002650Y004527D01*
X002618Y004592D01*
X002589Y004659D01*
X002564Y004728D01*
X002542Y004798D01*
X002525Y004869D01*
X002511Y004941D01*
X002501Y005013D01*
X002495Y005086D01*
X002493Y005159D01*
X032021Y040592D02*
X032023Y040665D01*
X032029Y040738D01*
X032039Y040810D01*
X032053Y040882D01*
X032070Y040953D01*
X032092Y041023D01*
X032117Y041092D01*
X032146Y041159D01*
X032178Y041224D01*
X032214Y041288D01*
X032254Y041350D01*
X032296Y041409D01*
X032342Y041466D01*
X032391Y041520D01*
X032443Y041572D01*
X032497Y041621D01*
X032554Y041667D01*
X032613Y041709D01*
X032675Y041749D01*
X032739Y041785D01*
X032804Y041817D01*
X032871Y041846D01*
X032940Y041871D01*
X033010Y041893D01*
X033081Y041910D01*
X033153Y041924D01*
X033225Y041934D01*
X033298Y041940D01*
X033371Y041942D01*
X033444Y041940D01*
X033517Y041934D01*
X033589Y041924D01*
X033661Y041910D01*
X033732Y041893D01*
X033802Y041871D01*
X033871Y041846D01*
X033938Y041817D01*
X034003Y041785D01*
X034067Y041749D01*
X034129Y041709D01*
X034188Y041667D01*
X034245Y041621D01*
X034299Y041572D01*
X034351Y041520D01*
X034400Y041466D01*
X034446Y041409D01*
X034488Y041350D01*
X034528Y041288D01*
X034564Y041224D01*
X034596Y041159D01*
X034625Y041092D01*
X034650Y041023D01*
X034672Y040953D01*
X034689Y040882D01*
X034703Y040810D01*
X034713Y040738D01*
X034719Y040665D01*
X034721Y040592D01*
X034719Y040519D01*
X034713Y040446D01*
X034703Y040374D01*
X034689Y040302D01*
X034672Y040231D01*
X034650Y040161D01*
X034625Y040092D01*
X034596Y040025D01*
X034564Y039960D01*
X034528Y039896D01*
X034488Y039834D01*
X034446Y039775D01*
X034400Y039718D01*
X034351Y039664D01*
X034299Y039612D01*
X034245Y039563D01*
X034188Y039517D01*
X034129Y039475D01*
X034067Y039435D01*
X034003Y039399D01*
X033938Y039367D01*
X033871Y039338D01*
X033802Y039313D01*
X033732Y039291D01*
X033661Y039274D01*
X033589Y039260D01*
X033517Y039250D01*
X033444Y039244D01*
X033371Y039242D01*
X033298Y039244D01*
X033225Y039250D01*
X033153Y039260D01*
X033081Y039274D01*
X033010Y039291D01*
X032940Y039313D01*
X032871Y039338D01*
X032804Y039367D01*
X032739Y039399D01*
X032675Y039435D01*
X032613Y039475D01*
X032554Y039517D01*
X032497Y039563D01*
X032443Y039612D01*
X032391Y039664D01*
X032342Y039718D01*
X032296Y039775D01*
X032254Y039834D01*
X032214Y039896D01*
X032178Y039960D01*
X032146Y040025D01*
X032117Y040092D01*
X032092Y040161D01*
X032070Y040231D01*
X032053Y040302D01*
X032039Y040374D01*
X032029Y040446D01*
X032023Y040519D01*
X032021Y040592D01*
D158*
X029650Y039539D02*
X029650Y039039D01*
X029400Y038789D01*
X028900Y038789D01*
X028650Y039039D01*
X028650Y038039D01*
X028400Y037789D01*
X027900Y037789D01*
X027650Y038039D01*
X027650Y039539D01*
X027900Y039789D01*
X028400Y039789D01*
X028650Y039539D01*
X028650Y039039D01*
X028650Y039539D02*
X028900Y039789D01*
X029400Y039789D01*
X029650Y039539D01*
X029650Y039039D02*
X029650Y038039D01*
X029400Y037789D01*
X028900Y037789D01*
X028650Y038039D01*
X027650Y038039D02*
X027400Y037789D01*
X026900Y037789D01*
X026650Y038039D01*
X026400Y037789D01*
X025900Y037789D01*
X025650Y038039D01*
X025400Y037789D01*
X024900Y037789D01*
X024650Y038039D01*
X024400Y037789D01*
X023900Y037789D01*
X023650Y038039D01*
X023400Y037789D01*
X022900Y037789D01*
X022650Y038039D01*
X022650Y039539D01*
X022900Y039789D01*
X023400Y039789D01*
X023650Y039539D01*
X023650Y038039D01*
X022650Y038039D02*
X022400Y037789D01*
X021900Y037789D01*
X021650Y038039D01*
X021650Y039539D01*
X021900Y039789D01*
X022400Y039789D01*
X022650Y039539D01*
X021650Y039539D02*
X021400Y039789D01*
X020900Y039789D01*
X020650Y039539D01*
X020650Y038039D01*
X020400Y037789D01*
X019900Y037789D01*
X019650Y038039D01*
X019400Y037789D01*
X018900Y037789D01*
X018650Y038039D01*
X018650Y039539D01*
X018900Y039789D01*
X019400Y039789D01*
X019650Y039539D01*
X019650Y038039D01*
X020650Y038039D02*
X020900Y037789D01*
X021400Y037789D01*
X021650Y038039D01*
X020650Y039539D02*
X020400Y039789D01*
X019900Y039789D01*
X019650Y039539D01*
X018063Y037751D02*
X018313Y037501D01*
X018313Y037001D01*
X018063Y036751D01*
X017063Y036751D01*
X017313Y037001D01*
X017313Y037501D01*
X017063Y037751D01*
X018063Y037751D01*
X017063Y037751D02*
X016563Y037751D01*
X016313Y037501D01*
X016313Y037001D01*
X016563Y036751D01*
X017063Y036751D01*
X016563Y036751D02*
X016313Y036501D01*
X016313Y036001D01*
X016563Y035751D01*
X018063Y035751D01*
X018313Y035501D01*
X018313Y035001D01*
X018063Y034751D01*
X016563Y034751D01*
X016313Y035001D01*
X016313Y035501D01*
X016563Y035751D01*
X016563Y034751D02*
X016313Y034501D01*
X016313Y034001D01*
X016563Y033751D01*
X018063Y033751D01*
X018313Y033501D01*
X018313Y033001D01*
X018063Y032751D01*
X016563Y032751D01*
X016313Y033001D01*
X016313Y033501D01*
X016563Y033751D01*
X016563Y032751D02*
X016313Y032501D01*
X016313Y032001D01*
X016563Y031751D01*
X018063Y031751D01*
X018313Y031501D01*
X018313Y031001D01*
X018063Y030751D01*
X016563Y030751D01*
X016313Y031001D01*
X016313Y031501D01*
X016563Y031751D01*
X016563Y030751D02*
X016313Y030501D01*
X016313Y030001D01*
X016563Y029751D01*
X018063Y029751D01*
X018313Y029501D01*
X018313Y029001D01*
X018063Y028751D01*
X016563Y028751D01*
X016313Y029001D01*
X016313Y029501D01*
X016563Y029751D01*
X016563Y028751D02*
X016313Y028501D01*
X016313Y028001D01*
X016563Y027751D01*
X018063Y027751D01*
X018313Y027501D01*
X018313Y027001D01*
X018063Y026751D01*
X016563Y026751D01*
X016313Y027001D01*
X016313Y027501D01*
X016563Y027751D01*
X018063Y027751D02*
X018313Y028001D01*
X018313Y028501D01*
X018063Y028751D01*
X018063Y029751D02*
X018313Y030001D01*
X018313Y030501D01*
X018063Y030751D01*
X018063Y031751D02*
X018313Y032001D01*
X018313Y032501D01*
X018063Y032751D01*
X018063Y033751D02*
X018313Y034001D01*
X018313Y034501D01*
X018063Y034751D01*
X018063Y035751D02*
X018313Y036001D01*
X018313Y036501D01*
X018063Y036751D01*
X023650Y039539D02*
X023900Y039789D01*
X024400Y039789D01*
X024650Y039539D01*
X024650Y038039D01*
X025650Y038039D02*
X025650Y039539D01*
X025900Y039789D01*
X026400Y039789D01*
X026650Y039539D01*
X026650Y038039D01*
X026650Y039539D02*
X026900Y039789D01*
X027400Y039789D01*
X027650Y039539D01*
X025650Y039539D02*
X025400Y039789D01*
X024900Y039789D01*
X024650Y039539D01*
D159*
X030927Y036545D02*
X030927Y036045D01*
X031177Y035795D01*
X032677Y035795D01*
X032927Y035545D01*
X032927Y035045D01*
X032677Y034795D01*
X031177Y034795D01*
X030927Y035045D01*
X030927Y035545D01*
X031177Y035795D01*
X030927Y036545D02*
X031177Y036795D01*
X032677Y036795D01*
X032927Y036545D01*
X032927Y036045D01*
X032677Y035795D01*
X032677Y034795D02*
X032927Y034545D01*
X032927Y034045D01*
X032677Y033795D01*
X031177Y033795D01*
X030927Y034045D01*
X030927Y034545D01*
X031177Y034795D01*
X031177Y033795D02*
X030927Y033545D01*
X030927Y033045D01*
X031177Y032795D01*
X032677Y032795D01*
X032927Y032545D01*
X032927Y032045D01*
X032677Y031795D01*
X031177Y031795D01*
X030927Y032045D01*
X030927Y032545D01*
X031177Y032795D01*
X031177Y031795D02*
X030927Y031545D01*
X030927Y031045D01*
X031177Y030795D01*
X032677Y030795D01*
X032927Y030545D01*
X032927Y030045D01*
X032677Y029795D01*
X032177Y029795D01*
X031177Y029795D01*
X030927Y030045D01*
X030927Y030545D01*
X031177Y030795D01*
X031177Y029795D02*
X030927Y029545D01*
X030927Y029045D01*
X031177Y028795D01*
X032177Y028795D01*
X031927Y029045D01*
X031927Y029545D01*
X032177Y029795D01*
X032677Y029795D02*
X032927Y029545D01*
X032927Y029045D01*
X032677Y028795D01*
X032177Y028795D01*
X032675Y028539D02*
X032925Y028289D01*
X032925Y027789D01*
X032675Y027539D01*
X031175Y027539D01*
X030925Y027789D01*
X030925Y028289D01*
X031175Y028539D01*
X032675Y028539D01*
X032675Y027539D02*
X032925Y027289D01*
X032925Y026789D01*
X032675Y026539D01*
X031175Y026539D01*
X030925Y026789D01*
X030925Y027289D01*
X031175Y027539D01*
X031175Y026539D02*
X030925Y026289D01*
X030925Y025789D01*
X031175Y025539D01*
X032675Y025539D01*
X032925Y025289D01*
X032925Y024789D01*
X032675Y024539D01*
X031175Y024539D01*
X030925Y024789D01*
X030925Y025289D01*
X031175Y025539D01*
X031175Y024539D02*
X030925Y024289D01*
X030925Y023789D01*
X031175Y023539D01*
X032675Y023539D01*
X032925Y023289D01*
X032925Y022789D01*
X032675Y022539D01*
X031175Y022539D01*
X030925Y022789D01*
X030925Y023289D01*
X031175Y023539D01*
X031175Y022539D02*
X030925Y022289D01*
X030925Y021789D01*
X031175Y021539D01*
X032675Y021539D01*
X032925Y021289D01*
X032925Y020789D01*
X032675Y020539D01*
X032175Y020539D01*
X031175Y020539D01*
X030925Y020789D01*
X030925Y021289D01*
X031175Y021539D01*
X031175Y020539D02*
X030925Y020289D01*
X030925Y019789D01*
X031175Y019539D01*
X032175Y019539D01*
X031925Y019789D01*
X031925Y020289D01*
X032175Y020539D01*
X032675Y020539D02*
X032925Y020289D01*
X032925Y019789D01*
X032675Y019539D01*
X032175Y019539D01*
X032675Y021539D02*
X032925Y021789D01*
X032925Y022289D01*
X032675Y022539D01*
X032675Y023539D02*
X032925Y023789D01*
X032925Y024289D01*
X032675Y024539D01*
X032675Y025539D02*
X032925Y025789D01*
X032925Y026289D01*
X032675Y026539D01*
X032677Y030795D02*
X032927Y031045D01*
X032927Y031545D01*
X032677Y031795D01*
X032677Y032795D02*
X032927Y033045D01*
X032927Y033545D01*
X032677Y033795D01*
X033100Y039976D02*
X033100Y015789D01*
X015975Y015789D01*
X015975Y039976D01*
X033100Y039976D01*
X015685Y033642D02*
X015685Y033342D01*
X015685Y033492D02*
X015234Y033492D01*
X015385Y033342D01*
X015309Y033181D02*
X015234Y033106D01*
X015234Y032881D01*
X015685Y032881D01*
X015685Y033106D01*
X015610Y033181D01*
X015309Y033181D01*
X006599Y023663D02*
X006604Y023856D01*
X006618Y024049D01*
X006642Y024241D01*
X006675Y024431D01*
X006717Y024620D01*
X006769Y024806D01*
X006829Y024989D01*
X006899Y025170D01*
X006977Y025346D01*
X007064Y025519D01*
X007159Y025687D01*
X007263Y025850D01*
X007374Y026008D01*
X007493Y026161D01*
X007619Y026307D01*
X007752Y026447D01*
X007892Y026580D01*
X008038Y026706D01*
X008191Y026825D01*
X008349Y026936D01*
X008512Y027040D01*
X008680Y027135D01*
X008853Y027222D01*
X009029Y027300D01*
X009210Y027370D01*
X009393Y027430D01*
X009579Y027482D01*
X009768Y027524D01*
X009958Y027557D01*
X010150Y027581D01*
X010343Y027595D01*
X010536Y027600D01*
X010729Y027595D01*
X010922Y027581D01*
X011114Y027557D01*
X011304Y027524D01*
X011493Y027482D01*
X011679Y027430D01*
X011862Y027370D01*
X012043Y027300D01*
X012219Y027222D01*
X012392Y027135D01*
X012560Y027040D01*
X012723Y026936D01*
X012881Y026825D01*
X013034Y026706D01*
X013180Y026580D01*
X013320Y026447D01*
X013453Y026307D01*
X013579Y026161D01*
X013698Y026008D01*
X013809Y025850D01*
X013913Y025687D01*
X014008Y025519D01*
X014095Y025346D01*
X014173Y025170D01*
X014243Y024989D01*
X014303Y024806D01*
X014355Y024620D01*
X014397Y024431D01*
X014430Y024241D01*
X014454Y024049D01*
X014468Y023856D01*
X014473Y023663D01*
X014468Y023470D01*
X014454Y023277D01*
X014430Y023085D01*
X014397Y022895D01*
X014355Y022706D01*
X014303Y022520D01*
X014243Y022337D01*
X014173Y022156D01*
X014095Y021980D01*
X014008Y021807D01*
X013913Y021639D01*
X013809Y021476D01*
X013698Y021318D01*
X013579Y021165D01*
X013453Y021019D01*
X013320Y020879D01*
X013180Y020746D01*
X013034Y020620D01*
X012881Y020501D01*
X012723Y020390D01*
X012560Y020286D01*
X012392Y020191D01*
X012219Y020104D01*
X012043Y020026D01*
X011862Y019956D01*
X011679Y019896D01*
X011493Y019844D01*
X011304Y019802D01*
X011114Y019769D01*
X010922Y019745D01*
X010729Y019731D01*
X010536Y019726D01*
X010343Y019731D01*
X010150Y019745D01*
X009958Y019769D01*
X009768Y019802D01*
X009579Y019844D01*
X009393Y019896D01*
X009210Y019956D01*
X009029Y020026D01*
X008853Y020104D01*
X008680Y020191D01*
X008512Y020286D01*
X008349Y020390D01*
X008191Y020501D01*
X008038Y020620D01*
X007892Y020746D01*
X007752Y020879D01*
X007619Y021019D01*
X007493Y021165D01*
X007374Y021318D01*
X007263Y021476D01*
X007159Y021639D01*
X007064Y021807D01*
X006977Y021980D01*
X006899Y022156D01*
X006829Y022337D01*
X006769Y022520D01*
X006717Y022706D01*
X006675Y022895D01*
X006642Y023085D01*
X006618Y023277D01*
X006604Y023470D01*
X006599Y023663D01*
X005210Y028487D02*
X004910Y028487D01*
X004835Y028562D01*
X004835Y028712D01*
X004910Y028787D01*
X004835Y028947D02*
X005060Y028947D01*
X004985Y029097D01*
X004985Y029172D01*
X005060Y029247D01*
X005210Y029247D01*
X005285Y029172D01*
X005285Y029022D01*
X005210Y028947D01*
X005210Y028787D02*
X005285Y028712D01*
X005285Y028562D01*
X005210Y028487D01*
X004835Y028947D02*
X004835Y029247D01*
X012968Y019516D02*
X013043Y019366D01*
X013193Y019216D01*
X013193Y019441D01*
X013268Y019516D01*
X013343Y019516D01*
X013418Y019441D01*
X013418Y019291D01*
X013343Y019216D01*
X013193Y019216D01*
X013043Y019056D02*
X012968Y018981D01*
X012968Y018831D01*
X013043Y018756D01*
X013343Y018756D01*
X013418Y018831D01*
X013418Y018981D01*
X013343Y019056D01*
D160*
X007635Y035315D03*
X007635Y035985D03*
X007635Y036655D03*
X007635Y037325D03*
X007635Y037995D03*
D161*
X002704Y032762D02*
X002704Y028962D01*
X002804Y028812D02*
X002804Y028762D01*
X002704Y028612D02*
X002704Y028462D01*
X015549Y020439D02*
X015549Y020289D01*
X015449Y020139D02*
X015449Y020089D01*
X015549Y019939D02*
X015549Y016139D01*
D162*
X014599Y019089D03*
X003654Y029812D03*
D163*
X003654Y028212D03*
X003654Y033012D03*
X014599Y020689D03*
X014599Y015889D03*
D164*
X007426Y031255D02*
X007326Y031255D01*
X007279Y031255D02*
X007179Y031255D01*
X007179Y031405D01*
X007326Y031355D02*
X007376Y031405D01*
X007376Y031255D01*
D165*
X013792Y032527D03*
X013792Y038807D03*
D166*
X013792Y033142D03*
D167*
X012783Y024146D02*
X012783Y023182D01*
X012301Y023664D02*
X013265Y023664D01*
D168*
X005509Y019470D02*
X005087Y019746D01*
X005087Y019194D01*
X005509Y019470D01*
X030560Y011391D02*
X030981Y011116D01*
X030981Y011667D01*
X030560Y011391D01*
M02*
