G75*
%MOIN*%
%OFA0B0*%
%FSLAX25Y25*%
%IPPOS*%
%LPD*%
%AMOC8*
5,1,8,0,0,1.08239X$1,22.5*
%
%ADD10C,0.04775*%
%ADD11OC8,0.05512*%
%ADD12C,0.05000*%
%ADD13C,0.01000*%
%ADD14C,0.02481*%
%ADD15C,0.01200*%
%ADD16C,0.02400*%
%ADD17C,0.04252*%
D10*
X0209767Y0084125D03*
X0209767Y0103125D03*
D11*
X0189142Y0125500D03*
X0179142Y0125500D03*
X0169142Y0125500D03*
X0159142Y0125500D03*
X0149142Y0125500D03*
X0139142Y0125500D03*
X0129142Y0125500D03*
X0119142Y0125500D03*
X0109142Y0125500D03*
X0099142Y0125500D03*
X0089142Y0125500D03*
X0079142Y0125500D03*
X0069142Y0125500D03*
X0059142Y0125500D03*
X0059142Y0045500D03*
X0069142Y0045500D03*
X0079142Y0045500D03*
X0089142Y0045500D03*
X0099142Y0045500D03*
X0109142Y0045500D03*
X0119142Y0045500D03*
X0129142Y0045500D03*
X0139142Y0045500D03*
X0149142Y0045500D03*
X0159142Y0045500D03*
X0169142Y0045500D03*
X0179142Y0045500D03*
X0189142Y0045500D03*
D12*
X0107700Y0032818D03*
X0099826Y0032818D03*
X0091952Y0032818D03*
X0084078Y0032818D03*
X0076204Y0032818D03*
X0068330Y0032818D03*
X0060456Y0032818D03*
X0052582Y0032818D03*
X0044708Y0032818D03*
X0036834Y0032818D03*
X0036834Y0119432D03*
X0044708Y0119432D03*
X0052582Y0119432D03*
X0060456Y0119432D03*
X0068330Y0119432D03*
X0076204Y0119432D03*
X0084078Y0119432D03*
X0091952Y0119432D03*
X0099826Y0119432D03*
X0107700Y0119432D03*
D13*
X0035054Y0005100D02*
X0032164Y0003431D01*
X0295354Y0003431D01*
X0294642Y0003711D01*
X0294642Y0003711D01*
X0290796Y0006777D01*
X0290796Y0006777D01*
X0290796Y0006777D01*
X0288026Y0010841D01*
X0288026Y0010841D01*
X0286576Y0015541D01*
X0286576Y0020459D01*
X0288026Y0025159D01*
X0288026Y0025159D01*
X0290796Y0029223D01*
X0290796Y0029223D01*
X0290796Y0029223D01*
X0294642Y0032289D01*
X0294642Y0032289D01*
X0299220Y0034086D01*
X0299220Y0034086D01*
X0304125Y0034454D01*
X0304125Y0034454D01*
X0308920Y0033359D01*
X0308920Y0033359D01*
X0313179Y0030900D01*
X0313179Y0030900D01*
X0316525Y0027295D01*
X0316525Y0027295D01*
X0317382Y0025515D01*
X0317382Y0126783D01*
X0315900Y0123705D01*
X0315900Y0123705D01*
X0312554Y0120100D01*
X0312554Y0120100D01*
X0308295Y0117641D01*
X0308295Y0117641D01*
X0303500Y0116546D01*
X0303500Y0116546D01*
X0298595Y0116914D01*
X0298595Y0116914D01*
X0294017Y0118711D01*
X0294017Y0118711D01*
X0290171Y0121777D01*
X0290171Y0121777D01*
X0290171Y0121777D01*
X0287401Y0125841D01*
X0285951Y0130541D01*
X0285951Y0135459D01*
X0287401Y0140159D01*
X0290171Y0144223D01*
X0290171Y0144223D01*
X0294017Y0147289D01*
X0294017Y0147289D01*
X0296196Y0148145D01*
X0256044Y0148145D01*
X0257098Y0147091D01*
X0257098Y0145159D01*
X0256457Y0144519D01*
X0256457Y0092106D01*
X0257098Y0091466D01*
X0257098Y0089534D01*
X0255732Y0088169D01*
X0253801Y0088169D01*
X0252436Y0089534D01*
X0252436Y0091466D01*
X0253076Y0092106D01*
X0253076Y0144519D01*
X0252436Y0145159D01*
X0252436Y0147091D01*
X0253490Y0148145D01*
X0032249Y0148145D01*
X0035054Y0146525D01*
X0035054Y0146525D01*
X0038400Y0142920D01*
X0038400Y0142920D01*
X0040534Y0138488D01*
X0040534Y0138488D01*
X0041267Y0133625D01*
X0040534Y0128762D01*
X0040534Y0128762D01*
X0038400Y0124330D01*
X0038400Y0124330D01*
X0037186Y0123023D01*
X0037548Y0123023D01*
X0038868Y0122476D01*
X0039878Y0121466D01*
X0040424Y0120146D01*
X0040424Y0118718D01*
X0039878Y0117398D01*
X0038868Y0116388D01*
X0037548Y0115842D01*
X0036119Y0115842D01*
X0034800Y0116388D01*
X0033790Y0117398D01*
X0033243Y0118718D01*
X0033243Y0119679D01*
X0030795Y0118266D01*
X0030795Y0118266D01*
X0026000Y0117171D01*
X0026000Y0117171D01*
X0021095Y0117539D01*
X0021095Y0117539D01*
X0016517Y0119336D01*
X0016517Y0119336D01*
X0012671Y0122402D01*
X0012671Y0122402D01*
X0012671Y0122402D01*
X0010198Y0126030D01*
X0010198Y0025595D01*
X0012671Y0029223D01*
X0012671Y0029223D01*
X0012671Y0029223D01*
X0016517Y0032289D01*
X0016517Y0032289D01*
X0021095Y0034086D01*
X0026000Y0034454D01*
X0030795Y0033359D01*
X0033329Y0031896D01*
X0033243Y0032104D01*
X0033243Y0033532D01*
X0033790Y0034852D01*
X0034800Y0035862D01*
X0036119Y0036408D01*
X0037548Y0036408D01*
X0038868Y0035862D01*
X0039878Y0034852D01*
X0040424Y0033532D01*
X0040424Y0032104D01*
X0039878Y0030784D01*
X0038868Y0029774D01*
X0037548Y0029227D01*
X0036606Y0029227D01*
X0038400Y0027295D01*
X0038400Y0027295D01*
X0038400Y0027295D01*
X0040534Y0022863D01*
X0040534Y0022863D01*
X0041267Y0018000D01*
X0040534Y0013137D01*
X0040534Y0013137D01*
X0038400Y0008705D01*
X0038400Y0008705D01*
X0035054Y0005100D01*
X0035054Y0005100D01*
X0034441Y0004746D02*
X0293344Y0004746D01*
X0292092Y0005744D02*
X0035652Y0005744D01*
X0036579Y0006743D02*
X0290840Y0006743D01*
X0290139Y0007741D02*
X0037505Y0007741D01*
X0038416Y0008740D02*
X0289458Y0008740D01*
X0288778Y0009738D02*
X0038897Y0009738D01*
X0039378Y0010737D02*
X0288097Y0010737D01*
X0287750Y0011735D02*
X0039859Y0011735D01*
X0040340Y0012734D02*
X0287442Y0012734D01*
X0287134Y0013732D02*
X0040623Y0013732D01*
X0040774Y0014731D02*
X0286826Y0014731D01*
X0286576Y0015729D02*
X0040924Y0015729D01*
X0041075Y0016728D02*
X0286576Y0016728D01*
X0286576Y0017726D02*
X0041225Y0017726D01*
X0041157Y0018725D02*
X0286576Y0018725D01*
X0286576Y0019723D02*
X0041007Y0019723D01*
X0040856Y0020722D02*
X0286657Y0020722D01*
X0286965Y0021720D02*
X0040706Y0021720D01*
X0040555Y0022719D02*
X0287273Y0022719D01*
X0287581Y0023717D02*
X0040123Y0023717D01*
X0039642Y0024716D02*
X0287889Y0024716D01*
X0288404Y0025714D02*
X0039161Y0025714D01*
X0038680Y0026713D02*
X0289085Y0026713D01*
X0289766Y0027711D02*
X0038013Y0027711D01*
X0037087Y0028710D02*
X0290447Y0028710D01*
X0291405Y0029708D02*
X0257274Y0029708D01*
X0257214Y0029648D02*
X0258119Y0030553D01*
X0258608Y0031735D01*
X0258608Y0033015D01*
X0258119Y0034197D01*
X0257214Y0035102D01*
X0256032Y0035592D01*
X0255415Y0035592D01*
X0243216Y0047791D01*
X0192291Y0047791D01*
X0190735Y0049346D01*
X0187548Y0049346D01*
X0185295Y0047093D01*
X0185295Y0043907D01*
X0187548Y0041654D01*
X0190735Y0041654D01*
X0192291Y0043209D01*
X0241318Y0043209D01*
X0252175Y0032352D01*
X0252175Y0031735D01*
X0252665Y0030553D01*
X0253570Y0029648D01*
X0254752Y0029158D01*
X0256032Y0029158D01*
X0257214Y0029648D01*
X0258182Y0030707D02*
X0292657Y0030707D01*
X0293909Y0031705D02*
X0258596Y0031705D01*
X0258608Y0032704D02*
X0295698Y0032704D01*
X0298242Y0033702D02*
X0258323Y0033702D01*
X0257615Y0034701D02*
X0317382Y0034701D01*
X0317382Y0035699D02*
X0255307Y0035699D01*
X0254308Y0036698D02*
X0317382Y0036698D01*
X0317382Y0037696D02*
X0253310Y0037696D01*
X0252311Y0038695D02*
X0317382Y0038695D01*
X0317382Y0039693D02*
X0251313Y0039693D01*
X0250314Y0040692D02*
X0317382Y0040692D01*
X0317382Y0041690D02*
X0249316Y0041690D01*
X0248317Y0042689D02*
X0317382Y0042689D01*
X0317382Y0043687D02*
X0247319Y0043687D01*
X0246320Y0044686D02*
X0317382Y0044686D01*
X0317382Y0045684D02*
X0245322Y0045684D01*
X0244323Y0046683D02*
X0317382Y0046683D01*
X0317382Y0047682D02*
X0243325Y0047682D01*
X0241838Y0042689D02*
X0191770Y0042689D01*
X0190772Y0041690D02*
X0242837Y0041690D01*
X0243835Y0040692D02*
X0010198Y0040692D01*
X0010198Y0041690D02*
X0057512Y0041690D01*
X0057548Y0041654D02*
X0060735Y0041654D01*
X0062988Y0043907D01*
X0062988Y0047093D01*
X0060735Y0049346D01*
X0057548Y0049346D01*
X0055295Y0047093D01*
X0055295Y0043907D01*
X0057548Y0041654D01*
X0056513Y0042689D02*
X0010198Y0042689D01*
X0010198Y0043687D02*
X0055515Y0043687D01*
X0055295Y0044686D02*
X0010198Y0044686D01*
X0010198Y0045684D02*
X0055295Y0045684D01*
X0055295Y0046683D02*
X0010198Y0046683D01*
X0010198Y0047682D02*
X0055884Y0047682D01*
X0056882Y0048680D02*
X0010198Y0048680D01*
X0010198Y0049679D02*
X0317382Y0049679D01*
X0317382Y0050677D02*
X0010198Y0050677D01*
X0010198Y0051676D02*
X0317382Y0051676D01*
X0317382Y0052674D02*
X0010198Y0052674D01*
X0010198Y0053673D02*
X0317382Y0053673D01*
X0317382Y0054671D02*
X0010198Y0054671D01*
X0010198Y0055670D02*
X0317382Y0055670D01*
X0317382Y0056668D02*
X0010198Y0056668D01*
X0010198Y0057667D02*
X0317382Y0057667D01*
X0317382Y0058665D02*
X0010198Y0058665D01*
X0010198Y0059664D02*
X0188837Y0059664D01*
X0189066Y0059434D02*
X0256286Y0059434D01*
X0256926Y0058794D01*
X0258857Y0058794D01*
X0260223Y0060159D01*
X0260223Y0062091D01*
X0258857Y0063456D01*
X0256926Y0063456D01*
X0256286Y0062816D01*
X0190467Y0062816D01*
X0173957Y0079325D01*
X0172967Y0080316D01*
X0170123Y0080316D01*
X0169754Y0080684D01*
X0175316Y0080684D01*
X0191566Y0064434D01*
X0256286Y0064434D01*
X0256926Y0063794D01*
X0258857Y0063794D01*
X0260223Y0065159D01*
X0260223Y0066934D01*
X0270036Y0066934D01*
X0270676Y0066294D01*
X0272607Y0066294D01*
X0273973Y0067659D01*
X0273973Y0069591D01*
X0272607Y0070956D01*
X0270676Y0070956D01*
X0270036Y0070316D01*
X0193592Y0070316D01*
X0178957Y0084950D01*
X0177967Y0085941D01*
X0107342Y0085941D01*
X0101516Y0091766D01*
X0101516Y0116246D01*
X0101860Y0116388D01*
X0102870Y0117398D01*
X0103416Y0118718D01*
X0103416Y0120146D01*
X0102870Y0121466D01*
X0101860Y0122476D01*
X0101646Y0122565D01*
X0102988Y0123907D01*
X0102988Y0127093D01*
X0100735Y0129346D01*
X0097548Y0129346D01*
X0095295Y0127093D01*
X0095295Y0123907D01*
X0097259Y0121943D01*
X0096782Y0121466D01*
X0096235Y0120146D01*
X0096235Y0118718D01*
X0096782Y0117398D01*
X0097792Y0116388D01*
X0098135Y0116246D01*
X0098135Y0113897D01*
X0094842Y0117191D01*
X0094788Y0117191D01*
X0094996Y0117398D01*
X0095542Y0118718D01*
X0095542Y0120146D01*
X0094996Y0121466D01*
X0093986Y0122476D01*
X0092666Y0123023D01*
X0092104Y0123023D01*
X0092988Y0123907D01*
X0092988Y0127093D01*
X0090735Y0129346D01*
X0087548Y0129346D01*
X0085295Y0127093D01*
X0085295Y0123907D01*
X0087548Y0121654D01*
X0089095Y0121654D01*
X0088908Y0121466D01*
X0088361Y0120146D01*
X0088361Y0118718D01*
X0088908Y0117398D01*
X0089116Y0117191D01*
X0086914Y0117191D01*
X0087122Y0117398D01*
X0087668Y0118718D01*
X0087668Y0120146D01*
X0087122Y0121466D01*
X0086112Y0122476D01*
X0084792Y0123023D01*
X0083364Y0123023D01*
X0082044Y0122476D01*
X0081034Y0121466D01*
X0080487Y0120146D01*
X0080487Y0118718D01*
X0081034Y0117398D01*
X0081241Y0117191D01*
X0079040Y0117191D01*
X0079248Y0117398D01*
X0079794Y0118718D01*
X0079794Y0120146D01*
X0079248Y0121466D01*
X0079060Y0121654D01*
X0080735Y0121654D01*
X0082988Y0123907D01*
X0082988Y0127093D01*
X0080735Y0129346D01*
X0077548Y0129346D01*
X0075295Y0127093D01*
X0075295Y0123907D01*
X0076179Y0123023D01*
X0075490Y0123023D01*
X0074170Y0122476D01*
X0073160Y0121466D01*
X0072613Y0120146D01*
X0072613Y0118718D01*
X0073160Y0117398D01*
X0073367Y0117191D01*
X0072962Y0117191D01*
X0071778Y0118375D01*
X0071920Y0118718D01*
X0071920Y0120146D01*
X0071374Y0121466D01*
X0070961Y0121879D01*
X0072988Y0123907D01*
X0072988Y0127093D01*
X0070735Y0129346D01*
X0067548Y0129346D01*
X0065295Y0127093D01*
X0065295Y0123907D01*
X0066600Y0122602D01*
X0066296Y0122476D01*
X0065286Y0121466D01*
X0064739Y0120146D01*
X0064739Y0118718D01*
X0065286Y0117398D01*
X0066296Y0116388D01*
X0067616Y0115842D01*
X0069044Y0115842D01*
X0069387Y0115984D01*
X0071562Y0113809D01*
X0093441Y0113809D01*
X0096201Y0111050D01*
X0096201Y0089170D01*
X0104687Y0080684D01*
X0167280Y0080684D01*
X0166186Y0079591D01*
X0166186Y0077659D01*
X0167551Y0076294D01*
X0169482Y0076294D01*
X0170123Y0076934D01*
X0171566Y0076934D01*
X0189066Y0059434D01*
X0187839Y0060662D02*
X0010198Y0060662D01*
X0010198Y0061661D02*
X0186840Y0061661D01*
X0185842Y0062659D02*
X0010198Y0062659D01*
X0010198Y0063658D02*
X0184843Y0063658D01*
X0183845Y0064656D02*
X0010198Y0064656D01*
X0010198Y0065655D02*
X0182846Y0065655D01*
X0181848Y0066653D02*
X0010198Y0066653D01*
X0010198Y0067652D02*
X0180849Y0067652D01*
X0179851Y0068650D02*
X0010198Y0068650D01*
X0010198Y0069649D02*
X0178852Y0069649D01*
X0177854Y0070647D02*
X0010198Y0070647D01*
X0010198Y0071646D02*
X0176855Y0071646D01*
X0175857Y0072644D02*
X0010198Y0072644D01*
X0010198Y0073643D02*
X0174858Y0073643D01*
X0173860Y0074641D02*
X0010198Y0074641D01*
X0010198Y0075640D02*
X0172861Y0075640D01*
X0171863Y0076638D02*
X0169827Y0076638D01*
X0167207Y0076638D02*
X0010198Y0076638D01*
X0010198Y0077637D02*
X0166208Y0077637D01*
X0166186Y0078635D02*
X0010198Y0078635D01*
X0010198Y0079634D02*
X0166229Y0079634D01*
X0167227Y0080632D02*
X0010198Y0080632D01*
X0010198Y0081631D02*
X0103740Y0081631D01*
X0102742Y0082629D02*
X0010198Y0082629D01*
X0010198Y0083628D02*
X0101743Y0083628D01*
X0100745Y0084626D02*
X0010198Y0084626D01*
X0010198Y0085625D02*
X0099746Y0085625D01*
X0098748Y0086623D02*
X0010198Y0086623D01*
X0010198Y0087622D02*
X0097749Y0087622D01*
X0096751Y0088620D02*
X0010198Y0088620D01*
X0010198Y0089619D02*
X0096201Y0089619D01*
X0096201Y0090618D02*
X0010198Y0090618D01*
X0010198Y0091616D02*
X0096201Y0091616D01*
X0096201Y0092615D02*
X0010198Y0092615D01*
X0010198Y0093613D02*
X0096201Y0093613D01*
X0096201Y0094612D02*
X0010198Y0094612D01*
X0010198Y0095610D02*
X0096201Y0095610D01*
X0096201Y0096609D02*
X0010198Y0096609D01*
X0010198Y0097607D02*
X0096201Y0097607D01*
X0096201Y0098606D02*
X0010198Y0098606D01*
X0010198Y0099604D02*
X0096201Y0099604D01*
X0096201Y0100603D02*
X0010198Y0100603D01*
X0010198Y0101601D02*
X0096201Y0101601D01*
X0096201Y0102600D02*
X0010198Y0102600D01*
X0010198Y0103598D02*
X0096201Y0103598D01*
X0096201Y0104597D02*
X0010198Y0104597D01*
X0010198Y0105595D02*
X0096201Y0105595D01*
X0096201Y0106594D02*
X0010198Y0106594D01*
X0010198Y0107592D02*
X0096201Y0107592D01*
X0096201Y0108591D02*
X0010198Y0108591D01*
X0010198Y0109589D02*
X0096201Y0109589D01*
X0096201Y0110588D02*
X0010198Y0110588D01*
X0010198Y0111586D02*
X0095665Y0111586D01*
X0094666Y0112585D02*
X0010198Y0112585D01*
X0010198Y0113583D02*
X0093668Y0113583D01*
X0096452Y0115580D02*
X0098135Y0115580D01*
X0098135Y0114582D02*
X0097451Y0114582D01*
X0097601Y0116579D02*
X0095454Y0116579D01*
X0095070Y0117577D02*
X0096708Y0117577D01*
X0096294Y0118576D02*
X0095483Y0118576D01*
X0095542Y0119574D02*
X0096235Y0119574D01*
X0096412Y0120573D02*
X0095366Y0120573D01*
X0094890Y0121571D02*
X0096887Y0121571D01*
X0096632Y0122570D02*
X0093759Y0122570D01*
X0092650Y0123568D02*
X0095634Y0123568D01*
X0095295Y0124567D02*
X0092988Y0124567D01*
X0092988Y0125565D02*
X0095295Y0125565D01*
X0095295Y0126564D02*
X0092988Y0126564D01*
X0092519Y0127562D02*
X0095764Y0127562D01*
X0096763Y0128561D02*
X0091520Y0128561D01*
X0086763Y0128561D02*
X0081520Y0128561D01*
X0082519Y0127562D02*
X0085764Y0127562D01*
X0085295Y0126564D02*
X0082988Y0126564D01*
X0082988Y0125565D02*
X0085295Y0125565D01*
X0085295Y0124567D02*
X0082988Y0124567D01*
X0082650Y0123568D02*
X0085634Y0123568D01*
X0085885Y0122570D02*
X0086632Y0122570D01*
X0087016Y0121571D02*
X0089013Y0121571D01*
X0088538Y0120573D02*
X0087492Y0120573D01*
X0087668Y0119574D02*
X0088361Y0119574D01*
X0088420Y0118576D02*
X0087609Y0118576D01*
X0087196Y0117577D02*
X0088834Y0117577D01*
X0080960Y0117577D02*
X0079322Y0117577D01*
X0079735Y0118576D02*
X0080546Y0118576D01*
X0080487Y0119574D02*
X0079794Y0119574D01*
X0079618Y0120573D02*
X0080664Y0120573D01*
X0081139Y0121571D02*
X0079142Y0121571D01*
X0081651Y0122570D02*
X0082270Y0122570D01*
X0075634Y0123568D02*
X0072650Y0123568D01*
X0072988Y0124567D02*
X0075295Y0124567D01*
X0075295Y0125565D02*
X0072988Y0125565D01*
X0072988Y0126564D02*
X0075295Y0126564D01*
X0075764Y0127562D02*
X0072519Y0127562D01*
X0071520Y0128561D02*
X0076763Y0128561D01*
X0066763Y0128561D02*
X0061520Y0128561D01*
X0060735Y0129346D02*
X0057548Y0129346D01*
X0055295Y0127093D01*
X0055295Y0123907D01*
X0057548Y0121654D01*
X0057599Y0121654D01*
X0057412Y0121466D01*
X0056865Y0120146D01*
X0056865Y0118718D01*
X0057412Y0117398D01*
X0058422Y0116388D01*
X0059741Y0115842D01*
X0061170Y0115842D01*
X0062490Y0116388D01*
X0063500Y0117398D01*
X0064046Y0118718D01*
X0064046Y0120146D01*
X0063500Y0121466D01*
X0062490Y0122476D01*
X0061830Y0122749D01*
X0062988Y0123907D01*
X0062988Y0127093D01*
X0060735Y0129346D01*
X0062519Y0127562D02*
X0065764Y0127562D01*
X0065295Y0126564D02*
X0062988Y0126564D01*
X0062988Y0125565D02*
X0065295Y0125565D01*
X0065295Y0124567D02*
X0062988Y0124567D01*
X0062650Y0123568D02*
X0065634Y0123568D01*
X0066522Y0122570D02*
X0062263Y0122570D01*
X0063394Y0121571D02*
X0065391Y0121571D01*
X0064916Y0120573D02*
X0063870Y0120573D01*
X0064046Y0119574D02*
X0064739Y0119574D01*
X0064798Y0118576D02*
X0063987Y0118576D01*
X0063574Y0117577D02*
X0065212Y0117577D01*
X0066105Y0116579D02*
X0062680Y0116579D01*
X0058231Y0116579D02*
X0054806Y0116579D01*
X0054616Y0116388D02*
X0055626Y0117398D01*
X0056172Y0118718D01*
X0056172Y0120146D01*
X0055626Y0121466D01*
X0054616Y0122476D01*
X0053296Y0123023D01*
X0051867Y0123023D01*
X0050548Y0122476D01*
X0049538Y0121466D01*
X0048991Y0120146D01*
X0048991Y0118718D01*
X0049538Y0117398D01*
X0050548Y0116388D01*
X0051867Y0115842D01*
X0053296Y0115842D01*
X0054616Y0116388D01*
X0055700Y0117577D02*
X0057338Y0117577D01*
X0056924Y0118576D02*
X0056113Y0118576D01*
X0056172Y0119574D02*
X0056865Y0119574D01*
X0057042Y0120573D02*
X0055996Y0120573D01*
X0055520Y0121571D02*
X0057517Y0121571D01*
X0056632Y0122570D02*
X0054389Y0122570D01*
X0055634Y0123568D02*
X0037693Y0123568D01*
X0038514Y0124567D02*
X0055295Y0124567D01*
X0055295Y0125565D02*
X0038994Y0125565D01*
X0039475Y0126564D02*
X0055295Y0126564D01*
X0055764Y0127562D02*
X0039956Y0127562D01*
X0040437Y0128561D02*
X0056763Y0128561D01*
X0050774Y0122570D02*
X0046515Y0122570D01*
X0046742Y0122476D02*
X0045422Y0123023D01*
X0043993Y0123023D01*
X0042674Y0122476D01*
X0041664Y0121466D01*
X0041117Y0120146D01*
X0041117Y0118718D01*
X0041664Y0117398D01*
X0042674Y0116388D01*
X0043993Y0115842D01*
X0045422Y0115842D01*
X0046742Y0116388D01*
X0047752Y0117398D01*
X0048298Y0118718D01*
X0048298Y0120146D01*
X0047752Y0121466D01*
X0046742Y0122476D01*
X0047646Y0121571D02*
X0049643Y0121571D01*
X0049168Y0120573D02*
X0048122Y0120573D01*
X0048298Y0119574D02*
X0048991Y0119574D01*
X0049050Y0118576D02*
X0048239Y0118576D01*
X0047826Y0117577D02*
X0049464Y0117577D01*
X0050357Y0116579D02*
X0046932Y0116579D01*
X0042483Y0116579D02*
X0039058Y0116579D01*
X0039952Y0117577D02*
X0041590Y0117577D01*
X0041176Y0118576D02*
X0040365Y0118576D01*
X0040424Y0119574D02*
X0041117Y0119574D01*
X0041294Y0120573D02*
X0040248Y0120573D01*
X0039772Y0121571D02*
X0041769Y0121571D01*
X0042900Y0122570D02*
X0038641Y0122570D01*
X0033243Y0119574D02*
X0033062Y0119574D01*
X0033302Y0118576D02*
X0031332Y0118576D01*
X0033716Y0117577D02*
X0027779Y0117577D01*
X0020997Y0117577D02*
X0010198Y0117577D01*
X0010198Y0116579D02*
X0034609Y0116579D01*
X0018453Y0118576D02*
X0010198Y0118576D01*
X0010198Y0119574D02*
X0016217Y0119574D01*
X0014965Y0120573D02*
X0010198Y0120573D01*
X0010198Y0121571D02*
X0013713Y0121571D01*
X0012557Y0122570D02*
X0010198Y0122570D01*
X0010198Y0123568D02*
X0011876Y0123568D01*
X0011195Y0124567D02*
X0010198Y0124567D01*
X0010198Y0125565D02*
X0010515Y0125565D01*
X0010198Y0115580D02*
X0069791Y0115580D01*
X0070789Y0114582D02*
X0010198Y0114582D01*
X0040654Y0129559D02*
X0253076Y0129559D01*
X0253076Y0128561D02*
X0191520Y0128561D01*
X0190735Y0129346D02*
X0187548Y0129346D01*
X0185295Y0127093D01*
X0185295Y0123907D01*
X0187548Y0121654D01*
X0190735Y0121654D01*
X0192988Y0123907D01*
X0192988Y0127093D01*
X0190735Y0129346D01*
X0192519Y0127562D02*
X0253076Y0127562D01*
X0253076Y0126564D02*
X0192988Y0126564D01*
X0192988Y0125565D02*
X0253076Y0125565D01*
X0253076Y0124567D02*
X0192988Y0124567D01*
X0192650Y0123568D02*
X0253076Y0123568D01*
X0253076Y0122570D02*
X0191651Y0122570D01*
X0186632Y0122570D02*
X0181651Y0122570D01*
X0180735Y0121654D02*
X0177548Y0121654D01*
X0175295Y0123907D01*
X0175295Y0127093D01*
X0177548Y0129346D01*
X0180735Y0129346D01*
X0182988Y0127093D01*
X0182988Y0123907D01*
X0180735Y0121654D01*
X0182650Y0123568D02*
X0185634Y0123568D01*
X0185295Y0124567D02*
X0182988Y0124567D01*
X0182988Y0125565D02*
X0185295Y0125565D01*
X0185295Y0126564D02*
X0182988Y0126564D01*
X0182519Y0127562D02*
X0185764Y0127562D01*
X0186763Y0128561D02*
X0181520Y0128561D01*
X0176763Y0128561D02*
X0171520Y0128561D01*
X0170735Y0129346D02*
X0167548Y0129346D01*
X0165295Y0127093D01*
X0165295Y0123907D01*
X0167548Y0121654D01*
X0170735Y0121654D01*
X0172988Y0123907D01*
X0172988Y0127093D01*
X0170735Y0129346D01*
X0172519Y0127562D02*
X0175764Y0127562D01*
X0175295Y0126564D02*
X0172988Y0126564D01*
X0172988Y0125565D02*
X0175295Y0125565D01*
X0175295Y0124567D02*
X0172988Y0124567D01*
X0172650Y0123568D02*
X0175634Y0123568D01*
X0176632Y0122570D02*
X0171651Y0122570D01*
X0166632Y0122570D02*
X0161651Y0122570D01*
X0160735Y0121654D02*
X0162988Y0123907D01*
X0162988Y0127093D01*
X0160735Y0129346D01*
X0157548Y0129346D01*
X0155295Y0127093D01*
X0155295Y0123907D01*
X0157548Y0121654D01*
X0160735Y0121654D01*
X0162650Y0123568D02*
X0165634Y0123568D01*
X0165295Y0124567D02*
X0162988Y0124567D01*
X0162988Y0125565D02*
X0165295Y0125565D01*
X0165295Y0126564D02*
X0162988Y0126564D01*
X0162519Y0127562D02*
X0165764Y0127562D01*
X0166763Y0128561D02*
X0161520Y0128561D01*
X0156763Y0128561D02*
X0151520Y0128561D01*
X0150735Y0129346D02*
X0152988Y0127093D01*
X0152988Y0123907D01*
X0150735Y0121654D01*
X0147548Y0121654D01*
X0145295Y0123907D01*
X0145295Y0127093D01*
X0147548Y0129346D01*
X0150735Y0129346D01*
X0152519Y0127562D02*
X0155764Y0127562D01*
X0155295Y0126564D02*
X0152988Y0126564D01*
X0152988Y0125565D02*
X0155295Y0125565D01*
X0155295Y0124567D02*
X0152988Y0124567D01*
X0152650Y0123568D02*
X0155634Y0123568D01*
X0156632Y0122570D02*
X0151651Y0122570D01*
X0146632Y0122570D02*
X0141651Y0122570D01*
X0140735Y0121654D02*
X0142988Y0123907D01*
X0142988Y0127093D01*
X0140735Y0129346D01*
X0137548Y0129346D01*
X0135295Y0127093D01*
X0135295Y0123907D01*
X0137548Y0121654D01*
X0140735Y0121654D01*
X0142650Y0123568D02*
X0145634Y0123568D01*
X0145295Y0124567D02*
X0142988Y0124567D01*
X0142988Y0125565D02*
X0145295Y0125565D01*
X0145295Y0126564D02*
X0142988Y0126564D01*
X0142519Y0127562D02*
X0145764Y0127562D01*
X0146763Y0128561D02*
X0141520Y0128561D01*
X0136763Y0128561D02*
X0131520Y0128561D01*
X0130735Y0129346D02*
X0132988Y0127093D01*
X0132988Y0123907D01*
X0130735Y0121654D01*
X0127548Y0121654D01*
X0125295Y0123907D01*
X0125295Y0127093D01*
X0127548Y0129346D01*
X0130735Y0129346D01*
X0132519Y0127562D02*
X0135764Y0127562D01*
X0135295Y0126564D02*
X0132988Y0126564D01*
X0132988Y0125565D02*
X0135295Y0125565D01*
X0135295Y0124567D02*
X0132988Y0124567D01*
X0132650Y0123568D02*
X0135634Y0123568D01*
X0136632Y0122570D02*
X0131651Y0122570D01*
X0126632Y0122570D02*
X0121651Y0122570D01*
X0120735Y0121654D02*
X0122988Y0123907D01*
X0122988Y0127093D01*
X0120735Y0129346D01*
X0117548Y0129346D01*
X0115295Y0127093D01*
X0115295Y0123907D01*
X0117548Y0121654D01*
X0120735Y0121654D01*
X0122650Y0123568D02*
X0125634Y0123568D01*
X0125295Y0124567D02*
X0122988Y0124567D01*
X0122988Y0125565D02*
X0125295Y0125565D01*
X0125295Y0126564D02*
X0122988Y0126564D01*
X0122519Y0127562D02*
X0125764Y0127562D01*
X0126763Y0128561D02*
X0121520Y0128561D01*
X0116763Y0128561D02*
X0111520Y0128561D01*
X0110735Y0129346D02*
X0107548Y0129346D01*
X0105295Y0127093D01*
X0105295Y0123907D01*
X0106416Y0122786D01*
X0105666Y0122476D01*
X0104656Y0121466D01*
X0104109Y0120146D01*
X0104109Y0118718D01*
X0104656Y0117398D01*
X0105666Y0116388D01*
X0106986Y0115842D01*
X0108414Y0115842D01*
X0109734Y0116388D01*
X0110744Y0117398D01*
X0111290Y0118718D01*
X0111290Y0120146D01*
X0110744Y0121466D01*
X0110556Y0121654D01*
X0110735Y0121654D01*
X0112988Y0123907D01*
X0112988Y0127093D01*
X0110735Y0129346D01*
X0112519Y0127562D02*
X0115764Y0127562D01*
X0115295Y0126564D02*
X0112988Y0126564D01*
X0112988Y0125565D02*
X0115295Y0125565D01*
X0115295Y0124567D02*
X0112988Y0124567D01*
X0112650Y0123568D02*
X0115634Y0123568D01*
X0116632Y0122570D02*
X0111651Y0122570D01*
X0110638Y0121571D02*
X0228791Y0121571D01*
X0229426Y0122206D02*
X0228061Y0120841D01*
X0228061Y0118909D01*
X0228701Y0118269D01*
X0228701Y0116675D01*
X0229951Y0115425D01*
X0229951Y0087731D01*
X0229311Y0087091D01*
X0229311Y0085159D01*
X0230676Y0083794D01*
X0232451Y0083794D01*
X0232451Y0082731D01*
X0231811Y0082091D01*
X0231811Y0080159D01*
X0233176Y0078794D01*
X0234951Y0078794D01*
X0234951Y0077731D01*
X0234311Y0077091D01*
X0234311Y0075159D01*
X0235676Y0073794D01*
X0237607Y0073794D01*
X0238973Y0075159D01*
X0238973Y0077091D01*
X0238332Y0077731D01*
X0238332Y0118269D01*
X0238973Y0118909D01*
X0238973Y0120841D01*
X0237607Y0122206D01*
X0235676Y0122206D01*
X0235079Y0121609D01*
X0234482Y0122206D01*
X0232551Y0122206D01*
X0231954Y0121609D01*
X0231357Y0122206D01*
X0229426Y0122206D01*
X0228061Y0120573D02*
X0111114Y0120573D01*
X0111290Y0119574D02*
X0228061Y0119574D01*
X0228394Y0118576D02*
X0111231Y0118576D01*
X0110818Y0117577D02*
X0228701Y0117577D01*
X0228797Y0116579D02*
X0109924Y0116579D01*
X0105475Y0116579D02*
X0102050Y0116579D01*
X0101516Y0115580D02*
X0229796Y0115580D01*
X0229951Y0114582D02*
X0101516Y0114582D01*
X0101516Y0113583D02*
X0229951Y0113583D01*
X0229951Y0112585D02*
X0101516Y0112585D01*
X0101516Y0111586D02*
X0229951Y0111586D01*
X0229951Y0110588D02*
X0101516Y0110588D01*
X0101516Y0109589D02*
X0229951Y0109589D01*
X0229951Y0108591D02*
X0101516Y0108591D01*
X0101516Y0107592D02*
X0229951Y0107592D01*
X0229951Y0106594D02*
X0210481Y0106594D01*
X0210459Y0106603D02*
X0209075Y0106603D01*
X0207797Y0106073D01*
X0206818Y0105095D01*
X0206289Y0103817D01*
X0206289Y0102433D01*
X0206818Y0101155D01*
X0207797Y0100177D01*
X0209075Y0099647D01*
X0210459Y0099647D01*
X0211737Y0100177D01*
X0212715Y0101155D01*
X0213245Y0102433D01*
X0213245Y0103817D01*
X0212715Y0105095D01*
X0211737Y0106073D01*
X0210459Y0106603D01*
X0209053Y0106594D02*
X0101516Y0106594D01*
X0101516Y0105595D02*
X0207318Y0105595D01*
X0206612Y0104597D02*
X0101516Y0104597D01*
X0101516Y0103598D02*
X0206289Y0103598D01*
X0206289Y0102600D02*
X0101516Y0102600D01*
X0101516Y0101601D02*
X0206633Y0101601D01*
X0207371Y0100603D02*
X0101516Y0100603D01*
X0101516Y0099604D02*
X0229951Y0099604D01*
X0229951Y0098606D02*
X0101516Y0098606D01*
X0101516Y0097607D02*
X0229951Y0097607D01*
X0229951Y0096609D02*
X0101516Y0096609D01*
X0101516Y0095610D02*
X0229951Y0095610D01*
X0229951Y0094612D02*
X0101516Y0094612D01*
X0101516Y0093613D02*
X0229951Y0093613D01*
X0229951Y0092615D02*
X0101516Y0092615D01*
X0101666Y0091616D02*
X0229951Y0091616D01*
X0229951Y0090618D02*
X0102665Y0090618D01*
X0103664Y0089619D02*
X0229951Y0089619D01*
X0229951Y0088620D02*
X0104662Y0088620D01*
X0105661Y0087622D02*
X0229842Y0087622D01*
X0229311Y0086623D02*
X0212187Y0086623D01*
X0211737Y0087073D02*
X0212715Y0086095D01*
X0213245Y0084817D01*
X0213245Y0083433D01*
X0212715Y0082155D01*
X0211737Y0081177D01*
X0210459Y0080647D01*
X0209075Y0080647D01*
X0207797Y0081177D01*
X0206818Y0082155D01*
X0206289Y0083433D01*
X0206289Y0084817D01*
X0206818Y0086095D01*
X0207797Y0087073D01*
X0209075Y0087603D01*
X0210459Y0087603D01*
X0211737Y0087073D01*
X0212910Y0085625D02*
X0229311Y0085625D01*
X0229844Y0084626D02*
X0213245Y0084626D01*
X0213245Y0083628D02*
X0232451Y0083628D01*
X0232349Y0082629D02*
X0212912Y0082629D01*
X0212191Y0081631D02*
X0231811Y0081631D01*
X0231811Y0080632D02*
X0183275Y0080632D01*
X0184274Y0079634D02*
X0232336Y0079634D01*
X0234951Y0078635D02*
X0185272Y0078635D01*
X0186271Y0077637D02*
X0234857Y0077637D01*
X0234311Y0076638D02*
X0187269Y0076638D01*
X0188268Y0075640D02*
X0234311Y0075640D01*
X0234829Y0074641D02*
X0189266Y0074641D01*
X0190265Y0073643D02*
X0317382Y0073643D01*
X0317382Y0074641D02*
X0238455Y0074641D01*
X0238973Y0075640D02*
X0317382Y0075640D01*
X0317382Y0076638D02*
X0238973Y0076638D01*
X0238427Y0077637D02*
X0317382Y0077637D01*
X0317382Y0078635D02*
X0238332Y0078635D01*
X0238332Y0079634D02*
X0317382Y0079634D01*
X0317382Y0080632D02*
X0238332Y0080632D01*
X0238332Y0081631D02*
X0297036Y0081631D01*
X0296887Y0081692D02*
X0298229Y0081137D01*
X0299681Y0081137D01*
X0301022Y0081692D01*
X0302049Y0082719D01*
X0302604Y0084060D01*
X0302604Y0085512D01*
X0302049Y0086854D01*
X0301022Y0087880D01*
X0299681Y0088436D01*
X0298229Y0088436D01*
X0296887Y0087880D01*
X0295861Y0086854D01*
X0295305Y0085512D01*
X0295305Y0084060D01*
X0295861Y0082719D01*
X0296887Y0081692D01*
X0295950Y0082629D02*
X0238332Y0082629D01*
X0238332Y0083628D02*
X0295484Y0083628D01*
X0295305Y0084626D02*
X0238332Y0084626D01*
X0238332Y0085625D02*
X0295352Y0085625D01*
X0295765Y0086623D02*
X0238332Y0086623D01*
X0238332Y0087622D02*
X0296629Y0087622D01*
X0301280Y0087622D02*
X0317382Y0087622D01*
X0317382Y0088620D02*
X0256184Y0088620D01*
X0257098Y0089619D02*
X0317382Y0089619D01*
X0317382Y0090618D02*
X0257098Y0090618D01*
X0256947Y0091616D02*
X0317382Y0091616D01*
X0317382Y0092615D02*
X0256457Y0092615D01*
X0256457Y0093613D02*
X0317382Y0093613D01*
X0317382Y0094612D02*
X0256457Y0094612D01*
X0256457Y0095610D02*
X0317382Y0095610D01*
X0317382Y0096609D02*
X0256457Y0096609D01*
X0256457Y0097607D02*
X0317382Y0097607D01*
X0317382Y0098606D02*
X0256457Y0098606D01*
X0256457Y0099604D02*
X0317382Y0099604D01*
X0317382Y0100603D02*
X0256457Y0100603D01*
X0256457Y0101601D02*
X0317382Y0101601D01*
X0317382Y0102600D02*
X0256457Y0102600D01*
X0256457Y0103598D02*
X0317382Y0103598D01*
X0317382Y0104597D02*
X0256457Y0104597D01*
X0256457Y0105595D02*
X0317382Y0105595D01*
X0317382Y0106594D02*
X0256457Y0106594D01*
X0256457Y0107592D02*
X0317382Y0107592D01*
X0317382Y0108591D02*
X0256457Y0108591D01*
X0256457Y0109589D02*
X0317382Y0109589D01*
X0317382Y0110588D02*
X0256457Y0110588D01*
X0256457Y0111586D02*
X0317382Y0111586D01*
X0317382Y0112585D02*
X0256457Y0112585D01*
X0256457Y0113583D02*
X0317382Y0113583D01*
X0317382Y0114582D02*
X0256457Y0114582D01*
X0256457Y0115580D02*
X0317382Y0115580D01*
X0317382Y0116579D02*
X0303643Y0116579D01*
X0303064Y0116579D02*
X0256457Y0116579D01*
X0256457Y0117577D02*
X0296904Y0117577D01*
X0294360Y0118576D02*
X0256457Y0118576D01*
X0256457Y0119574D02*
X0292934Y0119574D01*
X0291682Y0120573D02*
X0256457Y0120573D01*
X0256457Y0121571D02*
X0290429Y0121571D01*
X0289631Y0122570D02*
X0256457Y0122570D01*
X0256457Y0123568D02*
X0288950Y0123568D01*
X0288269Y0124567D02*
X0256457Y0124567D01*
X0256457Y0125565D02*
X0287589Y0125565D01*
X0287178Y0126564D02*
X0256457Y0126564D01*
X0256457Y0127562D02*
X0286870Y0127562D01*
X0286562Y0128561D02*
X0256457Y0128561D01*
X0256457Y0129559D02*
X0286254Y0129559D01*
X0285951Y0130558D02*
X0256457Y0130558D01*
X0256457Y0131556D02*
X0285951Y0131556D01*
X0285951Y0132555D02*
X0256457Y0132555D01*
X0256457Y0133553D02*
X0285951Y0133553D01*
X0285951Y0134552D02*
X0256457Y0134552D01*
X0256457Y0135551D02*
X0285979Y0135551D01*
X0286287Y0136549D02*
X0256457Y0136549D01*
X0256457Y0137548D02*
X0286595Y0137548D01*
X0286903Y0138546D02*
X0256457Y0138546D01*
X0256457Y0139545D02*
X0287211Y0139545D01*
X0287663Y0140543D02*
X0256457Y0140543D01*
X0256457Y0141542D02*
X0288343Y0141542D01*
X0289024Y0142540D02*
X0256457Y0142540D01*
X0256457Y0143539D02*
X0289705Y0143539D01*
X0290565Y0144537D02*
X0256476Y0144537D01*
X0257098Y0145536D02*
X0291818Y0145536D01*
X0293070Y0146534D02*
X0257098Y0146534D01*
X0256656Y0147533D02*
X0294637Y0147533D01*
X0253058Y0144537D02*
X0036899Y0144537D01*
X0037825Y0143539D02*
X0253076Y0143539D01*
X0253076Y0142540D02*
X0038583Y0142540D01*
X0039063Y0141542D02*
X0253076Y0141542D01*
X0253076Y0140543D02*
X0039544Y0140543D01*
X0040025Y0139545D02*
X0253076Y0139545D01*
X0253076Y0138546D02*
X0040506Y0138546D01*
X0040676Y0137548D02*
X0253076Y0137548D01*
X0253076Y0136549D02*
X0040826Y0136549D01*
X0040977Y0135551D02*
X0253076Y0135551D01*
X0253076Y0134552D02*
X0041127Y0134552D01*
X0041256Y0133553D02*
X0253076Y0133553D01*
X0253076Y0132555D02*
X0041105Y0132555D01*
X0040955Y0131556D02*
X0253076Y0131556D01*
X0253076Y0130558D02*
X0040804Y0130558D01*
X0071268Y0121571D02*
X0073265Y0121571D01*
X0072790Y0120573D02*
X0071744Y0120573D01*
X0071920Y0119574D02*
X0072613Y0119574D01*
X0072672Y0118576D02*
X0071861Y0118576D01*
X0072575Y0117577D02*
X0073086Y0117577D01*
X0074396Y0122570D02*
X0071651Y0122570D01*
X0101651Y0122570D02*
X0105893Y0122570D01*
X0105634Y0123568D02*
X0102650Y0123568D01*
X0102988Y0124567D02*
X0105295Y0124567D01*
X0105295Y0125565D02*
X0102988Y0125565D01*
X0102988Y0126564D02*
X0105295Y0126564D01*
X0105764Y0127562D02*
X0102519Y0127562D01*
X0101520Y0128561D02*
X0106763Y0128561D01*
X0104761Y0121571D02*
X0102764Y0121571D01*
X0103240Y0120573D02*
X0104286Y0120573D01*
X0104109Y0119574D02*
X0103416Y0119574D01*
X0103357Y0118576D02*
X0104168Y0118576D01*
X0104582Y0117577D02*
X0102944Y0117577D01*
X0106659Y0086623D02*
X0207347Y0086623D01*
X0206624Y0085625D02*
X0178283Y0085625D01*
X0179281Y0084626D02*
X0206289Y0084626D01*
X0206289Y0083628D02*
X0180280Y0083628D01*
X0181278Y0082629D02*
X0206622Y0082629D01*
X0207342Y0081631D02*
X0182277Y0081631D01*
X0177366Y0078635D02*
X0174647Y0078635D01*
X0175646Y0077637D02*
X0178364Y0077637D01*
X0179363Y0076638D02*
X0176644Y0076638D01*
X0177643Y0075640D02*
X0180361Y0075640D01*
X0181360Y0074641D02*
X0178641Y0074641D01*
X0179640Y0073643D02*
X0182358Y0073643D01*
X0183357Y0072644D02*
X0180638Y0072644D01*
X0181637Y0071646D02*
X0184355Y0071646D01*
X0185354Y0070647D02*
X0182635Y0070647D01*
X0183634Y0069649D02*
X0186352Y0069649D01*
X0187351Y0068650D02*
X0184632Y0068650D01*
X0185631Y0067652D02*
X0188349Y0067652D01*
X0189348Y0066653D02*
X0186629Y0066653D01*
X0187628Y0065655D02*
X0190346Y0065655D01*
X0191345Y0064656D02*
X0188626Y0064656D01*
X0189625Y0063658D02*
X0317382Y0063658D01*
X0317382Y0064656D02*
X0301309Y0064656D01*
X0301022Y0064370D02*
X0302049Y0065396D01*
X0302604Y0066738D01*
X0302604Y0068190D01*
X0302049Y0069531D01*
X0301022Y0070558D01*
X0299681Y0071113D01*
X0298229Y0071113D01*
X0296887Y0070558D01*
X0295861Y0069531D01*
X0295305Y0068190D01*
X0295305Y0066738D01*
X0295861Y0065396D01*
X0296887Y0064370D01*
X0298229Y0063814D01*
X0299681Y0063814D01*
X0301022Y0064370D01*
X0302156Y0065655D02*
X0317382Y0065655D01*
X0317382Y0066653D02*
X0302569Y0066653D01*
X0302604Y0067652D02*
X0317382Y0067652D01*
X0317382Y0068650D02*
X0302413Y0068650D01*
X0301931Y0069649D02*
X0317382Y0069649D01*
X0317382Y0070647D02*
X0300805Y0070647D01*
X0297104Y0070647D02*
X0272916Y0070647D01*
X0273915Y0069649D02*
X0295979Y0069649D01*
X0295496Y0068650D02*
X0273973Y0068650D01*
X0273965Y0067652D02*
X0295305Y0067652D01*
X0295340Y0066653D02*
X0272967Y0066653D01*
X0270317Y0066653D02*
X0260223Y0066653D01*
X0260223Y0065655D02*
X0295754Y0065655D01*
X0296601Y0064656D02*
X0259720Y0064656D01*
X0259654Y0062659D02*
X0317382Y0062659D01*
X0317382Y0061661D02*
X0260223Y0061661D01*
X0260223Y0060662D02*
X0317382Y0060662D01*
X0317382Y0059664D02*
X0259727Y0059664D01*
X0270367Y0070647D02*
X0193260Y0070647D01*
X0192262Y0071646D02*
X0317382Y0071646D01*
X0317382Y0072644D02*
X0191263Y0072644D01*
X0176367Y0079634D02*
X0173649Y0079634D01*
X0175369Y0080632D02*
X0169806Y0080632D01*
X0212163Y0100603D02*
X0229951Y0100603D01*
X0229951Y0101601D02*
X0212900Y0101601D01*
X0213245Y0102600D02*
X0229951Y0102600D01*
X0229951Y0103598D02*
X0213245Y0103598D01*
X0212922Y0104597D02*
X0229951Y0104597D01*
X0229951Y0105595D02*
X0212215Y0105595D01*
X0238332Y0105595D02*
X0253076Y0105595D01*
X0253076Y0104597D02*
X0238332Y0104597D01*
X0238332Y0103598D02*
X0253076Y0103598D01*
X0253076Y0102600D02*
X0238332Y0102600D01*
X0238332Y0101601D02*
X0253076Y0101601D01*
X0253076Y0100603D02*
X0238332Y0100603D01*
X0238332Y0099604D02*
X0253076Y0099604D01*
X0253076Y0098606D02*
X0238332Y0098606D01*
X0238332Y0097607D02*
X0253076Y0097607D01*
X0253076Y0096609D02*
X0238332Y0096609D01*
X0238332Y0095610D02*
X0253076Y0095610D01*
X0253076Y0094612D02*
X0238332Y0094612D01*
X0238332Y0093613D02*
X0253076Y0093613D01*
X0253076Y0092615D02*
X0238332Y0092615D01*
X0238332Y0091616D02*
X0252586Y0091616D01*
X0252436Y0090618D02*
X0238332Y0090618D01*
X0238332Y0089619D02*
X0252436Y0089619D01*
X0253350Y0088620D02*
X0238332Y0088620D01*
X0238332Y0106594D02*
X0253076Y0106594D01*
X0253076Y0107592D02*
X0238332Y0107592D01*
X0238332Y0108591D02*
X0253076Y0108591D01*
X0253076Y0109589D02*
X0238332Y0109589D01*
X0238332Y0110588D02*
X0253076Y0110588D01*
X0253076Y0111586D02*
X0238332Y0111586D01*
X0238332Y0112585D02*
X0253076Y0112585D01*
X0253076Y0113583D02*
X0238332Y0113583D01*
X0238332Y0114582D02*
X0253076Y0114582D01*
X0253076Y0115580D02*
X0238332Y0115580D01*
X0238332Y0116579D02*
X0253076Y0116579D01*
X0253076Y0117577D02*
X0238332Y0117577D01*
X0238639Y0118576D02*
X0253076Y0118576D01*
X0253076Y0119574D02*
X0238973Y0119574D01*
X0238973Y0120573D02*
X0253076Y0120573D01*
X0253076Y0121571D02*
X0238242Y0121571D01*
X0252436Y0145536D02*
X0035973Y0145536D01*
X0035039Y0146534D02*
X0252436Y0146534D01*
X0252878Y0147533D02*
X0033309Y0147533D01*
X0067548Y0049346D02*
X0065295Y0047093D01*
X0065295Y0043907D01*
X0067548Y0041654D01*
X0070735Y0041654D01*
X0072988Y0043907D01*
X0072988Y0047093D01*
X0070735Y0049346D01*
X0067548Y0049346D01*
X0066882Y0048680D02*
X0061401Y0048680D01*
X0062400Y0047682D02*
X0065884Y0047682D01*
X0065295Y0046683D02*
X0062988Y0046683D01*
X0062988Y0045684D02*
X0065295Y0045684D01*
X0065295Y0044686D02*
X0062988Y0044686D01*
X0062769Y0043687D02*
X0065515Y0043687D01*
X0066513Y0042689D02*
X0061770Y0042689D01*
X0060772Y0041690D02*
X0067512Y0041690D01*
X0070772Y0041690D02*
X0077512Y0041690D01*
X0077548Y0041654D02*
X0080735Y0041654D01*
X0082988Y0043907D01*
X0082988Y0047093D01*
X0080735Y0049346D01*
X0077548Y0049346D01*
X0075295Y0047093D01*
X0075295Y0043907D01*
X0077548Y0041654D01*
X0076513Y0042689D02*
X0071770Y0042689D01*
X0072769Y0043687D02*
X0075515Y0043687D01*
X0075295Y0044686D02*
X0072988Y0044686D01*
X0072988Y0045684D02*
X0075295Y0045684D01*
X0075295Y0046683D02*
X0072988Y0046683D01*
X0072400Y0047682D02*
X0075884Y0047682D01*
X0076882Y0048680D02*
X0071401Y0048680D01*
X0081401Y0048680D02*
X0086882Y0048680D01*
X0087548Y0049346D02*
X0085295Y0047093D01*
X0085295Y0043907D01*
X0087548Y0041654D01*
X0090735Y0041654D01*
X0092988Y0043907D01*
X0092988Y0047093D01*
X0090735Y0049346D01*
X0087548Y0049346D01*
X0085884Y0047682D02*
X0082400Y0047682D01*
X0082988Y0046683D02*
X0085295Y0046683D01*
X0085295Y0045684D02*
X0082988Y0045684D01*
X0082988Y0044686D02*
X0085295Y0044686D01*
X0085515Y0043687D02*
X0082769Y0043687D01*
X0081770Y0042689D02*
X0086513Y0042689D01*
X0087512Y0041690D02*
X0080772Y0041690D01*
X0090772Y0041690D02*
X0097512Y0041690D01*
X0097548Y0041654D02*
X0100735Y0041654D01*
X0102988Y0043907D01*
X0102988Y0047093D01*
X0100735Y0049346D01*
X0097548Y0049346D01*
X0095295Y0047093D01*
X0095295Y0043907D01*
X0097548Y0041654D01*
X0096513Y0042689D02*
X0091770Y0042689D01*
X0092769Y0043687D02*
X0095515Y0043687D01*
X0095295Y0044686D02*
X0092988Y0044686D01*
X0092988Y0045684D02*
X0095295Y0045684D01*
X0095295Y0046683D02*
X0092988Y0046683D01*
X0092400Y0047682D02*
X0095884Y0047682D01*
X0096882Y0048680D02*
X0091401Y0048680D01*
X0101401Y0048680D02*
X0106882Y0048680D01*
X0107548Y0049346D02*
X0105295Y0047093D01*
X0105295Y0043907D01*
X0107548Y0041654D01*
X0110735Y0041654D01*
X0112988Y0043907D01*
X0112988Y0047093D01*
X0110735Y0049346D01*
X0107548Y0049346D01*
X0105884Y0047682D02*
X0102400Y0047682D01*
X0102988Y0046683D02*
X0105295Y0046683D01*
X0105295Y0045684D02*
X0102988Y0045684D01*
X0102988Y0044686D02*
X0105295Y0044686D01*
X0105515Y0043687D02*
X0102769Y0043687D01*
X0101770Y0042689D02*
X0106513Y0042689D01*
X0107512Y0041690D02*
X0100772Y0041690D01*
X0110772Y0041690D02*
X0117512Y0041690D01*
X0117548Y0041654D02*
X0120735Y0041654D01*
X0122988Y0043907D01*
X0122988Y0047093D01*
X0120735Y0049346D01*
X0117548Y0049346D01*
X0115295Y0047093D01*
X0115295Y0043907D01*
X0117548Y0041654D01*
X0116513Y0042689D02*
X0111770Y0042689D01*
X0112769Y0043687D02*
X0115515Y0043687D01*
X0115295Y0044686D02*
X0112988Y0044686D01*
X0112988Y0045684D02*
X0115295Y0045684D01*
X0115295Y0046683D02*
X0112988Y0046683D01*
X0112400Y0047682D02*
X0115884Y0047682D01*
X0116882Y0048680D02*
X0111401Y0048680D01*
X0121401Y0048680D02*
X0126882Y0048680D01*
X0127548Y0049346D02*
X0125295Y0047093D01*
X0125295Y0043907D01*
X0127548Y0041654D01*
X0130735Y0041654D01*
X0132988Y0043907D01*
X0132988Y0047093D01*
X0130735Y0049346D01*
X0127548Y0049346D01*
X0125884Y0047682D02*
X0122400Y0047682D01*
X0122988Y0046683D02*
X0125295Y0046683D01*
X0125295Y0045684D02*
X0122988Y0045684D01*
X0122988Y0044686D02*
X0125295Y0044686D01*
X0125515Y0043687D02*
X0122769Y0043687D01*
X0121770Y0042689D02*
X0126513Y0042689D01*
X0127512Y0041690D02*
X0120772Y0041690D01*
X0130772Y0041690D02*
X0137512Y0041690D01*
X0137548Y0041654D02*
X0140735Y0041654D01*
X0142988Y0043907D01*
X0142988Y0047093D01*
X0140735Y0049346D01*
X0137548Y0049346D01*
X0135295Y0047093D01*
X0135295Y0043907D01*
X0137548Y0041654D01*
X0136513Y0042689D02*
X0131770Y0042689D01*
X0132769Y0043687D02*
X0135515Y0043687D01*
X0135295Y0044686D02*
X0132988Y0044686D01*
X0132988Y0045684D02*
X0135295Y0045684D01*
X0135295Y0046683D02*
X0132988Y0046683D01*
X0132400Y0047682D02*
X0135884Y0047682D01*
X0136882Y0048680D02*
X0131401Y0048680D01*
X0141401Y0048680D02*
X0146882Y0048680D01*
X0147548Y0049346D02*
X0145295Y0047093D01*
X0145295Y0043907D01*
X0147548Y0041654D01*
X0150735Y0041654D01*
X0152988Y0043907D01*
X0152988Y0047093D01*
X0150735Y0049346D01*
X0147548Y0049346D01*
X0145884Y0047682D02*
X0142400Y0047682D01*
X0142988Y0046683D02*
X0145295Y0046683D01*
X0145295Y0045684D02*
X0142988Y0045684D01*
X0142988Y0044686D02*
X0145295Y0044686D01*
X0145515Y0043687D02*
X0142769Y0043687D01*
X0141770Y0042689D02*
X0146513Y0042689D01*
X0147512Y0041690D02*
X0140772Y0041690D01*
X0150772Y0041690D02*
X0157512Y0041690D01*
X0157548Y0041654D02*
X0160735Y0041654D01*
X0162988Y0043907D01*
X0162988Y0047093D01*
X0160735Y0049346D01*
X0157548Y0049346D01*
X0155295Y0047093D01*
X0155295Y0043907D01*
X0157548Y0041654D01*
X0156513Y0042689D02*
X0151770Y0042689D01*
X0152769Y0043687D02*
X0155515Y0043687D01*
X0155295Y0044686D02*
X0152988Y0044686D01*
X0152988Y0045684D02*
X0155295Y0045684D01*
X0155295Y0046683D02*
X0152988Y0046683D01*
X0152400Y0047682D02*
X0155884Y0047682D01*
X0156882Y0048680D02*
X0151401Y0048680D01*
X0161401Y0048680D02*
X0166882Y0048680D01*
X0167548Y0049346D02*
X0165295Y0047093D01*
X0165295Y0043907D01*
X0167548Y0041654D01*
X0170735Y0041654D01*
X0172988Y0043907D01*
X0172988Y0047093D01*
X0170735Y0049346D01*
X0167548Y0049346D01*
X0165884Y0047682D02*
X0162400Y0047682D01*
X0162988Y0046683D02*
X0165295Y0046683D01*
X0165295Y0045684D02*
X0162988Y0045684D01*
X0162988Y0044686D02*
X0165295Y0044686D01*
X0165515Y0043687D02*
X0162769Y0043687D01*
X0161770Y0042689D02*
X0166513Y0042689D01*
X0167512Y0041690D02*
X0160772Y0041690D01*
X0170772Y0041690D02*
X0177233Y0041690D01*
X0177467Y0041457D02*
X0175098Y0043825D01*
X0175098Y0045016D01*
X0178657Y0045016D01*
X0178657Y0045984D01*
X0175098Y0045984D01*
X0175098Y0047175D01*
X0177467Y0049543D01*
X0178657Y0049543D01*
X0178657Y0045984D01*
X0179626Y0045984D01*
X0183185Y0045984D01*
X0183185Y0047175D01*
X0180817Y0049543D01*
X0179626Y0049543D01*
X0179626Y0045984D01*
X0179626Y0045016D01*
X0183185Y0045016D01*
X0183185Y0043825D01*
X0180817Y0041457D01*
X0179626Y0041457D01*
X0179626Y0045016D01*
X0178657Y0045016D01*
X0178657Y0041457D01*
X0177467Y0041457D01*
X0178657Y0041690D02*
X0179626Y0041690D01*
X0179626Y0042689D02*
X0178657Y0042689D01*
X0178657Y0043687D02*
X0179626Y0043687D01*
X0179626Y0044686D02*
X0178657Y0044686D01*
X0178657Y0045684D02*
X0172988Y0045684D01*
X0172988Y0044686D02*
X0175098Y0044686D01*
X0175236Y0043687D02*
X0172769Y0043687D01*
X0171770Y0042689D02*
X0176235Y0042689D01*
X0179626Y0045684D02*
X0185295Y0045684D01*
X0185295Y0044686D02*
X0183185Y0044686D01*
X0183047Y0043687D02*
X0185515Y0043687D01*
X0186513Y0042689D02*
X0182049Y0042689D01*
X0181050Y0041690D02*
X0187512Y0041690D01*
X0185295Y0046683D02*
X0183185Y0046683D01*
X0182678Y0047682D02*
X0185884Y0047682D01*
X0186882Y0048680D02*
X0181680Y0048680D01*
X0179626Y0048680D02*
X0178657Y0048680D01*
X0178657Y0047682D02*
X0179626Y0047682D01*
X0179626Y0046683D02*
X0178657Y0046683D01*
X0176604Y0048680D02*
X0171401Y0048680D01*
X0172400Y0047682D02*
X0175605Y0047682D01*
X0175098Y0046683D02*
X0172988Y0046683D01*
X0191401Y0048680D02*
X0317382Y0048680D01*
X0317382Y0033702D02*
X0307417Y0033702D01*
X0310055Y0032704D02*
X0317382Y0032704D01*
X0317382Y0031705D02*
X0311785Y0031705D01*
X0313359Y0030707D02*
X0317382Y0030707D01*
X0317382Y0029708D02*
X0314285Y0029708D01*
X0315212Y0028710D02*
X0317382Y0028710D01*
X0317382Y0027711D02*
X0316138Y0027711D01*
X0316805Y0026713D02*
X0317382Y0026713D01*
X0317382Y0025714D02*
X0317286Y0025714D01*
X0294596Y0003747D02*
X0032711Y0003747D01*
X0010279Y0025714D02*
X0010198Y0025714D01*
X0010198Y0026713D02*
X0010960Y0026713D01*
X0011641Y0027711D02*
X0010198Y0027711D01*
X0010198Y0028710D02*
X0012322Y0028710D01*
X0013280Y0029708D02*
X0010198Y0029708D01*
X0010198Y0030707D02*
X0014532Y0030707D01*
X0015784Y0031705D02*
X0010198Y0031705D01*
X0010198Y0032704D02*
X0017573Y0032704D01*
X0020117Y0033702D02*
X0010198Y0033702D01*
X0010198Y0034701D02*
X0033727Y0034701D01*
X0033314Y0033702D02*
X0029292Y0033702D01*
X0031930Y0032704D02*
X0033243Y0032704D01*
X0034637Y0035699D02*
X0010198Y0035699D01*
X0010198Y0036698D02*
X0247830Y0036698D01*
X0248828Y0035699D02*
X0110175Y0035699D01*
X0110114Y0035760D02*
X0109494Y0036174D01*
X0108805Y0036460D01*
X0108073Y0036605D01*
X0107987Y0036605D01*
X0107987Y0033105D01*
X0111487Y0033105D01*
X0111487Y0033191D01*
X0111342Y0033923D01*
X0111056Y0034612D01*
X0110642Y0035232D01*
X0110114Y0035760D01*
X0110997Y0034701D02*
X0249827Y0034701D01*
X0250825Y0033702D02*
X0111385Y0033702D01*
X0111487Y0032530D02*
X0107987Y0032530D01*
X0107987Y0029031D01*
X0108073Y0029031D01*
X0108805Y0029176D01*
X0109494Y0029462D01*
X0110114Y0029876D01*
X0110642Y0030404D01*
X0111056Y0031024D01*
X0111342Y0031713D01*
X0111487Y0032445D01*
X0111487Y0032530D01*
X0111338Y0031705D02*
X0252188Y0031705D01*
X0251824Y0032704D02*
X0107987Y0032704D01*
X0107987Y0032530D02*
X0107987Y0033105D01*
X0107412Y0033105D01*
X0107412Y0032530D01*
X0107987Y0032530D01*
X0107412Y0032530D02*
X0107412Y0029031D01*
X0107327Y0029031D01*
X0106595Y0029176D01*
X0105906Y0029462D01*
X0105285Y0029876D01*
X0104758Y0030404D01*
X0104343Y0031024D01*
X0104058Y0031713D01*
X0103912Y0032445D01*
X0103912Y0032530D01*
X0107412Y0032530D01*
X0107412Y0032704D02*
X0103416Y0032704D01*
X0103416Y0032104D02*
X0102870Y0030784D01*
X0101860Y0029774D01*
X0100540Y0029227D01*
X0099112Y0029227D01*
X0097792Y0029774D01*
X0096782Y0030784D01*
X0096235Y0032104D01*
X0096235Y0033532D01*
X0096782Y0034852D01*
X0097792Y0035862D01*
X0099112Y0036408D01*
X0100540Y0036408D01*
X0101860Y0035862D01*
X0102870Y0034852D01*
X0103416Y0033532D01*
X0103416Y0032104D01*
X0103251Y0031705D02*
X0104061Y0031705D01*
X0104555Y0030707D02*
X0102793Y0030707D01*
X0101701Y0029708D02*
X0105536Y0029708D01*
X0107412Y0029708D02*
X0107987Y0029708D01*
X0107987Y0030707D02*
X0107412Y0030707D01*
X0107412Y0031705D02*
X0107987Y0031705D01*
X0107412Y0033105D02*
X0103912Y0033105D01*
X0103912Y0033191D01*
X0104058Y0033923D01*
X0104343Y0034612D01*
X0104758Y0035232D01*
X0105285Y0035760D01*
X0105906Y0036174D01*
X0106595Y0036460D01*
X0107327Y0036605D01*
X0107412Y0036605D01*
X0107412Y0033105D01*
X0107412Y0033702D02*
X0107987Y0033702D01*
X0107987Y0034701D02*
X0107412Y0034701D01*
X0107412Y0035699D02*
X0107987Y0035699D01*
X0105225Y0035699D02*
X0102022Y0035699D01*
X0102932Y0034701D02*
X0104403Y0034701D01*
X0104014Y0033702D02*
X0103346Y0033702D01*
X0097629Y0035699D02*
X0094148Y0035699D01*
X0093986Y0035862D02*
X0092666Y0036408D01*
X0091238Y0036408D01*
X0089918Y0035862D01*
X0088908Y0034852D01*
X0088361Y0033532D01*
X0088361Y0032104D01*
X0088908Y0030784D01*
X0089918Y0029774D01*
X0091238Y0029227D01*
X0092666Y0029227D01*
X0093986Y0029774D01*
X0094996Y0030784D01*
X0095542Y0032104D01*
X0095542Y0033532D01*
X0094996Y0034852D01*
X0093986Y0035862D01*
X0095058Y0034701D02*
X0096719Y0034701D01*
X0096306Y0033702D02*
X0095472Y0033702D01*
X0095542Y0032704D02*
X0096235Y0032704D01*
X0096400Y0031705D02*
X0095377Y0031705D01*
X0094918Y0030707D02*
X0096859Y0030707D01*
X0097950Y0029708D02*
X0093827Y0029708D01*
X0090076Y0029708D02*
X0085953Y0029708D01*
X0086112Y0029774D02*
X0087122Y0030784D01*
X0087668Y0032104D01*
X0087668Y0033532D01*
X0087122Y0034852D01*
X0086112Y0035862D01*
X0084792Y0036408D01*
X0083364Y0036408D01*
X0082044Y0035862D01*
X0081034Y0034852D01*
X0080487Y0033532D01*
X0080487Y0032104D01*
X0081034Y0030784D01*
X0082044Y0029774D01*
X0083364Y0029227D01*
X0084792Y0029227D01*
X0086112Y0029774D01*
X0087044Y0030707D02*
X0088985Y0030707D01*
X0088526Y0031705D02*
X0087503Y0031705D01*
X0087668Y0032704D02*
X0088361Y0032704D01*
X0088432Y0033702D02*
X0087598Y0033702D01*
X0087184Y0034701D02*
X0088845Y0034701D01*
X0089755Y0035699D02*
X0086274Y0035699D01*
X0081881Y0035699D02*
X0078400Y0035699D01*
X0078238Y0035862D02*
X0076918Y0036408D01*
X0075490Y0036408D01*
X0074170Y0035862D01*
X0073160Y0034852D01*
X0072613Y0033532D01*
X0072613Y0032104D01*
X0073160Y0030784D01*
X0074170Y0029774D01*
X0075490Y0029227D01*
X0076918Y0029227D01*
X0078238Y0029774D01*
X0079248Y0030784D01*
X0079794Y0032104D01*
X0079794Y0033532D01*
X0079248Y0034852D01*
X0078238Y0035862D01*
X0079310Y0034701D02*
X0080971Y0034701D01*
X0080558Y0033702D02*
X0079724Y0033702D01*
X0079794Y0032704D02*
X0080487Y0032704D01*
X0080652Y0031705D02*
X0079629Y0031705D01*
X0079170Y0030707D02*
X0081111Y0030707D01*
X0082202Y0029708D02*
X0078079Y0029708D01*
X0074328Y0029708D02*
X0070205Y0029708D01*
X0070364Y0029774D02*
X0071374Y0030784D01*
X0071920Y0032104D01*
X0071920Y0033532D01*
X0071374Y0034852D01*
X0070364Y0035862D01*
X0069044Y0036408D01*
X0067616Y0036408D01*
X0066296Y0035862D01*
X0065286Y0034852D01*
X0064739Y0033532D01*
X0064739Y0032104D01*
X0065286Y0030784D01*
X0066296Y0029774D01*
X0067616Y0029227D01*
X0069044Y0029227D01*
X0070364Y0029774D01*
X0071296Y0030707D02*
X0073237Y0030707D01*
X0072778Y0031705D02*
X0071755Y0031705D01*
X0071920Y0032704D02*
X0072613Y0032704D01*
X0072684Y0033702D02*
X0071850Y0033702D01*
X0071436Y0034701D02*
X0073097Y0034701D01*
X0074007Y0035699D02*
X0070526Y0035699D01*
X0066133Y0035699D02*
X0062652Y0035699D01*
X0062490Y0035862D02*
X0061170Y0036408D01*
X0059741Y0036408D01*
X0058422Y0035862D01*
X0057412Y0034852D01*
X0056865Y0033532D01*
X0056865Y0032104D01*
X0057412Y0030784D01*
X0058422Y0029774D01*
X0059741Y0029227D01*
X0061170Y0029227D01*
X0062490Y0029774D01*
X0063500Y0030784D01*
X0064046Y0032104D01*
X0064046Y0033532D01*
X0063500Y0034852D01*
X0062490Y0035862D01*
X0063562Y0034701D02*
X0065223Y0034701D01*
X0064810Y0033702D02*
X0063976Y0033702D01*
X0064046Y0032704D02*
X0064739Y0032704D01*
X0064904Y0031705D02*
X0063881Y0031705D01*
X0063422Y0030707D02*
X0065363Y0030707D01*
X0066454Y0029708D02*
X0062331Y0029708D01*
X0058580Y0029708D02*
X0054457Y0029708D01*
X0054616Y0029774D02*
X0055626Y0030784D01*
X0056172Y0032104D01*
X0056172Y0033532D01*
X0055626Y0034852D01*
X0054616Y0035862D01*
X0053296Y0036408D01*
X0051867Y0036408D01*
X0050548Y0035862D01*
X0049538Y0034852D01*
X0048991Y0033532D01*
X0048991Y0032104D01*
X0049538Y0030784D01*
X0050548Y0029774D01*
X0051867Y0029227D01*
X0053296Y0029227D01*
X0054616Y0029774D01*
X0055548Y0030707D02*
X0057489Y0030707D01*
X0057030Y0031705D02*
X0056007Y0031705D01*
X0056172Y0032704D02*
X0056865Y0032704D01*
X0056936Y0033702D02*
X0056102Y0033702D01*
X0055688Y0034701D02*
X0057349Y0034701D01*
X0058259Y0035699D02*
X0054778Y0035699D01*
X0050385Y0035699D02*
X0046904Y0035699D01*
X0046742Y0035862D02*
X0045422Y0036408D01*
X0043993Y0036408D01*
X0042674Y0035862D01*
X0041664Y0034852D01*
X0041117Y0033532D01*
X0041117Y0032104D01*
X0041664Y0030784D01*
X0042674Y0029774D01*
X0043993Y0029227D01*
X0045422Y0029227D01*
X0046742Y0029774D01*
X0047752Y0030784D01*
X0048298Y0032104D01*
X0048298Y0033532D01*
X0047752Y0034852D01*
X0046742Y0035862D01*
X0047814Y0034701D02*
X0049475Y0034701D01*
X0049062Y0033702D02*
X0048228Y0033702D01*
X0048298Y0032704D02*
X0048991Y0032704D01*
X0049156Y0031705D02*
X0048133Y0031705D01*
X0047674Y0030707D02*
X0049615Y0030707D01*
X0050706Y0029708D02*
X0046583Y0029708D01*
X0042832Y0029708D02*
X0038709Y0029708D01*
X0039800Y0030707D02*
X0041741Y0030707D01*
X0041282Y0031705D02*
X0040259Y0031705D01*
X0040424Y0032704D02*
X0041117Y0032704D01*
X0041188Y0033702D02*
X0040354Y0033702D01*
X0039940Y0034701D02*
X0041601Y0034701D01*
X0042511Y0035699D02*
X0039030Y0035699D01*
X0010198Y0037696D02*
X0246831Y0037696D01*
X0245832Y0038695D02*
X0010198Y0038695D01*
X0010198Y0039693D02*
X0244834Y0039693D01*
X0252601Y0030707D02*
X0110844Y0030707D01*
X0109863Y0029708D02*
X0253510Y0029708D01*
X0300873Y0081631D02*
X0317382Y0081631D01*
X0317382Y0082629D02*
X0301959Y0082629D01*
X0302425Y0083628D02*
X0317382Y0083628D01*
X0317382Y0084626D02*
X0302604Y0084626D01*
X0302558Y0085625D02*
X0317382Y0085625D01*
X0317382Y0086623D02*
X0302144Y0086623D01*
X0308018Y0117577D02*
X0317382Y0117577D01*
X0317382Y0118576D02*
X0309915Y0118576D01*
X0311644Y0119574D02*
X0317382Y0119574D01*
X0317382Y0120573D02*
X0312993Y0120573D01*
X0313920Y0121571D02*
X0317382Y0121571D01*
X0317382Y0122570D02*
X0314846Y0122570D01*
X0315773Y0123568D02*
X0317382Y0123568D01*
X0317382Y0124567D02*
X0316315Y0124567D01*
X0316795Y0125565D02*
X0317382Y0125565D01*
X0317382Y0126564D02*
X0317276Y0126564D01*
D14*
X0254767Y0146125D03*
X0236642Y0119875D03*
X0233517Y0119875D03*
X0230392Y0119875D03*
X0254767Y0090500D03*
X0234142Y0081125D03*
X0231642Y0086125D03*
X0236642Y0076125D03*
X0257892Y0066125D03*
X0257892Y0061125D03*
X0271642Y0068625D03*
X0230392Y0024875D03*
X0235392Y0019875D03*
X0168517Y0078625D03*
D15*
X0172267Y0078625D01*
X0189767Y0061125D01*
X0257892Y0061125D01*
X0257892Y0066125D02*
X0192267Y0066125D01*
X0176017Y0082375D01*
X0105387Y0082375D01*
X0097892Y0089870D01*
X0097892Y0111750D01*
X0094142Y0115500D01*
X0072262Y0115500D01*
X0068330Y0119432D01*
X0099826Y0119432D02*
X0099826Y0091066D01*
X0106642Y0084250D01*
X0177267Y0084250D01*
X0192892Y0068625D01*
X0271642Y0068625D01*
X0236642Y0076125D02*
X0236642Y0119875D01*
X0234142Y0119250D02*
X0234142Y0081125D01*
X0231642Y0086125D02*
X0231642Y0116125D01*
X0230392Y0117375D01*
X0230392Y0119875D01*
X0233517Y0119875D02*
X0234142Y0119250D01*
X0254767Y0146125D02*
X0254767Y0090500D01*
D16*
X0242267Y0045500D02*
X0189142Y0045500D01*
X0242267Y0045500D02*
X0255392Y0032375D01*
D17*
X0255392Y0032375D03*
M02*
