G75*
%MOIN*%
%OFA0B0*%
%FSLAX25Y25*%
%IPPOS*%
%LPD*%
%AMOC8*
5,1,8,0,0,1.08239X$1,22.5*
%
%ADD10R,0.07400X0.07400*%
%ADD11C,0.07400*%
%ADD12OC8,0.05512*%
%ADD13C,0.20000*%
%ADD14C,0.06299*%
%ADD15C,0.06693*%
%ADD16C,0.21500*%
%ADD17C,0.08600*%
%ADD18R,0.05591X0.05591*%
%ADD19C,0.05591*%
%ADD20C,0.14173*%
%ADD21C,0.12598*%
%ADD22C,0.01000*%
%ADD23C,0.04252*%
%ADD24C,0.01200*%
%ADD25C,0.02400*%
%ADD26C,0.02481*%
%ADD27C,0.02362*%
D10*
X0150939Y0096159D03*
X0096500Y0133000D03*
D11*
X0086500Y0133000D03*
X0076500Y0133000D03*
X0066500Y0133000D03*
X0056500Y0133000D03*
X0046500Y0133000D03*
X0156411Y0107341D03*
X0167317Y0107341D03*
X0178183Y0107341D03*
X0189089Y0107341D03*
X0183656Y0096159D03*
X0194561Y0096159D03*
X0172750Y0096159D03*
X0161844Y0096159D03*
D12*
X0023375Y0096125D03*
X0013375Y0096125D03*
X0013375Y0086125D03*
X0023375Y0086125D03*
X0023375Y0076125D03*
X0013375Y0076125D03*
X0013375Y0066125D03*
X0023375Y0066125D03*
X0023375Y0056125D03*
X0013375Y0056125D03*
X0013375Y0106125D03*
X0023375Y0106125D03*
X0023375Y0116125D03*
X0013375Y0116125D03*
D13*
X0123537Y0101750D03*
X0221963Y0101750D03*
D14*
X0205250Y0028000D03*
X0138375Y0028000D03*
X0071500Y0028000D03*
X0272125Y0028000D03*
X0339000Y0028000D03*
X0405875Y0028000D03*
X0472750Y0028000D03*
D15*
X0460550Y0015800D03*
X0484950Y0015800D03*
X0418075Y0015800D03*
X0393675Y0015800D03*
X0351200Y0015800D03*
X0326800Y0015800D03*
X0284325Y0015800D03*
X0259925Y0015800D03*
X0217450Y0015800D03*
X0193050Y0015800D03*
X0150575Y0015800D03*
X0126175Y0015800D03*
X0083700Y0015800D03*
X0059300Y0015800D03*
X0059300Y0040200D03*
X0083700Y0040200D03*
X0126175Y0040200D03*
X0150575Y0040200D03*
X0193050Y0040200D03*
X0217450Y0040200D03*
X0259925Y0040200D03*
X0284325Y0040200D03*
X0326800Y0040200D03*
X0351200Y0040200D03*
X0393675Y0040200D03*
X0418075Y0040200D03*
X0460550Y0040200D03*
X0484950Y0040200D03*
D16*
X0474625Y0127375D03*
X0496500Y0127375D03*
X0449000Y0127375D03*
X0423375Y0127375D03*
X0397750Y0127375D03*
D17*
X0333685Y0105815D03*
X0323843Y0105815D03*
X0304157Y0105815D03*
X0294315Y0105815D03*
X0281810Y0105815D03*
X0271968Y0105815D03*
X0252282Y0105815D03*
X0242440Y0105815D03*
X0262125Y0125500D03*
X0314000Y0125500D03*
D18*
X0357469Y0110367D03*
D19*
X0369281Y0110367D03*
X0369281Y0098556D03*
X0357469Y0098556D03*
D20*
X0468582Y0080500D03*
D21*
X0493188Y0080500D03*
X0479802Y0099398D03*
D22*
X0003181Y0137520D02*
X0003181Y0009681D01*
X0507240Y0009681D01*
X0507240Y0121934D01*
X0507052Y0121543D01*
X0506333Y0120398D01*
X0505490Y0119341D01*
X0504534Y0118385D01*
X0503477Y0117542D01*
X0502332Y0116823D01*
X0501114Y0116236D01*
X0499838Y0115790D01*
X0498520Y0115489D01*
X0497176Y0115338D01*
X0497000Y0115338D01*
X0497000Y0126875D01*
X0496000Y0126875D01*
X0496000Y0115338D01*
X0495824Y0115338D01*
X0494480Y0115489D01*
X0493162Y0115790D01*
X0491886Y0116236D01*
X0490668Y0116823D01*
X0489523Y0117542D01*
X0488466Y0118385D01*
X0487510Y0119341D01*
X0486667Y0120398D01*
X0485948Y0121543D01*
X0485562Y0122344D01*
X0485177Y0121543D01*
X0484458Y0120398D01*
X0483615Y0119341D01*
X0482659Y0118385D01*
X0481602Y0117542D01*
X0480457Y0116823D01*
X0479239Y0116236D01*
X0477963Y0115790D01*
X0476645Y0115489D01*
X0475301Y0115338D01*
X0475125Y0115338D01*
X0475125Y0126875D01*
X0475125Y0127875D01*
X0496000Y0127875D01*
X0496000Y0126875D01*
X0484463Y0126875D01*
X0475125Y0126875D01*
X0474125Y0126875D01*
X0474125Y0115338D01*
X0473949Y0115338D01*
X0472605Y0115489D01*
X0471287Y0115790D01*
X0470011Y0116236D01*
X0468793Y0116823D01*
X0467648Y0117542D01*
X0466591Y0118385D01*
X0465635Y0119341D01*
X0464792Y0120398D01*
X0464073Y0121543D01*
X0463486Y0122761D01*
X0463040Y0124037D01*
X0462739Y0125355D01*
X0462588Y0126699D01*
X0462588Y0126875D01*
X0474125Y0126875D01*
X0474125Y0127875D01*
X0462588Y0127875D01*
X0462588Y0128051D01*
X0462739Y0129395D01*
X0463040Y0130713D01*
X0463486Y0131989D01*
X0464073Y0133207D01*
X0464792Y0134352D01*
X0465635Y0135409D01*
X0466591Y0136365D01*
X0467648Y0137208D01*
X0468145Y0137520D01*
X0455110Y0137520D01*
X0456270Y0136850D01*
X0458475Y0134645D01*
X0460034Y0131945D01*
X0460841Y0128934D01*
X0460841Y0125816D01*
X0460034Y0122805D01*
X0458475Y0120105D01*
X0456270Y0117900D01*
X0453570Y0116341D01*
X0450559Y0115534D01*
X0447441Y0115534D01*
X0444430Y0116341D01*
X0442386Y0117521D01*
X0431199Y0106334D01*
X0394301Y0106334D01*
X0392959Y0107676D01*
X0370403Y0130233D01*
X0370962Y0128884D01*
X0370962Y0125866D01*
X0369807Y0123078D01*
X0367672Y0120943D01*
X0364884Y0119788D01*
X0361866Y0119788D01*
X0359078Y0120943D01*
X0356943Y0123078D01*
X0355788Y0125866D01*
X0355788Y0128884D01*
X0355905Y0129166D01*
X0354949Y0128209D01*
X0336694Y0128209D01*
X0337113Y0127790D01*
X0337728Y0126304D01*
X0337728Y0124696D01*
X0337113Y0123210D01*
X0335975Y0122072D01*
X0334489Y0121457D01*
X0332881Y0121457D01*
X0331395Y0122072D01*
X0330257Y0123210D01*
X0329642Y0124696D01*
X0329642Y0126304D01*
X0330257Y0127790D01*
X0330676Y0128209D01*
X0318890Y0128209D01*
X0319178Y0127645D01*
X0319450Y0126808D01*
X0319578Y0126000D01*
X0314500Y0126000D01*
X0314500Y0125000D01*
X0319578Y0125000D01*
X0319450Y0124192D01*
X0319178Y0123355D01*
X0318779Y0122572D01*
X0318262Y0121860D01*
X0317640Y0121238D01*
X0316928Y0120721D01*
X0316145Y0120322D01*
X0315449Y0120096D01*
X0315463Y0120088D01*
X0315463Y0120088D01*
X0315463Y0120088D01*
X0316586Y0118143D01*
X0316586Y0113441D01*
X0327548Y0113441D01*
X0329088Y0112803D01*
X0329088Y0112803D01*
X0329182Y0112708D01*
X0329968Y0111923D01*
X0330173Y0111718D01*
X0331250Y0110641D01*
X0332613Y0111205D01*
X0334757Y0111205D01*
X0336739Y0110385D01*
X0338255Y0108868D01*
X0339076Y0106887D01*
X0339076Y0104743D01*
X0338255Y0102761D01*
X0336739Y0101245D01*
X0334757Y0100424D01*
X0332613Y0100424D01*
X0330632Y0101245D01*
X0329115Y0102761D01*
X0328764Y0103610D01*
X0328412Y0102761D01*
X0326896Y0101245D01*
X0324915Y0100424D01*
X0322770Y0100424D01*
X0320789Y0101245D01*
X0319273Y0102761D01*
X0318452Y0104743D01*
X0318452Y0106887D01*
X0319273Y0108868D01*
X0320464Y0110059D01*
X0314195Y0110059D01*
X0314000Y0110254D01*
X0313805Y0110059D01*
X0307536Y0110059D01*
X0308727Y0108868D01*
X0309548Y0106887D01*
X0309548Y0104743D01*
X0308727Y0102761D01*
X0307211Y0101245D01*
X0305230Y0100424D01*
X0303085Y0100424D01*
X0301104Y0101245D01*
X0299588Y0102761D01*
X0299236Y0103610D01*
X0298885Y0102761D01*
X0297368Y0101245D01*
X0295387Y0100424D01*
X0293243Y0100424D01*
X0291261Y0101245D01*
X0289745Y0102761D01*
X0288924Y0104743D01*
X0288924Y0106887D01*
X0289745Y0108868D01*
X0291261Y0110385D01*
X0293243Y0111205D01*
X0295387Y0111205D01*
X0296750Y0110641D01*
X0297827Y0111718D01*
X0298260Y0112151D01*
X0298818Y0112708D01*
X0298912Y0112803D01*
X0298912Y0112803D01*
X0300452Y0113441D01*
X0311414Y0113441D01*
X0311414Y0116039D01*
X0311103Y0116039D01*
X0309941Y0114877D01*
X0308059Y0114877D01*
X0306728Y0116208D01*
X0306728Y0118090D01*
X0307264Y0118625D01*
X0306728Y0119160D01*
X0306728Y0121042D01*
X0308059Y0122373D01*
X0309365Y0122373D01*
X0309221Y0122572D01*
X0308822Y0123355D01*
X0308550Y0124192D01*
X0308422Y0125000D01*
X0313500Y0125000D01*
X0313500Y0126000D01*
X0308422Y0126000D01*
X0308550Y0126808D01*
X0308822Y0127645D01*
X0309110Y0128209D01*
X0297324Y0128209D01*
X0297743Y0127790D01*
X0298358Y0126304D01*
X0298358Y0124696D01*
X0297743Y0123210D01*
X0296605Y0122072D01*
X0295119Y0121457D01*
X0293511Y0121457D01*
X0292025Y0122072D01*
X0290887Y0123210D01*
X0290272Y0124696D01*
X0290272Y0126304D01*
X0290887Y0127790D01*
X0291306Y0128209D01*
X0284819Y0128209D01*
X0285238Y0127790D01*
X0285853Y0126304D01*
X0285853Y0124696D01*
X0285238Y0123210D01*
X0284100Y0122072D01*
X0282614Y0121457D01*
X0281006Y0121457D01*
X0279520Y0122072D01*
X0278382Y0123210D01*
X0277767Y0124696D01*
X0277767Y0126304D01*
X0278382Y0127790D01*
X0278801Y0128209D01*
X0267015Y0128209D01*
X0267303Y0127645D01*
X0267575Y0126808D01*
X0267703Y0126000D01*
X0262625Y0126000D01*
X0262625Y0125000D01*
X0267703Y0125000D01*
X0267575Y0124192D01*
X0267303Y0123355D01*
X0266904Y0122572D01*
X0266387Y0121860D01*
X0265765Y0121238D01*
X0265053Y0120721D01*
X0264270Y0120322D01*
X0263574Y0120096D01*
X0263588Y0120088D01*
X0263588Y0120088D01*
X0264711Y0118143D01*
X0264711Y0113441D01*
X0275673Y0113441D01*
X0277213Y0112803D01*
X0277213Y0112803D01*
X0277307Y0112708D01*
X0278209Y0111807D01*
X0278298Y0111718D01*
X0279375Y0110641D01*
X0280738Y0111205D01*
X0282882Y0111205D01*
X0284864Y0110385D01*
X0286380Y0108868D01*
X0287201Y0106887D01*
X0287201Y0104743D01*
X0286380Y0102761D01*
X0284864Y0101245D01*
X0282882Y0100424D01*
X0280738Y0100424D01*
X0278757Y0101245D01*
X0277240Y0102761D01*
X0276889Y0103610D01*
X0276537Y0102761D01*
X0275021Y0101245D01*
X0273040Y0100424D01*
X0270895Y0100424D01*
X0268914Y0101245D01*
X0267398Y0102761D01*
X0266577Y0104743D01*
X0266577Y0106887D01*
X0267398Y0108868D01*
X0268589Y0110059D01*
X0262320Y0110059D01*
X0262125Y0110254D01*
X0261930Y0110059D01*
X0255661Y0110059D01*
X0256852Y0108868D01*
X0257673Y0106887D01*
X0257673Y0104743D01*
X0256852Y0102761D01*
X0255336Y0101245D01*
X0253355Y0100424D01*
X0251210Y0100424D01*
X0249229Y0101245D01*
X0247713Y0102761D01*
X0247361Y0103610D01*
X0247010Y0102761D01*
X0245493Y0101245D01*
X0243512Y0100424D01*
X0241368Y0100424D01*
X0239386Y0101245D01*
X0237870Y0102761D01*
X0237049Y0104743D01*
X0237049Y0106887D01*
X0237870Y0108868D01*
X0239386Y0110385D01*
X0241368Y0111205D01*
X0243512Y0111205D01*
X0244875Y0110641D01*
X0245952Y0111718D01*
X0245952Y0111718D01*
X0246447Y0112213D01*
X0246447Y0112213D01*
X0247037Y0112803D01*
X0247037Y0112803D01*
X0248577Y0113441D01*
X0259539Y0113441D01*
X0259539Y0116039D01*
X0259228Y0116039D01*
X0258066Y0114877D01*
X0256184Y0114877D01*
X0254853Y0116208D01*
X0254853Y0118090D01*
X0255389Y0118625D01*
X0254853Y0119160D01*
X0254853Y0121042D01*
X0256184Y0122373D01*
X0257490Y0122373D01*
X0257346Y0122572D01*
X0256947Y0123355D01*
X0256675Y0124192D01*
X0256547Y0125000D01*
X0261625Y0125000D01*
X0261625Y0126000D01*
X0256547Y0126000D01*
X0256675Y0126808D01*
X0256947Y0127645D01*
X0257235Y0128209D01*
X0245449Y0128209D01*
X0245868Y0127790D01*
X0246483Y0126304D01*
X0246483Y0124696D01*
X0245868Y0123210D01*
X0244730Y0122072D01*
X0243244Y0121457D01*
X0241636Y0121457D01*
X0240150Y0122072D01*
X0239012Y0123210D01*
X0238397Y0124696D01*
X0238397Y0126304D01*
X0239012Y0127790D01*
X0239431Y0128209D01*
X0190574Y0128209D01*
X0184324Y0121959D01*
X0049949Y0121959D01*
X0026824Y0098834D01*
X0026105Y0098834D01*
X0027221Y0097718D01*
X0027221Y0094532D01*
X0024968Y0092279D01*
X0021782Y0092279D01*
X0019529Y0094532D01*
X0019529Y0097718D01*
X0020645Y0098834D01*
X0017426Y0098834D01*
X0016084Y0100176D01*
X0013982Y0102279D01*
X0011782Y0102279D01*
X0009529Y0104532D01*
X0009529Y0107718D01*
X0011782Y0109971D01*
X0014968Y0109971D01*
X0017221Y0107718D01*
X0017221Y0105518D01*
X0019324Y0103416D01*
X0020366Y0103416D01*
X0019332Y0104450D01*
X0019332Y0105641D01*
X0022891Y0105641D01*
X0022891Y0106609D01*
X0019332Y0106609D01*
X0019332Y0107800D01*
X0021700Y0110168D01*
X0022891Y0110168D01*
X0022891Y0106609D01*
X0023859Y0106609D01*
X0023859Y0110168D01*
X0025050Y0110168D01*
X0027418Y0107800D01*
X0027418Y0106609D01*
X0023859Y0106609D01*
X0023859Y0105641D01*
X0027151Y0105641D01*
X0048051Y0126541D01*
X0182426Y0126541D01*
X0187334Y0131449D01*
X0187334Y0131449D01*
X0188676Y0132791D01*
X0239274Y0132791D01*
X0239012Y0133052D01*
X0238397Y0134538D01*
X0238397Y0136147D01*
X0238965Y0137520D01*
X0100923Y0137520D01*
X0101291Y0137152D01*
X0101291Y0128848D01*
X0100652Y0128209D01*
X0092348Y0128209D01*
X0091709Y0128848D01*
X0091709Y0137152D01*
X0092077Y0137520D01*
X0088107Y0137520D01*
X0089214Y0137061D01*
X0090561Y0135714D01*
X0091291Y0133953D01*
X0091291Y0132047D01*
X0090561Y0130286D01*
X0089214Y0128939D01*
X0087453Y0128209D01*
X0085547Y0128209D01*
X0083786Y0128939D01*
X0082439Y0130286D01*
X0081709Y0132047D01*
X0081709Y0133953D01*
X0082439Y0135714D01*
X0083786Y0137061D01*
X0084893Y0137520D01*
X0078107Y0137520D01*
X0079214Y0137061D01*
X0080561Y0135714D01*
X0081291Y0133953D01*
X0081291Y0132047D01*
X0080561Y0130286D01*
X0079214Y0128939D01*
X0077453Y0128209D01*
X0075547Y0128209D01*
X0073786Y0128939D01*
X0072439Y0130286D01*
X0071709Y0132047D01*
X0071709Y0133953D01*
X0072439Y0135714D01*
X0073786Y0137061D01*
X0074893Y0137520D01*
X0068107Y0137520D01*
X0069214Y0137061D01*
X0070561Y0135714D01*
X0071291Y0133953D01*
X0071291Y0132047D01*
X0070561Y0130286D01*
X0069214Y0128939D01*
X0067453Y0128209D01*
X0065547Y0128209D01*
X0063786Y0128939D01*
X0062439Y0130286D01*
X0061709Y0132047D01*
X0061709Y0133953D01*
X0062439Y0135714D01*
X0063786Y0137061D01*
X0064893Y0137520D01*
X0058107Y0137520D01*
X0059214Y0137061D01*
X0060561Y0135714D01*
X0061291Y0133953D01*
X0061291Y0132047D01*
X0060561Y0130286D01*
X0059214Y0128939D01*
X0057453Y0128209D01*
X0055547Y0128209D01*
X0053786Y0128939D01*
X0052439Y0130286D01*
X0051709Y0132047D01*
X0051709Y0133953D01*
X0052439Y0135714D01*
X0053786Y0137061D01*
X0054893Y0137520D01*
X0048615Y0137520D01*
X0049114Y0137266D01*
X0049749Y0136804D01*
X0050304Y0136249D01*
X0050766Y0135614D01*
X0051122Y0134914D01*
X0051365Y0134168D01*
X0051470Y0133500D01*
X0047000Y0133500D01*
X0047000Y0132500D01*
X0051470Y0132500D01*
X0051365Y0131832D01*
X0051122Y0131085D01*
X0050766Y0130386D01*
X0050304Y0129751D01*
X0049749Y0129196D01*
X0049114Y0128734D01*
X0048414Y0128378D01*
X0047668Y0128135D01*
X0047000Y0128030D01*
X0047000Y0132500D01*
X0046000Y0132500D01*
X0046000Y0128030D01*
X0045332Y0128135D01*
X0044585Y0128378D01*
X0043886Y0128734D01*
X0043251Y0129196D01*
X0042696Y0129751D01*
X0042234Y0130386D01*
X0041878Y0131085D01*
X0041635Y0131832D01*
X0041530Y0132500D01*
X0046000Y0132500D01*
X0046000Y0133500D01*
X0041530Y0133500D01*
X0041635Y0134168D01*
X0041878Y0134914D01*
X0042234Y0135614D01*
X0042696Y0136249D01*
X0043251Y0136804D01*
X0043886Y0137266D01*
X0044385Y0137520D01*
X0003181Y0137520D01*
X0003181Y0137259D02*
X0043877Y0137259D01*
X0042707Y0136260D02*
X0003181Y0136260D01*
X0003181Y0135262D02*
X0042055Y0135262D01*
X0041666Y0134263D02*
X0003181Y0134263D01*
X0003181Y0133265D02*
X0046000Y0133265D01*
X0046000Y0132266D02*
X0047000Y0132266D01*
X0047000Y0131268D02*
X0046000Y0131268D01*
X0046000Y0130269D02*
X0047000Y0130269D01*
X0047000Y0129271D02*
X0046000Y0129271D01*
X0046000Y0128272D02*
X0047000Y0128272D01*
X0048089Y0128272D02*
X0055396Y0128272D01*
X0053454Y0129271D02*
X0049824Y0129271D01*
X0050681Y0130269D02*
X0052456Y0130269D01*
X0052032Y0131268D02*
X0051181Y0131268D01*
X0051433Y0132266D02*
X0051709Y0132266D01*
X0051709Y0133265D02*
X0047000Y0133265D01*
X0050945Y0135262D02*
X0052252Y0135262D01*
X0051838Y0134263D02*
X0051334Y0134263D01*
X0050293Y0136260D02*
X0052985Y0136260D01*
X0054263Y0137259D02*
X0049123Y0137259D01*
X0058737Y0137259D02*
X0064263Y0137259D01*
X0062985Y0136260D02*
X0060015Y0136260D01*
X0060748Y0135262D02*
X0062252Y0135262D01*
X0061838Y0134263D02*
X0061162Y0134263D01*
X0061291Y0133265D02*
X0061709Y0133265D01*
X0061709Y0132266D02*
X0061291Y0132266D01*
X0060968Y0131268D02*
X0062032Y0131268D01*
X0062456Y0130269D02*
X0060544Y0130269D01*
X0059546Y0129271D02*
X0063454Y0129271D01*
X0065396Y0128272D02*
X0057604Y0128272D01*
X0047786Y0126275D02*
X0003181Y0126275D01*
X0003181Y0125277D02*
X0046787Y0125277D01*
X0045789Y0124278D02*
X0003181Y0124278D01*
X0003181Y0123280D02*
X0044790Y0123280D01*
X0043792Y0122281D02*
X0003181Y0122281D01*
X0003181Y0121283D02*
X0042793Y0121283D01*
X0041795Y0120284D02*
X0003181Y0120284D01*
X0003181Y0119286D02*
X0011096Y0119286D01*
X0011782Y0119971D02*
X0009529Y0117718D01*
X0009529Y0114532D01*
X0011782Y0112279D01*
X0014968Y0112279D01*
X0017221Y0114532D01*
X0017221Y0117718D01*
X0014968Y0119971D01*
X0011782Y0119971D01*
X0010097Y0118287D02*
X0003181Y0118287D01*
X0003181Y0117289D02*
X0009529Y0117289D01*
X0009529Y0116290D02*
X0003181Y0116290D01*
X0003181Y0115292D02*
X0009529Y0115292D01*
X0009767Y0114293D02*
X0003181Y0114293D01*
X0003181Y0113295D02*
X0010766Y0113295D01*
X0011764Y0112296D02*
X0003181Y0112296D01*
X0003181Y0111298D02*
X0032808Y0111298D01*
X0033807Y0112296D02*
X0024986Y0112296D01*
X0024968Y0112279D02*
X0027221Y0114532D01*
X0027221Y0117718D01*
X0024968Y0119971D01*
X0021782Y0119971D01*
X0019529Y0117718D01*
X0019529Y0114532D01*
X0021782Y0112279D01*
X0024968Y0112279D01*
X0025984Y0113295D02*
X0034805Y0113295D01*
X0035804Y0114293D02*
X0026983Y0114293D01*
X0027221Y0115292D02*
X0036802Y0115292D01*
X0037801Y0116290D02*
X0027221Y0116290D01*
X0027221Y0117289D02*
X0038799Y0117289D01*
X0039798Y0118287D02*
X0026653Y0118287D01*
X0025654Y0119286D02*
X0040796Y0119286D01*
X0046276Y0118287D02*
X0168997Y0118287D01*
X0168914Y0118143D02*
X0168914Y0112388D01*
X0168903Y0112254D01*
X0168815Y0112001D01*
X0168766Y0111926D01*
X0168270Y0112131D01*
X0166364Y0112131D01*
X0164603Y0111402D01*
X0163256Y0110054D01*
X0162526Y0108293D01*
X0162526Y0106388D01*
X0163256Y0104627D01*
X0164603Y0103279D01*
X0165996Y0102702D01*
X0165445Y0102151D01*
X0165012Y0101718D01*
X0163820Y0100526D01*
X0162797Y0100950D01*
X0160892Y0100950D01*
X0159131Y0100221D01*
X0157783Y0098873D01*
X0157054Y0097112D01*
X0157054Y0095207D01*
X0157783Y0093446D01*
X0159131Y0092098D01*
X0160892Y0091369D01*
X0162797Y0091369D01*
X0164558Y0092098D01*
X0165906Y0093446D01*
X0166635Y0095207D01*
X0166635Y0097112D01*
X0166211Y0098135D01*
X0167403Y0099327D01*
X0167847Y0099771D01*
X0167898Y0099822D01*
X0168021Y0099923D01*
X0168313Y0100044D01*
X0168471Y0100059D01*
X0169633Y0100059D01*
X0169501Y0099964D01*
X0168946Y0099409D01*
X0168484Y0098773D01*
X0168128Y0098074D01*
X0167885Y0097327D01*
X0167780Y0096659D01*
X0172250Y0096659D01*
X0172250Y0095659D01*
X0173250Y0095659D01*
X0173250Y0091189D01*
X0173918Y0091295D01*
X0174664Y0091537D01*
X0175364Y0091894D01*
X0175999Y0092355D01*
X0176554Y0092910D01*
X0177016Y0093545D01*
X0177372Y0094245D01*
X0177615Y0094992D01*
X0177720Y0095659D01*
X0173250Y0095659D01*
X0173250Y0096659D01*
X0177720Y0096659D01*
X0177615Y0097327D01*
X0177372Y0098074D01*
X0177016Y0098773D01*
X0176554Y0099409D01*
X0175999Y0099964D01*
X0175364Y0100425D01*
X0174664Y0100781D01*
X0173918Y0101024D01*
X0173250Y0101130D01*
X0173250Y0096659D01*
X0172250Y0096659D01*
X0172250Y0100771D01*
X0172963Y0101182D01*
X0172963Y0101182D01*
X0172963Y0101182D01*
X0174086Y0103127D01*
X0174086Y0104714D01*
X0174122Y0104627D01*
X0175469Y0103279D01*
X0177230Y0102550D01*
X0179136Y0102550D01*
X0180897Y0103279D01*
X0182244Y0104627D01*
X0182974Y0106388D01*
X0182974Y0108293D01*
X0182244Y0110054D01*
X0180897Y0111402D01*
X0179136Y0112131D01*
X0177230Y0112131D01*
X0175469Y0111402D01*
X0174122Y0110054D01*
X0174086Y0109967D01*
X0174086Y0116039D01*
X0183772Y0116039D01*
X0184934Y0114877D01*
X0186816Y0114877D01*
X0188147Y0116208D01*
X0188147Y0118090D01*
X0187611Y0118625D01*
X0188147Y0119160D01*
X0188147Y0121042D01*
X0186816Y0122373D01*
X0184934Y0122373D01*
X0183772Y0121211D01*
X0171982Y0121211D01*
X0170037Y0120088D01*
X0170037Y0120088D01*
X0170037Y0120088D01*
X0168914Y0118143D01*
X0168914Y0117289D02*
X0045278Y0117289D01*
X0044279Y0116290D02*
X0168914Y0116290D01*
X0168914Y0115292D02*
X0043281Y0115292D01*
X0042282Y0114293D02*
X0168914Y0114293D01*
X0168914Y0113295D02*
X0041284Y0113295D01*
X0040285Y0112296D02*
X0120045Y0112296D01*
X0119257Y0112085D02*
X0116728Y0110625D01*
X0114663Y0108560D01*
X0113203Y0106031D01*
X0112447Y0103210D01*
X0112447Y0100290D01*
X0113203Y0097469D01*
X0114663Y0094940D01*
X0116728Y0092875D01*
X0119257Y0091415D01*
X0122077Y0090659D01*
X0124998Y0090659D01*
X0127818Y0091415D01*
X0130347Y0092875D01*
X0132412Y0094940D01*
X0133872Y0097469D01*
X0134628Y0100290D01*
X0134628Y0103210D01*
X0133872Y0106031D01*
X0132412Y0108560D01*
X0130347Y0110625D01*
X0127818Y0112085D01*
X0124998Y0112841D01*
X0122077Y0112841D01*
X0119257Y0112085D01*
X0117893Y0111298D02*
X0039287Y0111298D01*
X0038288Y0110299D02*
X0116402Y0110299D01*
X0115404Y0109301D02*
X0037290Y0109301D01*
X0036291Y0108302D02*
X0114514Y0108302D01*
X0113937Y0107303D02*
X0041120Y0107303D01*
X0040822Y0107602D02*
X0041727Y0106697D01*
X0041781Y0106566D01*
X0080325Y0106566D01*
X0081316Y0105575D01*
X0097825Y0089066D01*
X0381844Y0089066D01*
X0381898Y0089197D01*
X0382803Y0090102D01*
X0383985Y0090592D01*
X0385265Y0090592D01*
X0386447Y0090102D01*
X0387352Y0089197D01*
X0387842Y0088015D01*
X0387842Y0086735D01*
X0387352Y0085553D01*
X0386674Y0084875D01*
X0387352Y0084197D01*
X0387842Y0083015D01*
X0387842Y0081735D01*
X0387352Y0080553D01*
X0386447Y0079648D01*
X0385265Y0079158D01*
X0383985Y0079158D01*
X0382803Y0079648D01*
X0381898Y0080553D01*
X0381844Y0080684D01*
X0095325Y0080684D01*
X0093925Y0080684D01*
X0076425Y0098184D01*
X0040531Y0098184D01*
X0040477Y0098053D01*
X0039572Y0097148D01*
X0038390Y0096658D01*
X0037110Y0096658D01*
X0035928Y0097148D01*
X0035023Y0098053D01*
X0034533Y0099235D01*
X0034533Y0100515D01*
X0035023Y0101697D01*
X0035928Y0102602D01*
X0036491Y0102835D01*
X0036273Y0103053D01*
X0035783Y0104235D01*
X0035783Y0105515D01*
X0036273Y0106697D01*
X0037178Y0107602D01*
X0038360Y0108092D01*
X0039640Y0108092D01*
X0040822Y0107602D01*
X0036880Y0107303D02*
X0035293Y0107303D01*
X0036111Y0106305D02*
X0034294Y0106305D01*
X0033296Y0105306D02*
X0035783Y0105306D01*
X0035783Y0104308D02*
X0032297Y0104308D01*
X0031299Y0103309D02*
X0036167Y0103309D01*
X0035637Y0102311D02*
X0030300Y0102311D01*
X0029302Y0101312D02*
X0034864Y0101312D01*
X0034533Y0100314D02*
X0028303Y0100314D01*
X0027305Y0099315D02*
X0034533Y0099315D01*
X0034914Y0098317D02*
X0026623Y0098317D01*
X0027221Y0097318D02*
X0035758Y0097318D01*
X0039742Y0097318D02*
X0077291Y0097318D01*
X0078289Y0096320D02*
X0027221Y0096320D01*
X0027221Y0095321D02*
X0079288Y0095321D01*
X0080286Y0094323D02*
X0027013Y0094323D01*
X0026014Y0093324D02*
X0081285Y0093324D01*
X0082283Y0092326D02*
X0025016Y0092326D01*
X0024968Y0089971D02*
X0021782Y0089971D01*
X0019626Y0087816D01*
X0019195Y0087816D01*
X0018570Y0087191D01*
X0018375Y0086996D01*
X0018180Y0087191D01*
X0017555Y0087816D01*
X0017124Y0087816D01*
X0014968Y0089971D01*
X0011782Y0089971D01*
X0009529Y0087718D01*
X0009529Y0084532D01*
X0011782Y0082279D01*
X0014968Y0082279D01*
X0015789Y0083099D01*
X0015789Y0082554D01*
X0018814Y0079529D01*
X0019804Y0078539D01*
X0020349Y0078539D01*
X0019529Y0077718D01*
X0019529Y0074532D01*
X0021245Y0072816D01*
X0019411Y0072816D01*
X0019253Y0072831D01*
X0018961Y0072952D01*
X0018838Y0073053D01*
X0018343Y0073548D01*
X0017221Y0074669D01*
X0017221Y0077718D01*
X0014968Y0079971D01*
X0011782Y0079971D01*
X0009529Y0077718D01*
X0009529Y0074532D01*
X0011782Y0072279D01*
X0014831Y0072279D01*
X0015952Y0071157D01*
X0016447Y0070662D01*
X0017037Y0070072D01*
X0018577Y0069434D01*
X0021245Y0069434D01*
X0019529Y0067718D01*
X0019529Y0064532D01*
X0020307Y0063753D01*
X0018473Y0063753D01*
X0018315Y0063769D01*
X0018023Y0063889D01*
X0017901Y0063990D01*
X0017568Y0064323D01*
X0017406Y0064485D01*
X0017221Y0064669D01*
X0017221Y0067718D01*
X0014968Y0069971D01*
X0011782Y0069971D01*
X0009529Y0067718D01*
X0009529Y0064532D01*
X0011782Y0062279D01*
X0014831Y0062279D01*
X0015015Y0062094D01*
X0015181Y0061928D01*
X0015984Y0061125D01*
X0015510Y0060651D01*
X0015015Y0060156D01*
X0015015Y0060155D01*
X0014831Y0059971D01*
X0011782Y0059971D01*
X0009529Y0057718D01*
X0009529Y0054532D01*
X0011782Y0052279D01*
X0014968Y0052279D01*
X0017221Y0054532D01*
X0017221Y0057581D01*
X0017405Y0057765D01*
X0017406Y0057765D02*
X0017901Y0058260D01*
X0018023Y0058361D01*
X0018315Y0058481D01*
X0018473Y0058497D01*
X0020029Y0058497D01*
X0019332Y0057800D01*
X0019332Y0056609D01*
X0022891Y0056609D01*
X0022891Y0055641D01*
X0023859Y0055641D01*
X0023859Y0052082D01*
X0025050Y0052082D01*
X0027418Y0054450D01*
X0027418Y0055641D01*
X0023859Y0055641D01*
X0023859Y0056609D01*
X0027418Y0056609D01*
X0027418Y0057800D01*
X0026506Y0058712D01*
X0027526Y0059135D01*
X0027620Y0059229D01*
X0028838Y0060447D01*
X0028961Y0060548D01*
X0029253Y0060669D01*
X0029411Y0060684D01*
X0069809Y0060684D01*
X0069809Y0031889D01*
X0069098Y0031595D01*
X0067905Y0030402D01*
X0067260Y0028843D01*
X0067260Y0027157D01*
X0067905Y0025598D01*
X0069098Y0024405D01*
X0070657Y0023760D01*
X0072343Y0023760D01*
X0073902Y0024405D01*
X0075095Y0025598D01*
X0075740Y0027157D01*
X0075740Y0028843D01*
X0075095Y0030402D01*
X0073902Y0031595D01*
X0073191Y0031889D01*
X0073191Y0061913D01*
X0072817Y0062559D01*
X0136684Y0062559D01*
X0136684Y0031889D01*
X0135973Y0031595D01*
X0134780Y0030402D01*
X0134135Y0028843D01*
X0134135Y0027157D01*
X0134780Y0025598D01*
X0135973Y0024405D01*
X0137532Y0023760D01*
X0139218Y0023760D01*
X0140777Y0024405D01*
X0141970Y0025598D01*
X0142615Y0027157D01*
X0142615Y0028843D01*
X0141970Y0030402D01*
X0140777Y0031595D01*
X0140066Y0031889D01*
X0140066Y0063788D01*
X0139692Y0064434D01*
X0203559Y0064434D01*
X0203559Y0031889D01*
X0202848Y0031595D01*
X0201655Y0030402D01*
X0201010Y0028843D01*
X0201010Y0027157D01*
X0201655Y0025598D01*
X0202848Y0024405D01*
X0204407Y0023760D01*
X0206093Y0023760D01*
X0207652Y0024405D01*
X0208845Y0025598D01*
X0209490Y0027157D01*
X0209490Y0028843D01*
X0208845Y0030402D01*
X0207652Y0031595D01*
X0206941Y0031889D01*
X0206941Y0065663D01*
X0206153Y0067028D01*
X0206153Y0067028D01*
X0206153Y0067028D01*
X0204788Y0067816D01*
X0027124Y0067816D01*
X0025505Y0069434D01*
X0270434Y0069434D01*
X0270434Y0031889D01*
X0269723Y0031595D01*
X0268530Y0030402D01*
X0267885Y0028843D01*
X0267885Y0027157D01*
X0268530Y0025598D01*
X0269723Y0024405D01*
X0271282Y0023760D01*
X0272968Y0023760D01*
X0274527Y0024405D01*
X0275720Y0025598D01*
X0276365Y0027157D01*
X0276365Y0028843D01*
X0275720Y0030402D01*
X0274527Y0031595D01*
X0273816Y0031889D01*
X0273816Y0070663D01*
X0273442Y0071309D01*
X0337309Y0071309D01*
X0337309Y0031889D01*
X0336598Y0031595D01*
X0335405Y0030402D01*
X0334760Y0028843D01*
X0334760Y0027157D01*
X0335405Y0025598D01*
X0336598Y0024405D01*
X0338157Y0023760D01*
X0339843Y0023760D01*
X0341402Y0024405D01*
X0342595Y0025598D01*
X0343240Y0027157D01*
X0343240Y0028843D01*
X0342595Y0030402D01*
X0341402Y0031595D01*
X0340691Y0031889D01*
X0340691Y0072538D01*
X0339903Y0073903D01*
X0339903Y0073903D01*
X0339903Y0073903D01*
X0338538Y0074691D01*
X0027536Y0074691D01*
X0027378Y0074706D01*
X0027221Y0074771D01*
X0027221Y0077718D01*
X0026401Y0078539D01*
X0027571Y0078539D01*
X0029446Y0080414D01*
X0082378Y0080414D01*
X0083659Y0079133D01*
X0085591Y0079133D01*
X0086956Y0080499D01*
X0086956Y0082430D01*
X0086386Y0083000D01*
X0086956Y0083570D01*
X0086956Y0085501D01*
X0085591Y0086867D01*
X0083659Y0086867D01*
X0082378Y0085586D01*
X0051852Y0085586D01*
X0051852Y0086045D01*
X0051041Y0087451D01*
X0051041Y0087451D01*
X0051041Y0087451D01*
X0049635Y0088262D01*
X0044091Y0088262D01*
X0042686Y0087451D01*
X0042686Y0087451D01*
X0041874Y0086045D01*
X0041874Y0085586D01*
X0027304Y0085586D01*
X0027221Y0085503D01*
X0027221Y0087718D01*
X0024968Y0089971D01*
X0025609Y0089330D02*
X0085279Y0089330D01*
X0086277Y0088332D02*
X0026608Y0088332D01*
X0027221Y0087333D02*
X0042618Y0087333D01*
X0042041Y0086335D02*
X0027221Y0086335D01*
X0021141Y0089330D02*
X0015609Y0089330D01*
X0016608Y0088332D02*
X0020142Y0088332D01*
X0018713Y0087333D02*
X0018037Y0087333D01*
X0011141Y0089330D02*
X0003181Y0089330D01*
X0003181Y0088332D02*
X0010142Y0088332D01*
X0009529Y0087333D02*
X0003181Y0087333D01*
X0003181Y0086335D02*
X0009529Y0086335D01*
X0009529Y0085336D02*
X0003181Y0085336D01*
X0003181Y0084338D02*
X0009723Y0084338D01*
X0010721Y0083339D02*
X0003181Y0083339D01*
X0003181Y0082341D02*
X0011720Y0082341D01*
X0015030Y0082341D02*
X0016002Y0082341D01*
X0017001Y0081342D02*
X0003181Y0081342D01*
X0003181Y0080344D02*
X0017999Y0080344D01*
X0018998Y0079345D02*
X0015595Y0079345D01*
X0016593Y0078347D02*
X0020157Y0078347D01*
X0019529Y0077348D02*
X0017221Y0077348D01*
X0017221Y0076350D02*
X0019529Y0076350D01*
X0019529Y0075351D02*
X0017221Y0075351D01*
X0017538Y0074353D02*
X0019708Y0074353D01*
X0020706Y0073354D02*
X0018537Y0073354D01*
X0015752Y0071357D02*
X0003181Y0071357D01*
X0003181Y0070359D02*
X0016751Y0070359D01*
X0017037Y0070072D02*
X0017037Y0070072D01*
X0017037Y0070072D01*
X0015580Y0069360D02*
X0021170Y0069360D01*
X0020172Y0068362D02*
X0016578Y0068362D01*
X0017221Y0067363D02*
X0019529Y0067363D01*
X0019529Y0066365D02*
X0017221Y0066365D01*
X0017221Y0065366D02*
X0019529Y0065366D01*
X0019693Y0064368D02*
X0017523Y0064368D01*
X0015737Y0061372D02*
X0003181Y0061372D01*
X0003181Y0062370D02*
X0011690Y0062370D01*
X0010691Y0063369D02*
X0003181Y0063369D01*
X0003181Y0064368D02*
X0009693Y0064368D01*
X0009529Y0065366D02*
X0003181Y0065366D01*
X0003181Y0066365D02*
X0009529Y0066365D01*
X0009529Y0067363D02*
X0003181Y0067363D01*
X0003181Y0068362D02*
X0010172Y0068362D01*
X0011170Y0069360D02*
X0003181Y0069360D01*
X0003181Y0072356D02*
X0011705Y0072356D01*
X0010706Y0073354D02*
X0003181Y0073354D01*
X0003181Y0074353D02*
X0009708Y0074353D01*
X0009529Y0075351D02*
X0003181Y0075351D01*
X0003181Y0076350D02*
X0009529Y0076350D01*
X0009529Y0077348D02*
X0003181Y0077348D01*
X0003181Y0078347D02*
X0010157Y0078347D01*
X0011155Y0079345D02*
X0003181Y0079345D01*
X0026593Y0078347D02*
X0460623Y0078347D01*
X0460405Y0078873D02*
X0461649Y0075868D01*
X0463950Y0073568D01*
X0466955Y0072323D01*
X0470208Y0072323D01*
X0473214Y0073568D01*
X0475514Y0075868D01*
X0476759Y0078873D01*
X0476759Y0082127D01*
X0475514Y0085132D01*
X0473214Y0087432D01*
X0470208Y0088677D01*
X0466955Y0088677D01*
X0463950Y0087432D01*
X0461649Y0085132D01*
X0460405Y0082127D01*
X0460405Y0078873D01*
X0460405Y0079345D02*
X0385716Y0079345D01*
X0387143Y0080344D02*
X0460405Y0080344D01*
X0460405Y0081342D02*
X0387679Y0081342D01*
X0387842Y0082341D02*
X0460493Y0082341D01*
X0460907Y0083339D02*
X0387707Y0083339D01*
X0387211Y0084338D02*
X0461320Y0084338D01*
X0461854Y0085336D02*
X0387135Y0085336D01*
X0387676Y0086335D02*
X0462852Y0086335D01*
X0463851Y0087333D02*
X0387842Y0087333D01*
X0387710Y0088332D02*
X0466121Y0088332D01*
X0471042Y0088332D02*
X0507240Y0088332D01*
X0507240Y0089330D02*
X0387219Y0089330D01*
X0385899Y0090329D02*
X0507240Y0090329D01*
X0507240Y0091327D02*
X0225915Y0091327D01*
X0226243Y0091415D02*
X0228772Y0092875D01*
X0230837Y0094940D01*
X0232297Y0097469D01*
X0233053Y0100290D01*
X0233053Y0103210D01*
X0232297Y0106031D01*
X0230837Y0108560D01*
X0228772Y0110625D01*
X0226243Y0112085D01*
X0223423Y0112841D01*
X0220502Y0112841D01*
X0217682Y0112085D01*
X0215153Y0110625D01*
X0213088Y0108560D01*
X0211628Y0106031D01*
X0210872Y0103210D01*
X0210872Y0100290D01*
X0211628Y0097469D01*
X0213088Y0094940D01*
X0215153Y0092875D01*
X0217682Y0091415D01*
X0220502Y0090659D01*
X0223423Y0090659D01*
X0226243Y0091415D01*
X0227821Y0092326D02*
X0477050Y0092326D01*
X0477358Y0092198D02*
X0478319Y0091941D01*
X0479302Y0091811D01*
X0479302Y0098898D01*
X0472216Y0098898D01*
X0472345Y0097914D01*
X0472603Y0096954D01*
X0472983Y0096035D01*
X0473481Y0095174D01*
X0474086Y0094385D01*
X0474789Y0093681D01*
X0475578Y0093076D01*
X0476439Y0092579D01*
X0477358Y0092198D01*
X0479302Y0092326D02*
X0480302Y0092326D01*
X0480302Y0091811D02*
X0481285Y0091941D01*
X0482246Y0092198D01*
X0483165Y0092579D01*
X0484026Y0093076D01*
X0484815Y0093681D01*
X0485518Y0094385D01*
X0486124Y0095174D01*
X0486621Y0096035D01*
X0487002Y0096954D01*
X0487259Y0097914D01*
X0487388Y0098898D01*
X0480302Y0098898D01*
X0480302Y0099898D01*
X0479302Y0099898D01*
X0479302Y0106984D01*
X0478319Y0106854D01*
X0477358Y0106597D01*
X0476439Y0106216D01*
X0475578Y0105719D01*
X0474789Y0105114D01*
X0474086Y0104411D01*
X0473481Y0103622D01*
X0472983Y0102760D01*
X0472603Y0101841D01*
X0472345Y0100881D01*
X0472216Y0099898D01*
X0479302Y0099898D01*
X0479302Y0098898D01*
X0480302Y0098898D01*
X0480302Y0091811D01*
X0480302Y0093324D02*
X0479302Y0093324D01*
X0479302Y0094323D02*
X0480302Y0094323D01*
X0480302Y0095321D02*
X0479302Y0095321D01*
X0479302Y0096320D02*
X0480302Y0096320D01*
X0480302Y0097318D02*
X0479302Y0097318D01*
X0479302Y0098317D02*
X0480302Y0098317D01*
X0480302Y0099315D02*
X0507240Y0099315D01*
X0507240Y0098317D02*
X0487312Y0098317D01*
X0487099Y0097318D02*
X0507240Y0097318D01*
X0507240Y0096320D02*
X0486739Y0096320D01*
X0486209Y0095321D02*
X0507240Y0095321D01*
X0507240Y0094323D02*
X0485456Y0094323D01*
X0484350Y0093324D02*
X0507240Y0093324D01*
X0507240Y0092326D02*
X0482554Y0092326D01*
X0475255Y0093324D02*
X0229221Y0093324D01*
X0230220Y0094323D02*
X0474148Y0094323D01*
X0473395Y0095321D02*
X0371541Y0095321D01*
X0371482Y0095262D02*
X0372575Y0096355D01*
X0373166Y0097783D01*
X0373166Y0099329D01*
X0372575Y0100757D01*
X0371482Y0101850D01*
X0370053Y0102442D01*
X0368508Y0102442D01*
X0367079Y0101850D01*
X0365986Y0100757D01*
X0365395Y0099329D01*
X0365395Y0097783D01*
X0365986Y0096355D01*
X0367079Y0095262D01*
X0368508Y0094670D01*
X0370053Y0094670D01*
X0371482Y0095262D01*
X0372540Y0096320D02*
X0472865Y0096320D01*
X0472505Y0097318D02*
X0372974Y0097318D01*
X0373166Y0098317D02*
X0472292Y0098317D01*
X0472271Y0100314D02*
X0372758Y0100314D01*
X0373166Y0099315D02*
X0479302Y0099315D01*
X0479302Y0100314D02*
X0480302Y0100314D01*
X0480302Y0099898D02*
X0480302Y0106984D01*
X0481285Y0106854D01*
X0482246Y0106597D01*
X0483165Y0106216D01*
X0484026Y0105719D01*
X0484815Y0105114D01*
X0485518Y0104411D01*
X0486124Y0103622D01*
X0486621Y0102760D01*
X0487002Y0101841D01*
X0487259Y0100881D01*
X0487388Y0099898D01*
X0480302Y0099898D01*
X0480302Y0101312D02*
X0479302Y0101312D01*
X0479302Y0102311D02*
X0480302Y0102311D01*
X0480302Y0103309D02*
X0479302Y0103309D01*
X0479302Y0104308D02*
X0480302Y0104308D01*
X0480302Y0105306D02*
X0479302Y0105306D01*
X0479302Y0106305D02*
X0480302Y0106305D01*
X0482951Y0106305D02*
X0507240Y0106305D01*
X0507240Y0107303D02*
X0432168Y0107303D01*
X0433166Y0108302D02*
X0507240Y0108302D01*
X0507240Y0109301D02*
X0434165Y0109301D01*
X0435163Y0110299D02*
X0507240Y0110299D01*
X0507240Y0111298D02*
X0436162Y0111298D01*
X0437160Y0112296D02*
X0507240Y0112296D01*
X0507240Y0113295D02*
X0438159Y0113295D01*
X0439157Y0114293D02*
X0507240Y0114293D01*
X0507240Y0115292D02*
X0440156Y0115292D01*
X0441154Y0116290D02*
X0444621Y0116290D01*
X0442789Y0117289D02*
X0442153Y0117289D01*
X0453379Y0116290D02*
X0469900Y0116290D01*
X0468052Y0117289D02*
X0455211Y0117289D01*
X0456657Y0118287D02*
X0466714Y0118287D01*
X0465691Y0119286D02*
X0457656Y0119286D01*
X0458578Y0120284D02*
X0464883Y0120284D01*
X0464237Y0121283D02*
X0459155Y0121283D01*
X0459731Y0122281D02*
X0463718Y0122281D01*
X0463305Y0123280D02*
X0460161Y0123280D01*
X0460428Y0124278D02*
X0462985Y0124278D01*
X0462757Y0125277D02*
X0460696Y0125277D01*
X0460841Y0126275D02*
X0462635Y0126275D01*
X0462613Y0128272D02*
X0460841Y0128272D01*
X0460841Y0127274D02*
X0474125Y0127274D01*
X0474125Y0126275D02*
X0475125Y0126275D01*
X0475125Y0125277D02*
X0474125Y0125277D01*
X0474125Y0124278D02*
X0475125Y0124278D01*
X0475125Y0123280D02*
X0474125Y0123280D01*
X0474125Y0122281D02*
X0475125Y0122281D01*
X0475125Y0121283D02*
X0474125Y0121283D01*
X0474125Y0120284D02*
X0475125Y0120284D01*
X0475125Y0119286D02*
X0474125Y0119286D01*
X0474125Y0118287D02*
X0475125Y0118287D01*
X0475125Y0117289D02*
X0474125Y0117289D01*
X0474125Y0116290D02*
X0475125Y0116290D01*
X0479350Y0116290D02*
X0491775Y0116290D01*
X0489927Y0117289D02*
X0481198Y0117289D01*
X0482536Y0118287D02*
X0488589Y0118287D01*
X0487566Y0119286D02*
X0483559Y0119286D01*
X0484367Y0120284D02*
X0486758Y0120284D01*
X0486112Y0121283D02*
X0485013Y0121283D01*
X0485532Y0122281D02*
X0485593Y0122281D01*
X0496000Y0122281D02*
X0497000Y0122281D01*
X0497000Y0121283D02*
X0496000Y0121283D01*
X0496000Y0120284D02*
X0497000Y0120284D01*
X0497000Y0119286D02*
X0496000Y0119286D01*
X0496000Y0118287D02*
X0497000Y0118287D01*
X0497000Y0117289D02*
X0496000Y0117289D01*
X0496000Y0116290D02*
X0497000Y0116290D01*
X0501225Y0116290D02*
X0507240Y0116290D01*
X0507240Y0117289D02*
X0503073Y0117289D01*
X0504411Y0118287D02*
X0507240Y0118287D01*
X0507240Y0119286D02*
X0505434Y0119286D01*
X0506242Y0120284D02*
X0507240Y0120284D01*
X0507240Y0121283D02*
X0506888Y0121283D01*
X0497000Y0123280D02*
X0496000Y0123280D01*
X0496000Y0124278D02*
X0497000Y0124278D01*
X0497000Y0125277D02*
X0496000Y0125277D01*
X0496000Y0126275D02*
X0497000Y0126275D01*
X0496000Y0127274D02*
X0475125Y0127274D01*
X0463620Y0132266D02*
X0459848Y0132266D01*
X0460215Y0131268D02*
X0463234Y0131268D01*
X0462939Y0130269D02*
X0460483Y0130269D01*
X0460750Y0129271D02*
X0462725Y0129271D01*
X0464109Y0133265D02*
X0459272Y0133265D01*
X0458695Y0134263D02*
X0464737Y0134263D01*
X0465518Y0135262D02*
X0457858Y0135262D01*
X0456860Y0136260D02*
X0466487Y0136260D01*
X0467730Y0137259D02*
X0455562Y0137259D01*
X0386343Y0114293D02*
X0370409Y0114293D01*
X0370237Y0114349D02*
X0369780Y0114421D01*
X0369780Y0110867D01*
X0368781Y0110867D01*
X0368781Y0114421D01*
X0368324Y0114349D01*
X0367713Y0114151D01*
X0367141Y0113859D01*
X0366621Y0113481D01*
X0366166Y0113027D01*
X0365789Y0112507D01*
X0365497Y0111934D01*
X0365298Y0111323D01*
X0365226Y0110867D01*
X0368780Y0110867D01*
X0368780Y0109867D01*
X0365226Y0109867D01*
X0365298Y0109411D01*
X0365497Y0108800D01*
X0365789Y0108227D01*
X0366166Y0107707D01*
X0366621Y0107253D01*
X0367141Y0106875D01*
X0367713Y0106584D01*
X0368324Y0106385D01*
X0368781Y0106313D01*
X0368781Y0109867D01*
X0369780Y0109867D01*
X0369780Y0106313D01*
X0370237Y0106385D01*
X0370848Y0106584D01*
X0371420Y0106875D01*
X0371940Y0107253D01*
X0372395Y0107707D01*
X0372772Y0108227D01*
X0373064Y0108800D01*
X0373263Y0109411D01*
X0373335Y0109867D01*
X0369781Y0109867D01*
X0369781Y0110867D01*
X0373335Y0110867D01*
X0373263Y0111323D01*
X0373064Y0111934D01*
X0372772Y0112507D01*
X0372395Y0113027D01*
X0371940Y0113481D01*
X0371420Y0113859D01*
X0370848Y0114151D01*
X0370237Y0114349D01*
X0369780Y0114293D02*
X0368781Y0114293D01*
X0368152Y0114293D02*
X0360881Y0114293D01*
X0360762Y0114362D02*
X0360434Y0114450D01*
X0357969Y0114450D01*
X0357969Y0110867D01*
X0356969Y0110867D01*
X0356969Y0109867D01*
X0353387Y0109867D01*
X0353387Y0107402D01*
X0353475Y0107075D01*
X0353644Y0106781D01*
X0353884Y0106542D01*
X0354177Y0106372D01*
X0354505Y0106284D01*
X0356969Y0106284D01*
X0356969Y0109867D01*
X0357969Y0109867D01*
X0357969Y0106284D01*
X0360434Y0106284D01*
X0360762Y0106372D01*
X0361055Y0106542D01*
X0361295Y0106781D01*
X0361464Y0107075D01*
X0361552Y0107402D01*
X0361552Y0109867D01*
X0357970Y0109867D01*
X0357970Y0110867D01*
X0361552Y0110867D01*
X0361552Y0113332D01*
X0361464Y0113659D01*
X0361295Y0113953D01*
X0361055Y0114193D01*
X0360762Y0114362D01*
X0361552Y0113295D02*
X0366434Y0113295D01*
X0365681Y0112296D02*
X0361552Y0112296D01*
X0361552Y0111298D02*
X0365294Y0111298D01*
X0365334Y0109301D02*
X0361552Y0109301D01*
X0361552Y0108302D02*
X0365751Y0108302D01*
X0366570Y0107303D02*
X0361526Y0107303D01*
X0360511Y0106305D02*
X0476653Y0106305D01*
X0475040Y0105306D02*
X0339076Y0105306D01*
X0339076Y0106305D02*
X0354428Y0106305D01*
X0353413Y0107303D02*
X0338903Y0107303D01*
X0338490Y0108302D02*
X0353387Y0108302D01*
X0353387Y0109301D02*
X0337823Y0109301D01*
X0336824Y0110299D02*
X0356969Y0110299D01*
X0356969Y0110867D02*
X0353387Y0110867D01*
X0353387Y0113332D01*
X0353475Y0113659D01*
X0353644Y0113953D01*
X0353884Y0114193D01*
X0354177Y0114362D01*
X0354505Y0114450D01*
X0356969Y0114450D01*
X0356969Y0110867D01*
X0356969Y0111298D02*
X0357969Y0111298D01*
X0357969Y0112296D02*
X0356969Y0112296D01*
X0356969Y0113295D02*
X0357969Y0113295D01*
X0357969Y0114293D02*
X0356969Y0114293D01*
X0354058Y0114293D02*
X0316586Y0114293D01*
X0316586Y0115292D02*
X0385344Y0115292D01*
X0384346Y0116290D02*
X0316586Y0116290D01*
X0316586Y0117289D02*
X0383347Y0117289D01*
X0382349Y0118287D02*
X0316503Y0118287D01*
X0315926Y0119286D02*
X0381350Y0119286D01*
X0380352Y0120284D02*
X0366081Y0120284D01*
X0368012Y0121283D02*
X0379353Y0121283D01*
X0378355Y0122281D02*
X0369010Y0122281D01*
X0369890Y0123280D02*
X0377356Y0123280D01*
X0376357Y0124278D02*
X0370304Y0124278D01*
X0370718Y0125277D02*
X0375359Y0125277D01*
X0374360Y0126275D02*
X0370962Y0126275D01*
X0370962Y0127274D02*
X0373362Y0127274D01*
X0372363Y0128272D02*
X0370962Y0128272D01*
X0370801Y0129271D02*
X0371365Y0129271D01*
X0355788Y0128272D02*
X0355012Y0128272D01*
X0355788Y0127274D02*
X0337327Y0127274D01*
X0337728Y0126275D02*
X0355788Y0126275D01*
X0356032Y0125277D02*
X0337728Y0125277D01*
X0337555Y0124278D02*
X0356446Y0124278D01*
X0356860Y0123280D02*
X0337142Y0123280D01*
X0336184Y0122281D02*
X0357740Y0122281D01*
X0358738Y0121283D02*
X0317684Y0121283D01*
X0318568Y0122281D02*
X0331186Y0122281D01*
X0330228Y0123280D02*
X0319140Y0123280D01*
X0319464Y0124278D02*
X0329815Y0124278D01*
X0329642Y0125277D02*
X0314500Y0125277D01*
X0313500Y0125277D02*
X0298358Y0125277D01*
X0298358Y0126275D02*
X0308466Y0126275D01*
X0308701Y0127274D02*
X0297957Y0127274D01*
X0298185Y0124278D02*
X0308536Y0124278D01*
X0308860Y0123280D02*
X0297772Y0123280D01*
X0296814Y0122281D02*
X0307967Y0122281D01*
X0306969Y0121283D02*
X0265809Y0121283D01*
X0266693Y0122281D02*
X0279311Y0122281D01*
X0278353Y0123280D02*
X0267265Y0123280D01*
X0267589Y0124278D02*
X0277940Y0124278D01*
X0277767Y0125277D02*
X0262625Y0125277D01*
X0261625Y0125277D02*
X0246483Y0125277D01*
X0246483Y0126275D02*
X0256591Y0126275D01*
X0256826Y0127274D02*
X0246082Y0127274D01*
X0246310Y0124278D02*
X0256661Y0124278D01*
X0256985Y0123280D02*
X0245897Y0123280D01*
X0244939Y0122281D02*
X0256092Y0122281D01*
X0255094Y0121283D02*
X0187906Y0121283D01*
X0188147Y0120284D02*
X0254853Y0120284D01*
X0254853Y0119286D02*
X0188147Y0119286D01*
X0187949Y0118287D02*
X0255051Y0118287D01*
X0254853Y0117289D02*
X0188147Y0117289D01*
X0188147Y0116290D02*
X0254853Y0116290D01*
X0255769Y0115292D02*
X0187231Y0115292D01*
X0184519Y0115292D02*
X0174086Y0115292D01*
X0174086Y0114293D02*
X0259539Y0114293D01*
X0259539Y0115292D02*
X0258481Y0115292D01*
X0264711Y0115292D02*
X0307644Y0115292D01*
X0306728Y0116290D02*
X0264711Y0116290D01*
X0264711Y0117289D02*
X0306728Y0117289D01*
X0306926Y0118287D02*
X0264628Y0118287D01*
X0264051Y0119286D02*
X0306728Y0119286D01*
X0306728Y0120284D02*
X0264153Y0120284D01*
X0264711Y0114293D02*
X0311414Y0114293D01*
X0311414Y0115292D02*
X0310356Y0115292D01*
X0300100Y0113295D02*
X0276025Y0113295D01*
X0277720Y0112296D02*
X0298405Y0112296D01*
X0297407Y0111298D02*
X0278718Y0111298D01*
X0284949Y0110299D02*
X0291176Y0110299D01*
X0290177Y0109301D02*
X0285948Y0109301D01*
X0286615Y0108302D02*
X0289510Y0108302D01*
X0289097Y0107303D02*
X0287028Y0107303D01*
X0287201Y0106305D02*
X0288924Y0106305D01*
X0288924Y0105306D02*
X0287201Y0105306D01*
X0287020Y0104308D02*
X0289104Y0104308D01*
X0289518Y0103309D02*
X0286607Y0103309D01*
X0285929Y0102311D02*
X0290196Y0102311D01*
X0291194Y0101312D02*
X0284931Y0101312D01*
X0278689Y0101312D02*
X0275088Y0101312D01*
X0276087Y0102311D02*
X0277691Y0102311D01*
X0277013Y0103309D02*
X0276764Y0103309D01*
X0268847Y0101312D02*
X0255403Y0101312D01*
X0256402Y0102311D02*
X0260019Y0102311D01*
X0259835Y0102387D02*
X0261321Y0101772D01*
X0262929Y0101772D01*
X0264415Y0102387D01*
X0265553Y0103525D01*
X0266168Y0105011D01*
X0266168Y0106619D01*
X0265553Y0108105D01*
X0264415Y0109243D01*
X0262929Y0109858D01*
X0261321Y0109858D01*
X0259835Y0109243D01*
X0258697Y0108105D01*
X0258082Y0106619D01*
X0258082Y0105011D01*
X0258697Y0103525D01*
X0259835Y0102387D01*
X0258912Y0103309D02*
X0257079Y0103309D01*
X0257493Y0104308D02*
X0258373Y0104308D01*
X0258082Y0105306D02*
X0257673Y0105306D01*
X0257673Y0106305D02*
X0258082Y0106305D01*
X0258365Y0107303D02*
X0257501Y0107303D01*
X0257087Y0108302D02*
X0258894Y0108302D01*
X0259974Y0109301D02*
X0256420Y0109301D01*
X0264276Y0109301D02*
X0267830Y0109301D01*
X0267163Y0108302D02*
X0265356Y0108302D01*
X0265885Y0107303D02*
X0266749Y0107303D01*
X0266577Y0106305D02*
X0266168Y0106305D01*
X0266168Y0105306D02*
X0266577Y0105306D01*
X0266757Y0104308D02*
X0265877Y0104308D01*
X0265338Y0103309D02*
X0267171Y0103309D01*
X0267848Y0102311D02*
X0264231Y0102311D01*
X0249162Y0101312D02*
X0245561Y0101312D01*
X0246559Y0102311D02*
X0248163Y0102311D01*
X0247486Y0103309D02*
X0247237Y0103309D01*
X0239319Y0101312D02*
X0233053Y0101312D01*
X0233053Y0100314D02*
X0353992Y0100314D01*
X0354175Y0100757D02*
X0353584Y0099329D01*
X0353584Y0097783D01*
X0354175Y0096355D01*
X0355268Y0095262D01*
X0356697Y0094670D01*
X0358242Y0094670D01*
X0359671Y0095262D01*
X0360764Y0096355D01*
X0361355Y0097783D01*
X0361355Y0099329D01*
X0360764Y0100757D01*
X0359671Y0101850D01*
X0358242Y0102442D01*
X0356697Y0102442D01*
X0355268Y0101850D01*
X0354175Y0100757D01*
X0354730Y0101312D02*
X0336806Y0101312D01*
X0337804Y0102311D02*
X0356380Y0102311D01*
X0358559Y0102311D02*
X0368191Y0102311D01*
X0366541Y0101312D02*
X0360209Y0101312D01*
X0360947Y0100314D02*
X0365803Y0100314D01*
X0365395Y0099315D02*
X0361355Y0099315D01*
X0361355Y0098317D02*
X0365395Y0098317D01*
X0365587Y0097318D02*
X0361163Y0097318D01*
X0360729Y0096320D02*
X0366021Y0096320D01*
X0367020Y0095321D02*
X0359730Y0095321D01*
X0355209Y0095321D02*
X0231057Y0095321D01*
X0231634Y0096320D02*
X0354210Y0096320D01*
X0353776Y0097318D02*
X0232210Y0097318D01*
X0232524Y0098317D02*
X0353584Y0098317D01*
X0353584Y0099315D02*
X0232792Y0099315D01*
X0233053Y0102311D02*
X0238321Y0102311D01*
X0237643Y0103309D02*
X0233027Y0103309D01*
X0232759Y0104308D02*
X0237229Y0104308D01*
X0237049Y0105306D02*
X0232491Y0105306D01*
X0232139Y0106305D02*
X0237049Y0106305D01*
X0237222Y0107303D02*
X0231563Y0107303D01*
X0230986Y0108302D02*
X0237635Y0108302D01*
X0238302Y0109301D02*
X0230096Y0109301D01*
X0229098Y0110299D02*
X0239301Y0110299D01*
X0245532Y0111298D02*
X0227607Y0111298D01*
X0225455Y0112296D02*
X0246530Y0112296D01*
X0248225Y0113295D02*
X0174086Y0113295D01*
X0174086Y0112296D02*
X0218470Y0112296D01*
X0216318Y0111298D02*
X0191906Y0111298D01*
X0191802Y0111402D02*
X0190041Y0112131D01*
X0188136Y0112131D01*
X0186375Y0111402D01*
X0185027Y0110054D01*
X0184298Y0108293D01*
X0184298Y0106388D01*
X0185027Y0104627D01*
X0186375Y0103279D01*
X0188136Y0102550D01*
X0190041Y0102550D01*
X0191802Y0103279D01*
X0193150Y0104627D01*
X0193879Y0106388D01*
X0193879Y0108293D01*
X0193150Y0110054D01*
X0191802Y0111402D01*
X0192905Y0110299D02*
X0214827Y0110299D01*
X0213829Y0109301D02*
X0193462Y0109301D01*
X0193876Y0108302D02*
X0212939Y0108302D01*
X0212363Y0107303D02*
X0193879Y0107303D01*
X0193845Y0106305D02*
X0211786Y0106305D01*
X0211434Y0105306D02*
X0193431Y0105306D01*
X0192831Y0104308D02*
X0211166Y0104308D01*
X0210899Y0103309D02*
X0191832Y0103309D01*
X0193608Y0100950D02*
X0191847Y0100221D01*
X0190500Y0098873D01*
X0189770Y0097112D01*
X0189770Y0095207D01*
X0190500Y0093446D01*
X0191847Y0092098D01*
X0193608Y0091369D01*
X0195514Y0091369D01*
X0197275Y0092098D01*
X0198622Y0093446D01*
X0199352Y0095207D01*
X0199352Y0097112D01*
X0198622Y0098873D01*
X0197275Y0100221D01*
X0195514Y0100950D01*
X0193608Y0100950D01*
X0192073Y0100314D02*
X0186144Y0100314D01*
X0186369Y0100221D02*
X0184608Y0100950D01*
X0182703Y0100950D01*
X0180942Y0100221D01*
X0179594Y0098873D01*
X0178865Y0097112D01*
X0178865Y0095207D01*
X0179594Y0093446D01*
X0180942Y0092098D01*
X0182703Y0091369D01*
X0184608Y0091369D01*
X0186369Y0092098D01*
X0187717Y0093446D01*
X0188446Y0095207D01*
X0188446Y0097112D01*
X0187717Y0098873D01*
X0186369Y0100221D01*
X0187274Y0099315D02*
X0190942Y0099315D01*
X0190269Y0098317D02*
X0187947Y0098317D01*
X0188361Y0097318D02*
X0189856Y0097318D01*
X0189770Y0096320D02*
X0188446Y0096320D01*
X0188446Y0095321D02*
X0189770Y0095321D01*
X0190137Y0094323D02*
X0188080Y0094323D01*
X0187595Y0093324D02*
X0190621Y0093324D01*
X0191620Y0092326D02*
X0186597Y0092326D01*
X0180714Y0092326D02*
X0175959Y0092326D01*
X0176855Y0093324D02*
X0179716Y0093324D01*
X0179231Y0094323D02*
X0177397Y0094323D01*
X0177667Y0095321D02*
X0178865Y0095321D01*
X0178865Y0096320D02*
X0173250Y0096320D01*
X0173250Y0097318D02*
X0172250Y0097318D01*
X0172250Y0096320D02*
X0166635Y0096320D01*
X0166635Y0095321D02*
X0167833Y0095321D01*
X0167885Y0094992D02*
X0168128Y0094245D01*
X0168484Y0093545D01*
X0168946Y0092910D01*
X0169501Y0092355D01*
X0170136Y0091894D01*
X0170835Y0091537D01*
X0171582Y0091295D01*
X0172250Y0091189D01*
X0172250Y0095659D01*
X0167780Y0095659D01*
X0167885Y0094992D01*
X0168103Y0094323D02*
X0166269Y0094323D01*
X0165784Y0093324D02*
X0168645Y0093324D01*
X0169541Y0092326D02*
X0164786Y0092326D01*
X0158903Y0092326D02*
X0155730Y0092326D01*
X0155730Y0092008D02*
X0155091Y0091369D01*
X0146787Y0091369D01*
X0146148Y0092008D01*
X0146148Y0100311D01*
X0146787Y0100950D01*
X0155091Y0100950D01*
X0155730Y0100311D01*
X0155730Y0092008D01*
X0155730Y0093324D02*
X0157905Y0093324D01*
X0157420Y0094323D02*
X0155730Y0094323D01*
X0155730Y0095321D02*
X0157054Y0095321D01*
X0157054Y0096320D02*
X0155730Y0096320D01*
X0155730Y0097318D02*
X0157139Y0097318D01*
X0157553Y0098317D02*
X0155730Y0098317D01*
X0155730Y0099315D02*
X0158226Y0099315D01*
X0159356Y0100314D02*
X0155727Y0100314D01*
X0155911Y0102370D02*
X0155911Y0106840D01*
X0156911Y0106840D01*
X0156911Y0102370D01*
X0157579Y0102476D01*
X0158326Y0102719D01*
X0159025Y0103075D01*
X0159660Y0103536D01*
X0160216Y0104091D01*
X0160677Y0104727D01*
X0161033Y0105426D01*
X0161276Y0106173D01*
X0161382Y0106841D01*
X0156911Y0106841D01*
X0156911Y0107841D01*
X0155911Y0107841D01*
X0155911Y0112311D01*
X0155244Y0112205D01*
X0154497Y0111963D01*
X0153797Y0111606D01*
X0153162Y0111145D01*
X0152607Y0110590D01*
X0152146Y0109955D01*
X0151789Y0109255D01*
X0151547Y0108508D01*
X0151441Y0107841D01*
X0155911Y0107841D01*
X0155911Y0106841D01*
X0151441Y0106841D01*
X0151547Y0106173D01*
X0151789Y0105426D01*
X0152146Y0104727D01*
X0152607Y0104091D01*
X0153162Y0103536D01*
X0153797Y0103075D01*
X0154497Y0102719D01*
X0155244Y0102476D01*
X0155911Y0102370D01*
X0155911Y0103309D02*
X0156911Y0103309D01*
X0156911Y0104308D02*
X0155911Y0104308D01*
X0155911Y0105306D02*
X0156911Y0105306D01*
X0156911Y0106305D02*
X0155911Y0106305D01*
X0155911Y0107303D02*
X0133137Y0107303D01*
X0133714Y0106305D02*
X0151526Y0106305D01*
X0151850Y0105306D02*
X0134066Y0105306D01*
X0134334Y0104308D02*
X0152450Y0104308D01*
X0153475Y0103309D02*
X0134601Y0103309D01*
X0134628Y0102311D02*
X0165605Y0102311D01*
X0164607Y0101312D02*
X0134628Y0101312D01*
X0134628Y0100314D02*
X0146151Y0100314D01*
X0146148Y0099315D02*
X0134367Y0099315D01*
X0134099Y0098317D02*
X0146148Y0098317D01*
X0146148Y0097318D02*
X0133785Y0097318D01*
X0133209Y0096320D02*
X0146148Y0096320D01*
X0146148Y0095321D02*
X0132632Y0095321D01*
X0131795Y0094323D02*
X0146148Y0094323D01*
X0146148Y0093324D02*
X0130796Y0093324D01*
X0129395Y0092326D02*
X0146148Y0092326D01*
X0127490Y0091327D02*
X0171482Y0091327D01*
X0172250Y0091327D02*
X0173250Y0091327D01*
X0174018Y0091327D02*
X0218010Y0091327D01*
X0216105Y0092326D02*
X0197502Y0092326D01*
X0198501Y0093324D02*
X0214704Y0093324D01*
X0213705Y0094323D02*
X0198986Y0094323D01*
X0199352Y0095321D02*
X0212868Y0095321D01*
X0212291Y0096320D02*
X0199352Y0096320D01*
X0199266Y0097318D02*
X0211715Y0097318D01*
X0211401Y0098317D02*
X0198853Y0098317D01*
X0198180Y0099315D02*
X0211133Y0099315D01*
X0210872Y0100314D02*
X0197050Y0100314D01*
X0186345Y0103309D02*
X0180927Y0103309D01*
X0181925Y0104308D02*
X0185346Y0104308D01*
X0184746Y0105306D02*
X0182526Y0105306D01*
X0182939Y0106305D02*
X0184332Y0106305D01*
X0184298Y0107303D02*
X0182974Y0107303D01*
X0182970Y0108302D02*
X0184302Y0108302D01*
X0184715Y0109301D02*
X0182556Y0109301D01*
X0181999Y0110299D02*
X0185272Y0110299D01*
X0186271Y0111298D02*
X0181001Y0111298D01*
X0175365Y0111298D02*
X0174086Y0111298D01*
X0174086Y0110299D02*
X0174367Y0110299D01*
X0168906Y0112296D02*
X0157005Y0112296D01*
X0156911Y0112296D02*
X0155911Y0112296D01*
X0155818Y0112296D02*
X0127030Y0112296D01*
X0129182Y0111298D02*
X0153373Y0111298D01*
X0152396Y0110299D02*
X0130673Y0110299D01*
X0131671Y0109301D02*
X0151813Y0109301D01*
X0151514Y0108302D02*
X0132561Y0108302D01*
X0113361Y0106305D02*
X0080586Y0106305D01*
X0081584Y0105306D02*
X0113009Y0105306D01*
X0112741Y0104308D02*
X0082583Y0104308D01*
X0083581Y0103309D02*
X0112473Y0103309D01*
X0112447Y0102311D02*
X0084580Y0102311D01*
X0085578Y0101312D02*
X0112447Y0101312D01*
X0112447Y0100314D02*
X0086577Y0100314D01*
X0087575Y0099315D02*
X0112708Y0099315D01*
X0112976Y0098317D02*
X0088574Y0098317D01*
X0089572Y0097318D02*
X0113290Y0097318D01*
X0113866Y0096320D02*
X0090571Y0096320D01*
X0091569Y0095321D02*
X0114443Y0095321D01*
X0115280Y0094323D02*
X0092568Y0094323D01*
X0093566Y0093324D02*
X0116279Y0093324D01*
X0117679Y0092326D02*
X0094565Y0092326D01*
X0095563Y0091327D02*
X0119585Y0091327D01*
X0097560Y0089330D02*
X0382031Y0089330D01*
X0383351Y0090329D02*
X0096562Y0090329D01*
X0088274Y0086335D02*
X0086123Y0086335D01*
X0086956Y0085336D02*
X0089273Y0085336D01*
X0090271Y0084338D02*
X0086956Y0084338D01*
X0086725Y0083339D02*
X0091270Y0083339D01*
X0092268Y0082341D02*
X0086956Y0082341D01*
X0086956Y0081342D02*
X0093267Y0081342D01*
X0086801Y0080344D02*
X0382107Y0080344D01*
X0383534Y0079345D02*
X0085803Y0079345D01*
X0083447Y0079345D02*
X0028377Y0079345D01*
X0029376Y0080344D02*
X0082449Y0080344D01*
X0083127Y0086335D02*
X0051685Y0086335D01*
X0051109Y0087333D02*
X0087276Y0087333D01*
X0084280Y0090329D02*
X0003181Y0090329D01*
X0003181Y0091327D02*
X0083282Y0091327D01*
X0044091Y0088262D02*
X0044091Y0088262D01*
X0021734Y0092326D02*
X0015016Y0092326D01*
X0014968Y0092279D02*
X0017221Y0094532D01*
X0017221Y0097718D01*
X0014968Y0099971D01*
X0011782Y0099971D01*
X0009529Y0097718D01*
X0009529Y0094532D01*
X0011782Y0092279D01*
X0014968Y0092279D01*
X0016014Y0093324D02*
X0020736Y0093324D01*
X0019737Y0094323D02*
X0017013Y0094323D01*
X0017221Y0095321D02*
X0019529Y0095321D01*
X0019529Y0096320D02*
X0017221Y0096320D01*
X0017221Y0097318D02*
X0019529Y0097318D01*
X0020127Y0098317D02*
X0016623Y0098317D01*
X0016945Y0099315D02*
X0015624Y0099315D01*
X0015947Y0100314D02*
X0003181Y0100314D01*
X0003181Y0101312D02*
X0014948Y0101312D01*
X0011749Y0102311D02*
X0003181Y0102311D01*
X0003181Y0103309D02*
X0010751Y0103309D01*
X0009752Y0104308D02*
X0003181Y0104308D01*
X0003181Y0105306D02*
X0009529Y0105306D01*
X0009529Y0106305D02*
X0003181Y0106305D01*
X0003181Y0107303D02*
X0009529Y0107303D01*
X0010112Y0108302D02*
X0003181Y0108302D01*
X0003181Y0109301D02*
X0011111Y0109301D01*
X0015639Y0109301D02*
X0020832Y0109301D01*
X0019834Y0108302D02*
X0016638Y0108302D01*
X0017221Y0107303D02*
X0019332Y0107303D01*
X0019332Y0105306D02*
X0017433Y0105306D01*
X0017221Y0106305D02*
X0022891Y0106305D01*
X0023859Y0106305D02*
X0027816Y0106305D01*
X0027418Y0107303D02*
X0028814Y0107303D01*
X0029813Y0108302D02*
X0026916Y0108302D01*
X0025918Y0109301D02*
X0030811Y0109301D01*
X0031810Y0110299D02*
X0003181Y0110299D01*
X0014986Y0112296D02*
X0021764Y0112296D01*
X0020766Y0113295D02*
X0015984Y0113295D01*
X0016983Y0114293D02*
X0019767Y0114293D01*
X0019529Y0115292D02*
X0017221Y0115292D01*
X0017221Y0116290D02*
X0019529Y0116290D01*
X0019529Y0117289D02*
X0017221Y0117289D01*
X0016653Y0118287D02*
X0020097Y0118287D01*
X0021096Y0119286D02*
X0015654Y0119286D01*
X0003181Y0127274D02*
X0183159Y0127274D01*
X0184158Y0128272D02*
X0100714Y0128272D01*
X0101291Y0129271D02*
X0185156Y0129271D01*
X0186155Y0130269D02*
X0101291Y0130269D01*
X0101291Y0131268D02*
X0187153Y0131268D01*
X0188152Y0132266D02*
X0101291Y0132266D01*
X0101291Y0133265D02*
X0238924Y0133265D01*
X0238511Y0134263D02*
X0101291Y0134263D01*
X0101291Y0135262D02*
X0238397Y0135262D01*
X0238444Y0136260D02*
X0101291Y0136260D01*
X0101183Y0137259D02*
X0238857Y0137259D01*
X0238798Y0127274D02*
X0189638Y0127274D01*
X0188640Y0126275D02*
X0238397Y0126275D01*
X0238397Y0125277D02*
X0187641Y0125277D01*
X0186642Y0124278D02*
X0238570Y0124278D01*
X0238983Y0123280D02*
X0185644Y0123280D01*
X0184842Y0122281D02*
X0184645Y0122281D01*
X0183844Y0121283D02*
X0049272Y0121283D01*
X0048273Y0120284D02*
X0170377Y0120284D01*
X0169574Y0119286D02*
X0047275Y0119286D01*
X0044911Y0128272D02*
X0003181Y0128272D01*
X0003181Y0129271D02*
X0043176Y0129271D01*
X0042319Y0130269D02*
X0003181Y0130269D01*
X0003181Y0131268D02*
X0041819Y0131268D01*
X0041567Y0132266D02*
X0003181Y0132266D01*
X0067604Y0128272D02*
X0075396Y0128272D01*
X0073454Y0129271D02*
X0069546Y0129271D01*
X0070544Y0130269D02*
X0072456Y0130269D01*
X0072032Y0131268D02*
X0070968Y0131268D01*
X0071291Y0132266D02*
X0071709Y0132266D01*
X0071709Y0133265D02*
X0071291Y0133265D01*
X0071162Y0134263D02*
X0071838Y0134263D01*
X0072252Y0135262D02*
X0070748Y0135262D01*
X0070015Y0136260D02*
X0072985Y0136260D01*
X0074263Y0137259D02*
X0068737Y0137259D01*
X0078737Y0137259D02*
X0084263Y0137259D01*
X0082985Y0136260D02*
X0080015Y0136260D01*
X0080748Y0135262D02*
X0082252Y0135262D01*
X0081838Y0134263D02*
X0081162Y0134263D01*
X0081291Y0133265D02*
X0081709Y0133265D01*
X0081709Y0132266D02*
X0081291Y0132266D01*
X0080968Y0131268D02*
X0082032Y0131268D01*
X0082456Y0130269D02*
X0080544Y0130269D01*
X0079546Y0129271D02*
X0083454Y0129271D01*
X0085396Y0128272D02*
X0077604Y0128272D01*
X0087604Y0128272D02*
X0092285Y0128272D01*
X0091709Y0129271D02*
X0089546Y0129271D01*
X0090544Y0130269D02*
X0091709Y0130269D01*
X0091709Y0131268D02*
X0090968Y0131268D01*
X0091291Y0132266D02*
X0091709Y0132266D01*
X0091709Y0133265D02*
X0091291Y0133265D01*
X0091162Y0134263D02*
X0091709Y0134263D01*
X0091709Y0135262D02*
X0090748Y0135262D01*
X0090015Y0136260D02*
X0091709Y0136260D01*
X0091817Y0137259D02*
X0088737Y0137259D01*
X0155911Y0111298D02*
X0156911Y0111298D01*
X0156911Y0110299D02*
X0155911Y0110299D01*
X0155911Y0109301D02*
X0156911Y0109301D01*
X0156911Y0108302D02*
X0155911Y0108302D01*
X0156911Y0107841D02*
X0156911Y0112311D01*
X0157579Y0112205D01*
X0158326Y0111963D01*
X0159025Y0111606D01*
X0159660Y0111145D01*
X0160216Y0110590D01*
X0160677Y0109955D01*
X0161033Y0109255D01*
X0161276Y0108508D01*
X0161382Y0107841D01*
X0156911Y0107841D01*
X0156911Y0107303D02*
X0162526Y0107303D01*
X0162561Y0106305D02*
X0161297Y0106305D01*
X0160972Y0105306D02*
X0162974Y0105306D01*
X0163575Y0104308D02*
X0160373Y0104308D01*
X0159348Y0103309D02*
X0164573Y0103309D01*
X0173038Y0101312D02*
X0210872Y0101312D01*
X0210872Y0102311D02*
X0173615Y0102311D01*
X0174086Y0103309D02*
X0175439Y0103309D01*
X0174441Y0104308D02*
X0174086Y0104308D01*
X0173250Y0100314D02*
X0172250Y0100314D01*
X0172250Y0099315D02*
X0173250Y0099315D01*
X0173250Y0098317D02*
X0172250Y0098317D01*
X0168878Y0099315D02*
X0167391Y0099315D01*
X0168252Y0098317D02*
X0166393Y0098317D01*
X0166550Y0097318D02*
X0167884Y0097318D01*
X0172250Y0095321D02*
X0173250Y0095321D01*
X0173250Y0094323D02*
X0172250Y0094323D01*
X0172250Y0093324D02*
X0173250Y0093324D01*
X0173250Y0092326D02*
X0172250Y0092326D01*
X0177616Y0097318D02*
X0178950Y0097318D01*
X0179364Y0098317D02*
X0177248Y0098317D01*
X0176622Y0099315D02*
X0180037Y0099315D01*
X0181167Y0100314D02*
X0175517Y0100314D01*
X0162530Y0108302D02*
X0161309Y0108302D01*
X0161010Y0109301D02*
X0162944Y0109301D01*
X0163501Y0110299D02*
X0160427Y0110299D01*
X0159450Y0111298D02*
X0164499Y0111298D01*
X0186908Y0122281D02*
X0239941Y0122281D01*
X0267424Y0127274D02*
X0278168Y0127274D01*
X0277767Y0126275D02*
X0267659Y0126275D01*
X0284309Y0122281D02*
X0291816Y0122281D01*
X0290858Y0123280D02*
X0285267Y0123280D01*
X0285680Y0124278D02*
X0290445Y0124278D01*
X0290272Y0125277D02*
X0285853Y0125277D01*
X0285853Y0126275D02*
X0290272Y0126275D01*
X0290673Y0127274D02*
X0285452Y0127274D01*
X0316028Y0120284D02*
X0360669Y0120284D01*
X0353387Y0113295D02*
X0327900Y0113295D01*
X0329595Y0112296D02*
X0353387Y0112296D01*
X0353387Y0111298D02*
X0330593Y0111298D01*
X0319705Y0109301D02*
X0316151Y0109301D01*
X0316290Y0109243D02*
X0314804Y0109858D01*
X0313196Y0109858D01*
X0311710Y0109243D01*
X0310572Y0108105D01*
X0309957Y0106619D01*
X0309957Y0105011D01*
X0310572Y0103525D01*
X0311710Y0102387D01*
X0313196Y0101772D01*
X0314804Y0101772D01*
X0316290Y0102387D01*
X0317428Y0103525D01*
X0318043Y0105011D01*
X0318043Y0106619D01*
X0317428Y0108105D01*
X0316290Y0109243D01*
X0317231Y0108302D02*
X0319038Y0108302D01*
X0318624Y0107303D02*
X0317760Y0107303D01*
X0318043Y0106305D02*
X0318452Y0106305D01*
X0318452Y0105306D02*
X0318043Y0105306D01*
X0317752Y0104308D02*
X0318632Y0104308D01*
X0319046Y0103309D02*
X0317213Y0103309D01*
X0316106Y0102311D02*
X0319723Y0102311D01*
X0320722Y0101312D02*
X0307278Y0101312D01*
X0308277Y0102311D02*
X0311894Y0102311D01*
X0310787Y0103309D02*
X0308954Y0103309D01*
X0309368Y0104308D02*
X0310248Y0104308D01*
X0309957Y0105306D02*
X0309548Y0105306D01*
X0309548Y0106305D02*
X0309957Y0106305D01*
X0310240Y0107303D02*
X0309376Y0107303D01*
X0308962Y0108302D02*
X0310769Y0108302D01*
X0311849Y0109301D02*
X0308295Y0109301D01*
X0299361Y0103309D02*
X0299112Y0103309D01*
X0298434Y0102311D02*
X0300038Y0102311D01*
X0301037Y0101312D02*
X0297436Y0101312D01*
X0326963Y0101312D02*
X0330564Y0101312D01*
X0329566Y0102311D02*
X0327962Y0102311D01*
X0328639Y0103309D02*
X0328888Y0103309D01*
X0338482Y0103309D02*
X0473300Y0103309D01*
X0472797Y0102311D02*
X0370370Y0102311D01*
X0372020Y0101312D02*
X0472461Y0101312D01*
X0474007Y0104308D02*
X0338895Y0104308D01*
X0356969Y0106305D02*
X0357969Y0106305D01*
X0357969Y0107303D02*
X0356969Y0107303D01*
X0356969Y0108302D02*
X0357969Y0108302D01*
X0357969Y0109301D02*
X0356969Y0109301D01*
X0357970Y0110299D02*
X0368780Y0110299D01*
X0368781Y0109301D02*
X0369780Y0109301D01*
X0369781Y0110299D02*
X0390337Y0110299D01*
X0391335Y0109301D02*
X0373227Y0109301D01*
X0372810Y0108302D02*
X0392334Y0108302D01*
X0393332Y0107303D02*
X0371991Y0107303D01*
X0369780Y0107303D02*
X0368781Y0107303D01*
X0368781Y0108302D02*
X0369780Y0108302D01*
X0369780Y0111298D02*
X0368781Y0111298D01*
X0368781Y0112296D02*
X0369780Y0112296D01*
X0369780Y0113295D02*
X0368781Y0113295D01*
X0372127Y0113295D02*
X0387341Y0113295D01*
X0388340Y0112296D02*
X0372880Y0112296D01*
X0373267Y0111298D02*
X0389338Y0111298D01*
X0330043Y0127274D02*
X0319299Y0127274D01*
X0319534Y0126275D02*
X0329642Y0126275D01*
X0473313Y0087333D02*
X0489860Y0087333D01*
X0489825Y0087319D02*
X0488964Y0086822D01*
X0488175Y0086216D01*
X0487472Y0085513D01*
X0486866Y0084724D01*
X0486369Y0083863D01*
X0485989Y0082944D01*
X0485731Y0081983D01*
X0485602Y0081000D01*
X0492688Y0081000D01*
X0492688Y0088086D01*
X0491705Y0087957D01*
X0490744Y0087699D01*
X0489825Y0087319D01*
X0488330Y0086335D02*
X0474311Y0086335D01*
X0475310Y0085336D02*
X0487336Y0085336D01*
X0486643Y0084338D02*
X0475843Y0084338D01*
X0476257Y0083339D02*
X0486152Y0083339D01*
X0485827Y0082341D02*
X0476670Y0082341D01*
X0476759Y0081342D02*
X0485647Y0081342D01*
X0485602Y0080000D02*
X0485731Y0079017D01*
X0485989Y0078056D01*
X0486369Y0077137D01*
X0486866Y0076276D01*
X0487472Y0075487D01*
X0488175Y0074784D01*
X0488964Y0074178D01*
X0489825Y0073681D01*
X0490744Y0073301D01*
X0491705Y0073043D01*
X0492688Y0072914D01*
X0492688Y0080000D01*
X0493688Y0080000D01*
X0493688Y0081000D01*
X0500774Y0081000D01*
X0500645Y0081983D01*
X0500387Y0082944D01*
X0500007Y0083863D01*
X0499510Y0084724D01*
X0498904Y0085513D01*
X0498201Y0086216D01*
X0497412Y0086822D01*
X0496551Y0087319D01*
X0495632Y0087699D01*
X0494671Y0087957D01*
X0493688Y0088086D01*
X0493688Y0081000D01*
X0492688Y0081000D01*
X0492688Y0080000D01*
X0485602Y0080000D01*
X0485688Y0079345D02*
X0476759Y0079345D01*
X0476759Y0080344D02*
X0492688Y0080344D01*
X0492688Y0081342D02*
X0493688Y0081342D01*
X0493688Y0080344D02*
X0507240Y0080344D01*
X0507240Y0081342D02*
X0500729Y0081342D01*
X0500549Y0082341D02*
X0507240Y0082341D01*
X0507240Y0083339D02*
X0500224Y0083339D01*
X0499733Y0084338D02*
X0507240Y0084338D01*
X0507240Y0085336D02*
X0499040Y0085336D01*
X0498046Y0086335D02*
X0507240Y0086335D01*
X0507240Y0087333D02*
X0496516Y0087333D01*
X0493688Y0087333D02*
X0492688Y0087333D01*
X0492688Y0086335D02*
X0493688Y0086335D01*
X0493688Y0085336D02*
X0492688Y0085336D01*
X0492688Y0084338D02*
X0493688Y0084338D01*
X0493688Y0083339D02*
X0492688Y0083339D01*
X0492688Y0082341D02*
X0493688Y0082341D01*
X0493688Y0080000D02*
X0500774Y0080000D01*
X0500645Y0079017D01*
X0500387Y0078056D01*
X0500007Y0077137D01*
X0499510Y0076276D01*
X0498904Y0075487D01*
X0498201Y0074784D01*
X0497412Y0074178D01*
X0496551Y0073681D01*
X0495632Y0073301D01*
X0494671Y0073043D01*
X0493688Y0072914D01*
X0493688Y0080000D01*
X0493688Y0079345D02*
X0492688Y0079345D01*
X0492688Y0078347D02*
X0493688Y0078347D01*
X0493688Y0077348D02*
X0492688Y0077348D01*
X0492688Y0076350D02*
X0493688Y0076350D01*
X0493688Y0075351D02*
X0492688Y0075351D01*
X0492688Y0074353D02*
X0493688Y0074353D01*
X0493688Y0073354D02*
X0492688Y0073354D01*
X0490615Y0073354D02*
X0472698Y0073354D01*
X0473999Y0074353D02*
X0488737Y0074353D01*
X0487608Y0075351D02*
X0474997Y0075351D01*
X0475713Y0076350D02*
X0486824Y0076350D01*
X0486282Y0077348D02*
X0476127Y0077348D01*
X0476541Y0078347D02*
X0485911Y0078347D01*
X0498768Y0075351D02*
X0507240Y0075351D01*
X0507240Y0074353D02*
X0497639Y0074353D01*
X0495761Y0073354D02*
X0507240Y0073354D01*
X0507240Y0072356D02*
X0470287Y0072356D01*
X0466876Y0072356D02*
X0340691Y0072356D01*
X0340691Y0071357D02*
X0507240Y0071357D01*
X0507240Y0070359D02*
X0340691Y0070359D01*
X0340691Y0069360D02*
X0507240Y0069360D01*
X0507240Y0068362D02*
X0340691Y0068362D01*
X0340691Y0067363D02*
X0507240Y0067363D01*
X0507240Y0066365D02*
X0340691Y0066365D01*
X0340691Y0065366D02*
X0507240Y0065366D01*
X0507240Y0064368D02*
X0340691Y0064368D01*
X0340691Y0063369D02*
X0507240Y0063369D01*
X0507240Y0062370D02*
X0340691Y0062370D01*
X0340691Y0061372D02*
X0507240Y0061372D01*
X0507240Y0060373D02*
X0340691Y0060373D01*
X0340691Y0059375D02*
X0507240Y0059375D01*
X0507240Y0058376D02*
X0340691Y0058376D01*
X0340691Y0057378D02*
X0507240Y0057378D01*
X0507240Y0056379D02*
X0340691Y0056379D01*
X0340691Y0055381D02*
X0507240Y0055381D01*
X0507240Y0054382D02*
X0340691Y0054382D01*
X0340691Y0053384D02*
X0507240Y0053384D01*
X0507240Y0052385D02*
X0340691Y0052385D01*
X0340691Y0051387D02*
X0507240Y0051387D01*
X0507240Y0050388D02*
X0340691Y0050388D01*
X0340691Y0049390D02*
X0507240Y0049390D01*
X0507240Y0048391D02*
X0340691Y0048391D01*
X0340691Y0047393D02*
X0507240Y0047393D01*
X0507240Y0046394D02*
X0340691Y0046394D01*
X0340691Y0045396D02*
X0507240Y0045396D01*
X0507240Y0044397D02*
X0486919Y0044397D01*
X0486729Y0044494D02*
X0486035Y0044720D01*
X0485450Y0044812D01*
X0485450Y0040700D01*
X0489562Y0040700D01*
X0489470Y0041285D01*
X0489244Y0041979D01*
X0488913Y0042629D01*
X0488484Y0043219D01*
X0487969Y0043734D01*
X0487379Y0044163D01*
X0486729Y0044494D01*
X0485450Y0044397D02*
X0484450Y0044397D01*
X0484450Y0044812D02*
X0483865Y0044720D01*
X0483171Y0044494D01*
X0482521Y0044163D01*
X0481931Y0043734D01*
X0481415Y0043219D01*
X0480987Y0042629D01*
X0480656Y0041979D01*
X0480430Y0041285D01*
X0480338Y0040700D01*
X0484450Y0040700D01*
X0484450Y0044812D01*
X0484450Y0043399D02*
X0485450Y0043399D01*
X0485450Y0042400D02*
X0484450Y0042400D01*
X0484450Y0041402D02*
X0485450Y0041402D01*
X0485450Y0040700D02*
X0484450Y0040700D01*
X0484450Y0039700D01*
X0485450Y0039700D01*
X0485450Y0040700D01*
X0485450Y0040403D02*
X0507240Y0040403D01*
X0507240Y0039405D02*
X0489516Y0039405D01*
X0489470Y0039115D02*
X0489562Y0039700D01*
X0485450Y0039700D01*
X0485450Y0035588D01*
X0486035Y0035680D01*
X0486729Y0035906D01*
X0487379Y0036237D01*
X0487969Y0036665D01*
X0488484Y0037181D01*
X0488913Y0037771D01*
X0489244Y0038421D01*
X0489470Y0039115D01*
X0489237Y0038406D02*
X0507240Y0038406D01*
X0507240Y0037408D02*
X0488649Y0037408D01*
X0487616Y0036409D02*
X0507240Y0036409D01*
X0507240Y0035411D02*
X0340691Y0035411D01*
X0340691Y0036409D02*
X0348534Y0036409D01*
X0348771Y0036237D02*
X0348181Y0036665D01*
X0347665Y0037181D01*
X0347237Y0037771D01*
X0346906Y0038421D01*
X0346680Y0039115D01*
X0346588Y0039700D01*
X0350700Y0039700D01*
X0351700Y0039700D01*
X0351700Y0040700D01*
X0355812Y0040700D01*
X0355720Y0041285D01*
X0355494Y0041979D01*
X0355163Y0042629D01*
X0354734Y0043219D01*
X0354219Y0043734D01*
X0353629Y0044163D01*
X0352979Y0044494D01*
X0352285Y0044720D01*
X0351700Y0044812D01*
X0351700Y0040700D01*
X0350700Y0040700D01*
X0350700Y0044812D01*
X0350115Y0044720D01*
X0349421Y0044494D01*
X0348771Y0044163D01*
X0348181Y0043734D01*
X0347665Y0043219D01*
X0347237Y0042629D01*
X0346906Y0041979D01*
X0346680Y0041285D01*
X0346588Y0040700D01*
X0350700Y0040700D01*
X0350700Y0039700D01*
X0350700Y0035588D01*
X0350115Y0035680D01*
X0349421Y0035906D01*
X0348771Y0036237D01*
X0347501Y0037408D02*
X0340691Y0037408D01*
X0340691Y0038406D02*
X0346913Y0038406D01*
X0346634Y0039405D02*
X0340691Y0039405D01*
X0340691Y0040403D02*
X0350700Y0040403D01*
X0350700Y0039405D02*
X0351700Y0039405D01*
X0351700Y0039700D02*
X0351700Y0035588D01*
X0352285Y0035680D01*
X0352979Y0035906D01*
X0353629Y0036237D01*
X0354219Y0036665D01*
X0354734Y0037181D01*
X0355163Y0037771D01*
X0355494Y0038421D01*
X0355720Y0039115D01*
X0355812Y0039700D01*
X0351700Y0039700D01*
X0351700Y0040403D02*
X0393175Y0040403D01*
X0393175Y0040700D02*
X0393175Y0039700D01*
X0394175Y0039700D01*
X0394175Y0040700D01*
X0398287Y0040700D01*
X0398195Y0041285D01*
X0397969Y0041979D01*
X0397638Y0042629D01*
X0397209Y0043219D01*
X0396694Y0043734D01*
X0396104Y0044163D01*
X0395454Y0044494D01*
X0394760Y0044720D01*
X0394175Y0044812D01*
X0394175Y0040700D01*
X0393175Y0040700D01*
X0393175Y0044812D01*
X0392590Y0044720D01*
X0391896Y0044494D01*
X0391246Y0044163D01*
X0390656Y0043734D01*
X0390140Y0043219D01*
X0389712Y0042629D01*
X0389381Y0041979D01*
X0389155Y0041285D01*
X0389063Y0040700D01*
X0393175Y0040700D01*
X0393175Y0041402D02*
X0394175Y0041402D01*
X0394175Y0042400D02*
X0393175Y0042400D01*
X0393175Y0043399D02*
X0394175Y0043399D01*
X0394175Y0044397D02*
X0393175Y0044397D01*
X0391706Y0044397D02*
X0353169Y0044397D01*
X0351700Y0044397D02*
X0350700Y0044397D01*
X0350700Y0043399D02*
X0351700Y0043399D01*
X0351700Y0042400D02*
X0350700Y0042400D01*
X0350700Y0041402D02*
X0351700Y0041402D01*
X0354554Y0043399D02*
X0390321Y0043399D01*
X0389595Y0042400D02*
X0355280Y0042400D01*
X0355682Y0041402D02*
X0389193Y0041402D01*
X0389063Y0039700D02*
X0389155Y0039115D01*
X0389381Y0038421D01*
X0389712Y0037771D01*
X0390140Y0037181D01*
X0390656Y0036665D01*
X0391246Y0036237D01*
X0391896Y0035906D01*
X0392590Y0035680D01*
X0393175Y0035588D01*
X0393175Y0039700D01*
X0389063Y0039700D01*
X0389109Y0039405D02*
X0355766Y0039405D01*
X0355487Y0038406D02*
X0389388Y0038406D01*
X0389976Y0037408D02*
X0354899Y0037408D01*
X0353866Y0036409D02*
X0391009Y0036409D01*
X0393175Y0036409D02*
X0394175Y0036409D01*
X0394175Y0035588D02*
X0394760Y0035680D01*
X0395454Y0035906D01*
X0396104Y0036237D01*
X0396694Y0036665D01*
X0397209Y0037181D01*
X0397638Y0037771D01*
X0397969Y0038421D01*
X0398195Y0039115D01*
X0398287Y0039700D01*
X0394175Y0039700D01*
X0394175Y0035588D01*
X0394175Y0037408D02*
X0393175Y0037408D01*
X0393175Y0038406D02*
X0394175Y0038406D01*
X0394175Y0039405D02*
X0393175Y0039405D01*
X0394175Y0040403D02*
X0417575Y0040403D01*
X0417575Y0040700D02*
X0417575Y0039700D01*
X0418575Y0039700D01*
X0418575Y0040700D01*
X0422687Y0040700D01*
X0422595Y0041285D01*
X0422369Y0041979D01*
X0422038Y0042629D01*
X0421609Y0043219D01*
X0421094Y0043734D01*
X0420504Y0044163D01*
X0419854Y0044494D01*
X0419160Y0044720D01*
X0418575Y0044812D01*
X0418575Y0040700D01*
X0417575Y0040700D01*
X0417575Y0044812D01*
X0416990Y0044720D01*
X0416296Y0044494D01*
X0415646Y0044163D01*
X0415056Y0043734D01*
X0414540Y0043219D01*
X0414112Y0042629D01*
X0413781Y0041979D01*
X0413555Y0041285D01*
X0413463Y0040700D01*
X0417575Y0040700D01*
X0417575Y0041402D02*
X0418575Y0041402D01*
X0418575Y0042400D02*
X0417575Y0042400D01*
X0417575Y0043399D02*
X0418575Y0043399D01*
X0418575Y0044397D02*
X0417575Y0044397D01*
X0416106Y0044397D02*
X0395644Y0044397D01*
X0397029Y0043399D02*
X0414721Y0043399D01*
X0413995Y0042400D02*
X0397755Y0042400D01*
X0398157Y0041402D02*
X0413593Y0041402D01*
X0413463Y0039700D02*
X0413555Y0039115D01*
X0413781Y0038421D01*
X0414112Y0037771D01*
X0414540Y0037181D01*
X0415056Y0036665D01*
X0415646Y0036237D01*
X0416296Y0035906D01*
X0416990Y0035680D01*
X0417575Y0035588D01*
X0417575Y0039700D01*
X0413463Y0039700D01*
X0413509Y0039405D02*
X0398241Y0039405D01*
X0397962Y0038406D02*
X0413788Y0038406D01*
X0414376Y0037408D02*
X0397374Y0037408D01*
X0396341Y0036409D02*
X0415409Y0036409D01*
X0417575Y0036409D02*
X0418575Y0036409D01*
X0418575Y0035588D02*
X0419160Y0035680D01*
X0419854Y0035906D01*
X0420504Y0036237D01*
X0421094Y0036665D01*
X0421609Y0037181D01*
X0422038Y0037771D01*
X0422369Y0038421D01*
X0422595Y0039115D01*
X0422687Y0039700D01*
X0418575Y0039700D01*
X0418575Y0035588D01*
X0418575Y0037408D02*
X0417575Y0037408D01*
X0417575Y0038406D02*
X0418575Y0038406D01*
X0418575Y0039405D02*
X0417575Y0039405D01*
X0418575Y0040403D02*
X0460050Y0040403D01*
X0460050Y0040700D02*
X0460050Y0039700D01*
X0461050Y0039700D01*
X0461050Y0040700D01*
X0465162Y0040700D01*
X0465070Y0041285D01*
X0464844Y0041979D01*
X0464513Y0042629D01*
X0464084Y0043219D01*
X0463569Y0043734D01*
X0462979Y0044163D01*
X0462329Y0044494D01*
X0461635Y0044720D01*
X0461050Y0044812D01*
X0461050Y0040700D01*
X0460050Y0040700D01*
X0460050Y0044812D01*
X0459465Y0044720D01*
X0458771Y0044494D01*
X0458121Y0044163D01*
X0457531Y0043734D01*
X0457015Y0043219D01*
X0456587Y0042629D01*
X0456256Y0041979D01*
X0456030Y0041285D01*
X0455938Y0040700D01*
X0460050Y0040700D01*
X0460050Y0041402D02*
X0461050Y0041402D01*
X0461050Y0042400D02*
X0460050Y0042400D01*
X0460050Y0043399D02*
X0461050Y0043399D01*
X0461050Y0044397D02*
X0460050Y0044397D01*
X0458581Y0044397D02*
X0420044Y0044397D01*
X0421429Y0043399D02*
X0457196Y0043399D01*
X0456470Y0042400D02*
X0422155Y0042400D01*
X0422557Y0041402D02*
X0456068Y0041402D01*
X0455938Y0039700D02*
X0456030Y0039115D01*
X0456256Y0038421D01*
X0456587Y0037771D01*
X0457015Y0037181D01*
X0457531Y0036665D01*
X0458121Y0036237D01*
X0458771Y0035906D01*
X0459465Y0035680D01*
X0460050Y0035588D01*
X0460050Y0039700D01*
X0455938Y0039700D01*
X0455984Y0039405D02*
X0422641Y0039405D01*
X0422362Y0038406D02*
X0456263Y0038406D01*
X0456851Y0037408D02*
X0421774Y0037408D01*
X0420741Y0036409D02*
X0457884Y0036409D01*
X0460050Y0036409D02*
X0461050Y0036409D01*
X0461050Y0035588D02*
X0461635Y0035680D01*
X0462329Y0035906D01*
X0462979Y0036237D01*
X0463569Y0036665D01*
X0464084Y0037181D01*
X0464513Y0037771D01*
X0464844Y0038421D01*
X0465070Y0039115D01*
X0465162Y0039700D01*
X0461050Y0039700D01*
X0461050Y0035588D01*
X0461050Y0037408D02*
X0460050Y0037408D01*
X0460050Y0038406D02*
X0461050Y0038406D01*
X0461050Y0039405D02*
X0460050Y0039405D01*
X0461050Y0040403D02*
X0484450Y0040403D01*
X0484450Y0039700D02*
X0480338Y0039700D01*
X0480430Y0039115D01*
X0480656Y0038421D01*
X0480987Y0037771D01*
X0481415Y0037181D01*
X0481931Y0036665D01*
X0482521Y0036237D01*
X0483171Y0035906D01*
X0483865Y0035680D01*
X0484450Y0035588D01*
X0484450Y0039700D01*
X0484450Y0039405D02*
X0485450Y0039405D01*
X0485450Y0038406D02*
X0484450Y0038406D01*
X0484450Y0037408D02*
X0485450Y0037408D01*
X0485450Y0036409D02*
X0484450Y0036409D01*
X0482284Y0036409D02*
X0463216Y0036409D01*
X0464249Y0037408D02*
X0481251Y0037408D01*
X0480663Y0038406D02*
X0464837Y0038406D01*
X0465116Y0039405D02*
X0480384Y0039405D01*
X0480468Y0041402D02*
X0465032Y0041402D01*
X0464630Y0042400D02*
X0480870Y0042400D01*
X0481596Y0043399D02*
X0463904Y0043399D01*
X0462519Y0044397D02*
X0482981Y0044397D01*
X0488304Y0043399D02*
X0507240Y0043399D01*
X0507240Y0042400D02*
X0489030Y0042400D01*
X0489432Y0041402D02*
X0507240Y0041402D01*
X0507240Y0034412D02*
X0340691Y0034412D01*
X0340691Y0033414D02*
X0507240Y0033414D01*
X0507240Y0032415D02*
X0340691Y0032415D01*
X0341580Y0031417D02*
X0403295Y0031417D01*
X0403473Y0031595D02*
X0402280Y0030402D01*
X0401635Y0028843D01*
X0401635Y0027157D01*
X0402280Y0025598D01*
X0403473Y0024405D01*
X0405032Y0023760D01*
X0406718Y0023760D01*
X0408277Y0024405D01*
X0409470Y0025598D01*
X0410115Y0027157D01*
X0410115Y0028843D01*
X0409470Y0030402D01*
X0408277Y0031595D01*
X0406718Y0032240D01*
X0405032Y0032240D01*
X0403473Y0031595D01*
X0402297Y0030418D02*
X0342578Y0030418D01*
X0343001Y0029420D02*
X0401874Y0029420D01*
X0401635Y0028421D02*
X0343240Y0028421D01*
X0343240Y0027423D02*
X0401635Y0027423D01*
X0401938Y0026424D02*
X0342937Y0026424D01*
X0342422Y0025426D02*
X0402453Y0025426D01*
X0403451Y0024427D02*
X0341424Y0024427D01*
X0336576Y0024427D02*
X0274549Y0024427D01*
X0275547Y0025426D02*
X0335578Y0025426D01*
X0335063Y0026424D02*
X0276062Y0026424D01*
X0276365Y0027423D02*
X0334760Y0027423D01*
X0334760Y0028421D02*
X0276365Y0028421D01*
X0276126Y0029420D02*
X0334999Y0029420D01*
X0335422Y0030418D02*
X0275703Y0030418D01*
X0274705Y0031417D02*
X0336420Y0031417D01*
X0337309Y0032415D02*
X0273816Y0032415D01*
X0273816Y0033414D02*
X0337309Y0033414D01*
X0337309Y0034412D02*
X0273816Y0034412D01*
X0273816Y0035411D02*
X0337309Y0035411D01*
X0337309Y0036409D02*
X0329466Y0036409D01*
X0329229Y0036237D02*
X0329819Y0036665D01*
X0330334Y0037181D01*
X0330763Y0037771D01*
X0331094Y0038421D01*
X0331320Y0039115D01*
X0331412Y0039700D01*
X0327300Y0039700D01*
X0327300Y0040700D01*
X0331412Y0040700D01*
X0331320Y0041285D01*
X0331094Y0041979D01*
X0330763Y0042629D01*
X0330334Y0043219D01*
X0329819Y0043734D01*
X0329229Y0044163D01*
X0328579Y0044494D01*
X0327885Y0044720D01*
X0327300Y0044812D01*
X0327300Y0040700D01*
X0326300Y0040700D01*
X0326300Y0044812D01*
X0325715Y0044720D01*
X0325021Y0044494D01*
X0324371Y0044163D01*
X0323781Y0043734D01*
X0323265Y0043219D01*
X0322837Y0042629D01*
X0322506Y0041979D01*
X0322280Y0041285D01*
X0322188Y0040700D01*
X0326300Y0040700D01*
X0326300Y0039700D01*
X0327300Y0039700D01*
X0327300Y0035588D01*
X0327885Y0035680D01*
X0328579Y0035906D01*
X0329229Y0036237D01*
X0330499Y0037408D02*
X0337309Y0037408D01*
X0337309Y0038406D02*
X0331087Y0038406D01*
X0331366Y0039405D02*
X0337309Y0039405D01*
X0337309Y0040403D02*
X0327300Y0040403D01*
X0327300Y0039405D02*
X0326300Y0039405D01*
X0326300Y0039700D02*
X0326300Y0035588D01*
X0325715Y0035680D01*
X0325021Y0035906D01*
X0324371Y0036237D01*
X0323781Y0036665D01*
X0323265Y0037181D01*
X0322837Y0037771D01*
X0322506Y0038421D01*
X0322280Y0039115D01*
X0322188Y0039700D01*
X0326300Y0039700D01*
X0326300Y0040403D02*
X0284825Y0040403D01*
X0284825Y0040700D02*
X0288937Y0040700D01*
X0288845Y0041285D01*
X0288619Y0041979D01*
X0288288Y0042629D01*
X0287859Y0043219D01*
X0287344Y0043734D01*
X0286754Y0044163D01*
X0286104Y0044494D01*
X0285410Y0044720D01*
X0284825Y0044812D01*
X0284825Y0040700D01*
X0284825Y0039700D01*
X0288937Y0039700D01*
X0288845Y0039115D01*
X0288619Y0038421D01*
X0288288Y0037771D01*
X0287859Y0037181D01*
X0287344Y0036665D01*
X0286754Y0036237D01*
X0286104Y0035906D01*
X0285410Y0035680D01*
X0284825Y0035588D01*
X0284825Y0039700D01*
X0283825Y0039700D01*
X0283825Y0035588D01*
X0283240Y0035680D01*
X0282546Y0035906D01*
X0281896Y0036237D01*
X0281306Y0036665D01*
X0280790Y0037181D01*
X0280362Y0037771D01*
X0280031Y0038421D01*
X0279805Y0039115D01*
X0279713Y0039700D01*
X0283825Y0039700D01*
X0283825Y0040700D01*
X0283825Y0044812D01*
X0283240Y0044720D01*
X0282546Y0044494D01*
X0281896Y0044163D01*
X0281306Y0043734D01*
X0280790Y0043219D01*
X0280362Y0042629D01*
X0280031Y0041979D01*
X0279805Y0041285D01*
X0279713Y0040700D01*
X0283825Y0040700D01*
X0284825Y0040700D01*
X0284825Y0041402D02*
X0283825Y0041402D01*
X0283825Y0042400D02*
X0284825Y0042400D01*
X0284825Y0043399D02*
X0283825Y0043399D01*
X0283825Y0044397D02*
X0284825Y0044397D01*
X0286294Y0044397D02*
X0324831Y0044397D01*
X0326300Y0044397D02*
X0327300Y0044397D01*
X0327300Y0043399D02*
X0326300Y0043399D01*
X0326300Y0042400D02*
X0327300Y0042400D01*
X0327300Y0041402D02*
X0326300Y0041402D01*
X0323446Y0043399D02*
X0287679Y0043399D01*
X0288405Y0042400D02*
X0322720Y0042400D01*
X0322318Y0041402D02*
X0288807Y0041402D01*
X0283825Y0040403D02*
X0273816Y0040403D01*
X0273816Y0039405D02*
X0279759Y0039405D01*
X0280038Y0038406D02*
X0273816Y0038406D01*
X0273816Y0037408D02*
X0280626Y0037408D01*
X0281659Y0036409D02*
X0273816Y0036409D01*
X0270434Y0036409D02*
X0262591Y0036409D01*
X0262354Y0036237D02*
X0262944Y0036665D01*
X0263459Y0037181D01*
X0263888Y0037771D01*
X0264219Y0038421D01*
X0264445Y0039115D01*
X0264537Y0039700D01*
X0260425Y0039700D01*
X0260425Y0040700D01*
X0264537Y0040700D01*
X0264445Y0041285D01*
X0264219Y0041979D01*
X0263888Y0042629D01*
X0263459Y0043219D01*
X0262944Y0043734D01*
X0262354Y0044163D01*
X0261704Y0044494D01*
X0261010Y0044720D01*
X0260425Y0044812D01*
X0260425Y0040700D01*
X0259425Y0040700D01*
X0259425Y0044812D01*
X0258840Y0044720D01*
X0258146Y0044494D01*
X0257496Y0044163D01*
X0256906Y0043734D01*
X0256390Y0043219D01*
X0255962Y0042629D01*
X0255631Y0041979D01*
X0255405Y0041285D01*
X0255313Y0040700D01*
X0259425Y0040700D01*
X0259425Y0039700D01*
X0260425Y0039700D01*
X0260425Y0035588D01*
X0261010Y0035680D01*
X0261704Y0035906D01*
X0262354Y0036237D01*
X0263624Y0037408D02*
X0270434Y0037408D01*
X0270434Y0038406D02*
X0264212Y0038406D01*
X0264491Y0039405D02*
X0270434Y0039405D01*
X0270434Y0040403D02*
X0260425Y0040403D01*
X0260425Y0039405D02*
X0259425Y0039405D01*
X0259425Y0039700D02*
X0259425Y0035588D01*
X0258840Y0035680D01*
X0258146Y0035906D01*
X0257496Y0036237D01*
X0256906Y0036665D01*
X0256390Y0037181D01*
X0255962Y0037771D01*
X0255631Y0038421D01*
X0255405Y0039115D01*
X0255313Y0039700D01*
X0259425Y0039700D01*
X0259425Y0040403D02*
X0217950Y0040403D01*
X0217950Y0040700D02*
X0222062Y0040700D01*
X0221970Y0041285D01*
X0221744Y0041979D01*
X0221413Y0042629D01*
X0220984Y0043219D01*
X0220469Y0043734D01*
X0219879Y0044163D01*
X0219229Y0044494D01*
X0218535Y0044720D01*
X0217950Y0044812D01*
X0217950Y0040700D01*
X0217950Y0039700D01*
X0222062Y0039700D01*
X0221970Y0039115D01*
X0221744Y0038421D01*
X0221413Y0037771D01*
X0220984Y0037181D01*
X0220469Y0036665D01*
X0219879Y0036237D01*
X0219229Y0035906D01*
X0218535Y0035680D01*
X0217950Y0035588D01*
X0217950Y0039700D01*
X0216950Y0039700D01*
X0216950Y0035588D01*
X0216365Y0035680D01*
X0215671Y0035906D01*
X0215021Y0036237D01*
X0214431Y0036665D01*
X0213915Y0037181D01*
X0213487Y0037771D01*
X0213156Y0038421D01*
X0212930Y0039115D01*
X0212838Y0039700D01*
X0216950Y0039700D01*
X0216950Y0040700D01*
X0216950Y0044812D01*
X0216365Y0044720D01*
X0215671Y0044494D01*
X0215021Y0044163D01*
X0214431Y0043734D01*
X0213915Y0043219D01*
X0213487Y0042629D01*
X0213156Y0041979D01*
X0212930Y0041285D01*
X0212838Y0040700D01*
X0216950Y0040700D01*
X0217950Y0040700D01*
X0217950Y0041402D02*
X0216950Y0041402D01*
X0216950Y0042400D02*
X0217950Y0042400D01*
X0217950Y0043399D02*
X0216950Y0043399D01*
X0216950Y0044397D02*
X0217950Y0044397D01*
X0219419Y0044397D02*
X0257956Y0044397D01*
X0259425Y0044397D02*
X0260425Y0044397D01*
X0260425Y0043399D02*
X0259425Y0043399D01*
X0259425Y0042400D02*
X0260425Y0042400D01*
X0260425Y0041402D02*
X0259425Y0041402D01*
X0256571Y0043399D02*
X0220804Y0043399D01*
X0221530Y0042400D02*
X0255845Y0042400D01*
X0255443Y0041402D02*
X0221932Y0041402D01*
X0216950Y0040403D02*
X0206941Y0040403D01*
X0206941Y0039405D02*
X0212884Y0039405D01*
X0213163Y0038406D02*
X0206941Y0038406D01*
X0206941Y0037408D02*
X0213751Y0037408D01*
X0214784Y0036409D02*
X0206941Y0036409D01*
X0206941Y0035411D02*
X0270434Y0035411D01*
X0270434Y0034412D02*
X0206941Y0034412D01*
X0206941Y0033414D02*
X0270434Y0033414D01*
X0270434Y0032415D02*
X0206941Y0032415D01*
X0207830Y0031417D02*
X0269545Y0031417D01*
X0268547Y0030418D02*
X0208828Y0030418D01*
X0209251Y0029420D02*
X0268124Y0029420D01*
X0267885Y0028421D02*
X0209490Y0028421D01*
X0209490Y0027423D02*
X0267885Y0027423D01*
X0268188Y0026424D02*
X0209187Y0026424D01*
X0208672Y0025426D02*
X0268703Y0025426D01*
X0269701Y0024427D02*
X0207674Y0024427D01*
X0202826Y0024427D02*
X0140799Y0024427D01*
X0141797Y0025426D02*
X0201828Y0025426D01*
X0201313Y0026424D02*
X0142312Y0026424D01*
X0142615Y0027423D02*
X0201010Y0027423D01*
X0201010Y0028421D02*
X0142615Y0028421D01*
X0142376Y0029420D02*
X0201249Y0029420D01*
X0201672Y0030418D02*
X0141953Y0030418D01*
X0140955Y0031417D02*
X0202670Y0031417D01*
X0203559Y0032415D02*
X0140066Y0032415D01*
X0140066Y0033414D02*
X0203559Y0033414D01*
X0203559Y0034412D02*
X0140066Y0034412D01*
X0140066Y0035411D02*
X0203559Y0035411D01*
X0203559Y0036409D02*
X0195716Y0036409D01*
X0195479Y0036237D02*
X0196069Y0036665D01*
X0196584Y0037181D01*
X0197013Y0037771D01*
X0197344Y0038421D01*
X0197570Y0039115D01*
X0197662Y0039700D01*
X0193550Y0039700D01*
X0193550Y0040700D01*
X0197662Y0040700D01*
X0197570Y0041285D01*
X0197344Y0041979D01*
X0197013Y0042629D01*
X0196584Y0043219D01*
X0196069Y0043734D01*
X0195479Y0044163D01*
X0194829Y0044494D01*
X0194135Y0044720D01*
X0193550Y0044812D01*
X0193550Y0040700D01*
X0192550Y0040700D01*
X0192550Y0044812D01*
X0191965Y0044720D01*
X0191271Y0044494D01*
X0190621Y0044163D01*
X0190031Y0043734D01*
X0189515Y0043219D01*
X0189087Y0042629D01*
X0188756Y0041979D01*
X0188530Y0041285D01*
X0188438Y0040700D01*
X0192550Y0040700D01*
X0192550Y0039700D01*
X0193550Y0039700D01*
X0193550Y0035588D01*
X0194135Y0035680D01*
X0194829Y0035906D01*
X0195479Y0036237D01*
X0196749Y0037408D02*
X0203559Y0037408D01*
X0203559Y0038406D02*
X0197337Y0038406D01*
X0197616Y0039405D02*
X0203559Y0039405D01*
X0203559Y0040403D02*
X0193550Y0040403D01*
X0193550Y0039405D02*
X0192550Y0039405D01*
X0192550Y0039700D02*
X0192550Y0035588D01*
X0191965Y0035680D01*
X0191271Y0035906D01*
X0190621Y0036237D01*
X0190031Y0036665D01*
X0189515Y0037181D01*
X0189087Y0037771D01*
X0188756Y0038421D01*
X0188530Y0039115D01*
X0188438Y0039700D01*
X0192550Y0039700D01*
X0192550Y0040403D02*
X0151075Y0040403D01*
X0151075Y0040700D02*
X0155187Y0040700D01*
X0155095Y0041285D01*
X0154869Y0041979D01*
X0154538Y0042629D01*
X0154109Y0043219D01*
X0153594Y0043734D01*
X0153004Y0044163D01*
X0152354Y0044494D01*
X0151660Y0044720D01*
X0151075Y0044812D01*
X0151075Y0040700D01*
X0151075Y0039700D01*
X0155187Y0039700D01*
X0155095Y0039115D01*
X0154869Y0038421D01*
X0154538Y0037771D01*
X0154109Y0037181D01*
X0153594Y0036665D01*
X0153004Y0036237D01*
X0152354Y0035906D01*
X0151660Y0035680D01*
X0151075Y0035588D01*
X0151075Y0039700D01*
X0150075Y0039700D01*
X0150075Y0035588D01*
X0149490Y0035680D01*
X0148796Y0035906D01*
X0148146Y0036237D01*
X0147556Y0036665D01*
X0147040Y0037181D01*
X0146612Y0037771D01*
X0146281Y0038421D01*
X0146055Y0039115D01*
X0145963Y0039700D01*
X0150075Y0039700D01*
X0150075Y0040700D01*
X0150075Y0044812D01*
X0149490Y0044720D01*
X0148796Y0044494D01*
X0148146Y0044163D01*
X0147556Y0043734D01*
X0147040Y0043219D01*
X0146612Y0042629D01*
X0146281Y0041979D01*
X0146055Y0041285D01*
X0145963Y0040700D01*
X0150075Y0040700D01*
X0151075Y0040700D01*
X0151075Y0041402D02*
X0150075Y0041402D01*
X0150075Y0042400D02*
X0151075Y0042400D01*
X0151075Y0043399D02*
X0150075Y0043399D01*
X0150075Y0044397D02*
X0151075Y0044397D01*
X0152544Y0044397D02*
X0191081Y0044397D01*
X0192550Y0044397D02*
X0193550Y0044397D01*
X0193550Y0043399D02*
X0192550Y0043399D01*
X0192550Y0042400D02*
X0193550Y0042400D01*
X0193550Y0041402D02*
X0192550Y0041402D01*
X0189696Y0043399D02*
X0153929Y0043399D01*
X0154655Y0042400D02*
X0188970Y0042400D01*
X0188568Y0041402D02*
X0155057Y0041402D01*
X0150075Y0040403D02*
X0140066Y0040403D01*
X0140066Y0039405D02*
X0146009Y0039405D01*
X0146288Y0038406D02*
X0140066Y0038406D01*
X0140066Y0037408D02*
X0146876Y0037408D01*
X0147909Y0036409D02*
X0140066Y0036409D01*
X0136684Y0036409D02*
X0128841Y0036409D01*
X0128604Y0036237D02*
X0129194Y0036665D01*
X0129709Y0037181D01*
X0130138Y0037771D01*
X0130469Y0038421D01*
X0130695Y0039115D01*
X0130787Y0039700D01*
X0126675Y0039700D01*
X0126675Y0040700D01*
X0130787Y0040700D01*
X0130695Y0041285D01*
X0130469Y0041979D01*
X0130138Y0042629D01*
X0129709Y0043219D01*
X0129194Y0043734D01*
X0128604Y0044163D01*
X0127954Y0044494D01*
X0127260Y0044720D01*
X0126675Y0044812D01*
X0126675Y0040700D01*
X0125675Y0040700D01*
X0125675Y0044812D01*
X0125090Y0044720D01*
X0124396Y0044494D01*
X0123746Y0044163D01*
X0123156Y0043734D01*
X0122640Y0043219D01*
X0122212Y0042629D01*
X0121881Y0041979D01*
X0121655Y0041285D01*
X0121563Y0040700D01*
X0125675Y0040700D01*
X0125675Y0039700D01*
X0126675Y0039700D01*
X0126675Y0035588D01*
X0127260Y0035680D01*
X0127954Y0035906D01*
X0128604Y0036237D01*
X0129874Y0037408D02*
X0136684Y0037408D01*
X0136684Y0038406D02*
X0130462Y0038406D01*
X0130741Y0039405D02*
X0136684Y0039405D01*
X0136684Y0040403D02*
X0126675Y0040403D01*
X0126675Y0039405D02*
X0125675Y0039405D01*
X0125675Y0039700D02*
X0125675Y0035588D01*
X0125090Y0035680D01*
X0124396Y0035906D01*
X0123746Y0036237D01*
X0123156Y0036665D01*
X0122640Y0037181D01*
X0122212Y0037771D01*
X0121881Y0038421D01*
X0121655Y0039115D01*
X0121563Y0039700D01*
X0125675Y0039700D01*
X0125675Y0040403D02*
X0084200Y0040403D01*
X0084200Y0040700D02*
X0088312Y0040700D01*
X0088220Y0041285D01*
X0087994Y0041979D01*
X0087663Y0042629D01*
X0087234Y0043219D01*
X0086719Y0043734D01*
X0086129Y0044163D01*
X0085479Y0044494D01*
X0084785Y0044720D01*
X0084200Y0044812D01*
X0084200Y0040700D01*
X0084200Y0039700D01*
X0088312Y0039700D01*
X0088220Y0039115D01*
X0087994Y0038421D01*
X0087663Y0037771D01*
X0087234Y0037181D01*
X0086719Y0036665D01*
X0086129Y0036237D01*
X0085479Y0035906D01*
X0084785Y0035680D01*
X0084200Y0035588D01*
X0084200Y0039700D01*
X0083200Y0039700D01*
X0083200Y0035588D01*
X0082615Y0035680D01*
X0081921Y0035906D01*
X0081271Y0036237D01*
X0080681Y0036665D01*
X0080165Y0037181D01*
X0079737Y0037771D01*
X0079406Y0038421D01*
X0079180Y0039115D01*
X0079088Y0039700D01*
X0083200Y0039700D01*
X0083200Y0040700D01*
X0083200Y0044812D01*
X0082615Y0044720D01*
X0081921Y0044494D01*
X0081271Y0044163D01*
X0080681Y0043734D01*
X0080165Y0043219D01*
X0079737Y0042629D01*
X0079406Y0041979D01*
X0079180Y0041285D01*
X0079088Y0040700D01*
X0083200Y0040700D01*
X0084200Y0040700D01*
X0084200Y0041402D02*
X0083200Y0041402D01*
X0083200Y0042400D02*
X0084200Y0042400D01*
X0084200Y0043399D02*
X0083200Y0043399D01*
X0083200Y0044397D02*
X0084200Y0044397D01*
X0085669Y0044397D02*
X0124206Y0044397D01*
X0125675Y0044397D02*
X0126675Y0044397D01*
X0126675Y0043399D02*
X0125675Y0043399D01*
X0125675Y0042400D02*
X0126675Y0042400D01*
X0126675Y0041402D02*
X0125675Y0041402D01*
X0122821Y0043399D02*
X0087054Y0043399D01*
X0087780Y0042400D02*
X0122095Y0042400D01*
X0121693Y0041402D02*
X0088182Y0041402D01*
X0083200Y0040403D02*
X0073191Y0040403D01*
X0073191Y0039405D02*
X0079134Y0039405D01*
X0079413Y0038406D02*
X0073191Y0038406D01*
X0073191Y0037408D02*
X0080001Y0037408D01*
X0081034Y0036409D02*
X0073191Y0036409D01*
X0073191Y0035411D02*
X0136684Y0035411D01*
X0136684Y0034412D02*
X0073191Y0034412D01*
X0073191Y0033414D02*
X0136684Y0033414D01*
X0136684Y0032415D02*
X0073191Y0032415D01*
X0074080Y0031417D02*
X0135795Y0031417D01*
X0134797Y0030418D02*
X0075078Y0030418D01*
X0075501Y0029420D02*
X0134374Y0029420D01*
X0134135Y0028421D02*
X0075740Y0028421D01*
X0075740Y0027423D02*
X0134135Y0027423D01*
X0134438Y0026424D02*
X0075437Y0026424D01*
X0074922Y0025426D02*
X0134953Y0025426D01*
X0135951Y0024427D02*
X0073924Y0024427D01*
X0069076Y0024427D02*
X0003181Y0024427D01*
X0003181Y0023429D02*
X0507240Y0023429D01*
X0507240Y0024427D02*
X0475174Y0024427D01*
X0475152Y0024405D02*
X0476345Y0025598D01*
X0476990Y0027157D01*
X0476990Y0028843D01*
X0476345Y0030402D01*
X0475152Y0031595D01*
X0473593Y0032240D01*
X0471907Y0032240D01*
X0470348Y0031595D01*
X0469155Y0030402D01*
X0468510Y0028843D01*
X0468510Y0027157D01*
X0469155Y0025598D01*
X0470348Y0024405D01*
X0471907Y0023760D01*
X0473593Y0023760D01*
X0475152Y0024405D01*
X0476172Y0025426D02*
X0507240Y0025426D01*
X0507240Y0026424D02*
X0476687Y0026424D01*
X0476990Y0027423D02*
X0507240Y0027423D01*
X0507240Y0028421D02*
X0476990Y0028421D01*
X0476751Y0029420D02*
X0507240Y0029420D01*
X0507240Y0030418D02*
X0476328Y0030418D01*
X0475330Y0031417D02*
X0507240Y0031417D01*
X0507240Y0022430D02*
X0003181Y0022430D01*
X0003181Y0021432D02*
X0507240Y0021432D01*
X0507240Y0020433D02*
X0003181Y0020433D01*
X0003181Y0019434D02*
X0056419Y0019434D01*
X0056281Y0019334D02*
X0055765Y0018819D01*
X0055337Y0018229D01*
X0055006Y0017579D01*
X0054780Y0016885D01*
X0054688Y0016300D01*
X0058800Y0016300D01*
X0058800Y0020412D01*
X0058215Y0020320D01*
X0057521Y0020094D01*
X0056871Y0019763D01*
X0056281Y0019334D01*
X0055487Y0018436D02*
X0003181Y0018436D01*
X0003181Y0017437D02*
X0054960Y0017437D01*
X0054710Y0016439D02*
X0003181Y0016439D01*
X0003181Y0015440D02*
X0058800Y0015440D01*
X0058800Y0015300D02*
X0054688Y0015300D01*
X0054780Y0014715D01*
X0055006Y0014021D01*
X0055337Y0013371D01*
X0055765Y0012781D01*
X0056281Y0012265D01*
X0056871Y0011837D01*
X0057521Y0011506D01*
X0058215Y0011280D01*
X0058800Y0011188D01*
X0058800Y0015300D01*
X0059800Y0015300D01*
X0059800Y0016300D01*
X0063912Y0016300D01*
X0063820Y0016885D01*
X0063594Y0017579D01*
X0063263Y0018229D01*
X0062834Y0018819D01*
X0062319Y0019334D01*
X0061729Y0019763D01*
X0061079Y0020094D01*
X0060385Y0020320D01*
X0059800Y0020412D01*
X0059800Y0016300D01*
X0058800Y0016300D01*
X0058800Y0015300D01*
X0058800Y0014442D02*
X0059800Y0014442D01*
X0059800Y0015300D02*
X0059800Y0011188D01*
X0060385Y0011280D01*
X0061079Y0011506D01*
X0061729Y0011837D01*
X0062319Y0012265D01*
X0062834Y0012781D01*
X0063263Y0013371D01*
X0063594Y0014021D01*
X0063820Y0014715D01*
X0063912Y0015300D01*
X0059800Y0015300D01*
X0059800Y0015440D02*
X0083200Y0015440D01*
X0083200Y0015300D02*
X0079088Y0015300D01*
X0079180Y0014715D01*
X0079406Y0014021D01*
X0079737Y0013371D01*
X0080165Y0012781D01*
X0080681Y0012265D01*
X0081271Y0011837D01*
X0081921Y0011506D01*
X0082615Y0011280D01*
X0083200Y0011188D01*
X0083200Y0015300D01*
X0084200Y0015300D01*
X0084200Y0016300D01*
X0088312Y0016300D01*
X0088220Y0016885D01*
X0087994Y0017579D01*
X0087663Y0018229D01*
X0087234Y0018819D01*
X0086719Y0019334D01*
X0086129Y0019763D01*
X0085479Y0020094D01*
X0084785Y0020320D01*
X0084200Y0020412D01*
X0084200Y0016300D01*
X0083200Y0016300D01*
X0083200Y0020412D01*
X0082615Y0020320D01*
X0081921Y0020094D01*
X0081271Y0019763D01*
X0080681Y0019334D01*
X0080165Y0018819D01*
X0079737Y0018229D01*
X0079406Y0017579D01*
X0079180Y0016885D01*
X0079088Y0016300D01*
X0083200Y0016300D01*
X0083200Y0015300D01*
X0083200Y0014442D02*
X0084200Y0014442D01*
X0084200Y0015300D02*
X0084200Y0011188D01*
X0084785Y0011280D01*
X0085479Y0011506D01*
X0086129Y0011837D01*
X0086719Y0012265D01*
X0087234Y0012781D01*
X0087663Y0013371D01*
X0087994Y0014021D01*
X0088220Y0014715D01*
X0088312Y0015300D01*
X0084200Y0015300D01*
X0084200Y0015440D02*
X0125675Y0015440D01*
X0125675Y0015300D02*
X0121563Y0015300D01*
X0121655Y0014715D01*
X0121881Y0014021D01*
X0122212Y0013371D01*
X0122640Y0012781D01*
X0123156Y0012265D01*
X0123746Y0011837D01*
X0124396Y0011506D01*
X0125090Y0011280D01*
X0125675Y0011188D01*
X0125675Y0015300D01*
X0126675Y0015300D01*
X0126675Y0016300D01*
X0130787Y0016300D01*
X0130695Y0016885D01*
X0130469Y0017579D01*
X0130138Y0018229D01*
X0129709Y0018819D01*
X0129194Y0019334D01*
X0128604Y0019763D01*
X0127954Y0020094D01*
X0127260Y0020320D01*
X0126675Y0020412D01*
X0126675Y0016300D01*
X0125675Y0016300D01*
X0125675Y0020412D01*
X0125090Y0020320D01*
X0124396Y0020094D01*
X0123746Y0019763D01*
X0123156Y0019334D01*
X0122640Y0018819D01*
X0122212Y0018229D01*
X0121881Y0017579D01*
X0121655Y0016885D01*
X0121563Y0016300D01*
X0125675Y0016300D01*
X0125675Y0015300D01*
X0125675Y0014442D02*
X0126675Y0014442D01*
X0126675Y0015300D02*
X0126675Y0011188D01*
X0127260Y0011280D01*
X0127954Y0011506D01*
X0128604Y0011837D01*
X0129194Y0012265D01*
X0129709Y0012781D01*
X0130138Y0013371D01*
X0130469Y0014021D01*
X0130695Y0014715D01*
X0130787Y0015300D01*
X0126675Y0015300D01*
X0126675Y0015440D02*
X0150075Y0015440D01*
X0150075Y0015300D02*
X0145963Y0015300D01*
X0146055Y0014715D01*
X0146281Y0014021D01*
X0146612Y0013371D01*
X0147040Y0012781D01*
X0147556Y0012265D01*
X0148146Y0011837D01*
X0148796Y0011506D01*
X0149490Y0011280D01*
X0150075Y0011188D01*
X0150075Y0015300D01*
X0151075Y0015300D01*
X0151075Y0016300D01*
X0155187Y0016300D01*
X0155095Y0016885D01*
X0154869Y0017579D01*
X0154538Y0018229D01*
X0154109Y0018819D01*
X0153594Y0019334D01*
X0153004Y0019763D01*
X0152354Y0020094D01*
X0151660Y0020320D01*
X0151075Y0020412D01*
X0151075Y0016300D01*
X0150075Y0016300D01*
X0150075Y0020412D01*
X0149490Y0020320D01*
X0148796Y0020094D01*
X0148146Y0019763D01*
X0147556Y0019334D01*
X0147040Y0018819D01*
X0146612Y0018229D01*
X0146281Y0017579D01*
X0146055Y0016885D01*
X0145963Y0016300D01*
X0150075Y0016300D01*
X0150075Y0015300D01*
X0150075Y0014442D02*
X0151075Y0014442D01*
X0151075Y0015300D02*
X0151075Y0011188D01*
X0151660Y0011280D01*
X0152354Y0011506D01*
X0153004Y0011837D01*
X0153594Y0012265D01*
X0154109Y0012781D01*
X0154538Y0013371D01*
X0154869Y0014021D01*
X0155095Y0014715D01*
X0155187Y0015300D01*
X0151075Y0015300D01*
X0151075Y0015440D02*
X0192550Y0015440D01*
X0192550Y0015300D02*
X0188438Y0015300D01*
X0188530Y0014715D01*
X0188756Y0014021D01*
X0189087Y0013371D01*
X0189515Y0012781D01*
X0190031Y0012265D01*
X0190621Y0011837D01*
X0191271Y0011506D01*
X0191965Y0011280D01*
X0192550Y0011188D01*
X0192550Y0015300D01*
X0193550Y0015300D01*
X0193550Y0016300D01*
X0197662Y0016300D01*
X0197570Y0016885D01*
X0197344Y0017579D01*
X0197013Y0018229D01*
X0196584Y0018819D01*
X0196069Y0019334D01*
X0195479Y0019763D01*
X0194829Y0020094D01*
X0194135Y0020320D01*
X0193550Y0020412D01*
X0193550Y0016300D01*
X0192550Y0016300D01*
X0192550Y0020412D01*
X0191965Y0020320D01*
X0191271Y0020094D01*
X0190621Y0019763D01*
X0190031Y0019334D01*
X0189515Y0018819D01*
X0189087Y0018229D01*
X0188756Y0017579D01*
X0188530Y0016885D01*
X0188438Y0016300D01*
X0192550Y0016300D01*
X0192550Y0015300D01*
X0192550Y0014442D02*
X0193550Y0014442D01*
X0193550Y0015300D02*
X0193550Y0011188D01*
X0194135Y0011280D01*
X0194829Y0011506D01*
X0195479Y0011837D01*
X0196069Y0012265D01*
X0196584Y0012781D01*
X0197013Y0013371D01*
X0197344Y0014021D01*
X0197570Y0014715D01*
X0197662Y0015300D01*
X0193550Y0015300D01*
X0193550Y0015440D02*
X0216950Y0015440D01*
X0216950Y0015300D02*
X0212838Y0015300D01*
X0212930Y0014715D01*
X0213156Y0014021D01*
X0213487Y0013371D01*
X0213915Y0012781D01*
X0214431Y0012265D01*
X0215021Y0011837D01*
X0215671Y0011506D01*
X0216365Y0011280D01*
X0216950Y0011188D01*
X0216950Y0015300D01*
X0217950Y0015300D01*
X0217950Y0016300D01*
X0222062Y0016300D01*
X0221970Y0016885D01*
X0221744Y0017579D01*
X0221413Y0018229D01*
X0220984Y0018819D01*
X0220469Y0019334D01*
X0219879Y0019763D01*
X0219229Y0020094D01*
X0218535Y0020320D01*
X0217950Y0020412D01*
X0217950Y0016300D01*
X0216950Y0016300D01*
X0216950Y0020412D01*
X0216365Y0020320D01*
X0215671Y0020094D01*
X0215021Y0019763D01*
X0214431Y0019334D01*
X0213915Y0018819D01*
X0213487Y0018229D01*
X0213156Y0017579D01*
X0212930Y0016885D01*
X0212838Y0016300D01*
X0216950Y0016300D01*
X0216950Y0015300D01*
X0216950Y0014442D02*
X0217950Y0014442D01*
X0217950Y0015300D02*
X0217950Y0011188D01*
X0218535Y0011280D01*
X0219229Y0011506D01*
X0219879Y0011837D01*
X0220469Y0012265D01*
X0220984Y0012781D01*
X0221413Y0013371D01*
X0221744Y0014021D01*
X0221970Y0014715D01*
X0222062Y0015300D01*
X0217950Y0015300D01*
X0217950Y0015440D02*
X0259425Y0015440D01*
X0259425Y0015300D02*
X0255313Y0015300D01*
X0255405Y0014715D01*
X0255631Y0014021D01*
X0255962Y0013371D01*
X0256390Y0012781D01*
X0256906Y0012265D01*
X0257496Y0011837D01*
X0258146Y0011506D01*
X0258840Y0011280D01*
X0259425Y0011188D01*
X0259425Y0015300D01*
X0260425Y0015300D01*
X0260425Y0016300D01*
X0264537Y0016300D01*
X0264445Y0016885D01*
X0264219Y0017579D01*
X0263888Y0018229D01*
X0263459Y0018819D01*
X0262944Y0019334D01*
X0262354Y0019763D01*
X0261704Y0020094D01*
X0261010Y0020320D01*
X0260425Y0020412D01*
X0260425Y0016300D01*
X0259425Y0016300D01*
X0259425Y0020412D01*
X0258840Y0020320D01*
X0258146Y0020094D01*
X0257496Y0019763D01*
X0256906Y0019334D01*
X0256390Y0018819D01*
X0255962Y0018229D01*
X0255631Y0017579D01*
X0255405Y0016885D01*
X0255313Y0016300D01*
X0259425Y0016300D01*
X0259425Y0015300D01*
X0259425Y0014442D02*
X0260425Y0014442D01*
X0260425Y0015300D02*
X0260425Y0011188D01*
X0261010Y0011280D01*
X0261704Y0011506D01*
X0262354Y0011837D01*
X0262944Y0012265D01*
X0263459Y0012781D01*
X0263888Y0013371D01*
X0264219Y0014021D01*
X0264445Y0014715D01*
X0264537Y0015300D01*
X0260425Y0015300D01*
X0260425Y0015440D02*
X0283825Y0015440D01*
X0283825Y0015300D02*
X0279713Y0015300D01*
X0279805Y0014715D01*
X0280031Y0014021D01*
X0280362Y0013371D01*
X0280790Y0012781D01*
X0281306Y0012265D01*
X0281896Y0011837D01*
X0282546Y0011506D01*
X0283240Y0011280D01*
X0283825Y0011188D01*
X0283825Y0015300D01*
X0284825Y0015300D01*
X0284825Y0016300D01*
X0288937Y0016300D01*
X0288845Y0016885D01*
X0288619Y0017579D01*
X0288288Y0018229D01*
X0287859Y0018819D01*
X0287344Y0019334D01*
X0286754Y0019763D01*
X0286104Y0020094D01*
X0285410Y0020320D01*
X0284825Y0020412D01*
X0284825Y0016300D01*
X0283825Y0016300D01*
X0283825Y0020412D01*
X0283240Y0020320D01*
X0282546Y0020094D01*
X0281896Y0019763D01*
X0281306Y0019334D01*
X0280790Y0018819D01*
X0280362Y0018229D01*
X0280031Y0017579D01*
X0279805Y0016885D01*
X0279713Y0016300D01*
X0283825Y0016300D01*
X0283825Y0015300D01*
X0283825Y0014442D02*
X0284825Y0014442D01*
X0284825Y0015300D02*
X0284825Y0011188D01*
X0285410Y0011280D01*
X0286104Y0011506D01*
X0286754Y0011837D01*
X0287344Y0012265D01*
X0287859Y0012781D01*
X0288288Y0013371D01*
X0288619Y0014021D01*
X0288845Y0014715D01*
X0288937Y0015300D01*
X0284825Y0015300D01*
X0284825Y0015440D02*
X0326300Y0015440D01*
X0326300Y0015300D02*
X0322188Y0015300D01*
X0322280Y0014715D01*
X0322506Y0014021D01*
X0322837Y0013371D01*
X0323265Y0012781D01*
X0323781Y0012265D01*
X0324371Y0011837D01*
X0325021Y0011506D01*
X0325715Y0011280D01*
X0326300Y0011188D01*
X0326300Y0015300D01*
X0327300Y0015300D01*
X0327300Y0016300D01*
X0331412Y0016300D01*
X0331320Y0016885D01*
X0331094Y0017579D01*
X0330763Y0018229D01*
X0330334Y0018819D01*
X0329819Y0019334D01*
X0329229Y0019763D01*
X0328579Y0020094D01*
X0327885Y0020320D01*
X0327300Y0020412D01*
X0327300Y0016300D01*
X0326300Y0016300D01*
X0326300Y0020412D01*
X0325715Y0020320D01*
X0325021Y0020094D01*
X0324371Y0019763D01*
X0323781Y0019334D01*
X0323265Y0018819D01*
X0322837Y0018229D01*
X0322506Y0017579D01*
X0322280Y0016885D01*
X0322188Y0016300D01*
X0326300Y0016300D01*
X0326300Y0015300D01*
X0326300Y0014442D02*
X0327300Y0014442D01*
X0327300Y0015300D02*
X0327300Y0011188D01*
X0327885Y0011280D01*
X0328579Y0011506D01*
X0329229Y0011837D01*
X0329819Y0012265D01*
X0330334Y0012781D01*
X0330763Y0013371D01*
X0331094Y0014021D01*
X0331320Y0014715D01*
X0331412Y0015300D01*
X0327300Y0015300D01*
X0327300Y0015440D02*
X0350700Y0015440D01*
X0350700Y0015300D02*
X0346588Y0015300D01*
X0346680Y0014715D01*
X0346906Y0014021D01*
X0347237Y0013371D01*
X0347665Y0012781D01*
X0348181Y0012265D01*
X0348771Y0011837D01*
X0349421Y0011506D01*
X0350115Y0011280D01*
X0350700Y0011188D01*
X0350700Y0015300D01*
X0351700Y0015300D01*
X0351700Y0016300D01*
X0355812Y0016300D01*
X0355720Y0016885D01*
X0355494Y0017579D01*
X0355163Y0018229D01*
X0354734Y0018819D01*
X0354219Y0019334D01*
X0353629Y0019763D01*
X0352979Y0020094D01*
X0352285Y0020320D01*
X0351700Y0020412D01*
X0351700Y0016300D01*
X0350700Y0016300D01*
X0350700Y0020412D01*
X0350115Y0020320D01*
X0349421Y0020094D01*
X0348771Y0019763D01*
X0348181Y0019334D01*
X0347665Y0018819D01*
X0347237Y0018229D01*
X0346906Y0017579D01*
X0346680Y0016885D01*
X0346588Y0016300D01*
X0350700Y0016300D01*
X0350700Y0015300D01*
X0350700Y0014442D02*
X0351700Y0014442D01*
X0351700Y0015300D02*
X0351700Y0011188D01*
X0352285Y0011280D01*
X0352979Y0011506D01*
X0353629Y0011837D01*
X0354219Y0012265D01*
X0354734Y0012781D01*
X0355163Y0013371D01*
X0355494Y0014021D01*
X0355720Y0014715D01*
X0355812Y0015300D01*
X0351700Y0015300D01*
X0351700Y0015440D02*
X0393175Y0015440D01*
X0393175Y0015300D02*
X0389063Y0015300D01*
X0389155Y0014715D01*
X0389381Y0014021D01*
X0389712Y0013371D01*
X0390140Y0012781D01*
X0390656Y0012265D01*
X0391246Y0011837D01*
X0391896Y0011506D01*
X0392590Y0011280D01*
X0393175Y0011188D01*
X0393175Y0015300D01*
X0394175Y0015300D01*
X0394175Y0016300D01*
X0398287Y0016300D01*
X0398195Y0016885D01*
X0397969Y0017579D01*
X0397638Y0018229D01*
X0397209Y0018819D01*
X0396694Y0019334D01*
X0396104Y0019763D01*
X0395454Y0020094D01*
X0394760Y0020320D01*
X0394175Y0020412D01*
X0394175Y0016300D01*
X0393175Y0016300D01*
X0393175Y0020412D01*
X0392590Y0020320D01*
X0391896Y0020094D01*
X0391246Y0019763D01*
X0390656Y0019334D01*
X0390140Y0018819D01*
X0389712Y0018229D01*
X0389381Y0017579D01*
X0389155Y0016885D01*
X0389063Y0016300D01*
X0393175Y0016300D01*
X0393175Y0015300D01*
X0393175Y0014442D02*
X0394175Y0014442D01*
X0394175Y0015300D02*
X0394175Y0011188D01*
X0394760Y0011280D01*
X0395454Y0011506D01*
X0396104Y0011837D01*
X0396694Y0012265D01*
X0397209Y0012781D01*
X0397638Y0013371D01*
X0397969Y0014021D01*
X0398195Y0014715D01*
X0398287Y0015300D01*
X0394175Y0015300D01*
X0394175Y0015440D02*
X0417575Y0015440D01*
X0417575Y0015300D02*
X0413463Y0015300D01*
X0413555Y0014715D01*
X0413781Y0014021D01*
X0414112Y0013371D01*
X0414540Y0012781D01*
X0415056Y0012265D01*
X0415646Y0011837D01*
X0416296Y0011506D01*
X0416990Y0011280D01*
X0417575Y0011188D01*
X0417575Y0015300D01*
X0418575Y0015300D01*
X0418575Y0016300D01*
X0422687Y0016300D01*
X0422595Y0016885D01*
X0422369Y0017579D01*
X0422038Y0018229D01*
X0421609Y0018819D01*
X0421094Y0019334D01*
X0420504Y0019763D01*
X0419854Y0020094D01*
X0419160Y0020320D01*
X0418575Y0020412D01*
X0418575Y0016300D01*
X0417575Y0016300D01*
X0417575Y0020412D01*
X0416990Y0020320D01*
X0416296Y0020094D01*
X0415646Y0019763D01*
X0415056Y0019334D01*
X0414540Y0018819D01*
X0414112Y0018229D01*
X0413781Y0017579D01*
X0413555Y0016885D01*
X0413463Y0016300D01*
X0417575Y0016300D01*
X0417575Y0015300D01*
X0417575Y0014442D02*
X0418575Y0014442D01*
X0418575Y0015300D02*
X0418575Y0011188D01*
X0419160Y0011280D01*
X0419854Y0011506D01*
X0420504Y0011837D01*
X0421094Y0012265D01*
X0421609Y0012781D01*
X0422038Y0013371D01*
X0422369Y0014021D01*
X0422595Y0014715D01*
X0422687Y0015300D01*
X0418575Y0015300D01*
X0418575Y0015440D02*
X0460050Y0015440D01*
X0460050Y0015300D02*
X0455938Y0015300D01*
X0456030Y0014715D01*
X0456256Y0014021D01*
X0456587Y0013371D01*
X0457015Y0012781D01*
X0457531Y0012265D01*
X0458121Y0011837D01*
X0458771Y0011506D01*
X0459465Y0011280D01*
X0460050Y0011188D01*
X0460050Y0015300D01*
X0461050Y0015300D01*
X0461050Y0016300D01*
X0465162Y0016300D01*
X0465070Y0016885D01*
X0464844Y0017579D01*
X0464513Y0018229D01*
X0464084Y0018819D01*
X0463569Y0019334D01*
X0462979Y0019763D01*
X0462329Y0020094D01*
X0461635Y0020320D01*
X0461050Y0020412D01*
X0461050Y0016300D01*
X0460050Y0016300D01*
X0460050Y0020412D01*
X0459465Y0020320D01*
X0458771Y0020094D01*
X0458121Y0019763D01*
X0457531Y0019334D01*
X0457015Y0018819D01*
X0456587Y0018229D01*
X0456256Y0017579D01*
X0456030Y0016885D01*
X0455938Y0016300D01*
X0460050Y0016300D01*
X0460050Y0015300D01*
X0460050Y0014442D02*
X0461050Y0014442D01*
X0461050Y0015300D02*
X0461050Y0011188D01*
X0461635Y0011280D01*
X0462329Y0011506D01*
X0462979Y0011837D01*
X0463569Y0012265D01*
X0464084Y0012781D01*
X0464513Y0013371D01*
X0464844Y0014021D01*
X0465070Y0014715D01*
X0465162Y0015300D01*
X0461050Y0015300D01*
X0461050Y0015440D02*
X0484450Y0015440D01*
X0484450Y0015300D02*
X0480338Y0015300D01*
X0480430Y0014715D01*
X0480656Y0014021D01*
X0480987Y0013371D01*
X0481415Y0012781D01*
X0481931Y0012265D01*
X0482521Y0011837D01*
X0483171Y0011506D01*
X0483865Y0011280D01*
X0484450Y0011188D01*
X0484450Y0015300D01*
X0485450Y0015300D01*
X0485450Y0016300D01*
X0489562Y0016300D01*
X0489470Y0016885D01*
X0489244Y0017579D01*
X0488913Y0018229D01*
X0488484Y0018819D01*
X0487969Y0019334D01*
X0487379Y0019763D01*
X0486729Y0020094D01*
X0486035Y0020320D01*
X0485450Y0020412D01*
X0485450Y0016300D01*
X0484450Y0016300D01*
X0484450Y0020412D01*
X0483865Y0020320D01*
X0483171Y0020094D01*
X0482521Y0019763D01*
X0481931Y0019334D01*
X0481415Y0018819D01*
X0480987Y0018229D01*
X0480656Y0017579D01*
X0480430Y0016885D01*
X0480338Y0016300D01*
X0484450Y0016300D01*
X0484450Y0015300D01*
X0484450Y0014442D02*
X0485450Y0014442D01*
X0485450Y0015300D02*
X0485450Y0011188D01*
X0486035Y0011280D01*
X0486729Y0011506D01*
X0487379Y0011837D01*
X0487969Y0012265D01*
X0488484Y0012781D01*
X0488913Y0013371D01*
X0489244Y0014021D01*
X0489470Y0014715D01*
X0489562Y0015300D01*
X0485450Y0015300D01*
X0485450Y0015440D02*
X0507240Y0015440D01*
X0507240Y0014442D02*
X0489381Y0014442D01*
X0488950Y0013443D02*
X0507240Y0013443D01*
X0507240Y0012445D02*
X0488148Y0012445D01*
X0486546Y0011446D02*
X0507240Y0011446D01*
X0507240Y0010448D02*
X0003181Y0010448D01*
X0003181Y0011446D02*
X0057703Y0011446D01*
X0058800Y0011446D02*
X0059800Y0011446D01*
X0059800Y0012445D02*
X0058800Y0012445D01*
X0058800Y0013443D02*
X0059800Y0013443D01*
X0062498Y0012445D02*
X0080502Y0012445D01*
X0079700Y0013443D02*
X0063300Y0013443D01*
X0063731Y0014442D02*
X0079269Y0014442D01*
X0079110Y0016439D02*
X0063890Y0016439D01*
X0063640Y0017437D02*
X0079360Y0017437D01*
X0079887Y0018436D02*
X0063113Y0018436D01*
X0062181Y0019434D02*
X0080819Y0019434D01*
X0083200Y0019434D02*
X0084200Y0019434D01*
X0084200Y0018436D02*
X0083200Y0018436D01*
X0083200Y0017437D02*
X0084200Y0017437D01*
X0084200Y0016439D02*
X0083200Y0016439D01*
X0083200Y0013443D02*
X0084200Y0013443D01*
X0084200Y0012445D02*
X0083200Y0012445D01*
X0083200Y0011446D02*
X0084200Y0011446D01*
X0085296Y0011446D02*
X0124578Y0011446D01*
X0125675Y0011446D02*
X0126675Y0011446D01*
X0126675Y0012445D02*
X0125675Y0012445D01*
X0125675Y0013443D02*
X0126675Y0013443D01*
X0129373Y0012445D02*
X0147377Y0012445D01*
X0146575Y0013443D02*
X0130175Y0013443D01*
X0130606Y0014442D02*
X0146144Y0014442D01*
X0145985Y0016439D02*
X0130765Y0016439D01*
X0130515Y0017437D02*
X0146235Y0017437D01*
X0146762Y0018436D02*
X0129988Y0018436D01*
X0129056Y0019434D02*
X0147694Y0019434D01*
X0150075Y0019434D02*
X0151075Y0019434D01*
X0151075Y0018436D02*
X0150075Y0018436D01*
X0150075Y0017437D02*
X0151075Y0017437D01*
X0151075Y0016439D02*
X0150075Y0016439D01*
X0150075Y0013443D02*
X0151075Y0013443D01*
X0151075Y0012445D02*
X0150075Y0012445D01*
X0150075Y0011446D02*
X0151075Y0011446D01*
X0152171Y0011446D02*
X0191453Y0011446D01*
X0192550Y0011446D02*
X0193550Y0011446D01*
X0193550Y0012445D02*
X0192550Y0012445D01*
X0192550Y0013443D02*
X0193550Y0013443D01*
X0196248Y0012445D02*
X0214252Y0012445D01*
X0213450Y0013443D02*
X0197050Y0013443D01*
X0197481Y0014442D02*
X0213019Y0014442D01*
X0212860Y0016439D02*
X0197640Y0016439D01*
X0197390Y0017437D02*
X0213110Y0017437D01*
X0213637Y0018436D02*
X0196863Y0018436D01*
X0195931Y0019434D02*
X0214569Y0019434D01*
X0216950Y0019434D02*
X0217950Y0019434D01*
X0217950Y0018436D02*
X0216950Y0018436D01*
X0216950Y0017437D02*
X0217950Y0017437D01*
X0217950Y0016439D02*
X0216950Y0016439D01*
X0216950Y0013443D02*
X0217950Y0013443D01*
X0217950Y0012445D02*
X0216950Y0012445D01*
X0216950Y0011446D02*
X0217950Y0011446D01*
X0219046Y0011446D02*
X0258328Y0011446D01*
X0259425Y0011446D02*
X0260425Y0011446D01*
X0260425Y0012445D02*
X0259425Y0012445D01*
X0259425Y0013443D02*
X0260425Y0013443D01*
X0263123Y0012445D02*
X0281127Y0012445D01*
X0280325Y0013443D02*
X0263925Y0013443D01*
X0264356Y0014442D02*
X0279894Y0014442D01*
X0279735Y0016439D02*
X0264515Y0016439D01*
X0264265Y0017437D02*
X0279985Y0017437D01*
X0280512Y0018436D02*
X0263738Y0018436D01*
X0262806Y0019434D02*
X0281444Y0019434D01*
X0283825Y0019434D02*
X0284825Y0019434D01*
X0284825Y0018436D02*
X0283825Y0018436D01*
X0283825Y0017437D02*
X0284825Y0017437D01*
X0284825Y0016439D02*
X0283825Y0016439D01*
X0283825Y0013443D02*
X0284825Y0013443D01*
X0284825Y0012445D02*
X0283825Y0012445D01*
X0283825Y0011446D02*
X0284825Y0011446D01*
X0285921Y0011446D02*
X0325203Y0011446D01*
X0326300Y0011446D02*
X0327300Y0011446D01*
X0327300Y0012445D02*
X0326300Y0012445D01*
X0326300Y0013443D02*
X0327300Y0013443D01*
X0329998Y0012445D02*
X0348002Y0012445D01*
X0347200Y0013443D02*
X0330800Y0013443D01*
X0331231Y0014442D02*
X0346769Y0014442D01*
X0346610Y0016439D02*
X0331390Y0016439D01*
X0331140Y0017437D02*
X0346860Y0017437D01*
X0347387Y0018436D02*
X0330613Y0018436D01*
X0329681Y0019434D02*
X0348319Y0019434D01*
X0350700Y0019434D02*
X0351700Y0019434D01*
X0351700Y0018436D02*
X0350700Y0018436D01*
X0350700Y0017437D02*
X0351700Y0017437D01*
X0351700Y0016439D02*
X0350700Y0016439D01*
X0350700Y0013443D02*
X0351700Y0013443D01*
X0351700Y0012445D02*
X0350700Y0012445D01*
X0350700Y0011446D02*
X0351700Y0011446D01*
X0352796Y0011446D02*
X0392078Y0011446D01*
X0393175Y0011446D02*
X0394175Y0011446D01*
X0394175Y0012445D02*
X0393175Y0012445D01*
X0393175Y0013443D02*
X0394175Y0013443D01*
X0396873Y0012445D02*
X0414877Y0012445D01*
X0414075Y0013443D02*
X0397675Y0013443D01*
X0398106Y0014442D02*
X0413644Y0014442D01*
X0413485Y0016439D02*
X0398265Y0016439D01*
X0398015Y0017437D02*
X0413735Y0017437D01*
X0414262Y0018436D02*
X0397488Y0018436D01*
X0396556Y0019434D02*
X0415194Y0019434D01*
X0417575Y0019434D02*
X0418575Y0019434D01*
X0418575Y0018436D02*
X0417575Y0018436D01*
X0417575Y0017437D02*
X0418575Y0017437D01*
X0418575Y0016439D02*
X0417575Y0016439D01*
X0417575Y0013443D02*
X0418575Y0013443D01*
X0418575Y0012445D02*
X0417575Y0012445D01*
X0417575Y0011446D02*
X0418575Y0011446D01*
X0419671Y0011446D02*
X0458953Y0011446D01*
X0460050Y0011446D02*
X0461050Y0011446D01*
X0461050Y0012445D02*
X0460050Y0012445D01*
X0460050Y0013443D02*
X0461050Y0013443D01*
X0463748Y0012445D02*
X0481752Y0012445D01*
X0480950Y0013443D02*
X0464550Y0013443D01*
X0464981Y0014442D02*
X0480519Y0014442D01*
X0480360Y0016439D02*
X0465140Y0016439D01*
X0464890Y0017437D02*
X0480610Y0017437D01*
X0481137Y0018436D02*
X0464363Y0018436D01*
X0463431Y0019434D02*
X0482069Y0019434D01*
X0484450Y0019434D02*
X0485450Y0019434D01*
X0485450Y0018436D02*
X0484450Y0018436D01*
X0484450Y0017437D02*
X0485450Y0017437D01*
X0485450Y0016439D02*
X0484450Y0016439D01*
X0484450Y0013443D02*
X0485450Y0013443D01*
X0485450Y0012445D02*
X0484450Y0012445D01*
X0484450Y0011446D02*
X0485450Y0011446D01*
X0483353Y0011446D02*
X0462146Y0011446D01*
X0457352Y0012445D02*
X0421273Y0012445D01*
X0422075Y0013443D02*
X0456550Y0013443D01*
X0456119Y0014442D02*
X0422506Y0014442D01*
X0422665Y0016439D02*
X0455960Y0016439D01*
X0456210Y0017437D02*
X0422415Y0017437D01*
X0421888Y0018436D02*
X0456737Y0018436D01*
X0457669Y0019434D02*
X0420956Y0019434D01*
X0408299Y0024427D02*
X0470326Y0024427D01*
X0469328Y0025426D02*
X0409297Y0025426D01*
X0409812Y0026424D02*
X0468813Y0026424D01*
X0468510Y0027423D02*
X0410115Y0027423D01*
X0410115Y0028421D02*
X0468510Y0028421D01*
X0468749Y0029420D02*
X0409876Y0029420D01*
X0409453Y0030418D02*
X0469172Y0030418D01*
X0470170Y0031417D02*
X0408455Y0031417D01*
X0394175Y0019434D02*
X0393175Y0019434D01*
X0393175Y0018436D02*
X0394175Y0018436D01*
X0394175Y0017437D02*
X0393175Y0017437D01*
X0393175Y0016439D02*
X0394175Y0016439D01*
X0389335Y0017437D02*
X0355540Y0017437D01*
X0355790Y0016439D02*
X0389085Y0016439D01*
X0389244Y0014442D02*
X0355631Y0014442D01*
X0355200Y0013443D02*
X0389675Y0013443D01*
X0390477Y0012445D02*
X0354398Y0012445D01*
X0349603Y0011446D02*
X0328396Y0011446D01*
X0323602Y0012445D02*
X0287523Y0012445D01*
X0288325Y0013443D02*
X0322800Y0013443D01*
X0322369Y0014442D02*
X0288756Y0014442D01*
X0288915Y0016439D02*
X0322210Y0016439D01*
X0322460Y0017437D02*
X0288665Y0017437D01*
X0288138Y0018436D02*
X0322987Y0018436D01*
X0323919Y0019434D02*
X0287206Y0019434D01*
X0282728Y0011446D02*
X0261521Y0011446D01*
X0256727Y0012445D02*
X0220648Y0012445D01*
X0221450Y0013443D02*
X0255925Y0013443D01*
X0255494Y0014442D02*
X0221881Y0014442D01*
X0222040Y0016439D02*
X0255335Y0016439D01*
X0255585Y0017437D02*
X0221790Y0017437D01*
X0221263Y0018436D02*
X0256112Y0018436D01*
X0257044Y0019434D02*
X0220331Y0019434D01*
X0215853Y0011446D02*
X0194646Y0011446D01*
X0189852Y0012445D02*
X0153773Y0012445D01*
X0154575Y0013443D02*
X0189050Y0013443D01*
X0188619Y0014442D02*
X0155006Y0014442D01*
X0155165Y0016439D02*
X0188460Y0016439D01*
X0188710Y0017437D02*
X0154915Y0017437D01*
X0154388Y0018436D02*
X0189237Y0018436D01*
X0190169Y0019434D02*
X0153456Y0019434D01*
X0148978Y0011446D02*
X0127771Y0011446D01*
X0122977Y0012445D02*
X0086898Y0012445D01*
X0087700Y0013443D02*
X0122175Y0013443D01*
X0121744Y0014442D02*
X0088131Y0014442D01*
X0088290Y0016439D02*
X0121585Y0016439D01*
X0121835Y0017437D02*
X0088040Y0017437D01*
X0087513Y0018436D02*
X0122362Y0018436D01*
X0123294Y0019434D02*
X0086581Y0019434D01*
X0068078Y0025426D02*
X0003181Y0025426D01*
X0003181Y0026424D02*
X0067563Y0026424D01*
X0067260Y0027423D02*
X0003181Y0027423D01*
X0003181Y0028421D02*
X0067260Y0028421D01*
X0067499Y0029420D02*
X0003181Y0029420D01*
X0003181Y0030418D02*
X0067922Y0030418D01*
X0068920Y0031417D02*
X0003181Y0031417D01*
X0003181Y0032415D02*
X0069809Y0032415D01*
X0069809Y0033414D02*
X0003181Y0033414D01*
X0003181Y0034412D02*
X0069809Y0034412D01*
X0069809Y0035411D02*
X0003181Y0035411D01*
X0003181Y0036409D02*
X0056634Y0036409D01*
X0056871Y0036237D02*
X0056281Y0036665D01*
X0055765Y0037181D01*
X0055337Y0037771D01*
X0055006Y0038421D01*
X0054780Y0039115D01*
X0054688Y0039700D01*
X0058800Y0039700D01*
X0059800Y0039700D01*
X0059800Y0040700D01*
X0063912Y0040700D01*
X0063820Y0041285D01*
X0063594Y0041979D01*
X0063263Y0042629D01*
X0062834Y0043219D01*
X0062319Y0043734D01*
X0061729Y0044163D01*
X0061079Y0044494D01*
X0060385Y0044720D01*
X0059800Y0044812D01*
X0059800Y0040700D01*
X0058800Y0040700D01*
X0058800Y0044812D01*
X0058215Y0044720D01*
X0057521Y0044494D01*
X0056871Y0044163D01*
X0056281Y0043734D01*
X0055765Y0043219D01*
X0055337Y0042629D01*
X0055006Y0041979D01*
X0054780Y0041285D01*
X0054688Y0040700D01*
X0058800Y0040700D01*
X0058800Y0039700D01*
X0058800Y0035588D01*
X0058215Y0035680D01*
X0057521Y0035906D01*
X0056871Y0036237D01*
X0055601Y0037408D02*
X0003181Y0037408D01*
X0003181Y0038406D02*
X0055013Y0038406D01*
X0054734Y0039405D02*
X0003181Y0039405D01*
X0003181Y0040403D02*
X0058800Y0040403D01*
X0058800Y0039405D02*
X0059800Y0039405D01*
X0059800Y0039700D02*
X0059800Y0035588D01*
X0060385Y0035680D01*
X0061079Y0035906D01*
X0061729Y0036237D01*
X0062319Y0036665D01*
X0062834Y0037181D01*
X0063263Y0037771D01*
X0063594Y0038421D01*
X0063820Y0039115D01*
X0063912Y0039700D01*
X0059800Y0039700D01*
X0059800Y0040403D02*
X0069809Y0040403D01*
X0069809Y0039405D02*
X0063866Y0039405D01*
X0063587Y0038406D02*
X0069809Y0038406D01*
X0069809Y0037408D02*
X0062999Y0037408D01*
X0061966Y0036409D02*
X0069809Y0036409D01*
X0059800Y0036409D02*
X0058800Y0036409D01*
X0058800Y0037408D02*
X0059800Y0037408D01*
X0059800Y0038406D02*
X0058800Y0038406D01*
X0058800Y0041402D02*
X0059800Y0041402D01*
X0059800Y0042400D02*
X0058800Y0042400D01*
X0058800Y0043399D02*
X0059800Y0043399D01*
X0059800Y0044397D02*
X0058800Y0044397D01*
X0057331Y0044397D02*
X0003181Y0044397D01*
X0003181Y0043399D02*
X0055946Y0043399D01*
X0055220Y0042400D02*
X0003181Y0042400D01*
X0003181Y0041402D02*
X0054818Y0041402D01*
X0061269Y0044397D02*
X0069809Y0044397D01*
X0069809Y0043399D02*
X0062654Y0043399D01*
X0063380Y0042400D02*
X0069809Y0042400D01*
X0069809Y0041402D02*
X0063782Y0041402D01*
X0073191Y0041402D02*
X0079218Y0041402D01*
X0079620Y0042400D02*
X0073191Y0042400D01*
X0073191Y0043399D02*
X0080346Y0043399D01*
X0081731Y0044397D02*
X0073191Y0044397D01*
X0073191Y0045396D02*
X0136684Y0045396D01*
X0136684Y0046394D02*
X0073191Y0046394D01*
X0073191Y0047393D02*
X0136684Y0047393D01*
X0136684Y0048391D02*
X0073191Y0048391D01*
X0073191Y0049390D02*
X0136684Y0049390D01*
X0136684Y0050388D02*
X0073191Y0050388D01*
X0073191Y0051387D02*
X0136684Y0051387D01*
X0136684Y0052385D02*
X0073191Y0052385D01*
X0073191Y0053384D02*
X0136684Y0053384D01*
X0136684Y0054382D02*
X0073191Y0054382D01*
X0073191Y0055381D02*
X0136684Y0055381D01*
X0136684Y0056379D02*
X0073191Y0056379D01*
X0073191Y0057378D02*
X0136684Y0057378D01*
X0136684Y0058376D02*
X0073191Y0058376D01*
X0073191Y0059375D02*
X0136684Y0059375D01*
X0136684Y0060373D02*
X0073191Y0060373D01*
X0073191Y0061372D02*
X0136684Y0061372D01*
X0136684Y0062370D02*
X0072926Y0062370D01*
X0069809Y0060373D02*
X0028764Y0060373D01*
X0027766Y0059375D02*
X0069809Y0059375D01*
X0069809Y0058376D02*
X0026842Y0058376D01*
X0027526Y0059135D02*
X0027526Y0059135D01*
X0027620Y0059229D02*
X0027620Y0059229D01*
X0027418Y0057378D02*
X0069809Y0057378D01*
X0069809Y0056379D02*
X0023859Y0056379D01*
X0022891Y0056379D02*
X0017221Y0056379D01*
X0017221Y0055381D02*
X0019332Y0055381D01*
X0019332Y0055641D02*
X0019332Y0054450D01*
X0021700Y0052082D01*
X0022891Y0052082D01*
X0022891Y0055641D01*
X0019332Y0055641D01*
X0019400Y0054382D02*
X0017072Y0054382D01*
X0016074Y0053384D02*
X0020398Y0053384D01*
X0021397Y0052385D02*
X0015075Y0052385D01*
X0011675Y0052385D02*
X0003181Y0052385D01*
X0003181Y0051387D02*
X0069809Y0051387D01*
X0069809Y0052385D02*
X0025353Y0052385D01*
X0026352Y0053384D02*
X0069809Y0053384D01*
X0069809Y0054382D02*
X0027350Y0054382D01*
X0027418Y0055381D02*
X0069809Y0055381D01*
X0069809Y0050388D02*
X0003181Y0050388D01*
X0003181Y0049390D02*
X0069809Y0049390D01*
X0069809Y0048391D02*
X0003181Y0048391D01*
X0003181Y0047393D02*
X0069809Y0047393D01*
X0069809Y0046394D02*
X0003181Y0046394D01*
X0003181Y0045396D02*
X0069809Y0045396D01*
X0083200Y0039405D02*
X0084200Y0039405D01*
X0084200Y0038406D02*
X0083200Y0038406D01*
X0083200Y0037408D02*
X0084200Y0037408D01*
X0084200Y0036409D02*
X0083200Y0036409D01*
X0086366Y0036409D02*
X0123509Y0036409D01*
X0122476Y0037408D02*
X0087399Y0037408D01*
X0087987Y0038406D02*
X0121888Y0038406D01*
X0121609Y0039405D02*
X0088266Y0039405D01*
X0125675Y0038406D02*
X0126675Y0038406D01*
X0126675Y0037408D02*
X0125675Y0037408D01*
X0125675Y0036409D02*
X0126675Y0036409D01*
X0130657Y0041402D02*
X0136684Y0041402D01*
X0136684Y0042400D02*
X0130255Y0042400D01*
X0129529Y0043399D02*
X0136684Y0043399D01*
X0136684Y0044397D02*
X0128144Y0044397D01*
X0140066Y0044397D02*
X0148606Y0044397D01*
X0147221Y0043399D02*
X0140066Y0043399D01*
X0140066Y0042400D02*
X0146495Y0042400D01*
X0146093Y0041402D02*
X0140066Y0041402D01*
X0140066Y0045396D02*
X0203559Y0045396D01*
X0203559Y0046394D02*
X0140066Y0046394D01*
X0140066Y0047393D02*
X0203559Y0047393D01*
X0203559Y0048391D02*
X0140066Y0048391D01*
X0140066Y0049390D02*
X0203559Y0049390D01*
X0203559Y0050388D02*
X0140066Y0050388D01*
X0140066Y0051387D02*
X0203559Y0051387D01*
X0203559Y0052385D02*
X0140066Y0052385D01*
X0140066Y0053384D02*
X0203559Y0053384D01*
X0203559Y0054382D02*
X0140066Y0054382D01*
X0140066Y0055381D02*
X0203559Y0055381D01*
X0203559Y0056379D02*
X0140066Y0056379D01*
X0140066Y0057378D02*
X0203559Y0057378D01*
X0203559Y0058376D02*
X0140066Y0058376D01*
X0140066Y0059375D02*
X0203559Y0059375D01*
X0203559Y0060373D02*
X0140066Y0060373D01*
X0140066Y0061372D02*
X0203559Y0061372D01*
X0203559Y0062370D02*
X0140066Y0062370D01*
X0140066Y0063369D02*
X0203559Y0063369D01*
X0203559Y0064368D02*
X0139731Y0064368D01*
X0195019Y0044397D02*
X0203559Y0044397D01*
X0203559Y0043399D02*
X0196404Y0043399D01*
X0197130Y0042400D02*
X0203559Y0042400D01*
X0203559Y0041402D02*
X0197532Y0041402D01*
X0193550Y0038406D02*
X0192550Y0038406D01*
X0192550Y0037408D02*
X0193550Y0037408D01*
X0193550Y0036409D02*
X0192550Y0036409D01*
X0190384Y0036409D02*
X0153241Y0036409D01*
X0154274Y0037408D02*
X0189351Y0037408D01*
X0188763Y0038406D02*
X0154862Y0038406D01*
X0155141Y0039405D02*
X0188484Y0039405D01*
X0206941Y0041402D02*
X0212968Y0041402D01*
X0213370Y0042400D02*
X0206941Y0042400D01*
X0206941Y0043399D02*
X0214096Y0043399D01*
X0215481Y0044397D02*
X0206941Y0044397D01*
X0206941Y0045396D02*
X0270434Y0045396D01*
X0270434Y0046394D02*
X0206941Y0046394D01*
X0206941Y0047393D02*
X0270434Y0047393D01*
X0270434Y0048391D02*
X0206941Y0048391D01*
X0206941Y0049390D02*
X0270434Y0049390D01*
X0270434Y0050388D02*
X0206941Y0050388D01*
X0206941Y0051387D02*
X0270434Y0051387D01*
X0270434Y0052385D02*
X0206941Y0052385D01*
X0206941Y0053384D02*
X0270434Y0053384D01*
X0270434Y0054382D02*
X0206941Y0054382D01*
X0206941Y0055381D02*
X0270434Y0055381D01*
X0270434Y0056379D02*
X0206941Y0056379D01*
X0206941Y0057378D02*
X0270434Y0057378D01*
X0270434Y0058376D02*
X0206941Y0058376D01*
X0206941Y0059375D02*
X0270434Y0059375D01*
X0270434Y0060373D02*
X0206941Y0060373D01*
X0206941Y0061372D02*
X0270434Y0061372D01*
X0270434Y0062370D02*
X0206941Y0062370D01*
X0206941Y0063369D02*
X0270434Y0063369D01*
X0270434Y0064368D02*
X0206941Y0064368D01*
X0206941Y0065366D02*
X0270434Y0065366D01*
X0270434Y0066365D02*
X0206535Y0066365D01*
X0205572Y0067363D02*
X0270434Y0067363D01*
X0270434Y0068362D02*
X0026578Y0068362D01*
X0025580Y0069360D02*
X0270434Y0069360D01*
X0273816Y0069360D02*
X0337309Y0069360D01*
X0337309Y0068362D02*
X0273816Y0068362D01*
X0273816Y0067363D02*
X0337309Y0067363D01*
X0337309Y0066365D02*
X0273816Y0066365D01*
X0273816Y0065366D02*
X0337309Y0065366D01*
X0337309Y0064368D02*
X0273816Y0064368D01*
X0273816Y0063369D02*
X0337309Y0063369D01*
X0337309Y0062370D02*
X0273816Y0062370D01*
X0273816Y0061372D02*
X0337309Y0061372D01*
X0337309Y0060373D02*
X0273816Y0060373D01*
X0273816Y0059375D02*
X0337309Y0059375D01*
X0337309Y0058376D02*
X0273816Y0058376D01*
X0273816Y0057378D02*
X0337309Y0057378D01*
X0337309Y0056379D02*
X0273816Y0056379D01*
X0273816Y0055381D02*
X0337309Y0055381D01*
X0337309Y0054382D02*
X0273816Y0054382D01*
X0273816Y0053384D02*
X0337309Y0053384D01*
X0337309Y0052385D02*
X0273816Y0052385D01*
X0273816Y0051387D02*
X0337309Y0051387D01*
X0337309Y0050388D02*
X0273816Y0050388D01*
X0273816Y0049390D02*
X0337309Y0049390D01*
X0337309Y0048391D02*
X0273816Y0048391D01*
X0273816Y0047393D02*
X0337309Y0047393D01*
X0337309Y0046394D02*
X0273816Y0046394D01*
X0273816Y0045396D02*
X0337309Y0045396D01*
X0337309Y0044397D02*
X0328769Y0044397D01*
X0330154Y0043399D02*
X0337309Y0043399D01*
X0337309Y0042400D02*
X0330880Y0042400D01*
X0331282Y0041402D02*
X0337309Y0041402D01*
X0340691Y0041402D02*
X0346718Y0041402D01*
X0347120Y0042400D02*
X0340691Y0042400D01*
X0340691Y0043399D02*
X0347846Y0043399D01*
X0349231Y0044397D02*
X0340691Y0044397D01*
X0350700Y0038406D02*
X0351700Y0038406D01*
X0351700Y0037408D02*
X0350700Y0037408D01*
X0350700Y0036409D02*
X0351700Y0036409D01*
X0327300Y0036409D02*
X0326300Y0036409D01*
X0326300Y0037408D02*
X0327300Y0037408D01*
X0327300Y0038406D02*
X0326300Y0038406D01*
X0324134Y0036409D02*
X0286991Y0036409D01*
X0288024Y0037408D02*
X0323101Y0037408D01*
X0322513Y0038406D02*
X0288612Y0038406D01*
X0288891Y0039405D02*
X0322234Y0039405D01*
X0284825Y0039405D02*
X0283825Y0039405D01*
X0283825Y0038406D02*
X0284825Y0038406D01*
X0284825Y0037408D02*
X0283825Y0037408D01*
X0283825Y0036409D02*
X0284825Y0036409D01*
X0279843Y0041402D02*
X0273816Y0041402D01*
X0273816Y0042400D02*
X0280245Y0042400D01*
X0280971Y0043399D02*
X0273816Y0043399D01*
X0273816Y0044397D02*
X0282356Y0044397D01*
X0270434Y0044397D02*
X0261894Y0044397D01*
X0263279Y0043399D02*
X0270434Y0043399D01*
X0270434Y0042400D02*
X0264005Y0042400D01*
X0264407Y0041402D02*
X0270434Y0041402D01*
X0260425Y0038406D02*
X0259425Y0038406D01*
X0259425Y0037408D02*
X0260425Y0037408D01*
X0260425Y0036409D02*
X0259425Y0036409D01*
X0257259Y0036409D02*
X0220116Y0036409D01*
X0221149Y0037408D02*
X0256226Y0037408D01*
X0255638Y0038406D02*
X0221737Y0038406D01*
X0222016Y0039405D02*
X0255359Y0039405D01*
X0217950Y0039405D02*
X0216950Y0039405D01*
X0216950Y0038406D02*
X0217950Y0038406D01*
X0217950Y0037408D02*
X0216950Y0037408D01*
X0216950Y0036409D02*
X0217950Y0036409D01*
X0193550Y0019434D02*
X0192550Y0019434D01*
X0192550Y0018436D02*
X0193550Y0018436D01*
X0193550Y0017437D02*
X0192550Y0017437D01*
X0192550Y0016439D02*
X0193550Y0016439D01*
X0126675Y0016439D02*
X0125675Y0016439D01*
X0125675Y0017437D02*
X0126675Y0017437D01*
X0126675Y0018436D02*
X0125675Y0018436D01*
X0125675Y0019434D02*
X0126675Y0019434D01*
X0082103Y0011446D02*
X0060896Y0011446D01*
X0056102Y0012445D02*
X0003181Y0012445D01*
X0003181Y0013443D02*
X0055300Y0013443D01*
X0054869Y0014442D02*
X0003181Y0014442D01*
X0058800Y0016439D02*
X0059800Y0016439D01*
X0059800Y0017437D02*
X0058800Y0017437D01*
X0058800Y0018436D02*
X0059800Y0018436D01*
X0059800Y0019434D02*
X0058800Y0019434D01*
X0150075Y0036409D02*
X0151075Y0036409D01*
X0151075Y0037408D02*
X0150075Y0037408D01*
X0150075Y0038406D02*
X0151075Y0038406D01*
X0151075Y0039405D02*
X0150075Y0039405D01*
X0259425Y0019434D02*
X0260425Y0019434D01*
X0260425Y0018436D02*
X0259425Y0018436D01*
X0259425Y0017437D02*
X0260425Y0017437D01*
X0260425Y0016439D02*
X0259425Y0016439D01*
X0326300Y0016439D02*
X0327300Y0016439D01*
X0327300Y0017437D02*
X0326300Y0017437D01*
X0326300Y0018436D02*
X0327300Y0018436D01*
X0327300Y0019434D02*
X0326300Y0019434D01*
X0354081Y0019434D02*
X0390794Y0019434D01*
X0389862Y0018436D02*
X0355013Y0018436D01*
X0395271Y0011446D02*
X0416478Y0011446D01*
X0460050Y0016439D02*
X0461050Y0016439D01*
X0461050Y0017437D02*
X0460050Y0017437D01*
X0460050Y0018436D02*
X0461050Y0018436D01*
X0461050Y0019434D02*
X0460050Y0019434D01*
X0487831Y0019434D02*
X0507240Y0019434D01*
X0507240Y0018436D02*
X0488763Y0018436D01*
X0489290Y0017437D02*
X0507240Y0017437D01*
X0507240Y0016439D02*
X0489540Y0016439D01*
X0337309Y0070359D02*
X0273816Y0070359D01*
X0339123Y0074353D02*
X0463165Y0074353D01*
X0462166Y0075351D02*
X0027221Y0075351D01*
X0027221Y0076350D02*
X0461450Y0076350D01*
X0461036Y0077348D02*
X0027221Y0077348D01*
X0011734Y0092326D02*
X0003181Y0092326D01*
X0003181Y0093324D02*
X0010736Y0093324D01*
X0009737Y0094323D02*
X0003181Y0094323D01*
X0003181Y0095321D02*
X0009529Y0095321D01*
X0009529Y0096320D02*
X0003181Y0096320D01*
X0003181Y0097318D02*
X0009529Y0097318D01*
X0010127Y0098317D02*
X0003181Y0098317D01*
X0003181Y0099315D02*
X0011126Y0099315D01*
X0018431Y0104308D02*
X0019474Y0104308D01*
X0022891Y0107303D02*
X0023859Y0107303D01*
X0023859Y0108302D02*
X0022891Y0108302D01*
X0022891Y0109301D02*
X0023859Y0109301D01*
X0015510Y0060651D02*
X0015510Y0060651D01*
X0015233Y0060373D02*
X0003181Y0060373D01*
X0003181Y0059375D02*
X0011185Y0059375D01*
X0010187Y0058376D02*
X0003181Y0058376D01*
X0003181Y0057378D02*
X0009529Y0057378D01*
X0009529Y0056379D02*
X0003181Y0056379D01*
X0003181Y0055381D02*
X0009529Y0055381D01*
X0009678Y0054382D02*
X0003181Y0054382D01*
X0003181Y0053384D02*
X0010676Y0053384D01*
X0017221Y0057378D02*
X0019332Y0057378D01*
X0019908Y0058376D02*
X0018062Y0058376D01*
X0017406Y0057765D02*
X0017405Y0057765D01*
X0022891Y0055381D02*
X0023859Y0055381D01*
X0023859Y0054382D02*
X0022891Y0054382D01*
X0022891Y0053384D02*
X0023859Y0053384D01*
X0023859Y0052385D02*
X0022891Y0052385D01*
X0340219Y0073354D02*
X0464465Y0073354D01*
X0499552Y0076350D02*
X0507240Y0076350D01*
X0507240Y0077348D02*
X0500094Y0077348D01*
X0500465Y0078347D02*
X0507240Y0078347D01*
X0507240Y0079345D02*
X0500688Y0079345D01*
X0507240Y0100314D02*
X0487334Y0100314D01*
X0487143Y0101312D02*
X0507240Y0101312D01*
X0507240Y0102311D02*
X0486807Y0102311D01*
X0486304Y0103309D02*
X0507240Y0103309D01*
X0507240Y0104308D02*
X0485597Y0104308D01*
X0484564Y0105306D02*
X0507240Y0105306D01*
D23*
X0384625Y0087375D03*
X0384625Y0082375D03*
X0039000Y0104875D03*
X0037750Y0099875D03*
D24*
X0077125Y0099875D01*
X0094625Y0082375D01*
X0384625Y0082375D01*
X0384625Y0087375D02*
X0097125Y0087375D01*
X0079625Y0104875D01*
X0039000Y0104875D01*
X0044903Y0086572D02*
X0048824Y0086572D01*
X0048824Y0086571D02*
X0048896Y0086569D01*
X0048969Y0086563D01*
X0049040Y0086553D01*
X0049112Y0086540D01*
X0049182Y0086522D01*
X0049251Y0086501D01*
X0049319Y0086476D01*
X0049386Y0086447D01*
X0049451Y0086415D01*
X0049514Y0086379D01*
X0049575Y0086340D01*
X0049634Y0086298D01*
X0049690Y0086253D01*
X0049744Y0086204D01*
X0049795Y0086153D01*
X0049844Y0086099D01*
X0049889Y0086043D01*
X0049931Y0085984D01*
X0049970Y0085923D01*
X0050006Y0085860D01*
X0050038Y0085795D01*
X0050067Y0085728D01*
X0050092Y0085660D01*
X0050113Y0085591D01*
X0050131Y0085521D01*
X0050144Y0085449D01*
X0050154Y0085378D01*
X0050160Y0085305D01*
X0050162Y0085233D01*
X0050164Y0085161D01*
X0050170Y0085088D01*
X0050180Y0085017D01*
X0050193Y0084945D01*
X0050211Y0084875D01*
X0050232Y0084806D01*
X0050257Y0084738D01*
X0050286Y0084671D01*
X0050318Y0084606D01*
X0050354Y0084543D01*
X0050393Y0084482D01*
X0050435Y0084423D01*
X0050480Y0084367D01*
X0050529Y0084313D01*
X0050580Y0084262D01*
X0050634Y0084213D01*
X0050690Y0084168D01*
X0050749Y0084126D01*
X0050810Y0084087D01*
X0050873Y0084051D01*
X0050938Y0084019D01*
X0051005Y0083990D01*
X0051073Y0083965D01*
X0051142Y0083944D01*
X0051212Y0083926D01*
X0051284Y0083913D01*
X0051355Y0083903D01*
X0051428Y0083897D01*
X0051500Y0083895D01*
X0084625Y0083895D01*
X0084625Y0084536D01*
X0084625Y0082105D02*
X0028746Y0082105D01*
X0026871Y0080230D01*
X0020504Y0080230D01*
X0017480Y0083254D01*
X0017480Y0085500D01*
X0016855Y0086125D01*
X0013375Y0086125D01*
X0019270Y0085500D02*
X0019270Y0083996D01*
X0021246Y0082020D01*
X0026129Y0082020D01*
X0028004Y0083895D01*
X0042226Y0083895D01*
X0042298Y0083897D01*
X0042371Y0083903D01*
X0042442Y0083913D01*
X0042514Y0083926D01*
X0042584Y0083944D01*
X0042653Y0083965D01*
X0042721Y0083990D01*
X0042788Y0084019D01*
X0042853Y0084051D01*
X0042916Y0084087D01*
X0042977Y0084126D01*
X0043036Y0084168D01*
X0043092Y0084213D01*
X0043146Y0084262D01*
X0043197Y0084313D01*
X0043246Y0084367D01*
X0043291Y0084423D01*
X0043333Y0084482D01*
X0043372Y0084543D01*
X0043408Y0084606D01*
X0043440Y0084671D01*
X0043469Y0084738D01*
X0043494Y0084806D01*
X0043515Y0084875D01*
X0043533Y0084945D01*
X0043546Y0085017D01*
X0043556Y0085088D01*
X0043562Y0085161D01*
X0043564Y0085233D01*
X0043565Y0085233D02*
X0043567Y0085305D01*
X0043573Y0085378D01*
X0043583Y0085449D01*
X0043596Y0085521D01*
X0043614Y0085591D01*
X0043635Y0085660D01*
X0043660Y0085728D01*
X0043689Y0085795D01*
X0043721Y0085860D01*
X0043757Y0085923D01*
X0043796Y0085984D01*
X0043838Y0086043D01*
X0043883Y0086099D01*
X0043932Y0086153D01*
X0043983Y0086204D01*
X0044037Y0086253D01*
X0044093Y0086298D01*
X0044152Y0086340D01*
X0044213Y0086379D01*
X0044276Y0086415D01*
X0044341Y0086447D01*
X0044408Y0086476D01*
X0044476Y0086501D01*
X0044545Y0086522D01*
X0044615Y0086540D01*
X0044687Y0086553D01*
X0044758Y0086563D01*
X0044831Y0086569D01*
X0044903Y0086571D01*
X0023375Y0086125D02*
X0019895Y0086125D01*
X0019270Y0085500D01*
X0023375Y0076125D02*
X0025768Y0073732D01*
X0027536Y0073000D02*
X0337750Y0073000D01*
X0337818Y0072998D01*
X0337885Y0072993D01*
X0337952Y0072984D01*
X0338019Y0072971D01*
X0338084Y0072954D01*
X0338149Y0072935D01*
X0338213Y0072911D01*
X0338275Y0072884D01*
X0338336Y0072854D01*
X0338394Y0072821D01*
X0338451Y0072785D01*
X0338506Y0072745D01*
X0338559Y0072703D01*
X0338610Y0072657D01*
X0338657Y0072610D01*
X0338703Y0072559D01*
X0338745Y0072506D01*
X0338785Y0072451D01*
X0338821Y0072394D01*
X0338854Y0072336D01*
X0338884Y0072275D01*
X0338911Y0072213D01*
X0338935Y0072149D01*
X0338954Y0072084D01*
X0338971Y0072019D01*
X0338984Y0071952D01*
X0338993Y0071885D01*
X0338998Y0071818D01*
X0339000Y0071750D01*
X0339000Y0028000D01*
X0272125Y0028000D02*
X0272125Y0069875D01*
X0272123Y0069943D01*
X0272118Y0070010D01*
X0272109Y0070077D01*
X0272096Y0070144D01*
X0272079Y0070209D01*
X0272060Y0070274D01*
X0272036Y0070338D01*
X0272009Y0070400D01*
X0271979Y0070461D01*
X0271946Y0070519D01*
X0271910Y0070576D01*
X0271870Y0070631D01*
X0271828Y0070684D01*
X0271782Y0070735D01*
X0271735Y0070782D01*
X0271684Y0070828D01*
X0271631Y0070870D01*
X0271576Y0070910D01*
X0271519Y0070946D01*
X0271461Y0070979D01*
X0271400Y0071009D01*
X0271338Y0071036D01*
X0271274Y0071060D01*
X0271209Y0071079D01*
X0271144Y0071096D01*
X0271077Y0071109D01*
X0271010Y0071118D01*
X0270943Y0071123D01*
X0270875Y0071125D01*
X0019411Y0071125D01*
X0017643Y0071857D02*
X0013375Y0076125D01*
X0017643Y0071857D02*
X0017714Y0071789D01*
X0017787Y0071724D01*
X0017863Y0071662D01*
X0017942Y0071602D01*
X0018022Y0071546D01*
X0018105Y0071493D01*
X0018189Y0071444D01*
X0018276Y0071397D01*
X0018364Y0071355D01*
X0018454Y0071315D01*
X0018546Y0071280D01*
X0018638Y0071247D01*
X0018732Y0071219D01*
X0018827Y0071194D01*
X0018923Y0071173D01*
X0019020Y0071156D01*
X0019117Y0071142D01*
X0019215Y0071133D01*
X0019313Y0071127D01*
X0019411Y0071125D01*
X0025768Y0073732D02*
X0025839Y0073664D01*
X0025912Y0073599D01*
X0025988Y0073537D01*
X0026067Y0073477D01*
X0026147Y0073421D01*
X0026230Y0073368D01*
X0026314Y0073319D01*
X0026401Y0073272D01*
X0026489Y0073230D01*
X0026579Y0073190D01*
X0026671Y0073155D01*
X0026763Y0073122D01*
X0026857Y0073094D01*
X0026952Y0073069D01*
X0027048Y0073048D01*
X0027145Y0073031D01*
X0027242Y0073017D01*
X0027340Y0073008D01*
X0027438Y0073002D01*
X0027536Y0073000D01*
X0023375Y0066125D02*
X0204000Y0066125D01*
X0204068Y0066123D01*
X0204135Y0066118D01*
X0204202Y0066109D01*
X0204269Y0066096D01*
X0204334Y0066079D01*
X0204399Y0066060D01*
X0204463Y0066036D01*
X0204525Y0066009D01*
X0204586Y0065979D01*
X0204644Y0065946D01*
X0204701Y0065910D01*
X0204756Y0065870D01*
X0204809Y0065828D01*
X0204860Y0065782D01*
X0204907Y0065735D01*
X0204953Y0065684D01*
X0204995Y0065631D01*
X0205035Y0065576D01*
X0205071Y0065519D01*
X0205104Y0065461D01*
X0205134Y0065400D01*
X0205161Y0065338D01*
X0205185Y0065274D01*
X0205204Y0065209D01*
X0205221Y0065144D01*
X0205234Y0065077D01*
X0205243Y0065010D01*
X0205248Y0064943D01*
X0205250Y0064875D01*
X0205250Y0028000D01*
X0138375Y0028000D02*
X0138375Y0063000D01*
X0138373Y0063068D01*
X0138368Y0063135D01*
X0138359Y0063202D01*
X0138346Y0063269D01*
X0138329Y0063334D01*
X0138310Y0063399D01*
X0138286Y0063463D01*
X0138259Y0063525D01*
X0138229Y0063586D01*
X0138196Y0063644D01*
X0138160Y0063701D01*
X0138120Y0063756D01*
X0138078Y0063809D01*
X0138032Y0063860D01*
X0137985Y0063907D01*
X0137934Y0063953D01*
X0137881Y0063995D01*
X0137826Y0064035D01*
X0137769Y0064071D01*
X0137711Y0064104D01*
X0137650Y0064134D01*
X0137588Y0064161D01*
X0137524Y0064185D01*
X0137459Y0064204D01*
X0137394Y0064221D01*
X0137327Y0064234D01*
X0137260Y0064243D01*
X0137193Y0064248D01*
X0137125Y0064250D01*
X0028473Y0064250D01*
X0026705Y0063518D02*
X0025982Y0062795D01*
X0026920Y0060919D02*
X0026849Y0060851D01*
X0026776Y0060786D01*
X0026700Y0060724D01*
X0026621Y0060664D01*
X0026541Y0060608D01*
X0026458Y0060555D01*
X0026374Y0060506D01*
X0026287Y0060459D01*
X0026199Y0060417D01*
X0026109Y0060377D01*
X0026017Y0060342D01*
X0025925Y0060309D01*
X0025831Y0060281D01*
X0025736Y0060256D01*
X0025640Y0060235D01*
X0025543Y0060218D01*
X0025446Y0060204D01*
X0025348Y0060195D01*
X0025250Y0060189D01*
X0025152Y0060187D01*
X0018473Y0060187D01*
X0018473Y0062062D02*
X0024214Y0062062D01*
X0026920Y0060920D02*
X0027643Y0061643D01*
X0026705Y0063518D02*
X0026776Y0063586D01*
X0026849Y0063651D01*
X0026925Y0063713D01*
X0027004Y0063773D01*
X0027084Y0063829D01*
X0027167Y0063882D01*
X0027251Y0063931D01*
X0027338Y0063978D01*
X0027426Y0064020D01*
X0027516Y0064060D01*
X0027608Y0064095D01*
X0027700Y0064128D01*
X0027794Y0064156D01*
X0027889Y0064181D01*
X0027985Y0064202D01*
X0028082Y0064219D01*
X0028179Y0064233D01*
X0028277Y0064242D01*
X0028375Y0064248D01*
X0028473Y0064250D01*
X0029411Y0062375D02*
X0070250Y0062375D01*
X0070318Y0062373D01*
X0070385Y0062368D01*
X0070452Y0062359D01*
X0070519Y0062346D01*
X0070584Y0062329D01*
X0070649Y0062310D01*
X0070713Y0062286D01*
X0070775Y0062259D01*
X0070836Y0062229D01*
X0070894Y0062196D01*
X0070951Y0062160D01*
X0071006Y0062120D01*
X0071059Y0062078D01*
X0071110Y0062032D01*
X0071157Y0061985D01*
X0071203Y0061934D01*
X0071245Y0061881D01*
X0071285Y0061826D01*
X0071321Y0061769D01*
X0071354Y0061711D01*
X0071384Y0061650D01*
X0071411Y0061588D01*
X0071435Y0061524D01*
X0071454Y0061459D01*
X0071471Y0061394D01*
X0071484Y0061327D01*
X0071493Y0061260D01*
X0071498Y0061193D01*
X0071500Y0061125D01*
X0071500Y0028000D01*
X0016705Y0059455D02*
X0013375Y0056125D01*
X0016705Y0059455D02*
X0016776Y0059523D01*
X0016849Y0059588D01*
X0016925Y0059650D01*
X0017004Y0059710D01*
X0017084Y0059766D01*
X0017167Y0059819D01*
X0017251Y0059868D01*
X0017338Y0059915D01*
X0017426Y0059957D01*
X0017516Y0059997D01*
X0017608Y0060032D01*
X0017700Y0060065D01*
X0017794Y0060093D01*
X0017889Y0060118D01*
X0017985Y0060139D01*
X0018082Y0060156D01*
X0018179Y0060170D01*
X0018277Y0060179D01*
X0018375Y0060185D01*
X0018473Y0060187D01*
X0016705Y0062795D02*
X0013375Y0066125D01*
X0016705Y0062794D02*
X0016776Y0062726D01*
X0016849Y0062661D01*
X0016925Y0062599D01*
X0017004Y0062539D01*
X0017084Y0062483D01*
X0017167Y0062430D01*
X0017251Y0062381D01*
X0017338Y0062334D01*
X0017426Y0062292D01*
X0017516Y0062252D01*
X0017608Y0062217D01*
X0017700Y0062184D01*
X0017794Y0062156D01*
X0017889Y0062131D01*
X0017985Y0062110D01*
X0018082Y0062093D01*
X0018179Y0062079D01*
X0018277Y0062070D01*
X0018375Y0062064D01*
X0018473Y0062062D01*
X0024214Y0062062D02*
X0024312Y0062064D01*
X0024410Y0062070D01*
X0024508Y0062079D01*
X0024605Y0062093D01*
X0024702Y0062110D01*
X0024798Y0062131D01*
X0024893Y0062156D01*
X0024987Y0062184D01*
X0025079Y0062217D01*
X0025171Y0062252D01*
X0025261Y0062292D01*
X0025349Y0062334D01*
X0025436Y0062381D01*
X0025520Y0062430D01*
X0025603Y0062483D01*
X0025683Y0062539D01*
X0025762Y0062599D01*
X0025838Y0062661D01*
X0025911Y0062726D01*
X0025982Y0062794D01*
X0027643Y0061643D02*
X0027714Y0061711D01*
X0027787Y0061776D01*
X0027863Y0061838D01*
X0027942Y0061898D01*
X0028022Y0061954D01*
X0028105Y0062007D01*
X0028189Y0062056D01*
X0028276Y0062103D01*
X0028364Y0062145D01*
X0028454Y0062185D01*
X0028546Y0062220D01*
X0028638Y0062253D01*
X0028732Y0062281D01*
X0028827Y0062306D01*
X0028923Y0062327D01*
X0029020Y0062344D01*
X0029117Y0062358D01*
X0029215Y0062367D01*
X0029313Y0062373D01*
X0029411Y0062375D01*
X0084625Y0081464D02*
X0084625Y0082105D01*
X0161844Y0096159D02*
X0166703Y0101018D01*
X0168471Y0101750D02*
X0169895Y0101750D01*
X0168471Y0101750D02*
X0168373Y0101748D01*
X0168275Y0101742D01*
X0168177Y0101733D01*
X0168080Y0101719D01*
X0167983Y0101702D01*
X0167887Y0101681D01*
X0167792Y0101656D01*
X0167698Y0101628D01*
X0167606Y0101595D01*
X0167514Y0101560D01*
X0167424Y0101520D01*
X0167336Y0101478D01*
X0167249Y0101431D01*
X0167165Y0101382D01*
X0167082Y0101329D01*
X0167002Y0101273D01*
X0166923Y0101213D01*
X0166847Y0101151D01*
X0166774Y0101086D01*
X0166703Y0101018D01*
X0169895Y0101750D02*
X0169993Y0101752D01*
X0170091Y0101758D01*
X0170189Y0101767D01*
X0170286Y0101781D01*
X0170383Y0101798D01*
X0170479Y0101819D01*
X0170574Y0101844D01*
X0170668Y0101872D01*
X0170760Y0101905D01*
X0170852Y0101940D01*
X0170942Y0101980D01*
X0171030Y0102022D01*
X0171117Y0102069D01*
X0171201Y0102118D01*
X0171284Y0102171D01*
X0171364Y0102227D01*
X0171443Y0102287D01*
X0171519Y0102349D01*
X0171592Y0102414D01*
X0171663Y0102482D01*
X0171731Y0102553D01*
X0171796Y0102626D01*
X0171858Y0102702D01*
X0171918Y0102781D01*
X0171974Y0102861D01*
X0172027Y0102944D01*
X0172076Y0103028D01*
X0172123Y0103115D01*
X0172165Y0103203D01*
X0172205Y0103293D01*
X0172240Y0103385D01*
X0172273Y0103477D01*
X0172301Y0103571D01*
X0172326Y0103666D01*
X0172347Y0103762D01*
X0172364Y0103859D01*
X0172378Y0103956D01*
X0172387Y0104054D01*
X0172393Y0104152D01*
X0172395Y0104250D01*
X0172395Y0116750D01*
X0170605Y0117020D02*
X0170607Y0117118D01*
X0170613Y0117216D01*
X0170622Y0117314D01*
X0170636Y0117411D01*
X0170653Y0117508D01*
X0170674Y0117604D01*
X0170699Y0117699D01*
X0170727Y0117793D01*
X0170760Y0117885D01*
X0170795Y0117977D01*
X0170835Y0118067D01*
X0170877Y0118155D01*
X0170924Y0118242D01*
X0170973Y0118326D01*
X0171026Y0118409D01*
X0171082Y0118489D01*
X0171142Y0118568D01*
X0171204Y0118644D01*
X0171269Y0118717D01*
X0171337Y0118788D01*
X0171408Y0118856D01*
X0171481Y0118921D01*
X0171557Y0118983D01*
X0171636Y0119043D01*
X0171716Y0119099D01*
X0171799Y0119152D01*
X0171883Y0119201D01*
X0171970Y0119248D01*
X0172058Y0119290D01*
X0172148Y0119330D01*
X0172240Y0119365D01*
X0172332Y0119398D01*
X0172426Y0119426D01*
X0172521Y0119451D01*
X0172617Y0119472D01*
X0172714Y0119489D01*
X0172811Y0119503D01*
X0172909Y0119512D01*
X0173007Y0119518D01*
X0173105Y0119520D01*
X0185875Y0119520D01*
X0185875Y0120101D01*
X0185875Y0117730D02*
X0173375Y0117730D01*
X0173313Y0117728D01*
X0173252Y0117722D01*
X0173191Y0117713D01*
X0173131Y0117699D01*
X0173072Y0117682D01*
X0173014Y0117661D01*
X0172958Y0117637D01*
X0172903Y0117609D01*
X0172850Y0117577D01*
X0172799Y0117543D01*
X0172750Y0117505D01*
X0172704Y0117464D01*
X0172661Y0117421D01*
X0172620Y0117375D01*
X0172582Y0117326D01*
X0172548Y0117275D01*
X0172516Y0117222D01*
X0172488Y0117167D01*
X0172464Y0117111D01*
X0172443Y0117053D01*
X0172426Y0116994D01*
X0172412Y0116934D01*
X0172403Y0116873D01*
X0172397Y0116812D01*
X0172395Y0116750D01*
X0170605Y0117020D02*
X0170605Y0112389D01*
X0170070Y0110844D02*
X0167317Y0107341D01*
X0170071Y0110843D02*
X0170130Y0110921D01*
X0170185Y0111002D01*
X0170238Y0111084D01*
X0170288Y0111169D01*
X0170334Y0111255D01*
X0170376Y0111343D01*
X0170416Y0111433D01*
X0170451Y0111525D01*
X0170483Y0111617D01*
X0170512Y0111711D01*
X0170536Y0111806D01*
X0170557Y0111901D01*
X0170574Y0111998D01*
X0170588Y0112095D01*
X0170597Y0112192D01*
X0170603Y0112290D01*
X0170605Y0112388D01*
X0185875Y0117149D02*
X0185875Y0117730D01*
X0242440Y0105815D02*
X0247643Y0111018D01*
X0249411Y0111750D02*
X0261230Y0111750D01*
X0261230Y0116750D01*
X0263020Y0117020D02*
X0263018Y0117118D01*
X0263012Y0117216D01*
X0263003Y0117314D01*
X0262989Y0117411D01*
X0262972Y0117508D01*
X0262951Y0117604D01*
X0262926Y0117699D01*
X0262898Y0117793D01*
X0262865Y0117885D01*
X0262830Y0117977D01*
X0262790Y0118067D01*
X0262748Y0118155D01*
X0262701Y0118242D01*
X0262652Y0118326D01*
X0262599Y0118409D01*
X0262543Y0118489D01*
X0262483Y0118568D01*
X0262421Y0118644D01*
X0262356Y0118717D01*
X0262288Y0118788D01*
X0262217Y0118856D01*
X0262144Y0118921D01*
X0262068Y0118983D01*
X0261989Y0119043D01*
X0261909Y0119099D01*
X0261826Y0119152D01*
X0261742Y0119201D01*
X0261655Y0119248D01*
X0261567Y0119290D01*
X0261477Y0119330D01*
X0261385Y0119365D01*
X0261293Y0119398D01*
X0261199Y0119426D01*
X0261104Y0119451D01*
X0261008Y0119472D01*
X0260911Y0119489D01*
X0260814Y0119503D01*
X0260716Y0119512D01*
X0260618Y0119518D01*
X0260520Y0119520D01*
X0257125Y0119520D01*
X0257125Y0120101D01*
X0257125Y0117730D02*
X0257125Y0117149D01*
X0257125Y0117730D02*
X0260250Y0117730D01*
X0260312Y0117728D01*
X0260373Y0117722D01*
X0260434Y0117713D01*
X0260494Y0117699D01*
X0260553Y0117682D01*
X0260611Y0117661D01*
X0260667Y0117637D01*
X0260722Y0117609D01*
X0260775Y0117577D01*
X0260826Y0117543D01*
X0260875Y0117505D01*
X0260921Y0117464D01*
X0260964Y0117421D01*
X0261005Y0117375D01*
X0261043Y0117326D01*
X0261077Y0117275D01*
X0261109Y0117222D01*
X0261137Y0117167D01*
X0261161Y0117111D01*
X0261182Y0117053D01*
X0261199Y0116994D01*
X0261213Y0116934D01*
X0261222Y0116873D01*
X0261228Y0116812D01*
X0261230Y0116750D01*
X0263020Y0117020D02*
X0263020Y0111750D01*
X0274839Y0111750D01*
X0276607Y0111018D02*
X0281810Y0105815D01*
X0294315Y0105815D02*
X0299518Y0111018D01*
X0301286Y0111750D02*
X0313105Y0111750D01*
X0313105Y0116750D01*
X0314895Y0117020D02*
X0314893Y0117118D01*
X0314887Y0117216D01*
X0314878Y0117314D01*
X0314864Y0117411D01*
X0314847Y0117508D01*
X0314826Y0117604D01*
X0314801Y0117699D01*
X0314773Y0117793D01*
X0314740Y0117885D01*
X0314705Y0117977D01*
X0314665Y0118067D01*
X0314623Y0118155D01*
X0314576Y0118242D01*
X0314527Y0118326D01*
X0314474Y0118409D01*
X0314418Y0118489D01*
X0314358Y0118568D01*
X0314296Y0118644D01*
X0314231Y0118717D01*
X0314163Y0118788D01*
X0314092Y0118856D01*
X0314019Y0118921D01*
X0313943Y0118983D01*
X0313864Y0119043D01*
X0313784Y0119099D01*
X0313701Y0119152D01*
X0313617Y0119201D01*
X0313530Y0119248D01*
X0313442Y0119290D01*
X0313352Y0119330D01*
X0313260Y0119365D01*
X0313168Y0119398D01*
X0313074Y0119426D01*
X0312979Y0119451D01*
X0312883Y0119472D01*
X0312786Y0119489D01*
X0312689Y0119503D01*
X0312591Y0119512D01*
X0312493Y0119518D01*
X0312395Y0119520D01*
X0309000Y0119520D01*
X0309000Y0120101D01*
X0309000Y0117730D02*
X0309000Y0117149D01*
X0309000Y0117730D02*
X0312125Y0117730D01*
X0312187Y0117728D01*
X0312248Y0117722D01*
X0312309Y0117713D01*
X0312369Y0117699D01*
X0312428Y0117682D01*
X0312486Y0117661D01*
X0312542Y0117637D01*
X0312597Y0117609D01*
X0312650Y0117577D01*
X0312701Y0117543D01*
X0312750Y0117505D01*
X0312796Y0117464D01*
X0312839Y0117421D01*
X0312880Y0117375D01*
X0312918Y0117326D01*
X0312952Y0117275D01*
X0312984Y0117222D01*
X0313012Y0117167D01*
X0313036Y0117111D01*
X0313057Y0117053D01*
X0313074Y0116994D01*
X0313088Y0116934D01*
X0313097Y0116873D01*
X0313103Y0116812D01*
X0313105Y0116750D01*
X0314895Y0117020D02*
X0314895Y0111750D01*
X0326714Y0111750D01*
X0328482Y0111018D02*
X0333685Y0105815D01*
X0328482Y0111018D02*
X0328411Y0111086D01*
X0328338Y0111151D01*
X0328262Y0111213D01*
X0328183Y0111273D01*
X0328103Y0111329D01*
X0328020Y0111382D01*
X0327936Y0111431D01*
X0327849Y0111478D01*
X0327761Y0111520D01*
X0327671Y0111560D01*
X0327579Y0111595D01*
X0327487Y0111628D01*
X0327393Y0111656D01*
X0327298Y0111681D01*
X0327202Y0111702D01*
X0327105Y0111719D01*
X0327008Y0111733D01*
X0326910Y0111742D01*
X0326812Y0111748D01*
X0326714Y0111750D01*
X0301286Y0111750D02*
X0301188Y0111748D01*
X0301090Y0111742D01*
X0300992Y0111733D01*
X0300895Y0111719D01*
X0300798Y0111702D01*
X0300702Y0111681D01*
X0300607Y0111656D01*
X0300513Y0111628D01*
X0300421Y0111595D01*
X0300329Y0111560D01*
X0300239Y0111520D01*
X0300151Y0111478D01*
X0300064Y0111431D01*
X0299980Y0111382D01*
X0299897Y0111329D01*
X0299817Y0111273D01*
X0299738Y0111213D01*
X0299662Y0111151D01*
X0299589Y0111086D01*
X0299518Y0111018D01*
X0276607Y0111018D02*
X0276536Y0111086D01*
X0276463Y0111151D01*
X0276387Y0111213D01*
X0276308Y0111273D01*
X0276228Y0111329D01*
X0276145Y0111382D01*
X0276061Y0111431D01*
X0275974Y0111478D01*
X0275886Y0111520D01*
X0275796Y0111560D01*
X0275704Y0111595D01*
X0275612Y0111628D01*
X0275518Y0111656D01*
X0275423Y0111681D01*
X0275327Y0111702D01*
X0275230Y0111719D01*
X0275133Y0111733D01*
X0275035Y0111742D01*
X0274937Y0111748D01*
X0274839Y0111750D01*
X0249411Y0111750D02*
X0249313Y0111748D01*
X0249215Y0111742D01*
X0249117Y0111733D01*
X0249020Y0111719D01*
X0248923Y0111702D01*
X0248827Y0111681D01*
X0248732Y0111656D01*
X0248638Y0111628D01*
X0248546Y0111595D01*
X0248454Y0111560D01*
X0248364Y0111520D01*
X0248276Y0111478D01*
X0248189Y0111431D01*
X0248105Y0111382D01*
X0248022Y0111329D01*
X0247942Y0111273D01*
X0247863Y0111213D01*
X0247787Y0111151D01*
X0247714Y0111086D01*
X0247643Y0111018D01*
D25*
X0257750Y0130500D02*
X0189625Y0130500D01*
X0183375Y0124250D01*
X0049000Y0124250D01*
X0025875Y0101125D01*
X0018375Y0101125D01*
X0013375Y0106125D01*
X0257750Y0130500D02*
X0259000Y0131750D01*
X0265250Y0131750D01*
X0266500Y0130500D01*
X0309625Y0130500D01*
X0310875Y0131750D01*
X0317125Y0131750D01*
X0318375Y0130500D01*
X0354000Y0130500D01*
X0359625Y0136125D01*
X0367750Y0136125D01*
X0395250Y0108625D01*
X0430250Y0108625D01*
X0449000Y0127375D01*
D26*
X0084625Y0084536D03*
X0084625Y0081464D03*
D27*
X0185875Y0117149D03*
X0185875Y0120101D03*
X0257125Y0120101D03*
X0257125Y0117149D03*
X0309000Y0117149D03*
X0309000Y0120101D03*
M02*
