G75*
%MOIN*%
%OFA0B0*%
%FSLAX25Y25*%
%IPPOS*%
%LPD*%
%AMOC8*
5,1,8,0,0,1.08239X$1,22.5*
%
%ADD10R,0.07400X0.07400*%
%ADD11C,0.07400*%
%ADD12OC8,0.05512*%
%ADD13C,0.20000*%
%ADD14R,0.04724X0.09843*%
%ADD15R,0.03543X0.03150*%
%ADD16C,0.06299*%
%ADD17C,0.06693*%
%ADD18C,0.21500*%
%ADD19C,0.08600*%
%ADD20R,0.05591X0.05591*%
%ADD21C,0.05591*%
%ADD22R,0.03150X0.03543*%
%ADD23C,0.14173*%
%ADD24C,0.12598*%
%ADD25C,0.01000*%
%ADD26C,0.01200*%
%ADD27C,0.04252*%
%ADD28C,0.02400*%
%ADD29C,0.02481*%
%ADD30C,0.02362*%
%ADD31C,0.00591*%
D10*
X0150939Y0096159D03*
X0096500Y0133000D03*
D11*
X0086500Y0133000D03*
X0076500Y0133000D03*
X0066500Y0133000D03*
X0056500Y0133000D03*
X0046500Y0133000D03*
X0156411Y0107341D03*
X0167317Y0107341D03*
X0178183Y0107341D03*
X0189089Y0107341D03*
X0183656Y0096159D03*
X0194561Y0096159D03*
X0172750Y0096159D03*
X0161844Y0096159D03*
D12*
X0023375Y0096125D03*
X0013375Y0096125D03*
X0013375Y0086125D03*
X0023375Y0086125D03*
X0023375Y0076125D03*
X0013375Y0076125D03*
X0013375Y0066125D03*
X0023375Y0066125D03*
X0023375Y0056125D03*
X0013375Y0056125D03*
X0013375Y0106125D03*
X0023375Y0106125D03*
X0023375Y0116125D03*
X0013375Y0116125D03*
D13*
X0123537Y0101750D03*
X0221963Y0101750D03*
D14*
X0094468Y0098748D03*
X0084625Y0098748D03*
X0074782Y0098748D03*
X0074782Y0067252D03*
X0084625Y0067252D03*
X0094468Y0067252D03*
D15*
X0063250Y0079875D03*
X0057250Y0079875D03*
X0057250Y0086125D03*
X0063250Y0086125D03*
D16*
X0071500Y0028000D03*
X0138375Y0028000D03*
X0205250Y0028000D03*
X0272125Y0028000D03*
X0339000Y0028000D03*
X0405875Y0028000D03*
X0472750Y0028000D03*
D17*
X0460550Y0015800D03*
X0484950Y0015800D03*
X0418075Y0015800D03*
X0393675Y0015800D03*
X0351200Y0015800D03*
X0326800Y0015800D03*
X0284325Y0015800D03*
X0259925Y0015800D03*
X0217450Y0015800D03*
X0193050Y0015800D03*
X0150575Y0015800D03*
X0126175Y0015800D03*
X0083700Y0015800D03*
X0059300Y0015800D03*
X0059300Y0040200D03*
X0083700Y0040200D03*
X0126175Y0040200D03*
X0150575Y0040200D03*
X0193050Y0040200D03*
X0217450Y0040200D03*
X0259925Y0040200D03*
X0284325Y0040200D03*
X0326800Y0040200D03*
X0351200Y0040200D03*
X0393675Y0040200D03*
X0418075Y0040200D03*
X0460550Y0040200D03*
X0484950Y0040200D03*
D18*
X0474625Y0127375D03*
X0496500Y0127375D03*
X0449000Y0127375D03*
X0423375Y0127375D03*
X0397750Y0127375D03*
D19*
X0333685Y0105815D03*
X0323843Y0105815D03*
X0304157Y0105815D03*
X0294315Y0105815D03*
X0281810Y0105815D03*
X0271968Y0105815D03*
X0252282Y0105815D03*
X0242440Y0105815D03*
X0262125Y0125500D03*
X0314000Y0125500D03*
D20*
X0357469Y0110367D03*
D21*
X0369281Y0110367D03*
X0369281Y0098556D03*
X0357469Y0098556D03*
D22*
X0050875Y0086000D03*
X0050875Y0080000D03*
D23*
X0468582Y0080500D03*
D24*
X0493188Y0080500D03*
X0479802Y0099398D03*
D25*
X0003181Y0137520D02*
X0003181Y0009681D01*
X0507240Y0009681D01*
X0507240Y0121934D01*
X0507052Y0121543D01*
X0506333Y0120398D01*
X0505490Y0119341D01*
X0504534Y0118385D01*
X0503477Y0117542D01*
X0502332Y0116823D01*
X0501114Y0116236D01*
X0499838Y0115790D01*
X0498520Y0115489D01*
X0497176Y0115338D01*
X0497000Y0115338D01*
X0497000Y0126875D01*
X0496000Y0126875D01*
X0496000Y0115338D01*
X0495824Y0115338D01*
X0494480Y0115489D01*
X0493162Y0115790D01*
X0491886Y0116236D01*
X0490668Y0116823D01*
X0489523Y0117542D01*
X0488466Y0118385D01*
X0487510Y0119341D01*
X0486667Y0120398D01*
X0485948Y0121543D01*
X0485562Y0122344D01*
X0485177Y0121543D01*
X0484458Y0120398D01*
X0483615Y0119341D01*
X0482659Y0118385D01*
X0481602Y0117542D01*
X0480457Y0116823D01*
X0479239Y0116236D01*
X0477963Y0115790D01*
X0476645Y0115489D01*
X0475301Y0115338D01*
X0475125Y0115338D01*
X0475125Y0126875D01*
X0475125Y0127875D01*
X0496000Y0127875D01*
X0496000Y0126875D01*
X0484463Y0126875D01*
X0475125Y0126875D01*
X0474125Y0126875D01*
X0474125Y0115338D01*
X0473949Y0115338D01*
X0472605Y0115489D01*
X0471287Y0115790D01*
X0470011Y0116236D01*
X0468793Y0116823D01*
X0467648Y0117542D01*
X0466591Y0118385D01*
X0465635Y0119341D01*
X0464792Y0120398D01*
X0464073Y0121543D01*
X0463486Y0122761D01*
X0463040Y0124037D01*
X0462739Y0125355D01*
X0462588Y0126699D01*
X0462588Y0126875D01*
X0474125Y0126875D01*
X0474125Y0127875D01*
X0462588Y0127875D01*
X0462588Y0128051D01*
X0462739Y0129395D01*
X0463040Y0130713D01*
X0463486Y0131989D01*
X0464073Y0133207D01*
X0464792Y0134352D01*
X0465635Y0135409D01*
X0466591Y0136365D01*
X0467648Y0137208D01*
X0468145Y0137520D01*
X0455110Y0137520D01*
X0456270Y0136850D01*
X0458475Y0134645D01*
X0460034Y0131945D01*
X0460841Y0128934D01*
X0460841Y0125816D01*
X0460034Y0122805D01*
X0458475Y0120105D01*
X0456270Y0117900D01*
X0453570Y0116341D01*
X0451291Y0115731D01*
X0451291Y0101030D01*
X0464614Y0087707D01*
X0466955Y0088677D01*
X0470208Y0088677D01*
X0473214Y0087432D01*
X0475514Y0085132D01*
X0476759Y0082127D01*
X0476759Y0078873D01*
X0475514Y0075868D01*
X0473214Y0073568D01*
X0470208Y0072323D01*
X0466955Y0072323D01*
X0463950Y0073568D01*
X0461649Y0075868D01*
X0460405Y0078873D01*
X0460405Y0082127D01*
X0461374Y0084468D01*
X0448051Y0097791D01*
X0448051Y0097791D01*
X0446709Y0099133D01*
X0446709Y0115731D01*
X0444430Y0116341D01*
X0441730Y0117900D01*
X0439525Y0120105D01*
X0437966Y0122805D01*
X0437159Y0125816D01*
X0437159Y0128934D01*
X0437966Y0131945D01*
X0439525Y0134645D01*
X0441730Y0136850D01*
X0442890Y0137520D01*
X0429485Y0137520D01*
X0430645Y0136850D01*
X0432850Y0134645D01*
X0434409Y0131945D01*
X0435216Y0128934D01*
X0435216Y0125816D01*
X0434409Y0122805D01*
X0432850Y0120105D01*
X0430645Y0117900D01*
X0427945Y0116341D01*
X0425066Y0115570D01*
X0425066Y0108550D01*
X0397200Y0080684D01*
X0387406Y0080684D01*
X0387352Y0080553D01*
X0386447Y0079648D01*
X0385265Y0079158D01*
X0383985Y0079158D01*
X0382803Y0079648D01*
X0381898Y0080553D01*
X0381408Y0081735D01*
X0381408Y0083015D01*
X0381898Y0084197D01*
X0382576Y0084875D01*
X0381898Y0085553D01*
X0381408Y0086735D01*
X0381408Y0088015D01*
X0381898Y0089197D01*
X0382803Y0090102D01*
X0383985Y0090592D01*
X0385265Y0090592D01*
X0386447Y0090102D01*
X0387352Y0089197D01*
X0387406Y0089066D01*
X0392050Y0089066D01*
X0396059Y0093075D01*
X0396059Y0115570D01*
X0393180Y0116341D01*
X0390480Y0117900D01*
X0388275Y0120105D01*
X0386716Y0122805D01*
X0385909Y0125816D01*
X0385909Y0128934D01*
X0386716Y0131945D01*
X0388275Y0134645D01*
X0390480Y0136850D01*
X0391640Y0137520D01*
X0337160Y0137520D01*
X0337728Y0136147D01*
X0337728Y0134538D01*
X0337113Y0133052D01*
X0335975Y0131915D01*
X0334489Y0131299D01*
X0332881Y0131299D01*
X0331395Y0131915D01*
X0330257Y0133052D01*
X0329642Y0134538D01*
X0329642Y0136147D01*
X0330210Y0137520D01*
X0297790Y0137520D01*
X0298358Y0136147D01*
X0298358Y0134538D01*
X0297743Y0133052D01*
X0296605Y0131915D01*
X0295119Y0131299D01*
X0293511Y0131299D01*
X0292025Y0131915D01*
X0290887Y0133052D01*
X0290272Y0134538D01*
X0290272Y0136147D01*
X0290840Y0137520D01*
X0285285Y0137520D01*
X0285853Y0136147D01*
X0285853Y0134538D01*
X0285238Y0133052D01*
X0284100Y0131915D01*
X0282614Y0131299D01*
X0281006Y0131299D01*
X0279520Y0131915D01*
X0278382Y0133052D01*
X0277767Y0134538D01*
X0277767Y0136147D01*
X0278335Y0137520D01*
X0245915Y0137520D01*
X0246483Y0136147D01*
X0246483Y0134538D01*
X0245868Y0133052D01*
X0244730Y0131915D01*
X0243244Y0131299D01*
X0241636Y0131299D01*
X0240150Y0131915D01*
X0239012Y0133052D01*
X0238397Y0134538D01*
X0238397Y0136147D01*
X0238965Y0137520D01*
X0100923Y0137520D01*
X0101291Y0137152D01*
X0101291Y0128848D01*
X0100652Y0128209D01*
X0092348Y0128209D01*
X0091709Y0128848D01*
X0091709Y0137152D01*
X0092077Y0137520D01*
X0088107Y0137520D01*
X0089214Y0137061D01*
X0090561Y0135714D01*
X0091291Y0133953D01*
X0091291Y0132047D01*
X0090561Y0130286D01*
X0089214Y0128939D01*
X0087453Y0128209D01*
X0085547Y0128209D01*
X0084524Y0128633D01*
X0080066Y0124175D01*
X0080066Y0114175D01*
X0058450Y0092559D01*
X0027825Y0092559D01*
X0025325Y0090059D01*
X0017050Y0090059D01*
X0014831Y0092279D01*
X0011782Y0092279D01*
X0009529Y0094532D01*
X0009529Y0097718D01*
X0011782Y0099971D01*
X0014968Y0099971D01*
X0017221Y0097718D01*
X0017221Y0094669D01*
X0018450Y0093441D01*
X0020620Y0093441D01*
X0019529Y0094532D01*
X0019529Y0097718D01*
X0021782Y0099971D01*
X0024968Y0099971D01*
X0027124Y0097816D01*
X0035261Y0097816D01*
X0035023Y0098053D01*
X0034533Y0099235D01*
X0034533Y0100515D01*
X0034588Y0100646D01*
X0025800Y0109434D01*
X0025784Y0109434D01*
X0027418Y0107800D01*
X0027418Y0106609D01*
X0023859Y0106609D01*
X0023859Y0105641D01*
X0023859Y0102082D01*
X0025050Y0102082D01*
X0027418Y0104450D01*
X0027418Y0105641D01*
X0023859Y0105641D01*
X0022891Y0105641D01*
X0022891Y0102082D01*
X0021700Y0102082D01*
X0019332Y0104450D01*
X0019332Y0105641D01*
X0022891Y0105641D01*
X0022891Y0106609D01*
X0019332Y0106609D01*
X0019332Y0107800D01*
X0020966Y0109434D01*
X0017675Y0109434D01*
X0016684Y0110425D01*
X0014831Y0112279D01*
X0011782Y0112279D01*
X0009529Y0114532D01*
X0009529Y0117718D01*
X0011782Y0119971D01*
X0014968Y0119971D01*
X0017221Y0117718D01*
X0017221Y0114669D01*
X0019075Y0112816D01*
X0021245Y0112816D01*
X0019529Y0114532D01*
X0019529Y0117718D01*
X0021782Y0119971D01*
X0024968Y0119971D01*
X0027124Y0117816D01*
X0028450Y0117816D01*
X0038229Y0108037D01*
X0038360Y0108092D01*
X0039640Y0108092D01*
X0040822Y0107602D01*
X0041727Y0106697D01*
X0042217Y0105515D01*
X0042217Y0104235D01*
X0041727Y0103053D01*
X0040822Y0102148D01*
X0040259Y0101915D01*
X0040477Y0101697D01*
X0040967Y0100515D01*
X0040967Y0099235D01*
X0040477Y0098053D01*
X0040239Y0097816D01*
X0055800Y0097816D01*
X0074809Y0116825D01*
X0074809Y0128515D01*
X0073786Y0128939D01*
X0072439Y0130286D01*
X0071709Y0132047D01*
X0071709Y0133953D01*
X0072439Y0135714D01*
X0073786Y0137061D01*
X0074893Y0137520D01*
X0068107Y0137520D01*
X0069214Y0137061D01*
X0070561Y0135714D01*
X0071291Y0133953D01*
X0071291Y0132047D01*
X0070561Y0130286D01*
X0069214Y0128939D01*
X0067453Y0128209D01*
X0065547Y0128209D01*
X0063786Y0128939D01*
X0062439Y0130286D01*
X0061709Y0132047D01*
X0061709Y0133953D01*
X0062439Y0135714D01*
X0063786Y0137061D01*
X0064893Y0137520D01*
X0058107Y0137520D01*
X0059214Y0137061D01*
X0060561Y0135714D01*
X0061291Y0133953D01*
X0061291Y0132047D01*
X0060561Y0130286D01*
X0059214Y0128939D01*
X0057453Y0128209D01*
X0055547Y0128209D01*
X0053786Y0128939D01*
X0052439Y0130286D01*
X0051709Y0132047D01*
X0051709Y0133953D01*
X0052439Y0135714D01*
X0053786Y0137061D01*
X0054893Y0137520D01*
X0048615Y0137520D01*
X0049114Y0137266D01*
X0049749Y0136804D01*
X0050304Y0136249D01*
X0050766Y0135614D01*
X0051122Y0134914D01*
X0051365Y0134168D01*
X0051470Y0133500D01*
X0047000Y0133500D01*
X0047000Y0132500D01*
X0051470Y0132500D01*
X0051365Y0131832D01*
X0051122Y0131085D01*
X0050766Y0130386D01*
X0050304Y0129751D01*
X0049749Y0129196D01*
X0049114Y0128734D01*
X0048414Y0128378D01*
X0047668Y0128135D01*
X0047000Y0128030D01*
X0047000Y0132500D01*
X0046000Y0132500D01*
X0046000Y0128030D01*
X0045332Y0128135D01*
X0044585Y0128378D01*
X0043886Y0128734D01*
X0043251Y0129196D01*
X0042696Y0129751D01*
X0042234Y0130386D01*
X0041878Y0131085D01*
X0041635Y0131832D01*
X0041530Y0132500D01*
X0046000Y0132500D01*
X0046000Y0133500D01*
X0041530Y0133500D01*
X0041635Y0134168D01*
X0041878Y0134914D01*
X0042234Y0135614D01*
X0042696Y0136249D01*
X0043251Y0136804D01*
X0043886Y0137266D01*
X0044385Y0137520D01*
X0003181Y0137520D01*
X0003181Y0137259D02*
X0043877Y0137259D01*
X0042707Y0136260D02*
X0003181Y0136260D01*
X0003181Y0135262D02*
X0042055Y0135262D01*
X0041666Y0134263D02*
X0003181Y0134263D01*
X0003181Y0133265D02*
X0046000Y0133265D01*
X0046000Y0132266D02*
X0047000Y0132266D01*
X0047000Y0131268D02*
X0046000Y0131268D01*
X0046000Y0130269D02*
X0047000Y0130269D01*
X0047000Y0129271D02*
X0046000Y0129271D01*
X0046000Y0128272D02*
X0047000Y0128272D01*
X0048089Y0128272D02*
X0055396Y0128272D01*
X0053454Y0129271D02*
X0049824Y0129271D01*
X0050681Y0130269D02*
X0052456Y0130269D01*
X0052032Y0131268D02*
X0051181Y0131268D01*
X0051433Y0132266D02*
X0051709Y0132266D01*
X0051709Y0133265D02*
X0047000Y0133265D01*
X0050945Y0135262D02*
X0052252Y0135262D01*
X0051838Y0134263D02*
X0051334Y0134263D01*
X0050293Y0136260D02*
X0052985Y0136260D01*
X0054263Y0137259D02*
X0049123Y0137259D01*
X0058737Y0137259D02*
X0064263Y0137259D01*
X0062985Y0136260D02*
X0060015Y0136260D01*
X0060748Y0135262D02*
X0062252Y0135262D01*
X0061838Y0134263D02*
X0061162Y0134263D01*
X0061291Y0133265D02*
X0061709Y0133265D01*
X0061709Y0132266D02*
X0061291Y0132266D01*
X0060968Y0131268D02*
X0062032Y0131268D01*
X0062456Y0130269D02*
X0060544Y0130269D01*
X0059546Y0129271D02*
X0063454Y0129271D01*
X0065396Y0128272D02*
X0057604Y0128272D01*
X0067604Y0128272D02*
X0074809Y0128272D01*
X0074809Y0127274D02*
X0003181Y0127274D01*
X0003181Y0128272D02*
X0044911Y0128272D01*
X0043176Y0129271D02*
X0003181Y0129271D01*
X0003181Y0130269D02*
X0042319Y0130269D01*
X0041819Y0131268D02*
X0003181Y0131268D01*
X0003181Y0132266D02*
X0041567Y0132266D01*
X0068737Y0137259D02*
X0074263Y0137259D01*
X0072985Y0136260D02*
X0070015Y0136260D01*
X0070748Y0135262D02*
X0072252Y0135262D01*
X0071838Y0134263D02*
X0071162Y0134263D01*
X0071291Y0133265D02*
X0071709Y0133265D01*
X0071709Y0132266D02*
X0071291Y0132266D01*
X0070968Y0131268D02*
X0072032Y0131268D01*
X0072456Y0130269D02*
X0070544Y0130269D01*
X0069546Y0129271D02*
X0073454Y0129271D01*
X0074809Y0126275D02*
X0003181Y0126275D01*
X0003181Y0125277D02*
X0074809Y0125277D01*
X0074809Y0124278D02*
X0003181Y0124278D01*
X0003181Y0123280D02*
X0074809Y0123280D01*
X0074809Y0122281D02*
X0003181Y0122281D01*
X0003181Y0121283D02*
X0074809Y0121283D01*
X0074809Y0120284D02*
X0003181Y0120284D01*
X0003181Y0119286D02*
X0011096Y0119286D01*
X0010097Y0118287D02*
X0003181Y0118287D01*
X0003181Y0117289D02*
X0009529Y0117289D01*
X0009529Y0116290D02*
X0003181Y0116290D01*
X0003181Y0115292D02*
X0009529Y0115292D01*
X0009767Y0114293D02*
X0003181Y0114293D01*
X0003181Y0113295D02*
X0010766Y0113295D01*
X0011764Y0112296D02*
X0003181Y0112296D01*
X0003181Y0111298D02*
X0015812Y0111298D01*
X0016810Y0110299D02*
X0003181Y0110299D01*
X0003181Y0109301D02*
X0011111Y0109301D01*
X0011782Y0109971D02*
X0009529Y0107718D01*
X0009529Y0104532D01*
X0011782Y0102279D01*
X0014968Y0102279D01*
X0017221Y0104532D01*
X0017221Y0107718D01*
X0014968Y0109971D01*
X0011782Y0109971D01*
X0010112Y0108302D02*
X0003181Y0108302D01*
X0003181Y0107303D02*
X0009529Y0107303D01*
X0009529Y0106305D02*
X0003181Y0106305D01*
X0003181Y0105306D02*
X0009529Y0105306D01*
X0009752Y0104308D02*
X0003181Y0104308D01*
X0003181Y0103309D02*
X0010751Y0103309D01*
X0011749Y0102311D02*
X0003181Y0102311D01*
X0003181Y0101312D02*
X0033922Y0101312D01*
X0034533Y0100314D02*
X0003181Y0100314D01*
X0003181Y0099315D02*
X0011126Y0099315D01*
X0010127Y0098317D02*
X0003181Y0098317D01*
X0003181Y0097318D02*
X0009529Y0097318D01*
X0009529Y0096320D02*
X0003181Y0096320D01*
X0003181Y0095321D02*
X0009529Y0095321D01*
X0009737Y0094323D02*
X0003181Y0094323D01*
X0003181Y0093324D02*
X0010736Y0093324D01*
X0011734Y0092326D02*
X0003181Y0092326D01*
X0003181Y0091327D02*
X0015782Y0091327D01*
X0016780Y0090329D02*
X0003181Y0090329D01*
X0003181Y0089330D02*
X0011141Y0089330D01*
X0011782Y0089971D02*
X0009529Y0087718D01*
X0009529Y0084532D01*
X0011782Y0082279D01*
X0014968Y0082279D01*
X0017221Y0084532D01*
X0017221Y0087718D01*
X0014968Y0089971D01*
X0011782Y0089971D01*
X0010142Y0088332D02*
X0003181Y0088332D01*
X0003181Y0087333D02*
X0009529Y0087333D01*
X0009529Y0086335D02*
X0003181Y0086335D01*
X0003181Y0085336D02*
X0009529Y0085336D01*
X0009723Y0084338D02*
X0003181Y0084338D01*
X0003181Y0083339D02*
X0010721Y0083339D01*
X0011720Y0082341D02*
X0003181Y0082341D01*
X0003181Y0081342D02*
X0048210Y0081342D01*
X0048210Y0082223D02*
X0048210Y0077777D01*
X0048848Y0077138D01*
X0052902Y0077138D01*
X0053540Y0077777D01*
X0053540Y0080275D01*
X0054388Y0081122D01*
X0054388Y0077848D01*
X0055027Y0077210D01*
X0059473Y0077210D01*
X0060112Y0077848D01*
X0060112Y0081902D01*
X0059473Y0082540D01*
X0058941Y0082540D01*
X0058941Y0083460D01*
X0059473Y0083460D01*
X0060112Y0084098D01*
X0060112Y0088152D01*
X0059473Y0088790D01*
X0055027Y0088790D01*
X0054388Y0088152D01*
X0054388Y0084691D01*
X0053737Y0084691D01*
X0053737Y0085713D01*
X0051162Y0085713D01*
X0051162Y0082941D01*
X0051425Y0082941D01*
X0051346Y0082862D01*
X0048848Y0082862D01*
X0048210Y0082223D01*
X0048327Y0082341D02*
X0025030Y0082341D01*
X0024968Y0082279D02*
X0027221Y0084532D01*
X0027221Y0087718D01*
X0024968Y0089971D01*
X0021782Y0089971D01*
X0019529Y0087718D01*
X0019529Y0084532D01*
X0021782Y0082279D01*
X0024968Y0082279D01*
X0026029Y0083339D02*
X0048369Y0083339D01*
X0048270Y0083438D02*
X0048510Y0083198D01*
X0048803Y0083029D01*
X0049131Y0082941D01*
X0050588Y0082941D01*
X0050588Y0085713D01*
X0051162Y0085713D01*
X0051162Y0086287D01*
X0050588Y0086287D01*
X0050588Y0085713D01*
X0048013Y0085713D01*
X0048013Y0084059D01*
X0048101Y0083731D01*
X0048270Y0083438D01*
X0048013Y0084338D02*
X0027027Y0084338D01*
X0027221Y0085336D02*
X0048013Y0085336D01*
X0048013Y0086287D02*
X0048013Y0087941D01*
X0048101Y0088269D01*
X0048270Y0088562D01*
X0048510Y0088802D01*
X0048803Y0088971D01*
X0049131Y0089059D01*
X0050588Y0089059D01*
X0050588Y0086287D01*
X0048013Y0086287D01*
X0048013Y0086335D02*
X0027221Y0086335D01*
X0027221Y0087333D02*
X0048013Y0087333D01*
X0048137Y0088332D02*
X0026608Y0088332D01*
X0025609Y0089330D02*
X0073092Y0089330D01*
X0073092Y0088332D02*
X0065932Y0088332D01*
X0066112Y0088152D02*
X0065473Y0088790D01*
X0061027Y0088790D01*
X0060388Y0088152D01*
X0060388Y0084098D01*
X0061027Y0083460D01*
X0063525Y0083460D01*
X0063984Y0083000D01*
X0063525Y0082540D01*
X0061027Y0082540D01*
X0060388Y0081902D01*
X0060388Y0077848D01*
X0061027Y0077210D01*
X0065473Y0077210D01*
X0066112Y0077848D01*
X0066112Y0080059D01*
X0072675Y0080059D01*
X0073092Y0079642D01*
X0073092Y0073264D01*
X0071969Y0073264D01*
X0071330Y0072625D01*
X0071330Y0061879D01*
X0071969Y0061240D01*
X0077596Y0061240D01*
X0078235Y0061879D01*
X0078235Y0072625D01*
X0077596Y0073264D01*
X0076473Y0073264D01*
X0076473Y0081043D01*
X0075066Y0082450D01*
X0074516Y0083000D01*
X0075066Y0083550D01*
X0076473Y0084957D01*
X0076473Y0092736D01*
X0077596Y0092736D01*
X0078235Y0093375D01*
X0078235Y0104121D01*
X0077596Y0104760D01*
X0071969Y0104760D01*
X0071330Y0104121D01*
X0071330Y0093375D01*
X0071969Y0092736D01*
X0073092Y0092736D01*
X0073092Y0086358D01*
X0072675Y0085941D01*
X0066112Y0085941D01*
X0066112Y0088152D01*
X0066112Y0087333D02*
X0073092Y0087333D01*
X0073069Y0086335D02*
X0066112Y0086335D01*
X0060388Y0086335D02*
X0060112Y0086335D01*
X0060112Y0087333D02*
X0060388Y0087333D01*
X0060568Y0088332D02*
X0059932Y0088332D01*
X0054568Y0088332D02*
X0053613Y0088332D01*
X0053649Y0088269D02*
X0053480Y0088562D01*
X0053240Y0088802D01*
X0052947Y0088971D01*
X0052619Y0089059D01*
X0051162Y0089059D01*
X0051162Y0086287D01*
X0053737Y0086287D01*
X0053737Y0087941D01*
X0053649Y0088269D01*
X0053737Y0087333D02*
X0054388Y0087333D01*
X0054388Y0086335D02*
X0053737Y0086335D01*
X0053737Y0085336D02*
X0054388Y0085336D01*
X0051162Y0085336D02*
X0050588Y0085336D01*
X0050588Y0084338D02*
X0051162Y0084338D01*
X0051162Y0083339D02*
X0050588Y0083339D01*
X0050588Y0086335D02*
X0051162Y0086335D01*
X0051162Y0087333D02*
X0050588Y0087333D01*
X0050588Y0088332D02*
X0051162Y0088332D01*
X0060112Y0085336D02*
X0060388Y0085336D01*
X0060388Y0084338D02*
X0060112Y0084338D01*
X0058941Y0083339D02*
X0063645Y0083339D01*
X0060827Y0082341D02*
X0059673Y0082341D01*
X0060112Y0081342D02*
X0060388Y0081342D01*
X0060388Y0080344D02*
X0060112Y0080344D01*
X0060112Y0079345D02*
X0060388Y0079345D01*
X0060388Y0078347D02*
X0060112Y0078347D01*
X0059612Y0077348D02*
X0060888Y0077348D01*
X0065612Y0077348D02*
X0073092Y0077348D01*
X0073092Y0076350D02*
X0027221Y0076350D01*
X0027221Y0077348D02*
X0048638Y0077348D01*
X0048210Y0078347D02*
X0026593Y0078347D01*
X0027221Y0077718D02*
X0024968Y0079971D01*
X0021782Y0079971D01*
X0019529Y0077718D01*
X0019529Y0074532D01*
X0021782Y0072279D01*
X0024968Y0072279D01*
X0027221Y0074532D01*
X0027221Y0077718D01*
X0025595Y0079345D02*
X0048210Y0079345D01*
X0048210Y0080344D02*
X0003181Y0080344D01*
X0003181Y0079345D02*
X0011155Y0079345D01*
X0011782Y0079971D02*
X0009529Y0077718D01*
X0009529Y0074532D01*
X0011782Y0072279D01*
X0014968Y0072279D01*
X0017221Y0074532D01*
X0017221Y0077718D01*
X0014968Y0079971D01*
X0011782Y0079971D01*
X0010157Y0078347D02*
X0003181Y0078347D01*
X0003181Y0077348D02*
X0009529Y0077348D01*
X0009529Y0076350D02*
X0003181Y0076350D01*
X0003181Y0075351D02*
X0009529Y0075351D01*
X0009708Y0074353D02*
X0003181Y0074353D01*
X0003181Y0073354D02*
X0010706Y0073354D01*
X0011705Y0072356D02*
X0003181Y0072356D01*
X0003181Y0071357D02*
X0071330Y0071357D01*
X0071330Y0070359D02*
X0003181Y0070359D01*
X0003181Y0069360D02*
X0011170Y0069360D01*
X0011782Y0069971D02*
X0009529Y0067718D01*
X0009529Y0064532D01*
X0011782Y0062279D01*
X0014968Y0062279D01*
X0017221Y0064532D01*
X0017221Y0067718D01*
X0014968Y0069971D01*
X0011782Y0069971D01*
X0010172Y0068362D02*
X0003181Y0068362D01*
X0003181Y0067363D02*
X0009529Y0067363D01*
X0009529Y0066365D02*
X0003181Y0066365D01*
X0003181Y0065366D02*
X0009529Y0065366D01*
X0009693Y0064368D02*
X0003181Y0064368D01*
X0003181Y0063369D02*
X0010691Y0063369D01*
X0011690Y0062370D02*
X0003181Y0062370D01*
X0003181Y0061372D02*
X0071837Y0061372D01*
X0071330Y0062370D02*
X0025060Y0062370D01*
X0024968Y0062279D02*
X0027221Y0064532D01*
X0027221Y0067718D01*
X0024968Y0069971D01*
X0021782Y0069971D01*
X0019529Y0067718D01*
X0019529Y0064532D01*
X0021782Y0062279D01*
X0024968Y0062279D01*
X0026059Y0063369D02*
X0071330Y0063369D01*
X0071330Y0064368D02*
X0027057Y0064368D01*
X0027221Y0065366D02*
X0071330Y0065366D01*
X0071330Y0066365D02*
X0027221Y0066365D01*
X0027221Y0067363D02*
X0071330Y0067363D01*
X0071330Y0068362D02*
X0026578Y0068362D01*
X0025580Y0069360D02*
X0071330Y0069360D01*
X0078235Y0069360D02*
X0081172Y0069360D01*
X0081172Y0068362D02*
X0078235Y0068362D01*
X0078235Y0067363D02*
X0081172Y0067363D01*
X0081172Y0066365D02*
X0078235Y0066365D01*
X0078235Y0065366D02*
X0081172Y0065366D01*
X0081172Y0064368D02*
X0078235Y0064368D01*
X0078235Y0063369D02*
X0081172Y0063369D01*
X0081172Y0062370D02*
X0078235Y0062370D01*
X0077728Y0061372D02*
X0081679Y0061372D01*
X0081811Y0061240D02*
X0087439Y0061240D01*
X0088078Y0061879D01*
X0088078Y0072625D01*
X0087439Y0073264D01*
X0086316Y0073264D01*
X0086316Y0079858D01*
X0086872Y0080414D01*
X0122058Y0080414D01*
X0123830Y0081148D01*
X0125185Y0082504D01*
X0125919Y0084275D01*
X0125919Y0084881D01*
X0126056Y0084881D01*
X0126056Y0084275D01*
X0126789Y0082504D01*
X0126789Y0082504D01*
X0128145Y0081148D01*
X0129916Y0080414D01*
X0159446Y0080414D01*
X0168017Y0088985D01*
X0169007Y0089976D01*
X0169007Y0092849D01*
X0169501Y0092355D01*
X0170136Y0091894D01*
X0170835Y0091537D01*
X0171582Y0091295D01*
X0172250Y0091189D01*
X0172250Y0095659D01*
X0173250Y0095659D01*
X0173250Y0091189D01*
X0173918Y0091295D01*
X0174664Y0091537D01*
X0175364Y0091894D01*
X0175999Y0092355D01*
X0176554Y0092910D01*
X0177016Y0093545D01*
X0177372Y0094245D01*
X0177615Y0094992D01*
X0177720Y0095659D01*
X0173250Y0095659D01*
X0173250Y0096659D01*
X0177720Y0096659D01*
X0177615Y0097327D01*
X0177372Y0098074D01*
X0177016Y0098773D01*
X0176554Y0099409D01*
X0175999Y0099964D01*
X0175364Y0100425D01*
X0174664Y0100781D01*
X0173918Y0101024D01*
X0173250Y0101130D01*
X0173250Y0096659D01*
X0172250Y0096659D01*
X0172250Y0101130D01*
X0171582Y0101024D01*
X0170835Y0100781D01*
X0170136Y0100425D01*
X0169501Y0099964D01*
X0169007Y0099470D01*
X0169007Y0102856D01*
X0170031Y0103279D01*
X0171378Y0104627D01*
X0172107Y0106388D01*
X0172107Y0108293D01*
X0171378Y0110054D01*
X0170031Y0111402D01*
X0168270Y0112131D01*
X0166364Y0112131D01*
X0164603Y0111402D01*
X0163256Y0110054D01*
X0162526Y0108293D01*
X0162526Y0106388D01*
X0163256Y0104627D01*
X0164603Y0103279D01*
X0165626Y0102856D01*
X0165626Y0099152D01*
X0164558Y0100221D01*
X0162797Y0100950D01*
X0160892Y0100950D01*
X0159131Y0100221D01*
X0157783Y0098873D01*
X0157054Y0097112D01*
X0157054Y0095207D01*
X0157783Y0093446D01*
X0159131Y0092098D01*
X0160154Y0091674D01*
X0160154Y0088436D01*
X0157304Y0085586D01*
X0147477Y0085586D01*
X0147477Y0086045D01*
X0146666Y0087451D01*
X0145260Y0088262D01*
X0139448Y0088262D01*
X0138042Y0087451D01*
X0138042Y0087451D01*
X0138042Y0087451D01*
X0137231Y0086045D01*
X0137231Y0085586D01*
X0131227Y0085586D01*
X0131227Y0086237D01*
X0130494Y0088008D01*
X0129138Y0089364D01*
X0127367Y0090097D01*
X0124608Y0090097D01*
X0122837Y0089364D01*
X0121481Y0088008D01*
X0120747Y0086237D01*
X0120747Y0085586D01*
X0120611Y0085586D01*
X0120611Y0087880D01*
X0119799Y0089286D01*
X0118393Y0090097D01*
X0115929Y0090097D01*
X0114523Y0089286D01*
X0114523Y0089286D01*
X0114523Y0089286D01*
X0113712Y0087880D01*
X0113712Y0085586D01*
X0113575Y0085586D01*
X0113575Y0087880D01*
X0112764Y0089286D01*
X0112764Y0089286D01*
X0112764Y0089286D01*
X0111358Y0090097D01*
X0108893Y0090097D01*
X0107488Y0089286D01*
X0107488Y0089286D01*
X0106676Y0087880D01*
X0106676Y0085586D01*
X0086872Y0085586D01*
X0086316Y0086142D01*
X0086316Y0092736D01*
X0087439Y0092736D01*
X0088078Y0093375D01*
X0088078Y0104121D01*
X0087439Y0104760D01*
X0081811Y0104760D01*
X0081172Y0104121D01*
X0081172Y0093375D01*
X0081811Y0092736D01*
X0082934Y0092736D01*
X0082934Y0086142D01*
X0082294Y0085501D01*
X0082294Y0083570D01*
X0082864Y0083000D01*
X0082294Y0082430D01*
X0082294Y0080499D01*
X0082934Y0079858D01*
X0082934Y0073264D01*
X0081811Y0073264D01*
X0081172Y0072625D01*
X0081172Y0061879D01*
X0081811Y0061240D01*
X0087571Y0061372D02*
X0091522Y0061372D01*
X0091654Y0061240D02*
X0097281Y0061240D01*
X0097920Y0061879D01*
X0097920Y0072625D01*
X0097281Y0073264D01*
X0091654Y0073264D01*
X0091015Y0072625D01*
X0091015Y0061879D01*
X0091654Y0061240D01*
X0091015Y0062370D02*
X0088078Y0062370D01*
X0088078Y0063369D02*
X0091015Y0063369D01*
X0091015Y0064368D02*
X0088078Y0064368D01*
X0088078Y0065366D02*
X0091015Y0065366D01*
X0091015Y0066365D02*
X0088078Y0066365D01*
X0088078Y0067363D02*
X0091015Y0067363D01*
X0091015Y0068362D02*
X0088078Y0068362D01*
X0088078Y0069360D02*
X0091015Y0069360D01*
X0091015Y0070359D02*
X0088078Y0070359D01*
X0088078Y0071357D02*
X0091015Y0071357D01*
X0091015Y0072356D02*
X0088078Y0072356D01*
X0086316Y0073354D02*
X0360789Y0073354D01*
X0360789Y0072356D02*
X0097920Y0072356D01*
X0097920Y0071357D02*
X0360789Y0071357D01*
X0360789Y0070359D02*
X0097920Y0070359D01*
X0097920Y0069360D02*
X0360789Y0069360D01*
X0360789Y0068362D02*
X0097920Y0068362D01*
X0097920Y0067363D02*
X0360789Y0067363D01*
X0360789Y0066365D02*
X0097920Y0066365D01*
X0097920Y0065366D02*
X0360789Y0065366D01*
X0360789Y0064368D02*
X0097920Y0064368D01*
X0097920Y0063369D02*
X0360789Y0063369D01*
X0360789Y0062370D02*
X0097920Y0062370D01*
X0097413Y0061372D02*
X0360789Y0061372D01*
X0360789Y0060373D02*
X0003181Y0060373D01*
X0003181Y0059375D02*
X0011185Y0059375D01*
X0011782Y0059971D02*
X0009529Y0057718D01*
X0009529Y0054532D01*
X0011782Y0052279D01*
X0014968Y0052279D01*
X0017221Y0054532D01*
X0017221Y0057718D01*
X0014968Y0059971D01*
X0011782Y0059971D01*
X0010187Y0058376D02*
X0003181Y0058376D01*
X0003181Y0057378D02*
X0009529Y0057378D01*
X0009529Y0056379D02*
X0003181Y0056379D01*
X0003181Y0055381D02*
X0009529Y0055381D01*
X0009678Y0054382D02*
X0003181Y0054382D01*
X0003181Y0053384D02*
X0010676Y0053384D01*
X0011675Y0052385D02*
X0003181Y0052385D01*
X0003181Y0051387D02*
X0360916Y0051387D01*
X0360789Y0051607D02*
X0361912Y0049662D01*
X0361912Y0049662D01*
X0361912Y0049662D01*
X0363857Y0048539D01*
X0436414Y0048539D01*
X0436414Y0029691D01*
X0409764Y0029691D01*
X0409470Y0030402D01*
X0408277Y0031595D01*
X0406718Y0032240D01*
X0405032Y0032240D01*
X0403473Y0031595D01*
X0402280Y0030402D01*
X0401635Y0028843D01*
X0401635Y0027157D01*
X0402280Y0025598D01*
X0403473Y0024405D01*
X0405032Y0023760D01*
X0406718Y0023760D01*
X0408277Y0024405D01*
X0409470Y0025598D01*
X0409764Y0026309D01*
X0437643Y0026309D01*
X0439000Y0027093D01*
X0440357Y0026309D01*
X0468861Y0026309D01*
X0469155Y0025598D01*
X0470348Y0024405D01*
X0471907Y0023760D01*
X0473593Y0023760D01*
X0475152Y0024405D01*
X0476345Y0025598D01*
X0476990Y0027157D01*
X0476990Y0028843D01*
X0476345Y0030402D01*
X0475152Y0031595D01*
X0473593Y0032240D01*
X0471907Y0032240D01*
X0470348Y0031595D01*
X0469155Y0030402D01*
X0468861Y0029691D01*
X0441586Y0029691D01*
X0441586Y0050643D01*
X0440463Y0052588D01*
X0440463Y0052588D01*
X0440463Y0052588D01*
X0438518Y0053711D01*
X0365961Y0053711D01*
X0365961Y0096416D01*
X0365986Y0096355D01*
X0367079Y0095262D01*
X0368508Y0094670D01*
X0370053Y0094670D01*
X0371482Y0095262D01*
X0372575Y0096355D01*
X0373166Y0097783D01*
X0373166Y0099329D01*
X0372575Y0100757D01*
X0371482Y0101850D01*
X0370053Y0102442D01*
X0368508Y0102442D01*
X0367079Y0101850D01*
X0365986Y0100757D01*
X0365961Y0100696D01*
X0365961Y0107990D01*
X0366166Y0107707D01*
X0366621Y0107253D01*
X0367141Y0106875D01*
X0367713Y0106584D01*
X0368324Y0106385D01*
X0368781Y0106313D01*
X0368781Y0109867D01*
X0369780Y0109867D01*
X0369780Y0106313D01*
X0370237Y0106385D01*
X0370848Y0106584D01*
X0371420Y0106875D01*
X0371940Y0107253D01*
X0372395Y0107707D01*
X0372772Y0108227D01*
X0373064Y0108800D01*
X0373263Y0109411D01*
X0373335Y0109867D01*
X0369781Y0109867D01*
X0369781Y0110867D01*
X0373335Y0110867D01*
X0373263Y0111323D01*
X0373064Y0111934D01*
X0372772Y0112507D01*
X0372395Y0113027D01*
X0371940Y0113481D01*
X0371420Y0113859D01*
X0370848Y0114151D01*
X0370237Y0114349D01*
X0369780Y0114421D01*
X0369780Y0110867D01*
X0368781Y0110867D01*
X0368781Y0114421D01*
X0368324Y0114349D01*
X0367713Y0114151D01*
X0367141Y0113859D01*
X0366621Y0113481D01*
X0366166Y0113027D01*
X0365961Y0112744D01*
X0365961Y0118143D01*
X0364986Y0119831D01*
X0367672Y0120943D01*
X0369807Y0123078D01*
X0370962Y0125866D01*
X0370962Y0128884D01*
X0369807Y0131672D01*
X0367672Y0133807D01*
X0364884Y0134962D01*
X0361866Y0134962D01*
X0359078Y0133807D01*
X0356943Y0131672D01*
X0355788Y0128884D01*
X0355788Y0125866D01*
X0356943Y0123078D01*
X0358810Y0121211D01*
X0317602Y0121211D01*
X0317640Y0121238D01*
X0318262Y0121860D01*
X0318779Y0122572D01*
X0319178Y0123355D01*
X0319450Y0124192D01*
X0319578Y0125000D01*
X0314500Y0125000D01*
X0314500Y0126000D01*
X0313500Y0126000D01*
X0313500Y0131078D01*
X0312692Y0130950D01*
X0311855Y0130678D01*
X0311072Y0130279D01*
X0310360Y0129762D01*
X0309738Y0129140D01*
X0309221Y0128428D01*
X0308822Y0127645D01*
X0308550Y0126808D01*
X0308422Y0126000D01*
X0313500Y0126000D01*
X0313500Y0125000D01*
X0308422Y0125000D01*
X0308550Y0124192D01*
X0308822Y0123355D01*
X0309221Y0122572D01*
X0309365Y0122373D01*
X0308059Y0122373D01*
X0306897Y0121211D01*
X0265727Y0121211D01*
X0265765Y0121238D01*
X0266387Y0121860D01*
X0266904Y0122572D01*
X0267303Y0123355D01*
X0267575Y0124192D01*
X0267703Y0125000D01*
X0262625Y0125000D01*
X0262625Y0126000D01*
X0261625Y0126000D01*
X0261625Y0131078D01*
X0260817Y0130950D01*
X0259980Y0130678D01*
X0259197Y0130279D01*
X0258485Y0129762D01*
X0257863Y0129140D01*
X0257346Y0128428D01*
X0256947Y0127645D01*
X0256675Y0126808D01*
X0256547Y0126000D01*
X0261625Y0126000D01*
X0261625Y0125000D01*
X0256547Y0125000D01*
X0256675Y0124192D01*
X0256947Y0123355D01*
X0257346Y0122572D01*
X0257490Y0122373D01*
X0256184Y0122373D01*
X0255022Y0121211D01*
X0187978Y0121211D01*
X0186816Y0122373D01*
X0184934Y0122373D01*
X0183603Y0121042D01*
X0183603Y0119160D01*
X0184139Y0118625D01*
X0183603Y0118090D01*
X0183603Y0116208D01*
X0184934Y0114877D01*
X0186816Y0114877D01*
X0187978Y0116039D01*
X0255022Y0116039D01*
X0256184Y0114877D01*
X0258066Y0114877D01*
X0259228Y0116039D01*
X0306897Y0116039D01*
X0308059Y0114877D01*
X0309941Y0114877D01*
X0311103Y0116039D01*
X0360789Y0116039D01*
X0360789Y0114346D01*
X0360762Y0114362D01*
X0360434Y0114450D01*
X0357969Y0114450D01*
X0357969Y0110867D01*
X0356969Y0110867D01*
X0356969Y0109867D01*
X0353387Y0109867D01*
X0353387Y0107402D01*
X0353475Y0107075D01*
X0353644Y0106781D01*
X0353884Y0106542D01*
X0354177Y0106372D01*
X0354505Y0106284D01*
X0356969Y0106284D01*
X0356969Y0109867D01*
X0357969Y0109867D01*
X0357969Y0106284D01*
X0360434Y0106284D01*
X0360762Y0106372D01*
X0360789Y0106388D01*
X0360789Y0100696D01*
X0360764Y0100757D01*
X0359671Y0101850D01*
X0358242Y0102442D01*
X0356697Y0102442D01*
X0355268Y0101850D01*
X0354175Y0100757D01*
X0353584Y0099329D01*
X0353584Y0097783D01*
X0354175Y0096355D01*
X0355268Y0095262D01*
X0356697Y0094670D01*
X0358242Y0094670D01*
X0359671Y0095262D01*
X0360764Y0096355D01*
X0360789Y0096416D01*
X0360789Y0051607D01*
X0360789Y0052385D02*
X0025353Y0052385D01*
X0025050Y0052082D02*
X0027418Y0054450D01*
X0027418Y0055641D01*
X0023859Y0055641D01*
X0023859Y0052082D01*
X0025050Y0052082D01*
X0023859Y0052385D02*
X0022891Y0052385D01*
X0022891Y0052082D02*
X0022891Y0055641D01*
X0019332Y0055641D01*
X0019332Y0054450D01*
X0021700Y0052082D01*
X0022891Y0052082D01*
X0022891Y0053384D02*
X0023859Y0053384D01*
X0023859Y0054382D02*
X0022891Y0054382D01*
X0022891Y0055381D02*
X0023859Y0055381D01*
X0023859Y0055641D02*
X0022891Y0055641D01*
X0022891Y0056609D01*
X0019332Y0056609D01*
X0019332Y0057800D01*
X0021700Y0060168D01*
X0022891Y0060168D01*
X0022891Y0056609D01*
X0023859Y0056609D01*
X0023859Y0060168D01*
X0025050Y0060168D01*
X0027418Y0057800D01*
X0027418Y0056609D01*
X0023859Y0056609D01*
X0023859Y0055641D01*
X0023859Y0056379D02*
X0360789Y0056379D01*
X0360789Y0055381D02*
X0027418Y0055381D01*
X0027350Y0054382D02*
X0360789Y0054382D01*
X0360789Y0053384D02*
X0026352Y0053384D01*
X0021397Y0052385D02*
X0015075Y0052385D01*
X0016074Y0053384D02*
X0020398Y0053384D01*
X0019400Y0054382D02*
X0017072Y0054382D01*
X0017221Y0055381D02*
X0019332Y0055381D01*
X0019332Y0057378D02*
X0017221Y0057378D01*
X0017221Y0056379D02*
X0022891Y0056379D01*
X0022891Y0057378D02*
X0023859Y0057378D01*
X0023859Y0058376D02*
X0022891Y0058376D01*
X0022891Y0059375D02*
X0023859Y0059375D01*
X0025843Y0059375D02*
X0360789Y0059375D01*
X0360789Y0058376D02*
X0026842Y0058376D01*
X0027418Y0057378D02*
X0360789Y0057378D01*
X0365961Y0057378D02*
X0507240Y0057378D01*
X0507240Y0058376D02*
X0365961Y0058376D01*
X0365961Y0059375D02*
X0507240Y0059375D01*
X0507240Y0060373D02*
X0365961Y0060373D01*
X0365961Y0061372D02*
X0507240Y0061372D01*
X0507240Y0062370D02*
X0365961Y0062370D01*
X0365961Y0063369D02*
X0507240Y0063369D01*
X0507240Y0064368D02*
X0365961Y0064368D01*
X0365961Y0065366D02*
X0507240Y0065366D01*
X0507240Y0066365D02*
X0365961Y0066365D01*
X0365961Y0067363D02*
X0507240Y0067363D01*
X0507240Y0068362D02*
X0365961Y0068362D01*
X0365961Y0069360D02*
X0507240Y0069360D01*
X0507240Y0070359D02*
X0365961Y0070359D01*
X0365961Y0071357D02*
X0507240Y0071357D01*
X0507240Y0072356D02*
X0470287Y0072356D01*
X0472698Y0073354D02*
X0490615Y0073354D01*
X0490744Y0073301D02*
X0491705Y0073043D01*
X0492688Y0072914D01*
X0492688Y0080000D01*
X0493688Y0080000D01*
X0493688Y0081000D01*
X0500774Y0081000D01*
X0500645Y0081983D01*
X0500387Y0082944D01*
X0500007Y0083863D01*
X0499510Y0084724D01*
X0498904Y0085513D01*
X0498201Y0086216D01*
X0497412Y0086822D01*
X0496551Y0087319D01*
X0495632Y0087699D01*
X0494671Y0087957D01*
X0493688Y0088086D01*
X0493688Y0081000D01*
X0492688Y0081000D01*
X0492688Y0088086D01*
X0491705Y0087957D01*
X0490744Y0087699D01*
X0489825Y0087319D01*
X0488964Y0086822D01*
X0488175Y0086216D01*
X0487472Y0085513D01*
X0486866Y0084724D01*
X0486369Y0083863D01*
X0485989Y0082944D01*
X0485731Y0081983D01*
X0485602Y0081000D01*
X0492688Y0081000D01*
X0492688Y0080000D01*
X0485602Y0080000D01*
X0485731Y0079017D01*
X0485989Y0078056D01*
X0486369Y0077137D01*
X0486866Y0076276D01*
X0487472Y0075487D01*
X0488175Y0074784D01*
X0488964Y0074178D01*
X0489825Y0073681D01*
X0490744Y0073301D01*
X0492688Y0073354D02*
X0493688Y0073354D01*
X0493688Y0072914D02*
X0494671Y0073043D01*
X0495632Y0073301D01*
X0496551Y0073681D01*
X0497412Y0074178D01*
X0498201Y0074784D01*
X0498904Y0075487D01*
X0499510Y0076276D01*
X0500007Y0077137D01*
X0500387Y0078056D01*
X0500645Y0079017D01*
X0500774Y0080000D01*
X0493688Y0080000D01*
X0493688Y0072914D01*
X0493688Y0074353D02*
X0492688Y0074353D01*
X0492688Y0075351D02*
X0493688Y0075351D01*
X0493688Y0076350D02*
X0492688Y0076350D01*
X0492688Y0077348D02*
X0493688Y0077348D01*
X0493688Y0078347D02*
X0492688Y0078347D01*
X0492688Y0079345D02*
X0493688Y0079345D01*
X0493688Y0080344D02*
X0507240Y0080344D01*
X0507240Y0081342D02*
X0500729Y0081342D01*
X0500549Y0082341D02*
X0507240Y0082341D01*
X0507240Y0083339D02*
X0500224Y0083339D01*
X0499733Y0084338D02*
X0507240Y0084338D01*
X0507240Y0085336D02*
X0499040Y0085336D01*
X0498046Y0086335D02*
X0507240Y0086335D01*
X0507240Y0087333D02*
X0496516Y0087333D01*
X0493688Y0087333D02*
X0492688Y0087333D01*
X0492688Y0086335D02*
X0493688Y0086335D01*
X0493688Y0085336D02*
X0492688Y0085336D01*
X0492688Y0084338D02*
X0493688Y0084338D01*
X0493688Y0083339D02*
X0492688Y0083339D01*
X0492688Y0082341D02*
X0493688Y0082341D01*
X0493688Y0081342D02*
X0492688Y0081342D01*
X0492688Y0080344D02*
X0476759Y0080344D01*
X0476759Y0081342D02*
X0485647Y0081342D01*
X0485827Y0082341D02*
X0476670Y0082341D01*
X0476257Y0083339D02*
X0486152Y0083339D01*
X0486643Y0084338D02*
X0475843Y0084338D01*
X0475310Y0085336D02*
X0487336Y0085336D01*
X0488330Y0086335D02*
X0474311Y0086335D01*
X0473313Y0087333D02*
X0489860Y0087333D01*
X0484026Y0093076D02*
X0483165Y0092579D01*
X0482246Y0092198D01*
X0481285Y0091941D01*
X0480302Y0091811D01*
X0480302Y0098898D01*
X0480302Y0099898D01*
X0479302Y0099898D01*
X0479302Y0106984D01*
X0478319Y0106854D01*
X0477358Y0106597D01*
X0476439Y0106216D01*
X0475578Y0105719D01*
X0474789Y0105114D01*
X0474086Y0104411D01*
X0473481Y0103622D01*
X0472983Y0102760D01*
X0472603Y0101841D01*
X0472345Y0100881D01*
X0472216Y0099898D01*
X0479302Y0099898D01*
X0479302Y0098898D01*
X0472216Y0098898D01*
X0472345Y0097914D01*
X0472603Y0096954D01*
X0472983Y0096035D01*
X0473481Y0095174D01*
X0474086Y0094385D01*
X0474789Y0093681D01*
X0475578Y0093076D01*
X0476439Y0092579D01*
X0477358Y0092198D01*
X0478319Y0091941D01*
X0479302Y0091811D01*
X0479302Y0098898D01*
X0480302Y0098898D01*
X0487388Y0098898D01*
X0487259Y0097914D01*
X0487002Y0096954D01*
X0486621Y0096035D01*
X0486124Y0095174D01*
X0485518Y0094385D01*
X0484815Y0093681D01*
X0484026Y0093076D01*
X0484350Y0093324D02*
X0507240Y0093324D01*
X0507240Y0092326D02*
X0482554Y0092326D01*
X0480302Y0092326D02*
X0479302Y0092326D01*
X0479302Y0093324D02*
X0480302Y0093324D01*
X0480302Y0094323D02*
X0479302Y0094323D01*
X0479302Y0095321D02*
X0480302Y0095321D01*
X0480302Y0096320D02*
X0479302Y0096320D01*
X0479302Y0097318D02*
X0480302Y0097318D01*
X0480302Y0098317D02*
X0479302Y0098317D01*
X0479302Y0099315D02*
X0453006Y0099315D01*
X0454004Y0098317D02*
X0472292Y0098317D01*
X0472505Y0097318D02*
X0455003Y0097318D01*
X0456001Y0096320D02*
X0472865Y0096320D01*
X0473395Y0095321D02*
X0457000Y0095321D01*
X0457998Y0094323D02*
X0474148Y0094323D01*
X0475255Y0093324D02*
X0458997Y0093324D01*
X0459995Y0092326D02*
X0477050Y0092326D01*
X0471042Y0088332D02*
X0507240Y0088332D01*
X0507240Y0089330D02*
X0462991Y0089330D01*
X0463989Y0088332D02*
X0466121Y0088332D01*
X0461992Y0090329D02*
X0507240Y0090329D01*
X0507240Y0091327D02*
X0460994Y0091327D01*
X0456512Y0089330D02*
X0405846Y0089330D01*
X0404848Y0088332D02*
X0457511Y0088332D01*
X0458509Y0087333D02*
X0403849Y0087333D01*
X0402851Y0086335D02*
X0459508Y0086335D01*
X0460506Y0085336D02*
X0401852Y0085336D01*
X0400854Y0084338D02*
X0461320Y0084338D01*
X0460907Y0083339D02*
X0399855Y0083339D01*
X0398857Y0082341D02*
X0460493Y0082341D01*
X0460405Y0081342D02*
X0397858Y0081342D01*
X0387143Y0080344D02*
X0460405Y0080344D01*
X0460405Y0079345D02*
X0385716Y0079345D01*
X0383534Y0079345D02*
X0365961Y0079345D01*
X0365961Y0078347D02*
X0460623Y0078347D01*
X0461036Y0077348D02*
X0365961Y0077348D01*
X0365961Y0076350D02*
X0461450Y0076350D01*
X0462166Y0075351D02*
X0365961Y0075351D01*
X0365961Y0074353D02*
X0463165Y0074353D01*
X0464465Y0073354D02*
X0365961Y0073354D01*
X0365961Y0072356D02*
X0466876Y0072356D01*
X0473999Y0074353D02*
X0488737Y0074353D01*
X0487608Y0075351D02*
X0474997Y0075351D01*
X0475713Y0076350D02*
X0486824Y0076350D01*
X0486282Y0077348D02*
X0476127Y0077348D01*
X0476541Y0078347D02*
X0485911Y0078347D01*
X0485688Y0079345D02*
X0476759Y0079345D01*
X0495761Y0073354D02*
X0507240Y0073354D01*
X0507240Y0074353D02*
X0497639Y0074353D01*
X0498768Y0075351D02*
X0507240Y0075351D01*
X0507240Y0076350D02*
X0499552Y0076350D01*
X0500094Y0077348D02*
X0507240Y0077348D01*
X0507240Y0078347D02*
X0500465Y0078347D01*
X0500688Y0079345D02*
X0507240Y0079345D01*
X0507240Y0094323D02*
X0485456Y0094323D01*
X0486209Y0095321D02*
X0507240Y0095321D01*
X0507240Y0096320D02*
X0486739Y0096320D01*
X0487099Y0097318D02*
X0507240Y0097318D01*
X0507240Y0098317D02*
X0487312Y0098317D01*
X0487388Y0099898D02*
X0480302Y0099898D01*
X0480302Y0106984D01*
X0481285Y0106854D01*
X0482246Y0106597D01*
X0483165Y0106216D01*
X0484026Y0105719D01*
X0484815Y0105114D01*
X0485518Y0104411D01*
X0486124Y0103622D01*
X0486621Y0102760D01*
X0487002Y0101841D01*
X0487259Y0100881D01*
X0487388Y0099898D01*
X0487334Y0100314D02*
X0507240Y0100314D01*
X0507240Y0101312D02*
X0487143Y0101312D01*
X0486807Y0102311D02*
X0507240Y0102311D01*
X0507240Y0103309D02*
X0486304Y0103309D01*
X0485597Y0104308D02*
X0507240Y0104308D01*
X0507240Y0105306D02*
X0484564Y0105306D01*
X0482951Y0106305D02*
X0507240Y0106305D01*
X0507240Y0107303D02*
X0451291Y0107303D01*
X0451291Y0106305D02*
X0476653Y0106305D01*
X0475040Y0105306D02*
X0451291Y0105306D01*
X0451291Y0104308D02*
X0474007Y0104308D01*
X0473300Y0103309D02*
X0451291Y0103309D01*
X0451291Y0102311D02*
X0472797Y0102311D01*
X0472461Y0101312D02*
X0451291Y0101312D01*
X0452007Y0100314D02*
X0472271Y0100314D01*
X0479302Y0100314D02*
X0480302Y0100314D01*
X0480302Y0101312D02*
X0479302Y0101312D01*
X0479302Y0102311D02*
X0480302Y0102311D01*
X0480302Y0103309D02*
X0479302Y0103309D01*
X0479302Y0104308D02*
X0480302Y0104308D01*
X0480302Y0105306D02*
X0479302Y0105306D01*
X0479302Y0106305D02*
X0480302Y0106305D01*
X0480302Y0099315D02*
X0507240Y0099315D01*
X0507240Y0108302D02*
X0451291Y0108302D01*
X0451291Y0109301D02*
X0507240Y0109301D01*
X0507240Y0110299D02*
X0451291Y0110299D01*
X0451291Y0111298D02*
X0507240Y0111298D01*
X0507240Y0112296D02*
X0451291Y0112296D01*
X0451291Y0113295D02*
X0507240Y0113295D01*
X0507240Y0114293D02*
X0451291Y0114293D01*
X0451291Y0115292D02*
X0507240Y0115292D01*
X0507240Y0116290D02*
X0501225Y0116290D01*
X0503073Y0117289D02*
X0507240Y0117289D01*
X0507240Y0118287D02*
X0504411Y0118287D01*
X0505434Y0119286D02*
X0507240Y0119286D01*
X0507240Y0120284D02*
X0506242Y0120284D01*
X0506888Y0121283D02*
X0507240Y0121283D01*
X0497000Y0121283D02*
X0496000Y0121283D01*
X0496000Y0122281D02*
X0497000Y0122281D01*
X0497000Y0123280D02*
X0496000Y0123280D01*
X0496000Y0124278D02*
X0497000Y0124278D01*
X0497000Y0125277D02*
X0496000Y0125277D01*
X0496000Y0126275D02*
X0497000Y0126275D01*
X0496000Y0127274D02*
X0475125Y0127274D01*
X0475125Y0126275D02*
X0474125Y0126275D01*
X0474125Y0125277D02*
X0475125Y0125277D01*
X0475125Y0124278D02*
X0474125Y0124278D01*
X0474125Y0123280D02*
X0475125Y0123280D01*
X0475125Y0122281D02*
X0474125Y0122281D01*
X0474125Y0121283D02*
X0475125Y0121283D01*
X0475125Y0120284D02*
X0474125Y0120284D01*
X0474125Y0119286D02*
X0475125Y0119286D01*
X0475125Y0118287D02*
X0474125Y0118287D01*
X0474125Y0117289D02*
X0475125Y0117289D01*
X0475125Y0116290D02*
X0474125Y0116290D01*
X0469900Y0116290D02*
X0453379Y0116290D01*
X0455211Y0117289D02*
X0468052Y0117289D01*
X0466714Y0118287D02*
X0456657Y0118287D01*
X0457656Y0119286D02*
X0465691Y0119286D01*
X0464883Y0120284D02*
X0458578Y0120284D01*
X0459155Y0121283D02*
X0464237Y0121283D01*
X0463718Y0122281D02*
X0459731Y0122281D01*
X0460161Y0123280D02*
X0463305Y0123280D01*
X0462985Y0124278D02*
X0460428Y0124278D01*
X0460696Y0125277D02*
X0462757Y0125277D01*
X0462635Y0126275D02*
X0460841Y0126275D01*
X0460841Y0127274D02*
X0474125Y0127274D01*
X0462613Y0128272D02*
X0460841Y0128272D01*
X0460750Y0129271D02*
X0462725Y0129271D01*
X0462939Y0130269D02*
X0460483Y0130269D01*
X0460215Y0131268D02*
X0463234Y0131268D01*
X0463620Y0132266D02*
X0459848Y0132266D01*
X0459272Y0133265D02*
X0464109Y0133265D01*
X0464737Y0134263D02*
X0458695Y0134263D01*
X0457858Y0135262D02*
X0465518Y0135262D01*
X0466487Y0136260D02*
X0456860Y0136260D01*
X0455562Y0137259D02*
X0467730Y0137259D01*
X0442438Y0137259D02*
X0429937Y0137259D01*
X0431235Y0136260D02*
X0441140Y0136260D01*
X0440142Y0135262D02*
X0432233Y0135262D01*
X0433070Y0134263D02*
X0439305Y0134263D01*
X0438728Y0133265D02*
X0433647Y0133265D01*
X0434223Y0132266D02*
X0438152Y0132266D01*
X0437785Y0131268D02*
X0434590Y0131268D01*
X0434858Y0130269D02*
X0437517Y0130269D01*
X0437250Y0129271D02*
X0435125Y0129271D01*
X0435216Y0128272D02*
X0437159Y0128272D01*
X0437159Y0127274D02*
X0435216Y0127274D01*
X0435216Y0126275D02*
X0437159Y0126275D01*
X0437304Y0125277D02*
X0435071Y0125277D01*
X0434803Y0124278D02*
X0437572Y0124278D01*
X0437839Y0123280D02*
X0434536Y0123280D01*
X0434106Y0122281D02*
X0438269Y0122281D01*
X0438845Y0121283D02*
X0433530Y0121283D01*
X0432953Y0120284D02*
X0439422Y0120284D01*
X0440344Y0119286D02*
X0432031Y0119286D01*
X0431032Y0118287D02*
X0441343Y0118287D01*
X0442789Y0117289D02*
X0429586Y0117289D01*
X0427754Y0116290D02*
X0444621Y0116290D01*
X0446709Y0115292D02*
X0425066Y0115292D01*
X0425066Y0114293D02*
X0446709Y0114293D01*
X0446709Y0113295D02*
X0425066Y0113295D01*
X0425066Y0112296D02*
X0446709Y0112296D01*
X0446709Y0111298D02*
X0425066Y0111298D01*
X0425066Y0110299D02*
X0446709Y0110299D01*
X0446709Y0109301D02*
X0425066Y0109301D01*
X0424818Y0108302D02*
X0446709Y0108302D01*
X0446709Y0107303D02*
X0423819Y0107303D01*
X0422821Y0106305D02*
X0446709Y0106305D01*
X0446709Y0105306D02*
X0421822Y0105306D01*
X0420824Y0104308D02*
X0446709Y0104308D01*
X0446709Y0103309D02*
X0419825Y0103309D01*
X0418827Y0102311D02*
X0446709Y0102311D01*
X0446709Y0101312D02*
X0417828Y0101312D01*
X0416830Y0100314D02*
X0446709Y0100314D01*
X0446709Y0099315D02*
X0415831Y0099315D01*
X0414833Y0098317D02*
X0447525Y0098317D01*
X0448524Y0097318D02*
X0413834Y0097318D01*
X0412836Y0096320D02*
X0449523Y0096320D01*
X0450521Y0095321D02*
X0411837Y0095321D01*
X0410839Y0094323D02*
X0451520Y0094323D01*
X0452518Y0093324D02*
X0409840Y0093324D01*
X0408842Y0092326D02*
X0453517Y0092326D01*
X0454515Y0091327D02*
X0407843Y0091327D01*
X0406845Y0090329D02*
X0455514Y0090329D01*
X0396059Y0093324D02*
X0365961Y0093324D01*
X0365961Y0092326D02*
X0395310Y0092326D01*
X0394312Y0091327D02*
X0365961Y0091327D01*
X0365961Y0090329D02*
X0383351Y0090329D01*
X0382031Y0089330D02*
X0365961Y0089330D01*
X0365961Y0088332D02*
X0381540Y0088332D01*
X0381408Y0087333D02*
X0365961Y0087333D01*
X0365961Y0086335D02*
X0381574Y0086335D01*
X0382115Y0085336D02*
X0365961Y0085336D01*
X0365961Y0084338D02*
X0382039Y0084338D01*
X0381543Y0083339D02*
X0365961Y0083339D01*
X0365961Y0082341D02*
X0381408Y0082341D01*
X0381571Y0081342D02*
X0365961Y0081342D01*
X0365961Y0080344D02*
X0382107Y0080344D01*
X0360789Y0080344D02*
X0086801Y0080344D01*
X0086316Y0079345D02*
X0360789Y0079345D01*
X0360789Y0078347D02*
X0086316Y0078347D01*
X0086316Y0077348D02*
X0360789Y0077348D01*
X0360789Y0076350D02*
X0086316Y0076350D01*
X0086316Y0075351D02*
X0360789Y0075351D01*
X0360789Y0074353D02*
X0086316Y0074353D01*
X0082934Y0074353D02*
X0076473Y0074353D01*
X0076473Y0075351D02*
X0082934Y0075351D01*
X0082934Y0076350D02*
X0076473Y0076350D01*
X0076473Y0077348D02*
X0082934Y0077348D01*
X0082934Y0078347D02*
X0076473Y0078347D01*
X0076473Y0079345D02*
X0082934Y0079345D01*
X0082449Y0080344D02*
X0076473Y0080344D01*
X0076174Y0081342D02*
X0082294Y0081342D01*
X0082294Y0082341D02*
X0075175Y0082341D01*
X0074855Y0083339D02*
X0082525Y0083339D01*
X0082294Y0084338D02*
X0075854Y0084338D01*
X0076473Y0085336D02*
X0082294Y0085336D01*
X0082934Y0086335D02*
X0076473Y0086335D01*
X0076473Y0087333D02*
X0082934Y0087333D01*
X0082934Y0088332D02*
X0076473Y0088332D01*
X0076473Y0089330D02*
X0082934Y0089330D01*
X0082934Y0090329D02*
X0076473Y0090329D01*
X0076473Y0091327D02*
X0082934Y0091327D01*
X0082934Y0092326D02*
X0076473Y0092326D01*
X0078185Y0093324D02*
X0081223Y0093324D01*
X0081172Y0094323D02*
X0078235Y0094323D01*
X0078235Y0095321D02*
X0081172Y0095321D01*
X0081172Y0096320D02*
X0078235Y0096320D01*
X0078235Y0097318D02*
X0081172Y0097318D01*
X0081172Y0098317D02*
X0078235Y0098317D01*
X0078235Y0099315D02*
X0081172Y0099315D01*
X0081172Y0100314D02*
X0078235Y0100314D01*
X0078235Y0101312D02*
X0081172Y0101312D01*
X0081172Y0102311D02*
X0078235Y0102311D01*
X0078235Y0103309D02*
X0081172Y0103309D01*
X0081359Y0104308D02*
X0078048Y0104308D01*
X0073194Y0107303D02*
X0113937Y0107303D01*
X0113361Y0106305D02*
X0072196Y0106305D01*
X0071197Y0105306D02*
X0113009Y0105306D01*
X0113203Y0106031D02*
X0112447Y0103210D01*
X0112447Y0100290D01*
X0113203Y0097469D01*
X0114663Y0094940D01*
X0116728Y0092875D01*
X0119257Y0091415D01*
X0122077Y0090659D01*
X0124998Y0090659D01*
X0127818Y0091415D01*
X0130347Y0092875D01*
X0132412Y0094940D01*
X0133872Y0097469D01*
X0134628Y0100290D01*
X0134628Y0103210D01*
X0133872Y0106031D01*
X0132412Y0108560D01*
X0130347Y0110625D01*
X0127818Y0112085D01*
X0124998Y0112841D01*
X0122077Y0112841D01*
X0119257Y0112085D01*
X0116728Y0110625D01*
X0114663Y0108560D01*
X0113203Y0106031D01*
X0112741Y0104308D02*
X0097733Y0104308D01*
X0097920Y0104121D02*
X0097281Y0104760D01*
X0091654Y0104760D01*
X0091015Y0104121D01*
X0091015Y0093375D01*
X0091654Y0092736D01*
X0097281Y0092736D01*
X0097920Y0093375D01*
X0097920Y0104121D01*
X0097920Y0103309D02*
X0112473Y0103309D01*
X0112447Y0102311D02*
X0097920Y0102311D01*
X0097920Y0101312D02*
X0112447Y0101312D01*
X0112447Y0100314D02*
X0097920Y0100314D01*
X0097920Y0099315D02*
X0112708Y0099315D01*
X0112976Y0098317D02*
X0097920Y0098317D01*
X0097920Y0097318D02*
X0113290Y0097318D01*
X0113866Y0096320D02*
X0097920Y0096320D01*
X0097920Y0095321D02*
X0114443Y0095321D01*
X0115280Y0094323D02*
X0097920Y0094323D01*
X0097870Y0093324D02*
X0116279Y0093324D01*
X0117679Y0092326D02*
X0086316Y0092326D01*
X0086316Y0091327D02*
X0119585Y0091327D01*
X0119722Y0089330D02*
X0122803Y0089330D01*
X0121805Y0088332D02*
X0120350Y0088332D01*
X0120611Y0087333D02*
X0121202Y0087333D01*
X0121481Y0088008D02*
X0121481Y0088008D01*
X0120788Y0086335D02*
X0120611Y0086335D01*
X0119799Y0089286D02*
X0119799Y0089286D01*
X0119799Y0089286D01*
X0124608Y0090097D02*
X0124608Y0090097D01*
X0127490Y0091327D02*
X0160154Y0091327D01*
X0160154Y0090329D02*
X0086316Y0090329D01*
X0086316Y0089330D02*
X0107565Y0089330D01*
X0107488Y0089286D02*
X0107488Y0089286D01*
X0106937Y0088332D02*
X0086316Y0088332D01*
X0086316Y0087333D02*
X0106676Y0087333D01*
X0106676Y0086335D02*
X0086316Y0086335D01*
X0073092Y0090329D02*
X0025595Y0090329D01*
X0026593Y0091327D02*
X0073092Y0091327D01*
X0073092Y0092326D02*
X0027592Y0092326D01*
X0021141Y0089330D02*
X0015609Y0089330D01*
X0016608Y0088332D02*
X0020142Y0088332D01*
X0019529Y0087333D02*
X0017221Y0087333D01*
X0017221Y0086335D02*
X0019529Y0086335D01*
X0019529Y0085336D02*
X0017221Y0085336D01*
X0017027Y0084338D02*
X0019723Y0084338D01*
X0020721Y0083339D02*
X0016029Y0083339D01*
X0015030Y0082341D02*
X0021720Y0082341D01*
X0021155Y0079345D02*
X0015595Y0079345D01*
X0016593Y0078347D02*
X0020157Y0078347D01*
X0019529Y0077348D02*
X0017221Y0077348D01*
X0017221Y0076350D02*
X0019529Y0076350D01*
X0019529Y0075351D02*
X0017221Y0075351D01*
X0017042Y0074353D02*
X0019708Y0074353D01*
X0020706Y0073354D02*
X0016044Y0073354D01*
X0015045Y0072356D02*
X0021705Y0072356D01*
X0025045Y0072356D02*
X0071330Y0072356D01*
X0073092Y0073354D02*
X0026044Y0073354D01*
X0027042Y0074353D02*
X0073092Y0074353D01*
X0073092Y0075351D02*
X0027221Y0075351D01*
X0021170Y0069360D02*
X0015580Y0069360D01*
X0016578Y0068362D02*
X0020172Y0068362D01*
X0019529Y0067363D02*
X0017221Y0067363D01*
X0017221Y0066365D02*
X0019529Y0066365D01*
X0019529Y0065366D02*
X0017221Y0065366D01*
X0017057Y0064368D02*
X0019693Y0064368D01*
X0020691Y0063369D02*
X0016059Y0063369D01*
X0015060Y0062370D02*
X0021690Y0062370D01*
X0020907Y0059375D02*
X0015565Y0059375D01*
X0016563Y0058376D02*
X0019908Y0058376D01*
X0003181Y0050388D02*
X0361493Y0050388D01*
X0362383Y0049390D02*
X0003181Y0049390D01*
X0003181Y0048391D02*
X0436414Y0048391D01*
X0436414Y0047393D02*
X0003181Y0047393D01*
X0003181Y0046394D02*
X0436414Y0046394D01*
X0436414Y0045396D02*
X0003181Y0045396D01*
X0003181Y0044397D02*
X0057331Y0044397D01*
X0057521Y0044494D02*
X0056871Y0044163D01*
X0056281Y0043734D01*
X0055765Y0043219D01*
X0055337Y0042629D01*
X0055006Y0041979D01*
X0054780Y0041285D01*
X0054688Y0040700D01*
X0058800Y0040700D01*
X0058800Y0044812D01*
X0058215Y0044720D01*
X0057521Y0044494D01*
X0058800Y0044397D02*
X0059800Y0044397D01*
X0059800Y0044812D02*
X0060385Y0044720D01*
X0061079Y0044494D01*
X0061729Y0044163D01*
X0062319Y0043734D01*
X0062834Y0043219D01*
X0063263Y0042629D01*
X0063594Y0041979D01*
X0063820Y0041285D01*
X0063912Y0040700D01*
X0059800Y0040700D01*
X0059800Y0039700D01*
X0063912Y0039700D01*
X0063820Y0039115D01*
X0063594Y0038421D01*
X0063263Y0037771D01*
X0062834Y0037181D01*
X0062319Y0036665D01*
X0061729Y0036237D01*
X0061079Y0035906D01*
X0060385Y0035680D01*
X0059800Y0035588D01*
X0059800Y0039700D01*
X0058800Y0039700D01*
X0058800Y0035588D01*
X0058215Y0035680D01*
X0057521Y0035906D01*
X0056871Y0036237D01*
X0056281Y0036665D01*
X0055765Y0037181D01*
X0055337Y0037771D01*
X0055006Y0038421D01*
X0054780Y0039115D01*
X0054688Y0039700D01*
X0058800Y0039700D01*
X0058800Y0040700D01*
X0059800Y0040700D01*
X0059800Y0044812D01*
X0059800Y0043399D02*
X0058800Y0043399D01*
X0058800Y0042400D02*
X0059800Y0042400D01*
X0059800Y0041402D02*
X0058800Y0041402D01*
X0058800Y0040403D02*
X0003181Y0040403D01*
X0003181Y0039405D02*
X0054734Y0039405D01*
X0055013Y0038406D02*
X0003181Y0038406D01*
X0003181Y0037408D02*
X0055601Y0037408D01*
X0056634Y0036409D02*
X0003181Y0036409D01*
X0003181Y0035411D02*
X0436414Y0035411D01*
X0436414Y0036409D02*
X0420741Y0036409D01*
X0420504Y0036237D02*
X0421094Y0036665D01*
X0421609Y0037181D01*
X0422038Y0037771D01*
X0422369Y0038421D01*
X0422595Y0039115D01*
X0422687Y0039700D01*
X0418575Y0039700D01*
X0418575Y0040700D01*
X0422687Y0040700D01*
X0422595Y0041285D01*
X0422369Y0041979D01*
X0422038Y0042629D01*
X0421609Y0043219D01*
X0421094Y0043734D01*
X0420504Y0044163D01*
X0419854Y0044494D01*
X0419160Y0044720D01*
X0418575Y0044812D01*
X0418575Y0040700D01*
X0417575Y0040700D01*
X0417575Y0044812D01*
X0416990Y0044720D01*
X0416296Y0044494D01*
X0415646Y0044163D01*
X0415056Y0043734D01*
X0414540Y0043219D01*
X0414112Y0042629D01*
X0413781Y0041979D01*
X0413555Y0041285D01*
X0413463Y0040700D01*
X0417575Y0040700D01*
X0417575Y0039700D01*
X0418575Y0039700D01*
X0418575Y0035588D01*
X0419160Y0035680D01*
X0419854Y0035906D01*
X0420504Y0036237D01*
X0421774Y0037408D02*
X0436414Y0037408D01*
X0436414Y0038406D02*
X0422362Y0038406D01*
X0422641Y0039405D02*
X0436414Y0039405D01*
X0436414Y0040403D02*
X0418575Y0040403D01*
X0418575Y0039405D02*
X0417575Y0039405D01*
X0417575Y0039700D02*
X0417575Y0035588D01*
X0416990Y0035680D01*
X0416296Y0035906D01*
X0415646Y0036237D01*
X0415056Y0036665D01*
X0414540Y0037181D01*
X0414112Y0037771D01*
X0413781Y0038421D01*
X0413555Y0039115D01*
X0413463Y0039700D01*
X0417575Y0039700D01*
X0417575Y0040403D02*
X0394175Y0040403D01*
X0394175Y0040700D02*
X0398287Y0040700D01*
X0398195Y0041285D01*
X0397969Y0041979D01*
X0397638Y0042629D01*
X0397209Y0043219D01*
X0396694Y0043734D01*
X0396104Y0044163D01*
X0395454Y0044494D01*
X0394760Y0044720D01*
X0394175Y0044812D01*
X0394175Y0040700D01*
X0394175Y0039700D01*
X0398287Y0039700D01*
X0398195Y0039115D01*
X0397969Y0038421D01*
X0397638Y0037771D01*
X0397209Y0037181D01*
X0396694Y0036665D01*
X0396104Y0036237D01*
X0395454Y0035906D01*
X0394760Y0035680D01*
X0394175Y0035588D01*
X0394175Y0039700D01*
X0393175Y0039700D01*
X0393175Y0035588D01*
X0392590Y0035680D01*
X0391896Y0035906D01*
X0391246Y0036237D01*
X0390656Y0036665D01*
X0390140Y0037181D01*
X0389712Y0037771D01*
X0389381Y0038421D01*
X0389155Y0039115D01*
X0389063Y0039700D01*
X0393175Y0039700D01*
X0393175Y0040700D01*
X0393175Y0044812D01*
X0392590Y0044720D01*
X0391896Y0044494D01*
X0391246Y0044163D01*
X0390656Y0043734D01*
X0390140Y0043219D01*
X0389712Y0042629D01*
X0389381Y0041979D01*
X0389155Y0041285D01*
X0389063Y0040700D01*
X0393175Y0040700D01*
X0394175Y0040700D01*
X0394175Y0041402D02*
X0393175Y0041402D01*
X0393175Y0042400D02*
X0394175Y0042400D01*
X0394175Y0043399D02*
X0393175Y0043399D01*
X0393175Y0044397D02*
X0394175Y0044397D01*
X0395644Y0044397D02*
X0416106Y0044397D01*
X0417575Y0044397D02*
X0418575Y0044397D01*
X0418575Y0043399D02*
X0417575Y0043399D01*
X0417575Y0042400D02*
X0418575Y0042400D01*
X0418575Y0041402D02*
X0417575Y0041402D01*
X0414721Y0043399D02*
X0397029Y0043399D01*
X0397755Y0042400D02*
X0413995Y0042400D01*
X0413593Y0041402D02*
X0398157Y0041402D01*
X0393175Y0040403D02*
X0351700Y0040403D01*
X0351700Y0040700D02*
X0355812Y0040700D01*
X0355720Y0041285D01*
X0355494Y0041979D01*
X0355163Y0042629D01*
X0354734Y0043219D01*
X0354219Y0043734D01*
X0353629Y0044163D01*
X0352979Y0044494D01*
X0352285Y0044720D01*
X0351700Y0044812D01*
X0351700Y0040700D01*
X0351700Y0039700D01*
X0355812Y0039700D01*
X0355720Y0039115D01*
X0355494Y0038421D01*
X0355163Y0037771D01*
X0354734Y0037181D01*
X0354219Y0036665D01*
X0353629Y0036237D01*
X0352979Y0035906D01*
X0352285Y0035680D01*
X0351700Y0035588D01*
X0351700Y0039700D01*
X0350700Y0039700D01*
X0350700Y0035588D01*
X0350115Y0035680D01*
X0349421Y0035906D01*
X0348771Y0036237D01*
X0348181Y0036665D01*
X0347665Y0037181D01*
X0347237Y0037771D01*
X0346906Y0038421D01*
X0346680Y0039115D01*
X0346588Y0039700D01*
X0350700Y0039700D01*
X0350700Y0040700D01*
X0350700Y0044812D01*
X0350115Y0044720D01*
X0349421Y0044494D01*
X0348771Y0044163D01*
X0348181Y0043734D01*
X0347665Y0043219D01*
X0347237Y0042629D01*
X0346906Y0041979D01*
X0346680Y0041285D01*
X0346588Y0040700D01*
X0350700Y0040700D01*
X0351700Y0040700D01*
X0351700Y0041402D02*
X0350700Y0041402D01*
X0350700Y0042400D02*
X0351700Y0042400D01*
X0351700Y0043399D02*
X0350700Y0043399D01*
X0350700Y0044397D02*
X0351700Y0044397D01*
X0353169Y0044397D02*
X0391706Y0044397D01*
X0390321Y0043399D02*
X0354554Y0043399D01*
X0355280Y0042400D02*
X0389595Y0042400D01*
X0389193Y0041402D02*
X0355682Y0041402D01*
X0350700Y0040403D02*
X0327300Y0040403D01*
X0327300Y0040700D02*
X0331412Y0040700D01*
X0331320Y0041285D01*
X0331094Y0041979D01*
X0330763Y0042629D01*
X0330334Y0043219D01*
X0329819Y0043734D01*
X0329229Y0044163D01*
X0328579Y0044494D01*
X0327885Y0044720D01*
X0327300Y0044812D01*
X0327300Y0040700D01*
X0327300Y0039700D01*
X0331412Y0039700D01*
X0331320Y0039115D01*
X0331094Y0038421D01*
X0330763Y0037771D01*
X0330334Y0037181D01*
X0329819Y0036665D01*
X0329229Y0036237D01*
X0328579Y0035906D01*
X0327885Y0035680D01*
X0327300Y0035588D01*
X0327300Y0039700D01*
X0326300Y0039700D01*
X0326300Y0035588D01*
X0325715Y0035680D01*
X0325021Y0035906D01*
X0324371Y0036237D01*
X0323781Y0036665D01*
X0323265Y0037181D01*
X0322837Y0037771D01*
X0322506Y0038421D01*
X0322280Y0039115D01*
X0322188Y0039700D01*
X0326300Y0039700D01*
X0326300Y0040700D01*
X0326300Y0044812D01*
X0325715Y0044720D01*
X0325021Y0044494D01*
X0324371Y0044163D01*
X0323781Y0043734D01*
X0323265Y0043219D01*
X0322837Y0042629D01*
X0322506Y0041979D01*
X0322280Y0041285D01*
X0322188Y0040700D01*
X0326300Y0040700D01*
X0327300Y0040700D01*
X0327300Y0041402D02*
X0326300Y0041402D01*
X0326300Y0042400D02*
X0327300Y0042400D01*
X0327300Y0043399D02*
X0326300Y0043399D01*
X0326300Y0044397D02*
X0327300Y0044397D01*
X0328769Y0044397D02*
X0349231Y0044397D01*
X0347846Y0043399D02*
X0330154Y0043399D01*
X0330880Y0042400D02*
X0347120Y0042400D01*
X0346718Y0041402D02*
X0331282Y0041402D01*
X0326300Y0040403D02*
X0284825Y0040403D01*
X0284825Y0040700D02*
X0288937Y0040700D01*
X0288845Y0041285D01*
X0288619Y0041979D01*
X0288288Y0042629D01*
X0287859Y0043219D01*
X0287344Y0043734D01*
X0286754Y0044163D01*
X0286104Y0044494D01*
X0285410Y0044720D01*
X0284825Y0044812D01*
X0284825Y0040700D01*
X0284825Y0039700D01*
X0288937Y0039700D01*
X0288845Y0039115D01*
X0288619Y0038421D01*
X0288288Y0037771D01*
X0287859Y0037181D01*
X0287344Y0036665D01*
X0286754Y0036237D01*
X0286104Y0035906D01*
X0285410Y0035680D01*
X0284825Y0035588D01*
X0284825Y0039700D01*
X0283825Y0039700D01*
X0283825Y0035588D01*
X0283240Y0035680D01*
X0282546Y0035906D01*
X0281896Y0036237D01*
X0281306Y0036665D01*
X0280790Y0037181D01*
X0280362Y0037771D01*
X0280031Y0038421D01*
X0279805Y0039115D01*
X0279713Y0039700D01*
X0283825Y0039700D01*
X0283825Y0040700D01*
X0283825Y0044812D01*
X0283240Y0044720D01*
X0282546Y0044494D01*
X0281896Y0044163D01*
X0281306Y0043734D01*
X0280790Y0043219D01*
X0280362Y0042629D01*
X0280031Y0041979D01*
X0279805Y0041285D01*
X0279713Y0040700D01*
X0283825Y0040700D01*
X0284825Y0040700D01*
X0284825Y0041402D02*
X0283825Y0041402D01*
X0283825Y0042400D02*
X0284825Y0042400D01*
X0284825Y0043399D02*
X0283825Y0043399D01*
X0283825Y0044397D02*
X0284825Y0044397D01*
X0286294Y0044397D02*
X0324831Y0044397D01*
X0323446Y0043399D02*
X0287679Y0043399D01*
X0288405Y0042400D02*
X0322720Y0042400D01*
X0322318Y0041402D02*
X0288807Y0041402D01*
X0283825Y0040403D02*
X0260425Y0040403D01*
X0260425Y0040700D02*
X0264537Y0040700D01*
X0264445Y0041285D01*
X0264219Y0041979D01*
X0263888Y0042629D01*
X0263459Y0043219D01*
X0262944Y0043734D01*
X0262354Y0044163D01*
X0261704Y0044494D01*
X0261010Y0044720D01*
X0260425Y0044812D01*
X0260425Y0040700D01*
X0260425Y0039700D01*
X0264537Y0039700D01*
X0264445Y0039115D01*
X0264219Y0038421D01*
X0263888Y0037771D01*
X0263459Y0037181D01*
X0262944Y0036665D01*
X0262354Y0036237D01*
X0261704Y0035906D01*
X0261010Y0035680D01*
X0260425Y0035588D01*
X0260425Y0039700D01*
X0259425Y0039700D01*
X0259425Y0035588D01*
X0258840Y0035680D01*
X0258146Y0035906D01*
X0257496Y0036237D01*
X0256906Y0036665D01*
X0256390Y0037181D01*
X0255962Y0037771D01*
X0255631Y0038421D01*
X0255405Y0039115D01*
X0255313Y0039700D01*
X0259425Y0039700D01*
X0259425Y0040700D01*
X0259425Y0044812D01*
X0258840Y0044720D01*
X0258146Y0044494D01*
X0257496Y0044163D01*
X0256906Y0043734D01*
X0256390Y0043219D01*
X0255962Y0042629D01*
X0255631Y0041979D01*
X0255405Y0041285D01*
X0255313Y0040700D01*
X0259425Y0040700D01*
X0260425Y0040700D01*
X0260425Y0041402D02*
X0259425Y0041402D01*
X0259425Y0042400D02*
X0260425Y0042400D01*
X0260425Y0043399D02*
X0259425Y0043399D01*
X0259425Y0044397D02*
X0260425Y0044397D01*
X0261894Y0044397D02*
X0282356Y0044397D01*
X0280971Y0043399D02*
X0263279Y0043399D01*
X0264005Y0042400D02*
X0280245Y0042400D01*
X0279843Y0041402D02*
X0264407Y0041402D01*
X0259425Y0040403D02*
X0217950Y0040403D01*
X0217950Y0040700D02*
X0222062Y0040700D01*
X0221970Y0041285D01*
X0221744Y0041979D01*
X0221413Y0042629D01*
X0220984Y0043219D01*
X0220469Y0043734D01*
X0219879Y0044163D01*
X0219229Y0044494D01*
X0218535Y0044720D01*
X0217950Y0044812D01*
X0217950Y0040700D01*
X0217950Y0039700D01*
X0222062Y0039700D01*
X0221970Y0039115D01*
X0221744Y0038421D01*
X0221413Y0037771D01*
X0220984Y0037181D01*
X0220469Y0036665D01*
X0219879Y0036237D01*
X0219229Y0035906D01*
X0218535Y0035680D01*
X0217950Y0035588D01*
X0217950Y0039700D01*
X0216950Y0039700D01*
X0216950Y0035588D01*
X0216365Y0035680D01*
X0215671Y0035906D01*
X0215021Y0036237D01*
X0214431Y0036665D01*
X0213915Y0037181D01*
X0213487Y0037771D01*
X0213156Y0038421D01*
X0212930Y0039115D01*
X0212838Y0039700D01*
X0216950Y0039700D01*
X0216950Y0040700D01*
X0216950Y0044812D01*
X0216365Y0044720D01*
X0215671Y0044494D01*
X0215021Y0044163D01*
X0214431Y0043734D01*
X0213915Y0043219D01*
X0213487Y0042629D01*
X0213156Y0041979D01*
X0212930Y0041285D01*
X0212838Y0040700D01*
X0216950Y0040700D01*
X0217950Y0040700D01*
X0217950Y0041402D02*
X0216950Y0041402D01*
X0216950Y0042400D02*
X0217950Y0042400D01*
X0217950Y0043399D02*
X0216950Y0043399D01*
X0216950Y0044397D02*
X0217950Y0044397D01*
X0219419Y0044397D02*
X0257956Y0044397D01*
X0256571Y0043399D02*
X0220804Y0043399D01*
X0221530Y0042400D02*
X0255845Y0042400D01*
X0255443Y0041402D02*
X0221932Y0041402D01*
X0216950Y0040403D02*
X0193550Y0040403D01*
X0193550Y0040700D02*
X0197662Y0040700D01*
X0197570Y0041285D01*
X0197344Y0041979D01*
X0197013Y0042629D01*
X0196584Y0043219D01*
X0196069Y0043734D01*
X0195479Y0044163D01*
X0194829Y0044494D01*
X0194135Y0044720D01*
X0193550Y0044812D01*
X0193550Y0040700D01*
X0193550Y0039700D01*
X0197662Y0039700D01*
X0197570Y0039115D01*
X0197344Y0038421D01*
X0197013Y0037771D01*
X0196584Y0037181D01*
X0196069Y0036665D01*
X0195479Y0036237D01*
X0194829Y0035906D01*
X0194135Y0035680D01*
X0193550Y0035588D01*
X0193550Y0039700D01*
X0192550Y0039700D01*
X0192550Y0035588D01*
X0191965Y0035680D01*
X0191271Y0035906D01*
X0190621Y0036237D01*
X0190031Y0036665D01*
X0189515Y0037181D01*
X0189087Y0037771D01*
X0188756Y0038421D01*
X0188530Y0039115D01*
X0188438Y0039700D01*
X0192550Y0039700D01*
X0192550Y0040700D01*
X0192550Y0044812D01*
X0191965Y0044720D01*
X0191271Y0044494D01*
X0190621Y0044163D01*
X0190031Y0043734D01*
X0189515Y0043219D01*
X0189087Y0042629D01*
X0188756Y0041979D01*
X0188530Y0041285D01*
X0188438Y0040700D01*
X0192550Y0040700D01*
X0193550Y0040700D01*
X0193550Y0041402D02*
X0192550Y0041402D01*
X0192550Y0042400D02*
X0193550Y0042400D01*
X0193550Y0043399D02*
X0192550Y0043399D01*
X0192550Y0044397D02*
X0193550Y0044397D01*
X0195019Y0044397D02*
X0215481Y0044397D01*
X0214096Y0043399D02*
X0196404Y0043399D01*
X0197130Y0042400D02*
X0213370Y0042400D01*
X0212968Y0041402D02*
X0197532Y0041402D01*
X0192550Y0040403D02*
X0151075Y0040403D01*
X0151075Y0040700D02*
X0155187Y0040700D01*
X0155095Y0041285D01*
X0154869Y0041979D01*
X0154538Y0042629D01*
X0154109Y0043219D01*
X0153594Y0043734D01*
X0153004Y0044163D01*
X0152354Y0044494D01*
X0151660Y0044720D01*
X0151075Y0044812D01*
X0151075Y0040700D01*
X0151075Y0039700D01*
X0155187Y0039700D01*
X0155095Y0039115D01*
X0154869Y0038421D01*
X0154538Y0037771D01*
X0154109Y0037181D01*
X0153594Y0036665D01*
X0153004Y0036237D01*
X0152354Y0035906D01*
X0151660Y0035680D01*
X0151075Y0035588D01*
X0151075Y0039700D01*
X0150075Y0039700D01*
X0150075Y0035588D01*
X0149490Y0035680D01*
X0148796Y0035906D01*
X0148146Y0036237D01*
X0147556Y0036665D01*
X0147040Y0037181D01*
X0146612Y0037771D01*
X0146281Y0038421D01*
X0146055Y0039115D01*
X0145963Y0039700D01*
X0150075Y0039700D01*
X0150075Y0040700D01*
X0150075Y0044812D01*
X0149490Y0044720D01*
X0148796Y0044494D01*
X0148146Y0044163D01*
X0147556Y0043734D01*
X0147040Y0043219D01*
X0146612Y0042629D01*
X0146281Y0041979D01*
X0146055Y0041285D01*
X0145963Y0040700D01*
X0150075Y0040700D01*
X0151075Y0040700D01*
X0151075Y0041402D02*
X0150075Y0041402D01*
X0150075Y0042400D02*
X0151075Y0042400D01*
X0151075Y0043399D02*
X0150075Y0043399D01*
X0150075Y0044397D02*
X0151075Y0044397D01*
X0152544Y0044397D02*
X0191081Y0044397D01*
X0189696Y0043399D02*
X0153929Y0043399D01*
X0154655Y0042400D02*
X0188970Y0042400D01*
X0188568Y0041402D02*
X0155057Y0041402D01*
X0150075Y0040403D02*
X0126675Y0040403D01*
X0126675Y0040700D02*
X0130787Y0040700D01*
X0130695Y0041285D01*
X0130469Y0041979D01*
X0130138Y0042629D01*
X0129709Y0043219D01*
X0129194Y0043734D01*
X0128604Y0044163D01*
X0127954Y0044494D01*
X0127260Y0044720D01*
X0126675Y0044812D01*
X0126675Y0040700D01*
X0126675Y0039700D01*
X0130787Y0039700D01*
X0130695Y0039115D01*
X0130469Y0038421D01*
X0130138Y0037771D01*
X0129709Y0037181D01*
X0129194Y0036665D01*
X0128604Y0036237D01*
X0127954Y0035906D01*
X0127260Y0035680D01*
X0126675Y0035588D01*
X0126675Y0039700D01*
X0125675Y0039700D01*
X0125675Y0035588D01*
X0125090Y0035680D01*
X0124396Y0035906D01*
X0123746Y0036237D01*
X0123156Y0036665D01*
X0122640Y0037181D01*
X0122212Y0037771D01*
X0121881Y0038421D01*
X0121655Y0039115D01*
X0121563Y0039700D01*
X0125675Y0039700D01*
X0125675Y0040700D01*
X0125675Y0044812D01*
X0125090Y0044720D01*
X0124396Y0044494D01*
X0123746Y0044163D01*
X0123156Y0043734D01*
X0122640Y0043219D01*
X0122212Y0042629D01*
X0121881Y0041979D01*
X0121655Y0041285D01*
X0121563Y0040700D01*
X0125675Y0040700D01*
X0126675Y0040700D01*
X0126675Y0041402D02*
X0125675Y0041402D01*
X0125675Y0042400D02*
X0126675Y0042400D01*
X0126675Y0043399D02*
X0125675Y0043399D01*
X0125675Y0044397D02*
X0126675Y0044397D01*
X0128144Y0044397D02*
X0148606Y0044397D01*
X0147221Y0043399D02*
X0129529Y0043399D01*
X0130255Y0042400D02*
X0146495Y0042400D01*
X0146093Y0041402D02*
X0130657Y0041402D01*
X0125675Y0040403D02*
X0084200Y0040403D01*
X0084200Y0040700D02*
X0088312Y0040700D01*
X0088220Y0041285D01*
X0087994Y0041979D01*
X0087663Y0042629D01*
X0087234Y0043219D01*
X0086719Y0043734D01*
X0086129Y0044163D01*
X0085479Y0044494D01*
X0084785Y0044720D01*
X0084200Y0044812D01*
X0084200Y0040700D01*
X0084200Y0039700D01*
X0088312Y0039700D01*
X0088220Y0039115D01*
X0087994Y0038421D01*
X0087663Y0037771D01*
X0087234Y0037181D01*
X0086719Y0036665D01*
X0086129Y0036237D01*
X0085479Y0035906D01*
X0084785Y0035680D01*
X0084200Y0035588D01*
X0084200Y0039700D01*
X0083200Y0039700D01*
X0083200Y0035588D01*
X0082615Y0035680D01*
X0081921Y0035906D01*
X0081271Y0036237D01*
X0080681Y0036665D01*
X0080165Y0037181D01*
X0079737Y0037771D01*
X0079406Y0038421D01*
X0079180Y0039115D01*
X0079088Y0039700D01*
X0083200Y0039700D01*
X0083200Y0040700D01*
X0083200Y0044812D01*
X0082615Y0044720D01*
X0081921Y0044494D01*
X0081271Y0044163D01*
X0080681Y0043734D01*
X0080165Y0043219D01*
X0079737Y0042629D01*
X0079406Y0041979D01*
X0079180Y0041285D01*
X0079088Y0040700D01*
X0083200Y0040700D01*
X0084200Y0040700D01*
X0084200Y0041402D02*
X0083200Y0041402D01*
X0083200Y0042400D02*
X0084200Y0042400D01*
X0084200Y0043399D02*
X0083200Y0043399D01*
X0083200Y0044397D02*
X0084200Y0044397D01*
X0085669Y0044397D02*
X0124206Y0044397D01*
X0122821Y0043399D02*
X0087054Y0043399D01*
X0087780Y0042400D02*
X0122095Y0042400D01*
X0121693Y0041402D02*
X0088182Y0041402D01*
X0083200Y0040403D02*
X0059800Y0040403D01*
X0059800Y0039405D02*
X0058800Y0039405D01*
X0058800Y0038406D02*
X0059800Y0038406D01*
X0059800Y0037408D02*
X0058800Y0037408D01*
X0058800Y0036409D02*
X0059800Y0036409D01*
X0061966Y0036409D02*
X0081034Y0036409D01*
X0080001Y0037408D02*
X0062999Y0037408D01*
X0063587Y0038406D02*
X0079413Y0038406D01*
X0079134Y0039405D02*
X0063866Y0039405D01*
X0063782Y0041402D02*
X0079218Y0041402D01*
X0079620Y0042400D02*
X0063380Y0042400D01*
X0062654Y0043399D02*
X0080346Y0043399D01*
X0081731Y0044397D02*
X0061269Y0044397D01*
X0055946Y0043399D02*
X0003181Y0043399D01*
X0003181Y0042400D02*
X0055220Y0042400D01*
X0054818Y0041402D02*
X0003181Y0041402D01*
X0003181Y0034412D02*
X0436414Y0034412D01*
X0436414Y0033414D02*
X0003181Y0033414D01*
X0003181Y0032415D02*
X0436414Y0032415D01*
X0436414Y0031417D02*
X0408455Y0031417D01*
X0409453Y0030418D02*
X0436414Y0030418D01*
X0441586Y0030418D02*
X0469172Y0030418D01*
X0470170Y0031417D02*
X0441586Y0031417D01*
X0441586Y0032415D02*
X0507240Y0032415D01*
X0507240Y0031417D02*
X0475330Y0031417D01*
X0476328Y0030418D02*
X0507240Y0030418D01*
X0507240Y0029420D02*
X0476751Y0029420D01*
X0476990Y0028421D02*
X0507240Y0028421D01*
X0507240Y0027423D02*
X0476990Y0027423D01*
X0476687Y0026424D02*
X0507240Y0026424D01*
X0507240Y0025426D02*
X0476172Y0025426D01*
X0475174Y0024427D02*
X0507240Y0024427D01*
X0507240Y0023429D02*
X0003181Y0023429D01*
X0003181Y0024427D02*
X0069076Y0024427D01*
X0069098Y0024405D02*
X0070657Y0023760D01*
X0072343Y0023760D01*
X0073902Y0024405D01*
X0075095Y0025598D01*
X0075740Y0027157D01*
X0075740Y0028843D01*
X0075095Y0030402D01*
X0073902Y0031595D01*
X0072343Y0032240D01*
X0070657Y0032240D01*
X0069098Y0031595D01*
X0067905Y0030402D01*
X0067260Y0028843D01*
X0067260Y0027157D01*
X0067905Y0025598D01*
X0069098Y0024405D01*
X0068078Y0025426D02*
X0003181Y0025426D01*
X0003181Y0026424D02*
X0067563Y0026424D01*
X0067260Y0027423D02*
X0003181Y0027423D01*
X0003181Y0028421D02*
X0067260Y0028421D01*
X0067499Y0029420D02*
X0003181Y0029420D01*
X0003181Y0030418D02*
X0067922Y0030418D01*
X0068920Y0031417D02*
X0003181Y0031417D01*
X0003181Y0022430D02*
X0507240Y0022430D01*
X0507240Y0021432D02*
X0003181Y0021432D01*
X0003181Y0020433D02*
X0507240Y0020433D01*
X0507240Y0019434D02*
X0487831Y0019434D01*
X0487969Y0019334D02*
X0487379Y0019763D01*
X0486729Y0020094D01*
X0486035Y0020320D01*
X0485450Y0020412D01*
X0485450Y0016300D01*
X0489562Y0016300D01*
X0489470Y0016885D01*
X0489244Y0017579D01*
X0488913Y0018229D01*
X0488484Y0018819D01*
X0487969Y0019334D01*
X0488763Y0018436D02*
X0507240Y0018436D01*
X0507240Y0017437D02*
X0489290Y0017437D01*
X0489540Y0016439D02*
X0507240Y0016439D01*
X0507240Y0015440D02*
X0485450Y0015440D01*
X0485450Y0015300D02*
X0485450Y0016300D01*
X0484450Y0016300D01*
X0484450Y0020412D01*
X0483865Y0020320D01*
X0483171Y0020094D01*
X0482521Y0019763D01*
X0481931Y0019334D01*
X0481415Y0018819D01*
X0480987Y0018229D01*
X0480656Y0017579D01*
X0480430Y0016885D01*
X0480338Y0016300D01*
X0484450Y0016300D01*
X0484450Y0015300D01*
X0485450Y0015300D01*
X0489562Y0015300D01*
X0489470Y0014715D01*
X0489244Y0014021D01*
X0488913Y0013371D01*
X0488484Y0012781D01*
X0487969Y0012265D01*
X0487379Y0011837D01*
X0486729Y0011506D01*
X0486035Y0011280D01*
X0485450Y0011188D01*
X0485450Y0015300D01*
X0485450Y0014442D02*
X0484450Y0014442D01*
X0484450Y0015300D02*
X0484450Y0011188D01*
X0483865Y0011280D01*
X0483171Y0011506D01*
X0482521Y0011837D01*
X0481931Y0012265D01*
X0481415Y0012781D01*
X0480987Y0013371D01*
X0480656Y0014021D01*
X0480430Y0014715D01*
X0480338Y0015300D01*
X0484450Y0015300D01*
X0484450Y0015440D02*
X0461050Y0015440D01*
X0461050Y0015300D02*
X0461050Y0016300D01*
X0465162Y0016300D01*
X0465070Y0016885D01*
X0464844Y0017579D01*
X0464513Y0018229D01*
X0464084Y0018819D01*
X0463569Y0019334D01*
X0462979Y0019763D01*
X0462329Y0020094D01*
X0461635Y0020320D01*
X0461050Y0020412D01*
X0461050Y0016300D01*
X0460050Y0016300D01*
X0460050Y0020412D01*
X0459465Y0020320D01*
X0458771Y0020094D01*
X0458121Y0019763D01*
X0457531Y0019334D01*
X0457015Y0018819D01*
X0456587Y0018229D01*
X0456256Y0017579D01*
X0456030Y0016885D01*
X0455938Y0016300D01*
X0460050Y0016300D01*
X0460050Y0015300D01*
X0461050Y0015300D01*
X0465162Y0015300D01*
X0465070Y0014715D01*
X0464844Y0014021D01*
X0464513Y0013371D01*
X0464084Y0012781D01*
X0463569Y0012265D01*
X0462979Y0011837D01*
X0462329Y0011506D01*
X0461635Y0011280D01*
X0461050Y0011188D01*
X0461050Y0015300D01*
X0461050Y0014442D02*
X0460050Y0014442D01*
X0460050Y0015300D02*
X0460050Y0011188D01*
X0459465Y0011280D01*
X0458771Y0011506D01*
X0458121Y0011837D01*
X0457531Y0012265D01*
X0457015Y0012781D01*
X0456587Y0013371D01*
X0456256Y0014021D01*
X0456030Y0014715D01*
X0455938Y0015300D01*
X0460050Y0015300D01*
X0460050Y0015440D02*
X0418575Y0015440D01*
X0418575Y0015300D02*
X0418575Y0016300D01*
X0422687Y0016300D01*
X0422595Y0016885D01*
X0422369Y0017579D01*
X0422038Y0018229D01*
X0421609Y0018819D01*
X0421094Y0019334D01*
X0420504Y0019763D01*
X0419854Y0020094D01*
X0419160Y0020320D01*
X0418575Y0020412D01*
X0418575Y0016300D01*
X0417575Y0016300D01*
X0417575Y0020412D01*
X0416990Y0020320D01*
X0416296Y0020094D01*
X0415646Y0019763D01*
X0415056Y0019334D01*
X0414540Y0018819D01*
X0414112Y0018229D01*
X0413781Y0017579D01*
X0413555Y0016885D01*
X0413463Y0016300D01*
X0417575Y0016300D01*
X0417575Y0015300D01*
X0418575Y0015300D01*
X0422687Y0015300D01*
X0422595Y0014715D01*
X0422369Y0014021D01*
X0422038Y0013371D01*
X0421609Y0012781D01*
X0421094Y0012265D01*
X0420504Y0011837D01*
X0419854Y0011506D01*
X0419160Y0011280D01*
X0418575Y0011188D01*
X0418575Y0015300D01*
X0418575Y0014442D02*
X0417575Y0014442D01*
X0417575Y0015300D02*
X0417575Y0011188D01*
X0416990Y0011280D01*
X0416296Y0011506D01*
X0415646Y0011837D01*
X0415056Y0012265D01*
X0414540Y0012781D01*
X0414112Y0013371D01*
X0413781Y0014021D01*
X0413555Y0014715D01*
X0413463Y0015300D01*
X0417575Y0015300D01*
X0417575Y0015440D02*
X0394175Y0015440D01*
X0394175Y0015300D02*
X0394175Y0016300D01*
X0398287Y0016300D01*
X0398195Y0016885D01*
X0397969Y0017579D01*
X0397638Y0018229D01*
X0397209Y0018819D01*
X0396694Y0019334D01*
X0396104Y0019763D01*
X0395454Y0020094D01*
X0394760Y0020320D01*
X0394175Y0020412D01*
X0394175Y0016300D01*
X0393175Y0016300D01*
X0393175Y0020412D01*
X0392590Y0020320D01*
X0391896Y0020094D01*
X0391246Y0019763D01*
X0390656Y0019334D01*
X0390140Y0018819D01*
X0389712Y0018229D01*
X0389381Y0017579D01*
X0389155Y0016885D01*
X0389063Y0016300D01*
X0393175Y0016300D01*
X0393175Y0015300D01*
X0394175Y0015300D01*
X0398287Y0015300D01*
X0398195Y0014715D01*
X0397969Y0014021D01*
X0397638Y0013371D01*
X0397209Y0012781D01*
X0396694Y0012265D01*
X0396104Y0011837D01*
X0395454Y0011506D01*
X0394760Y0011280D01*
X0394175Y0011188D01*
X0394175Y0015300D01*
X0394175Y0014442D02*
X0393175Y0014442D01*
X0393175Y0015300D02*
X0393175Y0011188D01*
X0392590Y0011280D01*
X0391896Y0011506D01*
X0391246Y0011837D01*
X0390656Y0012265D01*
X0390140Y0012781D01*
X0389712Y0013371D01*
X0389381Y0014021D01*
X0389155Y0014715D01*
X0389063Y0015300D01*
X0393175Y0015300D01*
X0393175Y0015440D02*
X0351700Y0015440D01*
X0351700Y0015300D02*
X0351700Y0016300D01*
X0355812Y0016300D01*
X0355720Y0016885D01*
X0355494Y0017579D01*
X0355163Y0018229D01*
X0354734Y0018819D01*
X0354219Y0019334D01*
X0353629Y0019763D01*
X0352979Y0020094D01*
X0352285Y0020320D01*
X0351700Y0020412D01*
X0351700Y0016300D01*
X0350700Y0016300D01*
X0350700Y0020412D01*
X0350115Y0020320D01*
X0349421Y0020094D01*
X0348771Y0019763D01*
X0348181Y0019334D01*
X0347665Y0018819D01*
X0347237Y0018229D01*
X0346906Y0017579D01*
X0346680Y0016885D01*
X0346588Y0016300D01*
X0350700Y0016300D01*
X0350700Y0015300D01*
X0351700Y0015300D01*
X0355812Y0015300D01*
X0355720Y0014715D01*
X0355494Y0014021D01*
X0355163Y0013371D01*
X0354734Y0012781D01*
X0354219Y0012265D01*
X0353629Y0011837D01*
X0352979Y0011506D01*
X0352285Y0011280D01*
X0351700Y0011188D01*
X0351700Y0015300D01*
X0351700Y0014442D02*
X0350700Y0014442D01*
X0350700Y0015300D02*
X0350700Y0011188D01*
X0350115Y0011280D01*
X0349421Y0011506D01*
X0348771Y0011837D01*
X0348181Y0012265D01*
X0347665Y0012781D01*
X0347237Y0013371D01*
X0346906Y0014021D01*
X0346680Y0014715D01*
X0346588Y0015300D01*
X0350700Y0015300D01*
X0350700Y0015440D02*
X0327300Y0015440D01*
X0327300Y0015300D02*
X0327300Y0016300D01*
X0331412Y0016300D01*
X0331320Y0016885D01*
X0331094Y0017579D01*
X0330763Y0018229D01*
X0330334Y0018819D01*
X0329819Y0019334D01*
X0329229Y0019763D01*
X0328579Y0020094D01*
X0327885Y0020320D01*
X0327300Y0020412D01*
X0327300Y0016300D01*
X0326300Y0016300D01*
X0326300Y0020412D01*
X0325715Y0020320D01*
X0325021Y0020094D01*
X0324371Y0019763D01*
X0323781Y0019334D01*
X0323265Y0018819D01*
X0322837Y0018229D01*
X0322506Y0017579D01*
X0322280Y0016885D01*
X0322188Y0016300D01*
X0326300Y0016300D01*
X0326300Y0015300D01*
X0327300Y0015300D01*
X0331412Y0015300D01*
X0331320Y0014715D01*
X0331094Y0014021D01*
X0330763Y0013371D01*
X0330334Y0012781D01*
X0329819Y0012265D01*
X0329229Y0011837D01*
X0328579Y0011506D01*
X0327885Y0011280D01*
X0327300Y0011188D01*
X0327300Y0015300D01*
X0327300Y0014442D02*
X0326300Y0014442D01*
X0326300Y0015300D02*
X0326300Y0011188D01*
X0325715Y0011280D01*
X0325021Y0011506D01*
X0324371Y0011837D01*
X0323781Y0012265D01*
X0323265Y0012781D01*
X0322837Y0013371D01*
X0322506Y0014021D01*
X0322280Y0014715D01*
X0322188Y0015300D01*
X0326300Y0015300D01*
X0326300Y0015440D02*
X0284825Y0015440D01*
X0284825Y0015300D02*
X0284825Y0016300D01*
X0288937Y0016300D01*
X0288845Y0016885D01*
X0288619Y0017579D01*
X0288288Y0018229D01*
X0287859Y0018819D01*
X0287344Y0019334D01*
X0286754Y0019763D01*
X0286104Y0020094D01*
X0285410Y0020320D01*
X0284825Y0020412D01*
X0284825Y0016300D01*
X0283825Y0016300D01*
X0283825Y0020412D01*
X0283240Y0020320D01*
X0282546Y0020094D01*
X0281896Y0019763D01*
X0281306Y0019334D01*
X0280790Y0018819D01*
X0280362Y0018229D01*
X0280031Y0017579D01*
X0279805Y0016885D01*
X0279713Y0016300D01*
X0283825Y0016300D01*
X0283825Y0015300D01*
X0284825Y0015300D01*
X0288937Y0015300D01*
X0288845Y0014715D01*
X0288619Y0014021D01*
X0288288Y0013371D01*
X0287859Y0012781D01*
X0287344Y0012265D01*
X0286754Y0011837D01*
X0286104Y0011506D01*
X0285410Y0011280D01*
X0284825Y0011188D01*
X0284825Y0015300D01*
X0284825Y0014442D02*
X0283825Y0014442D01*
X0283825Y0015300D02*
X0283825Y0011188D01*
X0283240Y0011280D01*
X0282546Y0011506D01*
X0281896Y0011837D01*
X0281306Y0012265D01*
X0280790Y0012781D01*
X0280362Y0013371D01*
X0280031Y0014021D01*
X0279805Y0014715D01*
X0279713Y0015300D01*
X0283825Y0015300D01*
X0283825Y0015440D02*
X0260425Y0015440D01*
X0260425Y0015300D02*
X0260425Y0016300D01*
X0264537Y0016300D01*
X0264445Y0016885D01*
X0264219Y0017579D01*
X0263888Y0018229D01*
X0263459Y0018819D01*
X0262944Y0019334D01*
X0262354Y0019763D01*
X0261704Y0020094D01*
X0261010Y0020320D01*
X0260425Y0020412D01*
X0260425Y0016300D01*
X0259425Y0016300D01*
X0259425Y0020412D01*
X0258840Y0020320D01*
X0258146Y0020094D01*
X0257496Y0019763D01*
X0256906Y0019334D01*
X0256390Y0018819D01*
X0255962Y0018229D01*
X0255631Y0017579D01*
X0255405Y0016885D01*
X0255313Y0016300D01*
X0259425Y0016300D01*
X0259425Y0015300D01*
X0260425Y0015300D01*
X0264537Y0015300D01*
X0264445Y0014715D01*
X0264219Y0014021D01*
X0263888Y0013371D01*
X0263459Y0012781D01*
X0262944Y0012265D01*
X0262354Y0011837D01*
X0261704Y0011506D01*
X0261010Y0011280D01*
X0260425Y0011188D01*
X0260425Y0015300D01*
X0260425Y0014442D02*
X0259425Y0014442D01*
X0259425Y0015300D02*
X0259425Y0011188D01*
X0258840Y0011280D01*
X0258146Y0011506D01*
X0257496Y0011837D01*
X0256906Y0012265D01*
X0256390Y0012781D01*
X0255962Y0013371D01*
X0255631Y0014021D01*
X0255405Y0014715D01*
X0255313Y0015300D01*
X0259425Y0015300D01*
X0259425Y0015440D02*
X0217950Y0015440D01*
X0217950Y0015300D02*
X0217950Y0016300D01*
X0222062Y0016300D01*
X0221970Y0016885D01*
X0221744Y0017579D01*
X0221413Y0018229D01*
X0220984Y0018819D01*
X0220469Y0019334D01*
X0219879Y0019763D01*
X0219229Y0020094D01*
X0218535Y0020320D01*
X0217950Y0020412D01*
X0217950Y0016300D01*
X0216950Y0016300D01*
X0216950Y0020412D01*
X0216365Y0020320D01*
X0215671Y0020094D01*
X0215021Y0019763D01*
X0214431Y0019334D01*
X0213915Y0018819D01*
X0213487Y0018229D01*
X0213156Y0017579D01*
X0212930Y0016885D01*
X0212838Y0016300D01*
X0216950Y0016300D01*
X0216950Y0015300D01*
X0217950Y0015300D01*
X0222062Y0015300D01*
X0221970Y0014715D01*
X0221744Y0014021D01*
X0221413Y0013371D01*
X0220984Y0012781D01*
X0220469Y0012265D01*
X0219879Y0011837D01*
X0219229Y0011506D01*
X0218535Y0011280D01*
X0217950Y0011188D01*
X0217950Y0015300D01*
X0217950Y0014442D02*
X0216950Y0014442D01*
X0216950Y0015300D02*
X0216950Y0011188D01*
X0216365Y0011280D01*
X0215671Y0011506D01*
X0215021Y0011837D01*
X0214431Y0012265D01*
X0213915Y0012781D01*
X0213487Y0013371D01*
X0213156Y0014021D01*
X0212930Y0014715D01*
X0212838Y0015300D01*
X0216950Y0015300D01*
X0216950Y0015440D02*
X0193550Y0015440D01*
X0193550Y0015300D02*
X0193550Y0016300D01*
X0197662Y0016300D01*
X0197570Y0016885D01*
X0197344Y0017579D01*
X0197013Y0018229D01*
X0196584Y0018819D01*
X0196069Y0019334D01*
X0195479Y0019763D01*
X0194829Y0020094D01*
X0194135Y0020320D01*
X0193550Y0020412D01*
X0193550Y0016300D01*
X0192550Y0016300D01*
X0192550Y0020412D01*
X0191965Y0020320D01*
X0191271Y0020094D01*
X0190621Y0019763D01*
X0190031Y0019334D01*
X0189515Y0018819D01*
X0189087Y0018229D01*
X0188756Y0017579D01*
X0188530Y0016885D01*
X0188438Y0016300D01*
X0192550Y0016300D01*
X0192550Y0015300D01*
X0193550Y0015300D01*
X0197662Y0015300D01*
X0197570Y0014715D01*
X0197344Y0014021D01*
X0197013Y0013371D01*
X0196584Y0012781D01*
X0196069Y0012265D01*
X0195479Y0011837D01*
X0194829Y0011506D01*
X0194135Y0011280D01*
X0193550Y0011188D01*
X0193550Y0015300D01*
X0193550Y0014442D02*
X0192550Y0014442D01*
X0192550Y0015300D02*
X0192550Y0011188D01*
X0191965Y0011280D01*
X0191271Y0011506D01*
X0190621Y0011837D01*
X0190031Y0012265D01*
X0189515Y0012781D01*
X0189087Y0013371D01*
X0188756Y0014021D01*
X0188530Y0014715D01*
X0188438Y0015300D01*
X0192550Y0015300D01*
X0192550Y0015440D02*
X0151075Y0015440D01*
X0151075Y0015300D02*
X0151075Y0016300D01*
X0155187Y0016300D01*
X0155095Y0016885D01*
X0154869Y0017579D01*
X0154538Y0018229D01*
X0154109Y0018819D01*
X0153594Y0019334D01*
X0153004Y0019763D01*
X0152354Y0020094D01*
X0151660Y0020320D01*
X0151075Y0020412D01*
X0151075Y0016300D01*
X0150075Y0016300D01*
X0150075Y0020412D01*
X0149490Y0020320D01*
X0148796Y0020094D01*
X0148146Y0019763D01*
X0147556Y0019334D01*
X0147040Y0018819D01*
X0146612Y0018229D01*
X0146281Y0017579D01*
X0146055Y0016885D01*
X0145963Y0016300D01*
X0150075Y0016300D01*
X0150075Y0015300D01*
X0151075Y0015300D01*
X0155187Y0015300D01*
X0155095Y0014715D01*
X0154869Y0014021D01*
X0154538Y0013371D01*
X0154109Y0012781D01*
X0153594Y0012265D01*
X0153004Y0011837D01*
X0152354Y0011506D01*
X0151660Y0011280D01*
X0151075Y0011188D01*
X0151075Y0015300D01*
X0151075Y0014442D02*
X0150075Y0014442D01*
X0150075Y0015300D02*
X0150075Y0011188D01*
X0149490Y0011280D01*
X0148796Y0011506D01*
X0148146Y0011837D01*
X0147556Y0012265D01*
X0147040Y0012781D01*
X0146612Y0013371D01*
X0146281Y0014021D01*
X0146055Y0014715D01*
X0145963Y0015300D01*
X0150075Y0015300D01*
X0150075Y0015440D02*
X0126675Y0015440D01*
X0126675Y0015300D02*
X0126675Y0016300D01*
X0130787Y0016300D01*
X0130695Y0016885D01*
X0130469Y0017579D01*
X0130138Y0018229D01*
X0129709Y0018819D01*
X0129194Y0019334D01*
X0128604Y0019763D01*
X0127954Y0020094D01*
X0127260Y0020320D01*
X0126675Y0020412D01*
X0126675Y0016300D01*
X0125675Y0016300D01*
X0125675Y0020412D01*
X0125090Y0020320D01*
X0124396Y0020094D01*
X0123746Y0019763D01*
X0123156Y0019334D01*
X0122640Y0018819D01*
X0122212Y0018229D01*
X0121881Y0017579D01*
X0121655Y0016885D01*
X0121563Y0016300D01*
X0125675Y0016300D01*
X0125675Y0015300D01*
X0126675Y0015300D01*
X0130787Y0015300D01*
X0130695Y0014715D01*
X0130469Y0014021D01*
X0130138Y0013371D01*
X0129709Y0012781D01*
X0129194Y0012265D01*
X0128604Y0011837D01*
X0127954Y0011506D01*
X0127260Y0011280D01*
X0126675Y0011188D01*
X0126675Y0015300D01*
X0126675Y0014442D02*
X0125675Y0014442D01*
X0125675Y0015300D02*
X0125675Y0011188D01*
X0125090Y0011280D01*
X0124396Y0011506D01*
X0123746Y0011837D01*
X0123156Y0012265D01*
X0122640Y0012781D01*
X0122212Y0013371D01*
X0121881Y0014021D01*
X0121655Y0014715D01*
X0121563Y0015300D01*
X0125675Y0015300D01*
X0125675Y0015440D02*
X0084200Y0015440D01*
X0084200Y0015300D02*
X0084200Y0016300D01*
X0088312Y0016300D01*
X0088220Y0016885D01*
X0087994Y0017579D01*
X0087663Y0018229D01*
X0087234Y0018819D01*
X0086719Y0019334D01*
X0086129Y0019763D01*
X0085479Y0020094D01*
X0084785Y0020320D01*
X0084200Y0020412D01*
X0084200Y0016300D01*
X0083200Y0016300D01*
X0083200Y0020412D01*
X0082615Y0020320D01*
X0081921Y0020094D01*
X0081271Y0019763D01*
X0080681Y0019334D01*
X0080165Y0018819D01*
X0079737Y0018229D01*
X0079406Y0017579D01*
X0079180Y0016885D01*
X0079088Y0016300D01*
X0083200Y0016300D01*
X0083200Y0015300D01*
X0084200Y0015300D01*
X0088312Y0015300D01*
X0088220Y0014715D01*
X0087994Y0014021D01*
X0087663Y0013371D01*
X0087234Y0012781D01*
X0086719Y0012265D01*
X0086129Y0011837D01*
X0085479Y0011506D01*
X0084785Y0011280D01*
X0084200Y0011188D01*
X0084200Y0015300D01*
X0084200Y0014442D02*
X0083200Y0014442D01*
X0083200Y0015300D02*
X0083200Y0011188D01*
X0082615Y0011280D01*
X0081921Y0011506D01*
X0081271Y0011837D01*
X0080681Y0012265D01*
X0080165Y0012781D01*
X0079737Y0013371D01*
X0079406Y0014021D01*
X0079180Y0014715D01*
X0079088Y0015300D01*
X0083200Y0015300D01*
X0083200Y0015440D02*
X0059800Y0015440D01*
X0059800Y0015300D02*
X0059800Y0016300D01*
X0063912Y0016300D01*
X0063820Y0016885D01*
X0063594Y0017579D01*
X0063263Y0018229D01*
X0062834Y0018819D01*
X0062319Y0019334D01*
X0061729Y0019763D01*
X0061079Y0020094D01*
X0060385Y0020320D01*
X0059800Y0020412D01*
X0059800Y0016300D01*
X0058800Y0016300D01*
X0058800Y0020412D01*
X0058215Y0020320D01*
X0057521Y0020094D01*
X0056871Y0019763D01*
X0056281Y0019334D01*
X0055765Y0018819D01*
X0055337Y0018229D01*
X0055006Y0017579D01*
X0054780Y0016885D01*
X0054688Y0016300D01*
X0058800Y0016300D01*
X0058800Y0015300D01*
X0059800Y0015300D01*
X0063912Y0015300D01*
X0063820Y0014715D01*
X0063594Y0014021D01*
X0063263Y0013371D01*
X0062834Y0012781D01*
X0062319Y0012265D01*
X0061729Y0011837D01*
X0061079Y0011506D01*
X0060385Y0011280D01*
X0059800Y0011188D01*
X0059800Y0015300D01*
X0059800Y0014442D02*
X0058800Y0014442D01*
X0058800Y0015300D02*
X0058800Y0011188D01*
X0058215Y0011280D01*
X0057521Y0011506D01*
X0056871Y0011837D01*
X0056281Y0012265D01*
X0055765Y0012781D01*
X0055337Y0013371D01*
X0055006Y0014021D01*
X0054780Y0014715D01*
X0054688Y0015300D01*
X0058800Y0015300D01*
X0058800Y0015440D02*
X0003181Y0015440D01*
X0003181Y0014442D02*
X0054869Y0014442D01*
X0055300Y0013443D02*
X0003181Y0013443D01*
X0003181Y0012445D02*
X0056102Y0012445D01*
X0057703Y0011446D02*
X0003181Y0011446D01*
X0003181Y0010448D02*
X0507240Y0010448D01*
X0507240Y0011446D02*
X0486546Y0011446D01*
X0485450Y0011446D02*
X0484450Y0011446D01*
X0484450Y0012445D02*
X0485450Y0012445D01*
X0485450Y0013443D02*
X0484450Y0013443D01*
X0481752Y0012445D02*
X0463748Y0012445D01*
X0464550Y0013443D02*
X0480950Y0013443D01*
X0480519Y0014442D02*
X0464981Y0014442D01*
X0465140Y0016439D02*
X0480360Y0016439D01*
X0480610Y0017437D02*
X0464890Y0017437D01*
X0464363Y0018436D02*
X0481137Y0018436D01*
X0482069Y0019434D02*
X0463431Y0019434D01*
X0461050Y0019434D02*
X0460050Y0019434D01*
X0460050Y0018436D02*
X0461050Y0018436D01*
X0461050Y0017437D02*
X0460050Y0017437D01*
X0460050Y0016439D02*
X0461050Y0016439D01*
X0461050Y0013443D02*
X0460050Y0013443D01*
X0460050Y0012445D02*
X0461050Y0012445D01*
X0461050Y0011446D02*
X0460050Y0011446D01*
X0458953Y0011446D02*
X0419671Y0011446D01*
X0418575Y0011446D02*
X0417575Y0011446D01*
X0417575Y0012445D02*
X0418575Y0012445D01*
X0418575Y0013443D02*
X0417575Y0013443D01*
X0414877Y0012445D02*
X0396873Y0012445D01*
X0397675Y0013443D02*
X0414075Y0013443D01*
X0413644Y0014442D02*
X0398106Y0014442D01*
X0398265Y0016439D02*
X0413485Y0016439D01*
X0413735Y0017437D02*
X0398015Y0017437D01*
X0397488Y0018436D02*
X0414262Y0018436D01*
X0415194Y0019434D02*
X0396556Y0019434D01*
X0394175Y0019434D02*
X0393175Y0019434D01*
X0393175Y0018436D02*
X0394175Y0018436D01*
X0394175Y0017437D02*
X0393175Y0017437D01*
X0393175Y0016439D02*
X0394175Y0016439D01*
X0394175Y0013443D02*
X0393175Y0013443D01*
X0393175Y0012445D02*
X0394175Y0012445D01*
X0394175Y0011446D02*
X0393175Y0011446D01*
X0392078Y0011446D02*
X0352796Y0011446D01*
X0351700Y0011446D02*
X0350700Y0011446D01*
X0350700Y0012445D02*
X0351700Y0012445D01*
X0351700Y0013443D02*
X0350700Y0013443D01*
X0348002Y0012445D02*
X0329998Y0012445D01*
X0330800Y0013443D02*
X0347200Y0013443D01*
X0346769Y0014442D02*
X0331231Y0014442D01*
X0331390Y0016439D02*
X0346610Y0016439D01*
X0346860Y0017437D02*
X0331140Y0017437D01*
X0330613Y0018436D02*
X0347387Y0018436D01*
X0348319Y0019434D02*
X0329681Y0019434D01*
X0327300Y0019434D02*
X0326300Y0019434D01*
X0326300Y0018436D02*
X0327300Y0018436D01*
X0327300Y0017437D02*
X0326300Y0017437D01*
X0326300Y0016439D02*
X0327300Y0016439D01*
X0327300Y0013443D02*
X0326300Y0013443D01*
X0326300Y0012445D02*
X0327300Y0012445D01*
X0327300Y0011446D02*
X0326300Y0011446D01*
X0325203Y0011446D02*
X0285921Y0011446D01*
X0284825Y0011446D02*
X0283825Y0011446D01*
X0283825Y0012445D02*
X0284825Y0012445D01*
X0284825Y0013443D02*
X0283825Y0013443D01*
X0281127Y0012445D02*
X0263123Y0012445D01*
X0263925Y0013443D02*
X0280325Y0013443D01*
X0279894Y0014442D02*
X0264356Y0014442D01*
X0264515Y0016439D02*
X0279735Y0016439D01*
X0279985Y0017437D02*
X0264265Y0017437D01*
X0263738Y0018436D02*
X0280512Y0018436D01*
X0281444Y0019434D02*
X0262806Y0019434D01*
X0260425Y0019434D02*
X0259425Y0019434D01*
X0259425Y0018436D02*
X0260425Y0018436D01*
X0260425Y0017437D02*
X0259425Y0017437D01*
X0259425Y0016439D02*
X0260425Y0016439D01*
X0260425Y0013443D02*
X0259425Y0013443D01*
X0259425Y0012445D02*
X0260425Y0012445D01*
X0260425Y0011446D02*
X0259425Y0011446D01*
X0258328Y0011446D02*
X0219046Y0011446D01*
X0217950Y0011446D02*
X0216950Y0011446D01*
X0216950Y0012445D02*
X0217950Y0012445D01*
X0217950Y0013443D02*
X0216950Y0013443D01*
X0214252Y0012445D02*
X0196248Y0012445D01*
X0197050Y0013443D02*
X0213450Y0013443D01*
X0213019Y0014442D02*
X0197481Y0014442D01*
X0197640Y0016439D02*
X0212860Y0016439D01*
X0213110Y0017437D02*
X0197390Y0017437D01*
X0196863Y0018436D02*
X0213637Y0018436D01*
X0214569Y0019434D02*
X0195931Y0019434D01*
X0193550Y0019434D02*
X0192550Y0019434D01*
X0192550Y0018436D02*
X0193550Y0018436D01*
X0193550Y0017437D02*
X0192550Y0017437D01*
X0192550Y0016439D02*
X0193550Y0016439D01*
X0193550Y0013443D02*
X0192550Y0013443D01*
X0192550Y0012445D02*
X0193550Y0012445D01*
X0193550Y0011446D02*
X0192550Y0011446D01*
X0191453Y0011446D02*
X0152171Y0011446D01*
X0151075Y0011446D02*
X0150075Y0011446D01*
X0150075Y0012445D02*
X0151075Y0012445D01*
X0151075Y0013443D02*
X0150075Y0013443D01*
X0147377Y0012445D02*
X0129373Y0012445D01*
X0130175Y0013443D02*
X0146575Y0013443D01*
X0146144Y0014442D02*
X0130606Y0014442D01*
X0130765Y0016439D02*
X0145985Y0016439D01*
X0146235Y0017437D02*
X0130515Y0017437D01*
X0129988Y0018436D02*
X0146762Y0018436D01*
X0147694Y0019434D02*
X0129056Y0019434D01*
X0126675Y0019434D02*
X0125675Y0019434D01*
X0125675Y0018436D02*
X0126675Y0018436D01*
X0126675Y0017437D02*
X0125675Y0017437D01*
X0125675Y0016439D02*
X0126675Y0016439D01*
X0126675Y0013443D02*
X0125675Y0013443D01*
X0125675Y0012445D02*
X0126675Y0012445D01*
X0126675Y0011446D02*
X0125675Y0011446D01*
X0124578Y0011446D02*
X0085296Y0011446D01*
X0084200Y0011446D02*
X0083200Y0011446D01*
X0083200Y0012445D02*
X0084200Y0012445D01*
X0084200Y0013443D02*
X0083200Y0013443D01*
X0080502Y0012445D02*
X0062498Y0012445D01*
X0063300Y0013443D02*
X0079700Y0013443D01*
X0079269Y0014442D02*
X0063731Y0014442D01*
X0063890Y0016439D02*
X0079110Y0016439D01*
X0079360Y0017437D02*
X0063640Y0017437D01*
X0063113Y0018436D02*
X0079887Y0018436D01*
X0080819Y0019434D02*
X0062181Y0019434D01*
X0059800Y0019434D02*
X0058800Y0019434D01*
X0058800Y0018436D02*
X0059800Y0018436D01*
X0059800Y0017437D02*
X0058800Y0017437D01*
X0058800Y0016439D02*
X0059800Y0016439D01*
X0059800Y0013443D02*
X0058800Y0013443D01*
X0058800Y0012445D02*
X0059800Y0012445D01*
X0059800Y0011446D02*
X0058800Y0011446D01*
X0060896Y0011446D02*
X0082103Y0011446D01*
X0086898Y0012445D02*
X0122977Y0012445D01*
X0122175Y0013443D02*
X0087700Y0013443D01*
X0088131Y0014442D02*
X0121744Y0014442D01*
X0121585Y0016439D02*
X0088290Y0016439D01*
X0088040Y0017437D02*
X0121835Y0017437D01*
X0122362Y0018436D02*
X0087513Y0018436D01*
X0086581Y0019434D02*
X0123294Y0019434D01*
X0134780Y0025598D02*
X0135973Y0024405D01*
X0137532Y0023760D01*
X0139218Y0023760D01*
X0140777Y0024405D01*
X0141970Y0025598D01*
X0142615Y0027157D01*
X0142615Y0028843D01*
X0141970Y0030402D01*
X0140777Y0031595D01*
X0139218Y0032240D01*
X0137532Y0032240D01*
X0135973Y0031595D01*
X0134780Y0030402D01*
X0134135Y0028843D01*
X0134135Y0027157D01*
X0134780Y0025598D01*
X0134953Y0025426D02*
X0074922Y0025426D01*
X0075437Y0026424D02*
X0134438Y0026424D01*
X0134135Y0027423D02*
X0075740Y0027423D01*
X0075740Y0028421D02*
X0134135Y0028421D01*
X0134374Y0029420D02*
X0075501Y0029420D01*
X0075078Y0030418D02*
X0134797Y0030418D01*
X0135795Y0031417D02*
X0074080Y0031417D01*
X0073924Y0024427D02*
X0135951Y0024427D01*
X0140799Y0024427D02*
X0202826Y0024427D01*
X0202848Y0024405D02*
X0204407Y0023760D01*
X0206093Y0023760D01*
X0207652Y0024405D01*
X0208845Y0025598D01*
X0209490Y0027157D01*
X0209490Y0028843D01*
X0208845Y0030402D01*
X0207652Y0031595D01*
X0206093Y0032240D01*
X0204407Y0032240D01*
X0202848Y0031595D01*
X0201655Y0030402D01*
X0201010Y0028843D01*
X0201010Y0027157D01*
X0201655Y0025598D01*
X0202848Y0024405D01*
X0201828Y0025426D02*
X0141797Y0025426D01*
X0142312Y0026424D02*
X0201313Y0026424D01*
X0201010Y0027423D02*
X0142615Y0027423D01*
X0142615Y0028421D02*
X0201010Y0028421D01*
X0201249Y0029420D02*
X0142376Y0029420D01*
X0141953Y0030418D02*
X0201672Y0030418D01*
X0202670Y0031417D02*
X0140955Y0031417D01*
X0146876Y0037408D02*
X0129874Y0037408D01*
X0130462Y0038406D02*
X0146288Y0038406D01*
X0146009Y0039405D02*
X0130741Y0039405D01*
X0128841Y0036409D02*
X0147909Y0036409D01*
X0150075Y0036409D02*
X0151075Y0036409D01*
X0151075Y0037408D02*
X0150075Y0037408D01*
X0150075Y0038406D02*
X0151075Y0038406D01*
X0151075Y0039405D02*
X0150075Y0039405D01*
X0153241Y0036409D02*
X0190384Y0036409D01*
X0189351Y0037408D02*
X0154274Y0037408D01*
X0154862Y0038406D02*
X0188763Y0038406D01*
X0188484Y0039405D02*
X0155141Y0039405D01*
X0126675Y0039405D02*
X0125675Y0039405D01*
X0125675Y0038406D02*
X0126675Y0038406D01*
X0126675Y0037408D02*
X0125675Y0037408D01*
X0125675Y0036409D02*
X0126675Y0036409D01*
X0123509Y0036409D02*
X0086366Y0036409D01*
X0087399Y0037408D02*
X0122476Y0037408D01*
X0121888Y0038406D02*
X0087987Y0038406D01*
X0088266Y0039405D02*
X0121609Y0039405D01*
X0084200Y0039405D02*
X0083200Y0039405D01*
X0083200Y0038406D02*
X0084200Y0038406D01*
X0084200Y0037408D02*
X0083200Y0037408D01*
X0083200Y0036409D02*
X0084200Y0036409D01*
X0084200Y0019434D02*
X0083200Y0019434D01*
X0083200Y0018436D02*
X0084200Y0018436D01*
X0084200Y0017437D02*
X0083200Y0017437D01*
X0083200Y0016439D02*
X0084200Y0016439D01*
X0056419Y0019434D02*
X0003181Y0019434D01*
X0003181Y0018436D02*
X0055487Y0018436D01*
X0054960Y0017437D02*
X0003181Y0017437D01*
X0003181Y0016439D02*
X0054710Y0016439D01*
X0127771Y0011446D02*
X0148978Y0011446D01*
X0153773Y0012445D02*
X0189852Y0012445D01*
X0189050Y0013443D02*
X0154575Y0013443D01*
X0155006Y0014442D02*
X0188619Y0014442D01*
X0188460Y0016439D02*
X0155165Y0016439D01*
X0154915Y0017437D02*
X0188710Y0017437D01*
X0189237Y0018436D02*
X0154388Y0018436D01*
X0153456Y0019434D02*
X0190169Y0019434D01*
X0207674Y0024427D02*
X0269701Y0024427D01*
X0269723Y0024405D02*
X0271282Y0023760D01*
X0272968Y0023760D01*
X0274527Y0024405D01*
X0275720Y0025598D01*
X0276365Y0027157D01*
X0276365Y0028843D01*
X0275720Y0030402D01*
X0274527Y0031595D01*
X0272968Y0032240D01*
X0271282Y0032240D01*
X0269723Y0031595D01*
X0268530Y0030402D01*
X0267885Y0028843D01*
X0267885Y0027157D01*
X0268530Y0025598D01*
X0269723Y0024405D01*
X0268703Y0025426D02*
X0208672Y0025426D01*
X0209187Y0026424D02*
X0268188Y0026424D01*
X0267885Y0027423D02*
X0209490Y0027423D01*
X0209490Y0028421D02*
X0267885Y0028421D01*
X0268124Y0029420D02*
X0209251Y0029420D01*
X0208828Y0030418D02*
X0268547Y0030418D01*
X0269545Y0031417D02*
X0207830Y0031417D01*
X0213751Y0037408D02*
X0196749Y0037408D01*
X0197337Y0038406D02*
X0213163Y0038406D01*
X0212884Y0039405D02*
X0197616Y0039405D01*
X0195716Y0036409D02*
X0214784Y0036409D01*
X0216950Y0036409D02*
X0217950Y0036409D01*
X0217950Y0037408D02*
X0216950Y0037408D01*
X0216950Y0038406D02*
X0217950Y0038406D01*
X0217950Y0039405D02*
X0216950Y0039405D01*
X0220116Y0036409D02*
X0257259Y0036409D01*
X0256226Y0037408D02*
X0221149Y0037408D01*
X0221737Y0038406D02*
X0255638Y0038406D01*
X0255359Y0039405D02*
X0222016Y0039405D01*
X0193550Y0039405D02*
X0192550Y0039405D01*
X0192550Y0038406D02*
X0193550Y0038406D01*
X0193550Y0037408D02*
X0192550Y0037408D01*
X0192550Y0036409D02*
X0193550Y0036409D01*
X0216950Y0019434D02*
X0217950Y0019434D01*
X0217950Y0018436D02*
X0216950Y0018436D01*
X0216950Y0017437D02*
X0217950Y0017437D01*
X0217950Y0016439D02*
X0216950Y0016439D01*
X0221790Y0017437D02*
X0255585Y0017437D01*
X0255335Y0016439D02*
X0222040Y0016439D01*
X0221881Y0014442D02*
X0255494Y0014442D01*
X0255925Y0013443D02*
X0221450Y0013443D01*
X0220648Y0012445D02*
X0256727Y0012445D01*
X0261521Y0011446D02*
X0282728Y0011446D01*
X0287523Y0012445D02*
X0323602Y0012445D01*
X0322800Y0013443D02*
X0288325Y0013443D01*
X0288756Y0014442D02*
X0322369Y0014442D01*
X0322210Y0016439D02*
X0288915Y0016439D01*
X0288665Y0017437D02*
X0322460Y0017437D01*
X0322987Y0018436D02*
X0288138Y0018436D01*
X0287206Y0019434D02*
X0323919Y0019434D01*
X0335405Y0025598D02*
X0336598Y0024405D01*
X0338157Y0023760D01*
X0339843Y0023760D01*
X0341402Y0024405D01*
X0342595Y0025598D01*
X0343240Y0027157D01*
X0343240Y0028843D01*
X0342595Y0030402D01*
X0341402Y0031595D01*
X0339843Y0032240D01*
X0338157Y0032240D01*
X0336598Y0031595D01*
X0335405Y0030402D01*
X0334760Y0028843D01*
X0334760Y0027157D01*
X0335405Y0025598D01*
X0335578Y0025426D02*
X0275547Y0025426D01*
X0276062Y0026424D02*
X0335063Y0026424D01*
X0334760Y0027423D02*
X0276365Y0027423D01*
X0276365Y0028421D02*
X0334760Y0028421D01*
X0334999Y0029420D02*
X0276126Y0029420D01*
X0275703Y0030418D02*
X0335422Y0030418D01*
X0336420Y0031417D02*
X0274705Y0031417D01*
X0274549Y0024427D02*
X0336576Y0024427D01*
X0341424Y0024427D02*
X0403451Y0024427D01*
X0402453Y0025426D02*
X0342422Y0025426D01*
X0342937Y0026424D02*
X0401938Y0026424D01*
X0401635Y0027423D02*
X0343240Y0027423D01*
X0343240Y0028421D02*
X0401635Y0028421D01*
X0401874Y0029420D02*
X0343001Y0029420D01*
X0342578Y0030418D02*
X0402297Y0030418D01*
X0403295Y0031417D02*
X0341580Y0031417D01*
X0347501Y0037408D02*
X0330499Y0037408D01*
X0331087Y0038406D02*
X0346913Y0038406D01*
X0346634Y0039405D02*
X0331366Y0039405D01*
X0329466Y0036409D02*
X0348534Y0036409D01*
X0350700Y0036409D02*
X0351700Y0036409D01*
X0351700Y0037408D02*
X0350700Y0037408D01*
X0350700Y0038406D02*
X0351700Y0038406D01*
X0351700Y0039405D02*
X0350700Y0039405D01*
X0353866Y0036409D02*
X0391009Y0036409D01*
X0389976Y0037408D02*
X0354899Y0037408D01*
X0355487Y0038406D02*
X0389388Y0038406D01*
X0389109Y0039405D02*
X0355766Y0039405D01*
X0327300Y0039405D02*
X0326300Y0039405D01*
X0326300Y0038406D02*
X0327300Y0038406D01*
X0327300Y0037408D02*
X0326300Y0037408D01*
X0326300Y0036409D02*
X0327300Y0036409D01*
X0324134Y0036409D02*
X0286991Y0036409D01*
X0288024Y0037408D02*
X0323101Y0037408D01*
X0322513Y0038406D02*
X0288612Y0038406D01*
X0288891Y0039405D02*
X0322234Y0039405D01*
X0284825Y0039405D02*
X0283825Y0039405D01*
X0283825Y0038406D02*
X0284825Y0038406D01*
X0284825Y0037408D02*
X0283825Y0037408D01*
X0283825Y0036409D02*
X0284825Y0036409D01*
X0281659Y0036409D02*
X0262591Y0036409D01*
X0263624Y0037408D02*
X0280626Y0037408D01*
X0280038Y0038406D02*
X0264212Y0038406D01*
X0264491Y0039405D02*
X0279759Y0039405D01*
X0260425Y0039405D02*
X0259425Y0039405D01*
X0259425Y0038406D02*
X0260425Y0038406D01*
X0260425Y0037408D02*
X0259425Y0037408D01*
X0259425Y0036409D02*
X0260425Y0036409D01*
X0257044Y0019434D02*
X0220331Y0019434D01*
X0221263Y0018436D02*
X0256112Y0018436D01*
X0283825Y0018436D02*
X0284825Y0018436D01*
X0284825Y0019434D02*
X0283825Y0019434D01*
X0283825Y0017437D02*
X0284825Y0017437D01*
X0284825Y0016439D02*
X0283825Y0016439D01*
X0328396Y0011446D02*
X0349603Y0011446D01*
X0354398Y0012445D02*
X0390477Y0012445D01*
X0389675Y0013443D02*
X0355200Y0013443D01*
X0355631Y0014442D02*
X0389244Y0014442D01*
X0389085Y0016439D02*
X0355790Y0016439D01*
X0355540Y0017437D02*
X0389335Y0017437D01*
X0389862Y0018436D02*
X0355013Y0018436D01*
X0354081Y0019434D02*
X0390794Y0019434D01*
X0408299Y0024427D02*
X0470326Y0024427D01*
X0469328Y0025426D02*
X0409297Y0025426D01*
X0417575Y0019434D02*
X0418575Y0019434D01*
X0418575Y0018436D02*
X0417575Y0018436D01*
X0417575Y0017437D02*
X0418575Y0017437D01*
X0418575Y0016439D02*
X0417575Y0016439D01*
X0422415Y0017437D02*
X0456210Y0017437D01*
X0455960Y0016439D02*
X0422665Y0016439D01*
X0422506Y0014442D02*
X0456119Y0014442D01*
X0456550Y0013443D02*
X0422075Y0013443D01*
X0421273Y0012445D02*
X0457352Y0012445D01*
X0462146Y0011446D02*
X0483353Y0011446D01*
X0488148Y0012445D02*
X0507240Y0012445D01*
X0507240Y0013443D02*
X0488950Y0013443D01*
X0489381Y0014442D02*
X0507240Y0014442D01*
X0485450Y0016439D02*
X0484450Y0016439D01*
X0484450Y0017437D02*
X0485450Y0017437D01*
X0485450Y0018436D02*
X0484450Y0018436D01*
X0484450Y0019434D02*
X0485450Y0019434D01*
X0457669Y0019434D02*
X0420956Y0019434D01*
X0421888Y0018436D02*
X0456737Y0018436D01*
X0440159Y0026424D02*
X0437841Y0026424D01*
X0441586Y0033414D02*
X0507240Y0033414D01*
X0507240Y0034412D02*
X0441586Y0034412D01*
X0441586Y0035411D02*
X0507240Y0035411D01*
X0507240Y0036409D02*
X0487616Y0036409D01*
X0487379Y0036237D02*
X0487969Y0036665D01*
X0488484Y0037181D01*
X0488913Y0037771D01*
X0489244Y0038421D01*
X0489470Y0039115D01*
X0489562Y0039700D01*
X0485450Y0039700D01*
X0485450Y0040700D01*
X0489562Y0040700D01*
X0489470Y0041285D01*
X0489244Y0041979D01*
X0488913Y0042629D01*
X0488484Y0043219D01*
X0487969Y0043734D01*
X0487379Y0044163D01*
X0486729Y0044494D01*
X0486035Y0044720D01*
X0485450Y0044812D01*
X0485450Y0040700D01*
X0484450Y0040700D01*
X0484450Y0044812D01*
X0483865Y0044720D01*
X0483171Y0044494D01*
X0482521Y0044163D01*
X0481931Y0043734D01*
X0481415Y0043219D01*
X0480987Y0042629D01*
X0480656Y0041979D01*
X0480430Y0041285D01*
X0480338Y0040700D01*
X0484450Y0040700D01*
X0484450Y0039700D01*
X0485450Y0039700D01*
X0485450Y0035588D01*
X0486035Y0035680D01*
X0486729Y0035906D01*
X0487379Y0036237D01*
X0488649Y0037408D02*
X0507240Y0037408D01*
X0507240Y0038406D02*
X0489237Y0038406D01*
X0489516Y0039405D02*
X0507240Y0039405D01*
X0507240Y0040403D02*
X0485450Y0040403D01*
X0485450Y0039405D02*
X0484450Y0039405D01*
X0484450Y0039700D02*
X0484450Y0035588D01*
X0483865Y0035680D01*
X0483171Y0035906D01*
X0482521Y0036237D01*
X0481931Y0036665D01*
X0481415Y0037181D01*
X0480987Y0037771D01*
X0480656Y0038421D01*
X0480430Y0039115D01*
X0480338Y0039700D01*
X0484450Y0039700D01*
X0484450Y0040403D02*
X0461050Y0040403D01*
X0461050Y0040700D02*
X0465162Y0040700D01*
X0465070Y0041285D01*
X0464844Y0041979D01*
X0464513Y0042629D01*
X0464084Y0043219D01*
X0463569Y0043734D01*
X0462979Y0044163D01*
X0462329Y0044494D01*
X0461635Y0044720D01*
X0461050Y0044812D01*
X0461050Y0040700D01*
X0461050Y0039700D01*
X0465162Y0039700D01*
X0465070Y0039115D01*
X0464844Y0038421D01*
X0464513Y0037771D01*
X0464084Y0037181D01*
X0463569Y0036665D01*
X0462979Y0036237D01*
X0462329Y0035906D01*
X0461635Y0035680D01*
X0461050Y0035588D01*
X0461050Y0039700D01*
X0460050Y0039700D01*
X0460050Y0035588D01*
X0459465Y0035680D01*
X0458771Y0035906D01*
X0458121Y0036237D01*
X0457531Y0036665D01*
X0457015Y0037181D01*
X0456587Y0037771D01*
X0456256Y0038421D01*
X0456030Y0039115D01*
X0455938Y0039700D01*
X0460050Y0039700D01*
X0460050Y0040700D01*
X0460050Y0044812D01*
X0459465Y0044720D01*
X0458771Y0044494D01*
X0458121Y0044163D01*
X0457531Y0043734D01*
X0457015Y0043219D01*
X0456587Y0042629D01*
X0456256Y0041979D01*
X0456030Y0041285D01*
X0455938Y0040700D01*
X0460050Y0040700D01*
X0461050Y0040700D01*
X0461050Y0041402D02*
X0460050Y0041402D01*
X0460050Y0042400D02*
X0461050Y0042400D01*
X0461050Y0043399D02*
X0460050Y0043399D01*
X0460050Y0044397D02*
X0461050Y0044397D01*
X0462519Y0044397D02*
X0482981Y0044397D01*
X0484450Y0044397D02*
X0485450Y0044397D01*
X0485450Y0043399D02*
X0484450Y0043399D01*
X0484450Y0042400D02*
X0485450Y0042400D01*
X0485450Y0041402D02*
X0484450Y0041402D01*
X0481596Y0043399D02*
X0463904Y0043399D01*
X0464630Y0042400D02*
X0480870Y0042400D01*
X0480468Y0041402D02*
X0465032Y0041402D01*
X0460050Y0040403D02*
X0441586Y0040403D01*
X0441586Y0039405D02*
X0455984Y0039405D01*
X0456263Y0038406D02*
X0441586Y0038406D01*
X0441586Y0037408D02*
X0456851Y0037408D01*
X0457884Y0036409D02*
X0441586Y0036409D01*
X0441586Y0041402D02*
X0456068Y0041402D01*
X0456470Y0042400D02*
X0441586Y0042400D01*
X0441586Y0043399D02*
X0457196Y0043399D01*
X0458581Y0044397D02*
X0441586Y0044397D01*
X0441586Y0045396D02*
X0507240Y0045396D01*
X0507240Y0046394D02*
X0441586Y0046394D01*
X0441586Y0047393D02*
X0507240Y0047393D01*
X0507240Y0048391D02*
X0441586Y0048391D01*
X0441586Y0049390D02*
X0507240Y0049390D01*
X0507240Y0050388D02*
X0441586Y0050388D01*
X0441156Y0051387D02*
X0507240Y0051387D01*
X0507240Y0052385D02*
X0440580Y0052385D01*
X0439084Y0053384D02*
X0507240Y0053384D01*
X0507240Y0054382D02*
X0365961Y0054382D01*
X0365961Y0055381D02*
X0507240Y0055381D01*
X0507240Y0056379D02*
X0365961Y0056379D01*
X0420044Y0044397D02*
X0436414Y0044397D01*
X0436414Y0043399D02*
X0421429Y0043399D01*
X0422155Y0042400D02*
X0436414Y0042400D01*
X0436414Y0041402D02*
X0422557Y0041402D01*
X0418575Y0038406D02*
X0417575Y0038406D01*
X0417575Y0037408D02*
X0418575Y0037408D01*
X0418575Y0036409D02*
X0417575Y0036409D01*
X0415409Y0036409D02*
X0396341Y0036409D01*
X0397374Y0037408D02*
X0414376Y0037408D01*
X0413788Y0038406D02*
X0397962Y0038406D01*
X0398241Y0039405D02*
X0413509Y0039405D01*
X0394175Y0039405D02*
X0393175Y0039405D01*
X0393175Y0038406D02*
X0394175Y0038406D01*
X0394175Y0037408D02*
X0393175Y0037408D01*
X0393175Y0036409D02*
X0394175Y0036409D01*
X0351700Y0019434D02*
X0350700Y0019434D01*
X0350700Y0018436D02*
X0351700Y0018436D01*
X0351700Y0017437D02*
X0350700Y0017437D01*
X0350700Y0016439D02*
X0351700Y0016439D01*
X0395271Y0011446D02*
X0416478Y0011446D01*
X0460050Y0036409D02*
X0461050Y0036409D01*
X0461050Y0037408D02*
X0460050Y0037408D01*
X0460050Y0038406D02*
X0461050Y0038406D01*
X0461050Y0039405D02*
X0460050Y0039405D01*
X0463216Y0036409D02*
X0482284Y0036409D01*
X0481251Y0037408D02*
X0464249Y0037408D01*
X0464837Y0038406D02*
X0480663Y0038406D01*
X0480384Y0039405D02*
X0465116Y0039405D01*
X0484450Y0038406D02*
X0485450Y0038406D01*
X0485450Y0037408D02*
X0484450Y0037408D01*
X0484450Y0036409D02*
X0485450Y0036409D01*
X0489432Y0041402D02*
X0507240Y0041402D01*
X0507240Y0042400D02*
X0489030Y0042400D01*
X0488304Y0043399D02*
X0507240Y0043399D01*
X0507240Y0044397D02*
X0486919Y0044397D01*
X0360789Y0081342D02*
X0160374Y0081342D01*
X0161373Y0082341D02*
X0360789Y0082341D01*
X0360789Y0083339D02*
X0162371Y0083339D01*
X0163370Y0084338D02*
X0360789Y0084338D01*
X0360789Y0085336D02*
X0164368Y0085336D01*
X0165367Y0086335D02*
X0360789Y0086335D01*
X0360789Y0087333D02*
X0166365Y0087333D01*
X0167364Y0088332D02*
X0360789Y0088332D01*
X0360789Y0089330D02*
X0168362Y0089330D01*
X0169007Y0090329D02*
X0360789Y0090329D01*
X0360789Y0091327D02*
X0225915Y0091327D01*
X0226243Y0091415D02*
X0228772Y0092875D01*
X0230837Y0094940D01*
X0232297Y0097469D01*
X0233053Y0100290D01*
X0233053Y0103210D01*
X0232297Y0106031D01*
X0230837Y0108560D01*
X0228772Y0110625D01*
X0226243Y0112085D01*
X0223423Y0112841D01*
X0220502Y0112841D01*
X0217682Y0112085D01*
X0215153Y0110625D01*
X0213088Y0108560D01*
X0211628Y0106031D01*
X0210872Y0103210D01*
X0210872Y0100290D01*
X0211628Y0097469D01*
X0213088Y0094940D01*
X0215153Y0092875D01*
X0217682Y0091415D01*
X0220502Y0090659D01*
X0223423Y0090659D01*
X0226243Y0091415D01*
X0227821Y0092326D02*
X0360789Y0092326D01*
X0360789Y0093324D02*
X0229221Y0093324D01*
X0230220Y0094323D02*
X0360789Y0094323D01*
X0360789Y0095321D02*
X0359730Y0095321D01*
X0360729Y0096320D02*
X0360789Y0096320D01*
X0365961Y0096320D02*
X0366021Y0096320D01*
X0365961Y0095321D02*
X0367020Y0095321D01*
X0365961Y0094323D02*
X0396059Y0094323D01*
X0396059Y0095321D02*
X0371541Y0095321D01*
X0372540Y0096320D02*
X0396059Y0096320D01*
X0396059Y0097318D02*
X0372974Y0097318D01*
X0373166Y0098317D02*
X0396059Y0098317D01*
X0396059Y0099315D02*
X0373166Y0099315D01*
X0372758Y0100314D02*
X0396059Y0100314D01*
X0396059Y0101312D02*
X0372020Y0101312D01*
X0370370Y0102311D02*
X0396059Y0102311D01*
X0396059Y0103309D02*
X0365961Y0103309D01*
X0365961Y0102311D02*
X0368191Y0102311D01*
X0366541Y0101312D02*
X0365961Y0101312D01*
X0360789Y0101312D02*
X0360209Y0101312D01*
X0360789Y0102311D02*
X0358559Y0102311D01*
X0356380Y0102311D02*
X0337804Y0102311D01*
X0338255Y0102761D02*
X0339076Y0104743D01*
X0339076Y0106887D01*
X0338255Y0108868D01*
X0336739Y0110385D01*
X0334757Y0111205D01*
X0332613Y0111205D01*
X0330632Y0110385D01*
X0329115Y0108868D01*
X0328764Y0108020D01*
X0328412Y0108868D01*
X0326896Y0110385D01*
X0324915Y0111205D01*
X0322770Y0111205D01*
X0320789Y0110385D01*
X0319273Y0108868D01*
X0318452Y0106887D01*
X0318452Y0104743D01*
X0319273Y0102761D01*
X0320789Y0101245D01*
X0322770Y0100424D01*
X0324915Y0100424D01*
X0326896Y0101245D01*
X0328412Y0102761D01*
X0328764Y0103610D01*
X0329115Y0102761D01*
X0330632Y0101245D01*
X0332613Y0100424D01*
X0334757Y0100424D01*
X0336739Y0101245D01*
X0338255Y0102761D01*
X0338482Y0103309D02*
X0360789Y0103309D01*
X0360789Y0104308D02*
X0338895Y0104308D01*
X0339076Y0105306D02*
X0360789Y0105306D01*
X0360789Y0106305D02*
X0360511Y0106305D01*
X0357969Y0106305D02*
X0356969Y0106305D01*
X0356969Y0107303D02*
X0357969Y0107303D01*
X0357969Y0108302D02*
X0356969Y0108302D01*
X0356969Y0109301D02*
X0357969Y0109301D01*
X0356969Y0110299D02*
X0336824Y0110299D01*
X0337823Y0109301D02*
X0353387Y0109301D01*
X0353387Y0108302D02*
X0338490Y0108302D01*
X0338903Y0107303D02*
X0353413Y0107303D01*
X0354428Y0106305D02*
X0339076Y0106305D01*
X0330546Y0110299D02*
X0326982Y0110299D01*
X0327980Y0109301D02*
X0329547Y0109301D01*
X0328881Y0108302D02*
X0328647Y0108302D01*
X0320703Y0110299D02*
X0307297Y0110299D01*
X0307211Y0110385D02*
X0305230Y0111205D01*
X0303085Y0111205D01*
X0301104Y0110385D01*
X0299588Y0108868D01*
X0299236Y0108020D01*
X0298885Y0108868D01*
X0297368Y0110385D01*
X0295387Y0111205D01*
X0293243Y0111205D01*
X0291261Y0110385D01*
X0289745Y0108868D01*
X0288924Y0106887D01*
X0288924Y0104743D01*
X0289745Y0102761D01*
X0291261Y0101245D01*
X0293243Y0100424D01*
X0295387Y0100424D01*
X0297368Y0101245D01*
X0298885Y0102761D01*
X0299236Y0103610D01*
X0299588Y0102761D01*
X0301104Y0101245D01*
X0303085Y0100424D01*
X0305230Y0100424D01*
X0307211Y0101245D01*
X0308727Y0102761D01*
X0309548Y0104743D01*
X0309548Y0106887D01*
X0308727Y0108868D01*
X0307211Y0110385D01*
X0308295Y0109301D02*
X0311849Y0109301D01*
X0311710Y0109243D02*
X0310572Y0108105D01*
X0309957Y0106619D01*
X0309957Y0105011D01*
X0310572Y0103525D01*
X0311710Y0102387D01*
X0313196Y0101772D01*
X0314804Y0101772D01*
X0316290Y0102387D01*
X0317428Y0103525D01*
X0318043Y0105011D01*
X0318043Y0106619D01*
X0317428Y0108105D01*
X0316290Y0109243D01*
X0314804Y0109858D01*
X0313196Y0109858D01*
X0311710Y0109243D01*
X0310769Y0108302D02*
X0308962Y0108302D01*
X0309376Y0107303D02*
X0310240Y0107303D01*
X0309957Y0106305D02*
X0309548Y0106305D01*
X0309548Y0105306D02*
X0309957Y0105306D01*
X0310248Y0104308D02*
X0309368Y0104308D01*
X0308954Y0103309D02*
X0310787Y0103309D01*
X0311894Y0102311D02*
X0308277Y0102311D01*
X0307278Y0101312D02*
X0320722Y0101312D01*
X0319723Y0102311D02*
X0316106Y0102311D01*
X0317213Y0103309D02*
X0319046Y0103309D01*
X0318632Y0104308D02*
X0317752Y0104308D01*
X0318043Y0105306D02*
X0318452Y0105306D01*
X0318452Y0106305D02*
X0318043Y0106305D01*
X0317760Y0107303D02*
X0318624Y0107303D01*
X0319038Y0108302D02*
X0317231Y0108302D01*
X0316151Y0109301D02*
X0319705Y0109301D01*
X0310356Y0115292D02*
X0360789Y0115292D01*
X0357969Y0114293D02*
X0356969Y0114293D01*
X0356969Y0114450D02*
X0354505Y0114450D01*
X0354177Y0114362D01*
X0353884Y0114193D01*
X0353644Y0113953D01*
X0353475Y0113659D01*
X0353387Y0113332D01*
X0353387Y0110867D01*
X0356969Y0110867D01*
X0356969Y0114450D01*
X0356969Y0113295D02*
X0357969Y0113295D01*
X0357969Y0112296D02*
X0356969Y0112296D01*
X0356969Y0111298D02*
X0357969Y0111298D01*
X0353387Y0111298D02*
X0227607Y0111298D01*
X0229098Y0110299D02*
X0239301Y0110299D01*
X0239386Y0110385D02*
X0237870Y0108868D01*
X0237049Y0106887D01*
X0237049Y0104743D01*
X0237870Y0102761D01*
X0239386Y0101245D01*
X0241368Y0100424D01*
X0243512Y0100424D01*
X0245493Y0101245D01*
X0247010Y0102761D01*
X0247361Y0103610D01*
X0247713Y0102761D01*
X0249229Y0101245D01*
X0251210Y0100424D01*
X0253355Y0100424D01*
X0255336Y0101245D01*
X0256852Y0102761D01*
X0257673Y0104743D01*
X0257673Y0106887D01*
X0256852Y0108868D01*
X0255336Y0110385D01*
X0253355Y0111205D01*
X0251210Y0111205D01*
X0249229Y0110385D01*
X0247713Y0108868D01*
X0247361Y0108020D01*
X0247010Y0108868D01*
X0245493Y0110385D01*
X0243512Y0111205D01*
X0241368Y0111205D01*
X0239386Y0110385D01*
X0238302Y0109301D02*
X0230096Y0109301D01*
X0230986Y0108302D02*
X0237635Y0108302D01*
X0237222Y0107303D02*
X0231563Y0107303D01*
X0232139Y0106305D02*
X0237049Y0106305D01*
X0237049Y0105306D02*
X0232491Y0105306D01*
X0232759Y0104308D02*
X0237229Y0104308D01*
X0237643Y0103309D02*
X0233027Y0103309D01*
X0233053Y0102311D02*
X0238321Y0102311D01*
X0239319Y0101312D02*
X0233053Y0101312D01*
X0233053Y0100314D02*
X0353992Y0100314D01*
X0353584Y0099315D02*
X0232792Y0099315D01*
X0232524Y0098317D02*
X0353584Y0098317D01*
X0353776Y0097318D02*
X0232210Y0097318D01*
X0231634Y0096320D02*
X0354210Y0096320D01*
X0355209Y0095321D02*
X0231057Y0095321D01*
X0218010Y0091327D02*
X0174018Y0091327D01*
X0173250Y0091327D02*
X0172250Y0091327D01*
X0171482Y0091327D02*
X0169007Y0091327D01*
X0169007Y0092326D02*
X0169541Y0092326D01*
X0172250Y0092326D02*
X0173250Y0092326D01*
X0173250Y0093324D02*
X0172250Y0093324D01*
X0172250Y0094323D02*
X0173250Y0094323D01*
X0173250Y0095321D02*
X0172250Y0095321D01*
X0173250Y0096320D02*
X0178865Y0096320D01*
X0178865Y0097112D02*
X0178865Y0095207D01*
X0179594Y0093446D01*
X0180942Y0092098D01*
X0182703Y0091369D01*
X0184608Y0091369D01*
X0186369Y0092098D01*
X0187717Y0093446D01*
X0188446Y0095207D01*
X0188446Y0097112D01*
X0187717Y0098873D01*
X0186369Y0100221D01*
X0184608Y0100950D01*
X0182703Y0100950D01*
X0180942Y0100221D01*
X0179594Y0098873D01*
X0178865Y0097112D01*
X0178950Y0097318D02*
X0177616Y0097318D01*
X0177248Y0098317D02*
X0179364Y0098317D01*
X0180037Y0099315D02*
X0176622Y0099315D01*
X0175517Y0100314D02*
X0181167Y0100314D01*
X0186144Y0100314D02*
X0192073Y0100314D01*
X0191847Y0100221D02*
X0190500Y0098873D01*
X0189770Y0097112D01*
X0189770Y0095207D01*
X0190500Y0093446D01*
X0191847Y0092098D01*
X0193608Y0091369D01*
X0195514Y0091369D01*
X0197275Y0092098D01*
X0198622Y0093446D01*
X0199352Y0095207D01*
X0199352Y0097112D01*
X0198622Y0098873D01*
X0197275Y0100221D01*
X0195514Y0100950D01*
X0193608Y0100950D01*
X0191847Y0100221D01*
X0190942Y0099315D02*
X0187274Y0099315D01*
X0187947Y0098317D02*
X0190269Y0098317D01*
X0189856Y0097318D02*
X0188361Y0097318D01*
X0188446Y0096320D02*
X0189770Y0096320D01*
X0189770Y0095321D02*
X0188446Y0095321D01*
X0188080Y0094323D02*
X0190137Y0094323D01*
X0190621Y0093324D02*
X0187595Y0093324D01*
X0186597Y0092326D02*
X0191620Y0092326D01*
X0197502Y0092326D02*
X0216105Y0092326D01*
X0214704Y0093324D02*
X0198501Y0093324D01*
X0198986Y0094323D02*
X0213705Y0094323D01*
X0212868Y0095321D02*
X0199352Y0095321D01*
X0199352Y0096320D02*
X0212291Y0096320D01*
X0211715Y0097318D02*
X0199266Y0097318D01*
X0198853Y0098317D02*
X0211401Y0098317D01*
X0211133Y0099315D02*
X0198180Y0099315D01*
X0197050Y0100314D02*
X0210872Y0100314D01*
X0210872Y0101312D02*
X0169007Y0101312D01*
X0169007Y0100314D02*
X0169983Y0100314D01*
X0169007Y0102311D02*
X0210872Y0102311D01*
X0210899Y0103309D02*
X0191832Y0103309D01*
X0191802Y0103279D02*
X0193150Y0104627D01*
X0193879Y0106388D01*
X0193879Y0108293D01*
X0193150Y0110054D01*
X0191802Y0111402D01*
X0190041Y0112131D01*
X0188136Y0112131D01*
X0186375Y0111402D01*
X0185027Y0110054D01*
X0184298Y0108293D01*
X0184298Y0106388D01*
X0185027Y0104627D01*
X0186375Y0103279D01*
X0188136Y0102550D01*
X0190041Y0102550D01*
X0191802Y0103279D01*
X0192831Y0104308D02*
X0211166Y0104308D01*
X0211434Y0105306D02*
X0193431Y0105306D01*
X0193845Y0106305D02*
X0211786Y0106305D01*
X0212363Y0107303D02*
X0193879Y0107303D01*
X0193876Y0108302D02*
X0212939Y0108302D01*
X0213829Y0109301D02*
X0193462Y0109301D01*
X0192905Y0110299D02*
X0214827Y0110299D01*
X0216318Y0111298D02*
X0191906Y0111298D01*
X0186271Y0111298D02*
X0181001Y0111298D01*
X0180897Y0111402D02*
X0179136Y0112131D01*
X0177230Y0112131D01*
X0175469Y0111402D01*
X0174122Y0110054D01*
X0173393Y0108293D01*
X0173393Y0106388D01*
X0174122Y0104627D01*
X0175469Y0103279D01*
X0177230Y0102550D01*
X0179136Y0102550D01*
X0180897Y0103279D01*
X0182244Y0104627D01*
X0182974Y0106388D01*
X0182974Y0108293D01*
X0182244Y0110054D01*
X0180897Y0111402D01*
X0181999Y0110299D02*
X0185272Y0110299D01*
X0184715Y0109301D02*
X0182556Y0109301D01*
X0182970Y0108302D02*
X0184302Y0108302D01*
X0184298Y0107303D02*
X0182974Y0107303D01*
X0182939Y0106305D02*
X0184332Y0106305D01*
X0184746Y0105306D02*
X0182526Y0105306D01*
X0181925Y0104308D02*
X0185346Y0104308D01*
X0186345Y0103309D02*
X0180927Y0103309D01*
X0175439Y0103309D02*
X0170061Y0103309D01*
X0171059Y0104308D02*
X0174441Y0104308D01*
X0173840Y0105306D02*
X0171660Y0105306D01*
X0172073Y0106305D02*
X0173427Y0106305D01*
X0173393Y0107303D02*
X0172107Y0107303D01*
X0172104Y0108302D02*
X0173396Y0108302D01*
X0173810Y0109301D02*
X0171690Y0109301D01*
X0171133Y0110299D02*
X0174367Y0110299D01*
X0175365Y0111298D02*
X0170135Y0111298D01*
X0164499Y0111298D02*
X0159450Y0111298D01*
X0159660Y0111145D02*
X0159025Y0111606D01*
X0158326Y0111963D01*
X0157579Y0112205D01*
X0156911Y0112311D01*
X0156911Y0107841D01*
X0155911Y0107841D01*
X0155911Y0112311D01*
X0155244Y0112205D01*
X0154497Y0111963D01*
X0153797Y0111606D01*
X0153162Y0111145D01*
X0152607Y0110590D01*
X0152146Y0109955D01*
X0151789Y0109255D01*
X0151547Y0108508D01*
X0151441Y0107841D01*
X0155911Y0107841D01*
X0155911Y0106841D01*
X0151441Y0106841D01*
X0151547Y0106173D01*
X0151789Y0105426D01*
X0152146Y0104727D01*
X0152607Y0104091D01*
X0153162Y0103536D01*
X0153797Y0103075D01*
X0154497Y0102719D01*
X0155244Y0102476D01*
X0155911Y0102370D01*
X0155911Y0106840D01*
X0156911Y0106840D01*
X0156911Y0102370D01*
X0157579Y0102476D01*
X0158326Y0102719D01*
X0159025Y0103075D01*
X0159660Y0103536D01*
X0160216Y0104091D01*
X0160677Y0104727D01*
X0161033Y0105426D01*
X0161276Y0106173D01*
X0161382Y0106841D01*
X0156911Y0106841D01*
X0156911Y0107841D01*
X0161382Y0107841D01*
X0161276Y0108508D01*
X0161033Y0109255D01*
X0160677Y0109955D01*
X0160216Y0110590D01*
X0159660Y0111145D01*
X0160427Y0110299D02*
X0163501Y0110299D01*
X0162944Y0109301D02*
X0161010Y0109301D01*
X0161309Y0108302D02*
X0162530Y0108302D01*
X0162526Y0107303D02*
X0156911Y0107303D01*
X0156911Y0106305D02*
X0155911Y0106305D01*
X0155911Y0107303D02*
X0133137Y0107303D01*
X0133714Y0106305D02*
X0151526Y0106305D01*
X0151850Y0105306D02*
X0134066Y0105306D01*
X0134334Y0104308D02*
X0152450Y0104308D01*
X0153475Y0103309D02*
X0134601Y0103309D01*
X0134628Y0102311D02*
X0165626Y0102311D01*
X0165626Y0101312D02*
X0134628Y0101312D01*
X0134628Y0100314D02*
X0146151Y0100314D01*
X0146148Y0100311D02*
X0146148Y0092008D01*
X0146787Y0091369D01*
X0155091Y0091369D01*
X0155730Y0092008D01*
X0155730Y0100311D01*
X0155091Y0100950D01*
X0146787Y0100950D01*
X0146148Y0100311D01*
X0146148Y0099315D02*
X0134367Y0099315D01*
X0134099Y0098317D02*
X0146148Y0098317D01*
X0146148Y0097318D02*
X0133785Y0097318D01*
X0133209Y0096320D02*
X0146148Y0096320D01*
X0146148Y0095321D02*
X0132632Y0095321D01*
X0131795Y0094323D02*
X0146148Y0094323D01*
X0146148Y0093324D02*
X0130796Y0093324D01*
X0129395Y0092326D02*
X0146148Y0092326D01*
X0155730Y0092326D02*
X0158903Y0092326D01*
X0157905Y0093324D02*
X0155730Y0093324D01*
X0155730Y0094323D02*
X0157420Y0094323D01*
X0157054Y0095321D02*
X0155730Y0095321D01*
X0155730Y0096320D02*
X0157054Y0096320D01*
X0157139Y0097318D02*
X0155730Y0097318D01*
X0155730Y0098317D02*
X0157553Y0098317D01*
X0158226Y0099315D02*
X0155730Y0099315D01*
X0155727Y0100314D02*
X0159356Y0100314D01*
X0164333Y0100314D02*
X0165626Y0100314D01*
X0165626Y0099315D02*
X0165463Y0099315D01*
X0172250Y0099315D02*
X0173250Y0099315D01*
X0173250Y0098317D02*
X0172250Y0098317D01*
X0172250Y0097318D02*
X0173250Y0097318D01*
X0177667Y0095321D02*
X0178865Y0095321D01*
X0179231Y0094323D02*
X0177397Y0094323D01*
X0176855Y0093324D02*
X0179716Y0093324D01*
X0180714Y0092326D02*
X0175959Y0092326D01*
X0160154Y0089330D02*
X0129171Y0089330D01*
X0129138Y0089364D02*
X0129138Y0089364D01*
X0130170Y0088332D02*
X0160050Y0088332D01*
X0159051Y0087333D02*
X0146734Y0087333D01*
X0146666Y0087451D02*
X0146666Y0087451D01*
X0147310Y0086335D02*
X0158053Y0086335D01*
X0147477Y0086045D02*
X0147477Y0086045D01*
X0137974Y0087333D02*
X0130773Y0087333D01*
X0130494Y0088008D02*
X0130494Y0088008D01*
X0131187Y0086335D02*
X0137398Y0086335D01*
X0128145Y0081148D02*
X0128145Y0081148D01*
X0127951Y0081342D02*
X0124024Y0081342D01*
X0123830Y0081148D02*
X0123830Y0081148D01*
X0125022Y0082341D02*
X0126952Y0082341D01*
X0126443Y0083339D02*
X0125531Y0083339D01*
X0125185Y0082504D02*
X0125185Y0082504D01*
X0125919Y0084338D02*
X0126056Y0084338D01*
X0113712Y0086335D02*
X0113575Y0086335D01*
X0113575Y0087333D02*
X0113712Y0087333D01*
X0113973Y0088332D02*
X0113314Y0088332D01*
X0112686Y0089330D02*
X0114600Y0089330D01*
X0091065Y0093324D02*
X0088027Y0093324D01*
X0088078Y0094323D02*
X0091015Y0094323D01*
X0091015Y0095321D02*
X0088078Y0095321D01*
X0088078Y0096320D02*
X0091015Y0096320D01*
X0091015Y0097318D02*
X0088078Y0097318D01*
X0088078Y0098317D02*
X0091015Y0098317D01*
X0091015Y0099315D02*
X0088078Y0099315D01*
X0088078Y0100314D02*
X0091015Y0100314D01*
X0091015Y0101312D02*
X0088078Y0101312D01*
X0088078Y0102311D02*
X0091015Y0102311D01*
X0091015Y0103309D02*
X0088078Y0103309D01*
X0087891Y0104308D02*
X0091202Y0104308D01*
X0076190Y0110299D02*
X0116402Y0110299D01*
X0115404Y0109301D02*
X0075191Y0109301D01*
X0074193Y0108302D02*
X0114514Y0108302D01*
X0117893Y0111298D02*
X0077188Y0111298D01*
X0078187Y0112296D02*
X0120045Y0112296D01*
X0127030Y0112296D02*
X0155818Y0112296D01*
X0155911Y0112296D02*
X0156911Y0112296D01*
X0157005Y0112296D02*
X0218470Y0112296D01*
X0225455Y0112296D02*
X0353387Y0112296D01*
X0353387Y0113295D02*
X0079185Y0113295D01*
X0080066Y0114293D02*
X0354058Y0114293D01*
X0365961Y0114293D02*
X0368152Y0114293D01*
X0368781Y0114293D02*
X0369780Y0114293D01*
X0370409Y0114293D02*
X0396059Y0114293D01*
X0396059Y0113295D02*
X0372127Y0113295D01*
X0372880Y0112296D02*
X0396059Y0112296D01*
X0396059Y0111298D02*
X0373267Y0111298D01*
X0373227Y0109301D02*
X0396059Y0109301D01*
X0396059Y0110299D02*
X0369781Y0110299D01*
X0369780Y0109301D02*
X0368781Y0109301D01*
X0368781Y0108302D02*
X0369780Y0108302D01*
X0369780Y0107303D02*
X0368781Y0107303D01*
X0366570Y0107303D02*
X0365961Y0107303D01*
X0365961Y0106305D02*
X0396059Y0106305D01*
X0396059Y0107303D02*
X0371991Y0107303D01*
X0372810Y0108302D02*
X0396059Y0108302D01*
X0396059Y0105306D02*
X0365961Y0105306D01*
X0365961Y0104308D02*
X0396059Y0104308D01*
X0369780Y0111298D02*
X0368781Y0111298D01*
X0368781Y0112296D02*
X0369780Y0112296D01*
X0369780Y0113295D02*
X0368781Y0113295D01*
X0366434Y0113295D02*
X0365961Y0113295D01*
X0365961Y0115292D02*
X0396059Y0115292D01*
X0393371Y0116290D02*
X0365961Y0116290D01*
X0365961Y0117289D02*
X0391539Y0117289D01*
X0390093Y0118287D02*
X0365878Y0118287D01*
X0365301Y0119286D02*
X0389094Y0119286D01*
X0388172Y0120284D02*
X0366081Y0120284D01*
X0368012Y0121283D02*
X0387595Y0121283D01*
X0387019Y0122281D02*
X0369010Y0122281D01*
X0369890Y0123280D02*
X0386589Y0123280D01*
X0386322Y0124278D02*
X0370304Y0124278D01*
X0370718Y0125277D02*
X0386054Y0125277D01*
X0385909Y0126275D02*
X0370962Y0126275D01*
X0370962Y0127274D02*
X0385909Y0127274D01*
X0385909Y0128272D02*
X0370962Y0128272D01*
X0370801Y0129271D02*
X0386000Y0129271D01*
X0386267Y0130269D02*
X0370388Y0130269D01*
X0369974Y0131268D02*
X0386535Y0131268D01*
X0386902Y0132266D02*
X0369213Y0132266D01*
X0368214Y0133265D02*
X0387478Y0133265D01*
X0388055Y0134263D02*
X0366570Y0134263D01*
X0360180Y0134263D02*
X0337614Y0134263D01*
X0337728Y0135262D02*
X0388892Y0135262D01*
X0389890Y0136260D02*
X0337681Y0136260D01*
X0337268Y0137259D02*
X0391188Y0137259D01*
X0358536Y0133265D02*
X0337201Y0133265D01*
X0336327Y0132266D02*
X0357537Y0132266D01*
X0356776Y0131268D02*
X0101291Y0131268D01*
X0101291Y0132266D02*
X0239798Y0132266D01*
X0238924Y0133265D02*
X0101291Y0133265D01*
X0101291Y0134263D02*
X0238511Y0134263D01*
X0238397Y0135262D02*
X0101291Y0135262D01*
X0101291Y0136260D02*
X0238444Y0136260D01*
X0238857Y0137259D02*
X0101183Y0137259D01*
X0091817Y0137259D02*
X0088737Y0137259D01*
X0090015Y0136260D02*
X0091709Y0136260D01*
X0091709Y0135262D02*
X0090748Y0135262D01*
X0091162Y0134263D02*
X0091709Y0134263D01*
X0091709Y0133265D02*
X0091291Y0133265D01*
X0091291Y0132266D02*
X0091709Y0132266D01*
X0091709Y0131268D02*
X0090968Y0131268D01*
X0090544Y0130269D02*
X0091709Y0130269D01*
X0091709Y0129271D02*
X0089546Y0129271D01*
X0087604Y0128272D02*
X0092285Y0128272D01*
X0085396Y0128272D02*
X0084163Y0128272D01*
X0083165Y0127274D02*
X0238798Y0127274D01*
X0239012Y0127790D02*
X0238397Y0126304D01*
X0238397Y0124696D01*
X0239012Y0123210D01*
X0240150Y0122072D01*
X0241636Y0121457D01*
X0243244Y0121457D01*
X0244730Y0122072D01*
X0245868Y0123210D01*
X0246483Y0124696D01*
X0246483Y0126304D01*
X0245868Y0127790D01*
X0244730Y0128928D01*
X0243244Y0129543D01*
X0241636Y0129543D01*
X0240150Y0128928D01*
X0239012Y0127790D01*
X0239494Y0128272D02*
X0100714Y0128272D01*
X0101291Y0129271D02*
X0240978Y0129271D01*
X0243902Y0129271D02*
X0257994Y0129271D01*
X0257267Y0128272D02*
X0245386Y0128272D01*
X0246082Y0127274D02*
X0256826Y0127274D01*
X0256591Y0126275D02*
X0246483Y0126275D01*
X0246483Y0125277D02*
X0261625Y0125277D01*
X0261625Y0126275D02*
X0262625Y0126275D01*
X0262625Y0126000D02*
X0262625Y0131078D01*
X0263433Y0130950D01*
X0264270Y0130678D01*
X0265053Y0130279D01*
X0265765Y0129762D01*
X0266387Y0129140D01*
X0266904Y0128428D01*
X0267303Y0127645D01*
X0267575Y0126808D01*
X0267703Y0126000D01*
X0262625Y0126000D01*
X0262625Y0125277D02*
X0277767Y0125277D01*
X0277767Y0124696D02*
X0278382Y0123210D01*
X0279520Y0122072D01*
X0281006Y0121457D01*
X0282614Y0121457D01*
X0284100Y0122072D01*
X0285238Y0123210D01*
X0285853Y0124696D01*
X0285853Y0126304D01*
X0285238Y0127790D01*
X0284100Y0128928D01*
X0282614Y0129543D01*
X0281006Y0129543D01*
X0279520Y0128928D01*
X0278382Y0127790D01*
X0277767Y0126304D01*
X0277767Y0124696D01*
X0277940Y0124278D02*
X0267589Y0124278D01*
X0267265Y0123280D02*
X0278353Y0123280D01*
X0279311Y0122281D02*
X0266693Y0122281D01*
X0265809Y0121283D02*
X0306969Y0121283D01*
X0307967Y0122281D02*
X0296814Y0122281D01*
X0296605Y0122072D02*
X0297743Y0123210D01*
X0298358Y0124696D01*
X0298358Y0126304D01*
X0297743Y0127790D01*
X0296605Y0128928D01*
X0295119Y0129543D01*
X0293511Y0129543D01*
X0292025Y0128928D01*
X0290887Y0127790D01*
X0290272Y0126304D01*
X0290272Y0124696D01*
X0290887Y0123210D01*
X0292025Y0122072D01*
X0293511Y0121457D01*
X0295119Y0121457D01*
X0296605Y0122072D01*
X0297772Y0123280D02*
X0308860Y0123280D01*
X0308536Y0124278D02*
X0298185Y0124278D01*
X0298358Y0125277D02*
X0313500Y0125277D01*
X0313500Y0126275D02*
X0314500Y0126275D01*
X0314500Y0126000D02*
X0314500Y0131078D01*
X0315308Y0130950D01*
X0316145Y0130678D01*
X0316928Y0130279D01*
X0317640Y0129762D01*
X0318262Y0129140D01*
X0318779Y0128428D01*
X0319178Y0127645D01*
X0319450Y0126808D01*
X0319578Y0126000D01*
X0314500Y0126000D01*
X0314500Y0125277D02*
X0329642Y0125277D01*
X0329642Y0124696D02*
X0330257Y0123210D01*
X0331395Y0122072D01*
X0332881Y0121457D01*
X0334489Y0121457D01*
X0335975Y0122072D01*
X0337113Y0123210D01*
X0337728Y0124696D01*
X0337728Y0126304D01*
X0337113Y0127790D01*
X0335975Y0128928D01*
X0334489Y0129543D01*
X0332881Y0129543D01*
X0331395Y0128928D01*
X0330257Y0127790D01*
X0329642Y0126304D01*
X0329642Y0124696D01*
X0329815Y0124278D02*
X0319464Y0124278D01*
X0319140Y0123280D02*
X0330228Y0123280D01*
X0331186Y0122281D02*
X0318568Y0122281D01*
X0317684Y0121283D02*
X0358738Y0121283D01*
X0357740Y0122281D02*
X0336184Y0122281D01*
X0337142Y0123280D02*
X0356860Y0123280D01*
X0356446Y0124278D02*
X0337555Y0124278D01*
X0337728Y0125277D02*
X0356032Y0125277D01*
X0355788Y0126275D02*
X0337728Y0126275D01*
X0337327Y0127274D02*
X0355788Y0127274D01*
X0355788Y0128272D02*
X0336631Y0128272D01*
X0335147Y0129271D02*
X0355949Y0129271D01*
X0356362Y0130269D02*
X0316942Y0130269D01*
X0318131Y0129271D02*
X0332223Y0129271D01*
X0330739Y0128272D02*
X0318858Y0128272D01*
X0319299Y0127274D02*
X0330043Y0127274D01*
X0329642Y0126275D02*
X0319534Y0126275D01*
X0314500Y0127274D02*
X0313500Y0127274D01*
X0313500Y0128272D02*
X0314500Y0128272D01*
X0314500Y0129271D02*
X0313500Y0129271D01*
X0313500Y0130269D02*
X0314500Y0130269D01*
X0311058Y0130269D02*
X0265067Y0130269D01*
X0266256Y0129271D02*
X0280348Y0129271D01*
X0278864Y0128272D02*
X0266983Y0128272D01*
X0267424Y0127274D02*
X0278168Y0127274D01*
X0277767Y0126275D02*
X0267659Y0126275D01*
X0262625Y0127274D02*
X0261625Y0127274D01*
X0261625Y0128272D02*
X0262625Y0128272D01*
X0262625Y0129271D02*
X0261625Y0129271D01*
X0261625Y0130269D02*
X0262625Y0130269D01*
X0259183Y0130269D02*
X0101291Y0130269D01*
X0082166Y0126275D02*
X0238397Y0126275D01*
X0238397Y0125277D02*
X0081167Y0125277D01*
X0080169Y0124278D02*
X0238570Y0124278D01*
X0238983Y0123280D02*
X0080066Y0123280D01*
X0080066Y0122281D02*
X0184842Y0122281D01*
X0183844Y0121283D02*
X0080066Y0121283D01*
X0080066Y0120284D02*
X0183603Y0120284D01*
X0183603Y0119286D02*
X0080066Y0119286D01*
X0080066Y0118287D02*
X0183801Y0118287D01*
X0183603Y0117289D02*
X0080066Y0117289D01*
X0080066Y0116290D02*
X0183603Y0116290D01*
X0184519Y0115292D02*
X0080066Y0115292D01*
X0074809Y0117289D02*
X0028977Y0117289D01*
X0029976Y0116290D02*
X0074274Y0116290D01*
X0073276Y0115292D02*
X0030974Y0115292D01*
X0031973Y0114293D02*
X0072277Y0114293D01*
X0071279Y0113295D02*
X0032971Y0113295D01*
X0033970Y0112296D02*
X0070280Y0112296D01*
X0069282Y0111298D02*
X0034968Y0111298D01*
X0035967Y0110299D02*
X0068283Y0110299D01*
X0067285Y0109301D02*
X0036965Y0109301D01*
X0037964Y0108302D02*
X0066286Y0108302D01*
X0065288Y0107303D02*
X0041120Y0107303D01*
X0041889Y0106305D02*
X0064289Y0106305D01*
X0063291Y0105306D02*
X0042217Y0105306D01*
X0042217Y0104308D02*
X0062292Y0104308D01*
X0061294Y0103309D02*
X0041833Y0103309D01*
X0040985Y0102311D02*
X0060295Y0102311D01*
X0059297Y0101312D02*
X0040636Y0101312D01*
X0040967Y0100314D02*
X0058298Y0100314D01*
X0057300Y0099315D02*
X0040967Y0099315D01*
X0040586Y0098317D02*
X0056301Y0098317D01*
X0062211Y0096320D02*
X0071330Y0096320D01*
X0071330Y0097318D02*
X0063209Y0097318D01*
X0064208Y0098317D02*
X0071330Y0098317D01*
X0071330Y0099315D02*
X0065206Y0099315D01*
X0066205Y0100314D02*
X0071330Y0100314D01*
X0071330Y0101312D02*
X0067203Y0101312D01*
X0068202Y0102311D02*
X0071330Y0102311D01*
X0071330Y0103309D02*
X0069200Y0103309D01*
X0070199Y0104308D02*
X0071517Y0104308D01*
X0071330Y0095321D02*
X0061212Y0095321D01*
X0060214Y0094323D02*
X0071330Y0094323D01*
X0071380Y0093324D02*
X0059215Y0093324D01*
X0034914Y0098317D02*
X0026623Y0098317D01*
X0025624Y0099315D02*
X0034533Y0099315D01*
X0032923Y0102311D02*
X0025279Y0102311D01*
X0026278Y0103309D02*
X0031925Y0103309D01*
X0030926Y0104308D02*
X0027276Y0104308D01*
X0027418Y0105306D02*
X0029928Y0105306D01*
X0028929Y0106305D02*
X0023859Y0106305D01*
X0022891Y0106305D02*
X0017221Y0106305D01*
X0017221Y0107303D02*
X0019332Y0107303D01*
X0019834Y0108302D02*
X0016638Y0108302D01*
X0015639Y0109301D02*
X0020832Y0109301D01*
X0025918Y0109301D02*
X0025934Y0109301D01*
X0026916Y0108302D02*
X0026932Y0108302D01*
X0027418Y0107303D02*
X0027931Y0107303D01*
X0023859Y0105306D02*
X0022891Y0105306D01*
X0022891Y0104308D02*
X0023859Y0104308D01*
X0023859Y0103309D02*
X0022891Y0103309D01*
X0022891Y0102311D02*
X0023859Y0102311D01*
X0021471Y0102311D02*
X0015001Y0102311D01*
X0015999Y0103309D02*
X0020472Y0103309D01*
X0019474Y0104308D02*
X0016998Y0104308D01*
X0017221Y0105306D02*
X0019332Y0105306D01*
X0021126Y0099315D02*
X0015624Y0099315D01*
X0016623Y0098317D02*
X0020127Y0098317D01*
X0019529Y0097318D02*
X0017221Y0097318D01*
X0017221Y0096320D02*
X0019529Y0096320D01*
X0019529Y0095321D02*
X0017221Y0095321D01*
X0017568Y0094323D02*
X0019737Y0094323D01*
X0053609Y0080344D02*
X0054388Y0080344D01*
X0054388Y0079345D02*
X0053540Y0079345D01*
X0053540Y0078347D02*
X0054388Y0078347D01*
X0054888Y0077348D02*
X0053112Y0077348D01*
X0066112Y0078347D02*
X0073092Y0078347D01*
X0073092Y0079345D02*
X0066112Y0079345D01*
X0076473Y0073354D02*
X0082934Y0073354D01*
X0081172Y0072356D02*
X0078235Y0072356D01*
X0078235Y0071357D02*
X0081172Y0071357D01*
X0081172Y0070359D02*
X0078235Y0070359D01*
X0172250Y0100314D02*
X0173250Y0100314D01*
X0164573Y0103309D02*
X0159348Y0103309D01*
X0160373Y0104308D02*
X0163575Y0104308D01*
X0162974Y0105306D02*
X0160972Y0105306D01*
X0161297Y0106305D02*
X0162561Y0106305D01*
X0156911Y0105306D02*
X0155911Y0105306D01*
X0155911Y0104308D02*
X0156911Y0104308D01*
X0156911Y0103309D02*
X0155911Y0103309D01*
X0155911Y0108302D02*
X0156911Y0108302D01*
X0156911Y0109301D02*
X0155911Y0109301D01*
X0155911Y0110299D02*
X0156911Y0110299D01*
X0156911Y0111298D02*
X0155911Y0111298D01*
X0153373Y0111298D02*
X0129182Y0111298D01*
X0130673Y0110299D02*
X0152396Y0110299D01*
X0151813Y0109301D02*
X0131671Y0109301D01*
X0132561Y0108302D02*
X0151514Y0108302D01*
X0187231Y0115292D02*
X0255769Y0115292D01*
X0258481Y0115292D02*
X0307644Y0115292D01*
X0301018Y0110299D02*
X0297454Y0110299D01*
X0298453Y0109301D02*
X0300020Y0109301D01*
X0299353Y0108302D02*
X0299119Y0108302D01*
X0291176Y0110299D02*
X0284949Y0110299D01*
X0284864Y0110385D02*
X0282882Y0111205D01*
X0280738Y0111205D01*
X0278757Y0110385D01*
X0277240Y0108868D01*
X0276889Y0108020D01*
X0276537Y0108868D01*
X0275021Y0110385D01*
X0273040Y0111205D01*
X0270895Y0111205D01*
X0268914Y0110385D01*
X0267398Y0108868D01*
X0266577Y0106887D01*
X0266577Y0104743D01*
X0267398Y0102761D01*
X0268914Y0101245D01*
X0270895Y0100424D01*
X0273040Y0100424D01*
X0275021Y0101245D01*
X0276537Y0102761D01*
X0276889Y0103610D01*
X0277240Y0102761D01*
X0278757Y0101245D01*
X0280738Y0100424D01*
X0282882Y0100424D01*
X0284864Y0101245D01*
X0286380Y0102761D01*
X0287201Y0104743D01*
X0287201Y0106887D01*
X0286380Y0108868D01*
X0284864Y0110385D01*
X0285948Y0109301D02*
X0290177Y0109301D01*
X0289510Y0108302D02*
X0286615Y0108302D01*
X0287028Y0107303D02*
X0289097Y0107303D01*
X0288924Y0106305D02*
X0287201Y0106305D01*
X0287201Y0105306D02*
X0288924Y0105306D01*
X0289104Y0104308D02*
X0287020Y0104308D01*
X0286607Y0103309D02*
X0289518Y0103309D01*
X0290196Y0102311D02*
X0285929Y0102311D01*
X0284931Y0101312D02*
X0291194Y0101312D01*
X0297436Y0101312D02*
X0301037Y0101312D01*
X0300038Y0102311D02*
X0298434Y0102311D01*
X0299112Y0103309D02*
X0299361Y0103309D01*
X0278689Y0101312D02*
X0275088Y0101312D01*
X0276087Y0102311D02*
X0277691Y0102311D01*
X0277013Y0103309D02*
X0276764Y0103309D01*
X0268847Y0101312D02*
X0255403Y0101312D01*
X0256402Y0102311D02*
X0260019Y0102311D01*
X0259835Y0102387D02*
X0261321Y0101772D01*
X0262929Y0101772D01*
X0264415Y0102387D01*
X0265553Y0103525D01*
X0266168Y0105011D01*
X0266168Y0106619D01*
X0265553Y0108105D01*
X0264415Y0109243D01*
X0262929Y0109858D01*
X0261321Y0109858D01*
X0259835Y0109243D01*
X0258697Y0108105D01*
X0258082Y0106619D01*
X0258082Y0105011D01*
X0258697Y0103525D01*
X0259835Y0102387D01*
X0258912Y0103309D02*
X0257079Y0103309D01*
X0257493Y0104308D02*
X0258373Y0104308D01*
X0258082Y0105306D02*
X0257673Y0105306D01*
X0257673Y0106305D02*
X0258082Y0106305D01*
X0258365Y0107303D02*
X0257501Y0107303D01*
X0257087Y0108302D02*
X0258894Y0108302D01*
X0259974Y0109301D02*
X0256420Y0109301D01*
X0255422Y0110299D02*
X0268828Y0110299D01*
X0267830Y0109301D02*
X0264276Y0109301D01*
X0265356Y0108302D02*
X0267163Y0108302D01*
X0266749Y0107303D02*
X0265885Y0107303D01*
X0266168Y0106305D02*
X0266577Y0106305D01*
X0266577Y0105306D02*
X0266168Y0105306D01*
X0265877Y0104308D02*
X0266757Y0104308D01*
X0267171Y0103309D02*
X0265338Y0103309D01*
X0264231Y0102311D02*
X0267848Y0102311D01*
X0249162Y0101312D02*
X0245561Y0101312D01*
X0246559Y0102311D02*
X0248163Y0102311D01*
X0247486Y0103309D02*
X0247237Y0103309D01*
X0247244Y0108302D02*
X0247478Y0108302D01*
X0248145Y0109301D02*
X0246578Y0109301D01*
X0245579Y0110299D02*
X0249143Y0110299D01*
X0275107Y0110299D02*
X0278671Y0110299D01*
X0277672Y0109301D02*
X0276105Y0109301D01*
X0276772Y0108302D02*
X0277006Y0108302D01*
X0284309Y0122281D02*
X0291816Y0122281D01*
X0290858Y0123280D02*
X0285267Y0123280D01*
X0285680Y0124278D02*
X0290445Y0124278D01*
X0290272Y0125277D02*
X0285853Y0125277D01*
X0285853Y0126275D02*
X0290272Y0126275D01*
X0290673Y0127274D02*
X0285452Y0127274D01*
X0284756Y0128272D02*
X0291369Y0128272D01*
X0292853Y0129271D02*
X0283272Y0129271D01*
X0284452Y0132266D02*
X0291673Y0132266D01*
X0290799Y0133265D02*
X0285326Y0133265D01*
X0285739Y0134263D02*
X0290386Y0134263D01*
X0290272Y0135262D02*
X0285853Y0135262D01*
X0285806Y0136260D02*
X0290319Y0136260D01*
X0290732Y0137259D02*
X0285393Y0137259D01*
X0278227Y0137259D02*
X0246023Y0137259D01*
X0246436Y0136260D02*
X0277814Y0136260D01*
X0277767Y0135262D02*
X0246483Y0135262D01*
X0246369Y0134263D02*
X0277881Y0134263D01*
X0278294Y0133265D02*
X0245956Y0133265D01*
X0245082Y0132266D02*
X0279168Y0132266D01*
X0295777Y0129271D02*
X0309869Y0129271D01*
X0309142Y0128272D02*
X0297261Y0128272D01*
X0297957Y0127274D02*
X0308701Y0127274D01*
X0308466Y0126275D02*
X0298358Y0126275D01*
X0296957Y0132266D02*
X0331043Y0132266D01*
X0330169Y0133265D02*
X0297831Y0133265D01*
X0298244Y0134263D02*
X0329756Y0134263D01*
X0329642Y0135262D02*
X0298358Y0135262D01*
X0298311Y0136260D02*
X0329689Y0136260D01*
X0330102Y0137259D02*
X0297898Y0137259D01*
X0256661Y0124278D02*
X0246310Y0124278D01*
X0245897Y0123280D02*
X0256985Y0123280D01*
X0256092Y0122281D02*
X0244939Y0122281D01*
X0239941Y0122281D02*
X0186908Y0122281D01*
X0187906Y0121283D02*
X0255094Y0121283D01*
X0326963Y0101312D02*
X0330564Y0101312D01*
X0329566Y0102311D02*
X0327962Y0102311D01*
X0328639Y0103309D02*
X0328888Y0103309D01*
X0336806Y0101312D02*
X0354730Y0101312D01*
X0385899Y0090329D02*
X0393313Y0090329D01*
X0392314Y0089330D02*
X0387219Y0089330D01*
X0479350Y0116290D02*
X0491775Y0116290D01*
X0489927Y0117289D02*
X0481198Y0117289D01*
X0482536Y0118287D02*
X0488589Y0118287D01*
X0487566Y0119286D02*
X0483559Y0119286D01*
X0484367Y0120284D02*
X0486758Y0120284D01*
X0486112Y0121283D02*
X0485013Y0121283D01*
X0485532Y0122281D02*
X0485593Y0122281D01*
X0496000Y0120284D02*
X0497000Y0120284D01*
X0497000Y0119286D02*
X0496000Y0119286D01*
X0496000Y0118287D02*
X0497000Y0118287D01*
X0497000Y0117289D02*
X0496000Y0117289D01*
X0496000Y0116290D02*
X0497000Y0116290D01*
X0215853Y0011446D02*
X0194646Y0011446D01*
X0151075Y0016439D02*
X0150075Y0016439D01*
X0150075Y0017437D02*
X0151075Y0017437D01*
X0151075Y0018436D02*
X0150075Y0018436D01*
X0150075Y0019434D02*
X0151075Y0019434D01*
X0020766Y0113295D02*
X0018596Y0113295D01*
X0017598Y0114293D02*
X0019767Y0114293D01*
X0019529Y0115292D02*
X0017221Y0115292D01*
X0017221Y0116290D02*
X0019529Y0116290D01*
X0019529Y0117289D02*
X0017221Y0117289D01*
X0016653Y0118287D02*
X0020097Y0118287D01*
X0021096Y0119286D02*
X0015654Y0119286D01*
X0025654Y0119286D02*
X0074809Y0119286D01*
X0074809Y0118287D02*
X0026653Y0118287D01*
D26*
X0027750Y0116125D02*
X0023375Y0116125D01*
X0027750Y0116125D02*
X0039000Y0104875D01*
X0037750Y0099875D02*
X0026500Y0111125D01*
X0018375Y0111125D01*
X0013375Y0116125D01*
X0013375Y0096125D02*
X0017750Y0091750D01*
X0024625Y0091750D01*
X0027125Y0094250D01*
X0029000Y0094250D01*
X0057750Y0094250D01*
X0078375Y0114875D01*
X0078375Y0124875D01*
X0086500Y0133000D01*
X0076500Y0133000D02*
X0076500Y0116125D01*
X0056500Y0096125D01*
X0023375Y0096125D01*
X0057250Y0086125D02*
X0057250Y0083000D01*
X0053875Y0083000D01*
X0050875Y0080000D01*
X0057250Y0079875D02*
X0057250Y0083000D01*
X0063250Y0079875D02*
X0065125Y0081750D01*
X0073375Y0081750D01*
X0074782Y0080343D01*
X0074782Y0067252D01*
X0084625Y0067252D02*
X0084625Y0081464D01*
X0084625Y0082105D01*
X0121100Y0082105D01*
X0121100Y0083895D02*
X0120258Y0083895D01*
X0120186Y0083897D01*
X0120113Y0083903D01*
X0120042Y0083913D01*
X0119970Y0083926D01*
X0119900Y0083944D01*
X0119831Y0083965D01*
X0119763Y0083990D01*
X0119696Y0084019D01*
X0119631Y0084051D01*
X0119568Y0084087D01*
X0119507Y0084126D01*
X0119448Y0084168D01*
X0119392Y0084213D01*
X0119338Y0084262D01*
X0119287Y0084313D01*
X0119238Y0084367D01*
X0119193Y0084423D01*
X0119151Y0084482D01*
X0119112Y0084543D01*
X0119076Y0084606D01*
X0119044Y0084671D01*
X0119015Y0084738D01*
X0118990Y0084806D01*
X0118969Y0084875D01*
X0118951Y0084945D01*
X0118938Y0085017D01*
X0118928Y0085088D01*
X0118922Y0085161D01*
X0118920Y0085233D01*
X0118920Y0087069D01*
X0118918Y0087141D01*
X0118912Y0087214D01*
X0118902Y0087285D01*
X0118889Y0087357D01*
X0118871Y0087427D01*
X0118850Y0087496D01*
X0118825Y0087564D01*
X0118796Y0087631D01*
X0118764Y0087696D01*
X0118728Y0087759D01*
X0118689Y0087820D01*
X0118647Y0087879D01*
X0118602Y0087935D01*
X0118553Y0087989D01*
X0118502Y0088040D01*
X0118448Y0088089D01*
X0118392Y0088134D01*
X0118333Y0088176D01*
X0118272Y0088215D01*
X0118209Y0088251D01*
X0118144Y0088283D01*
X0118077Y0088312D01*
X0118009Y0088337D01*
X0117940Y0088358D01*
X0117870Y0088376D01*
X0117798Y0088389D01*
X0117727Y0088399D01*
X0117654Y0088405D01*
X0117582Y0088407D01*
X0116741Y0088407D01*
X0116669Y0088405D01*
X0116596Y0088399D01*
X0116525Y0088389D01*
X0116453Y0088376D01*
X0116383Y0088358D01*
X0116314Y0088337D01*
X0116246Y0088312D01*
X0116179Y0088283D01*
X0116114Y0088251D01*
X0116051Y0088215D01*
X0115990Y0088176D01*
X0115931Y0088134D01*
X0115875Y0088089D01*
X0115821Y0088040D01*
X0115770Y0087989D01*
X0115721Y0087935D01*
X0115676Y0087879D01*
X0115634Y0087820D01*
X0115595Y0087759D01*
X0115559Y0087696D01*
X0115527Y0087631D01*
X0115498Y0087564D01*
X0115473Y0087496D01*
X0115452Y0087427D01*
X0115434Y0087357D01*
X0115421Y0087285D01*
X0115411Y0087214D01*
X0115405Y0087141D01*
X0115403Y0087069D01*
X0115402Y0087069D02*
X0115402Y0085233D01*
X0115400Y0085161D01*
X0115394Y0085088D01*
X0115384Y0085017D01*
X0115371Y0084945D01*
X0115353Y0084875D01*
X0115332Y0084806D01*
X0115307Y0084738D01*
X0115278Y0084671D01*
X0115246Y0084606D01*
X0115210Y0084543D01*
X0115171Y0084482D01*
X0115129Y0084423D01*
X0115084Y0084367D01*
X0115035Y0084313D01*
X0114984Y0084262D01*
X0114930Y0084213D01*
X0114874Y0084168D01*
X0114815Y0084126D01*
X0114754Y0084087D01*
X0114691Y0084051D01*
X0114626Y0084019D01*
X0114559Y0083990D01*
X0114491Y0083965D01*
X0114422Y0083944D01*
X0114352Y0083926D01*
X0114280Y0083913D01*
X0114209Y0083903D01*
X0114136Y0083897D01*
X0114064Y0083895D01*
X0113223Y0083895D01*
X0113151Y0083897D01*
X0113078Y0083903D01*
X0113007Y0083913D01*
X0112935Y0083926D01*
X0112865Y0083944D01*
X0112796Y0083965D01*
X0112728Y0083990D01*
X0112661Y0084019D01*
X0112596Y0084051D01*
X0112533Y0084087D01*
X0112472Y0084126D01*
X0112413Y0084168D01*
X0112357Y0084213D01*
X0112303Y0084262D01*
X0112252Y0084313D01*
X0112203Y0084367D01*
X0112158Y0084423D01*
X0112116Y0084482D01*
X0112077Y0084543D01*
X0112041Y0084606D01*
X0112009Y0084671D01*
X0111980Y0084738D01*
X0111955Y0084806D01*
X0111934Y0084875D01*
X0111916Y0084945D01*
X0111903Y0085017D01*
X0111893Y0085088D01*
X0111887Y0085161D01*
X0111885Y0085233D01*
X0111885Y0087069D01*
X0111884Y0087069D02*
X0111882Y0087141D01*
X0111876Y0087214D01*
X0111866Y0087285D01*
X0111853Y0087357D01*
X0111835Y0087427D01*
X0111814Y0087496D01*
X0111789Y0087564D01*
X0111760Y0087631D01*
X0111728Y0087696D01*
X0111692Y0087759D01*
X0111653Y0087820D01*
X0111611Y0087879D01*
X0111566Y0087935D01*
X0111517Y0087989D01*
X0111466Y0088040D01*
X0111412Y0088089D01*
X0111356Y0088134D01*
X0111297Y0088176D01*
X0111236Y0088215D01*
X0111173Y0088251D01*
X0111108Y0088283D01*
X0111041Y0088312D01*
X0110973Y0088337D01*
X0110904Y0088358D01*
X0110834Y0088376D01*
X0110762Y0088389D01*
X0110691Y0088399D01*
X0110618Y0088405D01*
X0110546Y0088407D01*
X0109705Y0088407D01*
X0109633Y0088405D01*
X0109560Y0088399D01*
X0109489Y0088389D01*
X0109417Y0088376D01*
X0109347Y0088358D01*
X0109278Y0088337D01*
X0109210Y0088312D01*
X0109143Y0088283D01*
X0109078Y0088251D01*
X0109015Y0088215D01*
X0108954Y0088176D01*
X0108895Y0088134D01*
X0108839Y0088089D01*
X0108785Y0088040D01*
X0108734Y0087989D01*
X0108685Y0087935D01*
X0108640Y0087879D01*
X0108598Y0087820D01*
X0108559Y0087759D01*
X0108523Y0087696D01*
X0108491Y0087631D01*
X0108462Y0087564D01*
X0108437Y0087496D01*
X0108416Y0087427D01*
X0108398Y0087357D01*
X0108385Y0087285D01*
X0108375Y0087214D01*
X0108369Y0087141D01*
X0108367Y0087069D01*
X0108367Y0085233D01*
X0108365Y0085161D01*
X0108359Y0085088D01*
X0108349Y0085017D01*
X0108336Y0084945D01*
X0108318Y0084875D01*
X0108297Y0084806D01*
X0108272Y0084738D01*
X0108243Y0084671D01*
X0108211Y0084606D01*
X0108175Y0084543D01*
X0108136Y0084482D01*
X0108094Y0084423D01*
X0108049Y0084367D01*
X0108000Y0084313D01*
X0107949Y0084262D01*
X0107895Y0084213D01*
X0107839Y0084168D01*
X0107780Y0084126D01*
X0107719Y0084087D01*
X0107656Y0084051D01*
X0107591Y0084019D01*
X0107524Y0083990D01*
X0107456Y0083965D01*
X0107387Y0083944D01*
X0107317Y0083926D01*
X0107245Y0083913D01*
X0107174Y0083903D01*
X0107101Y0083897D01*
X0107029Y0083895D01*
X0084625Y0083895D01*
X0084625Y0084536D01*
X0084625Y0098748D01*
X0074782Y0098748D02*
X0074782Y0085657D01*
X0073375Y0084250D01*
X0065125Y0084250D01*
X0063250Y0086125D01*
X0121100Y0083895D02*
X0121172Y0083897D01*
X0121245Y0083903D01*
X0121316Y0083913D01*
X0121388Y0083926D01*
X0121458Y0083944D01*
X0121527Y0083965D01*
X0121595Y0083990D01*
X0121662Y0084019D01*
X0121727Y0084051D01*
X0121790Y0084087D01*
X0121851Y0084126D01*
X0121910Y0084168D01*
X0121966Y0084213D01*
X0122020Y0084262D01*
X0122071Y0084313D01*
X0122120Y0084367D01*
X0122165Y0084423D01*
X0122207Y0084482D01*
X0122246Y0084543D01*
X0122282Y0084606D01*
X0122314Y0084671D01*
X0122343Y0084738D01*
X0122368Y0084806D01*
X0122389Y0084875D01*
X0122407Y0084945D01*
X0122420Y0085017D01*
X0122430Y0085088D01*
X0122436Y0085161D01*
X0122438Y0085233D01*
X0122438Y0085278D01*
X0124229Y0085233D02*
X0124227Y0085121D01*
X0124221Y0085010D01*
X0124211Y0084899D01*
X0124197Y0084788D01*
X0124179Y0084677D01*
X0124157Y0084568D01*
X0124132Y0084459D01*
X0124102Y0084351D01*
X0124069Y0084245D01*
X0124032Y0084140D01*
X0123991Y0084036D01*
X0123946Y0083933D01*
X0123898Y0083832D01*
X0123846Y0083733D01*
X0123791Y0083636D01*
X0123732Y0083541D01*
X0123670Y0083448D01*
X0123605Y0083358D01*
X0123536Y0083270D01*
X0123465Y0083184D01*
X0123390Y0083101D01*
X0123313Y0083020D01*
X0123232Y0082943D01*
X0123149Y0082868D01*
X0123063Y0082797D01*
X0122975Y0082728D01*
X0122885Y0082663D01*
X0122792Y0082601D01*
X0122697Y0082542D01*
X0122600Y0082487D01*
X0122501Y0082435D01*
X0122400Y0082387D01*
X0122297Y0082342D01*
X0122193Y0082301D01*
X0122088Y0082264D01*
X0121982Y0082231D01*
X0121874Y0082201D01*
X0121765Y0082176D01*
X0121656Y0082154D01*
X0121545Y0082136D01*
X0121434Y0082122D01*
X0121323Y0082112D01*
X0121212Y0082106D01*
X0121100Y0082104D01*
X0124229Y0085233D02*
X0124231Y0085305D01*
X0124237Y0085378D01*
X0124247Y0085449D01*
X0124260Y0085521D01*
X0124278Y0085591D01*
X0124299Y0085660D01*
X0124324Y0085728D01*
X0124353Y0085795D01*
X0124385Y0085860D01*
X0124421Y0085923D01*
X0124460Y0085984D01*
X0124502Y0086043D01*
X0124547Y0086099D01*
X0124596Y0086153D01*
X0124647Y0086204D01*
X0124701Y0086253D01*
X0124757Y0086298D01*
X0124816Y0086340D01*
X0124877Y0086379D01*
X0124940Y0086415D01*
X0125005Y0086447D01*
X0125072Y0086476D01*
X0125140Y0086501D01*
X0125209Y0086522D01*
X0125279Y0086540D01*
X0125351Y0086553D01*
X0125422Y0086563D01*
X0125495Y0086569D01*
X0125567Y0086571D01*
X0125567Y0086572D02*
X0126408Y0086572D01*
X0126408Y0088407D02*
X0126520Y0088405D01*
X0126631Y0088399D01*
X0126742Y0088389D01*
X0126853Y0088375D01*
X0126964Y0088357D01*
X0127073Y0088335D01*
X0127182Y0088310D01*
X0127290Y0088280D01*
X0127396Y0088247D01*
X0127501Y0088210D01*
X0127605Y0088169D01*
X0127708Y0088124D01*
X0127809Y0088076D01*
X0127908Y0088024D01*
X0128005Y0087969D01*
X0128100Y0087910D01*
X0128193Y0087848D01*
X0128283Y0087783D01*
X0128371Y0087714D01*
X0128457Y0087643D01*
X0128540Y0087568D01*
X0128621Y0087491D01*
X0128698Y0087410D01*
X0128773Y0087327D01*
X0128844Y0087241D01*
X0128913Y0087153D01*
X0128978Y0087063D01*
X0129040Y0086970D01*
X0129099Y0086875D01*
X0129154Y0086778D01*
X0129206Y0086679D01*
X0129254Y0086578D01*
X0129299Y0086475D01*
X0129340Y0086371D01*
X0129377Y0086266D01*
X0129410Y0086160D01*
X0129440Y0086052D01*
X0129465Y0085943D01*
X0129487Y0085834D01*
X0129505Y0085723D01*
X0129519Y0085612D01*
X0129529Y0085501D01*
X0129535Y0085390D01*
X0129537Y0085278D01*
X0129537Y0085233D01*
X0129539Y0085161D01*
X0129545Y0085088D01*
X0129555Y0085017D01*
X0129568Y0084945D01*
X0129586Y0084875D01*
X0129607Y0084806D01*
X0129632Y0084738D01*
X0129661Y0084671D01*
X0129693Y0084606D01*
X0129729Y0084543D01*
X0129768Y0084482D01*
X0129810Y0084423D01*
X0129855Y0084367D01*
X0129904Y0084313D01*
X0129955Y0084262D01*
X0130009Y0084213D01*
X0130065Y0084168D01*
X0130124Y0084126D01*
X0130185Y0084087D01*
X0130248Y0084051D01*
X0130313Y0084019D01*
X0130380Y0083990D01*
X0130448Y0083965D01*
X0130517Y0083944D01*
X0130587Y0083926D01*
X0130659Y0083913D01*
X0130730Y0083903D01*
X0130803Y0083897D01*
X0130875Y0083895D01*
X0137583Y0083895D01*
X0137655Y0083897D01*
X0137728Y0083903D01*
X0137799Y0083913D01*
X0137871Y0083926D01*
X0137941Y0083944D01*
X0138010Y0083965D01*
X0138078Y0083990D01*
X0138145Y0084019D01*
X0138210Y0084051D01*
X0138273Y0084087D01*
X0138334Y0084126D01*
X0138393Y0084168D01*
X0138449Y0084213D01*
X0138503Y0084262D01*
X0138554Y0084313D01*
X0138603Y0084367D01*
X0138648Y0084423D01*
X0138690Y0084482D01*
X0138729Y0084543D01*
X0138765Y0084606D01*
X0138797Y0084671D01*
X0138826Y0084738D01*
X0138851Y0084806D01*
X0138872Y0084875D01*
X0138890Y0084945D01*
X0138903Y0085017D01*
X0138913Y0085088D01*
X0138919Y0085161D01*
X0138921Y0085233D01*
X0138923Y0085305D01*
X0138929Y0085378D01*
X0138939Y0085449D01*
X0138952Y0085521D01*
X0138970Y0085591D01*
X0138991Y0085660D01*
X0139016Y0085728D01*
X0139045Y0085795D01*
X0139077Y0085860D01*
X0139113Y0085923D01*
X0139152Y0085984D01*
X0139194Y0086043D01*
X0139239Y0086099D01*
X0139288Y0086153D01*
X0139339Y0086204D01*
X0139393Y0086253D01*
X0139449Y0086298D01*
X0139508Y0086340D01*
X0139569Y0086379D01*
X0139632Y0086415D01*
X0139697Y0086447D01*
X0139764Y0086476D01*
X0139832Y0086501D01*
X0139901Y0086522D01*
X0139971Y0086540D01*
X0140043Y0086553D01*
X0140114Y0086563D01*
X0140187Y0086569D01*
X0140259Y0086571D01*
X0140259Y0086572D02*
X0144449Y0086572D01*
X0144449Y0086571D02*
X0144521Y0086569D01*
X0144594Y0086563D01*
X0144665Y0086553D01*
X0144737Y0086540D01*
X0144807Y0086522D01*
X0144876Y0086501D01*
X0144944Y0086476D01*
X0145011Y0086447D01*
X0145076Y0086415D01*
X0145139Y0086379D01*
X0145200Y0086340D01*
X0145259Y0086298D01*
X0145315Y0086253D01*
X0145369Y0086204D01*
X0145420Y0086153D01*
X0145469Y0086099D01*
X0145514Y0086043D01*
X0145556Y0085984D01*
X0145595Y0085923D01*
X0145631Y0085860D01*
X0145663Y0085795D01*
X0145692Y0085728D01*
X0145717Y0085660D01*
X0145738Y0085591D01*
X0145756Y0085521D01*
X0145769Y0085449D01*
X0145779Y0085378D01*
X0145785Y0085305D01*
X0145787Y0085233D01*
X0145789Y0085161D01*
X0145795Y0085088D01*
X0145805Y0085017D01*
X0145818Y0084945D01*
X0145836Y0084875D01*
X0145857Y0084806D01*
X0145882Y0084738D01*
X0145911Y0084671D01*
X0145943Y0084606D01*
X0145979Y0084543D01*
X0146018Y0084482D01*
X0146060Y0084423D01*
X0146105Y0084367D01*
X0146154Y0084313D01*
X0146205Y0084262D01*
X0146259Y0084213D01*
X0146315Y0084168D01*
X0146374Y0084126D01*
X0146435Y0084087D01*
X0146498Y0084051D01*
X0146563Y0084019D01*
X0146630Y0083990D01*
X0146698Y0083965D01*
X0146767Y0083944D01*
X0146837Y0083926D01*
X0146909Y0083913D01*
X0146980Y0083903D01*
X0147053Y0083897D01*
X0147125Y0083895D01*
X0158004Y0083895D01*
X0161844Y0087736D01*
X0161844Y0096159D01*
X0167317Y0090676D02*
X0167317Y0107341D01*
X0185875Y0117149D02*
X0185875Y0117730D01*
X0257125Y0117730D01*
X0257125Y0117149D01*
X0257125Y0117730D02*
X0309000Y0117730D01*
X0309000Y0117149D01*
X0309000Y0117730D02*
X0361500Y0117730D01*
X0361770Y0119520D02*
X0361868Y0119518D01*
X0361966Y0119512D01*
X0362064Y0119503D01*
X0362161Y0119489D01*
X0362258Y0119472D01*
X0362354Y0119451D01*
X0362449Y0119426D01*
X0362543Y0119398D01*
X0362635Y0119365D01*
X0362727Y0119330D01*
X0362817Y0119290D01*
X0362905Y0119248D01*
X0362992Y0119201D01*
X0363076Y0119152D01*
X0363159Y0119099D01*
X0363239Y0119043D01*
X0363318Y0118983D01*
X0363394Y0118921D01*
X0363467Y0118856D01*
X0363538Y0118788D01*
X0363606Y0118717D01*
X0363671Y0118644D01*
X0363733Y0118568D01*
X0363793Y0118489D01*
X0363849Y0118409D01*
X0363902Y0118326D01*
X0363951Y0118242D01*
X0363998Y0118155D01*
X0364040Y0118067D01*
X0364080Y0117977D01*
X0364115Y0117885D01*
X0364148Y0117793D01*
X0364176Y0117699D01*
X0364201Y0117604D01*
X0364222Y0117508D01*
X0364239Y0117411D01*
X0364253Y0117314D01*
X0364262Y0117216D01*
X0364268Y0117118D01*
X0364270Y0117020D01*
X0364270Y0098556D01*
X0369281Y0098556D01*
X0364270Y0098556D02*
X0364270Y0053000D01*
X0362480Y0052730D02*
X0362482Y0052632D01*
X0362488Y0052534D01*
X0362497Y0052436D01*
X0362511Y0052339D01*
X0362528Y0052242D01*
X0362549Y0052146D01*
X0362574Y0052051D01*
X0362602Y0051957D01*
X0362635Y0051865D01*
X0362670Y0051773D01*
X0362710Y0051683D01*
X0362752Y0051595D01*
X0362799Y0051508D01*
X0362848Y0051424D01*
X0362901Y0051341D01*
X0362957Y0051261D01*
X0363017Y0051182D01*
X0363079Y0051106D01*
X0363144Y0051033D01*
X0363212Y0050962D01*
X0363283Y0050894D01*
X0363356Y0050829D01*
X0363432Y0050767D01*
X0363511Y0050707D01*
X0363591Y0050651D01*
X0363674Y0050598D01*
X0363758Y0050549D01*
X0363845Y0050502D01*
X0363933Y0050460D01*
X0364023Y0050420D01*
X0364115Y0050385D01*
X0364207Y0050352D01*
X0364301Y0050324D01*
X0364396Y0050299D01*
X0364492Y0050278D01*
X0364589Y0050261D01*
X0364686Y0050247D01*
X0364784Y0050238D01*
X0364882Y0050232D01*
X0364980Y0050230D01*
X0437125Y0050230D01*
X0437395Y0052020D02*
X0437493Y0052018D01*
X0437591Y0052012D01*
X0437689Y0052003D01*
X0437786Y0051989D01*
X0437883Y0051972D01*
X0437979Y0051951D01*
X0438074Y0051926D01*
X0438168Y0051898D01*
X0438260Y0051865D01*
X0438352Y0051830D01*
X0438442Y0051790D01*
X0438530Y0051748D01*
X0438617Y0051701D01*
X0438701Y0051652D01*
X0438784Y0051599D01*
X0438864Y0051543D01*
X0438943Y0051483D01*
X0439019Y0051421D01*
X0439092Y0051356D01*
X0439163Y0051288D01*
X0439231Y0051217D01*
X0439296Y0051144D01*
X0439358Y0051068D01*
X0439418Y0050989D01*
X0439474Y0050909D01*
X0439527Y0050826D01*
X0439576Y0050742D01*
X0439623Y0050655D01*
X0439665Y0050567D01*
X0439705Y0050477D01*
X0439740Y0050385D01*
X0439773Y0050293D01*
X0439801Y0050199D01*
X0439826Y0050104D01*
X0439847Y0050008D01*
X0439864Y0049911D01*
X0439878Y0049814D01*
X0439887Y0049716D01*
X0439893Y0049618D01*
X0439895Y0049520D01*
X0439895Y0029250D01*
X0439897Y0029182D01*
X0439902Y0029115D01*
X0439911Y0029048D01*
X0439924Y0028981D01*
X0439941Y0028916D01*
X0439960Y0028851D01*
X0439984Y0028787D01*
X0440011Y0028725D01*
X0440041Y0028664D01*
X0440074Y0028606D01*
X0440110Y0028549D01*
X0440150Y0028494D01*
X0440192Y0028441D01*
X0440238Y0028390D01*
X0440285Y0028343D01*
X0440336Y0028297D01*
X0440389Y0028255D01*
X0440444Y0028215D01*
X0440501Y0028179D01*
X0440559Y0028146D01*
X0440620Y0028116D01*
X0440682Y0028089D01*
X0440746Y0028065D01*
X0440811Y0028046D01*
X0440876Y0028029D01*
X0440943Y0028016D01*
X0441010Y0028007D01*
X0441077Y0028002D01*
X0441145Y0028000D01*
X0472750Y0028000D01*
X0438105Y0029250D02*
X0438105Y0049250D01*
X0438103Y0049312D01*
X0438097Y0049373D01*
X0438088Y0049434D01*
X0438074Y0049494D01*
X0438057Y0049553D01*
X0438036Y0049611D01*
X0438012Y0049667D01*
X0437984Y0049722D01*
X0437952Y0049775D01*
X0437918Y0049826D01*
X0437880Y0049875D01*
X0437839Y0049921D01*
X0437796Y0049964D01*
X0437750Y0050005D01*
X0437701Y0050043D01*
X0437650Y0050077D01*
X0437597Y0050109D01*
X0437542Y0050137D01*
X0437486Y0050161D01*
X0437428Y0050182D01*
X0437369Y0050199D01*
X0437309Y0050213D01*
X0437248Y0050222D01*
X0437187Y0050228D01*
X0437125Y0050230D01*
X0437395Y0052020D02*
X0365250Y0052020D01*
X0365188Y0052022D01*
X0365127Y0052028D01*
X0365066Y0052037D01*
X0365006Y0052051D01*
X0364947Y0052068D01*
X0364889Y0052089D01*
X0364833Y0052113D01*
X0364778Y0052141D01*
X0364725Y0052173D01*
X0364674Y0052207D01*
X0364625Y0052245D01*
X0364579Y0052286D01*
X0364536Y0052329D01*
X0364495Y0052375D01*
X0364457Y0052424D01*
X0364423Y0052475D01*
X0364391Y0052528D01*
X0364363Y0052583D01*
X0364339Y0052639D01*
X0364318Y0052697D01*
X0364301Y0052756D01*
X0364287Y0052816D01*
X0364278Y0052877D01*
X0364272Y0052938D01*
X0364270Y0053000D01*
X0362480Y0052730D02*
X0362480Y0098556D01*
X0362480Y0116750D01*
X0362478Y0116812D01*
X0362472Y0116873D01*
X0362463Y0116934D01*
X0362449Y0116994D01*
X0362432Y0117053D01*
X0362411Y0117111D01*
X0362387Y0117167D01*
X0362359Y0117222D01*
X0362327Y0117275D01*
X0362293Y0117326D01*
X0362255Y0117375D01*
X0362214Y0117421D01*
X0362171Y0117464D01*
X0362125Y0117505D01*
X0362076Y0117543D01*
X0362025Y0117577D01*
X0361972Y0117609D01*
X0361917Y0117637D01*
X0361861Y0117661D01*
X0361803Y0117682D01*
X0361744Y0117699D01*
X0361684Y0117713D01*
X0361623Y0117722D01*
X0361562Y0117728D01*
X0361500Y0117730D01*
X0361770Y0119520D02*
X0309000Y0119520D01*
X0257125Y0119520D01*
X0185875Y0119520D01*
X0185875Y0120101D01*
X0186456Y0117730D02*
X0186410Y0117728D01*
X0186365Y0117723D01*
X0186320Y0117714D01*
X0186276Y0117702D01*
X0186234Y0117686D01*
X0186192Y0117667D01*
X0186152Y0117644D01*
X0186114Y0117619D01*
X0186079Y0117591D01*
X0186045Y0117560D01*
X0186014Y0117526D01*
X0185986Y0117491D01*
X0185961Y0117453D01*
X0185938Y0117413D01*
X0185919Y0117371D01*
X0185903Y0117329D01*
X0185891Y0117285D01*
X0185882Y0117240D01*
X0185877Y0117195D01*
X0185875Y0117149D01*
X0257125Y0119520D02*
X0257125Y0120101D01*
X0309000Y0120101D02*
X0309000Y0119520D01*
X0357469Y0098556D02*
X0362480Y0098556D01*
X0384625Y0087375D02*
X0392750Y0087375D01*
X0397750Y0092375D01*
X0397750Y0127375D01*
X0423375Y0127375D02*
X0423375Y0109250D01*
X0396500Y0082375D01*
X0384625Y0082375D01*
X0438105Y0029250D02*
X0438103Y0029182D01*
X0438098Y0029115D01*
X0438089Y0029048D01*
X0438076Y0028981D01*
X0438059Y0028916D01*
X0438040Y0028851D01*
X0438016Y0028787D01*
X0437989Y0028725D01*
X0437959Y0028664D01*
X0437926Y0028606D01*
X0437890Y0028549D01*
X0437850Y0028494D01*
X0437808Y0028441D01*
X0437762Y0028390D01*
X0437715Y0028343D01*
X0437664Y0028297D01*
X0437611Y0028255D01*
X0437556Y0028215D01*
X0437499Y0028179D01*
X0437441Y0028146D01*
X0437380Y0028116D01*
X0437318Y0028089D01*
X0437254Y0028065D01*
X0437189Y0028046D01*
X0437124Y0028029D01*
X0437057Y0028016D01*
X0436990Y0028007D01*
X0436923Y0028002D01*
X0436855Y0028000D01*
X0405875Y0028000D01*
X0167317Y0090676D02*
X0158746Y0082105D01*
X0130875Y0082105D01*
X0130875Y0082104D02*
X0130763Y0082106D01*
X0130652Y0082112D01*
X0130541Y0082122D01*
X0130430Y0082136D01*
X0130319Y0082154D01*
X0130210Y0082176D01*
X0130101Y0082201D01*
X0129993Y0082231D01*
X0129887Y0082264D01*
X0129782Y0082301D01*
X0129678Y0082342D01*
X0129575Y0082387D01*
X0129474Y0082435D01*
X0129375Y0082487D01*
X0129278Y0082542D01*
X0129183Y0082601D01*
X0129090Y0082663D01*
X0129000Y0082728D01*
X0128912Y0082797D01*
X0128826Y0082868D01*
X0128743Y0082943D01*
X0128662Y0083020D01*
X0128585Y0083101D01*
X0128510Y0083184D01*
X0128439Y0083270D01*
X0128370Y0083358D01*
X0128305Y0083448D01*
X0128243Y0083541D01*
X0128184Y0083636D01*
X0128129Y0083733D01*
X0128077Y0083832D01*
X0128029Y0083933D01*
X0127984Y0084036D01*
X0127943Y0084140D01*
X0127906Y0084245D01*
X0127873Y0084351D01*
X0127843Y0084459D01*
X0127818Y0084568D01*
X0127796Y0084677D01*
X0127778Y0084788D01*
X0127764Y0084899D01*
X0127754Y0085010D01*
X0127748Y0085121D01*
X0127746Y0085233D01*
X0127744Y0085305D01*
X0127738Y0085378D01*
X0127728Y0085449D01*
X0127715Y0085521D01*
X0127697Y0085591D01*
X0127676Y0085660D01*
X0127651Y0085728D01*
X0127622Y0085795D01*
X0127590Y0085860D01*
X0127554Y0085923D01*
X0127515Y0085984D01*
X0127473Y0086043D01*
X0127428Y0086099D01*
X0127379Y0086153D01*
X0127328Y0086204D01*
X0127274Y0086253D01*
X0127218Y0086298D01*
X0127159Y0086340D01*
X0127098Y0086379D01*
X0127035Y0086415D01*
X0126970Y0086447D01*
X0126903Y0086476D01*
X0126835Y0086501D01*
X0126766Y0086522D01*
X0126696Y0086540D01*
X0126624Y0086553D01*
X0126553Y0086563D01*
X0126480Y0086569D01*
X0126408Y0086571D01*
X0125567Y0088407D02*
X0125455Y0088405D01*
X0125344Y0088399D01*
X0125233Y0088389D01*
X0125122Y0088375D01*
X0125011Y0088357D01*
X0124902Y0088335D01*
X0124793Y0088310D01*
X0124685Y0088280D01*
X0124579Y0088247D01*
X0124474Y0088210D01*
X0124370Y0088169D01*
X0124267Y0088124D01*
X0124166Y0088076D01*
X0124067Y0088024D01*
X0123970Y0087969D01*
X0123875Y0087910D01*
X0123782Y0087848D01*
X0123692Y0087783D01*
X0123604Y0087714D01*
X0123518Y0087643D01*
X0123435Y0087568D01*
X0123354Y0087491D01*
X0123277Y0087410D01*
X0123202Y0087327D01*
X0123131Y0087241D01*
X0123062Y0087153D01*
X0122997Y0087063D01*
X0122935Y0086970D01*
X0122876Y0086875D01*
X0122821Y0086778D01*
X0122769Y0086679D01*
X0122721Y0086578D01*
X0122676Y0086475D01*
X0122635Y0086371D01*
X0122598Y0086266D01*
X0122565Y0086160D01*
X0122535Y0086052D01*
X0122510Y0085943D01*
X0122488Y0085834D01*
X0122470Y0085723D01*
X0122456Y0085612D01*
X0122446Y0085501D01*
X0122440Y0085390D01*
X0122438Y0085278D01*
X0125567Y0088407D02*
X0126408Y0088407D01*
D27*
X0039000Y0104875D03*
X0037750Y0099875D03*
X0384625Y0087375D03*
X0384625Y0082375D03*
D28*
X0449000Y0100082D02*
X0449000Y0127375D01*
X0449000Y0100082D02*
X0468582Y0080500D01*
D29*
X0084625Y0081464D03*
X0084625Y0084536D03*
D30*
X0185875Y0117149D03*
X0185875Y0120101D03*
X0257125Y0120101D03*
X0257125Y0117149D03*
X0309000Y0117149D03*
X0309000Y0120101D03*
D31*
X0309000Y0118000D02*
X0309000Y0117149D01*
M02*
