G75*
G70*
%OFA0B0*%
%FSLAX24Y24*%
%IPPOS*%
%LPD*%
%AMOC8*
5,1,8,0,0,1.08239X$1,22.5*
%
%ADD10C,0.0000*%
%ADD11C,0.0060*%
%ADD12C,0.0160*%
%ADD13C,0.0100*%
%ADD14C,0.0050*%
%ADD15C,0.0080*%
%ADD16C,0.0090*%
%ADD17C,0.0040*%
%ADD18R,0.0158X0.0551*%
%ADD19C,0.0020*%
%ADD20R,0.0660X0.0380*%
%ADD21C,0.0010*%
%ADD22R,0.2441X0.0492*%
%ADD23C,0.0070*%
D10*
X005581Y003913D02*
X005581Y033472D01*
X084321Y033472D01*
X084321Y003913D01*
X005581Y003913D01*
X006615Y005538D02*
X006617Y005586D01*
X006623Y005634D01*
X006633Y005681D01*
X006646Y005727D01*
X006664Y005772D01*
X006684Y005816D01*
X006709Y005858D01*
X006737Y005897D01*
X006767Y005934D01*
X006801Y005968D01*
X006838Y006000D01*
X006876Y006029D01*
X006917Y006054D01*
X006960Y006076D01*
X007005Y006094D01*
X007051Y006108D01*
X007098Y006119D01*
X007146Y006126D01*
X007194Y006129D01*
X007242Y006128D01*
X007290Y006123D01*
X007338Y006114D01*
X007384Y006102D01*
X007429Y006085D01*
X007473Y006065D01*
X007515Y006042D01*
X007555Y006015D01*
X007593Y005985D01*
X007628Y005952D01*
X007660Y005916D01*
X007690Y005878D01*
X007716Y005837D01*
X007738Y005794D01*
X007758Y005750D01*
X007773Y005705D01*
X007785Y005658D01*
X007793Y005610D01*
X007797Y005562D01*
X007797Y005514D01*
X007793Y005466D01*
X007785Y005418D01*
X007773Y005371D01*
X007758Y005326D01*
X007738Y005282D01*
X007716Y005239D01*
X007690Y005198D01*
X007660Y005160D01*
X007628Y005124D01*
X007593Y005091D01*
X007555Y005061D01*
X007515Y005034D01*
X007473Y005011D01*
X007429Y004991D01*
X007384Y004974D01*
X007338Y004962D01*
X007290Y004953D01*
X007242Y004948D01*
X007194Y004947D01*
X007146Y004950D01*
X007098Y004957D01*
X007051Y004968D01*
X007005Y004982D01*
X006960Y005000D01*
X006917Y005022D01*
X006876Y005047D01*
X006838Y005076D01*
X006801Y005108D01*
X006767Y005142D01*
X006737Y005179D01*
X006709Y005218D01*
X006684Y005260D01*
X006664Y005304D01*
X006646Y005349D01*
X006633Y005395D01*
X006623Y005442D01*
X006617Y005490D01*
X006615Y005538D01*
X006615Y031788D02*
X006617Y031836D01*
X006623Y031884D01*
X006633Y031931D01*
X006646Y031977D01*
X006664Y032022D01*
X006684Y032066D01*
X006709Y032108D01*
X006737Y032147D01*
X006767Y032184D01*
X006801Y032218D01*
X006838Y032250D01*
X006876Y032279D01*
X006917Y032304D01*
X006960Y032326D01*
X007005Y032344D01*
X007051Y032358D01*
X007098Y032369D01*
X007146Y032376D01*
X007194Y032379D01*
X007242Y032378D01*
X007290Y032373D01*
X007338Y032364D01*
X007384Y032352D01*
X007429Y032335D01*
X007473Y032315D01*
X007515Y032292D01*
X007555Y032265D01*
X007593Y032235D01*
X007628Y032202D01*
X007660Y032166D01*
X007690Y032128D01*
X007716Y032087D01*
X007738Y032044D01*
X007758Y032000D01*
X007773Y031955D01*
X007785Y031908D01*
X007793Y031860D01*
X007797Y031812D01*
X007797Y031764D01*
X007793Y031716D01*
X007785Y031668D01*
X007773Y031621D01*
X007758Y031576D01*
X007738Y031532D01*
X007716Y031489D01*
X007690Y031448D01*
X007660Y031410D01*
X007628Y031374D01*
X007593Y031341D01*
X007555Y031311D01*
X007515Y031284D01*
X007473Y031261D01*
X007429Y031241D01*
X007384Y031224D01*
X007338Y031212D01*
X007290Y031203D01*
X007242Y031198D01*
X007194Y031197D01*
X007146Y031200D01*
X007098Y031207D01*
X007051Y031218D01*
X007005Y031232D01*
X006960Y031250D01*
X006917Y031272D01*
X006876Y031297D01*
X006838Y031326D01*
X006801Y031358D01*
X006767Y031392D01*
X006737Y031429D01*
X006709Y031468D01*
X006684Y031510D01*
X006664Y031554D01*
X006646Y031599D01*
X006633Y031645D01*
X006623Y031692D01*
X006617Y031740D01*
X006615Y031788D01*
X061865Y010413D02*
X061867Y010461D01*
X061873Y010509D01*
X061883Y010556D01*
X061896Y010602D01*
X061914Y010647D01*
X061934Y010691D01*
X061959Y010733D01*
X061987Y010772D01*
X062017Y010809D01*
X062051Y010843D01*
X062088Y010875D01*
X062126Y010904D01*
X062167Y010929D01*
X062210Y010951D01*
X062255Y010969D01*
X062301Y010983D01*
X062348Y010994D01*
X062396Y011001D01*
X062444Y011004D01*
X062492Y011003D01*
X062540Y010998D01*
X062588Y010989D01*
X062634Y010977D01*
X062679Y010960D01*
X062723Y010940D01*
X062765Y010917D01*
X062805Y010890D01*
X062843Y010860D01*
X062878Y010827D01*
X062910Y010791D01*
X062940Y010753D01*
X062966Y010712D01*
X062988Y010669D01*
X063008Y010625D01*
X063023Y010580D01*
X063035Y010533D01*
X063043Y010485D01*
X063047Y010437D01*
X063047Y010389D01*
X063043Y010341D01*
X063035Y010293D01*
X063023Y010246D01*
X063008Y010201D01*
X062988Y010157D01*
X062966Y010114D01*
X062940Y010073D01*
X062910Y010035D01*
X062878Y009999D01*
X062843Y009966D01*
X062805Y009936D01*
X062765Y009909D01*
X062723Y009886D01*
X062679Y009866D01*
X062634Y009849D01*
X062588Y009837D01*
X062540Y009828D01*
X062492Y009823D01*
X062444Y009822D01*
X062396Y009825D01*
X062348Y009832D01*
X062301Y009843D01*
X062255Y009857D01*
X062210Y009875D01*
X062167Y009897D01*
X062126Y009922D01*
X062088Y009951D01*
X062051Y009983D01*
X062017Y010017D01*
X061987Y010054D01*
X061959Y010093D01*
X061934Y010135D01*
X061914Y010179D01*
X061896Y010224D01*
X061883Y010270D01*
X061873Y010317D01*
X061867Y010365D01*
X061865Y010413D01*
X082115Y005538D02*
X082117Y005586D01*
X082123Y005634D01*
X082133Y005681D01*
X082146Y005727D01*
X082164Y005772D01*
X082184Y005816D01*
X082209Y005858D01*
X082237Y005897D01*
X082267Y005934D01*
X082301Y005968D01*
X082338Y006000D01*
X082376Y006029D01*
X082417Y006054D01*
X082460Y006076D01*
X082505Y006094D01*
X082551Y006108D01*
X082598Y006119D01*
X082646Y006126D01*
X082694Y006129D01*
X082742Y006128D01*
X082790Y006123D01*
X082838Y006114D01*
X082884Y006102D01*
X082929Y006085D01*
X082973Y006065D01*
X083015Y006042D01*
X083055Y006015D01*
X083093Y005985D01*
X083128Y005952D01*
X083160Y005916D01*
X083190Y005878D01*
X083216Y005837D01*
X083238Y005794D01*
X083258Y005750D01*
X083273Y005705D01*
X083285Y005658D01*
X083293Y005610D01*
X083297Y005562D01*
X083297Y005514D01*
X083293Y005466D01*
X083285Y005418D01*
X083273Y005371D01*
X083258Y005326D01*
X083238Y005282D01*
X083216Y005239D01*
X083190Y005198D01*
X083160Y005160D01*
X083128Y005124D01*
X083093Y005091D01*
X083055Y005061D01*
X083015Y005034D01*
X082973Y005011D01*
X082929Y004991D01*
X082884Y004974D01*
X082838Y004962D01*
X082790Y004953D01*
X082742Y004948D01*
X082694Y004947D01*
X082646Y004950D01*
X082598Y004957D01*
X082551Y004968D01*
X082505Y004982D01*
X082460Y005000D01*
X082417Y005022D01*
X082376Y005047D01*
X082338Y005076D01*
X082301Y005108D01*
X082267Y005142D01*
X082237Y005179D01*
X082209Y005218D01*
X082184Y005260D01*
X082164Y005304D01*
X082146Y005349D01*
X082133Y005395D01*
X082123Y005442D01*
X082117Y005490D01*
X082115Y005538D01*
X082115Y031788D02*
X082117Y031836D01*
X082123Y031884D01*
X082133Y031931D01*
X082146Y031977D01*
X082164Y032022D01*
X082184Y032066D01*
X082209Y032108D01*
X082237Y032147D01*
X082267Y032184D01*
X082301Y032218D01*
X082338Y032250D01*
X082376Y032279D01*
X082417Y032304D01*
X082460Y032326D01*
X082505Y032344D01*
X082551Y032358D01*
X082598Y032369D01*
X082646Y032376D01*
X082694Y032379D01*
X082742Y032378D01*
X082790Y032373D01*
X082838Y032364D01*
X082884Y032352D01*
X082929Y032335D01*
X082973Y032315D01*
X083015Y032292D01*
X083055Y032265D01*
X083093Y032235D01*
X083128Y032202D01*
X083160Y032166D01*
X083190Y032128D01*
X083216Y032087D01*
X083238Y032044D01*
X083258Y032000D01*
X083273Y031955D01*
X083285Y031908D01*
X083293Y031860D01*
X083297Y031812D01*
X083297Y031764D01*
X083293Y031716D01*
X083285Y031668D01*
X083273Y031621D01*
X083258Y031576D01*
X083238Y031532D01*
X083216Y031489D01*
X083190Y031448D01*
X083160Y031410D01*
X083128Y031374D01*
X083093Y031341D01*
X083055Y031311D01*
X083015Y031284D01*
X082973Y031261D01*
X082929Y031241D01*
X082884Y031224D01*
X082838Y031212D01*
X082790Y031203D01*
X082742Y031198D01*
X082694Y031197D01*
X082646Y031200D01*
X082598Y031207D01*
X082551Y031218D01*
X082505Y031232D01*
X082460Y031250D01*
X082417Y031272D01*
X082376Y031297D01*
X082338Y031326D01*
X082301Y031358D01*
X082267Y031392D01*
X082237Y031429D01*
X082209Y031468D01*
X082184Y031510D01*
X082164Y031554D01*
X082146Y031599D01*
X082133Y031645D01*
X082123Y031692D01*
X082117Y031740D01*
X082115Y031788D01*
D11*
X061105Y030299D02*
X061105Y026527D01*
X059307Y026527D01*
X059307Y030299D01*
X061105Y030299D01*
X059546Y027005D02*
X059548Y027031D01*
X059554Y027057D01*
X059563Y027081D01*
X059576Y027104D01*
X059592Y027125D01*
X059611Y027143D01*
X059632Y027159D01*
X059656Y027171D01*
X059680Y027179D01*
X059706Y027184D01*
X059733Y027185D01*
X059759Y027182D01*
X059784Y027175D01*
X059808Y027165D01*
X059831Y027151D01*
X059851Y027135D01*
X059868Y027115D01*
X059883Y027093D01*
X059894Y027069D01*
X059902Y027044D01*
X059906Y027018D01*
X059906Y026992D01*
X059902Y026966D01*
X059894Y026941D01*
X059883Y026917D01*
X059868Y026895D01*
X059851Y026875D01*
X059831Y026859D01*
X059808Y026845D01*
X059784Y026835D01*
X059759Y026828D01*
X059733Y026825D01*
X059706Y026826D01*
X059680Y026831D01*
X059656Y026839D01*
X059632Y026851D01*
X059611Y026867D01*
X059592Y026885D01*
X059576Y026906D01*
X059563Y026929D01*
X059554Y026953D01*
X059548Y026979D01*
X059546Y027005D01*
X046105Y028799D02*
X046105Y025027D01*
X044307Y025027D01*
X044307Y028799D01*
X046105Y028799D01*
X044546Y025505D02*
X044548Y025531D01*
X044554Y025557D01*
X044563Y025581D01*
X044576Y025604D01*
X044592Y025625D01*
X044611Y025643D01*
X044632Y025659D01*
X044656Y025671D01*
X044680Y025679D01*
X044706Y025684D01*
X044733Y025685D01*
X044759Y025682D01*
X044784Y025675D01*
X044808Y025665D01*
X044831Y025651D01*
X044851Y025635D01*
X044868Y025615D01*
X044883Y025593D01*
X044894Y025569D01*
X044902Y025544D01*
X044906Y025518D01*
X044906Y025492D01*
X044902Y025466D01*
X044894Y025441D01*
X044883Y025417D01*
X044868Y025395D01*
X044851Y025375D01*
X044831Y025359D01*
X044808Y025345D01*
X044784Y025335D01*
X044759Y025328D01*
X044733Y025325D01*
X044706Y025326D01*
X044680Y025331D01*
X044656Y025339D01*
X044632Y025351D01*
X044611Y025367D01*
X044592Y025385D01*
X044576Y025406D01*
X044563Y025429D01*
X044554Y025453D01*
X044548Y025479D01*
X044546Y025505D01*
X031105Y026527D02*
X029307Y026527D01*
X029307Y030299D01*
X031105Y030299D01*
X031105Y026527D01*
X029546Y027005D02*
X029548Y027031D01*
X029554Y027057D01*
X029563Y027081D01*
X029576Y027104D01*
X029592Y027125D01*
X029611Y027143D01*
X029632Y027159D01*
X029656Y027171D01*
X029680Y027179D01*
X029706Y027184D01*
X029733Y027185D01*
X029759Y027182D01*
X029784Y027175D01*
X029808Y027165D01*
X029831Y027151D01*
X029851Y027135D01*
X029868Y027115D01*
X029883Y027093D01*
X029894Y027069D01*
X029902Y027044D01*
X029906Y027018D01*
X029906Y026992D01*
X029902Y026966D01*
X029894Y026941D01*
X029883Y026917D01*
X029868Y026895D01*
X029851Y026875D01*
X029831Y026859D01*
X029808Y026845D01*
X029784Y026835D01*
X029759Y026828D01*
X029733Y026825D01*
X029706Y026826D01*
X029680Y026831D01*
X029656Y026839D01*
X029632Y026851D01*
X029611Y026867D01*
X029592Y026885D01*
X029576Y026906D01*
X029563Y026929D01*
X029554Y026953D01*
X029548Y026979D01*
X029546Y027005D01*
X032029Y019081D02*
X031986Y019037D01*
X031986Y018951D01*
X032029Y018907D01*
X032116Y018907D02*
X032159Y018994D01*
X032159Y019037D01*
X032116Y019081D01*
X032029Y019081D01*
X032116Y018907D02*
X032246Y018907D01*
X032246Y019081D01*
X032246Y018699D02*
X031986Y018699D01*
X031986Y018613D02*
X031986Y018786D01*
X032159Y018613D02*
X032246Y018699D01*
X032203Y018491D02*
X032246Y018448D01*
X032246Y018361D01*
X032203Y018318D01*
X032029Y018318D01*
X031986Y018361D01*
X031986Y018448D01*
X032029Y018491D01*
X031592Y017687D02*
X031592Y015889D01*
X027820Y015889D01*
X027820Y017687D01*
X031592Y017687D01*
X030934Y016308D02*
X030936Y016334D01*
X030942Y016360D01*
X030951Y016384D01*
X030964Y016407D01*
X030980Y016428D01*
X030999Y016446D01*
X031020Y016462D01*
X031044Y016474D01*
X031068Y016482D01*
X031094Y016487D01*
X031121Y016488D01*
X031147Y016485D01*
X031172Y016478D01*
X031196Y016468D01*
X031219Y016454D01*
X031239Y016438D01*
X031256Y016418D01*
X031271Y016396D01*
X031282Y016372D01*
X031290Y016347D01*
X031294Y016321D01*
X031294Y016295D01*
X031290Y016269D01*
X031282Y016244D01*
X031271Y016220D01*
X031256Y016198D01*
X031239Y016178D01*
X031219Y016162D01*
X031196Y016148D01*
X031172Y016138D01*
X031147Y016131D01*
X031121Y016128D01*
X031094Y016129D01*
X031068Y016134D01*
X031044Y016142D01*
X031020Y016154D01*
X030999Y016170D01*
X030980Y016188D01*
X030964Y016209D01*
X030951Y016232D01*
X030942Y016256D01*
X030936Y016282D01*
X030934Y016308D01*
X031084Y015197D02*
X031041Y015153D01*
X031041Y015067D01*
X031084Y015023D01*
X031171Y015023D02*
X031214Y015110D01*
X031214Y015153D01*
X031171Y015197D01*
X031084Y015197D01*
X031171Y015023D02*
X031301Y015023D01*
X031301Y015197D01*
X031301Y014815D02*
X031041Y014815D01*
X031041Y014729D02*
X031041Y014902D01*
X031214Y014729D02*
X031301Y014815D01*
X031258Y014608D02*
X031171Y014608D01*
X031128Y014564D01*
X031128Y014434D01*
X031128Y014521D02*
X031041Y014608D01*
X031041Y014434D02*
X031301Y014434D01*
X031301Y014564D01*
X031258Y014608D01*
X072449Y016995D02*
X072556Y016995D01*
X072770Y016782D01*
X072770Y016995D02*
X072770Y016568D01*
X072987Y016782D02*
X073414Y016782D01*
X073414Y016888D02*
X073307Y016995D01*
X073094Y016995D01*
X072987Y016888D01*
X072987Y016782D01*
X073094Y016568D02*
X073307Y016568D01*
X073414Y016675D01*
X073414Y016888D01*
X073632Y016995D02*
X073632Y016675D01*
X073738Y016568D01*
X073845Y016675D01*
X073952Y016568D01*
X074059Y016675D01*
X074059Y016995D01*
X074276Y016888D02*
X074383Y016995D01*
X074596Y016995D01*
X074703Y016888D01*
X074703Y016675D01*
X074596Y016568D01*
X074383Y016568D01*
X074276Y016675D01*
X074276Y016888D01*
X074921Y016888D02*
X074921Y017102D01*
X075027Y017209D01*
X075348Y017209D01*
X075348Y016568D01*
X075348Y016782D02*
X075027Y016782D01*
X074921Y016888D01*
X076210Y016568D02*
X076637Y017209D01*
X076854Y017209D02*
X076854Y016675D01*
X076961Y016568D01*
X077175Y016568D01*
X077281Y016675D01*
X077281Y017209D01*
X077499Y016995D02*
X077712Y017209D01*
X077926Y016995D01*
X077926Y016568D01*
X077926Y016888D02*
X077499Y016888D01*
X077499Y016995D02*
X077499Y016568D01*
X078236Y016388D02*
X078663Y016388D01*
X078449Y016175D02*
X078449Y016602D01*
X076637Y016568D02*
X076210Y017209D01*
X072633Y011322D02*
X072589Y011322D01*
X072546Y011278D01*
X072503Y011322D01*
X072459Y011322D01*
X072416Y011278D01*
X072416Y011192D01*
X072459Y011148D01*
X072546Y011235D02*
X072546Y011278D01*
X072633Y011322D02*
X072676Y011278D01*
X072676Y011192D01*
X072633Y011148D01*
X072633Y011027D02*
X072546Y011027D01*
X072503Y010984D01*
X072503Y010854D01*
X072503Y010940D02*
X072416Y011027D01*
X072416Y010854D02*
X072676Y010854D01*
X072676Y010984D01*
X072633Y011027D01*
X072633Y010072D02*
X072676Y010028D01*
X072676Y009942D01*
X072633Y009898D01*
X072633Y009777D02*
X072546Y009777D01*
X072503Y009734D01*
X072503Y009604D01*
X072503Y009690D02*
X072416Y009777D01*
X072416Y009898D02*
X072589Y010072D01*
X072633Y010072D01*
X072416Y010072D02*
X072416Y009898D01*
X072633Y009777D02*
X072676Y009734D01*
X072676Y009604D01*
X072416Y009604D01*
X080986Y011502D02*
X080986Y007572D01*
X081066Y007572D01*
X083666Y007572D01*
X084606Y007572D01*
X084606Y011502D01*
X083666Y011502D01*
X081066Y011502D01*
X080986Y011502D01*
X081066Y011502D02*
X081066Y007572D01*
X081386Y008552D02*
X081388Y008580D01*
X081394Y008607D01*
X081403Y008633D01*
X081416Y008658D01*
X081433Y008681D01*
X081452Y008701D01*
X081474Y008718D01*
X081498Y008732D01*
X081524Y008742D01*
X081551Y008749D01*
X081579Y008752D01*
X081607Y008751D01*
X081634Y008746D01*
X081661Y008737D01*
X081686Y008725D01*
X081709Y008710D01*
X081730Y008691D01*
X081748Y008670D01*
X081763Y008646D01*
X081774Y008620D01*
X081782Y008594D01*
X081786Y008566D01*
X081786Y008538D01*
X081782Y008510D01*
X081774Y008484D01*
X081763Y008458D01*
X081748Y008434D01*
X081730Y008413D01*
X081709Y008394D01*
X081686Y008379D01*
X081661Y008367D01*
X081634Y008358D01*
X081607Y008353D01*
X081579Y008352D01*
X081551Y008355D01*
X081524Y008362D01*
X081498Y008372D01*
X081474Y008386D01*
X081452Y008403D01*
X081433Y008423D01*
X081416Y008446D01*
X081403Y008471D01*
X081394Y008497D01*
X081388Y008524D01*
X081386Y008552D01*
X083666Y008202D02*
X083666Y007572D01*
X083666Y008902D02*
X083666Y010172D01*
X083666Y010872D02*
X083666Y011502D01*
X082105Y011508D02*
X081974Y011508D01*
X081931Y011465D01*
X081931Y011378D01*
X081974Y011335D01*
X082105Y011335D01*
X082105Y011248D02*
X082105Y011508D01*
X081810Y011508D02*
X081636Y011508D01*
X081723Y011508D02*
X081723Y011248D01*
X081515Y011291D02*
X081472Y011248D01*
X081385Y011248D01*
X081342Y011291D01*
X081221Y011248D02*
X081047Y011248D01*
X081134Y011248D02*
X081134Y011508D01*
X081221Y011421D01*
X081342Y011465D02*
X081385Y011508D01*
X081472Y011508D01*
X081515Y011465D01*
X081515Y011291D01*
X081386Y010522D02*
X081388Y010550D01*
X081394Y010577D01*
X081403Y010603D01*
X081416Y010628D01*
X081433Y010651D01*
X081452Y010671D01*
X081474Y010688D01*
X081498Y010702D01*
X081524Y010712D01*
X081551Y010719D01*
X081579Y010722D01*
X081607Y010721D01*
X081634Y010716D01*
X081661Y010707D01*
X081686Y010695D01*
X081709Y010680D01*
X081730Y010661D01*
X081748Y010640D01*
X081763Y010616D01*
X081774Y010590D01*
X081782Y010564D01*
X081786Y010536D01*
X081786Y010508D01*
X081782Y010480D01*
X081774Y010454D01*
X081763Y010428D01*
X081748Y010404D01*
X081730Y010383D01*
X081709Y010364D01*
X081686Y010349D01*
X081661Y010337D01*
X081634Y010328D01*
X081607Y010323D01*
X081579Y010322D01*
X081551Y010325D01*
X081524Y010332D01*
X081498Y010342D01*
X081474Y010356D01*
X081452Y010373D01*
X081433Y010393D01*
X081416Y010416D01*
X081403Y010441D01*
X081394Y010467D01*
X081388Y010494D01*
X081386Y010522D01*
D12*
X080206Y015913D02*
X078456Y015913D01*
X077956Y016413D01*
X072831Y016413D01*
X072581Y016663D01*
X072581Y017163D01*
X072831Y017413D01*
X077956Y017413D01*
X078456Y017913D01*
X080206Y017913D01*
X080206Y015913D01*
D13*
X080206Y016163D01*
X080456Y016163D01*
X080456Y016663D01*
X080206Y016663D01*
X080206Y017163D01*
X080456Y017163D01*
X080456Y017663D01*
X080206Y017663D01*
X080206Y017913D01*
X081456Y017913D01*
X081456Y017563D01*
X083906Y017563D01*
X084046Y017433D01*
X084606Y017413D02*
X084806Y017313D01*
X084806Y016933D01*
X084806Y016893D01*
X084806Y016933D02*
X084806Y016513D01*
X084606Y016413D01*
X081456Y016413D01*
X081456Y015913D01*
X080206Y015913D01*
X081456Y016263D02*
X083906Y016263D01*
X084046Y016393D01*
X084606Y017413D02*
X081456Y017413D01*
X081456Y017563D02*
X081456Y016413D01*
X064966Y017128D02*
X064716Y016878D01*
X063716Y016878D01*
X063966Y017128D01*
X063966Y017628D01*
X063716Y017878D01*
X064716Y017878D01*
X064966Y018128D01*
X064966Y018628D01*
X064716Y018878D01*
X063216Y018878D01*
X062966Y018628D01*
X062966Y018128D01*
X063216Y017878D01*
X063716Y017878D01*
X063216Y017878D02*
X062966Y017628D01*
X062966Y017128D01*
X063216Y016878D01*
X063716Y016878D01*
X064966Y017128D02*
X064966Y017628D01*
X064716Y017878D01*
X064716Y018878D02*
X064966Y019128D01*
X064966Y019628D01*
X064716Y019878D01*
X063216Y019878D01*
X062966Y019628D01*
X062966Y019128D01*
X063216Y018878D01*
X063216Y019878D02*
X062966Y020128D01*
X062966Y020628D01*
X063216Y020878D01*
X064716Y020878D01*
X064966Y021128D01*
X064966Y021628D01*
X064716Y021878D01*
X063216Y021878D01*
X062966Y021628D01*
X062966Y021128D01*
X063216Y020878D01*
X064716Y020878D02*
X064966Y020628D01*
X064966Y020128D01*
X064716Y019878D01*
X064716Y021878D02*
X064966Y022128D01*
X064966Y022628D01*
X064716Y022878D01*
X063216Y022878D01*
X062966Y022628D01*
X062966Y022128D01*
X063216Y021878D01*
X063216Y022878D02*
X062966Y023128D01*
X062966Y023628D01*
X063216Y023878D01*
X064716Y023878D01*
X064966Y024128D01*
X064966Y024628D01*
X064716Y024878D01*
X063216Y024878D01*
X062966Y024628D01*
X062966Y024128D01*
X063216Y023878D01*
X064716Y023878D02*
X064966Y023628D01*
X064966Y023128D01*
X064716Y022878D01*
X064716Y024878D02*
X064966Y025128D01*
X064966Y025628D01*
X064716Y025878D01*
X063216Y025878D01*
X062966Y025628D01*
X062966Y025128D01*
X063216Y024878D01*
X063216Y025878D02*
X062966Y026128D01*
X062966Y026628D01*
X063216Y026878D01*
X064716Y026878D01*
X064966Y027128D01*
X064966Y027628D01*
X064716Y027878D01*
X063216Y027878D01*
X062966Y027628D01*
X062966Y027128D01*
X063216Y026878D01*
X064716Y026878D02*
X064966Y026628D01*
X064966Y026128D01*
X064716Y025878D01*
X065253Y028215D02*
X065753Y028215D01*
X066003Y028465D01*
X066003Y029465D01*
X065753Y029215D01*
X065253Y029215D01*
X065003Y029465D01*
X065003Y028465D01*
X065253Y028215D01*
X066003Y028465D02*
X066253Y028215D01*
X066753Y028215D01*
X067003Y028465D01*
X067003Y029965D01*
X066753Y030215D01*
X066253Y030215D01*
X066003Y029965D01*
X066003Y029465D01*
X065003Y029465D02*
X065003Y029965D01*
X065253Y030215D01*
X065753Y030215D01*
X066003Y029965D01*
X067003Y029965D02*
X067253Y030215D01*
X067753Y030215D01*
X068003Y029965D01*
X068003Y028465D01*
X068253Y028215D01*
X068753Y028215D01*
X069003Y028465D01*
X069003Y029965D01*
X068753Y030215D01*
X068253Y030215D01*
X068003Y029965D01*
X069003Y029965D02*
X069253Y030215D01*
X069753Y030215D01*
X070003Y029965D01*
X070003Y028465D01*
X070253Y028215D01*
X070753Y028215D01*
X071003Y028465D01*
X071003Y029965D01*
X070753Y030215D01*
X070253Y030215D01*
X070003Y029965D01*
X071003Y029965D02*
X071253Y030215D01*
X071753Y030215D01*
X072003Y029965D01*
X072003Y028465D01*
X072253Y028215D01*
X072753Y028215D01*
X073003Y028465D01*
X073003Y029965D01*
X072753Y030215D01*
X072253Y030215D01*
X072003Y029965D01*
X073003Y029965D02*
X073253Y030215D01*
X073753Y030215D01*
X074003Y029965D01*
X074003Y028465D01*
X074253Y028215D01*
X074753Y028215D01*
X075003Y028465D01*
X075003Y029965D01*
X074753Y030215D01*
X074253Y030215D01*
X074003Y029965D01*
X075003Y029965D02*
X075253Y030215D01*
X075753Y030215D01*
X076003Y029965D01*
X076003Y028465D01*
X075753Y028215D01*
X075253Y028215D01*
X075003Y028465D01*
X074003Y028465D02*
X073753Y028215D01*
X073253Y028215D01*
X073003Y028465D01*
X072003Y028465D02*
X071753Y028215D01*
X071253Y028215D01*
X071003Y028465D01*
X070003Y028465D02*
X069753Y028215D01*
X069253Y028215D01*
X069003Y028465D01*
X068003Y028465D02*
X067753Y028215D01*
X067253Y028215D01*
X067003Y028465D01*
X064547Y013002D02*
X063917Y013002D01*
X063917Y012903D01*
X061511Y012903D01*
X060645Y012185D01*
X060645Y008641D01*
X061472Y007923D01*
X063917Y007923D01*
X063917Y007824D01*
X064547Y007824D01*
X064547Y008444D01*
X063834Y008444D01*
X063834Y012381D01*
X064547Y012381D01*
X064547Y013002D01*
X064547Y012381D02*
X064547Y008444D01*
X061511Y010177D02*
X061275Y010177D01*
X061275Y010649D01*
X060881Y010649D01*
X060881Y010177D01*
X061275Y010177D01*
X061511Y010177D02*
X061511Y010649D01*
X061275Y010649D01*
D14*
X064547Y008513D02*
X064547Y008444D01*
X064547Y008511D01*
X056082Y008300D02*
X056082Y007276D01*
X054330Y007276D02*
X054330Y008300D01*
X062778Y013428D02*
X086966Y013428D01*
X086966Y030553D01*
X062778Y030553D01*
X062778Y013428D01*
X065960Y013851D02*
X065960Y015351D01*
X066210Y015601D01*
X066710Y015601D01*
X066960Y015351D01*
X066960Y013851D01*
X067210Y013601D01*
X067710Y013601D01*
X067960Y013851D01*
X067960Y015351D01*
X067710Y015601D01*
X067210Y015601D01*
X066960Y015351D01*
X067960Y015351D02*
X068210Y015601D01*
X068710Y015601D01*
X068960Y015351D01*
X068960Y013851D01*
X069210Y013601D01*
X069710Y013601D01*
X069960Y013851D01*
X069960Y015351D01*
X069710Y015601D01*
X069210Y015601D01*
X068960Y015351D01*
X069960Y015351D02*
X070210Y015601D01*
X070710Y015601D01*
X070960Y015351D01*
X070960Y013851D01*
X071210Y013601D01*
X071710Y013601D01*
X071960Y013851D01*
X071960Y015351D01*
X071710Y015601D01*
X071210Y015601D01*
X070960Y015351D01*
X071960Y015351D02*
X072210Y015601D01*
X072710Y015601D01*
X072960Y015351D01*
X072960Y014351D01*
X072960Y013851D01*
X073210Y013601D01*
X073710Y013601D01*
X073960Y013851D01*
X073960Y014351D01*
X073710Y014601D01*
X073210Y014601D01*
X072960Y014351D01*
X072960Y013851D02*
X072710Y013601D01*
X072210Y013601D01*
X071960Y013851D01*
X070960Y013851D02*
X070710Y013601D01*
X070210Y013601D01*
X069960Y013851D01*
X068960Y013851D02*
X068710Y013601D01*
X068210Y013601D01*
X067960Y013851D01*
X066960Y013851D02*
X066710Y013601D01*
X066210Y013601D01*
X065960Y013851D01*
X072960Y015351D02*
X073210Y015601D01*
X073710Y015601D01*
X073960Y015351D01*
X073960Y014351D01*
X074216Y013853D02*
X074466Y013603D01*
X074966Y013603D01*
X075216Y013853D01*
X075216Y015353D01*
X074966Y015603D01*
X074466Y015603D01*
X074216Y015353D01*
X074216Y013853D01*
X075216Y013853D02*
X075466Y013603D01*
X075966Y013603D01*
X076216Y013853D01*
X076216Y015353D01*
X075966Y015603D01*
X075466Y015603D01*
X075216Y015353D01*
X076216Y015353D02*
X076466Y015603D01*
X076966Y015603D01*
X077216Y015353D01*
X077216Y013853D01*
X077466Y013603D01*
X077966Y013603D01*
X078216Y013853D01*
X078216Y015353D01*
X077966Y015603D01*
X077466Y015603D01*
X077216Y015353D01*
X078216Y015353D02*
X078466Y015603D01*
X078966Y015603D01*
X079216Y015353D01*
X079216Y013853D01*
X079466Y013603D01*
X079966Y013603D01*
X080216Y013853D01*
X080216Y015353D01*
X079966Y015603D01*
X079466Y015603D01*
X079216Y015353D01*
X080216Y015353D02*
X080466Y015603D01*
X080966Y015603D01*
X081216Y015353D01*
X081216Y013853D01*
X081466Y013603D01*
X081966Y013603D01*
X082216Y013853D01*
X082216Y014353D01*
X082216Y015353D01*
X081966Y015603D01*
X081466Y015603D01*
X081216Y015353D01*
X082216Y015353D02*
X082466Y015603D01*
X082966Y015603D01*
X083216Y015353D01*
X083216Y014353D01*
X082966Y014603D01*
X082466Y014603D01*
X082216Y014353D01*
X082216Y013853D02*
X082466Y013603D01*
X082966Y013603D01*
X083216Y013853D01*
X083216Y014353D01*
X081216Y013853D02*
X080966Y013603D01*
X080466Y013603D01*
X080216Y013853D01*
X079216Y013853D02*
X078966Y013603D01*
X078466Y013603D01*
X078216Y013853D01*
X077216Y013853D02*
X076966Y013603D01*
X076466Y013603D01*
X076216Y013853D01*
X081227Y012108D02*
X081227Y011658D01*
X081377Y011658D02*
X081077Y011658D01*
X081377Y011958D02*
X081227Y012108D01*
X081537Y012108D02*
X081838Y011658D01*
X081537Y011658D02*
X081838Y012108D01*
X081731Y011187D02*
X081731Y010887D01*
X081731Y011037D02*
X082181Y011037D01*
X082031Y010887D01*
X082031Y009237D02*
X082106Y009237D01*
X082181Y009162D01*
X082181Y009012D01*
X082106Y008937D01*
X082031Y009237D02*
X081731Y008937D01*
X081731Y009237D01*
X060453Y025977D02*
X060377Y025902D01*
X060227Y025902D01*
X060152Y025977D01*
X060152Y026353D01*
X059992Y026278D02*
X059917Y026353D01*
X059767Y026353D01*
X059692Y026278D01*
X059532Y026278D02*
X059457Y026353D01*
X059307Y026353D01*
X059232Y026278D01*
X059232Y026203D01*
X059307Y026128D01*
X059232Y026052D01*
X059232Y025977D01*
X059307Y025902D01*
X059457Y025902D01*
X059532Y025977D01*
X059692Y025977D02*
X059692Y026052D01*
X059767Y026128D01*
X059917Y026128D01*
X059992Y026203D01*
X059992Y026278D01*
X059842Y026428D02*
X059842Y025827D01*
X059767Y025902D02*
X059692Y025977D01*
X059767Y025902D02*
X059917Y025902D01*
X059992Y025977D01*
X060453Y025977D02*
X060453Y026353D01*
X059382Y026128D02*
X059307Y026128D01*
X059071Y026128D02*
X059071Y025977D01*
X058996Y025902D01*
X058846Y025902D01*
X058771Y025977D01*
X058771Y026052D01*
X058846Y026128D01*
X059071Y026128D01*
X058921Y026278D01*
X058771Y026353D01*
X046078Y024853D02*
X046078Y024477D01*
X046002Y024402D01*
X045852Y024402D01*
X045777Y024477D01*
X045777Y024853D01*
X045617Y024778D02*
X045542Y024853D01*
X045392Y024853D01*
X045317Y024778D01*
X045157Y024778D02*
X045082Y024853D01*
X044932Y024853D01*
X044857Y024778D01*
X044857Y024703D01*
X044932Y024628D01*
X044857Y024552D01*
X044857Y024477D01*
X044932Y024402D01*
X045082Y024402D01*
X045157Y024477D01*
X045317Y024477D02*
X045317Y024552D01*
X045392Y024628D01*
X045542Y024628D01*
X045617Y024703D01*
X045617Y024778D01*
X045467Y024928D02*
X045467Y024327D01*
X045392Y024402D02*
X045317Y024477D01*
X045392Y024402D02*
X045542Y024402D01*
X045617Y024477D01*
X045007Y024628D02*
X044932Y024628D01*
X044696Y024778D02*
X044621Y024853D01*
X044471Y024853D01*
X044396Y024778D01*
X044396Y024703D01*
X044471Y024628D01*
X044396Y024552D01*
X044396Y024477D01*
X044471Y024402D01*
X044621Y024402D01*
X044696Y024477D01*
X044546Y024628D02*
X044471Y024628D01*
X030703Y025977D02*
X030627Y025902D01*
X030477Y025902D01*
X030402Y025977D01*
X030402Y026353D01*
X030242Y026278D02*
X030167Y026353D01*
X030017Y026353D01*
X029942Y026278D01*
X029782Y026278D02*
X029707Y026353D01*
X029557Y026353D01*
X029482Y026278D01*
X029482Y026203D01*
X029557Y026128D01*
X029482Y026052D01*
X029482Y025977D01*
X029557Y025902D01*
X029707Y025902D01*
X029782Y025977D01*
X029942Y025977D02*
X029942Y026052D01*
X030017Y026128D01*
X030167Y026128D01*
X030242Y026203D01*
X030242Y026278D01*
X030092Y026428D02*
X030092Y025827D01*
X030017Y025902D02*
X029942Y025977D01*
X030017Y025902D02*
X030167Y025902D01*
X030242Y025977D01*
X030703Y025977D02*
X030703Y026353D01*
X029632Y026128D02*
X029557Y026128D01*
X029321Y026278D02*
X029246Y026353D01*
X029096Y026353D01*
X029021Y026278D01*
X029321Y025977D01*
X029246Y025902D01*
X029096Y025902D01*
X029021Y025977D01*
X029021Y026278D01*
X029321Y026278D02*
X029321Y025977D01*
X031767Y017674D02*
X031767Y017374D01*
X031767Y017524D02*
X032217Y017524D01*
X032067Y017374D01*
X031992Y017214D02*
X031842Y017214D01*
X031767Y017139D01*
X031767Y016989D01*
X031842Y016914D01*
X031992Y016914D02*
X032067Y017064D01*
X032067Y017139D01*
X031992Y017214D01*
X032217Y017214D02*
X032217Y016914D01*
X031992Y016914D01*
X031917Y016754D02*
X031992Y016679D01*
X031992Y016528D01*
X032067Y016453D01*
X032142Y016453D01*
X032217Y016528D01*
X032217Y016679D01*
X032142Y016754D01*
X032292Y016604D02*
X031692Y016604D01*
X031767Y016528D02*
X031767Y016679D01*
X031842Y016754D01*
X031917Y016754D01*
X031767Y016528D02*
X031842Y016453D01*
X031842Y016293D02*
X032217Y016293D01*
X032217Y015993D02*
X031842Y015993D01*
X031767Y016068D01*
X031767Y016218D01*
X031842Y016293D01*
D15*
X031956Y015363D02*
X031456Y015363D01*
X031456Y014213D01*
X031956Y014213D01*
X031956Y015363D01*
X031831Y018213D02*
X031331Y018213D01*
X031331Y019363D01*
X031831Y019363D01*
X031831Y018213D01*
X043081Y024963D02*
X043581Y024963D01*
X043581Y026113D01*
X043081Y026113D01*
X043081Y024963D01*
X046331Y025113D02*
X046331Y023963D01*
X046831Y023963D01*
X046831Y025113D01*
X046331Y025113D01*
X049456Y029813D02*
X049456Y030513D01*
X050956Y030513D01*
X050956Y029813D01*
X049456Y029813D01*
X049456Y030688D02*
X049456Y031388D01*
X050956Y031388D01*
X050956Y030688D01*
X049456Y030688D01*
X052456Y030863D02*
X052456Y029713D01*
X052956Y029713D01*
X052956Y030863D01*
X052456Y030863D01*
X053106Y031163D02*
X053806Y031163D01*
X053806Y029663D01*
X053106Y029663D01*
X053106Y031163D01*
X058081Y027613D02*
X058081Y026463D01*
X058581Y026463D01*
X058581Y027613D01*
X058081Y027613D01*
X060006Y025913D02*
X060006Y025413D01*
X061156Y025413D01*
X061156Y025913D01*
X060006Y025913D01*
X061256Y025913D02*
X061256Y025413D01*
X062406Y025413D01*
X062406Y025913D01*
X061256Y025913D01*
X080981Y013363D02*
X080981Y011713D01*
X083431Y011713D01*
X083431Y013363D01*
X080981Y013363D01*
X080128Y013210D02*
X076388Y013210D01*
X076034Y012856D01*
X076034Y011754D01*
X076250Y011773D02*
X076282Y011862D01*
X076319Y011949D01*
X076359Y012035D01*
X076404Y012118D01*
X076453Y012199D01*
X076505Y012278D01*
X076562Y012353D01*
X076622Y012426D01*
X076686Y012496D01*
X076752Y012563D01*
X076823Y012626D01*
X076896Y012686D01*
X076972Y012742D01*
X077050Y012795D01*
X077132Y012843D01*
X077215Y012888D01*
X077300Y012928D01*
X077388Y012964D01*
X077477Y012996D01*
X077567Y013023D01*
X077659Y013046D01*
X077752Y013065D01*
X077845Y013079D01*
X077939Y013088D01*
X078034Y013092D01*
X078128Y013092D01*
X078223Y013088D01*
X078317Y013079D01*
X078410Y013065D01*
X078503Y013046D01*
X078595Y013023D01*
X078685Y012996D01*
X078774Y012964D01*
X078862Y012928D01*
X078947Y012888D01*
X079030Y012843D01*
X079112Y012795D01*
X079190Y012742D01*
X079266Y012686D01*
X079339Y012626D01*
X079410Y012563D01*
X079476Y012496D01*
X079540Y012426D01*
X079600Y012353D01*
X079657Y012278D01*
X079709Y012199D01*
X079758Y012118D01*
X079803Y012035D01*
X079843Y011949D01*
X079880Y011862D01*
X079912Y011773D01*
X080128Y011754D02*
X080128Y013210D01*
X079912Y010553D02*
X079880Y010464D01*
X079843Y010377D01*
X079803Y010291D01*
X079758Y010208D01*
X079709Y010127D01*
X079657Y010048D01*
X079600Y009973D01*
X079540Y009900D01*
X079476Y009830D01*
X079410Y009763D01*
X079339Y009700D01*
X079266Y009640D01*
X079190Y009584D01*
X079112Y009531D01*
X079030Y009483D01*
X078947Y009438D01*
X078862Y009398D01*
X078774Y009362D01*
X078685Y009330D01*
X078595Y009303D01*
X078503Y009280D01*
X078410Y009261D01*
X078317Y009247D01*
X078223Y009238D01*
X078128Y009234D01*
X078034Y009234D01*
X077939Y009238D01*
X077845Y009247D01*
X077752Y009261D01*
X077659Y009280D01*
X077567Y009303D01*
X077477Y009330D01*
X077388Y009362D01*
X077300Y009398D01*
X077215Y009438D01*
X077132Y009483D01*
X077050Y009531D01*
X076972Y009584D01*
X076896Y009640D01*
X076823Y009700D01*
X076752Y009763D01*
X076686Y009830D01*
X076622Y009900D01*
X076562Y009973D01*
X076505Y010048D01*
X076453Y010127D01*
X076404Y010208D01*
X076359Y010291D01*
X076319Y010377D01*
X076282Y010464D01*
X076250Y010553D01*
X076034Y010572D02*
X076034Y009470D01*
X076388Y009116D01*
X080128Y009116D01*
X080128Y010572D01*
X077443Y008775D02*
X077443Y007791D01*
X077443Y008775D02*
X072719Y008775D01*
X072719Y007791D01*
X071378Y008106D02*
X071378Y007004D01*
X071378Y008106D02*
X071024Y008460D01*
X067284Y008460D01*
X067284Y007004D01*
X067284Y005822D02*
X067284Y004366D01*
X071024Y004366D01*
X071378Y004720D01*
X071378Y005822D01*
X072719Y005035D02*
X072719Y004051D01*
X077443Y004051D01*
X077443Y005035D01*
X079187Y006324D02*
X079975Y006324D01*
X079581Y006865D01*
X079187Y006324D01*
X073331Y009088D02*
X073331Y010238D01*
X072831Y010238D01*
X072831Y009088D01*
X073331Y009088D01*
X073331Y010338D02*
X073331Y011488D01*
X072831Y011488D01*
X072831Y010338D01*
X073331Y010338D01*
X070715Y009157D02*
X070715Y013169D01*
X071162Y005803D02*
X071130Y005714D01*
X071093Y005627D01*
X071053Y005541D01*
X071008Y005458D01*
X070959Y005377D01*
X070907Y005298D01*
X070850Y005223D01*
X070790Y005150D01*
X070726Y005080D01*
X070660Y005013D01*
X070589Y004950D01*
X070516Y004890D01*
X070440Y004834D01*
X070362Y004781D01*
X070280Y004733D01*
X070197Y004688D01*
X070112Y004648D01*
X070024Y004612D01*
X069935Y004580D01*
X069845Y004553D01*
X069753Y004530D01*
X069660Y004511D01*
X069567Y004497D01*
X069473Y004488D01*
X069378Y004484D01*
X069284Y004484D01*
X069189Y004488D01*
X069095Y004497D01*
X069002Y004511D01*
X068909Y004530D01*
X068817Y004553D01*
X068727Y004580D01*
X068638Y004612D01*
X068550Y004648D01*
X068465Y004688D01*
X068382Y004733D01*
X068300Y004781D01*
X068222Y004834D01*
X068146Y004890D01*
X068073Y004950D01*
X068002Y005013D01*
X067936Y005080D01*
X067872Y005150D01*
X067812Y005223D01*
X067755Y005298D01*
X067703Y005377D01*
X067654Y005458D01*
X067609Y005541D01*
X067569Y005627D01*
X067532Y005714D01*
X067500Y005803D01*
X067500Y007023D02*
X067532Y007112D01*
X067569Y007199D01*
X067609Y007285D01*
X067654Y007368D01*
X067703Y007449D01*
X067755Y007528D01*
X067812Y007603D01*
X067872Y007676D01*
X067936Y007746D01*
X068002Y007813D01*
X068073Y007876D01*
X068146Y007936D01*
X068222Y007992D01*
X068300Y008045D01*
X068382Y008093D01*
X068465Y008138D01*
X068550Y008178D01*
X068638Y008214D01*
X068727Y008246D01*
X068817Y008273D01*
X068909Y008296D01*
X069002Y008315D01*
X069095Y008329D01*
X069189Y008338D01*
X069284Y008342D01*
X069378Y008342D01*
X069473Y008338D01*
X069567Y008329D01*
X069660Y008315D01*
X069753Y008296D01*
X069845Y008273D01*
X069935Y008246D01*
X070024Y008214D01*
X070112Y008178D01*
X070197Y008138D01*
X070280Y008093D01*
X070362Y008045D01*
X070440Y007992D01*
X070516Y007936D01*
X070589Y007876D01*
X070660Y007813D01*
X070726Y007746D01*
X070790Y007676D01*
X070850Y007603D01*
X070907Y007528D01*
X070959Y007449D01*
X071008Y007368D01*
X071053Y007285D01*
X071093Y007199D01*
X071130Y007112D01*
X071162Y007023D01*
X055056Y006038D02*
X055056Y004538D01*
X054356Y004538D01*
X054356Y006038D01*
X055056Y006038D01*
X053777Y006973D02*
X053777Y007603D01*
X053383Y007603D02*
X053029Y007603D01*
X052635Y007603D02*
X052635Y006973D01*
X052456Y006713D02*
X051956Y006713D01*
X051956Y007863D01*
X052456Y007863D01*
X052456Y006713D01*
X052556Y008038D02*
X051856Y008038D01*
X051856Y009538D01*
X052556Y009538D01*
X052556Y008038D01*
X052956Y008213D02*
X053456Y008213D01*
X053456Y009363D01*
X052956Y009363D01*
X052956Y008213D01*
X032656Y026038D02*
X031506Y026038D01*
X031506Y026538D01*
X032656Y026538D01*
X032656Y026038D01*
X028581Y026463D02*
X028081Y026463D01*
X028081Y027613D01*
X028581Y027613D01*
X028581Y026463D01*
D16*
X027911Y026412D02*
X027911Y026617D01*
X027843Y026686D01*
X027706Y026686D01*
X027638Y026617D01*
X027638Y026412D01*
X027638Y026549D02*
X027501Y026686D01*
X027501Y026412D02*
X027911Y026412D01*
X027706Y026873D02*
X027706Y027146D01*
X027501Y027078D02*
X027911Y027078D01*
X027706Y026873D01*
X031723Y025868D02*
X031860Y025800D01*
X031996Y025663D01*
X031791Y025663D01*
X031723Y025595D01*
X031723Y025526D01*
X031791Y025458D01*
X031928Y025458D01*
X031996Y025526D01*
X031996Y025663D01*
X032183Y025458D02*
X032457Y025458D01*
X032320Y025458D02*
X032320Y025868D01*
X032457Y025732D01*
X032644Y025800D02*
X032712Y025868D01*
X032849Y025868D01*
X032917Y025800D01*
X032917Y025526D01*
X032849Y025458D01*
X032712Y025458D01*
X032644Y025526D01*
X043223Y024868D02*
X043496Y024868D01*
X043496Y024663D01*
X043360Y024732D01*
X043291Y024732D01*
X043223Y024663D01*
X043223Y024526D01*
X043291Y024458D01*
X043428Y024458D01*
X043496Y024526D01*
X043683Y024458D02*
X043820Y024595D01*
X043752Y024595D02*
X043957Y024595D01*
X043957Y024458D02*
X043957Y024868D01*
X043752Y024868D01*
X043683Y024800D01*
X043683Y024663D01*
X043752Y024595D01*
X045751Y024623D02*
X045819Y024623D01*
X046093Y024896D01*
X046161Y024896D01*
X046161Y024623D01*
X046161Y024299D02*
X045751Y024299D01*
X045751Y024162D02*
X045751Y024436D01*
X046025Y024162D02*
X046161Y024299D01*
X046093Y023975D02*
X046161Y023907D01*
X046161Y023770D01*
X046093Y023702D01*
X045819Y023702D01*
X045751Y023770D01*
X045751Y023907D01*
X045819Y023975D01*
X057751Y026833D02*
X058161Y026833D01*
X058161Y027038D01*
X058093Y027107D01*
X057956Y027107D01*
X057888Y027038D01*
X057888Y026833D01*
X057888Y026970D02*
X057751Y027107D01*
X057819Y027293D02*
X057751Y027362D01*
X057751Y027499D01*
X057819Y027567D01*
X057888Y027567D01*
X057956Y027499D01*
X057956Y027293D01*
X057819Y027293D01*
X057956Y027293D02*
X058093Y027430D01*
X058161Y027567D01*
X059473Y025743D02*
X059473Y025675D01*
X059746Y025401D01*
X059746Y025333D01*
X059933Y025333D02*
X060070Y025470D01*
X060002Y025470D02*
X060207Y025470D01*
X060207Y025333D02*
X060207Y025743D01*
X060002Y025743D01*
X059933Y025675D01*
X059933Y025538D01*
X060002Y025470D01*
X059746Y025743D02*
X059473Y025743D01*
X060427Y025732D02*
X060495Y025663D01*
X060632Y025663D01*
X060701Y025732D01*
X060701Y025800D01*
X060632Y025868D01*
X060495Y025868D01*
X060427Y025800D01*
X060427Y025732D01*
X060495Y025663D02*
X060427Y025595D01*
X060427Y025526D01*
X060495Y025458D01*
X060632Y025458D01*
X060701Y025526D01*
X060701Y025595D01*
X060632Y025663D01*
X060887Y025663D02*
X060956Y025595D01*
X061161Y025595D01*
X061024Y025595D02*
X060887Y025458D01*
X060887Y025663D02*
X060887Y025800D01*
X060956Y025868D01*
X061161Y025868D01*
X061161Y025458D01*
X054082Y031083D02*
X054082Y031493D01*
X053877Y031493D01*
X053808Y031425D01*
X053808Y031288D01*
X053877Y031220D01*
X054082Y031220D01*
X053945Y031220D02*
X053808Y031083D01*
X053621Y031151D02*
X053553Y031083D01*
X053416Y031083D01*
X053348Y031151D01*
X053348Y031425D01*
X053416Y031493D01*
X053553Y031493D01*
X053621Y031425D01*
X053621Y031357D01*
X053553Y031288D01*
X053348Y031288D01*
X053263Y031243D02*
X053332Y031175D01*
X053332Y030901D01*
X053263Y030833D01*
X053127Y030833D01*
X053058Y030901D01*
X052871Y030901D02*
X052871Y030970D01*
X052803Y031038D01*
X052666Y031038D01*
X052598Y030970D01*
X052598Y030901D01*
X052666Y030833D01*
X052803Y030833D01*
X052871Y030901D01*
X052803Y031038D02*
X052871Y031107D01*
X052871Y031175D01*
X052803Y031243D01*
X052666Y031243D01*
X052598Y031175D01*
X052598Y031107D01*
X052666Y031038D01*
X053058Y031175D02*
X053127Y031243D01*
X053263Y031243D01*
X049536Y031293D02*
X049536Y031567D01*
X049468Y031567D01*
X049194Y031293D01*
X049126Y031293D01*
X049194Y031107D02*
X049126Y031038D01*
X049126Y030901D01*
X049194Y030833D01*
X049468Y030833D01*
X049536Y030901D01*
X049536Y031038D01*
X049468Y031107D01*
X049536Y030692D02*
X049468Y030555D01*
X049331Y030418D01*
X049331Y030624D01*
X049263Y030692D01*
X049194Y030692D01*
X049126Y030624D01*
X049126Y030487D01*
X049194Y030418D01*
X049331Y030418D01*
X049194Y030232D02*
X049126Y030163D01*
X049126Y030026D01*
X049194Y029958D01*
X049468Y029958D01*
X049536Y030026D01*
X049536Y030163D01*
X049468Y030232D01*
X052001Y010442D02*
X052001Y010168D01*
X052275Y010442D01*
X052343Y010442D01*
X052411Y010374D01*
X052411Y010237D01*
X052343Y010168D01*
X052343Y009982D02*
X052411Y009913D01*
X052411Y009776D01*
X052343Y009708D01*
X052069Y009708D01*
X052001Y009776D01*
X052001Y009913D01*
X052069Y009982D01*
X053126Y010112D02*
X053194Y010043D01*
X053126Y010112D02*
X053126Y010249D01*
X053194Y010317D01*
X053263Y010317D01*
X053331Y010249D01*
X053331Y010180D01*
X053331Y010249D02*
X053400Y010317D01*
X053468Y010317D01*
X053536Y010249D01*
X053536Y010112D01*
X053468Y010043D01*
X053468Y009857D02*
X053536Y009788D01*
X053536Y009651D01*
X053468Y009583D01*
X053194Y009583D01*
X053126Y009651D01*
X053126Y009788D01*
X053194Y009857D01*
X051501Y007817D02*
X051501Y007543D01*
X051501Y007680D02*
X051911Y007680D01*
X051775Y007543D01*
X051843Y007357D02*
X051706Y007357D01*
X051638Y007288D01*
X051638Y007083D01*
X051638Y007220D02*
X051501Y007357D01*
X051501Y007083D02*
X051911Y007083D01*
X051911Y007288D01*
X051843Y007357D01*
X052685Y006368D02*
X052685Y005958D01*
X052821Y005958D02*
X052548Y005958D01*
X052821Y006232D02*
X052685Y006368D01*
X053008Y006368D02*
X053008Y006026D01*
X053077Y005958D01*
X053213Y005958D01*
X053282Y006026D01*
X053282Y006368D01*
X055251Y005817D02*
X055251Y005543D01*
X055251Y005680D02*
X055661Y005680D01*
X055525Y005543D01*
X055593Y005357D02*
X055661Y005288D01*
X055661Y005151D01*
X055593Y005083D01*
X055319Y005083D01*
X055251Y005151D01*
X055251Y005288D01*
X055319Y005357D01*
D17*
X053119Y004912D02*
X053119Y004452D01*
X052889Y004452D01*
X052812Y004528D01*
X052812Y004835D01*
X052889Y004912D01*
X053119Y004912D01*
X052659Y004759D02*
X052505Y004912D01*
X052505Y004452D01*
X052352Y004452D02*
X052659Y004452D01*
X056351Y007433D02*
X056351Y007740D01*
X056351Y007893D02*
X056351Y008200D01*
X056351Y008047D02*
X056811Y008047D01*
X056658Y007893D01*
X056811Y007433D02*
X056351Y007433D01*
X067382Y004216D02*
X067535Y004139D01*
X067689Y003986D01*
X067458Y003986D01*
X067382Y003909D01*
X067382Y003833D01*
X067458Y003756D01*
X067612Y003756D01*
X067689Y003833D01*
X067689Y003986D01*
X067842Y004063D02*
X067842Y004139D01*
X067919Y004216D01*
X068072Y004216D01*
X068149Y004139D01*
X068303Y004139D02*
X068379Y004216D01*
X068533Y004216D01*
X068609Y004139D01*
X068609Y003833D01*
X068533Y003756D01*
X068379Y003756D01*
X068303Y003833D01*
X068149Y003756D02*
X067842Y004063D01*
X067842Y003756D02*
X068149Y003756D01*
X077779Y006999D02*
X077779Y007229D01*
X077855Y007306D01*
X078162Y007306D01*
X078239Y007229D01*
X078239Y006999D01*
X077779Y006999D01*
X077779Y007459D02*
X078085Y007766D01*
X078162Y007766D01*
X078239Y007690D01*
X078239Y007536D01*
X078162Y007459D01*
X077779Y007459D02*
X077779Y007766D01*
X078359Y007940D02*
X078359Y005136D01*
X080803Y005136D02*
X080803Y007940D01*
X080067Y013360D02*
X079913Y013360D01*
X079837Y013437D01*
X079683Y013360D02*
X079376Y013667D01*
X079376Y013744D01*
X079453Y013821D01*
X079607Y013821D01*
X079683Y013744D01*
X079837Y013744D02*
X079913Y013821D01*
X080067Y013821D01*
X080144Y013744D01*
X080144Y013437D01*
X080067Y013360D01*
X079683Y013360D02*
X079376Y013360D01*
X079223Y013437D02*
X079146Y013360D01*
X078993Y013360D01*
X078916Y013437D01*
X078916Y013590D01*
X078993Y013667D01*
X079069Y013667D01*
X079223Y013590D01*
X079223Y013821D01*
X078916Y013821D01*
X071761Y013843D02*
X071608Y013843D01*
X071684Y013843D02*
X071684Y013383D01*
X071608Y013383D02*
X071761Y013383D01*
X071454Y013460D02*
X071377Y013383D01*
X071224Y013383D01*
X071147Y013460D01*
X070994Y013383D02*
X070687Y013383D01*
X070840Y013383D02*
X070840Y013843D01*
X070994Y013690D01*
X071147Y013767D02*
X071224Y013843D01*
X071377Y013843D01*
X071454Y013767D01*
X071454Y013460D01*
X080742Y018022D02*
X080982Y018022D01*
X080742Y018263D01*
X080742Y018323D01*
X080802Y018383D01*
X080922Y018383D01*
X080982Y018323D01*
X081110Y018383D02*
X081350Y018022D01*
X081110Y018022D02*
X081350Y018383D01*
D18*
X055206Y007788D03*
D19*
X031502Y015979D02*
X031502Y017597D01*
X027910Y017597D01*
X027910Y015979D01*
X031502Y015979D01*
X044397Y025117D02*
X046015Y025117D01*
X046015Y028709D01*
X044397Y028709D01*
X044397Y025117D01*
X031015Y026617D02*
X029397Y026617D01*
X029397Y030209D01*
X031015Y030209D01*
X031015Y026617D01*
X059397Y026617D02*
X061015Y026617D01*
X061015Y030209D01*
X059397Y030209D01*
X059397Y026617D01*
D20*
X071011Y012503D03*
X071011Y011833D03*
X071011Y011163D03*
X071011Y010493D03*
X071011Y009823D03*
D21*
X075586Y005665D02*
X075586Y005565D01*
X075686Y005665D01*
X075711Y005665D01*
X075736Y005640D01*
X075736Y005590D01*
X075711Y005565D01*
X075586Y005518D02*
X075586Y005418D01*
X075736Y005418D01*
D22*
X079581Y007119D03*
D23*
X080934Y016139D02*
X081221Y016139D01*
X081077Y016139D02*
X081077Y016569D01*
X081221Y016425D01*
X081171Y017119D02*
X080884Y017405D01*
X080884Y017477D01*
X080956Y017549D01*
X081099Y017549D01*
X081171Y017477D01*
X081171Y017119D02*
X080884Y017119D01*
M02*
