G75*
%MOIN*%
%OFA0B0*%
%FSLAX25Y25*%
%IPPOS*%
%LPD*%
%AMOC8*
5,1,8,0,0,1.08239X$1,22.5*
%
%ADD10C,0.00000*%
D10*
X0001500Y0041938D02*
X0001500Y0190014D01*
X0312046Y0190014D01*
X0312046Y0041938D01*
X0001500Y0041938D01*
X0011844Y0173813D02*
X0011846Y0173966D01*
X0011852Y0174120D01*
X0011862Y0174273D01*
X0011876Y0174425D01*
X0011894Y0174578D01*
X0011916Y0174729D01*
X0011941Y0174880D01*
X0011971Y0175031D01*
X0012005Y0175181D01*
X0012042Y0175329D01*
X0012083Y0175477D01*
X0012128Y0175623D01*
X0012177Y0175769D01*
X0012230Y0175913D01*
X0012286Y0176055D01*
X0012346Y0176196D01*
X0012410Y0176336D01*
X0012477Y0176474D01*
X0012548Y0176610D01*
X0012623Y0176744D01*
X0012700Y0176876D01*
X0012782Y0177006D01*
X0012866Y0177134D01*
X0012954Y0177260D01*
X0013045Y0177383D01*
X0013139Y0177504D01*
X0013237Y0177622D01*
X0013337Y0177738D01*
X0013441Y0177851D01*
X0013547Y0177962D01*
X0013656Y0178070D01*
X0013768Y0178175D01*
X0013882Y0178276D01*
X0014000Y0178375D01*
X0014119Y0178471D01*
X0014241Y0178564D01*
X0014366Y0178653D01*
X0014493Y0178740D01*
X0014622Y0178822D01*
X0014753Y0178902D01*
X0014886Y0178978D01*
X0015021Y0179051D01*
X0015158Y0179120D01*
X0015297Y0179185D01*
X0015437Y0179247D01*
X0015579Y0179305D01*
X0015722Y0179360D01*
X0015867Y0179411D01*
X0016013Y0179458D01*
X0016160Y0179501D01*
X0016308Y0179540D01*
X0016457Y0179576D01*
X0016607Y0179607D01*
X0016758Y0179635D01*
X0016909Y0179659D01*
X0017062Y0179679D01*
X0017214Y0179695D01*
X0017367Y0179707D01*
X0017520Y0179715D01*
X0017673Y0179719D01*
X0017827Y0179719D01*
X0017980Y0179715D01*
X0018133Y0179707D01*
X0018286Y0179695D01*
X0018438Y0179679D01*
X0018591Y0179659D01*
X0018742Y0179635D01*
X0018893Y0179607D01*
X0019043Y0179576D01*
X0019192Y0179540D01*
X0019340Y0179501D01*
X0019487Y0179458D01*
X0019633Y0179411D01*
X0019778Y0179360D01*
X0019921Y0179305D01*
X0020063Y0179247D01*
X0020203Y0179185D01*
X0020342Y0179120D01*
X0020479Y0179051D01*
X0020614Y0178978D01*
X0020747Y0178902D01*
X0020878Y0178822D01*
X0021007Y0178740D01*
X0021134Y0178653D01*
X0021259Y0178564D01*
X0021381Y0178471D01*
X0021500Y0178375D01*
X0021618Y0178276D01*
X0021732Y0178175D01*
X0021844Y0178070D01*
X0021953Y0177962D01*
X0022059Y0177851D01*
X0022163Y0177738D01*
X0022263Y0177622D01*
X0022361Y0177504D01*
X0022455Y0177383D01*
X0022546Y0177260D01*
X0022634Y0177134D01*
X0022718Y0177006D01*
X0022800Y0176876D01*
X0022877Y0176744D01*
X0022952Y0176610D01*
X0023023Y0176474D01*
X0023090Y0176336D01*
X0023154Y0176196D01*
X0023214Y0176055D01*
X0023270Y0175913D01*
X0023323Y0175769D01*
X0023372Y0175623D01*
X0023417Y0175477D01*
X0023458Y0175329D01*
X0023495Y0175181D01*
X0023529Y0175031D01*
X0023559Y0174880D01*
X0023584Y0174729D01*
X0023606Y0174578D01*
X0023624Y0174425D01*
X0023638Y0174273D01*
X0023648Y0174120D01*
X0023654Y0173966D01*
X0023656Y0173813D01*
X0023654Y0173660D01*
X0023648Y0173506D01*
X0023638Y0173353D01*
X0023624Y0173201D01*
X0023606Y0173048D01*
X0023584Y0172897D01*
X0023559Y0172746D01*
X0023529Y0172595D01*
X0023495Y0172445D01*
X0023458Y0172297D01*
X0023417Y0172149D01*
X0023372Y0172003D01*
X0023323Y0171857D01*
X0023270Y0171713D01*
X0023214Y0171571D01*
X0023154Y0171430D01*
X0023090Y0171290D01*
X0023023Y0171152D01*
X0022952Y0171016D01*
X0022877Y0170882D01*
X0022800Y0170750D01*
X0022718Y0170620D01*
X0022634Y0170492D01*
X0022546Y0170366D01*
X0022455Y0170243D01*
X0022361Y0170122D01*
X0022263Y0170004D01*
X0022163Y0169888D01*
X0022059Y0169775D01*
X0021953Y0169664D01*
X0021844Y0169556D01*
X0021732Y0169451D01*
X0021618Y0169350D01*
X0021500Y0169251D01*
X0021381Y0169155D01*
X0021259Y0169062D01*
X0021134Y0168973D01*
X0021007Y0168886D01*
X0020878Y0168804D01*
X0020747Y0168724D01*
X0020614Y0168648D01*
X0020479Y0168575D01*
X0020342Y0168506D01*
X0020203Y0168441D01*
X0020063Y0168379D01*
X0019921Y0168321D01*
X0019778Y0168266D01*
X0019633Y0168215D01*
X0019487Y0168168D01*
X0019340Y0168125D01*
X0019192Y0168086D01*
X0019043Y0168050D01*
X0018893Y0168019D01*
X0018742Y0167991D01*
X0018591Y0167967D01*
X0018438Y0167947D01*
X0018286Y0167931D01*
X0018133Y0167919D01*
X0017980Y0167911D01*
X0017827Y0167907D01*
X0017673Y0167907D01*
X0017520Y0167911D01*
X0017367Y0167919D01*
X0017214Y0167931D01*
X0017062Y0167947D01*
X0016909Y0167967D01*
X0016758Y0167991D01*
X0016607Y0168019D01*
X0016457Y0168050D01*
X0016308Y0168086D01*
X0016160Y0168125D01*
X0016013Y0168168D01*
X0015867Y0168215D01*
X0015722Y0168266D01*
X0015579Y0168321D01*
X0015437Y0168379D01*
X0015297Y0168441D01*
X0015158Y0168506D01*
X0015021Y0168575D01*
X0014886Y0168648D01*
X0014753Y0168724D01*
X0014622Y0168804D01*
X0014493Y0168886D01*
X0014366Y0168973D01*
X0014241Y0169062D01*
X0014119Y0169155D01*
X0014000Y0169251D01*
X0013882Y0169350D01*
X0013768Y0169451D01*
X0013656Y0169556D01*
X0013547Y0169664D01*
X0013441Y0169775D01*
X0013337Y0169888D01*
X0013237Y0170004D01*
X0013139Y0170122D01*
X0013045Y0170243D01*
X0012954Y0170366D01*
X0012866Y0170492D01*
X0012782Y0170620D01*
X0012700Y0170750D01*
X0012623Y0170882D01*
X0012548Y0171016D01*
X0012477Y0171152D01*
X0012410Y0171290D01*
X0012346Y0171430D01*
X0012286Y0171571D01*
X0012230Y0171713D01*
X0012177Y0171857D01*
X0012128Y0172003D01*
X0012083Y0172149D01*
X0012042Y0172297D01*
X0012005Y0172445D01*
X0011971Y0172595D01*
X0011941Y0172746D01*
X0011916Y0172897D01*
X0011894Y0173048D01*
X0011876Y0173201D01*
X0011862Y0173353D01*
X0011852Y0173506D01*
X0011846Y0173660D01*
X0011844Y0173813D01*
X0289344Y0173188D02*
X0289346Y0173341D01*
X0289352Y0173495D01*
X0289362Y0173648D01*
X0289376Y0173800D01*
X0289394Y0173953D01*
X0289416Y0174104D01*
X0289441Y0174255D01*
X0289471Y0174406D01*
X0289505Y0174556D01*
X0289542Y0174704D01*
X0289583Y0174852D01*
X0289628Y0174998D01*
X0289677Y0175144D01*
X0289730Y0175288D01*
X0289786Y0175430D01*
X0289846Y0175571D01*
X0289910Y0175711D01*
X0289977Y0175849D01*
X0290048Y0175985D01*
X0290123Y0176119D01*
X0290200Y0176251D01*
X0290282Y0176381D01*
X0290366Y0176509D01*
X0290454Y0176635D01*
X0290545Y0176758D01*
X0290639Y0176879D01*
X0290737Y0176997D01*
X0290837Y0177113D01*
X0290941Y0177226D01*
X0291047Y0177337D01*
X0291156Y0177445D01*
X0291268Y0177550D01*
X0291382Y0177651D01*
X0291500Y0177750D01*
X0291619Y0177846D01*
X0291741Y0177939D01*
X0291866Y0178028D01*
X0291993Y0178115D01*
X0292122Y0178197D01*
X0292253Y0178277D01*
X0292386Y0178353D01*
X0292521Y0178426D01*
X0292658Y0178495D01*
X0292797Y0178560D01*
X0292937Y0178622D01*
X0293079Y0178680D01*
X0293222Y0178735D01*
X0293367Y0178786D01*
X0293513Y0178833D01*
X0293660Y0178876D01*
X0293808Y0178915D01*
X0293957Y0178951D01*
X0294107Y0178982D01*
X0294258Y0179010D01*
X0294409Y0179034D01*
X0294562Y0179054D01*
X0294714Y0179070D01*
X0294867Y0179082D01*
X0295020Y0179090D01*
X0295173Y0179094D01*
X0295327Y0179094D01*
X0295480Y0179090D01*
X0295633Y0179082D01*
X0295786Y0179070D01*
X0295938Y0179054D01*
X0296091Y0179034D01*
X0296242Y0179010D01*
X0296393Y0178982D01*
X0296543Y0178951D01*
X0296692Y0178915D01*
X0296840Y0178876D01*
X0296987Y0178833D01*
X0297133Y0178786D01*
X0297278Y0178735D01*
X0297421Y0178680D01*
X0297563Y0178622D01*
X0297703Y0178560D01*
X0297842Y0178495D01*
X0297979Y0178426D01*
X0298114Y0178353D01*
X0298247Y0178277D01*
X0298378Y0178197D01*
X0298507Y0178115D01*
X0298634Y0178028D01*
X0298759Y0177939D01*
X0298881Y0177846D01*
X0299000Y0177750D01*
X0299118Y0177651D01*
X0299232Y0177550D01*
X0299344Y0177445D01*
X0299453Y0177337D01*
X0299559Y0177226D01*
X0299663Y0177113D01*
X0299763Y0176997D01*
X0299861Y0176879D01*
X0299955Y0176758D01*
X0300046Y0176635D01*
X0300134Y0176509D01*
X0300218Y0176381D01*
X0300300Y0176251D01*
X0300377Y0176119D01*
X0300452Y0175985D01*
X0300523Y0175849D01*
X0300590Y0175711D01*
X0300654Y0175571D01*
X0300714Y0175430D01*
X0300770Y0175288D01*
X0300823Y0175144D01*
X0300872Y0174998D01*
X0300917Y0174852D01*
X0300958Y0174704D01*
X0300995Y0174556D01*
X0301029Y0174406D01*
X0301059Y0174255D01*
X0301084Y0174104D01*
X0301106Y0173953D01*
X0301124Y0173800D01*
X0301138Y0173648D01*
X0301148Y0173495D01*
X0301154Y0173341D01*
X0301156Y0173188D01*
X0301154Y0173035D01*
X0301148Y0172881D01*
X0301138Y0172728D01*
X0301124Y0172576D01*
X0301106Y0172423D01*
X0301084Y0172272D01*
X0301059Y0172121D01*
X0301029Y0171970D01*
X0300995Y0171820D01*
X0300958Y0171672D01*
X0300917Y0171524D01*
X0300872Y0171378D01*
X0300823Y0171232D01*
X0300770Y0171088D01*
X0300714Y0170946D01*
X0300654Y0170805D01*
X0300590Y0170665D01*
X0300523Y0170527D01*
X0300452Y0170391D01*
X0300377Y0170257D01*
X0300300Y0170125D01*
X0300218Y0169995D01*
X0300134Y0169867D01*
X0300046Y0169741D01*
X0299955Y0169618D01*
X0299861Y0169497D01*
X0299763Y0169379D01*
X0299663Y0169263D01*
X0299559Y0169150D01*
X0299453Y0169039D01*
X0299344Y0168931D01*
X0299232Y0168826D01*
X0299118Y0168725D01*
X0299000Y0168626D01*
X0298881Y0168530D01*
X0298759Y0168437D01*
X0298634Y0168348D01*
X0298507Y0168261D01*
X0298378Y0168179D01*
X0298247Y0168099D01*
X0298114Y0168023D01*
X0297979Y0167950D01*
X0297842Y0167881D01*
X0297703Y0167816D01*
X0297563Y0167754D01*
X0297421Y0167696D01*
X0297278Y0167641D01*
X0297133Y0167590D01*
X0296987Y0167543D01*
X0296840Y0167500D01*
X0296692Y0167461D01*
X0296543Y0167425D01*
X0296393Y0167394D01*
X0296242Y0167366D01*
X0296091Y0167342D01*
X0295938Y0167322D01*
X0295786Y0167306D01*
X0295633Y0167294D01*
X0295480Y0167286D01*
X0295327Y0167282D01*
X0295173Y0167282D01*
X0295020Y0167286D01*
X0294867Y0167294D01*
X0294714Y0167306D01*
X0294562Y0167322D01*
X0294409Y0167342D01*
X0294258Y0167366D01*
X0294107Y0167394D01*
X0293957Y0167425D01*
X0293808Y0167461D01*
X0293660Y0167500D01*
X0293513Y0167543D01*
X0293367Y0167590D01*
X0293222Y0167641D01*
X0293079Y0167696D01*
X0292937Y0167754D01*
X0292797Y0167816D01*
X0292658Y0167881D01*
X0292521Y0167950D01*
X0292386Y0168023D01*
X0292253Y0168099D01*
X0292122Y0168179D01*
X0291993Y0168261D01*
X0291866Y0168348D01*
X0291741Y0168437D01*
X0291619Y0168530D01*
X0291500Y0168626D01*
X0291382Y0168725D01*
X0291268Y0168826D01*
X0291156Y0168931D01*
X0291047Y0169039D01*
X0290941Y0169150D01*
X0290837Y0169263D01*
X0290737Y0169379D01*
X0290639Y0169497D01*
X0290545Y0169618D01*
X0290454Y0169741D01*
X0290366Y0169867D01*
X0290282Y0169995D01*
X0290200Y0170125D01*
X0290123Y0170257D01*
X0290048Y0170391D01*
X0289977Y0170527D01*
X0289910Y0170665D01*
X0289846Y0170805D01*
X0289786Y0170946D01*
X0289730Y0171088D01*
X0289677Y0171232D01*
X0289628Y0171378D01*
X0289583Y0171524D01*
X0289542Y0171672D01*
X0289505Y0171820D01*
X0289471Y0171970D01*
X0289441Y0172121D01*
X0289416Y0172272D01*
X0289394Y0172423D01*
X0289376Y0172576D01*
X0289362Y0172728D01*
X0289352Y0172881D01*
X0289346Y0173035D01*
X0289344Y0173188D01*
X0289969Y0058188D02*
X0289971Y0058341D01*
X0289977Y0058495D01*
X0289987Y0058648D01*
X0290001Y0058800D01*
X0290019Y0058953D01*
X0290041Y0059104D01*
X0290066Y0059255D01*
X0290096Y0059406D01*
X0290130Y0059556D01*
X0290167Y0059704D01*
X0290208Y0059852D01*
X0290253Y0059998D01*
X0290302Y0060144D01*
X0290355Y0060288D01*
X0290411Y0060430D01*
X0290471Y0060571D01*
X0290535Y0060711D01*
X0290602Y0060849D01*
X0290673Y0060985D01*
X0290748Y0061119D01*
X0290825Y0061251D01*
X0290907Y0061381D01*
X0290991Y0061509D01*
X0291079Y0061635D01*
X0291170Y0061758D01*
X0291264Y0061879D01*
X0291362Y0061997D01*
X0291462Y0062113D01*
X0291566Y0062226D01*
X0291672Y0062337D01*
X0291781Y0062445D01*
X0291893Y0062550D01*
X0292007Y0062651D01*
X0292125Y0062750D01*
X0292244Y0062846D01*
X0292366Y0062939D01*
X0292491Y0063028D01*
X0292618Y0063115D01*
X0292747Y0063197D01*
X0292878Y0063277D01*
X0293011Y0063353D01*
X0293146Y0063426D01*
X0293283Y0063495D01*
X0293422Y0063560D01*
X0293562Y0063622D01*
X0293704Y0063680D01*
X0293847Y0063735D01*
X0293992Y0063786D01*
X0294138Y0063833D01*
X0294285Y0063876D01*
X0294433Y0063915D01*
X0294582Y0063951D01*
X0294732Y0063982D01*
X0294883Y0064010D01*
X0295034Y0064034D01*
X0295187Y0064054D01*
X0295339Y0064070D01*
X0295492Y0064082D01*
X0295645Y0064090D01*
X0295798Y0064094D01*
X0295952Y0064094D01*
X0296105Y0064090D01*
X0296258Y0064082D01*
X0296411Y0064070D01*
X0296563Y0064054D01*
X0296716Y0064034D01*
X0296867Y0064010D01*
X0297018Y0063982D01*
X0297168Y0063951D01*
X0297317Y0063915D01*
X0297465Y0063876D01*
X0297612Y0063833D01*
X0297758Y0063786D01*
X0297903Y0063735D01*
X0298046Y0063680D01*
X0298188Y0063622D01*
X0298328Y0063560D01*
X0298467Y0063495D01*
X0298604Y0063426D01*
X0298739Y0063353D01*
X0298872Y0063277D01*
X0299003Y0063197D01*
X0299132Y0063115D01*
X0299259Y0063028D01*
X0299384Y0062939D01*
X0299506Y0062846D01*
X0299625Y0062750D01*
X0299743Y0062651D01*
X0299857Y0062550D01*
X0299969Y0062445D01*
X0300078Y0062337D01*
X0300184Y0062226D01*
X0300288Y0062113D01*
X0300388Y0061997D01*
X0300486Y0061879D01*
X0300580Y0061758D01*
X0300671Y0061635D01*
X0300759Y0061509D01*
X0300843Y0061381D01*
X0300925Y0061251D01*
X0301002Y0061119D01*
X0301077Y0060985D01*
X0301148Y0060849D01*
X0301215Y0060711D01*
X0301279Y0060571D01*
X0301339Y0060430D01*
X0301395Y0060288D01*
X0301448Y0060144D01*
X0301497Y0059998D01*
X0301542Y0059852D01*
X0301583Y0059704D01*
X0301620Y0059556D01*
X0301654Y0059406D01*
X0301684Y0059255D01*
X0301709Y0059104D01*
X0301731Y0058953D01*
X0301749Y0058800D01*
X0301763Y0058648D01*
X0301773Y0058495D01*
X0301779Y0058341D01*
X0301781Y0058188D01*
X0301779Y0058035D01*
X0301773Y0057881D01*
X0301763Y0057728D01*
X0301749Y0057576D01*
X0301731Y0057423D01*
X0301709Y0057272D01*
X0301684Y0057121D01*
X0301654Y0056970D01*
X0301620Y0056820D01*
X0301583Y0056672D01*
X0301542Y0056524D01*
X0301497Y0056378D01*
X0301448Y0056232D01*
X0301395Y0056088D01*
X0301339Y0055946D01*
X0301279Y0055805D01*
X0301215Y0055665D01*
X0301148Y0055527D01*
X0301077Y0055391D01*
X0301002Y0055257D01*
X0300925Y0055125D01*
X0300843Y0054995D01*
X0300759Y0054867D01*
X0300671Y0054741D01*
X0300580Y0054618D01*
X0300486Y0054497D01*
X0300388Y0054379D01*
X0300288Y0054263D01*
X0300184Y0054150D01*
X0300078Y0054039D01*
X0299969Y0053931D01*
X0299857Y0053826D01*
X0299743Y0053725D01*
X0299625Y0053626D01*
X0299506Y0053530D01*
X0299384Y0053437D01*
X0299259Y0053348D01*
X0299132Y0053261D01*
X0299003Y0053179D01*
X0298872Y0053099D01*
X0298739Y0053023D01*
X0298604Y0052950D01*
X0298467Y0052881D01*
X0298328Y0052816D01*
X0298188Y0052754D01*
X0298046Y0052696D01*
X0297903Y0052641D01*
X0297758Y0052590D01*
X0297612Y0052543D01*
X0297465Y0052500D01*
X0297317Y0052461D01*
X0297168Y0052425D01*
X0297018Y0052394D01*
X0296867Y0052366D01*
X0296716Y0052342D01*
X0296563Y0052322D01*
X0296411Y0052306D01*
X0296258Y0052294D01*
X0296105Y0052286D01*
X0295952Y0052282D01*
X0295798Y0052282D01*
X0295645Y0052286D01*
X0295492Y0052294D01*
X0295339Y0052306D01*
X0295187Y0052322D01*
X0295034Y0052342D01*
X0294883Y0052366D01*
X0294732Y0052394D01*
X0294582Y0052425D01*
X0294433Y0052461D01*
X0294285Y0052500D01*
X0294138Y0052543D01*
X0293992Y0052590D01*
X0293847Y0052641D01*
X0293704Y0052696D01*
X0293562Y0052754D01*
X0293422Y0052816D01*
X0293283Y0052881D01*
X0293146Y0052950D01*
X0293011Y0053023D01*
X0292878Y0053099D01*
X0292747Y0053179D01*
X0292618Y0053261D01*
X0292491Y0053348D01*
X0292366Y0053437D01*
X0292244Y0053530D01*
X0292125Y0053626D01*
X0292007Y0053725D01*
X0291893Y0053826D01*
X0291781Y0053931D01*
X0291672Y0054039D01*
X0291566Y0054150D01*
X0291462Y0054263D01*
X0291362Y0054379D01*
X0291264Y0054497D01*
X0291170Y0054618D01*
X0291079Y0054741D01*
X0290991Y0054867D01*
X0290907Y0054995D01*
X0290825Y0055125D01*
X0290748Y0055257D01*
X0290673Y0055391D01*
X0290602Y0055527D01*
X0290535Y0055665D01*
X0290471Y0055805D01*
X0290411Y0055946D01*
X0290355Y0056088D01*
X0290302Y0056232D01*
X0290253Y0056378D01*
X0290208Y0056524D01*
X0290167Y0056672D01*
X0290130Y0056820D01*
X0290096Y0056970D01*
X0290066Y0057121D01*
X0290041Y0057272D01*
X0290019Y0057423D01*
X0290001Y0057576D01*
X0289987Y0057728D01*
X0289977Y0057881D01*
X0289971Y0058035D01*
X0289969Y0058188D01*
M02*
