G75*
%MOIN*%
%OFA0B0*%
%FSLAX25Y25*%
%IPPOS*%
%LPD*%
%AMOC8*
5,1,8,0,0,1.08239X$1,22.5*
%
%ADD10R,0.03543X0.03150*%
%ADD11C,0.04775*%
%ADD12C,0.05575*%
%ADD13C,0.01000*%
%ADD14C,0.02481*%
%ADD15C,0.01200*%
D10*
X0141000Y0114438D03*
X0147000Y0114438D03*
X0154750Y0114438D03*
X0160750Y0114438D03*
X0160750Y0184438D03*
X0154750Y0184438D03*
X0147000Y0184438D03*
X0141000Y0184438D03*
D11*
X0141375Y0178188D03*
X0160375Y0178188D03*
X0160375Y0108188D03*
X0141375Y0108188D03*
X0263875Y0091938D03*
X0282875Y0091938D03*
D12*
X0295588Y0113813D02*
X0301162Y0113813D01*
X0301162Y0123813D02*
X0295588Y0123813D01*
X0295588Y0133813D02*
X0301162Y0133813D01*
X0099287Y0133188D02*
X0093713Y0133188D01*
X0093713Y0143188D02*
X0099287Y0143188D01*
X0099287Y0153188D02*
X0093713Y0153188D01*
X0024287Y0093188D02*
X0018713Y0093188D01*
X0018713Y0083188D02*
X0024287Y0083188D01*
X0024287Y0073188D02*
X0018713Y0073188D01*
X0018713Y0063188D02*
X0024287Y0063188D01*
X0044338Y0063188D02*
X0049912Y0063188D01*
X0049912Y0073188D02*
X0044338Y0073188D01*
X0044338Y0083188D02*
X0049912Y0083188D01*
D13*
X0003181Y0043619D02*
X0288337Y0043619D01*
X0287625Y0043899D01*
X0287625Y0043899D01*
X0283780Y0046965D01*
X0283780Y0046965D01*
X0283780Y0046965D01*
X0281009Y0051029D01*
X0281009Y0051029D01*
X0279559Y0055729D01*
X0279559Y0060648D01*
X0281009Y0065347D01*
X0281009Y0065347D01*
X0283780Y0069411D01*
X0283780Y0069411D01*
X0287625Y0072478D01*
X0287625Y0072478D01*
X0292203Y0074275D01*
X0292203Y0074275D01*
X0297108Y0074642D01*
X0297108Y0074642D01*
X0301903Y0073548D01*
X0301903Y0073548D01*
X0306163Y0071089D01*
X0306163Y0071089D01*
X0309508Y0067483D01*
X0309508Y0067483D01*
X0310365Y0065703D01*
X0310365Y0166971D01*
X0308883Y0163894D01*
X0308883Y0163894D01*
X0305538Y0160288D01*
X0305538Y0160288D01*
X0301278Y0157829D01*
X0301278Y0157829D01*
X0296483Y0156734D01*
X0296483Y0156734D01*
X0291578Y0157102D01*
X0291578Y0157102D01*
X0287000Y0158899D01*
X0287000Y0158899D01*
X0283155Y0161965D01*
X0283155Y0161965D01*
X0283155Y0161965D01*
X0280384Y0166029D01*
X0280384Y0166029D01*
X0278934Y0170729D01*
X0278934Y0175648D01*
X0280384Y0180347D01*
X0280384Y0180347D01*
X0283155Y0184411D01*
X0283155Y0184411D01*
X0287000Y0187478D01*
X0287000Y0187478D01*
X0289179Y0188333D01*
X0025233Y0188333D01*
X0028038Y0186714D01*
X0028038Y0186714D01*
X0031383Y0183108D01*
X0031383Y0183108D01*
X0033517Y0178677D01*
X0033517Y0178677D01*
X0034250Y0173813D01*
X0033517Y0168950D01*
X0033517Y0168950D01*
X0031383Y0164519D01*
X0031383Y0164519D01*
X0028038Y0160913D01*
X0023778Y0158454D01*
X0023778Y0158454D01*
X0018983Y0157359D01*
X0014078Y0157727D01*
X0009500Y0159524D01*
X0009500Y0159524D01*
X0005655Y0162590D01*
X0005655Y0162590D01*
X0005655Y0162590D01*
X0003181Y0166219D01*
X0003181Y0043619D01*
X0003181Y0043935D02*
X0287579Y0043935D01*
X0286327Y0044934D02*
X0003181Y0044934D01*
X0003181Y0045932D02*
X0285075Y0045932D01*
X0283823Y0046931D02*
X0003181Y0046931D01*
X0003181Y0047929D02*
X0283122Y0047929D01*
X0282442Y0048928D02*
X0003181Y0048928D01*
X0003181Y0049926D02*
X0281761Y0049926D01*
X0281080Y0050925D02*
X0003181Y0050925D01*
X0003181Y0051923D02*
X0280733Y0051923D01*
X0280425Y0052922D02*
X0003181Y0052922D01*
X0003181Y0053920D02*
X0280117Y0053920D01*
X0279809Y0054919D02*
X0003181Y0054919D01*
X0003181Y0055917D02*
X0279559Y0055917D01*
X0279559Y0056916D02*
X0003181Y0056916D01*
X0003181Y0057914D02*
X0279559Y0057914D01*
X0279559Y0058913D02*
X0003181Y0058913D01*
X0003181Y0059912D02*
X0016290Y0059912D01*
X0016058Y0060080D02*
X0016577Y0059703D01*
X0017148Y0059412D01*
X0017758Y0059214D01*
X0018392Y0059114D01*
X0021000Y0059114D01*
X0021000Y0062688D01*
X0022000Y0062688D01*
X0022000Y0059114D01*
X0024608Y0059114D01*
X0025242Y0059214D01*
X0025852Y0059412D01*
X0026423Y0059703D01*
X0026942Y0060080D01*
X0027395Y0060534D01*
X0027772Y0061053D01*
X0028064Y0061624D01*
X0028262Y0062234D01*
X0028334Y0062688D01*
X0022000Y0062688D01*
X0022000Y0063688D01*
X0028334Y0063688D01*
X0028262Y0064142D01*
X0028064Y0064752D01*
X0027772Y0065324D01*
X0027395Y0065843D01*
X0026942Y0066296D01*
X0026423Y0066673D01*
X0025852Y0066965D01*
X0025242Y0067163D01*
X0024608Y0067263D01*
X0022000Y0067263D01*
X0022000Y0063688D01*
X0021000Y0063688D01*
X0021000Y0062688D01*
X0014666Y0062688D01*
X0014738Y0062234D01*
X0014936Y0061624D01*
X0015228Y0061053D01*
X0015605Y0060534D01*
X0016058Y0060080D01*
X0015331Y0060910D02*
X0003181Y0060910D01*
X0003181Y0061909D02*
X0014844Y0061909D01*
X0014666Y0063688D02*
X0021000Y0063688D01*
X0021000Y0067263D01*
X0018392Y0067263D01*
X0017758Y0067163D01*
X0017148Y0066965D01*
X0016577Y0066673D01*
X0016058Y0066296D01*
X0015605Y0065843D01*
X0015228Y0065324D01*
X0014936Y0064752D01*
X0014738Y0064142D01*
X0014666Y0063688D01*
X0014701Y0063906D02*
X0003181Y0063906D01*
X0003181Y0064904D02*
X0015014Y0064904D01*
X0015664Y0065903D02*
X0003181Y0065903D01*
X0003181Y0066901D02*
X0017024Y0066901D01*
X0017941Y0069310D02*
X0016516Y0069901D01*
X0015425Y0070992D01*
X0014835Y0072417D01*
X0014835Y0073960D01*
X0015425Y0075385D01*
X0016516Y0076476D01*
X0017941Y0077066D01*
X0025059Y0077066D01*
X0026484Y0076476D01*
X0027575Y0075385D01*
X0028165Y0073960D01*
X0028165Y0072417D01*
X0027575Y0070992D01*
X0026484Y0069901D01*
X0025059Y0069310D01*
X0017941Y0069310D01*
X0016526Y0069897D02*
X0003181Y0069897D01*
X0003181Y0070895D02*
X0015522Y0070895D01*
X0015051Y0071894D02*
X0003181Y0071894D01*
X0003181Y0072892D02*
X0014835Y0072892D01*
X0014835Y0073891D02*
X0003181Y0073891D01*
X0003181Y0074889D02*
X0015220Y0074889D01*
X0015928Y0075888D02*
X0003181Y0075888D01*
X0003181Y0076886D02*
X0017507Y0076886D01*
X0017941Y0079310D02*
X0016516Y0079901D01*
X0015425Y0080992D01*
X0014835Y0082417D01*
X0014835Y0083960D01*
X0015425Y0085385D01*
X0016516Y0086476D01*
X0017941Y0087066D01*
X0025059Y0087066D01*
X0026484Y0086476D01*
X0027575Y0085385D01*
X0028165Y0083960D01*
X0028165Y0082417D01*
X0027575Y0080992D01*
X0026484Y0079901D01*
X0025059Y0079310D01*
X0017941Y0079310D01*
X0016562Y0079882D02*
X0003181Y0079882D01*
X0003181Y0080880D02*
X0015536Y0080880D01*
X0015058Y0081879D02*
X0003181Y0081879D01*
X0003181Y0082877D02*
X0014835Y0082877D01*
X0014835Y0083876D02*
X0003181Y0083876D01*
X0003181Y0084874D02*
X0015213Y0084874D01*
X0015913Y0085873D02*
X0003181Y0085873D01*
X0003181Y0086871D02*
X0017471Y0086871D01*
X0017941Y0089310D02*
X0016516Y0089901D01*
X0015425Y0090992D01*
X0014835Y0092417D01*
X0014835Y0093960D01*
X0015425Y0095385D01*
X0016516Y0096476D01*
X0017941Y0097066D01*
X0025059Y0097066D01*
X0026484Y0096476D01*
X0027575Y0095385D01*
X0028165Y0093960D01*
X0028165Y0092417D01*
X0027575Y0090992D01*
X0026484Y0089901D01*
X0025059Y0089310D01*
X0017941Y0089310D01*
X0016598Y0089867D02*
X0003181Y0089867D01*
X0003181Y0090865D02*
X0015551Y0090865D01*
X0015064Y0091864D02*
X0003181Y0091864D01*
X0003181Y0092862D02*
X0014835Y0092862D01*
X0014835Y0093861D02*
X0003181Y0093861D01*
X0003181Y0094859D02*
X0015207Y0094859D01*
X0015898Y0095858D02*
X0003181Y0095858D01*
X0003181Y0096856D02*
X0017435Y0096856D01*
X0025565Y0096856D02*
X0310365Y0096856D01*
X0310365Y0095858D02*
X0027102Y0095858D01*
X0027793Y0094859D02*
X0261878Y0094859D01*
X0261905Y0094887D02*
X0260927Y0093908D01*
X0260397Y0092630D01*
X0260397Y0091246D01*
X0260927Y0089968D01*
X0261905Y0088990D01*
X0263183Y0088460D01*
X0264567Y0088460D01*
X0265845Y0088990D01*
X0266823Y0089968D01*
X0267353Y0091246D01*
X0267353Y0092630D01*
X0266823Y0093908D01*
X0265845Y0094887D01*
X0264567Y0095416D01*
X0263183Y0095416D01*
X0261905Y0094887D01*
X0260907Y0093861D02*
X0028165Y0093861D01*
X0028165Y0092862D02*
X0260493Y0092862D01*
X0260397Y0091864D02*
X0027936Y0091864D01*
X0027449Y0090865D02*
X0260555Y0090865D01*
X0261028Y0089867D02*
X0026402Y0089867D01*
X0025529Y0086871D02*
X0043096Y0086871D01*
X0043566Y0087066D02*
X0042141Y0086476D01*
X0041050Y0085385D01*
X0040460Y0083960D01*
X0040460Y0082417D01*
X0041050Y0080992D01*
X0042141Y0079901D01*
X0043566Y0079310D01*
X0050684Y0079310D01*
X0052109Y0079901D01*
X0053200Y0080992D01*
X0053790Y0082417D01*
X0053790Y0083960D01*
X0053200Y0085385D01*
X0052109Y0086476D01*
X0050684Y0087066D01*
X0043566Y0087066D01*
X0041538Y0085873D02*
X0027087Y0085873D01*
X0027787Y0084874D02*
X0040838Y0084874D01*
X0040460Y0083876D02*
X0028165Y0083876D01*
X0028165Y0082877D02*
X0040460Y0082877D01*
X0040683Y0081879D02*
X0027942Y0081879D01*
X0027464Y0080880D02*
X0041161Y0080880D01*
X0042187Y0079882D02*
X0026438Y0079882D01*
X0025493Y0076886D02*
X0043132Y0076886D01*
X0043566Y0077066D02*
X0042141Y0076476D01*
X0041050Y0075385D01*
X0040460Y0073960D01*
X0040460Y0072417D01*
X0041050Y0070992D01*
X0042141Y0069901D01*
X0043566Y0069310D01*
X0050684Y0069310D01*
X0052109Y0069901D01*
X0053200Y0070992D01*
X0053790Y0072417D01*
X0053790Y0073960D01*
X0053200Y0075385D01*
X0052109Y0076476D01*
X0050684Y0077066D01*
X0043566Y0077066D01*
X0041553Y0075888D02*
X0027072Y0075888D01*
X0027780Y0074889D02*
X0040845Y0074889D01*
X0040460Y0073891D02*
X0028165Y0073891D01*
X0028165Y0072892D02*
X0040460Y0072892D01*
X0040676Y0071894D02*
X0027949Y0071894D01*
X0027478Y0070895D02*
X0041147Y0070895D01*
X0042151Y0069897D02*
X0026474Y0069897D01*
X0025976Y0066901D02*
X0042649Y0066901D01*
X0042773Y0066965D02*
X0042202Y0066673D01*
X0041683Y0066296D01*
X0041230Y0065843D01*
X0040853Y0065324D01*
X0040561Y0064752D01*
X0040363Y0064142D01*
X0040291Y0063688D01*
X0046625Y0063688D01*
X0046625Y0062688D01*
X0047625Y0062688D01*
X0047625Y0059114D01*
X0050233Y0059114D01*
X0050867Y0059214D01*
X0051477Y0059412D01*
X0052048Y0059703D01*
X0052567Y0060080D01*
X0053020Y0060534D01*
X0053397Y0061053D01*
X0053689Y0061624D01*
X0053887Y0062234D01*
X0053959Y0062688D01*
X0047625Y0062688D01*
X0047625Y0063688D01*
X0053959Y0063688D01*
X0053887Y0064142D01*
X0053689Y0064752D01*
X0053397Y0065324D01*
X0053020Y0065843D01*
X0052567Y0066296D01*
X0052048Y0066673D01*
X0051477Y0066965D01*
X0050867Y0067163D01*
X0050233Y0067263D01*
X0047625Y0067263D01*
X0047625Y0063688D01*
X0046625Y0063688D01*
X0046625Y0067263D01*
X0044017Y0067263D01*
X0043383Y0067163D01*
X0042773Y0066965D01*
X0041289Y0065903D02*
X0027336Y0065903D01*
X0027986Y0064904D02*
X0040639Y0064904D01*
X0040326Y0063906D02*
X0028299Y0063906D01*
X0028156Y0061909D02*
X0040469Y0061909D01*
X0040561Y0061624D02*
X0040363Y0062234D01*
X0040291Y0062688D01*
X0046625Y0062688D01*
X0046625Y0059114D01*
X0044017Y0059114D01*
X0043383Y0059214D01*
X0042773Y0059412D01*
X0042202Y0059703D01*
X0041683Y0060080D01*
X0041230Y0060534D01*
X0040853Y0061053D01*
X0040561Y0061624D01*
X0040956Y0060910D02*
X0027669Y0060910D01*
X0026710Y0059912D02*
X0041915Y0059912D01*
X0046625Y0059912D02*
X0047625Y0059912D01*
X0047625Y0060910D02*
X0046625Y0060910D01*
X0046625Y0061909D02*
X0047625Y0061909D01*
X0047625Y0062907D02*
X0280256Y0062907D01*
X0279948Y0061909D02*
X0053781Y0061909D01*
X0053294Y0060910D02*
X0279640Y0060910D01*
X0279559Y0059912D02*
X0052335Y0059912D01*
X0046625Y0062907D02*
X0022000Y0062907D01*
X0022000Y0061909D02*
X0021000Y0061909D01*
X0021000Y0062907D02*
X0003181Y0062907D01*
X0003181Y0067900D02*
X0282749Y0067900D01*
X0283430Y0068898D02*
X0003181Y0068898D01*
X0003181Y0077885D02*
X0310365Y0077885D01*
X0310365Y0078883D02*
X0003181Y0078883D01*
X0003181Y0087870D02*
X0310365Y0087870D01*
X0310365Y0088868D02*
X0284552Y0088868D01*
X0284845Y0088990D02*
X0283567Y0088460D01*
X0282183Y0088460D01*
X0280905Y0088990D01*
X0279927Y0089968D01*
X0279397Y0091246D01*
X0279397Y0092630D01*
X0279927Y0093908D01*
X0280905Y0094887D01*
X0282183Y0095416D01*
X0283567Y0095416D01*
X0284845Y0094887D01*
X0285823Y0093908D01*
X0286353Y0092630D01*
X0286353Y0091246D01*
X0285823Y0089968D01*
X0284845Y0088990D01*
X0285722Y0089867D02*
X0310365Y0089867D01*
X0310365Y0090865D02*
X0286195Y0090865D01*
X0286353Y0091864D02*
X0310365Y0091864D01*
X0310365Y0092862D02*
X0286257Y0092862D01*
X0285843Y0093861D02*
X0310365Y0093861D01*
X0310365Y0094859D02*
X0284872Y0094859D01*
X0280878Y0094859D02*
X0265872Y0094859D01*
X0266843Y0093861D02*
X0279907Y0093861D01*
X0279493Y0092862D02*
X0267257Y0092862D01*
X0267353Y0091864D02*
X0279397Y0091864D01*
X0279555Y0090865D02*
X0267195Y0090865D01*
X0266722Y0089867D02*
X0280028Y0089867D01*
X0281198Y0088868D02*
X0265552Y0088868D01*
X0262198Y0088868D02*
X0003181Y0088868D01*
X0003181Y0097855D02*
X0310365Y0097855D01*
X0310365Y0098853D02*
X0003181Y0098853D01*
X0003181Y0099852D02*
X0310365Y0099852D01*
X0310365Y0100850D02*
X0003181Y0100850D01*
X0003181Y0101849D02*
X0310365Y0101849D01*
X0310365Y0102848D02*
X0003181Y0102848D01*
X0003181Y0103846D02*
X0310365Y0103846D01*
X0310365Y0104845D02*
X0161391Y0104845D01*
X0161067Y0104710D02*
X0162345Y0105240D01*
X0163323Y0106218D01*
X0163853Y0107496D01*
X0163853Y0108880D01*
X0163323Y0110158D01*
X0162345Y0111137D01*
X0162066Y0111253D01*
X0162066Y0111773D01*
X0162973Y0111773D01*
X0163612Y0112412D01*
X0163612Y0116465D01*
X0162973Y0117104D01*
X0158527Y0117104D01*
X0157888Y0116465D01*
X0157888Y0112412D01*
X0158527Y0111773D01*
X0158684Y0111773D01*
X0158684Y0111253D01*
X0158405Y0111137D01*
X0157427Y0110158D01*
X0156897Y0108880D01*
X0156897Y0107496D01*
X0157427Y0106218D01*
X0158405Y0105240D01*
X0159683Y0104710D01*
X0161067Y0104710D01*
X0159359Y0104845D02*
X0142391Y0104845D01*
X0142067Y0104710D02*
X0143345Y0105240D01*
X0144323Y0106218D01*
X0144853Y0107496D01*
X0144853Y0108880D01*
X0144323Y0110158D01*
X0143345Y0111137D01*
X0143066Y0111253D01*
X0143066Y0111773D01*
X0143223Y0111773D01*
X0143862Y0112412D01*
X0143862Y0116465D01*
X0143223Y0117104D01*
X0138777Y0117104D01*
X0138138Y0116465D01*
X0138138Y0112412D01*
X0138777Y0111773D01*
X0139684Y0111773D01*
X0139684Y0111253D01*
X0139405Y0111137D01*
X0138427Y0110158D01*
X0137897Y0108880D01*
X0137897Y0107496D01*
X0138427Y0106218D01*
X0139405Y0105240D01*
X0140683Y0104710D01*
X0142067Y0104710D01*
X0140359Y0104845D02*
X0003181Y0104845D01*
X0003181Y0105843D02*
X0138802Y0105843D01*
X0138168Y0106842D02*
X0003181Y0106842D01*
X0003181Y0107840D02*
X0137897Y0107840D01*
X0137897Y0108839D02*
X0003181Y0108839D01*
X0003181Y0109837D02*
X0138293Y0109837D01*
X0139104Y0110836D02*
X0003181Y0110836D01*
X0003181Y0111834D02*
X0138715Y0111834D01*
X0138138Y0112833D02*
X0003181Y0112833D01*
X0003181Y0113831D02*
X0138138Y0113831D01*
X0138138Y0114830D02*
X0003181Y0114830D01*
X0003181Y0115828D02*
X0138138Y0115828D01*
X0138500Y0116827D02*
X0003181Y0116827D01*
X0003181Y0117825D02*
X0310365Y0117825D01*
X0310365Y0116827D02*
X0303633Y0116827D01*
X0303359Y0117101D02*
X0301934Y0117691D01*
X0294816Y0117691D01*
X0293391Y0117101D01*
X0292300Y0116010D01*
X0291710Y0114585D01*
X0291710Y0113042D01*
X0292300Y0111617D01*
X0293391Y0110526D01*
X0294816Y0109935D01*
X0301934Y0109935D01*
X0303359Y0110526D01*
X0304450Y0111617D01*
X0305040Y0113042D01*
X0305040Y0114585D01*
X0304450Y0116010D01*
X0303359Y0117101D01*
X0304525Y0115828D02*
X0310365Y0115828D01*
X0310365Y0114830D02*
X0304939Y0114830D01*
X0305040Y0113831D02*
X0310365Y0113831D01*
X0310365Y0112833D02*
X0304954Y0112833D01*
X0304540Y0111834D02*
X0310365Y0111834D01*
X0310365Y0110836D02*
X0303669Y0110836D01*
X0310365Y0109837D02*
X0163457Y0109837D01*
X0163853Y0108839D02*
X0310365Y0108839D01*
X0310365Y0107840D02*
X0163853Y0107840D01*
X0163582Y0106842D02*
X0310365Y0106842D01*
X0310365Y0105843D02*
X0162948Y0105843D01*
X0157802Y0105843D02*
X0143948Y0105843D01*
X0144582Y0106842D02*
X0157168Y0106842D01*
X0156897Y0107840D02*
X0144853Y0107840D01*
X0144853Y0108839D02*
X0156897Y0108839D01*
X0157293Y0109837D02*
X0144457Y0109837D01*
X0143646Y0110836D02*
X0158104Y0110836D01*
X0158465Y0111834D02*
X0157313Y0111834D01*
X0157312Y0111833D02*
X0157552Y0112073D01*
X0157721Y0112367D01*
X0157809Y0112694D01*
X0157809Y0114151D01*
X0155037Y0114151D01*
X0155037Y0111576D01*
X0156691Y0111576D01*
X0157019Y0111664D01*
X0157312Y0111833D01*
X0157809Y0112833D02*
X0157888Y0112833D01*
X0157888Y0113831D02*
X0157809Y0113831D01*
X0157809Y0114726D02*
X0155037Y0114726D01*
X0154463Y0114726D01*
X0154463Y0117301D01*
X0152809Y0117301D01*
X0152481Y0117213D01*
X0152188Y0117043D01*
X0151948Y0116804D01*
X0151779Y0116510D01*
X0151691Y0116183D01*
X0151691Y0114726D01*
X0154463Y0114726D01*
X0154463Y0114151D01*
X0155037Y0114151D01*
X0155037Y0114726D01*
X0155037Y0117301D01*
X0156691Y0117301D01*
X0157019Y0117213D01*
X0157312Y0117043D01*
X0157552Y0116804D01*
X0157721Y0116510D01*
X0157809Y0116183D01*
X0157809Y0114726D01*
X0157809Y0114830D02*
X0157888Y0114830D01*
X0157888Y0115828D02*
X0157809Y0115828D01*
X0157529Y0116827D02*
X0158250Y0116827D01*
X0155037Y0116827D02*
X0154463Y0116827D01*
X0154463Y0115828D02*
X0155037Y0115828D01*
X0155037Y0114830D02*
X0154463Y0114830D01*
X0154463Y0114151D02*
X0151691Y0114151D01*
X0151691Y0112694D01*
X0151779Y0112367D01*
X0151948Y0112073D01*
X0152188Y0111833D01*
X0152481Y0111664D01*
X0152809Y0111576D01*
X0154463Y0111576D01*
X0154463Y0114151D01*
X0154463Y0113831D02*
X0155037Y0113831D01*
X0155037Y0112833D02*
X0154463Y0112833D01*
X0154463Y0111834D02*
X0155037Y0111834D01*
X0152187Y0111834D02*
X0149563Y0111834D01*
X0149562Y0111833D02*
X0149802Y0112073D01*
X0149971Y0112367D01*
X0150059Y0112694D01*
X0150059Y0114151D01*
X0147287Y0114151D01*
X0147287Y0111576D01*
X0148941Y0111576D01*
X0149269Y0111664D01*
X0149562Y0111833D01*
X0150059Y0112833D02*
X0151691Y0112833D01*
X0151691Y0113831D02*
X0150059Y0113831D01*
X0150059Y0114726D02*
X0147287Y0114726D01*
X0146713Y0114726D01*
X0146713Y0117301D01*
X0145059Y0117301D01*
X0144731Y0117213D01*
X0144438Y0117043D01*
X0144198Y0116804D01*
X0144029Y0116510D01*
X0143941Y0116183D01*
X0143941Y0114726D01*
X0146713Y0114726D01*
X0146713Y0114151D01*
X0147287Y0114151D01*
X0147287Y0114726D01*
X0147287Y0117301D01*
X0148941Y0117301D01*
X0149269Y0117213D01*
X0149562Y0117043D01*
X0149802Y0116804D01*
X0149971Y0116510D01*
X0150059Y0116183D01*
X0150059Y0114726D01*
X0150059Y0114830D02*
X0151691Y0114830D01*
X0151691Y0115828D02*
X0150059Y0115828D01*
X0149779Y0116827D02*
X0151971Y0116827D01*
X0147287Y0116827D02*
X0146713Y0116827D01*
X0146713Y0115828D02*
X0147287Y0115828D01*
X0147287Y0114830D02*
X0146713Y0114830D01*
X0146713Y0114151D02*
X0143941Y0114151D01*
X0143941Y0112694D01*
X0144029Y0112367D01*
X0144198Y0112073D01*
X0144438Y0111833D01*
X0144731Y0111664D01*
X0145059Y0111576D01*
X0146713Y0111576D01*
X0146713Y0114151D01*
X0146713Y0113831D02*
X0147287Y0113831D01*
X0147287Y0112833D02*
X0146713Y0112833D01*
X0146713Y0111834D02*
X0147287Y0111834D01*
X0144437Y0111834D02*
X0143285Y0111834D01*
X0143862Y0112833D02*
X0143941Y0112833D01*
X0143941Y0113831D02*
X0143862Y0113831D01*
X0143862Y0114830D02*
X0143941Y0114830D01*
X0143941Y0115828D02*
X0143862Y0115828D01*
X0144221Y0116827D02*
X0143500Y0116827D01*
X0163250Y0116827D02*
X0293117Y0116827D01*
X0292225Y0115828D02*
X0163612Y0115828D01*
X0163612Y0114830D02*
X0291811Y0114830D01*
X0291710Y0113831D02*
X0163612Y0113831D01*
X0163612Y0112833D02*
X0291796Y0112833D01*
X0292210Y0111834D02*
X0163035Y0111834D01*
X0162646Y0110836D02*
X0293081Y0110836D01*
X0294816Y0119935D02*
X0301934Y0119935D01*
X0303359Y0120526D01*
X0304450Y0121617D01*
X0305040Y0123042D01*
X0305040Y0124585D01*
X0304450Y0126010D01*
X0303359Y0127101D01*
X0301934Y0127691D01*
X0294816Y0127691D01*
X0293391Y0127101D01*
X0292300Y0126010D01*
X0291710Y0124585D01*
X0291710Y0123042D01*
X0292300Y0121617D01*
X0293391Y0120526D01*
X0294816Y0119935D01*
X0293096Y0120821D02*
X0003181Y0120821D01*
X0003181Y0121819D02*
X0292216Y0121819D01*
X0291803Y0122818D02*
X0003181Y0122818D01*
X0003181Y0123816D02*
X0291710Y0123816D01*
X0291805Y0124815D02*
X0003181Y0124815D01*
X0003181Y0125813D02*
X0292219Y0125813D01*
X0293102Y0126812D02*
X0003181Y0126812D01*
X0003181Y0127810D02*
X0310365Y0127810D01*
X0310365Y0126812D02*
X0303648Y0126812D01*
X0304531Y0125813D02*
X0310365Y0125813D01*
X0310365Y0124815D02*
X0304945Y0124815D01*
X0305040Y0123816D02*
X0310365Y0123816D01*
X0310365Y0122818D02*
X0304947Y0122818D01*
X0304534Y0121819D02*
X0310365Y0121819D01*
X0310365Y0120821D02*
X0303654Y0120821D01*
X0310365Y0119822D02*
X0003181Y0119822D01*
X0003181Y0118824D02*
X0310365Y0118824D01*
X0310365Y0128809D02*
X0003181Y0128809D01*
X0003181Y0129807D02*
X0091741Y0129807D01*
X0091516Y0129901D02*
X0092941Y0129310D01*
X0100059Y0129310D01*
X0101484Y0129901D01*
X0102575Y0130992D01*
X0103165Y0132417D01*
X0103165Y0133960D01*
X0102575Y0135385D01*
X0101484Y0136476D01*
X0100059Y0137066D01*
X0092941Y0137066D01*
X0091516Y0136476D01*
X0090425Y0135385D01*
X0089835Y0133960D01*
X0089835Y0132417D01*
X0090425Y0130992D01*
X0091516Y0129901D01*
X0090611Y0130806D02*
X0003181Y0130806D01*
X0003181Y0131804D02*
X0090088Y0131804D01*
X0089835Y0132803D02*
X0003181Y0132803D01*
X0003181Y0133801D02*
X0089835Y0133801D01*
X0090183Y0134800D02*
X0003181Y0134800D01*
X0003181Y0135798D02*
X0090838Y0135798D01*
X0092291Y0136797D02*
X0003181Y0136797D01*
X0003181Y0137795D02*
X0294682Y0137795D01*
X0294633Y0137788D02*
X0294023Y0137590D01*
X0293452Y0137298D01*
X0292933Y0136921D01*
X0292480Y0136468D01*
X0292103Y0135949D01*
X0291811Y0135377D01*
X0291613Y0134767D01*
X0291541Y0134313D01*
X0297875Y0134313D01*
X0297875Y0133313D01*
X0298875Y0133313D01*
X0298875Y0129739D01*
X0301483Y0129739D01*
X0302117Y0129839D01*
X0302727Y0130037D01*
X0303298Y0130328D01*
X0303817Y0130705D01*
X0304270Y0131159D01*
X0304647Y0131678D01*
X0304939Y0132249D01*
X0305137Y0132859D01*
X0305209Y0133313D01*
X0298875Y0133313D01*
X0298875Y0134313D01*
X0305209Y0134313D01*
X0305137Y0134767D01*
X0304939Y0135377D01*
X0304647Y0135949D01*
X0304270Y0136468D01*
X0303817Y0136921D01*
X0303298Y0137298D01*
X0302727Y0137590D01*
X0302117Y0137788D01*
X0301483Y0137888D01*
X0298875Y0137888D01*
X0298875Y0134313D01*
X0297875Y0134313D01*
X0297875Y0137888D01*
X0295267Y0137888D01*
X0294633Y0137788D01*
X0292809Y0136797D02*
X0100709Y0136797D01*
X0102162Y0135798D02*
X0292026Y0135798D01*
X0291624Y0134800D02*
X0102817Y0134800D01*
X0103165Y0133801D02*
X0297875Y0133801D01*
X0297875Y0133313D02*
X0291541Y0133313D01*
X0291613Y0132859D01*
X0291811Y0132249D01*
X0292103Y0131678D01*
X0292480Y0131159D01*
X0292933Y0130705D01*
X0293452Y0130328D01*
X0294023Y0130037D01*
X0294633Y0129839D01*
X0295267Y0129739D01*
X0297875Y0129739D01*
X0297875Y0133313D01*
X0297875Y0132803D02*
X0298875Y0132803D01*
X0298875Y0133801D02*
X0310365Y0133801D01*
X0310365Y0132803D02*
X0305119Y0132803D01*
X0304712Y0131804D02*
X0310365Y0131804D01*
X0310365Y0130806D02*
X0303918Y0130806D01*
X0301917Y0129807D02*
X0310365Y0129807D01*
X0310365Y0134800D02*
X0305126Y0134800D01*
X0304724Y0135798D02*
X0310365Y0135798D01*
X0310365Y0136797D02*
X0303941Y0136797D01*
X0302068Y0137795D02*
X0310365Y0137795D01*
X0310365Y0138794D02*
X0003181Y0138794D01*
X0003181Y0139792D02*
X0091777Y0139792D01*
X0091516Y0139901D02*
X0092941Y0139310D01*
X0100059Y0139310D01*
X0101484Y0139901D01*
X0102575Y0140992D01*
X0103165Y0142417D01*
X0103165Y0143960D01*
X0102575Y0145385D01*
X0101484Y0146476D01*
X0100059Y0147066D01*
X0092941Y0147066D01*
X0091516Y0146476D01*
X0090425Y0145385D01*
X0089835Y0143960D01*
X0089835Y0142417D01*
X0090425Y0140992D01*
X0091516Y0139901D01*
X0090626Y0140791D02*
X0003181Y0140791D01*
X0003181Y0141789D02*
X0090095Y0141789D01*
X0089835Y0142788D02*
X0003181Y0142788D01*
X0003181Y0143786D02*
X0089835Y0143786D01*
X0090177Y0144785D02*
X0003181Y0144785D01*
X0003181Y0145783D02*
X0090824Y0145783D01*
X0092255Y0146782D02*
X0003181Y0146782D01*
X0003181Y0147781D02*
X0310365Y0147781D01*
X0310365Y0148779D02*
X0003181Y0148779D01*
X0003181Y0149778D02*
X0091475Y0149778D01*
X0091577Y0149703D02*
X0092148Y0149412D01*
X0092758Y0149214D01*
X0093392Y0149114D01*
X0096000Y0149114D01*
X0096000Y0152688D01*
X0097000Y0152688D01*
X0097000Y0149114D01*
X0099608Y0149114D01*
X0100242Y0149214D01*
X0100852Y0149412D01*
X0101423Y0149703D01*
X0101942Y0150080D01*
X0102395Y0150534D01*
X0102772Y0151053D01*
X0103064Y0151624D01*
X0103262Y0152234D01*
X0103334Y0152688D01*
X0097000Y0152688D01*
X0097000Y0153688D01*
X0103334Y0153688D01*
X0103262Y0154142D01*
X0103064Y0154752D01*
X0102772Y0155324D01*
X0102395Y0155843D01*
X0101942Y0156296D01*
X0101423Y0156673D01*
X0100852Y0156965D01*
X0100242Y0157163D01*
X0099608Y0157263D01*
X0097000Y0157263D01*
X0097000Y0153688D01*
X0096000Y0153688D01*
X0096000Y0152688D01*
X0089666Y0152688D01*
X0089738Y0152234D01*
X0089936Y0151624D01*
X0090228Y0151053D01*
X0090605Y0150534D01*
X0091058Y0150080D01*
X0091577Y0149703D01*
X0090428Y0150776D02*
X0003181Y0150776D01*
X0003181Y0151775D02*
X0089887Y0151775D01*
X0089666Y0153688D02*
X0096000Y0153688D01*
X0096000Y0157263D01*
X0093392Y0157263D01*
X0092758Y0157163D01*
X0092148Y0156965D01*
X0091577Y0156673D01*
X0091058Y0156296D01*
X0090605Y0155843D01*
X0090228Y0155324D01*
X0089936Y0154752D01*
X0089738Y0154142D01*
X0089666Y0153688D01*
X0089679Y0153772D02*
X0003181Y0153772D01*
X0003181Y0154770D02*
X0089945Y0154770D01*
X0090551Y0155769D02*
X0003181Y0155769D01*
X0003181Y0156767D02*
X0091761Y0156767D01*
X0096000Y0156767D02*
X0097000Y0156767D01*
X0097000Y0155769D02*
X0096000Y0155769D01*
X0096000Y0154770D02*
X0097000Y0154770D01*
X0097000Y0153772D02*
X0096000Y0153772D01*
X0096000Y0152773D02*
X0003181Y0152773D01*
X0003181Y0157766D02*
X0013980Y0157766D01*
X0011436Y0158764D02*
X0003181Y0158764D01*
X0003181Y0159763D02*
X0009201Y0159763D01*
X0007948Y0160761D02*
X0003181Y0160761D01*
X0003181Y0161760D02*
X0006696Y0161760D01*
X0005540Y0162758D02*
X0003181Y0162758D01*
X0003181Y0163757D02*
X0004860Y0163757D01*
X0004179Y0164755D02*
X0003181Y0164755D01*
X0003181Y0165754D02*
X0003498Y0165754D01*
X0020763Y0157766D02*
X0289888Y0157766D01*
X0287343Y0158764D02*
X0024315Y0158764D01*
X0026045Y0159763D02*
X0285917Y0159763D01*
X0284665Y0160761D02*
X0027774Y0160761D01*
X0028823Y0161760D02*
X0283413Y0161760D01*
X0282614Y0162758D02*
X0029750Y0162758D01*
X0030676Y0163757D02*
X0281933Y0163757D01*
X0281253Y0164755D02*
X0031497Y0164755D01*
X0031978Y0165754D02*
X0280572Y0165754D01*
X0280161Y0166752D02*
X0032459Y0166752D01*
X0032939Y0167751D02*
X0279853Y0167751D01*
X0279545Y0168749D02*
X0033420Y0168749D01*
X0033637Y0169748D02*
X0279237Y0169748D01*
X0278934Y0170746D02*
X0033788Y0170746D01*
X0033938Y0171745D02*
X0278934Y0171745D01*
X0278934Y0172743D02*
X0034089Y0172743D01*
X0034239Y0173742D02*
X0278934Y0173742D01*
X0278934Y0174740D02*
X0161139Y0174740D01*
X0161067Y0174710D02*
X0162345Y0175240D01*
X0163323Y0176218D01*
X0163853Y0177496D01*
X0163853Y0178880D01*
X0163323Y0180158D01*
X0162345Y0181137D01*
X0162066Y0181253D01*
X0162066Y0181773D01*
X0162973Y0181773D01*
X0163612Y0182412D01*
X0163612Y0186465D01*
X0162973Y0187104D01*
X0158527Y0187104D01*
X0157888Y0186465D01*
X0157888Y0182412D01*
X0158527Y0181773D01*
X0158684Y0181773D01*
X0158684Y0181253D01*
X0158405Y0181137D01*
X0157427Y0180158D01*
X0156897Y0178880D01*
X0156897Y0177496D01*
X0157427Y0176218D01*
X0158405Y0175240D01*
X0159683Y0174710D01*
X0161067Y0174710D01*
X0159611Y0174740D02*
X0142139Y0174740D01*
X0142067Y0174710D02*
X0143345Y0175240D01*
X0144323Y0176218D01*
X0144853Y0177496D01*
X0144853Y0178880D01*
X0144323Y0180158D01*
X0143345Y0181137D01*
X0143066Y0181253D01*
X0143066Y0181773D01*
X0143223Y0181773D01*
X0143862Y0182412D01*
X0143862Y0186465D01*
X0143223Y0187104D01*
X0138777Y0187104D01*
X0138138Y0186465D01*
X0138138Y0182412D01*
X0138777Y0181773D01*
X0139684Y0181773D01*
X0139684Y0181253D01*
X0139405Y0181137D01*
X0138427Y0180158D01*
X0137897Y0178880D01*
X0137897Y0177496D01*
X0138427Y0176218D01*
X0139405Y0175240D01*
X0140683Y0174710D01*
X0142067Y0174710D01*
X0140611Y0174740D02*
X0034110Y0174740D01*
X0033960Y0175739D02*
X0138906Y0175739D01*
X0138212Y0176737D02*
X0033809Y0176737D01*
X0033659Y0177736D02*
X0137897Y0177736D01*
X0137897Y0178734D02*
X0033489Y0178734D01*
X0033008Y0179733D02*
X0138250Y0179733D01*
X0139000Y0180731D02*
X0032527Y0180731D01*
X0032047Y0181730D02*
X0139684Y0181730D01*
X0138138Y0182728D02*
X0031566Y0182728D01*
X0030809Y0183727D02*
X0138138Y0183727D01*
X0138138Y0184725D02*
X0029882Y0184725D01*
X0028956Y0185724D02*
X0138138Y0185724D01*
X0138395Y0186722D02*
X0028022Y0186722D01*
X0026293Y0187721D02*
X0287620Y0187721D01*
X0286053Y0186722D02*
X0163355Y0186722D01*
X0163612Y0185724D02*
X0284801Y0185724D01*
X0283549Y0184725D02*
X0163612Y0184725D01*
X0163612Y0183727D02*
X0282688Y0183727D01*
X0283155Y0184411D02*
X0283155Y0184411D01*
X0282007Y0182728D02*
X0163612Y0182728D01*
X0162066Y0181730D02*
X0281327Y0181730D01*
X0280646Y0180731D02*
X0162750Y0180731D01*
X0163500Y0179733D02*
X0280194Y0179733D01*
X0279886Y0178734D02*
X0163853Y0178734D01*
X0163853Y0177736D02*
X0279578Y0177736D01*
X0279270Y0176737D02*
X0163538Y0176737D01*
X0162844Y0175739D02*
X0278962Y0175739D01*
X0302898Y0158764D02*
X0310365Y0158764D01*
X0310365Y0157766D02*
X0301001Y0157766D01*
X0304627Y0159763D02*
X0310365Y0159763D01*
X0310365Y0160761D02*
X0305977Y0160761D01*
X0306903Y0161760D02*
X0310365Y0161760D01*
X0310365Y0162758D02*
X0307829Y0162758D01*
X0308756Y0163757D02*
X0310365Y0163757D01*
X0310365Y0164755D02*
X0309298Y0164755D01*
X0309779Y0165754D02*
X0310365Y0165754D01*
X0310365Y0166752D02*
X0310260Y0166752D01*
X0310365Y0156767D02*
X0296626Y0156767D01*
X0296047Y0156767D02*
X0101239Y0156767D01*
X0102449Y0155769D02*
X0310365Y0155769D01*
X0310365Y0154770D02*
X0103055Y0154770D01*
X0103321Y0153772D02*
X0310365Y0153772D01*
X0310365Y0152773D02*
X0097000Y0152773D01*
X0097000Y0151775D02*
X0096000Y0151775D01*
X0096000Y0150776D02*
X0097000Y0150776D01*
X0097000Y0149778D02*
X0096000Y0149778D01*
X0101525Y0149778D02*
X0310365Y0149778D01*
X0310365Y0150776D02*
X0102572Y0150776D01*
X0103113Y0151775D02*
X0310365Y0151775D01*
X0310365Y0146782D02*
X0100745Y0146782D01*
X0102176Y0145783D02*
X0310365Y0145783D01*
X0310365Y0144785D02*
X0102823Y0144785D01*
X0103165Y0143786D02*
X0310365Y0143786D01*
X0310365Y0142788D02*
X0103165Y0142788D01*
X0102905Y0141789D02*
X0310365Y0141789D01*
X0310365Y0140791D02*
X0102374Y0140791D01*
X0101223Y0139792D02*
X0310365Y0139792D01*
X0298875Y0137795D02*
X0297875Y0137795D01*
X0297875Y0136797D02*
X0298875Y0136797D01*
X0298875Y0135798D02*
X0297875Y0135798D01*
X0297875Y0134800D02*
X0298875Y0134800D01*
X0298875Y0131804D02*
X0297875Y0131804D01*
X0297875Y0130806D02*
X0298875Y0130806D01*
X0298875Y0129807D02*
X0297875Y0129807D01*
X0294832Y0129807D02*
X0101259Y0129807D01*
X0102389Y0130806D02*
X0292832Y0130806D01*
X0292038Y0131804D02*
X0102912Y0131804D01*
X0103165Y0132803D02*
X0291631Y0132803D01*
X0310365Y0086871D02*
X0051154Y0086871D01*
X0052712Y0085873D02*
X0310365Y0085873D01*
X0310365Y0084874D02*
X0053412Y0084874D01*
X0053790Y0083876D02*
X0310365Y0083876D01*
X0310365Y0082877D02*
X0053790Y0082877D01*
X0053567Y0081879D02*
X0310365Y0081879D01*
X0310365Y0080880D02*
X0053089Y0080880D01*
X0052063Y0079882D02*
X0310365Y0079882D01*
X0310365Y0076886D02*
X0051118Y0076886D01*
X0052697Y0075888D02*
X0310365Y0075888D01*
X0310365Y0074889D02*
X0053405Y0074889D01*
X0053790Y0073891D02*
X0291225Y0073891D01*
X0288681Y0072892D02*
X0053790Y0072892D01*
X0053574Y0071894D02*
X0286893Y0071894D01*
X0285641Y0070895D02*
X0053103Y0070895D01*
X0052099Y0069897D02*
X0284388Y0069897D01*
X0283780Y0069411D02*
X0283780Y0069411D01*
X0282068Y0066901D02*
X0051601Y0066901D01*
X0052961Y0065903D02*
X0281388Y0065903D01*
X0280872Y0064904D02*
X0053611Y0064904D01*
X0053924Y0063906D02*
X0280564Y0063906D01*
X0300401Y0073891D02*
X0310365Y0073891D01*
X0310365Y0072892D02*
X0303039Y0072892D01*
X0304768Y0071894D02*
X0310365Y0071894D01*
X0310365Y0070895D02*
X0306342Y0070895D01*
X0307268Y0069897D02*
X0310365Y0069897D01*
X0310365Y0068898D02*
X0308195Y0068898D01*
X0309121Y0067900D02*
X0310365Y0067900D01*
X0310365Y0066901D02*
X0309788Y0066901D01*
X0310269Y0065903D02*
X0310365Y0065903D01*
X0157906Y0175739D02*
X0143844Y0175739D01*
X0144538Y0176737D02*
X0157212Y0176737D01*
X0156897Y0177736D02*
X0144853Y0177736D01*
X0144853Y0178734D02*
X0156897Y0178734D01*
X0157250Y0179733D02*
X0144500Y0179733D01*
X0143750Y0180731D02*
X0158000Y0180731D01*
X0158684Y0181730D02*
X0157133Y0181730D01*
X0157019Y0181664D02*
X0157312Y0181833D01*
X0157552Y0182073D01*
X0157721Y0182367D01*
X0157809Y0182694D01*
X0157809Y0184151D01*
X0155037Y0184151D01*
X0155037Y0181576D01*
X0156691Y0181576D01*
X0157019Y0181664D01*
X0157809Y0182728D02*
X0157888Y0182728D01*
X0157888Y0183727D02*
X0157809Y0183727D01*
X0157809Y0184726D02*
X0157809Y0186183D01*
X0157721Y0186510D01*
X0157552Y0186804D01*
X0157312Y0187043D01*
X0157019Y0187213D01*
X0156691Y0187301D01*
X0155037Y0187301D01*
X0155037Y0184726D01*
X0154463Y0184726D01*
X0154463Y0187301D01*
X0152809Y0187301D01*
X0152481Y0187213D01*
X0152188Y0187043D01*
X0151948Y0186804D01*
X0151779Y0186510D01*
X0151691Y0186183D01*
X0151691Y0184726D01*
X0154463Y0184726D01*
X0154463Y0184151D01*
X0155037Y0184151D01*
X0155037Y0184726D01*
X0157809Y0184726D01*
X0157888Y0184725D02*
X0155037Y0184725D01*
X0154463Y0184725D02*
X0147287Y0184725D01*
X0147287Y0184726D02*
X0150059Y0184726D01*
X0150059Y0186183D01*
X0149971Y0186510D01*
X0149802Y0186804D01*
X0149562Y0187043D01*
X0149269Y0187213D01*
X0148941Y0187301D01*
X0147287Y0187301D01*
X0147287Y0184726D01*
X0146713Y0184726D01*
X0146713Y0187301D01*
X0145059Y0187301D01*
X0144731Y0187213D01*
X0144438Y0187043D01*
X0144198Y0186804D01*
X0144029Y0186510D01*
X0143941Y0186183D01*
X0143941Y0184726D01*
X0146713Y0184726D01*
X0146713Y0184151D01*
X0147287Y0184151D01*
X0147287Y0181576D01*
X0148941Y0181576D01*
X0149269Y0181664D01*
X0149562Y0181833D01*
X0149802Y0182073D01*
X0149971Y0182367D01*
X0150059Y0182694D01*
X0150059Y0184151D01*
X0147287Y0184151D01*
X0147287Y0184726D01*
X0146713Y0184725D02*
X0143862Y0184725D01*
X0143941Y0184151D02*
X0143941Y0182694D01*
X0144029Y0182367D01*
X0144198Y0182073D01*
X0144438Y0181833D01*
X0144731Y0181664D01*
X0145059Y0181576D01*
X0146713Y0181576D01*
X0146713Y0184151D01*
X0143941Y0184151D01*
X0143941Y0183727D02*
X0143862Y0183727D01*
X0143862Y0182728D02*
X0143941Y0182728D01*
X0144617Y0181730D02*
X0143066Y0181730D01*
X0146713Y0181730D02*
X0147287Y0181730D01*
X0147287Y0182728D02*
X0146713Y0182728D01*
X0146713Y0183727D02*
X0147287Y0183727D01*
X0147287Y0185724D02*
X0146713Y0185724D01*
X0146713Y0186722D02*
X0147287Y0186722D01*
X0149849Y0186722D02*
X0151901Y0186722D01*
X0151691Y0185724D02*
X0150059Y0185724D01*
X0150059Y0183727D02*
X0151691Y0183727D01*
X0151691Y0184151D02*
X0151691Y0182694D01*
X0151779Y0182367D01*
X0151948Y0182073D01*
X0152188Y0181833D01*
X0152481Y0181664D01*
X0152809Y0181576D01*
X0154463Y0181576D01*
X0154463Y0184151D01*
X0151691Y0184151D01*
X0151691Y0182728D02*
X0150059Y0182728D01*
X0149383Y0181730D02*
X0152367Y0181730D01*
X0154463Y0181730D02*
X0155037Y0181730D01*
X0155037Y0182728D02*
X0154463Y0182728D01*
X0154463Y0183727D02*
X0155037Y0183727D01*
X0155037Y0185724D02*
X0154463Y0185724D01*
X0154463Y0186722D02*
X0155037Y0186722D01*
X0157599Y0186722D02*
X0158145Y0186722D01*
X0157888Y0185724D02*
X0157809Y0185724D01*
X0144151Y0186722D02*
X0143605Y0186722D01*
X0143862Y0185724D02*
X0143941Y0185724D01*
X0047625Y0066901D02*
X0046625Y0066901D01*
X0046625Y0065903D02*
X0047625Y0065903D01*
X0047625Y0064904D02*
X0046625Y0064904D01*
X0046625Y0063906D02*
X0047625Y0063906D01*
X0022000Y0063906D02*
X0021000Y0063906D01*
X0021000Y0064904D02*
X0022000Y0064904D01*
X0022000Y0065903D02*
X0021000Y0065903D01*
X0021000Y0066901D02*
X0022000Y0066901D01*
X0022000Y0060910D02*
X0021000Y0060910D01*
X0021000Y0059912D02*
X0022000Y0059912D01*
D14*
X0062750Y0077563D03*
X0067750Y0104438D03*
X0062750Y0108813D03*
X0072750Y0108813D03*
X0081500Y0114438D03*
X0081500Y0120063D03*
X0090250Y0108813D03*
X0114625Y0110063D03*
X0158375Y0129438D03*
X0180250Y0129438D03*
X0185250Y0129438D03*
X0194000Y0136938D03*
X0211500Y0136938D03*
X0227125Y0146313D03*
X0230875Y0138188D03*
X0210875Y0149438D03*
X0174625Y0162563D03*
X0114000Y0180063D03*
X0099000Y0175688D03*
X0099000Y0170063D03*
X0062750Y0155688D03*
X0057750Y0160688D03*
X0063375Y0139438D03*
X0072125Y0139438D03*
X0067750Y0135063D03*
X0058375Y0130063D03*
X0062750Y0125063D03*
X0034625Y0139438D03*
X0030250Y0135063D03*
X0025875Y0139438D03*
X0025250Y0108813D03*
X0030250Y0104438D03*
X0035250Y0108813D03*
X0095250Y0046313D03*
X0158375Y0059438D03*
X0194000Y0089438D03*
X0182750Y0096938D03*
X0177750Y0096938D03*
X0174625Y0092563D03*
X0197750Y0110688D03*
X0197750Y0115688D03*
X0207750Y0115688D03*
X0207750Y0110688D03*
X0215250Y0110688D03*
X0215250Y0115688D03*
X0241500Y0104438D03*
X0249625Y0115063D03*
X0249625Y0124438D03*
X0277750Y0141313D03*
X0277750Y0146313D03*
X0254625Y0143813D03*
X0254625Y0148813D03*
X0282125Y0130063D03*
X0282125Y0107563D03*
X0273375Y0078188D03*
X0211500Y0089438D03*
D15*
X0160375Y0108188D02*
X0160375Y0114063D01*
X0160750Y0114438D01*
X0141375Y0114063D02*
X0141375Y0108188D01*
X0141375Y0114063D02*
X0141000Y0114438D01*
X0141375Y0178188D02*
X0141375Y0184063D01*
X0141000Y0184438D01*
X0160375Y0184063D02*
X0160375Y0178188D01*
X0160375Y0184063D02*
X0160750Y0184438D01*
M02*
