G75*
%MOIN*%
%OFA0B0*%
%FSLAX25Y25*%
%IPPOS*%
%LPD*%
%AMOC8*
5,1,8,0,0,1.08239X$1,22.5*
%
%ADD10R,0.03543X0.03150*%
%ADD11R,0.04724X0.04724*%
%ADD12C,0.04775*%
%ADD13R,0.02600X0.08000*%
%ADD14R,0.02100X0.07800*%
%ADD15R,0.02000X0.05800*%
%ADD16R,0.05800X0.02000*%
%ADD17R,0.05118X0.05118*%
%ADD18R,0.14173X0.05118*%
%ADD19R,0.05118X0.04724*%
%ADD20R,0.01400X0.05800*%
%ADD21R,0.05800X0.01400*%
%ADD22R,0.03150X0.03543*%
%ADD23R,0.05000X0.02200*%
%ADD24C,0.05575*%
%ADD25C,0.02481*%
%ADD26C,0.01200*%
%ADD27C,0.01600*%
%ADD28C,0.02000*%
%ADD29C,0.02400*%
%ADD30C,0.00591*%
D10*
X0099125Y0046313D03*
X0105125Y0046313D03*
X0164750Y0092563D03*
X0170750Y0092563D03*
X0199750Y0099438D03*
X0205750Y0099438D03*
X0205750Y0104438D03*
X0199750Y0104438D03*
X0199750Y0121938D03*
X0199750Y0126938D03*
X0205750Y0126938D03*
X0205750Y0121938D03*
X0261000Y0135063D03*
X0267000Y0135063D03*
X0276000Y0126313D03*
X0282000Y0126313D03*
X0282000Y0121313D03*
X0282000Y0116313D03*
X0276000Y0116313D03*
X0276000Y0121313D03*
X0276000Y0111313D03*
X0282000Y0111313D03*
X0270125Y0105688D03*
X0264125Y0105688D03*
X0263500Y0078188D03*
X0269500Y0078188D03*
X0277250Y0078188D03*
X0283250Y0078188D03*
X0170750Y0162563D03*
X0164750Y0162563D03*
X0123875Y0170063D03*
X0117875Y0170063D03*
X0117875Y0175063D03*
X0123875Y0175063D03*
X0123875Y0180063D03*
X0123875Y0185063D03*
X0117875Y0185063D03*
X0117875Y0180063D03*
X0075125Y0124438D03*
X0069125Y0124438D03*
X0081000Y0105688D03*
X0087000Y0105688D03*
X0093500Y0105688D03*
X0099500Y0105688D03*
X0096625Y0099438D03*
X0102625Y0099438D03*
X0090125Y0099438D03*
X0084125Y0099438D03*
X0118500Y0100063D03*
X0124500Y0100063D03*
X0124500Y0105063D03*
X0124500Y0110063D03*
X0118500Y0110063D03*
X0118500Y0105063D03*
X0118500Y0115063D03*
X0124500Y0115063D03*
D11*
X0094384Y0114438D03*
X0094384Y0120063D03*
X0086116Y0120063D03*
X0086116Y0114438D03*
X0103616Y0170063D03*
X0103616Y0175688D03*
X0111884Y0175688D03*
X0111884Y0170063D03*
D12*
X0141375Y0178188D03*
X0160375Y0178188D03*
X0160375Y0108188D03*
X0141375Y0108188D03*
X0263875Y0091938D03*
X0282875Y0091938D03*
D13*
X0158375Y0092988D03*
X0153375Y0092988D03*
X0148375Y0092988D03*
X0143375Y0092988D03*
X0138375Y0092988D03*
X0133375Y0092988D03*
X0128375Y0092988D03*
X0123375Y0092988D03*
X0118375Y0092988D03*
X0113375Y0092988D03*
X0113375Y0123388D03*
X0118375Y0123388D03*
X0123375Y0123388D03*
X0128375Y0123388D03*
X0133375Y0123388D03*
X0138375Y0123388D03*
X0143375Y0123388D03*
X0148375Y0123388D03*
X0153375Y0123388D03*
X0158375Y0123388D03*
X0158375Y0162988D03*
X0153375Y0162988D03*
X0148375Y0162988D03*
X0143375Y0162988D03*
X0138375Y0162988D03*
X0133375Y0162988D03*
X0128375Y0162988D03*
X0123375Y0162988D03*
X0118375Y0162988D03*
X0113375Y0162988D03*
X0113375Y0053388D03*
X0118375Y0053388D03*
X0123375Y0053388D03*
X0128375Y0053388D03*
X0133375Y0053388D03*
X0138375Y0053388D03*
X0143375Y0053388D03*
X0148375Y0053388D03*
X0153375Y0053388D03*
X0158375Y0053388D03*
D14*
X0104625Y0054688D03*
X0099625Y0054688D03*
X0094625Y0054688D03*
X0089625Y0054688D03*
X0084625Y0054688D03*
X0079625Y0054688D03*
X0074625Y0054688D03*
X0069625Y0054688D03*
X0069625Y0091688D03*
X0074625Y0091688D03*
X0079625Y0091688D03*
X0084625Y0091688D03*
X0089625Y0091688D03*
X0094625Y0091688D03*
X0099625Y0091688D03*
X0104625Y0091688D03*
D15*
X0227375Y0099713D03*
X0230475Y0099713D03*
X0233675Y0099713D03*
X0236775Y0099713D03*
X0239975Y0099713D03*
X0243075Y0099713D03*
X0246275Y0099713D03*
X0249375Y0099713D03*
X0249375Y0132913D03*
X0246275Y0132913D03*
X0243075Y0132913D03*
X0239975Y0132913D03*
X0236775Y0132913D03*
X0233675Y0132913D03*
X0230475Y0132913D03*
X0227375Y0132913D03*
D16*
X0221775Y0127313D03*
X0221775Y0124213D03*
X0221775Y0121013D03*
X0221775Y0117913D03*
X0221775Y0114713D03*
X0221775Y0111613D03*
X0221775Y0108413D03*
X0221775Y0105313D03*
X0254975Y0105313D03*
X0254975Y0108413D03*
X0254975Y0111613D03*
X0254975Y0114713D03*
X0254975Y0117913D03*
X0254975Y0121013D03*
X0254975Y0124213D03*
X0254975Y0127313D03*
D17*
X0058055Y0125196D03*
X0049000Y0125196D03*
X0039945Y0125196D03*
X0039945Y0155821D03*
X0049000Y0155821D03*
X0058055Y0155821D03*
D18*
X0049000Y0131805D03*
X0049000Y0101180D03*
D19*
X0030250Y0109188D03*
X0030250Y0117188D03*
X0030250Y0139813D03*
X0030250Y0147813D03*
X0067750Y0147813D03*
X0067750Y0139813D03*
X0067750Y0117188D03*
X0067750Y0109188D03*
D20*
X0177700Y0101688D03*
X0180200Y0101688D03*
X0182800Y0101688D03*
X0185300Y0101688D03*
X0185300Y0124688D03*
X0182800Y0124688D03*
X0180200Y0124688D03*
X0177700Y0124688D03*
D21*
X0260000Y0141263D03*
X0260000Y0143763D03*
X0260000Y0146363D03*
X0260000Y0148863D03*
X0283000Y0148863D03*
X0283000Y0146363D03*
X0283000Y0143763D03*
X0283000Y0141263D03*
D22*
X0240250Y0143313D03*
X0240250Y0149313D03*
X0214625Y0149313D03*
X0214625Y0143313D03*
X0211500Y0133063D03*
X0211500Y0127063D03*
X0211500Y0121813D03*
X0211500Y0115813D03*
X0211500Y0110563D03*
X0211500Y0104563D03*
X0211500Y0099313D03*
X0211500Y0093313D03*
X0194000Y0093313D03*
X0194000Y0099313D03*
X0194000Y0104563D03*
X0194000Y0110563D03*
X0194000Y0115813D03*
X0194000Y0121813D03*
X0194000Y0127063D03*
X0194000Y0133063D03*
X0062750Y0073688D03*
X0062750Y0067688D03*
X0062750Y0061188D03*
X0062750Y0055188D03*
D23*
X0221400Y0142613D03*
X0231600Y0142613D03*
X0231600Y0146313D03*
X0231600Y0150013D03*
X0221400Y0150013D03*
D24*
X0295588Y0133813D02*
X0301162Y0133813D01*
X0301162Y0123813D02*
X0295588Y0123813D01*
X0295588Y0113813D02*
X0301162Y0113813D01*
X0099287Y0133188D02*
X0093713Y0133188D01*
X0093713Y0143188D02*
X0099287Y0143188D01*
X0099287Y0153188D02*
X0093713Y0153188D01*
X0024287Y0093188D02*
X0018713Y0093188D01*
X0018713Y0083188D02*
X0024287Y0083188D01*
X0024287Y0073188D02*
X0018713Y0073188D01*
X0018713Y0063188D02*
X0024287Y0063188D01*
X0044338Y0063188D02*
X0049912Y0063188D01*
X0049912Y0073188D02*
X0044338Y0073188D01*
X0044338Y0083188D02*
X0049912Y0083188D01*
D25*
X0062750Y0077563D03*
X0067750Y0104438D03*
X0062750Y0108813D03*
X0072750Y0108813D03*
X0081500Y0114438D03*
X0081500Y0120063D03*
X0090250Y0108813D03*
X0114625Y0110063D03*
X0158375Y0129438D03*
X0180250Y0129438D03*
X0185250Y0129438D03*
X0194000Y0136938D03*
X0211500Y0136938D03*
X0227125Y0146313D03*
X0230875Y0138188D03*
X0210875Y0149438D03*
X0174625Y0162563D03*
X0114000Y0180063D03*
X0099000Y0175688D03*
X0099000Y0170063D03*
X0062750Y0155688D03*
X0057750Y0160688D03*
X0063375Y0139438D03*
X0072125Y0139438D03*
X0067750Y0135063D03*
X0058375Y0130063D03*
X0062750Y0125063D03*
X0034625Y0139438D03*
X0030250Y0135063D03*
X0025875Y0139438D03*
X0025250Y0108813D03*
X0030250Y0104438D03*
X0035250Y0108813D03*
X0095250Y0046313D03*
X0158375Y0059438D03*
X0194000Y0089438D03*
X0182750Y0096938D03*
X0177750Y0096938D03*
X0174625Y0092563D03*
X0197750Y0110688D03*
X0197750Y0115688D03*
X0207750Y0115688D03*
X0207750Y0110688D03*
X0215250Y0110688D03*
X0215250Y0115688D03*
X0241500Y0104438D03*
X0249625Y0115063D03*
X0249625Y0124438D03*
X0277750Y0141313D03*
X0277750Y0146313D03*
X0254625Y0143813D03*
X0254625Y0148813D03*
X0282125Y0130063D03*
X0282125Y0107563D03*
X0273375Y0078188D03*
X0211500Y0089438D03*
D26*
X0019625Y0048813D02*
X0012125Y0056313D01*
X0012125Y0135063D01*
X0024625Y0147563D01*
X0030000Y0147563D01*
X0030250Y0147813D01*
X0029875Y0139438D02*
X0025875Y0139438D01*
X0030250Y0138813D02*
X0030250Y0135063D01*
X0030875Y0139438D02*
X0034625Y0139438D01*
X0058375Y0130063D02*
X0058375Y0125516D01*
X0058828Y0125063D01*
X0062750Y0125063D01*
X0058375Y0125516D02*
X0058055Y0125196D01*
X0067750Y0135063D02*
X0067750Y0139063D01*
X0067375Y0139438D02*
X0063375Y0139438D01*
X0068125Y0139438D02*
X0072125Y0139438D01*
X0075125Y0124438D02*
X0077125Y0124438D01*
X0081500Y0120063D01*
X0086116Y0120063D01*
X0086116Y0114438D02*
X0081500Y0114438D01*
X0090250Y0108813D02*
X0087125Y0105688D01*
X0087000Y0105688D01*
X0090250Y0108813D02*
X0093375Y0105688D01*
X0093500Y0105688D01*
X0099500Y0105688D02*
X0099625Y0105563D01*
X0099625Y0091688D01*
X0094625Y0091688D02*
X0094625Y0097438D01*
X0096625Y0099438D01*
X0102625Y0099438D02*
X0104625Y0097438D01*
X0104625Y0091688D01*
X0113375Y0092988D02*
X0113375Y0068813D01*
X0112250Y0067688D01*
X0062750Y0067688D01*
X0062750Y0061188D01*
X0062750Y0055188D02*
X0069125Y0055188D01*
X0069625Y0054688D01*
X0074625Y0054688D02*
X0074625Y0063188D01*
X0075875Y0064438D01*
X0117125Y0064438D01*
X0118375Y0063188D01*
X0118375Y0053388D01*
X0104625Y0054688D02*
X0104625Y0060063D01*
X0104000Y0060688D01*
X0097750Y0060688D01*
X0097125Y0060063D01*
X0097125Y0050063D01*
X0095875Y0048813D01*
X0019625Y0048813D01*
X0021500Y0073188D02*
X0047125Y0073188D01*
X0052750Y0073188D01*
X0060250Y0080688D01*
X0065250Y0080688D01*
X0069625Y0085063D01*
X0069625Y0091688D01*
X0074625Y0091688D02*
X0074625Y0094438D01*
X0072125Y0096938D01*
X0067750Y0096938D01*
X0065875Y0095063D01*
X0065875Y0085688D01*
X0063375Y0083188D01*
X0047125Y0083188D01*
X0021500Y0083188D01*
X0030250Y0104438D02*
X0030250Y0108438D01*
X0029875Y0108813D01*
X0030250Y0109188D01*
X0030625Y0108813D01*
X0035250Y0108813D01*
X0029875Y0108813D02*
X0025250Y0108813D01*
X0062750Y0108813D02*
X0067375Y0108813D01*
X0067750Y0109188D01*
X0067750Y0104438D01*
X0068125Y0108813D02*
X0067750Y0109188D01*
X0068125Y0108813D02*
X0072750Y0108813D01*
X0079625Y0104313D02*
X0081000Y0105688D01*
X0079625Y0104313D02*
X0079625Y0091688D01*
X0084625Y0091688D02*
X0084625Y0098938D01*
X0084125Y0099438D01*
X0089625Y0098938D02*
X0090125Y0099438D01*
X0089625Y0098938D02*
X0089625Y0091688D01*
X0098375Y0114438D02*
X0112750Y0100063D01*
X0118500Y0100063D01*
X0124500Y0100063D02*
X0131500Y0100063D01*
X0133375Y0098188D01*
X0133375Y0092988D01*
X0138375Y0092988D02*
X0138375Y0098813D01*
X0132125Y0105063D01*
X0124500Y0105063D01*
X0124500Y0110063D02*
X0124000Y0110063D01*
X0119000Y0115063D01*
X0118500Y0115063D01*
X0124500Y0115063D02*
X0142750Y0115063D01*
X0144313Y0116626D01*
X0132125Y0110063D02*
X0124500Y0110063D01*
X0118500Y0110063D02*
X0114625Y0110063D01*
X0113375Y0105063D02*
X0098375Y0120063D01*
X0094384Y0120063D01*
X0094384Y0114438D02*
X0098375Y0114438D01*
X0113375Y0105063D02*
X0118500Y0105063D01*
X0132125Y0110063D02*
X0143375Y0098813D01*
X0143375Y0092988D01*
X0148375Y0092988D02*
X0148375Y0101188D01*
X0141375Y0108188D01*
X0153375Y0101188D02*
X0160375Y0108188D01*
X0153375Y0101188D02*
X0153375Y0092988D01*
X0158375Y0092988D02*
X0158800Y0092563D01*
X0164750Y0092563D01*
X0170750Y0092563D02*
X0174625Y0092563D01*
X0177700Y0096938D02*
X0177750Y0096938D01*
X0177700Y0096938D02*
X0177700Y0101688D01*
X0182800Y0101688D02*
X0182800Y0096938D01*
X0182750Y0096938D01*
X0194000Y0093313D02*
X0194000Y0089438D01*
X0211500Y0089438D02*
X0211500Y0093313D01*
X0211500Y0110563D02*
X0211498Y0110583D01*
X0211494Y0110602D01*
X0211486Y0110620D01*
X0211476Y0110636D01*
X0211463Y0110651D01*
X0211448Y0110664D01*
X0211432Y0110674D01*
X0211414Y0110682D01*
X0211395Y0110686D01*
X0211375Y0110688D01*
X0207750Y0110688D01*
X0207750Y0115688D02*
X0211375Y0115688D01*
X0211395Y0115690D01*
X0211414Y0115694D01*
X0211432Y0115702D01*
X0211448Y0115712D01*
X0211463Y0115725D01*
X0211476Y0115740D01*
X0211486Y0115756D01*
X0211494Y0115774D01*
X0211498Y0115793D01*
X0211500Y0115813D01*
X0197750Y0115688D02*
X0194125Y0115688D01*
X0194105Y0115690D01*
X0194086Y0115694D01*
X0194068Y0115702D01*
X0194052Y0115712D01*
X0194037Y0115725D01*
X0194024Y0115740D01*
X0194014Y0115756D01*
X0194006Y0115774D01*
X0194002Y0115793D01*
X0194000Y0115813D01*
X0194125Y0110688D02*
X0197750Y0110688D01*
X0194125Y0110688D02*
X0194105Y0110686D01*
X0194086Y0110682D01*
X0194068Y0110674D01*
X0194052Y0110664D01*
X0194037Y0110651D01*
X0194024Y0110636D01*
X0194014Y0110620D01*
X0194006Y0110602D01*
X0194002Y0110583D01*
X0194000Y0110563D01*
X0185300Y0124688D02*
X0185300Y0129438D01*
X0185250Y0129438D01*
X0180250Y0129438D02*
X0180200Y0129438D01*
X0180200Y0124688D01*
X0194000Y0133063D02*
X0194000Y0136938D01*
X0211500Y0136938D02*
X0211500Y0133063D01*
X0221400Y0142613D02*
X0221450Y0142563D01*
X0227125Y0146313D02*
X0231600Y0146313D01*
X0231600Y0142613D02*
X0234050Y0142613D01*
X0236500Y0145063D01*
X0236500Y0148188D01*
X0237625Y0149313D01*
X0240250Y0149313D01*
X0234000Y0141938D02*
X0231600Y0142613D01*
X0234000Y0141938D02*
X0239975Y0135963D01*
X0239975Y0132913D01*
X0245875Y0126938D02*
X0247125Y0128188D01*
X0250250Y0128188D01*
X0257125Y0135063D01*
X0261000Y0135063D01*
X0260000Y0143763D02*
X0254675Y0143763D01*
X0254625Y0143813D01*
X0254625Y0148813D02*
X0254675Y0148863D01*
X0260000Y0148863D01*
X0277750Y0146313D02*
X0277800Y0146363D01*
X0283000Y0146363D01*
X0283000Y0141263D02*
X0277800Y0141263D01*
X0277750Y0141313D01*
X0282125Y0130063D02*
X0282125Y0126438D01*
X0282000Y0126313D01*
X0273375Y0108188D02*
X0260550Y0121013D01*
X0254975Y0121013D01*
X0254975Y0117913D02*
X0260525Y0117913D01*
X0270125Y0108313D01*
X0270125Y0105688D01*
X0264125Y0105688D02*
X0263875Y0105438D01*
X0263875Y0091938D01*
X0263875Y0078563D01*
X0263500Y0078188D01*
X0269500Y0078188D02*
X0273375Y0078188D01*
X0277250Y0078188D01*
X0282875Y0078563D02*
X0282875Y0091938D01*
X0273375Y0101438D01*
X0273375Y0108188D01*
X0282125Y0107563D02*
X0282125Y0111188D01*
X0282000Y0111313D01*
X0254975Y0111613D02*
X0248700Y0111613D01*
X0245875Y0114438D01*
X0245875Y0126938D01*
X0249625Y0124438D02*
X0249850Y0124213D01*
X0254975Y0124213D01*
X0254975Y0114713D02*
X0249975Y0114713D01*
X0249625Y0115063D01*
X0245250Y0104438D02*
X0241500Y0104438D01*
X0243075Y0102863D01*
X0243075Y0099713D01*
X0239975Y0099713D02*
X0239975Y0102913D01*
X0241500Y0104438D01*
X0245250Y0104438D02*
X0246275Y0103413D01*
X0246275Y0099713D01*
X0282875Y0078563D02*
X0283250Y0078188D01*
X0230475Y0132913D02*
X0230475Y0137788D01*
X0230875Y0138188D01*
X0214625Y0149313D02*
X0214500Y0149438D01*
X0210875Y0149438D01*
X0174625Y0162563D02*
X0170750Y0162563D01*
X0164750Y0162563D02*
X0158800Y0162563D01*
X0158375Y0162988D01*
X0158375Y0168188D01*
X0167750Y0177563D01*
X0167750Y0181313D01*
X0164000Y0185063D01*
X0123875Y0185063D01*
X0123875Y0180063D02*
X0123375Y0180063D01*
X0118375Y0185063D01*
X0117875Y0185063D01*
X0117875Y0180063D02*
X0114000Y0180063D01*
X0111884Y0175688D02*
X0112509Y0175063D01*
X0117875Y0175063D01*
X0123875Y0175063D02*
X0131500Y0175063D01*
X0138375Y0168188D01*
X0138375Y0162988D01*
X0143375Y0162988D02*
X0143375Y0168188D01*
X0131500Y0180063D01*
X0123875Y0180063D01*
X0123875Y0170063D02*
X0131500Y0170063D01*
X0133375Y0168188D01*
X0133375Y0162988D01*
X0148375Y0162988D02*
X0148375Y0171188D01*
X0141375Y0178188D01*
X0153375Y0171188D02*
X0160375Y0178188D01*
X0153375Y0171188D02*
X0153375Y0162988D01*
X0117875Y0170063D02*
X0111884Y0170063D01*
X0113375Y0162988D02*
X0113375Y0146313D01*
X0110250Y0143188D01*
X0096500Y0143188D01*
X0096500Y0133188D02*
X0115875Y0133188D01*
X0118375Y0130688D01*
X0118375Y0123388D01*
X0158375Y0123388D02*
X0158375Y0129438D01*
X0103616Y0170063D02*
X0099000Y0170063D01*
X0099000Y0175688D02*
X0103616Y0175688D01*
X0062617Y0155821D02*
X0058055Y0155821D01*
X0057750Y0156126D02*
X0057750Y0160688D01*
X0062750Y0077563D02*
X0062750Y0073688D01*
X0099625Y0054688D02*
X0099625Y0046813D01*
X0099125Y0046313D01*
X0095250Y0046313D01*
X0104625Y0046813D02*
X0105125Y0046313D01*
X0104625Y0046813D02*
X0104625Y0054688D01*
X0158375Y0053388D02*
X0158375Y0059438D01*
D27*
X0211500Y0110563D02*
X0215250Y0110563D01*
X0215250Y0110688D01*
X0215250Y0115688D02*
X0215250Y0115813D01*
X0211500Y0115813D01*
X0068125Y0139438D02*
X0067750Y0139813D01*
X0067375Y0139438D01*
X0067750Y0139063D01*
X0062750Y0155688D02*
X0062617Y0155821D01*
X0058055Y0155821D02*
X0057750Y0156126D01*
X0030875Y0139438D02*
X0030250Y0138813D01*
X0029875Y0139438D02*
X0030875Y0139438D01*
X0030250Y0139813D02*
X0029875Y0139438D01*
D28*
X0067750Y0147813D02*
X0076250Y0147813D01*
X0085875Y0138188D01*
X0143375Y0138188D01*
X0143375Y0123388D01*
X0143375Y0117563D01*
X0144313Y0116626D01*
X0145250Y0115688D01*
X0165250Y0115688D01*
X0169625Y0111313D01*
X0169625Y0105688D01*
X0163375Y0099438D01*
X0159625Y0099438D01*
X0158375Y0098188D01*
X0158375Y0092988D01*
X0158375Y0086313D01*
X0143375Y0071313D01*
X0143375Y0053388D01*
X0243075Y0113488D02*
X0248150Y0108413D01*
X0249625Y0108413D01*
X0249375Y0108163D01*
X0249375Y0099713D01*
X0254975Y0105313D02*
X0254975Y0108413D01*
X0249625Y0108413D01*
X0243075Y0113488D02*
X0243075Y0126938D01*
X0233675Y0126938D01*
X0228375Y0126938D01*
X0227375Y0127938D01*
X0227375Y0132913D01*
X0227375Y0141063D01*
X0225875Y0142563D01*
X0221450Y0142563D01*
X0215325Y0142613D02*
X0214625Y0143313D01*
X0171375Y0143313D01*
X0158375Y0156313D01*
X0158375Y0162988D01*
X0158375Y0156313D02*
X0143375Y0141313D01*
X0143375Y0138188D01*
X0233675Y0132913D02*
X0233675Y0126938D01*
X0243075Y0126938D02*
X0243075Y0132913D01*
X0243075Y0140488D01*
X0240250Y0143313D01*
D29*
X0221400Y0142613D02*
X0215325Y0142613D01*
X0069125Y0124438D02*
X0069125Y0118563D01*
X0067750Y0117188D01*
X0051250Y0117188D01*
X0049000Y0119438D01*
X0049000Y0125196D01*
X0039945Y0125196D02*
X0039945Y0119133D01*
X0038000Y0117188D01*
X0030250Y0117188D01*
X0024250Y0117188D01*
X0021500Y0114438D01*
X0021500Y0093188D01*
X0060250Y0133313D02*
X0069125Y0124438D01*
X0060250Y0133313D02*
X0060250Y0137563D01*
X0054625Y0143188D01*
X0044625Y0143188D01*
X0039000Y0148813D01*
X0039945Y0149758D01*
X0039945Y0155821D01*
X0049000Y0155821D02*
X0049000Y0150688D01*
X0051875Y0147813D01*
X0067750Y0147813D01*
X0039000Y0148813D02*
X0038000Y0147813D01*
X0030250Y0147813D01*
D30*
X0148375Y0125243D02*
X0148375Y0123388D01*
X0148375Y0125243D02*
X0148377Y0125341D01*
X0148383Y0125439D01*
X0148392Y0125537D01*
X0148406Y0125634D01*
X0148423Y0125731D01*
X0148444Y0125827D01*
X0148469Y0125922D01*
X0148497Y0126016D01*
X0148530Y0126108D01*
X0148565Y0126200D01*
X0148605Y0126290D01*
X0148647Y0126378D01*
X0148694Y0126465D01*
X0148743Y0126549D01*
X0148796Y0126632D01*
X0148852Y0126712D01*
X0148912Y0126791D01*
X0148974Y0126867D01*
X0149039Y0126940D01*
X0149107Y0127011D01*
X0150284Y0128188D01*
X0150284Y0133188D01*
X0151466Y0133188D02*
X0151466Y0128188D01*
X0152643Y0127011D01*
X0153375Y0125243D02*
X0153375Y0123388D01*
X0153375Y0125243D02*
X0153373Y0125341D01*
X0153367Y0125439D01*
X0153358Y0125537D01*
X0153344Y0125634D01*
X0153327Y0125731D01*
X0153306Y0125827D01*
X0153281Y0125922D01*
X0153253Y0126016D01*
X0153220Y0126108D01*
X0153185Y0126200D01*
X0153145Y0126290D01*
X0153103Y0126378D01*
X0153056Y0126465D01*
X0153007Y0126549D01*
X0152954Y0126632D01*
X0152898Y0126712D01*
X0152838Y0126791D01*
X0152776Y0126867D01*
X0152711Y0126940D01*
X0152643Y0127011D01*
X0151466Y0133188D02*
X0151468Y0133237D01*
X0151473Y0133286D01*
X0151483Y0133335D01*
X0151495Y0133382D01*
X0151512Y0133429D01*
X0151531Y0133474D01*
X0151554Y0133518D01*
X0151581Y0133559D01*
X0151610Y0133599D01*
X0151642Y0133636D01*
X0151677Y0133671D01*
X0151714Y0133703D01*
X0151754Y0133732D01*
X0151796Y0133759D01*
X0151839Y0133782D01*
X0151884Y0133801D01*
X0151931Y0133818D01*
X0151978Y0133830D01*
X0152027Y0133840D01*
X0152076Y0133845D01*
X0152125Y0133847D01*
X0152125Y0133848D02*
X0168375Y0133848D01*
X0168375Y0133847D02*
X0168437Y0133845D01*
X0168500Y0133839D01*
X0168561Y0133830D01*
X0168622Y0133817D01*
X0168682Y0133800D01*
X0168741Y0133780D01*
X0168799Y0133756D01*
X0168855Y0133729D01*
X0168909Y0133698D01*
X0168962Y0133664D01*
X0169012Y0133627D01*
X0169060Y0133587D01*
X0169105Y0133544D01*
X0169148Y0133499D01*
X0169188Y0133451D01*
X0169225Y0133401D01*
X0169259Y0133348D01*
X0169290Y0133294D01*
X0169317Y0133238D01*
X0169341Y0133180D01*
X0169361Y0133121D01*
X0169378Y0133061D01*
X0169391Y0133000D01*
X0169400Y0132939D01*
X0169406Y0132876D01*
X0169408Y0132814D01*
X0169409Y0132814D02*
X0169411Y0132752D01*
X0169417Y0132689D01*
X0169426Y0132628D01*
X0169439Y0132567D01*
X0169456Y0132507D01*
X0169476Y0132448D01*
X0169500Y0132390D01*
X0169527Y0132334D01*
X0169558Y0132280D01*
X0169592Y0132227D01*
X0169629Y0132177D01*
X0169669Y0132129D01*
X0169712Y0132084D01*
X0169757Y0132041D01*
X0169805Y0132001D01*
X0169855Y0131964D01*
X0169908Y0131930D01*
X0169962Y0131899D01*
X0170018Y0131872D01*
X0170076Y0131848D01*
X0170135Y0131828D01*
X0170195Y0131811D01*
X0170256Y0131798D01*
X0170317Y0131789D01*
X0170380Y0131783D01*
X0170442Y0131781D01*
X0172857Y0131781D01*
X0172919Y0131783D01*
X0172982Y0131789D01*
X0173043Y0131798D01*
X0173104Y0131811D01*
X0173164Y0131828D01*
X0173223Y0131848D01*
X0173281Y0131872D01*
X0173337Y0131899D01*
X0173391Y0131930D01*
X0173444Y0131964D01*
X0173494Y0132001D01*
X0173542Y0132041D01*
X0173587Y0132084D01*
X0173630Y0132129D01*
X0173670Y0132177D01*
X0173707Y0132227D01*
X0173741Y0132280D01*
X0173772Y0132334D01*
X0173799Y0132390D01*
X0173823Y0132448D01*
X0173843Y0132507D01*
X0173860Y0132567D01*
X0173873Y0132628D01*
X0173882Y0132689D01*
X0173888Y0132752D01*
X0173890Y0132814D01*
X0173891Y0132814D02*
X0173893Y0132876D01*
X0173899Y0132939D01*
X0173908Y0133000D01*
X0173921Y0133061D01*
X0173938Y0133121D01*
X0173958Y0133180D01*
X0173982Y0133238D01*
X0174009Y0133294D01*
X0174040Y0133348D01*
X0174074Y0133401D01*
X0174111Y0133451D01*
X0174151Y0133499D01*
X0174194Y0133544D01*
X0174239Y0133587D01*
X0174287Y0133627D01*
X0174337Y0133664D01*
X0174390Y0133698D01*
X0174444Y0133729D01*
X0174500Y0133756D01*
X0174558Y0133780D01*
X0174617Y0133800D01*
X0174677Y0133817D01*
X0174738Y0133830D01*
X0174799Y0133839D01*
X0174862Y0133845D01*
X0174924Y0133847D01*
X0174924Y0133848D02*
X0179000Y0133848D01*
X0179000Y0133847D02*
X0179049Y0133845D01*
X0179098Y0133840D01*
X0179147Y0133830D01*
X0179194Y0133818D01*
X0179241Y0133801D01*
X0179286Y0133782D01*
X0179330Y0133759D01*
X0179371Y0133732D01*
X0179411Y0133703D01*
X0179448Y0133671D01*
X0179483Y0133636D01*
X0179515Y0133599D01*
X0179544Y0133559D01*
X0179571Y0133518D01*
X0179594Y0133474D01*
X0179613Y0133429D01*
X0179630Y0133382D01*
X0179642Y0133335D01*
X0179652Y0133286D01*
X0179657Y0133237D01*
X0179659Y0133188D01*
X0179659Y0131938D01*
X0178432Y0130711D01*
X0177700Y0128943D02*
X0177700Y0124688D01*
X0177700Y0123683D01*
X0182068Y0121291D02*
X0182137Y0121378D01*
X0182204Y0121468D01*
X0182267Y0121560D01*
X0182328Y0121654D01*
X0182385Y0121750D01*
X0182438Y0121848D01*
X0182489Y0121947D01*
X0182536Y0122049D01*
X0182579Y0122151D01*
X0182619Y0122256D01*
X0182655Y0122361D01*
X0182688Y0122468D01*
X0182717Y0122576D01*
X0182742Y0122684D01*
X0182764Y0122794D01*
X0182781Y0122904D01*
X0182796Y0123015D01*
X0182806Y0123126D01*
X0182812Y0123237D01*
X0182815Y0123349D01*
X0182814Y0123461D01*
X0182809Y0123572D01*
X0182800Y0123683D01*
X0182800Y0124688D01*
X0182800Y0128943D01*
X0182068Y0130711D02*
X0180841Y0131938D01*
X0180841Y0133188D01*
X0180839Y0133273D01*
X0180833Y0133358D01*
X0180823Y0133442D01*
X0180810Y0133526D01*
X0180792Y0133609D01*
X0180771Y0133692D01*
X0180746Y0133773D01*
X0180717Y0133853D01*
X0180684Y0133932D01*
X0180648Y0134009D01*
X0180608Y0134084D01*
X0180565Y0134157D01*
X0180519Y0134228D01*
X0180469Y0134297D01*
X0180416Y0134364D01*
X0180361Y0134428D01*
X0180302Y0134490D01*
X0180240Y0134549D01*
X0180176Y0134604D01*
X0180109Y0134657D01*
X0180040Y0134707D01*
X0179969Y0134753D01*
X0179896Y0134796D01*
X0179821Y0134836D01*
X0179744Y0134872D01*
X0179665Y0134905D01*
X0179585Y0134934D01*
X0179504Y0134959D01*
X0179421Y0134980D01*
X0179338Y0134998D01*
X0179254Y0135011D01*
X0179170Y0135021D01*
X0179085Y0135027D01*
X0179000Y0135029D01*
X0152125Y0135029D01*
X0152040Y0135027D01*
X0151955Y0135021D01*
X0151871Y0135011D01*
X0151787Y0134998D01*
X0151704Y0134980D01*
X0151621Y0134959D01*
X0151540Y0134934D01*
X0151460Y0134905D01*
X0151381Y0134872D01*
X0151304Y0134836D01*
X0151229Y0134796D01*
X0151156Y0134753D01*
X0151085Y0134707D01*
X0151016Y0134657D01*
X0150949Y0134604D01*
X0150885Y0134549D01*
X0150823Y0134490D01*
X0150764Y0134428D01*
X0150709Y0134364D01*
X0150656Y0134297D01*
X0150606Y0134228D01*
X0150560Y0134157D01*
X0150517Y0134084D01*
X0150477Y0134009D01*
X0150441Y0133932D01*
X0150408Y0133853D01*
X0150379Y0133773D01*
X0150354Y0133692D01*
X0150333Y0133609D01*
X0150315Y0133526D01*
X0150302Y0133442D01*
X0150292Y0133358D01*
X0150286Y0133273D01*
X0150284Y0133188D01*
X0178432Y0121291D02*
X0179659Y0120063D01*
X0179659Y0119438D01*
X0180841Y0119438D02*
X0180841Y0120063D01*
X0182068Y0121291D01*
X0179659Y0119438D02*
X0179661Y0119353D01*
X0179667Y0119268D01*
X0179677Y0119184D01*
X0179690Y0119100D01*
X0179708Y0119017D01*
X0179729Y0118934D01*
X0179754Y0118853D01*
X0179783Y0118773D01*
X0179816Y0118694D01*
X0179852Y0118617D01*
X0179892Y0118542D01*
X0179935Y0118469D01*
X0179981Y0118398D01*
X0180031Y0118329D01*
X0180084Y0118262D01*
X0180139Y0118198D01*
X0180198Y0118136D01*
X0180260Y0118077D01*
X0180324Y0118022D01*
X0180391Y0117969D01*
X0180460Y0117919D01*
X0180531Y0117873D01*
X0180604Y0117830D01*
X0180679Y0117790D01*
X0180756Y0117754D01*
X0180835Y0117721D01*
X0180915Y0117692D01*
X0180996Y0117667D01*
X0181079Y0117646D01*
X0181162Y0117628D01*
X0181246Y0117615D01*
X0181330Y0117605D01*
X0181415Y0117599D01*
X0181500Y0117597D01*
X0181500Y0117598D02*
X0188375Y0117598D01*
X0188375Y0118779D02*
X0181500Y0118779D01*
X0181451Y0118781D01*
X0181402Y0118786D01*
X0181353Y0118796D01*
X0181306Y0118808D01*
X0181259Y0118825D01*
X0181214Y0118844D01*
X0181171Y0118867D01*
X0181129Y0118894D01*
X0181089Y0118923D01*
X0181052Y0118955D01*
X0181017Y0118990D01*
X0180985Y0119027D01*
X0180956Y0119067D01*
X0180929Y0119109D01*
X0180906Y0119152D01*
X0180887Y0119197D01*
X0180870Y0119244D01*
X0180858Y0119291D01*
X0180848Y0119340D01*
X0180843Y0119389D01*
X0180841Y0119438D01*
X0178432Y0121291D02*
X0178363Y0121378D01*
X0178296Y0121468D01*
X0178233Y0121560D01*
X0178172Y0121654D01*
X0178115Y0121750D01*
X0178062Y0121848D01*
X0178011Y0121947D01*
X0177964Y0122049D01*
X0177921Y0122151D01*
X0177881Y0122256D01*
X0177845Y0122361D01*
X0177812Y0122468D01*
X0177783Y0122576D01*
X0177758Y0122684D01*
X0177736Y0122794D01*
X0177719Y0122904D01*
X0177704Y0123015D01*
X0177694Y0123126D01*
X0177688Y0123237D01*
X0177685Y0123349D01*
X0177686Y0123461D01*
X0177691Y0123572D01*
X0177700Y0123683D01*
X0177700Y0128943D02*
X0177702Y0129041D01*
X0177708Y0129139D01*
X0177717Y0129237D01*
X0177731Y0129334D01*
X0177748Y0129431D01*
X0177769Y0129527D01*
X0177794Y0129622D01*
X0177822Y0129716D01*
X0177855Y0129808D01*
X0177890Y0129900D01*
X0177930Y0129990D01*
X0177972Y0130078D01*
X0178019Y0130165D01*
X0178068Y0130249D01*
X0178121Y0130332D01*
X0178177Y0130412D01*
X0178237Y0130491D01*
X0178299Y0130567D01*
X0178364Y0130640D01*
X0178432Y0130711D01*
X0182068Y0130711D02*
X0182136Y0130640D01*
X0182201Y0130567D01*
X0182263Y0130491D01*
X0182323Y0130412D01*
X0182379Y0130332D01*
X0182432Y0130249D01*
X0182481Y0130165D01*
X0182528Y0130078D01*
X0182570Y0129990D01*
X0182610Y0129900D01*
X0182645Y0129808D01*
X0182678Y0129716D01*
X0182706Y0129622D01*
X0182731Y0129527D01*
X0182752Y0129431D01*
X0182769Y0129334D01*
X0182783Y0129237D01*
X0182792Y0129139D01*
X0182798Y0129041D01*
X0182800Y0128943D01*
X0190875Y0125029D02*
X0191966Y0125029D01*
X0191966Y0123848D02*
X0190875Y0123848D01*
X0190875Y0123847D02*
X0190826Y0123845D01*
X0190777Y0123840D01*
X0190728Y0123830D01*
X0190681Y0123818D01*
X0190634Y0123801D01*
X0190589Y0123782D01*
X0190546Y0123759D01*
X0190504Y0123732D01*
X0190464Y0123703D01*
X0190427Y0123671D01*
X0190392Y0123636D01*
X0190360Y0123599D01*
X0190331Y0123559D01*
X0190304Y0123518D01*
X0190281Y0123474D01*
X0190262Y0123429D01*
X0190245Y0123382D01*
X0190233Y0123335D01*
X0190223Y0123286D01*
X0190218Y0123237D01*
X0190216Y0123188D01*
X0190216Y0119438D01*
X0189034Y0119438D02*
X0189034Y0123188D01*
X0189036Y0123273D01*
X0189042Y0123358D01*
X0189052Y0123442D01*
X0189065Y0123526D01*
X0189083Y0123609D01*
X0189104Y0123692D01*
X0189129Y0123773D01*
X0189158Y0123853D01*
X0189191Y0123932D01*
X0189227Y0124009D01*
X0189267Y0124084D01*
X0189310Y0124157D01*
X0189356Y0124228D01*
X0189406Y0124297D01*
X0189459Y0124364D01*
X0189514Y0124428D01*
X0189573Y0124490D01*
X0189635Y0124549D01*
X0189699Y0124604D01*
X0189766Y0124657D01*
X0189835Y0124707D01*
X0189906Y0124753D01*
X0189979Y0124796D01*
X0190054Y0124836D01*
X0190131Y0124872D01*
X0190210Y0124905D01*
X0190290Y0124934D01*
X0190371Y0124959D01*
X0190454Y0124980D01*
X0190537Y0124998D01*
X0190621Y0125011D01*
X0190705Y0125021D01*
X0190790Y0125027D01*
X0190875Y0125029D01*
X0191966Y0125029D02*
X0192055Y0125031D01*
X0192143Y0125037D01*
X0192231Y0125046D01*
X0192319Y0125060D01*
X0192406Y0125077D01*
X0192492Y0125098D01*
X0192578Y0125123D01*
X0192662Y0125152D01*
X0192744Y0125184D01*
X0192826Y0125220D01*
X0192905Y0125259D01*
X0192983Y0125302D01*
X0193059Y0125348D01*
X0193133Y0125397D01*
X0193204Y0125449D01*
X0193273Y0125505D01*
X0193340Y0125563D01*
X0193404Y0125625D01*
X0193466Y0125689D01*
X0193524Y0125756D01*
X0193580Y0125825D01*
X0193632Y0125896D01*
X0193681Y0125970D01*
X0193727Y0126046D01*
X0193770Y0126124D01*
X0193809Y0126203D01*
X0193845Y0126285D01*
X0193877Y0126367D01*
X0193906Y0126451D01*
X0193931Y0126537D01*
X0193952Y0126623D01*
X0193969Y0126710D01*
X0193983Y0126798D01*
X0193992Y0126886D01*
X0193998Y0126974D01*
X0194000Y0127063D01*
X0194125Y0126938D01*
X0199750Y0126938D01*
X0199750Y0121938D02*
X0194125Y0121938D01*
X0194000Y0121813D01*
X0193998Y0121902D01*
X0193992Y0121990D01*
X0193983Y0122078D01*
X0193969Y0122166D01*
X0193952Y0122253D01*
X0193931Y0122339D01*
X0193906Y0122425D01*
X0193877Y0122509D01*
X0193845Y0122591D01*
X0193809Y0122673D01*
X0193770Y0122752D01*
X0193727Y0122830D01*
X0193681Y0122906D01*
X0193632Y0122980D01*
X0193580Y0123051D01*
X0193524Y0123120D01*
X0193466Y0123187D01*
X0193404Y0123251D01*
X0193340Y0123313D01*
X0193273Y0123371D01*
X0193204Y0123427D01*
X0193133Y0123479D01*
X0193059Y0123528D01*
X0192983Y0123574D01*
X0192905Y0123617D01*
X0192826Y0123656D01*
X0192744Y0123692D01*
X0192662Y0123724D01*
X0192578Y0123753D01*
X0192492Y0123778D01*
X0192406Y0123799D01*
X0192319Y0123816D01*
X0192231Y0123830D01*
X0192143Y0123839D01*
X0192055Y0123845D01*
X0191966Y0123847D01*
X0190216Y0119438D02*
X0190214Y0119353D01*
X0190208Y0119268D01*
X0190198Y0119184D01*
X0190185Y0119100D01*
X0190167Y0119017D01*
X0190146Y0118934D01*
X0190121Y0118853D01*
X0190092Y0118773D01*
X0190059Y0118694D01*
X0190023Y0118617D01*
X0189983Y0118542D01*
X0189940Y0118469D01*
X0189894Y0118398D01*
X0189844Y0118329D01*
X0189791Y0118262D01*
X0189736Y0118198D01*
X0189677Y0118136D01*
X0189615Y0118077D01*
X0189551Y0118022D01*
X0189484Y0117969D01*
X0189415Y0117919D01*
X0189344Y0117873D01*
X0189271Y0117830D01*
X0189196Y0117790D01*
X0189119Y0117754D01*
X0189040Y0117721D01*
X0188960Y0117692D01*
X0188879Y0117667D01*
X0188796Y0117646D01*
X0188713Y0117628D01*
X0188629Y0117615D01*
X0188545Y0117605D01*
X0188460Y0117599D01*
X0188375Y0117597D01*
X0188375Y0118779D02*
X0188424Y0118781D01*
X0188473Y0118786D01*
X0188522Y0118796D01*
X0188569Y0118808D01*
X0188616Y0118825D01*
X0188661Y0118844D01*
X0188705Y0118867D01*
X0188746Y0118894D01*
X0188786Y0118923D01*
X0188823Y0118955D01*
X0188858Y0118990D01*
X0188890Y0119027D01*
X0188919Y0119067D01*
X0188946Y0119109D01*
X0188969Y0119152D01*
X0188988Y0119197D01*
X0189005Y0119244D01*
X0189017Y0119291D01*
X0189027Y0119340D01*
X0189032Y0119389D01*
X0189034Y0119438D01*
X0188375Y0108779D02*
X0184000Y0108779D01*
X0184000Y0107598D02*
X0188375Y0107598D01*
X0188375Y0107597D02*
X0188424Y0107595D01*
X0188473Y0107590D01*
X0188522Y0107580D01*
X0188569Y0107568D01*
X0188616Y0107551D01*
X0188661Y0107532D01*
X0188705Y0107509D01*
X0188746Y0107482D01*
X0188786Y0107453D01*
X0188823Y0107421D01*
X0188858Y0107386D01*
X0188890Y0107349D01*
X0188919Y0107309D01*
X0188946Y0107268D01*
X0188969Y0107224D01*
X0188988Y0107179D01*
X0189005Y0107132D01*
X0189017Y0107085D01*
X0189027Y0107036D01*
X0189032Y0106987D01*
X0189034Y0106938D01*
X0189034Y0103188D01*
X0190216Y0103188D02*
X0190216Y0106938D01*
X0190214Y0107023D01*
X0190208Y0107108D01*
X0190198Y0107192D01*
X0190185Y0107276D01*
X0190167Y0107359D01*
X0190146Y0107442D01*
X0190121Y0107523D01*
X0190092Y0107603D01*
X0190059Y0107682D01*
X0190023Y0107759D01*
X0189983Y0107834D01*
X0189940Y0107907D01*
X0189894Y0107978D01*
X0189844Y0108047D01*
X0189791Y0108114D01*
X0189736Y0108178D01*
X0189677Y0108240D01*
X0189615Y0108299D01*
X0189551Y0108354D01*
X0189484Y0108407D01*
X0189415Y0108457D01*
X0189344Y0108503D01*
X0189271Y0108546D01*
X0189196Y0108586D01*
X0189119Y0108622D01*
X0189040Y0108655D01*
X0188960Y0108684D01*
X0188879Y0108709D01*
X0188796Y0108730D01*
X0188713Y0108748D01*
X0188629Y0108761D01*
X0188545Y0108771D01*
X0188460Y0108777D01*
X0188375Y0108779D01*
X0184000Y0107597D02*
X0183951Y0107595D01*
X0183902Y0107590D01*
X0183853Y0107580D01*
X0183806Y0107568D01*
X0183759Y0107551D01*
X0183714Y0107532D01*
X0183671Y0107509D01*
X0183629Y0107482D01*
X0183589Y0107453D01*
X0183552Y0107421D01*
X0183517Y0107386D01*
X0183485Y0107349D01*
X0183456Y0107309D01*
X0183429Y0107268D01*
X0183406Y0107224D01*
X0183387Y0107179D01*
X0183370Y0107132D01*
X0183358Y0107085D01*
X0183348Y0107036D01*
X0183343Y0106987D01*
X0183341Y0106938D01*
X0183341Y0106313D01*
X0184568Y0105086D01*
X0185300Y0103318D02*
X0185300Y0101688D01*
X0185300Y0097433D01*
X0184568Y0095666D02*
X0183341Y0094438D01*
X0182159Y0094438D02*
X0180932Y0095666D01*
X0183340Y0094438D02*
X0183338Y0094351D01*
X0183333Y0094265D01*
X0183324Y0094178D01*
X0183311Y0094093D01*
X0183295Y0094007D01*
X0183276Y0093923D01*
X0183253Y0093839D01*
X0183226Y0093756D01*
X0183196Y0093675D01*
X0183163Y0093595D01*
X0183127Y0093516D01*
X0183087Y0093439D01*
X0183044Y0093364D01*
X0182998Y0093290D01*
X0182949Y0093218D01*
X0182897Y0093149D01*
X0182843Y0093081D01*
X0182785Y0093016D01*
X0182725Y0092954D01*
X0182726Y0092954D02*
X0152198Y0062426D01*
X0151017Y0062915D02*
X0181890Y0093789D01*
X0181928Y0093829D01*
X0181964Y0093872D01*
X0181996Y0093917D01*
X0182027Y0093963D01*
X0182054Y0094011D01*
X0182078Y0094061D01*
X0182099Y0094112D01*
X0182117Y0094165D01*
X0182132Y0094218D01*
X0182144Y0094273D01*
X0182152Y0094327D01*
X0182157Y0094383D01*
X0182159Y0094438D01*
X0180932Y0095665D02*
X0180864Y0095736D01*
X0180799Y0095809D01*
X0180737Y0095885D01*
X0180677Y0095964D01*
X0180621Y0096044D01*
X0180568Y0096127D01*
X0180519Y0096211D01*
X0180472Y0096298D01*
X0180430Y0096386D01*
X0180390Y0096476D01*
X0180355Y0096568D01*
X0180322Y0096660D01*
X0180294Y0096754D01*
X0180269Y0096849D01*
X0180248Y0096945D01*
X0180231Y0097042D01*
X0180217Y0097139D01*
X0180208Y0097237D01*
X0180202Y0097335D01*
X0180200Y0097433D01*
X0180200Y0101688D01*
X0180200Y0103318D01*
X0180932Y0105086D02*
X0182159Y0106313D01*
X0182159Y0106938D01*
X0182161Y0107023D01*
X0182167Y0107108D01*
X0182177Y0107192D01*
X0182190Y0107276D01*
X0182208Y0107359D01*
X0182229Y0107442D01*
X0182254Y0107523D01*
X0182283Y0107603D01*
X0182316Y0107682D01*
X0182352Y0107759D01*
X0182392Y0107834D01*
X0182435Y0107907D01*
X0182481Y0107978D01*
X0182531Y0108047D01*
X0182584Y0108114D01*
X0182639Y0108178D01*
X0182698Y0108240D01*
X0182760Y0108299D01*
X0182824Y0108354D01*
X0182891Y0108407D01*
X0182960Y0108457D01*
X0183031Y0108503D01*
X0183104Y0108546D01*
X0183179Y0108586D01*
X0183256Y0108622D01*
X0183335Y0108655D01*
X0183415Y0108684D01*
X0183496Y0108709D01*
X0183579Y0108730D01*
X0183662Y0108748D01*
X0183746Y0108761D01*
X0183830Y0108771D01*
X0183915Y0108777D01*
X0184000Y0108779D01*
X0184568Y0105086D02*
X0184636Y0105015D01*
X0184701Y0104942D01*
X0184763Y0104866D01*
X0184823Y0104787D01*
X0184879Y0104707D01*
X0184932Y0104624D01*
X0184981Y0104540D01*
X0185028Y0104453D01*
X0185070Y0104365D01*
X0185110Y0104275D01*
X0185145Y0104183D01*
X0185178Y0104091D01*
X0185206Y0103997D01*
X0185231Y0103902D01*
X0185252Y0103806D01*
X0185269Y0103709D01*
X0185283Y0103612D01*
X0185292Y0103514D01*
X0185298Y0103416D01*
X0185300Y0103318D01*
X0180932Y0105086D02*
X0180864Y0105015D01*
X0180799Y0104942D01*
X0180737Y0104866D01*
X0180677Y0104787D01*
X0180621Y0104707D01*
X0180568Y0104624D01*
X0180519Y0104540D01*
X0180472Y0104453D01*
X0180430Y0104365D01*
X0180390Y0104275D01*
X0180355Y0104183D01*
X0180322Y0104091D01*
X0180294Y0103997D01*
X0180269Y0103902D01*
X0180248Y0103806D01*
X0180231Y0103709D01*
X0180217Y0103612D01*
X0180208Y0103514D01*
X0180202Y0103416D01*
X0180200Y0103318D01*
X0185300Y0097433D02*
X0185298Y0097335D01*
X0185292Y0097237D01*
X0185283Y0097139D01*
X0185269Y0097042D01*
X0185252Y0096945D01*
X0185231Y0096849D01*
X0185206Y0096754D01*
X0185178Y0096660D01*
X0185145Y0096568D01*
X0185110Y0096476D01*
X0185070Y0096386D01*
X0185028Y0096298D01*
X0184981Y0096211D01*
X0184932Y0096127D01*
X0184879Y0096044D01*
X0184823Y0095964D01*
X0184763Y0095885D01*
X0184701Y0095809D01*
X0184636Y0095736D01*
X0184568Y0095665D01*
X0192125Y0101348D02*
X0192209Y0101346D01*
X0192293Y0101340D01*
X0192377Y0101331D01*
X0192460Y0101318D01*
X0192542Y0101301D01*
X0192624Y0101280D01*
X0192704Y0101256D01*
X0192784Y0101228D01*
X0192862Y0101197D01*
X0192939Y0101162D01*
X0193014Y0101124D01*
X0193087Y0101083D01*
X0193158Y0101038D01*
X0193227Y0100990D01*
X0193294Y0100939D01*
X0193359Y0100885D01*
X0193421Y0100828D01*
X0193480Y0100769D01*
X0193537Y0100707D01*
X0193591Y0100642D01*
X0193642Y0100575D01*
X0193690Y0100506D01*
X0193735Y0100435D01*
X0193776Y0100362D01*
X0193814Y0100287D01*
X0193849Y0100210D01*
X0193880Y0100132D01*
X0193908Y0100052D01*
X0193932Y0099972D01*
X0193953Y0099890D01*
X0193970Y0099808D01*
X0193983Y0099725D01*
X0193992Y0099641D01*
X0193998Y0099557D01*
X0194000Y0099473D01*
X0194000Y0099313D01*
X0194125Y0099438D01*
X0199750Y0099438D01*
X0205750Y0099438D02*
X0211375Y0099438D01*
X0211500Y0099313D01*
X0211502Y0099402D01*
X0211508Y0099490D01*
X0211517Y0099578D01*
X0211531Y0099666D01*
X0211548Y0099753D01*
X0211569Y0099839D01*
X0211594Y0099925D01*
X0211623Y0100009D01*
X0211655Y0100091D01*
X0211691Y0100173D01*
X0211730Y0100252D01*
X0211773Y0100330D01*
X0211819Y0100406D01*
X0211868Y0100480D01*
X0211920Y0100551D01*
X0211976Y0100620D01*
X0212034Y0100687D01*
X0212096Y0100751D01*
X0212160Y0100813D01*
X0212227Y0100871D01*
X0212296Y0100927D01*
X0212367Y0100979D01*
X0212441Y0101028D01*
X0212517Y0101074D01*
X0212595Y0101117D01*
X0212674Y0101156D01*
X0212756Y0101192D01*
X0212838Y0101224D01*
X0212922Y0101253D01*
X0213008Y0101278D01*
X0213094Y0101299D01*
X0213181Y0101316D01*
X0213269Y0101330D01*
X0213357Y0101339D01*
X0213445Y0101345D01*
X0213534Y0101347D01*
X0213534Y0101348D02*
X0215250Y0101348D01*
X0215250Y0102529D02*
X0213534Y0102529D01*
X0215250Y0102529D02*
X0215299Y0102531D01*
X0215348Y0102536D01*
X0215397Y0102546D01*
X0215444Y0102558D01*
X0215491Y0102575D01*
X0215536Y0102594D01*
X0215580Y0102617D01*
X0215621Y0102644D01*
X0215661Y0102673D01*
X0215698Y0102705D01*
X0215733Y0102740D01*
X0215765Y0102777D01*
X0215794Y0102817D01*
X0215821Y0102859D01*
X0215844Y0102902D01*
X0215863Y0102947D01*
X0215880Y0102994D01*
X0215892Y0103041D01*
X0215902Y0103090D01*
X0215907Y0103139D01*
X0215909Y0103188D01*
X0215909Y0105688D01*
X0217091Y0105688D02*
X0217091Y0103188D01*
X0217089Y0103103D01*
X0217083Y0103018D01*
X0217073Y0102934D01*
X0217060Y0102850D01*
X0217042Y0102767D01*
X0217021Y0102684D01*
X0216996Y0102603D01*
X0216967Y0102523D01*
X0216934Y0102444D01*
X0216898Y0102367D01*
X0216858Y0102292D01*
X0216815Y0102219D01*
X0216769Y0102148D01*
X0216719Y0102079D01*
X0216666Y0102012D01*
X0216611Y0101948D01*
X0216552Y0101886D01*
X0216490Y0101827D01*
X0216426Y0101772D01*
X0216359Y0101719D01*
X0216290Y0101669D01*
X0216219Y0101623D01*
X0216146Y0101580D01*
X0216071Y0101540D01*
X0215994Y0101504D01*
X0215915Y0101471D01*
X0215835Y0101442D01*
X0215754Y0101417D01*
X0215671Y0101396D01*
X0215588Y0101378D01*
X0215504Y0101365D01*
X0215420Y0101355D01*
X0215335Y0101349D01*
X0215250Y0101347D01*
X0213534Y0102529D02*
X0213445Y0102531D01*
X0213357Y0102537D01*
X0213269Y0102546D01*
X0213181Y0102560D01*
X0213094Y0102577D01*
X0213008Y0102598D01*
X0212922Y0102623D01*
X0212838Y0102652D01*
X0212756Y0102684D01*
X0212674Y0102720D01*
X0212595Y0102759D01*
X0212517Y0102802D01*
X0212441Y0102848D01*
X0212367Y0102897D01*
X0212296Y0102949D01*
X0212227Y0103005D01*
X0212160Y0103063D01*
X0212096Y0103125D01*
X0212034Y0103189D01*
X0211976Y0103256D01*
X0211920Y0103325D01*
X0211868Y0103396D01*
X0211819Y0103470D01*
X0211773Y0103546D01*
X0211730Y0103624D01*
X0211691Y0103703D01*
X0211655Y0103785D01*
X0211623Y0103867D01*
X0211594Y0103951D01*
X0211569Y0104037D01*
X0211548Y0104123D01*
X0211531Y0104210D01*
X0211517Y0104298D01*
X0211508Y0104386D01*
X0211502Y0104474D01*
X0211500Y0104563D01*
X0211375Y0104438D01*
X0205750Y0104438D01*
X0199750Y0104438D02*
X0194125Y0104438D01*
X0194000Y0104563D01*
X0194000Y0104404D01*
X0193998Y0104320D01*
X0193992Y0104236D01*
X0193983Y0104152D01*
X0193970Y0104069D01*
X0193953Y0103987D01*
X0193932Y0103905D01*
X0193908Y0103825D01*
X0193880Y0103745D01*
X0193849Y0103667D01*
X0193814Y0103590D01*
X0193776Y0103515D01*
X0193735Y0103442D01*
X0193690Y0103371D01*
X0193642Y0103302D01*
X0193591Y0103235D01*
X0193537Y0103170D01*
X0193480Y0103108D01*
X0193421Y0103049D01*
X0193359Y0102992D01*
X0193294Y0102938D01*
X0193227Y0102887D01*
X0193158Y0102839D01*
X0193087Y0102794D01*
X0193014Y0102753D01*
X0192939Y0102715D01*
X0192862Y0102680D01*
X0192784Y0102649D01*
X0192704Y0102621D01*
X0192624Y0102597D01*
X0192542Y0102576D01*
X0192460Y0102559D01*
X0192377Y0102546D01*
X0192293Y0102537D01*
X0192209Y0102531D01*
X0192125Y0102529D01*
X0190875Y0102529D01*
X0190875Y0101347D02*
X0190790Y0101349D01*
X0190705Y0101355D01*
X0190621Y0101365D01*
X0190537Y0101378D01*
X0190454Y0101396D01*
X0190371Y0101417D01*
X0190290Y0101442D01*
X0190210Y0101471D01*
X0190131Y0101504D01*
X0190054Y0101540D01*
X0189979Y0101580D01*
X0189906Y0101623D01*
X0189835Y0101669D01*
X0189766Y0101719D01*
X0189699Y0101772D01*
X0189635Y0101827D01*
X0189573Y0101886D01*
X0189514Y0101948D01*
X0189459Y0102012D01*
X0189406Y0102079D01*
X0189356Y0102148D01*
X0189310Y0102219D01*
X0189267Y0102292D01*
X0189227Y0102367D01*
X0189191Y0102444D01*
X0189158Y0102523D01*
X0189129Y0102603D01*
X0189104Y0102684D01*
X0189083Y0102767D01*
X0189065Y0102850D01*
X0189052Y0102934D01*
X0189042Y0103018D01*
X0189036Y0103103D01*
X0189034Y0103188D01*
X0190216Y0103188D02*
X0190218Y0103139D01*
X0190223Y0103090D01*
X0190233Y0103041D01*
X0190245Y0102994D01*
X0190262Y0102947D01*
X0190281Y0102902D01*
X0190304Y0102859D01*
X0190331Y0102817D01*
X0190360Y0102777D01*
X0190392Y0102740D01*
X0190427Y0102705D01*
X0190464Y0102673D01*
X0190504Y0102644D01*
X0190546Y0102617D01*
X0190589Y0102594D01*
X0190634Y0102575D01*
X0190681Y0102558D01*
X0190728Y0102546D01*
X0190777Y0102536D01*
X0190826Y0102531D01*
X0190875Y0102529D01*
X0190875Y0101348D02*
X0192125Y0101348D01*
X0215909Y0105688D02*
X0215911Y0105773D01*
X0215917Y0105858D01*
X0215927Y0105942D01*
X0215940Y0106026D01*
X0215958Y0106109D01*
X0215979Y0106192D01*
X0216004Y0106273D01*
X0216033Y0106353D01*
X0216066Y0106432D01*
X0216102Y0106509D01*
X0216142Y0106584D01*
X0216185Y0106657D01*
X0216231Y0106728D01*
X0216281Y0106797D01*
X0216334Y0106864D01*
X0216389Y0106928D01*
X0216448Y0106990D01*
X0216510Y0107049D01*
X0216574Y0107104D01*
X0216641Y0107157D01*
X0216710Y0107207D01*
X0216781Y0107253D01*
X0216854Y0107296D01*
X0216929Y0107336D01*
X0217006Y0107372D01*
X0217085Y0107405D01*
X0217165Y0107434D01*
X0217246Y0107459D01*
X0217329Y0107480D01*
X0217412Y0107498D01*
X0217496Y0107511D01*
X0217580Y0107521D01*
X0217665Y0107527D01*
X0217750Y0107529D01*
X0219000Y0107529D01*
X0219152Y0107681D01*
X0219000Y0106348D02*
X0217750Y0106348D01*
X0217750Y0106347D02*
X0217701Y0106345D01*
X0217652Y0106340D01*
X0217603Y0106330D01*
X0217556Y0106318D01*
X0217509Y0106301D01*
X0217464Y0106282D01*
X0217421Y0106259D01*
X0217379Y0106232D01*
X0217339Y0106203D01*
X0217302Y0106171D01*
X0217267Y0106136D01*
X0217235Y0106099D01*
X0217206Y0106059D01*
X0217179Y0106018D01*
X0217156Y0105974D01*
X0217137Y0105929D01*
X0217120Y0105882D01*
X0217108Y0105835D01*
X0217098Y0105786D01*
X0217093Y0105737D01*
X0217091Y0105688D01*
X0219000Y0106348D02*
X0219302Y0106046D01*
X0219152Y0107681D02*
X0219223Y0107749D01*
X0219296Y0107814D01*
X0219372Y0107876D01*
X0219451Y0107936D01*
X0219531Y0107992D01*
X0219614Y0108045D01*
X0219698Y0108094D01*
X0219785Y0108141D01*
X0219873Y0108183D01*
X0219963Y0108223D01*
X0220055Y0108258D01*
X0220147Y0108291D01*
X0220241Y0108319D01*
X0220336Y0108344D01*
X0220432Y0108365D01*
X0220529Y0108382D01*
X0220626Y0108396D01*
X0220724Y0108405D01*
X0220822Y0108411D01*
X0220920Y0108413D01*
X0221775Y0108413D01*
X0221070Y0105313D02*
X0220972Y0105315D01*
X0220874Y0105321D01*
X0220776Y0105330D01*
X0220679Y0105344D01*
X0220582Y0105361D01*
X0220486Y0105382D01*
X0220391Y0105407D01*
X0220297Y0105435D01*
X0220205Y0105468D01*
X0220113Y0105503D01*
X0220023Y0105543D01*
X0219935Y0105585D01*
X0219848Y0105632D01*
X0219764Y0105681D01*
X0219681Y0105734D01*
X0219601Y0105790D01*
X0219522Y0105850D01*
X0219446Y0105912D01*
X0219373Y0105977D01*
X0219302Y0106045D01*
X0221070Y0105313D02*
X0221775Y0105313D01*
X0221775Y0117913D02*
X0220970Y0117913D01*
X0219252Y0120281D02*
X0219323Y0120349D01*
X0219396Y0120414D01*
X0219472Y0120476D01*
X0219551Y0120536D01*
X0219631Y0120592D01*
X0219714Y0120645D01*
X0219798Y0120694D01*
X0219885Y0120741D01*
X0219973Y0120783D01*
X0220063Y0120823D01*
X0220155Y0120858D01*
X0220247Y0120891D01*
X0220341Y0120919D01*
X0220436Y0120944D01*
X0220532Y0120965D01*
X0220629Y0120982D01*
X0220726Y0120996D01*
X0220824Y0121005D01*
X0220922Y0121011D01*
X0221020Y0121013D01*
X0221775Y0121013D01*
X0220970Y0117913D02*
X0220872Y0117915D01*
X0220774Y0117921D01*
X0220676Y0117930D01*
X0220579Y0117944D01*
X0220482Y0117961D01*
X0220386Y0117982D01*
X0220291Y0118007D01*
X0220197Y0118035D01*
X0220105Y0118068D01*
X0220013Y0118103D01*
X0219923Y0118143D01*
X0219835Y0118185D01*
X0219748Y0118232D01*
X0219664Y0118281D01*
X0219581Y0118334D01*
X0219501Y0118390D01*
X0219422Y0118450D01*
X0219346Y0118512D01*
X0219273Y0118577D01*
X0219202Y0118645D01*
X0219202Y0118646D02*
X0219000Y0118848D01*
X0217750Y0118848D01*
X0217750Y0120029D02*
X0219000Y0120029D01*
X0219252Y0120281D01*
X0217750Y0118847D02*
X0217665Y0118849D01*
X0217580Y0118855D01*
X0217496Y0118865D01*
X0217412Y0118878D01*
X0217329Y0118896D01*
X0217246Y0118917D01*
X0217165Y0118942D01*
X0217085Y0118971D01*
X0217006Y0119004D01*
X0216929Y0119040D01*
X0216854Y0119080D01*
X0216781Y0119123D01*
X0216710Y0119169D01*
X0216641Y0119219D01*
X0216574Y0119272D01*
X0216510Y0119327D01*
X0216448Y0119386D01*
X0216389Y0119448D01*
X0216334Y0119512D01*
X0216281Y0119579D01*
X0216231Y0119648D01*
X0216185Y0119719D01*
X0216142Y0119792D01*
X0216102Y0119867D01*
X0216066Y0119944D01*
X0216033Y0120023D01*
X0216004Y0120103D01*
X0215979Y0120184D01*
X0215958Y0120267D01*
X0215940Y0120350D01*
X0215927Y0120434D01*
X0215917Y0120518D01*
X0215911Y0120603D01*
X0215909Y0120688D01*
X0215909Y0123188D01*
X0215907Y0123237D01*
X0215902Y0123286D01*
X0215892Y0123335D01*
X0215880Y0123382D01*
X0215863Y0123429D01*
X0215844Y0123474D01*
X0215821Y0123518D01*
X0215794Y0123559D01*
X0215765Y0123599D01*
X0215733Y0123636D01*
X0215698Y0123671D01*
X0215661Y0123703D01*
X0215621Y0123732D01*
X0215580Y0123759D01*
X0215536Y0123782D01*
X0215491Y0123801D01*
X0215444Y0123818D01*
X0215397Y0123830D01*
X0215348Y0123840D01*
X0215299Y0123845D01*
X0215250Y0123847D01*
X0215250Y0123848D02*
X0213534Y0123848D01*
X0213375Y0125029D02*
X0215250Y0125029D01*
X0215335Y0125027D01*
X0215420Y0125021D01*
X0215504Y0125011D01*
X0215588Y0124998D01*
X0215671Y0124980D01*
X0215754Y0124959D01*
X0215835Y0124934D01*
X0215915Y0124905D01*
X0215994Y0124872D01*
X0216071Y0124836D01*
X0216146Y0124796D01*
X0216219Y0124753D01*
X0216290Y0124707D01*
X0216359Y0124657D01*
X0216426Y0124604D01*
X0216490Y0124549D01*
X0216552Y0124490D01*
X0216611Y0124428D01*
X0216666Y0124364D01*
X0216719Y0124297D01*
X0216769Y0124228D01*
X0216815Y0124157D01*
X0216858Y0124084D01*
X0216898Y0124009D01*
X0216934Y0123932D01*
X0216967Y0123853D01*
X0216996Y0123773D01*
X0217021Y0123692D01*
X0217042Y0123609D01*
X0217060Y0123526D01*
X0217073Y0123442D01*
X0217083Y0123358D01*
X0217089Y0123273D01*
X0217091Y0123188D01*
X0217091Y0120688D01*
X0217093Y0120639D01*
X0217098Y0120590D01*
X0217108Y0120541D01*
X0217120Y0120494D01*
X0217137Y0120447D01*
X0217156Y0120402D01*
X0217179Y0120359D01*
X0217206Y0120317D01*
X0217235Y0120277D01*
X0217267Y0120240D01*
X0217302Y0120205D01*
X0217339Y0120173D01*
X0217379Y0120144D01*
X0217421Y0120117D01*
X0217464Y0120094D01*
X0217509Y0120075D01*
X0217556Y0120058D01*
X0217603Y0120046D01*
X0217652Y0120036D01*
X0217701Y0120031D01*
X0217750Y0120029D01*
X0213534Y0123847D02*
X0213445Y0123845D01*
X0213357Y0123839D01*
X0213269Y0123830D01*
X0213181Y0123816D01*
X0213094Y0123799D01*
X0213008Y0123778D01*
X0212922Y0123753D01*
X0212838Y0123724D01*
X0212756Y0123692D01*
X0212674Y0123656D01*
X0212595Y0123617D01*
X0212517Y0123574D01*
X0212441Y0123528D01*
X0212367Y0123479D01*
X0212296Y0123427D01*
X0212227Y0123371D01*
X0212160Y0123313D01*
X0212096Y0123251D01*
X0212034Y0123187D01*
X0211976Y0123120D01*
X0211920Y0123051D01*
X0211868Y0122980D01*
X0211819Y0122906D01*
X0211773Y0122830D01*
X0211730Y0122752D01*
X0211691Y0122673D01*
X0211655Y0122591D01*
X0211623Y0122509D01*
X0211594Y0122425D01*
X0211569Y0122339D01*
X0211548Y0122253D01*
X0211531Y0122166D01*
X0211517Y0122078D01*
X0211508Y0121990D01*
X0211502Y0121902D01*
X0211500Y0121813D01*
X0211375Y0121938D01*
X0205750Y0121938D01*
X0205750Y0126938D02*
X0211375Y0126938D01*
X0211500Y0127063D01*
X0211502Y0127025D01*
X0211507Y0126988D01*
X0211517Y0126951D01*
X0211529Y0126916D01*
X0211545Y0126882D01*
X0211565Y0126849D01*
X0211587Y0126819D01*
X0211613Y0126791D01*
X0211615Y0126710D01*
X0211621Y0126628D01*
X0211630Y0126548D01*
X0211643Y0126467D01*
X0211660Y0126388D01*
X0211680Y0126309D01*
X0211704Y0126231D01*
X0211732Y0126154D01*
X0211763Y0126079D01*
X0211798Y0126006D01*
X0211836Y0125934D01*
X0211877Y0125863D01*
X0211921Y0125795D01*
X0211969Y0125729D01*
X0212019Y0125665D01*
X0212073Y0125604D01*
X0212129Y0125545D01*
X0212188Y0125489D01*
X0212249Y0125435D01*
X0212313Y0125385D01*
X0212379Y0125337D01*
X0212447Y0125293D01*
X0212518Y0125252D01*
X0212590Y0125214D01*
X0212663Y0125179D01*
X0212738Y0125148D01*
X0212815Y0125120D01*
X0212893Y0125096D01*
X0212972Y0125076D01*
X0213051Y0125059D01*
X0213132Y0125046D01*
X0213212Y0125037D01*
X0213294Y0125031D01*
X0213375Y0125029D01*
X0211613Y0122085D02*
X0211587Y0122057D01*
X0211565Y0122027D01*
X0211545Y0121994D01*
X0211529Y0121960D01*
X0211517Y0121925D01*
X0211507Y0121888D01*
X0211502Y0121851D01*
X0211500Y0121813D01*
X0246427Y0133065D02*
X0246495Y0133136D01*
X0246560Y0133209D01*
X0246622Y0133285D01*
X0246682Y0133364D01*
X0246738Y0133444D01*
X0246791Y0133527D01*
X0246840Y0133611D01*
X0246887Y0133698D01*
X0246929Y0133786D01*
X0246969Y0133876D01*
X0247004Y0133968D01*
X0247037Y0134060D01*
X0247065Y0134154D01*
X0247090Y0134249D01*
X0247111Y0134345D01*
X0247128Y0134442D01*
X0247142Y0134539D01*
X0247151Y0134637D01*
X0247157Y0134735D01*
X0247159Y0134833D01*
X0247159Y0142563D01*
X0248341Y0142563D02*
X0248341Y0134983D01*
X0249073Y0133216D02*
X0249375Y0132913D01*
X0249073Y0133215D02*
X0249005Y0133286D01*
X0248940Y0133359D01*
X0248878Y0133435D01*
X0248818Y0133514D01*
X0248762Y0133594D01*
X0248709Y0133677D01*
X0248660Y0133761D01*
X0248613Y0133848D01*
X0248571Y0133936D01*
X0248531Y0134026D01*
X0248496Y0134118D01*
X0248463Y0134210D01*
X0248435Y0134304D01*
X0248410Y0134399D01*
X0248389Y0134495D01*
X0248372Y0134592D01*
X0248358Y0134689D01*
X0248349Y0134787D01*
X0248343Y0134885D01*
X0248341Y0134983D01*
X0246427Y0133066D02*
X0246275Y0132913D01*
X0248341Y0142563D02*
X0248343Y0142612D01*
X0248348Y0142661D01*
X0248358Y0142710D01*
X0248370Y0142757D01*
X0248387Y0142804D01*
X0248406Y0142849D01*
X0248429Y0142893D01*
X0248456Y0142934D01*
X0248485Y0142974D01*
X0248517Y0143011D01*
X0248552Y0143046D01*
X0248589Y0143078D01*
X0248629Y0143107D01*
X0248671Y0143134D01*
X0248714Y0143157D01*
X0248759Y0143176D01*
X0248806Y0143193D01*
X0248853Y0143205D01*
X0248902Y0143215D01*
X0248951Y0143220D01*
X0249000Y0143222D01*
X0249000Y0143223D02*
X0252125Y0143223D01*
X0253352Y0141996D01*
X0255120Y0141263D02*
X0260000Y0141263D01*
X0261630Y0141263D01*
X0263398Y0141996D02*
X0264625Y0143223D01*
X0268375Y0143223D01*
X0268375Y0143222D02*
X0268424Y0143220D01*
X0268473Y0143215D01*
X0268522Y0143205D01*
X0268569Y0143193D01*
X0268616Y0143176D01*
X0268661Y0143157D01*
X0268705Y0143134D01*
X0268746Y0143107D01*
X0268786Y0143078D01*
X0268823Y0143046D01*
X0268858Y0143011D01*
X0268890Y0142974D01*
X0268919Y0142934D01*
X0268946Y0142893D01*
X0268969Y0142849D01*
X0268988Y0142804D01*
X0269005Y0142757D01*
X0269017Y0142710D01*
X0269027Y0142661D01*
X0269032Y0142612D01*
X0269034Y0142563D01*
X0269034Y0133813D01*
X0269034Y0120063D01*
X0270216Y0120063D02*
X0270216Y0142563D01*
X0270214Y0142648D01*
X0270208Y0142733D01*
X0270198Y0142817D01*
X0270185Y0142901D01*
X0270167Y0142984D01*
X0270146Y0143067D01*
X0270121Y0143148D01*
X0270092Y0143228D01*
X0270059Y0143307D01*
X0270023Y0143384D01*
X0269983Y0143459D01*
X0269940Y0143532D01*
X0269894Y0143603D01*
X0269844Y0143672D01*
X0269791Y0143739D01*
X0269736Y0143803D01*
X0269677Y0143865D01*
X0269615Y0143924D01*
X0269551Y0143979D01*
X0269484Y0144032D01*
X0269415Y0144082D01*
X0269344Y0144128D01*
X0269271Y0144171D01*
X0269196Y0144211D01*
X0269119Y0144247D01*
X0269040Y0144280D01*
X0268960Y0144309D01*
X0268879Y0144334D01*
X0268796Y0144355D01*
X0268713Y0144373D01*
X0268629Y0144386D01*
X0268545Y0144396D01*
X0268460Y0144402D01*
X0268375Y0144404D01*
X0264625Y0144404D01*
X0263398Y0145631D01*
X0261630Y0146363D02*
X0260000Y0146363D01*
X0255120Y0146363D01*
X0253352Y0145631D02*
X0252125Y0144404D01*
X0249000Y0144404D01*
X0248915Y0144402D01*
X0248830Y0144396D01*
X0248746Y0144386D01*
X0248662Y0144373D01*
X0248579Y0144355D01*
X0248496Y0144334D01*
X0248415Y0144309D01*
X0248335Y0144280D01*
X0248256Y0144247D01*
X0248179Y0144211D01*
X0248104Y0144171D01*
X0248031Y0144128D01*
X0247960Y0144082D01*
X0247891Y0144032D01*
X0247824Y0143979D01*
X0247760Y0143924D01*
X0247698Y0143865D01*
X0247639Y0143803D01*
X0247584Y0143739D01*
X0247531Y0143672D01*
X0247481Y0143603D01*
X0247435Y0143532D01*
X0247392Y0143459D01*
X0247352Y0143384D01*
X0247316Y0143307D01*
X0247283Y0143228D01*
X0247254Y0143148D01*
X0247229Y0143067D01*
X0247208Y0142984D01*
X0247190Y0142901D01*
X0247177Y0142817D01*
X0247167Y0142733D01*
X0247161Y0142648D01*
X0247159Y0142563D01*
X0253352Y0141995D02*
X0253423Y0141927D01*
X0253496Y0141862D01*
X0253572Y0141800D01*
X0253651Y0141740D01*
X0253731Y0141684D01*
X0253814Y0141631D01*
X0253898Y0141582D01*
X0253985Y0141535D01*
X0254073Y0141493D01*
X0254163Y0141453D01*
X0254255Y0141418D01*
X0254347Y0141385D01*
X0254441Y0141357D01*
X0254536Y0141332D01*
X0254632Y0141311D01*
X0254729Y0141294D01*
X0254826Y0141280D01*
X0254924Y0141271D01*
X0255022Y0141265D01*
X0255120Y0141263D01*
X0253352Y0145631D02*
X0253423Y0145699D01*
X0253496Y0145764D01*
X0253572Y0145826D01*
X0253651Y0145886D01*
X0253731Y0145942D01*
X0253814Y0145995D01*
X0253898Y0146044D01*
X0253985Y0146091D01*
X0254073Y0146133D01*
X0254163Y0146173D01*
X0254255Y0146208D01*
X0254347Y0146241D01*
X0254441Y0146269D01*
X0254536Y0146294D01*
X0254632Y0146315D01*
X0254729Y0146332D01*
X0254826Y0146346D01*
X0254924Y0146355D01*
X0255022Y0146361D01*
X0255120Y0146363D01*
X0261630Y0146363D02*
X0261728Y0146361D01*
X0261826Y0146355D01*
X0261924Y0146346D01*
X0262021Y0146332D01*
X0262118Y0146315D01*
X0262214Y0146294D01*
X0262309Y0146269D01*
X0262403Y0146241D01*
X0262495Y0146208D01*
X0262587Y0146173D01*
X0262677Y0146133D01*
X0262765Y0146091D01*
X0262852Y0146044D01*
X0262936Y0145995D01*
X0263019Y0145942D01*
X0263099Y0145886D01*
X0263178Y0145826D01*
X0263254Y0145764D01*
X0263327Y0145699D01*
X0263398Y0145631D01*
X0263398Y0141995D02*
X0263327Y0141927D01*
X0263254Y0141862D01*
X0263178Y0141800D01*
X0263099Y0141740D01*
X0263019Y0141684D01*
X0262936Y0141631D01*
X0262852Y0141582D01*
X0262765Y0141535D01*
X0262677Y0141493D01*
X0262587Y0141453D01*
X0262495Y0141418D01*
X0262403Y0141385D01*
X0262309Y0141357D01*
X0262214Y0141332D01*
X0262118Y0141311D01*
X0262021Y0141294D01*
X0261924Y0141280D01*
X0261826Y0141271D01*
X0261728Y0141265D01*
X0261630Y0141263D01*
X0267526Y0133188D02*
X0267614Y0133190D01*
X0267702Y0133195D01*
X0267790Y0133204D01*
X0267877Y0133217D01*
X0267964Y0133233D01*
X0268050Y0133253D01*
X0268135Y0133277D01*
X0268219Y0133304D01*
X0268302Y0133334D01*
X0268383Y0133368D01*
X0268463Y0133405D01*
X0268542Y0133445D01*
X0268618Y0133489D01*
X0268693Y0133535D01*
X0268766Y0133585D01*
X0268837Y0133638D01*
X0268905Y0133694D01*
X0268971Y0133752D01*
X0269035Y0133813D01*
X0267526Y0133188D02*
X0267000Y0135063D01*
X0276000Y0126313D02*
X0276000Y0121313D01*
X0275998Y0121227D01*
X0275992Y0121142D01*
X0275983Y0121057D01*
X0275969Y0120972D01*
X0275952Y0120888D01*
X0275931Y0120805D01*
X0275907Y0120723D01*
X0275878Y0120642D01*
X0275846Y0120563D01*
X0275811Y0120485D01*
X0275772Y0120408D01*
X0275730Y0120334D01*
X0275684Y0120261D01*
X0275635Y0120191D01*
X0275584Y0120123D01*
X0275529Y0120057D01*
X0275471Y0119994D01*
X0275410Y0119933D01*
X0275347Y0119875D01*
X0275281Y0119820D01*
X0275213Y0119769D01*
X0275143Y0119720D01*
X0275070Y0119674D01*
X0274996Y0119632D01*
X0274919Y0119593D01*
X0274841Y0119558D01*
X0274762Y0119526D01*
X0274681Y0119497D01*
X0274599Y0119473D01*
X0274516Y0119452D01*
X0274432Y0119435D01*
X0274347Y0119421D01*
X0274262Y0119412D01*
X0274177Y0119406D01*
X0274091Y0119404D01*
X0270875Y0119404D01*
X0270875Y0118222D02*
X0270790Y0118224D01*
X0270705Y0118230D01*
X0270621Y0118240D01*
X0270537Y0118253D01*
X0270454Y0118271D01*
X0270371Y0118292D01*
X0270290Y0118317D01*
X0270210Y0118346D01*
X0270131Y0118379D01*
X0270054Y0118415D01*
X0269979Y0118455D01*
X0269906Y0118498D01*
X0269835Y0118544D01*
X0269766Y0118594D01*
X0269699Y0118647D01*
X0269635Y0118702D01*
X0269573Y0118761D01*
X0269514Y0118823D01*
X0269459Y0118887D01*
X0269406Y0118954D01*
X0269356Y0119023D01*
X0269310Y0119094D01*
X0269267Y0119167D01*
X0269227Y0119242D01*
X0269191Y0119319D01*
X0269158Y0119398D01*
X0269129Y0119478D01*
X0269104Y0119559D01*
X0269083Y0119642D01*
X0269065Y0119725D01*
X0269052Y0119809D01*
X0269042Y0119893D01*
X0269036Y0119978D01*
X0269034Y0120063D01*
X0270216Y0120063D02*
X0270218Y0120014D01*
X0270223Y0119965D01*
X0270233Y0119916D01*
X0270245Y0119869D01*
X0270262Y0119822D01*
X0270281Y0119777D01*
X0270304Y0119734D01*
X0270331Y0119692D01*
X0270360Y0119652D01*
X0270392Y0119615D01*
X0270427Y0119580D01*
X0270464Y0119548D01*
X0270504Y0119519D01*
X0270546Y0119492D01*
X0270589Y0119469D01*
X0270634Y0119450D01*
X0270681Y0119433D01*
X0270728Y0119421D01*
X0270777Y0119411D01*
X0270826Y0119406D01*
X0270875Y0119404D01*
X0270875Y0118223D02*
X0274091Y0118223D01*
X0274091Y0118222D02*
X0274177Y0118220D01*
X0274262Y0118214D01*
X0274347Y0118205D01*
X0274432Y0118191D01*
X0274516Y0118174D01*
X0274599Y0118153D01*
X0274681Y0118129D01*
X0274762Y0118100D01*
X0274841Y0118068D01*
X0274919Y0118033D01*
X0274996Y0117994D01*
X0275070Y0117952D01*
X0275143Y0117906D01*
X0275213Y0117857D01*
X0275281Y0117806D01*
X0275347Y0117751D01*
X0275410Y0117693D01*
X0275471Y0117632D01*
X0275529Y0117569D01*
X0275584Y0117503D01*
X0275635Y0117435D01*
X0275684Y0117365D01*
X0275730Y0117292D01*
X0275772Y0117218D01*
X0275811Y0117141D01*
X0275846Y0117063D01*
X0275878Y0116984D01*
X0275907Y0116903D01*
X0275931Y0116821D01*
X0275952Y0116738D01*
X0275969Y0116654D01*
X0275983Y0116569D01*
X0275992Y0116484D01*
X0275998Y0116399D01*
X0276000Y0116313D01*
X0276000Y0111313D01*
X0282000Y0116313D02*
X0282002Y0116399D01*
X0282008Y0116484D01*
X0282017Y0116569D01*
X0282031Y0116654D01*
X0282048Y0116738D01*
X0282069Y0116821D01*
X0282093Y0116903D01*
X0282122Y0116984D01*
X0282154Y0117063D01*
X0282189Y0117141D01*
X0282228Y0117218D01*
X0282270Y0117292D01*
X0282316Y0117365D01*
X0282365Y0117435D01*
X0282416Y0117503D01*
X0282471Y0117569D01*
X0282529Y0117632D01*
X0282590Y0117693D01*
X0282653Y0117751D01*
X0282719Y0117806D01*
X0282787Y0117857D01*
X0282857Y0117906D01*
X0282930Y0117952D01*
X0283004Y0117994D01*
X0283081Y0118033D01*
X0283159Y0118068D01*
X0283238Y0118100D01*
X0283319Y0118129D01*
X0283401Y0118153D01*
X0283484Y0118174D01*
X0283568Y0118191D01*
X0283653Y0118205D01*
X0283738Y0118214D01*
X0283823Y0118220D01*
X0283909Y0118222D01*
X0283909Y0118223D02*
X0297125Y0118223D01*
X0297125Y0119404D02*
X0283909Y0119404D01*
X0283823Y0119406D01*
X0283738Y0119412D01*
X0283653Y0119421D01*
X0283568Y0119435D01*
X0283484Y0119452D01*
X0283401Y0119473D01*
X0283319Y0119497D01*
X0283238Y0119526D01*
X0283159Y0119558D01*
X0283081Y0119593D01*
X0283004Y0119632D01*
X0282930Y0119674D01*
X0282857Y0119720D01*
X0282787Y0119769D01*
X0282719Y0119820D01*
X0282653Y0119875D01*
X0282590Y0119933D01*
X0282529Y0119994D01*
X0282471Y0120057D01*
X0282416Y0120123D01*
X0282365Y0120191D01*
X0282316Y0120261D01*
X0282270Y0120334D01*
X0282228Y0120408D01*
X0282189Y0120485D01*
X0282154Y0120563D01*
X0282122Y0120642D01*
X0282093Y0120723D01*
X0282069Y0120805D01*
X0282048Y0120888D01*
X0282031Y0120972D01*
X0282017Y0121057D01*
X0282008Y0121142D01*
X0282002Y0121227D01*
X0282000Y0121313D01*
X0297125Y0119404D02*
X0297193Y0119406D01*
X0297260Y0119411D01*
X0297327Y0119420D01*
X0297394Y0119433D01*
X0297459Y0119450D01*
X0297524Y0119469D01*
X0297588Y0119493D01*
X0297650Y0119520D01*
X0297711Y0119550D01*
X0297769Y0119583D01*
X0297826Y0119619D01*
X0297881Y0119659D01*
X0297934Y0119701D01*
X0297985Y0119747D01*
X0298032Y0119794D01*
X0298078Y0119845D01*
X0298120Y0119898D01*
X0298160Y0119953D01*
X0298196Y0120010D01*
X0298229Y0120068D01*
X0298259Y0120129D01*
X0298286Y0120191D01*
X0298310Y0120255D01*
X0298329Y0120320D01*
X0298346Y0120385D01*
X0298359Y0120452D01*
X0298368Y0120519D01*
X0298373Y0120586D01*
X0298375Y0120654D01*
X0298375Y0123813D01*
X0298375Y0116973D02*
X0298375Y0113813D01*
X0298375Y0116973D02*
X0298373Y0117041D01*
X0298368Y0117108D01*
X0298359Y0117175D01*
X0298346Y0117242D01*
X0298329Y0117307D01*
X0298310Y0117372D01*
X0298286Y0117436D01*
X0298259Y0117498D01*
X0298229Y0117559D01*
X0298196Y0117617D01*
X0298160Y0117674D01*
X0298120Y0117729D01*
X0298078Y0117782D01*
X0298032Y0117833D01*
X0297985Y0117880D01*
X0297934Y0117926D01*
X0297881Y0117968D01*
X0297826Y0118008D01*
X0297769Y0118044D01*
X0297711Y0118077D01*
X0297650Y0118107D01*
X0297588Y0118134D01*
X0297524Y0118158D01*
X0297459Y0118177D01*
X0297394Y0118194D01*
X0297327Y0118207D01*
X0297260Y0118216D01*
X0297193Y0118221D01*
X0297125Y0118223D01*
X0152198Y0062426D02*
X0152130Y0062355D01*
X0152065Y0062282D01*
X0152003Y0062206D01*
X0151943Y0062127D01*
X0151887Y0062047D01*
X0151834Y0061964D01*
X0151785Y0061880D01*
X0151738Y0061793D01*
X0151696Y0061705D01*
X0151656Y0061615D01*
X0151621Y0061523D01*
X0151588Y0061431D01*
X0151560Y0061337D01*
X0151535Y0061242D01*
X0151514Y0061146D01*
X0151497Y0061049D01*
X0151483Y0060952D01*
X0151474Y0060854D01*
X0151468Y0060756D01*
X0151466Y0060658D01*
X0151466Y0058188D01*
X0152643Y0057011D01*
X0153375Y0055243D02*
X0153375Y0053388D01*
X0153375Y0055243D02*
X0153373Y0055341D01*
X0153367Y0055439D01*
X0153358Y0055537D01*
X0153344Y0055634D01*
X0153327Y0055731D01*
X0153306Y0055827D01*
X0153281Y0055922D01*
X0153253Y0056016D01*
X0153220Y0056108D01*
X0153185Y0056200D01*
X0153145Y0056290D01*
X0153103Y0056378D01*
X0153056Y0056465D01*
X0153007Y0056549D01*
X0152954Y0056632D01*
X0152898Y0056712D01*
X0152838Y0056791D01*
X0152776Y0056867D01*
X0152711Y0056940D01*
X0152643Y0057011D01*
X0149107Y0057011D02*
X0149039Y0056940D01*
X0148974Y0056867D01*
X0148912Y0056791D01*
X0148852Y0056712D01*
X0148796Y0056632D01*
X0148743Y0056549D01*
X0148694Y0056465D01*
X0148647Y0056378D01*
X0148605Y0056290D01*
X0148565Y0056200D01*
X0148530Y0056108D01*
X0148497Y0056016D01*
X0148469Y0055922D01*
X0148444Y0055827D01*
X0148423Y0055731D01*
X0148406Y0055634D01*
X0148392Y0055537D01*
X0148383Y0055439D01*
X0148377Y0055341D01*
X0148375Y0055243D01*
X0148375Y0053388D01*
X0149107Y0057011D02*
X0150284Y0058188D01*
X0150284Y0061147D01*
X0150286Y0061245D01*
X0150292Y0061343D01*
X0150301Y0061441D01*
X0150315Y0061538D01*
X0150332Y0061635D01*
X0150353Y0061731D01*
X0150378Y0061826D01*
X0150406Y0061920D01*
X0150439Y0062012D01*
X0150474Y0062104D01*
X0150514Y0062194D01*
X0150556Y0062282D01*
X0150603Y0062369D01*
X0150652Y0062453D01*
X0150705Y0062536D01*
X0150761Y0062616D01*
X0150821Y0062695D01*
X0150883Y0062771D01*
X0150948Y0062844D01*
X0151016Y0062915D01*
M02*
