%
M48
M72
T01C0.0150
T02C0.0236
T03C0.0320
T04C0.0354
T05C0.0394
T06C0.0400
T07C0.0630
T08C0.1004
T09C0.3543
%
T01
X8099Y5160
X4099Y9160
X8099Y13160
X15974Y9035
X19974Y13035
X19974Y5035
T02
X20010Y9032
X8135Y9157
T03
X6526Y10681
X5819Y11389
X8099Y11410
X8099Y12410
X9657Y10791
X10364Y11498
X10349Y9160
X11349Y9160
X9709Y7529
X10416Y6822
X8099Y6910
X8099Y5910
X5782Y6895
X6489Y7602
X5849Y9160
X4849Y9160
X16724Y9035
X17724Y9035
X18386Y7498
X17679Y6791
X19974Y6785
X19974Y5785
X21569Y7440
X22276Y6733
X22224Y9035
X23224Y9035
X21532Y10666
X22239Y11373
X19974Y11285
X19974Y12285
X17745Y11285
X18453Y10578
T04
X27099Y14910
X29724Y14535
X30224Y16910
X28474Y17535
X33099Y17410
X36443Y16164
X36443Y15361
X36443Y14558
X36443Y13754
X37443Y14156
X37443Y14959
X37443Y15762
X37443Y16566
X33474Y12785
X26474Y22285
T05
X12224Y9660
X12224Y8660
X3624Y14835
X2624Y14835
X2624Y15835
X3624Y15835
X24099Y9535
X24099Y8535
T06
X25099Y8035
X25099Y9035
X25099Y10035
X13224Y10160
X13224Y9160
X13224Y8160
X24724Y22660
X24724Y23660
X24724Y24660
T07
X36443Y18359
X36443Y11961
T08
X38349Y12231
X38349Y18089
T09
X20011Y9034
X8136Y9159
M30
