G75*
G70*
%OFA0B0*%
%FSLAX24Y24*%
%IPPOS*%
%LPD*%
%AMOC8*
5,1,8,0,0,1.08239X$1,22.5*
%
%ADD10R,0.0394X0.0433*%
%ADD11R,0.0433X0.0394*%
%ADD12OC8,0.0591*%
%ADD13C,0.0600*%
%ADD14C,0.0660*%
%ADD15C,0.0560*%
%ADD16C,0.0945*%
%ADD17OC8,0.0660*%
%ADD18C,0.0132*%
%ADD19C,0.0120*%
%ADD20OC8,0.0531*%
%ADD21C,0.0160*%
%ADD22OC8,0.0290*%
D10*
X004364Y015862D03*
X005034Y015862D03*
X005034Y016674D03*
X004364Y016674D03*
D11*
X025712Y021931D03*
X025712Y022601D03*
D12*
X003624Y015835D03*
X002624Y015835D03*
X002624Y014835D03*
X003624Y014835D03*
D13*
X013224Y010160D03*
X013224Y009160D03*
X013224Y008160D03*
X025099Y008035D03*
X025099Y009035D03*
X025099Y010035D03*
X024724Y022660D03*
X024724Y023660D03*
X024724Y024660D03*
D14*
X012224Y009660D03*
X012224Y008660D03*
X024099Y008535D03*
X024099Y009535D03*
D15*
X036443Y013754D03*
X036443Y014558D03*
X036443Y015361D03*
X036443Y016164D03*
X037443Y016566D03*
X037443Y015762D03*
X037443Y014959D03*
X037443Y014156D03*
D16*
X036443Y011961D03*
X036443Y018359D03*
D17*
X023224Y009035D03*
X022224Y009035D03*
X019974Y011285D03*
X019974Y012285D03*
X017724Y009035D03*
X016724Y009035D03*
X019974Y006785D03*
X019974Y005785D03*
X011349Y009160D03*
X010349Y009160D03*
X008099Y006910D03*
X008099Y005910D03*
X005849Y009160D03*
X004849Y009160D03*
X008099Y011410D03*
X008099Y012410D03*
D18*
X009854Y010834D02*
X009920Y010900D01*
X009920Y010682D01*
X009766Y010528D01*
X009548Y010528D01*
X009394Y010682D01*
X009394Y010900D01*
X009548Y011054D01*
X009766Y011054D01*
X009920Y010900D01*
X009821Y010859D01*
X009821Y010723D01*
X009725Y010627D01*
X009589Y010627D01*
X009493Y010723D01*
X009493Y010859D01*
X009589Y010955D01*
X009725Y010955D01*
X009821Y010859D01*
X009722Y010818D01*
X009722Y010764D01*
X009684Y010726D01*
X009630Y010726D01*
X009592Y010764D01*
X009592Y010818D01*
X009630Y010856D01*
X009684Y010856D01*
X009722Y010818D01*
X010561Y011541D02*
X010627Y011607D01*
X010627Y011389D01*
X010473Y011235D01*
X010255Y011235D01*
X010101Y011389D01*
X010101Y011607D01*
X010255Y011761D01*
X010473Y011761D01*
X010627Y011607D01*
X010528Y011566D01*
X010528Y011430D01*
X010432Y011334D01*
X010296Y011334D01*
X010200Y011430D01*
X010200Y011566D01*
X010296Y011662D01*
X010432Y011662D01*
X010528Y011566D01*
X010429Y011525D01*
X010429Y011471D01*
X010391Y011433D01*
X010337Y011433D01*
X010299Y011471D01*
X010299Y011525D01*
X010337Y011563D01*
X010391Y011563D01*
X010429Y011525D01*
X006483Y010878D02*
X006417Y010944D01*
X006635Y010944D01*
X006789Y010790D01*
X006789Y010572D01*
X006635Y010418D01*
X006417Y010418D01*
X006263Y010572D01*
X006263Y010790D01*
X006417Y010944D01*
X006458Y010845D01*
X006594Y010845D01*
X006690Y010749D01*
X006690Y010613D01*
X006594Y010517D01*
X006458Y010517D01*
X006362Y010613D01*
X006362Y010749D01*
X006458Y010845D01*
X006499Y010746D01*
X006553Y010746D01*
X006591Y010708D01*
X006591Y010654D01*
X006553Y010616D01*
X006499Y010616D01*
X006461Y010654D01*
X006461Y010708D01*
X006499Y010746D01*
X005776Y011586D02*
X005710Y011652D01*
X005928Y011652D01*
X006082Y011498D01*
X006082Y011280D01*
X005928Y011126D01*
X005710Y011126D01*
X005556Y011280D01*
X005556Y011498D01*
X005710Y011652D01*
X005751Y011553D01*
X005887Y011553D01*
X005983Y011457D01*
X005983Y011321D01*
X005887Y011225D01*
X005751Y011225D01*
X005655Y011321D01*
X005655Y011457D01*
X005751Y011553D01*
X005792Y011454D01*
X005846Y011454D01*
X005884Y011416D01*
X005884Y011362D01*
X005846Y011324D01*
X005792Y011324D01*
X005754Y011362D01*
X005754Y011416D01*
X005792Y011454D01*
X006292Y007559D02*
X006226Y007493D01*
X006226Y007711D01*
X006380Y007865D01*
X006598Y007865D01*
X006752Y007711D01*
X006752Y007493D01*
X006598Y007339D01*
X006380Y007339D01*
X006226Y007493D01*
X006325Y007534D01*
X006325Y007670D01*
X006421Y007766D01*
X006557Y007766D01*
X006653Y007670D01*
X006653Y007534D01*
X006557Y007438D01*
X006421Y007438D01*
X006325Y007534D01*
X006424Y007575D01*
X006424Y007629D01*
X006462Y007667D01*
X006516Y007667D01*
X006554Y007629D01*
X006554Y007575D01*
X006516Y007537D01*
X006462Y007537D01*
X006424Y007575D01*
X005585Y006852D02*
X005519Y006786D01*
X005519Y007004D01*
X005673Y007158D01*
X005891Y007158D01*
X006045Y007004D01*
X006045Y006786D01*
X005891Y006632D01*
X005673Y006632D01*
X005519Y006786D01*
X005618Y006827D01*
X005618Y006963D01*
X005714Y007059D01*
X005850Y007059D01*
X005946Y006963D01*
X005946Y006827D01*
X005850Y006731D01*
X005714Y006731D01*
X005618Y006827D01*
X005717Y006868D01*
X005717Y006922D01*
X005755Y006960D01*
X005809Y006960D01*
X005847Y006922D01*
X005847Y006868D01*
X005809Y006830D01*
X005755Y006830D01*
X005717Y006868D01*
X009752Y007332D02*
X009818Y007266D01*
X009600Y007266D01*
X009446Y007420D01*
X009446Y007638D01*
X009600Y007792D01*
X009818Y007792D01*
X009972Y007638D01*
X009972Y007420D01*
X009818Y007266D01*
X009777Y007365D01*
X009641Y007365D01*
X009545Y007461D01*
X009545Y007597D01*
X009641Y007693D01*
X009777Y007693D01*
X009873Y007597D01*
X009873Y007461D01*
X009777Y007365D01*
X009736Y007464D01*
X009682Y007464D01*
X009644Y007502D01*
X009644Y007556D01*
X009682Y007594D01*
X009736Y007594D01*
X009774Y007556D01*
X009774Y007502D01*
X009736Y007464D01*
X010459Y006625D02*
X010525Y006559D01*
X010307Y006559D01*
X010153Y006713D01*
X010153Y006931D01*
X010307Y007085D01*
X010525Y007085D01*
X010679Y006931D01*
X010679Y006713D01*
X010525Y006559D01*
X010484Y006658D01*
X010348Y006658D01*
X010252Y006754D01*
X010252Y006890D01*
X010348Y006986D01*
X010484Y006986D01*
X010580Y006890D01*
X010580Y006754D01*
X010484Y006658D01*
X010443Y006757D01*
X010389Y006757D01*
X010351Y006795D01*
X010351Y006849D01*
X010389Y006887D01*
X010443Y006887D01*
X010481Y006849D01*
X010481Y006795D01*
X010443Y006757D01*
X017482Y006748D02*
X017416Y006682D01*
X017416Y006900D01*
X017570Y007054D01*
X017788Y007054D01*
X017942Y006900D01*
X017942Y006682D01*
X017788Y006528D01*
X017570Y006528D01*
X017416Y006682D01*
X017515Y006723D01*
X017515Y006859D01*
X017611Y006955D01*
X017747Y006955D01*
X017843Y006859D01*
X017843Y006723D01*
X017747Y006627D01*
X017611Y006627D01*
X017515Y006723D01*
X017614Y006764D01*
X017614Y006818D01*
X017652Y006856D01*
X017706Y006856D01*
X017744Y006818D01*
X017744Y006764D01*
X017706Y006726D01*
X017652Y006726D01*
X017614Y006764D01*
X018189Y007455D02*
X018123Y007389D01*
X018123Y007607D01*
X018277Y007761D01*
X018495Y007761D01*
X018649Y007607D01*
X018649Y007389D01*
X018495Y007235D01*
X018277Y007235D01*
X018123Y007389D01*
X018222Y007430D01*
X018222Y007566D01*
X018318Y007662D01*
X018454Y007662D01*
X018550Y007566D01*
X018550Y007430D01*
X018454Y007334D01*
X018318Y007334D01*
X018222Y007430D01*
X018321Y007471D01*
X018321Y007525D01*
X018359Y007563D01*
X018413Y007563D01*
X018451Y007525D01*
X018451Y007471D01*
X018413Y007433D01*
X018359Y007433D01*
X018321Y007471D01*
X021612Y007243D02*
X021678Y007177D01*
X021460Y007177D01*
X021306Y007331D01*
X021306Y007549D01*
X021460Y007703D01*
X021678Y007703D01*
X021832Y007549D01*
X021832Y007331D01*
X021678Y007177D01*
X021637Y007276D01*
X021501Y007276D01*
X021405Y007372D01*
X021405Y007508D01*
X021501Y007604D01*
X021637Y007604D01*
X021733Y007508D01*
X021733Y007372D01*
X021637Y007276D01*
X021596Y007375D01*
X021542Y007375D01*
X021504Y007413D01*
X021504Y007467D01*
X021542Y007505D01*
X021596Y007505D01*
X021634Y007467D01*
X021634Y007413D01*
X021596Y007375D01*
X022319Y006536D02*
X022385Y006470D01*
X022167Y006470D01*
X022013Y006624D01*
X022013Y006842D01*
X022167Y006996D01*
X022385Y006996D01*
X022539Y006842D01*
X022539Y006624D01*
X022385Y006470D01*
X022344Y006569D01*
X022208Y006569D01*
X022112Y006665D01*
X022112Y006801D01*
X022208Y006897D01*
X022344Y006897D01*
X022440Y006801D01*
X022440Y006665D01*
X022344Y006569D01*
X022303Y006668D01*
X022249Y006668D01*
X022211Y006706D01*
X022211Y006760D01*
X022249Y006798D01*
X022303Y006798D01*
X022341Y006760D01*
X022341Y006706D01*
X022303Y006668D01*
X021729Y010709D02*
X021795Y010775D01*
X021795Y010557D01*
X021641Y010403D01*
X021423Y010403D01*
X021269Y010557D01*
X021269Y010775D01*
X021423Y010929D01*
X021641Y010929D01*
X021795Y010775D01*
X021696Y010734D01*
X021696Y010598D01*
X021600Y010502D01*
X021464Y010502D01*
X021368Y010598D01*
X021368Y010734D01*
X021464Y010830D01*
X021600Y010830D01*
X021696Y010734D01*
X021597Y010693D01*
X021597Y010639D01*
X021559Y010601D01*
X021505Y010601D01*
X021467Y010639D01*
X021467Y010693D01*
X021505Y010731D01*
X021559Y010731D01*
X021597Y010693D01*
X022436Y011416D02*
X022502Y011482D01*
X022502Y011264D01*
X022348Y011110D01*
X022130Y011110D01*
X021976Y011264D01*
X021976Y011482D01*
X022130Y011636D01*
X022348Y011636D01*
X022502Y011482D01*
X022403Y011441D01*
X022403Y011305D01*
X022307Y011209D01*
X022171Y011209D01*
X022075Y011305D01*
X022075Y011441D01*
X022171Y011537D01*
X022307Y011537D01*
X022403Y011441D01*
X022304Y011400D01*
X022304Y011346D01*
X022266Y011308D01*
X022212Y011308D01*
X022174Y011346D01*
X022174Y011400D01*
X022212Y011438D01*
X022266Y011438D01*
X022304Y011400D01*
X018410Y010775D02*
X018344Y010841D01*
X018562Y010841D01*
X018716Y010687D01*
X018716Y010469D01*
X018562Y010315D01*
X018344Y010315D01*
X018190Y010469D01*
X018190Y010687D01*
X018344Y010841D01*
X018385Y010742D01*
X018521Y010742D01*
X018617Y010646D01*
X018617Y010510D01*
X018521Y010414D01*
X018385Y010414D01*
X018289Y010510D01*
X018289Y010646D01*
X018385Y010742D01*
X018426Y010643D01*
X018480Y010643D01*
X018518Y010605D01*
X018518Y010551D01*
X018480Y010513D01*
X018426Y010513D01*
X018388Y010551D01*
X018388Y010605D01*
X018426Y010643D01*
X017702Y011482D02*
X017636Y011548D01*
X017854Y011548D01*
X018008Y011394D01*
X018008Y011176D01*
X017854Y011022D01*
X017636Y011022D01*
X017482Y011176D01*
X017482Y011394D01*
X017636Y011548D01*
X017677Y011449D01*
X017813Y011449D01*
X017909Y011353D01*
X017909Y011217D01*
X017813Y011121D01*
X017677Y011121D01*
X017581Y011217D01*
X017581Y011353D01*
X017677Y011449D01*
X017718Y011350D01*
X017772Y011350D01*
X017810Y011312D01*
X017810Y011258D01*
X017772Y011220D01*
X017718Y011220D01*
X017680Y011258D01*
X017680Y011312D01*
X017718Y011350D01*
D19*
X000994Y001388D02*
X039824Y001388D01*
X039824Y028638D01*
X000994Y028638D01*
X000994Y001388D01*
X000994Y001464D02*
X039824Y001464D01*
X039824Y001582D02*
X000994Y001582D01*
X000994Y001701D02*
X039824Y001701D01*
X039824Y001819D02*
X000994Y001819D01*
X000994Y001938D02*
X039824Y001938D01*
X039824Y002056D02*
X000994Y002056D01*
X000994Y002175D02*
X039824Y002175D01*
X039824Y002293D02*
X000994Y002293D01*
X000994Y002412D02*
X039824Y002412D01*
X039824Y002530D02*
X000994Y002530D01*
X000994Y002649D02*
X039824Y002649D01*
X039824Y002767D02*
X000994Y002767D01*
X000994Y002886D02*
X039824Y002886D01*
X039824Y003004D02*
X000994Y003004D01*
X000994Y003123D02*
X039824Y003123D01*
X039824Y003241D02*
X000994Y003241D01*
X000994Y003360D02*
X039824Y003360D01*
X039824Y003478D02*
X000994Y003478D01*
X000994Y003597D02*
X039824Y003597D01*
X039824Y003715D02*
X000994Y003715D01*
X000994Y003834D02*
X039824Y003834D01*
X039824Y003952D02*
X000994Y003952D01*
X000994Y004071D02*
X039824Y004071D01*
X039824Y004189D02*
X000994Y004189D01*
X000994Y004308D02*
X039824Y004308D01*
X039824Y004426D02*
X024339Y004426D01*
X024371Y004440D02*
X024444Y004513D01*
X024484Y004608D01*
X024484Y006525D01*
X026401Y006525D01*
X026496Y006565D01*
X026569Y006638D01*
X026609Y006733D01*
X026609Y011337D01*
X026569Y011432D01*
X026496Y011505D01*
X026401Y011545D01*
X024484Y011545D01*
X024484Y013462D01*
X024444Y013557D01*
X024371Y013630D01*
X024276Y013670D01*
X020297Y013670D01*
X020202Y013630D01*
X020129Y013557D01*
X020089Y013462D01*
X020089Y013360D01*
X019859Y013360D01*
X019859Y013462D01*
X019819Y013557D01*
X019746Y013630D01*
X019651Y013670D01*
X015547Y013670D01*
X015452Y013630D01*
X015379Y013557D01*
X015339Y013462D01*
X015339Y009358D01*
X015379Y009263D01*
X015452Y009190D01*
X015547Y009150D01*
X015649Y009150D01*
X015649Y008920D01*
X015547Y008920D01*
X015452Y008880D01*
X015379Y008807D01*
X015339Y008712D01*
X015339Y004608D01*
X015379Y004513D01*
X015452Y004440D01*
X015547Y004400D01*
X019651Y004400D01*
X019746Y004440D01*
X019819Y004513D01*
X019859Y004608D01*
X019859Y004710D01*
X020089Y004710D01*
X020089Y004608D01*
X020129Y004513D01*
X020202Y004440D01*
X020297Y004400D01*
X024276Y004400D01*
X024371Y004440D01*
X024458Y004545D02*
X039824Y004545D01*
X039824Y004663D02*
X024484Y004663D01*
X024484Y004782D02*
X039824Y004782D01*
X039824Y004900D02*
X024484Y004900D01*
X024484Y005019D02*
X039824Y005019D01*
X039824Y005137D02*
X024484Y005137D01*
X024484Y005256D02*
X039824Y005256D01*
X039824Y005374D02*
X024484Y005374D01*
X024484Y005493D02*
X039824Y005493D01*
X039824Y005611D02*
X024484Y005611D01*
X024484Y005730D02*
X039824Y005730D01*
X039824Y005848D02*
X024484Y005848D01*
X024484Y005967D02*
X039824Y005967D01*
X039824Y006085D02*
X024484Y006085D01*
X024484Y006204D02*
X039824Y006204D01*
X039824Y006322D02*
X024484Y006322D01*
X024484Y006441D02*
X039824Y006441D01*
X039824Y006559D02*
X026483Y006559D01*
X026586Y006678D02*
X039824Y006678D01*
X039824Y006796D02*
X026609Y006796D01*
X026609Y006915D02*
X039824Y006915D01*
X039824Y007033D02*
X026609Y007033D01*
X026609Y007152D02*
X039824Y007152D01*
X039824Y007270D02*
X026609Y007270D01*
X026609Y007389D02*
X039824Y007389D01*
X039824Y007507D02*
X026609Y007507D01*
X026609Y007626D02*
X039824Y007626D01*
X039824Y007744D02*
X026609Y007744D01*
X026609Y007863D02*
X039824Y007863D01*
X039824Y007981D02*
X026609Y007981D01*
X026609Y008100D02*
X039824Y008100D01*
X039824Y008218D02*
X026609Y008218D01*
X026609Y008337D02*
X039824Y008337D01*
X039824Y008455D02*
X026609Y008455D01*
X026609Y008574D02*
X039824Y008574D01*
X039824Y008692D02*
X026609Y008692D01*
X026609Y008811D02*
X039824Y008811D01*
X039824Y008929D02*
X026609Y008929D01*
X026609Y009048D02*
X039824Y009048D01*
X039824Y009166D02*
X026609Y009166D01*
X026609Y009285D02*
X039824Y009285D01*
X039824Y009403D02*
X026609Y009403D01*
X026609Y009522D02*
X039824Y009522D01*
X039824Y009640D02*
X026609Y009640D01*
X026609Y009759D02*
X039824Y009759D01*
X039824Y009877D02*
X026609Y009877D01*
X026609Y009996D02*
X039824Y009996D01*
X039824Y010114D02*
X026609Y010114D01*
X026609Y010233D02*
X039824Y010233D01*
X039824Y010351D02*
X026609Y010351D01*
X026609Y010470D02*
X039824Y010470D01*
X039824Y010588D02*
X026609Y010588D01*
X026609Y010707D02*
X039824Y010707D01*
X039824Y010825D02*
X026609Y010825D01*
X026609Y010944D02*
X039824Y010944D01*
X039824Y011062D02*
X026609Y011062D01*
X026609Y011181D02*
X039824Y011181D01*
X039824Y011299D02*
X026609Y011299D01*
X026576Y011418D02*
X036117Y011418D01*
X036112Y011420D02*
X036201Y011375D01*
X036295Y011344D01*
X036383Y011330D01*
X036383Y011901D01*
X035813Y011901D01*
X035827Y011813D01*
X035857Y011718D01*
X035903Y011630D01*
X035961Y011549D01*
X036031Y011479D01*
X036112Y011420D01*
X035974Y011536D02*
X026422Y011536D01*
X024484Y011655D02*
X035890Y011655D01*
X035840Y011773D02*
X024484Y011773D01*
X024484Y011892D02*
X035814Y011892D01*
X035813Y012021D02*
X036383Y012021D01*
X036383Y011901D01*
X036503Y011901D01*
X036503Y011330D01*
X036592Y011344D01*
X036686Y011375D01*
X036775Y011420D01*
X036855Y011479D01*
X036926Y011549D01*
X036984Y011630D01*
X037030Y011718D01*
X037060Y011813D01*
X037074Y011901D01*
X036503Y011901D01*
X036503Y012021D01*
X037074Y012021D01*
X037060Y012109D01*
X037030Y012204D01*
X036984Y012293D01*
X036926Y012373D01*
X036855Y012444D01*
X036775Y012502D01*
X036686Y012547D01*
X036624Y012567D01*
X036694Y012638D01*
X037182Y013125D01*
X037222Y013221D01*
X037222Y013775D01*
X037275Y013748D01*
X037340Y013727D01*
X037409Y013716D01*
X037415Y013716D01*
X037415Y014127D01*
X037472Y014127D01*
X037472Y013716D01*
X037478Y013716D01*
X037547Y013727D01*
X037612Y013748D01*
X037674Y013780D01*
X037730Y013820D01*
X037779Y013869D01*
X037820Y013925D01*
X037851Y013987D01*
X037873Y014053D01*
X037883Y014121D01*
X037883Y014127D01*
X037472Y014127D01*
X037472Y014185D01*
X037883Y014185D01*
X037883Y014191D01*
X037873Y014259D01*
X037851Y014325D01*
X037820Y014387D01*
X037779Y014443D01*
X037730Y014492D01*
X037674Y014532D01*
X037648Y014546D01*
X037704Y014569D01*
X037833Y014699D01*
X037903Y014868D01*
X037903Y015051D01*
X037833Y015220D01*
X037704Y015349D01*
X037648Y015373D01*
X037674Y015386D01*
X037730Y015427D01*
X037779Y015476D01*
X037820Y015532D01*
X037851Y015593D01*
X037873Y015659D01*
X037883Y015728D01*
X037883Y015734D01*
X037472Y015734D01*
X037472Y015791D01*
X037883Y015791D01*
X037883Y015797D01*
X037873Y015865D01*
X037851Y015931D01*
X037820Y015993D01*
X037779Y016049D01*
X037730Y016098D01*
X037674Y016139D01*
X037648Y016152D01*
X037704Y016176D01*
X037833Y016305D01*
X037903Y016474D01*
X037903Y016657D01*
X037833Y016826D01*
X037704Y016955D01*
X037535Y017026D01*
X037352Y017026D01*
X037183Y016955D01*
X037054Y016826D01*
X036983Y016657D01*
X036983Y016474D01*
X037054Y016305D01*
X037183Y016176D01*
X037239Y016152D01*
X037213Y016139D01*
X037157Y016098D01*
X037108Y016049D01*
X037067Y015993D01*
X037036Y015931D01*
X037014Y015865D01*
X037003Y015797D01*
X037003Y015791D01*
X037415Y015791D01*
X037415Y015734D01*
X037003Y015734D01*
X037003Y015728D01*
X037014Y015659D01*
X037036Y015593D01*
X037067Y015532D01*
X037108Y015476D01*
X037157Y015427D01*
X037213Y015386D01*
X037239Y015373D01*
X037183Y015349D01*
X037054Y015220D01*
X037044Y015198D01*
X037001Y015180D01*
X036814Y014993D01*
X036741Y014920D01*
X036730Y014893D01*
X036674Y014934D01*
X036648Y014947D01*
X036704Y014971D01*
X036833Y015100D01*
X036903Y015269D01*
X036903Y015452D01*
X036833Y015621D01*
X036704Y015751D01*
X036676Y015762D01*
X036704Y015774D01*
X036833Y015903D01*
X036903Y016072D01*
X036903Y016255D01*
X036833Y016425D01*
X036704Y016554D01*
X036535Y016624D01*
X036352Y016624D01*
X036183Y016554D01*
X036054Y016425D01*
X035983Y016255D01*
X035983Y016072D01*
X036054Y015903D01*
X036183Y015774D01*
X036211Y015762D01*
X036183Y015751D01*
X036054Y015621D01*
X036053Y015621D01*
X035881Y015621D01*
X035859Y015643D01*
X035859Y017212D01*
X035819Y017307D01*
X035319Y017807D01*
X035246Y017880D01*
X035151Y017920D01*
X033297Y017920D01*
X033202Y017880D01*
X033177Y017856D01*
X032914Y017856D01*
X032653Y017595D01*
X032653Y017225D01*
X032914Y016964D01*
X033284Y016964D01*
X033545Y017225D01*
X033545Y017400D01*
X034991Y017400D01*
X035339Y017052D01*
X035339Y015483D01*
X035379Y015388D01*
X035452Y015315D01*
X035626Y015140D01*
X035721Y015101D01*
X036053Y015101D01*
X036054Y015100D01*
X036183Y014971D01*
X036239Y014947D01*
X036213Y014934D01*
X036157Y014893D01*
X036108Y014844D01*
X036067Y014788D01*
X036036Y014727D01*
X036014Y014661D01*
X036003Y014592D01*
X036003Y014586D01*
X036415Y014586D01*
X036415Y014529D01*
X036472Y014529D01*
X036472Y013783D01*
X036415Y013783D01*
X036415Y013726D01*
X036472Y013726D01*
X036472Y013314D01*
X036478Y013314D01*
X036547Y013325D01*
X036612Y013347D01*
X036674Y013378D01*
X036702Y013398D01*
X036702Y013380D01*
X036366Y013045D01*
X033844Y013045D01*
X033659Y013231D01*
X033289Y013231D01*
X033028Y012970D01*
X033028Y012600D01*
X033289Y012339D01*
X033659Y012339D01*
X033844Y012525D01*
X036157Y012525D01*
X036112Y012502D01*
X036031Y012444D01*
X035961Y012373D01*
X035903Y012293D01*
X035857Y012204D01*
X035827Y012109D01*
X035813Y012021D01*
X035833Y012129D02*
X024484Y012129D01*
X024484Y012247D02*
X035879Y012247D01*
X035956Y012366D02*
X033685Y012366D01*
X033803Y012484D02*
X036087Y012484D01*
X036383Y012010D02*
X024484Y012010D01*
X024484Y012366D02*
X033263Y012366D01*
X033145Y012484D02*
X024484Y012484D01*
X024484Y012603D02*
X033028Y012603D01*
X033028Y012721D02*
X024484Y012721D01*
X024484Y012840D02*
X033028Y012840D01*
X033028Y012958D02*
X024484Y012958D01*
X024484Y013077D02*
X033135Y013077D01*
X033254Y013195D02*
X024484Y013195D01*
X024484Y013314D02*
X036635Y013314D01*
X036516Y013195D02*
X033694Y013195D01*
X033813Y013077D02*
X036398Y013077D01*
X036409Y013314D02*
X036415Y013314D01*
X036415Y013726D01*
X036003Y013726D01*
X036003Y013720D01*
X036014Y013651D01*
X036036Y013586D01*
X036067Y013524D01*
X036108Y013468D01*
X036157Y013419D01*
X036213Y013378D01*
X036275Y013347D01*
X036340Y013325D01*
X036409Y013314D01*
X036415Y013432D02*
X036472Y013432D01*
X036472Y013551D02*
X036415Y013551D01*
X036415Y013669D02*
X036472Y013669D01*
X036472Y013788D02*
X036415Y013788D01*
X036415Y013783D02*
X036415Y014194D01*
X036415Y014529D01*
X036003Y014529D01*
X036003Y014523D01*
X036014Y014455D01*
X036036Y014389D01*
X036067Y014327D01*
X036108Y014271D01*
X036157Y014222D01*
X036213Y014181D01*
X036262Y014156D01*
X036213Y014131D01*
X036157Y014090D01*
X036108Y014041D01*
X036067Y013985D01*
X036036Y013923D01*
X036014Y013858D01*
X036003Y013789D01*
X036003Y013783D01*
X036415Y013783D01*
X036415Y013906D02*
X036472Y013906D01*
X036472Y014025D02*
X036415Y014025D01*
X036415Y014143D02*
X036472Y014143D01*
X036472Y014262D02*
X036415Y014262D01*
X036415Y014380D02*
X036472Y014380D01*
X036472Y014499D02*
X036415Y014499D01*
X036117Y014262D02*
X000994Y014262D01*
X000994Y014380D02*
X002435Y014380D01*
X002169Y014646D01*
X002169Y014797D01*
X002586Y014797D01*
X002586Y014873D01*
X002169Y014873D01*
X002169Y015024D01*
X002435Y015290D01*
X002586Y015290D01*
X002586Y014873D01*
X002662Y014873D01*
X002662Y015290D01*
X002813Y015290D01*
X003079Y015024D01*
X003079Y014873D01*
X002662Y014873D01*
X002662Y014797D01*
X002662Y014380D01*
X002586Y014380D01*
X002586Y014797D01*
X002662Y014797D01*
X003079Y014797D01*
X003079Y014646D01*
X002813Y014380D01*
X003435Y014380D01*
X003169Y014646D01*
X003169Y014797D01*
X003586Y014797D01*
X003586Y014873D01*
X003169Y014873D01*
X003169Y015024D01*
X003435Y015290D01*
X003586Y015290D01*
X003586Y014873D01*
X003662Y014873D01*
X003662Y015290D01*
X003813Y015290D01*
X004079Y015024D01*
X004079Y014873D01*
X003662Y014873D01*
X003662Y014797D01*
X003662Y014380D01*
X003586Y014380D01*
X003586Y014797D01*
X003662Y014797D01*
X004079Y014797D01*
X004079Y014646D01*
X003813Y014380D01*
X036040Y014380D01*
X036007Y014499D02*
X027318Y014499D01*
X027284Y014464D02*
X027469Y014650D01*
X028276Y014650D01*
X028371Y014690D01*
X030146Y016464D01*
X030409Y016464D01*
X030670Y016725D01*
X030670Y017095D01*
X030409Y017356D01*
X030039Y017356D01*
X029778Y017095D01*
X029778Y016832D01*
X028116Y015170D01*
X027469Y015170D01*
X027284Y015356D01*
X026914Y015356D01*
X026653Y015095D01*
X026653Y014725D01*
X026914Y014464D01*
X027284Y014464D01*
X027436Y014617D02*
X036007Y014617D01*
X036040Y014736D02*
X028417Y014736D01*
X028536Y014854D02*
X036118Y014854D01*
X036181Y014973D02*
X028654Y014973D01*
X028773Y015091D02*
X036063Y015091D01*
X035557Y015210D02*
X028891Y015210D01*
X029010Y015328D02*
X035438Y015328D01*
X035452Y015315D02*
X035452Y015315D01*
X035354Y015447D02*
X029128Y015447D01*
X029247Y015565D02*
X035339Y015565D01*
X035339Y015684D02*
X029365Y015684D01*
X029484Y015802D02*
X035339Y015802D01*
X035339Y015921D02*
X029602Y015921D01*
X029721Y016039D02*
X035339Y016039D01*
X035339Y016158D02*
X029839Y016158D01*
X029958Y016276D02*
X035339Y016276D01*
X035339Y016395D02*
X030076Y016395D01*
X030457Y016513D02*
X035339Y016513D01*
X035339Y016632D02*
X030576Y016632D01*
X030670Y016750D02*
X035339Y016750D01*
X035339Y016869D02*
X030670Y016869D01*
X030670Y016987D02*
X032892Y016987D01*
X032773Y017106D02*
X030659Y017106D01*
X030540Y017224D02*
X032655Y017224D01*
X032653Y017343D02*
X030422Y017343D01*
X030026Y017343D02*
X028912Y017343D01*
X028920Y017350D02*
X028920Y017720D01*
X028734Y017905D01*
X028734Y021087D01*
X028694Y021182D01*
X028621Y021255D01*
X025996Y023880D01*
X025901Y023920D01*
X025136Y023920D01*
X025131Y023932D01*
X024996Y024067D01*
X024819Y024140D01*
X024629Y024140D01*
X024452Y024067D01*
X024317Y023932D01*
X024244Y023755D01*
X024244Y023565D01*
X024249Y023553D01*
X023991Y023295D01*
X012297Y023295D01*
X012202Y023255D01*
X012129Y023182D01*
X005880Y016934D01*
X005410Y016934D01*
X005410Y016965D01*
X005305Y017071D01*
X004762Y017071D01*
X004699Y017007D01*
X004636Y017071D01*
X004093Y017071D01*
X003988Y016965D01*
X003988Y016934D01*
X003411Y016934D01*
X003316Y016894D01*
X002732Y016310D01*
X002427Y016310D01*
X002149Y016032D01*
X002149Y015638D01*
X002427Y015360D01*
X002821Y015360D01*
X003099Y015638D01*
X003099Y015943D01*
X003149Y015992D01*
X003149Y015638D01*
X003427Y015360D01*
X003821Y015360D01*
X004010Y015548D01*
X004093Y015465D01*
X004636Y015465D01*
X004699Y015528D01*
X004762Y015465D01*
X005305Y015465D01*
X005410Y015570D01*
X005410Y015602D01*
X005727Y015602D01*
X005823Y015641D01*
X012582Y022400D01*
X024312Y022400D01*
X024317Y022388D01*
X024452Y022253D01*
X024629Y022180D01*
X024819Y022180D01*
X024996Y022253D01*
X025131Y022388D01*
X025136Y022400D01*
X025316Y022400D01*
X025316Y022329D01*
X025393Y022252D01*
X025368Y022226D01*
X025347Y022190D01*
X025336Y022149D01*
X025336Y021970D01*
X025674Y021970D01*
X025674Y021893D01*
X025336Y021893D01*
X025336Y021713D01*
X025347Y021673D01*
X025368Y021636D01*
X025398Y021606D01*
X025434Y021585D01*
X025475Y021574D01*
X025674Y021574D01*
X025674Y021893D01*
X025751Y021893D01*
X025751Y021970D01*
X026089Y021970D01*
X026089Y022040D01*
X026289Y021839D01*
X026659Y021839D01*
X026920Y022100D01*
X026920Y022222D01*
X028214Y020927D01*
X028214Y017905D01*
X028028Y017720D01*
X028028Y017350D01*
X028289Y017089D01*
X028659Y017089D01*
X028920Y017350D01*
X028920Y017461D02*
X032653Y017461D01*
X032653Y017580D02*
X028920Y017580D01*
X028920Y017698D02*
X032757Y017698D01*
X032875Y017817D02*
X028823Y017817D01*
X028734Y017935D02*
X035973Y017935D01*
X035961Y017947D02*
X036031Y017876D01*
X036112Y017818D01*
X036201Y017773D01*
X036295Y017742D01*
X036383Y017728D01*
X036383Y018299D01*
X035813Y018299D01*
X035827Y018211D01*
X035857Y018116D01*
X035903Y018027D01*
X035961Y017947D01*
X035889Y018054D02*
X028734Y018054D01*
X028734Y018172D02*
X035839Y018172D01*
X035814Y018291D02*
X028734Y018291D01*
X028734Y018409D02*
X036383Y018409D01*
X036383Y018419D02*
X036383Y018299D01*
X036503Y018299D01*
X036503Y017728D01*
X036592Y017742D01*
X036686Y017773D01*
X036775Y017818D01*
X036855Y017876D01*
X036926Y017947D01*
X036984Y018027D01*
X037030Y018116D01*
X037060Y018211D01*
X037074Y018299D01*
X036503Y018299D01*
X036503Y018419D01*
X036383Y018419D01*
X035813Y018419D01*
X035827Y018507D01*
X035857Y018602D01*
X035903Y018690D01*
X035961Y018771D01*
X036031Y018841D01*
X036112Y018900D01*
X036201Y018945D01*
X036295Y018976D01*
X036383Y018990D01*
X036383Y018419D01*
X036383Y018528D02*
X036503Y018528D01*
X036503Y018419D02*
X036503Y018990D01*
X036592Y018976D01*
X036686Y018945D01*
X036775Y018900D01*
X036855Y018841D01*
X036926Y018771D01*
X036984Y018690D01*
X037030Y018602D01*
X037060Y018507D01*
X037074Y018419D01*
X036503Y018419D01*
X036503Y018409D02*
X037711Y018409D01*
X037745Y018492D02*
X037637Y018231D01*
X037637Y017948D01*
X037745Y017686D01*
X037946Y017486D01*
X038207Y017377D01*
X038491Y017377D01*
X038752Y017486D01*
X038953Y017686D01*
X039061Y017948D01*
X039061Y018231D01*
X038953Y018492D01*
X038752Y018693D01*
X038491Y018801D01*
X038207Y018801D01*
X037946Y018693D01*
X037745Y018492D01*
X037781Y018528D02*
X037054Y018528D01*
X037007Y018646D02*
X037899Y018646D01*
X038119Y018765D02*
X036930Y018765D01*
X036798Y018883D02*
X039824Y018883D01*
X039824Y018765D02*
X038579Y018765D01*
X038799Y018646D02*
X039824Y018646D01*
X039824Y018528D02*
X038917Y018528D01*
X038987Y018409D02*
X039824Y018409D01*
X039824Y018291D02*
X039036Y018291D01*
X039061Y018172D02*
X039824Y018172D01*
X039824Y018054D02*
X039061Y018054D01*
X039056Y017935D02*
X039824Y017935D01*
X039824Y017817D02*
X039007Y017817D01*
X038958Y017698D02*
X039824Y017698D01*
X039824Y017580D02*
X038846Y017580D01*
X038693Y017461D02*
X039824Y017461D01*
X039824Y017343D02*
X035784Y017343D01*
X035854Y017224D02*
X039824Y017224D01*
X039824Y017106D02*
X035859Y017106D01*
X035859Y016987D02*
X037259Y016987D01*
X037096Y016869D02*
X035859Y016869D01*
X035859Y016750D02*
X037022Y016750D01*
X036983Y016632D02*
X035859Y016632D01*
X035859Y016513D02*
X036142Y016513D01*
X036041Y016395D02*
X035859Y016395D01*
X035859Y016276D02*
X035992Y016276D01*
X035983Y016158D02*
X035859Y016158D01*
X035859Y016039D02*
X035997Y016039D01*
X036046Y015921D02*
X035859Y015921D01*
X035859Y015802D02*
X036155Y015802D01*
X036116Y015684D02*
X035859Y015684D01*
X036732Y015802D02*
X037004Y015802D01*
X037010Y015684D02*
X036771Y015684D01*
X036857Y015565D02*
X037050Y015565D01*
X037137Y015447D02*
X036903Y015447D01*
X036903Y015328D02*
X037162Y015328D01*
X037049Y015210D02*
X036879Y015210D01*
X036912Y015091D02*
X036824Y015091D01*
X036794Y014973D02*
X036706Y014973D01*
X037725Y015328D02*
X039824Y015328D01*
X039824Y015210D02*
X037838Y015210D01*
X037887Y015091D02*
X039824Y015091D01*
X039824Y014973D02*
X037903Y014973D01*
X037898Y014854D02*
X039824Y014854D01*
X039824Y014736D02*
X037849Y014736D01*
X037752Y014617D02*
X039824Y014617D01*
X039824Y014499D02*
X037721Y014499D01*
X037823Y014380D02*
X039824Y014380D01*
X039824Y014262D02*
X037872Y014262D01*
X037863Y014025D02*
X039824Y014025D01*
X039824Y014143D02*
X037472Y014143D01*
X037472Y014025D02*
X037415Y014025D01*
X037415Y013906D02*
X037472Y013906D01*
X037472Y013788D02*
X037415Y013788D01*
X037222Y013669D02*
X039824Y013669D01*
X039824Y013551D02*
X037222Y013551D01*
X037222Y013432D02*
X039824Y013432D01*
X039824Y013314D02*
X037222Y013314D01*
X037211Y013195D02*
X039824Y013195D01*
X039824Y013077D02*
X037133Y013077D01*
X037015Y012958D02*
X039824Y012958D01*
X039824Y012840D02*
X038740Y012840D01*
X038752Y012834D02*
X038491Y012943D01*
X038207Y012943D01*
X037946Y012834D01*
X037745Y012634D01*
X037637Y012372D01*
X037637Y012089D01*
X037745Y011828D01*
X037946Y011627D01*
X038207Y011519D01*
X038491Y011519D01*
X038752Y011627D01*
X038953Y011828D01*
X039061Y012089D01*
X039061Y012372D01*
X038953Y012634D01*
X038752Y012834D01*
X038866Y012721D02*
X039824Y012721D01*
X039824Y012603D02*
X038966Y012603D01*
X039015Y012484D02*
X039824Y012484D01*
X039824Y012366D02*
X039061Y012366D01*
X039061Y012247D02*
X039824Y012247D01*
X039824Y012129D02*
X039061Y012129D01*
X039028Y012010D02*
X039824Y012010D01*
X039824Y011892D02*
X038979Y011892D01*
X038898Y011773D02*
X039824Y011773D01*
X039824Y011655D02*
X038780Y011655D01*
X038532Y011536D02*
X039824Y011536D01*
X039824Y011418D02*
X036770Y011418D01*
X036913Y011536D02*
X038166Y011536D01*
X037918Y011655D02*
X036997Y011655D01*
X037047Y011773D02*
X037800Y011773D01*
X037719Y011892D02*
X037073Y011892D01*
X037054Y012129D02*
X037637Y012129D01*
X037637Y012247D02*
X037008Y012247D01*
X036931Y012366D02*
X037637Y012366D01*
X037683Y012484D02*
X036800Y012484D01*
X036659Y012603D02*
X037732Y012603D01*
X037832Y012721D02*
X036778Y012721D01*
X036896Y012840D02*
X037958Y012840D01*
X037670Y012010D02*
X036503Y012010D01*
X036503Y011892D02*
X036383Y011892D01*
X036383Y011773D02*
X036503Y011773D01*
X036503Y011655D02*
X036383Y011655D01*
X036383Y011536D02*
X036503Y011536D01*
X036503Y011418D02*
X036383Y011418D01*
X036144Y013432D02*
X024484Y013432D01*
X024447Y013551D02*
X036054Y013551D01*
X036012Y013669D02*
X024278Y013669D01*
X026653Y014736D02*
X004079Y014736D01*
X004050Y014617D02*
X026762Y014617D01*
X026880Y014499D02*
X003931Y014499D01*
X003813Y014380D02*
X003662Y014380D01*
X003586Y014380D02*
X003435Y014380D01*
X003317Y014499D02*
X002931Y014499D01*
X003050Y014617D02*
X003198Y014617D01*
X003169Y014736D02*
X003079Y014736D01*
X003079Y014973D02*
X003169Y014973D01*
X003236Y015091D02*
X003012Y015091D01*
X002893Y015210D02*
X003355Y015210D01*
X003586Y015210D02*
X003662Y015210D01*
X003662Y015091D02*
X003586Y015091D01*
X003586Y014973D02*
X003662Y014973D01*
X003662Y014854D02*
X026653Y014854D01*
X026653Y014973D02*
X004079Y014973D01*
X004012Y015091D02*
X026653Y015091D01*
X026768Y015210D02*
X003893Y015210D01*
X003908Y015447D02*
X028393Y015447D01*
X028511Y015565D02*
X005405Y015565D01*
X005865Y015684D02*
X028630Y015684D01*
X028748Y015802D02*
X005984Y015802D01*
X006102Y015921D02*
X028867Y015921D01*
X028985Y016039D02*
X006221Y016039D01*
X006339Y016158D02*
X029104Y016158D01*
X029222Y016276D02*
X006458Y016276D01*
X006576Y016395D02*
X029341Y016395D01*
X029459Y016513D02*
X006695Y016513D01*
X006813Y016632D02*
X029578Y016632D01*
X029696Y016750D02*
X006932Y016750D01*
X007050Y016869D02*
X029778Y016869D01*
X029778Y016987D02*
X007169Y016987D01*
X007287Y017106D02*
X028273Y017106D01*
X028155Y017224D02*
X007406Y017224D01*
X007524Y017343D02*
X028036Y017343D01*
X028028Y017461D02*
X007643Y017461D01*
X007761Y017580D02*
X028028Y017580D01*
X028028Y017698D02*
X007880Y017698D01*
X007998Y017817D02*
X028125Y017817D01*
X028214Y017935D02*
X008117Y017935D01*
X008235Y018054D02*
X028214Y018054D01*
X028214Y018172D02*
X008354Y018172D01*
X008472Y018291D02*
X028214Y018291D01*
X028214Y018409D02*
X008591Y018409D01*
X008709Y018528D02*
X028214Y018528D01*
X028214Y018646D02*
X008828Y018646D01*
X008946Y018765D02*
X028214Y018765D01*
X028214Y018883D02*
X009065Y018883D01*
X009183Y019002D02*
X028214Y019002D01*
X028214Y019120D02*
X009302Y019120D01*
X009420Y019239D02*
X028214Y019239D01*
X028214Y019357D02*
X009539Y019357D01*
X009657Y019476D02*
X028214Y019476D01*
X028214Y019594D02*
X009776Y019594D01*
X009894Y019713D02*
X028214Y019713D01*
X028214Y019831D02*
X010013Y019831D01*
X010131Y019950D02*
X028214Y019950D01*
X028214Y020068D02*
X010250Y020068D01*
X010368Y020187D02*
X028214Y020187D01*
X028214Y020305D02*
X010487Y020305D01*
X010605Y020424D02*
X028214Y020424D01*
X028214Y020542D02*
X010724Y020542D01*
X010842Y020661D02*
X028214Y020661D01*
X028214Y020779D02*
X010961Y020779D01*
X011079Y020898D02*
X028214Y020898D01*
X028125Y021016D02*
X011198Y021016D01*
X011316Y021135D02*
X028007Y021135D01*
X027888Y021253D02*
X011435Y021253D01*
X011553Y021372D02*
X027770Y021372D01*
X027651Y021490D02*
X011672Y021490D01*
X011790Y021609D02*
X025395Y021609D01*
X025336Y021727D02*
X011909Y021727D01*
X012027Y021846D02*
X025336Y021846D01*
X025336Y022083D02*
X012264Y022083D01*
X012383Y022201D02*
X024578Y022201D01*
X024386Y022320D02*
X012501Y022320D01*
X012146Y021964D02*
X025674Y021964D01*
X025751Y021964D02*
X026165Y021964D01*
X026089Y021893D02*
X026089Y021713D01*
X026078Y021673D01*
X026057Y021636D01*
X026027Y021606D01*
X025991Y021585D01*
X025950Y021574D01*
X025751Y021574D01*
X025751Y021893D01*
X026089Y021893D01*
X026089Y021846D02*
X026283Y021846D01*
X026089Y021727D02*
X027414Y021727D01*
X027296Y021846D02*
X026665Y021846D01*
X026783Y021964D02*
X027177Y021964D01*
X027059Y022083D02*
X026902Y022083D01*
X026920Y022201D02*
X026940Y022201D01*
X027320Y022557D02*
X039824Y022557D01*
X039824Y022675D02*
X027202Y022675D01*
X027083Y022794D02*
X039824Y022794D01*
X039824Y022912D02*
X026965Y022912D01*
X026846Y023031D02*
X039824Y023031D01*
X039824Y023149D02*
X026728Y023149D01*
X026609Y023268D02*
X039824Y023268D01*
X039824Y023386D02*
X026491Y023386D01*
X026372Y023505D02*
X039824Y023505D01*
X039824Y023623D02*
X026254Y023623D01*
X026135Y023742D02*
X039824Y023742D01*
X039824Y023860D02*
X026017Y023860D01*
X025084Y023979D02*
X039824Y023979D01*
X039824Y024097D02*
X024923Y024097D01*
X024901Y024234D02*
X024965Y024267D01*
X025024Y024309D01*
X025075Y024360D01*
X025117Y024419D01*
X025150Y024483D01*
X025173Y024552D01*
X025183Y024620D01*
X024764Y024620D01*
X024764Y024201D01*
X024832Y024211D01*
X024901Y024234D01*
X024845Y024216D02*
X039824Y024216D01*
X039824Y024334D02*
X025049Y024334D01*
X025135Y024453D02*
X039824Y024453D01*
X039824Y024571D02*
X025176Y024571D01*
X025183Y024700D02*
X025173Y024768D01*
X025150Y024837D01*
X025117Y024901D01*
X025075Y024960D01*
X025024Y025011D01*
X024965Y025053D01*
X024901Y025086D01*
X024832Y025109D01*
X024764Y025119D01*
X024764Y024700D01*
X024684Y024700D01*
X024684Y024620D01*
X024265Y024620D01*
X024275Y024552D01*
X024298Y024483D01*
X024331Y024419D01*
X024373Y024360D01*
X024424Y024309D01*
X024483Y024267D01*
X024547Y024234D01*
X024616Y024211D01*
X024684Y024201D01*
X024684Y024620D01*
X024764Y024620D01*
X024764Y024700D01*
X025183Y024700D01*
X025160Y024808D02*
X039824Y024808D01*
X039824Y024690D02*
X024764Y024690D01*
X024684Y024690D02*
X000994Y024690D01*
X000994Y024808D02*
X024288Y024808D01*
X024298Y024837D02*
X024275Y024768D01*
X024265Y024700D01*
X024684Y024700D01*
X024684Y025119D01*
X024616Y025109D01*
X024547Y025086D01*
X024483Y025053D01*
X024424Y025011D01*
X024373Y024960D01*
X024331Y024901D01*
X024298Y024837D01*
X024349Y024927D02*
X000994Y024927D01*
X000994Y025045D02*
X024471Y025045D01*
X024684Y025045D02*
X024764Y025045D01*
X024764Y024927D02*
X024684Y024927D01*
X024684Y024808D02*
X024764Y024808D01*
X024764Y024571D02*
X024684Y024571D01*
X024684Y024453D02*
X024764Y024453D01*
X024764Y024334D02*
X024684Y024334D01*
X024684Y024216D02*
X024764Y024216D01*
X024603Y024216D02*
X000994Y024216D01*
X000994Y024334D02*
X024399Y024334D01*
X024313Y024453D02*
X000994Y024453D01*
X000994Y024571D02*
X024272Y024571D01*
X024977Y025045D02*
X039824Y025045D01*
X039824Y024927D02*
X025099Y024927D01*
X024525Y024097D02*
X000994Y024097D01*
X000994Y023979D02*
X024364Y023979D01*
X024287Y023860D02*
X000994Y023860D01*
X000994Y023742D02*
X024244Y023742D01*
X024244Y023623D02*
X000994Y023623D01*
X000994Y023505D02*
X024201Y023505D01*
X024082Y023386D02*
X000994Y023386D01*
X000994Y023268D02*
X012231Y023268D01*
X012095Y023149D02*
X000994Y023149D01*
X000994Y023031D02*
X011977Y023031D01*
X011858Y022912D02*
X000994Y022912D01*
X000994Y022794D02*
X011740Y022794D01*
X011621Y022675D02*
X000994Y022675D01*
X000994Y022557D02*
X011503Y022557D01*
X011384Y022438D02*
X000994Y022438D01*
X000994Y022320D02*
X011266Y022320D01*
X011147Y022201D02*
X000994Y022201D01*
X000994Y022083D02*
X011029Y022083D01*
X010910Y021964D02*
X000994Y021964D01*
X000994Y021846D02*
X010792Y021846D01*
X010673Y021727D02*
X000994Y021727D01*
X000994Y021609D02*
X010555Y021609D01*
X010436Y021490D02*
X000994Y021490D01*
X000994Y021372D02*
X010318Y021372D01*
X010199Y021253D02*
X000994Y021253D01*
X000994Y021135D02*
X010081Y021135D01*
X009962Y021016D02*
X000994Y021016D01*
X000994Y020898D02*
X009844Y020898D01*
X009725Y020779D02*
X000994Y020779D01*
X000994Y020661D02*
X009607Y020661D01*
X009488Y020542D02*
X000994Y020542D01*
X000994Y020424D02*
X009370Y020424D01*
X009251Y020305D02*
X000994Y020305D01*
X000994Y020187D02*
X009133Y020187D01*
X009014Y020068D02*
X000994Y020068D01*
X000994Y019950D02*
X008896Y019950D01*
X008777Y019831D02*
X000994Y019831D01*
X000994Y019713D02*
X008659Y019713D01*
X008540Y019594D02*
X000994Y019594D01*
X000994Y019476D02*
X008422Y019476D01*
X008303Y019357D02*
X000994Y019357D01*
X000994Y019239D02*
X008185Y019239D01*
X008066Y019120D02*
X000994Y019120D01*
X000994Y019002D02*
X007948Y019002D01*
X007829Y018883D02*
X000994Y018883D01*
X000994Y018765D02*
X007711Y018765D01*
X007592Y018646D02*
X000994Y018646D01*
X000994Y018528D02*
X007474Y018528D01*
X007355Y018409D02*
X000994Y018409D01*
X000994Y018291D02*
X007237Y018291D01*
X007118Y018172D02*
X000994Y018172D01*
X000994Y018054D02*
X007000Y018054D01*
X006881Y017935D02*
X000994Y017935D01*
X000994Y017817D02*
X006763Y017817D01*
X006644Y017698D02*
X000994Y017698D01*
X000994Y017580D02*
X006526Y017580D01*
X006407Y017461D02*
X000994Y017461D01*
X000994Y017343D02*
X006289Y017343D01*
X006170Y017224D02*
X000994Y017224D01*
X000994Y017106D02*
X006052Y017106D01*
X005933Y016987D02*
X005389Y016987D01*
X004009Y016987D02*
X000994Y016987D01*
X000994Y016869D02*
X003290Y016869D01*
X003171Y016750D02*
X000994Y016750D01*
X000994Y016632D02*
X003053Y016632D01*
X002934Y016513D02*
X000994Y016513D01*
X000994Y016395D02*
X002816Y016395D01*
X002393Y016276D02*
X000994Y016276D01*
X000994Y016158D02*
X002274Y016158D01*
X002156Y016039D02*
X000994Y016039D01*
X000994Y015921D02*
X002149Y015921D01*
X002149Y015802D02*
X000994Y015802D01*
X000994Y015684D02*
X002149Y015684D01*
X002222Y015565D02*
X000994Y015565D01*
X000994Y015447D02*
X002340Y015447D01*
X002355Y015210D02*
X000994Y015210D01*
X000994Y015328D02*
X026887Y015328D01*
X027311Y015328D02*
X028274Y015328D01*
X028156Y015210D02*
X027430Y015210D01*
X028675Y017106D02*
X029789Y017106D01*
X029908Y017224D02*
X028793Y017224D01*
X028734Y018528D02*
X035833Y018528D01*
X035880Y018646D02*
X028734Y018646D01*
X028734Y018765D02*
X035957Y018765D01*
X036089Y018883D02*
X028734Y018883D01*
X028734Y019002D02*
X039824Y019002D01*
X039824Y019120D02*
X028734Y019120D01*
X028734Y019239D02*
X039824Y019239D01*
X039824Y019357D02*
X028734Y019357D01*
X028734Y019476D02*
X039824Y019476D01*
X039824Y019594D02*
X028734Y019594D01*
X028734Y019713D02*
X039824Y019713D01*
X039824Y019831D02*
X028734Y019831D01*
X028734Y019950D02*
X039824Y019950D01*
X039824Y020068D02*
X028734Y020068D01*
X028734Y020187D02*
X039824Y020187D01*
X039824Y020305D02*
X028734Y020305D01*
X028734Y020424D02*
X039824Y020424D01*
X039824Y020542D02*
X028734Y020542D01*
X028734Y020661D02*
X039824Y020661D01*
X039824Y020779D02*
X028734Y020779D01*
X028734Y020898D02*
X039824Y020898D01*
X039824Y021016D02*
X028734Y021016D01*
X028714Y021135D02*
X039824Y021135D01*
X039824Y021253D02*
X028624Y021253D01*
X028621Y021255D02*
X028621Y021255D01*
X028505Y021372D02*
X039824Y021372D01*
X039824Y021490D02*
X028387Y021490D01*
X028268Y021609D02*
X039824Y021609D01*
X039824Y021727D02*
X028150Y021727D01*
X028031Y021846D02*
X039824Y021846D01*
X039824Y021964D02*
X027913Y021964D01*
X027794Y022083D02*
X039824Y022083D01*
X039824Y022201D02*
X027676Y022201D01*
X027557Y022320D02*
X039824Y022320D01*
X039824Y022438D02*
X027439Y022438D01*
X027533Y021609D02*
X026029Y021609D01*
X025751Y021609D02*
X025674Y021609D01*
X025674Y021727D02*
X025751Y021727D01*
X025751Y021846D02*
X025674Y021846D01*
X025353Y022201D02*
X024870Y022201D01*
X025062Y022320D02*
X025325Y022320D01*
X033306Y016987D02*
X035339Y016987D01*
X035286Y017106D02*
X033425Y017106D01*
X033543Y017224D02*
X035167Y017224D01*
X035049Y017343D02*
X033545Y017343D01*
X035310Y017817D02*
X036115Y017817D01*
X036383Y017817D02*
X036503Y017817D01*
X036503Y017935D02*
X036383Y017935D01*
X036383Y018054D02*
X036503Y018054D01*
X036503Y018172D02*
X036383Y018172D01*
X036383Y018291D02*
X036503Y018291D01*
X036503Y018646D02*
X036383Y018646D01*
X036383Y018765D02*
X036503Y018765D01*
X036503Y018883D02*
X036383Y018883D01*
X037073Y018291D02*
X037662Y018291D01*
X037637Y018172D02*
X037048Y018172D01*
X036998Y018054D02*
X037637Y018054D01*
X037642Y017935D02*
X036914Y017935D01*
X036772Y017817D02*
X037691Y017817D01*
X037740Y017698D02*
X035429Y017698D01*
X035547Y017580D02*
X037852Y017580D01*
X038005Y017461D02*
X035666Y017461D01*
X036745Y016513D02*
X036983Y016513D01*
X037016Y016395D02*
X036846Y016395D01*
X036895Y016276D02*
X037082Y016276D01*
X037226Y016158D02*
X036903Y016158D01*
X036890Y016039D02*
X037101Y016039D01*
X037032Y015921D02*
X036841Y015921D01*
X037661Y016158D02*
X039824Y016158D01*
X039824Y016276D02*
X037805Y016276D01*
X037871Y016395D02*
X039824Y016395D01*
X039824Y016513D02*
X037903Y016513D01*
X037903Y016632D02*
X039824Y016632D01*
X039824Y016750D02*
X037865Y016750D01*
X037791Y016869D02*
X039824Y016869D01*
X039824Y016987D02*
X037628Y016987D01*
X037786Y016039D02*
X039824Y016039D01*
X039824Y015921D02*
X037855Y015921D01*
X037883Y015802D02*
X039824Y015802D01*
X039824Y015684D02*
X037876Y015684D01*
X037837Y015565D02*
X039824Y015565D01*
X039824Y015447D02*
X037750Y015447D01*
X036237Y014143D02*
X000994Y014143D01*
X000994Y014025D02*
X036096Y014025D01*
X036030Y013906D02*
X000994Y013906D01*
X000994Y013788D02*
X003654Y013788D01*
X003672Y013795D02*
X003577Y013755D01*
X003504Y013682D01*
X003464Y013587D01*
X003464Y009483D01*
X003504Y009388D01*
X003577Y009315D01*
X003672Y009275D01*
X003774Y009275D01*
X003774Y009045D01*
X003672Y009045D01*
X003577Y009005D01*
X003504Y008932D01*
X003464Y008837D01*
X003464Y004733D01*
X003504Y004638D01*
X003577Y004565D01*
X003672Y004525D01*
X003776Y004525D01*
X007672Y004525D01*
X007776Y004525D01*
X007871Y004565D01*
X007944Y004638D01*
X007984Y004733D01*
X007984Y004835D01*
X008214Y004835D01*
X008214Y004733D01*
X008254Y004638D01*
X008327Y004565D01*
X008422Y004525D01*
X012401Y004525D01*
X012496Y004565D01*
X012569Y004638D01*
X012609Y004733D01*
X012609Y006650D01*
X014526Y006650D01*
X014621Y006690D01*
X014694Y006763D01*
X014734Y006858D01*
X014734Y011462D01*
X014694Y011557D01*
X014621Y011630D01*
X014526Y011670D01*
X012609Y011670D01*
X012609Y013587D01*
X012569Y013682D01*
X012496Y013755D01*
X012401Y013795D01*
X008422Y013795D01*
X008327Y013755D01*
X008254Y013682D01*
X008214Y013587D01*
X008214Y013485D01*
X007984Y013485D01*
X007984Y013587D01*
X007944Y013682D01*
X007871Y013755D01*
X007776Y013795D01*
X003672Y013795D01*
X003498Y013669D02*
X000994Y013669D01*
X000994Y013551D02*
X003464Y013551D01*
X003464Y013432D02*
X000994Y013432D01*
X000994Y013314D02*
X003464Y013314D01*
X003464Y013195D02*
X000994Y013195D01*
X000994Y013077D02*
X003464Y013077D01*
X003464Y012958D02*
X000994Y012958D01*
X000994Y012840D02*
X003464Y012840D01*
X003464Y012721D02*
X000994Y012721D01*
X000994Y012603D02*
X003464Y012603D01*
X003464Y012484D02*
X000994Y012484D01*
X000994Y012366D02*
X003464Y012366D01*
X003464Y012247D02*
X000994Y012247D01*
X000994Y012129D02*
X003464Y012129D01*
X003464Y012010D02*
X000994Y012010D01*
X000994Y011892D02*
X003464Y011892D01*
X003464Y011773D02*
X000994Y011773D01*
X000994Y011655D02*
X003464Y011655D01*
X003464Y011536D02*
X000994Y011536D01*
X000994Y011418D02*
X003464Y011418D01*
X003464Y011299D02*
X000994Y011299D01*
X000994Y011181D02*
X003464Y011181D01*
X003464Y011062D02*
X000994Y011062D01*
X000994Y010944D02*
X003464Y010944D01*
X003464Y010825D02*
X000994Y010825D01*
X000994Y010707D02*
X003464Y010707D01*
X003464Y010588D02*
X000994Y010588D01*
X000994Y010470D02*
X003464Y010470D01*
X003464Y010351D02*
X000994Y010351D01*
X000994Y010233D02*
X003464Y010233D01*
X003464Y010114D02*
X000994Y010114D01*
X000994Y009996D02*
X003464Y009996D01*
X003464Y009877D02*
X000994Y009877D01*
X000994Y009759D02*
X003464Y009759D01*
X003464Y009640D02*
X000994Y009640D01*
X000994Y009522D02*
X003464Y009522D01*
X003497Y009403D02*
X000994Y009403D01*
X000994Y009285D02*
X003649Y009285D01*
X003774Y009166D02*
X000994Y009166D01*
X000994Y009048D02*
X003774Y009048D01*
X003502Y008929D02*
X000994Y008929D01*
X000994Y008811D02*
X003464Y008811D01*
X003464Y008692D02*
X000994Y008692D01*
X000994Y008574D02*
X003464Y008574D01*
X003464Y008455D02*
X000994Y008455D01*
X000994Y008337D02*
X003464Y008337D01*
X003464Y008218D02*
X000994Y008218D01*
X000994Y008100D02*
X003464Y008100D01*
X003464Y007981D02*
X000994Y007981D01*
X000994Y007863D02*
X003464Y007863D01*
X003464Y007744D02*
X000994Y007744D01*
X000994Y007626D02*
X003464Y007626D01*
X003464Y007507D02*
X000994Y007507D01*
X000994Y007389D02*
X003464Y007389D01*
X003464Y007270D02*
X000994Y007270D01*
X000994Y007152D02*
X003464Y007152D01*
X003464Y007033D02*
X000994Y007033D01*
X000994Y006915D02*
X003464Y006915D01*
X003464Y006796D02*
X000994Y006796D01*
X000994Y006678D02*
X003464Y006678D01*
X003464Y006559D02*
X000994Y006559D01*
X000994Y006441D02*
X003464Y006441D01*
X003464Y006322D02*
X000994Y006322D01*
X000994Y006204D02*
X003464Y006204D01*
X003464Y006085D02*
X000994Y006085D01*
X000994Y005967D02*
X003464Y005967D01*
X003464Y005848D02*
X000994Y005848D01*
X000994Y005730D02*
X003464Y005730D01*
X003464Y005611D02*
X000994Y005611D01*
X000994Y005493D02*
X003464Y005493D01*
X003464Y005374D02*
X000994Y005374D01*
X000994Y005256D02*
X003464Y005256D01*
X003464Y005137D02*
X000994Y005137D01*
X000994Y005019D02*
X003464Y005019D01*
X003464Y004900D02*
X000994Y004900D01*
X000994Y004782D02*
X003464Y004782D01*
X003493Y004663D02*
X000994Y004663D01*
X000994Y004545D02*
X003625Y004545D01*
X000994Y004426D02*
X015484Y004426D01*
X015365Y004545D02*
X012448Y004545D01*
X012580Y004663D02*
X015339Y004663D01*
X015339Y004782D02*
X012609Y004782D01*
X012609Y004900D02*
X015339Y004900D01*
X015339Y005019D02*
X012609Y005019D01*
X012609Y005137D02*
X015339Y005137D01*
X015339Y005256D02*
X012609Y005256D01*
X012609Y005374D02*
X015339Y005374D01*
X015339Y005493D02*
X012609Y005493D01*
X012609Y005611D02*
X015339Y005611D01*
X015339Y005730D02*
X012609Y005730D01*
X012609Y005848D02*
X015339Y005848D01*
X015339Y005967D02*
X012609Y005967D01*
X012609Y006085D02*
X015339Y006085D01*
X015339Y006204D02*
X012609Y006204D01*
X012609Y006322D02*
X015339Y006322D01*
X015339Y006441D02*
X012609Y006441D01*
X012609Y006559D02*
X015339Y006559D01*
X015339Y006678D02*
X014592Y006678D01*
X014708Y006796D02*
X015339Y006796D01*
X015339Y006915D02*
X014734Y006915D01*
X014734Y007033D02*
X015339Y007033D01*
X015339Y007152D02*
X014734Y007152D01*
X014734Y007270D02*
X015339Y007270D01*
X015339Y007389D02*
X014734Y007389D01*
X014734Y007507D02*
X015339Y007507D01*
X015339Y007626D02*
X014734Y007626D01*
X014734Y007744D02*
X015339Y007744D01*
X015339Y007863D02*
X014734Y007863D01*
X014734Y007981D02*
X015339Y007981D01*
X015339Y008100D02*
X014734Y008100D01*
X014734Y008218D02*
X015339Y008218D01*
X015339Y008337D02*
X014734Y008337D01*
X014734Y008455D02*
X015339Y008455D01*
X015339Y008574D02*
X014734Y008574D01*
X014734Y008692D02*
X015339Y008692D01*
X015382Y008811D02*
X014734Y008811D01*
X014734Y008929D02*
X015649Y008929D01*
X015649Y009048D02*
X014734Y009048D01*
X014734Y009166D02*
X015509Y009166D01*
X015370Y009285D02*
X014734Y009285D01*
X014734Y009403D02*
X015339Y009403D01*
X015339Y009522D02*
X014734Y009522D01*
X014734Y009640D02*
X015339Y009640D01*
X015339Y009759D02*
X014734Y009759D01*
X014734Y009877D02*
X015339Y009877D01*
X015339Y009996D02*
X014734Y009996D01*
X014734Y010114D02*
X015339Y010114D01*
X015339Y010233D02*
X014734Y010233D01*
X014734Y010351D02*
X015339Y010351D01*
X015339Y010470D02*
X014734Y010470D01*
X014734Y010588D02*
X015339Y010588D01*
X015339Y010707D02*
X014734Y010707D01*
X014734Y010825D02*
X015339Y010825D01*
X015339Y010944D02*
X014734Y010944D01*
X014734Y011062D02*
X015339Y011062D01*
X015339Y011181D02*
X014734Y011181D01*
X014734Y011299D02*
X015339Y011299D01*
X015339Y011418D02*
X014734Y011418D01*
X014703Y011536D02*
X015339Y011536D01*
X015339Y011655D02*
X014563Y011655D01*
X015339Y011773D02*
X012609Y011773D01*
X012609Y011892D02*
X015339Y011892D01*
X015339Y012010D02*
X012609Y012010D01*
X012609Y012129D02*
X015339Y012129D01*
X015339Y012247D02*
X012609Y012247D01*
X012609Y012366D02*
X015339Y012366D01*
X015339Y012484D02*
X012609Y012484D01*
X012609Y012603D02*
X015339Y012603D01*
X015339Y012721D02*
X012609Y012721D01*
X012609Y012840D02*
X015339Y012840D01*
X015339Y012958D02*
X012609Y012958D01*
X012609Y013077D02*
X015339Y013077D01*
X015339Y013195D02*
X012609Y013195D01*
X012609Y013314D02*
X015339Y013314D01*
X015339Y013432D02*
X012609Y013432D01*
X012609Y013551D02*
X015376Y013551D01*
X015545Y013669D02*
X012575Y013669D01*
X012419Y013788D02*
X036003Y013788D01*
X037685Y013788D02*
X039824Y013788D01*
X039824Y013906D02*
X037806Y013906D01*
X039824Y025164D02*
X000994Y025164D01*
X000994Y025282D02*
X039824Y025282D01*
X039824Y025401D02*
X000994Y025401D01*
X000994Y025519D02*
X039824Y025519D01*
X039824Y025638D02*
X000994Y025638D01*
X000994Y025756D02*
X039824Y025756D01*
X039824Y025875D02*
X000994Y025875D01*
X000994Y025993D02*
X039824Y025993D01*
X039824Y026112D02*
X000994Y026112D01*
X000994Y026230D02*
X039824Y026230D01*
X039824Y026349D02*
X000994Y026349D01*
X000994Y026467D02*
X039824Y026467D01*
X039824Y026586D02*
X000994Y026586D01*
X000994Y026704D02*
X039824Y026704D01*
X039824Y026823D02*
X000994Y026823D01*
X000994Y026941D02*
X039824Y026941D01*
X039824Y027060D02*
X000994Y027060D01*
X000994Y027178D02*
X039824Y027178D01*
X039824Y027297D02*
X000994Y027297D01*
X000994Y027415D02*
X039824Y027415D01*
X039824Y027534D02*
X000994Y027534D01*
X000994Y027652D02*
X039824Y027652D01*
X039824Y027771D02*
X000994Y027771D01*
X000994Y027889D02*
X039824Y027889D01*
X039824Y028008D02*
X000994Y028008D01*
X000994Y028126D02*
X039824Y028126D01*
X039824Y028245D02*
X000994Y028245D01*
X000994Y028363D02*
X039824Y028363D01*
X039824Y028482D02*
X000994Y028482D01*
X000994Y028600D02*
X039824Y028600D01*
X020295Y013669D02*
X019653Y013669D01*
X019822Y013551D02*
X020126Y013551D01*
X020089Y013432D02*
X019859Y013432D01*
X008404Y013788D02*
X007794Y013788D01*
X007950Y013669D02*
X008248Y013669D01*
X008214Y013551D02*
X007984Y013551D01*
X003662Y014499D02*
X003586Y014499D01*
X003586Y014617D02*
X003662Y014617D01*
X003662Y014736D02*
X003586Y014736D01*
X003586Y014854D02*
X002662Y014854D01*
X002586Y014854D02*
X000994Y014854D01*
X000994Y014736D02*
X002169Y014736D01*
X002198Y014617D02*
X000994Y014617D01*
X000994Y014499D02*
X002317Y014499D01*
X002435Y014380D02*
X002586Y014380D01*
X002662Y014380D02*
X002813Y014380D01*
X002662Y014499D02*
X002586Y014499D01*
X002586Y014617D02*
X002662Y014617D01*
X002662Y014736D02*
X002586Y014736D01*
X002586Y014973D02*
X002662Y014973D01*
X002662Y015091D02*
X002586Y015091D01*
X002586Y015210D02*
X002662Y015210D01*
X002908Y015447D02*
X003340Y015447D01*
X003222Y015565D02*
X003026Y015565D01*
X003099Y015684D02*
X003149Y015684D01*
X003149Y015802D02*
X003099Y015802D01*
X003099Y015921D02*
X003149Y015921D01*
X002236Y015091D02*
X000994Y015091D01*
X000994Y014973D02*
X002169Y014973D01*
X007984Y004782D02*
X008214Y004782D01*
X008243Y004663D02*
X007955Y004663D01*
X007823Y004545D02*
X008375Y004545D01*
X019714Y004426D02*
X020234Y004426D01*
X020115Y004545D02*
X019833Y004545D01*
X019859Y004663D02*
X020089Y004663D01*
D20*
X029724Y014535D03*
X027099Y014910D03*
X030224Y016910D03*
X028474Y017535D03*
X033099Y017410D03*
X033474Y012785D03*
X026474Y022285D03*
D21*
X026158Y022601D01*
X025712Y022601D01*
X025778Y022660D01*
X024724Y022660D01*
X012474Y022660D01*
X005676Y015862D01*
X005034Y015862D01*
X004364Y015862D02*
X004338Y015835D01*
X003624Y015835D01*
X003463Y016674D02*
X002624Y015835D01*
X003463Y016674D02*
X004364Y016674D01*
X005034Y016674D02*
X005988Y016674D01*
X012349Y023035D01*
X024099Y023035D01*
X024724Y023660D01*
X025849Y023660D01*
X028474Y021035D01*
X028474Y017535D01*
X030224Y016910D02*
X028224Y014910D01*
X027099Y014910D01*
X033099Y017410D02*
X033349Y017660D01*
X035099Y017660D01*
X035599Y017160D01*
X035599Y015535D01*
X035773Y015361D01*
X036443Y015361D01*
X036962Y014773D02*
X036962Y013273D01*
X036474Y012785D01*
X033474Y012785D01*
X036962Y014773D02*
X037148Y014959D01*
X037443Y014959D01*
D22*
X019974Y013035D03*
X015974Y009035D03*
X019974Y005035D03*
X008099Y005160D03*
X004099Y009160D03*
X008099Y013160D03*
M02*
