%
M48
M72
T01C0.0118
T02C0.0130
T03C0.0236
T04C0.0394
T05C0.0400
T06C0.0402
T07C0.0472
T08C0.0512
T09C0.1102
T10C0.1181
T11C0.1260
T12C0.1300
T13C0.1500
%
T01
X18588Y11715
X18588Y12010
X25713Y12010
X25713Y11715
X30900Y11715
X30900Y12010
T02
X8463Y8454
X8463Y8146
T03
X3775Y9988
X3900Y10488
X38463Y8738
X38463Y8238
T04
X2338Y8613
X1338Y8613
X1338Y9613
X2338Y9613
X2338Y10613
X1338Y10613
X1338Y11613
X2338Y11613
X2338Y7613
X1338Y7613
X1338Y6613
X2338Y6613
X2338Y5613
X1338Y5613
T05
X15094Y9616
X16184Y9616
X17275Y9616
X18366Y9616
X19456Y9616
X18909Y10734
X17818Y10734
X16732Y10734
X15641Y10734
X9650Y13300
X8650Y13300
X7650Y13300
X6650Y13300
X5650Y13300
X4650Y13300
T06
X35747Y11037
X36928Y11037
X36928Y9856
X35747Y9856
T07
X31400Y10581
X26213Y10581
X28181Y12550
X29431Y12550
X29431Y13534
X28181Y13534
X24244Y13534
X24244Y12550
X33369Y12550
X33369Y13534
X33900Y2800
X40588Y2800
X47275Y2800
X27213Y2800
X20525Y2800
X13838Y2800
X7150Y2800
T08
X5930Y1580
X8370Y1580
X12618Y1580
X15058Y1580
X19305Y1580
X21745Y1580
X25993Y1580
X28433Y1580
X32680Y1580
X35120Y1580
X39368Y1580
X41808Y1580
X46055Y1580
X48495Y1580
X48495Y4020
X46055Y4020
X41808Y4020
X39368Y4020
X35120Y4020
X32680Y4020
X28433Y4020
X25993Y4020
X21745Y4020
X19305Y4020
X15058Y4020
X12618Y4020
X8370Y4020
X5930Y4020
X24244Y10581
X25228Y10581
X27197Y10581
X28181Y10581
X29431Y10581
X30416Y10581
X32384Y10581
X33369Y10581
X31400Y12550
X26213Y12550
T09
X47980Y9940
X49319Y8050
T10
X36338Y12738
T11
X46858Y8050
T12
X22196Y10175
X12354Y10175
T13
X39775Y12738
X42338Y12738
X44900Y12738
X47463Y12738
X49650Y12738
M30
