G75*
%MOIN*%
%OFA0B0*%
%FSLAX25Y25*%
%IPPOS*%
%LPD*%
%AMOC8*
5,1,8,0,0,1.08239X$1,22.5*
%
%ADD10R,0.07991X0.07991*%
%ADD11C,0.07991*%
%ADD12OC8,0.06102*%
%ADD13C,0.20591*%
%ADD14C,0.06890*%
%ADD15C,0.07283*%
%ADD16C,0.22091*%
%ADD17C,0.09191*%
%ADD18C,0.05315*%
%ADD19R,0.06181X0.06181*%
%ADD20C,0.06181*%
%ADD21C,0.12402*%
%ADD22C,0.14764*%
%ADD23C,0.13189*%
%ADD24C,0.04843*%
%ADD25C,0.03072*%
%ADD26C,0.02953*%
D10*
X0150939Y0096159D03*
X0096500Y0133000D03*
D11*
X0086500Y0133000D03*
X0076500Y0133000D03*
X0066500Y0133000D03*
X0056500Y0133000D03*
X0046500Y0133000D03*
X0156411Y0107341D03*
X0167317Y0107341D03*
X0178183Y0107341D03*
X0189089Y0107341D03*
X0183656Y0096159D03*
X0194561Y0096159D03*
X0172750Y0096159D03*
X0161844Y0096159D03*
D12*
X0023375Y0096125D03*
X0013375Y0096125D03*
X0013375Y0086125D03*
X0023375Y0086125D03*
X0023375Y0076125D03*
X0013375Y0076125D03*
X0013375Y0066125D03*
X0023375Y0066125D03*
X0023375Y0056125D03*
X0013375Y0056125D03*
X0013375Y0106125D03*
X0023375Y0106125D03*
X0023375Y0116125D03*
X0013375Y0116125D03*
D13*
X0123537Y0101750D03*
X0221963Y0101750D03*
D14*
X0205250Y0028000D03*
X0138375Y0028000D03*
X0071500Y0028000D03*
X0272125Y0028000D03*
X0339000Y0028000D03*
X0405875Y0028000D03*
X0472750Y0028000D03*
D15*
X0059300Y0015800D03*
X0083700Y0015800D03*
X0126175Y0015800D03*
X0150575Y0015800D03*
X0193050Y0015800D03*
X0217450Y0015800D03*
X0259925Y0015800D03*
X0284325Y0015800D03*
X0326800Y0015800D03*
X0351200Y0015800D03*
X0393675Y0015800D03*
X0418075Y0015800D03*
X0460550Y0015800D03*
X0484950Y0015800D03*
X0484950Y0040200D03*
X0460550Y0040200D03*
X0418075Y0040200D03*
X0393675Y0040200D03*
X0351200Y0040200D03*
X0326800Y0040200D03*
X0284325Y0040200D03*
X0259925Y0040200D03*
X0217450Y0040200D03*
X0193050Y0040200D03*
X0150575Y0040200D03*
X0126175Y0040200D03*
X0083700Y0040200D03*
X0059300Y0040200D03*
D16*
X0397750Y0127375D03*
X0423375Y0127375D03*
X0449000Y0127375D03*
X0474625Y0127375D03*
X0496500Y0127375D03*
D17*
X0333685Y0105815D03*
X0323843Y0105815D03*
X0304157Y0105815D03*
X0294315Y0105815D03*
X0281810Y0105815D03*
X0271968Y0105815D03*
X0252282Y0105815D03*
X0242440Y0105815D03*
X0262125Y0125500D03*
X0314000Y0125500D03*
D18*
X0294315Y0125500D03*
X0281810Y0125500D03*
X0281810Y0135343D03*
X0294315Y0135343D03*
X0333685Y0135343D03*
X0333685Y0125500D03*
X0314000Y0105815D03*
X0262125Y0105815D03*
X0242440Y0125500D03*
X0242440Y0135343D03*
D19*
X0357469Y0110367D03*
D20*
X0369281Y0110367D03*
X0369281Y0098556D03*
X0357469Y0098556D03*
D21*
X0363375Y0127375D03*
D22*
X0468582Y0080500D03*
D23*
X0493188Y0080500D03*
X0479802Y0099398D03*
D24*
X0384625Y0087375D03*
X0384625Y0082375D03*
X0039000Y0104875D03*
X0037750Y0099875D03*
D25*
X0084625Y0084536D03*
X0084625Y0081464D03*
D26*
X0185875Y0117149D03*
X0185875Y0120101D03*
X0257125Y0120101D03*
X0257125Y0117149D03*
X0309000Y0117149D03*
X0309000Y0120101D03*
M02*
