%
M48
M72
T01C0.01300
T02C0.01500
T03C0.03150
T04C0.03543
T05C0.03937
T06C0.04000
T07C0.04331
T08C0.06299
T09C0.10630
T10C0.11811
%
T01
X64125Y118000
X226000Y148225
X226000Y151525
X216625Y146125
X201000Y119875
X197025Y119875
X193725Y119875
T02
X247875Y106750
X254125Y106750
X273500Y130500
X272250Y154875
X254125Y163000
X250375Y163000
X311000Y153000
X317250Y153000
X317250Y106750
X311000Y106750
X303500Y106750
X283500Y95000
T03
X372693Y109191
X372693Y117065
X372693Y124939
X372693Y132813
X372693Y140687
X372693Y148561
X372693Y156435
X372693Y164309
X372693Y172183
X372693Y101317
X459307Y101317
X459307Y109191
X459307Y117065
X459307Y124939
X459307Y132813
X459307Y140687
X459307Y148561
X459307Y156435
X459307Y164309
X459307Y172183
T04
X301000Y373344
X301000Y385156
X277250Y385156
X277250Y373344
X253500Y373344
X253500Y385156
X229750Y385156
X229750Y373344
T05
X44750Y53000
X44750Y63000
X44750Y73000
X44750Y83000
X44750Y93000
X44750Y103000
X44750Y113000
X44750Y123000
X44750Y133000
X44750Y143000
X54750Y143000
X54750Y133000
X54750Y123000
X54750Y113000
X54750Y103000
X54750Y93000
X54750Y83000
X54750Y73000
X54750Y63000
X54750Y53000
X188589Y34437
X205911Y34437
X384125Y54250
X384125Y44250
X394125Y44250
X394125Y54250
X404125Y54250
X404125Y44250
X414125Y44250
X414125Y54250
X424125Y54250
X424125Y44250
X434125Y44250
X434125Y54250
X444125Y54250
X444125Y44250
X114396Y389378
X35656Y389378
T06
X389125Y26750
X399125Y26750
X409125Y26750
X419125Y26750
X429125Y26750
X439125Y26750
T07
X240331Y107232
X442171Y525756
X432329Y525756
X422486Y525756
X412644Y525756
X402801Y525756
X392959Y525756
X383116Y525756
X373274Y525756
X363431Y525756
X353589Y525756
X353589Y541504
X363431Y541504
X373274Y541504
X383116Y541504
X392959Y541504
X402801Y541504
X412644Y541504
X422486Y541504
X432329Y541504
X442171Y541504
X442171Y557252
X432329Y557252
X422486Y557252
X412644Y557252
X402801Y557252
X392959Y557252
X383116Y557252
X373274Y557252
X363431Y557252
X353589Y557252
X339809Y557252
X339809Y541504
X339809Y525756
X325242Y525756
X325242Y541504
X325242Y557252
X325242Y573000
X339809Y573000
X353589Y573000
X363431Y573000
X373274Y573000
X383116Y573000
X392959Y573000
X402801Y573000
X412644Y573000
X422486Y573000
X432329Y573000
X442171Y573000
X178421Y525756
X168579Y525756
X158736Y525756
X148894Y525756
X139051Y525756
X129209Y525756
X119366Y525756
X109524Y525756
X99681Y525756
X89839Y525756
X76059Y525756
X76059Y541504
X89839Y541504
X99681Y541504
X109524Y541504
X119366Y541504
X129209Y541504
X139051Y541504
X148894Y541504
X158736Y541504
X168579Y541504
X178421Y541504
X178421Y557252
X168579Y557252
X158736Y557252
X148894Y557252
X139051Y557252
X129209Y557252
X119366Y557252
X109524Y557252
X99681Y557252
X89839Y557252
X76059Y557252
X61492Y557252
X61492Y541504
X61492Y525756
X61492Y573000
X76059Y573000
X89839Y573000
X99681Y573000
X109524Y573000
X119366Y573000
X129209Y573000
X139051Y573000
X148894Y573000
X158736Y573000
X168579Y573000
X178421Y573000
T08
X323402Y107232
T09
X458707Y561189
X308707Y561189
X194957Y561189
X44957Y561189
T10
X17250Y18000
X484750Y18000
X484750Y344250
X17250Y344250
X17250Y634250
X484750Y635500
M30
