G75*
G70*
%OFA0B0*%
%FSLAX24Y24*%
%IPPOS*%
%LPD*%
%AMOC8*
5,1,8,0,0,1.08239X$1,22.5*
%
%ADD10C,0.0000*%
D10*
X000750Y000400D02*
X000750Y039770D01*
X063742Y039770D01*
X063742Y000400D01*
X000750Y000400D01*
X001745Y002025D02*
X001747Y002075D01*
X001753Y002125D01*
X001763Y002174D01*
X001777Y002222D01*
X001794Y002269D01*
X001815Y002314D01*
X001840Y002358D01*
X001868Y002399D01*
X001900Y002438D01*
X001934Y002475D01*
X001971Y002509D01*
X002011Y002539D01*
X002053Y002566D01*
X002097Y002590D01*
X002143Y002611D01*
X002190Y002627D01*
X002238Y002640D01*
X002288Y002649D01*
X002337Y002654D01*
X002388Y002655D01*
X002438Y002652D01*
X002487Y002645D01*
X002536Y002634D01*
X002584Y002619D01*
X002630Y002601D01*
X002675Y002579D01*
X002718Y002553D01*
X002759Y002524D01*
X002798Y002492D01*
X002834Y002457D01*
X002866Y002419D01*
X002896Y002379D01*
X002923Y002336D01*
X002946Y002292D01*
X002965Y002246D01*
X002981Y002198D01*
X002993Y002149D01*
X003001Y002100D01*
X003005Y002050D01*
X003005Y002000D01*
X003001Y001950D01*
X002993Y001901D01*
X002981Y001852D01*
X002965Y001804D01*
X002946Y001758D01*
X002923Y001714D01*
X002896Y001671D01*
X002866Y001631D01*
X002834Y001593D01*
X002798Y001558D01*
X002759Y001526D01*
X002718Y001497D01*
X002675Y001471D01*
X002630Y001449D01*
X002584Y001431D01*
X002536Y001416D01*
X002487Y001405D01*
X002438Y001398D01*
X002388Y001395D01*
X002337Y001396D01*
X002288Y001401D01*
X002238Y001410D01*
X002190Y001423D01*
X002143Y001439D01*
X002097Y001460D01*
X002053Y001484D01*
X002011Y001511D01*
X001971Y001541D01*
X001934Y001575D01*
X001900Y001612D01*
X001868Y001651D01*
X001840Y001692D01*
X001815Y001736D01*
X001794Y001781D01*
X001777Y001828D01*
X001763Y001876D01*
X001753Y001925D01*
X001747Y001975D01*
X001745Y002025D01*
X055558Y003025D02*
X055560Y003075D01*
X055566Y003125D01*
X055576Y003174D01*
X055590Y003222D01*
X055607Y003269D01*
X055628Y003314D01*
X055653Y003358D01*
X055681Y003399D01*
X055713Y003438D01*
X055747Y003475D01*
X055784Y003509D01*
X055824Y003539D01*
X055866Y003566D01*
X055910Y003590D01*
X055956Y003611D01*
X056003Y003627D01*
X056051Y003640D01*
X056101Y003649D01*
X056150Y003654D01*
X056201Y003655D01*
X056251Y003652D01*
X056300Y003645D01*
X056349Y003634D01*
X056397Y003619D01*
X056443Y003601D01*
X056488Y003579D01*
X056531Y003553D01*
X056572Y003524D01*
X056611Y003492D01*
X056647Y003457D01*
X056679Y003419D01*
X056709Y003379D01*
X056736Y003336D01*
X056759Y003292D01*
X056778Y003246D01*
X056794Y003198D01*
X056806Y003149D01*
X056814Y003100D01*
X056818Y003050D01*
X056818Y003000D01*
X056814Y002950D01*
X056806Y002901D01*
X056794Y002852D01*
X056778Y002804D01*
X056759Y002758D01*
X056736Y002714D01*
X056709Y002671D01*
X056679Y002631D01*
X056647Y002593D01*
X056611Y002558D01*
X056572Y002526D01*
X056531Y002497D01*
X056488Y002471D01*
X056443Y002449D01*
X056397Y002431D01*
X056349Y002416D01*
X056300Y002405D01*
X056251Y002398D01*
X056201Y002395D01*
X056150Y002396D01*
X056101Y002401D01*
X056051Y002410D01*
X056003Y002423D01*
X055956Y002439D01*
X055910Y002460D01*
X055866Y002484D01*
X055824Y002511D01*
X055784Y002541D01*
X055747Y002575D01*
X055713Y002612D01*
X055681Y002651D01*
X055653Y002692D01*
X055628Y002736D01*
X055607Y002781D01*
X055590Y002828D01*
X055576Y002876D01*
X055566Y002925D01*
X055560Y002975D01*
X055558Y003025D01*
X059687Y003400D02*
X059689Y003437D01*
X059695Y003474D01*
X059704Y003509D01*
X059718Y003544D01*
X059734Y003577D01*
X059755Y003608D01*
X059778Y003637D01*
X059804Y003663D01*
X059833Y003686D01*
X059864Y003707D01*
X059897Y003723D01*
X059932Y003737D01*
X059967Y003746D01*
X060004Y003752D01*
X060041Y003754D01*
X060078Y003752D01*
X060115Y003746D01*
X060150Y003737D01*
X060185Y003723D01*
X060218Y003707D01*
X060249Y003686D01*
X060278Y003663D01*
X060304Y003637D01*
X060327Y003608D01*
X060348Y003577D01*
X060364Y003544D01*
X060378Y003509D01*
X060387Y003474D01*
X060393Y003437D01*
X060395Y003400D01*
X060393Y003363D01*
X060387Y003326D01*
X060378Y003291D01*
X060364Y003256D01*
X060348Y003223D01*
X060327Y003192D01*
X060304Y003163D01*
X060278Y003137D01*
X060249Y003114D01*
X060218Y003093D01*
X060185Y003077D01*
X060150Y003063D01*
X060115Y003054D01*
X060078Y003048D01*
X060041Y003046D01*
X060004Y003048D01*
X059967Y003054D01*
X059932Y003063D01*
X059897Y003077D01*
X059864Y003093D01*
X059833Y003114D01*
X059804Y003137D01*
X059778Y003163D01*
X059755Y003192D01*
X059734Y003223D01*
X059718Y003256D01*
X059704Y003291D01*
X059695Y003326D01*
X059689Y003363D01*
X059687Y003400D01*
X061498Y003400D02*
X061500Y003435D01*
X061506Y003470D01*
X061516Y003504D01*
X061529Y003537D01*
X061546Y003568D01*
X061567Y003596D01*
X061590Y003623D01*
X061617Y003646D01*
X061645Y003667D01*
X061676Y003684D01*
X061709Y003697D01*
X061743Y003707D01*
X061778Y003713D01*
X061813Y003715D01*
X061848Y003713D01*
X061883Y003707D01*
X061917Y003697D01*
X061950Y003684D01*
X061981Y003667D01*
X062009Y003646D01*
X062036Y003623D01*
X062059Y003596D01*
X062080Y003568D01*
X062097Y003537D01*
X062110Y003504D01*
X062120Y003470D01*
X062126Y003435D01*
X062128Y003400D01*
X062126Y003365D01*
X062120Y003330D01*
X062110Y003296D01*
X062097Y003263D01*
X062080Y003232D01*
X062059Y003204D01*
X062036Y003177D01*
X062009Y003154D01*
X061981Y003133D01*
X061950Y003116D01*
X061917Y003103D01*
X061883Y003093D01*
X061848Y003087D01*
X061813Y003085D01*
X061778Y003087D01*
X061743Y003093D01*
X061709Y003103D01*
X061676Y003116D01*
X061645Y003133D01*
X061617Y003154D01*
X061590Y003177D01*
X061567Y003204D01*
X061546Y003232D01*
X061529Y003263D01*
X061516Y003296D01*
X061506Y003330D01*
X061500Y003365D01*
X061498Y003400D01*
X060787Y025527D02*
X060789Y025560D01*
X060795Y025592D01*
X060804Y025623D01*
X060817Y025653D01*
X060834Y025681D01*
X060854Y025707D01*
X060877Y025731D01*
X060902Y025751D01*
X060930Y025769D01*
X060959Y025783D01*
X060990Y025793D01*
X061022Y025800D01*
X061055Y025803D01*
X061088Y025802D01*
X061120Y025797D01*
X061151Y025788D01*
X061182Y025776D01*
X061210Y025760D01*
X061237Y025741D01*
X061261Y025719D01*
X061282Y025694D01*
X061301Y025667D01*
X061316Y025638D01*
X061327Y025608D01*
X061335Y025576D01*
X061339Y025543D01*
X061339Y025511D01*
X061335Y025478D01*
X061327Y025446D01*
X061316Y025416D01*
X061301Y025387D01*
X061282Y025360D01*
X061261Y025335D01*
X061237Y025313D01*
X061210Y025294D01*
X061182Y025278D01*
X061151Y025266D01*
X061120Y025257D01*
X061088Y025252D01*
X061055Y025251D01*
X061022Y025254D01*
X060990Y025261D01*
X060959Y025271D01*
X060930Y025285D01*
X060902Y025303D01*
X060877Y025323D01*
X060854Y025347D01*
X060834Y025373D01*
X060817Y025401D01*
X060804Y025431D01*
X060795Y025462D01*
X060789Y025494D01*
X060787Y025527D01*
X060787Y034976D02*
X060789Y035009D01*
X060795Y035041D01*
X060804Y035072D01*
X060817Y035102D01*
X060834Y035130D01*
X060854Y035156D01*
X060877Y035180D01*
X060902Y035200D01*
X060930Y035218D01*
X060959Y035232D01*
X060990Y035242D01*
X061022Y035249D01*
X061055Y035252D01*
X061088Y035251D01*
X061120Y035246D01*
X061151Y035237D01*
X061182Y035225D01*
X061210Y035209D01*
X061237Y035190D01*
X061261Y035168D01*
X061282Y035143D01*
X061301Y035116D01*
X061316Y035087D01*
X061327Y035057D01*
X061335Y035025D01*
X061339Y034992D01*
X061339Y034960D01*
X061335Y034927D01*
X061327Y034895D01*
X061316Y034865D01*
X061301Y034836D01*
X061282Y034809D01*
X061261Y034784D01*
X061237Y034762D01*
X061210Y034743D01*
X061182Y034727D01*
X061151Y034715D01*
X061120Y034706D01*
X061088Y034701D01*
X061055Y034700D01*
X061022Y034703D01*
X060990Y034710D01*
X060959Y034720D01*
X060930Y034734D01*
X060902Y034752D01*
X060877Y034772D01*
X060854Y034796D01*
X060834Y034822D01*
X060817Y034850D01*
X060804Y034880D01*
X060795Y034911D01*
X060789Y034943D01*
X060787Y034976D01*
X062073Y037891D02*
X062075Y037941D01*
X062081Y037991D01*
X062091Y038040D01*
X062105Y038088D01*
X062122Y038135D01*
X062143Y038180D01*
X062168Y038224D01*
X062196Y038265D01*
X062228Y038304D01*
X062262Y038341D01*
X062299Y038375D01*
X062339Y038405D01*
X062381Y038432D01*
X062425Y038456D01*
X062471Y038477D01*
X062518Y038493D01*
X062566Y038506D01*
X062616Y038515D01*
X062665Y038520D01*
X062716Y038521D01*
X062766Y038518D01*
X062815Y038511D01*
X062864Y038500D01*
X062912Y038485D01*
X062958Y038467D01*
X063003Y038445D01*
X063046Y038419D01*
X063087Y038390D01*
X063126Y038358D01*
X063162Y038323D01*
X063194Y038285D01*
X063224Y038245D01*
X063251Y038202D01*
X063274Y038158D01*
X063293Y038112D01*
X063309Y038064D01*
X063321Y038015D01*
X063329Y037966D01*
X063333Y037916D01*
X063333Y037866D01*
X063329Y037816D01*
X063321Y037767D01*
X063309Y037718D01*
X063293Y037670D01*
X063274Y037624D01*
X063251Y037580D01*
X063224Y037537D01*
X063194Y037497D01*
X063162Y037459D01*
X063126Y037424D01*
X063087Y037392D01*
X063046Y037363D01*
X063003Y037337D01*
X062958Y037315D01*
X062912Y037297D01*
X062864Y037282D01*
X062815Y037271D01*
X062766Y037264D01*
X062716Y037261D01*
X062665Y037262D01*
X062616Y037267D01*
X062566Y037276D01*
X062518Y037289D01*
X062471Y037305D01*
X062425Y037326D01*
X062381Y037350D01*
X062339Y037377D01*
X062299Y037407D01*
X062262Y037441D01*
X062228Y037478D01*
X062196Y037517D01*
X062168Y037558D01*
X062143Y037602D01*
X062122Y037647D01*
X062105Y037694D01*
X062091Y037742D01*
X062081Y037791D01*
X062075Y037841D01*
X062073Y037891D01*
X050620Y038150D02*
X050622Y038200D01*
X050628Y038250D01*
X050638Y038299D01*
X050652Y038347D01*
X050669Y038394D01*
X050690Y038439D01*
X050715Y038483D01*
X050743Y038524D01*
X050775Y038563D01*
X050809Y038600D01*
X050846Y038634D01*
X050886Y038664D01*
X050928Y038691D01*
X050972Y038715D01*
X051018Y038736D01*
X051065Y038752D01*
X051113Y038765D01*
X051163Y038774D01*
X051212Y038779D01*
X051263Y038780D01*
X051313Y038777D01*
X051362Y038770D01*
X051411Y038759D01*
X051459Y038744D01*
X051505Y038726D01*
X051550Y038704D01*
X051593Y038678D01*
X051634Y038649D01*
X051673Y038617D01*
X051709Y038582D01*
X051741Y038544D01*
X051771Y038504D01*
X051798Y038461D01*
X051821Y038417D01*
X051840Y038371D01*
X051856Y038323D01*
X051868Y038274D01*
X051876Y038225D01*
X051880Y038175D01*
X051880Y038125D01*
X051876Y038075D01*
X051868Y038026D01*
X051856Y037977D01*
X051840Y037929D01*
X051821Y037883D01*
X051798Y037839D01*
X051771Y037796D01*
X051741Y037756D01*
X051709Y037718D01*
X051673Y037683D01*
X051634Y037651D01*
X051593Y037622D01*
X051550Y037596D01*
X051505Y037574D01*
X051459Y037556D01*
X051411Y037541D01*
X051362Y037530D01*
X051313Y037523D01*
X051263Y037520D01*
X051212Y037521D01*
X051163Y037526D01*
X051113Y037535D01*
X051065Y037548D01*
X051018Y037564D01*
X050972Y037585D01*
X050928Y037609D01*
X050886Y037636D01*
X050846Y037666D01*
X050809Y037700D01*
X050775Y037737D01*
X050743Y037776D01*
X050715Y037817D01*
X050690Y037861D01*
X050669Y037906D01*
X050652Y037953D01*
X050638Y038001D01*
X050628Y038050D01*
X050622Y038100D01*
X050620Y038150D01*
X033347Y038121D02*
X033349Y038169D01*
X033355Y038217D01*
X033365Y038264D01*
X033378Y038310D01*
X033396Y038355D01*
X033416Y038399D01*
X033441Y038441D01*
X033469Y038480D01*
X033499Y038517D01*
X033533Y038551D01*
X033570Y038583D01*
X033608Y038612D01*
X033649Y038637D01*
X033692Y038659D01*
X033737Y038677D01*
X033783Y038691D01*
X033830Y038702D01*
X033878Y038709D01*
X033926Y038712D01*
X033974Y038711D01*
X034022Y038706D01*
X034070Y038697D01*
X034116Y038685D01*
X034161Y038668D01*
X034205Y038648D01*
X034247Y038625D01*
X034287Y038598D01*
X034325Y038568D01*
X034360Y038535D01*
X034392Y038499D01*
X034422Y038461D01*
X034448Y038420D01*
X034470Y038377D01*
X034490Y038333D01*
X034505Y038288D01*
X034517Y038241D01*
X034525Y038193D01*
X034529Y038145D01*
X034529Y038097D01*
X034525Y038049D01*
X034517Y038001D01*
X034505Y037954D01*
X034490Y037909D01*
X034470Y037865D01*
X034448Y037822D01*
X034422Y037781D01*
X034392Y037743D01*
X034360Y037707D01*
X034325Y037674D01*
X034287Y037644D01*
X034247Y037617D01*
X034205Y037594D01*
X034161Y037574D01*
X034116Y037557D01*
X034070Y037545D01*
X034022Y037536D01*
X033974Y037531D01*
X033926Y037530D01*
X033878Y037533D01*
X033830Y037540D01*
X033783Y037551D01*
X033737Y037565D01*
X033692Y037583D01*
X033649Y037605D01*
X033608Y037630D01*
X033570Y037659D01*
X033533Y037691D01*
X033499Y037725D01*
X033469Y037762D01*
X033441Y037801D01*
X033416Y037843D01*
X033396Y037887D01*
X033378Y037932D01*
X033365Y037978D01*
X033355Y038025D01*
X033349Y038073D01*
X033347Y038121D01*
X028629Y038103D02*
X028631Y038153D01*
X028637Y038203D01*
X028647Y038252D01*
X028661Y038300D01*
X028678Y038347D01*
X028699Y038392D01*
X028724Y038436D01*
X028752Y038477D01*
X028784Y038516D01*
X028818Y038553D01*
X028855Y038587D01*
X028895Y038617D01*
X028937Y038644D01*
X028981Y038668D01*
X029027Y038689D01*
X029074Y038705D01*
X029122Y038718D01*
X029172Y038727D01*
X029221Y038732D01*
X029272Y038733D01*
X029322Y038730D01*
X029371Y038723D01*
X029420Y038712D01*
X029468Y038697D01*
X029514Y038679D01*
X029559Y038657D01*
X029602Y038631D01*
X029643Y038602D01*
X029682Y038570D01*
X029718Y038535D01*
X029750Y038497D01*
X029780Y038457D01*
X029807Y038414D01*
X029830Y038370D01*
X029849Y038324D01*
X029865Y038276D01*
X029877Y038227D01*
X029885Y038178D01*
X029889Y038128D01*
X029889Y038078D01*
X029885Y038028D01*
X029877Y037979D01*
X029865Y037930D01*
X029849Y037882D01*
X029830Y037836D01*
X029807Y037792D01*
X029780Y037749D01*
X029750Y037709D01*
X029718Y037671D01*
X029682Y037636D01*
X029643Y037604D01*
X029602Y037575D01*
X029559Y037549D01*
X029514Y037527D01*
X029468Y037509D01*
X029420Y037494D01*
X029371Y037483D01*
X029322Y037476D01*
X029272Y037473D01*
X029221Y037474D01*
X029172Y037479D01*
X029122Y037488D01*
X029074Y037501D01*
X029027Y037517D01*
X028981Y037538D01*
X028937Y037562D01*
X028895Y037589D01*
X028855Y037619D01*
X028818Y037653D01*
X028784Y037690D01*
X028752Y037729D01*
X028724Y037770D01*
X028699Y037814D01*
X028678Y037859D01*
X028661Y037906D01*
X028647Y037954D01*
X028637Y038003D01*
X028631Y038053D01*
X028629Y038103D01*
X001745Y038150D02*
X001747Y038200D01*
X001753Y038250D01*
X001763Y038299D01*
X001777Y038347D01*
X001794Y038394D01*
X001815Y038439D01*
X001840Y038483D01*
X001868Y038524D01*
X001900Y038563D01*
X001934Y038600D01*
X001971Y038634D01*
X002011Y038664D01*
X002053Y038691D01*
X002097Y038715D01*
X002143Y038736D01*
X002190Y038752D01*
X002238Y038765D01*
X002288Y038774D01*
X002337Y038779D01*
X002388Y038780D01*
X002438Y038777D01*
X002487Y038770D01*
X002536Y038759D01*
X002584Y038744D01*
X002630Y038726D01*
X002675Y038704D01*
X002718Y038678D01*
X002759Y038649D01*
X002798Y038617D01*
X002834Y038582D01*
X002866Y038544D01*
X002896Y038504D01*
X002923Y038461D01*
X002946Y038417D01*
X002965Y038371D01*
X002981Y038323D01*
X002993Y038274D01*
X003001Y038225D01*
X003005Y038175D01*
X003005Y038125D01*
X003001Y038075D01*
X002993Y038026D01*
X002981Y037977D01*
X002965Y037929D01*
X002946Y037883D01*
X002923Y037839D01*
X002896Y037796D01*
X002866Y037756D01*
X002834Y037718D01*
X002798Y037683D01*
X002759Y037651D01*
X002718Y037622D01*
X002675Y037596D01*
X002630Y037574D01*
X002584Y037556D01*
X002536Y037541D01*
X002487Y037530D01*
X002438Y037523D01*
X002388Y037520D01*
X002337Y037521D01*
X002288Y037526D01*
X002238Y037535D01*
X002190Y037548D01*
X002143Y037564D01*
X002097Y037585D01*
X002053Y037609D01*
X002011Y037636D01*
X001971Y037666D01*
X001934Y037700D01*
X001900Y037737D01*
X001868Y037776D01*
X001840Y037817D01*
X001815Y037861D01*
X001794Y037906D01*
X001777Y037953D01*
X001763Y038001D01*
X001753Y038050D01*
X001747Y038100D01*
X001745Y038150D01*
M02*
