G75*
%MOIN*%
%OFA0B0*%
%FSLAX25Y25*%
%IPPOS*%
%LPD*%
%AMOC8*
5,1,8,0,0,1.08239X$1,22.5*
%
%ADD10C,0.07096*%
%ADD11C,0.15230*%
%ADD12C,0.12411*%
%ADD13C,0.02962*%
%ADD14C,0.04931*%
%ADD15C,0.28159*%
%ADD16C,0.06506*%
%ADD17OC8,0.06506*%
%ADD18C,0.05600*%
%ADD19C,0.04537*%
%ADD20R,0.08000X0.08000*%
%ADD21C,0.08000*%
%ADD22R,0.03750X0.04143*%
%ADD23C,0.06600*%
%ADD24C,0.05400*%
%ADD25C,0.03300*%
%ADD26C,0.03500*%
%ADD27C,0.04362*%
%ADD28C,0.05915*%
D10*
X0077988Y0525756D03*
X0092555Y0525756D03*
X0092555Y0541504D03*
X0077988Y0541504D03*
X0077988Y0557252D03*
X0092555Y0557252D03*
X0092555Y0573000D03*
X0077988Y0573000D03*
X0106335Y0573000D03*
X0116177Y0573000D03*
X0126020Y0573000D03*
X0135862Y0573000D03*
X0145705Y0573000D03*
X0155547Y0573000D03*
X0165390Y0573000D03*
X0175232Y0573000D03*
X0185075Y0573000D03*
X0194917Y0573000D03*
X0194917Y0557252D03*
X0185075Y0557252D03*
X0175232Y0557252D03*
X0165390Y0557252D03*
X0155547Y0557252D03*
X0145705Y0557252D03*
X0135862Y0557252D03*
X0126020Y0557252D03*
X0116177Y0557252D03*
X0106335Y0557252D03*
X0106335Y0541504D03*
X0116177Y0541504D03*
X0126020Y0541504D03*
X0135862Y0541504D03*
X0145705Y0541504D03*
X0155547Y0541504D03*
X0165390Y0541504D03*
X0175232Y0541504D03*
X0185075Y0541504D03*
X0194917Y0541504D03*
X0194917Y0525756D03*
X0185075Y0525756D03*
X0175232Y0525756D03*
X0165390Y0525756D03*
X0155547Y0525756D03*
X0145705Y0525756D03*
X0135862Y0525756D03*
X0126020Y0525756D03*
X0116177Y0525756D03*
X0106335Y0525756D03*
X0341738Y0525756D03*
X0341738Y0541504D03*
X0356305Y0541504D03*
X0356305Y0525756D03*
X0370085Y0525756D03*
X0379927Y0525756D03*
X0389770Y0525756D03*
X0399612Y0525756D03*
X0409455Y0525756D03*
X0419297Y0525756D03*
X0429140Y0525756D03*
X0438982Y0525756D03*
X0448825Y0525756D03*
X0458667Y0525756D03*
X0458667Y0541504D03*
X0448825Y0541504D03*
X0438982Y0541504D03*
X0429140Y0541504D03*
X0419297Y0541504D03*
X0409455Y0541504D03*
X0399612Y0541504D03*
X0389770Y0541504D03*
X0379927Y0541504D03*
X0370085Y0541504D03*
X0370085Y0557252D03*
X0379927Y0557252D03*
X0389770Y0557252D03*
X0399612Y0557252D03*
X0409455Y0557252D03*
X0419297Y0557252D03*
X0429140Y0557252D03*
X0438982Y0557252D03*
X0448825Y0557252D03*
X0458667Y0557252D03*
X0458667Y0573000D03*
X0448825Y0573000D03*
X0438982Y0573000D03*
X0429140Y0573000D03*
X0419297Y0573000D03*
X0409455Y0573000D03*
X0399612Y0573000D03*
X0389770Y0573000D03*
X0379927Y0573000D03*
X0370085Y0573000D03*
X0356305Y0573000D03*
X0356305Y0557252D03*
X0341738Y0557252D03*
X0341738Y0573000D03*
D11*
X0325203Y0561189D03*
X0211453Y0561189D03*
X0061453Y0561189D03*
X0475203Y0561189D03*
D12*
X0033746Y0018000D03*
X0033746Y0344250D03*
X0033746Y0634250D03*
X0501246Y0635500D03*
X0501246Y0344250D03*
X0501246Y0018000D03*
D13*
X0370429Y0155500D03*
D14*
X0107437Y0155500D03*
D15*
X0119996Y0036750D03*
X0358746Y0036750D03*
D16*
X0060621Y0170500D03*
D17*
X0060621Y0160500D03*
X0060621Y0150500D03*
X0060621Y0140500D03*
X0060621Y0130500D03*
X0060621Y0120500D03*
X0060621Y0110500D03*
X0060621Y0100500D03*
X0060621Y0090500D03*
X0060621Y0080500D03*
X0070621Y0080500D03*
X0070621Y0090500D03*
X0070621Y0100500D03*
X0070621Y0110500D03*
X0070621Y0120500D03*
X0070621Y0130500D03*
X0070621Y0140500D03*
X0070621Y0150500D03*
X0070621Y0160500D03*
X0070621Y0170500D03*
X0050902Y0231878D03*
X0129642Y0231878D03*
X0402496Y0228625D03*
X0402496Y0218625D03*
X0402496Y0208625D03*
X0402496Y0198625D03*
X0402496Y0188625D03*
X0402496Y0178625D03*
X0402496Y0168625D03*
X0402496Y0158625D03*
X0402496Y0148625D03*
X0402496Y0138625D03*
X0402496Y0128625D03*
X0402496Y0118625D03*
X0402496Y0108625D03*
X0402496Y0098625D03*
X0400621Y0054250D03*
X0400621Y0044250D03*
X0410621Y0044250D03*
X0410621Y0054250D03*
X0420621Y0054250D03*
X0420621Y0044250D03*
X0430621Y0044250D03*
X0440621Y0044250D03*
X0440621Y0054250D03*
X0430621Y0054250D03*
X0450621Y0054250D03*
X0450621Y0044250D03*
X0460621Y0044250D03*
X0460621Y0054250D03*
X0482496Y0098625D03*
X0482496Y0108625D03*
X0482496Y0118625D03*
X0482496Y0128625D03*
X0482496Y0138625D03*
X0482496Y0148625D03*
X0482496Y0158625D03*
X0482496Y0168625D03*
X0482496Y0178625D03*
X0482496Y0188625D03*
X0482496Y0198625D03*
X0482496Y0208625D03*
X0482496Y0218625D03*
X0482496Y0228625D03*
D18*
X0475803Y0172183D03*
X0475803Y0164309D03*
X0475803Y0156435D03*
X0475803Y0148561D03*
X0475803Y0140687D03*
X0475803Y0132813D03*
X0475803Y0124939D03*
X0475803Y0117065D03*
X0475803Y0109191D03*
X0475803Y0101317D03*
X0389189Y0101317D03*
X0389189Y0109191D03*
X0389189Y0117065D03*
X0389189Y0124939D03*
X0389189Y0132813D03*
X0389189Y0140687D03*
X0389189Y0148561D03*
X0389189Y0156435D03*
X0389189Y0164309D03*
X0389189Y0172183D03*
D19*
X0091157Y0041312D03*
X0073835Y0041312D03*
D20*
X0455621Y0026750D03*
D21*
X0445621Y0026750D03*
X0435621Y0026750D03*
X0425621Y0026750D03*
X0415621Y0026750D03*
X0405621Y0026750D03*
D22*
X0296871Y0031250D03*
X0291871Y0031250D03*
X0286871Y0031250D03*
X0286871Y0037250D03*
X0291871Y0037250D03*
X0296871Y0037250D03*
X0278121Y0035625D03*
X0278121Y0041625D03*
X0270621Y0037250D03*
X0265621Y0037250D03*
X0265621Y0031250D03*
X0270621Y0031250D03*
D23*
X0435621Y0422375D03*
X0448121Y0422375D03*
X0464371Y0422375D03*
X0476871Y0422375D03*
D24*
X0189371Y0265300D02*
X0189371Y0260500D01*
X0179371Y0260500D02*
X0179371Y0265300D01*
X0169371Y0265300D02*
X0169371Y0260500D01*
X0169371Y0230500D02*
X0169371Y0225700D01*
X0179371Y0225700D02*
X0179371Y0230500D01*
X0189371Y0230500D02*
X0189371Y0225700D01*
D25*
X0173746Y0218000D03*
X0174371Y0187375D03*
X0170621Y0187375D03*
X0166871Y0187375D03*
X0163121Y0187375D03*
X0159371Y0187375D03*
X0155621Y0187375D03*
X0178121Y0187375D03*
X0196246Y0179250D03*
X0199371Y0179250D03*
X0202496Y0179250D03*
X0199371Y0185500D03*
X0222496Y0210500D03*
X0234996Y0210500D03*
X0234996Y0226125D03*
X0220621Y0233000D03*
X0236871Y0184875D03*
X0241246Y0184875D03*
X0245621Y0184875D03*
X0249996Y0184875D03*
X0254371Y0184875D03*
X0258746Y0184875D03*
X0269371Y0183000D03*
X0273121Y0183000D03*
X0269996Y0164875D03*
X0266246Y0164875D03*
X0262496Y0164875D03*
X0278746Y0156750D03*
X0287496Y0153625D03*
X0291871Y0158625D03*
X0294996Y0160500D03*
X0303121Y0183000D03*
X0299996Y0186125D03*
X0302496Y0208000D03*
X0306246Y0208000D03*
X0309996Y0208000D03*
X0313746Y0208000D03*
X0317496Y0208000D03*
X0321246Y0208000D03*
X0324996Y0208000D03*
X0333121Y0193625D03*
X0331246Y0189875D03*
X0333746Y0187375D03*
X0336246Y0184875D03*
X0341871Y0182375D03*
X0361871Y0191125D03*
X0313746Y0121125D03*
X0309684Y0116437D03*
X0304371Y0113625D03*
X0310621Y0108000D03*
X0313746Y0104875D03*
X0316871Y0113625D03*
X0296246Y0048000D03*
X0291871Y0048000D03*
X0287496Y0048000D03*
X0278746Y0048000D03*
X0269996Y0048000D03*
X0265621Y0048000D03*
X0263121Y0085500D03*
X0261246Y0132375D03*
X0233746Y0161125D03*
X0229371Y0165500D03*
X0225621Y0165500D03*
X0238121Y0178000D03*
X0241871Y0178000D03*
X0189996Y0070500D03*
X0194371Y0034250D03*
X0090621Y0146975D03*
X0090621Y0150275D03*
X0119996Y0218000D03*
X0081246Y0271750D03*
X0078746Y0273625D03*
X0081246Y0276125D03*
X0081246Y0280500D03*
X0081246Y0284875D03*
X0072496Y0269875D03*
X0056871Y0311125D03*
X0056871Y0314250D03*
X0056871Y0317375D03*
X0056246Y0346750D03*
X0061246Y0360500D03*
X0062496Y0367375D03*
X0059371Y0367375D03*
X0056246Y0367375D03*
X0080621Y0361750D03*
X0080621Y0358000D03*
X0087496Y0358625D03*
X0087496Y0364875D03*
X0097496Y0364875D03*
X0098121Y0358625D03*
X0081246Y0347375D03*
X0078121Y0347375D03*
X0093121Y0329875D03*
X0101871Y0321125D03*
X0106871Y0321125D03*
X0116246Y0317375D03*
X0128121Y0317375D03*
X0125621Y0329875D03*
X0115621Y0329875D03*
X0115621Y0303000D03*
X0122496Y0298625D03*
X0125621Y0298625D03*
X0131246Y0294250D03*
X0131246Y0288000D03*
X0125621Y0283625D03*
X0122496Y0283625D03*
X0153121Y0361750D03*
X0116871Y0414250D03*
X0113746Y0414250D03*
X0113746Y0417375D03*
X0100621Y0410500D03*
X0108746Y0394875D03*
X0108746Y0390500D03*
X0103746Y0389250D03*
X0087496Y0387375D03*
X0086246Y0394250D03*
X0077496Y0407375D03*
X0081871Y0412375D03*
X0078746Y0418000D03*
X0086871Y0419875D03*
X0086871Y0426125D03*
X0090621Y0430500D03*
X0096871Y0444250D03*
X0101246Y0448000D03*
X0114371Y0447375D03*
X0118121Y0443625D03*
X0119371Y0433625D03*
X0124996Y0426125D03*
X0127496Y0485500D03*
X0124371Y0496125D03*
X0116246Y0501125D03*
X0109996Y0496125D03*
X0113121Y0485500D03*
X0098746Y0485500D03*
X0095621Y0496125D03*
X0101871Y0501125D03*
X0087496Y0501125D03*
X0081246Y0496125D03*
X0073121Y0501125D03*
X0066871Y0496125D03*
X0058746Y0501125D03*
X0069996Y0485500D03*
X0084371Y0485500D03*
X0064996Y0468625D03*
X0064996Y0465500D03*
X0061871Y0455500D03*
X0056246Y0427375D03*
X0050621Y0423625D03*
X0050621Y0419875D03*
X0130621Y0501125D03*
X0138746Y0496125D03*
X0141871Y0485500D03*
X0156871Y0493000D03*
X0156871Y0496750D03*
X0156871Y0500500D03*
X0158121Y0518000D03*
X0153746Y0518625D03*
X0168746Y0521125D03*
X0140621Y0546125D03*
X0263121Y0441750D03*
X0274371Y0427375D03*
X0283746Y0433625D03*
X0283746Y0438625D03*
X0300621Y0457375D03*
X0300621Y0463000D03*
X0312496Y0463000D03*
X0331246Y0463000D03*
X0338746Y0463000D03*
X0345621Y0472375D03*
X0353121Y0463625D03*
X0366246Y0453000D03*
X0366246Y0448000D03*
X0364996Y0438000D03*
X0361246Y0438000D03*
X0365621Y0420500D03*
X0377496Y0463625D03*
X0371246Y0472375D03*
X0374371Y0483000D03*
X0380621Y0483000D03*
X0389996Y0463625D03*
X0394371Y0463625D03*
X0403121Y0438625D03*
X0406246Y0435500D03*
X0418746Y0455500D03*
X0440621Y0450500D03*
X0445621Y0444250D03*
X0464371Y0444250D03*
X0469371Y0450500D03*
X0416246Y0513000D03*
X0404996Y0513000D03*
X0398746Y0519875D03*
X0394371Y0507375D03*
X0363746Y0498000D03*
X0345621Y0491750D03*
X0323746Y0437375D03*
X0319996Y0437375D03*
X0283746Y0409875D03*
X0283746Y0406125D03*
X0283746Y0402375D03*
X0274371Y0463625D03*
X0236246Y0336750D03*
X0281871Y0303000D03*
X0438346Y0174875D03*
X0441646Y0174875D03*
X0449371Y0193625D03*
X0464371Y0190500D03*
X0457496Y0137375D03*
X0457496Y0132375D03*
X0450621Y0128000D03*
X0445621Y0133000D03*
X0436246Y0114875D03*
X0436246Y0111125D03*
X0436246Y0107375D03*
X0458121Y0108000D03*
X0461246Y0109875D03*
X0464371Y0113000D03*
X0454371Y0278625D03*
X0456871Y0291750D03*
X0455221Y0328000D03*
X0458521Y0328000D03*
X0460621Y0368850D03*
X0460621Y0372150D03*
X0404996Y0562375D03*
X0085621Y0072375D03*
X0082271Y0061125D03*
X0078971Y0061125D03*
D26*
X0229371Y0399875D03*
X0428746Y0429250D03*
X0456246Y0429250D03*
X0456246Y0461125D03*
X0483746Y0429250D03*
X0463121Y0547375D03*
D27*
X0386246Y0459875D03*
X0386246Y0431750D03*
X0414371Y0416750D03*
X0422496Y0416750D03*
X0367496Y0502375D03*
X0345621Y0445500D03*
X0304996Y0445500D03*
X0266871Y0445500D03*
X0198746Y0399875D03*
X0217496Y0333625D03*
X0296871Y0333625D03*
X0221246Y0214250D03*
X0278121Y0031250D03*
X0390934Y0094562D03*
X0064996Y0429250D03*
D28*
X0086246Y0329875D03*
X0116246Y0278000D03*
M02*
