G75*
G70*
%OFA0B0*%
%FSLAX24Y24*%
%IPPOS*%
%LPD*%
%AMOC8*
5,1,8,0,0,1.08239X$1,22.5*
%
%ADD10R,0.0827X0.0866*%
%ADD11R,0.0827X0.0945*%
%ADD12R,0.1024X0.1142*%
%ADD13R,0.0512X0.0748*%
%ADD14R,0.0551X0.0768*%
%ADD15R,0.0472X0.1693*%
%ADD16R,0.0472X0.0787*%
%ADD17C,0.0040*%
%ADD18R,0.0591X0.0591*%
%ADD19R,0.0354X0.0315*%
%ADD20R,0.4098X0.4252*%
%ADD21R,0.0850X0.0420*%
%ADD22R,0.2126X0.1575*%
%ADD23R,0.0394X0.0500*%
%ADD24R,0.0315X0.0354*%
%ADD25R,0.0780X0.0210*%
%ADD26R,0.0433X0.0394*%
%ADD27R,0.0512X0.0472*%
D10*
X018718Y004785D03*
D11*
X018718Y005868D03*
D12*
X029269Y004549D03*
D13*
X029426Y013329D03*
X029426Y015041D03*
X018639Y013506D03*
D14*
X018600Y015592D03*
X019308Y015592D03*
D15*
X020086Y008752D03*
X020726Y008752D03*
X021710Y008752D03*
X022694Y008752D03*
X023678Y008752D03*
X024663Y008752D03*
X025647Y008752D03*
X026631Y008752D03*
D16*
X027615Y008299D03*
D17*
X029210Y007639D02*
X029210Y006814D01*
X029642Y006814D01*
X029642Y007639D01*
X029210Y007639D01*
X029210Y007617D02*
X029642Y007617D01*
X029642Y007579D02*
X029210Y007579D01*
X029210Y007540D02*
X029642Y007540D01*
X029642Y007502D02*
X029210Y007502D01*
X029210Y007463D02*
X029642Y007463D01*
X029642Y007425D02*
X029210Y007425D01*
X029210Y007386D02*
X029642Y007386D01*
X029642Y007348D02*
X029210Y007348D01*
X029210Y007309D02*
X029642Y007309D01*
X029642Y007271D02*
X029210Y007271D01*
X029210Y007232D02*
X029642Y007232D01*
X029642Y007194D02*
X029210Y007194D01*
X029210Y007155D02*
X029642Y007155D01*
X029642Y007117D02*
X029210Y007117D01*
X029210Y007078D02*
X029642Y007078D01*
X029642Y007040D02*
X029210Y007040D01*
X029210Y007001D02*
X029642Y007001D01*
X029642Y006963D02*
X029210Y006963D01*
X029210Y006924D02*
X029642Y006924D01*
X029642Y006886D02*
X029210Y006886D01*
X029210Y006847D02*
X029642Y006847D01*
X019011Y006909D02*
X018932Y006761D01*
X018932Y006692D01*
X018402Y006692D01*
X018402Y007439D01*
X019011Y007439D01*
X019011Y006909D01*
X019011Y006924D02*
X018402Y006924D01*
X018402Y006886D02*
X018998Y006886D01*
X018978Y006847D02*
X018402Y006847D01*
X018402Y006809D02*
X018957Y006809D01*
X018937Y006770D02*
X018402Y006770D01*
X018402Y006732D02*
X018932Y006732D01*
X018932Y006693D02*
X018402Y006693D01*
X018402Y006963D02*
X019011Y006963D01*
X019011Y007001D02*
X018402Y007001D01*
X018402Y007040D02*
X019011Y007040D01*
X019011Y007078D02*
X018402Y007078D01*
X018402Y007117D02*
X019011Y007117D01*
X019011Y007155D02*
X018402Y007155D01*
X018402Y007194D02*
X019011Y007194D01*
X019011Y007232D02*
X018402Y007232D01*
X018402Y007271D02*
X019011Y007271D01*
X019011Y007309D02*
X018402Y007309D01*
X018402Y007348D02*
X019011Y007348D01*
X019011Y007386D02*
X018402Y007386D01*
X018402Y007425D02*
X019011Y007425D01*
D18*
X009255Y004581D03*
X010433Y004581D03*
X031627Y013621D03*
X031627Y014799D03*
X032867Y014799D03*
X032867Y013621D03*
D19*
X017529Y013427D03*
X016929Y013427D03*
X016929Y012246D03*
X017529Y012246D03*
X017529Y011064D03*
X016929Y011064D03*
X016929Y009883D03*
X017529Y009883D03*
X017529Y008702D03*
X016929Y008702D03*
X012454Y004655D03*
X011854Y004655D03*
X010349Y015677D03*
X009749Y015677D03*
X011811Y015789D03*
X012411Y015789D03*
X005033Y015757D03*
X004433Y015757D03*
X004433Y017301D03*
X005033Y017301D03*
X011315Y032816D03*
X011915Y032816D03*
X009490Y034427D03*
X008890Y034427D03*
X010236Y036194D03*
X010836Y036194D03*
X010836Y037324D03*
X010236Y037324D03*
D20*
X005205Y036655D03*
D21*
X008485Y036655D03*
X008485Y035985D03*
X008485Y035315D03*
X008485Y037325D03*
X008485Y037995D03*
D22*
X008174Y032679D03*
X008174Y028820D03*
D23*
X010556Y034057D03*
X011304Y034057D03*
X010930Y034844D03*
D24*
X030615Y014908D03*
X030615Y014308D03*
X034040Y014308D03*
X034040Y014908D03*
D25*
X009085Y016448D03*
X009085Y016948D03*
X009085Y017448D03*
X009085Y017948D03*
X007145Y017948D03*
X007145Y017448D03*
X007145Y016948D03*
X007145Y016448D03*
D26*
X005068Y016527D03*
X004398Y016527D03*
D27*
X011324Y016964D03*
X011324Y017764D03*
M02*
