G75*
G70*
%OFA0B0*%
%FSLAX24Y24*%
%IPPOS*%
%LPD*%
%AMOC8*
5,1,8,0,0,1.08239X$1,22.5*
%
%ADD10R,0.0651X0.0257*%
%ADD11R,0.0257X0.0651*%
%ADD12C,0.0540*%
%ADD13R,0.1044X0.0847*%
%ADD14R,0.1359X0.0847*%
%ADD15R,0.1280X0.0257*%
%ADD16C,0.0414*%
%ADD17R,0.0454X0.0493*%
%ADD18R,0.0277X0.0532*%
%ADD19C,0.0700*%
%ADD20R,0.0926X0.0296*%
%ADD21R,0.0473X0.0485*%
%ADD22R,0.0560X0.0454*%
%ADD23R,0.0493X0.0454*%
%ADD24R,0.0485X0.0473*%
%ADD25R,0.0769X0.0611*%
%ADD26R,0.0966X0.0690*%
%ADD27R,0.0572X0.0532*%
%ADD28R,0.0532X0.0572*%
%ADD29C,0.0560*%
%ADD30OC8,0.0651*%
%ADD31C,0.0660*%
%ADD32C,0.1140*%
%ADD33C,0.1241*%
%ADD34C,0.0710*%
%ADD35C,0.0720*%
%ADD36R,0.0769X0.0690*%
%ADD37R,0.0650X0.0850*%
%ADD38R,0.1560X0.0850*%
%ADD39C,0.0540*%
%ADD40R,0.2186X0.1635*%
%ADD41C,0.0620*%
%ADD42C,0.1005*%
%ADD43C,0.1064*%
%ADD44R,0.0860X0.0320*%
%ADD45OC8,0.0350*%
%ADD46OC8,0.0591*%
D10*
X014468Y014865D03*
X014468Y015180D03*
X014468Y015495D03*
X014468Y015810D03*
X014468Y016125D03*
X014468Y016440D03*
X014468Y016755D03*
X014468Y017070D03*
X014468Y017385D03*
X014468Y017700D03*
X014468Y018015D03*
X019035Y018015D03*
X019035Y017700D03*
X019035Y017385D03*
X019035Y017070D03*
X019035Y016755D03*
X019035Y016440D03*
X019035Y016125D03*
X019035Y015810D03*
X019035Y015495D03*
X019035Y015180D03*
X019035Y014865D03*
D11*
X018327Y014157D03*
X018012Y014157D03*
X017697Y014157D03*
X017382Y014157D03*
X017067Y014157D03*
X016752Y014157D03*
X016437Y014157D03*
X016122Y014157D03*
X015807Y014157D03*
X015492Y014157D03*
X015177Y014157D03*
X015177Y018724D03*
X015492Y018724D03*
X015807Y018724D03*
X016122Y018724D03*
X016437Y018724D03*
X016752Y018724D03*
X017067Y018724D03*
X017382Y018724D03*
X017697Y018724D03*
X018012Y018724D03*
X018327Y018724D03*
D12*
X017827Y020715D03*
X015927Y020715D03*
D13*
X039220Y014342D03*
X039220Y010838D03*
D14*
X036898Y010838D03*
X036898Y014342D03*
D15*
X036858Y013220D03*
X036858Y012905D03*
X036858Y012590D03*
X036858Y012275D03*
X036858Y011960D03*
D16*
X038039Y011724D03*
X038039Y013456D03*
D17*
X034611Y014790D03*
X034611Y015415D03*
X033942Y015415D03*
X033942Y014790D03*
X033971Y011118D03*
X033302Y011118D03*
X032834Y024315D03*
X032164Y024315D03*
X010911Y015128D03*
X010242Y015128D03*
X010146Y018312D03*
X009477Y018312D03*
D18*
X034350Y010674D03*
X035098Y010674D03*
X035098Y009651D03*
X034724Y009651D03*
X034350Y009651D03*
D19*
X024824Y018743D03*
X023824Y018843D03*
X022824Y018743D03*
X022824Y019843D03*
X023824Y019743D03*
X024824Y019843D03*
D20*
X009673Y017712D03*
X009673Y017212D03*
X009673Y016712D03*
X009673Y016212D03*
X007625Y016212D03*
X007625Y016712D03*
X007625Y017212D03*
X007625Y017712D03*
D21*
X007905Y018330D03*
X008593Y018330D03*
X017030Y013190D03*
X017718Y013190D03*
X027155Y018190D03*
X027843Y018190D03*
X032780Y017565D03*
X033468Y017565D03*
D22*
X033605Y023816D03*
X034393Y024190D03*
X033605Y024564D03*
X011470Y016253D03*
X010683Y016627D03*
X010683Y015879D03*
D23*
X012149Y018383D03*
X012149Y019053D03*
X030664Y017315D03*
X031334Y017315D03*
X031334Y016190D03*
X030664Y016190D03*
X033749Y013775D03*
X033749Y013106D03*
X035124Y024106D03*
X035124Y024775D03*
D24*
X033749Y012535D03*
X033749Y011846D03*
X013349Y018318D03*
X012724Y018318D03*
X012724Y019007D03*
X013349Y019007D03*
D25*
X011412Y018975D03*
X011412Y017636D03*
D26*
X010553Y020429D03*
X013033Y020429D03*
D27*
X018999Y013715D03*
X019874Y013715D03*
X019874Y012915D03*
X018999Y012915D03*
X032799Y014290D03*
X032799Y015090D03*
X035749Y010840D03*
X035749Y010040D03*
D28*
X036474Y009565D03*
X037274Y009565D03*
X022028Y016346D03*
X021228Y016346D03*
X031349Y029315D03*
X031349Y030065D03*
X032149Y030065D03*
X032149Y029315D03*
D29*
X032405Y031264D03*
X033192Y031264D03*
X033979Y031264D03*
X034767Y031264D03*
X035554Y031264D03*
X036342Y031264D03*
X037129Y031264D03*
X031617Y031264D03*
X030830Y031264D03*
X030042Y031264D03*
X030042Y022603D03*
X030830Y022603D03*
X031617Y022603D03*
X032405Y022603D03*
X033192Y022603D03*
X033979Y022603D03*
X034767Y022603D03*
X035554Y022603D03*
X036342Y022603D03*
X037129Y022603D03*
D30*
X003624Y021190D03*
X002624Y021190D03*
X002624Y020190D03*
X003624Y020190D03*
X003649Y019240D03*
X002649Y019240D03*
X002649Y018240D03*
X003649Y018240D03*
X003649Y017240D03*
X002649Y017240D03*
X002649Y016240D03*
X003649Y016240D03*
X003649Y015240D03*
X002649Y015240D03*
X002649Y014240D03*
X003649Y014240D03*
D31*
X024749Y026065D03*
X024749Y027065D03*
X024749Y028065D03*
D32*
X005597Y007936D03*
X005597Y009936D03*
X002941Y008936D03*
X024401Y007944D03*
X024401Y009944D03*
X027057Y008944D03*
D33*
X013124Y012565D03*
X013124Y005065D03*
D34*
X035424Y006440D02*
X036074Y006440D01*
X036074Y007440D02*
X035424Y007440D01*
X035424Y008440D02*
X036074Y008440D01*
D35*
X037749Y008440D03*
X037749Y006440D03*
D36*
X032874Y012264D03*
X032874Y013366D03*
X025999Y013514D03*
X025999Y014616D03*
D37*
X033089Y028680D03*
X033989Y028680D03*
X034889Y028680D03*
D38*
X033999Y026200D03*
D39*
X031989Y015315D02*
X031509Y015315D01*
X031509Y014315D02*
X031989Y014315D01*
X031989Y013315D02*
X031509Y013315D01*
X031509Y012315D02*
X031989Y012315D01*
X028989Y012315D02*
X028509Y012315D01*
X028509Y013315D02*
X028989Y013315D01*
X028989Y014315D02*
X028509Y014315D01*
X028509Y015315D02*
X028989Y015315D01*
D40*
X031499Y009744D03*
X031499Y005886D03*
D41*
X036468Y017160D03*
X037468Y017561D03*
X036468Y017963D03*
X036468Y018766D03*
X036468Y019569D03*
X037468Y019168D03*
X037468Y018364D03*
X037468Y019971D03*
D42*
X036468Y021764D03*
X036468Y015366D03*
D43*
X038374Y015636D03*
X038374Y021494D03*
D44*
X034334Y021190D03*
X034334Y020690D03*
X034334Y020190D03*
X034334Y019690D03*
X034334Y019190D03*
X034334Y018690D03*
X034334Y018190D03*
X031914Y018190D03*
X031914Y018690D03*
X031914Y019190D03*
X031914Y019690D03*
X031914Y020190D03*
X031914Y020690D03*
X031914Y021190D03*
X030959Y021190D03*
X030959Y020690D03*
X030959Y020190D03*
X030959Y019690D03*
X030959Y019190D03*
X030959Y018690D03*
X030959Y018190D03*
X028539Y018190D03*
X028539Y018690D03*
X028539Y019190D03*
X028539Y019690D03*
X028539Y020190D03*
X028539Y020690D03*
X028539Y021190D03*
D45*
X027624Y023440D03*
X027624Y024190D03*
X023874Y022565D03*
X023374Y023440D03*
X023374Y024190D03*
X019624Y020690D03*
X018999Y019315D03*
X019374Y018690D03*
X018249Y017815D03*
X018349Y017090D03*
X018349Y016340D03*
X020624Y014690D03*
X020624Y013940D03*
X018349Y012590D03*
X016124Y013065D03*
X015099Y013340D03*
X013249Y015440D03*
X013249Y016190D03*
X013249Y016940D03*
X012374Y017440D03*
X014249Y018940D03*
X016499Y019440D03*
X017249Y019440D03*
X012124Y021565D03*
X010124Y019440D03*
X006999Y018690D03*
X008124Y015440D03*
X008874Y015190D03*
X003244Y013574D03*
X022874Y016315D03*
X024874Y014815D03*
X027499Y016940D03*
X027874Y017565D03*
X032124Y017665D03*
X032949Y016940D03*
X034924Y016815D03*
X034374Y013115D03*
X031749Y011565D03*
X033749Y010565D03*
X038999Y009690D03*
X038999Y022940D03*
X036342Y023283D03*
X035749Y024190D03*
X033999Y025190D03*
X027749Y027815D03*
X033974Y030065D03*
X037124Y030065D03*
D46*
X034499Y012440D03*
X028499Y005940D03*
M02*
