G75*
G70*
%OFA0B0*%
%FSLAX24Y24*%
%IPPOS*%
%LPD*%
%AMOC8*
5,1,8,0,0,1.08239X$1,22.5*
%
%ADD10R,0.0591X0.0197*%
%ADD11R,0.0197X0.0591*%
%ADD12C,0.0480*%
%ADD13R,0.0984X0.0787*%
%ADD14R,0.1299X0.0787*%
%ADD15R,0.1220X0.0197*%
%ADD16R,0.0394X0.0433*%
%ADD17R,0.0217X0.0472*%
%ADD18C,0.0640*%
%ADD19R,0.0866X0.0236*%
%ADD20R,0.0413X0.0425*%
%ADD21R,0.0500X0.0394*%
%ADD22R,0.0433X0.0394*%
%ADD23R,0.0425X0.0413*%
%ADD24R,0.0709X0.0551*%
%ADD25R,0.0906X0.0630*%
%ADD26R,0.0512X0.0472*%
%ADD27R,0.0472X0.0512*%
%ADD28C,0.0500*%
%ADD29OC8,0.0591*%
%ADD30C,0.0600*%
%ADD31C,0.1080*%
%ADD32C,0.0650*%
%ADD33C,0.0660*%
%ADD34R,0.0709X0.0630*%
%ADD35R,0.0590X0.0790*%
%ADD36R,0.1500X0.0790*%
%ADD37C,0.0480*%
%ADD38R,0.2126X0.1575*%
%ADD39C,0.0560*%
%ADD40C,0.0945*%
%ADD41R,0.0800X0.0260*%
%ADD42C,0.0200*%
%ADD43OC8,0.0290*%
%ADD44C,0.0240*%
%ADD45C,0.0160*%
%ADD46OC8,0.0531*%
%ADD47C,0.0320*%
D10*
X014468Y014865D03*
X014468Y015180D03*
X014468Y015495D03*
X014468Y015810D03*
X014468Y016125D03*
X014468Y016440D03*
X014468Y016755D03*
X014468Y017070D03*
X014468Y017385D03*
X014468Y017700D03*
X014468Y018015D03*
X019035Y018015D03*
X019035Y017700D03*
X019035Y017385D03*
X019035Y017070D03*
X019035Y016755D03*
X019035Y016440D03*
X019035Y016125D03*
X019035Y015810D03*
X019035Y015495D03*
X019035Y015180D03*
X019035Y014865D03*
D11*
X018327Y014157D03*
X018012Y014157D03*
X017697Y014157D03*
X017382Y014157D03*
X017067Y014157D03*
X016752Y014157D03*
X016437Y014157D03*
X016122Y014157D03*
X015807Y014157D03*
X015492Y014157D03*
X015177Y014157D03*
X015177Y018724D03*
X015492Y018724D03*
X015807Y018724D03*
X016122Y018724D03*
X016437Y018724D03*
X016752Y018724D03*
X017067Y018724D03*
X017382Y018724D03*
X017697Y018724D03*
X018012Y018724D03*
X018327Y018724D03*
D12*
X017827Y020715D03*
X015927Y020715D03*
D13*
X039220Y014342D03*
X039220Y010838D03*
D14*
X036898Y010838D03*
X036898Y014342D03*
D15*
X036858Y013220D03*
X036858Y012905D03*
X036858Y012590D03*
X036858Y012275D03*
X036858Y011960D03*
D16*
X033971Y011118D03*
X033302Y011118D03*
X033942Y014790D03*
X033942Y015415D03*
X034611Y015415D03*
X034611Y014790D03*
X032834Y024315D03*
X032164Y024315D03*
X010911Y015128D03*
X010242Y015128D03*
X010146Y018312D03*
X009477Y018312D03*
D17*
X034350Y010674D03*
X035098Y010674D03*
X035098Y009651D03*
X034724Y009651D03*
X034350Y009651D03*
D18*
X024824Y018743D03*
X023824Y018843D03*
X022824Y018743D03*
X022824Y019843D03*
X023824Y019743D03*
X024824Y019843D03*
D19*
X009673Y017712D03*
X009673Y017212D03*
X009673Y016712D03*
X009673Y016212D03*
X007625Y016212D03*
X007625Y016712D03*
X007625Y017212D03*
X007625Y017712D03*
D20*
X007905Y018330D03*
X008593Y018330D03*
X017030Y013190D03*
X017718Y013190D03*
X027155Y018190D03*
X027843Y018190D03*
X032780Y017565D03*
X033468Y017565D03*
D21*
X033605Y023816D03*
X034393Y024190D03*
X033605Y024564D03*
X011470Y016253D03*
X010683Y016627D03*
X010683Y015879D03*
D22*
X012149Y018383D03*
X012149Y019053D03*
X030664Y017315D03*
X031334Y017315D03*
X031334Y016190D03*
X030664Y016190D03*
X033749Y013775D03*
X033749Y013106D03*
X035124Y024106D03*
X035124Y024775D03*
D23*
X033749Y012535D03*
X033749Y011846D03*
X013349Y018318D03*
X012724Y018318D03*
X012724Y019007D03*
X013349Y019007D03*
D24*
X011412Y018975D03*
X011412Y017636D03*
D25*
X010553Y020429D03*
X013033Y020429D03*
D26*
X018999Y013715D03*
X019874Y013715D03*
X019874Y012915D03*
X018999Y012915D03*
X032799Y014290D03*
X032799Y015090D03*
X035749Y010840D03*
X035749Y010040D03*
D27*
X036474Y009565D03*
X037274Y009565D03*
X022028Y016346D03*
X021228Y016346D03*
X031349Y029315D03*
X031349Y030065D03*
X032149Y030065D03*
X032149Y029315D03*
D28*
X032405Y031264D03*
X033192Y031264D03*
X033979Y031264D03*
X034767Y031264D03*
X035554Y031264D03*
X036342Y031264D03*
X037129Y031264D03*
X031617Y031264D03*
X030830Y031264D03*
X030042Y031264D03*
X030042Y022603D03*
X030830Y022603D03*
X031617Y022603D03*
X032405Y022603D03*
X033192Y022603D03*
X033979Y022603D03*
X034767Y022603D03*
X035554Y022603D03*
X036342Y022603D03*
X037129Y022603D03*
D29*
X003624Y021190D03*
X002624Y021190D03*
X002624Y020190D03*
X003624Y020190D03*
X003649Y019240D03*
X002649Y019240D03*
X002649Y018240D03*
X003649Y018240D03*
X003649Y017240D03*
X002649Y017240D03*
X002649Y016240D03*
X003649Y016240D03*
X003649Y015240D03*
X002649Y015240D03*
X002649Y014240D03*
X003649Y014240D03*
D30*
X024749Y026065D03*
X024749Y027065D03*
X024749Y028065D03*
D31*
X024401Y009944D03*
X024401Y007944D03*
X027057Y008944D03*
X005597Y009936D03*
X005597Y007936D03*
X002941Y008936D03*
D32*
X035424Y008440D02*
X036074Y008440D01*
X036074Y007440D02*
X035424Y007440D01*
X035424Y006440D02*
X036074Y006440D01*
D33*
X037749Y006440D03*
X037749Y008440D03*
D34*
X032874Y012264D03*
X032874Y013366D03*
X025999Y013514D03*
X025999Y014616D03*
D35*
X033089Y028680D03*
X033989Y028680D03*
X034889Y028680D03*
D36*
X033999Y026200D03*
D37*
X031989Y015315D02*
X031509Y015315D01*
X031509Y014315D02*
X031989Y014315D01*
X031989Y013315D02*
X031509Y013315D01*
X031509Y012315D02*
X031989Y012315D01*
X028989Y012315D02*
X028509Y012315D01*
X028509Y013315D02*
X028989Y013315D01*
X028989Y014315D02*
X028509Y014315D01*
X028509Y015315D02*
X028989Y015315D01*
D38*
X031499Y009744D03*
X031499Y005886D03*
D39*
X036468Y017160D03*
X037468Y017561D03*
X036468Y017963D03*
X036468Y018766D03*
X036468Y019569D03*
X037468Y019168D03*
X037468Y018364D03*
X037468Y019971D03*
D40*
X036468Y021764D03*
X036468Y015366D03*
D41*
X034334Y018190D03*
X034334Y018690D03*
X034334Y019190D03*
X034334Y019690D03*
X034334Y020190D03*
X034334Y020690D03*
X034334Y021190D03*
X031914Y021190D03*
X031914Y020690D03*
X031914Y020190D03*
X031914Y019690D03*
X031914Y019190D03*
X031914Y018690D03*
X031914Y018190D03*
X030959Y018190D03*
X030959Y018690D03*
X030959Y019190D03*
X030959Y019690D03*
X030959Y020190D03*
X030959Y020690D03*
X030959Y021190D03*
X028539Y021190D03*
X028539Y020690D03*
X028539Y020190D03*
X028539Y019690D03*
X028539Y019190D03*
X028539Y018690D03*
X028539Y018190D03*
D42*
X001059Y004793D02*
X001059Y032043D01*
X039809Y032043D01*
X039809Y014911D01*
X039790Y014922D01*
X039739Y014936D01*
X039317Y014936D01*
X039317Y014439D01*
X039124Y014439D01*
X039124Y014936D01*
X038702Y014936D01*
X038651Y014922D01*
X038605Y014896D01*
X038568Y014859D01*
X038542Y014813D01*
X038528Y014762D01*
X038528Y014439D01*
X039124Y014439D01*
X039124Y014245D01*
X039317Y014245D01*
X039317Y013749D01*
X039739Y013749D01*
X039790Y013762D01*
X039809Y013773D01*
X039809Y011407D01*
X039790Y011418D01*
X039739Y011432D01*
X039317Y011432D01*
X039317Y010935D01*
X039124Y010935D01*
X039124Y011432D01*
X038702Y011432D01*
X038651Y011418D01*
X038605Y011392D01*
X038568Y011355D01*
X038542Y011309D01*
X038528Y011258D01*
X038528Y010935D01*
X039124Y010935D01*
X039124Y010741D01*
X039317Y010741D01*
X039317Y010245D01*
X039739Y010245D01*
X039790Y010258D01*
X039809Y010269D01*
X039809Y004793D01*
X014783Y004793D01*
X014824Y005065D01*
X014748Y005566D01*
X014748Y005566D01*
X014529Y006023D01*
X014184Y006394D01*
X013745Y006648D01*
X013251Y006760D01*
X012746Y006723D01*
X012746Y006723D01*
X012274Y006537D01*
X011878Y006222D01*
X011878Y006222D01*
X011592Y005803D01*
X011443Y005319D01*
X011443Y004812D01*
X011449Y004793D01*
X001059Y004793D01*
X001059Y004955D02*
X011443Y004955D01*
X011443Y005153D02*
X001059Y005153D01*
X001059Y005352D02*
X011453Y005352D01*
X011514Y005550D02*
X001059Y005550D01*
X001059Y005749D02*
X011576Y005749D01*
X011592Y005803D02*
X011592Y005803D01*
X011691Y005947D02*
X001059Y005947D01*
X001059Y006146D02*
X011826Y006146D01*
X012032Y006344D02*
X001059Y006344D01*
X001059Y006543D02*
X012287Y006543D01*
X012274Y006537D02*
X012274Y006537D01*
X012994Y006741D02*
X006781Y006741D01*
X006781Y006688D02*
X006781Y011184D01*
X006699Y011266D01*
X006667Y011266D01*
X006663Y011270D01*
X002797Y011270D01*
X002715Y011188D01*
X002715Y011072D01*
X002715Y010830D01*
X001427Y010830D01*
X001345Y010748D01*
X001345Y007132D01*
X001427Y007050D01*
X001455Y007050D01*
X001459Y007046D01*
X002715Y007046D01*
X002715Y006692D01*
X002797Y006610D01*
X002825Y006610D01*
X002829Y006606D01*
X006699Y006606D01*
X006781Y006688D01*
X006781Y006940D02*
X021097Y006940D01*
X020898Y007138D02*
X006781Y007138D01*
X006781Y007337D02*
X020700Y007337D01*
X020501Y007535D02*
X006781Y007535D01*
X006781Y007734D02*
X020303Y007734D01*
X020104Y007932D02*
X006781Y007932D01*
X006781Y008131D02*
X019906Y008131D01*
X019707Y008329D02*
X006781Y008329D01*
X006781Y008528D02*
X019509Y008528D01*
X019310Y008726D02*
X006781Y008726D01*
X006781Y008925D02*
X019112Y008925D01*
X018913Y009123D02*
X006781Y009123D01*
X006781Y009322D02*
X018715Y009322D01*
X018516Y009520D02*
X006781Y009520D01*
X006781Y009719D02*
X018318Y009719D01*
X018119Y009917D02*
X006781Y009917D01*
X006781Y010116D02*
X017921Y010116D01*
X017722Y010314D02*
X006781Y010314D01*
X006781Y010513D02*
X017524Y010513D01*
X017325Y010711D02*
X006781Y010711D01*
X006781Y010910D02*
X012741Y010910D01*
X012746Y010908D02*
X012746Y010908D01*
X013251Y010870D01*
X013251Y010870D01*
X013745Y010983D01*
X013745Y010983D01*
X014184Y011236D01*
X014184Y011236D01*
X014184Y011236D01*
X014529Y011608D01*
X014748Y012064D01*
X014824Y012565D01*
X014748Y013066D01*
X014748Y013066D01*
X014529Y013523D01*
X014184Y013894D01*
X013745Y014148D01*
X013251Y014260D01*
X012746Y014223D01*
X012746Y014223D01*
X012274Y014037D01*
X011878Y013722D01*
X011878Y013722D01*
X011878Y013722D01*
X011592Y013303D01*
X011443Y012819D01*
X011443Y012312D01*
X011592Y011828D01*
X011878Y011409D01*
X012274Y011093D01*
X012274Y011093D01*
X012746Y010908D01*
X012255Y011108D02*
X006781Y011108D01*
X006465Y010986D02*
X006465Y006890D01*
X003027Y006890D01*
X003027Y007244D01*
X002945Y007326D01*
X002917Y007326D01*
X002913Y007330D01*
X001657Y007330D01*
X001657Y010546D01*
X002945Y010546D01*
X003027Y010628D01*
X003027Y010986D01*
X006465Y010986D01*
X006465Y010910D02*
X003027Y010910D01*
X003027Y010711D02*
X006465Y010711D01*
X006465Y010513D02*
X006096Y010513D01*
X006028Y010581D02*
X005749Y010696D01*
X005446Y010696D01*
X005167Y010581D01*
X004953Y010367D01*
X004837Y010087D01*
X004837Y009785D01*
X004953Y009506D01*
X005167Y009292D01*
X005446Y009176D01*
X005749Y009176D01*
X006028Y009292D01*
X006242Y009506D01*
X006357Y009785D01*
X006357Y010087D01*
X006242Y010367D01*
X006028Y010581D01*
X006263Y010314D02*
X006465Y010314D01*
X006465Y010116D02*
X006346Y010116D01*
X006357Y009917D02*
X006465Y009917D01*
X006465Y009719D02*
X006330Y009719D01*
X006248Y009520D02*
X006465Y009520D01*
X006465Y009322D02*
X006058Y009322D01*
X006465Y009123D02*
X003657Y009123D01*
X003668Y009081D02*
X003643Y009175D01*
X003606Y009264D01*
X003557Y009348D01*
X003498Y009425D01*
X003430Y009494D01*
X003353Y009553D01*
X003269Y009601D01*
X003179Y009639D01*
X003085Y009664D01*
X003021Y009672D01*
X003021Y009016D01*
X003677Y009016D01*
X003668Y009081D01*
X003677Y008856D02*
X003021Y008856D01*
X003021Y009016D01*
X002861Y009016D01*
X002861Y008856D01*
X003021Y008856D01*
X003021Y008200D01*
X003085Y008209D01*
X003179Y008234D01*
X003269Y008271D01*
X003353Y008320D01*
X003430Y008379D01*
X003498Y008447D01*
X003557Y008524D01*
X003606Y008608D01*
X003643Y008698D01*
X003668Y008792D01*
X003677Y008856D01*
X003651Y008726D02*
X006465Y008726D01*
X006465Y008528D02*
X006081Y008528D01*
X006028Y008581D02*
X005749Y008696D01*
X005446Y008696D01*
X005167Y008581D01*
X004953Y008367D01*
X004837Y008087D01*
X004837Y007785D01*
X004953Y007506D01*
X005167Y007292D01*
X005446Y007176D01*
X005749Y007176D01*
X006028Y007292D01*
X006242Y007506D01*
X006357Y007785D01*
X006357Y008087D01*
X006242Y008367D01*
X006028Y008581D01*
X006257Y008329D02*
X006465Y008329D01*
X006465Y008131D02*
X006340Y008131D01*
X006357Y007932D02*
X006465Y007932D01*
X006465Y007734D02*
X006336Y007734D01*
X006254Y007535D02*
X006465Y007535D01*
X006465Y007337D02*
X006073Y007337D01*
X006465Y007138D02*
X003027Y007138D01*
X003027Y006940D02*
X006465Y006940D01*
X005122Y007337D02*
X001657Y007337D01*
X001657Y007535D02*
X004941Y007535D01*
X004859Y007734D02*
X001657Y007734D01*
X001657Y007932D02*
X004837Y007932D01*
X004855Y008131D02*
X001657Y008131D01*
X001657Y008329D02*
X002516Y008329D01*
X002529Y008320D02*
X002613Y008271D01*
X002702Y008234D01*
X002796Y008209D01*
X002861Y008200D01*
X002861Y008856D01*
X002205Y008856D01*
X002213Y008792D01*
X002239Y008698D01*
X002276Y008608D01*
X002324Y008524D01*
X002383Y008447D01*
X002452Y008379D01*
X002529Y008320D01*
X002322Y008528D02*
X001657Y008528D01*
X001657Y008726D02*
X002231Y008726D01*
X002205Y009016D02*
X002861Y009016D01*
X002861Y009672D01*
X002796Y009664D01*
X002702Y009639D01*
X002613Y009601D01*
X002529Y009553D01*
X002452Y009494D01*
X002383Y009425D01*
X002324Y009348D01*
X002276Y009264D01*
X002239Y009175D01*
X002213Y009081D01*
X002205Y009016D01*
X002225Y009123D02*
X001657Y009123D01*
X001657Y008925D02*
X002861Y008925D01*
X003021Y008925D02*
X006465Y008925D01*
X005137Y009322D02*
X003573Y009322D01*
X003395Y009520D02*
X004947Y009520D01*
X004865Y009719D02*
X001657Y009719D01*
X001657Y009917D02*
X004837Y009917D01*
X004849Y010116D02*
X001657Y010116D01*
X001657Y010314D02*
X004931Y010314D01*
X005099Y010513D02*
X001657Y010513D01*
X001345Y010513D02*
X001059Y010513D01*
X001059Y010711D02*
X001345Y010711D01*
X001059Y010910D02*
X002715Y010910D01*
X002715Y011108D02*
X001059Y011108D01*
X001059Y011307D02*
X012006Y011307D01*
X011878Y011409D02*
X011878Y011409D01*
X011878Y011409D01*
X011812Y011505D02*
X001059Y011505D01*
X001059Y011704D02*
X011677Y011704D01*
X011592Y011828D02*
X011592Y011828D01*
X011569Y011902D02*
X001059Y011902D01*
X001059Y012101D02*
X011508Y012101D01*
X011447Y012299D02*
X001059Y012299D01*
X001059Y012498D02*
X011443Y012498D01*
X011443Y012696D02*
X001059Y012696D01*
X001059Y012895D02*
X011466Y012895D01*
X011528Y013093D02*
X001059Y013093D01*
X001059Y013292D02*
X011589Y013292D01*
X011592Y013303D02*
X011592Y013303D01*
X011720Y013490D02*
X001059Y013490D01*
X001059Y013689D02*
X011855Y013689D01*
X012086Y013887D02*
X003996Y013887D01*
X003854Y013745D02*
X004144Y014035D01*
X004144Y014240D01*
X003649Y014240D01*
X003649Y013745D01*
X003649Y014240D01*
X003649Y014240D01*
X003649Y014240D01*
X004144Y014240D01*
X004144Y014445D01*
X003864Y014726D01*
X004164Y015027D01*
X004164Y015454D01*
X003864Y015754D01*
X004144Y016035D01*
X004144Y016240D01*
X003649Y016240D01*
X003649Y016240D01*
X003154Y016240D01*
X003154Y016035D01*
X003434Y015754D01*
X003149Y015469D01*
X002864Y015754D01*
X003144Y016035D01*
X003144Y016240D01*
X002649Y016240D01*
X002154Y016240D01*
X002154Y016035D01*
X002434Y015754D01*
X002134Y015454D01*
X002134Y015027D01*
X002420Y014740D01*
X002134Y014454D01*
X002134Y014027D01*
X002436Y013725D01*
X002862Y013725D01*
X003163Y014026D01*
X003444Y013745D01*
X003649Y013745D01*
X003854Y013745D01*
X003649Y013887D02*
X003649Y013887D01*
X003649Y014086D02*
X003649Y014086D01*
X003302Y013887D02*
X003025Y013887D01*
X002273Y013887D02*
X001059Y013887D01*
X001059Y014086D02*
X002134Y014086D01*
X002134Y014284D02*
X001059Y014284D01*
X001059Y014483D02*
X002163Y014483D01*
X002361Y014681D02*
X001059Y014681D01*
X001059Y014880D02*
X002281Y014880D01*
X002134Y015078D02*
X001059Y015078D01*
X001059Y015277D02*
X002134Y015277D01*
X002155Y015475D02*
X001059Y015475D01*
X001059Y015674D02*
X002354Y015674D01*
X002317Y015872D02*
X001059Y015872D01*
X001059Y016071D02*
X002154Y016071D01*
X002154Y016240D02*
X002649Y016240D01*
X002649Y016240D01*
X002649Y016240D01*
X003144Y016240D01*
X003144Y016445D01*
X002864Y016726D01*
X003149Y017012D01*
X003434Y016726D01*
X003154Y016445D01*
X003154Y016240D01*
X003649Y016240D01*
X003649Y016240D01*
X004144Y016240D01*
X004144Y016445D01*
X003864Y016726D01*
X004164Y017027D01*
X004164Y017454D01*
X003864Y017754D01*
X004144Y018035D01*
X004144Y018240D01*
X003649Y018240D01*
X003649Y018240D01*
X003154Y018240D01*
X003154Y018035D01*
X003434Y017754D01*
X003149Y017469D01*
X002864Y017754D01*
X003144Y018035D01*
X003144Y018240D01*
X002649Y018240D01*
X002154Y018240D01*
X002154Y018035D01*
X002434Y017754D01*
X002134Y017454D01*
X002134Y017027D01*
X002434Y016726D01*
X002154Y016445D01*
X002154Y016240D01*
X002154Y016269D02*
X001059Y016269D01*
X001059Y016468D02*
X002176Y016468D01*
X002375Y016666D02*
X001059Y016666D01*
X001059Y016865D02*
X002296Y016865D01*
X002134Y017063D02*
X001059Y017063D01*
X001059Y017262D02*
X002134Y017262D01*
X002140Y017460D02*
X001059Y017460D01*
X001059Y017659D02*
X002339Y017659D01*
X002332Y017857D02*
X001059Y017857D01*
X001059Y018056D02*
X002154Y018056D01*
X002154Y018240D02*
X002649Y018240D01*
X002649Y018240D01*
X002649Y018240D01*
X003144Y018240D01*
X003144Y018445D01*
X002864Y018726D01*
X003149Y019012D01*
X003434Y018726D01*
X003154Y018445D01*
X003154Y018240D01*
X003649Y018240D01*
X003649Y018240D01*
X004144Y018240D01*
X004144Y018445D01*
X003864Y018726D01*
X004164Y019027D01*
X004164Y019454D01*
X003876Y019742D01*
X004119Y019985D01*
X004119Y020190D01*
X003624Y020190D01*
X003624Y020190D01*
X003129Y020190D01*
X003129Y019985D01*
X003397Y019717D01*
X003149Y019469D01*
X002876Y019742D01*
X003119Y019985D01*
X003119Y020190D01*
X002624Y020190D01*
X002129Y020190D01*
X002129Y019985D01*
X002397Y019717D01*
X002134Y019454D01*
X002134Y019027D01*
X002434Y018726D01*
X002154Y018445D01*
X002154Y018240D01*
X002154Y018254D02*
X001059Y018254D01*
X001059Y018453D02*
X002161Y018453D01*
X002360Y018651D02*
X001059Y018651D01*
X001059Y018850D02*
X002311Y018850D01*
X002134Y019048D02*
X001059Y019048D01*
X001059Y019247D02*
X002134Y019247D01*
X002134Y019445D02*
X001059Y019445D01*
X001059Y019644D02*
X002324Y019644D01*
X002272Y019842D02*
X001059Y019842D01*
X001059Y020041D02*
X002129Y020041D01*
X002129Y020190D02*
X002624Y020190D01*
X002624Y020190D01*
X002624Y020190D01*
X003119Y020190D01*
X003119Y020395D01*
X002839Y020676D01*
X003124Y020962D01*
X003409Y020676D01*
X003129Y020395D01*
X003129Y020190D01*
X003624Y020190D01*
X003624Y020190D01*
X004119Y020190D01*
X004119Y020395D01*
X003839Y020676D01*
X004139Y020977D01*
X004139Y021404D01*
X003837Y021706D01*
X003411Y021706D01*
X003124Y021419D01*
X002837Y021706D01*
X002411Y021706D01*
X002109Y021404D01*
X002109Y020977D01*
X002409Y020676D01*
X002129Y020395D01*
X002129Y020190D01*
X002129Y020239D02*
X001059Y020239D01*
X001059Y020438D02*
X002171Y020438D01*
X002370Y020636D02*
X001059Y020636D01*
X001059Y020835D02*
X002251Y020835D01*
X002109Y021033D02*
X001059Y021033D01*
X001059Y021232D02*
X002109Y021232D01*
X002135Y021430D02*
X001059Y021430D01*
X001059Y021629D02*
X002334Y021629D01*
X002914Y021629D02*
X003334Y021629D01*
X003135Y021430D02*
X003113Y021430D01*
X003914Y021629D02*
X009485Y021629D01*
X009683Y021827D02*
X001059Y021827D01*
X001059Y022026D02*
X009882Y022026D01*
X010080Y022224D02*
X001059Y022224D01*
X001059Y022423D02*
X010279Y022423D01*
X010477Y022621D02*
X001059Y022621D01*
X001059Y022820D02*
X023612Y022820D01*
X023553Y022760D02*
X023723Y022930D01*
X024025Y022930D01*
X024239Y022716D01*
X024239Y022414D01*
X024210Y022385D01*
X026991Y022385D01*
X027681Y023075D01*
X027473Y023075D01*
X027428Y023120D01*
X023570Y023120D01*
X023525Y023075D01*
X023223Y023075D01*
X023009Y023289D01*
X023009Y023591D01*
X023223Y023805D01*
X023525Y023805D01*
X023570Y023760D01*
X027428Y023760D01*
X027473Y023805D01*
X027775Y023805D01*
X027989Y023591D01*
X027989Y023383D01*
X029103Y024497D01*
X029193Y024587D01*
X029310Y024635D01*
X031760Y024635D01*
X031876Y024752D01*
X032452Y024752D01*
X032499Y024705D01*
X032546Y024752D01*
X032818Y024752D01*
X032901Y024836D01*
X033019Y024884D01*
X033167Y024884D01*
X033264Y024981D01*
X033946Y024981D01*
X034075Y024852D01*
X034075Y024607D01*
X034687Y024607D01*
X034687Y025063D01*
X034804Y025179D01*
X034804Y025585D01*
X033158Y025585D01*
X033029Y025714D01*
X033029Y026686D01*
X033158Y026815D01*
X034671Y026815D01*
X033818Y027669D01*
X033728Y027759D01*
X033679Y027877D01*
X033679Y028065D01*
X033603Y028065D01*
X033539Y028129D01*
X033475Y028065D01*
X032703Y028065D01*
X032574Y028194D01*
X032574Y028360D01*
X028747Y028360D01*
X028114Y027728D01*
X028114Y027664D01*
X027900Y027450D01*
X027598Y027450D01*
X027384Y027664D01*
X027384Y027966D01*
X027598Y028180D01*
X027661Y028180D01*
X028433Y028952D01*
X028550Y029000D01*
X030922Y029000D01*
X030913Y029033D01*
X030913Y029297D01*
X031331Y029297D01*
X031331Y029333D01*
X030913Y029333D01*
X030913Y029597D01*
X030926Y029648D01*
X030951Y029690D01*
X030926Y029732D01*
X030913Y029783D01*
X030913Y030047D01*
X031331Y030047D01*
X031367Y030047D01*
X031367Y029609D01*
X031367Y029333D01*
X031331Y029333D01*
X031331Y030047D01*
X031331Y030083D01*
X030913Y030083D01*
X030913Y030347D01*
X030926Y030398D01*
X030953Y030444D01*
X030990Y030481D01*
X031036Y030508D01*
X031086Y030521D01*
X031331Y030521D01*
X031331Y030083D01*
X031367Y030083D01*
X031367Y030521D01*
X031612Y030521D01*
X031662Y030508D01*
X031708Y030481D01*
X031735Y030454D01*
X031822Y030541D01*
X032476Y030541D01*
X032605Y030412D01*
X032605Y030385D01*
X033778Y030385D01*
X033823Y030430D01*
X034125Y030430D01*
X034170Y030385D01*
X036928Y030385D01*
X036973Y030430D01*
X037275Y030430D01*
X037489Y030216D01*
X037489Y029914D01*
X037275Y029700D01*
X036973Y029700D01*
X036928Y029745D01*
X034309Y029745D01*
X034309Y029295D01*
X034375Y029295D01*
X034453Y029217D01*
X034471Y029235D01*
X034517Y029262D01*
X034568Y029275D01*
X034842Y029275D01*
X034842Y028728D01*
X034937Y028728D01*
X035384Y028728D01*
X035384Y029102D01*
X035370Y029152D01*
X035344Y029198D01*
X035307Y029235D01*
X035261Y029262D01*
X035210Y029275D01*
X034937Y029275D01*
X034937Y028728D01*
X034937Y028633D01*
X035384Y028633D01*
X035384Y028259D01*
X035370Y028208D01*
X035344Y028162D01*
X035307Y028125D01*
X035261Y028099D01*
X035210Y028085D01*
X034937Y028085D01*
X034937Y028633D01*
X034842Y028633D01*
X034842Y028085D01*
X034568Y028085D01*
X034517Y028099D01*
X034471Y028125D01*
X034453Y028143D01*
X034375Y028065D01*
X034327Y028065D01*
X035395Y026997D01*
X035444Y026879D01*
X035444Y025179D01*
X035561Y025063D01*
X035561Y024518D01*
X035598Y024555D01*
X035900Y024555D01*
X036114Y024341D01*
X036114Y024039D01*
X035900Y023825D01*
X035824Y023825D01*
X035728Y023786D01*
X035529Y023786D01*
X035432Y023689D01*
X034816Y023689D01*
X034732Y023773D01*
X034055Y023773D01*
X034055Y023603D01*
X036145Y023603D01*
X036190Y023648D01*
X036493Y023648D01*
X036707Y023434D01*
X036707Y023132D01*
X036585Y023010D01*
X036608Y023001D01*
X036735Y022874D01*
X036863Y023001D01*
X037035Y023073D01*
X037222Y023073D01*
X037395Y023001D01*
X037527Y022869D01*
X037599Y022696D01*
X037599Y022509D01*
X037527Y022336D01*
X037395Y022204D01*
X037222Y022133D01*
X037035Y022133D01*
X037031Y022134D01*
X037073Y022062D01*
X037107Y021981D01*
X037129Y021896D01*
X037139Y021822D01*
X036526Y021822D01*
X036526Y021707D01*
X037139Y021707D01*
X037129Y021633D01*
X037107Y021547D01*
X037073Y021466D01*
X037029Y021390D01*
X036975Y021320D01*
X036913Y021257D01*
X036843Y021204D01*
X036767Y021160D01*
X036685Y021126D01*
X036600Y021103D01*
X036526Y021093D01*
X036526Y021707D01*
X036411Y021707D01*
X035798Y021707D01*
X035808Y021633D01*
X035830Y021547D01*
X035864Y021466D01*
X035908Y021390D01*
X035962Y021320D01*
X036024Y021257D01*
X036094Y021204D01*
X036170Y021160D01*
X036252Y021126D01*
X036337Y021103D01*
X036411Y021093D01*
X036411Y021707D01*
X036411Y021822D01*
X035798Y021822D01*
X035808Y021896D01*
X035830Y021981D01*
X035864Y022062D01*
X035908Y022138D01*
X035962Y022208D01*
X036016Y022263D01*
X035948Y022332D01*
X035820Y022204D01*
X035648Y022133D01*
X035461Y022133D01*
X035288Y022204D01*
X035160Y022332D01*
X035033Y022204D01*
X034860Y022133D01*
X034673Y022133D01*
X034500Y022204D01*
X034373Y022332D01*
X034246Y022204D01*
X034073Y022133D01*
X033886Y022133D01*
X033713Y022204D01*
X033586Y022332D01*
X033458Y022204D01*
X033335Y022153D01*
X033794Y021695D01*
X033878Y021610D01*
X033916Y021520D01*
X034334Y021520D01*
X034334Y021190D01*
X034334Y021040D01*
X034334Y021190D01*
X034334Y021190D01*
X034334Y021190D01*
X034934Y021190D01*
X034934Y021034D01*
X034920Y020983D01*
X034906Y020959D01*
X034954Y020911D01*
X034954Y020469D01*
X034906Y020422D01*
X034920Y020397D01*
X034934Y020347D01*
X034934Y020190D01*
X034334Y020190D01*
X034334Y019860D01*
X034334Y019690D01*
X034334Y019690D01*
X034934Y019690D01*
X034934Y019534D01*
X034920Y019483D01*
X034906Y019459D01*
X034954Y019411D01*
X034954Y018969D01*
X034925Y018940D01*
X034954Y018911D01*
X034954Y018469D01*
X034941Y018456D01*
X034969Y018445D01*
X035053Y018360D01*
X035178Y018235D01*
X035224Y018125D01*
X035224Y017031D01*
X035289Y016966D01*
X035289Y016664D01*
X035075Y016450D01*
X034773Y016450D01*
X034559Y016664D01*
X034559Y016966D01*
X034624Y017031D01*
X034624Y017840D01*
X033866Y017840D01*
X033875Y017804D01*
X033875Y017569D01*
X033472Y017569D01*
X033465Y017569D01*
X033465Y017978D01*
X033235Y017978D01*
X033185Y017964D01*
X033139Y017938D01*
X033138Y017937D01*
X033077Y017998D01*
X033068Y017998D01*
X033034Y018080D01*
X033003Y018110D01*
X033003Y018110D01*
X032919Y018195D01*
X032669Y018445D01*
X032559Y018490D01*
X032502Y018490D01*
X032514Y018534D01*
X032514Y018690D01*
X031914Y018690D01*
X031914Y018690D01*
X032514Y018690D01*
X032514Y018847D01*
X032500Y018897D01*
X032476Y018940D01*
X032500Y018983D01*
X032514Y019034D01*
X032514Y019190D01*
X031914Y019190D01*
X031914Y018860D01*
X031914Y018690D01*
X031914Y019190D01*
X031914Y019190D01*
X031314Y019190D01*
X030959Y019190D01*
X030959Y019190D01*
X030359Y019190D01*
X030359Y019034D01*
X030370Y018994D01*
X030299Y019065D01*
X030299Y021316D01*
X030370Y021387D01*
X030359Y021347D01*
X030359Y021190D01*
X030359Y021034D01*
X030373Y020983D01*
X030387Y020959D01*
X030339Y020911D01*
X030339Y020469D01*
X030387Y020422D01*
X030373Y020397D01*
X030359Y020347D01*
X030359Y020190D01*
X030359Y020034D01*
X030373Y019983D01*
X030387Y019959D01*
X030339Y019911D01*
X030339Y019469D01*
X030387Y019422D01*
X030373Y019397D01*
X030359Y019347D01*
X030359Y019190D01*
X030959Y019190D01*
X030959Y019190D01*
X031914Y019190D01*
X031914Y019190D01*
X031914Y019190D01*
X032514Y019190D01*
X032514Y019347D01*
X032500Y019397D01*
X032486Y019422D01*
X032534Y019469D01*
X032534Y019911D01*
X032486Y019959D01*
X032500Y019983D01*
X032514Y020034D01*
X032514Y020190D01*
X031914Y020190D01*
X031314Y020190D01*
X030959Y020190D01*
X030959Y020190D01*
X030359Y020190D01*
X030959Y020190D01*
X030959Y020190D01*
X031914Y020190D01*
X031914Y020190D01*
X031914Y020190D01*
X032514Y020190D01*
X032514Y020347D01*
X032500Y020397D01*
X032476Y020440D01*
X032500Y020483D01*
X032514Y020534D01*
X032514Y020690D01*
X031914Y020690D01*
X031914Y020360D01*
X031914Y020190D01*
X031914Y020690D01*
X031914Y020690D01*
X031914Y020690D01*
X032514Y020690D01*
X032514Y020847D01*
X032500Y020897D01*
X032486Y020922D01*
X032534Y020969D01*
X032534Y021390D01*
X032750Y021390D01*
X032949Y021191D01*
X032949Y018756D01*
X032995Y018645D01*
X033079Y018561D01*
X033204Y018436D01*
X033314Y018390D01*
X033714Y018390D01*
X033714Y017974D01*
X033702Y017978D01*
X033472Y017978D01*
X033472Y017569D01*
X033472Y017562D01*
X033875Y017562D01*
X033875Y017326D01*
X033862Y017275D01*
X033835Y017230D01*
X033798Y017193D01*
X033752Y017166D01*
X033702Y017153D01*
X033472Y017153D01*
X033472Y017562D01*
X033465Y017562D01*
X033465Y017153D01*
X033253Y017153D01*
X033314Y017091D01*
X033314Y016789D01*
X033100Y016575D01*
X033067Y016575D01*
X033790Y015852D01*
X034230Y015852D01*
X034277Y015805D01*
X034323Y015852D01*
X034899Y015852D01*
X035028Y015723D01*
X035028Y015708D01*
X035080Y015687D01*
X035170Y015597D01*
X036048Y014719D01*
X036048Y014762D01*
X036062Y014813D01*
X036069Y014826D01*
X036024Y014860D01*
X035962Y014922D01*
X035908Y014992D01*
X035864Y015068D01*
X035830Y015150D01*
X035808Y015235D01*
X035798Y015309D01*
X036411Y015309D01*
X036411Y015424D01*
X036411Y016037D01*
X036337Y016027D01*
X036252Y016005D01*
X036170Y015971D01*
X036094Y015927D01*
X036024Y015873D01*
X035962Y015811D01*
X035908Y015741D01*
X035864Y015664D01*
X035830Y015583D01*
X035808Y015498D01*
X035798Y015424D01*
X036411Y015424D01*
X036526Y015424D01*
X036526Y016037D01*
X036600Y016027D01*
X036685Y016005D01*
X036767Y015971D01*
X036843Y015927D01*
X036913Y015873D01*
X036975Y015811D01*
X037029Y015741D01*
X037073Y015664D01*
X037107Y015583D01*
X037129Y015498D01*
X037139Y015424D01*
X036526Y015424D01*
X036526Y015309D01*
X037139Y015309D01*
X037129Y015235D01*
X037107Y015150D01*
X037073Y015068D01*
X037029Y014992D01*
X036975Y014922D01*
X036913Y014860D01*
X036843Y014806D01*
X036801Y014782D01*
X036801Y014439D01*
X036994Y014439D01*
X036994Y014936D01*
X037573Y014936D01*
X037624Y014922D01*
X037670Y014896D01*
X037707Y014859D01*
X037734Y014813D01*
X037747Y014762D01*
X037747Y014439D01*
X036994Y014439D01*
X036994Y014245D01*
X036994Y013749D01*
X037573Y013749D01*
X037624Y013762D01*
X037670Y013788D01*
X037707Y013826D01*
X037734Y013871D01*
X037747Y013922D01*
X037747Y014245D01*
X036994Y014245D01*
X036801Y014245D01*
X036801Y013749D01*
X036222Y013749D01*
X036194Y013756D01*
X036194Y013511D01*
X036222Y013519D01*
X036858Y013519D01*
X036858Y013224D01*
X036858Y013224D01*
X036858Y013519D01*
X037495Y013519D01*
X037546Y013505D01*
X037591Y013479D01*
X037612Y013458D01*
X037612Y013541D01*
X037677Y013698D01*
X037797Y013819D01*
X037954Y013884D01*
X038124Y013884D01*
X038281Y013819D01*
X038401Y013698D01*
X038466Y013541D01*
X038466Y013371D01*
X038401Y013214D01*
X038281Y013094D01*
X038124Y013029D01*
X037954Y013029D01*
X037797Y013094D01*
X037677Y013214D01*
X037668Y013235D01*
X037668Y013220D01*
X037563Y013220D01*
X037563Y013220D01*
X037668Y013220D01*
X037668Y013115D01*
X037688Y013095D01*
X037688Y011977D01*
X037797Y012086D01*
X037954Y012151D01*
X038124Y012151D01*
X038281Y012086D01*
X038401Y011966D01*
X038466Y011809D01*
X038466Y011639D01*
X038401Y011482D01*
X038281Y011362D01*
X038124Y011297D01*
X037954Y011297D01*
X037797Y011362D01*
X037677Y011482D01*
X037612Y011639D01*
X037612Y011694D01*
X037560Y011642D01*
X036926Y011642D01*
X036922Y011640D01*
X035290Y011640D01*
X035173Y011689D01*
X034943Y011919D01*
X034853Y012009D01*
X034839Y012042D01*
X034839Y011706D01*
X035325Y011220D01*
X035402Y011296D01*
X036058Y011296D01*
X036062Y011309D01*
X036088Y011355D01*
X036125Y011392D01*
X036171Y011418D01*
X036222Y011432D01*
X036801Y011432D01*
X036801Y010935D01*
X036994Y010935D01*
X036994Y011432D01*
X037573Y011432D01*
X037624Y011418D01*
X037670Y011392D01*
X037707Y011355D01*
X037734Y011309D01*
X037747Y011258D01*
X037747Y010935D01*
X036994Y010935D01*
X036994Y010741D01*
X036994Y010245D01*
X037573Y010245D01*
X037624Y010258D01*
X037670Y010285D01*
X037707Y010322D01*
X037734Y010367D01*
X037747Y010418D01*
X037747Y010741D01*
X036994Y010741D01*
X036801Y010741D01*
X036801Y010245D01*
X036222Y010245D01*
X036205Y010249D01*
X036205Y010058D01*
X035767Y010058D01*
X035767Y010022D01*
X035767Y009604D01*
X036018Y009604D01*
X036018Y009405D01*
X035426Y009405D01*
X035426Y009615D01*
X035467Y009604D01*
X035731Y009604D01*
X035731Y010022D01*
X035767Y010022D01*
X036128Y010022D01*
X036147Y010041D01*
X036801Y010041D01*
X036888Y009954D01*
X036915Y009981D01*
X036961Y010008D01*
X037011Y010021D01*
X037256Y010021D01*
X037256Y009583D01*
X037292Y009583D01*
X037710Y009583D01*
X037710Y009847D01*
X037697Y009898D01*
X037670Y009944D01*
X037633Y009981D01*
X037587Y010008D01*
X037537Y010021D01*
X037292Y010021D01*
X037292Y009583D01*
X037292Y009547D01*
X037292Y009109D01*
X037537Y009109D01*
X037587Y009123D01*
X037633Y009149D01*
X037670Y009187D01*
X037697Y009232D01*
X037710Y009283D01*
X037710Y009547D01*
X037292Y009547D01*
X037256Y009547D01*
X037256Y009109D01*
X037011Y009109D01*
X036961Y009123D01*
X036915Y009149D01*
X036888Y009176D01*
X036816Y009104D01*
X036817Y009103D01*
X036912Y009008D01*
X036964Y008883D01*
X036964Y007498D01*
X036912Y007373D01*
X036787Y007248D01*
X036692Y007152D01*
X036567Y007100D01*
X036504Y007100D01*
X036382Y006978D01*
X036290Y006940D01*
X036382Y006902D01*
X036536Y006749D01*
X036619Y006549D01*
X036619Y006332D01*
X036536Y006132D01*
X036382Y005978D01*
X036182Y005895D01*
X035316Y005895D01*
X035116Y005978D01*
X034962Y006132D01*
X034879Y006332D01*
X034879Y006549D01*
X034962Y006749D01*
X035116Y006902D01*
X035208Y006940D01*
X035116Y006978D01*
X034962Y007132D01*
X034879Y007332D01*
X034879Y007549D01*
X034962Y007749D01*
X035116Y007902D01*
X035208Y007940D01*
X035116Y007978D01*
X035034Y008060D01*
X034906Y008060D01*
X034879Y008033D01*
X034879Y006365D01*
X034821Y006225D01*
X034571Y005975D01*
X034464Y005868D01*
X034325Y005810D01*
X032782Y005810D01*
X032782Y005008D01*
X032653Y004879D01*
X030345Y004879D01*
X030216Y005008D01*
X030216Y006765D01*
X030345Y006894D01*
X032653Y006894D01*
X032782Y006765D01*
X032782Y006570D01*
X034092Y006570D01*
X034119Y006598D01*
X034119Y008266D01*
X034177Y008405D01*
X034284Y008512D01*
X034284Y008512D01*
X034534Y008762D01*
X034673Y008820D01*
X035013Y008820D01*
X034961Y008873D01*
X034961Y008873D01*
X034810Y009024D01*
X034758Y009149D01*
X034758Y009214D01*
X034724Y009214D01*
X034724Y009651D01*
X034724Y010087D01*
X034670Y010087D01*
X034670Y010153D01*
X034621Y010271D01*
X034612Y010280D01*
X034678Y010347D01*
X034678Y010578D01*
X034690Y010607D01*
X034690Y010807D01*
X034678Y010835D01*
X034678Y010905D01*
X034758Y010825D01*
X034758Y010607D01*
X034770Y010578D01*
X034770Y010347D01*
X034899Y010218D01*
X035293Y010218D01*
X035293Y010107D01*
X034899Y010107D01*
X034874Y010083D01*
X034859Y010087D01*
X034724Y010087D01*
X034724Y009651D01*
X034724Y009651D01*
X034724Y009214D01*
X034589Y009214D01*
X034574Y009219D01*
X034549Y009194D01*
X034151Y009194D01*
X034022Y009323D01*
X034022Y009965D01*
X033786Y010200D01*
X033598Y010200D01*
X033384Y010414D01*
X033384Y010701D01*
X033302Y010701D01*
X033302Y011118D01*
X033302Y011118D01*
X033302Y011535D01*
X033366Y011535D01*
X033350Y011562D01*
X033336Y011613D01*
X033336Y011746D01*
X033319Y011729D01*
X032429Y011729D01*
X032300Y011858D01*
X032300Y012004D01*
X032276Y011980D01*
X032220Y011939D01*
X032158Y011907D01*
X032092Y011886D01*
X032024Y011875D01*
X031749Y011875D01*
X031749Y012315D01*
X031749Y012315D01*
X031749Y011875D01*
X031474Y011875D01*
X031406Y011886D01*
X031340Y011907D01*
X031278Y011939D01*
X031222Y011980D01*
X031173Y012029D01*
X031133Y012085D01*
X031101Y012146D01*
X031080Y012212D01*
X031069Y012281D01*
X031069Y012315D01*
X031749Y012315D01*
X031749Y012315D01*
X031069Y012315D01*
X031069Y012350D01*
X031080Y012418D01*
X031101Y012484D01*
X031133Y012546D01*
X031173Y012602D01*
X031222Y012651D01*
X031278Y012692D01*
X031340Y012723D01*
X031406Y012744D01*
X031474Y012755D01*
X031749Y012755D01*
X031749Y012315D01*
X031749Y012315D01*
X031749Y012755D01*
X032024Y012755D01*
X032092Y012744D01*
X032158Y012723D01*
X032220Y012692D01*
X032276Y012651D01*
X032300Y012627D01*
X032300Y012670D01*
X032429Y012799D01*
X033316Y012799D01*
X033316Y012814D01*
X033312Y012818D01*
X033312Y012831D01*
X032429Y012831D01*
X032300Y012960D01*
X032300Y012975D01*
X032250Y012925D01*
X032081Y012855D01*
X031418Y012855D01*
X031248Y012925D01*
X031119Y013055D01*
X031049Y013224D01*
X031049Y013407D01*
X031119Y013576D01*
X031248Y013705D01*
X031418Y013775D01*
X032081Y013775D01*
X032250Y013705D01*
X032300Y013655D01*
X032300Y013773D01*
X032407Y013879D01*
X032323Y013963D01*
X032323Y014027D01*
X032276Y013980D01*
X032220Y013939D01*
X032158Y013907D01*
X032092Y013886D01*
X032024Y013875D01*
X031749Y013875D01*
X031749Y014315D01*
X031749Y014315D01*
X031749Y013875D01*
X031474Y013875D01*
X031406Y013886D01*
X031340Y013907D01*
X031278Y013939D01*
X031222Y013980D01*
X031173Y014029D01*
X031133Y014085D01*
X031101Y014146D01*
X031080Y014212D01*
X031069Y014281D01*
X031069Y014315D01*
X031749Y014315D01*
X031749Y014315D01*
X031749Y014315D01*
X032323Y014315D01*
X032323Y014315D01*
X031749Y014315D01*
X031069Y014315D01*
X031069Y014350D01*
X031080Y014418D01*
X031101Y014484D01*
X031133Y014546D01*
X031173Y014602D01*
X031222Y014651D01*
X031278Y014692D01*
X031340Y014723D01*
X031406Y014744D01*
X031474Y014755D01*
X031749Y014755D01*
X031749Y014315D01*
X031749Y014315D01*
X031749Y014755D01*
X032024Y014755D01*
X032092Y014744D01*
X032158Y014723D01*
X032220Y014692D01*
X032276Y014651D01*
X032323Y014603D01*
X032323Y014618D01*
X032410Y014704D01*
X032383Y014731D01*
X032357Y014777D01*
X032343Y014828D01*
X032343Y015019D01*
X032250Y014925D01*
X032081Y014855D01*
X031418Y014855D01*
X031248Y014925D01*
X031238Y014935D01*
X030781Y014935D01*
X030629Y014783D01*
X030629Y010973D01*
X030850Y010752D01*
X032653Y010752D01*
X032782Y010623D01*
X032782Y008866D01*
X032653Y008737D01*
X030345Y008737D01*
X030216Y008866D01*
X030216Y010311D01*
X029927Y010600D01*
X029869Y010740D01*
X029869Y015016D01*
X029927Y015155D01*
X030034Y015262D01*
X030409Y015637D01*
X030548Y015695D01*
X031238Y015695D01*
X031248Y015705D01*
X031413Y015773D01*
X031026Y015773D01*
X030980Y015820D01*
X030958Y015807D01*
X030907Y015793D01*
X030664Y015793D01*
X030664Y016190D01*
X030248Y016190D01*
X030248Y015967D01*
X030261Y015916D01*
X030288Y015871D01*
X030325Y015833D01*
X030371Y015807D01*
X030421Y015793D01*
X030664Y015793D01*
X030664Y016190D01*
X030664Y016190D01*
X030664Y016190D01*
X030248Y016190D01*
X030248Y016245D01*
X028507Y016245D01*
X028055Y015794D01*
X027938Y015745D01*
X027007Y015745D01*
X026957Y015695D01*
X028238Y015695D01*
X028248Y015705D01*
X028418Y015775D01*
X029081Y015775D01*
X029250Y015705D01*
X029379Y015576D01*
X029449Y015407D01*
X029449Y015224D01*
X029379Y015055D01*
X029250Y014925D01*
X029081Y014855D01*
X028418Y014855D01*
X028248Y014925D01*
X028238Y014935D01*
X026855Y014935D01*
X026573Y014653D01*
X026573Y014210D01*
X026444Y014081D01*
X025554Y014081D01*
X025425Y014210D01*
X025425Y014495D01*
X025070Y014495D01*
X025025Y014450D01*
X024723Y014450D01*
X024678Y014495D01*
X021569Y014495D01*
X021569Y013502D01*
X021520Y013384D01*
X021430Y013294D01*
X021430Y013294D01*
X020895Y012759D01*
X020895Y012759D01*
X020805Y012669D01*
X020688Y012620D01*
X020350Y012620D01*
X020350Y012588D01*
X020221Y012459D01*
X019527Y012459D01*
X019420Y012566D01*
X019415Y012556D01*
X019378Y012519D01*
X019332Y012493D01*
X019281Y012479D01*
X019017Y012479D01*
X019017Y012897D01*
X018981Y012897D01*
X018981Y012479D01*
X018717Y012479D01*
X018666Y012493D01*
X018620Y012519D01*
X018583Y012556D01*
X018557Y012602D01*
X018543Y012653D01*
X018543Y012897D01*
X018981Y012897D01*
X018981Y012933D01*
X018543Y012933D01*
X018543Y013178D01*
X018557Y013229D01*
X018583Y013274D01*
X018610Y013301D01*
X018523Y013388D01*
X018523Y013395D01*
X018410Y013395D01*
X018293Y013444D01*
X018203Y013534D01*
X018075Y013661D01*
X018017Y013661D01*
X018017Y013623D01*
X018145Y013494D01*
X018145Y012887D01*
X018016Y012758D01*
X017421Y012758D01*
X017360Y012818D01*
X017359Y012818D01*
X017313Y012791D01*
X017263Y012778D01*
X017033Y012778D01*
X017033Y013187D01*
X017026Y013187D01*
X016623Y013187D01*
X016623Y012951D01*
X016636Y012900D01*
X016663Y012855D01*
X016700Y012818D01*
X016746Y012791D01*
X016796Y012778D01*
X017026Y012778D01*
X017026Y013187D01*
X017026Y013194D01*
X017026Y013603D01*
X016796Y013603D01*
X016746Y013589D01*
X016700Y013563D01*
X016663Y013526D01*
X016636Y013480D01*
X016623Y013429D01*
X016623Y013194D01*
X017026Y013194D01*
X017033Y013194D01*
X017033Y013603D01*
X017263Y013603D01*
X017313Y013589D01*
X017359Y013563D01*
X017360Y013562D01*
X017377Y013579D01*
X017377Y013641D01*
X016444Y013641D01*
X016444Y013261D01*
X016489Y013216D01*
X016489Y012914D01*
X016275Y012700D01*
X016242Y012700D01*
X022682Y006260D01*
X028132Y006260D01*
X028298Y006426D01*
X028700Y006426D01*
X028985Y006141D01*
X028985Y005739D01*
X028700Y005454D01*
X028298Y005454D01*
X028132Y005620D01*
X022485Y005620D01*
X022368Y005669D01*
X022278Y005759D01*
X015353Y012684D01*
X015304Y012802D01*
X015304Y013329D01*
X015353Y013447D01*
X015443Y013537D01*
X015487Y013581D01*
X015487Y013661D01*
X015387Y013661D01*
X015367Y013641D01*
X014987Y013641D01*
X014859Y013770D01*
X014859Y014089D01*
X014857Y014093D01*
X014857Y014549D01*
X014855Y014547D01*
X014082Y014547D01*
X013953Y014676D01*
X013953Y015490D01*
X013752Y015490D01*
X013614Y015353D01*
X013614Y015289D01*
X013400Y015075D01*
X013098Y015075D01*
X012884Y015289D01*
X012884Y015591D01*
X013098Y015805D01*
X013161Y015805D01*
X013181Y015825D01*
X013098Y015825D01*
X012884Y016039D01*
X012884Y016341D01*
X013098Y016555D01*
X013181Y016555D01*
X013161Y016575D01*
X013098Y016575D01*
X012884Y016789D01*
X012884Y017091D01*
X013098Y017305D01*
X013400Y017305D01*
X013614Y017091D01*
X013614Y017028D01*
X013882Y016760D01*
X013953Y016760D01*
X013953Y017380D01*
X013903Y017380D01*
X013786Y017429D01*
X013323Y017891D01*
X013045Y017891D01*
X013037Y017900D01*
X013028Y017891D01*
X012420Y017891D01*
X012345Y017966D01*
X012194Y017966D01*
X011986Y017758D01*
X011986Y017505D01*
X012009Y017528D01*
X012009Y017591D01*
X012223Y017805D01*
X012525Y017805D01*
X012739Y017591D01*
X012739Y017289D01*
X012525Y017075D01*
X012462Y017075D01*
X012180Y016794D01*
X012063Y016745D01*
X011153Y016745D01*
X011153Y016670D01*
X011812Y016670D01*
X011940Y016541D01*
X011940Y015965D01*
X011812Y015836D01*
X011790Y015836D01*
X011790Y015623D01*
X011742Y015506D01*
X011328Y015092D01*
X011328Y014820D01*
X011199Y014691D01*
X010623Y014691D01*
X010577Y014738D01*
X010530Y014691D01*
X009954Y014691D01*
X009953Y014692D01*
X009680Y014419D01*
X009563Y014370D01*
X008060Y014370D01*
X007943Y014419D01*
X007853Y014509D01*
X007853Y014509D01*
X006693Y015669D01*
X006603Y015759D01*
X006554Y015877D01*
X006554Y016629D01*
X006603Y016747D01*
X006750Y016894D01*
X006840Y016984D01*
X006958Y017032D01*
X006972Y017032D01*
X006972Y017422D01*
X007013Y017462D01*
X006972Y017503D01*
X006972Y017922D01*
X007101Y018051D01*
X007509Y018051D01*
X007498Y018092D01*
X007498Y018327D01*
X007901Y018327D01*
X007901Y018334D01*
X007901Y018743D01*
X007671Y018743D01*
X007621Y018729D01*
X007575Y018703D01*
X007538Y018666D01*
X007511Y018620D01*
X007498Y018569D01*
X007498Y018334D01*
X007901Y018334D01*
X007908Y018334D01*
X007908Y018743D01*
X008138Y018743D01*
X008188Y018729D01*
X008234Y018703D01*
X008235Y018702D01*
X008296Y018763D01*
X008891Y018763D01*
X009004Y018650D01*
X009090Y018650D01*
X009189Y018749D01*
X009765Y018749D01*
X009812Y018702D01*
X009826Y018717D01*
X009826Y019222D01*
X009759Y019289D01*
X009759Y019591D01*
X009973Y019805D01*
X010275Y019805D01*
X010489Y019591D01*
X010489Y019289D01*
X010466Y019266D01*
X010466Y018717D01*
X010563Y018620D01*
X010563Y018032D01*
X010867Y018032D01*
X010966Y018132D01*
X011455Y018132D01*
X011712Y018390D01*
X011712Y018479D01*
X010966Y018479D01*
X010837Y018608D01*
X010837Y019341D01*
X010966Y019470D01*
X011092Y019470D01*
X011092Y019894D01*
X010009Y019894D01*
X009880Y020023D01*
X009880Y020835D01*
X010009Y020964D01*
X011096Y020964D01*
X011225Y020835D01*
X011225Y020738D01*
X011309Y020703D01*
X011804Y021198D01*
X011804Y021369D01*
X011759Y021414D01*
X011759Y021716D01*
X011973Y021930D01*
X012275Y021930D01*
X012489Y021716D01*
X012489Y021414D01*
X012444Y021369D01*
X012444Y021002D01*
X012395Y020884D01*
X011730Y020219D01*
X011732Y020216D01*
X011732Y019470D01*
X011857Y019470D01*
X011858Y019469D01*
X012457Y019469D01*
X012512Y019414D01*
X012721Y019414D01*
X012721Y019010D01*
X012727Y019010D01*
X012727Y019414D01*
X012963Y019414D01*
X013014Y019400D01*
X013037Y019387D01*
X013059Y019400D01*
X013110Y019414D01*
X013346Y019414D01*
X013346Y019010D01*
X013352Y019010D01*
X013352Y019414D01*
X013588Y019414D01*
X013639Y019400D01*
X013684Y019374D01*
X013722Y019336D01*
X013748Y019291D01*
X013762Y019240D01*
X013762Y019010D01*
X013352Y019010D01*
X013352Y019004D01*
X013762Y019004D01*
X013762Y018774D01*
X013748Y018723D01*
X013722Y018677D01*
X013721Y018677D01*
X013782Y018616D01*
X013782Y018338D01*
X013974Y018145D01*
X013987Y018191D01*
X014013Y018236D01*
X014050Y018274D01*
X014096Y018300D01*
X014147Y018313D01*
X014468Y018313D01*
X014468Y018020D01*
X014468Y018020D01*
X014468Y018313D01*
X014790Y018313D01*
X014841Y018300D01*
X014886Y018274D01*
X014924Y018236D01*
X014950Y018191D01*
X014964Y018140D01*
X014964Y018020D01*
X017377Y018020D01*
X017377Y018228D01*
X017276Y018228D01*
X017256Y018208D01*
X014987Y018208D01*
X014859Y018337D01*
X014859Y019003D01*
X013943Y019919D01*
X013853Y020009D01*
X013804Y020127D01*
X013804Y021629D01*
X013853Y021747D01*
X014226Y022120D01*
X010882Y022120D01*
X007364Y018603D01*
X007364Y018539D01*
X007150Y018325D01*
X006848Y018325D01*
X006634Y018539D01*
X006634Y018841D01*
X006848Y019055D01*
X006911Y019055D01*
X010568Y022712D01*
X010685Y022760D01*
X023553Y022760D01*
X023874Y022565D02*
X023749Y022440D01*
X010749Y022440D01*
X006999Y018690D01*
X006720Y018453D02*
X004137Y018453D01*
X004144Y018254D02*
X007498Y018254D01*
X007507Y018056D02*
X004144Y018056D01*
X003966Y017857D02*
X006972Y017857D01*
X006972Y017659D02*
X003959Y017659D01*
X004158Y017460D02*
X007011Y017460D01*
X006972Y017262D02*
X004164Y017262D01*
X004164Y017063D02*
X006972Y017063D01*
X006721Y016865D02*
X004002Y016865D01*
X003923Y016666D02*
X006569Y016666D01*
X006554Y016468D02*
X004122Y016468D01*
X004144Y016269D02*
X006554Y016269D01*
X006554Y016071D02*
X004144Y016071D01*
X003981Y015872D02*
X006556Y015872D01*
X006688Y015674D02*
X003944Y015674D01*
X004143Y015475D02*
X006886Y015475D01*
X007085Y015277D02*
X004164Y015277D01*
X004164Y015078D02*
X007283Y015078D01*
X007482Y014880D02*
X004017Y014880D01*
X003908Y014681D02*
X007680Y014681D01*
X007879Y014483D02*
X004107Y014483D01*
X004144Y014284D02*
X014857Y014284D01*
X014859Y014086D02*
X013852Y014086D01*
X013745Y014148D02*
X013745Y014148D01*
X013251Y014260D02*
X013251Y014260D01*
X013953Y014681D02*
X009943Y014681D01*
X009744Y014483D02*
X014857Y014483D01*
X015177Y014157D02*
X015177Y017647D01*
X015124Y017700D01*
X017697Y017700D01*
X017697Y015368D01*
X017884Y015180D01*
X019035Y015180D01*
X021134Y015180D01*
X021249Y015065D01*
X021249Y014815D01*
X024874Y014815D01*
X025675Y014815D01*
X025999Y014616D01*
X026050Y014616D01*
X026573Y014483D02*
X028080Y014483D01*
X028049Y014407D02*
X028049Y014224D01*
X028119Y014055D01*
X028248Y013925D01*
X028418Y013855D01*
X029081Y013855D01*
X029250Y013925D01*
X029379Y014055D01*
X029449Y014224D01*
X029449Y014407D01*
X029379Y014576D01*
X029250Y014705D01*
X029081Y014775D01*
X028418Y014775D01*
X028248Y014705D01*
X028119Y014576D01*
X028049Y014407D01*
X028049Y014284D02*
X026573Y014284D01*
X026449Y014086D02*
X028106Y014086D01*
X028340Y013887D02*
X026545Y013887D01*
X026540Y013906D02*
X026513Y013952D01*
X026476Y013989D01*
X026431Y014015D01*
X026380Y014029D01*
X026056Y014029D01*
X026056Y013572D01*
X025942Y013572D01*
X025942Y014029D01*
X025618Y014029D01*
X025567Y014015D01*
X025522Y013989D01*
X025485Y013952D01*
X025458Y013906D01*
X025445Y013855D01*
X025445Y013572D01*
X025942Y013572D01*
X025942Y013457D01*
X026056Y013457D01*
X026056Y012999D01*
X026380Y012999D01*
X026431Y013013D01*
X026476Y013039D01*
X026513Y013076D01*
X026540Y013122D01*
X026553Y013173D01*
X026553Y013457D01*
X026056Y013457D01*
X026056Y013572D01*
X026553Y013572D01*
X026553Y013855D01*
X026540Y013906D01*
X026553Y013689D02*
X028275Y013689D01*
X028278Y013692D02*
X028222Y013651D01*
X028173Y013602D01*
X028133Y013546D01*
X028101Y013484D01*
X028080Y013418D01*
X028069Y013350D01*
X028069Y013315D01*
X028069Y013281D01*
X028080Y013212D01*
X028101Y013146D01*
X028133Y013085D01*
X028173Y013029D01*
X028222Y012980D01*
X028278Y012939D01*
X028340Y012907D01*
X028406Y012886D01*
X028474Y012875D01*
X028749Y012875D01*
X029024Y012875D01*
X029092Y012886D01*
X029158Y012907D01*
X029220Y012939D01*
X029276Y012980D01*
X029325Y013029D01*
X029365Y013085D01*
X029397Y013146D01*
X029418Y013212D01*
X029429Y013281D01*
X029429Y013315D01*
X028749Y013315D01*
X028749Y012875D01*
X028749Y013315D01*
X028749Y013315D01*
X028749Y013315D01*
X028069Y013315D01*
X028749Y013315D01*
X028749Y013315D01*
X029429Y013315D01*
X029429Y013350D01*
X029418Y013418D01*
X029397Y013484D01*
X029365Y013546D01*
X029325Y013602D01*
X029276Y013651D01*
X029220Y013692D01*
X029158Y013723D01*
X029092Y013744D01*
X029024Y013755D01*
X028749Y013755D01*
X028474Y013755D01*
X028406Y013744D01*
X028340Y013723D01*
X028278Y013692D01*
X028104Y013490D02*
X026056Y013490D01*
X025942Y013490D02*
X021564Y013490D01*
X021569Y013689D02*
X025445Y013689D01*
X025453Y013887D02*
X021569Y013887D01*
X021569Y014086D02*
X025549Y014086D01*
X025425Y014284D02*
X021569Y014284D01*
X021569Y014483D02*
X024690Y014483D01*
X025058Y014483D02*
X025425Y014483D01*
X025942Y013887D02*
X026056Y013887D01*
X026056Y013689D02*
X025942Y013689D01*
X025942Y013457D02*
X025445Y013457D01*
X025445Y013173D01*
X025458Y013122D01*
X025485Y013076D01*
X025522Y013039D01*
X025567Y013013D01*
X025618Y012999D01*
X025942Y012999D01*
X025942Y013457D01*
X025942Y013292D02*
X026056Y013292D01*
X026056Y013093D02*
X025942Y013093D01*
X025475Y013093D02*
X021230Y013093D01*
X021428Y013292D02*
X025445Y013292D01*
X026523Y013093D02*
X028128Y013093D01*
X028069Y013292D02*
X026553Y013292D01*
X028119Y012576D02*
X028049Y012407D01*
X028049Y012224D01*
X028119Y012055D01*
X028248Y011925D01*
X028418Y011855D01*
X029081Y011855D01*
X029250Y011925D01*
X029379Y012055D01*
X029449Y012224D01*
X029449Y012407D01*
X029379Y012576D01*
X029250Y012705D01*
X029081Y012775D01*
X028418Y012775D01*
X028248Y012705D01*
X028119Y012576D01*
X028087Y012498D02*
X020260Y012498D01*
X019874Y012915D02*
X019899Y012940D01*
X020624Y012940D01*
X021249Y013565D01*
X021249Y014815D01*
X020929Y014479D02*
X020929Y013698D01*
X020491Y013260D01*
X020332Y013260D01*
X020277Y013315D01*
X020350Y013388D01*
X020350Y014043D01*
X020221Y014171D01*
X019527Y014171D01*
X019437Y014081D01*
X019346Y014171D01*
X018652Y014171D01*
X018647Y014166D01*
X018647Y014220D01*
X018645Y014224D01*
X018645Y014543D01*
X018516Y014672D01*
X018137Y014672D01*
X018117Y014652D01*
X018012Y014652D01*
X018012Y014547D01*
X018012Y014547D01*
X018012Y014652D01*
X017906Y014652D01*
X017886Y014672D01*
X015617Y014672D01*
X015597Y014652D01*
X015497Y014652D01*
X015497Y017380D01*
X017377Y017380D01*
X017377Y015304D01*
X017425Y015186D01*
X017515Y015096D01*
X017703Y014909D01*
X017820Y014860D01*
X018520Y014860D01*
X018520Y014676D01*
X018649Y014547D01*
X018968Y014547D01*
X018972Y014545D01*
X020259Y014545D01*
X020259Y014539D01*
X020473Y014325D01*
X020775Y014325D01*
X020929Y014479D01*
X020929Y014284D02*
X018645Y014284D01*
X018645Y014483D02*
X020315Y014483D01*
X020624Y014690D02*
X020449Y014865D01*
X019035Y014865D01*
X018520Y014681D02*
X015497Y014681D01*
X015497Y014880D02*
X017773Y014880D01*
X017533Y015078D02*
X015497Y015078D01*
X015497Y015277D02*
X017388Y015277D01*
X017377Y015475D02*
X015497Y015475D01*
X015497Y015674D02*
X017377Y015674D01*
X017377Y015872D02*
X015497Y015872D01*
X015497Y016071D02*
X017377Y016071D01*
X017377Y016269D02*
X015497Y016269D01*
X015497Y016468D02*
X017377Y016468D01*
X017377Y016666D02*
X015497Y016666D01*
X015497Y016865D02*
X017377Y016865D01*
X017377Y017063D02*
X015497Y017063D01*
X015497Y017262D02*
X017377Y017262D01*
X017697Y017700D02*
X017697Y018724D01*
X018012Y018724D02*
X018012Y019203D01*
X018124Y019315D01*
X018999Y019315D01*
X019248Y019048D02*
X022366Y019048D01*
X022366Y019049D02*
X022284Y018850D01*
X018645Y018850D01*
X018645Y018995D02*
X018645Y018337D01*
X018516Y018208D01*
X018017Y018208D01*
X018017Y018099D01*
X018098Y018180D01*
X018400Y018180D01*
X018520Y018060D01*
X018520Y018205D01*
X018649Y018333D01*
X018968Y018333D01*
X018972Y018335D01*
X021964Y018335D01*
X022284Y018656D01*
X022284Y018850D01*
X022280Y018651D02*
X018645Y018651D01*
X018645Y018453D02*
X022081Y018453D01*
X022096Y018015D02*
X022824Y018743D01*
X022629Y019247D02*
X019364Y019247D01*
X019364Y019164D02*
X019364Y019466D01*
X019150Y019680D01*
X018848Y019680D01*
X018803Y019635D01*
X018060Y019635D01*
X017943Y019587D01*
X017853Y019497D01*
X017740Y019384D01*
X017692Y019266D01*
X017692Y019239D01*
X017564Y019239D01*
X017614Y019289D01*
X017614Y019591D01*
X017400Y019805D01*
X017098Y019805D01*
X016884Y019591D01*
X016884Y019528D01*
X016874Y019518D01*
X016864Y019528D01*
X016864Y019591D01*
X016650Y019805D01*
X016348Y019805D01*
X016259Y019717D01*
X015991Y019985D01*
X015906Y020070D01*
X015796Y020115D01*
X015498Y020115D01*
X015174Y020440D01*
X015174Y021140D01*
X015751Y021140D01*
X015666Y021105D01*
X015537Y020976D01*
X015467Y020807D01*
X015467Y020624D01*
X015537Y020455D01*
X015666Y020325D01*
X015835Y020255D01*
X016018Y020255D01*
X016187Y020325D01*
X016317Y020455D01*
X016387Y020624D01*
X016387Y020807D01*
X016317Y020976D01*
X016187Y021105D01*
X016103Y021140D01*
X017651Y021140D01*
X017566Y021105D01*
X017437Y020976D01*
X017367Y020807D01*
X017367Y020624D01*
X017437Y020455D01*
X017566Y020325D01*
X017735Y020255D01*
X017918Y020255D01*
X018087Y020325D01*
X018217Y020455D01*
X018287Y020624D01*
X018287Y020807D01*
X018217Y020976D01*
X018087Y021105D01*
X018003Y021140D01*
X027559Y021140D01*
X027669Y021186D01*
X028248Y021765D01*
X029900Y021765D01*
X029829Y021695D01*
X029745Y021610D01*
X029699Y021500D01*
X029699Y018881D01*
X029745Y018770D01*
X029995Y018520D01*
X030079Y018436D01*
X030189Y018390D01*
X030339Y018390D01*
X030339Y017969D01*
X030468Y017840D01*
X030800Y017840D01*
X030935Y017705D01*
X030907Y017712D01*
X030664Y017712D01*
X030421Y017712D01*
X030371Y017698D01*
X030325Y017672D01*
X030288Y017635D01*
X030261Y017589D01*
X030248Y017538D01*
X030248Y017315D01*
X030248Y017260D01*
X028185Y017260D01*
X028068Y017212D01*
X027978Y017122D01*
X027864Y017008D01*
X027864Y017091D01*
X027755Y017200D01*
X028025Y017200D01*
X028239Y017414D01*
X028239Y017716D01*
X028170Y017786D01*
X028224Y017840D01*
X029030Y017840D01*
X029159Y017969D01*
X029159Y018411D01*
X029111Y018459D01*
X029125Y018483D01*
X029139Y018534D01*
X029139Y018690D01*
X028539Y018690D01*
X027939Y018690D01*
X027939Y018623D01*
X027546Y018623D01*
X027485Y018562D01*
X027484Y018563D01*
X027438Y018589D01*
X027388Y018603D01*
X027158Y018603D01*
X027158Y018194D01*
X027151Y018194D01*
X027151Y018603D01*
X026921Y018603D01*
X026871Y018589D01*
X026825Y018563D01*
X026788Y018526D01*
X026761Y018480D01*
X026748Y018429D01*
X026748Y018194D01*
X027151Y018194D01*
X027151Y018187D01*
X026748Y018187D01*
X026748Y017951D01*
X026761Y017900D01*
X026788Y017855D01*
X026825Y017818D01*
X026871Y017791D01*
X026921Y017778D01*
X027151Y017778D01*
X027151Y018187D01*
X027158Y018187D01*
X027158Y017778D01*
X027388Y017778D01*
X027438Y017791D01*
X027484Y017818D01*
X027485Y017818D01*
X027543Y017760D01*
X027543Y017751D01*
X027509Y017716D01*
X027509Y017414D01*
X027618Y017305D01*
X027348Y017305D01*
X027303Y017260D01*
X023322Y017260D01*
X024005Y017944D01*
X024095Y018034D01*
X024144Y018152D01*
X024144Y018399D01*
X024282Y018537D01*
X024303Y018589D01*
X024366Y018437D01*
X024518Y018285D01*
X024717Y018203D01*
X024931Y018203D01*
X025130Y018285D01*
X025282Y018437D01*
X025364Y018636D01*
X025364Y018850D01*
X027940Y018850D01*
X027939Y018847D02*
X027939Y018690D01*
X028539Y018690D01*
X028539Y018690D01*
X028539Y018690D01*
X029139Y018690D01*
X029139Y018847D01*
X029125Y018897D01*
X029111Y018922D01*
X029159Y018969D01*
X029159Y019411D01*
X029111Y019459D01*
X029125Y019483D01*
X029139Y019534D01*
X029139Y019690D01*
X028539Y019690D01*
X027939Y019690D01*
X027939Y019534D01*
X027953Y019483D01*
X027967Y019459D01*
X027919Y019411D01*
X027919Y018969D01*
X027967Y018922D01*
X027953Y018897D01*
X027939Y018847D01*
X027939Y018651D02*
X025364Y018651D01*
X025364Y018850D02*
X025282Y019049D01*
X025130Y019201D01*
X024931Y019283D01*
X024717Y019283D01*
X024518Y019201D01*
X024366Y019049D01*
X024345Y018997D01*
X024282Y019149D01*
X024138Y019293D01*
X024282Y019437D01*
X024356Y019616D01*
X024379Y019570D01*
X024427Y019504D01*
X024485Y019446D01*
X024551Y019398D01*
X024624Y019361D01*
X024702Y019336D01*
X024783Y019323D01*
X024824Y019323D01*
X024824Y019843D01*
X024824Y020363D01*
X024783Y020363D01*
X024702Y020350D01*
X024624Y020325D01*
X024551Y020288D01*
X024485Y020240D01*
X024427Y020182D01*
X024379Y020116D01*
X024342Y020043D01*
X024317Y019965D01*
X024317Y019964D01*
X024282Y020049D01*
X024130Y020201D01*
X023931Y020283D01*
X023717Y020283D01*
X023518Y020201D01*
X023366Y020049D01*
X023345Y019997D01*
X023282Y020149D01*
X023130Y020301D01*
X022931Y020383D01*
X022717Y020383D01*
X022518Y020301D01*
X022366Y020149D01*
X022284Y019950D01*
X022284Y019736D01*
X022366Y019537D01*
X022518Y019385D01*
X022717Y019303D01*
X022931Y019303D01*
X023130Y019385D01*
X023282Y019537D01*
X023303Y019589D01*
X023366Y019437D01*
X023510Y019293D01*
X023366Y019149D01*
X023303Y018997D01*
X023282Y019049D01*
X023130Y019201D01*
X022931Y019283D01*
X022717Y019283D01*
X022518Y019201D01*
X022366Y019049D01*
X022458Y019445D02*
X019364Y019445D01*
X019187Y019644D02*
X022322Y019644D01*
X022284Y019842D02*
X016134Y019842D01*
X015935Y020041D02*
X022321Y020041D01*
X022457Y020239D02*
X015374Y020239D01*
X015554Y020438D02*
X015176Y020438D01*
X015174Y020636D02*
X015467Y020636D01*
X015478Y020835D02*
X015174Y020835D01*
X015174Y021033D02*
X015594Y021033D01*
X016259Y021033D02*
X017494Y021033D01*
X017378Y020835D02*
X016375Y020835D01*
X016387Y020636D02*
X017367Y020636D01*
X017454Y020438D02*
X016300Y020438D01*
X016812Y019644D02*
X016936Y019644D01*
X017249Y019440D02*
X017067Y019258D01*
X017067Y018724D01*
X017382Y018724D02*
X017382Y018198D01*
X017374Y018190D01*
X017377Y018056D02*
X014964Y018056D01*
X014942Y018254D02*
X014906Y018254D01*
X014859Y018453D02*
X013782Y018453D01*
X013746Y018651D02*
X014859Y018651D01*
X014859Y018850D02*
X013762Y018850D01*
X013762Y019048D02*
X014813Y019048D01*
X014615Y019247D02*
X013760Y019247D01*
X013352Y019247D02*
X013346Y019247D01*
X013346Y019048D02*
X013352Y019048D01*
X013346Y019010D02*
X013346Y019004D01*
X012936Y019004D01*
X012727Y019004D01*
X012727Y019010D01*
X013346Y019010D01*
X012727Y019048D02*
X012721Y019048D01*
X012721Y019247D02*
X012727Y019247D01*
X012481Y019445D02*
X014416Y019445D01*
X014218Y019644D02*
X011732Y019644D01*
X011732Y019842D02*
X014019Y019842D01*
X013840Y020041D02*
X013673Y020041D01*
X013672Y020037D02*
X013686Y020088D01*
X013686Y020372D01*
X013090Y020372D01*
X013090Y020486D01*
X013686Y020486D01*
X013686Y020770D01*
X013672Y020821D01*
X013646Y020867D01*
X013608Y020904D01*
X013563Y020930D01*
X013512Y020944D01*
X013090Y020944D01*
X013090Y020486D01*
X012975Y020486D01*
X012975Y020372D01*
X012380Y020372D01*
X012380Y020088D01*
X012394Y020037D01*
X012420Y019991D01*
X012457Y019954D01*
X012503Y019928D01*
X012554Y019914D01*
X012975Y019914D01*
X012975Y020371D01*
X013090Y020371D01*
X013090Y019914D01*
X013512Y019914D01*
X013563Y019928D01*
X013608Y019954D01*
X013646Y019991D01*
X013672Y020037D01*
X013686Y020239D02*
X013804Y020239D01*
X013804Y020438D02*
X013090Y020438D01*
X012975Y020438D02*
X011949Y020438D01*
X012148Y020636D02*
X012380Y020636D01*
X012380Y020770D02*
X012380Y020486D01*
X012975Y020486D01*
X012975Y020944D01*
X012554Y020944D01*
X012503Y020930D01*
X012457Y020904D01*
X012420Y020867D01*
X012394Y020821D01*
X012380Y020770D01*
X012402Y020835D02*
X012346Y020835D01*
X012444Y021033D02*
X013804Y021033D01*
X013804Y020835D02*
X013664Y020835D01*
X013686Y020636D02*
X013804Y020636D01*
X013804Y021232D02*
X012444Y021232D01*
X012489Y021430D02*
X013804Y021430D01*
X013804Y021629D02*
X012489Y021629D01*
X012378Y021827D02*
X013933Y021827D01*
X014132Y022026D02*
X010787Y022026D01*
X010589Y021827D02*
X011870Y021827D01*
X011759Y021629D02*
X010390Y021629D01*
X010192Y021430D02*
X011759Y021430D01*
X011804Y021232D02*
X009993Y021232D01*
X009795Y021033D02*
X011639Y021033D01*
X011441Y020835D02*
X011225Y020835D01*
X011135Y020429D02*
X010553Y020429D01*
X011135Y020429D02*
X011312Y020253D01*
X012124Y021065D01*
X012124Y021565D01*
X012975Y020835D02*
X013090Y020835D01*
X013090Y020636D02*
X012975Y020636D01*
X012975Y020239D02*
X013090Y020239D01*
X013090Y020041D02*
X012975Y020041D01*
X012393Y020041D02*
X011732Y020041D01*
X011751Y020239D02*
X012380Y020239D01*
X011412Y020153D02*
X011312Y020253D01*
X011412Y020153D02*
X011412Y018975D01*
X012071Y018975D01*
X012149Y019053D01*
X012149Y018383D02*
X012214Y018318D01*
X012724Y018318D01*
X013349Y018318D01*
X013967Y017700D01*
X014468Y017700D01*
X015124Y017700D01*
X014468Y018056D02*
X014468Y018056D01*
X014468Y018254D02*
X014468Y018254D01*
X014031Y018254D02*
X013865Y018254D01*
X013357Y017857D02*
X012085Y017857D01*
X012076Y017659D02*
X011986Y017659D01*
X012374Y017440D02*
X011999Y017065D01*
X010999Y017065D01*
X010852Y017212D01*
X009673Y017212D01*
X009673Y016712D02*
X009021Y016712D01*
X008124Y015815D01*
X008124Y015440D01*
X008489Y015475D02*
X009865Y015475D01*
X009825Y015435D02*
X009825Y015428D01*
X009755Y015399D01*
X009665Y015309D01*
X009366Y015010D01*
X008257Y015010D01*
X008192Y015075D01*
X008275Y015075D01*
X008489Y015289D01*
X008489Y015591D01*
X008444Y015636D01*
X008444Y015683D01*
X009040Y016278D01*
X009040Y016212D01*
X009040Y016068D01*
X009053Y016017D01*
X009080Y015972D01*
X009117Y015934D01*
X009162Y015908D01*
X009213Y015894D01*
X009673Y015894D01*
X010132Y015894D01*
X010183Y015908D01*
X010229Y015934D01*
X010233Y015939D01*
X010233Y015879D01*
X010683Y015879D01*
X010683Y015879D01*
X010233Y015879D01*
X010233Y015656D01*
X010247Y015605D01*
X010270Y015564D01*
X009954Y015564D01*
X009825Y015435D01*
X009633Y015277D02*
X008477Y015277D01*
X008278Y015078D02*
X009434Y015078D01*
X009499Y014690D02*
X009937Y015128D01*
X010242Y015128D01*
X010233Y015674D02*
X008444Y015674D01*
X008634Y015872D02*
X010233Y015872D01*
X010287Y016212D02*
X009673Y016212D01*
X009673Y016212D01*
X009673Y015894D01*
X009673Y016212D01*
X009673Y016212D01*
X010287Y016212D01*
X010287Y016212D01*
X009673Y016212D02*
X009673Y016374D01*
X009673Y016374D01*
X009673Y016212D01*
X009040Y016212D01*
X009673Y016212D01*
X009673Y016212D01*
X009673Y016212D01*
X009673Y016269D02*
X009673Y016269D01*
X009673Y016071D02*
X009673Y016071D01*
X009040Y016071D02*
X008832Y016071D01*
X009031Y016269D02*
X009040Y016269D01*
X009673Y016712D02*
X010683Y016712D01*
X010683Y016627D01*
X011470Y016253D02*
X011470Y015687D01*
X010911Y015128D01*
X011328Y015078D02*
X013095Y015078D01*
X012896Y015277D02*
X011513Y015277D01*
X011711Y015475D02*
X012884Y015475D01*
X012966Y015674D02*
X011790Y015674D01*
X011848Y015872D02*
X013051Y015872D01*
X012884Y016071D02*
X011940Y016071D01*
X011940Y016269D02*
X012884Y016269D01*
X013010Y016468D02*
X011940Y016468D01*
X011815Y016666D02*
X013007Y016666D01*
X012884Y016865D02*
X012251Y016865D01*
X012450Y017063D02*
X012884Y017063D01*
X013054Y017262D02*
X012712Y017262D01*
X012739Y017460D02*
X013754Y017460D01*
X013556Y017659D02*
X012672Y017659D01*
X013444Y017262D02*
X013953Y017262D01*
X013953Y017063D02*
X013614Y017063D01*
X013777Y016865D02*
X013953Y016865D01*
X013749Y016440D02*
X014468Y016440D01*
X014468Y016125D02*
X013314Y016125D01*
X013249Y016190D01*
X013619Y015810D02*
X014468Y015810D01*
X013953Y015475D02*
X013737Y015475D01*
X013602Y015277D02*
X013953Y015277D01*
X013953Y015078D02*
X013403Y015078D01*
X013249Y015440D02*
X013619Y015810D01*
X013749Y016440D02*
X013249Y016940D01*
X012149Y018374D02*
X011412Y017636D01*
X011335Y017712D01*
X010146Y017712D01*
X009673Y017712D01*
X009021Y017712D01*
X008874Y017565D01*
X008874Y017065D01*
X008021Y016212D01*
X007625Y016212D01*
X007625Y016712D02*
X007021Y016712D01*
X006874Y016565D01*
X006874Y015940D01*
X008124Y014690D01*
X009499Y014690D01*
X011328Y014880D02*
X013953Y014880D01*
X014184Y013894D02*
X014184Y013894D01*
X014191Y013887D02*
X014859Y013887D01*
X014940Y013689D02*
X014375Y013689D01*
X014529Y013523D02*
X014529Y013523D01*
X014544Y013490D02*
X015396Y013490D01*
X015304Y013292D02*
X014640Y013292D01*
X014736Y013093D02*
X015304Y013093D01*
X015304Y012895D02*
X014774Y012895D01*
X014804Y012696D02*
X015348Y012696D01*
X015539Y012498D02*
X014814Y012498D01*
X014784Y012299D02*
X015737Y012299D01*
X015936Y012101D02*
X014754Y012101D01*
X014748Y012064D02*
X014748Y012064D01*
X014671Y011902D02*
X016134Y011902D01*
X016333Y011704D02*
X014575Y011704D01*
X014529Y011608D02*
X014529Y011608D01*
X014434Y011505D02*
X016531Y011505D01*
X016730Y011307D02*
X014249Y011307D01*
X013962Y011108D02*
X016928Y011108D01*
X017127Y010910D02*
X013425Y010910D01*
X015624Y012865D02*
X022549Y005940D01*
X028499Y005940D01*
X028985Y005947D02*
X030216Y005947D01*
X030216Y005749D02*
X028985Y005749D01*
X028796Y005550D02*
X030216Y005550D01*
X030216Y005352D02*
X014781Y005352D01*
X014751Y005550D02*
X028202Y005550D01*
X028980Y006146D02*
X030216Y006146D01*
X030216Y006344D02*
X028782Y006344D01*
X028216Y006344D02*
X022598Y006344D01*
X022399Y006543D02*
X030216Y006543D01*
X030216Y006741D02*
X027283Y006741D01*
X027283Y006692D02*
X027283Y006808D01*
X027283Y007050D01*
X028571Y007050D01*
X028653Y007132D01*
X028653Y010748D01*
X028571Y010830D01*
X027283Y010830D01*
X027283Y011188D01*
X027201Y011270D01*
X023335Y011270D01*
X023253Y011188D01*
X023253Y006692D01*
X023335Y006610D01*
X027201Y006610D01*
X027283Y006692D01*
X027283Y006940D02*
X034119Y006940D01*
X034119Y007138D02*
X028653Y007138D01*
X028653Y007337D02*
X034119Y007337D01*
X034119Y007535D02*
X028653Y007535D01*
X028653Y007734D02*
X034119Y007734D01*
X034119Y007932D02*
X028653Y007932D01*
X028653Y008131D02*
X034119Y008131D01*
X034145Y008329D02*
X028653Y008329D01*
X028653Y008528D02*
X034299Y008528D01*
X034498Y008726D02*
X028653Y008726D01*
X028653Y008925D02*
X030216Y008925D01*
X030216Y009123D02*
X028653Y009123D01*
X028653Y009322D02*
X030216Y009322D01*
X030216Y009520D02*
X028653Y009520D01*
X028653Y009719D02*
X030216Y009719D01*
X030216Y009917D02*
X028653Y009917D01*
X028653Y010116D02*
X030216Y010116D01*
X030213Y010314D02*
X028653Y010314D01*
X028653Y010513D02*
X030014Y010513D01*
X029881Y010711D02*
X028653Y010711D01*
X029869Y010910D02*
X027283Y010910D01*
X027283Y011108D02*
X029869Y011108D01*
X029869Y011307D02*
X017635Y011307D01*
X017437Y011505D02*
X029869Y011505D01*
X029869Y011704D02*
X017238Y011704D01*
X017040Y011902D02*
X028304Y011902D01*
X028100Y012101D02*
X016841Y012101D01*
X016643Y012299D02*
X028049Y012299D01*
X028239Y012696D02*
X020833Y012696D01*
X021031Y012895D02*
X028379Y012895D01*
X028749Y012895D02*
X028749Y012895D01*
X028749Y013093D02*
X028749Y013093D01*
X028749Y013292D02*
X028749Y013292D01*
X028749Y013315D02*
X028749Y013755D01*
X028749Y013315D01*
X028749Y013315D01*
X028749Y013490D02*
X028749Y013490D01*
X028749Y013689D02*
X028749Y013689D01*
X029158Y013887D02*
X029869Y013887D01*
X029869Y013689D02*
X029223Y013689D01*
X029394Y013490D02*
X029869Y013490D01*
X029869Y013292D02*
X029429Y013292D01*
X029370Y013093D02*
X029869Y013093D01*
X029869Y012895D02*
X029119Y012895D01*
X029259Y012696D02*
X029869Y012696D01*
X029869Y012498D02*
X029411Y012498D01*
X029449Y012299D02*
X029869Y012299D01*
X029869Y012101D02*
X029398Y012101D01*
X029194Y011902D02*
X029869Y011902D01*
X030629Y011902D02*
X031356Y011902D01*
X031124Y012101D02*
X030629Y012101D01*
X030629Y012299D02*
X031069Y012299D01*
X031108Y012498D02*
X030629Y012498D01*
X030629Y012696D02*
X031288Y012696D01*
X031322Y012895D02*
X030629Y012895D01*
X030629Y013093D02*
X031103Y013093D01*
X031049Y013292D02*
X030629Y013292D01*
X030629Y013490D02*
X031084Y013490D01*
X031232Y013689D02*
X030629Y013689D01*
X030629Y013887D02*
X031402Y013887D01*
X031132Y014086D02*
X030629Y014086D01*
X030629Y014284D02*
X031069Y014284D01*
X031101Y014483D02*
X030629Y014483D01*
X030629Y014681D02*
X031264Y014681D01*
X031358Y014880D02*
X030726Y014880D01*
X030247Y015475D02*
X029421Y015475D01*
X029449Y015277D02*
X030048Y015277D01*
X029895Y015078D02*
X029389Y015078D01*
X029140Y014880D02*
X029869Y014880D01*
X029869Y014681D02*
X029274Y014681D01*
X029418Y014483D02*
X029869Y014483D01*
X029869Y014284D02*
X029449Y014284D01*
X029392Y014086D02*
X029869Y014086D01*
X028358Y014880D02*
X026800Y014880D01*
X026601Y014681D02*
X028224Y014681D01*
X028134Y015872D02*
X030287Y015872D01*
X030248Y016071D02*
X028332Y016071D01*
X027874Y016065D02*
X028374Y016565D01*
X031374Y016565D01*
X031374Y016231D01*
X031334Y016190D01*
X031374Y016565D02*
X032124Y016565D01*
X033374Y015315D01*
X033374Y014940D01*
X033524Y014790D01*
X033942Y014790D01*
X034024Y014290D02*
X032799Y014290D01*
X032874Y014240D01*
X032874Y013366D01*
X032999Y013455D01*
X032300Y013689D02*
X032266Y013689D01*
X032399Y013887D02*
X032096Y013887D01*
X031749Y013887D02*
X031749Y013887D01*
X031749Y014086D02*
X031749Y014086D01*
X031749Y014284D02*
X031749Y014284D01*
X031749Y014483D02*
X031749Y014483D01*
X031749Y014681D02*
X031749Y014681D01*
X032140Y014880D02*
X032343Y014880D01*
X032386Y015072D02*
X032401Y015108D01*
X032781Y015108D01*
X032781Y015072D01*
X032386Y015072D01*
X032389Y015078D02*
X032781Y015078D01*
X032387Y014681D02*
X032234Y014681D01*
X030664Y015872D02*
X030664Y015872D01*
X030664Y016071D02*
X030664Y016071D01*
X030497Y015674D02*
X029281Y015674D01*
X028249Y016940D02*
X031374Y016940D01*
X031374Y017275D01*
X031334Y017315D01*
X030664Y017315D02*
X030664Y017712D01*
X030664Y017315D01*
X030248Y017315D01*
X030664Y017315D01*
X030664Y017315D01*
X030664Y017315D01*
X030664Y017460D02*
X030664Y017460D01*
X030664Y017659D02*
X030664Y017659D01*
X030451Y017857D02*
X029047Y017857D01*
X029159Y018056D02*
X030339Y018056D01*
X030339Y018254D02*
X029159Y018254D01*
X029118Y018453D02*
X030062Y018453D01*
X029864Y018651D02*
X029139Y018651D01*
X029138Y018850D02*
X029712Y018850D01*
X029699Y019048D02*
X029159Y019048D01*
X029159Y019247D02*
X029699Y019247D01*
X029699Y019445D02*
X029125Y019445D01*
X029139Y019644D02*
X029699Y019644D01*
X029699Y019842D02*
X029139Y019842D01*
X029139Y019847D02*
X029125Y019897D01*
X029111Y019922D01*
X029159Y019969D01*
X029159Y020411D01*
X029111Y020459D01*
X029125Y020483D01*
X029139Y020534D01*
X029139Y020690D01*
X028539Y020690D01*
X027939Y020690D01*
X027939Y020534D01*
X027953Y020483D01*
X027967Y020459D01*
X027919Y020411D01*
X027919Y019969D01*
X027967Y019922D01*
X027953Y019897D01*
X027939Y019847D01*
X027939Y019690D01*
X028539Y019690D01*
X028539Y019690D01*
X028539Y019690D01*
X029139Y019690D01*
X029139Y019847D01*
X029159Y020041D02*
X029699Y020041D01*
X029699Y020239D02*
X029159Y020239D01*
X029133Y020438D02*
X029699Y020438D01*
X029699Y020636D02*
X029139Y020636D01*
X029139Y020690D02*
X029139Y020847D01*
X029125Y020897D01*
X029111Y020922D01*
X029159Y020969D01*
X029159Y021411D01*
X029030Y021540D01*
X028048Y021540D01*
X027919Y021411D01*
X027919Y020969D01*
X027967Y020922D01*
X027953Y020897D01*
X027939Y020847D01*
X027939Y020690D01*
X028539Y020690D01*
X028539Y020690D01*
X028539Y020690D01*
X029139Y020690D01*
X029139Y020835D02*
X029699Y020835D01*
X029699Y021033D02*
X029159Y021033D01*
X029159Y021232D02*
X029699Y021232D01*
X029699Y021430D02*
X029140Y021430D01*
X029763Y021629D02*
X028112Y021629D01*
X027938Y021430D02*
X027913Y021430D01*
X027919Y021232D02*
X027715Y021232D01*
X027919Y021033D02*
X018159Y021033D01*
X018275Y020835D02*
X027939Y020835D01*
X027939Y020636D02*
X018287Y020636D01*
X018200Y020438D02*
X027945Y020438D01*
X027919Y020239D02*
X025163Y020239D01*
X025163Y020240D02*
X025097Y020288D01*
X025024Y020325D01*
X024946Y020350D01*
X024865Y020363D01*
X024824Y020363D01*
X024824Y019843D01*
X024824Y019843D01*
X025344Y019843D01*
X025344Y019884D01*
X025331Y019965D01*
X025306Y020043D01*
X025269Y020116D01*
X025221Y020182D01*
X025163Y020240D01*
X025307Y020041D02*
X027919Y020041D01*
X027939Y019842D02*
X025344Y019842D01*
X025344Y019843D02*
X024824Y019843D01*
X024824Y019843D01*
X024824Y019843D01*
X024824Y019323D01*
X024865Y019323D01*
X024946Y019336D01*
X025024Y019361D01*
X025097Y019398D01*
X025163Y019446D01*
X025221Y019504D01*
X025269Y019570D01*
X025306Y019643D01*
X025331Y019721D01*
X025344Y019802D01*
X025344Y019843D01*
X025306Y019644D02*
X027939Y019644D01*
X027953Y019445D02*
X025161Y019445D01*
X025019Y019247D02*
X027919Y019247D01*
X027919Y019048D02*
X025282Y019048D01*
X024824Y019445D02*
X024824Y019445D01*
X024824Y019644D02*
X024824Y019644D01*
X024824Y019842D02*
X024824Y019842D01*
X024824Y020041D02*
X024824Y020041D01*
X024824Y020239D02*
X024824Y020239D01*
X024485Y020239D02*
X024037Y020239D01*
X024285Y020041D02*
X024342Y020041D01*
X023611Y020239D02*
X023191Y020239D01*
X023327Y020041D02*
X023363Y020041D01*
X023363Y019445D02*
X023190Y019445D01*
X023019Y019247D02*
X023464Y019247D01*
X023325Y019048D02*
X023282Y019048D01*
X023824Y018843D02*
X023824Y018215D01*
X022994Y017385D01*
X019035Y017385D01*
X019035Y017700D02*
X018364Y017700D01*
X018249Y017815D01*
X018017Y017531D02*
X018098Y017450D01*
X018161Y017450D01*
X018183Y017429D01*
X018301Y017380D01*
X018520Y017380D01*
X018520Y016251D01*
X018540Y016231D01*
X018540Y016125D01*
X018540Y016020D01*
X018520Y016000D01*
X018520Y015500D01*
X018017Y015500D01*
X018017Y017531D01*
X018017Y017460D02*
X018088Y017460D01*
X018017Y017262D02*
X018520Y017262D01*
X018520Y017063D02*
X018017Y017063D01*
X018017Y016865D02*
X018520Y016865D01*
X018520Y016666D02*
X018017Y016666D01*
X018017Y016468D02*
X018520Y016468D01*
X018520Y016269D02*
X018017Y016269D01*
X018017Y016071D02*
X018540Y016071D01*
X018540Y016125D02*
X018645Y016125D01*
X018645Y016125D01*
X018645Y016125D01*
X018540Y016125D01*
X018439Y016125D02*
X018374Y016190D01*
X018439Y016125D02*
X019035Y016125D01*
X019035Y015810D02*
X026119Y015810D01*
X026749Y016440D01*
X027749Y016440D01*
X028249Y016940D01*
X027919Y017063D02*
X027864Y017063D01*
X028087Y017262D02*
X030248Y017262D01*
X030248Y017460D02*
X028239Y017460D01*
X028239Y017659D02*
X030312Y017659D01*
X031374Y016940D02*
X032249Y016940D01*
X033774Y015415D01*
X033942Y015415D01*
X033770Y015872D02*
X036023Y015872D01*
X035869Y015674D02*
X035093Y015674D01*
X035292Y015475D02*
X035805Y015475D01*
X035802Y015277D02*
X035490Y015277D01*
X035689Y015078D02*
X035860Y015078D01*
X035887Y014880D02*
X036004Y014880D01*
X035874Y014440D02*
X034899Y015415D01*
X034611Y015415D01*
X034611Y014790D02*
X034899Y014790D01*
X035499Y014190D01*
X035499Y012440D01*
X035664Y012275D01*
X036858Y012275D01*
X036858Y011960D02*
X035354Y011960D01*
X035124Y012190D01*
X035124Y013190D01*
X034024Y014290D01*
X034087Y013775D02*
X033749Y013775D01*
X033749Y013775D01*
X034087Y013775D01*
X034087Y013775D01*
X034166Y013696D02*
X034804Y013058D01*
X034804Y012822D01*
X034700Y012926D01*
X034298Y012926D01*
X034227Y012855D01*
X034186Y012855D01*
X034186Y013394D01*
X034125Y013454D01*
X034126Y013455D01*
X034152Y013501D01*
X034166Y013552D01*
X034166Y013696D01*
X034166Y013689D02*
X034173Y013689D01*
X034146Y013490D02*
X034371Y013490D01*
X034186Y013292D02*
X034570Y013292D01*
X034768Y013093D02*
X034186Y013093D01*
X034186Y012895D02*
X034267Y012895D01*
X034405Y012535D02*
X033749Y012535D01*
X033749Y013106D01*
X033749Y012535D02*
X033655Y012440D01*
X033499Y012440D01*
X033323Y012264D01*
X032874Y012264D01*
X032300Y011902D02*
X032142Y011902D01*
X031749Y011902D02*
X031749Y011902D01*
X031749Y012101D02*
X031749Y012101D01*
X031749Y012299D02*
X031749Y012299D01*
X031749Y012498D02*
X031749Y012498D01*
X031749Y012696D02*
X031749Y012696D01*
X032210Y012696D02*
X032326Y012696D01*
X032365Y012895D02*
X032176Y012895D01*
X033433Y011842D02*
X033439Y011849D01*
X033746Y011849D01*
X033746Y011842D01*
X033433Y011842D01*
X033336Y011704D02*
X030629Y011704D01*
X030629Y011505D02*
X033001Y011505D01*
X032982Y011495D02*
X032945Y011457D01*
X032919Y011412D01*
X032905Y011361D01*
X032905Y011118D01*
X033302Y011118D01*
X033302Y011118D01*
X033302Y011535D01*
X033079Y011535D01*
X033028Y011521D01*
X032982Y011495D01*
X032905Y011307D02*
X030629Y011307D01*
X030629Y011108D02*
X032905Y011108D01*
X032905Y011118D02*
X032905Y010875D01*
X032919Y010824D01*
X032945Y010779D01*
X032982Y010741D01*
X033028Y010715D01*
X033079Y010701D01*
X033302Y010701D01*
X033302Y011118D01*
X032905Y011118D01*
X032905Y010910D02*
X030692Y010910D01*
X032694Y010711D02*
X033042Y010711D01*
X033302Y010711D02*
X033302Y010711D01*
X033302Y010910D02*
X033302Y010910D01*
X033302Y011108D02*
X033302Y011108D01*
X033302Y011118D02*
X033302Y011118D01*
X033302Y011307D02*
X033302Y011307D01*
X033302Y011505D02*
X033302Y011505D01*
X033384Y010513D02*
X032782Y010513D01*
X032782Y010314D02*
X033484Y010314D01*
X033749Y010565D02*
X033874Y010565D01*
X034350Y010089D01*
X034350Y009651D01*
X034022Y009719D02*
X032782Y009719D01*
X032782Y009917D02*
X034022Y009917D01*
X033871Y010116D02*
X032782Y010116D01*
X032782Y009520D02*
X034022Y009520D01*
X034023Y009322D02*
X032782Y009322D01*
X032782Y009123D02*
X034769Y009123D01*
X034724Y009322D02*
X034724Y009322D01*
X034724Y009520D02*
X034724Y009520D01*
X034724Y009651D02*
X034724Y009651D01*
X034724Y009719D02*
X034724Y009719D01*
X034724Y009917D02*
X034724Y009917D01*
X034670Y010116D02*
X035293Y010116D01*
X035731Y009917D02*
X035767Y009917D01*
X035767Y009719D02*
X035731Y009719D01*
X036018Y009520D02*
X035426Y009520D01*
X035098Y009651D02*
X035098Y009216D01*
X034909Y008925D02*
X032782Y008925D01*
X034879Y007932D02*
X035188Y007932D01*
X034956Y007734D02*
X034879Y007734D01*
X034879Y007535D02*
X034879Y007535D01*
X034879Y007337D02*
X034879Y007337D01*
X034879Y007138D02*
X034960Y007138D01*
X034879Y006940D02*
X035206Y006940D01*
X034959Y006741D02*
X034879Y006741D01*
X034879Y006543D02*
X034879Y006543D01*
X034871Y006344D02*
X034879Y006344D01*
X034956Y006146D02*
X034742Y006146D01*
X034543Y005947D02*
X035191Y005947D01*
X036307Y005947D02*
X037502Y005947D01*
X037437Y005974D02*
X037640Y005890D01*
X037858Y005890D01*
X038061Y005974D01*
X038215Y006129D01*
X038299Y006331D01*
X038299Y006550D01*
X038215Y006752D01*
X038061Y006907D01*
X037858Y006990D01*
X037640Y006990D01*
X037437Y006907D01*
X037283Y006752D01*
X037199Y006550D01*
X037199Y006331D01*
X037283Y006129D01*
X037437Y005974D01*
X037276Y006146D02*
X036542Y006146D01*
X036619Y006344D02*
X037199Y006344D01*
X037199Y006543D02*
X036619Y006543D01*
X036539Y006741D02*
X037278Y006741D01*
X037518Y006940D02*
X036292Y006940D01*
X036658Y007138D02*
X039809Y007138D01*
X039809Y006940D02*
X037980Y006940D01*
X038220Y006741D02*
X039809Y006741D01*
X039809Y006543D02*
X038299Y006543D01*
X038299Y006344D02*
X039809Y006344D01*
X039809Y006146D02*
X038222Y006146D01*
X037996Y005947D02*
X039809Y005947D01*
X039809Y005749D02*
X032782Y005749D01*
X032782Y005550D02*
X039809Y005550D01*
X039809Y005352D02*
X032782Y005352D01*
X032782Y005153D02*
X039809Y005153D01*
X039809Y004955D02*
X032729Y004955D01*
X032782Y006741D02*
X034119Y006741D01*
X036876Y007337D02*
X039809Y007337D01*
X039809Y007535D02*
X036964Y007535D01*
X036964Y007734D02*
X039809Y007734D01*
X039809Y007932D02*
X037960Y007932D01*
X038061Y007974D02*
X038215Y008129D01*
X038299Y008331D01*
X038299Y008550D01*
X038215Y008752D01*
X038061Y008907D01*
X037858Y008990D01*
X037640Y008990D01*
X037437Y008907D01*
X037283Y008752D01*
X037199Y008550D01*
X037199Y008331D01*
X037283Y008129D01*
X037437Y007974D01*
X037640Y007890D01*
X037858Y007890D01*
X038061Y007974D01*
X038216Y008131D02*
X039809Y008131D01*
X039809Y008329D02*
X038298Y008329D01*
X038299Y008528D02*
X039809Y008528D01*
X039809Y008726D02*
X038226Y008726D01*
X038017Y008925D02*
X039809Y008925D01*
X039809Y009123D02*
X037588Y009123D01*
X037481Y008925D02*
X036947Y008925D01*
X036960Y009123D02*
X036835Y009123D01*
X036964Y008726D02*
X037272Y008726D01*
X037199Y008528D02*
X036964Y008528D01*
X036964Y008329D02*
X037200Y008329D01*
X037282Y008131D02*
X036964Y008131D01*
X036964Y007932D02*
X037538Y007932D01*
X037292Y009123D02*
X037256Y009123D01*
X037256Y009322D02*
X037292Y009322D01*
X037292Y009520D02*
X037256Y009520D01*
X037256Y009719D02*
X037292Y009719D01*
X037292Y009917D02*
X037256Y009917D01*
X037686Y009917D02*
X039809Y009917D01*
X039809Y009719D02*
X037710Y009719D01*
X037710Y009520D02*
X039809Y009520D01*
X039809Y009322D02*
X037710Y009322D01*
X038605Y010285D02*
X038651Y010258D01*
X038702Y010245D01*
X039124Y010245D01*
X039124Y010741D01*
X038528Y010741D01*
X038528Y010418D01*
X038542Y010367D01*
X038568Y010322D01*
X038605Y010285D01*
X038576Y010314D02*
X037700Y010314D01*
X037747Y010513D02*
X038528Y010513D01*
X038528Y010711D02*
X037747Y010711D01*
X037747Y011108D02*
X038528Y011108D01*
X038541Y011307D02*
X038148Y011307D01*
X037931Y011307D02*
X037734Y011307D01*
X037668Y011505D02*
X035040Y011505D01*
X035158Y011704D02*
X034841Y011704D01*
X034839Y011902D02*
X034959Y011902D01*
X035238Y011307D02*
X036061Y011307D01*
X036801Y011307D02*
X036994Y011307D01*
X036994Y011108D02*
X036801Y011108D01*
X036994Y010910D02*
X039124Y010910D01*
X039124Y011108D02*
X039317Y011108D01*
X039317Y011307D02*
X039124Y011307D01*
X039809Y011505D02*
X038411Y011505D01*
X038466Y011704D02*
X039809Y011704D01*
X039809Y011902D02*
X038428Y011902D01*
X038246Y012101D02*
X039809Y012101D01*
X039809Y012299D02*
X037688Y012299D01*
X037688Y012101D02*
X037832Y012101D01*
X037688Y012498D02*
X039809Y012498D01*
X039809Y012696D02*
X037688Y012696D01*
X037688Y012895D02*
X039809Y012895D01*
X039809Y013093D02*
X038279Y013093D01*
X038433Y013292D02*
X039809Y013292D01*
X039809Y013490D02*
X038466Y013490D01*
X038405Y013689D02*
X039809Y013689D01*
X039317Y013887D02*
X039124Y013887D01*
X039124Y013749D02*
X039124Y014245D01*
X038528Y014245D01*
X038528Y013922D01*
X038542Y013871D01*
X038568Y013826D01*
X038605Y013788D01*
X038651Y013762D01*
X038702Y013749D01*
X039124Y013749D01*
X039124Y014086D02*
X039317Y014086D01*
X039124Y014284D02*
X036994Y014284D01*
X036994Y014086D02*
X036801Y014086D01*
X036801Y013887D02*
X036994Y013887D01*
X036858Y013490D02*
X036858Y013490D01*
X036858Y013292D02*
X036858Y013292D01*
X036858Y012590D02*
X035974Y012590D01*
X035874Y012690D01*
X035874Y014440D01*
X036194Y013689D02*
X037673Y013689D01*
X037612Y013490D02*
X037571Y013490D01*
X037688Y013093D02*
X037800Y013093D01*
X037738Y013887D02*
X038538Y013887D01*
X038528Y014086D02*
X037747Y014086D01*
X037747Y014483D02*
X038528Y014483D01*
X038528Y014681D02*
X037747Y014681D01*
X037686Y014880D02*
X038589Y014880D01*
X038524Y014884D02*
X038800Y014999D01*
X039011Y015210D01*
X039126Y015487D01*
X039126Y015786D01*
X039011Y016062D01*
X038800Y016274D01*
X038524Y016388D01*
X038224Y016388D01*
X037948Y016274D01*
X037737Y016062D01*
X037622Y015786D01*
X037622Y015487D01*
X037737Y015210D01*
X037948Y014999D01*
X038224Y014884D01*
X038524Y014884D01*
X038880Y015078D02*
X039809Y015078D01*
X039809Y015277D02*
X039039Y015277D01*
X039121Y015475D02*
X039809Y015475D01*
X039809Y015674D02*
X039126Y015674D01*
X039090Y015872D02*
X039809Y015872D01*
X039809Y016071D02*
X039003Y016071D01*
X038804Y016269D02*
X039809Y016269D01*
X039809Y016468D02*
X035093Y016468D01*
X035289Y016666D02*
X039809Y016666D01*
X039809Y016865D02*
X036847Y016865D01*
X036835Y016847D02*
X036879Y016908D01*
X036913Y016975D01*
X036937Y017047D01*
X036948Y017122D01*
X036948Y017160D01*
X036948Y017198D01*
X036937Y017272D01*
X036913Y017344D01*
X036879Y017411D01*
X036835Y017472D01*
X036781Y017526D01*
X036732Y017561D01*
X036781Y017597D01*
X036835Y017650D01*
X036879Y017711D01*
X036913Y017779D01*
X036937Y017850D01*
X036948Y017925D01*
X036948Y017963D01*
X036948Y018001D01*
X036937Y018075D01*
X036913Y018147D01*
X036879Y018214D01*
X036835Y018276D01*
X036781Y018329D01*
X036757Y018347D01*
X036892Y018483D01*
X036968Y018667D01*
X036968Y018865D01*
X036892Y019049D01*
X036774Y019168D01*
X036892Y019286D01*
X036968Y019470D01*
X036968Y019669D01*
X036892Y019852D01*
X036752Y019993D01*
X036568Y020069D01*
X036369Y020069D01*
X036185Y019993D01*
X036045Y019852D01*
X035968Y019669D01*
X035968Y019470D01*
X036045Y019286D01*
X036163Y019168D01*
X036045Y019049D01*
X035968Y018865D01*
X035968Y018667D01*
X036045Y018483D01*
X036180Y018347D01*
X036156Y018329D01*
X036102Y018276D01*
X036058Y018214D01*
X036024Y018147D01*
X036000Y018075D01*
X035988Y018001D01*
X035988Y017963D01*
X036468Y017963D01*
X036468Y017963D01*
X035988Y017963D01*
X035988Y017925D01*
X036000Y017850D01*
X036024Y017779D01*
X036058Y017711D01*
X036102Y017650D01*
X036156Y017597D01*
X036205Y017561D01*
X036156Y017526D01*
X036102Y017472D01*
X036058Y017411D01*
X036024Y017344D01*
X036000Y017272D01*
X035988Y017198D01*
X035988Y017160D01*
X036468Y017160D01*
X036468Y017160D01*
X036468Y017640D01*
X036468Y017963D01*
X036468Y017963D01*
X036468Y017160D01*
X036468Y017160D01*
X035988Y017160D01*
X035988Y017122D01*
X036000Y017047D01*
X036024Y016975D01*
X036058Y016908D01*
X036102Y016847D01*
X036156Y016794D01*
X036217Y016749D01*
X036284Y016715D01*
X036356Y016692D01*
X036431Y016680D01*
X036468Y016680D01*
X036468Y017160D01*
X036468Y017160D01*
X036469Y017160D02*
X036948Y017160D01*
X036469Y017160D01*
X036469Y017160D01*
X036468Y017160D02*
X036468Y016680D01*
X036506Y016680D01*
X036581Y016692D01*
X036653Y016715D01*
X036720Y016749D01*
X036781Y016794D01*
X036835Y016847D01*
X036939Y017063D02*
X039809Y017063D01*
X039809Y017262D02*
X037844Y017262D01*
X037835Y017249D02*
X037879Y017310D01*
X037913Y017377D01*
X037937Y017449D01*
X037948Y017524D01*
X037948Y017561D01*
X037469Y017561D01*
X037469Y017561D01*
X037468Y017561D02*
X037468Y017081D01*
X037468Y017561D01*
X036988Y017561D01*
X036988Y017524D01*
X037000Y017449D01*
X037024Y017377D01*
X037058Y017310D01*
X037102Y017249D01*
X037156Y017195D01*
X037217Y017151D01*
X037284Y017116D01*
X037356Y017093D01*
X037431Y017081D01*
X037468Y017081D01*
X037506Y017081D01*
X037581Y017093D01*
X037653Y017116D01*
X037720Y017151D01*
X037781Y017195D01*
X037835Y017249D01*
X037938Y017460D02*
X039809Y017460D01*
X039809Y017659D02*
X037939Y017659D01*
X037937Y017674D02*
X037913Y017746D01*
X037879Y017813D01*
X037835Y017874D01*
X037781Y017927D01*
X037757Y017945D01*
X037892Y018081D01*
X037968Y018265D01*
X037968Y018464D01*
X037892Y018648D01*
X037757Y018784D01*
X037781Y018801D01*
X037835Y018855D01*
X037879Y018916D01*
X037913Y018983D01*
X037937Y019055D01*
X037948Y019130D01*
X037948Y019168D01*
X037469Y019168D01*
X037469Y019168D01*
X037948Y019168D01*
X037948Y019205D01*
X037937Y019280D01*
X037913Y019352D01*
X037879Y019419D01*
X037835Y019480D01*
X037781Y019534D01*
X037757Y019552D01*
X037892Y019688D01*
X037968Y019871D01*
X037968Y020070D01*
X037892Y020254D01*
X037752Y020395D01*
X037568Y020471D01*
X037369Y020471D01*
X037185Y020395D01*
X037045Y020254D01*
X036968Y020070D01*
X036968Y019871D01*
X037045Y019688D01*
X037180Y019552D01*
X037156Y019534D01*
X037102Y019480D01*
X037058Y019419D01*
X037024Y019352D01*
X037000Y019280D01*
X036988Y019205D01*
X036988Y019168D01*
X037468Y019168D01*
X037468Y019168D01*
X036988Y019168D01*
X036988Y019130D01*
X037000Y019055D01*
X037024Y018983D01*
X037058Y018916D01*
X037102Y018855D01*
X037156Y018801D01*
X037180Y018784D01*
X037045Y018648D01*
X036968Y018464D01*
X036968Y018265D01*
X037045Y018081D01*
X037180Y017945D01*
X037156Y017927D01*
X037102Y017874D01*
X037058Y017813D01*
X037024Y017746D01*
X037000Y017674D01*
X036988Y017599D01*
X036988Y017561D01*
X037468Y017561D01*
X037468Y017561D01*
X037468Y017561D01*
X037469Y017561D02*
X037948Y017561D01*
X037948Y017599D01*
X037937Y017674D01*
X037847Y017857D02*
X039809Y017857D01*
X039809Y018056D02*
X037867Y018056D01*
X037964Y018254D02*
X039809Y018254D01*
X039809Y018453D02*
X037968Y018453D01*
X037889Y018651D02*
X039809Y018651D01*
X039809Y018850D02*
X037829Y018850D01*
X037934Y019048D02*
X039809Y019048D01*
X039809Y019247D02*
X037942Y019247D01*
X037860Y019445D02*
X039809Y019445D01*
X039809Y019644D02*
X037849Y019644D01*
X037956Y019842D02*
X039809Y019842D01*
X039809Y020041D02*
X037968Y020041D01*
X037898Y020239D02*
X039809Y020239D01*
X039809Y020438D02*
X037648Y020438D01*
X037289Y020438D02*
X034923Y020438D01*
X034934Y020239D02*
X037039Y020239D01*
X036968Y020041D02*
X036637Y020041D01*
X036897Y019842D02*
X036981Y019842D01*
X036968Y019644D02*
X037088Y019644D01*
X037077Y019445D02*
X036958Y019445D01*
X036995Y019247D02*
X036853Y019247D01*
X036893Y019048D02*
X037003Y019048D01*
X036968Y018850D02*
X037108Y018850D01*
X037048Y018651D02*
X036962Y018651D01*
X036968Y018453D02*
X036862Y018453D01*
X036850Y018254D02*
X036973Y018254D01*
X036940Y018056D02*
X037070Y018056D01*
X036948Y017963D02*
X036469Y017963D01*
X036469Y017963D01*
X036948Y017963D01*
X036938Y017857D02*
X037090Y017857D01*
X036998Y017659D02*
X036841Y017659D01*
X036843Y017460D02*
X036999Y017460D01*
X036938Y017262D02*
X037093Y017262D01*
X037468Y017262D02*
X037468Y017262D01*
X037468Y017460D02*
X037468Y017460D01*
X036468Y017460D02*
X036468Y017460D01*
X036468Y017262D02*
X036468Y017262D01*
X036468Y017063D02*
X036468Y017063D01*
X036468Y016865D02*
X036468Y016865D01*
X036089Y016865D02*
X035289Y016865D01*
X035224Y017063D02*
X035998Y017063D01*
X035999Y017262D02*
X035224Y017262D01*
X035224Y017460D02*
X036094Y017460D01*
X036096Y017659D02*
X035224Y017659D01*
X035224Y017857D02*
X035999Y017857D01*
X035997Y018056D02*
X035224Y018056D01*
X035159Y018254D02*
X036087Y018254D01*
X036075Y018453D02*
X034949Y018453D01*
X034954Y018651D02*
X035975Y018651D01*
X035968Y018850D02*
X034954Y018850D01*
X034954Y019048D02*
X036044Y019048D01*
X036084Y019247D02*
X034954Y019247D01*
X034920Y019445D02*
X035979Y019445D01*
X035968Y019644D02*
X034934Y019644D01*
X034934Y019690D02*
X034934Y019847D01*
X034920Y019897D01*
X034896Y019940D01*
X034920Y019983D01*
X034934Y020034D01*
X034934Y020190D01*
X034334Y020190D01*
X034334Y020190D01*
X034334Y019690D01*
X034934Y019690D01*
X034934Y019842D02*
X036040Y019842D01*
X036300Y020041D02*
X034934Y020041D01*
X034954Y020636D02*
X039809Y020636D01*
X039809Y020835D02*
X038747Y020835D01*
X038800Y020857D02*
X039011Y021068D01*
X039126Y021345D01*
X039126Y021644D01*
X039011Y021920D01*
X038800Y022132D01*
X038524Y022246D01*
X038224Y022246D01*
X037948Y022132D01*
X037737Y021920D01*
X037622Y021644D01*
X037622Y021345D01*
X037737Y021068D01*
X037948Y020857D01*
X038224Y020742D01*
X038524Y020742D01*
X038800Y020857D01*
X038976Y021033D02*
X039809Y021033D01*
X039809Y021232D02*
X039079Y021232D01*
X039126Y021430D02*
X039809Y021430D01*
X039809Y021629D02*
X039126Y021629D01*
X039050Y021827D02*
X039809Y021827D01*
X039809Y022026D02*
X038906Y022026D01*
X038577Y022224D02*
X039809Y022224D01*
X039809Y022423D02*
X037563Y022423D01*
X037599Y022621D02*
X039809Y022621D01*
X039809Y022820D02*
X037548Y022820D01*
X037354Y023018D02*
X039809Y023018D01*
X039809Y023217D02*
X036707Y023217D01*
X036707Y023415D02*
X039809Y023415D01*
X039809Y023614D02*
X036527Y023614D01*
X036156Y023614D02*
X034055Y023614D01*
X033605Y023816D02*
X033155Y023816D01*
X033155Y023603D01*
X029114Y023603D01*
X029507Y023995D01*
X031760Y023995D01*
X031876Y023879D01*
X032452Y023879D01*
X032499Y023925D01*
X032546Y023879D01*
X033122Y023879D01*
X033155Y023912D01*
X033155Y023816D01*
X033605Y023816D01*
X033605Y023816D01*
X033155Y023812D02*
X029324Y023812D01*
X029125Y023614D02*
X033155Y023614D01*
X032834Y024315D02*
X033083Y024564D01*
X033605Y024564D01*
X034075Y024805D02*
X034687Y024805D01*
X034687Y025003D02*
X001059Y025003D01*
X001059Y024805D02*
X032871Y024805D01*
X033144Y025599D02*
X024982Y025599D01*
X025044Y025624D02*
X025190Y025771D01*
X025269Y025962D01*
X025269Y026169D01*
X025190Y026360D01*
X025044Y026506D01*
X024901Y026565D01*
X025044Y026624D01*
X025190Y026771D01*
X025269Y026962D01*
X025269Y027169D01*
X025190Y027360D01*
X025044Y027506D01*
X024869Y027578D01*
X024941Y027602D01*
X025011Y027638D01*
X025075Y027684D01*
X025130Y027740D01*
X025177Y027803D01*
X025212Y027873D01*
X025237Y027948D01*
X025249Y028026D01*
X025249Y028065D01*
X024749Y028065D01*
X024749Y028065D01*
X024249Y028065D01*
X024249Y028026D01*
X024261Y027948D01*
X024286Y027873D01*
X024321Y027803D01*
X024368Y027740D01*
X024423Y027684D01*
X024487Y027638D01*
X024557Y027602D01*
X024629Y027578D01*
X024454Y027506D01*
X024308Y027360D01*
X024229Y027169D01*
X024229Y026962D01*
X024308Y026771D01*
X024454Y026624D01*
X024597Y026565D01*
X024454Y026506D01*
X024308Y026360D01*
X024229Y026169D01*
X024229Y025962D01*
X024308Y025771D01*
X024454Y025624D01*
X024646Y025545D01*
X024852Y025545D01*
X025044Y025624D01*
X025201Y025797D02*
X033029Y025797D01*
X033029Y025996D02*
X025269Y025996D01*
X025258Y026194D02*
X033029Y026194D01*
X033029Y026393D02*
X025157Y026393D01*
X024964Y026591D02*
X033029Y026591D01*
X033132Y026790D02*
X025198Y026790D01*
X025269Y026988D02*
X034498Y026988D01*
X034300Y027187D02*
X025262Y027187D01*
X025164Y027385D02*
X034101Y027385D01*
X033903Y027584D02*
X028034Y027584D01*
X028169Y027782D02*
X033718Y027782D01*
X033679Y027981D02*
X028367Y027981D01*
X028566Y028179D02*
X032589Y028179D01*
X032124Y028680D02*
X032149Y028705D01*
X032149Y029315D01*
X032124Y028680D02*
X028614Y028680D01*
X027749Y027815D01*
X027384Y027782D02*
X025161Y027782D01*
X025242Y027981D02*
X027398Y027981D01*
X027597Y028179D02*
X025237Y028179D01*
X025237Y028182D02*
X025212Y028257D01*
X025177Y028327D01*
X025130Y028391D01*
X025075Y028447D01*
X025011Y028493D01*
X024941Y028529D01*
X024866Y028553D01*
X024788Y028565D01*
X024749Y028565D01*
X024749Y028065D01*
X024749Y028065D01*
X025249Y028065D01*
X025249Y028105D01*
X025237Y028182D01*
X025140Y028378D02*
X027859Y028378D01*
X028057Y028576D02*
X001059Y028576D01*
X001059Y028378D02*
X024358Y028378D01*
X024368Y028391D02*
X024321Y028327D01*
X024286Y028257D01*
X024261Y028182D01*
X024249Y028105D01*
X024249Y028065D01*
X024749Y028065D01*
X024749Y028565D01*
X024710Y028565D01*
X024632Y028553D01*
X024557Y028529D01*
X024487Y028493D01*
X024423Y028447D01*
X024368Y028391D01*
X024261Y028179D02*
X001059Y028179D01*
X001059Y027981D02*
X024256Y027981D01*
X024337Y027782D02*
X001059Y027782D01*
X001059Y027584D02*
X024613Y027584D01*
X024885Y027584D02*
X027464Y027584D01*
X028256Y028775D02*
X001059Y028775D01*
X001059Y028973D02*
X028485Y028973D01*
X029806Y030879D02*
X029870Y030847D01*
X029937Y030825D01*
X030007Y030814D01*
X030042Y030814D01*
X030042Y031264D01*
X029592Y031264D01*
X029592Y031229D01*
X029603Y031159D01*
X029625Y031091D01*
X029657Y031028D01*
X029699Y030971D01*
X029749Y030921D01*
X029806Y030879D01*
X029712Y030958D02*
X001059Y030958D01*
X001059Y030760D02*
X039809Y030760D01*
X039809Y030958D02*
X037488Y030958D01*
X037527Y030998D02*
X037395Y030866D01*
X037222Y030794D01*
X037035Y030794D01*
X036863Y030866D01*
X036735Y030993D01*
X036608Y030866D01*
X036435Y030794D01*
X036248Y030794D01*
X036075Y030866D01*
X035948Y030993D01*
X035820Y030866D01*
X035648Y030794D01*
X035461Y030794D01*
X035288Y030866D01*
X035160Y030993D01*
X035033Y030866D01*
X034860Y030794D01*
X034673Y030794D01*
X034500Y030866D01*
X034373Y030993D01*
X034246Y030866D01*
X034073Y030794D01*
X033886Y030794D01*
X033713Y030866D01*
X033586Y030993D01*
X033458Y030866D01*
X033285Y030794D01*
X033098Y030794D01*
X032926Y030866D01*
X032798Y030993D01*
X032671Y030866D01*
X032498Y030794D01*
X032311Y030794D01*
X032138Y030866D01*
X032011Y030993D01*
X031883Y030866D01*
X031711Y030794D01*
X031524Y030794D01*
X031351Y030866D01*
X031223Y030993D01*
X031096Y030866D01*
X030923Y030794D01*
X030736Y030794D01*
X030563Y030866D01*
X030431Y030998D01*
X030422Y031021D01*
X030386Y030971D01*
X030335Y030921D01*
X030278Y030879D01*
X030215Y030847D01*
X030148Y030825D01*
X030078Y030814D01*
X030042Y030814D01*
X030042Y031264D01*
X030042Y031264D01*
X029592Y031264D01*
X029592Y031299D01*
X029603Y031369D01*
X029625Y031437D01*
X029657Y031500D01*
X029699Y031557D01*
X029749Y031607D01*
X029806Y031649D01*
X029870Y031681D01*
X029937Y031703D01*
X030007Y031714D01*
X030042Y031714D01*
X030042Y031264D01*
X030042Y031264D01*
X030042Y031264D01*
X030042Y031714D01*
X030078Y031714D01*
X030148Y031703D01*
X030215Y031681D01*
X030278Y031649D01*
X030335Y031607D01*
X030386Y031557D01*
X030422Y031507D01*
X030431Y031530D01*
X030563Y031663D01*
X030736Y031734D01*
X030923Y031734D01*
X031096Y031663D01*
X031223Y031535D01*
X031351Y031663D01*
X031524Y031734D01*
X031711Y031734D01*
X031883Y031663D01*
X032011Y031535D01*
X032138Y031663D01*
X032311Y031734D01*
X032498Y031734D01*
X032671Y031663D01*
X032798Y031535D01*
X032926Y031663D01*
X033098Y031734D01*
X033285Y031734D01*
X033458Y031663D01*
X033586Y031535D01*
X033713Y031663D01*
X033886Y031734D01*
X034073Y031734D01*
X034246Y031663D01*
X034373Y031535D01*
X034500Y031663D01*
X034673Y031734D01*
X034860Y031734D01*
X035033Y031663D01*
X035160Y031535D01*
X035288Y031663D01*
X035461Y031734D01*
X035648Y031734D01*
X035820Y031663D01*
X035948Y031535D01*
X036075Y031663D01*
X036248Y031734D01*
X036435Y031734D01*
X036608Y031663D01*
X036735Y031535D01*
X036863Y031663D01*
X037035Y031734D01*
X037222Y031734D01*
X037395Y031663D01*
X037527Y031530D01*
X037599Y031358D01*
X037599Y031171D01*
X037527Y030998D01*
X037593Y031157D02*
X039809Y031157D01*
X039809Y031355D02*
X037599Y031355D01*
X037504Y031554D02*
X039809Y031554D01*
X039809Y031752D02*
X001059Y031752D01*
X001059Y031554D02*
X029697Y031554D01*
X029601Y031355D02*
X001059Y031355D01*
X001059Y031157D02*
X029604Y031157D01*
X030042Y031157D02*
X030042Y031157D01*
X030042Y031264D02*
X030042Y031264D01*
X030360Y031264D01*
X030360Y031264D01*
X030042Y031264D01*
X030042Y031355D02*
X030042Y031355D01*
X030042Y031554D02*
X030042Y031554D01*
X030388Y031554D02*
X030455Y031554D01*
X030471Y030958D02*
X030373Y030958D01*
X030042Y030958D02*
X030042Y030958D01*
X030917Y030363D02*
X001059Y030363D01*
X001059Y030561D02*
X039809Y030561D01*
X039809Y030363D02*
X037343Y030363D01*
X037489Y030164D02*
X039809Y030164D01*
X039809Y029966D02*
X037489Y029966D01*
X037342Y029767D02*
X039809Y029767D01*
X039809Y029569D02*
X034309Y029569D01*
X034309Y029370D02*
X039809Y029370D01*
X039809Y029172D02*
X035359Y029172D01*
X035384Y028973D02*
X039809Y028973D01*
X039809Y028775D02*
X035384Y028775D01*
X035384Y028576D02*
X039809Y028576D01*
X039809Y028378D02*
X035384Y028378D01*
X035354Y028179D02*
X039809Y028179D01*
X039809Y027981D02*
X034411Y027981D01*
X034610Y027782D02*
X039809Y027782D01*
X039809Y027584D02*
X034808Y027584D01*
X035007Y027385D02*
X039809Y027385D01*
X039809Y027187D02*
X035205Y027187D01*
X035399Y026988D02*
X039809Y026988D01*
X039809Y026790D02*
X035444Y026790D01*
X035444Y026591D02*
X039809Y026591D01*
X039809Y026393D02*
X035444Y026393D01*
X035444Y026194D02*
X039809Y026194D01*
X039809Y025996D02*
X035444Y025996D01*
X035444Y025797D02*
X039809Y025797D01*
X039809Y025599D02*
X035444Y025599D01*
X035444Y025400D02*
X039809Y025400D01*
X039809Y025202D02*
X035444Y025202D01*
X035561Y025003D02*
X039809Y025003D01*
X039809Y024805D02*
X035561Y024805D01*
X035561Y024606D02*
X039809Y024606D01*
X039809Y024408D02*
X036048Y024408D01*
X036114Y024209D02*
X039809Y024209D01*
X039809Y024011D02*
X036086Y024011D01*
X035792Y023812D02*
X039809Y023812D01*
X038171Y022224D02*
X037415Y022224D01*
X037088Y022026D02*
X037842Y022026D01*
X037698Y021827D02*
X037138Y021827D01*
X037128Y021629D02*
X037622Y021629D01*
X037622Y021430D02*
X037052Y021430D01*
X036879Y021232D02*
X037669Y021232D01*
X037772Y021033D02*
X034934Y021033D01*
X034934Y021190D02*
X034934Y021347D01*
X034920Y021397D01*
X034894Y021443D01*
X034857Y021480D01*
X034811Y021507D01*
X034760Y021520D01*
X034334Y021520D01*
X034334Y021190D01*
X033924Y021190D01*
X033924Y021190D01*
X034334Y021190D01*
X034334Y021190D01*
X034934Y021190D01*
X034934Y021232D02*
X036058Y021232D01*
X035885Y021430D02*
X034901Y021430D01*
X034334Y021430D02*
X034334Y021430D01*
X034334Y021232D02*
X034334Y021232D01*
X034334Y021190D02*
X034334Y021190D01*
X034334Y021040D02*
X034334Y021040D01*
X034954Y020835D02*
X038001Y020835D01*
X036526Y021232D02*
X036411Y021232D01*
X036411Y021430D02*
X036526Y021430D01*
X036526Y021629D02*
X036411Y021629D01*
X035809Y021629D02*
X033860Y021629D01*
X033661Y021827D02*
X035799Y021827D01*
X035849Y022026D02*
X033463Y022026D01*
X033478Y022224D02*
X033693Y022224D01*
X034266Y022224D02*
X034480Y022224D01*
X035053Y022224D02*
X035268Y022224D01*
X035840Y022224D02*
X035978Y022224D01*
X036593Y023018D02*
X036904Y023018D01*
X036342Y023283D02*
X028842Y023283D01*
X027249Y021690D01*
X014749Y021690D01*
X014499Y021440D01*
X014499Y020315D01*
X015249Y019565D01*
X015624Y019565D01*
X015807Y019382D01*
X015807Y018724D01*
X015492Y018724D02*
X015492Y019072D01*
X015374Y019190D01*
X015124Y019190D01*
X014124Y020190D01*
X014124Y021565D01*
X014624Y022065D01*
X027124Y022065D01*
X029374Y024315D01*
X032164Y024315D01*
X034393Y024190D02*
X034477Y024106D01*
X035124Y024106D01*
X035664Y024106D01*
X035749Y024190D01*
X035124Y024775D02*
X035124Y026815D01*
X033999Y027940D01*
X033999Y028670D01*
X033989Y028680D01*
X033989Y029830D01*
X033974Y030065D01*
X037124Y030065D01*
X036770Y030958D02*
X036700Y030958D01*
X036716Y031554D02*
X036754Y031554D01*
X035967Y031554D02*
X035929Y031554D01*
X035913Y030958D02*
X035983Y030958D01*
X035195Y030958D02*
X035126Y030958D01*
X035142Y031554D02*
X035179Y031554D01*
X034392Y031554D02*
X034354Y031554D01*
X034338Y030958D02*
X034408Y030958D01*
X033620Y030958D02*
X033551Y030958D01*
X033567Y031554D02*
X033604Y031554D01*
X032817Y031554D02*
X032779Y031554D01*
X032763Y030958D02*
X032833Y030958D01*
X032046Y030958D02*
X031976Y030958D01*
X031992Y031554D02*
X032030Y031554D01*
X031242Y031554D02*
X031205Y031554D01*
X031189Y030958D02*
X031258Y030958D01*
X031331Y030363D02*
X031367Y030363D01*
X031367Y030164D02*
X031331Y030164D01*
X031331Y029966D02*
X031367Y029966D01*
X031367Y029767D02*
X031331Y029767D01*
X031331Y029569D02*
X031367Y029569D01*
X031367Y029370D02*
X031331Y029370D01*
X030913Y029370D02*
X001059Y029370D01*
X001059Y029172D02*
X030913Y029172D01*
X030913Y029569D02*
X001059Y029569D01*
X001059Y029767D02*
X030917Y029767D01*
X030913Y029966D02*
X001059Y029966D01*
X001059Y030164D02*
X030913Y030164D01*
X032149Y030065D02*
X033974Y030065D01*
X034842Y029172D02*
X034937Y029172D01*
X034937Y028973D02*
X034842Y028973D01*
X034842Y028775D02*
X034937Y028775D01*
X034841Y028728D02*
X034504Y028728D01*
X034504Y028633D01*
X034841Y028633D01*
X034841Y028728D01*
X034842Y028576D02*
X034937Y028576D01*
X034937Y028378D02*
X034842Y028378D01*
X034842Y028179D02*
X034937Y028179D01*
X033089Y028680D02*
X032124Y028680D01*
X034804Y025400D02*
X001059Y025400D01*
X001059Y025202D02*
X034804Y025202D01*
X030959Y021390D02*
X030959Y021190D01*
X030959Y021040D01*
X030959Y021190D01*
X030959Y021190D01*
X031294Y021190D01*
X031294Y021190D01*
X030959Y021190D01*
X030959Y021190D01*
X030359Y021190D01*
X030959Y021190D01*
X030959Y021190D01*
X030959Y021390D01*
X030959Y021390D01*
X030959Y021232D02*
X030959Y021232D01*
X030959Y021190D02*
X030959Y021190D01*
X030959Y021040D02*
X030959Y021040D01*
X030359Y021033D02*
X030299Y021033D01*
X030299Y020835D02*
X030339Y020835D01*
X030339Y020636D02*
X030299Y020636D01*
X030299Y020438D02*
X030370Y020438D01*
X030359Y020239D02*
X030299Y020239D01*
X030299Y020041D02*
X030359Y020041D01*
X030339Y019842D02*
X030299Y019842D01*
X030299Y019644D02*
X030339Y019644D01*
X030363Y019445D02*
X030299Y019445D01*
X030299Y019247D02*
X030359Y019247D01*
X030359Y019048D02*
X030315Y019048D01*
X031914Y019048D02*
X031914Y019048D01*
X031914Y018850D02*
X031914Y018850D01*
X031914Y018690D02*
X031914Y018690D01*
X032514Y018651D02*
X032992Y018651D01*
X032949Y018850D02*
X032513Y018850D01*
X032514Y019048D02*
X032949Y019048D01*
X032949Y019247D02*
X032514Y019247D01*
X032510Y019445D02*
X032949Y019445D01*
X032949Y019644D02*
X032534Y019644D01*
X032534Y019842D02*
X032949Y019842D01*
X032949Y020041D02*
X032514Y020041D01*
X032514Y020239D02*
X032949Y020239D01*
X032949Y020438D02*
X032477Y020438D01*
X032514Y020636D02*
X032949Y020636D01*
X032949Y020835D02*
X032514Y020835D01*
X032534Y021033D02*
X032949Y021033D01*
X032908Y021232D02*
X032534Y021232D01*
X031914Y020636D02*
X031914Y020636D01*
X031914Y020438D02*
X031914Y020438D01*
X031914Y020239D02*
X031914Y020239D01*
X031914Y020190D02*
X031914Y020190D01*
X030359Y021232D02*
X030299Y021232D01*
X027624Y023018D02*
X001059Y023018D01*
X001059Y023217D02*
X023081Y023217D01*
X023009Y023415D02*
X001059Y023415D01*
X001059Y023614D02*
X023031Y023614D01*
X023223Y023825D02*
X023009Y024039D01*
X023009Y024341D01*
X023223Y024555D01*
X023525Y024555D01*
X023570Y024510D01*
X027428Y024510D01*
X027473Y024555D01*
X027775Y024555D01*
X027989Y024341D01*
X027989Y024039D01*
X027775Y023825D01*
X027473Y023825D01*
X027428Y023870D01*
X023570Y023870D01*
X023525Y023825D01*
X023223Y023825D01*
X023037Y024011D02*
X001059Y024011D01*
X001059Y024209D02*
X023009Y024209D01*
X023075Y024408D02*
X001059Y024408D01*
X001059Y024606D02*
X029240Y024606D01*
X029014Y024408D02*
X027923Y024408D01*
X027989Y024209D02*
X028815Y024209D01*
X028617Y024011D02*
X027961Y024011D01*
X027624Y024190D02*
X023374Y024190D01*
X023374Y023440D02*
X027624Y023440D01*
X027989Y023415D02*
X028021Y023415D01*
X027967Y023614D02*
X028220Y023614D01*
X028418Y023812D02*
X001059Y023812D01*
X001059Y025599D02*
X024516Y025599D01*
X024297Y025797D02*
X001059Y025797D01*
X001059Y025996D02*
X024229Y025996D01*
X024240Y026194D02*
X001059Y026194D01*
X001059Y026393D02*
X024341Y026393D01*
X024534Y026591D02*
X001059Y026591D01*
X001059Y026790D02*
X024300Y026790D01*
X024229Y026988D02*
X001059Y026988D01*
X001059Y027187D02*
X024237Y027187D01*
X024334Y027385D02*
X001059Y027385D01*
X001059Y031951D02*
X039809Y031951D01*
X027426Y022820D02*
X024136Y022820D01*
X024239Y022621D02*
X027227Y022621D01*
X027029Y022423D02*
X024239Y022423D01*
X024285Y019445D02*
X024487Y019445D01*
X024629Y019247D02*
X024184Y019247D01*
X024323Y019048D02*
X024366Y019048D01*
X024360Y018453D02*
X024197Y018453D01*
X024144Y018254D02*
X024593Y018254D01*
X025055Y018254D02*
X026748Y018254D01*
X026748Y018056D02*
X024104Y018056D01*
X023919Y017857D02*
X026786Y017857D01*
X027151Y017857D02*
X027158Y017857D01*
X027151Y018056D02*
X027158Y018056D01*
X027151Y018254D02*
X027158Y018254D01*
X027151Y018453D02*
X027158Y018453D01*
X026754Y018453D02*
X025288Y018453D01*
X023720Y017659D02*
X027509Y017659D01*
X027509Y017460D02*
X023522Y017460D01*
X023323Y017262D02*
X027304Y017262D01*
X027499Y016940D02*
X020874Y016940D01*
X020689Y016755D01*
X019035Y016755D01*
X019035Y016440D02*
X021150Y016440D01*
X021228Y016346D01*
X022046Y016328D02*
X022046Y016365D01*
X022464Y016365D01*
X022464Y016620D01*
X026476Y016620D01*
X025987Y016130D01*
X022464Y016130D01*
X022464Y016328D01*
X022046Y016328D01*
X022464Y016269D02*
X026125Y016269D01*
X026324Y016468D02*
X022464Y016468D01*
X022096Y018015D02*
X019035Y018015D01*
X018570Y018254D02*
X018562Y018254D01*
X018848Y018950D02*
X019150Y018950D01*
X019364Y019164D01*
X018848Y018950D02*
X018803Y018995D01*
X018645Y018995D01*
X018811Y019644D02*
X017562Y019644D01*
X017614Y019445D02*
X017801Y019445D01*
X017692Y019247D02*
X017572Y019247D01*
X016752Y019187D02*
X016752Y018724D01*
X016752Y019187D02*
X016499Y019440D01*
X012149Y018383D02*
X012149Y018374D01*
X011712Y018453D02*
X010563Y018453D01*
X010563Y018254D02*
X011577Y018254D01*
X010890Y018056D02*
X010563Y018056D01*
X010146Y018312D02*
X010146Y017712D01*
X010146Y018312D02*
X010146Y019418D01*
X010124Y019440D01*
X009759Y019445D02*
X008207Y019445D01*
X008405Y019644D02*
X009811Y019644D01*
X009880Y020041D02*
X008802Y020041D01*
X009001Y020239D02*
X009880Y020239D01*
X009880Y020438D02*
X009199Y020438D01*
X009398Y020636D02*
X009880Y020636D01*
X009880Y020835D02*
X009596Y020835D01*
X009088Y021232D02*
X004139Y021232D01*
X004139Y021033D02*
X008889Y021033D01*
X008691Y020835D02*
X003997Y020835D01*
X003878Y020636D02*
X008492Y020636D01*
X008294Y020438D02*
X004077Y020438D01*
X004119Y020239D02*
X008095Y020239D01*
X007897Y020041D02*
X004119Y020041D01*
X003976Y019842D02*
X007698Y019842D01*
X007500Y019644D02*
X003974Y019644D01*
X004164Y019445D02*
X007301Y019445D01*
X007103Y019247D02*
X004164Y019247D01*
X004164Y019048D02*
X006841Y019048D01*
X006642Y018850D02*
X003987Y018850D01*
X003938Y018651D02*
X006634Y018651D01*
X007278Y018453D02*
X007498Y018453D01*
X007529Y018651D02*
X007413Y018651D01*
X007611Y018850D02*
X009826Y018850D01*
X009826Y019048D02*
X007810Y019048D01*
X008008Y019247D02*
X009801Y019247D01*
X010466Y019247D02*
X010837Y019247D01*
X010837Y019048D02*
X010466Y019048D01*
X010466Y018850D02*
X010837Y018850D01*
X010837Y018651D02*
X010532Y018651D01*
X010489Y019445D02*
X010941Y019445D01*
X011092Y019644D02*
X010437Y019644D01*
X011092Y019842D02*
X008604Y019842D01*
X009003Y018651D02*
X009091Y018651D01*
X009459Y018330D02*
X008593Y018330D01*
X008499Y018236D01*
X008499Y017565D01*
X008146Y017212D01*
X007625Y017212D01*
X007625Y016712D01*
X007901Y018453D02*
X007908Y018453D01*
X007901Y018651D02*
X007908Y018651D01*
X009459Y018330D02*
X009477Y018312D01*
X009286Y021430D02*
X004113Y021430D01*
X003251Y020835D02*
X002997Y020835D01*
X002878Y020636D02*
X003370Y020636D01*
X003171Y020438D02*
X003077Y020438D01*
X003119Y020239D02*
X003129Y020239D01*
X003119Y020041D02*
X003129Y020041D01*
X003272Y019842D02*
X002976Y019842D01*
X002974Y019644D02*
X003324Y019644D01*
X003311Y018850D02*
X002987Y018850D01*
X002938Y018651D02*
X003360Y018651D01*
X003161Y018453D02*
X003137Y018453D01*
X003144Y018254D02*
X003154Y018254D01*
X003144Y018056D02*
X003154Y018056D01*
X003332Y017857D02*
X002966Y017857D01*
X002959Y017659D02*
X003339Y017659D01*
X003296Y016865D02*
X003002Y016865D01*
X002923Y016666D02*
X003375Y016666D01*
X003176Y016468D02*
X003122Y016468D01*
X003144Y016269D02*
X003154Y016269D01*
X003144Y016071D02*
X003154Y016071D01*
X003317Y015872D02*
X002981Y015872D01*
X002944Y015674D02*
X003354Y015674D01*
X003155Y015475D02*
X003143Y015475D01*
X004144Y014086D02*
X012397Y014086D01*
X012274Y014037D02*
X012274Y014037D01*
X015492Y014157D02*
X015492Y013697D01*
X015499Y013690D01*
X015807Y013448D02*
X015624Y013265D01*
X015624Y012865D01*
X016124Y013065D02*
X016124Y014155D01*
X016122Y014157D01*
X015807Y014157D02*
X015807Y013448D01*
X016444Y013490D02*
X016642Y013490D01*
X016623Y013292D02*
X016444Y013292D01*
X016489Y013093D02*
X016623Y013093D01*
X016640Y012895D02*
X016470Y012895D01*
X016246Y012696D02*
X018543Y012696D01*
X018543Y012895D02*
X018145Y012895D01*
X018145Y013093D02*
X018543Y013093D01*
X018601Y013292D02*
X018145Y013292D01*
X018145Y013490D02*
X018246Y013490D01*
X018124Y013565D02*
X018012Y013678D01*
X018012Y014157D01*
X018327Y014157D02*
X018327Y013863D01*
X018474Y013715D01*
X018999Y013715D01*
X019874Y013715D01*
X020350Y013689D02*
X020920Y013689D01*
X020929Y013887D02*
X020350Y013887D01*
X020307Y014086D02*
X020929Y014086D01*
X020721Y013490D02*
X020350Y013490D01*
X020301Y013292D02*
X020523Y013292D01*
X019488Y012498D02*
X019341Y012498D01*
X019017Y012498D02*
X018981Y012498D01*
X018981Y012696D02*
X019017Y012696D01*
X019017Y012895D02*
X018981Y012895D01*
X018657Y012498D02*
X016444Y012498D01*
X017026Y012895D02*
X017033Y012895D01*
X017026Y013093D02*
X017033Y013093D01*
X017026Y013292D02*
X017033Y013292D01*
X017026Y013490D02*
X017033Y013490D01*
X017697Y013212D02*
X017718Y013190D01*
X017697Y013212D02*
X017697Y014157D01*
X018012Y014547D02*
X018012Y014547D01*
X019035Y015495D02*
X026304Y015495D01*
X026874Y016065D01*
X027874Y016065D01*
X032649Y018453D02*
X033187Y018453D01*
X032859Y018254D02*
X033714Y018254D01*
X033714Y018056D02*
X033044Y018056D01*
X033465Y017857D02*
X033472Y017857D01*
X033465Y017659D02*
X033472Y017659D01*
X033465Y017460D02*
X033472Y017460D01*
X033465Y017262D02*
X033472Y017262D01*
X033314Y017063D02*
X034624Y017063D01*
X034624Y017262D02*
X033854Y017262D01*
X033875Y017460D02*
X034624Y017460D01*
X034624Y017659D02*
X033875Y017659D01*
X033314Y016865D02*
X034559Y016865D01*
X034559Y016666D02*
X033191Y016666D01*
X033174Y016468D02*
X034755Y016468D01*
X033571Y016071D02*
X037745Y016071D01*
X037658Y015872D02*
X036914Y015872D01*
X037068Y015674D02*
X037622Y015674D01*
X037627Y015475D02*
X037132Y015475D01*
X037135Y015277D02*
X037709Y015277D01*
X037868Y015078D02*
X037077Y015078D01*
X036994Y014880D02*
X036933Y014880D01*
X036994Y014681D02*
X036801Y014681D01*
X036801Y014483D02*
X036994Y014483D01*
X036526Y015475D02*
X036411Y015475D01*
X036411Y015674D02*
X036526Y015674D01*
X036526Y015872D02*
X036411Y015872D01*
X037944Y016269D02*
X033373Y016269D01*
X036468Y017659D02*
X036468Y017659D01*
X036468Y017857D02*
X036468Y017857D01*
X034334Y019690D02*
X034334Y019690D01*
X034334Y019842D02*
X034334Y019842D01*
X034334Y020041D02*
X034334Y020041D01*
X034334Y020190D02*
X034334Y020190D01*
X039124Y014880D02*
X039317Y014880D01*
X039317Y014681D02*
X039124Y014681D01*
X039124Y014483D02*
X039317Y014483D01*
X039317Y010711D02*
X039124Y010711D01*
X039124Y010513D02*
X039317Y010513D01*
X039317Y010314D02*
X039124Y010314D01*
X039809Y010116D02*
X036205Y010116D01*
X036801Y010314D02*
X036994Y010314D01*
X036994Y010513D02*
X036801Y010513D01*
X036801Y010711D02*
X036994Y010711D01*
X036474Y009565D02*
X036374Y009465D01*
X036374Y009065D01*
X034802Y010314D02*
X034646Y010314D01*
X034678Y010513D02*
X034770Y010513D01*
X034758Y010711D02*
X034690Y010711D01*
X034499Y012440D02*
X034405Y012535D01*
X034731Y012895D02*
X034804Y012895D01*
X030216Y005153D02*
X014811Y005153D01*
X014807Y004955D02*
X030269Y004955D01*
X023253Y006741D02*
X022201Y006741D01*
X022002Y006940D02*
X023253Y006940D01*
X023253Y007138D02*
X021804Y007138D01*
X021605Y007337D02*
X023253Y007337D01*
X023253Y007535D02*
X021407Y007535D01*
X021208Y007734D02*
X023253Y007734D01*
X023253Y007932D02*
X021010Y007932D01*
X020811Y008131D02*
X023253Y008131D01*
X023253Y008329D02*
X020613Y008329D01*
X020414Y008528D02*
X023253Y008528D01*
X023253Y008726D02*
X020216Y008726D01*
X020017Y008925D02*
X023253Y008925D01*
X023253Y009123D02*
X019819Y009123D01*
X019620Y009322D02*
X023253Y009322D01*
X023253Y009520D02*
X019422Y009520D01*
X019223Y009719D02*
X023253Y009719D01*
X023253Y009917D02*
X019025Y009917D01*
X018826Y010116D02*
X023253Y010116D01*
X023253Y010314D02*
X018628Y010314D01*
X018429Y010513D02*
X023253Y010513D01*
X023253Y010711D02*
X018231Y010711D01*
X018032Y010910D02*
X023253Y010910D01*
X023253Y011108D02*
X017834Y011108D01*
X019432Y014086D02*
X019441Y014086D01*
X018520Y015674D02*
X018017Y015674D01*
X018017Y015872D02*
X018520Y015872D01*
X021295Y006741D02*
X013335Y006741D01*
X013251Y006760D02*
X013251Y006760D01*
X013745Y006648D02*
X013745Y006648D01*
X013927Y006543D02*
X021494Y006543D01*
X021692Y006344D02*
X014230Y006344D01*
X014184Y006394D02*
X014184Y006394D01*
X014415Y006146D02*
X021891Y006146D01*
X022089Y005947D02*
X014565Y005947D01*
X014529Y006023D02*
X014529Y006023D01*
X014661Y005749D02*
X022288Y005749D01*
X005114Y008528D02*
X003559Y008528D01*
X003365Y008329D02*
X004938Y008329D01*
X003021Y008329D02*
X002861Y008329D01*
X002861Y008528D02*
X003021Y008528D01*
X003021Y008726D02*
X002861Y008726D01*
X002861Y009123D02*
X003021Y009123D01*
X003021Y009322D02*
X002861Y009322D01*
X002861Y009520D02*
X003021Y009520D01*
X002486Y009520D02*
X001657Y009520D01*
X001657Y009322D02*
X002309Y009322D01*
X001345Y009322D02*
X001059Y009322D01*
X001059Y009520D02*
X001345Y009520D01*
X001345Y009719D02*
X001059Y009719D01*
X001059Y009917D02*
X001345Y009917D01*
X001345Y010116D02*
X001059Y010116D01*
X001059Y010314D02*
X001345Y010314D01*
X001345Y009123D02*
X001059Y009123D01*
X001059Y008925D02*
X001345Y008925D01*
X001345Y008726D02*
X001059Y008726D01*
X001059Y008528D02*
X001345Y008528D01*
X001345Y008329D02*
X001059Y008329D01*
X001059Y008131D02*
X001345Y008131D01*
X001345Y007932D02*
X001059Y007932D01*
X001059Y007734D02*
X001345Y007734D01*
X001345Y007535D02*
X001059Y007535D01*
X001059Y007337D02*
X001345Y007337D01*
X001345Y007138D02*
X001059Y007138D01*
X001059Y006940D02*
X002715Y006940D01*
X002715Y006741D02*
X001059Y006741D01*
X024749Y028065D02*
X024749Y028065D01*
X024749Y028179D02*
X024749Y028179D01*
X024749Y028378D02*
X024749Y028378D01*
D43*
X027749Y027815D03*
X027624Y024190D03*
X027624Y023440D03*
X023874Y022565D03*
X023374Y023440D03*
X023374Y024190D03*
X019624Y020690D03*
X018999Y019315D03*
X019374Y018690D03*
X018249Y017815D03*
X018349Y017090D03*
X018349Y016340D03*
X020624Y014690D03*
X020624Y013940D03*
X018349Y012590D03*
X016124Y013065D03*
X015099Y013340D03*
X013249Y015440D03*
X013249Y016190D03*
X013249Y016940D03*
X012374Y017440D03*
X014249Y018940D03*
X016499Y019440D03*
X017249Y019440D03*
X012124Y021565D03*
X010124Y019440D03*
X006999Y018690D03*
X008124Y015440D03*
X008874Y015190D03*
X003244Y013574D03*
X022874Y016315D03*
X024874Y014815D03*
X027499Y016940D03*
X027874Y017565D03*
X032124Y017665D03*
X032949Y016940D03*
X034924Y016815D03*
X034374Y013115D03*
X031749Y011565D03*
X033749Y010565D03*
X038999Y009690D03*
X038999Y022940D03*
X036342Y023283D03*
X035749Y024190D03*
X033999Y025190D03*
X033974Y030065D03*
X037124Y030065D03*
D44*
X034499Y012440D02*
X034499Y011565D01*
X035098Y010966D01*
X035098Y010674D01*
X035098Y010840D01*
X035749Y010840D01*
X034350Y010739D02*
X033971Y011118D01*
X034350Y010739D02*
X034350Y010674D01*
X033302Y011118D02*
X033302Y011618D01*
X033530Y011846D01*
X033749Y011846D01*
X035098Y009216D02*
X035249Y009065D01*
X036374Y009065D01*
X036624Y008815D01*
X036624Y007565D01*
X036499Y007440D01*
X035749Y007440D01*
D45*
X034274Y013490D02*
X033989Y013775D01*
X033749Y013775D01*
X032799Y015090D02*
X032474Y015090D01*
X032149Y014765D01*
X032949Y016940D02*
X032749Y017140D01*
X032749Y017940D01*
X032499Y018190D01*
X031914Y018190D01*
X032124Y017665D02*
X031399Y017665D01*
X030959Y018105D01*
X030959Y018190D01*
X030959Y018690D02*
X030249Y018690D01*
X029999Y018940D01*
X029999Y021440D01*
X030249Y021690D01*
X032874Y021690D01*
X033249Y021315D01*
X033249Y018815D01*
X033374Y018690D01*
X034334Y018690D01*
X034334Y019190D02*
X033749Y019190D01*
X033624Y019315D01*
X033624Y021440D01*
X032999Y022065D01*
X028124Y022065D01*
X027499Y021440D01*
X014999Y021440D01*
X014874Y021315D01*
X014874Y020315D01*
X015374Y019815D01*
X015737Y019815D01*
X016074Y019478D01*
X016074Y019228D01*
X016122Y019180D01*
X016122Y018724D01*
X015699Y014915D02*
X015672Y014913D01*
X015645Y014908D01*
X015620Y014899D01*
X015596Y014887D01*
X015573Y014872D01*
X015553Y014854D01*
X015535Y014834D01*
X015520Y014812D01*
X015508Y014787D01*
X015499Y014762D01*
X015494Y014735D01*
X015492Y014708D01*
X015492Y013697D01*
X027843Y017596D02*
X027874Y017565D01*
X027843Y017596D02*
X027843Y018190D01*
X028539Y018190D01*
X032749Y017940D02*
X032780Y017910D01*
X032780Y017565D01*
X034334Y018190D02*
X034799Y018190D01*
X034924Y018065D01*
X034924Y016815D01*
X034149Y023690D02*
X034023Y023816D01*
X033605Y023816D01*
D46*
X034499Y012440D03*
X028499Y005940D03*
D47*
X031499Y005886D02*
X031678Y006190D01*
X034249Y006190D01*
X034499Y006440D01*
X034499Y008190D01*
X034749Y008440D01*
X035749Y008440D01*
X031499Y009744D02*
X031428Y009940D01*
X031124Y009940D01*
X030249Y010815D01*
X030249Y014940D01*
X030624Y015315D01*
X031749Y015315D01*
X028749Y015315D02*
X026698Y015315D01*
X025999Y014616D01*
M02*
