G75*
G70*
%OFA0B0*%
%FSLAX24Y24*%
%IPPOS*%
%LPD*%
%AMOC8*
5,1,8,0,0,1.08239X$1,22.5*
%
%ADD10R,0.0591X0.0197*%
%ADD11R,0.0197X0.0591*%
%ADD12R,0.0984X0.0787*%
%ADD13R,0.1299X0.0787*%
%ADD14R,0.1220X0.0197*%
%ADD15R,0.0394X0.0433*%
%ADD16R,0.0217X0.0472*%
%ADD17R,0.0866X0.0236*%
%ADD18R,0.0413X0.0425*%
%ADD19R,0.0500X0.0394*%
%ADD20R,0.0433X0.0394*%
%ADD21R,0.0425X0.0413*%
%ADD22R,0.0709X0.0551*%
%ADD23R,0.0906X0.0630*%
%ADD24R,0.0512X0.0472*%
%ADD25R,0.0472X0.0512*%
%ADD26R,0.0709X0.0630*%
%ADD27R,0.0590X0.0790*%
%ADD28R,0.1500X0.0790*%
%ADD29R,0.2126X0.1575*%
%ADD30R,0.0800X0.0260*%
D10*
X014468Y014865D03*
X014468Y015180D03*
X014468Y015495D03*
X014468Y015810D03*
X014468Y016125D03*
X014468Y016440D03*
X014468Y016755D03*
X014468Y017070D03*
X014468Y017385D03*
X014468Y017700D03*
X014468Y018015D03*
X019035Y018015D03*
X019035Y017700D03*
X019035Y017385D03*
X019035Y017070D03*
X019035Y016755D03*
X019035Y016440D03*
X019035Y016125D03*
X019035Y015810D03*
X019035Y015495D03*
X019035Y015180D03*
X019035Y014865D03*
D11*
X018327Y014157D03*
X018012Y014157D03*
X017697Y014157D03*
X017382Y014157D03*
X017067Y014157D03*
X016752Y014157D03*
X016437Y014157D03*
X016122Y014157D03*
X015807Y014157D03*
X015492Y014157D03*
X015177Y014157D03*
X015177Y018724D03*
X015492Y018724D03*
X015807Y018724D03*
X016122Y018724D03*
X016437Y018724D03*
X016752Y018724D03*
X017067Y018724D03*
X017382Y018724D03*
X017697Y018724D03*
X018012Y018724D03*
X018327Y018724D03*
D12*
X039220Y014342D03*
X039220Y010838D03*
D13*
X036898Y010838D03*
X036898Y014342D03*
D14*
X036858Y013220D03*
X036858Y012905D03*
X036858Y012590D03*
X036858Y012275D03*
X036858Y011960D03*
D15*
X033971Y011118D03*
X033302Y011118D03*
X033942Y014790D03*
X033942Y015415D03*
X034611Y015415D03*
X034611Y014790D03*
X032834Y024315D03*
X032164Y024315D03*
X010911Y015128D03*
X010242Y015128D03*
X010146Y018312D03*
X009477Y018312D03*
D16*
X034350Y010674D03*
X035098Y010674D03*
X035098Y009651D03*
X034724Y009651D03*
X034350Y009651D03*
D17*
X009673Y016212D03*
X009673Y016712D03*
X009673Y017212D03*
X009673Y017712D03*
X007625Y017712D03*
X007625Y017212D03*
X007625Y016712D03*
X007625Y016212D03*
D18*
X017030Y013190D03*
X017718Y013190D03*
X008593Y018330D03*
X007905Y018330D03*
X027155Y018190D03*
X027843Y018190D03*
X032780Y017565D03*
X033468Y017565D03*
D19*
X033605Y023816D03*
X034393Y024190D03*
X033605Y024564D03*
X011470Y016253D03*
X010683Y016627D03*
X010683Y015879D03*
D20*
X012149Y018383D03*
X012149Y019053D03*
X030664Y017315D03*
X031334Y017315D03*
X031334Y016190D03*
X030664Y016190D03*
X033749Y013775D03*
X033749Y013106D03*
X035124Y024106D03*
X035124Y024775D03*
D21*
X033749Y012535D03*
X033749Y011846D03*
X013349Y018318D03*
X012724Y018318D03*
X012724Y019007D03*
X013349Y019007D03*
D22*
X011412Y018975D03*
X011412Y017636D03*
D23*
X010553Y020429D03*
X013033Y020429D03*
D24*
X018999Y013715D03*
X019874Y013715D03*
X019874Y012915D03*
X018999Y012915D03*
X032799Y014290D03*
X032799Y015090D03*
X035749Y010840D03*
X035749Y010040D03*
D25*
X036474Y009565D03*
X037274Y009565D03*
X022028Y016346D03*
X021228Y016346D03*
X031349Y029315D03*
X031349Y030065D03*
X032149Y030065D03*
X032149Y029315D03*
D26*
X025999Y014616D03*
X025999Y013514D03*
X032874Y013366D03*
X032874Y012264D03*
D27*
X033089Y028680D03*
X033989Y028680D03*
X034889Y028680D03*
D28*
X033999Y026200D03*
D29*
X031499Y009744D03*
X031499Y005886D03*
D30*
X031914Y018190D03*
X031914Y018690D03*
X031914Y019190D03*
X031914Y019690D03*
X031914Y020190D03*
X031914Y020690D03*
X031914Y021190D03*
X030959Y021190D03*
X030959Y020690D03*
X030959Y020190D03*
X030959Y019690D03*
X030959Y019190D03*
X030959Y018690D03*
X030959Y018190D03*
X028539Y018190D03*
X028539Y018690D03*
X028539Y019190D03*
X028539Y019690D03*
X028539Y020190D03*
X028539Y020690D03*
X028539Y021190D03*
X034334Y021190D03*
X034334Y020690D03*
X034334Y020190D03*
X034334Y019690D03*
X034334Y019190D03*
X034334Y018690D03*
X034334Y018190D03*
M02*
