G75*
G70*
%OFA0B0*%
%FSLAX24Y24*%
%IPPOS*%
%LPD*%
%AMOC8*
5,1,8,0,0,1.08239X$1,22.5*
%
%ADD10C,0.0560*%
%ADD11C,0.0611*%
%ADD12OC8,0.0651*%
%ADD13C,0.0910*%
%ADD14OC8,0.0910*%
%ADD15C,0.0765*%
%ADD16C,0.1241*%
%ADD17C,0.0436*%
%ADD18C,0.0350*%
%ADD19C,0.0532*%
%ADD20C,0.0397*%
D10*
X006213Y006021D03*
X007001Y006021D03*
X007788Y006021D03*
X008576Y006021D03*
X009363Y006021D03*
X010150Y006021D03*
X010938Y006021D03*
X011725Y006021D03*
X012513Y006021D03*
X013300Y006021D03*
X013300Y014682D03*
X012513Y014682D03*
X011725Y014682D03*
X010938Y014682D03*
X010150Y014682D03*
X009363Y014682D03*
X008576Y014682D03*
X007788Y014682D03*
X007001Y014682D03*
X006213Y014682D03*
D11*
X019308Y006655D03*
X028757Y006655D03*
D12*
X031257Y008714D03*
X031257Y009714D03*
X032257Y009714D03*
X032257Y008714D03*
X032257Y010714D03*
X031257Y010714D03*
X031425Y020039D03*
X031425Y021039D03*
X031425Y022039D03*
X031425Y023039D03*
X031425Y024039D03*
X031425Y025039D03*
X031425Y026039D03*
X031425Y027039D03*
X031425Y028039D03*
X032425Y028039D03*
X032425Y027039D03*
X032425Y026039D03*
X032425Y025039D03*
X032425Y024039D03*
X032425Y023039D03*
X032425Y022039D03*
X032425Y021039D03*
X032425Y020039D03*
X032427Y029295D03*
X032427Y030295D03*
X031427Y030295D03*
X031427Y029295D03*
X031427Y031295D03*
X031427Y032295D03*
X031427Y033295D03*
X031427Y034295D03*
X031427Y035295D03*
X031427Y036295D03*
X032427Y036295D03*
X032427Y035295D03*
X032427Y034295D03*
X032427Y033295D03*
X032427Y032295D03*
X032427Y031295D03*
X029150Y038289D03*
X029150Y039289D03*
X028150Y039289D03*
X028150Y038289D03*
X027150Y038289D03*
X027150Y039289D03*
X026150Y039289D03*
X026150Y038289D03*
X025150Y038289D03*
X025150Y039289D03*
X024150Y039289D03*
X023150Y039289D03*
X023150Y038289D03*
X024150Y038289D03*
X022150Y038289D03*
X022150Y039289D03*
X021150Y039289D03*
X021150Y038289D03*
X020150Y038289D03*
X020150Y039289D03*
X019150Y039289D03*
X019150Y038289D03*
X017813Y037251D03*
X017813Y036251D03*
X017813Y035251D03*
X017813Y034251D03*
X017813Y033251D03*
X017813Y032251D03*
X017813Y031251D03*
X017813Y030251D03*
X017813Y029251D03*
X017813Y028251D03*
X017813Y027251D03*
X016813Y027251D03*
X016813Y028251D03*
X016813Y029251D03*
X016813Y030251D03*
X016813Y031251D03*
X016813Y032251D03*
X016813Y033251D03*
X016813Y034251D03*
X016813Y035251D03*
X016813Y036251D03*
X016813Y037251D03*
X014446Y023525D03*
X006572Y023525D03*
X004812Y022147D03*
X004812Y021147D03*
X004812Y020147D03*
X003812Y020147D03*
X003812Y021147D03*
X003812Y022147D03*
D13*
X003654Y027612D03*
X014599Y021289D03*
D14*
X014599Y015289D03*
X003654Y033612D03*
D15*
X013792Y032019D02*
X013792Y031314D01*
X013792Y039314D02*
X013792Y040019D01*
D16*
X003843Y005159D03*
X003843Y040592D03*
X033371Y040592D03*
X033765Y004765D03*
D17*
X034095Y009950D03*
X034635Y011640D03*
X033645Y012990D03*
X030545Y018020D03*
X027305Y013820D03*
X025225Y013620D03*
X024265Y012000D03*
X024535Y010980D03*
X023915Y010280D03*
X023615Y013480D03*
X020995Y010470D03*
X019075Y009230D03*
X018125Y010450D03*
X016825Y006380D03*
X013525Y004360D03*
X013025Y007790D03*
X013105Y013750D03*
X009975Y017600D03*
X010185Y019360D03*
X011565Y018890D03*
X013275Y022270D03*
X018095Y024070D03*
X015005Y029790D03*
X014315Y029900D03*
X019775Y035700D03*
X024255Y033530D03*
X028655Y040590D03*
X031465Y038560D03*
X026035Y020450D03*
X019755Y017740D03*
X019165Y016850D03*
X025245Y007080D03*
X028795Y010280D03*
X028885Y011910D03*
X006455Y026900D03*
D18*
X011275Y028790D03*
X011324Y030356D03*
X012475Y030690D03*
X012075Y033890D03*
X011715Y035480D03*
X009552Y036734D03*
X002499Y038598D03*
X008735Y015492D03*
D19*
X011324Y031931D03*
X009355Y035986D03*
D20*
X033685Y037280D03*
X034665Y036930D03*
M02*
