G75*
G70*
%OFA0B0*%
%FSLAX24Y24*%
%IPPOS*%
%LPD*%
%AMOC8*
5,1,8,0,0,1.08239X$1,22.5*
%
%ADD10C,0.0000*%
D10*
X001875Y003190D02*
X001875Y042561D01*
X035339Y042561D01*
X035339Y003190D01*
X001875Y003190D01*
X003252Y005159D02*
X003254Y005207D01*
X003260Y005255D01*
X003270Y005302D01*
X003283Y005348D01*
X003301Y005393D01*
X003321Y005437D01*
X003346Y005479D01*
X003374Y005518D01*
X003404Y005555D01*
X003438Y005589D01*
X003475Y005621D01*
X003513Y005650D01*
X003554Y005675D01*
X003597Y005697D01*
X003642Y005715D01*
X003688Y005729D01*
X003735Y005740D01*
X003783Y005747D01*
X003831Y005750D01*
X003879Y005749D01*
X003927Y005744D01*
X003975Y005735D01*
X004021Y005723D01*
X004066Y005706D01*
X004110Y005686D01*
X004152Y005663D01*
X004192Y005636D01*
X004230Y005606D01*
X004265Y005573D01*
X004297Y005537D01*
X004327Y005499D01*
X004353Y005458D01*
X004375Y005415D01*
X004395Y005371D01*
X004410Y005326D01*
X004422Y005279D01*
X004430Y005231D01*
X004434Y005183D01*
X004434Y005135D01*
X004430Y005087D01*
X004422Y005039D01*
X004410Y004992D01*
X004395Y004947D01*
X004375Y004903D01*
X004353Y004860D01*
X004327Y004819D01*
X004297Y004781D01*
X004265Y004745D01*
X004230Y004712D01*
X004192Y004682D01*
X004152Y004655D01*
X004110Y004632D01*
X004066Y004612D01*
X004021Y004595D01*
X003975Y004583D01*
X003927Y004574D01*
X003879Y004569D01*
X003831Y004568D01*
X003783Y004571D01*
X003735Y004578D01*
X003688Y004589D01*
X003642Y004603D01*
X003597Y004621D01*
X003554Y004643D01*
X003513Y004668D01*
X003475Y004697D01*
X003438Y004729D01*
X003404Y004763D01*
X003374Y004800D01*
X003346Y004839D01*
X003321Y004881D01*
X003301Y004925D01*
X003283Y004970D01*
X003270Y005016D01*
X003260Y005063D01*
X003254Y005111D01*
X003252Y005159D01*
X019032Y006655D02*
X019034Y006688D01*
X019040Y006720D01*
X019049Y006751D01*
X019062Y006781D01*
X019079Y006809D01*
X019099Y006835D01*
X019122Y006859D01*
X019147Y006879D01*
X019175Y006897D01*
X019204Y006911D01*
X019235Y006921D01*
X019267Y006928D01*
X019300Y006931D01*
X019333Y006930D01*
X019365Y006925D01*
X019396Y006916D01*
X019427Y006904D01*
X019455Y006888D01*
X019482Y006869D01*
X019506Y006847D01*
X019527Y006822D01*
X019546Y006795D01*
X019561Y006766D01*
X019572Y006736D01*
X019580Y006704D01*
X019584Y006671D01*
X019584Y006639D01*
X019580Y006606D01*
X019572Y006574D01*
X019561Y006544D01*
X019546Y006515D01*
X019527Y006488D01*
X019506Y006463D01*
X019482Y006441D01*
X019455Y006422D01*
X019427Y006406D01*
X019396Y006394D01*
X019365Y006385D01*
X019333Y006380D01*
X019300Y006379D01*
X019267Y006382D01*
X019235Y006389D01*
X019204Y006399D01*
X019175Y006413D01*
X019147Y006431D01*
X019122Y006451D01*
X019099Y006475D01*
X019079Y006501D01*
X019062Y006529D01*
X019049Y006559D01*
X019040Y006590D01*
X019034Y006622D01*
X019032Y006655D01*
X028481Y006655D02*
X028483Y006688D01*
X028489Y006720D01*
X028498Y006751D01*
X028511Y006781D01*
X028528Y006809D01*
X028548Y006835D01*
X028571Y006859D01*
X028596Y006879D01*
X028624Y006897D01*
X028653Y006911D01*
X028684Y006921D01*
X028716Y006928D01*
X028749Y006931D01*
X028782Y006930D01*
X028814Y006925D01*
X028845Y006916D01*
X028876Y006904D01*
X028904Y006888D01*
X028931Y006869D01*
X028955Y006847D01*
X028976Y006822D01*
X028995Y006795D01*
X029010Y006766D01*
X029021Y006736D01*
X029029Y006704D01*
X029033Y006671D01*
X029033Y006639D01*
X029029Y006606D01*
X029021Y006574D01*
X029010Y006544D01*
X028995Y006515D01*
X028976Y006488D01*
X028955Y006463D01*
X028931Y006441D01*
X028904Y006422D01*
X028876Y006406D01*
X028845Y006394D01*
X028814Y006385D01*
X028782Y006380D01*
X028749Y006379D01*
X028716Y006382D01*
X028684Y006389D01*
X028653Y006399D01*
X028624Y006413D01*
X028596Y006431D01*
X028571Y006451D01*
X028548Y006475D01*
X028528Y006501D01*
X028511Y006529D01*
X028498Y006559D01*
X028489Y006590D01*
X028483Y006622D01*
X028481Y006655D01*
X033174Y004765D02*
X033176Y004813D01*
X033182Y004861D01*
X033192Y004908D01*
X033205Y004954D01*
X033223Y004999D01*
X033243Y005043D01*
X033268Y005085D01*
X033296Y005124D01*
X033326Y005161D01*
X033360Y005195D01*
X033397Y005227D01*
X033435Y005256D01*
X033476Y005281D01*
X033519Y005303D01*
X033564Y005321D01*
X033610Y005335D01*
X033657Y005346D01*
X033705Y005353D01*
X033753Y005356D01*
X033801Y005355D01*
X033849Y005350D01*
X033897Y005341D01*
X033943Y005329D01*
X033988Y005312D01*
X034032Y005292D01*
X034074Y005269D01*
X034114Y005242D01*
X034152Y005212D01*
X034187Y005179D01*
X034219Y005143D01*
X034249Y005105D01*
X034275Y005064D01*
X034297Y005021D01*
X034317Y004977D01*
X034332Y004932D01*
X034344Y004885D01*
X034352Y004837D01*
X034356Y004789D01*
X034356Y004741D01*
X034352Y004693D01*
X034344Y004645D01*
X034332Y004598D01*
X034317Y004553D01*
X034297Y004509D01*
X034275Y004466D01*
X034249Y004425D01*
X034219Y004387D01*
X034187Y004351D01*
X034152Y004318D01*
X034114Y004288D01*
X034074Y004261D01*
X034032Y004238D01*
X033988Y004218D01*
X033943Y004201D01*
X033897Y004189D01*
X033849Y004180D01*
X033801Y004175D01*
X033753Y004174D01*
X033705Y004177D01*
X033657Y004184D01*
X033610Y004195D01*
X033564Y004209D01*
X033519Y004227D01*
X033476Y004249D01*
X033435Y004274D01*
X033397Y004303D01*
X033360Y004335D01*
X033326Y004369D01*
X033296Y004406D01*
X033268Y004445D01*
X033243Y004487D01*
X033223Y004531D01*
X033205Y004576D01*
X033192Y004622D01*
X033182Y004669D01*
X033176Y004717D01*
X033174Y004765D01*
X032780Y040592D02*
X032782Y040640D01*
X032788Y040688D01*
X032798Y040735D01*
X032811Y040781D01*
X032829Y040826D01*
X032849Y040870D01*
X032874Y040912D01*
X032902Y040951D01*
X032932Y040988D01*
X032966Y041022D01*
X033003Y041054D01*
X033041Y041083D01*
X033082Y041108D01*
X033125Y041130D01*
X033170Y041148D01*
X033216Y041162D01*
X033263Y041173D01*
X033311Y041180D01*
X033359Y041183D01*
X033407Y041182D01*
X033455Y041177D01*
X033503Y041168D01*
X033549Y041156D01*
X033594Y041139D01*
X033638Y041119D01*
X033680Y041096D01*
X033720Y041069D01*
X033758Y041039D01*
X033793Y041006D01*
X033825Y040970D01*
X033855Y040932D01*
X033881Y040891D01*
X033903Y040848D01*
X033923Y040804D01*
X033938Y040759D01*
X033950Y040712D01*
X033958Y040664D01*
X033962Y040616D01*
X033962Y040568D01*
X033958Y040520D01*
X033950Y040472D01*
X033938Y040425D01*
X033923Y040380D01*
X033903Y040336D01*
X033881Y040293D01*
X033855Y040252D01*
X033825Y040214D01*
X033793Y040178D01*
X033758Y040145D01*
X033720Y040115D01*
X033680Y040088D01*
X033638Y040065D01*
X033594Y040045D01*
X033549Y040028D01*
X033503Y040016D01*
X033455Y040007D01*
X033407Y040002D01*
X033359Y040001D01*
X033311Y040004D01*
X033263Y040011D01*
X033216Y040022D01*
X033170Y040036D01*
X033125Y040054D01*
X033082Y040076D01*
X033041Y040101D01*
X033003Y040130D01*
X032966Y040162D01*
X032932Y040196D01*
X032902Y040233D01*
X032874Y040272D01*
X032849Y040314D01*
X032829Y040358D01*
X032811Y040403D01*
X032798Y040449D01*
X032788Y040496D01*
X032782Y040544D01*
X032780Y040592D01*
X003252Y040592D02*
X003254Y040640D01*
X003260Y040688D01*
X003270Y040735D01*
X003283Y040781D01*
X003301Y040826D01*
X003321Y040870D01*
X003346Y040912D01*
X003374Y040951D01*
X003404Y040988D01*
X003438Y041022D01*
X003475Y041054D01*
X003513Y041083D01*
X003554Y041108D01*
X003597Y041130D01*
X003642Y041148D01*
X003688Y041162D01*
X003735Y041173D01*
X003783Y041180D01*
X003831Y041183D01*
X003879Y041182D01*
X003927Y041177D01*
X003975Y041168D01*
X004021Y041156D01*
X004066Y041139D01*
X004110Y041119D01*
X004152Y041096D01*
X004192Y041069D01*
X004230Y041039D01*
X004265Y041006D01*
X004297Y040970D01*
X004327Y040932D01*
X004353Y040891D01*
X004375Y040848D01*
X004395Y040804D01*
X004410Y040759D01*
X004422Y040712D01*
X004430Y040664D01*
X004434Y040616D01*
X004434Y040568D01*
X004430Y040520D01*
X004422Y040472D01*
X004410Y040425D01*
X004395Y040380D01*
X004375Y040336D01*
X004353Y040293D01*
X004327Y040252D01*
X004297Y040214D01*
X004265Y040178D01*
X004230Y040145D01*
X004192Y040115D01*
X004152Y040088D01*
X004110Y040065D01*
X004066Y040045D01*
X004021Y040028D01*
X003975Y040016D01*
X003927Y040007D01*
X003879Y040002D01*
X003831Y040001D01*
X003783Y040004D01*
X003735Y040011D01*
X003688Y040022D01*
X003642Y040036D01*
X003597Y040054D01*
X003554Y040076D01*
X003513Y040101D01*
X003475Y040130D01*
X003438Y040162D01*
X003404Y040196D01*
X003374Y040233D01*
X003346Y040272D01*
X003321Y040314D01*
X003301Y040358D01*
X003283Y040403D01*
X003270Y040449D01*
X003260Y040496D01*
X003254Y040544D01*
X003252Y040592D01*
M02*
