G75*
G70*
%OFA0B0*%
%FSLAX24Y24*%
%IPPOS*%
%LPD*%
%AMOC8*
5,1,8,0,0,1.08239X$1,22.5*
%
%ADD10C,0.0120*%
%ADD11C,0.0540*%
%ADD12C,0.0000*%
%ADD13C,0.0414*%
%ADD14C,0.0700*%
%ADD15C,0.0560*%
%ADD16C,0.0660*%
%ADD17C,0.1140*%
%ADD18C,0.1241*%
%ADD19C,0.0710*%
%ADD20C,0.0720*%
%ADD21OC8,0.0651*%
%ADD22OC8,0.0591*%
%ADD23R,0.0375X0.0414*%
%ADD24C,0.0350*%
%ADD25C,0.0591*%
%ADD26C,0.0436*%
D10*
X002176Y005651D02*
X002176Y035179D01*
X041546Y035179D01*
X041546Y005651D01*
X002176Y005651D01*
D11*
X006229Y014051D03*
X008129Y014051D03*
D12*
X018335Y015651D02*
X018337Y015699D01*
X018343Y015747D01*
X018353Y015794D01*
X018366Y015840D01*
X018384Y015885D01*
X018404Y015929D01*
X018429Y015971D01*
X018457Y016010D01*
X018487Y016047D01*
X018521Y016081D01*
X018558Y016113D01*
X018596Y016142D01*
X018637Y016167D01*
X018680Y016189D01*
X018725Y016207D01*
X018771Y016221D01*
X018818Y016232D01*
X018866Y016239D01*
X018914Y016242D01*
X018962Y016241D01*
X019010Y016236D01*
X019058Y016227D01*
X019104Y016215D01*
X019149Y016198D01*
X019193Y016178D01*
X019235Y016155D01*
X019275Y016128D01*
X019313Y016098D01*
X019348Y016065D01*
X019380Y016029D01*
X019410Y015991D01*
X019436Y015950D01*
X019458Y015907D01*
X019478Y015863D01*
X019493Y015818D01*
X019505Y015771D01*
X019513Y015723D01*
X019517Y015675D01*
X019517Y015627D01*
X019513Y015579D01*
X019505Y015531D01*
X019493Y015484D01*
X019478Y015439D01*
X019458Y015395D01*
X019436Y015352D01*
X019410Y015311D01*
X019380Y015273D01*
X019348Y015237D01*
X019313Y015204D01*
X019275Y015174D01*
X019235Y015147D01*
X019193Y015124D01*
X019149Y015104D01*
X019104Y015087D01*
X019058Y015075D01*
X019010Y015066D01*
X018962Y015061D01*
X018914Y015060D01*
X018866Y015063D01*
X018818Y015070D01*
X018771Y015081D01*
X018725Y015095D01*
X018680Y015113D01*
X018637Y015135D01*
X018596Y015160D01*
X018558Y015189D01*
X018521Y015221D01*
X018487Y015255D01*
X018457Y015292D01*
X018429Y015331D01*
X018404Y015373D01*
X018384Y015417D01*
X018366Y015462D01*
X018353Y015508D01*
X018343Y015555D01*
X018337Y015603D01*
X018335Y015651D01*
X018335Y023401D02*
X018337Y023449D01*
X018343Y023497D01*
X018353Y023544D01*
X018366Y023590D01*
X018384Y023635D01*
X018404Y023679D01*
X018429Y023721D01*
X018457Y023760D01*
X018487Y023797D01*
X018521Y023831D01*
X018558Y023863D01*
X018596Y023892D01*
X018637Y023917D01*
X018680Y023939D01*
X018725Y023957D01*
X018771Y023971D01*
X018818Y023982D01*
X018866Y023989D01*
X018914Y023992D01*
X018962Y023991D01*
X019010Y023986D01*
X019058Y023977D01*
X019104Y023965D01*
X019149Y023948D01*
X019193Y023928D01*
X019235Y023905D01*
X019275Y023878D01*
X019313Y023848D01*
X019348Y023815D01*
X019380Y023779D01*
X019410Y023741D01*
X019436Y023700D01*
X019458Y023657D01*
X019478Y023613D01*
X019493Y023568D01*
X019505Y023521D01*
X019513Y023473D01*
X019517Y023425D01*
X019517Y023377D01*
X019513Y023329D01*
X019505Y023281D01*
X019493Y023234D01*
X019478Y023189D01*
X019458Y023145D01*
X019436Y023102D01*
X019410Y023061D01*
X019380Y023023D01*
X019348Y022987D01*
X019313Y022954D01*
X019275Y022924D01*
X019235Y022897D01*
X019193Y022874D01*
X019149Y022854D01*
X019104Y022837D01*
X019058Y022825D01*
X019010Y022816D01*
X018962Y022811D01*
X018914Y022810D01*
X018866Y022813D01*
X018818Y022820D01*
X018771Y022831D01*
X018725Y022845D01*
X018680Y022863D01*
X018637Y022885D01*
X018596Y022910D01*
X018558Y022939D01*
X018521Y022971D01*
X018487Y023005D01*
X018457Y023042D01*
X018429Y023081D01*
X018404Y023123D01*
X018384Y023167D01*
X018366Y023212D01*
X018353Y023258D01*
X018343Y023305D01*
X018337Y023353D01*
X018335Y023401D01*
X039414Y022917D02*
X039416Y022943D01*
X039422Y022969D01*
X039432Y022994D01*
X039445Y023017D01*
X039461Y023037D01*
X039481Y023055D01*
X039503Y023070D01*
X039526Y023082D01*
X039552Y023090D01*
X039578Y023094D01*
X039604Y023094D01*
X039630Y023090D01*
X039656Y023082D01*
X039680Y023070D01*
X039701Y023055D01*
X039721Y023037D01*
X039737Y023017D01*
X039750Y022994D01*
X039760Y022969D01*
X039766Y022943D01*
X039768Y022917D01*
X039766Y022891D01*
X039760Y022865D01*
X039750Y022840D01*
X039737Y022817D01*
X039721Y022797D01*
X039701Y022779D01*
X039679Y022764D01*
X039656Y022752D01*
X039630Y022744D01*
X039604Y022740D01*
X039578Y022740D01*
X039552Y022744D01*
X039526Y022752D01*
X039502Y022764D01*
X039481Y022779D01*
X039461Y022797D01*
X039445Y022817D01*
X039432Y022840D01*
X039422Y022865D01*
X039416Y022891D01*
X039414Y022917D01*
X039414Y021185D02*
X039416Y021211D01*
X039422Y021237D01*
X039432Y021262D01*
X039445Y021285D01*
X039461Y021305D01*
X039481Y021323D01*
X039503Y021338D01*
X039526Y021350D01*
X039552Y021358D01*
X039578Y021362D01*
X039604Y021362D01*
X039630Y021358D01*
X039656Y021350D01*
X039680Y021338D01*
X039701Y021323D01*
X039721Y021305D01*
X039737Y021285D01*
X039750Y021262D01*
X039760Y021237D01*
X039766Y021211D01*
X039768Y021185D01*
X039766Y021159D01*
X039760Y021133D01*
X039750Y021108D01*
X039737Y021085D01*
X039721Y021065D01*
X039701Y021047D01*
X039679Y021032D01*
X039656Y021020D01*
X039630Y021012D01*
X039604Y021008D01*
X039578Y021008D01*
X039552Y021012D01*
X039526Y021020D01*
X039502Y021032D01*
X039481Y021047D01*
X039461Y021065D01*
X039445Y021085D01*
X039432Y021108D01*
X039422Y021133D01*
X039416Y021159D01*
X039414Y021185D01*
D13*
X039591Y021185D03*
X039591Y022917D03*
D14*
X015329Y013826D03*
X015229Y012826D03*
X014329Y012826D03*
X014229Y011826D03*
X015329Y011826D03*
X014229Y013826D03*
D15*
X031219Y024689D03*
X032007Y024689D03*
X032794Y024689D03*
X033582Y024689D03*
X034369Y024689D03*
X035156Y024689D03*
X035944Y024689D03*
X036731Y024689D03*
X037519Y024689D03*
X038306Y024689D03*
X038306Y033350D03*
X037519Y033350D03*
X036731Y033350D03*
X035944Y033350D03*
X035156Y033350D03*
X034369Y033350D03*
X033582Y033350D03*
X032794Y033350D03*
X032007Y033350D03*
X031219Y033350D03*
D16*
X026176Y030151D03*
X026176Y029151D03*
X026176Y028151D03*
D17*
X030203Y020530D03*
X030203Y018530D03*
X032859Y019530D03*
X011400Y020522D03*
X008743Y019522D03*
X011400Y018522D03*
D18*
X018926Y015651D03*
X018926Y023401D03*
D19*
X037726Y018526D02*
X038376Y018526D01*
X038376Y017526D02*
X037726Y017526D01*
X037726Y016526D02*
X038376Y016526D01*
D20*
X040051Y016526D03*
X040051Y018526D03*
D21*
X005051Y018276D03*
X004051Y018276D03*
X004051Y017276D03*
X004051Y016276D03*
X005051Y016276D03*
X005051Y017276D03*
X005051Y019276D03*
X004051Y019276D03*
X004051Y020276D03*
X005051Y020276D03*
X005051Y021276D03*
X004051Y021276D03*
X004051Y022276D03*
X005051Y022276D03*
X005051Y023276D03*
X004051Y023276D03*
D22*
X021551Y015276D03*
X022551Y015276D03*
X023551Y015276D03*
X024551Y015276D03*
X025551Y015276D03*
X026551Y015276D03*
X027551Y015276D03*
X028551Y015276D03*
X029551Y015276D03*
X030551Y015276D03*
X031551Y015276D03*
X032551Y015276D03*
X033551Y015276D03*
X034551Y015276D03*
X035551Y015276D03*
X036551Y015276D03*
X037551Y015276D03*
X038551Y015276D03*
X034551Y007401D03*
X033551Y007401D03*
X032551Y007401D03*
X028551Y007401D03*
X027551Y007401D03*
X024551Y007401D03*
X023551Y007401D03*
X022551Y007401D03*
X021551Y007401D03*
D23*
X007551Y013226D03*
X007551Y013826D03*
X006801Y013826D03*
X006801Y013226D03*
D24*
X005176Y012276D03*
X004801Y013026D03*
X004801Y013526D03*
X006426Y011776D03*
X006926Y011776D03*
X008801Y010401D03*
X008801Y009901D03*
X008301Y008526D03*
X009551Y008151D03*
X012551Y007526D03*
X012426Y007026D03*
X013176Y010151D03*
X014926Y010151D03*
X013676Y012401D03*
X012301Y013276D03*
X011176Y012151D03*
X010551Y012526D03*
X009051Y013026D03*
X009051Y015026D03*
X008301Y015276D03*
X011426Y014901D03*
X003926Y009151D03*
X003926Y008651D03*
X003426Y009401D03*
X003426Y007276D03*
X004051Y007026D03*
X006301Y007151D03*
X006426Y008526D03*
X020051Y011651D03*
X021926Y013276D03*
X021926Y013776D03*
X023551Y011651D03*
X024426Y011651D03*
X027051Y008276D03*
X026676Y007901D03*
X030801Y011151D03*
X030926Y012026D03*
X030801Y014026D03*
X028551Y013776D03*
X028551Y013276D03*
X033551Y010651D03*
X034801Y011026D03*
X035176Y009526D03*
X037051Y012151D03*
X037551Y012651D03*
X039676Y012526D03*
X039676Y011901D03*
X039051Y008401D03*
X039676Y023776D03*
X037426Y023776D03*
X034176Y025901D03*
X028301Y026401D03*
X027676Y025901D03*
X025426Y028651D03*
X031926Y031401D03*
X031926Y032151D03*
X035676Y031526D03*
X036301Y031526D03*
D25*
X029176Y026651D03*
X029926Y010526D03*
X038176Y008276D03*
D26*
X036551Y009151D03*
X024676Y021401D03*
X032676Y029401D03*
X006476Y016769D03*
M02*
