G75*
%MOIN*%
%OFA0B0*%
%FSLAX25Y25*%
%IPPOS*%
%LPD*%
%AMOC8*
5,1,8,0,0,1.08239X$1,22.5*
%
%ADD10C,0.12402*%
%ADD11R,0.02756X0.05315*%
%ADD12OC8,0.05315*%
%ADD13R,0.03740X0.04134*%
%ADD14R,0.05315X0.05709*%
%ADD15R,0.06102X0.06102*%
%ADD16R,0.14606X0.06102*%
%ADD17R,0.05709X0.05315*%
%ADD18R,0.04491X0.01791*%
%ADD19R,0.04134X0.03740*%
%ADD20R,0.01791X0.04491*%
%ADD21R,0.01969X0.08465*%
%ADD22R,0.18307X0.18701*%
%ADD23C,0.02953*%
%ADD24C,0.04921*%
%ADD25C,0.28150*%
%ADD26R,0.04528X0.05591*%
%ADD27R,0.08391X0.02791*%
%ADD28R,0.06378X0.05591*%
%ADD29R,0.24213X0.13386*%
%ADD30R,0.15157X0.06496*%
%ADD31R,0.02953X0.09252*%
%ADD32R,0.02791X0.08391*%
%ADD33R,0.10433X0.05315*%
%ADD34C,0.06102*%
%ADD35OC8,0.06102*%
%ADD36R,0.02953X0.06693*%
%ADD37R,0.05315X0.07677*%
%ADD38R,0.04528X0.18701*%
%ADD39R,0.07283X0.13976*%
%ADD40R,0.02591X0.08391*%
%ADD41C,0.03291*%
%ADD42C,0.04843*%
%ADD43C,0.03072*%
D10*
X0024125Y0020625D03*
X0362875Y0020625D03*
X0362875Y0266250D03*
X0024125Y0266250D03*
D11*
X0079135Y0058244D03*
X0086615Y0058244D03*
X0086615Y0048006D03*
X0082875Y0048006D03*
X0079135Y0048006D03*
D12*
X0118500Y0015000D03*
X0128500Y0015000D03*
X0138500Y0015000D03*
X0248500Y0015000D03*
X0258500Y0015000D03*
X0268500Y0015000D03*
X0268500Y0255000D03*
X0258500Y0255000D03*
X0248500Y0255000D03*
X0238500Y0255000D03*
X0228500Y0255000D03*
X0218500Y0255000D03*
X0208500Y0255000D03*
X0198500Y0255000D03*
X0188500Y0255000D03*
X0178500Y0255000D03*
X0168500Y0255000D03*
X0158500Y0255000D03*
X0148500Y0255000D03*
X0138500Y0255000D03*
X0128500Y0255000D03*
X0118500Y0255000D03*
D13*
X0059125Y0234875D03*
X0059125Y0228875D03*
X0052875Y0210500D03*
X0052875Y0204500D03*
X0052875Y0198000D03*
X0052875Y0192000D03*
X0081625Y0178625D03*
X0081625Y0172625D03*
X0255375Y0101750D03*
X0261625Y0101750D03*
X0261625Y0095750D03*
X0255375Y0095750D03*
X0255375Y0089250D03*
X0255375Y0083250D03*
X0261625Y0083250D03*
X0261625Y0089250D03*
X0297875Y0088875D03*
X0297875Y0094875D03*
X0304125Y0094875D03*
X0304125Y0088875D03*
X0297875Y0102000D03*
X0297875Y0108000D03*
X0139750Y0048000D03*
X0139750Y0042000D03*
X0092875Y0052000D03*
X0092875Y0058000D03*
X0072250Y0054250D03*
X0072250Y0048250D03*
X0077250Y0080750D03*
X0077250Y0086750D03*
X0334125Y0192000D03*
X0334125Y0198000D03*
X0334125Y0204500D03*
X0334125Y0210500D03*
D14*
X0247500Y0261250D03*
X0239500Y0261250D03*
X0239500Y0269375D03*
X0247500Y0269375D03*
X0278875Y0107500D03*
X0286875Y0107500D03*
X0107500Y0038750D03*
X0099500Y0038750D03*
D15*
X0089105Y0038750D03*
X0074145Y0038750D03*
D16*
X0047875Y0030748D03*
X0047875Y0009252D03*
D17*
X0100375Y0052250D03*
X0100375Y0060250D03*
X0257875Y0067250D03*
X0257875Y0075250D03*
X0330375Y0163500D03*
X0330375Y0171500D03*
X0276000Y0250375D03*
X0276000Y0258375D03*
D18*
X0288263Y0259345D03*
X0288263Y0256786D03*
X0288263Y0254227D03*
X0288263Y0251668D03*
X0288263Y0249109D03*
X0288263Y0246550D03*
X0288263Y0243991D03*
X0311237Y0243991D03*
X0311237Y0246550D03*
X0311237Y0249109D03*
X0311237Y0251668D03*
X0311237Y0254227D03*
X0311237Y0256786D03*
X0311237Y0259345D03*
X0311237Y0261905D03*
X0311237Y0264464D03*
X0311237Y0267023D03*
X0311237Y0269582D03*
X0311237Y0272141D03*
X0311237Y0274700D03*
X0311237Y0277259D03*
X0288263Y0277259D03*
X0288263Y0274700D03*
X0288263Y0272141D03*
X0288263Y0269582D03*
X0288263Y0267023D03*
X0288263Y0264464D03*
X0288263Y0261905D03*
X0204987Y0247884D03*
X0204987Y0245325D03*
X0204987Y0242766D03*
X0204987Y0240207D03*
X0204987Y0237648D03*
X0204987Y0235089D03*
X0204987Y0232530D03*
X0204987Y0229970D03*
X0204987Y0227411D03*
X0204987Y0224852D03*
X0204987Y0222293D03*
X0204987Y0219734D03*
X0204987Y0217175D03*
X0204987Y0214616D03*
X0182013Y0214616D03*
X0182013Y0217175D03*
X0182013Y0219734D03*
X0182013Y0222293D03*
X0182013Y0224852D03*
X0182013Y0227411D03*
X0182013Y0229970D03*
X0182013Y0232530D03*
X0182013Y0235089D03*
X0182013Y0237648D03*
X0182013Y0240207D03*
X0182013Y0242766D03*
X0182013Y0245325D03*
X0182013Y0247884D03*
X0098737Y0249109D03*
X0098737Y0246550D03*
X0098737Y0243991D03*
X0098737Y0251668D03*
X0098737Y0254227D03*
X0098737Y0256786D03*
X0098737Y0259345D03*
X0098737Y0261905D03*
X0098737Y0264464D03*
X0098737Y0267023D03*
X0098737Y0269582D03*
X0098737Y0272141D03*
X0098737Y0274700D03*
X0098737Y0277259D03*
X0075763Y0277259D03*
X0075763Y0274700D03*
X0075763Y0272141D03*
X0075763Y0269582D03*
X0075763Y0267023D03*
X0075763Y0264464D03*
X0075763Y0261905D03*
X0075763Y0259345D03*
X0075763Y0256786D03*
X0075763Y0254227D03*
X0075763Y0251668D03*
X0075763Y0249109D03*
X0075763Y0246550D03*
X0075763Y0243991D03*
D19*
X0078000Y0237500D03*
X0084000Y0237500D03*
X0090500Y0237500D03*
X0096500Y0237500D03*
X0071500Y0231875D03*
X0065500Y0231875D03*
X0065500Y0225625D03*
X0071500Y0225625D03*
X0121750Y0261875D03*
X0127750Y0261875D03*
X0136750Y0275000D03*
X0142750Y0275000D03*
X0260500Y0264375D03*
X0266500Y0264375D03*
X0290500Y0237500D03*
X0296500Y0237500D03*
X0303000Y0237500D03*
X0309000Y0237500D03*
X0331750Y0183125D03*
X0337750Y0183125D03*
X0344250Y0183125D03*
X0350250Y0183125D03*
X0202750Y0208125D03*
X0196750Y0208125D03*
X0190250Y0208125D03*
X0184250Y0208125D03*
X0269875Y0100000D03*
X0275875Y0100000D03*
X0282375Y0100000D03*
X0288375Y0100000D03*
X0282750Y0071875D03*
X0276750Y0071875D03*
D20*
X0340616Y0189763D03*
X0343175Y0189763D03*
X0345734Y0189763D03*
X0348293Y0189763D03*
X0350852Y0189763D03*
X0353411Y0189763D03*
X0355970Y0189763D03*
X0358530Y0189763D03*
X0361089Y0189763D03*
X0363648Y0189763D03*
X0366207Y0189763D03*
X0368766Y0189763D03*
X0371325Y0189763D03*
X0373884Y0189763D03*
X0373884Y0212737D03*
X0371325Y0212737D03*
X0368766Y0212737D03*
X0366207Y0212737D03*
X0363648Y0212737D03*
X0361089Y0212737D03*
X0358530Y0212737D03*
X0355970Y0212737D03*
X0353411Y0212737D03*
X0350852Y0212737D03*
X0348293Y0212737D03*
X0345734Y0212737D03*
X0343175Y0212737D03*
X0340616Y0212737D03*
X0046384Y0212737D03*
X0043825Y0212737D03*
X0041266Y0212737D03*
X0038707Y0212737D03*
X0036148Y0212737D03*
X0033589Y0212737D03*
X0031030Y0212737D03*
X0028470Y0212737D03*
X0025911Y0212737D03*
X0023352Y0212737D03*
X0020793Y0212737D03*
X0018234Y0212737D03*
X0015675Y0212737D03*
X0013116Y0212737D03*
X0013116Y0189763D03*
X0015675Y0189763D03*
X0018234Y0189763D03*
X0020793Y0189763D03*
X0023352Y0189763D03*
X0025911Y0189763D03*
X0028470Y0189763D03*
X0031030Y0189763D03*
X0033589Y0189763D03*
X0036148Y0189763D03*
X0038707Y0189763D03*
X0041266Y0189763D03*
X0043825Y0189763D03*
X0046384Y0189763D03*
D21*
X0066207Y0154267D03*
X0068569Y0154267D03*
X0070931Y0154267D03*
X0073293Y0154267D03*
X0075656Y0154267D03*
X0078018Y0154267D03*
X0080380Y0154267D03*
X0082742Y0154267D03*
X0085104Y0154267D03*
X0087467Y0154267D03*
X0089829Y0154267D03*
X0092191Y0154267D03*
X0094553Y0154267D03*
X0096915Y0154267D03*
X0099278Y0154267D03*
X0101640Y0154267D03*
X0104002Y0154267D03*
X0106364Y0154267D03*
X0108726Y0154267D03*
X0111089Y0154267D03*
X0127624Y0154267D03*
X0129986Y0154267D03*
X0132348Y0154267D03*
X0134711Y0154267D03*
X0137073Y0154267D03*
X0139435Y0154267D03*
X0141797Y0154267D03*
X0144159Y0154267D03*
X0146522Y0154267D03*
X0148884Y0154267D03*
X0151246Y0154267D03*
X0153608Y0154267D03*
X0155970Y0154267D03*
X0158333Y0154267D03*
X0160695Y0154267D03*
X0163057Y0154267D03*
X0165419Y0154267D03*
X0167781Y0154267D03*
X0170144Y0154267D03*
X0172506Y0154267D03*
X0174868Y0154267D03*
X0177230Y0154267D03*
X0179593Y0154267D03*
X0181955Y0154267D03*
X0184317Y0154267D03*
X0186679Y0154267D03*
X0189041Y0154267D03*
X0191404Y0154267D03*
X0193766Y0154267D03*
X0196128Y0154267D03*
X0198490Y0154267D03*
X0200852Y0154267D03*
X0203215Y0154267D03*
X0205577Y0154267D03*
X0207939Y0154267D03*
X0210301Y0154267D03*
X0212663Y0154267D03*
X0215026Y0154267D03*
X0217388Y0154267D03*
X0219750Y0154267D03*
X0222112Y0154267D03*
X0224474Y0154267D03*
X0226837Y0154267D03*
X0229199Y0154267D03*
X0231561Y0154267D03*
X0233923Y0154267D03*
X0236285Y0154267D03*
X0238648Y0154267D03*
X0241010Y0154267D03*
X0243372Y0154267D03*
X0245734Y0154267D03*
X0248096Y0154267D03*
X0250459Y0154267D03*
X0252821Y0154267D03*
X0255183Y0154267D03*
X0257545Y0154267D03*
X0259907Y0154267D03*
X0262270Y0154267D03*
X0264632Y0154267D03*
X0266994Y0154267D03*
X0269356Y0154267D03*
X0271719Y0154267D03*
X0274081Y0154267D03*
X0276443Y0154267D03*
X0278805Y0154267D03*
X0281167Y0154267D03*
X0283530Y0154267D03*
X0285892Y0154267D03*
X0288254Y0154267D03*
X0290616Y0154267D03*
X0292978Y0154267D03*
X0295341Y0154267D03*
X0297703Y0154267D03*
X0300065Y0154267D03*
X0302427Y0154267D03*
X0304789Y0154267D03*
X0307152Y0154267D03*
X0309514Y0154267D03*
X0311876Y0154267D03*
X0314238Y0154267D03*
X0313057Y0121983D03*
X0310695Y0121983D03*
X0308333Y0121983D03*
X0305970Y0121983D03*
X0303608Y0121983D03*
X0301246Y0121983D03*
X0298884Y0121983D03*
X0296522Y0121983D03*
X0294159Y0121983D03*
X0291797Y0121983D03*
X0289435Y0121983D03*
X0287073Y0121983D03*
X0284711Y0121983D03*
X0282348Y0121983D03*
X0279986Y0121983D03*
X0277624Y0121983D03*
X0275262Y0121983D03*
X0272900Y0121983D03*
X0270537Y0121983D03*
X0268175Y0121983D03*
X0265813Y0121983D03*
X0263451Y0121983D03*
X0261089Y0121983D03*
X0258726Y0121983D03*
X0256364Y0121983D03*
X0254002Y0121983D03*
X0251640Y0121983D03*
X0249278Y0121983D03*
X0246915Y0121983D03*
X0244553Y0121983D03*
X0242191Y0121983D03*
X0239829Y0121983D03*
X0237467Y0121983D03*
X0235104Y0121983D03*
X0232742Y0121983D03*
X0230380Y0121983D03*
X0228018Y0121983D03*
X0225656Y0121983D03*
X0223293Y0121983D03*
X0220931Y0121983D03*
X0218569Y0121983D03*
X0216207Y0121983D03*
X0213844Y0121983D03*
X0211482Y0121983D03*
X0209120Y0121983D03*
X0206758Y0121983D03*
X0204396Y0121983D03*
X0202033Y0121983D03*
X0199671Y0121983D03*
X0197309Y0121983D03*
X0194947Y0121983D03*
X0192585Y0121983D03*
X0190222Y0121983D03*
X0187860Y0121983D03*
X0185498Y0121983D03*
X0183136Y0121983D03*
X0180774Y0121983D03*
X0178411Y0121983D03*
X0176049Y0121983D03*
X0173687Y0121983D03*
X0171325Y0121983D03*
X0168963Y0121983D03*
X0166600Y0121983D03*
X0164238Y0121983D03*
X0161876Y0121983D03*
X0159514Y0121983D03*
X0157152Y0121983D03*
X0154789Y0121983D03*
X0152427Y0121983D03*
X0150065Y0121983D03*
X0147703Y0121983D03*
X0145341Y0121983D03*
X0142978Y0121983D03*
X0140616Y0121983D03*
X0138254Y0121983D03*
X0135892Y0121983D03*
X0133530Y0121983D03*
X0131167Y0121983D03*
X0128805Y0121983D03*
X0112270Y0121983D03*
X0109907Y0121983D03*
X0107545Y0121983D03*
X0105183Y0121983D03*
X0102821Y0121983D03*
X0100459Y0121983D03*
X0098096Y0121983D03*
X0095734Y0121983D03*
X0093372Y0121983D03*
X0091010Y0121983D03*
X0088648Y0121983D03*
X0086285Y0121983D03*
X0083923Y0121983D03*
X0081561Y0121983D03*
X0079199Y0121983D03*
X0076837Y0121983D03*
X0074474Y0121983D03*
X0072112Y0121983D03*
X0069750Y0121983D03*
X0067388Y0121983D03*
X0315419Y0121983D03*
D22*
X0318963Y0090881D03*
X0062663Y0090881D03*
D23*
X0059317Y0138125D03*
D24*
X0322309Y0138125D03*
D25*
X0309750Y0019375D03*
X0071000Y0019375D03*
D26*
X0138500Y0261063D03*
X0134760Y0268937D03*
X0142240Y0268937D03*
D27*
X0270050Y0093750D03*
X0270050Y0088750D03*
X0270050Y0083750D03*
X0270050Y0078750D03*
X0289450Y0078750D03*
X0289450Y0083750D03*
X0289450Y0088750D03*
X0289450Y0093750D03*
D28*
X0339125Y0076590D03*
X0339125Y0059660D03*
D29*
X0350375Y0148248D03*
X0350375Y0166752D03*
D30*
X0238500Y0080768D03*
X0238500Y0064232D03*
D31*
X0194125Y0059173D03*
X0189125Y0059173D03*
X0184125Y0059173D03*
X0179125Y0059173D03*
X0174125Y0059173D03*
X0169125Y0059173D03*
X0164125Y0059173D03*
X0159125Y0059173D03*
X0154125Y0059173D03*
X0149125Y0059173D03*
X0131625Y0069577D03*
X0126625Y0069577D03*
X0121625Y0069577D03*
X0116625Y0069577D03*
X0111625Y0069577D03*
X0106625Y0069577D03*
X0101625Y0069577D03*
X0096625Y0069577D03*
X0091625Y0069577D03*
X0086625Y0069577D03*
X0086625Y0097923D03*
X0091625Y0097923D03*
X0096625Y0097923D03*
X0101625Y0097923D03*
X0106625Y0097923D03*
X0111625Y0097923D03*
X0116625Y0097923D03*
X0121625Y0097923D03*
X0126625Y0097923D03*
X0131625Y0097923D03*
X0149125Y0030827D03*
X0154125Y0030827D03*
X0159125Y0030827D03*
X0164125Y0030827D03*
X0169125Y0030827D03*
X0174125Y0030827D03*
X0179125Y0030827D03*
X0184125Y0030827D03*
X0189125Y0030827D03*
X0194125Y0030827D03*
D32*
X0103500Y0166550D03*
X0098500Y0166550D03*
X0093500Y0166550D03*
X0088500Y0166550D03*
X0088500Y0185950D03*
X0093500Y0185950D03*
X0098500Y0185950D03*
X0103500Y0185950D03*
D33*
X0111748Y0199532D03*
X0111748Y0209375D03*
X0111748Y0219218D03*
X0080252Y0219218D03*
X0080252Y0209375D03*
X0080252Y0199532D03*
D34*
X0021000Y0056250D03*
D35*
X0031000Y0056250D03*
X0031000Y0066250D03*
X0021000Y0066250D03*
X0021000Y0076250D03*
X0031000Y0076250D03*
X0031000Y0086250D03*
X0021000Y0086250D03*
X0021000Y0096250D03*
X0031000Y0096250D03*
X0031000Y0106250D03*
X0021000Y0106250D03*
X0021000Y0116250D03*
X0031000Y0116250D03*
X0031000Y0126250D03*
X0021000Y0126250D03*
X0021000Y0136250D03*
X0031000Y0136250D03*
X0031000Y0146250D03*
X0021000Y0146250D03*
X0357875Y0116875D03*
X0367875Y0116875D03*
X0367875Y0106875D03*
X0357875Y0106875D03*
X0357875Y0096875D03*
X0367875Y0096875D03*
X0367875Y0086875D03*
X0357875Y0086875D03*
X0357875Y0076875D03*
X0367875Y0076875D03*
X0367875Y0066875D03*
X0357875Y0066875D03*
X0357875Y0056875D03*
X0367875Y0056875D03*
D36*
X0256217Y0172037D03*
X0252280Y0172037D03*
X0248343Y0172037D03*
X0244406Y0172037D03*
X0240469Y0172037D03*
X0236531Y0172037D03*
X0232594Y0172037D03*
X0228657Y0172037D03*
X0224720Y0172037D03*
X0220783Y0172037D03*
X0166217Y0172037D03*
X0162280Y0172037D03*
X0158343Y0172037D03*
X0154406Y0172037D03*
X0150469Y0172037D03*
X0146531Y0172037D03*
X0142594Y0172037D03*
X0138657Y0172037D03*
X0134720Y0172037D03*
X0130783Y0172037D03*
D37*
X0125665Y0187293D03*
X0171335Y0187293D03*
X0215665Y0187293D03*
X0261335Y0187293D03*
D38*
X0285439Y0175433D03*
X0293313Y0175433D03*
X0301187Y0175433D03*
X0309061Y0175433D03*
D39*
X0319691Y0195906D03*
X0274809Y0195906D03*
D40*
X0246000Y0110950D03*
X0241000Y0110950D03*
X0236000Y0110950D03*
X0231000Y0110950D03*
X0231000Y0091550D03*
X0236000Y0091550D03*
X0241000Y0091550D03*
X0246000Y0091550D03*
D41*
X0251000Y0089375D03*
X0231000Y0098125D03*
X0227250Y0091875D03*
X0229125Y0085625D03*
X0258500Y0106250D03*
X0292875Y0108125D03*
X0292875Y0098750D03*
X0304125Y0099375D03*
X0279125Y0088750D03*
X0282875Y0083750D03*
X0287250Y0070000D03*
X0257250Y0061875D03*
X0174125Y0065625D03*
X0169125Y0065625D03*
X0164125Y0065625D03*
X0159125Y0065625D03*
X0154125Y0065625D03*
X0126625Y0076250D03*
X0121625Y0076250D03*
X0116625Y0076250D03*
X0111625Y0076250D03*
X0106625Y0076250D03*
X0101625Y0076250D03*
X0096625Y0076250D03*
X0096625Y0104375D03*
X0101625Y0104375D03*
X0106625Y0104375D03*
X0111625Y0104375D03*
X0116625Y0104375D03*
X0121625Y0104375D03*
X0126625Y0104375D03*
X0133500Y0128750D03*
X0145375Y0128750D03*
X0154750Y0128750D03*
X0161000Y0128750D03*
X0171625Y0128750D03*
X0191625Y0140625D03*
X0194750Y0139375D03*
X0197875Y0138125D03*
X0200375Y0135625D03*
X0202875Y0133125D03*
X0209125Y0143750D03*
X0210375Y0146875D03*
X0219125Y0145625D03*
X0179750Y0148125D03*
X0174750Y0148125D03*
X0170375Y0148125D03*
X0159125Y0146250D03*
X0155375Y0146250D03*
X0151625Y0146250D03*
X0147875Y0146250D03*
X0124750Y0154375D03*
X0111625Y0160625D03*
X0107875Y0160625D03*
X0114750Y0167500D03*
X0129750Y0166250D03*
X0138500Y0167500D03*
X0142250Y0167500D03*
X0146625Y0167500D03*
X0150375Y0167500D03*
X0154125Y0167500D03*
X0158500Y0167500D03*
X0162250Y0167500D03*
X0130375Y0185625D03*
X0121000Y0185625D03*
X0108500Y0181875D03*
X0091000Y0176250D03*
X0080375Y0164375D03*
X0076625Y0163750D03*
X0074125Y0160625D03*
X0071000Y0162500D03*
X0083500Y0161250D03*
X0062875Y0151875D03*
X0071000Y0146875D03*
X0075375Y0146875D03*
X0022875Y0151875D03*
X0011625Y0151875D03*
X0016000Y0163750D03*
X0015375Y0170000D03*
X0011000Y0173750D03*
X0011000Y0186250D03*
X0011625Y0194375D03*
X0018500Y0198750D03*
X0029750Y0201250D03*
X0017250Y0208125D03*
X0012250Y0208125D03*
X0015375Y0220000D03*
X0015375Y0224375D03*
X0022875Y0231875D03*
X0015375Y0241250D03*
X0016000Y0246250D03*
X0042250Y0263125D03*
X0059125Y0267500D03*
X0063500Y0274375D03*
X0068500Y0274375D03*
X0080375Y0278750D03*
X0084750Y0271875D03*
X0093500Y0273125D03*
X0093500Y0278125D03*
X0106000Y0275000D03*
X0111000Y0275000D03*
X0123500Y0278125D03*
X0132250Y0275000D03*
X0122875Y0267500D03*
X0107250Y0259375D03*
X0093500Y0259375D03*
X0087250Y0260625D03*
X0047250Y0274375D03*
X0042250Y0274375D03*
X0143500Y0254375D03*
X0148500Y0250625D03*
X0166000Y0267500D03*
X0169750Y0274375D03*
X0174125Y0274375D03*
X0162875Y0275000D03*
X0159750Y0273125D03*
X0155375Y0271875D03*
X0187875Y0266875D03*
X0196000Y0273125D03*
X0191000Y0275000D03*
X0204750Y0274375D03*
X0202875Y0266875D03*
X0216625Y0274375D03*
X0222875Y0267500D03*
X0228500Y0278750D03*
X0238500Y0275000D03*
X0254750Y0271250D03*
X0255375Y0275000D03*
X0260375Y0275000D03*
X0275375Y0271250D03*
X0277250Y0275000D03*
X0282875Y0275000D03*
X0293500Y0278125D03*
X0297250Y0271250D03*
X0306625Y0271875D03*
X0306000Y0278125D03*
X0316000Y0275000D03*
X0323500Y0275000D03*
X0328500Y0267500D03*
X0339750Y0275000D03*
X0344125Y0275000D03*
X0296625Y0260625D03*
X0368500Y0248750D03*
X0371625Y0245625D03*
X0374750Y0237500D03*
X0369750Y0228750D03*
X0371000Y0224375D03*
X0371000Y0220000D03*
X0374750Y0208125D03*
X0368500Y0206250D03*
X0357250Y0201250D03*
X0354750Y0196250D03*
X0369750Y0194375D03*
X0375375Y0194375D03*
X0371625Y0184375D03*
X0371000Y0178125D03*
X0370375Y0173750D03*
X0374750Y0169375D03*
X0370375Y0166250D03*
X0344125Y0178750D03*
X0337875Y0178750D03*
X0317875Y0163125D03*
X0317875Y0159375D03*
X0319125Y0129375D03*
X0327250Y0126250D03*
X0341000Y0126875D03*
X0341000Y0130625D03*
X0360375Y0129375D03*
X0360375Y0125625D03*
X0351000Y0106875D03*
X0350375Y0103125D03*
X0240375Y0167500D03*
X0236625Y0167500D03*
X0232250Y0167500D03*
X0228500Y0167500D03*
X0224750Y0167500D03*
X0124750Y0223750D03*
X0193500Y0247500D03*
X0201000Y0245000D03*
X0202250Y0250625D03*
X0342875Y0206250D03*
X0174125Y0037500D03*
X0169125Y0037500D03*
X0164125Y0037500D03*
X0159125Y0037500D03*
X0154125Y0037500D03*
D42*
X0076000Y0048006D03*
X0238500Y0103750D03*
X0314125Y0175000D03*
X0355375Y0176875D03*
X0144125Y0263125D03*
D43*
X0129750Y0244375D03*
X0127875Y0241875D03*
X0130375Y0239375D03*
X0092875Y0249375D03*
X0091000Y0246875D03*
X0090375Y0251875D03*
X0041000Y0206250D03*
X0043500Y0204375D03*
X0037875Y0204375D03*
X0134750Y0167500D03*
X0104125Y0145000D03*
X0101000Y0143750D03*
X0097875Y0145000D03*
X0094750Y0143750D03*
X0091625Y0145000D03*
X0088500Y0143750D03*
X0085375Y0145000D03*
X0082250Y0143750D03*
X0244750Y0181875D03*
X0248500Y0179375D03*
X0252250Y0176875D03*
X0342875Y0196875D03*
X0346625Y0197500D03*
X0349750Y0196250D03*
X0301625Y0253750D03*
X0304125Y0256250D03*
X0306625Y0258750D03*
X0199125Y0241875D03*
X0196625Y0239375D03*
X0194125Y0236875D03*
M02*
