%
M48
M72
T01C0.01300
T02C0.01500
T03C0.02362
T04C0.03150
T05C0.03937
T06C0.04331
T07C0.11811
T08C0.14764
%
T01
X82250Y143750
X85375Y145000
X88500Y143750
X91625Y145000
X94750Y143750
X97875Y145000
X101000Y143750
X104125Y145000
X43500Y204375
X41000Y206250
X37875Y204375
X91000Y246875
X92875Y249375
X90375Y251875
X127875Y241875
X129750Y244375
X130375Y239375
X194125Y236875
X196625Y239375
X199125Y241875
X301625Y253750
X304125Y256250
X306625Y258750
X346625Y197500
X349750Y196250
X342875Y196875
T02
X42250Y263125
X59125Y267500
X63500Y274375
X68500Y274375
X80375Y278750
X84750Y271875
X93500Y273125
X93500Y278125
X106000Y275000
X111000Y275000
X123500Y278125
X132250Y275000
X122875Y267500
X107250Y259375
X93500Y259375
X87250Y260625
X47250Y274375
X42250Y274375
X16000Y246250
X15375Y241250
X22875Y231875
X15375Y224375
X15375Y220000
X17250Y208125
X12250Y208125
X18500Y198750
X11625Y194375
X29750Y201250
X11000Y186250
X11000Y173750
X15375Y170000
X16000Y163750
X11625Y151875
X22875Y151875
X71000Y146875
X75375Y146875
X62875Y151875
X71000Y162500
X74125Y160625
X76625Y163750
X80375Y164375
X83500Y161250
X107875Y160625
X111625Y160625
X124750Y154375
X147875Y146250
X151625Y146250
X155375Y146250
X159125Y146250
X170375Y148125
X174750Y148125
X179750Y148125
X191625Y140625
X194750Y139375
X197875Y138125
X200375Y135625
X202875Y133125
X210375Y143750
X212250Y146875
X219125Y145625
X224750Y167500
X228500Y167500
X232250Y167500
X236625Y167500
X240375Y167500
X244125Y167500
X248500Y167500
X252250Y167500
X317875Y163125
X317875Y159375
X319125Y129375
X327250Y126250
X341000Y126875
X341000Y130625
X360375Y129375
X360375Y125625
X351000Y106875
X350375Y103125
X304125Y99375
X292875Y98750
X292875Y108125
X258500Y106250
X246000Y100000
X251000Y89375
X279125Y88750
X282875Y83750
X287250Y70000
X257250Y61875
X189125Y65625
X184125Y65625
X179125Y65625
X174125Y65625
X169125Y65625
X164125Y65625
X159125Y65625
X154125Y65625
X126625Y76250
X121625Y76250
X116625Y76250
X111625Y76250
X106625Y76250
X101625Y76250
X96625Y76250
X91625Y76250
X91625Y104375
X96625Y104375
X101625Y104375
X106625Y104375
X111625Y104375
X116625Y104375
X121625Y104375
X126625Y104375
X133500Y128750
X145375Y128750
X154750Y128750
X161000Y128750
X171625Y128750
X162250Y167500
X158500Y167500
X154125Y167500
X150375Y167500
X146625Y167500
X142250Y167500
X138500Y167500
X134750Y167500
X108500Y181875
X91000Y176250
X124750Y223750
X148500Y250625
X143500Y254375
X166000Y267500
X169750Y274375
X174125Y274375
X162875Y275000
X159750Y273125
X155375Y271875
X187875Y266875
X196000Y273125
X191000Y275000
X204750Y274375
X202875Y266875
X216625Y274375
X222875Y267500
X228500Y278750
X238500Y275000
X254750Y271250
X255375Y275000
X260375Y275000
X275375Y271250
X277250Y275000
X282875Y275000
X293500Y278125
X297250Y271250
X306625Y271875
X306000Y278125
X316000Y275000
X323500Y275000
X328500Y267500
X339750Y275000
X344125Y275000
X368500Y248750
X371625Y245625
X374750Y237500
X369750Y228750
X371000Y224375
X371000Y220000
X374750Y208125
X368500Y206250
X357250Y201250
X354750Y196250
X369750Y194375
X375375Y194375
X371625Y184375
X371000Y178125
X370375Y173750
X374750Y169375
X370375Y166250
X344125Y178750
X337875Y178750
X342875Y206250
X296625Y260625
X202250Y250625
X201000Y245000
X193500Y247500
X189125Y37500
X184125Y37500
X179125Y37500
X174125Y37500
X169125Y37500
X164125Y37500
X159125Y37500
X154125Y37500
T03
X76000Y48006
X236000Y103750
X277875Y81875
X314125Y175000
X355375Y176875
X144125Y263125
X59317Y138125
T04
X118500Y15000
X128500Y15000
X138500Y15000
X248500Y15000
X258500Y15000
X268500Y15000
X268500Y255000
X258500Y255000
X248500Y255000
X238500Y255000
X228500Y255000
X218500Y255000
X208500Y255000
X198500Y255000
X188500Y255000
X178500Y255000
X168500Y255000
X158500Y255000
X148500Y255000
X138500Y255000
X128500Y255000
X118500Y255000
T05
X21000Y146250
X31000Y146250
X31000Y136250
X21000Y136250
X21000Y126250
X31000Y126250
X31000Y116250
X21000Y116250
X21000Y106250
X31000Y106250
X31000Y96250
X21000Y96250
X21000Y86250
X31000Y86250
X31000Y76250
X21000Y76250
X21000Y66250
X31000Y66250
X31000Y56250
X21000Y56250
X357875Y116875
X367875Y116875
X367875Y106875
X357875Y106875
X357875Y96875
X367875Y96875
X367875Y86875
X357875Y86875
X357875Y76875
X367875Y76875
X367875Y66875
X357875Y66875
X357875Y56875
X367875Y56875
T06
X322309Y138125
T07
X24125Y266250
X24125Y20625
X362875Y20625
X362875Y266250
T08
X71000Y19375
X309750Y19375
M30
