G75*
%MOIN*%
%OFA0B0*%
%FSLAX25Y25*%
%IPPOS*%
%LPD*%
%AMOC8*
5,1,8,0,0,1.08239X$1,22.5*
%
%ADD10C,0.00000*%
%ADD11C,0.12402*%
%ADD12OC8,0.05315*%
%ADD13C,0.02953*%
%ADD14C,0.04921*%
%ADD15C,0.28150*%
%ADD16R,0.04528X0.04921*%
%ADD17R,0.04921X0.04528*%
%ADD18C,0.06102*%
%ADD19OC8,0.06102*%
%ADD20C,0.03291*%
%ADD21C,0.04843*%
%ADD22C,0.03072*%
D10*
X0007875Y0004375D02*
X0007875Y0282466D01*
X0379027Y0282466D01*
X0379027Y0004375D01*
X0007875Y0004375D01*
X0018219Y0020625D02*
X0018221Y0020778D01*
X0018227Y0020932D01*
X0018237Y0021085D01*
X0018251Y0021237D01*
X0018269Y0021390D01*
X0018291Y0021541D01*
X0018316Y0021692D01*
X0018346Y0021843D01*
X0018380Y0021993D01*
X0018417Y0022141D01*
X0018458Y0022289D01*
X0018503Y0022435D01*
X0018552Y0022581D01*
X0018605Y0022725D01*
X0018661Y0022867D01*
X0018721Y0023008D01*
X0018785Y0023148D01*
X0018852Y0023286D01*
X0018923Y0023422D01*
X0018998Y0023556D01*
X0019075Y0023688D01*
X0019157Y0023818D01*
X0019241Y0023946D01*
X0019329Y0024072D01*
X0019420Y0024195D01*
X0019514Y0024316D01*
X0019612Y0024434D01*
X0019712Y0024550D01*
X0019816Y0024663D01*
X0019922Y0024774D01*
X0020031Y0024882D01*
X0020143Y0024987D01*
X0020257Y0025088D01*
X0020375Y0025187D01*
X0020494Y0025283D01*
X0020616Y0025376D01*
X0020741Y0025465D01*
X0020868Y0025552D01*
X0020997Y0025634D01*
X0021128Y0025714D01*
X0021261Y0025790D01*
X0021396Y0025863D01*
X0021533Y0025932D01*
X0021672Y0025997D01*
X0021812Y0026059D01*
X0021954Y0026117D01*
X0022097Y0026172D01*
X0022242Y0026223D01*
X0022388Y0026270D01*
X0022535Y0026313D01*
X0022683Y0026352D01*
X0022832Y0026388D01*
X0022982Y0026419D01*
X0023133Y0026447D01*
X0023284Y0026471D01*
X0023437Y0026491D01*
X0023589Y0026507D01*
X0023742Y0026519D01*
X0023895Y0026527D01*
X0024048Y0026531D01*
X0024202Y0026531D01*
X0024355Y0026527D01*
X0024508Y0026519D01*
X0024661Y0026507D01*
X0024813Y0026491D01*
X0024966Y0026471D01*
X0025117Y0026447D01*
X0025268Y0026419D01*
X0025418Y0026388D01*
X0025567Y0026352D01*
X0025715Y0026313D01*
X0025862Y0026270D01*
X0026008Y0026223D01*
X0026153Y0026172D01*
X0026296Y0026117D01*
X0026438Y0026059D01*
X0026578Y0025997D01*
X0026717Y0025932D01*
X0026854Y0025863D01*
X0026989Y0025790D01*
X0027122Y0025714D01*
X0027253Y0025634D01*
X0027382Y0025552D01*
X0027509Y0025465D01*
X0027634Y0025376D01*
X0027756Y0025283D01*
X0027875Y0025187D01*
X0027993Y0025088D01*
X0028107Y0024987D01*
X0028219Y0024882D01*
X0028328Y0024774D01*
X0028434Y0024663D01*
X0028538Y0024550D01*
X0028638Y0024434D01*
X0028736Y0024316D01*
X0028830Y0024195D01*
X0028921Y0024072D01*
X0029009Y0023946D01*
X0029093Y0023818D01*
X0029175Y0023688D01*
X0029252Y0023556D01*
X0029327Y0023422D01*
X0029398Y0023286D01*
X0029465Y0023148D01*
X0029529Y0023008D01*
X0029589Y0022867D01*
X0029645Y0022725D01*
X0029698Y0022581D01*
X0029747Y0022435D01*
X0029792Y0022289D01*
X0029833Y0022141D01*
X0029870Y0021993D01*
X0029904Y0021843D01*
X0029934Y0021692D01*
X0029959Y0021541D01*
X0029981Y0021390D01*
X0029999Y0021237D01*
X0030013Y0021085D01*
X0030023Y0020932D01*
X0030029Y0020778D01*
X0030031Y0020625D01*
X0030029Y0020472D01*
X0030023Y0020318D01*
X0030013Y0020165D01*
X0029999Y0020013D01*
X0029981Y0019860D01*
X0029959Y0019709D01*
X0029934Y0019558D01*
X0029904Y0019407D01*
X0029870Y0019257D01*
X0029833Y0019109D01*
X0029792Y0018961D01*
X0029747Y0018815D01*
X0029698Y0018669D01*
X0029645Y0018525D01*
X0029589Y0018383D01*
X0029529Y0018242D01*
X0029465Y0018102D01*
X0029398Y0017964D01*
X0029327Y0017828D01*
X0029252Y0017694D01*
X0029175Y0017562D01*
X0029093Y0017432D01*
X0029009Y0017304D01*
X0028921Y0017178D01*
X0028830Y0017055D01*
X0028736Y0016934D01*
X0028638Y0016816D01*
X0028538Y0016700D01*
X0028434Y0016587D01*
X0028328Y0016476D01*
X0028219Y0016368D01*
X0028107Y0016263D01*
X0027993Y0016162D01*
X0027875Y0016063D01*
X0027756Y0015967D01*
X0027634Y0015874D01*
X0027509Y0015785D01*
X0027382Y0015698D01*
X0027253Y0015616D01*
X0027122Y0015536D01*
X0026989Y0015460D01*
X0026854Y0015387D01*
X0026717Y0015318D01*
X0026578Y0015253D01*
X0026438Y0015191D01*
X0026296Y0015133D01*
X0026153Y0015078D01*
X0026008Y0015027D01*
X0025862Y0014980D01*
X0025715Y0014937D01*
X0025567Y0014898D01*
X0025418Y0014862D01*
X0025268Y0014831D01*
X0025117Y0014803D01*
X0024966Y0014779D01*
X0024813Y0014759D01*
X0024661Y0014743D01*
X0024508Y0014731D01*
X0024355Y0014723D01*
X0024202Y0014719D01*
X0024048Y0014719D01*
X0023895Y0014723D01*
X0023742Y0014731D01*
X0023589Y0014743D01*
X0023437Y0014759D01*
X0023284Y0014779D01*
X0023133Y0014803D01*
X0022982Y0014831D01*
X0022832Y0014862D01*
X0022683Y0014898D01*
X0022535Y0014937D01*
X0022388Y0014980D01*
X0022242Y0015027D01*
X0022097Y0015078D01*
X0021954Y0015133D01*
X0021812Y0015191D01*
X0021672Y0015253D01*
X0021533Y0015318D01*
X0021396Y0015387D01*
X0021261Y0015460D01*
X0021128Y0015536D01*
X0020997Y0015616D01*
X0020868Y0015698D01*
X0020741Y0015785D01*
X0020616Y0015874D01*
X0020494Y0015967D01*
X0020375Y0016063D01*
X0020257Y0016162D01*
X0020143Y0016263D01*
X0020031Y0016368D01*
X0019922Y0016476D01*
X0019816Y0016587D01*
X0019712Y0016700D01*
X0019612Y0016816D01*
X0019514Y0016934D01*
X0019420Y0017055D01*
X0019329Y0017178D01*
X0019241Y0017304D01*
X0019157Y0017432D01*
X0019075Y0017562D01*
X0018998Y0017694D01*
X0018923Y0017828D01*
X0018852Y0017964D01*
X0018785Y0018102D01*
X0018721Y0018242D01*
X0018661Y0018383D01*
X0018605Y0018525D01*
X0018552Y0018669D01*
X0018503Y0018815D01*
X0018458Y0018961D01*
X0018417Y0019109D01*
X0018380Y0019257D01*
X0018346Y0019407D01*
X0018316Y0019558D01*
X0018291Y0019709D01*
X0018269Y0019860D01*
X0018251Y0020013D01*
X0018237Y0020165D01*
X0018227Y0020318D01*
X0018221Y0020472D01*
X0018219Y0020625D01*
X0058136Y0138125D02*
X0058138Y0138194D01*
X0058144Y0138262D01*
X0058154Y0138330D01*
X0058168Y0138397D01*
X0058186Y0138464D01*
X0058207Y0138529D01*
X0058233Y0138593D01*
X0058262Y0138655D01*
X0058294Y0138715D01*
X0058330Y0138774D01*
X0058370Y0138830D01*
X0058412Y0138884D01*
X0058458Y0138935D01*
X0058507Y0138984D01*
X0058558Y0139030D01*
X0058612Y0139072D01*
X0058668Y0139112D01*
X0058726Y0139148D01*
X0058787Y0139180D01*
X0058849Y0139209D01*
X0058913Y0139235D01*
X0058978Y0139256D01*
X0059045Y0139274D01*
X0059112Y0139288D01*
X0059180Y0139298D01*
X0059248Y0139304D01*
X0059317Y0139306D01*
X0059386Y0139304D01*
X0059454Y0139298D01*
X0059522Y0139288D01*
X0059589Y0139274D01*
X0059656Y0139256D01*
X0059721Y0139235D01*
X0059785Y0139209D01*
X0059847Y0139180D01*
X0059907Y0139148D01*
X0059966Y0139112D01*
X0060022Y0139072D01*
X0060076Y0139030D01*
X0060127Y0138984D01*
X0060176Y0138935D01*
X0060222Y0138884D01*
X0060264Y0138830D01*
X0060304Y0138774D01*
X0060340Y0138715D01*
X0060372Y0138655D01*
X0060401Y0138593D01*
X0060427Y0138529D01*
X0060448Y0138464D01*
X0060466Y0138397D01*
X0060480Y0138330D01*
X0060490Y0138262D01*
X0060496Y0138194D01*
X0060498Y0138125D01*
X0060496Y0138056D01*
X0060490Y0137988D01*
X0060480Y0137920D01*
X0060466Y0137853D01*
X0060448Y0137786D01*
X0060427Y0137721D01*
X0060401Y0137657D01*
X0060372Y0137595D01*
X0060340Y0137534D01*
X0060304Y0137476D01*
X0060264Y0137420D01*
X0060222Y0137366D01*
X0060176Y0137315D01*
X0060127Y0137266D01*
X0060076Y0137220D01*
X0060022Y0137178D01*
X0059966Y0137138D01*
X0059908Y0137102D01*
X0059847Y0137070D01*
X0059785Y0137041D01*
X0059721Y0137015D01*
X0059656Y0136994D01*
X0059589Y0136976D01*
X0059522Y0136962D01*
X0059454Y0136952D01*
X0059386Y0136946D01*
X0059317Y0136944D01*
X0059248Y0136946D01*
X0059180Y0136952D01*
X0059112Y0136962D01*
X0059045Y0136976D01*
X0058978Y0136994D01*
X0058913Y0137015D01*
X0058849Y0137041D01*
X0058787Y0137070D01*
X0058726Y0137102D01*
X0058668Y0137138D01*
X0058612Y0137178D01*
X0058558Y0137220D01*
X0058507Y0137266D01*
X0058458Y0137315D01*
X0058412Y0137366D01*
X0058370Y0137420D01*
X0058330Y0137476D01*
X0058294Y0137534D01*
X0058262Y0137595D01*
X0058233Y0137657D01*
X0058207Y0137721D01*
X0058186Y0137786D01*
X0058168Y0137853D01*
X0058154Y0137920D01*
X0058144Y0137988D01*
X0058138Y0138056D01*
X0058136Y0138125D01*
X0320144Y0138125D02*
X0320146Y0138218D01*
X0320152Y0138310D01*
X0320162Y0138402D01*
X0320176Y0138493D01*
X0320193Y0138584D01*
X0320215Y0138674D01*
X0320240Y0138763D01*
X0320269Y0138851D01*
X0320302Y0138937D01*
X0320339Y0139022D01*
X0320379Y0139106D01*
X0320423Y0139187D01*
X0320470Y0139267D01*
X0320520Y0139345D01*
X0320574Y0139420D01*
X0320631Y0139493D01*
X0320691Y0139563D01*
X0320754Y0139631D01*
X0320820Y0139696D01*
X0320888Y0139758D01*
X0320959Y0139818D01*
X0321033Y0139874D01*
X0321109Y0139927D01*
X0321187Y0139976D01*
X0321267Y0140023D01*
X0321349Y0140065D01*
X0321433Y0140105D01*
X0321518Y0140140D01*
X0321605Y0140172D01*
X0321693Y0140201D01*
X0321782Y0140225D01*
X0321872Y0140246D01*
X0321963Y0140262D01*
X0322055Y0140275D01*
X0322147Y0140284D01*
X0322240Y0140289D01*
X0322332Y0140290D01*
X0322425Y0140287D01*
X0322517Y0140280D01*
X0322609Y0140269D01*
X0322700Y0140254D01*
X0322791Y0140236D01*
X0322881Y0140213D01*
X0322969Y0140187D01*
X0323057Y0140157D01*
X0323143Y0140123D01*
X0323227Y0140086D01*
X0323310Y0140044D01*
X0323391Y0140000D01*
X0323471Y0139952D01*
X0323548Y0139901D01*
X0323622Y0139846D01*
X0323695Y0139788D01*
X0323765Y0139728D01*
X0323832Y0139664D01*
X0323896Y0139598D01*
X0323958Y0139528D01*
X0324016Y0139457D01*
X0324071Y0139383D01*
X0324123Y0139306D01*
X0324172Y0139227D01*
X0324218Y0139147D01*
X0324260Y0139064D01*
X0324298Y0138980D01*
X0324333Y0138894D01*
X0324364Y0138807D01*
X0324391Y0138719D01*
X0324414Y0138629D01*
X0324434Y0138539D01*
X0324450Y0138448D01*
X0324462Y0138356D01*
X0324470Y0138264D01*
X0324474Y0138171D01*
X0324474Y0138079D01*
X0324470Y0137986D01*
X0324462Y0137894D01*
X0324450Y0137802D01*
X0324434Y0137711D01*
X0324414Y0137621D01*
X0324391Y0137531D01*
X0324364Y0137443D01*
X0324333Y0137356D01*
X0324298Y0137270D01*
X0324260Y0137186D01*
X0324218Y0137103D01*
X0324172Y0137023D01*
X0324123Y0136944D01*
X0324071Y0136867D01*
X0324016Y0136793D01*
X0323958Y0136722D01*
X0323896Y0136652D01*
X0323832Y0136586D01*
X0323765Y0136522D01*
X0323695Y0136462D01*
X0323622Y0136404D01*
X0323548Y0136349D01*
X0323471Y0136298D01*
X0323392Y0136250D01*
X0323310Y0136206D01*
X0323227Y0136164D01*
X0323143Y0136127D01*
X0323057Y0136093D01*
X0322969Y0136063D01*
X0322881Y0136037D01*
X0322791Y0136014D01*
X0322700Y0135996D01*
X0322609Y0135981D01*
X0322517Y0135970D01*
X0322425Y0135963D01*
X0322332Y0135960D01*
X0322240Y0135961D01*
X0322147Y0135966D01*
X0322055Y0135975D01*
X0321963Y0135988D01*
X0321872Y0136004D01*
X0321782Y0136025D01*
X0321693Y0136049D01*
X0321605Y0136078D01*
X0321518Y0136110D01*
X0321433Y0136145D01*
X0321349Y0136185D01*
X0321267Y0136227D01*
X0321187Y0136274D01*
X0321109Y0136323D01*
X0321033Y0136376D01*
X0320959Y0136432D01*
X0320888Y0136492D01*
X0320820Y0136554D01*
X0320754Y0136619D01*
X0320691Y0136687D01*
X0320631Y0136757D01*
X0320574Y0136830D01*
X0320520Y0136905D01*
X0320470Y0136983D01*
X0320423Y0137063D01*
X0320379Y0137144D01*
X0320339Y0137228D01*
X0320302Y0137313D01*
X0320269Y0137399D01*
X0320240Y0137487D01*
X0320215Y0137576D01*
X0320193Y0137666D01*
X0320176Y0137757D01*
X0320162Y0137848D01*
X0320152Y0137940D01*
X0320146Y0138032D01*
X0320144Y0138125D01*
X0356969Y0020625D02*
X0356971Y0020778D01*
X0356977Y0020932D01*
X0356987Y0021085D01*
X0357001Y0021237D01*
X0357019Y0021390D01*
X0357041Y0021541D01*
X0357066Y0021692D01*
X0357096Y0021843D01*
X0357130Y0021993D01*
X0357167Y0022141D01*
X0357208Y0022289D01*
X0357253Y0022435D01*
X0357302Y0022581D01*
X0357355Y0022725D01*
X0357411Y0022867D01*
X0357471Y0023008D01*
X0357535Y0023148D01*
X0357602Y0023286D01*
X0357673Y0023422D01*
X0357748Y0023556D01*
X0357825Y0023688D01*
X0357907Y0023818D01*
X0357991Y0023946D01*
X0358079Y0024072D01*
X0358170Y0024195D01*
X0358264Y0024316D01*
X0358362Y0024434D01*
X0358462Y0024550D01*
X0358566Y0024663D01*
X0358672Y0024774D01*
X0358781Y0024882D01*
X0358893Y0024987D01*
X0359007Y0025088D01*
X0359125Y0025187D01*
X0359244Y0025283D01*
X0359366Y0025376D01*
X0359491Y0025465D01*
X0359618Y0025552D01*
X0359747Y0025634D01*
X0359878Y0025714D01*
X0360011Y0025790D01*
X0360146Y0025863D01*
X0360283Y0025932D01*
X0360422Y0025997D01*
X0360562Y0026059D01*
X0360704Y0026117D01*
X0360847Y0026172D01*
X0360992Y0026223D01*
X0361138Y0026270D01*
X0361285Y0026313D01*
X0361433Y0026352D01*
X0361582Y0026388D01*
X0361732Y0026419D01*
X0361883Y0026447D01*
X0362034Y0026471D01*
X0362187Y0026491D01*
X0362339Y0026507D01*
X0362492Y0026519D01*
X0362645Y0026527D01*
X0362798Y0026531D01*
X0362952Y0026531D01*
X0363105Y0026527D01*
X0363258Y0026519D01*
X0363411Y0026507D01*
X0363563Y0026491D01*
X0363716Y0026471D01*
X0363867Y0026447D01*
X0364018Y0026419D01*
X0364168Y0026388D01*
X0364317Y0026352D01*
X0364465Y0026313D01*
X0364612Y0026270D01*
X0364758Y0026223D01*
X0364903Y0026172D01*
X0365046Y0026117D01*
X0365188Y0026059D01*
X0365328Y0025997D01*
X0365467Y0025932D01*
X0365604Y0025863D01*
X0365739Y0025790D01*
X0365872Y0025714D01*
X0366003Y0025634D01*
X0366132Y0025552D01*
X0366259Y0025465D01*
X0366384Y0025376D01*
X0366506Y0025283D01*
X0366625Y0025187D01*
X0366743Y0025088D01*
X0366857Y0024987D01*
X0366969Y0024882D01*
X0367078Y0024774D01*
X0367184Y0024663D01*
X0367288Y0024550D01*
X0367388Y0024434D01*
X0367486Y0024316D01*
X0367580Y0024195D01*
X0367671Y0024072D01*
X0367759Y0023946D01*
X0367843Y0023818D01*
X0367925Y0023688D01*
X0368002Y0023556D01*
X0368077Y0023422D01*
X0368148Y0023286D01*
X0368215Y0023148D01*
X0368279Y0023008D01*
X0368339Y0022867D01*
X0368395Y0022725D01*
X0368448Y0022581D01*
X0368497Y0022435D01*
X0368542Y0022289D01*
X0368583Y0022141D01*
X0368620Y0021993D01*
X0368654Y0021843D01*
X0368684Y0021692D01*
X0368709Y0021541D01*
X0368731Y0021390D01*
X0368749Y0021237D01*
X0368763Y0021085D01*
X0368773Y0020932D01*
X0368779Y0020778D01*
X0368781Y0020625D01*
X0368779Y0020472D01*
X0368773Y0020318D01*
X0368763Y0020165D01*
X0368749Y0020013D01*
X0368731Y0019860D01*
X0368709Y0019709D01*
X0368684Y0019558D01*
X0368654Y0019407D01*
X0368620Y0019257D01*
X0368583Y0019109D01*
X0368542Y0018961D01*
X0368497Y0018815D01*
X0368448Y0018669D01*
X0368395Y0018525D01*
X0368339Y0018383D01*
X0368279Y0018242D01*
X0368215Y0018102D01*
X0368148Y0017964D01*
X0368077Y0017828D01*
X0368002Y0017694D01*
X0367925Y0017562D01*
X0367843Y0017432D01*
X0367759Y0017304D01*
X0367671Y0017178D01*
X0367580Y0017055D01*
X0367486Y0016934D01*
X0367388Y0016816D01*
X0367288Y0016700D01*
X0367184Y0016587D01*
X0367078Y0016476D01*
X0366969Y0016368D01*
X0366857Y0016263D01*
X0366743Y0016162D01*
X0366625Y0016063D01*
X0366506Y0015967D01*
X0366384Y0015874D01*
X0366259Y0015785D01*
X0366132Y0015698D01*
X0366003Y0015616D01*
X0365872Y0015536D01*
X0365739Y0015460D01*
X0365604Y0015387D01*
X0365467Y0015318D01*
X0365328Y0015253D01*
X0365188Y0015191D01*
X0365046Y0015133D01*
X0364903Y0015078D01*
X0364758Y0015027D01*
X0364612Y0014980D01*
X0364465Y0014937D01*
X0364317Y0014898D01*
X0364168Y0014862D01*
X0364018Y0014831D01*
X0363867Y0014803D01*
X0363716Y0014779D01*
X0363563Y0014759D01*
X0363411Y0014743D01*
X0363258Y0014731D01*
X0363105Y0014723D01*
X0362952Y0014719D01*
X0362798Y0014719D01*
X0362645Y0014723D01*
X0362492Y0014731D01*
X0362339Y0014743D01*
X0362187Y0014759D01*
X0362034Y0014779D01*
X0361883Y0014803D01*
X0361732Y0014831D01*
X0361582Y0014862D01*
X0361433Y0014898D01*
X0361285Y0014937D01*
X0361138Y0014980D01*
X0360992Y0015027D01*
X0360847Y0015078D01*
X0360704Y0015133D01*
X0360562Y0015191D01*
X0360422Y0015253D01*
X0360283Y0015318D01*
X0360146Y0015387D01*
X0360011Y0015460D01*
X0359878Y0015536D01*
X0359747Y0015616D01*
X0359618Y0015698D01*
X0359491Y0015785D01*
X0359366Y0015874D01*
X0359244Y0015967D01*
X0359125Y0016063D01*
X0359007Y0016162D01*
X0358893Y0016263D01*
X0358781Y0016368D01*
X0358672Y0016476D01*
X0358566Y0016587D01*
X0358462Y0016700D01*
X0358362Y0016816D01*
X0358264Y0016934D01*
X0358170Y0017055D01*
X0358079Y0017178D01*
X0357991Y0017304D01*
X0357907Y0017432D01*
X0357825Y0017562D01*
X0357748Y0017694D01*
X0357673Y0017828D01*
X0357602Y0017964D01*
X0357535Y0018102D01*
X0357471Y0018242D01*
X0357411Y0018383D01*
X0357355Y0018525D01*
X0357302Y0018669D01*
X0357253Y0018815D01*
X0357208Y0018961D01*
X0357167Y0019109D01*
X0357130Y0019257D01*
X0357096Y0019407D01*
X0357066Y0019558D01*
X0357041Y0019709D01*
X0357019Y0019860D01*
X0357001Y0020013D01*
X0356987Y0020165D01*
X0356977Y0020318D01*
X0356971Y0020472D01*
X0356969Y0020625D01*
X0356969Y0266250D02*
X0356971Y0266403D01*
X0356977Y0266557D01*
X0356987Y0266710D01*
X0357001Y0266862D01*
X0357019Y0267015D01*
X0357041Y0267166D01*
X0357066Y0267317D01*
X0357096Y0267468D01*
X0357130Y0267618D01*
X0357167Y0267766D01*
X0357208Y0267914D01*
X0357253Y0268060D01*
X0357302Y0268206D01*
X0357355Y0268350D01*
X0357411Y0268492D01*
X0357471Y0268633D01*
X0357535Y0268773D01*
X0357602Y0268911D01*
X0357673Y0269047D01*
X0357748Y0269181D01*
X0357825Y0269313D01*
X0357907Y0269443D01*
X0357991Y0269571D01*
X0358079Y0269697D01*
X0358170Y0269820D01*
X0358264Y0269941D01*
X0358362Y0270059D01*
X0358462Y0270175D01*
X0358566Y0270288D01*
X0358672Y0270399D01*
X0358781Y0270507D01*
X0358893Y0270612D01*
X0359007Y0270713D01*
X0359125Y0270812D01*
X0359244Y0270908D01*
X0359366Y0271001D01*
X0359491Y0271090D01*
X0359618Y0271177D01*
X0359747Y0271259D01*
X0359878Y0271339D01*
X0360011Y0271415D01*
X0360146Y0271488D01*
X0360283Y0271557D01*
X0360422Y0271622D01*
X0360562Y0271684D01*
X0360704Y0271742D01*
X0360847Y0271797D01*
X0360992Y0271848D01*
X0361138Y0271895D01*
X0361285Y0271938D01*
X0361433Y0271977D01*
X0361582Y0272013D01*
X0361732Y0272044D01*
X0361883Y0272072D01*
X0362034Y0272096D01*
X0362187Y0272116D01*
X0362339Y0272132D01*
X0362492Y0272144D01*
X0362645Y0272152D01*
X0362798Y0272156D01*
X0362952Y0272156D01*
X0363105Y0272152D01*
X0363258Y0272144D01*
X0363411Y0272132D01*
X0363563Y0272116D01*
X0363716Y0272096D01*
X0363867Y0272072D01*
X0364018Y0272044D01*
X0364168Y0272013D01*
X0364317Y0271977D01*
X0364465Y0271938D01*
X0364612Y0271895D01*
X0364758Y0271848D01*
X0364903Y0271797D01*
X0365046Y0271742D01*
X0365188Y0271684D01*
X0365328Y0271622D01*
X0365467Y0271557D01*
X0365604Y0271488D01*
X0365739Y0271415D01*
X0365872Y0271339D01*
X0366003Y0271259D01*
X0366132Y0271177D01*
X0366259Y0271090D01*
X0366384Y0271001D01*
X0366506Y0270908D01*
X0366625Y0270812D01*
X0366743Y0270713D01*
X0366857Y0270612D01*
X0366969Y0270507D01*
X0367078Y0270399D01*
X0367184Y0270288D01*
X0367288Y0270175D01*
X0367388Y0270059D01*
X0367486Y0269941D01*
X0367580Y0269820D01*
X0367671Y0269697D01*
X0367759Y0269571D01*
X0367843Y0269443D01*
X0367925Y0269313D01*
X0368002Y0269181D01*
X0368077Y0269047D01*
X0368148Y0268911D01*
X0368215Y0268773D01*
X0368279Y0268633D01*
X0368339Y0268492D01*
X0368395Y0268350D01*
X0368448Y0268206D01*
X0368497Y0268060D01*
X0368542Y0267914D01*
X0368583Y0267766D01*
X0368620Y0267618D01*
X0368654Y0267468D01*
X0368684Y0267317D01*
X0368709Y0267166D01*
X0368731Y0267015D01*
X0368749Y0266862D01*
X0368763Y0266710D01*
X0368773Y0266557D01*
X0368779Y0266403D01*
X0368781Y0266250D01*
X0368779Y0266097D01*
X0368773Y0265943D01*
X0368763Y0265790D01*
X0368749Y0265638D01*
X0368731Y0265485D01*
X0368709Y0265334D01*
X0368684Y0265183D01*
X0368654Y0265032D01*
X0368620Y0264882D01*
X0368583Y0264734D01*
X0368542Y0264586D01*
X0368497Y0264440D01*
X0368448Y0264294D01*
X0368395Y0264150D01*
X0368339Y0264008D01*
X0368279Y0263867D01*
X0368215Y0263727D01*
X0368148Y0263589D01*
X0368077Y0263453D01*
X0368002Y0263319D01*
X0367925Y0263187D01*
X0367843Y0263057D01*
X0367759Y0262929D01*
X0367671Y0262803D01*
X0367580Y0262680D01*
X0367486Y0262559D01*
X0367388Y0262441D01*
X0367288Y0262325D01*
X0367184Y0262212D01*
X0367078Y0262101D01*
X0366969Y0261993D01*
X0366857Y0261888D01*
X0366743Y0261787D01*
X0366625Y0261688D01*
X0366506Y0261592D01*
X0366384Y0261499D01*
X0366259Y0261410D01*
X0366132Y0261323D01*
X0366003Y0261241D01*
X0365872Y0261161D01*
X0365739Y0261085D01*
X0365604Y0261012D01*
X0365467Y0260943D01*
X0365328Y0260878D01*
X0365188Y0260816D01*
X0365046Y0260758D01*
X0364903Y0260703D01*
X0364758Y0260652D01*
X0364612Y0260605D01*
X0364465Y0260562D01*
X0364317Y0260523D01*
X0364168Y0260487D01*
X0364018Y0260456D01*
X0363867Y0260428D01*
X0363716Y0260404D01*
X0363563Y0260384D01*
X0363411Y0260368D01*
X0363258Y0260356D01*
X0363105Y0260348D01*
X0362952Y0260344D01*
X0362798Y0260344D01*
X0362645Y0260348D01*
X0362492Y0260356D01*
X0362339Y0260368D01*
X0362187Y0260384D01*
X0362034Y0260404D01*
X0361883Y0260428D01*
X0361732Y0260456D01*
X0361582Y0260487D01*
X0361433Y0260523D01*
X0361285Y0260562D01*
X0361138Y0260605D01*
X0360992Y0260652D01*
X0360847Y0260703D01*
X0360704Y0260758D01*
X0360562Y0260816D01*
X0360422Y0260878D01*
X0360283Y0260943D01*
X0360146Y0261012D01*
X0360011Y0261085D01*
X0359878Y0261161D01*
X0359747Y0261241D01*
X0359618Y0261323D01*
X0359491Y0261410D01*
X0359366Y0261499D01*
X0359244Y0261592D01*
X0359125Y0261688D01*
X0359007Y0261787D01*
X0358893Y0261888D01*
X0358781Y0261993D01*
X0358672Y0262101D01*
X0358566Y0262212D01*
X0358462Y0262325D01*
X0358362Y0262441D01*
X0358264Y0262559D01*
X0358170Y0262680D01*
X0358079Y0262803D01*
X0357991Y0262929D01*
X0357907Y0263057D01*
X0357825Y0263187D01*
X0357748Y0263319D01*
X0357673Y0263453D01*
X0357602Y0263589D01*
X0357535Y0263727D01*
X0357471Y0263867D01*
X0357411Y0264008D01*
X0357355Y0264150D01*
X0357302Y0264294D01*
X0357253Y0264440D01*
X0357208Y0264586D01*
X0357167Y0264734D01*
X0357130Y0264882D01*
X0357096Y0265032D01*
X0357066Y0265183D01*
X0357041Y0265334D01*
X0357019Y0265485D01*
X0357001Y0265638D01*
X0356987Y0265790D01*
X0356977Y0265943D01*
X0356971Y0266097D01*
X0356969Y0266250D01*
X0018219Y0266250D02*
X0018221Y0266403D01*
X0018227Y0266557D01*
X0018237Y0266710D01*
X0018251Y0266862D01*
X0018269Y0267015D01*
X0018291Y0267166D01*
X0018316Y0267317D01*
X0018346Y0267468D01*
X0018380Y0267618D01*
X0018417Y0267766D01*
X0018458Y0267914D01*
X0018503Y0268060D01*
X0018552Y0268206D01*
X0018605Y0268350D01*
X0018661Y0268492D01*
X0018721Y0268633D01*
X0018785Y0268773D01*
X0018852Y0268911D01*
X0018923Y0269047D01*
X0018998Y0269181D01*
X0019075Y0269313D01*
X0019157Y0269443D01*
X0019241Y0269571D01*
X0019329Y0269697D01*
X0019420Y0269820D01*
X0019514Y0269941D01*
X0019612Y0270059D01*
X0019712Y0270175D01*
X0019816Y0270288D01*
X0019922Y0270399D01*
X0020031Y0270507D01*
X0020143Y0270612D01*
X0020257Y0270713D01*
X0020375Y0270812D01*
X0020494Y0270908D01*
X0020616Y0271001D01*
X0020741Y0271090D01*
X0020868Y0271177D01*
X0020997Y0271259D01*
X0021128Y0271339D01*
X0021261Y0271415D01*
X0021396Y0271488D01*
X0021533Y0271557D01*
X0021672Y0271622D01*
X0021812Y0271684D01*
X0021954Y0271742D01*
X0022097Y0271797D01*
X0022242Y0271848D01*
X0022388Y0271895D01*
X0022535Y0271938D01*
X0022683Y0271977D01*
X0022832Y0272013D01*
X0022982Y0272044D01*
X0023133Y0272072D01*
X0023284Y0272096D01*
X0023437Y0272116D01*
X0023589Y0272132D01*
X0023742Y0272144D01*
X0023895Y0272152D01*
X0024048Y0272156D01*
X0024202Y0272156D01*
X0024355Y0272152D01*
X0024508Y0272144D01*
X0024661Y0272132D01*
X0024813Y0272116D01*
X0024966Y0272096D01*
X0025117Y0272072D01*
X0025268Y0272044D01*
X0025418Y0272013D01*
X0025567Y0271977D01*
X0025715Y0271938D01*
X0025862Y0271895D01*
X0026008Y0271848D01*
X0026153Y0271797D01*
X0026296Y0271742D01*
X0026438Y0271684D01*
X0026578Y0271622D01*
X0026717Y0271557D01*
X0026854Y0271488D01*
X0026989Y0271415D01*
X0027122Y0271339D01*
X0027253Y0271259D01*
X0027382Y0271177D01*
X0027509Y0271090D01*
X0027634Y0271001D01*
X0027756Y0270908D01*
X0027875Y0270812D01*
X0027993Y0270713D01*
X0028107Y0270612D01*
X0028219Y0270507D01*
X0028328Y0270399D01*
X0028434Y0270288D01*
X0028538Y0270175D01*
X0028638Y0270059D01*
X0028736Y0269941D01*
X0028830Y0269820D01*
X0028921Y0269697D01*
X0029009Y0269571D01*
X0029093Y0269443D01*
X0029175Y0269313D01*
X0029252Y0269181D01*
X0029327Y0269047D01*
X0029398Y0268911D01*
X0029465Y0268773D01*
X0029529Y0268633D01*
X0029589Y0268492D01*
X0029645Y0268350D01*
X0029698Y0268206D01*
X0029747Y0268060D01*
X0029792Y0267914D01*
X0029833Y0267766D01*
X0029870Y0267618D01*
X0029904Y0267468D01*
X0029934Y0267317D01*
X0029959Y0267166D01*
X0029981Y0267015D01*
X0029999Y0266862D01*
X0030013Y0266710D01*
X0030023Y0266557D01*
X0030029Y0266403D01*
X0030031Y0266250D01*
X0030029Y0266097D01*
X0030023Y0265943D01*
X0030013Y0265790D01*
X0029999Y0265638D01*
X0029981Y0265485D01*
X0029959Y0265334D01*
X0029934Y0265183D01*
X0029904Y0265032D01*
X0029870Y0264882D01*
X0029833Y0264734D01*
X0029792Y0264586D01*
X0029747Y0264440D01*
X0029698Y0264294D01*
X0029645Y0264150D01*
X0029589Y0264008D01*
X0029529Y0263867D01*
X0029465Y0263727D01*
X0029398Y0263589D01*
X0029327Y0263453D01*
X0029252Y0263319D01*
X0029175Y0263187D01*
X0029093Y0263057D01*
X0029009Y0262929D01*
X0028921Y0262803D01*
X0028830Y0262680D01*
X0028736Y0262559D01*
X0028638Y0262441D01*
X0028538Y0262325D01*
X0028434Y0262212D01*
X0028328Y0262101D01*
X0028219Y0261993D01*
X0028107Y0261888D01*
X0027993Y0261787D01*
X0027875Y0261688D01*
X0027756Y0261592D01*
X0027634Y0261499D01*
X0027509Y0261410D01*
X0027382Y0261323D01*
X0027253Y0261241D01*
X0027122Y0261161D01*
X0026989Y0261085D01*
X0026854Y0261012D01*
X0026717Y0260943D01*
X0026578Y0260878D01*
X0026438Y0260816D01*
X0026296Y0260758D01*
X0026153Y0260703D01*
X0026008Y0260652D01*
X0025862Y0260605D01*
X0025715Y0260562D01*
X0025567Y0260523D01*
X0025418Y0260487D01*
X0025268Y0260456D01*
X0025117Y0260428D01*
X0024966Y0260404D01*
X0024813Y0260384D01*
X0024661Y0260368D01*
X0024508Y0260356D01*
X0024355Y0260348D01*
X0024202Y0260344D01*
X0024048Y0260344D01*
X0023895Y0260348D01*
X0023742Y0260356D01*
X0023589Y0260368D01*
X0023437Y0260384D01*
X0023284Y0260404D01*
X0023133Y0260428D01*
X0022982Y0260456D01*
X0022832Y0260487D01*
X0022683Y0260523D01*
X0022535Y0260562D01*
X0022388Y0260605D01*
X0022242Y0260652D01*
X0022097Y0260703D01*
X0021954Y0260758D01*
X0021812Y0260816D01*
X0021672Y0260878D01*
X0021533Y0260943D01*
X0021396Y0261012D01*
X0021261Y0261085D01*
X0021128Y0261161D01*
X0020997Y0261241D01*
X0020868Y0261323D01*
X0020741Y0261410D01*
X0020616Y0261499D01*
X0020494Y0261592D01*
X0020375Y0261688D01*
X0020257Y0261787D01*
X0020143Y0261888D01*
X0020031Y0261993D01*
X0019922Y0262101D01*
X0019816Y0262212D01*
X0019712Y0262325D01*
X0019612Y0262441D01*
X0019514Y0262559D01*
X0019420Y0262680D01*
X0019329Y0262803D01*
X0019241Y0262929D01*
X0019157Y0263057D01*
X0019075Y0263187D01*
X0018998Y0263319D01*
X0018923Y0263453D01*
X0018852Y0263589D01*
X0018785Y0263727D01*
X0018721Y0263867D01*
X0018661Y0264008D01*
X0018605Y0264150D01*
X0018552Y0264294D01*
X0018503Y0264440D01*
X0018458Y0264586D01*
X0018417Y0264734D01*
X0018380Y0264882D01*
X0018346Y0265032D01*
X0018316Y0265183D01*
X0018291Y0265334D01*
X0018269Y0265485D01*
X0018251Y0265638D01*
X0018237Y0265790D01*
X0018227Y0265943D01*
X0018221Y0266097D01*
X0018219Y0266250D01*
D11*
X0024125Y0266250D03*
X0362875Y0266250D03*
X0362875Y0020625D03*
X0024125Y0020625D03*
D12*
X0118500Y0015000D03*
X0128500Y0015000D03*
X0138500Y0015000D03*
X0248500Y0015000D03*
X0258500Y0015000D03*
X0268500Y0015000D03*
X0268500Y0255000D03*
X0258500Y0255000D03*
X0248500Y0255000D03*
X0238500Y0255000D03*
X0228500Y0255000D03*
X0218500Y0255000D03*
X0208500Y0255000D03*
X0198500Y0255000D03*
X0188500Y0255000D03*
X0178500Y0255000D03*
X0168500Y0255000D03*
X0158500Y0255000D03*
X0148500Y0255000D03*
X0138500Y0255000D03*
X0128500Y0255000D03*
X0118500Y0255000D03*
D13*
X0059317Y0138125D03*
D14*
X0322309Y0138125D03*
D15*
X0309750Y0019375D03*
X0071000Y0019375D03*
D16*
X0068362Y0267613D03*
X0063638Y0267613D03*
X0063638Y0278637D03*
X0068362Y0278637D03*
X0084888Y0278637D03*
X0089612Y0278637D03*
X0089612Y0267613D03*
X0084888Y0267613D03*
X0106138Y0267613D03*
X0110862Y0267613D03*
X0110862Y0278637D03*
X0106138Y0278637D03*
X0127388Y0278637D03*
X0132112Y0278637D03*
X0132112Y0267613D03*
X0127388Y0267613D03*
X0148638Y0267613D03*
X0153362Y0267613D03*
X0153362Y0278637D03*
X0148638Y0278637D03*
X0169888Y0278637D03*
X0174612Y0278637D03*
X0191138Y0278637D03*
X0195862Y0278637D03*
X0212388Y0278637D03*
X0217112Y0278637D03*
X0233638Y0278637D03*
X0238362Y0278637D03*
X0254888Y0278637D03*
X0259612Y0278637D03*
X0276138Y0278637D03*
X0280862Y0278637D03*
X0297388Y0278637D03*
X0302112Y0278637D03*
X0302112Y0267613D03*
X0297388Y0267613D03*
X0280862Y0267613D03*
X0276138Y0267613D03*
X0259612Y0267613D03*
X0254888Y0267613D03*
X0238362Y0267613D03*
X0233638Y0267613D03*
X0217112Y0267613D03*
X0212388Y0267613D03*
X0195862Y0267613D03*
X0191138Y0267613D03*
X0174612Y0267613D03*
X0169888Y0267613D03*
X0047112Y0267613D03*
X0042388Y0267613D03*
X0042388Y0278637D03*
X0047112Y0278637D03*
X0318638Y0278637D03*
X0323362Y0278637D03*
X0323362Y0267613D03*
X0318638Y0267613D03*
X0339888Y0267613D03*
X0344612Y0267613D03*
X0344612Y0278637D03*
X0339888Y0278637D03*
D17*
X0364238Y0246112D03*
X0364238Y0241388D03*
X0375262Y0241388D03*
X0375262Y0246112D03*
X0375262Y0224862D03*
X0375262Y0220138D03*
X0364238Y0220138D03*
X0364238Y0224862D03*
X0364238Y0203612D03*
X0364238Y0198888D03*
X0375262Y0198888D03*
X0375262Y0203612D03*
X0375262Y0182362D03*
X0375262Y0177638D03*
X0364238Y0177638D03*
X0364238Y0182362D03*
X0364238Y0161112D03*
X0364238Y0156388D03*
X0375262Y0156388D03*
X0375262Y0161112D03*
X0022762Y0161112D03*
X0022762Y0156388D03*
X0011738Y0156388D03*
X0011738Y0161112D03*
X0011738Y0177638D03*
X0011738Y0182362D03*
X0022762Y0182362D03*
X0022762Y0177638D03*
X0022762Y0198888D03*
X0022762Y0203612D03*
X0011738Y0203612D03*
X0011738Y0198888D03*
X0011738Y0220138D03*
X0011738Y0224862D03*
X0022762Y0224862D03*
X0022762Y0220138D03*
X0022762Y0241388D03*
X0022762Y0246112D03*
X0011738Y0246112D03*
X0011738Y0241388D03*
D18*
X0021000Y0056250D03*
D19*
X0031000Y0056250D03*
X0031000Y0066250D03*
X0021000Y0066250D03*
X0021000Y0076250D03*
X0031000Y0076250D03*
X0031000Y0086250D03*
X0021000Y0086250D03*
X0021000Y0096250D03*
X0031000Y0096250D03*
X0031000Y0106250D03*
X0021000Y0106250D03*
X0021000Y0116250D03*
X0031000Y0116250D03*
X0031000Y0126250D03*
X0021000Y0126250D03*
X0021000Y0136250D03*
X0031000Y0136250D03*
X0031000Y0146250D03*
X0021000Y0146250D03*
X0357875Y0116875D03*
X0367875Y0116875D03*
X0367875Y0106875D03*
X0357875Y0106875D03*
X0357875Y0096875D03*
X0367875Y0096875D03*
X0367875Y0086875D03*
X0357875Y0086875D03*
X0357875Y0076875D03*
X0367875Y0076875D03*
X0367875Y0066875D03*
X0357875Y0066875D03*
X0357875Y0056875D03*
X0367875Y0056875D03*
D20*
X0287250Y0070000D03*
X0282250Y0083750D03*
X0277250Y0083750D03*
X0282250Y0088750D03*
X0292875Y0098750D03*
X0304125Y0099375D03*
X0292875Y0108125D03*
X0258500Y0106250D03*
X0246000Y0104375D03*
X0251000Y0089375D03*
X0257250Y0061875D03*
X0189125Y0065625D03*
X0184125Y0065625D03*
X0179125Y0065625D03*
X0174125Y0065625D03*
X0169125Y0065625D03*
X0164125Y0065625D03*
X0159125Y0065625D03*
X0154125Y0065625D03*
X0126625Y0076250D03*
X0121625Y0076250D03*
X0116625Y0076250D03*
X0111625Y0076250D03*
X0106625Y0076250D03*
X0101625Y0076250D03*
X0096625Y0076250D03*
X0091625Y0076250D03*
X0091625Y0104375D03*
X0096625Y0104375D03*
X0101625Y0104375D03*
X0106625Y0104375D03*
X0111625Y0104375D03*
X0116625Y0104375D03*
X0121625Y0104375D03*
X0126625Y0104375D03*
X0133500Y0128750D03*
X0145375Y0128750D03*
X0154125Y0128750D03*
X0161000Y0128750D03*
X0171625Y0128750D03*
X0170375Y0148125D03*
X0174750Y0148125D03*
X0179750Y0148125D03*
X0162250Y0167500D03*
X0158500Y0167500D03*
X0154125Y0167500D03*
X0150375Y0167500D03*
X0146625Y0167500D03*
X0142250Y0167500D03*
X0138500Y0167500D03*
X0134750Y0167500D03*
X0124750Y0154375D03*
X0111625Y0160625D03*
X0107875Y0160625D03*
X0083500Y0161250D03*
X0080375Y0164375D03*
X0076625Y0163750D03*
X0074125Y0160625D03*
X0071000Y0162500D03*
X0062875Y0151875D03*
X0071000Y0146875D03*
X0075375Y0146875D03*
X0022875Y0151875D03*
X0011625Y0151875D03*
X0016000Y0163750D03*
X0022250Y0173750D03*
X0016000Y0178125D03*
X0016000Y0182500D03*
X0011625Y0194375D03*
X0018500Y0198750D03*
X0029750Y0201250D03*
X0017250Y0208125D03*
X0012250Y0208125D03*
X0015375Y0220000D03*
X0015375Y0224375D03*
X0022875Y0231875D03*
X0015375Y0241250D03*
X0016000Y0246250D03*
X0042250Y0263125D03*
X0059125Y0267500D03*
X0063500Y0274375D03*
X0068500Y0274375D03*
X0080375Y0278750D03*
X0084750Y0271875D03*
X0093500Y0273125D03*
X0093500Y0278125D03*
X0106000Y0275000D03*
X0111000Y0275000D03*
X0123500Y0278125D03*
X0132250Y0275000D03*
X0122875Y0267500D03*
X0107250Y0259375D03*
X0093500Y0259375D03*
X0087250Y0260625D03*
X0047250Y0274375D03*
X0042250Y0274375D03*
X0143500Y0254375D03*
X0148500Y0250625D03*
X0166000Y0267500D03*
X0169750Y0274375D03*
X0174125Y0274375D03*
X0162875Y0275000D03*
X0159750Y0273125D03*
X0155375Y0271875D03*
X0187875Y0266875D03*
X0196000Y0273125D03*
X0191000Y0275000D03*
X0204750Y0274375D03*
X0202875Y0266875D03*
X0216625Y0274375D03*
X0222875Y0267500D03*
X0228500Y0278750D03*
X0238500Y0275000D03*
X0254750Y0271250D03*
X0255375Y0275000D03*
X0260375Y0275000D03*
X0275375Y0271250D03*
X0277250Y0275000D03*
X0282875Y0275000D03*
X0293500Y0278125D03*
X0297250Y0271250D03*
X0306625Y0271875D03*
X0306000Y0278125D03*
X0316000Y0275000D03*
X0323500Y0275000D03*
X0328500Y0267500D03*
X0339750Y0275000D03*
X0344125Y0275000D03*
X0296625Y0260625D03*
X0368500Y0248750D03*
X0371625Y0245625D03*
X0374750Y0237500D03*
X0369750Y0228750D03*
X0371000Y0224375D03*
X0371000Y0220000D03*
X0374750Y0208125D03*
X0368500Y0206250D03*
X0357250Y0201250D03*
X0354750Y0196250D03*
X0369750Y0194375D03*
X0375375Y0194375D03*
X0371625Y0184375D03*
X0371000Y0178125D03*
X0370375Y0173750D03*
X0374750Y0169375D03*
X0370375Y0166250D03*
X0344125Y0178750D03*
X0337875Y0178750D03*
X0317875Y0163125D03*
X0317875Y0159375D03*
X0341000Y0130625D03*
X0341000Y0126875D03*
X0360375Y0125625D03*
X0360375Y0129375D03*
X0252250Y0167500D03*
X0248500Y0167500D03*
X0244125Y0167500D03*
X0240375Y0167500D03*
X0236625Y0167500D03*
X0232250Y0167500D03*
X0228500Y0167500D03*
X0224750Y0167500D03*
X0108500Y0181875D03*
X0091000Y0176250D03*
X0124750Y0223750D03*
X0193500Y0246250D03*
X0201000Y0245000D03*
X0201000Y0250625D03*
X0342875Y0206250D03*
X0189125Y0037500D03*
X0184125Y0037500D03*
X0179125Y0037500D03*
X0174125Y0037500D03*
X0169125Y0037500D03*
X0164125Y0037500D03*
X0159125Y0037500D03*
X0154125Y0037500D03*
D21*
X0076000Y0048006D03*
X0236000Y0103750D03*
X0314125Y0175000D03*
X0355375Y0176875D03*
X0144125Y0263125D03*
D22*
X0129750Y0244375D03*
X0127875Y0241875D03*
X0130375Y0239375D03*
X0092875Y0249375D03*
X0091000Y0246875D03*
X0090375Y0251875D03*
X0041000Y0206250D03*
X0043500Y0204375D03*
X0037875Y0204375D03*
X0082250Y0140000D03*
X0085375Y0141250D03*
X0088500Y0140000D03*
X0091625Y0141250D03*
X0094750Y0140000D03*
X0097875Y0141250D03*
X0101000Y0140000D03*
X0104125Y0141250D03*
X0191000Y0140000D03*
X0194125Y0141250D03*
X0197250Y0140000D03*
X0200375Y0141250D03*
X0203500Y0140000D03*
X0206625Y0141250D03*
X0209750Y0140000D03*
X0212875Y0141250D03*
X0342875Y0196875D03*
X0346625Y0197500D03*
X0349750Y0196250D03*
X0301625Y0253750D03*
X0304125Y0256250D03*
X0306625Y0258750D03*
X0199125Y0241875D03*
X0196625Y0239375D03*
X0194125Y0236875D03*
M02*
