G75*
%MOIN*%
%OFA0B0*%
%FSLAX25Y25*%
%IPPOS*%
%LPD*%
%AMOC8*
5,1,8,0,0,1.08239X$1,22.5*
%
%ADD10C,0.00000*%
%ADD11C,0.00500*%
%ADD12C,0.00800*%
%ADD13C,0.00900*%
%ADD14C,0.00400*%
%ADD15R,0.01575X0.05512*%
%ADD16C,0.00600*%
%ADD17C,0.00200*%
%ADD18C,0.00300*%
%ADD19R,0.01000X0.02000*%
%ADD20R,0.00500X0.01500*%
%ADD21R,0.01000X0.01000*%
%ADD22C,0.01600*%
%ADD23C,0.01000*%
%ADD24C,0.01750*%
D10*
X0007875Y0004375D02*
X0007875Y0282466D01*
X0379027Y0282466D01*
X0379027Y0004375D01*
X0007875Y0004375D01*
X0018219Y0020625D02*
X0018221Y0020778D01*
X0018227Y0020932D01*
X0018237Y0021085D01*
X0018251Y0021237D01*
X0018269Y0021390D01*
X0018291Y0021541D01*
X0018316Y0021692D01*
X0018346Y0021843D01*
X0018380Y0021993D01*
X0018417Y0022141D01*
X0018458Y0022289D01*
X0018503Y0022435D01*
X0018552Y0022581D01*
X0018605Y0022725D01*
X0018661Y0022867D01*
X0018721Y0023008D01*
X0018785Y0023148D01*
X0018852Y0023286D01*
X0018923Y0023422D01*
X0018998Y0023556D01*
X0019075Y0023688D01*
X0019157Y0023818D01*
X0019241Y0023946D01*
X0019329Y0024072D01*
X0019420Y0024195D01*
X0019514Y0024316D01*
X0019612Y0024434D01*
X0019712Y0024550D01*
X0019816Y0024663D01*
X0019922Y0024774D01*
X0020031Y0024882D01*
X0020143Y0024987D01*
X0020257Y0025088D01*
X0020375Y0025187D01*
X0020494Y0025283D01*
X0020616Y0025376D01*
X0020741Y0025465D01*
X0020868Y0025552D01*
X0020997Y0025634D01*
X0021128Y0025714D01*
X0021261Y0025790D01*
X0021396Y0025863D01*
X0021533Y0025932D01*
X0021672Y0025997D01*
X0021812Y0026059D01*
X0021954Y0026117D01*
X0022097Y0026172D01*
X0022242Y0026223D01*
X0022388Y0026270D01*
X0022535Y0026313D01*
X0022683Y0026352D01*
X0022832Y0026388D01*
X0022982Y0026419D01*
X0023133Y0026447D01*
X0023284Y0026471D01*
X0023437Y0026491D01*
X0023589Y0026507D01*
X0023742Y0026519D01*
X0023895Y0026527D01*
X0024048Y0026531D01*
X0024202Y0026531D01*
X0024355Y0026527D01*
X0024508Y0026519D01*
X0024661Y0026507D01*
X0024813Y0026491D01*
X0024966Y0026471D01*
X0025117Y0026447D01*
X0025268Y0026419D01*
X0025418Y0026388D01*
X0025567Y0026352D01*
X0025715Y0026313D01*
X0025862Y0026270D01*
X0026008Y0026223D01*
X0026153Y0026172D01*
X0026296Y0026117D01*
X0026438Y0026059D01*
X0026578Y0025997D01*
X0026717Y0025932D01*
X0026854Y0025863D01*
X0026989Y0025790D01*
X0027122Y0025714D01*
X0027253Y0025634D01*
X0027382Y0025552D01*
X0027509Y0025465D01*
X0027634Y0025376D01*
X0027756Y0025283D01*
X0027875Y0025187D01*
X0027993Y0025088D01*
X0028107Y0024987D01*
X0028219Y0024882D01*
X0028328Y0024774D01*
X0028434Y0024663D01*
X0028538Y0024550D01*
X0028638Y0024434D01*
X0028736Y0024316D01*
X0028830Y0024195D01*
X0028921Y0024072D01*
X0029009Y0023946D01*
X0029093Y0023818D01*
X0029175Y0023688D01*
X0029252Y0023556D01*
X0029327Y0023422D01*
X0029398Y0023286D01*
X0029465Y0023148D01*
X0029529Y0023008D01*
X0029589Y0022867D01*
X0029645Y0022725D01*
X0029698Y0022581D01*
X0029747Y0022435D01*
X0029792Y0022289D01*
X0029833Y0022141D01*
X0029870Y0021993D01*
X0029904Y0021843D01*
X0029934Y0021692D01*
X0029959Y0021541D01*
X0029981Y0021390D01*
X0029999Y0021237D01*
X0030013Y0021085D01*
X0030023Y0020932D01*
X0030029Y0020778D01*
X0030031Y0020625D01*
X0030029Y0020472D01*
X0030023Y0020318D01*
X0030013Y0020165D01*
X0029999Y0020013D01*
X0029981Y0019860D01*
X0029959Y0019709D01*
X0029934Y0019558D01*
X0029904Y0019407D01*
X0029870Y0019257D01*
X0029833Y0019109D01*
X0029792Y0018961D01*
X0029747Y0018815D01*
X0029698Y0018669D01*
X0029645Y0018525D01*
X0029589Y0018383D01*
X0029529Y0018242D01*
X0029465Y0018102D01*
X0029398Y0017964D01*
X0029327Y0017828D01*
X0029252Y0017694D01*
X0029175Y0017562D01*
X0029093Y0017432D01*
X0029009Y0017304D01*
X0028921Y0017178D01*
X0028830Y0017055D01*
X0028736Y0016934D01*
X0028638Y0016816D01*
X0028538Y0016700D01*
X0028434Y0016587D01*
X0028328Y0016476D01*
X0028219Y0016368D01*
X0028107Y0016263D01*
X0027993Y0016162D01*
X0027875Y0016063D01*
X0027756Y0015967D01*
X0027634Y0015874D01*
X0027509Y0015785D01*
X0027382Y0015698D01*
X0027253Y0015616D01*
X0027122Y0015536D01*
X0026989Y0015460D01*
X0026854Y0015387D01*
X0026717Y0015318D01*
X0026578Y0015253D01*
X0026438Y0015191D01*
X0026296Y0015133D01*
X0026153Y0015078D01*
X0026008Y0015027D01*
X0025862Y0014980D01*
X0025715Y0014937D01*
X0025567Y0014898D01*
X0025418Y0014862D01*
X0025268Y0014831D01*
X0025117Y0014803D01*
X0024966Y0014779D01*
X0024813Y0014759D01*
X0024661Y0014743D01*
X0024508Y0014731D01*
X0024355Y0014723D01*
X0024202Y0014719D01*
X0024048Y0014719D01*
X0023895Y0014723D01*
X0023742Y0014731D01*
X0023589Y0014743D01*
X0023437Y0014759D01*
X0023284Y0014779D01*
X0023133Y0014803D01*
X0022982Y0014831D01*
X0022832Y0014862D01*
X0022683Y0014898D01*
X0022535Y0014937D01*
X0022388Y0014980D01*
X0022242Y0015027D01*
X0022097Y0015078D01*
X0021954Y0015133D01*
X0021812Y0015191D01*
X0021672Y0015253D01*
X0021533Y0015318D01*
X0021396Y0015387D01*
X0021261Y0015460D01*
X0021128Y0015536D01*
X0020997Y0015616D01*
X0020868Y0015698D01*
X0020741Y0015785D01*
X0020616Y0015874D01*
X0020494Y0015967D01*
X0020375Y0016063D01*
X0020257Y0016162D01*
X0020143Y0016263D01*
X0020031Y0016368D01*
X0019922Y0016476D01*
X0019816Y0016587D01*
X0019712Y0016700D01*
X0019612Y0016816D01*
X0019514Y0016934D01*
X0019420Y0017055D01*
X0019329Y0017178D01*
X0019241Y0017304D01*
X0019157Y0017432D01*
X0019075Y0017562D01*
X0018998Y0017694D01*
X0018923Y0017828D01*
X0018852Y0017964D01*
X0018785Y0018102D01*
X0018721Y0018242D01*
X0018661Y0018383D01*
X0018605Y0018525D01*
X0018552Y0018669D01*
X0018503Y0018815D01*
X0018458Y0018961D01*
X0018417Y0019109D01*
X0018380Y0019257D01*
X0018346Y0019407D01*
X0018316Y0019558D01*
X0018291Y0019709D01*
X0018269Y0019860D01*
X0018251Y0020013D01*
X0018237Y0020165D01*
X0018227Y0020318D01*
X0018221Y0020472D01*
X0018219Y0020625D01*
X0057250Y0005330D02*
X0323392Y0005330D01*
X0323392Y0056511D01*
X0323450Y0056518D02*
X0323450Y0056598D01*
X0323392Y0056511D02*
X0323200Y0056513D01*
X0323009Y0056520D01*
X0322817Y0056532D01*
X0322626Y0056548D01*
X0322436Y0056569D01*
X0322246Y0056595D01*
X0322056Y0056625D01*
X0321868Y0056660D01*
X0321680Y0056699D01*
X0321493Y0056743D01*
X0321308Y0056792D01*
X0321124Y0056845D01*
X0320941Y0056902D01*
X0320759Y0056964D01*
X0320579Y0057031D01*
X0320401Y0057101D01*
X0320224Y0057176D01*
X0320050Y0057256D01*
X0319877Y0057339D01*
X0319707Y0057427D01*
X0319538Y0057518D01*
X0319372Y0057614D01*
X0319209Y0057714D01*
X0319047Y0057818D01*
X0318889Y0057926D01*
X0318733Y0058037D01*
X0318580Y0058153D01*
X0318429Y0058272D01*
X0318282Y0058394D01*
X0318138Y0058521D01*
X0317996Y0058650D01*
X0317858Y0058783D01*
X0317723Y0058920D01*
X0317592Y0059060D01*
X0317464Y0059202D01*
X0317340Y0059348D01*
X0317219Y0059497D01*
X0317102Y0059649D01*
X0316988Y0059803D01*
X0316878Y0059961D01*
X0316773Y0060121D01*
X0316671Y0060283D01*
X0316573Y0060448D01*
X0316479Y0060615D01*
X0316389Y0060785D01*
X0316304Y0060956D01*
X0316222Y0061130D01*
X0316145Y0061305D01*
X0316072Y0061483D01*
X0316004Y0061662D01*
X0315940Y0061843D01*
X0315880Y0062025D01*
X0315825Y0062208D01*
X0315774Y0062393D01*
X0315728Y0062579D01*
X0315686Y0062767D01*
X0315649Y0062955D01*
X0315616Y0063144D01*
X0315589Y0063333D01*
X0315565Y0063524D01*
X0315547Y0063715D01*
X0315533Y0063906D01*
X0315523Y0064097D01*
X0315519Y0064289D01*
X0315519Y0064481D01*
X0315523Y0064673D01*
X0315533Y0064864D01*
X0315547Y0065055D01*
X0315565Y0065246D01*
X0315589Y0065437D01*
X0315616Y0065626D01*
X0315649Y0065815D01*
X0315686Y0066003D01*
X0315728Y0066191D01*
X0315774Y0066377D01*
X0315825Y0066562D01*
X0315880Y0066745D01*
X0315940Y0066927D01*
X0316004Y0067108D01*
X0316072Y0067287D01*
X0316145Y0067465D01*
X0316222Y0067640D01*
X0316304Y0067814D01*
X0316389Y0067985D01*
X0316479Y0068155D01*
X0316573Y0068322D01*
X0316671Y0068487D01*
X0316773Y0068649D01*
X0316878Y0068809D01*
X0316988Y0068967D01*
X0317102Y0069121D01*
X0317219Y0069273D01*
X0317340Y0069422D01*
X0317464Y0069568D01*
X0317592Y0069710D01*
X0317723Y0069850D01*
X0317858Y0069987D01*
X0317996Y0070120D01*
X0318138Y0070249D01*
X0318282Y0070376D01*
X0318429Y0070498D01*
X0318580Y0070617D01*
X0318733Y0070733D01*
X0318889Y0070844D01*
X0319047Y0070952D01*
X0319209Y0071056D01*
X0319372Y0071156D01*
X0319538Y0071252D01*
X0319707Y0071343D01*
X0319877Y0071431D01*
X0320050Y0071514D01*
X0320224Y0071594D01*
X0320401Y0071669D01*
X0320579Y0071739D01*
X0320759Y0071806D01*
X0320941Y0071868D01*
X0321124Y0071925D01*
X0321308Y0071978D01*
X0321493Y0072027D01*
X0321680Y0072071D01*
X0321868Y0072110D01*
X0322056Y0072145D01*
X0322246Y0072175D01*
X0322436Y0072201D01*
X0322626Y0072222D01*
X0322817Y0072238D01*
X0323009Y0072250D01*
X0323200Y0072257D01*
X0323392Y0072259D01*
X0280950Y0076450D02*
X0280948Y0076519D01*
X0280942Y0076587D01*
X0280932Y0076655D01*
X0280919Y0076722D01*
X0280901Y0076788D01*
X0280880Y0076853D01*
X0280855Y0076917D01*
X0280827Y0076979D01*
X0280795Y0077040D01*
X0280760Y0077099D01*
X0280721Y0077155D01*
X0280679Y0077210D01*
X0280634Y0077261D01*
X0280586Y0077311D01*
X0280536Y0077357D01*
X0280483Y0077400D01*
X0280427Y0077441D01*
X0280370Y0077478D01*
X0280310Y0077511D01*
X0280248Y0077542D01*
X0280185Y0077568D01*
X0280121Y0077591D01*
X0280055Y0077611D01*
X0279988Y0077626D01*
X0279921Y0077638D01*
X0279853Y0077646D01*
X0279784Y0077650D01*
X0279716Y0077650D01*
X0279647Y0077646D01*
X0279579Y0077638D01*
X0279512Y0077626D01*
X0279445Y0077611D01*
X0279379Y0077591D01*
X0279315Y0077568D01*
X0279252Y0077542D01*
X0279190Y0077511D01*
X0279130Y0077478D01*
X0279073Y0077441D01*
X0279017Y0077400D01*
X0278964Y0077357D01*
X0278914Y0077311D01*
X0278866Y0077261D01*
X0278821Y0077210D01*
X0278779Y0077155D01*
X0278740Y0077099D01*
X0278705Y0077040D01*
X0278673Y0076979D01*
X0278645Y0076917D01*
X0278620Y0076853D01*
X0278599Y0076788D01*
X0278581Y0076722D01*
X0278568Y0076655D01*
X0278558Y0076587D01*
X0278552Y0076519D01*
X0278550Y0076450D01*
X0356969Y0020625D02*
X0356971Y0020778D01*
X0356977Y0020932D01*
X0356987Y0021085D01*
X0357001Y0021237D01*
X0357019Y0021390D01*
X0357041Y0021541D01*
X0357066Y0021692D01*
X0357096Y0021843D01*
X0357130Y0021993D01*
X0357167Y0022141D01*
X0357208Y0022289D01*
X0357253Y0022435D01*
X0357302Y0022581D01*
X0357355Y0022725D01*
X0357411Y0022867D01*
X0357471Y0023008D01*
X0357535Y0023148D01*
X0357602Y0023286D01*
X0357673Y0023422D01*
X0357748Y0023556D01*
X0357825Y0023688D01*
X0357907Y0023818D01*
X0357991Y0023946D01*
X0358079Y0024072D01*
X0358170Y0024195D01*
X0358264Y0024316D01*
X0358362Y0024434D01*
X0358462Y0024550D01*
X0358566Y0024663D01*
X0358672Y0024774D01*
X0358781Y0024882D01*
X0358893Y0024987D01*
X0359007Y0025088D01*
X0359125Y0025187D01*
X0359244Y0025283D01*
X0359366Y0025376D01*
X0359491Y0025465D01*
X0359618Y0025552D01*
X0359747Y0025634D01*
X0359878Y0025714D01*
X0360011Y0025790D01*
X0360146Y0025863D01*
X0360283Y0025932D01*
X0360422Y0025997D01*
X0360562Y0026059D01*
X0360704Y0026117D01*
X0360847Y0026172D01*
X0360992Y0026223D01*
X0361138Y0026270D01*
X0361285Y0026313D01*
X0361433Y0026352D01*
X0361582Y0026388D01*
X0361732Y0026419D01*
X0361883Y0026447D01*
X0362034Y0026471D01*
X0362187Y0026491D01*
X0362339Y0026507D01*
X0362492Y0026519D01*
X0362645Y0026527D01*
X0362798Y0026531D01*
X0362952Y0026531D01*
X0363105Y0026527D01*
X0363258Y0026519D01*
X0363411Y0026507D01*
X0363563Y0026491D01*
X0363716Y0026471D01*
X0363867Y0026447D01*
X0364018Y0026419D01*
X0364168Y0026388D01*
X0364317Y0026352D01*
X0364465Y0026313D01*
X0364612Y0026270D01*
X0364758Y0026223D01*
X0364903Y0026172D01*
X0365046Y0026117D01*
X0365188Y0026059D01*
X0365328Y0025997D01*
X0365467Y0025932D01*
X0365604Y0025863D01*
X0365739Y0025790D01*
X0365872Y0025714D01*
X0366003Y0025634D01*
X0366132Y0025552D01*
X0366259Y0025465D01*
X0366384Y0025376D01*
X0366506Y0025283D01*
X0366625Y0025187D01*
X0366743Y0025088D01*
X0366857Y0024987D01*
X0366969Y0024882D01*
X0367078Y0024774D01*
X0367184Y0024663D01*
X0367288Y0024550D01*
X0367388Y0024434D01*
X0367486Y0024316D01*
X0367580Y0024195D01*
X0367671Y0024072D01*
X0367759Y0023946D01*
X0367843Y0023818D01*
X0367925Y0023688D01*
X0368002Y0023556D01*
X0368077Y0023422D01*
X0368148Y0023286D01*
X0368215Y0023148D01*
X0368279Y0023008D01*
X0368339Y0022867D01*
X0368395Y0022725D01*
X0368448Y0022581D01*
X0368497Y0022435D01*
X0368542Y0022289D01*
X0368583Y0022141D01*
X0368620Y0021993D01*
X0368654Y0021843D01*
X0368684Y0021692D01*
X0368709Y0021541D01*
X0368731Y0021390D01*
X0368749Y0021237D01*
X0368763Y0021085D01*
X0368773Y0020932D01*
X0368779Y0020778D01*
X0368781Y0020625D01*
X0368779Y0020472D01*
X0368773Y0020318D01*
X0368763Y0020165D01*
X0368749Y0020013D01*
X0368731Y0019860D01*
X0368709Y0019709D01*
X0368684Y0019558D01*
X0368654Y0019407D01*
X0368620Y0019257D01*
X0368583Y0019109D01*
X0368542Y0018961D01*
X0368497Y0018815D01*
X0368448Y0018669D01*
X0368395Y0018525D01*
X0368339Y0018383D01*
X0368279Y0018242D01*
X0368215Y0018102D01*
X0368148Y0017964D01*
X0368077Y0017828D01*
X0368002Y0017694D01*
X0367925Y0017562D01*
X0367843Y0017432D01*
X0367759Y0017304D01*
X0367671Y0017178D01*
X0367580Y0017055D01*
X0367486Y0016934D01*
X0367388Y0016816D01*
X0367288Y0016700D01*
X0367184Y0016587D01*
X0367078Y0016476D01*
X0366969Y0016368D01*
X0366857Y0016263D01*
X0366743Y0016162D01*
X0366625Y0016063D01*
X0366506Y0015967D01*
X0366384Y0015874D01*
X0366259Y0015785D01*
X0366132Y0015698D01*
X0366003Y0015616D01*
X0365872Y0015536D01*
X0365739Y0015460D01*
X0365604Y0015387D01*
X0365467Y0015318D01*
X0365328Y0015253D01*
X0365188Y0015191D01*
X0365046Y0015133D01*
X0364903Y0015078D01*
X0364758Y0015027D01*
X0364612Y0014980D01*
X0364465Y0014937D01*
X0364317Y0014898D01*
X0364168Y0014862D01*
X0364018Y0014831D01*
X0363867Y0014803D01*
X0363716Y0014779D01*
X0363563Y0014759D01*
X0363411Y0014743D01*
X0363258Y0014731D01*
X0363105Y0014723D01*
X0362952Y0014719D01*
X0362798Y0014719D01*
X0362645Y0014723D01*
X0362492Y0014731D01*
X0362339Y0014743D01*
X0362187Y0014759D01*
X0362034Y0014779D01*
X0361883Y0014803D01*
X0361732Y0014831D01*
X0361582Y0014862D01*
X0361433Y0014898D01*
X0361285Y0014937D01*
X0361138Y0014980D01*
X0360992Y0015027D01*
X0360847Y0015078D01*
X0360704Y0015133D01*
X0360562Y0015191D01*
X0360422Y0015253D01*
X0360283Y0015318D01*
X0360146Y0015387D01*
X0360011Y0015460D01*
X0359878Y0015536D01*
X0359747Y0015616D01*
X0359618Y0015698D01*
X0359491Y0015785D01*
X0359366Y0015874D01*
X0359244Y0015967D01*
X0359125Y0016063D01*
X0359007Y0016162D01*
X0358893Y0016263D01*
X0358781Y0016368D01*
X0358672Y0016476D01*
X0358566Y0016587D01*
X0358462Y0016700D01*
X0358362Y0016816D01*
X0358264Y0016934D01*
X0358170Y0017055D01*
X0358079Y0017178D01*
X0357991Y0017304D01*
X0357907Y0017432D01*
X0357825Y0017562D01*
X0357748Y0017694D01*
X0357673Y0017828D01*
X0357602Y0017964D01*
X0357535Y0018102D01*
X0357471Y0018242D01*
X0357411Y0018383D01*
X0357355Y0018525D01*
X0357302Y0018669D01*
X0357253Y0018815D01*
X0357208Y0018961D01*
X0357167Y0019109D01*
X0357130Y0019257D01*
X0357096Y0019407D01*
X0357066Y0019558D01*
X0357041Y0019709D01*
X0357019Y0019860D01*
X0357001Y0020013D01*
X0356987Y0020165D01*
X0356977Y0020318D01*
X0356971Y0020472D01*
X0356969Y0020625D01*
X0320144Y0138125D02*
X0320146Y0138218D01*
X0320152Y0138310D01*
X0320162Y0138402D01*
X0320176Y0138493D01*
X0320193Y0138584D01*
X0320215Y0138674D01*
X0320240Y0138763D01*
X0320269Y0138851D01*
X0320302Y0138937D01*
X0320339Y0139022D01*
X0320379Y0139106D01*
X0320423Y0139187D01*
X0320470Y0139267D01*
X0320520Y0139345D01*
X0320574Y0139420D01*
X0320631Y0139493D01*
X0320691Y0139563D01*
X0320754Y0139631D01*
X0320820Y0139696D01*
X0320888Y0139758D01*
X0320959Y0139818D01*
X0321033Y0139874D01*
X0321109Y0139927D01*
X0321187Y0139976D01*
X0321267Y0140023D01*
X0321349Y0140065D01*
X0321433Y0140105D01*
X0321518Y0140140D01*
X0321605Y0140172D01*
X0321693Y0140201D01*
X0321782Y0140225D01*
X0321872Y0140246D01*
X0321963Y0140262D01*
X0322055Y0140275D01*
X0322147Y0140284D01*
X0322240Y0140289D01*
X0322332Y0140290D01*
X0322425Y0140287D01*
X0322517Y0140280D01*
X0322609Y0140269D01*
X0322700Y0140254D01*
X0322791Y0140236D01*
X0322881Y0140213D01*
X0322969Y0140187D01*
X0323057Y0140157D01*
X0323143Y0140123D01*
X0323227Y0140086D01*
X0323310Y0140044D01*
X0323391Y0140000D01*
X0323471Y0139952D01*
X0323548Y0139901D01*
X0323622Y0139846D01*
X0323695Y0139788D01*
X0323765Y0139728D01*
X0323832Y0139664D01*
X0323896Y0139598D01*
X0323958Y0139528D01*
X0324016Y0139457D01*
X0324071Y0139383D01*
X0324123Y0139306D01*
X0324172Y0139227D01*
X0324218Y0139147D01*
X0324260Y0139064D01*
X0324298Y0138980D01*
X0324333Y0138894D01*
X0324364Y0138807D01*
X0324391Y0138719D01*
X0324414Y0138629D01*
X0324434Y0138539D01*
X0324450Y0138448D01*
X0324462Y0138356D01*
X0324470Y0138264D01*
X0324474Y0138171D01*
X0324474Y0138079D01*
X0324470Y0137986D01*
X0324462Y0137894D01*
X0324450Y0137802D01*
X0324434Y0137711D01*
X0324414Y0137621D01*
X0324391Y0137531D01*
X0324364Y0137443D01*
X0324333Y0137356D01*
X0324298Y0137270D01*
X0324260Y0137186D01*
X0324218Y0137103D01*
X0324172Y0137023D01*
X0324123Y0136944D01*
X0324071Y0136867D01*
X0324016Y0136793D01*
X0323958Y0136722D01*
X0323896Y0136652D01*
X0323832Y0136586D01*
X0323765Y0136522D01*
X0323695Y0136462D01*
X0323622Y0136404D01*
X0323548Y0136349D01*
X0323471Y0136298D01*
X0323392Y0136250D01*
X0323310Y0136206D01*
X0323227Y0136164D01*
X0323143Y0136127D01*
X0323057Y0136093D01*
X0322969Y0136063D01*
X0322881Y0136037D01*
X0322791Y0136014D01*
X0322700Y0135996D01*
X0322609Y0135981D01*
X0322517Y0135970D01*
X0322425Y0135963D01*
X0322332Y0135960D01*
X0322240Y0135961D01*
X0322147Y0135966D01*
X0322055Y0135975D01*
X0321963Y0135988D01*
X0321872Y0136004D01*
X0321782Y0136025D01*
X0321693Y0136049D01*
X0321605Y0136078D01*
X0321518Y0136110D01*
X0321433Y0136145D01*
X0321349Y0136185D01*
X0321267Y0136227D01*
X0321187Y0136274D01*
X0321109Y0136323D01*
X0321033Y0136376D01*
X0320959Y0136432D01*
X0320888Y0136492D01*
X0320820Y0136554D01*
X0320754Y0136619D01*
X0320691Y0136687D01*
X0320631Y0136757D01*
X0320574Y0136830D01*
X0320520Y0136905D01*
X0320470Y0136983D01*
X0320423Y0137063D01*
X0320379Y0137144D01*
X0320339Y0137228D01*
X0320302Y0137313D01*
X0320269Y0137399D01*
X0320240Y0137487D01*
X0320215Y0137576D01*
X0320193Y0137666D01*
X0320176Y0137757D01*
X0320162Y0137848D01*
X0320152Y0137940D01*
X0320146Y0138032D01*
X0320144Y0138125D01*
X0105800Y0175050D02*
X0105731Y0175052D01*
X0105663Y0175058D01*
X0105595Y0175068D01*
X0105528Y0175081D01*
X0105462Y0175099D01*
X0105397Y0175120D01*
X0105333Y0175145D01*
X0105271Y0175173D01*
X0105210Y0175205D01*
X0105151Y0175240D01*
X0105095Y0175279D01*
X0105040Y0175321D01*
X0104989Y0175366D01*
X0104939Y0175414D01*
X0104893Y0175464D01*
X0104850Y0175517D01*
X0104809Y0175573D01*
X0104772Y0175630D01*
X0104739Y0175690D01*
X0104708Y0175752D01*
X0104682Y0175815D01*
X0104659Y0175879D01*
X0104639Y0175945D01*
X0104624Y0176012D01*
X0104612Y0176079D01*
X0104604Y0176147D01*
X0104600Y0176216D01*
X0104600Y0176284D01*
X0104604Y0176353D01*
X0104612Y0176421D01*
X0104624Y0176488D01*
X0104639Y0176555D01*
X0104659Y0176621D01*
X0104682Y0176685D01*
X0104708Y0176748D01*
X0104739Y0176810D01*
X0104772Y0176870D01*
X0104809Y0176927D01*
X0104850Y0176983D01*
X0104893Y0177036D01*
X0104939Y0177086D01*
X0104989Y0177134D01*
X0105040Y0177179D01*
X0105095Y0177221D01*
X0105151Y0177260D01*
X0105210Y0177295D01*
X0105271Y0177327D01*
X0105333Y0177355D01*
X0105397Y0177380D01*
X0105462Y0177401D01*
X0105528Y0177419D01*
X0105595Y0177432D01*
X0105663Y0177442D01*
X0105731Y0177448D01*
X0105800Y0177450D01*
X0058136Y0138125D02*
X0058138Y0138194D01*
X0058144Y0138262D01*
X0058154Y0138330D01*
X0058168Y0138397D01*
X0058186Y0138464D01*
X0058207Y0138529D01*
X0058233Y0138593D01*
X0058262Y0138655D01*
X0058294Y0138715D01*
X0058330Y0138774D01*
X0058370Y0138830D01*
X0058412Y0138884D01*
X0058458Y0138935D01*
X0058507Y0138984D01*
X0058558Y0139030D01*
X0058612Y0139072D01*
X0058668Y0139112D01*
X0058726Y0139148D01*
X0058787Y0139180D01*
X0058849Y0139209D01*
X0058913Y0139235D01*
X0058978Y0139256D01*
X0059045Y0139274D01*
X0059112Y0139288D01*
X0059180Y0139298D01*
X0059248Y0139304D01*
X0059317Y0139306D01*
X0059386Y0139304D01*
X0059454Y0139298D01*
X0059522Y0139288D01*
X0059589Y0139274D01*
X0059656Y0139256D01*
X0059721Y0139235D01*
X0059785Y0139209D01*
X0059847Y0139180D01*
X0059907Y0139148D01*
X0059966Y0139112D01*
X0060022Y0139072D01*
X0060076Y0139030D01*
X0060127Y0138984D01*
X0060176Y0138935D01*
X0060222Y0138884D01*
X0060264Y0138830D01*
X0060304Y0138774D01*
X0060340Y0138715D01*
X0060372Y0138655D01*
X0060401Y0138593D01*
X0060427Y0138529D01*
X0060448Y0138464D01*
X0060466Y0138397D01*
X0060480Y0138330D01*
X0060490Y0138262D01*
X0060496Y0138194D01*
X0060498Y0138125D01*
X0060496Y0138056D01*
X0060490Y0137988D01*
X0060480Y0137920D01*
X0060466Y0137853D01*
X0060448Y0137786D01*
X0060427Y0137721D01*
X0060401Y0137657D01*
X0060372Y0137595D01*
X0060340Y0137534D01*
X0060304Y0137476D01*
X0060264Y0137420D01*
X0060222Y0137366D01*
X0060176Y0137315D01*
X0060127Y0137266D01*
X0060076Y0137220D01*
X0060022Y0137178D01*
X0059966Y0137138D01*
X0059908Y0137102D01*
X0059847Y0137070D01*
X0059785Y0137041D01*
X0059721Y0137015D01*
X0059656Y0136994D01*
X0059589Y0136976D01*
X0059522Y0136962D01*
X0059454Y0136952D01*
X0059386Y0136946D01*
X0059317Y0136944D01*
X0059248Y0136946D01*
X0059180Y0136952D01*
X0059112Y0136962D01*
X0059045Y0136976D01*
X0058978Y0136994D01*
X0058913Y0137015D01*
X0058849Y0137041D01*
X0058787Y0137070D01*
X0058726Y0137102D01*
X0058668Y0137138D01*
X0058612Y0137178D01*
X0058558Y0137220D01*
X0058507Y0137266D01*
X0058458Y0137315D01*
X0058412Y0137366D01*
X0058370Y0137420D01*
X0058330Y0137476D01*
X0058294Y0137534D01*
X0058262Y0137595D01*
X0058233Y0137657D01*
X0058207Y0137721D01*
X0058186Y0137786D01*
X0058168Y0137853D01*
X0058154Y0137920D01*
X0058144Y0137988D01*
X0058138Y0138056D01*
X0058136Y0138125D01*
X0057250Y0072259D02*
X0057442Y0072257D01*
X0057633Y0072250D01*
X0057825Y0072238D01*
X0058016Y0072222D01*
X0058206Y0072201D01*
X0058396Y0072175D01*
X0058586Y0072145D01*
X0058774Y0072110D01*
X0058962Y0072071D01*
X0059149Y0072027D01*
X0059334Y0071978D01*
X0059518Y0071925D01*
X0059701Y0071868D01*
X0059883Y0071806D01*
X0060063Y0071739D01*
X0060241Y0071669D01*
X0060418Y0071594D01*
X0060592Y0071514D01*
X0060765Y0071431D01*
X0060935Y0071343D01*
X0061104Y0071252D01*
X0061270Y0071156D01*
X0061433Y0071056D01*
X0061595Y0070952D01*
X0061753Y0070844D01*
X0061909Y0070733D01*
X0062062Y0070617D01*
X0062213Y0070498D01*
X0062360Y0070376D01*
X0062504Y0070249D01*
X0062646Y0070120D01*
X0062784Y0069987D01*
X0062919Y0069850D01*
X0063050Y0069710D01*
X0063178Y0069568D01*
X0063302Y0069422D01*
X0063423Y0069273D01*
X0063540Y0069121D01*
X0063654Y0068967D01*
X0063764Y0068809D01*
X0063869Y0068649D01*
X0063971Y0068487D01*
X0064069Y0068322D01*
X0064163Y0068155D01*
X0064253Y0067985D01*
X0064338Y0067814D01*
X0064420Y0067640D01*
X0064497Y0067465D01*
X0064570Y0067287D01*
X0064638Y0067108D01*
X0064702Y0066927D01*
X0064762Y0066745D01*
X0064817Y0066562D01*
X0064868Y0066377D01*
X0064914Y0066191D01*
X0064956Y0066003D01*
X0064993Y0065815D01*
X0065026Y0065626D01*
X0065053Y0065437D01*
X0065077Y0065246D01*
X0065095Y0065055D01*
X0065109Y0064864D01*
X0065119Y0064673D01*
X0065123Y0064481D01*
X0065123Y0064289D01*
X0065119Y0064097D01*
X0065109Y0063906D01*
X0065095Y0063715D01*
X0065077Y0063524D01*
X0065053Y0063333D01*
X0065026Y0063144D01*
X0064993Y0062955D01*
X0064956Y0062767D01*
X0064914Y0062579D01*
X0064868Y0062393D01*
X0064817Y0062208D01*
X0064762Y0062025D01*
X0064702Y0061843D01*
X0064638Y0061662D01*
X0064570Y0061483D01*
X0064497Y0061305D01*
X0064420Y0061130D01*
X0064338Y0060956D01*
X0064253Y0060785D01*
X0064163Y0060615D01*
X0064069Y0060448D01*
X0063971Y0060283D01*
X0063869Y0060121D01*
X0063764Y0059961D01*
X0063654Y0059803D01*
X0063540Y0059649D01*
X0063423Y0059497D01*
X0063302Y0059348D01*
X0063178Y0059202D01*
X0063050Y0059060D01*
X0062919Y0058920D01*
X0062784Y0058783D01*
X0062646Y0058650D01*
X0062504Y0058521D01*
X0062360Y0058394D01*
X0062213Y0058272D01*
X0062062Y0058153D01*
X0061909Y0058037D01*
X0061753Y0057926D01*
X0061595Y0057818D01*
X0061433Y0057714D01*
X0061270Y0057614D01*
X0061104Y0057518D01*
X0060935Y0057427D01*
X0060765Y0057339D01*
X0060592Y0057256D01*
X0060418Y0057176D01*
X0060241Y0057101D01*
X0060063Y0057031D01*
X0059883Y0056964D01*
X0059701Y0056902D01*
X0059518Y0056845D01*
X0059334Y0056792D01*
X0059149Y0056743D01*
X0058962Y0056699D01*
X0058774Y0056660D01*
X0058586Y0056625D01*
X0058396Y0056595D01*
X0058206Y0056569D01*
X0058016Y0056548D01*
X0057825Y0056532D01*
X0057633Y0056520D01*
X0057442Y0056513D01*
X0057250Y0056511D01*
X0057250Y0005330D01*
X0018219Y0266250D02*
X0018221Y0266403D01*
X0018227Y0266557D01*
X0018237Y0266710D01*
X0018251Y0266862D01*
X0018269Y0267015D01*
X0018291Y0267166D01*
X0018316Y0267317D01*
X0018346Y0267468D01*
X0018380Y0267618D01*
X0018417Y0267766D01*
X0018458Y0267914D01*
X0018503Y0268060D01*
X0018552Y0268206D01*
X0018605Y0268350D01*
X0018661Y0268492D01*
X0018721Y0268633D01*
X0018785Y0268773D01*
X0018852Y0268911D01*
X0018923Y0269047D01*
X0018998Y0269181D01*
X0019075Y0269313D01*
X0019157Y0269443D01*
X0019241Y0269571D01*
X0019329Y0269697D01*
X0019420Y0269820D01*
X0019514Y0269941D01*
X0019612Y0270059D01*
X0019712Y0270175D01*
X0019816Y0270288D01*
X0019922Y0270399D01*
X0020031Y0270507D01*
X0020143Y0270612D01*
X0020257Y0270713D01*
X0020375Y0270812D01*
X0020494Y0270908D01*
X0020616Y0271001D01*
X0020741Y0271090D01*
X0020868Y0271177D01*
X0020997Y0271259D01*
X0021128Y0271339D01*
X0021261Y0271415D01*
X0021396Y0271488D01*
X0021533Y0271557D01*
X0021672Y0271622D01*
X0021812Y0271684D01*
X0021954Y0271742D01*
X0022097Y0271797D01*
X0022242Y0271848D01*
X0022388Y0271895D01*
X0022535Y0271938D01*
X0022683Y0271977D01*
X0022832Y0272013D01*
X0022982Y0272044D01*
X0023133Y0272072D01*
X0023284Y0272096D01*
X0023437Y0272116D01*
X0023589Y0272132D01*
X0023742Y0272144D01*
X0023895Y0272152D01*
X0024048Y0272156D01*
X0024202Y0272156D01*
X0024355Y0272152D01*
X0024508Y0272144D01*
X0024661Y0272132D01*
X0024813Y0272116D01*
X0024966Y0272096D01*
X0025117Y0272072D01*
X0025268Y0272044D01*
X0025418Y0272013D01*
X0025567Y0271977D01*
X0025715Y0271938D01*
X0025862Y0271895D01*
X0026008Y0271848D01*
X0026153Y0271797D01*
X0026296Y0271742D01*
X0026438Y0271684D01*
X0026578Y0271622D01*
X0026717Y0271557D01*
X0026854Y0271488D01*
X0026989Y0271415D01*
X0027122Y0271339D01*
X0027253Y0271259D01*
X0027382Y0271177D01*
X0027509Y0271090D01*
X0027634Y0271001D01*
X0027756Y0270908D01*
X0027875Y0270812D01*
X0027993Y0270713D01*
X0028107Y0270612D01*
X0028219Y0270507D01*
X0028328Y0270399D01*
X0028434Y0270288D01*
X0028538Y0270175D01*
X0028638Y0270059D01*
X0028736Y0269941D01*
X0028830Y0269820D01*
X0028921Y0269697D01*
X0029009Y0269571D01*
X0029093Y0269443D01*
X0029175Y0269313D01*
X0029252Y0269181D01*
X0029327Y0269047D01*
X0029398Y0268911D01*
X0029465Y0268773D01*
X0029529Y0268633D01*
X0029589Y0268492D01*
X0029645Y0268350D01*
X0029698Y0268206D01*
X0029747Y0268060D01*
X0029792Y0267914D01*
X0029833Y0267766D01*
X0029870Y0267618D01*
X0029904Y0267468D01*
X0029934Y0267317D01*
X0029959Y0267166D01*
X0029981Y0267015D01*
X0029999Y0266862D01*
X0030013Y0266710D01*
X0030023Y0266557D01*
X0030029Y0266403D01*
X0030031Y0266250D01*
X0030029Y0266097D01*
X0030023Y0265943D01*
X0030013Y0265790D01*
X0029999Y0265638D01*
X0029981Y0265485D01*
X0029959Y0265334D01*
X0029934Y0265183D01*
X0029904Y0265032D01*
X0029870Y0264882D01*
X0029833Y0264734D01*
X0029792Y0264586D01*
X0029747Y0264440D01*
X0029698Y0264294D01*
X0029645Y0264150D01*
X0029589Y0264008D01*
X0029529Y0263867D01*
X0029465Y0263727D01*
X0029398Y0263589D01*
X0029327Y0263453D01*
X0029252Y0263319D01*
X0029175Y0263187D01*
X0029093Y0263057D01*
X0029009Y0262929D01*
X0028921Y0262803D01*
X0028830Y0262680D01*
X0028736Y0262559D01*
X0028638Y0262441D01*
X0028538Y0262325D01*
X0028434Y0262212D01*
X0028328Y0262101D01*
X0028219Y0261993D01*
X0028107Y0261888D01*
X0027993Y0261787D01*
X0027875Y0261688D01*
X0027756Y0261592D01*
X0027634Y0261499D01*
X0027509Y0261410D01*
X0027382Y0261323D01*
X0027253Y0261241D01*
X0027122Y0261161D01*
X0026989Y0261085D01*
X0026854Y0261012D01*
X0026717Y0260943D01*
X0026578Y0260878D01*
X0026438Y0260816D01*
X0026296Y0260758D01*
X0026153Y0260703D01*
X0026008Y0260652D01*
X0025862Y0260605D01*
X0025715Y0260562D01*
X0025567Y0260523D01*
X0025418Y0260487D01*
X0025268Y0260456D01*
X0025117Y0260428D01*
X0024966Y0260404D01*
X0024813Y0260384D01*
X0024661Y0260368D01*
X0024508Y0260356D01*
X0024355Y0260348D01*
X0024202Y0260344D01*
X0024048Y0260344D01*
X0023895Y0260348D01*
X0023742Y0260356D01*
X0023589Y0260368D01*
X0023437Y0260384D01*
X0023284Y0260404D01*
X0023133Y0260428D01*
X0022982Y0260456D01*
X0022832Y0260487D01*
X0022683Y0260523D01*
X0022535Y0260562D01*
X0022388Y0260605D01*
X0022242Y0260652D01*
X0022097Y0260703D01*
X0021954Y0260758D01*
X0021812Y0260816D01*
X0021672Y0260878D01*
X0021533Y0260943D01*
X0021396Y0261012D01*
X0021261Y0261085D01*
X0021128Y0261161D01*
X0020997Y0261241D01*
X0020868Y0261323D01*
X0020741Y0261410D01*
X0020616Y0261499D01*
X0020494Y0261592D01*
X0020375Y0261688D01*
X0020257Y0261787D01*
X0020143Y0261888D01*
X0020031Y0261993D01*
X0019922Y0262101D01*
X0019816Y0262212D01*
X0019712Y0262325D01*
X0019612Y0262441D01*
X0019514Y0262559D01*
X0019420Y0262680D01*
X0019329Y0262803D01*
X0019241Y0262929D01*
X0019157Y0263057D01*
X0019075Y0263187D01*
X0018998Y0263319D01*
X0018923Y0263453D01*
X0018852Y0263589D01*
X0018785Y0263727D01*
X0018721Y0263867D01*
X0018661Y0264008D01*
X0018605Y0264150D01*
X0018552Y0264294D01*
X0018503Y0264440D01*
X0018458Y0264586D01*
X0018417Y0264734D01*
X0018380Y0264882D01*
X0018346Y0265032D01*
X0018316Y0265183D01*
X0018291Y0265334D01*
X0018269Y0265485D01*
X0018251Y0265638D01*
X0018237Y0265790D01*
X0018227Y0265943D01*
X0018221Y0266097D01*
X0018219Y0266250D01*
X0356969Y0266250D02*
X0356971Y0266403D01*
X0356977Y0266557D01*
X0356987Y0266710D01*
X0357001Y0266862D01*
X0357019Y0267015D01*
X0357041Y0267166D01*
X0357066Y0267317D01*
X0357096Y0267468D01*
X0357130Y0267618D01*
X0357167Y0267766D01*
X0357208Y0267914D01*
X0357253Y0268060D01*
X0357302Y0268206D01*
X0357355Y0268350D01*
X0357411Y0268492D01*
X0357471Y0268633D01*
X0357535Y0268773D01*
X0357602Y0268911D01*
X0357673Y0269047D01*
X0357748Y0269181D01*
X0357825Y0269313D01*
X0357907Y0269443D01*
X0357991Y0269571D01*
X0358079Y0269697D01*
X0358170Y0269820D01*
X0358264Y0269941D01*
X0358362Y0270059D01*
X0358462Y0270175D01*
X0358566Y0270288D01*
X0358672Y0270399D01*
X0358781Y0270507D01*
X0358893Y0270612D01*
X0359007Y0270713D01*
X0359125Y0270812D01*
X0359244Y0270908D01*
X0359366Y0271001D01*
X0359491Y0271090D01*
X0359618Y0271177D01*
X0359747Y0271259D01*
X0359878Y0271339D01*
X0360011Y0271415D01*
X0360146Y0271488D01*
X0360283Y0271557D01*
X0360422Y0271622D01*
X0360562Y0271684D01*
X0360704Y0271742D01*
X0360847Y0271797D01*
X0360992Y0271848D01*
X0361138Y0271895D01*
X0361285Y0271938D01*
X0361433Y0271977D01*
X0361582Y0272013D01*
X0361732Y0272044D01*
X0361883Y0272072D01*
X0362034Y0272096D01*
X0362187Y0272116D01*
X0362339Y0272132D01*
X0362492Y0272144D01*
X0362645Y0272152D01*
X0362798Y0272156D01*
X0362952Y0272156D01*
X0363105Y0272152D01*
X0363258Y0272144D01*
X0363411Y0272132D01*
X0363563Y0272116D01*
X0363716Y0272096D01*
X0363867Y0272072D01*
X0364018Y0272044D01*
X0364168Y0272013D01*
X0364317Y0271977D01*
X0364465Y0271938D01*
X0364612Y0271895D01*
X0364758Y0271848D01*
X0364903Y0271797D01*
X0365046Y0271742D01*
X0365188Y0271684D01*
X0365328Y0271622D01*
X0365467Y0271557D01*
X0365604Y0271488D01*
X0365739Y0271415D01*
X0365872Y0271339D01*
X0366003Y0271259D01*
X0366132Y0271177D01*
X0366259Y0271090D01*
X0366384Y0271001D01*
X0366506Y0270908D01*
X0366625Y0270812D01*
X0366743Y0270713D01*
X0366857Y0270612D01*
X0366969Y0270507D01*
X0367078Y0270399D01*
X0367184Y0270288D01*
X0367288Y0270175D01*
X0367388Y0270059D01*
X0367486Y0269941D01*
X0367580Y0269820D01*
X0367671Y0269697D01*
X0367759Y0269571D01*
X0367843Y0269443D01*
X0367925Y0269313D01*
X0368002Y0269181D01*
X0368077Y0269047D01*
X0368148Y0268911D01*
X0368215Y0268773D01*
X0368279Y0268633D01*
X0368339Y0268492D01*
X0368395Y0268350D01*
X0368448Y0268206D01*
X0368497Y0268060D01*
X0368542Y0267914D01*
X0368583Y0267766D01*
X0368620Y0267618D01*
X0368654Y0267468D01*
X0368684Y0267317D01*
X0368709Y0267166D01*
X0368731Y0267015D01*
X0368749Y0266862D01*
X0368763Y0266710D01*
X0368773Y0266557D01*
X0368779Y0266403D01*
X0368781Y0266250D01*
X0368779Y0266097D01*
X0368773Y0265943D01*
X0368763Y0265790D01*
X0368749Y0265638D01*
X0368731Y0265485D01*
X0368709Y0265334D01*
X0368684Y0265183D01*
X0368654Y0265032D01*
X0368620Y0264882D01*
X0368583Y0264734D01*
X0368542Y0264586D01*
X0368497Y0264440D01*
X0368448Y0264294D01*
X0368395Y0264150D01*
X0368339Y0264008D01*
X0368279Y0263867D01*
X0368215Y0263727D01*
X0368148Y0263589D01*
X0368077Y0263453D01*
X0368002Y0263319D01*
X0367925Y0263187D01*
X0367843Y0263057D01*
X0367759Y0262929D01*
X0367671Y0262803D01*
X0367580Y0262680D01*
X0367486Y0262559D01*
X0367388Y0262441D01*
X0367288Y0262325D01*
X0367184Y0262212D01*
X0367078Y0262101D01*
X0366969Y0261993D01*
X0366857Y0261888D01*
X0366743Y0261787D01*
X0366625Y0261688D01*
X0366506Y0261592D01*
X0366384Y0261499D01*
X0366259Y0261410D01*
X0366132Y0261323D01*
X0366003Y0261241D01*
X0365872Y0261161D01*
X0365739Y0261085D01*
X0365604Y0261012D01*
X0365467Y0260943D01*
X0365328Y0260878D01*
X0365188Y0260816D01*
X0365046Y0260758D01*
X0364903Y0260703D01*
X0364758Y0260652D01*
X0364612Y0260605D01*
X0364465Y0260562D01*
X0364317Y0260523D01*
X0364168Y0260487D01*
X0364018Y0260456D01*
X0363867Y0260428D01*
X0363716Y0260404D01*
X0363563Y0260384D01*
X0363411Y0260368D01*
X0363258Y0260356D01*
X0363105Y0260348D01*
X0362952Y0260344D01*
X0362798Y0260344D01*
X0362645Y0260348D01*
X0362492Y0260356D01*
X0362339Y0260368D01*
X0362187Y0260384D01*
X0362034Y0260404D01*
X0361883Y0260428D01*
X0361732Y0260456D01*
X0361582Y0260487D01*
X0361433Y0260523D01*
X0361285Y0260562D01*
X0361138Y0260605D01*
X0360992Y0260652D01*
X0360847Y0260703D01*
X0360704Y0260758D01*
X0360562Y0260816D01*
X0360422Y0260878D01*
X0360283Y0260943D01*
X0360146Y0261012D01*
X0360011Y0261085D01*
X0359878Y0261161D01*
X0359747Y0261241D01*
X0359618Y0261323D01*
X0359491Y0261410D01*
X0359366Y0261499D01*
X0359244Y0261592D01*
X0359125Y0261688D01*
X0359007Y0261787D01*
X0358893Y0261888D01*
X0358781Y0261993D01*
X0358672Y0262101D01*
X0358566Y0262212D01*
X0358462Y0262325D01*
X0358362Y0262441D01*
X0358264Y0262559D01*
X0358170Y0262680D01*
X0358079Y0262803D01*
X0357991Y0262929D01*
X0357907Y0263057D01*
X0357825Y0263187D01*
X0357748Y0263319D01*
X0357673Y0263453D01*
X0357602Y0263589D01*
X0357535Y0263727D01*
X0357471Y0263867D01*
X0357411Y0264008D01*
X0357355Y0264150D01*
X0357302Y0264294D01*
X0357253Y0264440D01*
X0357208Y0264586D01*
X0357167Y0264734D01*
X0357130Y0264882D01*
X0357096Y0265032D01*
X0357066Y0265183D01*
X0357041Y0265334D01*
X0357019Y0265485D01*
X0357001Y0265638D01*
X0356987Y0265790D01*
X0356977Y0265943D01*
X0356971Y0266097D01*
X0356969Y0266250D01*
D11*
X0319236Y0260114D02*
X0318485Y0258613D01*
X0316984Y0257112D01*
X0316984Y0259364D01*
X0316233Y0260114D01*
X0315482Y0260114D01*
X0314732Y0259364D01*
X0314732Y0257862D01*
X0315482Y0257112D01*
X0316984Y0257112D01*
X0317734Y0255510D02*
X0316984Y0254760D01*
X0316233Y0255510D01*
X0315482Y0255510D01*
X0314732Y0254760D01*
X0314732Y0253258D01*
X0315482Y0252508D01*
X0315482Y0250906D02*
X0316233Y0250906D01*
X0316984Y0250156D01*
X0316984Y0248655D01*
X0317734Y0247904D01*
X0318485Y0247904D01*
X0319236Y0248655D01*
X0319236Y0250156D01*
X0318485Y0250906D01*
X0318485Y0252508D02*
X0319236Y0253258D01*
X0319236Y0254760D01*
X0318485Y0255510D01*
X0317734Y0255510D01*
X0316984Y0254760D02*
X0316984Y0254009D01*
X0315482Y0250906D02*
X0314732Y0250156D01*
X0314732Y0248655D01*
X0315482Y0247904D01*
X0315482Y0246303D02*
X0319236Y0246303D01*
X0319236Y0243300D02*
X0315482Y0243300D01*
X0314732Y0244051D01*
X0314732Y0245552D01*
X0315482Y0246303D01*
X0313981Y0249405D02*
X0319986Y0249405D01*
X0324125Y0247500D02*
X0324125Y0218750D01*
X0328500Y0218750D01*
X0328500Y0216250D01*
X0330375Y0214375D01*
X0330375Y0215625D01*
X0330375Y0214375D02*
X0329125Y0214375D01*
X0328500Y0218750D02*
X0344125Y0218750D01*
X0344125Y0227500D01*
X0347875Y0231250D01*
X0347875Y0236875D01*
X0347250Y0237500D01*
X0333500Y0237500D01*
X0332250Y0238750D01*
X0332250Y0247500D01*
X0324125Y0247500D01*
X0336651Y0235522D02*
X0336651Y0234771D01*
X0337402Y0234020D01*
X0338903Y0234020D01*
X0339654Y0234771D01*
X0339654Y0235522D01*
X0338903Y0236272D01*
X0337402Y0236272D01*
X0336651Y0235522D01*
X0337402Y0234020D02*
X0336651Y0233270D01*
X0336651Y0232519D01*
X0337402Y0231768D01*
X0338903Y0231768D01*
X0339654Y0232519D01*
X0339654Y0233270D01*
X0338903Y0234020D01*
X0341255Y0233270D02*
X0342006Y0234020D01*
X0343507Y0234020D01*
X0344258Y0234771D01*
X0344258Y0235522D01*
X0343507Y0236272D01*
X0342006Y0236272D01*
X0341255Y0235522D01*
X0342757Y0237023D02*
X0342757Y0231018D01*
X0343507Y0231768D02*
X0342006Y0231768D01*
X0341255Y0232519D01*
X0341255Y0233270D01*
X0343507Y0231768D02*
X0344258Y0232519D01*
X0345859Y0232519D02*
X0345859Y0236272D01*
X0348862Y0236272D02*
X0348862Y0232519D01*
X0348111Y0231768D01*
X0346610Y0231768D01*
X0345859Y0232519D01*
X0322875Y0218125D02*
X0271625Y0218125D01*
X0271625Y0217625D01*
X0322875Y0217625D01*
X0322875Y0218125D01*
X0322875Y0217625D02*
X0322875Y0217125D01*
X0271625Y0217125D01*
X0271625Y0216625D01*
X0322875Y0216625D01*
X0322875Y0217125D01*
X0322875Y0216625D02*
X0322875Y0216125D01*
X0271625Y0216125D01*
X0271625Y0215625D01*
X0322875Y0215625D01*
X0322875Y0216125D01*
X0322875Y0215625D02*
X0322875Y0215125D01*
X0271625Y0215125D01*
X0271625Y0214625D01*
X0275504Y0214625D01*
X0275634Y0214755D02*
X0276297Y0214755D01*
X0276427Y0214625D01*
X0279387Y0214625D01*
X0279420Y0214675D02*
X0279508Y0214692D01*
X0279571Y0214755D01*
X0279823Y0214755D01*
X0280070Y0214805D01*
X0280144Y0214755D01*
X0280233Y0214755D01*
X0280412Y0214577D01*
X0280621Y0214437D01*
X0280639Y0214349D01*
X0280702Y0214286D01*
X0280702Y0214125D01*
X0283418Y0214125D01*
X0283918Y0214625D01*
X0280364Y0214625D01*
X0280702Y0214125D02*
X0280702Y0214034D01*
X0280751Y0213787D01*
X0280702Y0213713D01*
X0280702Y0213625D01*
X0282918Y0213625D01*
X0283418Y0214125D01*
X0283918Y0214625D02*
X0284048Y0214755D01*
X0284710Y0214755D01*
X0285044Y0214421D01*
X0285179Y0214286D01*
X0287147Y0212318D01*
X0287147Y0212125D01*
X0291993Y0212125D01*
X0291993Y0212625D01*
X0289642Y0212625D01*
X0289188Y0212171D02*
X0290172Y0213155D01*
X0291477Y0213155D01*
X0291993Y0212640D01*
X0291993Y0212625D01*
X0291993Y0212125D02*
X0291993Y0211625D01*
X0287147Y0211625D01*
X0287147Y0211125D01*
X0291993Y0211125D01*
X0291993Y0211625D01*
X0291993Y0211125D02*
X0291993Y0210625D01*
X0287147Y0210625D01*
X0287147Y0210125D01*
X0291993Y0210125D01*
X0291993Y0210625D01*
X0291993Y0210125D02*
X0291993Y0209625D01*
X0289397Y0209625D01*
X0289897Y0209125D01*
X0291753Y0209125D01*
X0291993Y0209366D01*
X0291993Y0209625D01*
X0291753Y0209125D02*
X0291477Y0208850D01*
X0290172Y0208850D01*
X0289897Y0209125D01*
X0289397Y0209625D02*
X0289188Y0209834D01*
X0288525Y0209834D01*
X0288316Y0209625D01*
X0287147Y0209625D01*
X0287147Y0209125D01*
X0288056Y0209125D01*
X0288056Y0209366D01*
X0288316Y0209625D01*
X0288056Y0209125D02*
X0288056Y0208703D01*
X0289509Y0207250D01*
X0292140Y0207250D01*
X0292515Y0207625D01*
X0301041Y0207625D01*
X0300947Y0207719D01*
X0300947Y0208125D01*
X0293015Y0208125D01*
X0292515Y0207625D01*
X0293015Y0208125D02*
X0293515Y0208625D01*
X0296548Y0208625D01*
X0296470Y0208703D02*
X0296470Y0209125D01*
X0293593Y0209125D01*
X0293593Y0208703D01*
X0293515Y0208625D01*
X0293593Y0209125D02*
X0293593Y0209625D01*
X0296470Y0209625D01*
X0296470Y0210125D01*
X0293593Y0210125D01*
X0293593Y0209625D01*
X0293593Y0210125D02*
X0293593Y0210625D01*
X0294548Y0210625D01*
X0294502Y0210671D01*
X0294502Y0211125D01*
X0293593Y0211125D01*
X0293593Y0210625D01*
X0293593Y0211125D02*
X0293593Y0211625D01*
X0294793Y0211625D01*
X0294970Y0211803D02*
X0294502Y0211334D01*
X0294502Y0211125D01*
X0294548Y0210625D02*
X0294970Y0210203D01*
X0296470Y0210203D01*
X0296470Y0210125D01*
X0296470Y0209625D02*
X0296470Y0209125D01*
X0296470Y0208703D02*
X0296939Y0208234D01*
X0297601Y0208234D01*
X0297992Y0208625D01*
X0301191Y0208625D01*
X0301691Y0209125D01*
X0298070Y0209125D01*
X0298070Y0208703D01*
X0297992Y0208625D01*
X0298070Y0209125D02*
X0298070Y0209625D01*
X0301994Y0209625D01*
X0301494Y0210125D01*
X0298070Y0210125D01*
X0298070Y0209625D01*
X0298070Y0210125D02*
X0298070Y0210203D01*
X0299570Y0210203D01*
X0299992Y0210625D01*
X0300994Y0210625D01*
X0300947Y0210671D01*
X0300947Y0211125D01*
X0300038Y0211125D01*
X0300038Y0210671D01*
X0299992Y0210625D01*
X0300038Y0211125D02*
X0300038Y0211334D01*
X0299747Y0211625D01*
X0300947Y0211625D01*
X0300947Y0212125D01*
X0298070Y0212125D01*
X0298070Y0211803D01*
X0299570Y0211803D01*
X0299747Y0211625D01*
X0300947Y0211625D02*
X0300947Y0211125D01*
X0300994Y0210625D02*
X0301494Y0210125D01*
X0301994Y0209625D02*
X0302092Y0209526D01*
X0301691Y0209125D01*
X0301191Y0208625D02*
X0300947Y0208381D01*
X0300947Y0208125D01*
X0301041Y0207625D02*
X0301416Y0207250D01*
X0302079Y0207250D01*
X0304047Y0209218D01*
X0304884Y0209218D01*
X0304884Y0209125D01*
X0303954Y0209125D01*
X0303454Y0208625D02*
X0304884Y0208625D01*
X0304884Y0209125D01*
X0304884Y0208625D02*
X0304884Y0208125D01*
X0302954Y0208125D01*
X0302454Y0207625D02*
X0304978Y0207625D01*
X0304884Y0207719D01*
X0304884Y0208125D01*
X0304978Y0207625D02*
X0305353Y0207250D01*
X0306016Y0207250D01*
X0306390Y0207625D01*
X0307486Y0207625D01*
X0307393Y0207719D02*
X0307393Y0208125D01*
X0306484Y0208125D01*
X0306484Y0207719D01*
X0306390Y0207625D01*
X0306484Y0208125D02*
X0306484Y0208625D01*
X0307393Y0208625D01*
X0307393Y0209125D01*
X0306484Y0209125D01*
X0306484Y0208625D01*
X0306484Y0209125D02*
X0306484Y0209625D01*
X0307393Y0209625D01*
X0307393Y0210125D01*
X0306484Y0210125D01*
X0306484Y0209625D01*
X0306484Y0210125D02*
X0306484Y0210625D01*
X0307393Y0210625D01*
X0307393Y0211125D01*
X0306484Y0211125D01*
X0306484Y0210625D01*
X0306484Y0211125D02*
X0306484Y0211625D01*
X0307393Y0211625D01*
X0307393Y0212125D01*
X0306484Y0212125D01*
X0306484Y0211625D01*
X0306484Y0212125D02*
X0306484Y0212625D01*
X0307393Y0212625D01*
X0307393Y0213125D01*
X0306484Y0213125D01*
X0306484Y0212625D01*
X0306484Y0213125D02*
X0306484Y0213625D01*
X0307393Y0213625D01*
X0307393Y0214125D01*
X0306484Y0214125D01*
X0306484Y0213625D01*
X0306484Y0214125D02*
X0306484Y0214286D01*
X0306145Y0214625D01*
X0307731Y0214625D01*
X0307862Y0214755D02*
X0308524Y0214755D01*
X0308654Y0214625D01*
X0311668Y0214625D01*
X0311798Y0214755D02*
X0312461Y0214755D01*
X0312591Y0214625D01*
X0315161Y0214625D01*
X0315291Y0214755D01*
X0318906Y0214755D01*
X0319036Y0214625D01*
X0322875Y0214625D01*
X0322875Y0215125D01*
X0322875Y0214625D02*
X0322875Y0214125D01*
X0319375Y0214125D01*
X0319375Y0213625D01*
X0322875Y0213625D01*
X0322875Y0214125D01*
X0322875Y0213625D02*
X0322875Y0213125D01*
X0319375Y0213125D01*
X0319375Y0212625D01*
X0322875Y0212625D01*
X0322875Y0213125D01*
X0322875Y0212625D02*
X0322875Y0212125D01*
X0319375Y0212125D01*
X0319375Y0211625D01*
X0322875Y0211625D01*
X0322875Y0212125D01*
X0322875Y0211625D02*
X0322875Y0211125D01*
X0319375Y0211125D01*
X0319375Y0210625D01*
X0322875Y0210625D01*
X0322875Y0211125D01*
X0322875Y0210625D02*
X0322875Y0210125D01*
X0319375Y0210125D01*
X0319375Y0209625D01*
X0322875Y0209625D01*
X0322875Y0210125D01*
X0322875Y0209625D02*
X0322875Y0209125D01*
X0319375Y0209125D01*
X0319375Y0208625D01*
X0322875Y0208625D01*
X0322875Y0209125D01*
X0322875Y0208625D02*
X0322875Y0208125D01*
X0319375Y0208125D01*
X0319375Y0207719D01*
X0319281Y0207625D01*
X0322875Y0207625D01*
X0322875Y0208125D01*
X0322875Y0207625D02*
X0322875Y0207125D01*
X0271625Y0207125D01*
X0271625Y0206625D01*
X0322875Y0206625D01*
X0322875Y0207125D01*
X0322875Y0206625D02*
X0322875Y0206125D01*
X0271625Y0206125D01*
X0271625Y0205625D01*
X0322875Y0205625D01*
X0322875Y0206125D01*
X0322875Y0205625D02*
X0322875Y0205125D01*
X0271625Y0205125D01*
X0271625Y0204625D01*
X0322875Y0204625D01*
X0322875Y0205125D01*
X0322875Y0204625D02*
X0322875Y0204125D01*
X0271625Y0204125D01*
X0271625Y0203750D01*
X0322875Y0203750D01*
X0322875Y0204125D01*
X0319281Y0207625D02*
X0318906Y0207250D01*
X0318244Y0207250D01*
X0317869Y0207625D01*
X0312836Y0207625D01*
X0312929Y0207719D02*
X0312461Y0207250D01*
X0311798Y0207250D01*
X0310161Y0208887D01*
X0308993Y0207719D01*
X0308899Y0207625D01*
X0311423Y0207625D01*
X0310923Y0208125D02*
X0309399Y0208125D01*
X0308899Y0207625D02*
X0308524Y0207250D01*
X0307862Y0207250D01*
X0307393Y0207719D01*
X0307393Y0208125D02*
X0307393Y0208625D01*
X0307393Y0209125D02*
X0307393Y0209625D01*
X0307393Y0210125D02*
X0307393Y0210625D01*
X0307393Y0211125D02*
X0307393Y0211625D01*
X0307393Y0212125D02*
X0307393Y0212625D01*
X0307393Y0213125D02*
X0307393Y0213625D01*
X0307393Y0214125D02*
X0307393Y0214286D01*
X0307862Y0214755D01*
X0308654Y0214625D02*
X0308993Y0214286D01*
X0308993Y0214125D01*
X0311329Y0214125D01*
X0311329Y0214286D01*
X0311798Y0214755D01*
X0311329Y0214125D02*
X0311329Y0213625D01*
X0308993Y0213625D01*
X0308993Y0213125D01*
X0311329Y0213125D01*
X0311329Y0213625D01*
X0311329Y0213125D02*
X0311329Y0212625D01*
X0308993Y0212625D01*
X0308993Y0212125D01*
X0311329Y0212125D01*
X0311329Y0212625D01*
X0311329Y0212125D02*
X0311329Y0211625D01*
X0308993Y0211625D01*
X0308993Y0211125D01*
X0311329Y0211125D01*
X0311329Y0211625D01*
X0311329Y0211125D02*
X0311329Y0210625D01*
X0310686Y0210625D01*
X0310961Y0210350D01*
X0311329Y0209981D01*
X0311329Y0210125D01*
X0311186Y0210125D01*
X0311329Y0210125D02*
X0311329Y0210625D01*
X0310686Y0210625D02*
X0310493Y0210818D01*
X0309830Y0210818D01*
X0309636Y0210625D01*
X0308993Y0210625D01*
X0308993Y0210125D01*
X0309136Y0210125D01*
X0309636Y0210625D01*
X0308993Y0210625D02*
X0308993Y0211125D01*
X0308993Y0211625D02*
X0308993Y0212125D01*
X0308993Y0212625D02*
X0308993Y0213125D01*
X0308993Y0213625D02*
X0308993Y0214125D01*
X0306145Y0214625D02*
X0306016Y0214755D01*
X0302400Y0214755D01*
X0300958Y0213313D01*
X0300947Y0213302D01*
X0300947Y0213125D01*
X0298070Y0213125D01*
X0298070Y0212625D01*
X0300947Y0212625D01*
X0300947Y0213125D01*
X0300947Y0212625D02*
X0300947Y0212125D01*
X0301270Y0213625D02*
X0297747Y0213625D01*
X0297601Y0213771D02*
X0298070Y0213302D01*
X0298070Y0213125D01*
X0298070Y0212625D02*
X0298070Y0212125D01*
X0296470Y0212125D02*
X0293593Y0212125D01*
X0293593Y0211625D01*
X0293593Y0212125D02*
X0293593Y0212625D01*
X0296470Y0212625D01*
X0296470Y0213125D01*
X0293593Y0213125D01*
X0293593Y0212625D01*
X0293593Y0213125D02*
X0293593Y0213302D01*
X0293270Y0213625D01*
X0296793Y0213625D01*
X0296939Y0213771D01*
X0297601Y0213771D01*
X0296793Y0213625D02*
X0296470Y0213302D01*
X0296470Y0213125D01*
X0296470Y0212625D02*
X0296470Y0212125D01*
X0296470Y0211803D01*
X0294970Y0211803D01*
X0293270Y0213625D02*
X0292770Y0214125D01*
X0301770Y0214125D01*
X0302270Y0214625D02*
X0292270Y0214625D01*
X0292770Y0214125D01*
X0292270Y0214625D02*
X0292140Y0214755D01*
X0289509Y0214755D01*
X0288056Y0213302D01*
X0288056Y0213125D01*
X0286341Y0213125D01*
X0286841Y0212625D02*
X0288071Y0212625D01*
X0288056Y0212640D02*
X0288056Y0213125D01*
X0288056Y0212640D02*
X0288525Y0212171D01*
X0289188Y0212171D01*
X0290142Y0213125D02*
X0291508Y0213125D01*
X0289379Y0214625D02*
X0284841Y0214625D01*
X0285341Y0214125D02*
X0288879Y0214125D01*
X0288379Y0213625D02*
X0285841Y0213625D01*
X0284578Y0212625D02*
X0284181Y0212625D01*
X0283681Y0212125D01*
X0285078Y0212125D01*
X0285400Y0211803D02*
X0284379Y0212824D01*
X0284181Y0212625D01*
X0283681Y0212125D02*
X0283358Y0211803D01*
X0285400Y0211803D01*
X0285547Y0210203D02*
X0283211Y0210203D01*
X0283211Y0210125D01*
X0285547Y0210125D01*
X0285547Y0210203D01*
X0285547Y0210125D02*
X0285547Y0209625D01*
X0283211Y0209625D01*
X0283211Y0209125D01*
X0285547Y0209125D01*
X0285547Y0209625D01*
X0285547Y0209125D02*
X0285547Y0208625D01*
X0283211Y0208625D01*
X0283211Y0208125D01*
X0285547Y0208125D01*
X0285547Y0208625D01*
X0285547Y0208125D02*
X0285547Y0207719D01*
X0286016Y0207250D01*
X0286679Y0207250D01*
X0287054Y0207625D01*
X0289134Y0207625D01*
X0288634Y0208125D02*
X0287147Y0208125D01*
X0287147Y0207719D01*
X0287054Y0207625D01*
X0287147Y0208125D02*
X0287147Y0208625D01*
X0288134Y0208625D01*
X0287147Y0208625D02*
X0287147Y0209125D01*
X0287147Y0209625D02*
X0287147Y0210125D01*
X0287147Y0210625D02*
X0287147Y0211125D01*
X0287147Y0211625D02*
X0287147Y0212125D01*
X0283211Y0210125D02*
X0283211Y0209625D01*
X0283211Y0209125D02*
X0283211Y0208625D01*
X0283211Y0208125D02*
X0283211Y0207719D01*
X0283117Y0207625D01*
X0285641Y0207625D01*
X0283117Y0207625D02*
X0282742Y0207250D01*
X0282079Y0207250D01*
X0281705Y0207625D01*
X0280608Y0207625D01*
X0280702Y0207719D02*
X0280233Y0207250D01*
X0279571Y0207250D01*
X0279102Y0207719D01*
X0279102Y0208125D01*
X0276977Y0208125D01*
X0276765Y0207808D02*
X0279102Y0211313D01*
X0279102Y0211125D01*
X0278977Y0211125D01*
X0279102Y0211125D02*
X0279102Y0210625D01*
X0278644Y0210625D01*
X0279102Y0210625D02*
X0279102Y0210125D01*
X0278310Y0210125D01*
X0277977Y0209625D02*
X0279102Y0209625D01*
X0279102Y0210125D01*
X0279102Y0209625D02*
X0279102Y0209125D01*
X0277644Y0209125D01*
X0277310Y0208625D02*
X0279102Y0208625D01*
X0279102Y0209125D01*
X0279102Y0208625D02*
X0279102Y0208125D01*
X0279195Y0207625D02*
X0276672Y0207625D01*
X0276587Y0207540D02*
X0276447Y0207331D01*
X0276360Y0207313D01*
X0276297Y0207250D01*
X0276045Y0207250D01*
X0275797Y0207201D01*
X0275723Y0207250D01*
X0275634Y0207250D01*
X0275456Y0207428D01*
X0275246Y0207568D01*
X0275229Y0207656D01*
X0275165Y0207719D01*
X0275165Y0207971D01*
X0275116Y0208218D01*
X0275165Y0208292D01*
X0275165Y0208625D01*
X0271625Y0208625D01*
X0271625Y0208125D01*
X0275134Y0208125D01*
X0275165Y0208625D02*
X0275165Y0209125D01*
X0271625Y0209125D01*
X0271625Y0208625D01*
X0271625Y0208125D02*
X0271625Y0207625D01*
X0275234Y0207625D01*
X0276587Y0207540D02*
X0276765Y0207719D01*
X0276765Y0207808D01*
X0275165Y0209125D02*
X0275165Y0209625D01*
X0271625Y0209625D01*
X0271625Y0209125D01*
X0271625Y0209625D02*
X0271625Y0210125D01*
X0275165Y0210125D01*
X0275165Y0210625D01*
X0271625Y0210625D01*
X0271625Y0210125D01*
X0271625Y0210625D02*
X0271625Y0211125D01*
X0275165Y0211125D01*
X0275165Y0211625D01*
X0271625Y0211625D01*
X0271625Y0211125D01*
X0271625Y0211625D02*
X0271625Y0212125D01*
X0275165Y0212125D01*
X0275165Y0212625D01*
X0271625Y0212625D01*
X0271625Y0212125D01*
X0271625Y0212625D02*
X0271625Y0213125D01*
X0275165Y0213125D01*
X0275165Y0213625D01*
X0271625Y0213625D01*
X0271625Y0213125D01*
X0271625Y0213625D02*
X0271625Y0214125D01*
X0275165Y0214125D01*
X0275165Y0214286D01*
X0275634Y0214755D01*
X0275165Y0214125D02*
X0275165Y0213625D01*
X0275165Y0213125D02*
X0275165Y0212625D01*
X0275165Y0212125D02*
X0275165Y0211625D01*
X0275165Y0211125D02*
X0275165Y0210625D01*
X0275165Y0210125D02*
X0275165Y0209625D01*
X0276765Y0210692D02*
X0279102Y0214197D01*
X0279102Y0214286D01*
X0279281Y0214465D01*
X0279420Y0214675D01*
X0279054Y0214125D02*
X0276765Y0214125D01*
X0276765Y0213625D01*
X0278721Y0213625D01*
X0278387Y0213125D02*
X0276765Y0213125D01*
X0276765Y0212625D01*
X0278054Y0212625D01*
X0277721Y0212125D02*
X0276765Y0212125D01*
X0276765Y0211625D01*
X0277387Y0211625D01*
X0277054Y0211125D02*
X0276765Y0211125D01*
X0276765Y0210692D01*
X0276765Y0211125D02*
X0276765Y0211625D01*
X0276765Y0212125D02*
X0276765Y0212625D01*
X0276765Y0213125D02*
X0276765Y0213625D01*
X0276765Y0214125D02*
X0276765Y0214286D01*
X0276427Y0214625D01*
X0280702Y0213625D02*
X0280702Y0213125D01*
X0282418Y0213125D01*
X0282918Y0213625D01*
X0282418Y0213125D02*
X0281918Y0212625D01*
X0280702Y0212625D01*
X0280702Y0212125D01*
X0281611Y0212125D01*
X0281611Y0212318D01*
X0281918Y0212625D01*
X0281611Y0212125D02*
X0281611Y0211625D01*
X0280702Y0211625D01*
X0280702Y0211125D01*
X0281611Y0211125D01*
X0281611Y0211625D01*
X0281611Y0211125D02*
X0281611Y0210625D01*
X0280702Y0210625D01*
X0280702Y0210125D01*
X0281611Y0210125D01*
X0281611Y0210625D01*
X0281611Y0210125D02*
X0281611Y0209625D01*
X0280702Y0209625D01*
X0280702Y0209125D01*
X0281611Y0209125D01*
X0281611Y0209625D01*
X0281611Y0209125D02*
X0281611Y0208625D01*
X0280702Y0208625D01*
X0280702Y0208125D01*
X0281611Y0208125D01*
X0281611Y0208625D01*
X0281611Y0208125D02*
X0281611Y0207719D01*
X0281705Y0207625D01*
X0280702Y0207719D02*
X0280702Y0208125D01*
X0280702Y0208625D02*
X0280702Y0209125D01*
X0280702Y0209625D02*
X0280702Y0210125D01*
X0280702Y0210625D02*
X0280702Y0211125D01*
X0280702Y0211625D02*
X0280702Y0212125D01*
X0280702Y0212625D02*
X0280702Y0213125D01*
X0271625Y0214125D02*
X0271625Y0214625D01*
X0271625Y0215125D02*
X0271625Y0215625D01*
X0271625Y0216125D02*
X0271625Y0216625D01*
X0271625Y0217125D02*
X0271625Y0217625D01*
X0271625Y0207625D02*
X0271625Y0207125D01*
X0271625Y0206625D02*
X0271625Y0206125D01*
X0271625Y0205625D02*
X0271625Y0205125D01*
X0271625Y0204625D02*
X0271625Y0204125D01*
X0266000Y0204250D02*
X0210375Y0204250D01*
X0210375Y0203750D01*
X0266000Y0203750D01*
X0266000Y0204250D01*
X0266000Y0204750D01*
X0210375Y0204750D01*
X0210375Y0204250D01*
X0210375Y0203750D02*
X0210375Y0203250D01*
X0215191Y0203250D01*
X0215446Y0203505D01*
X0218077Y0203505D01*
X0219519Y0202063D01*
X0219530Y0202052D01*
X0219530Y0201750D01*
X0220439Y0201750D01*
X0220439Y0202250D01*
X0219332Y0202250D01*
X0219530Y0201750D02*
X0219530Y0201250D01*
X0220439Y0201250D01*
X0220439Y0201750D01*
X0220439Y0202250D02*
X0220439Y0202750D01*
X0218832Y0202750D01*
X0218332Y0203250D02*
X0220652Y0203250D01*
X0220439Y0203036D02*
X0220907Y0203505D01*
X0221570Y0203505D01*
X0221825Y0203250D01*
X0224578Y0203250D01*
X0224554Y0203215D02*
X0224694Y0203424D01*
X0224781Y0203442D01*
X0224844Y0203505D01*
X0225096Y0203505D01*
X0225344Y0203554D01*
X0225418Y0203505D01*
X0225507Y0203505D01*
X0225685Y0203327D01*
X0225895Y0203187D01*
X0225913Y0203100D01*
X0225976Y0203036D01*
X0225976Y0202784D01*
X0226025Y0202537D01*
X0225976Y0202463D01*
X0225976Y0202250D01*
X0226828Y0202250D01*
X0226704Y0202374D01*
X0226704Y0202750D01*
X0225982Y0202750D01*
X0225976Y0202250D02*
X0225976Y0201750D01*
X0227688Y0201750D01*
X0227688Y0201905D01*
X0227173Y0201905D01*
X0226828Y0202250D01*
X0226704Y0202750D02*
X0226704Y0203036D01*
X0227173Y0203505D01*
X0229804Y0203505D01*
X0230272Y0203036D01*
X0230272Y0202750D01*
X0231879Y0202750D01*
X0232379Y0203250D01*
X0230059Y0203250D01*
X0230272Y0202750D02*
X0230272Y0202374D01*
X0230149Y0202250D01*
X0231379Y0202250D01*
X0231879Y0202750D01*
X0231379Y0202250D02*
X0231181Y0202052D01*
X0231181Y0201750D01*
X0229288Y0201750D01*
X0229288Y0201250D01*
X0231181Y0201250D01*
X0231181Y0201750D01*
X0231181Y0201250D02*
X0231181Y0200750D01*
X0229288Y0200750D01*
X0229288Y0200250D01*
X0231181Y0200250D01*
X0231181Y0200750D01*
X0231181Y0200250D02*
X0231181Y0199750D01*
X0229288Y0199750D01*
X0229288Y0199250D01*
X0231352Y0199250D01*
X0231181Y0199421D02*
X0231181Y0199750D01*
X0231181Y0199421D02*
X0232326Y0198276D01*
X0232300Y0198250D01*
X0229288Y0198250D01*
X0229288Y0197750D01*
X0231800Y0197750D01*
X0232300Y0198250D01*
X0231852Y0198750D02*
X0229288Y0198750D01*
X0229288Y0198250D01*
X0229288Y0197750D02*
X0229288Y0197600D01*
X0229804Y0197600D01*
X0230154Y0197250D01*
X0231300Y0197250D01*
X0231800Y0197750D01*
X0231300Y0197250D02*
X0231181Y0197131D01*
X0231181Y0196750D01*
X0230272Y0196750D01*
X0230272Y0196469D01*
X0230054Y0196250D01*
X0231400Y0196250D01*
X0231181Y0196469D01*
X0231181Y0196750D01*
X0231400Y0196250D02*
X0231650Y0196000D01*
X0232313Y0196000D01*
X0232563Y0196250D01*
X0235337Y0196250D01*
X0235118Y0196469D01*
X0235118Y0196750D01*
X0233063Y0196750D01*
X0232563Y0196250D01*
X0233063Y0196750D02*
X0233563Y0197250D01*
X0235118Y0197250D01*
X0235118Y0197750D01*
X0234063Y0197750D01*
X0233563Y0197250D01*
X0234063Y0197750D02*
X0234281Y0197969D01*
X0235118Y0197969D01*
X0235118Y0197750D01*
X0235118Y0197250D02*
X0235118Y0196750D01*
X0235337Y0196250D02*
X0235587Y0196000D01*
X0236249Y0196000D01*
X0236718Y0196469D01*
X0236718Y0196750D01*
X0237627Y0196750D01*
X0237627Y0197131D01*
X0237745Y0197250D01*
X0236718Y0197250D01*
X0236718Y0196750D01*
X0236718Y0197250D02*
X0236718Y0197750D01*
X0241563Y0197750D01*
X0241563Y0198250D01*
X0236718Y0198250D01*
X0236718Y0197750D01*
X0236718Y0198250D02*
X0236718Y0198750D01*
X0241563Y0198750D01*
X0241563Y0198952D01*
X0240064Y0198952D01*
X0239595Y0199421D01*
X0239595Y0199750D01*
X0236718Y0199750D01*
X0236718Y0199250D01*
X0239766Y0199250D01*
X0239595Y0199750D02*
X0239595Y0200084D01*
X0239761Y0200250D01*
X0236718Y0200250D01*
X0236718Y0199750D01*
X0236718Y0199250D02*
X0236718Y0198750D01*
X0236718Y0200250D02*
X0236718Y0200750D01*
X0241563Y0200750D01*
X0241563Y0201250D01*
X0236718Y0201250D01*
X0236718Y0200750D01*
X0236718Y0201250D02*
X0236718Y0201750D01*
X0241563Y0201750D01*
X0241563Y0201905D01*
X0238095Y0201905D01*
X0237750Y0202250D01*
X0236718Y0202250D01*
X0236718Y0201750D01*
X0236718Y0202250D02*
X0236718Y0202750D01*
X0237627Y0202750D01*
X0237627Y0203036D01*
X0238095Y0203505D01*
X0242695Y0203505D01*
X0243163Y0203036D01*
X0243163Y0202750D01*
X0244072Y0202750D01*
X0244072Y0203036D01*
X0244541Y0203505D01*
X0249141Y0203505D01*
X0249609Y0203036D01*
X0249609Y0202750D01*
X0250518Y0202750D01*
X0250518Y0203036D01*
X0250731Y0203250D01*
X0249395Y0203250D01*
X0249609Y0202750D02*
X0249609Y0202250D01*
X0250641Y0202250D01*
X0250518Y0202374D02*
X0250518Y0202750D01*
X0250518Y0202374D02*
X0250987Y0201905D01*
X0252486Y0201905D01*
X0252486Y0201750D01*
X0249609Y0201750D01*
X0249609Y0201250D01*
X0252486Y0201250D01*
X0252486Y0201750D01*
X0252486Y0201250D02*
X0252486Y0200750D01*
X0249609Y0200750D01*
X0249609Y0200250D01*
X0252486Y0200250D01*
X0252486Y0200750D01*
X0252486Y0200250D02*
X0252486Y0199750D01*
X0249609Y0199750D01*
X0249609Y0199250D01*
X0252486Y0199250D01*
X0252486Y0199750D01*
X0252486Y0199250D02*
X0252486Y0198750D01*
X0249609Y0198750D01*
X0249609Y0198250D01*
X0252486Y0198250D01*
X0252486Y0198750D01*
X0252486Y0198250D02*
X0252486Y0197750D01*
X0249609Y0197750D01*
X0249609Y0197250D01*
X0252486Y0197250D01*
X0252486Y0197750D01*
X0252486Y0197250D02*
X0252486Y0196750D01*
X0249609Y0196750D01*
X0249609Y0196469D01*
X0249391Y0196250D01*
X0252705Y0196250D01*
X0252486Y0196469D01*
X0252486Y0196750D01*
X0252705Y0196250D02*
X0252955Y0196000D01*
X0253618Y0196000D01*
X0253868Y0196250D01*
X0258166Y0196250D01*
X0257666Y0196750D01*
X0254086Y0196750D01*
X0254086Y0196469D01*
X0253868Y0196250D01*
X0254086Y0196750D02*
X0254086Y0197250D01*
X0257166Y0197250D01*
X0256963Y0197453D01*
X0256963Y0197750D01*
X0254086Y0197750D01*
X0254086Y0197250D01*
X0254086Y0197750D02*
X0254086Y0198250D01*
X0256963Y0198250D01*
X0256963Y0198750D01*
X0254086Y0198750D01*
X0254086Y0198250D01*
X0254086Y0198750D02*
X0254086Y0199250D01*
X0257114Y0199250D01*
X0257614Y0199750D01*
X0254086Y0199750D01*
X0254086Y0199250D01*
X0254086Y0199750D02*
X0254086Y0200250D01*
X0258114Y0200250D01*
X0258416Y0200552D01*
X0260385Y0200552D01*
X0260900Y0201068D01*
X0260900Y0201250D01*
X0258424Y0201250D01*
X0258095Y0200921D02*
X0259079Y0201905D01*
X0260385Y0201905D01*
X0260900Y0201389D01*
X0260900Y0201250D01*
X0260582Y0200750D02*
X0254086Y0200750D01*
X0254086Y0200250D01*
X0254086Y0200750D02*
X0254086Y0201250D01*
X0257103Y0201250D01*
X0256963Y0201389D01*
X0256963Y0201750D01*
X0254086Y0201750D01*
X0254086Y0201250D01*
X0254086Y0201750D02*
X0254086Y0201905D01*
X0255586Y0201905D01*
X0255931Y0202250D01*
X0257161Y0202250D01*
X0257661Y0202750D01*
X0256054Y0202750D01*
X0256054Y0202374D01*
X0255931Y0202250D01*
X0256054Y0202750D02*
X0256054Y0203036D01*
X0255586Y0203505D01*
X0250987Y0203505D01*
X0250731Y0203250D01*
X0249609Y0202250D02*
X0249609Y0201750D01*
X0249609Y0201250D02*
X0249609Y0200750D01*
X0249609Y0200250D02*
X0249609Y0199750D01*
X0249609Y0199250D02*
X0249609Y0198750D01*
X0249609Y0198250D02*
X0249609Y0197750D01*
X0249609Y0197250D02*
X0249609Y0196750D01*
X0249391Y0196250D02*
X0249141Y0196000D01*
X0244541Y0196000D01*
X0244291Y0196250D01*
X0242945Y0196250D01*
X0242695Y0196000D01*
X0238095Y0196000D01*
X0237845Y0196250D01*
X0236499Y0196250D01*
X0237627Y0196469D02*
X0237627Y0196750D01*
X0237627Y0196469D02*
X0237845Y0196250D01*
X0237745Y0197250D02*
X0238095Y0197600D01*
X0241563Y0197600D01*
X0241563Y0197750D01*
X0241563Y0198250D02*
X0241563Y0198750D01*
X0243163Y0198750D02*
X0248009Y0198750D01*
X0248009Y0198952D01*
X0246509Y0198952D01*
X0246212Y0199250D01*
X0243163Y0199250D01*
X0243163Y0198750D01*
X0243163Y0198250D01*
X0248009Y0198250D01*
X0248009Y0198750D01*
X0248009Y0198250D02*
X0248009Y0197750D01*
X0243163Y0197750D01*
X0243163Y0197250D01*
X0244191Y0197250D01*
X0244541Y0197600D01*
X0248009Y0197600D01*
X0248009Y0197750D01*
X0246212Y0199250D02*
X0246041Y0199421D01*
X0246041Y0199750D01*
X0243163Y0199750D01*
X0243163Y0199250D01*
X0243163Y0199750D02*
X0243163Y0200250D01*
X0246207Y0200250D01*
X0246041Y0200084D02*
X0246509Y0200552D01*
X0248009Y0200552D01*
X0248009Y0200750D01*
X0243163Y0200750D01*
X0243163Y0200250D01*
X0243163Y0200750D02*
X0243163Y0201250D01*
X0248009Y0201250D01*
X0248009Y0201750D01*
X0243163Y0201750D01*
X0243163Y0201250D01*
X0243163Y0201750D02*
X0243163Y0202250D01*
X0244196Y0202250D01*
X0244072Y0202374D01*
X0244072Y0202750D01*
X0244196Y0202250D02*
X0244541Y0201905D01*
X0248009Y0201905D01*
X0248009Y0201750D01*
X0248009Y0201250D02*
X0248009Y0200750D01*
X0246041Y0200084D02*
X0246041Y0199750D01*
X0244191Y0197250D02*
X0244072Y0197131D01*
X0244072Y0196750D01*
X0243163Y0196750D01*
X0243163Y0196469D01*
X0242945Y0196250D01*
X0243163Y0196750D02*
X0243163Y0197250D01*
X0243163Y0197750D02*
X0243163Y0198250D01*
X0244072Y0196750D02*
X0244072Y0196469D01*
X0244291Y0196250D01*
X0241563Y0200552D02*
X0241563Y0200750D01*
X0241563Y0200552D02*
X0240064Y0200552D01*
X0239761Y0200250D01*
X0241563Y0201250D02*
X0241563Y0201750D01*
X0243163Y0202250D02*
X0243163Y0202750D01*
X0242950Y0203250D02*
X0244286Y0203250D01*
X0237841Y0203250D02*
X0236504Y0203250D01*
X0236718Y0203036D01*
X0236718Y0202750D01*
X0236504Y0203250D02*
X0236249Y0203505D01*
X0232634Y0203505D01*
X0232379Y0203250D01*
X0233297Y0201905D02*
X0232781Y0201389D01*
X0232781Y0201250D01*
X0235118Y0201250D01*
X0235118Y0201750D01*
X0233142Y0201750D01*
X0233297Y0201905D02*
X0235118Y0201905D01*
X0235118Y0201750D01*
X0235118Y0201250D02*
X0235118Y0200750D01*
X0232781Y0200750D01*
X0232781Y0200250D01*
X0235118Y0200250D01*
X0235118Y0200750D01*
X0235118Y0200250D02*
X0235118Y0199750D01*
X0233115Y0199750D01*
X0233297Y0199569D01*
X0235118Y0199569D01*
X0235118Y0199750D01*
X0233115Y0199750D02*
X0232781Y0200084D01*
X0232781Y0200250D01*
X0232781Y0200750D02*
X0232781Y0201250D01*
X0230149Y0202250D02*
X0229804Y0201905D01*
X0229288Y0201905D01*
X0229288Y0201750D01*
X0229288Y0201250D02*
X0229288Y0200750D01*
X0229288Y0200250D02*
X0229288Y0199750D01*
X0229288Y0199250D02*
X0229288Y0198750D01*
X0227688Y0198750D02*
X0225976Y0198750D01*
X0225976Y0198250D01*
X0227688Y0198250D01*
X0227688Y0198750D01*
X0227688Y0199250D01*
X0225976Y0199250D01*
X0225976Y0198750D01*
X0225976Y0198250D02*
X0225976Y0197750D01*
X0227688Y0197750D01*
X0227688Y0198250D01*
X0227688Y0197750D02*
X0227688Y0197600D01*
X0227173Y0197600D01*
X0226823Y0197250D01*
X0225976Y0197250D01*
X0225976Y0196750D01*
X0226704Y0196750D01*
X0226704Y0197131D01*
X0226823Y0197250D01*
X0226704Y0196750D02*
X0226704Y0196469D01*
X0226923Y0196250D01*
X0225757Y0196250D01*
X0225976Y0196469D02*
X0225507Y0196000D01*
X0224844Y0196000D01*
X0224594Y0196250D01*
X0221833Y0196250D01*
X0221861Y0196290D02*
X0221720Y0196081D01*
X0221633Y0196063D01*
X0221570Y0196000D01*
X0221318Y0196000D01*
X0221071Y0195950D01*
X0220996Y0196000D01*
X0220907Y0196000D01*
X0220729Y0196178D01*
X0220519Y0196318D01*
X0220502Y0196406D01*
X0220439Y0196469D01*
X0220439Y0196721D01*
X0220389Y0196968D01*
X0220439Y0197042D01*
X0220439Y0197250D01*
X0219327Y0197250D01*
X0218827Y0196750D01*
X0220433Y0196750D01*
X0220439Y0197250D02*
X0220439Y0197750D01*
X0219530Y0197750D01*
X0219530Y0197453D01*
X0219327Y0197250D01*
X0219530Y0197750D02*
X0219530Y0198250D01*
X0220439Y0198250D01*
X0220439Y0198750D01*
X0219530Y0198750D01*
X0219530Y0198250D01*
X0219530Y0198750D02*
X0219530Y0199250D01*
X0220439Y0199250D01*
X0220439Y0199750D01*
X0219530Y0199750D01*
X0219530Y0199250D01*
X0219530Y0199750D02*
X0219530Y0200250D01*
X0220439Y0200250D01*
X0220439Y0200750D01*
X0219530Y0200750D01*
X0219530Y0200250D01*
X0219530Y0200750D02*
X0219530Y0201250D01*
X0220439Y0201250D02*
X0220439Y0200750D01*
X0220439Y0200250D02*
X0220439Y0199750D01*
X0220439Y0199250D02*
X0220439Y0198750D01*
X0220439Y0198250D02*
X0220439Y0197750D01*
X0220622Y0196250D02*
X0218327Y0196250D01*
X0218077Y0196000D01*
X0215446Y0196000D01*
X0215196Y0196250D01*
X0210375Y0196250D01*
X0210375Y0195750D01*
X0266000Y0195750D01*
X0266000Y0196250D01*
X0261297Y0196250D01*
X0261047Y0196000D01*
X0258416Y0196000D01*
X0258166Y0196250D01*
X0257666Y0196750D02*
X0257166Y0197250D01*
X0256963Y0197750D02*
X0256963Y0198250D01*
X0256963Y0198750D02*
X0256963Y0199100D01*
X0257114Y0199250D01*
X0257614Y0199750D02*
X0258114Y0200250D01*
X0258095Y0200921D02*
X0257432Y0200921D01*
X0257103Y0201250D01*
X0256963Y0201750D02*
X0256963Y0202052D01*
X0257161Y0202250D01*
X0257661Y0202750D02*
X0258161Y0203250D01*
X0255841Y0203250D01*
X0258161Y0203250D02*
X0258416Y0203505D01*
X0261047Y0203505D01*
X0262489Y0202063D01*
X0262500Y0202052D01*
X0262500Y0201750D01*
X0266000Y0201750D01*
X0266000Y0202250D01*
X0262302Y0202250D01*
X0262500Y0201750D02*
X0262500Y0201250D01*
X0266000Y0201250D01*
X0266000Y0201750D01*
X0266000Y0202250D02*
X0266000Y0202750D01*
X0261802Y0202750D01*
X0261302Y0203250D02*
X0266000Y0203250D01*
X0266000Y0203750D01*
X0266000Y0203250D02*
X0266000Y0202750D01*
X0266000Y0201250D02*
X0266000Y0200750D01*
X0262500Y0200750D01*
X0262500Y0200406D01*
X0262344Y0200250D01*
X0266000Y0200250D01*
X0266000Y0200750D01*
X0266000Y0200250D02*
X0266000Y0199750D01*
X0261845Y0199750D01*
X0261516Y0199421D02*
X0261047Y0198952D01*
X0259079Y0198952D01*
X0258876Y0198750D01*
X0266000Y0198750D01*
X0266000Y0199250D01*
X0261344Y0199250D01*
X0261516Y0199421D02*
X0262344Y0200250D01*
X0262500Y0200750D02*
X0262500Y0201250D01*
X0260539Y0201750D02*
X0258924Y0201750D01*
X0258876Y0198750D02*
X0258563Y0198437D01*
X0258563Y0198250D01*
X0261035Y0198250D01*
X0261369Y0198584D02*
X0262031Y0198584D01*
X0262500Y0198115D01*
X0262500Y0197750D01*
X0266000Y0197750D01*
X0266000Y0198250D01*
X0262365Y0198250D01*
X0262500Y0197750D02*
X0262500Y0197453D01*
X0262297Y0197250D01*
X0266000Y0197250D01*
X0266000Y0197750D01*
X0266000Y0198250D02*
X0266000Y0198750D01*
X0266000Y0199250D02*
X0266000Y0199750D01*
X0266000Y0197250D02*
X0266000Y0196750D01*
X0261797Y0196750D01*
X0261297Y0196250D01*
X0261797Y0196750D02*
X0262297Y0197250D01*
X0261369Y0198584D02*
X0260385Y0197600D01*
X0259079Y0197600D01*
X0258929Y0197750D01*
X0260535Y0197750D01*
X0258929Y0197750D02*
X0258563Y0198115D01*
X0258563Y0198250D01*
X0266000Y0196750D02*
X0266000Y0196250D01*
X0266000Y0195750D02*
X0266000Y0195250D01*
X0210375Y0195250D01*
X0210375Y0194750D01*
X0266000Y0194750D01*
X0266000Y0195250D01*
X0266000Y0194750D02*
X0266000Y0194250D01*
X0210375Y0194250D01*
X0210375Y0193750D01*
X0266000Y0193750D01*
X0266000Y0194250D01*
X0266000Y0193750D02*
X0266000Y0193250D01*
X0210375Y0193250D01*
X0210375Y0192750D01*
X0266000Y0192750D01*
X0266000Y0193250D01*
X0266000Y0192750D02*
X0266000Y0192500D01*
X0210375Y0192500D01*
X0210375Y0192750D01*
X0210375Y0193250D02*
X0210375Y0193750D01*
X0210375Y0194250D02*
X0210375Y0194750D01*
X0210375Y0195250D02*
X0210375Y0195750D01*
X0210375Y0196250D02*
X0210375Y0196750D01*
X0214696Y0196750D01*
X0214196Y0197250D01*
X0210375Y0197250D01*
X0210375Y0196750D01*
X0210375Y0197250D02*
X0210375Y0197750D01*
X0213993Y0197750D01*
X0213993Y0198250D01*
X0210375Y0198250D01*
X0210375Y0197750D01*
X0210375Y0198250D02*
X0210375Y0198750D01*
X0213993Y0198750D01*
X0213993Y0199250D01*
X0210375Y0199250D01*
X0210375Y0198750D01*
X0210375Y0199250D02*
X0210375Y0199750D01*
X0213993Y0199750D01*
X0213993Y0200084D01*
X0214159Y0200250D01*
X0210375Y0200250D01*
X0210375Y0199750D01*
X0210375Y0200250D02*
X0210375Y0200750D01*
X0217930Y0200750D01*
X0217930Y0201250D01*
X0215454Y0201250D01*
X0215125Y0200921D01*
X0214462Y0200921D01*
X0214133Y0201250D01*
X0210375Y0201250D01*
X0210375Y0200750D01*
X0210375Y0201250D02*
X0210375Y0201750D01*
X0213993Y0201750D01*
X0213993Y0202052D01*
X0214191Y0202250D01*
X0210375Y0202250D01*
X0210375Y0201750D01*
X0210375Y0202250D02*
X0210375Y0202750D01*
X0214691Y0202750D01*
X0215191Y0203250D01*
X0214691Y0202750D02*
X0214191Y0202250D01*
X0213993Y0201750D02*
X0213993Y0201389D01*
X0214133Y0201250D01*
X0214462Y0200552D02*
X0217093Y0200552D01*
X0217562Y0200084D01*
X0217562Y0199750D01*
X0217930Y0199750D01*
X0217930Y0200250D01*
X0217396Y0200250D01*
X0217562Y0199750D02*
X0217562Y0199421D01*
X0217391Y0199250D01*
X0217930Y0199250D01*
X0217930Y0199750D01*
X0217930Y0200250D02*
X0217930Y0200750D01*
X0217930Y0201250D02*
X0217930Y0201389D01*
X0217415Y0201905D01*
X0216109Y0201905D01*
X0215954Y0201750D01*
X0217570Y0201750D01*
X0215954Y0201750D02*
X0215454Y0201250D01*
X0214462Y0200552D02*
X0214159Y0200250D01*
X0213993Y0199750D02*
X0213993Y0199250D01*
X0213993Y0198750D02*
X0213993Y0198250D01*
X0213993Y0197750D02*
X0213993Y0197453D01*
X0214196Y0197250D01*
X0214696Y0196750D02*
X0215196Y0196250D01*
X0216109Y0197600D02*
X0217415Y0197600D01*
X0217565Y0197750D01*
X0215959Y0197750D01*
X0216109Y0197600D02*
X0215593Y0198115D01*
X0215593Y0198250D01*
X0217930Y0198250D01*
X0217930Y0198750D01*
X0215593Y0198750D01*
X0215593Y0198250D01*
X0215593Y0198750D02*
X0215593Y0198952D01*
X0217093Y0198952D01*
X0217391Y0199250D01*
X0217930Y0199250D02*
X0217930Y0198750D01*
X0217930Y0198250D02*
X0217930Y0198115D01*
X0217565Y0197750D01*
X0218827Y0196750D02*
X0218327Y0196250D01*
X0221861Y0196290D02*
X0222039Y0196469D01*
X0222039Y0196558D01*
X0224376Y0200063D01*
X0224376Y0199750D01*
X0224167Y0199750D01*
X0224376Y0199750D02*
X0224376Y0199250D01*
X0223833Y0199250D01*
X0224376Y0199250D02*
X0224376Y0198750D01*
X0223500Y0198750D01*
X0223167Y0198250D02*
X0224376Y0198250D01*
X0224376Y0198750D01*
X0224376Y0198250D02*
X0224376Y0197750D01*
X0222833Y0197750D01*
X0222500Y0197250D02*
X0224376Y0197250D01*
X0224376Y0197750D01*
X0224376Y0197250D02*
X0224376Y0196750D01*
X0222167Y0196750D01*
X0224376Y0196750D02*
X0224376Y0196469D01*
X0224594Y0196250D01*
X0225976Y0196469D02*
X0225976Y0196750D01*
X0225976Y0197250D02*
X0225976Y0197750D01*
X0225976Y0199250D02*
X0225976Y0199750D01*
X0227688Y0199750D01*
X0227688Y0200250D01*
X0225976Y0200250D01*
X0225976Y0199750D01*
X0225976Y0200250D02*
X0225976Y0200750D01*
X0227688Y0200750D01*
X0227688Y0201250D01*
X0225976Y0201250D01*
X0225976Y0200750D01*
X0225976Y0201250D02*
X0225976Y0201750D01*
X0225800Y0203250D02*
X0226918Y0203250D01*
X0227688Y0201750D02*
X0227688Y0201250D01*
X0227688Y0200750D02*
X0227688Y0200250D01*
X0227688Y0199750D02*
X0227688Y0199250D01*
X0226923Y0196250D02*
X0227173Y0196000D01*
X0229804Y0196000D01*
X0230054Y0196250D01*
X0230272Y0196750D02*
X0230272Y0197131D01*
X0230154Y0197250D01*
X0223577Y0201750D02*
X0222039Y0201750D01*
X0222039Y0201250D01*
X0223244Y0201250D01*
X0222911Y0200750D02*
X0222039Y0200750D01*
X0222039Y0200250D01*
X0222577Y0200250D01*
X0222039Y0200250D02*
X0222039Y0199750D01*
X0222244Y0199750D01*
X0222039Y0199750D02*
X0222039Y0199442D01*
X0224244Y0202750D01*
X0222039Y0202750D01*
X0222039Y0202250D01*
X0223911Y0202250D01*
X0224244Y0202750D02*
X0224376Y0202947D01*
X0224376Y0203036D01*
X0224554Y0203215D01*
X0222039Y0203036D02*
X0222039Y0202750D01*
X0222039Y0203036D02*
X0221825Y0203250D01*
X0222039Y0202250D02*
X0222039Y0201750D01*
X0222039Y0201250D02*
X0222039Y0200750D01*
X0220439Y0202750D02*
X0220439Y0203036D01*
X0210375Y0203250D02*
X0210375Y0202750D01*
X0210375Y0204750D02*
X0210375Y0205250D01*
X0266000Y0205250D01*
X0266000Y0205750D01*
X0210375Y0205750D01*
X0210375Y0205250D01*
X0210375Y0205750D02*
X0210375Y0206250D01*
X0266000Y0206250D01*
X0266000Y0206750D01*
X0210375Y0206750D01*
X0210375Y0206250D01*
X0210375Y0206750D02*
X0210375Y0206875D01*
X0266000Y0206875D01*
X0266000Y0206750D01*
X0266000Y0206250D02*
X0266000Y0205750D01*
X0266000Y0205250D02*
X0266000Y0204750D01*
X0237750Y0202250D02*
X0237627Y0202374D01*
X0237627Y0202750D01*
X0202216Y0206894D02*
X0201465Y0206143D01*
X0199964Y0206143D01*
X0199213Y0206894D01*
X0199213Y0210647D01*
X0197612Y0209897D02*
X0196861Y0210647D01*
X0195360Y0210647D01*
X0194609Y0209897D01*
X0193008Y0209897D02*
X0192257Y0210647D01*
X0190756Y0210647D01*
X0190005Y0209897D01*
X0190005Y0209146D01*
X0190756Y0208395D01*
X0190005Y0207645D01*
X0190005Y0206894D01*
X0190756Y0206143D01*
X0192257Y0206143D01*
X0193008Y0206894D01*
X0194609Y0206894D02*
X0194609Y0207645D01*
X0195360Y0208395D01*
X0196861Y0208395D01*
X0197612Y0209146D01*
X0197612Y0209897D01*
X0196111Y0211398D02*
X0196111Y0205393D01*
X0196861Y0206143D02*
X0195360Y0206143D01*
X0194609Y0206894D01*
X0196861Y0206143D02*
X0197612Y0206894D01*
X0202216Y0206894D02*
X0202216Y0210647D01*
X0191507Y0208395D02*
X0190756Y0208395D01*
X0188404Y0206894D02*
X0187653Y0206143D01*
X0186152Y0206143D01*
X0185401Y0206894D01*
X0185401Y0207645D01*
X0186152Y0208395D01*
X0186903Y0208395D01*
X0186152Y0208395D02*
X0185401Y0209146D01*
X0185401Y0209897D01*
X0186152Y0210647D01*
X0187653Y0210647D01*
X0188404Y0209897D01*
X0177250Y0206875D02*
X0119125Y0206875D01*
X0119125Y0206500D01*
X0177250Y0206500D01*
X0177250Y0206875D01*
X0177250Y0206500D02*
X0177250Y0206000D01*
X0119125Y0206000D01*
X0119125Y0205500D01*
X0177250Y0205500D01*
X0177250Y0206000D01*
X0177250Y0205500D02*
X0177250Y0205000D01*
X0119125Y0205000D01*
X0119125Y0204500D01*
X0177250Y0204500D01*
X0177250Y0205000D01*
X0177250Y0204500D02*
X0177250Y0204000D01*
X0119125Y0204000D01*
X0119125Y0203500D01*
X0123558Y0203500D01*
X0123563Y0203505D01*
X0124226Y0203505D01*
X0124695Y0203036D01*
X0124695Y0203000D01*
X0127031Y0203000D01*
X0127031Y0203036D01*
X0127210Y0203215D01*
X0127350Y0203424D01*
X0127437Y0203442D01*
X0127500Y0203505D01*
X0127752Y0203505D01*
X0128000Y0203554D01*
X0128074Y0203505D01*
X0128163Y0203505D01*
X0128168Y0203500D01*
X0130004Y0203500D01*
X0130009Y0203505D01*
X0134608Y0203505D01*
X0134613Y0203500D01*
X0137433Y0203500D01*
X0137439Y0203505D01*
X0141054Y0203505D01*
X0141059Y0203500D01*
X0149341Y0203500D01*
X0149345Y0203505D02*
X0150008Y0203505D01*
X0150013Y0203500D01*
X0153277Y0203500D01*
X0153282Y0203505D01*
X0153945Y0203505D01*
X0153950Y0203500D01*
X0156770Y0203500D01*
X0156775Y0203505D01*
X0159406Y0203505D01*
X0159411Y0203500D01*
X0164200Y0203500D01*
X0164205Y0203505D01*
X0164868Y0203505D01*
X0165336Y0203037D01*
X0165336Y0203036D01*
X0165372Y0203000D01*
X0169161Y0203000D01*
X0169661Y0203500D01*
X0164872Y0203500D01*
X0164200Y0203500D02*
X0163736Y0203037D01*
X0163736Y0203036D01*
X0161785Y0201086D01*
X0161768Y0201068D01*
X0161768Y0201000D01*
X0160859Y0201000D01*
X0160859Y0200500D01*
X0161768Y0200500D01*
X0161768Y0201000D01*
X0161768Y0200500D02*
X0161768Y0200000D01*
X0160454Y0200000D01*
X0159954Y0199500D01*
X0161768Y0199500D01*
X0161768Y0200000D01*
X0161768Y0199500D02*
X0161768Y0199000D01*
X0159454Y0199000D01*
X0159406Y0198952D02*
X0157438Y0198952D01*
X0156985Y0198500D01*
X0159643Y0198500D01*
X0159728Y0198584D01*
X0160391Y0198584D01*
X0160859Y0198115D01*
X0160859Y0198000D01*
X0161768Y0198000D01*
X0161768Y0198500D01*
X0160474Y0198500D01*
X0160859Y0198000D02*
X0160859Y0197500D01*
X0161768Y0197500D01*
X0161768Y0198000D01*
X0161768Y0198500D02*
X0161768Y0199000D01*
X0161768Y0197500D02*
X0161768Y0197000D01*
X0160406Y0197000D01*
X0159906Y0196500D01*
X0161768Y0196500D01*
X0161768Y0197000D01*
X0161768Y0196500D02*
X0161768Y0196469D01*
X0162237Y0196000D01*
X0159406Y0196000D01*
X0156775Y0196000D01*
X0153945Y0196000D01*
X0153282Y0196000D01*
X0150008Y0196000D01*
X0149345Y0196000D01*
X0141054Y0196000D01*
X0137439Y0196000D01*
X0132640Y0196000D01*
X0131977Y0196000D01*
X0128163Y0196000D01*
X0127500Y0196000D01*
X0124226Y0196000D01*
X0123974Y0196000D01*
X0123727Y0195950D01*
X0123653Y0196000D01*
X0123563Y0196000D01*
X0119125Y0196000D01*
X0119125Y0195500D01*
X0177250Y0195500D01*
X0177250Y0196000D01*
X0173281Y0196000D01*
X0169666Y0196000D01*
X0166836Y0196000D01*
X0166173Y0196000D01*
X0162899Y0196000D01*
X0162237Y0196000D01*
X0162899Y0196000D02*
X0163368Y0196469D01*
X0163368Y0196500D01*
X0165704Y0196500D01*
X0165704Y0197000D01*
X0163368Y0197000D01*
X0163368Y0196500D01*
X0163368Y0197000D02*
X0163368Y0197500D01*
X0165704Y0197500D01*
X0165704Y0198000D01*
X0163368Y0198000D01*
X0163368Y0197500D01*
X0163368Y0198000D02*
X0163368Y0198500D01*
X0165704Y0198500D01*
X0165704Y0198952D01*
X0163368Y0198952D01*
X0163368Y0198500D01*
X0163515Y0200552D02*
X0165557Y0200552D01*
X0165110Y0201000D01*
X0163963Y0201000D01*
X0163515Y0200552D01*
X0163963Y0201000D02*
X0164463Y0201500D01*
X0164610Y0201500D01*
X0164536Y0201574D01*
X0164463Y0201500D01*
X0164610Y0201500D02*
X0165110Y0201000D01*
X0166372Y0202000D02*
X0168213Y0202000D01*
X0168213Y0202052D01*
X0168661Y0202500D01*
X0165872Y0202500D01*
X0166372Y0202000D01*
X0166872Y0201500D01*
X0168213Y0201500D01*
X0168213Y0202000D01*
X0168213Y0201500D02*
X0168213Y0201000D01*
X0167304Y0201000D01*
X0167304Y0200500D01*
X0168213Y0200500D01*
X0168213Y0201000D01*
X0168213Y0200500D02*
X0168213Y0200000D01*
X0167304Y0200000D01*
X0167304Y0199500D01*
X0168213Y0199500D01*
X0168213Y0200000D01*
X0168213Y0199500D02*
X0168213Y0199000D01*
X0167304Y0199000D01*
X0167304Y0198500D01*
X0168213Y0198500D01*
X0168213Y0199000D01*
X0168213Y0198500D02*
X0168213Y0198000D01*
X0167304Y0198000D01*
X0167304Y0197500D01*
X0168213Y0197500D01*
X0168213Y0198000D01*
X0168213Y0197500D02*
X0168213Y0197453D01*
X0168666Y0197000D01*
X0167304Y0197000D01*
X0167304Y0196500D01*
X0169166Y0196500D01*
X0168666Y0197000D01*
X0169166Y0196500D02*
X0169666Y0196000D01*
X0170329Y0197600D02*
X0172150Y0197600D01*
X0172150Y0198000D01*
X0169929Y0198000D01*
X0170329Y0197600D01*
X0169929Y0198000D02*
X0169813Y0198115D01*
X0169813Y0198500D01*
X0172150Y0198500D01*
X0172150Y0199000D01*
X0169813Y0199000D01*
X0169813Y0198500D01*
X0169813Y0199000D02*
X0169813Y0199500D01*
X0172150Y0199500D01*
X0172150Y0200000D01*
X0169813Y0200000D01*
X0169813Y0199500D01*
X0169813Y0200000D02*
X0169813Y0200500D01*
X0172150Y0200500D01*
X0172150Y0201000D01*
X0169813Y0201000D01*
X0169813Y0200500D01*
X0169813Y0201000D02*
X0169813Y0201389D01*
X0170329Y0201905D01*
X0172150Y0201905D01*
X0172150Y0201500D01*
X0169924Y0201500D01*
X0168661Y0202500D02*
X0169161Y0203000D01*
X0169661Y0203500D02*
X0169666Y0203505D01*
X0173281Y0203505D01*
X0173750Y0203036D01*
X0173750Y0203000D01*
X0177250Y0203000D01*
X0177250Y0203500D01*
X0173286Y0203500D01*
X0173750Y0203000D02*
X0173750Y0202500D01*
X0177250Y0202500D01*
X0177250Y0203000D01*
X0177250Y0203500D02*
X0177250Y0204000D01*
X0177250Y0202500D02*
X0177250Y0202000D01*
X0173750Y0202000D01*
X0173750Y0201500D01*
X0177250Y0201500D01*
X0177250Y0202000D01*
X0177250Y0201500D02*
X0177250Y0201000D01*
X0173750Y0201000D01*
X0173750Y0200500D01*
X0177250Y0200500D01*
X0177250Y0201000D01*
X0177250Y0200500D02*
X0177250Y0200000D01*
X0173750Y0200000D01*
X0173750Y0199500D01*
X0177250Y0199500D01*
X0177250Y0200000D01*
X0177250Y0199500D02*
X0177250Y0199000D01*
X0173750Y0199000D01*
X0173750Y0198500D01*
X0177250Y0198500D01*
X0177250Y0199000D01*
X0177250Y0198500D02*
X0177250Y0198000D01*
X0173750Y0198000D01*
X0173750Y0197500D01*
X0177250Y0197500D01*
X0177250Y0198000D01*
X0177250Y0197500D02*
X0177250Y0197000D01*
X0173750Y0197000D01*
X0173750Y0196500D01*
X0177250Y0196500D01*
X0177250Y0197000D01*
X0177250Y0196500D02*
X0177250Y0196000D01*
X0177250Y0195500D02*
X0177250Y0195000D01*
X0119125Y0195000D01*
X0119125Y0194500D01*
X0177250Y0194500D01*
X0177250Y0195000D01*
X0177250Y0194500D02*
X0177250Y0194000D01*
X0119125Y0194000D01*
X0119125Y0193500D01*
X0177250Y0193500D01*
X0177250Y0194000D01*
X0177250Y0193500D02*
X0177250Y0193000D01*
X0119125Y0193000D01*
X0119125Y0192500D01*
X0177250Y0192500D01*
X0177250Y0193000D01*
X0173750Y0196469D02*
X0173750Y0196500D01*
X0173750Y0196469D02*
X0173281Y0196000D01*
X0173750Y0197000D02*
X0173750Y0197500D01*
X0173750Y0198000D02*
X0173750Y0198500D01*
X0173750Y0199000D02*
X0173750Y0199500D01*
X0173750Y0200000D02*
X0173750Y0200500D01*
X0173750Y0201000D02*
X0173750Y0201500D01*
X0173750Y0202000D02*
X0173750Y0202500D01*
X0172150Y0201500D02*
X0172150Y0201000D01*
X0172150Y0200500D02*
X0172150Y0200000D01*
X0172150Y0199500D02*
X0172150Y0199000D01*
X0172150Y0198500D02*
X0172150Y0198000D01*
X0167304Y0198000D02*
X0167304Y0198500D01*
X0167304Y0199000D02*
X0167304Y0199500D01*
X0167304Y0200000D02*
X0167304Y0200500D01*
X0167304Y0201000D02*
X0167304Y0201068D01*
X0166872Y0201500D01*
X0165872Y0202500D02*
X0165372Y0203000D01*
X0163700Y0203000D02*
X0159911Y0203000D01*
X0159411Y0203500D02*
X0160848Y0202063D01*
X0160859Y0202052D01*
X0160859Y0202000D01*
X0162700Y0202000D01*
X0163200Y0202500D02*
X0160411Y0202500D01*
X0160859Y0202000D02*
X0160859Y0201500D01*
X0162200Y0201500D01*
X0160859Y0201500D02*
X0160859Y0201000D01*
X0160859Y0200500D02*
X0160859Y0200406D01*
X0160454Y0200000D01*
X0159954Y0199500D02*
X0159875Y0199421D01*
X0159406Y0198952D01*
X0159643Y0198500D02*
X0159143Y0198000D01*
X0157038Y0198000D01*
X0157438Y0197600D01*
X0158743Y0197600D01*
X0159143Y0198000D01*
X0160406Y0197000D02*
X0160859Y0197453D01*
X0160859Y0197500D01*
X0159906Y0196500D02*
X0159406Y0196000D01*
X0156775Y0196000D02*
X0156306Y0196469D01*
X0155322Y0197453D01*
X0155322Y0197500D01*
X0154413Y0197500D01*
X0154413Y0197000D01*
X0155775Y0197000D01*
X0155322Y0197500D02*
X0155322Y0198000D01*
X0154413Y0198000D01*
X0154413Y0197500D01*
X0154413Y0197000D02*
X0154413Y0196500D01*
X0156275Y0196500D01*
X0157038Y0198000D02*
X0156922Y0198115D01*
X0156922Y0198437D01*
X0156985Y0198500D01*
X0155722Y0199500D02*
X0154413Y0199500D01*
X0154413Y0199000D01*
X0155322Y0199000D01*
X0155322Y0199100D01*
X0155333Y0199110D01*
X0156775Y0200552D01*
X0158743Y0200552D01*
X0159191Y0201000D01*
X0156533Y0201000D01*
X0156454Y0200921D01*
X0155791Y0200921D01*
X0155712Y0201000D01*
X0154413Y0201000D01*
X0154413Y0200500D01*
X0156722Y0200500D01*
X0156533Y0201000D02*
X0157033Y0201500D01*
X0159148Y0201500D01*
X0158743Y0201905D01*
X0157438Y0201905D01*
X0157033Y0201500D01*
X0155712Y0201000D02*
X0155322Y0201389D01*
X0155322Y0201500D01*
X0154413Y0201500D01*
X0154413Y0201000D01*
X0154413Y0200500D02*
X0154413Y0200000D01*
X0156222Y0200000D01*
X0155322Y0199000D02*
X0155322Y0198500D01*
X0154413Y0198500D01*
X0154413Y0198000D01*
X0154413Y0198500D02*
X0154413Y0199000D01*
X0154413Y0199500D02*
X0154413Y0200000D01*
X0154413Y0201500D02*
X0154413Y0202000D01*
X0155322Y0202000D01*
X0155322Y0202052D01*
X0155770Y0202500D01*
X0154413Y0202500D01*
X0154413Y0202000D01*
X0154413Y0202500D02*
X0154413Y0203000D01*
X0156270Y0203000D01*
X0156770Y0203500D01*
X0156270Y0203000D02*
X0155770Y0202500D01*
X0155322Y0202000D02*
X0155322Y0201500D01*
X0154413Y0203000D02*
X0154413Y0203036D01*
X0153950Y0203500D01*
X0153277Y0203500D02*
X0152813Y0203036D01*
X0152813Y0203000D01*
X0150477Y0203000D01*
X0150477Y0202500D01*
X0152813Y0202500D01*
X0152813Y0203000D01*
X0152813Y0202500D02*
X0152813Y0202000D01*
X0150477Y0202000D01*
X0150477Y0201500D01*
X0152813Y0201500D01*
X0152813Y0202000D01*
X0152813Y0201500D02*
X0152813Y0201000D01*
X0150477Y0201000D01*
X0150477Y0200552D01*
X0152813Y0200552D01*
X0152813Y0201000D01*
X0152813Y0198952D02*
X0150477Y0198952D01*
X0150477Y0198500D01*
X0152813Y0198500D01*
X0152813Y0198952D01*
X0152813Y0198500D02*
X0152813Y0198000D01*
X0150477Y0198000D01*
X0150477Y0197500D01*
X0152813Y0197500D01*
X0152813Y0198000D01*
X0152813Y0197500D02*
X0152813Y0197000D01*
X0150477Y0197000D01*
X0150477Y0196500D01*
X0152813Y0196500D01*
X0152813Y0197000D01*
X0152813Y0196500D02*
X0152813Y0196469D01*
X0153282Y0196000D01*
X0153945Y0196000D02*
X0154413Y0196469D01*
X0154413Y0196500D01*
X0155322Y0198000D02*
X0155322Y0198500D01*
X0159191Y0201000D02*
X0159259Y0201068D01*
X0159259Y0201389D01*
X0159148Y0201500D01*
X0165704Y0198500D02*
X0165704Y0198000D01*
X0165704Y0197500D02*
X0165704Y0197000D01*
X0165704Y0196500D02*
X0165704Y0196469D01*
X0166173Y0196000D01*
X0166836Y0196000D02*
X0167304Y0196469D01*
X0167304Y0196500D01*
X0167304Y0197000D02*
X0167304Y0197500D01*
X0150477Y0197500D02*
X0150477Y0197000D01*
X0150477Y0196500D02*
X0150477Y0196469D01*
X0150008Y0196000D01*
X0149345Y0196000D02*
X0148877Y0196469D01*
X0148877Y0196500D01*
X0141522Y0196500D01*
X0141522Y0196469D01*
X0141054Y0196000D01*
X0141522Y0196500D02*
X0141522Y0197000D01*
X0148877Y0197000D01*
X0148877Y0197500D01*
X0141522Y0197500D01*
X0141522Y0197000D01*
X0141522Y0197500D02*
X0141522Y0198000D01*
X0148877Y0198000D01*
X0148877Y0198500D01*
X0141522Y0198500D01*
X0141522Y0198000D01*
X0141522Y0198500D02*
X0141522Y0199000D01*
X0148877Y0199000D01*
X0148877Y0199500D01*
X0141522Y0199500D01*
X0141522Y0199000D01*
X0141522Y0199500D02*
X0141522Y0200000D01*
X0148877Y0200000D01*
X0148877Y0200500D01*
X0141522Y0200500D01*
X0141522Y0200000D01*
X0141522Y0200500D02*
X0141522Y0201000D01*
X0148877Y0201000D01*
X0148877Y0201500D01*
X0141522Y0201500D01*
X0141522Y0201000D01*
X0141522Y0201500D02*
X0141522Y0202000D01*
X0148877Y0202000D01*
X0148877Y0202500D01*
X0141522Y0202500D01*
X0141522Y0202000D01*
X0141522Y0202500D02*
X0141522Y0203000D01*
X0148877Y0203000D01*
X0148877Y0203036D01*
X0149345Y0203505D01*
X0150013Y0203500D02*
X0150477Y0203036D01*
X0150477Y0203000D01*
X0150477Y0202500D02*
X0150477Y0202000D01*
X0150477Y0201500D02*
X0150477Y0201000D01*
X0148877Y0201000D02*
X0148877Y0200500D01*
X0148877Y0200000D02*
X0148877Y0199500D01*
X0148877Y0199000D02*
X0148877Y0198500D01*
X0148877Y0198000D02*
X0148877Y0197500D01*
X0148877Y0197000D02*
X0148877Y0196500D01*
X0150477Y0198000D02*
X0150477Y0198500D01*
X0148877Y0201500D02*
X0148877Y0202000D01*
X0148877Y0202500D02*
X0148877Y0203000D01*
X0141522Y0203036D02*
X0141522Y0203000D01*
X0141522Y0203036D02*
X0141059Y0203500D01*
X0139922Y0201905D02*
X0139922Y0201500D01*
X0137696Y0201500D01*
X0137586Y0201389D02*
X0138101Y0201905D01*
X0139922Y0201905D01*
X0139922Y0201500D02*
X0139922Y0201000D01*
X0137654Y0201000D01*
X0137586Y0201068D02*
X0138101Y0200552D01*
X0139922Y0200552D01*
X0139922Y0201000D01*
X0139922Y0198952D02*
X0138101Y0198952D01*
X0137649Y0198500D01*
X0139922Y0198500D01*
X0139922Y0198952D01*
X0139922Y0198500D02*
X0139922Y0198000D01*
X0137701Y0198000D01*
X0138101Y0197600D01*
X0139922Y0197600D01*
X0139922Y0198000D01*
X0137701Y0198000D02*
X0137586Y0198115D01*
X0137586Y0198437D01*
X0137649Y0198500D01*
X0136639Y0199752D02*
X0135986Y0200406D01*
X0135986Y0200500D01*
X0133109Y0200500D01*
X0133109Y0200000D01*
X0136391Y0200000D01*
X0136639Y0199752D02*
X0136386Y0199500D01*
X0133109Y0199500D01*
X0133109Y0199000D01*
X0135986Y0199000D01*
X0135986Y0199100D01*
X0136386Y0199500D01*
X0135986Y0199000D02*
X0135986Y0198500D01*
X0133109Y0198500D01*
X0133109Y0198000D01*
X0135986Y0198000D01*
X0135986Y0198500D01*
X0135986Y0198000D02*
X0135986Y0197500D01*
X0133109Y0197500D01*
X0133109Y0197000D01*
X0136439Y0197000D01*
X0135986Y0197453D01*
X0135986Y0197500D01*
X0136439Y0197000D02*
X0136939Y0196500D01*
X0133109Y0196500D01*
X0133109Y0196469D01*
X0132640Y0196000D01*
X0131977Y0196000D02*
X0131509Y0196469D01*
X0131509Y0196500D01*
X0128631Y0196500D01*
X0128631Y0196469D01*
X0128163Y0196000D01*
X0127500Y0196000D02*
X0127031Y0196469D01*
X0127031Y0196500D01*
X0124695Y0196500D01*
X0124695Y0196469D01*
X0124517Y0196290D01*
X0124377Y0196081D01*
X0124289Y0196063D01*
X0124226Y0196000D01*
X0123563Y0196000D02*
X0123385Y0196178D01*
X0123175Y0196318D01*
X0123158Y0196406D01*
X0123095Y0196469D01*
X0123095Y0196500D01*
X0119125Y0196500D01*
X0119125Y0196000D01*
X0119125Y0195500D02*
X0119125Y0195000D01*
X0119125Y0194500D02*
X0119125Y0194000D01*
X0119125Y0193500D02*
X0119125Y0193000D01*
X0119125Y0196500D02*
X0119125Y0197000D01*
X0123067Y0197000D01*
X0123045Y0196968D02*
X0123095Y0197042D01*
X0123095Y0197500D01*
X0119125Y0197500D01*
X0119125Y0197000D01*
X0119125Y0197500D02*
X0119125Y0198000D01*
X0123095Y0198000D01*
X0123095Y0198500D01*
X0119125Y0198500D01*
X0119125Y0198000D01*
X0119125Y0198500D02*
X0119125Y0199000D01*
X0123095Y0199000D01*
X0123095Y0199500D01*
X0119125Y0199500D01*
X0119125Y0199000D01*
X0119125Y0199500D02*
X0119125Y0200000D01*
X0123095Y0200000D01*
X0123095Y0200500D01*
X0119125Y0200500D01*
X0119125Y0200000D01*
X0119125Y0200500D02*
X0119125Y0201000D01*
X0123095Y0201000D01*
X0123095Y0201500D01*
X0119125Y0201500D01*
X0119125Y0201000D01*
X0119125Y0201500D02*
X0119125Y0202000D01*
X0123095Y0202000D01*
X0123095Y0202500D01*
X0119125Y0202500D01*
X0119125Y0202000D01*
X0119125Y0202500D02*
X0119125Y0203000D01*
X0123095Y0203000D01*
X0123095Y0203036D01*
X0123558Y0203500D01*
X0124231Y0203500D02*
X0127495Y0203500D01*
X0128168Y0203500D02*
X0128341Y0203327D01*
X0128551Y0203187D01*
X0128569Y0203100D01*
X0128631Y0203036D01*
X0128631Y0203000D01*
X0129540Y0203000D01*
X0129540Y0203036D01*
X0130004Y0203500D01*
X0129540Y0203000D02*
X0129540Y0202500D01*
X0128656Y0202500D01*
X0128631Y0202463D01*
X0128631Y0202000D01*
X0129914Y0202000D01*
X0130009Y0201905D02*
X0129540Y0202374D01*
X0129540Y0202500D01*
X0130009Y0201905D02*
X0131509Y0201905D01*
X0131509Y0201500D01*
X0128631Y0201500D01*
X0128631Y0201000D01*
X0131509Y0201000D01*
X0131509Y0201500D01*
X0131509Y0201000D02*
X0131509Y0200500D01*
X0128631Y0200500D01*
X0128631Y0200000D01*
X0131509Y0200000D01*
X0131509Y0200500D01*
X0131509Y0200000D02*
X0131509Y0199500D01*
X0128631Y0199500D01*
X0128631Y0199000D01*
X0131509Y0199000D01*
X0131509Y0199500D01*
X0131509Y0199000D02*
X0131509Y0198500D01*
X0128631Y0198500D01*
X0128631Y0198000D01*
X0131509Y0198000D01*
X0131509Y0198500D01*
X0131509Y0198000D02*
X0131509Y0197500D01*
X0128631Y0197500D01*
X0128631Y0197000D01*
X0131509Y0197000D01*
X0131509Y0197500D01*
X0131509Y0197000D02*
X0131509Y0196500D01*
X0133109Y0196500D02*
X0133109Y0197000D01*
X0133109Y0197500D02*
X0133109Y0198000D01*
X0133109Y0198500D02*
X0133109Y0199000D01*
X0133109Y0199500D02*
X0133109Y0200000D01*
X0133109Y0200500D02*
X0133109Y0201000D01*
X0135986Y0201000D01*
X0135986Y0201500D01*
X0133109Y0201500D01*
X0133109Y0201000D01*
X0133109Y0201500D02*
X0133109Y0201905D01*
X0134608Y0201905D01*
X0135077Y0202374D01*
X0135077Y0202500D01*
X0136433Y0202500D01*
X0136933Y0203000D01*
X0135077Y0203000D01*
X0135077Y0202500D01*
X0135077Y0203000D02*
X0135077Y0203036D01*
X0134613Y0203500D01*
X0134703Y0202000D02*
X0135986Y0202000D01*
X0135986Y0202052D01*
X0136433Y0202500D01*
X0135986Y0202000D02*
X0135986Y0201500D01*
X0135986Y0201000D02*
X0135986Y0200500D01*
X0137586Y0201068D02*
X0137586Y0201389D01*
X0136933Y0203000D02*
X0137433Y0203500D01*
X0128681Y0202537D02*
X0128656Y0202500D01*
X0128681Y0202537D02*
X0128631Y0202784D01*
X0128631Y0203000D01*
X0128631Y0202000D02*
X0128631Y0201500D01*
X0128631Y0201000D02*
X0128631Y0200500D01*
X0128631Y0200000D02*
X0128631Y0199500D01*
X0128631Y0199000D02*
X0128631Y0198500D01*
X0128631Y0198000D02*
X0128631Y0197500D01*
X0128631Y0197000D02*
X0128631Y0196500D01*
X0127031Y0196500D02*
X0127031Y0197000D01*
X0124990Y0197000D01*
X0124695Y0196558D02*
X0127031Y0200063D01*
X0127031Y0200000D01*
X0126990Y0200000D01*
X0127031Y0200000D02*
X0127031Y0199500D01*
X0126656Y0199500D01*
X0127031Y0199500D02*
X0127031Y0199000D01*
X0126323Y0199000D01*
X0125990Y0198500D02*
X0127031Y0198500D01*
X0127031Y0199000D01*
X0127031Y0198500D02*
X0127031Y0198000D01*
X0125656Y0198000D01*
X0125323Y0197500D02*
X0127031Y0197500D01*
X0127031Y0198000D01*
X0127031Y0197500D02*
X0127031Y0197000D01*
X0124695Y0196558D02*
X0124695Y0196500D01*
X0123095Y0196500D02*
X0123095Y0196721D01*
X0123045Y0196968D01*
X0123095Y0197500D02*
X0123095Y0198000D01*
X0123095Y0198500D02*
X0123095Y0199000D01*
X0123095Y0199500D02*
X0123095Y0200000D01*
X0123095Y0200500D02*
X0123095Y0201000D01*
X0123095Y0201500D02*
X0123095Y0202000D01*
X0123095Y0202500D02*
X0123095Y0203000D01*
X0124695Y0203000D02*
X0124695Y0202500D01*
X0126733Y0202500D01*
X0127031Y0202947D02*
X0127031Y0203000D01*
X0127031Y0202947D02*
X0124733Y0199500D01*
X0124695Y0199500D01*
X0124695Y0199442D01*
X0124733Y0199500D01*
X0124695Y0199500D02*
X0124695Y0200000D01*
X0125067Y0200000D01*
X0124695Y0200000D02*
X0124695Y0200500D01*
X0125400Y0200500D01*
X0125733Y0201000D02*
X0124695Y0201000D01*
X0124695Y0200500D01*
X0124695Y0201000D02*
X0124695Y0201500D01*
X0126067Y0201500D01*
X0126400Y0202000D02*
X0124695Y0202000D01*
X0124695Y0201500D01*
X0124695Y0202000D02*
X0124695Y0202500D01*
X0119125Y0203000D02*
X0119125Y0203500D01*
X0119125Y0204000D02*
X0119125Y0204500D01*
X0119125Y0205000D02*
X0119125Y0205500D01*
X0119125Y0206000D02*
X0119125Y0206500D01*
X0136939Y0196500D02*
X0137439Y0196000D01*
X0111554Y0179560D02*
X0110803Y0180310D01*
X0107801Y0177308D01*
X0107050Y0178058D01*
X0107050Y0179560D01*
X0107801Y0180310D01*
X0110803Y0180310D01*
X0111554Y0179560D02*
X0111554Y0178058D01*
X0110803Y0177308D01*
X0107801Y0177308D01*
X0107050Y0175706D02*
X0107050Y0172704D01*
X0107050Y0174205D02*
X0111554Y0174205D01*
X0110053Y0172704D01*
X0111554Y0171103D02*
X0107801Y0171103D01*
X0107050Y0170352D01*
X0107050Y0168851D01*
X0107801Y0168100D01*
X0111554Y0168100D01*
X0053466Y0181894D02*
X0052715Y0181143D01*
X0051214Y0181143D01*
X0050463Y0181894D01*
X0050463Y0185647D01*
X0048862Y0184897D02*
X0048111Y0185647D01*
X0046610Y0185647D01*
X0045859Y0184897D01*
X0046610Y0183395D02*
X0048111Y0183395D01*
X0048862Y0184146D01*
X0048862Y0184897D01*
X0047361Y0186398D02*
X0047361Y0180393D01*
X0048111Y0181143D02*
X0046610Y0181143D01*
X0045859Y0181894D01*
X0045859Y0182645D01*
X0046610Y0183395D01*
X0044258Y0183395D02*
X0042757Y0184146D01*
X0042006Y0184146D01*
X0041255Y0183395D01*
X0041255Y0181894D01*
X0042006Y0181143D01*
X0043507Y0181143D01*
X0044258Y0181894D01*
X0044258Y0183395D02*
X0044258Y0185647D01*
X0041255Y0185647D01*
X0039654Y0184146D02*
X0038153Y0185647D01*
X0038153Y0181143D01*
X0039654Y0181143D02*
X0036651Y0181143D01*
X0048111Y0181143D02*
X0048862Y0181894D01*
X0053466Y0181894D02*
X0053466Y0185647D01*
X0068607Y0243300D02*
X0067857Y0244051D01*
X0067857Y0245552D01*
X0068607Y0246303D01*
X0072361Y0246303D01*
X0071610Y0247904D02*
X0072361Y0248655D01*
X0072361Y0250156D01*
X0071610Y0250906D01*
X0071610Y0252508D02*
X0072361Y0253258D01*
X0072361Y0254760D01*
X0071610Y0255510D01*
X0070859Y0255510D01*
X0070109Y0254760D01*
X0069358Y0255510D01*
X0068607Y0255510D01*
X0067857Y0254760D01*
X0067857Y0253258D01*
X0068607Y0252508D01*
X0068607Y0250906D02*
X0069358Y0250906D01*
X0070109Y0250156D01*
X0070109Y0248655D01*
X0070859Y0247904D01*
X0071610Y0247904D01*
X0073111Y0249405D02*
X0067106Y0249405D01*
X0067857Y0248655D02*
X0067857Y0250156D01*
X0068607Y0250906D01*
X0067857Y0248655D02*
X0068607Y0247904D01*
X0068607Y0243300D02*
X0072361Y0243300D01*
X0070109Y0254009D02*
X0070109Y0254760D01*
X0071610Y0257112D02*
X0072361Y0257862D01*
X0072361Y0259364D01*
X0071610Y0260114D01*
X0068607Y0257112D01*
X0067857Y0257862D01*
X0067857Y0259364D01*
X0068607Y0260114D01*
X0071610Y0260114D01*
X0071610Y0257112D02*
X0068607Y0257112D01*
X0302547Y0212640D02*
X0302547Y0212625D01*
X0304884Y0212625D01*
X0304884Y0213125D01*
X0303033Y0213125D01*
X0302547Y0212640D01*
X0302547Y0212625D02*
X0302547Y0212125D01*
X0304884Y0212125D01*
X0304884Y0212625D01*
X0304884Y0213125D02*
X0304884Y0213155D01*
X0303063Y0213155D01*
X0303033Y0213125D01*
X0302547Y0212125D02*
X0302547Y0211625D01*
X0304884Y0211625D01*
X0304884Y0212125D01*
X0304884Y0211625D02*
X0304884Y0211125D01*
X0302756Y0211125D01*
X0302547Y0211334D02*
X0303063Y0210818D01*
X0304884Y0210818D01*
X0304884Y0211125D01*
X0302547Y0211334D02*
X0302547Y0211625D01*
X0308993Y0210125D02*
X0308993Y0209981D01*
X0309136Y0210125D01*
X0309899Y0208625D02*
X0310423Y0208625D01*
X0312929Y0208625D02*
X0317775Y0208625D01*
X0317775Y0209125D01*
X0312929Y0209125D01*
X0312929Y0208625D01*
X0312929Y0208125D01*
X0317775Y0208125D01*
X0317775Y0208625D01*
X0317775Y0209125D02*
X0317775Y0209218D01*
X0315291Y0209218D01*
X0314884Y0209625D01*
X0312929Y0209625D01*
X0312929Y0209125D01*
X0312929Y0209625D02*
X0312929Y0210125D01*
X0314384Y0210125D01*
X0313884Y0210625D01*
X0312929Y0210625D01*
X0312929Y0210125D01*
X0312929Y0210625D02*
X0312929Y0211125D01*
X0313838Y0211125D01*
X0313838Y0211625D01*
X0312929Y0211625D01*
X0312929Y0211125D01*
X0312929Y0211625D02*
X0312929Y0212125D01*
X0313838Y0212125D01*
X0313838Y0212625D01*
X0312929Y0212625D01*
X0312929Y0212125D01*
X0312929Y0212625D02*
X0312929Y0213125D01*
X0313838Y0213125D01*
X0313838Y0213302D01*
X0314161Y0213625D01*
X0312929Y0213625D01*
X0312929Y0213125D01*
X0312929Y0213625D02*
X0312929Y0214125D01*
X0314661Y0214125D01*
X0315161Y0214625D01*
X0314661Y0214125D02*
X0314161Y0213625D01*
X0313838Y0213125D02*
X0313838Y0212625D01*
X0313838Y0212125D02*
X0313838Y0211625D01*
X0313838Y0211125D02*
X0313838Y0210671D01*
X0313884Y0210625D01*
X0314384Y0210125D02*
X0314884Y0209625D01*
X0315954Y0210818D02*
X0317775Y0210818D01*
X0317775Y0211125D01*
X0315647Y0211125D01*
X0315438Y0211334D02*
X0315954Y0210818D01*
X0315438Y0211334D02*
X0315438Y0211625D01*
X0317775Y0211625D01*
X0317775Y0212125D01*
X0315438Y0212125D01*
X0315438Y0211625D01*
X0315438Y0212125D02*
X0315438Y0212625D01*
X0317775Y0212625D01*
X0317775Y0213125D01*
X0315924Y0213125D01*
X0315438Y0212640D01*
X0315438Y0212625D01*
X0315924Y0213125D02*
X0315954Y0213155D01*
X0317775Y0213155D01*
X0317775Y0213125D01*
X0317775Y0212625D02*
X0317775Y0212125D01*
X0317775Y0211625D02*
X0317775Y0211125D01*
X0319375Y0211125D02*
X0319375Y0211625D01*
X0319375Y0212125D02*
X0319375Y0212625D01*
X0319375Y0213125D02*
X0319375Y0213625D01*
X0319375Y0214125D02*
X0319375Y0214286D01*
X0319036Y0214625D01*
X0319375Y0210625D02*
X0319375Y0210125D01*
X0319375Y0209625D02*
X0319375Y0209125D01*
X0319375Y0208625D02*
X0319375Y0208125D01*
X0317869Y0207625D02*
X0317775Y0207719D01*
X0317775Y0208125D01*
X0312929Y0208125D02*
X0312929Y0207719D01*
X0312929Y0214125D02*
X0312929Y0214286D01*
X0312591Y0214625D01*
X0274125Y0115000D02*
X0249125Y0115000D01*
X0249125Y0108750D01*
X0269750Y0108750D01*
X0269750Y0103750D01*
X0268500Y0105000D01*
X0269750Y0103750D02*
X0271000Y0105000D01*
X0269750Y0108750D02*
X0274125Y0108750D01*
X0274125Y0115000D01*
X0307250Y0100000D02*
X0307250Y0098750D01*
X0308500Y0098750D01*
X0307250Y0098750D02*
X0309750Y0101250D01*
X0309750Y0107500D01*
X0322875Y0107500D01*
X0322875Y0101250D01*
X0309750Y0101250D01*
X0264750Y0078125D02*
X0263500Y0079375D01*
X0262250Y0078125D01*
X0263500Y0076875D02*
X0263500Y0079375D01*
X0263500Y0076875D02*
X0265375Y0075000D01*
X0265375Y0058125D01*
X0272250Y0058125D01*
X0272250Y0032500D01*
X0258500Y0032500D01*
X0258500Y0058125D01*
X0265375Y0058125D01*
X0268426Y0068100D02*
X0267675Y0068851D01*
X0267675Y0070352D01*
X0268426Y0071103D01*
X0272179Y0071103D01*
X0271428Y0072704D02*
X0272179Y0073455D01*
X0272179Y0074956D01*
X0271428Y0075706D01*
X0270678Y0075706D01*
X0269927Y0074956D01*
X0269176Y0075706D01*
X0268426Y0075706D01*
X0267675Y0074956D01*
X0267675Y0073455D01*
X0268426Y0072704D01*
X0269927Y0074205D02*
X0269927Y0074956D01*
X0268426Y0068100D02*
X0272179Y0068100D01*
X0227625Y0097619D02*
X0227625Y0100621D01*
X0224622Y0097619D01*
X0223872Y0097619D01*
X0223121Y0098369D01*
X0223121Y0099870D01*
X0223872Y0100621D01*
X0223121Y0102222D02*
X0226874Y0102222D01*
X0227625Y0102973D01*
X0227625Y0104474D01*
X0226874Y0105225D01*
X0223121Y0105225D01*
X0121625Y0050000D02*
X0112250Y0050000D01*
X0112250Y0046250D01*
X0093500Y0046250D01*
X0092875Y0046875D01*
X0092875Y0048750D01*
X0091625Y0047500D01*
X0092875Y0048750D02*
X0094125Y0047500D01*
X0112250Y0046250D02*
X0112250Y0043125D01*
X0121625Y0043125D01*
X0121625Y0050000D01*
X0056635Y0025118D02*
X0056635Y0014882D01*
X0039115Y0014882D02*
X0039115Y0025118D01*
D12*
X0043717Y0036289D02*
X0008283Y0036289D01*
X0008283Y0092392D01*
X0012220Y0092392D01*
X0012220Y0110108D01*
X0008283Y0110108D01*
X0008283Y0166211D01*
X0043717Y0166211D01*
X0043717Y0036289D01*
X0069750Y0045500D02*
X0074750Y0045500D01*
X0074750Y0057000D01*
X0069750Y0057000D01*
X0069750Y0045500D01*
X0077166Y0049975D02*
X0077166Y0056275D01*
X0081103Y0056275D02*
X0084647Y0056275D01*
X0088584Y0056275D02*
X0088584Y0049975D01*
X0090375Y0049250D02*
X0095375Y0049250D01*
X0095375Y0060750D01*
X0090375Y0060750D01*
X0090375Y0049250D01*
X0096875Y0048750D02*
X0103875Y0048750D01*
X0103875Y0063750D01*
X0096875Y0063750D01*
X0096875Y0048750D01*
X0096000Y0042250D02*
X0096000Y0035250D01*
X0111000Y0035250D01*
X0111000Y0042250D01*
X0096000Y0042250D01*
X0063450Y0058007D02*
X0063399Y0057898D01*
X0063344Y0057790D01*
X0063286Y0057685D01*
X0063224Y0057581D01*
X0063159Y0057480D01*
X0063091Y0057381D01*
X0063019Y0057284D01*
X0062944Y0057189D01*
X0062867Y0057097D01*
X0062786Y0057008D01*
X0062702Y0056921D01*
X0062615Y0056837D01*
X0062526Y0056756D01*
X0062434Y0056678D01*
X0062340Y0056603D01*
X0062243Y0056532D01*
X0062144Y0056463D01*
X0062043Y0056398D01*
X0061939Y0056336D01*
X0061834Y0056277D01*
X0061727Y0056222D01*
X0061618Y0056171D01*
X0061507Y0056123D01*
X0061395Y0056079D01*
X0061281Y0056039D01*
X0061167Y0056002D01*
X0061051Y0055969D01*
X0060934Y0055940D01*
X0060816Y0055915D01*
X0060697Y0055894D01*
X0060578Y0055876D01*
X0060458Y0055863D01*
X0060338Y0055853D01*
X0060218Y0055848D01*
X0060097Y0055846D01*
X0059977Y0055848D01*
X0059856Y0055855D01*
X0059736Y0055865D01*
X0059616Y0055879D01*
X0059497Y0055897D01*
X0059379Y0055920D01*
X0059261Y0055945D01*
X0059144Y0055975D01*
X0059029Y0056009D01*
X0058914Y0056046D01*
X0058801Y0056088D01*
X0058689Y0056132D01*
X0058579Y0056181D01*
X0058470Y0056233D01*
X0058363Y0056289D01*
X0058258Y0056348D01*
X0058155Y0056410D01*
X0058054Y0056476D01*
X0057955Y0056546D01*
X0057859Y0056618D01*
X0057765Y0056694D01*
X0057674Y0056772D01*
X0057585Y0056854D01*
X0057499Y0056938D01*
X0057416Y0057025D01*
X0057336Y0057115D01*
X0057259Y0057208D01*
X0057184Y0057303D01*
X0057113Y0057400D01*
X0057046Y0057500D01*
X0056981Y0057602D01*
X0056920Y0057706D01*
X0056862Y0057812D01*
X0056808Y0057919D01*
X0056758Y0058029D01*
X0056711Y0058140D01*
X0056668Y0058252D01*
X0056628Y0058366D01*
X0056592Y0058481D01*
X0056560Y0058597D01*
X0056561Y0058597D02*
X0055183Y0072968D01*
X0057939Y0073558D01*
X0061482Y0074149D01*
X0063844Y0067849D01*
X0061482Y0067062D01*
X0061437Y0067044D01*
X0061393Y0067021D01*
X0061351Y0066996D01*
X0061311Y0066967D01*
X0061274Y0066935D01*
X0061239Y0066900D01*
X0061208Y0066862D01*
X0061179Y0066822D01*
X0061153Y0066780D01*
X0061131Y0066737D01*
X0061113Y0066691D01*
X0061098Y0066644D01*
X0061086Y0066596D01*
X0061079Y0066548D01*
X0061075Y0066499D01*
X0061076Y0066450D01*
X0061080Y0066401D01*
X0061088Y0066352D01*
X0061100Y0066304D01*
X0061115Y0066258D01*
X0061134Y0066213D01*
X0061157Y0066169D01*
X0061183Y0066127D01*
X0061212Y0066088D01*
X0061245Y0066051D01*
X0061280Y0066016D01*
X0061317Y0065985D01*
X0061357Y0065956D01*
X0061400Y0065931D01*
X0061444Y0065909D01*
X0061489Y0065891D01*
X0061536Y0065876D01*
X0061584Y0065865D01*
X0061633Y0065858D01*
X0061682Y0065855D01*
X0061731Y0065856D01*
X0061780Y0065860D01*
X0061828Y0065869D01*
X0061876Y0065881D01*
X0064238Y0066668D01*
X0063450Y0058007D02*
X0063399Y0057898D01*
X0063344Y0057790D01*
X0063286Y0057685D01*
X0063224Y0057581D01*
X0063159Y0057480D01*
X0063091Y0057381D01*
X0063019Y0057284D01*
X0062944Y0057189D01*
X0062867Y0057097D01*
X0062786Y0057008D01*
X0062702Y0056921D01*
X0062615Y0056837D01*
X0062526Y0056756D01*
X0062434Y0056678D01*
X0062340Y0056603D01*
X0062243Y0056532D01*
X0062144Y0056463D01*
X0062043Y0056398D01*
X0061939Y0056336D01*
X0061834Y0056277D01*
X0061727Y0056222D01*
X0061618Y0056171D01*
X0061507Y0056123D01*
X0061395Y0056079D01*
X0061281Y0056039D01*
X0061167Y0056002D01*
X0061051Y0055969D01*
X0060934Y0055940D01*
X0060816Y0055915D01*
X0060697Y0055894D01*
X0060578Y0055876D01*
X0060458Y0055863D01*
X0060338Y0055853D01*
X0060218Y0055848D01*
X0060097Y0055846D01*
X0059977Y0055848D01*
X0059856Y0055855D01*
X0059736Y0055865D01*
X0059616Y0055879D01*
X0059497Y0055897D01*
X0059379Y0055920D01*
X0059261Y0055945D01*
X0059144Y0055975D01*
X0059029Y0056009D01*
X0058914Y0056046D01*
X0058801Y0056088D01*
X0058689Y0056132D01*
X0058579Y0056181D01*
X0058470Y0056233D01*
X0058363Y0056289D01*
X0058258Y0056348D01*
X0058155Y0056410D01*
X0058054Y0056476D01*
X0057955Y0056546D01*
X0057859Y0056618D01*
X0057765Y0056694D01*
X0057674Y0056772D01*
X0057585Y0056854D01*
X0057499Y0056938D01*
X0057416Y0057025D01*
X0057336Y0057115D01*
X0057259Y0057208D01*
X0057184Y0057303D01*
X0057113Y0057400D01*
X0057046Y0057500D01*
X0056981Y0057602D01*
X0056920Y0057706D01*
X0056862Y0057812D01*
X0056808Y0057919D01*
X0056758Y0058029D01*
X0056711Y0058140D01*
X0056668Y0058252D01*
X0056628Y0058366D01*
X0056592Y0058481D01*
X0056560Y0058597D01*
X0056592Y0058481D01*
X0056628Y0058366D01*
X0056668Y0058252D01*
X0056711Y0058140D01*
X0056758Y0058029D01*
X0056808Y0057919D01*
X0056862Y0057812D01*
X0056920Y0057706D01*
X0056981Y0057602D01*
X0057046Y0057500D01*
X0057113Y0057400D01*
X0057184Y0057303D01*
X0057259Y0057208D01*
X0057336Y0057115D01*
X0057416Y0057025D01*
X0057499Y0056938D01*
X0057585Y0056854D01*
X0057674Y0056772D01*
X0057765Y0056694D01*
X0057859Y0056618D01*
X0057955Y0056546D01*
X0058054Y0056476D01*
X0058155Y0056410D01*
X0058258Y0056348D01*
X0058363Y0056289D01*
X0058470Y0056233D01*
X0058579Y0056181D01*
X0058689Y0056132D01*
X0058801Y0056088D01*
X0058914Y0056046D01*
X0059029Y0056009D01*
X0059144Y0055975D01*
X0059261Y0055945D01*
X0059379Y0055920D01*
X0059497Y0055897D01*
X0059616Y0055879D01*
X0059736Y0055865D01*
X0059856Y0055855D01*
X0059977Y0055848D01*
X0060097Y0055846D01*
X0060218Y0055848D01*
X0060338Y0055853D01*
X0060458Y0055863D01*
X0060578Y0055876D01*
X0060697Y0055894D01*
X0060816Y0055915D01*
X0060934Y0055940D01*
X0061051Y0055969D01*
X0061167Y0056002D01*
X0061281Y0056039D01*
X0061395Y0056079D01*
X0061507Y0056123D01*
X0061618Y0056171D01*
X0061727Y0056222D01*
X0061834Y0056277D01*
X0061939Y0056336D01*
X0062043Y0056398D01*
X0062144Y0056463D01*
X0062243Y0056532D01*
X0062340Y0056603D01*
X0062434Y0056678D01*
X0062526Y0056756D01*
X0062615Y0056837D01*
X0062702Y0056921D01*
X0062786Y0057008D01*
X0062867Y0057097D01*
X0062944Y0057189D01*
X0063019Y0057284D01*
X0063091Y0057381D01*
X0063159Y0057480D01*
X0063224Y0057581D01*
X0063286Y0057685D01*
X0063344Y0057790D01*
X0063399Y0057898D01*
X0063450Y0058007D01*
X0063451Y0058007D02*
X0063593Y0058472D01*
X0063724Y0058941D01*
X0063844Y0059413D01*
X0063953Y0059888D01*
X0064049Y0060366D01*
X0064134Y0060845D01*
X0064208Y0061327D01*
X0064270Y0061810D01*
X0064320Y0062294D01*
X0064358Y0062780D01*
X0064384Y0063266D01*
X0064399Y0063753D01*
X0064402Y0064240D01*
X0064392Y0064727D01*
X0064372Y0065213D01*
X0064339Y0065699D01*
X0064294Y0066184D01*
X0064238Y0066668D01*
X0050459Y0073755D02*
X0050459Y0099149D01*
X0054986Y0104464D01*
X0054986Y0130842D01*
X0051246Y0131235D02*
X0051246Y0157416D01*
X0062270Y0157416D01*
X0062270Y0153086D01*
X0079125Y0169875D02*
X0084125Y0169875D01*
X0084125Y0181375D01*
X0079125Y0181375D01*
X0079125Y0169875D01*
X0089701Y0191658D02*
X0089701Y0196777D01*
X0089701Y0191658D02*
X0102299Y0191658D01*
X0102299Y0196777D01*
X0055375Y0200750D02*
X0055375Y0189250D01*
X0050375Y0189250D01*
X0050375Y0200750D01*
X0055375Y0200750D01*
X0055375Y0201750D02*
X0050375Y0201750D01*
X0050375Y0213250D01*
X0055375Y0213250D01*
X0055375Y0201750D01*
X0089701Y0221973D02*
X0089701Y0227092D01*
X0102299Y0227092D01*
X0102299Y0221973D01*
X0101750Y0228750D02*
X0090250Y0228750D01*
X0090250Y0233750D01*
X0101750Y0233750D01*
X0101750Y0228750D01*
X0099250Y0235000D02*
X0087750Y0235000D01*
X0087750Y0240000D01*
X0099250Y0240000D01*
X0099250Y0235000D01*
X0086750Y0235000D02*
X0086750Y0240000D01*
X0075250Y0240000D01*
X0075250Y0235000D01*
X0086750Y0235000D01*
X0119000Y0259375D02*
X0130500Y0259375D01*
X0130500Y0264375D01*
X0119000Y0264375D01*
X0119000Y0259375D01*
X0131916Y0262400D02*
X0135691Y0262400D01*
X0131916Y0262400D02*
X0131916Y0267569D01*
X0134000Y0272500D02*
X0145500Y0272500D01*
X0145500Y0277500D01*
X0134000Y0277500D01*
X0134000Y0272500D01*
X0137569Y0267600D02*
X0139376Y0267600D01*
X0141309Y0262400D02*
X0145084Y0262400D01*
X0145084Y0267569D01*
X0236000Y0265875D02*
X0236000Y0272875D01*
X0251000Y0272875D01*
X0251000Y0265875D01*
X0236000Y0265875D01*
X0236000Y0264750D02*
X0236000Y0257750D01*
X0251000Y0257750D01*
X0251000Y0264750D01*
X0236000Y0264750D01*
X0257750Y0266875D02*
X0257750Y0261875D01*
X0269250Y0261875D01*
X0269250Y0266875D01*
X0257750Y0266875D01*
X0272500Y0261875D02*
X0272500Y0246875D01*
X0279500Y0246875D01*
X0279500Y0261875D01*
X0272500Y0261875D01*
X0287750Y0240000D02*
X0287750Y0235000D01*
X0299250Y0235000D01*
X0299250Y0240000D01*
X0287750Y0240000D01*
X0300250Y0240000D02*
X0300250Y0235000D01*
X0311750Y0235000D01*
X0311750Y0240000D01*
X0300250Y0240000D01*
X0331625Y0213250D02*
X0336625Y0213250D01*
X0336625Y0201750D01*
X0331625Y0201750D01*
X0331625Y0213250D01*
X0314967Y0201811D02*
X0279533Y0201811D01*
X0273628Y0188031D02*
X0273628Y0172283D01*
X0277565Y0172283D01*
X0277565Y0182126D01*
X0282486Y0182126D01*
X0312014Y0182126D02*
X0316935Y0182126D01*
X0316935Y0172283D01*
X0320872Y0172283D01*
X0320872Y0188031D01*
X0329000Y0185625D02*
X0329000Y0180625D01*
X0340500Y0180625D01*
X0340500Y0185625D01*
X0329000Y0185625D01*
X0331625Y0189250D02*
X0336625Y0189250D01*
X0336625Y0200750D01*
X0331625Y0200750D01*
X0331625Y0189250D01*
X0341500Y0185625D02*
X0341500Y0180625D01*
X0353000Y0180625D01*
X0353000Y0185625D01*
X0341500Y0185625D01*
X0336595Y0175217D02*
X0336595Y0139783D01*
X0364155Y0139783D01*
X0364155Y0175217D01*
X0336595Y0175217D01*
X0333875Y0175000D02*
X0326875Y0175000D01*
X0326875Y0160000D01*
X0333875Y0160000D01*
X0333875Y0175000D01*
X0330380Y0157416D02*
X0319356Y0157416D01*
X0319356Y0153086D01*
X0330380Y0157416D02*
X0330380Y0131235D01*
X0051246Y0131235D01*
X0325656Y0104857D02*
X0325430Y0097017D01*
X0325027Y0089185D01*
X0324446Y0081364D01*
X0323687Y0073558D01*
X0326443Y0072968D01*
X0325065Y0058597D01*
X0325066Y0058597D02*
X0325034Y0058481D01*
X0324998Y0058366D01*
X0324958Y0058252D01*
X0324915Y0058140D01*
X0324868Y0058029D01*
X0324818Y0057919D01*
X0324764Y0057812D01*
X0324706Y0057706D01*
X0324645Y0057602D01*
X0324580Y0057500D01*
X0324513Y0057400D01*
X0324442Y0057303D01*
X0324367Y0057208D01*
X0324290Y0057115D01*
X0324210Y0057025D01*
X0324127Y0056938D01*
X0324041Y0056854D01*
X0323952Y0056772D01*
X0323861Y0056694D01*
X0323767Y0056618D01*
X0323671Y0056546D01*
X0323572Y0056476D01*
X0323471Y0056410D01*
X0323368Y0056348D01*
X0323263Y0056289D01*
X0323156Y0056233D01*
X0323047Y0056181D01*
X0322937Y0056132D01*
X0322825Y0056088D01*
X0322712Y0056046D01*
X0322597Y0056009D01*
X0322482Y0055975D01*
X0322365Y0055945D01*
X0322247Y0055920D01*
X0322129Y0055897D01*
X0322010Y0055879D01*
X0321890Y0055865D01*
X0321770Y0055855D01*
X0321649Y0055848D01*
X0321529Y0055846D01*
X0321408Y0055848D01*
X0321288Y0055853D01*
X0321168Y0055863D01*
X0321048Y0055876D01*
X0320929Y0055894D01*
X0320810Y0055915D01*
X0320692Y0055940D01*
X0320575Y0055969D01*
X0320459Y0056002D01*
X0320345Y0056039D01*
X0320231Y0056079D01*
X0320119Y0056123D01*
X0320008Y0056171D01*
X0319899Y0056222D01*
X0319792Y0056277D01*
X0319687Y0056336D01*
X0319583Y0056398D01*
X0319482Y0056463D01*
X0319383Y0056532D01*
X0319286Y0056603D01*
X0319192Y0056678D01*
X0319100Y0056756D01*
X0319011Y0056837D01*
X0318924Y0056921D01*
X0318840Y0057008D01*
X0318759Y0057097D01*
X0318682Y0057189D01*
X0318607Y0057284D01*
X0318535Y0057381D01*
X0318467Y0057480D01*
X0318402Y0057581D01*
X0318340Y0057685D01*
X0318282Y0057790D01*
X0318227Y0057898D01*
X0318176Y0058007D01*
X0318227Y0057898D01*
X0318282Y0057790D01*
X0318340Y0057685D01*
X0318402Y0057581D01*
X0318467Y0057480D01*
X0318535Y0057381D01*
X0318607Y0057284D01*
X0318682Y0057189D01*
X0318759Y0057097D01*
X0318840Y0057008D01*
X0318924Y0056921D01*
X0319011Y0056837D01*
X0319100Y0056756D01*
X0319192Y0056678D01*
X0319286Y0056603D01*
X0319383Y0056532D01*
X0319482Y0056463D01*
X0319583Y0056398D01*
X0319687Y0056336D01*
X0319792Y0056277D01*
X0319899Y0056222D01*
X0320008Y0056171D01*
X0320119Y0056123D01*
X0320231Y0056079D01*
X0320345Y0056039D01*
X0320459Y0056002D01*
X0320575Y0055969D01*
X0320692Y0055940D01*
X0320810Y0055915D01*
X0320929Y0055894D01*
X0321048Y0055876D01*
X0321168Y0055863D01*
X0321288Y0055853D01*
X0321408Y0055848D01*
X0321529Y0055846D01*
X0321649Y0055848D01*
X0321770Y0055855D01*
X0321890Y0055865D01*
X0322010Y0055879D01*
X0322129Y0055897D01*
X0322247Y0055920D01*
X0322365Y0055945D01*
X0322482Y0055975D01*
X0322597Y0056009D01*
X0322712Y0056046D01*
X0322825Y0056088D01*
X0322937Y0056132D01*
X0323047Y0056181D01*
X0323156Y0056233D01*
X0323263Y0056289D01*
X0323368Y0056348D01*
X0323471Y0056410D01*
X0323572Y0056476D01*
X0323671Y0056546D01*
X0323767Y0056618D01*
X0323861Y0056694D01*
X0323952Y0056772D01*
X0324041Y0056854D01*
X0324127Y0056938D01*
X0324210Y0057025D01*
X0324290Y0057115D01*
X0324367Y0057208D01*
X0324442Y0057303D01*
X0324513Y0057400D01*
X0324580Y0057500D01*
X0324645Y0057602D01*
X0324706Y0057706D01*
X0324764Y0057812D01*
X0324818Y0057919D01*
X0324868Y0058029D01*
X0324915Y0058140D01*
X0324958Y0058252D01*
X0324998Y0058366D01*
X0325034Y0058481D01*
X0325066Y0058597D01*
X0319750Y0065881D02*
X0317388Y0066668D01*
X0317781Y0067849D02*
X0320144Y0067062D01*
X0320189Y0067044D01*
X0320233Y0067021D01*
X0320275Y0066996D01*
X0320315Y0066967D01*
X0320352Y0066935D01*
X0320387Y0066900D01*
X0320418Y0066862D01*
X0320447Y0066822D01*
X0320473Y0066780D01*
X0320495Y0066737D01*
X0320513Y0066691D01*
X0320528Y0066644D01*
X0320540Y0066596D01*
X0320547Y0066548D01*
X0320551Y0066499D01*
X0320550Y0066450D01*
X0320546Y0066401D01*
X0320538Y0066352D01*
X0320526Y0066304D01*
X0320511Y0066258D01*
X0320492Y0066213D01*
X0320469Y0066169D01*
X0320443Y0066127D01*
X0320414Y0066088D01*
X0320381Y0066051D01*
X0320346Y0066016D01*
X0320309Y0065985D01*
X0320269Y0065956D01*
X0320226Y0065931D01*
X0320182Y0065909D01*
X0320137Y0065891D01*
X0320090Y0065876D01*
X0320042Y0065865D01*
X0319993Y0065858D01*
X0319944Y0065855D01*
X0319895Y0065856D01*
X0319846Y0065860D01*
X0319798Y0065869D01*
X0319750Y0065881D01*
X0317781Y0067849D02*
X0320144Y0074149D01*
X0323687Y0073558D01*
X0331167Y0073755D02*
X0331167Y0099149D01*
X0326640Y0104464D01*
X0326640Y0130842D01*
X0346733Y0137072D02*
X0349883Y0133922D01*
X0349883Y0039828D01*
X0346733Y0036678D01*
X0346733Y0137072D01*
X0379017Y0137072D01*
X0375867Y0133922D01*
X0375867Y0094355D01*
X0375946Y0094355D02*
X0378741Y0094355D01*
X0378741Y0079395D02*
X0375946Y0079395D01*
X0375867Y0079395D02*
X0375867Y0039828D01*
X0379017Y0036678D01*
X0346733Y0036678D01*
X0349883Y0039828D02*
X0375867Y0039828D01*
X0379017Y0036678D02*
X0379017Y0137072D01*
X0375867Y0133922D02*
X0349883Y0133922D01*
X0300375Y0110750D02*
X0295375Y0110750D01*
X0295375Y0099250D01*
X0300375Y0099250D01*
X0300375Y0110750D01*
X0290375Y0111000D02*
X0290375Y0104000D01*
X0275375Y0104000D01*
X0275375Y0111000D01*
X0290375Y0111000D01*
X0291125Y0102500D02*
X0279625Y0102500D01*
X0279625Y0097500D01*
X0291125Y0097500D01*
X0291125Y0102500D01*
X0295375Y0097625D02*
X0295375Y0086125D01*
X0300375Y0086125D01*
X0300375Y0097625D01*
X0295375Y0097625D01*
X0301625Y0097625D02*
X0301625Y0086125D01*
X0306625Y0086125D01*
X0306625Y0097625D01*
X0301625Y0097625D01*
X0278625Y0097500D02*
X0278625Y0102500D01*
X0267125Y0102500D01*
X0267125Y0097500D01*
X0278625Y0097500D01*
X0264125Y0093000D02*
X0259125Y0093000D01*
X0259125Y0104500D01*
X0264125Y0104500D01*
X0264125Y0093000D01*
X0264125Y0092000D02*
X0259125Y0092000D01*
X0259125Y0080500D01*
X0264125Y0080500D01*
X0264125Y0092000D01*
X0257875Y0092000D02*
X0252875Y0092000D01*
X0252875Y0080500D01*
X0257875Y0080500D01*
X0257875Y0092000D01*
X0257875Y0093000D02*
X0252875Y0093000D01*
X0252875Y0104500D01*
X0257875Y0104500D01*
X0257875Y0093000D01*
X0246750Y0084750D02*
X0230250Y0084750D01*
X0230250Y0060250D01*
X0246750Y0060250D01*
X0246750Y0084750D01*
X0254375Y0078750D02*
X0261375Y0078750D01*
X0261375Y0063750D01*
X0254375Y0063750D01*
X0254375Y0078750D01*
X0274000Y0074375D02*
X0274000Y0069375D01*
X0285500Y0069375D01*
X0285500Y0074375D01*
X0274000Y0074375D01*
X0291320Y0073937D02*
X0291320Y0075709D01*
X0309430Y0075709D01*
X0309430Y0073937D01*
X0304312Y0073937D02*
X0304312Y0066063D01*
X0309430Y0066063D02*
X0309430Y0064291D01*
X0291320Y0064291D01*
X0291320Y0066063D01*
X0317388Y0066668D02*
X0317332Y0066184D01*
X0317287Y0065699D01*
X0317254Y0065213D01*
X0317234Y0064727D01*
X0317224Y0064240D01*
X0317227Y0063753D01*
X0317242Y0063266D01*
X0317268Y0062780D01*
X0317306Y0062294D01*
X0317356Y0061810D01*
X0317418Y0061327D01*
X0317492Y0060845D01*
X0317577Y0060366D01*
X0317673Y0059888D01*
X0317782Y0059413D01*
X0317902Y0058941D01*
X0318033Y0058472D01*
X0318175Y0058007D01*
X0057939Y0073558D02*
X0057180Y0081364D01*
X0056599Y0089185D01*
X0056196Y0097017D01*
X0055970Y0104857D01*
X0074750Y0089500D02*
X0074750Y0078000D01*
X0079750Y0078000D01*
X0079750Y0089500D01*
X0074750Y0089500D01*
X0120341Y0122968D02*
X0120341Y0130842D01*
X0123096Y0130842D02*
X0123096Y0122968D01*
X0123089Y0122894D01*
X0123078Y0122821D01*
X0123063Y0122749D01*
X0123044Y0122677D01*
X0123021Y0122607D01*
X0122995Y0122538D01*
X0122965Y0122470D01*
X0122931Y0122404D01*
X0122894Y0122340D01*
X0122853Y0122278D01*
X0122810Y0122219D01*
X0122763Y0122162D01*
X0122713Y0122107D01*
X0122660Y0122055D01*
X0122605Y0122006D01*
X0122547Y0121960D01*
X0122486Y0121918D01*
X0122424Y0121878D01*
X0122359Y0121842D01*
X0122293Y0121810D01*
X0122225Y0121781D01*
X0122155Y0121756D01*
X0122084Y0121734D01*
X0122013Y0121717D01*
X0121940Y0121703D01*
X0121867Y0121693D01*
X0121793Y0121687D01*
X0121719Y0121685D01*
X0121645Y0121687D01*
X0121571Y0121693D01*
X0121498Y0121703D01*
X0121425Y0121717D01*
X0121354Y0121734D01*
X0121283Y0121756D01*
X0121213Y0121781D01*
X0121145Y0121810D01*
X0121079Y0121842D01*
X0121014Y0121878D01*
X0120952Y0121918D01*
X0120891Y0121960D01*
X0120833Y0122006D01*
X0120778Y0122055D01*
X0120725Y0122107D01*
X0120675Y0122162D01*
X0120628Y0122219D01*
X0120585Y0122278D01*
X0120544Y0122340D01*
X0120507Y0122404D01*
X0120473Y0122470D01*
X0120443Y0122538D01*
X0120417Y0122607D01*
X0120394Y0122677D01*
X0120375Y0122749D01*
X0120360Y0122821D01*
X0120349Y0122894D01*
X0120342Y0122968D01*
X0120349Y0122894D01*
X0120360Y0122821D01*
X0120375Y0122749D01*
X0120394Y0122677D01*
X0120417Y0122607D01*
X0120443Y0122538D01*
X0120473Y0122470D01*
X0120507Y0122404D01*
X0120544Y0122340D01*
X0120585Y0122278D01*
X0120628Y0122219D01*
X0120675Y0122162D01*
X0120725Y0122107D01*
X0120778Y0122055D01*
X0120833Y0122006D01*
X0120891Y0121960D01*
X0120952Y0121918D01*
X0121014Y0121878D01*
X0121079Y0121842D01*
X0121145Y0121810D01*
X0121213Y0121781D01*
X0121283Y0121756D01*
X0121354Y0121734D01*
X0121425Y0121717D01*
X0121498Y0121703D01*
X0121571Y0121693D01*
X0121645Y0121687D01*
X0121719Y0121685D01*
X0121793Y0121687D01*
X0121867Y0121693D01*
X0121940Y0121703D01*
X0122013Y0121717D01*
X0122084Y0121734D01*
X0122155Y0121756D01*
X0122225Y0121781D01*
X0122293Y0121810D01*
X0122359Y0121842D01*
X0122424Y0121878D01*
X0122486Y0121918D01*
X0122547Y0121960D01*
X0122605Y0122006D01*
X0122660Y0122055D01*
X0122713Y0122107D01*
X0122763Y0122162D01*
X0122810Y0122219D01*
X0122853Y0122278D01*
X0122894Y0122340D01*
X0122931Y0122404D01*
X0122965Y0122470D01*
X0122995Y0122538D01*
X0123021Y0122607D01*
X0123044Y0122677D01*
X0123063Y0122749D01*
X0123078Y0122821D01*
X0123089Y0122894D01*
X0123096Y0122968D01*
X0016800Y0057950D02*
X0013500Y0056250D01*
X0014500Y0056250D01*
X0013500Y0056250D02*
X0016800Y0054550D01*
X0016800Y0057950D01*
X0137250Y0050750D02*
X0137250Y0039250D01*
X0142250Y0039250D01*
X0142250Y0050750D01*
X0137250Y0050750D01*
X0181500Y0205625D02*
X0181500Y0210625D01*
X0193000Y0210625D01*
X0193000Y0205625D01*
X0181500Y0205625D01*
X0194000Y0205625D02*
X0205500Y0205625D01*
X0205500Y0210625D01*
X0194000Y0210625D01*
X0194000Y0205625D01*
D13*
X0195543Y0203929D02*
X0195543Y0203245D01*
X0198279Y0200509D01*
X0198279Y0199825D01*
X0200147Y0199825D02*
X0202883Y0199825D01*
X0201515Y0199825D02*
X0201515Y0203929D01*
X0202883Y0202561D01*
X0204751Y0203245D02*
X0205435Y0203929D01*
X0206803Y0203929D01*
X0207487Y0203245D01*
X0207487Y0200509D01*
X0206803Y0199825D01*
X0205435Y0199825D01*
X0204751Y0200509D01*
X0198279Y0203929D02*
X0195543Y0203929D01*
X0189758Y0203929D02*
X0189758Y0199825D01*
X0189758Y0201193D02*
X0187706Y0201193D01*
X0187022Y0201877D01*
X0187022Y0203245D01*
X0187706Y0203929D01*
X0189758Y0203929D01*
X0188390Y0201193D02*
X0187022Y0199825D01*
X0185154Y0200509D02*
X0184470Y0199825D01*
X0183102Y0199825D01*
X0182418Y0200509D01*
X0182418Y0201877D01*
X0183102Y0202561D01*
X0183786Y0202561D01*
X0185154Y0201877D01*
X0185154Y0203929D01*
X0182418Y0203929D01*
X0111175Y0236134D02*
X0110491Y0235450D01*
X0109123Y0235450D01*
X0108439Y0236134D01*
X0106571Y0235450D02*
X0103835Y0235450D01*
X0105203Y0235450D02*
X0105203Y0239554D01*
X0106571Y0238186D01*
X0108439Y0238870D02*
X0109123Y0239554D01*
X0110491Y0239554D01*
X0111175Y0238870D01*
X0111175Y0236134D01*
X0101967Y0236134D02*
X0101283Y0235450D01*
X0099915Y0235450D01*
X0099231Y0236134D01*
X0099231Y0236818D01*
X0099915Y0237502D01*
X0101967Y0237502D01*
X0101967Y0236134D01*
X0101967Y0237502D02*
X0100599Y0238870D01*
X0099231Y0239554D01*
X0089300Y0232679D02*
X0087248Y0232679D01*
X0086564Y0231995D01*
X0086564Y0230627D01*
X0087248Y0229943D01*
X0089300Y0229943D01*
X0087932Y0229943D02*
X0086564Y0228575D01*
X0084696Y0228575D02*
X0081960Y0231311D01*
X0081960Y0231995D01*
X0082644Y0232679D01*
X0084012Y0232679D01*
X0084696Y0231995D01*
X0084696Y0228575D02*
X0081960Y0228575D01*
X0080092Y0229259D02*
X0079408Y0228575D01*
X0078040Y0228575D01*
X0077356Y0229259D01*
X0077356Y0229943D01*
X0078040Y0230627D01*
X0080092Y0230627D01*
X0080092Y0229259D01*
X0080092Y0230627D02*
X0078724Y0231995D01*
X0077356Y0232679D01*
X0074300Y0234825D02*
X0074300Y0238929D01*
X0072248Y0238929D01*
X0071564Y0238245D01*
X0071564Y0236877D01*
X0072248Y0236193D01*
X0074300Y0236193D01*
X0072932Y0236193D02*
X0071564Y0234825D01*
X0069696Y0236877D02*
X0066960Y0236877D01*
X0067644Y0238929D02*
X0069696Y0236877D01*
X0067644Y0234825D02*
X0067644Y0238929D01*
X0089300Y0232679D02*
X0089300Y0228575D01*
X0061179Y0213644D02*
X0061179Y0210908D01*
X0059127Y0210908D01*
X0059811Y0212276D01*
X0059811Y0212960D01*
X0059127Y0213644D01*
X0057759Y0213644D01*
X0057075Y0212960D01*
X0057075Y0211592D01*
X0057759Y0210908D01*
X0057075Y0209040D02*
X0057075Y0206304D01*
X0057075Y0207672D02*
X0061179Y0207672D01*
X0059811Y0206304D01*
X0060495Y0204436D02*
X0061179Y0203752D01*
X0061179Y0202384D01*
X0060495Y0201700D01*
X0057759Y0201700D01*
X0057075Y0202384D01*
X0057075Y0203752D01*
X0057759Y0204436D01*
X0057759Y0201144D02*
X0057075Y0200460D01*
X0057075Y0199092D01*
X0057759Y0198408D01*
X0059127Y0198408D02*
X0059811Y0199776D01*
X0059811Y0200460D01*
X0059127Y0201144D01*
X0057759Y0201144D01*
X0059127Y0198408D02*
X0061179Y0198408D01*
X0061179Y0201144D01*
X0061179Y0195172D02*
X0057075Y0195172D01*
X0057075Y0193804D02*
X0057075Y0196540D01*
X0059811Y0193804D02*
X0061179Y0195172D01*
X0060495Y0191936D02*
X0059127Y0191936D01*
X0058443Y0191252D01*
X0058443Y0189200D01*
X0058443Y0190568D02*
X0057075Y0191936D01*
X0057075Y0189200D02*
X0061179Y0189200D01*
X0061179Y0191252D01*
X0060495Y0191936D01*
X0073921Y0191669D02*
X0076657Y0191669D01*
X0075289Y0191669D02*
X0075289Y0195772D01*
X0076657Y0194404D01*
X0078525Y0195772D02*
X0078525Y0191669D01*
X0079893Y0193036D01*
X0081261Y0191669D01*
X0081261Y0195772D01*
X0083129Y0195088D02*
X0083813Y0195772D01*
X0085181Y0195772D01*
X0085865Y0195088D01*
X0085865Y0194404D01*
X0085181Y0193720D01*
X0083813Y0193720D01*
X0083129Y0193036D01*
X0083129Y0192352D01*
X0083813Y0191669D01*
X0085181Y0191669D01*
X0085865Y0192352D01*
X0076745Y0180457D02*
X0074009Y0177721D01*
X0073325Y0178405D01*
X0073325Y0179773D01*
X0074009Y0180457D01*
X0076745Y0180457D01*
X0077429Y0179773D01*
X0077429Y0178405D01*
X0076745Y0177721D01*
X0074009Y0177721D01*
X0074009Y0175853D02*
X0073325Y0175169D01*
X0073325Y0173801D01*
X0074009Y0173117D01*
X0075377Y0173117D02*
X0076061Y0174485D01*
X0076061Y0175169D01*
X0075377Y0175853D01*
X0074009Y0175853D01*
X0075377Y0173117D02*
X0077429Y0173117D01*
X0077429Y0175853D01*
X0076745Y0171249D02*
X0077429Y0170565D01*
X0077429Y0169197D01*
X0076745Y0168513D01*
X0074009Y0168513D01*
X0073325Y0169197D01*
X0073325Y0170565D01*
X0074009Y0171249D01*
X0249231Y0113245D02*
X0249915Y0113929D01*
X0251283Y0113929D01*
X0251967Y0113245D01*
X0251967Y0112561D01*
X0251283Y0111877D01*
X0249231Y0111877D01*
X0249231Y0110509D02*
X0249231Y0113245D01*
X0249231Y0110509D02*
X0249915Y0109825D01*
X0251283Y0109825D01*
X0251967Y0110509D01*
X0253835Y0110509D02*
X0253835Y0111193D01*
X0254519Y0111877D01*
X0256571Y0111877D01*
X0256571Y0110509D01*
X0255887Y0109825D01*
X0254519Y0109825D01*
X0253835Y0110509D01*
X0255203Y0113245D02*
X0256571Y0111877D01*
X0258439Y0111877D02*
X0259123Y0111193D01*
X0261175Y0111193D01*
X0261731Y0111193D02*
X0261731Y0110509D01*
X0262415Y0109825D01*
X0263783Y0109825D01*
X0264467Y0110509D01*
X0264467Y0111193D01*
X0263783Y0111877D01*
X0262415Y0111877D01*
X0261731Y0111193D01*
X0262415Y0111877D02*
X0261731Y0112561D01*
X0261731Y0113245D01*
X0262415Y0113929D01*
X0263783Y0113929D01*
X0264467Y0113245D01*
X0264467Y0112561D01*
X0263783Y0111877D01*
X0266335Y0111193D02*
X0267019Y0111877D01*
X0269071Y0111877D01*
X0269071Y0110509D01*
X0268387Y0109825D01*
X0267019Y0109825D01*
X0266335Y0110509D01*
X0266335Y0111193D01*
X0267703Y0113245D02*
X0266335Y0113929D01*
X0267703Y0113245D02*
X0269071Y0111877D01*
X0270939Y0111877D02*
X0271623Y0111193D01*
X0273675Y0111193D01*
X0272307Y0111193D02*
X0270939Y0109825D01*
X0270939Y0111877D02*
X0270939Y0113245D01*
X0271623Y0113929D01*
X0273675Y0113929D01*
X0273675Y0109825D01*
X0278606Y0112325D02*
X0281342Y0112325D01*
X0279974Y0112325D02*
X0279974Y0116429D01*
X0281342Y0115061D01*
X0283210Y0114377D02*
X0285946Y0114377D01*
X0283894Y0116429D01*
X0283894Y0112325D01*
X0287814Y0113009D02*
X0288498Y0112325D01*
X0289866Y0112325D01*
X0290550Y0113009D01*
X0290550Y0115745D01*
X0289866Y0116429D01*
X0288498Y0116429D01*
X0287814Y0115745D01*
X0302075Y0111710D02*
X0302759Y0112394D01*
X0303443Y0112394D01*
X0304127Y0111710D01*
X0304127Y0109658D01*
X0302759Y0109658D01*
X0302075Y0110342D01*
X0302075Y0111710D01*
X0304127Y0109658D02*
X0305495Y0111026D01*
X0306179Y0112394D01*
X0306179Y0107790D02*
X0305495Y0106422D01*
X0304127Y0105054D01*
X0304127Y0107106D01*
X0303443Y0107790D01*
X0302759Y0107790D01*
X0302075Y0107106D01*
X0302075Y0105738D01*
X0302759Y0105054D01*
X0304127Y0105054D01*
X0304127Y0103186D02*
X0303443Y0102502D01*
X0303443Y0100450D01*
X0303443Y0101818D02*
X0302075Y0103186D01*
X0304127Y0103186D02*
X0305495Y0103186D01*
X0306179Y0102502D01*
X0306179Y0100450D01*
X0302075Y0100450D01*
X0311793Y0103009D02*
X0311793Y0105745D01*
X0312477Y0106429D01*
X0313845Y0106429D01*
X0314529Y0105745D01*
X0314529Y0105061D01*
X0313845Y0104377D01*
X0311793Y0104377D01*
X0311793Y0103009D02*
X0312477Y0102325D01*
X0313845Y0102325D01*
X0314529Y0103009D01*
X0316397Y0102325D02*
X0319133Y0102325D01*
X0316397Y0105061D01*
X0316397Y0105745D01*
X0317081Y0106429D01*
X0318449Y0106429D01*
X0319133Y0105745D01*
X0321001Y0105745D02*
X0321685Y0106429D01*
X0323053Y0106429D01*
X0323737Y0105745D01*
X0323737Y0103009D01*
X0323053Y0102325D01*
X0321685Y0102325D01*
X0321001Y0103009D01*
X0307428Y0084554D02*
X0308112Y0083870D01*
X0308112Y0081134D01*
X0307428Y0080450D01*
X0306060Y0080450D01*
X0305376Y0081134D01*
X0303508Y0080450D02*
X0300772Y0083186D01*
X0300772Y0083870D01*
X0301456Y0084554D01*
X0302824Y0084554D01*
X0303508Y0083870D01*
X0305376Y0083870D02*
X0306060Y0084554D01*
X0307428Y0084554D01*
X0303508Y0080450D02*
X0300772Y0080450D01*
X0298904Y0081134D02*
X0298904Y0081818D01*
X0298220Y0082502D01*
X0296852Y0082502D01*
X0296168Y0081818D01*
X0296168Y0081134D01*
X0296852Y0080450D01*
X0298220Y0080450D01*
X0298904Y0081134D01*
X0298220Y0082502D02*
X0298904Y0083186D01*
X0298904Y0083870D01*
X0298220Y0084554D01*
X0296852Y0084554D01*
X0296168Y0083870D01*
X0296168Y0083186D01*
X0296852Y0082502D01*
X0284866Y0067679D02*
X0285550Y0066995D01*
X0285550Y0064259D01*
X0284866Y0063575D01*
X0283498Y0063575D01*
X0282814Y0064259D01*
X0280946Y0063575D02*
X0278210Y0066311D01*
X0278210Y0066995D01*
X0278894Y0067679D01*
X0280262Y0067679D01*
X0280946Y0066995D01*
X0282814Y0066995D02*
X0283498Y0067679D01*
X0284866Y0067679D01*
X0280946Y0063575D02*
X0278210Y0063575D01*
X0276342Y0063575D02*
X0276342Y0064259D01*
X0273606Y0066995D01*
X0273606Y0067679D01*
X0276342Y0067679D01*
X0270554Y0058019D02*
X0269870Y0056651D01*
X0268502Y0055283D01*
X0268502Y0057335D01*
X0267818Y0058019D01*
X0267134Y0058019D01*
X0266450Y0057335D01*
X0266450Y0055967D01*
X0267134Y0055283D01*
X0268502Y0055283D01*
X0269186Y0053415D02*
X0266450Y0050679D01*
X0266450Y0053415D01*
X0264304Y0052731D02*
X0264304Y0051363D01*
X0263620Y0050679D01*
X0263620Y0048811D02*
X0262252Y0048811D01*
X0261568Y0048127D01*
X0261568Y0046075D01*
X0262252Y0045519D02*
X0260884Y0045519D01*
X0260200Y0044835D01*
X0260200Y0043467D01*
X0260884Y0042783D01*
X0262252Y0042783D02*
X0262936Y0044151D01*
X0262936Y0044835D01*
X0262252Y0045519D01*
X0261568Y0047443D02*
X0260200Y0048811D01*
X0260200Y0050679D02*
X0262936Y0053415D01*
X0263620Y0053415D01*
X0264304Y0052731D01*
X0263620Y0055283D02*
X0264304Y0055967D01*
X0264304Y0057335D01*
X0263620Y0058019D01*
X0262936Y0058019D01*
X0262252Y0057335D01*
X0261568Y0058019D01*
X0260884Y0058019D01*
X0260200Y0057335D01*
X0260200Y0055967D01*
X0260884Y0055283D01*
X0262252Y0056651D02*
X0262252Y0057335D01*
X0260200Y0053415D02*
X0260200Y0050679D01*
X0263620Y0048811D02*
X0264304Y0048127D01*
X0264304Y0046075D01*
X0260200Y0046075D01*
X0262252Y0042783D02*
X0264304Y0042783D01*
X0264304Y0045519D01*
X0266450Y0045519D02*
X0266450Y0042783D01*
X0269186Y0045519D01*
X0269870Y0045519D01*
X0270554Y0044835D01*
X0270554Y0043467D01*
X0269870Y0042783D01*
X0269870Y0040915D02*
X0270554Y0040231D01*
X0270554Y0038863D01*
X0269870Y0038179D01*
X0269870Y0036311D02*
X0268502Y0036311D01*
X0267818Y0035627D01*
X0267818Y0033575D01*
X0267818Y0034943D02*
X0266450Y0036311D01*
X0266450Y0038179D02*
X0269186Y0040915D01*
X0269870Y0040915D01*
X0266450Y0040915D02*
X0266450Y0038179D01*
X0264304Y0038863D02*
X0263620Y0038179D01*
X0264304Y0038863D02*
X0264304Y0040231D01*
X0263620Y0040915D01*
X0262936Y0040915D01*
X0260200Y0038179D01*
X0260200Y0040915D01*
X0260884Y0036311D02*
X0260200Y0035627D01*
X0260200Y0034259D01*
X0260884Y0033575D01*
X0263620Y0033575D01*
X0264304Y0034259D01*
X0264304Y0035627D01*
X0263620Y0036311D01*
X0266450Y0033575D02*
X0270554Y0033575D01*
X0270554Y0035627D01*
X0269870Y0036311D01*
X0269870Y0046075D02*
X0267134Y0046075D01*
X0266450Y0046759D01*
X0266450Y0048127D01*
X0267134Y0048811D01*
X0269870Y0048811D02*
X0270554Y0048127D01*
X0270554Y0046759D01*
X0269870Y0046075D01*
X0269870Y0050679D02*
X0270554Y0051363D01*
X0270554Y0052731D01*
X0269870Y0053415D01*
X0269186Y0053415D01*
X0253054Y0063176D02*
X0252370Y0062492D01*
X0249634Y0062492D01*
X0248950Y0063176D01*
X0248950Y0064544D01*
X0249634Y0065228D01*
X0249634Y0067096D02*
X0248950Y0067780D01*
X0248950Y0069148D01*
X0249634Y0069832D01*
X0251002Y0069832D01*
X0251686Y0069148D01*
X0251686Y0068464D01*
X0251002Y0067096D01*
X0253054Y0067096D01*
X0253054Y0069832D01*
X0252370Y0065228D02*
X0253054Y0064544D01*
X0253054Y0063176D01*
X0246800Y0058304D02*
X0244748Y0058304D01*
X0244064Y0057620D01*
X0244064Y0056252D01*
X0244748Y0055568D01*
X0246800Y0055568D01*
X0246800Y0054200D02*
X0246800Y0058304D01*
X0242196Y0058304D02*
X0239460Y0058304D01*
X0240828Y0058304D02*
X0240828Y0054200D01*
X0237592Y0054884D02*
X0236908Y0054200D01*
X0235540Y0054200D01*
X0234856Y0054884D01*
X0232988Y0054200D02*
X0230253Y0056936D01*
X0230253Y0057620D01*
X0230936Y0058304D01*
X0232304Y0058304D01*
X0232988Y0057620D01*
X0234856Y0057620D02*
X0235540Y0058304D01*
X0236908Y0058304D01*
X0237592Y0057620D01*
X0237592Y0054884D01*
X0232988Y0054200D02*
X0230253Y0054200D01*
X0135554Y0050460D02*
X0135554Y0049092D01*
X0134870Y0048408D01*
X0132134Y0048408D01*
X0134870Y0051144D01*
X0132134Y0051144D01*
X0131450Y0050460D01*
X0131450Y0049092D01*
X0132134Y0048408D01*
X0131450Y0046540D02*
X0131450Y0043804D01*
X0131450Y0045172D02*
X0135554Y0045172D01*
X0134186Y0043804D01*
X0134870Y0041936D02*
X0135554Y0041252D01*
X0135554Y0039884D01*
X0134870Y0039200D01*
X0132134Y0039200D01*
X0131450Y0039884D01*
X0131450Y0041252D01*
X0132134Y0041936D01*
X0121633Y0044884D02*
X0121633Y0047620D01*
X0120949Y0048304D01*
X0119581Y0048304D01*
X0118897Y0047620D01*
X0117029Y0047620D02*
X0116345Y0048304D01*
X0114977Y0048304D01*
X0114293Y0047620D01*
X0114293Y0046936D01*
X0114977Y0046252D01*
X0114293Y0045568D01*
X0114293Y0044884D01*
X0114977Y0044200D01*
X0116345Y0044200D01*
X0117029Y0044884D01*
X0118897Y0044884D02*
X0119581Y0044200D01*
X0120949Y0044200D01*
X0121633Y0044884D01*
X0115661Y0046252D02*
X0114977Y0046252D01*
X0109304Y0047551D02*
X0108620Y0046867D01*
X0105884Y0046867D01*
X0105200Y0047551D01*
X0105200Y0048919D01*
X0105884Y0049603D01*
X0105200Y0051471D02*
X0107936Y0054207D01*
X0108620Y0054207D01*
X0109304Y0053523D01*
X0109304Y0052155D01*
X0108620Y0051471D01*
X0108620Y0049603D02*
X0109304Y0048919D01*
X0109304Y0047551D01*
X0105200Y0051471D02*
X0105200Y0054207D01*
X0084258Y0062384D02*
X0083574Y0061700D01*
X0082206Y0061700D01*
X0081522Y0062384D01*
X0081522Y0065804D01*
X0079654Y0064436D02*
X0078286Y0065804D01*
X0078286Y0061700D01*
X0079654Y0061700D02*
X0076918Y0061700D01*
X0084258Y0062384D02*
X0084258Y0065804D01*
X0073675Y0076759D02*
X0072991Y0076075D01*
X0071623Y0076075D01*
X0070939Y0076759D01*
X0069071Y0076759D02*
X0068387Y0076075D01*
X0067019Y0076075D01*
X0066335Y0076759D01*
X0066335Y0079495D01*
X0067019Y0080179D01*
X0068387Y0080179D01*
X0069071Y0079495D01*
X0069071Y0078811D01*
X0068387Y0078127D01*
X0066335Y0078127D01*
X0070939Y0079495D02*
X0071623Y0080179D01*
X0072991Y0080179D01*
X0073675Y0079495D01*
X0073675Y0076759D01*
X0049929Y0064984D02*
X0048561Y0063616D01*
X0049929Y0064984D02*
X0045825Y0064984D01*
X0045825Y0066351D02*
X0045825Y0063616D01*
X0046509Y0061747D02*
X0047877Y0061747D01*
X0047877Y0060380D01*
X0049245Y0061747D02*
X0049929Y0061064D01*
X0049929Y0059696D01*
X0049245Y0059012D01*
X0046509Y0059012D01*
X0045825Y0059696D01*
X0045825Y0061064D01*
X0046509Y0061747D01*
X0045825Y0057144D02*
X0048561Y0057144D01*
X0049929Y0055776D01*
X0048561Y0054408D01*
X0045825Y0054408D01*
X0047877Y0054408D02*
X0047877Y0057144D01*
X0049929Y0052540D02*
X0049929Y0049804D01*
X0049929Y0051172D02*
X0045825Y0051172D01*
X0046509Y0047252D02*
X0049929Y0047252D01*
X0049929Y0046568D02*
X0049929Y0047936D01*
X0046509Y0047252D02*
X0045825Y0046568D01*
X0045825Y0045884D01*
X0046509Y0045200D01*
X0063950Y0045450D02*
X0068054Y0045450D01*
X0068054Y0047502D01*
X0067370Y0048186D01*
X0066002Y0048186D01*
X0065318Y0047502D01*
X0065318Y0045450D01*
X0065318Y0046818D02*
X0063950Y0048186D01*
X0063950Y0050054D02*
X0063950Y0052790D01*
X0063950Y0051422D02*
X0068054Y0051422D01*
X0066686Y0050054D01*
X0105203Y0033929D02*
X0105203Y0029825D01*
X0106571Y0029825D02*
X0103835Y0029825D01*
X0106571Y0032561D02*
X0105203Y0033929D01*
X0108439Y0033245D02*
X0109123Y0033929D01*
X0110491Y0033929D01*
X0111175Y0033245D01*
X0111175Y0030509D01*
X0110491Y0029825D01*
X0109123Y0029825D01*
X0108439Y0030509D01*
X0134870Y0051144D02*
X0135554Y0050460D01*
X0258439Y0109825D02*
X0259807Y0111193D01*
X0258439Y0111877D02*
X0258439Y0113245D01*
X0259123Y0113929D01*
X0261175Y0113929D01*
X0261175Y0109825D01*
X0255203Y0113245D02*
X0253835Y0113929D01*
X0321450Y0158572D02*
X0321450Y0159940D01*
X0322134Y0160624D01*
X0322134Y0162492D02*
X0321450Y0163176D01*
X0321450Y0164544D01*
X0322134Y0165228D01*
X0322818Y0165228D01*
X0323502Y0164544D01*
X0323502Y0163860D01*
X0323502Y0164544D02*
X0324186Y0165228D01*
X0324870Y0165228D01*
X0325554Y0164544D01*
X0325554Y0163176D01*
X0324870Y0162492D01*
X0324870Y0160624D02*
X0325554Y0159940D01*
X0325554Y0158572D01*
X0324870Y0157888D01*
X0322134Y0157888D01*
X0321450Y0158572D01*
X0322134Y0167096D02*
X0324870Y0169832D01*
X0322134Y0169832D01*
X0321450Y0169148D01*
X0321450Y0167780D01*
X0322134Y0167096D01*
X0324870Y0167096D01*
X0325554Y0167780D01*
X0325554Y0169148D01*
X0324870Y0169832D01*
X0366573Y0149542D02*
X0366573Y0146806D01*
X0369309Y0149542D01*
X0369993Y0149542D01*
X0370677Y0148858D01*
X0370677Y0147490D01*
X0369993Y0146806D01*
X0366573Y0144938D02*
X0366573Y0142202D01*
X0370677Y0142202D01*
X0271804Y0171822D02*
X0271120Y0171138D01*
X0268384Y0171138D01*
X0267700Y0171822D01*
X0267700Y0173190D01*
X0268384Y0173874D01*
X0267700Y0175742D02*
X0271804Y0175742D01*
X0267700Y0178478D01*
X0271804Y0178478D01*
X0270436Y0180346D02*
X0271804Y0181714D01*
X0267700Y0181714D01*
X0267700Y0180346D02*
X0267700Y0183082D01*
X0271120Y0173874D02*
X0271804Y0173190D01*
X0271804Y0171822D01*
X0327821Y0219825D02*
X0327821Y0220509D01*
X0325085Y0223245D01*
X0325085Y0223929D01*
X0327821Y0223929D01*
X0329689Y0223245D02*
X0329689Y0221877D01*
X0330373Y0221193D01*
X0332425Y0221193D01*
X0331057Y0221193D02*
X0329689Y0219825D01*
X0332425Y0219825D02*
X0332425Y0223929D01*
X0330373Y0223929D01*
X0329689Y0223245D01*
X0329245Y0225450D02*
X0326509Y0225450D01*
X0325825Y0226134D01*
X0325825Y0227502D01*
X0326509Y0228186D01*
X0327877Y0230054D02*
X0327877Y0232790D01*
X0327818Y0233513D02*
X0327818Y0235565D01*
X0328502Y0236249D01*
X0329870Y0236249D01*
X0330554Y0235565D01*
X0330554Y0233513D01*
X0326450Y0233513D01*
X0325825Y0232106D02*
X0329929Y0232106D01*
X0327877Y0230054D01*
X0329245Y0228186D02*
X0329929Y0227502D01*
X0329929Y0226134D01*
X0329245Y0225450D01*
X0336793Y0223245D02*
X0336793Y0222561D01*
X0337477Y0221877D01*
X0338845Y0221877D01*
X0339529Y0222561D01*
X0339529Y0223245D01*
X0338845Y0223929D01*
X0337477Y0223929D01*
X0336793Y0223245D01*
X0337477Y0221877D02*
X0336793Y0221193D01*
X0336793Y0220509D01*
X0337477Y0219825D01*
X0338845Y0219825D01*
X0339529Y0220509D01*
X0339529Y0221193D01*
X0338845Y0221877D01*
X0341397Y0221877D02*
X0342081Y0221193D01*
X0344133Y0221193D01*
X0342765Y0221193D02*
X0341397Y0219825D01*
X0341397Y0221877D02*
X0341397Y0223245D01*
X0342081Y0223929D01*
X0344133Y0223929D01*
X0344133Y0219825D01*
X0327818Y0234881D02*
X0326450Y0236249D01*
X0326450Y0238117D02*
X0326450Y0240853D01*
X0326450Y0239485D02*
X0330554Y0239485D01*
X0329186Y0238117D01*
X0329870Y0242721D02*
X0327134Y0242721D01*
X0329870Y0245457D01*
X0327134Y0245457D01*
X0326450Y0244773D01*
X0326450Y0243405D01*
X0327134Y0242721D01*
X0329870Y0242721D02*
X0330554Y0243405D01*
X0330554Y0244773D01*
X0329870Y0245457D01*
X0311800Y0232620D02*
X0311800Y0229884D01*
X0311116Y0229200D01*
X0309748Y0229200D01*
X0309064Y0229884D01*
X0307196Y0229200D02*
X0304460Y0229200D01*
X0305828Y0229200D02*
X0305828Y0233304D01*
X0307196Y0231936D01*
X0309064Y0232620D02*
X0309748Y0233304D01*
X0311116Y0233304D01*
X0311800Y0232620D01*
X0302592Y0232620D02*
X0302592Y0231936D01*
X0301908Y0231252D01*
X0300540Y0231252D01*
X0299856Y0230568D01*
X0299856Y0229884D01*
X0300540Y0229200D01*
X0301908Y0229200D01*
X0302592Y0229884D01*
X0302592Y0230568D01*
X0301908Y0231252D01*
X0300540Y0231252D02*
X0299856Y0231936D01*
X0299856Y0232620D01*
X0300540Y0233304D01*
X0301908Y0233304D01*
X0302592Y0232620D01*
X0296008Y0233304D02*
X0293956Y0233304D01*
X0293272Y0232620D01*
X0293272Y0231252D01*
X0293956Y0230568D01*
X0296008Y0230568D01*
X0294640Y0230568D02*
X0293272Y0229200D01*
X0291404Y0229884D02*
X0290720Y0229200D01*
X0289352Y0229200D01*
X0288668Y0229884D01*
X0288668Y0230568D01*
X0289352Y0231252D01*
X0291404Y0231252D01*
X0291404Y0229884D01*
X0291404Y0231252D02*
X0290036Y0232620D01*
X0288668Y0233304D01*
X0296008Y0233304D02*
X0296008Y0229200D01*
X0280383Y0241075D02*
X0280383Y0245179D01*
X0278331Y0245179D01*
X0277647Y0244495D01*
X0277647Y0243127D01*
X0278331Y0242443D01*
X0280383Y0242443D01*
X0279015Y0242443D02*
X0277647Y0241075D01*
X0275779Y0241759D02*
X0275095Y0241075D01*
X0273727Y0241075D01*
X0273043Y0241759D01*
X0273043Y0244495D01*
X0273727Y0245179D01*
X0275095Y0245179D01*
X0275779Y0244495D01*
X0275779Y0243811D01*
X0275095Y0243127D01*
X0273043Y0243127D01*
X0234925Y0259259D02*
X0234925Y0261995D01*
X0234241Y0262679D01*
X0232873Y0262679D01*
X0232189Y0261995D01*
X0230321Y0260627D02*
X0228953Y0261995D01*
X0227585Y0262679D01*
X0228269Y0260627D02*
X0230321Y0260627D01*
X0230321Y0259259D01*
X0229637Y0258575D01*
X0228269Y0258575D01*
X0227585Y0259259D01*
X0227585Y0259943D01*
X0228269Y0260627D01*
X0232189Y0259259D02*
X0232873Y0258575D01*
X0234241Y0258575D01*
X0234925Y0259259D01*
X0234241Y0267325D02*
X0232873Y0267325D01*
X0232189Y0268009D01*
X0230321Y0268009D02*
X0230321Y0267325D01*
X0230321Y0268009D02*
X0227585Y0270745D01*
X0227585Y0271429D01*
X0230321Y0271429D01*
X0232189Y0270745D02*
X0232873Y0271429D01*
X0234241Y0271429D01*
X0234925Y0270745D01*
X0234925Y0268009D01*
X0234241Y0267325D01*
X0263043Y0268634D02*
X0263727Y0267950D01*
X0265095Y0267950D01*
X0265779Y0268634D01*
X0265779Y0269318D01*
X0265095Y0270002D01*
X0263727Y0270002D01*
X0263043Y0269318D01*
X0263043Y0268634D01*
X0263727Y0270002D02*
X0263043Y0270686D01*
X0263043Y0271370D01*
X0263727Y0272054D01*
X0265095Y0272054D01*
X0265779Y0271370D01*
X0265779Y0270686D01*
X0265095Y0270002D01*
X0267647Y0271370D02*
X0268331Y0272054D01*
X0269699Y0272054D01*
X0270383Y0271370D01*
X0270383Y0268634D01*
X0269699Y0267950D01*
X0268331Y0267950D01*
X0267647Y0268634D01*
X0155383Y0266370D02*
X0155383Y0263634D01*
X0154699Y0262950D01*
X0153331Y0262950D01*
X0152647Y0263634D01*
X0152647Y0266370D01*
X0153331Y0267054D01*
X0154699Y0267054D01*
X0155383Y0266370D01*
X0154015Y0264318D02*
X0152647Y0262950D01*
X0150779Y0262950D02*
X0148043Y0265686D01*
X0148043Y0266370D01*
X0148727Y0267054D01*
X0150095Y0267054D01*
X0150779Y0266370D01*
X0150779Y0262950D02*
X0148043Y0262950D01*
X0148043Y0272950D02*
X0150779Y0272950D01*
X0148043Y0275686D01*
X0148043Y0276370D01*
X0148727Y0277054D01*
X0150095Y0277054D01*
X0150779Y0276370D01*
X0152647Y0276370D02*
X0152647Y0275002D01*
X0153331Y0274318D01*
X0155383Y0274318D01*
X0154015Y0274318D02*
X0152647Y0272950D01*
X0155383Y0272950D02*
X0155383Y0277054D01*
X0153331Y0277054D01*
X0152647Y0276370D01*
X0118050Y0263929D02*
X0115998Y0263929D01*
X0115314Y0263245D01*
X0115314Y0261877D01*
X0115998Y0261193D01*
X0118050Y0261193D01*
X0116682Y0261193D02*
X0115314Y0259825D01*
X0113446Y0260509D02*
X0112762Y0259825D01*
X0111394Y0259825D01*
X0110710Y0260509D01*
X0110710Y0261193D01*
X0111394Y0261877D01*
X0112078Y0261877D01*
X0111394Y0261877D02*
X0110710Y0262561D01*
X0110710Y0263245D01*
X0111394Y0263929D01*
X0112762Y0263929D01*
X0113446Y0263245D01*
X0118050Y0263929D02*
X0118050Y0259825D01*
D14*
X0120092Y0179915D02*
X0119325Y0179148D01*
X0119325Y0177613D01*
X0120092Y0176846D01*
X0119325Y0175311D02*
X0123929Y0172242D01*
X0123929Y0175311D02*
X0119325Y0172242D01*
X0123162Y0176846D02*
X0123929Y0177613D01*
X0123929Y0179148D01*
X0123162Y0179915D01*
X0122394Y0179915D01*
X0121627Y0179148D01*
X0120860Y0179915D01*
X0120092Y0179915D01*
X0121627Y0179148D02*
X0121627Y0178381D01*
X0065174Y0150230D02*
X0064484Y0150230D01*
X0064683Y0150629D02*
X0064975Y0150629D01*
X0064829Y0150920D02*
X0066305Y0147968D01*
X0063352Y0147968D01*
X0064829Y0150920D01*
X0064284Y0149832D02*
X0065373Y0149832D01*
X0065572Y0149433D02*
X0064085Y0149433D01*
X0063886Y0149035D02*
X0065772Y0149035D01*
X0065971Y0148636D02*
X0063687Y0148636D01*
X0063487Y0148238D02*
X0066170Y0148238D01*
X0058616Y0158950D02*
X0057848Y0158950D01*
X0057081Y0159717D01*
X0057081Y0163554D01*
X0057848Y0163554D02*
X0056314Y0163554D01*
X0054779Y0162019D02*
X0053244Y0163554D01*
X0053244Y0158950D01*
X0051710Y0158950D02*
X0054779Y0158950D01*
X0058616Y0158950D02*
X0059383Y0159717D01*
X0084325Y0092415D02*
X0084325Y0089346D01*
X0084325Y0090881D02*
X0088929Y0090881D01*
X0087394Y0089346D01*
X0138700Y0082960D02*
X0138700Y0081425D01*
X0139467Y0080658D01*
X0139467Y0079123D02*
X0140235Y0079123D01*
X0141002Y0078356D01*
X0141002Y0076821D01*
X0141769Y0076054D01*
X0142537Y0076054D01*
X0143304Y0076821D01*
X0143304Y0078356D01*
X0142537Y0079123D01*
X0143304Y0080658D02*
X0141002Y0080658D01*
X0141769Y0082192D01*
X0141769Y0082960D01*
X0141002Y0083727D01*
X0139467Y0083727D01*
X0138700Y0082960D01*
X0139467Y0079123D02*
X0138700Y0078356D01*
X0138700Y0076821D01*
X0139467Y0076054D01*
X0139467Y0074519D02*
X0143304Y0074519D01*
X0143304Y0071450D02*
X0139467Y0071450D01*
X0138700Y0072217D01*
X0138700Y0073752D01*
X0139467Y0074519D01*
X0137933Y0077589D02*
X0144071Y0077589D01*
X0143304Y0080658D02*
X0143304Y0083727D01*
X0146825Y0053665D02*
X0146825Y0050596D01*
X0146825Y0052131D02*
X0151429Y0052131D01*
X0149894Y0050596D01*
X0201200Y0044210D02*
X0205804Y0044210D01*
X0203502Y0041908D01*
X0203502Y0044977D01*
X0202735Y0040373D02*
X0203502Y0039606D01*
X0203502Y0038071D01*
X0204269Y0037304D01*
X0205037Y0037304D01*
X0205804Y0038071D01*
X0205804Y0039606D01*
X0205037Y0040373D01*
X0206571Y0038839D02*
X0200433Y0038839D01*
X0201200Y0039606D02*
X0201967Y0040373D01*
X0202735Y0040373D01*
X0201200Y0039606D02*
X0201200Y0038071D01*
X0201967Y0037304D01*
X0201967Y0035769D02*
X0205804Y0035769D01*
X0205804Y0032700D02*
X0201967Y0032700D01*
X0201200Y0033467D01*
X0201200Y0035002D01*
X0201967Y0035769D01*
X0302127Y0058575D02*
X0305196Y0058575D01*
X0302127Y0061644D01*
X0302127Y0062412D01*
X0302894Y0063179D01*
X0304429Y0063179D01*
X0305196Y0062412D01*
X0306731Y0062412D02*
X0307498Y0063179D01*
X0309800Y0063179D01*
X0309800Y0058575D01*
X0307498Y0058575D01*
X0306731Y0059342D01*
X0306731Y0062412D01*
X0340787Y0042194D02*
X0341554Y0042962D01*
X0342321Y0042962D01*
X0343089Y0042194D01*
X0343089Y0039892D01*
X0341554Y0039892D01*
X0340787Y0040660D01*
X0340787Y0042194D01*
X0343089Y0039892D02*
X0344623Y0041427D01*
X0345391Y0042962D01*
X0345391Y0038358D02*
X0340787Y0035288D01*
X0340787Y0038358D02*
X0345391Y0035288D01*
X0092006Y0034366D02*
X0092006Y0029762D01*
X0089704Y0029762D01*
X0088936Y0030529D01*
X0088936Y0033599D01*
X0089704Y0034366D01*
X0092006Y0034366D01*
X0087402Y0032831D02*
X0085867Y0034366D01*
X0085867Y0029762D01*
X0084333Y0029762D02*
X0087402Y0029762D01*
X0051425Y0034575D02*
X0048356Y0034575D01*
X0046821Y0034575D02*
X0043752Y0034575D01*
X0045286Y0034575D02*
X0045286Y0039179D01*
X0046821Y0037644D01*
X0051425Y0039179D02*
X0051425Y0034575D01*
X0209325Y0172242D02*
X0213929Y0175311D01*
X0213162Y0176846D02*
X0213929Y0177613D01*
X0213929Y0179148D01*
X0213162Y0179915D01*
X0212394Y0179915D01*
X0209325Y0176846D01*
X0209325Y0179915D01*
X0209325Y0175311D02*
X0213929Y0172242D01*
D15*
X0047875Y0020000D03*
D16*
X0022403Y0047050D02*
X0024205Y0048852D01*
X0018800Y0048852D01*
X0018800Y0050653D02*
X0018800Y0047050D01*
X0066787Y0134378D02*
X0065720Y0135445D01*
X0065720Y0139716D01*
X0066787Y0140783D01*
X0069990Y0140783D01*
X0069990Y0134378D01*
X0066787Y0134378D01*
X0074300Y0134378D02*
X0074300Y0140783D01*
X0072165Y0140783D02*
X0076436Y0140783D01*
X0078611Y0139716D02*
X0079678Y0140783D01*
X0081813Y0140783D01*
X0082881Y0139716D01*
X0082881Y0138648D01*
X0081813Y0137580D01*
X0079678Y0137580D01*
X0078611Y0136513D01*
X0078611Y0135445D01*
X0079678Y0134378D01*
X0081813Y0134378D01*
X0082881Y0135445D01*
X0091502Y0134378D02*
X0093637Y0136513D01*
X0092569Y0136513D02*
X0095772Y0136513D01*
X0095772Y0134378D02*
X0095772Y0140783D01*
X0092569Y0140783D01*
X0091502Y0139716D01*
X0091502Y0137580D01*
X0092569Y0136513D01*
X0097947Y0135445D02*
X0097947Y0139716D01*
X0099015Y0140783D01*
X0102218Y0140783D01*
X0102218Y0134378D01*
X0099015Y0134378D01*
X0097947Y0135445D01*
X0104393Y0135445D02*
X0104393Y0139716D01*
X0105460Y0140783D01*
X0108663Y0140783D01*
X0108663Y0134378D01*
X0105460Y0134378D01*
X0104393Y0135445D01*
X0105800Y0170850D02*
X0105800Y0175050D01*
X0105800Y0177450D01*
X0105800Y0181650D01*
X0086200Y0181650D02*
X0086200Y0170850D01*
X0048607Y0192263D02*
X0048607Y0210237D01*
X0010893Y0210237D01*
X0010893Y0192263D01*
X0048607Y0192263D01*
X0042027Y0196450D02*
X0042029Y0196534D01*
X0042035Y0196619D01*
X0042045Y0196702D01*
X0042059Y0196786D01*
X0042076Y0196868D01*
X0042098Y0196950D01*
X0042123Y0197030D01*
X0042152Y0197109D01*
X0042185Y0197187D01*
X0042221Y0197263D01*
X0042261Y0197338D01*
X0042305Y0197410D01*
X0042351Y0197481D01*
X0042401Y0197549D01*
X0042454Y0197614D01*
X0042510Y0197677D01*
X0042569Y0197738D01*
X0042631Y0197795D01*
X0042695Y0197850D01*
X0042762Y0197901D01*
X0042831Y0197950D01*
X0042903Y0197995D01*
X0042976Y0198036D01*
X0043051Y0198074D01*
X0043128Y0198109D01*
X0043207Y0198140D01*
X0043287Y0198167D01*
X0043368Y0198190D01*
X0043450Y0198210D01*
X0043533Y0198226D01*
X0043616Y0198238D01*
X0043701Y0198246D01*
X0043785Y0198250D01*
X0043869Y0198250D01*
X0043953Y0198246D01*
X0044038Y0198238D01*
X0044121Y0198226D01*
X0044204Y0198210D01*
X0044286Y0198190D01*
X0044367Y0198167D01*
X0044447Y0198140D01*
X0044526Y0198109D01*
X0044603Y0198074D01*
X0044678Y0198036D01*
X0044751Y0197995D01*
X0044823Y0197950D01*
X0044892Y0197901D01*
X0044959Y0197850D01*
X0045023Y0197795D01*
X0045085Y0197738D01*
X0045144Y0197677D01*
X0045200Y0197614D01*
X0045253Y0197549D01*
X0045303Y0197481D01*
X0045349Y0197410D01*
X0045393Y0197338D01*
X0045433Y0197263D01*
X0045469Y0197187D01*
X0045502Y0197109D01*
X0045531Y0197030D01*
X0045556Y0196950D01*
X0045578Y0196868D01*
X0045595Y0196786D01*
X0045609Y0196702D01*
X0045619Y0196619D01*
X0045625Y0196534D01*
X0045627Y0196450D01*
X0045625Y0196366D01*
X0045619Y0196281D01*
X0045609Y0196198D01*
X0045595Y0196114D01*
X0045578Y0196032D01*
X0045556Y0195950D01*
X0045531Y0195870D01*
X0045502Y0195791D01*
X0045469Y0195713D01*
X0045433Y0195637D01*
X0045393Y0195562D01*
X0045349Y0195490D01*
X0045303Y0195419D01*
X0045253Y0195351D01*
X0045200Y0195286D01*
X0045144Y0195223D01*
X0045085Y0195162D01*
X0045023Y0195105D01*
X0044959Y0195050D01*
X0044892Y0194999D01*
X0044823Y0194950D01*
X0044751Y0194905D01*
X0044678Y0194864D01*
X0044603Y0194826D01*
X0044526Y0194791D01*
X0044447Y0194760D01*
X0044367Y0194733D01*
X0044286Y0194710D01*
X0044204Y0194690D01*
X0044121Y0194674D01*
X0044038Y0194662D01*
X0043953Y0194654D01*
X0043869Y0194650D01*
X0043785Y0194650D01*
X0043701Y0194654D01*
X0043616Y0194662D01*
X0043533Y0194674D01*
X0043450Y0194690D01*
X0043368Y0194710D01*
X0043287Y0194733D01*
X0043207Y0194760D01*
X0043128Y0194791D01*
X0043051Y0194826D01*
X0042976Y0194864D01*
X0042903Y0194905D01*
X0042831Y0194950D01*
X0042762Y0194999D01*
X0042695Y0195050D01*
X0042631Y0195105D01*
X0042569Y0195162D01*
X0042510Y0195223D01*
X0042454Y0195286D01*
X0042401Y0195351D01*
X0042351Y0195419D01*
X0042305Y0195490D01*
X0042261Y0195562D01*
X0042221Y0195637D01*
X0042185Y0195713D01*
X0042152Y0195791D01*
X0042123Y0195870D01*
X0042098Y0195950D01*
X0042076Y0196032D01*
X0042059Y0196114D01*
X0042045Y0196198D01*
X0042035Y0196281D01*
X0042029Y0196366D01*
X0042027Y0196450D01*
X0078263Y0241768D02*
X0096237Y0241768D01*
X0096237Y0279482D01*
X0078263Y0279482D01*
X0078263Y0241768D01*
X0080650Y0246548D02*
X0080652Y0246632D01*
X0080658Y0246717D01*
X0080668Y0246800D01*
X0080682Y0246884D01*
X0080699Y0246966D01*
X0080721Y0247048D01*
X0080746Y0247128D01*
X0080775Y0247207D01*
X0080808Y0247285D01*
X0080844Y0247361D01*
X0080884Y0247436D01*
X0080928Y0247508D01*
X0080974Y0247579D01*
X0081024Y0247647D01*
X0081077Y0247712D01*
X0081133Y0247775D01*
X0081192Y0247836D01*
X0081254Y0247893D01*
X0081318Y0247948D01*
X0081385Y0247999D01*
X0081454Y0248048D01*
X0081526Y0248093D01*
X0081599Y0248134D01*
X0081674Y0248172D01*
X0081751Y0248207D01*
X0081830Y0248238D01*
X0081910Y0248265D01*
X0081991Y0248288D01*
X0082073Y0248308D01*
X0082156Y0248324D01*
X0082239Y0248336D01*
X0082324Y0248344D01*
X0082408Y0248348D01*
X0082492Y0248348D01*
X0082576Y0248344D01*
X0082661Y0248336D01*
X0082744Y0248324D01*
X0082827Y0248308D01*
X0082909Y0248288D01*
X0082990Y0248265D01*
X0083070Y0248238D01*
X0083149Y0248207D01*
X0083226Y0248172D01*
X0083301Y0248134D01*
X0083374Y0248093D01*
X0083446Y0248048D01*
X0083515Y0247999D01*
X0083582Y0247948D01*
X0083646Y0247893D01*
X0083708Y0247836D01*
X0083767Y0247775D01*
X0083823Y0247712D01*
X0083876Y0247647D01*
X0083926Y0247579D01*
X0083972Y0247508D01*
X0084016Y0247436D01*
X0084056Y0247361D01*
X0084092Y0247285D01*
X0084125Y0247207D01*
X0084154Y0247128D01*
X0084179Y0247048D01*
X0084201Y0246966D01*
X0084218Y0246884D01*
X0084232Y0246800D01*
X0084242Y0246717D01*
X0084248Y0246632D01*
X0084250Y0246548D01*
X0084248Y0246464D01*
X0084242Y0246379D01*
X0084232Y0246296D01*
X0084218Y0246212D01*
X0084201Y0246130D01*
X0084179Y0246048D01*
X0084154Y0245968D01*
X0084125Y0245889D01*
X0084092Y0245811D01*
X0084056Y0245735D01*
X0084016Y0245660D01*
X0083972Y0245588D01*
X0083926Y0245517D01*
X0083876Y0245449D01*
X0083823Y0245384D01*
X0083767Y0245321D01*
X0083708Y0245260D01*
X0083646Y0245203D01*
X0083582Y0245148D01*
X0083515Y0245097D01*
X0083446Y0245048D01*
X0083374Y0245003D01*
X0083301Y0244962D01*
X0083226Y0244924D01*
X0083149Y0244889D01*
X0083070Y0244858D01*
X0082990Y0244831D01*
X0082909Y0244808D01*
X0082827Y0244788D01*
X0082744Y0244772D01*
X0082661Y0244760D01*
X0082576Y0244752D01*
X0082492Y0244748D01*
X0082408Y0244748D01*
X0082324Y0244752D01*
X0082239Y0244760D01*
X0082156Y0244772D01*
X0082073Y0244788D01*
X0081991Y0244808D01*
X0081910Y0244831D01*
X0081830Y0244858D01*
X0081751Y0244889D01*
X0081674Y0244924D01*
X0081599Y0244962D01*
X0081526Y0245003D01*
X0081454Y0245048D01*
X0081385Y0245097D01*
X0081318Y0245148D01*
X0081254Y0245203D01*
X0081192Y0245260D01*
X0081133Y0245321D01*
X0081077Y0245384D01*
X0081024Y0245449D01*
X0080974Y0245517D01*
X0080928Y0245588D01*
X0080884Y0245660D01*
X0080844Y0245735D01*
X0080808Y0245811D01*
X0080775Y0245889D01*
X0080746Y0245968D01*
X0080721Y0246048D01*
X0080699Y0246130D01*
X0080682Y0246212D01*
X0080668Y0246296D01*
X0080658Y0246379D01*
X0080652Y0246464D01*
X0080650Y0246548D01*
X0184513Y0250107D02*
X0184513Y0212393D01*
X0202487Y0212393D01*
X0202487Y0250107D01*
X0184513Y0250107D01*
X0186900Y0217173D02*
X0186902Y0217257D01*
X0186908Y0217342D01*
X0186918Y0217425D01*
X0186932Y0217509D01*
X0186949Y0217591D01*
X0186971Y0217673D01*
X0186996Y0217753D01*
X0187025Y0217832D01*
X0187058Y0217910D01*
X0187094Y0217986D01*
X0187134Y0218061D01*
X0187178Y0218133D01*
X0187224Y0218204D01*
X0187274Y0218272D01*
X0187327Y0218337D01*
X0187383Y0218400D01*
X0187442Y0218461D01*
X0187504Y0218518D01*
X0187568Y0218573D01*
X0187635Y0218624D01*
X0187704Y0218673D01*
X0187776Y0218718D01*
X0187849Y0218759D01*
X0187924Y0218797D01*
X0188001Y0218832D01*
X0188080Y0218863D01*
X0188160Y0218890D01*
X0188241Y0218913D01*
X0188323Y0218933D01*
X0188406Y0218949D01*
X0188489Y0218961D01*
X0188574Y0218969D01*
X0188658Y0218973D01*
X0188742Y0218973D01*
X0188826Y0218969D01*
X0188911Y0218961D01*
X0188994Y0218949D01*
X0189077Y0218933D01*
X0189159Y0218913D01*
X0189240Y0218890D01*
X0189320Y0218863D01*
X0189399Y0218832D01*
X0189476Y0218797D01*
X0189551Y0218759D01*
X0189624Y0218718D01*
X0189696Y0218673D01*
X0189765Y0218624D01*
X0189832Y0218573D01*
X0189896Y0218518D01*
X0189958Y0218461D01*
X0190017Y0218400D01*
X0190073Y0218337D01*
X0190126Y0218272D01*
X0190176Y0218204D01*
X0190222Y0218133D01*
X0190266Y0218061D01*
X0190306Y0217986D01*
X0190342Y0217910D01*
X0190375Y0217832D01*
X0190404Y0217753D01*
X0190429Y0217673D01*
X0190451Y0217591D01*
X0190468Y0217509D01*
X0190482Y0217425D01*
X0190492Y0217342D01*
X0190498Y0217257D01*
X0190500Y0217173D01*
X0190498Y0217089D01*
X0190492Y0217004D01*
X0190482Y0216921D01*
X0190468Y0216837D01*
X0190451Y0216755D01*
X0190429Y0216673D01*
X0190404Y0216593D01*
X0190375Y0216514D01*
X0190342Y0216436D01*
X0190306Y0216360D01*
X0190266Y0216285D01*
X0190222Y0216213D01*
X0190176Y0216142D01*
X0190126Y0216074D01*
X0190073Y0216009D01*
X0190017Y0215946D01*
X0189958Y0215885D01*
X0189896Y0215828D01*
X0189832Y0215773D01*
X0189765Y0215722D01*
X0189696Y0215673D01*
X0189624Y0215628D01*
X0189551Y0215587D01*
X0189476Y0215549D01*
X0189399Y0215514D01*
X0189320Y0215483D01*
X0189240Y0215456D01*
X0189159Y0215433D01*
X0189077Y0215413D01*
X0188994Y0215397D01*
X0188911Y0215385D01*
X0188826Y0215377D01*
X0188742Y0215373D01*
X0188658Y0215373D01*
X0188574Y0215377D01*
X0188489Y0215385D01*
X0188406Y0215397D01*
X0188323Y0215413D01*
X0188241Y0215433D01*
X0188160Y0215456D01*
X0188080Y0215483D01*
X0188001Y0215514D01*
X0187924Y0215549D01*
X0187849Y0215587D01*
X0187776Y0215628D01*
X0187704Y0215673D01*
X0187635Y0215722D01*
X0187568Y0215773D01*
X0187504Y0215828D01*
X0187442Y0215885D01*
X0187383Y0215946D01*
X0187327Y0216009D01*
X0187274Y0216074D01*
X0187224Y0216142D01*
X0187178Y0216213D01*
X0187134Y0216285D01*
X0187094Y0216360D01*
X0187058Y0216436D01*
X0187025Y0216514D01*
X0186996Y0216593D01*
X0186971Y0216673D01*
X0186949Y0216755D01*
X0186932Y0216837D01*
X0186918Y0216921D01*
X0186908Y0217004D01*
X0186902Y0217089D01*
X0186900Y0217173D01*
X0290763Y0241768D02*
X0308737Y0241768D01*
X0308737Y0279482D01*
X0290763Y0279482D01*
X0290763Y0241768D01*
X0293150Y0246548D02*
X0293152Y0246632D01*
X0293158Y0246717D01*
X0293168Y0246800D01*
X0293182Y0246884D01*
X0293199Y0246966D01*
X0293221Y0247048D01*
X0293246Y0247128D01*
X0293275Y0247207D01*
X0293308Y0247285D01*
X0293344Y0247361D01*
X0293384Y0247436D01*
X0293428Y0247508D01*
X0293474Y0247579D01*
X0293524Y0247647D01*
X0293577Y0247712D01*
X0293633Y0247775D01*
X0293692Y0247836D01*
X0293754Y0247893D01*
X0293818Y0247948D01*
X0293885Y0247999D01*
X0293954Y0248048D01*
X0294026Y0248093D01*
X0294099Y0248134D01*
X0294174Y0248172D01*
X0294251Y0248207D01*
X0294330Y0248238D01*
X0294410Y0248265D01*
X0294491Y0248288D01*
X0294573Y0248308D01*
X0294656Y0248324D01*
X0294739Y0248336D01*
X0294824Y0248344D01*
X0294908Y0248348D01*
X0294992Y0248348D01*
X0295076Y0248344D01*
X0295161Y0248336D01*
X0295244Y0248324D01*
X0295327Y0248308D01*
X0295409Y0248288D01*
X0295490Y0248265D01*
X0295570Y0248238D01*
X0295649Y0248207D01*
X0295726Y0248172D01*
X0295801Y0248134D01*
X0295874Y0248093D01*
X0295946Y0248048D01*
X0296015Y0247999D01*
X0296082Y0247948D01*
X0296146Y0247893D01*
X0296208Y0247836D01*
X0296267Y0247775D01*
X0296323Y0247712D01*
X0296376Y0247647D01*
X0296426Y0247579D01*
X0296472Y0247508D01*
X0296516Y0247436D01*
X0296556Y0247361D01*
X0296592Y0247285D01*
X0296625Y0247207D01*
X0296654Y0247128D01*
X0296679Y0247048D01*
X0296701Y0246966D01*
X0296718Y0246884D01*
X0296732Y0246800D01*
X0296742Y0246717D01*
X0296748Y0246632D01*
X0296750Y0246548D01*
X0296748Y0246464D01*
X0296742Y0246379D01*
X0296732Y0246296D01*
X0296718Y0246212D01*
X0296701Y0246130D01*
X0296679Y0246048D01*
X0296654Y0245968D01*
X0296625Y0245889D01*
X0296592Y0245811D01*
X0296556Y0245735D01*
X0296516Y0245660D01*
X0296472Y0245588D01*
X0296426Y0245517D01*
X0296376Y0245449D01*
X0296323Y0245384D01*
X0296267Y0245321D01*
X0296208Y0245260D01*
X0296146Y0245203D01*
X0296082Y0245148D01*
X0296015Y0245097D01*
X0295946Y0245048D01*
X0295874Y0245003D01*
X0295801Y0244962D01*
X0295726Y0244924D01*
X0295649Y0244889D01*
X0295570Y0244858D01*
X0295490Y0244831D01*
X0295409Y0244808D01*
X0295327Y0244788D01*
X0295244Y0244772D01*
X0295161Y0244760D01*
X0295076Y0244752D01*
X0294992Y0244748D01*
X0294908Y0244748D01*
X0294824Y0244752D01*
X0294739Y0244760D01*
X0294656Y0244772D01*
X0294573Y0244788D01*
X0294491Y0244808D01*
X0294410Y0244831D01*
X0294330Y0244858D01*
X0294251Y0244889D01*
X0294174Y0244924D01*
X0294099Y0244962D01*
X0294026Y0245003D01*
X0293954Y0245048D01*
X0293885Y0245097D01*
X0293818Y0245148D01*
X0293754Y0245203D01*
X0293692Y0245260D01*
X0293633Y0245321D01*
X0293577Y0245384D01*
X0293524Y0245449D01*
X0293474Y0245517D01*
X0293428Y0245588D01*
X0293384Y0245660D01*
X0293344Y0245735D01*
X0293308Y0245811D01*
X0293275Y0245889D01*
X0293246Y0245968D01*
X0293221Y0246048D01*
X0293199Y0246130D01*
X0293182Y0246212D01*
X0293168Y0246296D01*
X0293158Y0246379D01*
X0293152Y0246464D01*
X0293150Y0246548D01*
X0338393Y0210237D02*
X0338393Y0192263D01*
X0376107Y0192263D01*
X0376107Y0210237D01*
X0338393Y0210237D01*
X0341373Y0206050D02*
X0341375Y0206134D01*
X0341381Y0206219D01*
X0341391Y0206302D01*
X0341405Y0206386D01*
X0341422Y0206468D01*
X0341444Y0206550D01*
X0341469Y0206630D01*
X0341498Y0206709D01*
X0341531Y0206787D01*
X0341567Y0206863D01*
X0341607Y0206938D01*
X0341651Y0207010D01*
X0341697Y0207081D01*
X0341747Y0207149D01*
X0341800Y0207214D01*
X0341856Y0207277D01*
X0341915Y0207338D01*
X0341977Y0207395D01*
X0342041Y0207450D01*
X0342108Y0207501D01*
X0342177Y0207550D01*
X0342249Y0207595D01*
X0342322Y0207636D01*
X0342397Y0207674D01*
X0342474Y0207709D01*
X0342553Y0207740D01*
X0342633Y0207767D01*
X0342714Y0207790D01*
X0342796Y0207810D01*
X0342879Y0207826D01*
X0342962Y0207838D01*
X0343047Y0207846D01*
X0343131Y0207850D01*
X0343215Y0207850D01*
X0343299Y0207846D01*
X0343384Y0207838D01*
X0343467Y0207826D01*
X0343550Y0207810D01*
X0343632Y0207790D01*
X0343713Y0207767D01*
X0343793Y0207740D01*
X0343872Y0207709D01*
X0343949Y0207674D01*
X0344024Y0207636D01*
X0344097Y0207595D01*
X0344169Y0207550D01*
X0344238Y0207501D01*
X0344305Y0207450D01*
X0344369Y0207395D01*
X0344431Y0207338D01*
X0344490Y0207277D01*
X0344546Y0207214D01*
X0344599Y0207149D01*
X0344649Y0207081D01*
X0344695Y0207010D01*
X0344739Y0206938D01*
X0344779Y0206863D01*
X0344815Y0206787D01*
X0344848Y0206709D01*
X0344877Y0206630D01*
X0344902Y0206550D01*
X0344924Y0206468D01*
X0344941Y0206386D01*
X0344955Y0206302D01*
X0344965Y0206219D01*
X0344971Y0206134D01*
X0344973Y0206050D01*
X0344971Y0205966D01*
X0344965Y0205881D01*
X0344955Y0205798D01*
X0344941Y0205714D01*
X0344924Y0205632D01*
X0344902Y0205550D01*
X0344877Y0205470D01*
X0344848Y0205391D01*
X0344815Y0205313D01*
X0344779Y0205237D01*
X0344739Y0205162D01*
X0344695Y0205090D01*
X0344649Y0205019D01*
X0344599Y0204951D01*
X0344546Y0204886D01*
X0344490Y0204823D01*
X0344431Y0204762D01*
X0344369Y0204705D01*
X0344305Y0204650D01*
X0344238Y0204599D01*
X0344169Y0204550D01*
X0344097Y0204505D01*
X0344024Y0204464D01*
X0343949Y0204426D01*
X0343872Y0204391D01*
X0343793Y0204360D01*
X0343713Y0204333D01*
X0343632Y0204310D01*
X0343550Y0204290D01*
X0343467Y0204274D01*
X0343384Y0204262D01*
X0343299Y0204254D01*
X0343215Y0204250D01*
X0343131Y0204250D01*
X0343047Y0204254D01*
X0342962Y0204262D01*
X0342879Y0204274D01*
X0342796Y0204290D01*
X0342714Y0204310D01*
X0342633Y0204333D01*
X0342553Y0204360D01*
X0342474Y0204391D01*
X0342397Y0204426D01*
X0342322Y0204464D01*
X0342249Y0204505D01*
X0342177Y0204550D01*
X0342108Y0204599D01*
X0342041Y0204650D01*
X0341977Y0204705D01*
X0341915Y0204762D01*
X0341856Y0204823D01*
X0341800Y0204886D01*
X0341747Y0204951D01*
X0341697Y0205019D01*
X0341651Y0205090D01*
X0341607Y0205162D01*
X0341567Y0205237D01*
X0341531Y0205313D01*
X0341498Y0205391D01*
X0341469Y0205470D01*
X0341444Y0205550D01*
X0341422Y0205632D01*
X0341405Y0205714D01*
X0341391Y0205798D01*
X0341381Y0205881D01*
X0341375Y0205966D01*
X0341373Y0206050D01*
X0248300Y0106850D02*
X0248300Y0095650D01*
X0228700Y0095650D02*
X0228700Y0100050D01*
X0228700Y0102450D01*
X0228700Y0106850D01*
X0228700Y0102450D02*
X0228769Y0102448D01*
X0228837Y0102442D01*
X0228905Y0102432D01*
X0228972Y0102419D01*
X0229038Y0102401D01*
X0229103Y0102380D01*
X0229167Y0102355D01*
X0229229Y0102327D01*
X0229290Y0102295D01*
X0229349Y0102260D01*
X0229405Y0102221D01*
X0229460Y0102179D01*
X0229511Y0102134D01*
X0229561Y0102086D01*
X0229607Y0102036D01*
X0229650Y0101983D01*
X0229691Y0101927D01*
X0229728Y0101870D01*
X0229761Y0101810D01*
X0229792Y0101748D01*
X0229818Y0101685D01*
X0229841Y0101621D01*
X0229861Y0101555D01*
X0229876Y0101488D01*
X0229888Y0101421D01*
X0229896Y0101353D01*
X0229900Y0101284D01*
X0229900Y0101216D01*
X0229896Y0101147D01*
X0229888Y0101079D01*
X0229876Y0101012D01*
X0229861Y0100945D01*
X0229841Y0100879D01*
X0229818Y0100815D01*
X0229792Y0100752D01*
X0229761Y0100690D01*
X0229728Y0100630D01*
X0229691Y0100573D01*
X0229650Y0100517D01*
X0229607Y0100464D01*
X0229561Y0100414D01*
X0229511Y0100366D01*
X0229460Y0100321D01*
X0229405Y0100279D01*
X0229349Y0100240D01*
X0229290Y0100205D01*
X0229229Y0100173D01*
X0229167Y0100145D01*
X0229103Y0100120D01*
X0229038Y0100099D01*
X0228972Y0100081D01*
X0228905Y0100068D01*
X0228837Y0100058D01*
X0228769Y0100052D01*
X0228700Y0100050D01*
X0274350Y0096050D02*
X0285150Y0096050D01*
X0285150Y0076450D02*
X0280950Y0076450D01*
X0278550Y0076450D01*
X0274350Y0076450D01*
D17*
X0339293Y0193163D02*
X0339293Y0209337D01*
X0375207Y0209337D01*
X0375207Y0193163D01*
X0339293Y0193163D01*
X0307837Y0242668D02*
X0291663Y0242668D01*
X0291663Y0278582D01*
X0307837Y0278582D01*
X0307837Y0242668D01*
X0201587Y0249207D02*
X0201587Y0213293D01*
X0185413Y0213293D01*
X0185413Y0249207D01*
X0201587Y0249207D01*
X0095337Y0242668D02*
X0079163Y0242668D01*
X0079163Y0278582D01*
X0095337Y0278582D01*
X0095337Y0242668D01*
X0047707Y0209337D02*
X0011793Y0209337D01*
X0011793Y0193163D01*
X0047707Y0193163D01*
X0047707Y0209337D01*
D18*
X0106134Y0166536D02*
X0109270Y0163400D01*
X0107702Y0163400D02*
X0107702Y0166536D01*
X0109270Y0166536D02*
X0106134Y0163400D01*
X0106134Y0164968D02*
X0109270Y0164968D01*
X0225430Y0114100D02*
X0228566Y0110964D01*
X0228566Y0112532D02*
X0225430Y0112532D01*
X0225430Y0110964D02*
X0228566Y0114100D01*
X0226998Y0114100D02*
X0226998Y0110964D01*
X0266900Y0076116D02*
X0270036Y0072980D01*
X0268468Y0072980D02*
X0268468Y0076116D01*
X0270036Y0076116D02*
X0266900Y0072980D01*
X0266900Y0074548D02*
X0270036Y0074548D01*
D19*
X0015600Y0056250D03*
D20*
X0016350Y0057000D03*
X0016350Y0055500D03*
D21*
X0014800Y0056250D03*
D22*
X0370631Y0120891D02*
X0370631Y0126403D01*
X0374844Y0123647D01*
X0370631Y0120891D01*
D23*
X0261622Y0173817D02*
X0260154Y0173817D01*
X0261622Y0173817D02*
X0261622Y0181781D01*
X0256217Y0189549D02*
X0220783Y0189549D01*
X0215378Y0181781D02*
X0215378Y0173817D01*
X0216846Y0173817D01*
X0171622Y0173817D02*
X0170154Y0173817D01*
X0171622Y0173817D02*
X0171622Y0181781D01*
X0166217Y0189549D02*
X0130783Y0189549D01*
X0125378Y0181781D02*
X0125378Y0173817D01*
X0126846Y0173817D01*
D24*
X0314250Y0169000D02*
X0314252Y0169063D01*
X0314258Y0169125D01*
X0314268Y0169187D01*
X0314281Y0169249D01*
X0314299Y0169309D01*
X0314320Y0169368D01*
X0314345Y0169426D01*
X0314374Y0169482D01*
X0314406Y0169536D01*
X0314441Y0169588D01*
X0314479Y0169637D01*
X0314521Y0169685D01*
X0314565Y0169729D01*
X0314613Y0169771D01*
X0314662Y0169809D01*
X0314714Y0169844D01*
X0314768Y0169876D01*
X0314824Y0169905D01*
X0314882Y0169930D01*
X0314941Y0169951D01*
X0315001Y0169969D01*
X0315063Y0169982D01*
X0315125Y0169992D01*
X0315187Y0169998D01*
X0315250Y0170000D01*
X0315313Y0169998D01*
X0315375Y0169992D01*
X0315437Y0169982D01*
X0315499Y0169969D01*
X0315559Y0169951D01*
X0315618Y0169930D01*
X0315676Y0169905D01*
X0315732Y0169876D01*
X0315786Y0169844D01*
X0315838Y0169809D01*
X0315887Y0169771D01*
X0315935Y0169729D01*
X0315979Y0169685D01*
X0316021Y0169637D01*
X0316059Y0169588D01*
X0316094Y0169536D01*
X0316126Y0169482D01*
X0316155Y0169426D01*
X0316180Y0169368D01*
X0316201Y0169309D01*
X0316219Y0169249D01*
X0316232Y0169187D01*
X0316242Y0169125D01*
X0316248Y0169063D01*
X0316250Y0169000D01*
X0316248Y0168937D01*
X0316242Y0168875D01*
X0316232Y0168813D01*
X0316219Y0168751D01*
X0316201Y0168691D01*
X0316180Y0168632D01*
X0316155Y0168574D01*
X0316126Y0168518D01*
X0316094Y0168464D01*
X0316059Y0168412D01*
X0316021Y0168363D01*
X0315979Y0168315D01*
X0315935Y0168271D01*
X0315887Y0168229D01*
X0315838Y0168191D01*
X0315786Y0168156D01*
X0315732Y0168124D01*
X0315676Y0168095D01*
X0315618Y0168070D01*
X0315559Y0168049D01*
X0315499Y0168031D01*
X0315437Y0168018D01*
X0315375Y0168008D01*
X0315313Y0168002D01*
X0315250Y0168000D01*
X0315187Y0168002D01*
X0315125Y0168008D01*
X0315063Y0168018D01*
X0315001Y0168031D01*
X0314941Y0168049D01*
X0314882Y0168070D01*
X0314824Y0168095D01*
X0314768Y0168124D01*
X0314714Y0168156D01*
X0314662Y0168191D01*
X0314613Y0168229D01*
X0314565Y0168271D01*
X0314521Y0168315D01*
X0314479Y0168363D01*
X0314441Y0168412D01*
X0314406Y0168464D01*
X0314374Y0168518D01*
X0314345Y0168574D01*
X0314320Y0168632D01*
X0314299Y0168691D01*
X0314281Y0168751D01*
X0314268Y0168813D01*
X0314258Y0168875D01*
X0314252Y0168937D01*
X0314250Y0169000D01*
M02*
