G75*
%MOIN*%
%OFA0B0*%
%FSLAX25Y25*%
%IPPOS*%
%LPD*%
%AMOC8*
5,1,8,0,0,1.08239X$1,22.5*
%
%ADD10C,0.12402*%
%ADD11OC8,0.05315*%
%ADD12C,0.02953*%
%ADD13C,0.04921*%
%ADD14C,0.28150*%
%ADD15R,0.04528X0.04921*%
%ADD16R,0.04921X0.04528*%
%ADD17C,0.06102*%
%ADD18OC8,0.06102*%
%ADD19C,0.03291*%
%ADD20C,0.04843*%
%ADD21C,0.03072*%
D10*
X0024125Y0020625D03*
X0362875Y0020625D03*
X0362875Y0266250D03*
X0024125Y0266250D03*
D11*
X0118500Y0255000D03*
X0128500Y0255000D03*
X0138500Y0255000D03*
X0148500Y0255000D03*
X0158500Y0255000D03*
X0168500Y0255000D03*
X0178500Y0255000D03*
X0188500Y0255000D03*
X0198500Y0255000D03*
X0208500Y0255000D03*
X0218500Y0255000D03*
X0228500Y0255000D03*
X0238500Y0255000D03*
X0248500Y0255000D03*
X0258500Y0255000D03*
X0268500Y0255000D03*
X0268500Y0015000D03*
X0258500Y0015000D03*
X0248500Y0015000D03*
X0138500Y0015000D03*
X0128500Y0015000D03*
X0118500Y0015000D03*
D12*
X0059317Y0138125D03*
D13*
X0322309Y0138125D03*
D14*
X0309750Y0019375D03*
X0071000Y0019375D03*
D15*
X0068362Y0267613D03*
X0063638Y0267613D03*
X0063638Y0278637D03*
X0068362Y0278637D03*
X0084888Y0278637D03*
X0089612Y0278637D03*
X0089612Y0267613D03*
X0084888Y0267613D03*
X0106138Y0267613D03*
X0110862Y0267613D03*
X0110862Y0278637D03*
X0106138Y0278637D03*
X0127388Y0278637D03*
X0132112Y0278637D03*
X0132112Y0267613D03*
X0127388Y0267613D03*
X0148638Y0267613D03*
X0153362Y0267613D03*
X0153362Y0278637D03*
X0148638Y0278637D03*
X0169888Y0278637D03*
X0174612Y0278637D03*
X0191138Y0278637D03*
X0195862Y0278637D03*
X0212388Y0278637D03*
X0217112Y0278637D03*
X0233638Y0278637D03*
X0238362Y0278637D03*
X0254888Y0278637D03*
X0259612Y0278637D03*
X0276138Y0278637D03*
X0280862Y0278637D03*
X0297388Y0278637D03*
X0302112Y0278637D03*
X0302112Y0267613D03*
X0297388Y0267613D03*
X0280862Y0267613D03*
X0276138Y0267613D03*
X0259612Y0267613D03*
X0254888Y0267613D03*
X0238362Y0267613D03*
X0233638Y0267613D03*
X0217112Y0267613D03*
X0212388Y0267613D03*
X0195862Y0267613D03*
X0191138Y0267613D03*
X0174612Y0267613D03*
X0169888Y0267613D03*
X0047112Y0267613D03*
X0042388Y0267613D03*
X0042388Y0278637D03*
X0047112Y0278637D03*
X0318638Y0278637D03*
X0323362Y0278637D03*
X0323362Y0267613D03*
X0318638Y0267613D03*
X0339888Y0267613D03*
X0344612Y0267613D03*
X0344612Y0278637D03*
X0339888Y0278637D03*
D16*
X0364238Y0246112D03*
X0364238Y0241388D03*
X0375262Y0241388D03*
X0375262Y0246112D03*
X0375262Y0224862D03*
X0375262Y0220138D03*
X0364238Y0220138D03*
X0364238Y0224862D03*
X0364238Y0203612D03*
X0364238Y0198888D03*
X0375262Y0198888D03*
X0375262Y0203612D03*
X0375262Y0182362D03*
X0375262Y0177638D03*
X0364238Y0177638D03*
X0364238Y0182362D03*
X0364238Y0161112D03*
X0364238Y0156388D03*
X0375262Y0156388D03*
X0375262Y0161112D03*
X0022762Y0161112D03*
X0022762Y0156388D03*
X0011738Y0156388D03*
X0011738Y0161112D03*
X0011738Y0177638D03*
X0011738Y0182362D03*
X0022762Y0182362D03*
X0022762Y0177638D03*
X0022762Y0198888D03*
X0022762Y0203612D03*
X0011738Y0203612D03*
X0011738Y0198888D03*
X0011738Y0220138D03*
X0011738Y0224862D03*
X0022762Y0224862D03*
X0022762Y0220138D03*
X0022762Y0241388D03*
X0022762Y0246112D03*
X0011738Y0246112D03*
X0011738Y0241388D03*
D17*
X0021000Y0056250D03*
D18*
X0031000Y0056250D03*
X0031000Y0066250D03*
X0021000Y0066250D03*
X0021000Y0076250D03*
X0031000Y0076250D03*
X0031000Y0086250D03*
X0021000Y0086250D03*
X0021000Y0096250D03*
X0031000Y0096250D03*
X0031000Y0106250D03*
X0021000Y0106250D03*
X0021000Y0116250D03*
X0031000Y0116250D03*
X0031000Y0126250D03*
X0021000Y0126250D03*
X0021000Y0136250D03*
X0031000Y0136250D03*
X0031000Y0146250D03*
X0021000Y0146250D03*
X0357875Y0116875D03*
X0367875Y0116875D03*
X0367875Y0106875D03*
X0357875Y0106875D03*
X0357875Y0096875D03*
X0367875Y0096875D03*
X0367875Y0086875D03*
X0357875Y0086875D03*
X0357875Y0076875D03*
X0367875Y0076875D03*
X0367875Y0066875D03*
X0357875Y0066875D03*
X0357875Y0056875D03*
X0367875Y0056875D03*
D19*
X0287250Y0070000D03*
X0282875Y0083750D03*
X0279125Y0088750D03*
X0292875Y0098750D03*
X0304125Y0099375D03*
X0292875Y0108125D03*
X0258500Y0106250D03*
X0231000Y0098125D03*
X0227250Y0091875D03*
X0229125Y0085625D03*
X0251000Y0089375D03*
X0257250Y0061875D03*
X0174125Y0065625D03*
X0169125Y0065625D03*
X0164125Y0065625D03*
X0159125Y0065625D03*
X0154125Y0065625D03*
X0126625Y0076250D03*
X0121625Y0076250D03*
X0116625Y0076250D03*
X0111625Y0076250D03*
X0106625Y0076250D03*
X0101625Y0076250D03*
X0096625Y0076250D03*
X0096625Y0104375D03*
X0101625Y0104375D03*
X0106625Y0104375D03*
X0111625Y0104375D03*
X0116625Y0104375D03*
X0121625Y0104375D03*
X0126625Y0104375D03*
X0133500Y0128750D03*
X0145375Y0128750D03*
X0154750Y0128750D03*
X0161000Y0128750D03*
X0171625Y0128750D03*
X0191625Y0140625D03*
X0194750Y0139375D03*
X0197875Y0138125D03*
X0200375Y0135625D03*
X0202875Y0133125D03*
X0209125Y0143750D03*
X0210375Y0146875D03*
X0219125Y0145625D03*
X0179750Y0148125D03*
X0174750Y0148125D03*
X0170375Y0148125D03*
X0159125Y0146250D03*
X0155375Y0146250D03*
X0151625Y0146250D03*
X0147875Y0146250D03*
X0124750Y0154375D03*
X0111625Y0160625D03*
X0107875Y0160625D03*
X0114750Y0167500D03*
X0129750Y0166250D03*
X0138500Y0167500D03*
X0142250Y0167500D03*
X0146625Y0167500D03*
X0150375Y0167500D03*
X0154125Y0167500D03*
X0158500Y0167500D03*
X0162250Y0167500D03*
X0130375Y0185625D03*
X0121000Y0185625D03*
X0108500Y0181875D03*
X0091000Y0176250D03*
X0080375Y0164375D03*
X0076625Y0163750D03*
X0074125Y0160625D03*
X0071000Y0162500D03*
X0083500Y0161250D03*
X0062875Y0151875D03*
X0071000Y0146875D03*
X0075375Y0146875D03*
X0022875Y0151875D03*
X0011625Y0151875D03*
X0016000Y0163750D03*
X0015375Y0170000D03*
X0011000Y0173750D03*
X0011000Y0186250D03*
X0011625Y0194375D03*
X0018500Y0198750D03*
X0029750Y0201250D03*
X0017250Y0208125D03*
X0012250Y0208125D03*
X0015375Y0220000D03*
X0015375Y0224375D03*
X0022875Y0231875D03*
X0015375Y0241250D03*
X0016000Y0246250D03*
X0042250Y0263125D03*
X0059125Y0267500D03*
X0063500Y0274375D03*
X0068500Y0274375D03*
X0080375Y0278750D03*
X0084750Y0271875D03*
X0093500Y0273125D03*
X0093500Y0278125D03*
X0106000Y0275000D03*
X0111000Y0275000D03*
X0123500Y0278125D03*
X0132250Y0275000D03*
X0122875Y0267500D03*
X0107250Y0259375D03*
X0093500Y0259375D03*
X0087250Y0260625D03*
X0047250Y0274375D03*
X0042250Y0274375D03*
X0143500Y0254375D03*
X0148500Y0250625D03*
X0166000Y0267500D03*
X0169750Y0274375D03*
X0174125Y0274375D03*
X0162875Y0275000D03*
X0159750Y0273125D03*
X0155375Y0271875D03*
X0187875Y0266875D03*
X0196000Y0273125D03*
X0191000Y0275000D03*
X0204750Y0274375D03*
X0202875Y0266875D03*
X0216625Y0274375D03*
X0222875Y0267500D03*
X0228500Y0278750D03*
X0238500Y0275000D03*
X0254750Y0271250D03*
X0255375Y0275000D03*
X0260375Y0275000D03*
X0275375Y0271250D03*
X0277250Y0275000D03*
X0282875Y0275000D03*
X0293500Y0278125D03*
X0297250Y0271250D03*
X0306625Y0271875D03*
X0306000Y0278125D03*
X0316000Y0275000D03*
X0323500Y0275000D03*
X0328500Y0267500D03*
X0339750Y0275000D03*
X0344125Y0275000D03*
X0296625Y0260625D03*
X0368500Y0248750D03*
X0371625Y0245625D03*
X0374750Y0237500D03*
X0369750Y0228750D03*
X0371000Y0224375D03*
X0371000Y0220000D03*
X0374750Y0208125D03*
X0368500Y0206250D03*
X0357250Y0201250D03*
X0354750Y0196250D03*
X0369750Y0194375D03*
X0375375Y0194375D03*
X0371625Y0184375D03*
X0371000Y0178125D03*
X0370375Y0173750D03*
X0374750Y0169375D03*
X0370375Y0166250D03*
X0344125Y0178750D03*
X0337875Y0178750D03*
X0317875Y0163125D03*
X0317875Y0159375D03*
X0319125Y0129375D03*
X0327250Y0126250D03*
X0341000Y0126875D03*
X0341000Y0130625D03*
X0360375Y0129375D03*
X0360375Y0125625D03*
X0351000Y0106875D03*
X0350375Y0103125D03*
X0240375Y0167500D03*
X0236625Y0167500D03*
X0232250Y0167500D03*
X0228500Y0167500D03*
X0224750Y0167500D03*
X0124750Y0223750D03*
X0193500Y0247500D03*
X0201000Y0245000D03*
X0202250Y0250625D03*
X0342875Y0206250D03*
X0174125Y0037500D03*
X0169125Y0037500D03*
X0164125Y0037500D03*
X0159125Y0037500D03*
X0154125Y0037500D03*
D20*
X0076000Y0048006D03*
X0238500Y0103750D03*
X0314125Y0175000D03*
X0355375Y0176875D03*
X0144125Y0263125D03*
D21*
X0129750Y0244375D03*
X0127875Y0241875D03*
X0130375Y0239375D03*
X0092875Y0249375D03*
X0091000Y0246875D03*
X0090375Y0251875D03*
X0041000Y0206250D03*
X0043500Y0204375D03*
X0037875Y0204375D03*
X0134750Y0167500D03*
X0104125Y0145000D03*
X0101000Y0143750D03*
X0097875Y0145000D03*
X0094750Y0143750D03*
X0091625Y0145000D03*
X0088500Y0143750D03*
X0085375Y0145000D03*
X0082250Y0143750D03*
X0244750Y0181875D03*
X0248500Y0179375D03*
X0252250Y0176875D03*
X0342875Y0196875D03*
X0346625Y0197500D03*
X0349750Y0196250D03*
X0301625Y0253750D03*
X0304125Y0256250D03*
X0306625Y0258750D03*
X0199125Y0241875D03*
X0196625Y0239375D03*
X0194125Y0236875D03*
M02*
