G75*
%MOIN*%
%OFA0B0*%
%FSLAX25Y25*%
%IPPOS*%
%LPD*%
%AMOC8*
5,1,8,0,0,1.08239X$1,22.5*
%
%ADD10C,0.00000*%
%ADD11R,0.02165X0.04724*%
%ADD12R,0.03150X0.03543*%
%ADD13R,0.04724X0.05118*%
%ADD14R,0.05512X0.05512*%
%ADD15R,0.14016X0.05512*%
%ADD16R,0.05118X0.04724*%
%ADD17R,0.03900X0.01200*%
%ADD18R,0.03543X0.03150*%
%ADD19R,0.01200X0.03900*%
%ADD20R,0.01378X0.07874*%
%ADD21R,0.17717X0.18110*%
%ADD22R,0.03937X0.05000*%
%ADD23R,0.07800X0.02200*%
%ADD24R,0.05000X0.05787*%
%ADD25R,0.23622X0.12795*%
%ADD26R,0.14567X0.05906*%
%ADD27R,0.02000X0.07800*%
%ADD28R,0.02362X0.08661*%
%ADD29R,0.02200X0.07800*%
%ADD30R,0.09843X0.04724*%
%ADD31R,0.02362X0.06102*%
%ADD32R,0.04724X0.07087*%
%ADD33R,0.03937X0.18110*%
%ADD34R,0.06693X0.13386*%
D10*
X0007875Y0004375D02*
X0007875Y0282466D01*
X0379027Y0282466D01*
X0379027Y0004375D01*
X0007875Y0004375D01*
X0018219Y0020625D02*
X0018221Y0020778D01*
X0018227Y0020932D01*
X0018237Y0021085D01*
X0018251Y0021237D01*
X0018269Y0021390D01*
X0018291Y0021541D01*
X0018316Y0021692D01*
X0018346Y0021843D01*
X0018380Y0021993D01*
X0018417Y0022141D01*
X0018458Y0022289D01*
X0018503Y0022435D01*
X0018552Y0022581D01*
X0018605Y0022725D01*
X0018661Y0022867D01*
X0018721Y0023008D01*
X0018785Y0023148D01*
X0018852Y0023286D01*
X0018923Y0023422D01*
X0018998Y0023556D01*
X0019075Y0023688D01*
X0019157Y0023818D01*
X0019241Y0023946D01*
X0019329Y0024072D01*
X0019420Y0024195D01*
X0019514Y0024316D01*
X0019612Y0024434D01*
X0019712Y0024550D01*
X0019816Y0024663D01*
X0019922Y0024774D01*
X0020031Y0024882D01*
X0020143Y0024987D01*
X0020257Y0025088D01*
X0020375Y0025187D01*
X0020494Y0025283D01*
X0020616Y0025376D01*
X0020741Y0025465D01*
X0020868Y0025552D01*
X0020997Y0025634D01*
X0021128Y0025714D01*
X0021261Y0025790D01*
X0021396Y0025863D01*
X0021533Y0025932D01*
X0021672Y0025997D01*
X0021812Y0026059D01*
X0021954Y0026117D01*
X0022097Y0026172D01*
X0022242Y0026223D01*
X0022388Y0026270D01*
X0022535Y0026313D01*
X0022683Y0026352D01*
X0022832Y0026388D01*
X0022982Y0026419D01*
X0023133Y0026447D01*
X0023284Y0026471D01*
X0023437Y0026491D01*
X0023589Y0026507D01*
X0023742Y0026519D01*
X0023895Y0026527D01*
X0024048Y0026531D01*
X0024202Y0026531D01*
X0024355Y0026527D01*
X0024508Y0026519D01*
X0024661Y0026507D01*
X0024813Y0026491D01*
X0024966Y0026471D01*
X0025117Y0026447D01*
X0025268Y0026419D01*
X0025418Y0026388D01*
X0025567Y0026352D01*
X0025715Y0026313D01*
X0025862Y0026270D01*
X0026008Y0026223D01*
X0026153Y0026172D01*
X0026296Y0026117D01*
X0026438Y0026059D01*
X0026578Y0025997D01*
X0026717Y0025932D01*
X0026854Y0025863D01*
X0026989Y0025790D01*
X0027122Y0025714D01*
X0027253Y0025634D01*
X0027382Y0025552D01*
X0027509Y0025465D01*
X0027634Y0025376D01*
X0027756Y0025283D01*
X0027875Y0025187D01*
X0027993Y0025088D01*
X0028107Y0024987D01*
X0028219Y0024882D01*
X0028328Y0024774D01*
X0028434Y0024663D01*
X0028538Y0024550D01*
X0028638Y0024434D01*
X0028736Y0024316D01*
X0028830Y0024195D01*
X0028921Y0024072D01*
X0029009Y0023946D01*
X0029093Y0023818D01*
X0029175Y0023688D01*
X0029252Y0023556D01*
X0029327Y0023422D01*
X0029398Y0023286D01*
X0029465Y0023148D01*
X0029529Y0023008D01*
X0029589Y0022867D01*
X0029645Y0022725D01*
X0029698Y0022581D01*
X0029747Y0022435D01*
X0029792Y0022289D01*
X0029833Y0022141D01*
X0029870Y0021993D01*
X0029904Y0021843D01*
X0029934Y0021692D01*
X0029959Y0021541D01*
X0029981Y0021390D01*
X0029999Y0021237D01*
X0030013Y0021085D01*
X0030023Y0020932D01*
X0030029Y0020778D01*
X0030031Y0020625D01*
X0030029Y0020472D01*
X0030023Y0020318D01*
X0030013Y0020165D01*
X0029999Y0020013D01*
X0029981Y0019860D01*
X0029959Y0019709D01*
X0029934Y0019558D01*
X0029904Y0019407D01*
X0029870Y0019257D01*
X0029833Y0019109D01*
X0029792Y0018961D01*
X0029747Y0018815D01*
X0029698Y0018669D01*
X0029645Y0018525D01*
X0029589Y0018383D01*
X0029529Y0018242D01*
X0029465Y0018102D01*
X0029398Y0017964D01*
X0029327Y0017828D01*
X0029252Y0017694D01*
X0029175Y0017562D01*
X0029093Y0017432D01*
X0029009Y0017304D01*
X0028921Y0017178D01*
X0028830Y0017055D01*
X0028736Y0016934D01*
X0028638Y0016816D01*
X0028538Y0016700D01*
X0028434Y0016587D01*
X0028328Y0016476D01*
X0028219Y0016368D01*
X0028107Y0016263D01*
X0027993Y0016162D01*
X0027875Y0016063D01*
X0027756Y0015967D01*
X0027634Y0015874D01*
X0027509Y0015785D01*
X0027382Y0015698D01*
X0027253Y0015616D01*
X0027122Y0015536D01*
X0026989Y0015460D01*
X0026854Y0015387D01*
X0026717Y0015318D01*
X0026578Y0015253D01*
X0026438Y0015191D01*
X0026296Y0015133D01*
X0026153Y0015078D01*
X0026008Y0015027D01*
X0025862Y0014980D01*
X0025715Y0014937D01*
X0025567Y0014898D01*
X0025418Y0014862D01*
X0025268Y0014831D01*
X0025117Y0014803D01*
X0024966Y0014779D01*
X0024813Y0014759D01*
X0024661Y0014743D01*
X0024508Y0014731D01*
X0024355Y0014723D01*
X0024202Y0014719D01*
X0024048Y0014719D01*
X0023895Y0014723D01*
X0023742Y0014731D01*
X0023589Y0014743D01*
X0023437Y0014759D01*
X0023284Y0014779D01*
X0023133Y0014803D01*
X0022982Y0014831D01*
X0022832Y0014862D01*
X0022683Y0014898D01*
X0022535Y0014937D01*
X0022388Y0014980D01*
X0022242Y0015027D01*
X0022097Y0015078D01*
X0021954Y0015133D01*
X0021812Y0015191D01*
X0021672Y0015253D01*
X0021533Y0015318D01*
X0021396Y0015387D01*
X0021261Y0015460D01*
X0021128Y0015536D01*
X0020997Y0015616D01*
X0020868Y0015698D01*
X0020741Y0015785D01*
X0020616Y0015874D01*
X0020494Y0015967D01*
X0020375Y0016063D01*
X0020257Y0016162D01*
X0020143Y0016263D01*
X0020031Y0016368D01*
X0019922Y0016476D01*
X0019816Y0016587D01*
X0019712Y0016700D01*
X0019612Y0016816D01*
X0019514Y0016934D01*
X0019420Y0017055D01*
X0019329Y0017178D01*
X0019241Y0017304D01*
X0019157Y0017432D01*
X0019075Y0017562D01*
X0018998Y0017694D01*
X0018923Y0017828D01*
X0018852Y0017964D01*
X0018785Y0018102D01*
X0018721Y0018242D01*
X0018661Y0018383D01*
X0018605Y0018525D01*
X0018552Y0018669D01*
X0018503Y0018815D01*
X0018458Y0018961D01*
X0018417Y0019109D01*
X0018380Y0019257D01*
X0018346Y0019407D01*
X0018316Y0019558D01*
X0018291Y0019709D01*
X0018269Y0019860D01*
X0018251Y0020013D01*
X0018237Y0020165D01*
X0018227Y0020318D01*
X0018221Y0020472D01*
X0018219Y0020625D01*
X0058136Y0138125D02*
X0058138Y0138194D01*
X0058144Y0138262D01*
X0058154Y0138330D01*
X0058168Y0138397D01*
X0058186Y0138464D01*
X0058207Y0138529D01*
X0058233Y0138593D01*
X0058262Y0138655D01*
X0058294Y0138715D01*
X0058330Y0138774D01*
X0058370Y0138830D01*
X0058412Y0138884D01*
X0058458Y0138935D01*
X0058507Y0138984D01*
X0058558Y0139030D01*
X0058612Y0139072D01*
X0058668Y0139112D01*
X0058726Y0139148D01*
X0058787Y0139180D01*
X0058849Y0139209D01*
X0058913Y0139235D01*
X0058978Y0139256D01*
X0059045Y0139274D01*
X0059112Y0139288D01*
X0059180Y0139298D01*
X0059248Y0139304D01*
X0059317Y0139306D01*
X0059386Y0139304D01*
X0059454Y0139298D01*
X0059522Y0139288D01*
X0059589Y0139274D01*
X0059656Y0139256D01*
X0059721Y0139235D01*
X0059785Y0139209D01*
X0059847Y0139180D01*
X0059907Y0139148D01*
X0059966Y0139112D01*
X0060022Y0139072D01*
X0060076Y0139030D01*
X0060127Y0138984D01*
X0060176Y0138935D01*
X0060222Y0138884D01*
X0060264Y0138830D01*
X0060304Y0138774D01*
X0060340Y0138715D01*
X0060372Y0138655D01*
X0060401Y0138593D01*
X0060427Y0138529D01*
X0060448Y0138464D01*
X0060466Y0138397D01*
X0060480Y0138330D01*
X0060490Y0138262D01*
X0060496Y0138194D01*
X0060498Y0138125D01*
X0060496Y0138056D01*
X0060490Y0137988D01*
X0060480Y0137920D01*
X0060466Y0137853D01*
X0060448Y0137786D01*
X0060427Y0137721D01*
X0060401Y0137657D01*
X0060372Y0137595D01*
X0060340Y0137534D01*
X0060304Y0137476D01*
X0060264Y0137420D01*
X0060222Y0137366D01*
X0060176Y0137315D01*
X0060127Y0137266D01*
X0060076Y0137220D01*
X0060022Y0137178D01*
X0059966Y0137138D01*
X0059908Y0137102D01*
X0059847Y0137070D01*
X0059785Y0137041D01*
X0059721Y0137015D01*
X0059656Y0136994D01*
X0059589Y0136976D01*
X0059522Y0136962D01*
X0059454Y0136952D01*
X0059386Y0136946D01*
X0059317Y0136944D01*
X0059248Y0136946D01*
X0059180Y0136952D01*
X0059112Y0136962D01*
X0059045Y0136976D01*
X0058978Y0136994D01*
X0058913Y0137015D01*
X0058849Y0137041D01*
X0058787Y0137070D01*
X0058726Y0137102D01*
X0058668Y0137138D01*
X0058612Y0137178D01*
X0058558Y0137220D01*
X0058507Y0137266D01*
X0058458Y0137315D01*
X0058412Y0137366D01*
X0058370Y0137420D01*
X0058330Y0137476D01*
X0058294Y0137534D01*
X0058262Y0137595D01*
X0058233Y0137657D01*
X0058207Y0137721D01*
X0058186Y0137786D01*
X0058168Y0137853D01*
X0058154Y0137920D01*
X0058144Y0137988D01*
X0058138Y0138056D01*
X0058136Y0138125D01*
X0320144Y0138125D02*
X0320146Y0138218D01*
X0320152Y0138310D01*
X0320162Y0138402D01*
X0320176Y0138493D01*
X0320193Y0138584D01*
X0320215Y0138674D01*
X0320240Y0138763D01*
X0320269Y0138851D01*
X0320302Y0138937D01*
X0320339Y0139022D01*
X0320379Y0139106D01*
X0320423Y0139187D01*
X0320470Y0139267D01*
X0320520Y0139345D01*
X0320574Y0139420D01*
X0320631Y0139493D01*
X0320691Y0139563D01*
X0320754Y0139631D01*
X0320820Y0139696D01*
X0320888Y0139758D01*
X0320959Y0139818D01*
X0321033Y0139874D01*
X0321109Y0139927D01*
X0321187Y0139976D01*
X0321267Y0140023D01*
X0321349Y0140065D01*
X0321433Y0140105D01*
X0321518Y0140140D01*
X0321605Y0140172D01*
X0321693Y0140201D01*
X0321782Y0140225D01*
X0321872Y0140246D01*
X0321963Y0140262D01*
X0322055Y0140275D01*
X0322147Y0140284D01*
X0322240Y0140289D01*
X0322332Y0140290D01*
X0322425Y0140287D01*
X0322517Y0140280D01*
X0322609Y0140269D01*
X0322700Y0140254D01*
X0322791Y0140236D01*
X0322881Y0140213D01*
X0322969Y0140187D01*
X0323057Y0140157D01*
X0323143Y0140123D01*
X0323227Y0140086D01*
X0323310Y0140044D01*
X0323391Y0140000D01*
X0323471Y0139952D01*
X0323548Y0139901D01*
X0323622Y0139846D01*
X0323695Y0139788D01*
X0323765Y0139728D01*
X0323832Y0139664D01*
X0323896Y0139598D01*
X0323958Y0139528D01*
X0324016Y0139457D01*
X0324071Y0139383D01*
X0324123Y0139306D01*
X0324172Y0139227D01*
X0324218Y0139147D01*
X0324260Y0139064D01*
X0324298Y0138980D01*
X0324333Y0138894D01*
X0324364Y0138807D01*
X0324391Y0138719D01*
X0324414Y0138629D01*
X0324434Y0138539D01*
X0324450Y0138448D01*
X0324462Y0138356D01*
X0324470Y0138264D01*
X0324474Y0138171D01*
X0324474Y0138079D01*
X0324470Y0137986D01*
X0324462Y0137894D01*
X0324450Y0137802D01*
X0324434Y0137711D01*
X0324414Y0137621D01*
X0324391Y0137531D01*
X0324364Y0137443D01*
X0324333Y0137356D01*
X0324298Y0137270D01*
X0324260Y0137186D01*
X0324218Y0137103D01*
X0324172Y0137023D01*
X0324123Y0136944D01*
X0324071Y0136867D01*
X0324016Y0136793D01*
X0323958Y0136722D01*
X0323896Y0136652D01*
X0323832Y0136586D01*
X0323765Y0136522D01*
X0323695Y0136462D01*
X0323622Y0136404D01*
X0323548Y0136349D01*
X0323471Y0136298D01*
X0323392Y0136250D01*
X0323310Y0136206D01*
X0323227Y0136164D01*
X0323143Y0136127D01*
X0323057Y0136093D01*
X0322969Y0136063D01*
X0322881Y0136037D01*
X0322791Y0136014D01*
X0322700Y0135996D01*
X0322609Y0135981D01*
X0322517Y0135970D01*
X0322425Y0135963D01*
X0322332Y0135960D01*
X0322240Y0135961D01*
X0322147Y0135966D01*
X0322055Y0135975D01*
X0321963Y0135988D01*
X0321872Y0136004D01*
X0321782Y0136025D01*
X0321693Y0136049D01*
X0321605Y0136078D01*
X0321518Y0136110D01*
X0321433Y0136145D01*
X0321349Y0136185D01*
X0321267Y0136227D01*
X0321187Y0136274D01*
X0321109Y0136323D01*
X0321033Y0136376D01*
X0320959Y0136432D01*
X0320888Y0136492D01*
X0320820Y0136554D01*
X0320754Y0136619D01*
X0320691Y0136687D01*
X0320631Y0136757D01*
X0320574Y0136830D01*
X0320520Y0136905D01*
X0320470Y0136983D01*
X0320423Y0137063D01*
X0320379Y0137144D01*
X0320339Y0137228D01*
X0320302Y0137313D01*
X0320269Y0137399D01*
X0320240Y0137487D01*
X0320215Y0137576D01*
X0320193Y0137666D01*
X0320176Y0137757D01*
X0320162Y0137848D01*
X0320152Y0137940D01*
X0320146Y0138032D01*
X0320144Y0138125D01*
X0356969Y0020625D02*
X0356971Y0020778D01*
X0356977Y0020932D01*
X0356987Y0021085D01*
X0357001Y0021237D01*
X0357019Y0021390D01*
X0357041Y0021541D01*
X0357066Y0021692D01*
X0357096Y0021843D01*
X0357130Y0021993D01*
X0357167Y0022141D01*
X0357208Y0022289D01*
X0357253Y0022435D01*
X0357302Y0022581D01*
X0357355Y0022725D01*
X0357411Y0022867D01*
X0357471Y0023008D01*
X0357535Y0023148D01*
X0357602Y0023286D01*
X0357673Y0023422D01*
X0357748Y0023556D01*
X0357825Y0023688D01*
X0357907Y0023818D01*
X0357991Y0023946D01*
X0358079Y0024072D01*
X0358170Y0024195D01*
X0358264Y0024316D01*
X0358362Y0024434D01*
X0358462Y0024550D01*
X0358566Y0024663D01*
X0358672Y0024774D01*
X0358781Y0024882D01*
X0358893Y0024987D01*
X0359007Y0025088D01*
X0359125Y0025187D01*
X0359244Y0025283D01*
X0359366Y0025376D01*
X0359491Y0025465D01*
X0359618Y0025552D01*
X0359747Y0025634D01*
X0359878Y0025714D01*
X0360011Y0025790D01*
X0360146Y0025863D01*
X0360283Y0025932D01*
X0360422Y0025997D01*
X0360562Y0026059D01*
X0360704Y0026117D01*
X0360847Y0026172D01*
X0360992Y0026223D01*
X0361138Y0026270D01*
X0361285Y0026313D01*
X0361433Y0026352D01*
X0361582Y0026388D01*
X0361732Y0026419D01*
X0361883Y0026447D01*
X0362034Y0026471D01*
X0362187Y0026491D01*
X0362339Y0026507D01*
X0362492Y0026519D01*
X0362645Y0026527D01*
X0362798Y0026531D01*
X0362952Y0026531D01*
X0363105Y0026527D01*
X0363258Y0026519D01*
X0363411Y0026507D01*
X0363563Y0026491D01*
X0363716Y0026471D01*
X0363867Y0026447D01*
X0364018Y0026419D01*
X0364168Y0026388D01*
X0364317Y0026352D01*
X0364465Y0026313D01*
X0364612Y0026270D01*
X0364758Y0026223D01*
X0364903Y0026172D01*
X0365046Y0026117D01*
X0365188Y0026059D01*
X0365328Y0025997D01*
X0365467Y0025932D01*
X0365604Y0025863D01*
X0365739Y0025790D01*
X0365872Y0025714D01*
X0366003Y0025634D01*
X0366132Y0025552D01*
X0366259Y0025465D01*
X0366384Y0025376D01*
X0366506Y0025283D01*
X0366625Y0025187D01*
X0366743Y0025088D01*
X0366857Y0024987D01*
X0366969Y0024882D01*
X0367078Y0024774D01*
X0367184Y0024663D01*
X0367288Y0024550D01*
X0367388Y0024434D01*
X0367486Y0024316D01*
X0367580Y0024195D01*
X0367671Y0024072D01*
X0367759Y0023946D01*
X0367843Y0023818D01*
X0367925Y0023688D01*
X0368002Y0023556D01*
X0368077Y0023422D01*
X0368148Y0023286D01*
X0368215Y0023148D01*
X0368279Y0023008D01*
X0368339Y0022867D01*
X0368395Y0022725D01*
X0368448Y0022581D01*
X0368497Y0022435D01*
X0368542Y0022289D01*
X0368583Y0022141D01*
X0368620Y0021993D01*
X0368654Y0021843D01*
X0368684Y0021692D01*
X0368709Y0021541D01*
X0368731Y0021390D01*
X0368749Y0021237D01*
X0368763Y0021085D01*
X0368773Y0020932D01*
X0368779Y0020778D01*
X0368781Y0020625D01*
X0368779Y0020472D01*
X0368773Y0020318D01*
X0368763Y0020165D01*
X0368749Y0020013D01*
X0368731Y0019860D01*
X0368709Y0019709D01*
X0368684Y0019558D01*
X0368654Y0019407D01*
X0368620Y0019257D01*
X0368583Y0019109D01*
X0368542Y0018961D01*
X0368497Y0018815D01*
X0368448Y0018669D01*
X0368395Y0018525D01*
X0368339Y0018383D01*
X0368279Y0018242D01*
X0368215Y0018102D01*
X0368148Y0017964D01*
X0368077Y0017828D01*
X0368002Y0017694D01*
X0367925Y0017562D01*
X0367843Y0017432D01*
X0367759Y0017304D01*
X0367671Y0017178D01*
X0367580Y0017055D01*
X0367486Y0016934D01*
X0367388Y0016816D01*
X0367288Y0016700D01*
X0367184Y0016587D01*
X0367078Y0016476D01*
X0366969Y0016368D01*
X0366857Y0016263D01*
X0366743Y0016162D01*
X0366625Y0016063D01*
X0366506Y0015967D01*
X0366384Y0015874D01*
X0366259Y0015785D01*
X0366132Y0015698D01*
X0366003Y0015616D01*
X0365872Y0015536D01*
X0365739Y0015460D01*
X0365604Y0015387D01*
X0365467Y0015318D01*
X0365328Y0015253D01*
X0365188Y0015191D01*
X0365046Y0015133D01*
X0364903Y0015078D01*
X0364758Y0015027D01*
X0364612Y0014980D01*
X0364465Y0014937D01*
X0364317Y0014898D01*
X0364168Y0014862D01*
X0364018Y0014831D01*
X0363867Y0014803D01*
X0363716Y0014779D01*
X0363563Y0014759D01*
X0363411Y0014743D01*
X0363258Y0014731D01*
X0363105Y0014723D01*
X0362952Y0014719D01*
X0362798Y0014719D01*
X0362645Y0014723D01*
X0362492Y0014731D01*
X0362339Y0014743D01*
X0362187Y0014759D01*
X0362034Y0014779D01*
X0361883Y0014803D01*
X0361732Y0014831D01*
X0361582Y0014862D01*
X0361433Y0014898D01*
X0361285Y0014937D01*
X0361138Y0014980D01*
X0360992Y0015027D01*
X0360847Y0015078D01*
X0360704Y0015133D01*
X0360562Y0015191D01*
X0360422Y0015253D01*
X0360283Y0015318D01*
X0360146Y0015387D01*
X0360011Y0015460D01*
X0359878Y0015536D01*
X0359747Y0015616D01*
X0359618Y0015698D01*
X0359491Y0015785D01*
X0359366Y0015874D01*
X0359244Y0015967D01*
X0359125Y0016063D01*
X0359007Y0016162D01*
X0358893Y0016263D01*
X0358781Y0016368D01*
X0358672Y0016476D01*
X0358566Y0016587D01*
X0358462Y0016700D01*
X0358362Y0016816D01*
X0358264Y0016934D01*
X0358170Y0017055D01*
X0358079Y0017178D01*
X0357991Y0017304D01*
X0357907Y0017432D01*
X0357825Y0017562D01*
X0357748Y0017694D01*
X0357673Y0017828D01*
X0357602Y0017964D01*
X0357535Y0018102D01*
X0357471Y0018242D01*
X0357411Y0018383D01*
X0357355Y0018525D01*
X0357302Y0018669D01*
X0357253Y0018815D01*
X0357208Y0018961D01*
X0357167Y0019109D01*
X0357130Y0019257D01*
X0357096Y0019407D01*
X0357066Y0019558D01*
X0357041Y0019709D01*
X0357019Y0019860D01*
X0357001Y0020013D01*
X0356987Y0020165D01*
X0356977Y0020318D01*
X0356971Y0020472D01*
X0356969Y0020625D01*
X0356969Y0266250D02*
X0356971Y0266403D01*
X0356977Y0266557D01*
X0356987Y0266710D01*
X0357001Y0266862D01*
X0357019Y0267015D01*
X0357041Y0267166D01*
X0357066Y0267317D01*
X0357096Y0267468D01*
X0357130Y0267618D01*
X0357167Y0267766D01*
X0357208Y0267914D01*
X0357253Y0268060D01*
X0357302Y0268206D01*
X0357355Y0268350D01*
X0357411Y0268492D01*
X0357471Y0268633D01*
X0357535Y0268773D01*
X0357602Y0268911D01*
X0357673Y0269047D01*
X0357748Y0269181D01*
X0357825Y0269313D01*
X0357907Y0269443D01*
X0357991Y0269571D01*
X0358079Y0269697D01*
X0358170Y0269820D01*
X0358264Y0269941D01*
X0358362Y0270059D01*
X0358462Y0270175D01*
X0358566Y0270288D01*
X0358672Y0270399D01*
X0358781Y0270507D01*
X0358893Y0270612D01*
X0359007Y0270713D01*
X0359125Y0270812D01*
X0359244Y0270908D01*
X0359366Y0271001D01*
X0359491Y0271090D01*
X0359618Y0271177D01*
X0359747Y0271259D01*
X0359878Y0271339D01*
X0360011Y0271415D01*
X0360146Y0271488D01*
X0360283Y0271557D01*
X0360422Y0271622D01*
X0360562Y0271684D01*
X0360704Y0271742D01*
X0360847Y0271797D01*
X0360992Y0271848D01*
X0361138Y0271895D01*
X0361285Y0271938D01*
X0361433Y0271977D01*
X0361582Y0272013D01*
X0361732Y0272044D01*
X0361883Y0272072D01*
X0362034Y0272096D01*
X0362187Y0272116D01*
X0362339Y0272132D01*
X0362492Y0272144D01*
X0362645Y0272152D01*
X0362798Y0272156D01*
X0362952Y0272156D01*
X0363105Y0272152D01*
X0363258Y0272144D01*
X0363411Y0272132D01*
X0363563Y0272116D01*
X0363716Y0272096D01*
X0363867Y0272072D01*
X0364018Y0272044D01*
X0364168Y0272013D01*
X0364317Y0271977D01*
X0364465Y0271938D01*
X0364612Y0271895D01*
X0364758Y0271848D01*
X0364903Y0271797D01*
X0365046Y0271742D01*
X0365188Y0271684D01*
X0365328Y0271622D01*
X0365467Y0271557D01*
X0365604Y0271488D01*
X0365739Y0271415D01*
X0365872Y0271339D01*
X0366003Y0271259D01*
X0366132Y0271177D01*
X0366259Y0271090D01*
X0366384Y0271001D01*
X0366506Y0270908D01*
X0366625Y0270812D01*
X0366743Y0270713D01*
X0366857Y0270612D01*
X0366969Y0270507D01*
X0367078Y0270399D01*
X0367184Y0270288D01*
X0367288Y0270175D01*
X0367388Y0270059D01*
X0367486Y0269941D01*
X0367580Y0269820D01*
X0367671Y0269697D01*
X0367759Y0269571D01*
X0367843Y0269443D01*
X0367925Y0269313D01*
X0368002Y0269181D01*
X0368077Y0269047D01*
X0368148Y0268911D01*
X0368215Y0268773D01*
X0368279Y0268633D01*
X0368339Y0268492D01*
X0368395Y0268350D01*
X0368448Y0268206D01*
X0368497Y0268060D01*
X0368542Y0267914D01*
X0368583Y0267766D01*
X0368620Y0267618D01*
X0368654Y0267468D01*
X0368684Y0267317D01*
X0368709Y0267166D01*
X0368731Y0267015D01*
X0368749Y0266862D01*
X0368763Y0266710D01*
X0368773Y0266557D01*
X0368779Y0266403D01*
X0368781Y0266250D01*
X0368779Y0266097D01*
X0368773Y0265943D01*
X0368763Y0265790D01*
X0368749Y0265638D01*
X0368731Y0265485D01*
X0368709Y0265334D01*
X0368684Y0265183D01*
X0368654Y0265032D01*
X0368620Y0264882D01*
X0368583Y0264734D01*
X0368542Y0264586D01*
X0368497Y0264440D01*
X0368448Y0264294D01*
X0368395Y0264150D01*
X0368339Y0264008D01*
X0368279Y0263867D01*
X0368215Y0263727D01*
X0368148Y0263589D01*
X0368077Y0263453D01*
X0368002Y0263319D01*
X0367925Y0263187D01*
X0367843Y0263057D01*
X0367759Y0262929D01*
X0367671Y0262803D01*
X0367580Y0262680D01*
X0367486Y0262559D01*
X0367388Y0262441D01*
X0367288Y0262325D01*
X0367184Y0262212D01*
X0367078Y0262101D01*
X0366969Y0261993D01*
X0366857Y0261888D01*
X0366743Y0261787D01*
X0366625Y0261688D01*
X0366506Y0261592D01*
X0366384Y0261499D01*
X0366259Y0261410D01*
X0366132Y0261323D01*
X0366003Y0261241D01*
X0365872Y0261161D01*
X0365739Y0261085D01*
X0365604Y0261012D01*
X0365467Y0260943D01*
X0365328Y0260878D01*
X0365188Y0260816D01*
X0365046Y0260758D01*
X0364903Y0260703D01*
X0364758Y0260652D01*
X0364612Y0260605D01*
X0364465Y0260562D01*
X0364317Y0260523D01*
X0364168Y0260487D01*
X0364018Y0260456D01*
X0363867Y0260428D01*
X0363716Y0260404D01*
X0363563Y0260384D01*
X0363411Y0260368D01*
X0363258Y0260356D01*
X0363105Y0260348D01*
X0362952Y0260344D01*
X0362798Y0260344D01*
X0362645Y0260348D01*
X0362492Y0260356D01*
X0362339Y0260368D01*
X0362187Y0260384D01*
X0362034Y0260404D01*
X0361883Y0260428D01*
X0361732Y0260456D01*
X0361582Y0260487D01*
X0361433Y0260523D01*
X0361285Y0260562D01*
X0361138Y0260605D01*
X0360992Y0260652D01*
X0360847Y0260703D01*
X0360704Y0260758D01*
X0360562Y0260816D01*
X0360422Y0260878D01*
X0360283Y0260943D01*
X0360146Y0261012D01*
X0360011Y0261085D01*
X0359878Y0261161D01*
X0359747Y0261241D01*
X0359618Y0261323D01*
X0359491Y0261410D01*
X0359366Y0261499D01*
X0359244Y0261592D01*
X0359125Y0261688D01*
X0359007Y0261787D01*
X0358893Y0261888D01*
X0358781Y0261993D01*
X0358672Y0262101D01*
X0358566Y0262212D01*
X0358462Y0262325D01*
X0358362Y0262441D01*
X0358264Y0262559D01*
X0358170Y0262680D01*
X0358079Y0262803D01*
X0357991Y0262929D01*
X0357907Y0263057D01*
X0357825Y0263187D01*
X0357748Y0263319D01*
X0357673Y0263453D01*
X0357602Y0263589D01*
X0357535Y0263727D01*
X0357471Y0263867D01*
X0357411Y0264008D01*
X0357355Y0264150D01*
X0357302Y0264294D01*
X0357253Y0264440D01*
X0357208Y0264586D01*
X0357167Y0264734D01*
X0357130Y0264882D01*
X0357096Y0265032D01*
X0357066Y0265183D01*
X0357041Y0265334D01*
X0357019Y0265485D01*
X0357001Y0265638D01*
X0356987Y0265790D01*
X0356977Y0265943D01*
X0356971Y0266097D01*
X0356969Y0266250D01*
X0018219Y0266250D02*
X0018221Y0266403D01*
X0018227Y0266557D01*
X0018237Y0266710D01*
X0018251Y0266862D01*
X0018269Y0267015D01*
X0018291Y0267166D01*
X0018316Y0267317D01*
X0018346Y0267468D01*
X0018380Y0267618D01*
X0018417Y0267766D01*
X0018458Y0267914D01*
X0018503Y0268060D01*
X0018552Y0268206D01*
X0018605Y0268350D01*
X0018661Y0268492D01*
X0018721Y0268633D01*
X0018785Y0268773D01*
X0018852Y0268911D01*
X0018923Y0269047D01*
X0018998Y0269181D01*
X0019075Y0269313D01*
X0019157Y0269443D01*
X0019241Y0269571D01*
X0019329Y0269697D01*
X0019420Y0269820D01*
X0019514Y0269941D01*
X0019612Y0270059D01*
X0019712Y0270175D01*
X0019816Y0270288D01*
X0019922Y0270399D01*
X0020031Y0270507D01*
X0020143Y0270612D01*
X0020257Y0270713D01*
X0020375Y0270812D01*
X0020494Y0270908D01*
X0020616Y0271001D01*
X0020741Y0271090D01*
X0020868Y0271177D01*
X0020997Y0271259D01*
X0021128Y0271339D01*
X0021261Y0271415D01*
X0021396Y0271488D01*
X0021533Y0271557D01*
X0021672Y0271622D01*
X0021812Y0271684D01*
X0021954Y0271742D01*
X0022097Y0271797D01*
X0022242Y0271848D01*
X0022388Y0271895D01*
X0022535Y0271938D01*
X0022683Y0271977D01*
X0022832Y0272013D01*
X0022982Y0272044D01*
X0023133Y0272072D01*
X0023284Y0272096D01*
X0023437Y0272116D01*
X0023589Y0272132D01*
X0023742Y0272144D01*
X0023895Y0272152D01*
X0024048Y0272156D01*
X0024202Y0272156D01*
X0024355Y0272152D01*
X0024508Y0272144D01*
X0024661Y0272132D01*
X0024813Y0272116D01*
X0024966Y0272096D01*
X0025117Y0272072D01*
X0025268Y0272044D01*
X0025418Y0272013D01*
X0025567Y0271977D01*
X0025715Y0271938D01*
X0025862Y0271895D01*
X0026008Y0271848D01*
X0026153Y0271797D01*
X0026296Y0271742D01*
X0026438Y0271684D01*
X0026578Y0271622D01*
X0026717Y0271557D01*
X0026854Y0271488D01*
X0026989Y0271415D01*
X0027122Y0271339D01*
X0027253Y0271259D01*
X0027382Y0271177D01*
X0027509Y0271090D01*
X0027634Y0271001D01*
X0027756Y0270908D01*
X0027875Y0270812D01*
X0027993Y0270713D01*
X0028107Y0270612D01*
X0028219Y0270507D01*
X0028328Y0270399D01*
X0028434Y0270288D01*
X0028538Y0270175D01*
X0028638Y0270059D01*
X0028736Y0269941D01*
X0028830Y0269820D01*
X0028921Y0269697D01*
X0029009Y0269571D01*
X0029093Y0269443D01*
X0029175Y0269313D01*
X0029252Y0269181D01*
X0029327Y0269047D01*
X0029398Y0268911D01*
X0029465Y0268773D01*
X0029529Y0268633D01*
X0029589Y0268492D01*
X0029645Y0268350D01*
X0029698Y0268206D01*
X0029747Y0268060D01*
X0029792Y0267914D01*
X0029833Y0267766D01*
X0029870Y0267618D01*
X0029904Y0267468D01*
X0029934Y0267317D01*
X0029959Y0267166D01*
X0029981Y0267015D01*
X0029999Y0266862D01*
X0030013Y0266710D01*
X0030023Y0266557D01*
X0030029Y0266403D01*
X0030031Y0266250D01*
X0030029Y0266097D01*
X0030023Y0265943D01*
X0030013Y0265790D01*
X0029999Y0265638D01*
X0029981Y0265485D01*
X0029959Y0265334D01*
X0029934Y0265183D01*
X0029904Y0265032D01*
X0029870Y0264882D01*
X0029833Y0264734D01*
X0029792Y0264586D01*
X0029747Y0264440D01*
X0029698Y0264294D01*
X0029645Y0264150D01*
X0029589Y0264008D01*
X0029529Y0263867D01*
X0029465Y0263727D01*
X0029398Y0263589D01*
X0029327Y0263453D01*
X0029252Y0263319D01*
X0029175Y0263187D01*
X0029093Y0263057D01*
X0029009Y0262929D01*
X0028921Y0262803D01*
X0028830Y0262680D01*
X0028736Y0262559D01*
X0028638Y0262441D01*
X0028538Y0262325D01*
X0028434Y0262212D01*
X0028328Y0262101D01*
X0028219Y0261993D01*
X0028107Y0261888D01*
X0027993Y0261787D01*
X0027875Y0261688D01*
X0027756Y0261592D01*
X0027634Y0261499D01*
X0027509Y0261410D01*
X0027382Y0261323D01*
X0027253Y0261241D01*
X0027122Y0261161D01*
X0026989Y0261085D01*
X0026854Y0261012D01*
X0026717Y0260943D01*
X0026578Y0260878D01*
X0026438Y0260816D01*
X0026296Y0260758D01*
X0026153Y0260703D01*
X0026008Y0260652D01*
X0025862Y0260605D01*
X0025715Y0260562D01*
X0025567Y0260523D01*
X0025418Y0260487D01*
X0025268Y0260456D01*
X0025117Y0260428D01*
X0024966Y0260404D01*
X0024813Y0260384D01*
X0024661Y0260368D01*
X0024508Y0260356D01*
X0024355Y0260348D01*
X0024202Y0260344D01*
X0024048Y0260344D01*
X0023895Y0260348D01*
X0023742Y0260356D01*
X0023589Y0260368D01*
X0023437Y0260384D01*
X0023284Y0260404D01*
X0023133Y0260428D01*
X0022982Y0260456D01*
X0022832Y0260487D01*
X0022683Y0260523D01*
X0022535Y0260562D01*
X0022388Y0260605D01*
X0022242Y0260652D01*
X0022097Y0260703D01*
X0021954Y0260758D01*
X0021812Y0260816D01*
X0021672Y0260878D01*
X0021533Y0260943D01*
X0021396Y0261012D01*
X0021261Y0261085D01*
X0021128Y0261161D01*
X0020997Y0261241D01*
X0020868Y0261323D01*
X0020741Y0261410D01*
X0020616Y0261499D01*
X0020494Y0261592D01*
X0020375Y0261688D01*
X0020257Y0261787D01*
X0020143Y0261888D01*
X0020031Y0261993D01*
X0019922Y0262101D01*
X0019816Y0262212D01*
X0019712Y0262325D01*
X0019612Y0262441D01*
X0019514Y0262559D01*
X0019420Y0262680D01*
X0019329Y0262803D01*
X0019241Y0262929D01*
X0019157Y0263057D01*
X0019075Y0263187D01*
X0018998Y0263319D01*
X0018923Y0263453D01*
X0018852Y0263589D01*
X0018785Y0263727D01*
X0018721Y0263867D01*
X0018661Y0264008D01*
X0018605Y0264150D01*
X0018552Y0264294D01*
X0018503Y0264440D01*
X0018458Y0264586D01*
X0018417Y0264734D01*
X0018380Y0264882D01*
X0018346Y0265032D01*
X0018316Y0265183D01*
X0018291Y0265334D01*
X0018269Y0265485D01*
X0018251Y0265638D01*
X0018237Y0265790D01*
X0018227Y0265943D01*
X0018221Y0266097D01*
X0018219Y0266250D01*
D11*
X0079135Y0058244D03*
X0086615Y0058244D03*
X0086615Y0048006D03*
X0082875Y0048006D03*
X0079135Y0048006D03*
D12*
X0072250Y0048250D03*
X0072250Y0054250D03*
X0092875Y0052000D03*
X0092875Y0058000D03*
X0139750Y0048000D03*
X0139750Y0042000D03*
X0077250Y0080750D03*
X0077250Y0086750D03*
X0255375Y0089250D03*
X0255375Y0083250D03*
X0261625Y0083250D03*
X0261625Y0089250D03*
X0261625Y0095750D03*
X0255375Y0095750D03*
X0255375Y0101750D03*
X0261625Y0101750D03*
X0297875Y0102000D03*
X0297875Y0108000D03*
X0297875Y0094875D03*
X0297875Y0088875D03*
X0304125Y0088875D03*
X0304125Y0094875D03*
X0334125Y0192000D03*
X0334125Y0198000D03*
X0334125Y0204500D03*
X0334125Y0210500D03*
X0081625Y0178625D03*
X0081625Y0172625D03*
X0052875Y0192000D03*
X0052875Y0198000D03*
X0052875Y0204500D03*
X0052875Y0210500D03*
D13*
X0239500Y0261250D03*
X0247500Y0261250D03*
X0247500Y0269375D03*
X0239500Y0269375D03*
X0278875Y0107500D03*
X0286875Y0107500D03*
X0107500Y0038750D03*
X0099500Y0038750D03*
D14*
X0089105Y0038750D03*
X0074145Y0038750D03*
D15*
X0047875Y0030748D03*
X0047875Y0009252D03*
D16*
X0100375Y0052250D03*
X0100375Y0060250D03*
X0257875Y0067250D03*
X0257875Y0075250D03*
X0330375Y0163500D03*
X0330375Y0171500D03*
X0276000Y0250375D03*
X0276000Y0258375D03*
D17*
X0288263Y0259345D03*
X0288263Y0256786D03*
X0288263Y0254227D03*
X0288263Y0251668D03*
X0288263Y0249109D03*
X0288263Y0246550D03*
X0288263Y0243991D03*
X0311237Y0243991D03*
X0311237Y0246550D03*
X0311237Y0249109D03*
X0311237Y0251668D03*
X0311237Y0254227D03*
X0311237Y0256786D03*
X0311237Y0259345D03*
X0311237Y0261905D03*
X0311237Y0264464D03*
X0311237Y0267023D03*
X0311237Y0269582D03*
X0311237Y0272141D03*
X0311237Y0274700D03*
X0311237Y0277259D03*
X0288263Y0277259D03*
X0288263Y0274700D03*
X0288263Y0272141D03*
X0288263Y0269582D03*
X0288263Y0267023D03*
X0288263Y0264464D03*
X0288263Y0261905D03*
X0204987Y0247884D03*
X0204987Y0245325D03*
X0204987Y0242766D03*
X0204987Y0240207D03*
X0204987Y0237648D03*
X0204987Y0235089D03*
X0204987Y0232530D03*
X0204987Y0229970D03*
X0204987Y0227411D03*
X0204987Y0224852D03*
X0204987Y0222293D03*
X0204987Y0219734D03*
X0204987Y0217175D03*
X0204987Y0214616D03*
X0182013Y0214616D03*
X0182013Y0217175D03*
X0182013Y0219734D03*
X0182013Y0222293D03*
X0182013Y0224852D03*
X0182013Y0227411D03*
X0182013Y0229970D03*
X0182013Y0232530D03*
X0182013Y0235089D03*
X0182013Y0237648D03*
X0182013Y0240207D03*
X0182013Y0242766D03*
X0182013Y0245325D03*
X0182013Y0247884D03*
X0098737Y0249109D03*
X0098737Y0246550D03*
X0098737Y0243991D03*
X0098737Y0251668D03*
X0098737Y0254227D03*
X0098737Y0256786D03*
X0098737Y0259345D03*
X0098737Y0261905D03*
X0098737Y0264464D03*
X0098737Y0267023D03*
X0098737Y0269582D03*
X0098737Y0272141D03*
X0098737Y0274700D03*
X0098737Y0277259D03*
X0075763Y0277259D03*
X0075763Y0274700D03*
X0075763Y0272141D03*
X0075763Y0269582D03*
X0075763Y0267023D03*
X0075763Y0264464D03*
X0075763Y0261905D03*
X0075763Y0259345D03*
X0075763Y0256786D03*
X0075763Y0254227D03*
X0075763Y0251668D03*
X0075763Y0249109D03*
X0075763Y0246550D03*
X0075763Y0243991D03*
D18*
X0078000Y0237500D03*
X0084000Y0237500D03*
X0090500Y0237500D03*
X0096500Y0237500D03*
X0099000Y0231250D03*
X0093000Y0231250D03*
X0121750Y0261875D03*
X0127750Y0261875D03*
X0136750Y0275000D03*
X0142750Y0275000D03*
X0260500Y0264375D03*
X0266500Y0264375D03*
X0290500Y0237500D03*
X0296500Y0237500D03*
X0303000Y0237500D03*
X0309000Y0237500D03*
X0331750Y0183125D03*
X0337750Y0183125D03*
X0344250Y0183125D03*
X0350250Y0183125D03*
X0202750Y0208125D03*
X0196750Y0208125D03*
X0190250Y0208125D03*
X0184250Y0208125D03*
X0269875Y0100000D03*
X0275875Y0100000D03*
X0282375Y0100000D03*
X0288375Y0100000D03*
X0282750Y0071875D03*
X0276750Y0071875D03*
D19*
X0340616Y0189763D03*
X0343175Y0189763D03*
X0345734Y0189763D03*
X0348293Y0189763D03*
X0350852Y0189763D03*
X0353411Y0189763D03*
X0355970Y0189763D03*
X0358530Y0189763D03*
X0361089Y0189763D03*
X0363648Y0189763D03*
X0366207Y0189763D03*
X0368766Y0189763D03*
X0371325Y0189763D03*
X0373884Y0189763D03*
X0373884Y0212737D03*
X0371325Y0212737D03*
X0368766Y0212737D03*
X0366207Y0212737D03*
X0363648Y0212737D03*
X0361089Y0212737D03*
X0358530Y0212737D03*
X0355970Y0212737D03*
X0353411Y0212737D03*
X0350852Y0212737D03*
X0348293Y0212737D03*
X0345734Y0212737D03*
X0343175Y0212737D03*
X0340616Y0212737D03*
X0046384Y0212737D03*
X0043825Y0212737D03*
X0041266Y0212737D03*
X0038707Y0212737D03*
X0036148Y0212737D03*
X0033589Y0212737D03*
X0031030Y0212737D03*
X0028470Y0212737D03*
X0025911Y0212737D03*
X0023352Y0212737D03*
X0020793Y0212737D03*
X0018234Y0212737D03*
X0015675Y0212737D03*
X0013116Y0212737D03*
X0013116Y0189763D03*
X0015675Y0189763D03*
X0018234Y0189763D03*
X0020793Y0189763D03*
X0023352Y0189763D03*
X0025911Y0189763D03*
X0028470Y0189763D03*
X0031030Y0189763D03*
X0033589Y0189763D03*
X0036148Y0189763D03*
X0038707Y0189763D03*
X0041266Y0189763D03*
X0043825Y0189763D03*
X0046384Y0189763D03*
D20*
X0066207Y0154267D03*
X0068569Y0154267D03*
X0070931Y0154267D03*
X0073293Y0154267D03*
X0075656Y0154267D03*
X0078018Y0154267D03*
X0080380Y0154267D03*
X0082742Y0154267D03*
X0085104Y0154267D03*
X0087467Y0154267D03*
X0089829Y0154267D03*
X0092191Y0154267D03*
X0094553Y0154267D03*
X0096915Y0154267D03*
X0099278Y0154267D03*
X0101640Y0154267D03*
X0104002Y0154267D03*
X0106364Y0154267D03*
X0108726Y0154267D03*
X0111089Y0154267D03*
X0127624Y0154267D03*
X0129986Y0154267D03*
X0132348Y0154267D03*
X0134711Y0154267D03*
X0137073Y0154267D03*
X0139435Y0154267D03*
X0141797Y0154267D03*
X0144159Y0154267D03*
X0146522Y0154267D03*
X0148884Y0154267D03*
X0151246Y0154267D03*
X0153608Y0154267D03*
X0155970Y0154267D03*
X0158333Y0154267D03*
X0160695Y0154267D03*
X0163057Y0154267D03*
X0165419Y0154267D03*
X0167781Y0154267D03*
X0170144Y0154267D03*
X0172506Y0154267D03*
X0174868Y0154267D03*
X0177230Y0154267D03*
X0179593Y0154267D03*
X0181955Y0154267D03*
X0184317Y0154267D03*
X0186679Y0154267D03*
X0189041Y0154267D03*
X0191404Y0154267D03*
X0193766Y0154267D03*
X0196128Y0154267D03*
X0198490Y0154267D03*
X0200852Y0154267D03*
X0203215Y0154267D03*
X0205577Y0154267D03*
X0207939Y0154267D03*
X0210301Y0154267D03*
X0212663Y0154267D03*
X0215026Y0154267D03*
X0217388Y0154267D03*
X0219750Y0154267D03*
X0222112Y0154267D03*
X0224474Y0154267D03*
X0226837Y0154267D03*
X0229199Y0154267D03*
X0231561Y0154267D03*
X0233923Y0154267D03*
X0236285Y0154267D03*
X0238648Y0154267D03*
X0241010Y0154267D03*
X0243372Y0154267D03*
X0245734Y0154267D03*
X0248096Y0154267D03*
X0250459Y0154267D03*
X0252821Y0154267D03*
X0255183Y0154267D03*
X0257545Y0154267D03*
X0259907Y0154267D03*
X0262270Y0154267D03*
X0264632Y0154267D03*
X0266994Y0154267D03*
X0269356Y0154267D03*
X0271719Y0154267D03*
X0274081Y0154267D03*
X0276443Y0154267D03*
X0278805Y0154267D03*
X0281167Y0154267D03*
X0283530Y0154267D03*
X0285892Y0154267D03*
X0288254Y0154267D03*
X0290616Y0154267D03*
X0292978Y0154267D03*
X0295341Y0154267D03*
X0297703Y0154267D03*
X0300065Y0154267D03*
X0302427Y0154267D03*
X0304789Y0154267D03*
X0307152Y0154267D03*
X0309514Y0154267D03*
X0311876Y0154267D03*
X0314238Y0154267D03*
X0313057Y0121983D03*
X0310695Y0121983D03*
X0308333Y0121983D03*
X0305970Y0121983D03*
X0303608Y0121983D03*
X0301246Y0121983D03*
X0298884Y0121983D03*
X0296522Y0121983D03*
X0294159Y0121983D03*
X0291797Y0121983D03*
X0289435Y0121983D03*
X0287073Y0121983D03*
X0284711Y0121983D03*
X0282348Y0121983D03*
X0279986Y0121983D03*
X0277624Y0121983D03*
X0275262Y0121983D03*
X0272900Y0121983D03*
X0270537Y0121983D03*
X0268175Y0121983D03*
X0265813Y0121983D03*
X0263451Y0121983D03*
X0261089Y0121983D03*
X0258726Y0121983D03*
X0256364Y0121983D03*
X0254002Y0121983D03*
X0251640Y0121983D03*
X0249278Y0121983D03*
X0246915Y0121983D03*
X0244553Y0121983D03*
X0242191Y0121983D03*
X0239829Y0121983D03*
X0237467Y0121983D03*
X0235104Y0121983D03*
X0232742Y0121983D03*
X0230380Y0121983D03*
X0228018Y0121983D03*
X0225656Y0121983D03*
X0223293Y0121983D03*
X0220931Y0121983D03*
X0218569Y0121983D03*
X0216207Y0121983D03*
X0213844Y0121983D03*
X0211482Y0121983D03*
X0209120Y0121983D03*
X0206758Y0121983D03*
X0204396Y0121983D03*
X0202033Y0121983D03*
X0199671Y0121983D03*
X0197309Y0121983D03*
X0194947Y0121983D03*
X0192585Y0121983D03*
X0190222Y0121983D03*
X0187860Y0121983D03*
X0185498Y0121983D03*
X0183136Y0121983D03*
X0180774Y0121983D03*
X0178411Y0121983D03*
X0176049Y0121983D03*
X0173687Y0121983D03*
X0171325Y0121983D03*
X0168963Y0121983D03*
X0166600Y0121983D03*
X0164238Y0121983D03*
X0161876Y0121983D03*
X0159514Y0121983D03*
X0157152Y0121983D03*
X0154789Y0121983D03*
X0152427Y0121983D03*
X0150065Y0121983D03*
X0147703Y0121983D03*
X0145341Y0121983D03*
X0142978Y0121983D03*
X0140616Y0121983D03*
X0138254Y0121983D03*
X0135892Y0121983D03*
X0133530Y0121983D03*
X0131167Y0121983D03*
X0128805Y0121983D03*
X0112270Y0121983D03*
X0109907Y0121983D03*
X0107545Y0121983D03*
X0105183Y0121983D03*
X0102821Y0121983D03*
X0100459Y0121983D03*
X0098096Y0121983D03*
X0095734Y0121983D03*
X0093372Y0121983D03*
X0091010Y0121983D03*
X0088648Y0121983D03*
X0086285Y0121983D03*
X0083923Y0121983D03*
X0081561Y0121983D03*
X0079199Y0121983D03*
X0076837Y0121983D03*
X0074474Y0121983D03*
X0072112Y0121983D03*
X0069750Y0121983D03*
X0067388Y0121983D03*
X0315419Y0121983D03*
D21*
X0318963Y0090881D03*
X0062663Y0090881D03*
D22*
X0138500Y0261063D03*
X0134760Y0268937D03*
X0142240Y0268937D03*
D23*
X0270050Y0093750D03*
X0270050Y0088750D03*
X0270050Y0083750D03*
X0270050Y0078750D03*
X0289450Y0078750D03*
X0289450Y0083750D03*
X0289450Y0088750D03*
X0289450Y0093750D03*
D24*
X0291910Y0070000D03*
X0308840Y0070000D03*
D25*
X0350375Y0148248D03*
X0350375Y0166752D03*
D26*
X0238500Y0080768D03*
X0238500Y0064232D03*
D27*
X0236000Y0091550D03*
X0241000Y0091550D03*
X0246000Y0091550D03*
X0231000Y0091550D03*
X0231000Y0110950D03*
X0236000Y0110950D03*
X0241000Y0110950D03*
X0246000Y0110950D03*
D28*
X0131625Y0097923D03*
X0126625Y0097923D03*
X0121625Y0097923D03*
X0116625Y0097923D03*
X0111625Y0097923D03*
X0106625Y0097923D03*
X0101625Y0097923D03*
X0096625Y0097923D03*
X0091625Y0097923D03*
X0086625Y0097923D03*
X0086625Y0069577D03*
X0091625Y0069577D03*
X0096625Y0069577D03*
X0101625Y0069577D03*
X0106625Y0069577D03*
X0111625Y0069577D03*
X0116625Y0069577D03*
X0121625Y0069577D03*
X0126625Y0069577D03*
X0131625Y0069577D03*
X0149125Y0059173D03*
X0154125Y0059173D03*
X0159125Y0059173D03*
X0164125Y0059173D03*
X0169125Y0059173D03*
X0174125Y0059173D03*
X0179125Y0059173D03*
X0184125Y0059173D03*
X0189125Y0059173D03*
X0194125Y0059173D03*
X0194125Y0030827D03*
X0189125Y0030827D03*
X0184125Y0030827D03*
X0179125Y0030827D03*
X0174125Y0030827D03*
X0169125Y0030827D03*
X0164125Y0030827D03*
X0159125Y0030827D03*
X0154125Y0030827D03*
X0149125Y0030827D03*
D29*
X0103500Y0166550D03*
X0098500Y0166550D03*
X0093500Y0166550D03*
X0088500Y0166550D03*
X0088500Y0185950D03*
X0093500Y0185950D03*
X0098500Y0185950D03*
X0103500Y0185950D03*
D30*
X0111748Y0199532D03*
X0111748Y0209375D03*
X0111748Y0219218D03*
X0080252Y0219218D03*
X0080252Y0209375D03*
X0080252Y0199532D03*
D31*
X0130783Y0172037D03*
X0134720Y0172037D03*
X0138657Y0172037D03*
X0142594Y0172037D03*
X0146531Y0172037D03*
X0150469Y0172037D03*
X0154406Y0172037D03*
X0158343Y0172037D03*
X0162280Y0172037D03*
X0166217Y0172037D03*
X0220783Y0172037D03*
X0224720Y0172037D03*
X0228657Y0172037D03*
X0232594Y0172037D03*
X0236531Y0172037D03*
X0240469Y0172037D03*
X0244406Y0172037D03*
X0248343Y0172037D03*
X0252280Y0172037D03*
X0256217Y0172037D03*
D32*
X0261335Y0187293D03*
X0215665Y0187293D03*
X0171335Y0187293D03*
X0125665Y0187293D03*
D33*
X0285439Y0175433D03*
X0293313Y0175433D03*
X0301187Y0175433D03*
X0309061Y0175433D03*
D34*
X0319691Y0195906D03*
X0274809Y0195906D03*
M02*
