%
M48
M72
T01C0.0150
T02C0.0197
T03C0.0236
T04C0.0315
T05C0.0320
T06C0.0394
T07C0.0400
T08C0.0433
T09C0.1063
T10C0.1181
%
T01
X12193Y7875
X12693Y7875
X13193Y7875
X14193Y7875
X15818Y9125
X16193Y8750
X15193Y10250
X14693Y10250
X13818Y10250
X13193Y10250
X13693Y11625
X14193Y12250
X14693Y11625
X15193Y12625
X15818Y13500
X16568Y13125
X16318Y12500
X13193Y12625
X12568Y12125
X9818Y13625
X9193Y13625
X9506Y11938
X17443Y17500
X17693Y18625
X17693Y19625
X17693Y20750
X16818Y22500
X15568Y22500
X16318Y25375
X15943Y25875
X16568Y26375
X15943Y26875
X16068Y27375
X16193Y28250
X15693Y28250
X16693Y28250
X17193Y28250
X17693Y28250
X18193Y28250
X18693Y27750
X18943Y28000
X18943Y28375
X18943Y29375
X19193Y29625
X19443Y29875
X19693Y30125
X19943Y30375
X20193Y30625
X20443Y30875
X20693Y31125
X20943Y31375
X21318Y31375
X21568Y31625
X21568Y32000
X21443Y32375
X20443Y32000
X20193Y31750
X19943Y31500
X19693Y31250
X19443Y31000
X19193Y30750
X18943Y30500
X18693Y30250
X18443Y30000
X18193Y29750
X18193Y29375
X18318Y27500
X17943Y26875
X20193Y26750
X20193Y27250
X20693Y27250
X20693Y26750
X20693Y26250
X20693Y25750
X22193Y25875
X23693Y24500
X24918Y25800
X22193Y28375
X22443Y31125
X23443Y32625
X26318Y28875
X29193Y28638
X30131Y28475
X32193Y29000
X33693Y27625
X33818Y26625
X37643Y27600
X37493Y23875
X36318Y18375
X36443Y18000
X36568Y17250
X37068Y16000
X37568Y16000
X38068Y14000
X36568Y14000
X36318Y11875
X36443Y7375
X35943Y7375
X29943Y12875
X29943Y14375
X30068Y16600
X32443Y17125
X32568Y18125
X26468Y20125
X25893Y19125
X25437Y18631
X24743Y16550
X25193Y20850
X26093Y21500
X26693Y21900
X27943Y25000
X28568Y25000
X29193Y25000
X30693Y31250
X20318Y23125
X19818Y22875
X18943Y23750
X19318Y24125
X12693Y23750
X12193Y23750
X11693Y23750
X11193Y23750
X10693Y23750
X10193Y23750
X10818Y37875
X11318Y37875
X11818Y37875
X12318Y37875
X12818Y37875
X13318Y37875
X13818Y37875
X14318Y37875
X14818Y37875
X15318Y38125
X15318Y38625
X15318Y39125
X15318Y39625
X15318Y40125
X15318Y40625
X15318Y41125
X15318Y41625
X15318Y42125
X15318Y42625
X10568Y42625
X10568Y40375
X10568Y39875
X10568Y39375
X10568Y38875
X10568Y38375
T02
X18568Y28125
X20193Y25750
X19443Y24625
X20443Y23625
X20943Y20500
X17193Y24375
X16318Y24875
T03
X22568Y25375
X23068Y26875
T04
X15193Y21250
X13568Y21250
X33443Y24950
T05
X16068Y18250
X15068Y18250
X14068Y18250
X12818Y18250
X11818Y18250
X10818Y18250
X10818Y15250
X11818Y15250
X12818Y15250
X14068Y15250
X15068Y15250
X16068Y15250
X16193Y35300
X16193Y36700
X11568Y35125
X10568Y35125
T06
X21193Y23625
X21193Y22625
X22193Y22625
X22193Y23625
X23193Y23625
X23193Y22625
X24193Y22625
X24193Y23625
X25193Y23625
X25193Y22625
X26193Y22625
X26193Y23625
X27193Y23625
X27193Y22625
X28193Y22625
X28193Y23625
X29193Y23625
X29193Y22625
X30193Y22625
X30193Y23625
X31193Y23625
X31193Y22625
X33470Y20631
X33470Y19631
X33470Y18631
X34470Y18631
X34470Y19631
X34470Y20631
X36568Y20750
X37568Y20750
X37568Y21750
X36568Y21750
X36568Y22750
X37568Y22750
X34470Y17631
X33470Y17631
X33470Y16631
X33470Y15631
X34470Y15631
X34470Y16631
X34470Y14631
X33470Y14631
X33470Y13631
X34470Y13631
X34468Y12375
X33468Y12375
X33468Y11375
X34468Y11375
X34468Y10375
X33468Y10375
X33468Y9375
X33468Y8375
X33468Y7375
X34468Y7375
X34468Y8375
X34468Y9375
X34468Y6375
X33468Y6375
X33468Y5375
X33468Y4375
X34468Y4375
X34468Y5375
X19856Y11588
X18856Y11588
X18856Y12588
X18856Y13588
X18856Y14588
X18856Y15588
X19856Y15588
X19856Y14588
X19856Y13588
X19856Y12588
X19856Y16588
X19856Y17588
X19856Y18588
X18856Y18588
X18856Y17588
X18856Y16588
X18856Y19588
X18856Y20588
X18856Y21588
X19856Y21588
X19856Y20588
X19856Y19588
T07
X8818Y26875
X8818Y31875
T08
X20993Y31975
X20993Y30401
X22449Y30401
X23827Y30401
X24811Y30401
X25796Y30401
X26780Y30401
X27764Y30401
X28748Y30401
X29733Y30401
X30717Y30401
X31701Y30401
X32685Y30401
X32685Y31975
X31701Y31975
X30717Y31975
X29733Y31975
X28748Y31975
X27764Y31975
X26780Y31975
X25796Y31975
X24811Y31975
X23827Y31975
X22449Y31975
X22449Y33550
X23827Y33550
X24811Y33550
X25796Y33550
X26780Y33550
X27764Y33550
X28748Y33550
X29733Y33550
X30717Y33550
X31701Y33550
X32685Y33550
X32685Y35125
X31701Y35125
X30717Y35125
X29733Y35125
X28748Y35125
X27764Y35125
X26780Y35125
X25796Y35125
X24811Y35125
X23827Y35125
X22449Y35125
X20993Y35125
X20993Y33550
T09
X19339Y33944
X34339Y33944
T10
X9068Y5375
X37193Y5375
X37193Y41375
X9068Y41375
M30
