G75*
G70*
%OFA0B0*%
%FSLAX24Y24*%
%IPPOS*%
%LPD*%
%AMOC8*
5,1,8,0,0,1.08239X$1,22.5*
%
%ADD10C,0.0000*%
D10*
X007318Y003625D02*
X007318Y042995D01*
X038685Y042995D01*
X038685Y003625D01*
X007318Y003625D01*
X008477Y005375D02*
X008479Y005423D01*
X008485Y005471D01*
X008495Y005518D01*
X008508Y005564D01*
X008526Y005609D01*
X008546Y005653D01*
X008571Y005695D01*
X008599Y005734D01*
X008629Y005771D01*
X008663Y005805D01*
X008700Y005837D01*
X008738Y005866D01*
X008779Y005891D01*
X008822Y005913D01*
X008867Y005931D01*
X008913Y005945D01*
X008960Y005956D01*
X009008Y005963D01*
X009056Y005966D01*
X009104Y005965D01*
X009152Y005960D01*
X009200Y005951D01*
X009246Y005939D01*
X009291Y005922D01*
X009335Y005902D01*
X009377Y005879D01*
X009417Y005852D01*
X009455Y005822D01*
X009490Y005789D01*
X009522Y005753D01*
X009552Y005715D01*
X009578Y005674D01*
X009600Y005631D01*
X009620Y005587D01*
X009635Y005542D01*
X009647Y005495D01*
X009655Y005447D01*
X009659Y005399D01*
X009659Y005351D01*
X009655Y005303D01*
X009647Y005255D01*
X009635Y005208D01*
X009620Y005163D01*
X009600Y005119D01*
X009578Y005076D01*
X009552Y005035D01*
X009522Y004997D01*
X009490Y004961D01*
X009455Y004928D01*
X009417Y004898D01*
X009377Y004871D01*
X009335Y004848D01*
X009291Y004828D01*
X009246Y004811D01*
X009200Y004799D01*
X009152Y004790D01*
X009104Y004785D01*
X009056Y004784D01*
X009008Y004787D01*
X008960Y004794D01*
X008913Y004805D01*
X008867Y004819D01*
X008822Y004837D01*
X008779Y004859D01*
X008738Y004884D01*
X008700Y004913D01*
X008663Y004945D01*
X008629Y004979D01*
X008599Y005016D01*
X008571Y005055D01*
X008546Y005097D01*
X008526Y005141D01*
X008508Y005186D01*
X008495Y005232D01*
X008485Y005279D01*
X008479Y005327D01*
X008477Y005375D01*
X036602Y005375D02*
X036604Y005423D01*
X036610Y005471D01*
X036620Y005518D01*
X036633Y005564D01*
X036651Y005609D01*
X036671Y005653D01*
X036696Y005695D01*
X036724Y005734D01*
X036754Y005771D01*
X036788Y005805D01*
X036825Y005837D01*
X036863Y005866D01*
X036904Y005891D01*
X036947Y005913D01*
X036992Y005931D01*
X037038Y005945D01*
X037085Y005956D01*
X037133Y005963D01*
X037181Y005966D01*
X037229Y005965D01*
X037277Y005960D01*
X037325Y005951D01*
X037371Y005939D01*
X037416Y005922D01*
X037460Y005902D01*
X037502Y005879D01*
X037542Y005852D01*
X037580Y005822D01*
X037615Y005789D01*
X037647Y005753D01*
X037677Y005715D01*
X037703Y005674D01*
X037725Y005631D01*
X037745Y005587D01*
X037760Y005542D01*
X037772Y005495D01*
X037780Y005447D01*
X037784Y005399D01*
X037784Y005351D01*
X037780Y005303D01*
X037772Y005255D01*
X037760Y005208D01*
X037745Y005163D01*
X037725Y005119D01*
X037703Y005076D01*
X037677Y005035D01*
X037647Y004997D01*
X037615Y004961D01*
X037580Y004928D01*
X037542Y004898D01*
X037502Y004871D01*
X037460Y004848D01*
X037416Y004828D01*
X037371Y004811D01*
X037325Y004799D01*
X037277Y004790D01*
X037229Y004785D01*
X037181Y004784D01*
X037133Y004787D01*
X037085Y004794D01*
X037038Y004805D01*
X036992Y004819D01*
X036947Y004837D01*
X036904Y004859D01*
X036863Y004884D01*
X036825Y004913D01*
X036788Y004945D01*
X036754Y004979D01*
X036724Y005016D01*
X036696Y005055D01*
X036671Y005097D01*
X036651Y005141D01*
X036633Y005186D01*
X036620Y005232D01*
X036610Y005279D01*
X036604Y005327D01*
X036602Y005375D01*
X036602Y041375D02*
X036604Y041423D01*
X036610Y041471D01*
X036620Y041518D01*
X036633Y041564D01*
X036651Y041609D01*
X036671Y041653D01*
X036696Y041695D01*
X036724Y041734D01*
X036754Y041771D01*
X036788Y041805D01*
X036825Y041837D01*
X036863Y041866D01*
X036904Y041891D01*
X036947Y041913D01*
X036992Y041931D01*
X037038Y041945D01*
X037085Y041956D01*
X037133Y041963D01*
X037181Y041966D01*
X037229Y041965D01*
X037277Y041960D01*
X037325Y041951D01*
X037371Y041939D01*
X037416Y041922D01*
X037460Y041902D01*
X037502Y041879D01*
X037542Y041852D01*
X037580Y041822D01*
X037615Y041789D01*
X037647Y041753D01*
X037677Y041715D01*
X037703Y041674D01*
X037725Y041631D01*
X037745Y041587D01*
X037760Y041542D01*
X037772Y041495D01*
X037780Y041447D01*
X037784Y041399D01*
X037784Y041351D01*
X037780Y041303D01*
X037772Y041255D01*
X037760Y041208D01*
X037745Y041163D01*
X037725Y041119D01*
X037703Y041076D01*
X037677Y041035D01*
X037647Y040997D01*
X037615Y040961D01*
X037580Y040928D01*
X037542Y040898D01*
X037502Y040871D01*
X037460Y040848D01*
X037416Y040828D01*
X037371Y040811D01*
X037325Y040799D01*
X037277Y040790D01*
X037229Y040785D01*
X037181Y040784D01*
X037133Y040787D01*
X037085Y040794D01*
X037038Y040805D01*
X036992Y040819D01*
X036947Y040837D01*
X036904Y040859D01*
X036863Y040884D01*
X036825Y040913D01*
X036788Y040945D01*
X036754Y040979D01*
X036724Y041016D01*
X036696Y041055D01*
X036671Y041097D01*
X036651Y041141D01*
X036633Y041186D01*
X036620Y041232D01*
X036610Y041279D01*
X036604Y041327D01*
X036602Y041375D01*
X008477Y041375D02*
X008479Y041423D01*
X008485Y041471D01*
X008495Y041518D01*
X008508Y041564D01*
X008526Y041609D01*
X008546Y041653D01*
X008571Y041695D01*
X008599Y041734D01*
X008629Y041771D01*
X008663Y041805D01*
X008700Y041837D01*
X008738Y041866D01*
X008779Y041891D01*
X008822Y041913D01*
X008867Y041931D01*
X008913Y041945D01*
X008960Y041956D01*
X009008Y041963D01*
X009056Y041966D01*
X009104Y041965D01*
X009152Y041960D01*
X009200Y041951D01*
X009246Y041939D01*
X009291Y041922D01*
X009335Y041902D01*
X009377Y041879D01*
X009417Y041852D01*
X009455Y041822D01*
X009490Y041789D01*
X009522Y041753D01*
X009552Y041715D01*
X009578Y041674D01*
X009600Y041631D01*
X009620Y041587D01*
X009635Y041542D01*
X009647Y041495D01*
X009655Y041447D01*
X009659Y041399D01*
X009659Y041351D01*
X009655Y041303D01*
X009647Y041255D01*
X009635Y041208D01*
X009620Y041163D01*
X009600Y041119D01*
X009578Y041076D01*
X009552Y041035D01*
X009522Y040997D01*
X009490Y040961D01*
X009455Y040928D01*
X009417Y040898D01*
X009377Y040871D01*
X009335Y040848D01*
X009291Y040828D01*
X009246Y040811D01*
X009200Y040799D01*
X009152Y040790D01*
X009104Y040785D01*
X009056Y040784D01*
X009008Y040787D01*
X008960Y040794D01*
X008913Y040805D01*
X008867Y040819D01*
X008822Y040837D01*
X008779Y040859D01*
X008738Y040884D01*
X008700Y040913D01*
X008663Y040945D01*
X008629Y040979D01*
X008599Y041016D01*
X008571Y041055D01*
X008546Y041097D01*
X008526Y041141D01*
X008508Y041186D01*
X008495Y041232D01*
X008485Y041279D01*
X008479Y041327D01*
X008477Y041375D01*
M02*
