%
M48
M72
T01C0.0276
T02C0.0394
T03C0.0500
T04C0.0551
T05C0.0787
T06C0.0866
T07C0.1181
T08C0.1488
%
T01
X19180Y17805
X19180Y19180
X30680Y15055
T02
X11180Y21305
X10180Y21305
X8680Y21305
X7680Y21305
X6180Y21305
X5180Y21305
X4180Y21305
T03
X13680Y18486
X16680Y17124
X28180Y17124
X25180Y18486
X39680Y17124
X36680Y18486
X48180Y18486
X51180Y17124
T04
X5263Y11959
X3097Y11959
X3097Y10305
X5263Y10305
X5263Y8651
X3097Y8651
T05
X9633Y10305
X13530Y10305
X16680Y10305
X21133Y10305
X25030Y10305
X28180Y10305
X32633Y10305
X36530Y10305
X39680Y10305
X44133Y10305
X48030Y10305
X51180Y10305
X48030Y6978
X36530Y6978
X25030Y6978
X13530Y6978
X13530Y13632
X25030Y13632
X36530Y13632
X48030Y13632
T06
X10578Y12864
X22078Y12864
X33578Y12864
X45078Y12864
X50589Y7746
X39089Y7746
X27589Y7746
X16089Y7746
T07
X1805Y1805
X3278Y6801
X3278Y13809
X52180Y21555
X1805Y21555
X52180Y1805
T08
X15180Y17805
X26680Y17805
X38180Y17805
X49680Y17805
M30
