G75*
G70*
%OFA0B0*%
%FSLAX24Y24*%
%IPPOS*%
%LPD*%
%AMOC8*
5,1,8,0,0,1.08239X$1,22.5*
%
%ADD10C,0.0000*%
%ADD11R,0.4252X0.4098*%
%ADD12R,0.0420X0.0850*%
%ADD13R,0.0315X0.0354*%
%ADD14R,0.1575X0.2126*%
%ADD15R,0.0210X0.0780*%
%ADD16R,0.0354X0.0315*%
%ADD17R,0.0394X0.0500*%
%ADD18R,0.0200X0.0780*%
%ADD19R,0.0590X0.0790*%
%ADD20R,0.1500X0.0790*%
%ADD21R,0.0512X0.0472*%
%ADD22R,0.0315X0.0394*%
%ADD23R,0.0120X0.0390*%
%ADD24R,0.0551X0.1400*%
%ADD25R,0.0500X0.0394*%
%ADD26R,0.0520X0.0220*%
%ADD27R,0.0220X0.0520*%
%ADD28R,0.0140X0.0630*%
%ADD29R,0.0472X0.0512*%
%ADD30R,0.0210X0.0670*%
%ADD31R,0.0140X0.0580*%
%ADD32R,0.0591X0.0276*%
%ADD33R,0.0236X0.0394*%
D10*
X000100Y002300D02*
X002225Y000175D01*
X047975Y000175D01*
X050100Y002300D01*
X050100Y065175D01*
X000100Y065175D01*
X000100Y002300D01*
X001134Y001800D02*
X001136Y001848D01*
X001142Y001896D01*
X001152Y001943D01*
X001165Y001989D01*
X001183Y002034D01*
X001203Y002078D01*
X001228Y002120D01*
X001256Y002159D01*
X001286Y002196D01*
X001320Y002230D01*
X001357Y002262D01*
X001395Y002291D01*
X001436Y002316D01*
X001479Y002338D01*
X001524Y002356D01*
X001570Y002370D01*
X001617Y002381D01*
X001665Y002388D01*
X001713Y002391D01*
X001761Y002390D01*
X001809Y002385D01*
X001857Y002376D01*
X001903Y002364D01*
X001948Y002347D01*
X001992Y002327D01*
X002034Y002304D01*
X002074Y002277D01*
X002112Y002247D01*
X002147Y002214D01*
X002179Y002178D01*
X002209Y002140D01*
X002235Y002099D01*
X002257Y002056D01*
X002277Y002012D01*
X002292Y001967D01*
X002304Y001920D01*
X002312Y001872D01*
X002316Y001824D01*
X002316Y001776D01*
X002312Y001728D01*
X002304Y001680D01*
X002292Y001633D01*
X002277Y001588D01*
X002257Y001544D01*
X002235Y001501D01*
X002209Y001460D01*
X002179Y001422D01*
X002147Y001386D01*
X002112Y001353D01*
X002074Y001323D01*
X002034Y001296D01*
X001992Y001273D01*
X001948Y001253D01*
X001903Y001236D01*
X001857Y001224D01*
X001809Y001215D01*
X001761Y001210D01*
X001713Y001209D01*
X001665Y001212D01*
X001617Y001219D01*
X001570Y001230D01*
X001524Y001244D01*
X001479Y001262D01*
X001436Y001284D01*
X001395Y001309D01*
X001357Y001338D01*
X001320Y001370D01*
X001286Y001404D01*
X001256Y001441D01*
X001228Y001480D01*
X001203Y001522D01*
X001183Y001566D01*
X001165Y001611D01*
X001152Y001657D01*
X001142Y001704D01*
X001136Y001752D01*
X001134Y001800D01*
X001134Y034425D02*
X001136Y034473D01*
X001142Y034521D01*
X001152Y034568D01*
X001165Y034614D01*
X001183Y034659D01*
X001203Y034703D01*
X001228Y034745D01*
X001256Y034784D01*
X001286Y034821D01*
X001320Y034855D01*
X001357Y034887D01*
X001395Y034916D01*
X001436Y034941D01*
X001479Y034963D01*
X001524Y034981D01*
X001570Y034995D01*
X001617Y035006D01*
X001665Y035013D01*
X001713Y035016D01*
X001761Y035015D01*
X001809Y035010D01*
X001857Y035001D01*
X001903Y034989D01*
X001948Y034972D01*
X001992Y034952D01*
X002034Y034929D01*
X002074Y034902D01*
X002112Y034872D01*
X002147Y034839D01*
X002179Y034803D01*
X002209Y034765D01*
X002235Y034724D01*
X002257Y034681D01*
X002277Y034637D01*
X002292Y034592D01*
X002304Y034545D01*
X002312Y034497D01*
X002316Y034449D01*
X002316Y034401D01*
X002312Y034353D01*
X002304Y034305D01*
X002292Y034258D01*
X002277Y034213D01*
X002257Y034169D01*
X002235Y034126D01*
X002209Y034085D01*
X002179Y034047D01*
X002147Y034011D01*
X002112Y033978D01*
X002074Y033948D01*
X002034Y033921D01*
X001992Y033898D01*
X001948Y033878D01*
X001903Y033861D01*
X001857Y033849D01*
X001809Y033840D01*
X001761Y033835D01*
X001713Y033834D01*
X001665Y033837D01*
X001617Y033844D01*
X001570Y033855D01*
X001524Y033869D01*
X001479Y033887D01*
X001436Y033909D01*
X001395Y033934D01*
X001357Y033963D01*
X001320Y033995D01*
X001286Y034029D01*
X001256Y034066D01*
X001228Y034105D01*
X001203Y034147D01*
X001183Y034191D01*
X001165Y034236D01*
X001152Y034282D01*
X001142Y034329D01*
X001136Y034377D01*
X001134Y034425D01*
X022798Y037334D02*
X022800Y037360D01*
X022806Y037386D01*
X022816Y037411D01*
X022829Y037434D01*
X022845Y037454D01*
X022865Y037472D01*
X022887Y037487D01*
X022910Y037499D01*
X022936Y037507D01*
X022962Y037511D01*
X022988Y037511D01*
X023014Y037507D01*
X023040Y037499D01*
X023064Y037487D01*
X023085Y037472D01*
X023105Y037454D01*
X023121Y037434D01*
X023134Y037411D01*
X023144Y037386D01*
X023150Y037360D01*
X023152Y037334D01*
X023150Y037308D01*
X023144Y037282D01*
X023134Y037257D01*
X023121Y037234D01*
X023105Y037214D01*
X023085Y037196D01*
X023063Y037181D01*
X023040Y037169D01*
X023014Y037161D01*
X022988Y037157D01*
X022962Y037157D01*
X022936Y037161D01*
X022910Y037169D01*
X022886Y037181D01*
X022865Y037196D01*
X022845Y037214D01*
X022829Y037234D01*
X022816Y037257D01*
X022806Y037282D01*
X022800Y037308D01*
X022798Y037334D01*
X022798Y038516D02*
X022800Y038542D01*
X022806Y038568D01*
X022816Y038593D01*
X022829Y038616D01*
X022845Y038636D01*
X022865Y038654D01*
X022887Y038669D01*
X022910Y038681D01*
X022936Y038689D01*
X022962Y038693D01*
X022988Y038693D01*
X023014Y038689D01*
X023040Y038681D01*
X023064Y038669D01*
X023085Y038654D01*
X023105Y038636D01*
X023121Y038616D01*
X023134Y038593D01*
X023144Y038568D01*
X023150Y038542D01*
X023152Y038516D01*
X023150Y038490D01*
X023144Y038464D01*
X023134Y038439D01*
X023121Y038416D01*
X023105Y038396D01*
X023085Y038378D01*
X023063Y038363D01*
X023040Y038351D01*
X023014Y038343D01*
X022988Y038339D01*
X022962Y038339D01*
X022936Y038343D01*
X022910Y038351D01*
X022886Y038363D01*
X022865Y038378D01*
X022845Y038396D01*
X022829Y038416D01*
X022816Y038439D01*
X022806Y038464D01*
X022800Y038490D01*
X022798Y038516D01*
X025173Y038516D02*
X025175Y038542D01*
X025181Y038568D01*
X025191Y038593D01*
X025204Y038616D01*
X025220Y038636D01*
X025240Y038654D01*
X025262Y038669D01*
X025285Y038681D01*
X025311Y038689D01*
X025337Y038693D01*
X025363Y038693D01*
X025389Y038689D01*
X025415Y038681D01*
X025439Y038669D01*
X025460Y038654D01*
X025480Y038636D01*
X025496Y038616D01*
X025509Y038593D01*
X025519Y038568D01*
X025525Y038542D01*
X025527Y038516D01*
X025525Y038490D01*
X025519Y038464D01*
X025509Y038439D01*
X025496Y038416D01*
X025480Y038396D01*
X025460Y038378D01*
X025438Y038363D01*
X025415Y038351D01*
X025389Y038343D01*
X025363Y038339D01*
X025337Y038339D01*
X025311Y038343D01*
X025285Y038351D01*
X025261Y038363D01*
X025240Y038378D01*
X025220Y038396D01*
X025204Y038416D01*
X025191Y038439D01*
X025181Y038464D01*
X025175Y038490D01*
X025173Y038516D01*
X025173Y037334D02*
X025175Y037360D01*
X025181Y037386D01*
X025191Y037411D01*
X025204Y037434D01*
X025220Y037454D01*
X025240Y037472D01*
X025262Y037487D01*
X025285Y037499D01*
X025311Y037507D01*
X025337Y037511D01*
X025363Y037511D01*
X025389Y037507D01*
X025415Y037499D01*
X025439Y037487D01*
X025460Y037472D01*
X025480Y037454D01*
X025496Y037434D01*
X025509Y037411D01*
X025519Y037386D01*
X025525Y037360D01*
X025527Y037334D01*
X025525Y037308D01*
X025519Y037282D01*
X025509Y037257D01*
X025496Y037234D01*
X025480Y037214D01*
X025460Y037196D01*
X025438Y037181D01*
X025415Y037169D01*
X025389Y037161D01*
X025363Y037157D01*
X025337Y037157D01*
X025311Y037161D01*
X025285Y037169D01*
X025261Y037181D01*
X025240Y037196D01*
X025220Y037214D01*
X025204Y037234D01*
X025191Y037257D01*
X025181Y037282D01*
X025175Y037308D01*
X025173Y037334D01*
X027548Y037334D02*
X027550Y037360D01*
X027556Y037386D01*
X027566Y037411D01*
X027579Y037434D01*
X027595Y037454D01*
X027615Y037472D01*
X027637Y037487D01*
X027660Y037499D01*
X027686Y037507D01*
X027712Y037511D01*
X027738Y037511D01*
X027764Y037507D01*
X027790Y037499D01*
X027814Y037487D01*
X027835Y037472D01*
X027855Y037454D01*
X027871Y037434D01*
X027884Y037411D01*
X027894Y037386D01*
X027900Y037360D01*
X027902Y037334D01*
X027900Y037308D01*
X027894Y037282D01*
X027884Y037257D01*
X027871Y037234D01*
X027855Y037214D01*
X027835Y037196D01*
X027813Y037181D01*
X027790Y037169D01*
X027764Y037161D01*
X027738Y037157D01*
X027712Y037157D01*
X027686Y037161D01*
X027660Y037169D01*
X027636Y037181D01*
X027615Y037196D01*
X027595Y037214D01*
X027579Y037234D01*
X027566Y037257D01*
X027556Y037282D01*
X027550Y037308D01*
X027548Y037334D01*
X027548Y038516D02*
X027550Y038542D01*
X027556Y038568D01*
X027566Y038593D01*
X027579Y038616D01*
X027595Y038636D01*
X027615Y038654D01*
X027637Y038669D01*
X027660Y038681D01*
X027686Y038689D01*
X027712Y038693D01*
X027738Y038693D01*
X027764Y038689D01*
X027790Y038681D01*
X027814Y038669D01*
X027835Y038654D01*
X027855Y038636D01*
X027871Y038616D01*
X027884Y038593D01*
X027894Y038568D01*
X027900Y038542D01*
X027902Y038516D01*
X027900Y038490D01*
X027894Y038464D01*
X027884Y038439D01*
X027871Y038416D01*
X027855Y038396D01*
X027835Y038378D01*
X027813Y038363D01*
X027790Y038351D01*
X027764Y038343D01*
X027738Y038339D01*
X027712Y038339D01*
X027686Y038343D01*
X027660Y038351D01*
X027636Y038363D01*
X027615Y038378D01*
X027595Y038396D01*
X027579Y038416D01*
X027566Y038439D01*
X027556Y038464D01*
X027550Y038490D01*
X027548Y038516D01*
X029923Y038516D02*
X029925Y038542D01*
X029931Y038568D01*
X029941Y038593D01*
X029954Y038616D01*
X029970Y038636D01*
X029990Y038654D01*
X030012Y038669D01*
X030035Y038681D01*
X030061Y038689D01*
X030087Y038693D01*
X030113Y038693D01*
X030139Y038689D01*
X030165Y038681D01*
X030189Y038669D01*
X030210Y038654D01*
X030230Y038636D01*
X030246Y038616D01*
X030259Y038593D01*
X030269Y038568D01*
X030275Y038542D01*
X030277Y038516D01*
X030275Y038490D01*
X030269Y038464D01*
X030259Y038439D01*
X030246Y038416D01*
X030230Y038396D01*
X030210Y038378D01*
X030188Y038363D01*
X030165Y038351D01*
X030139Y038343D01*
X030113Y038339D01*
X030087Y038339D01*
X030061Y038343D01*
X030035Y038351D01*
X030011Y038363D01*
X029990Y038378D01*
X029970Y038396D01*
X029954Y038416D01*
X029941Y038439D01*
X029931Y038464D01*
X029925Y038490D01*
X029923Y038516D01*
X029923Y037334D02*
X029925Y037360D01*
X029931Y037386D01*
X029941Y037411D01*
X029954Y037434D01*
X029970Y037454D01*
X029990Y037472D01*
X030012Y037487D01*
X030035Y037499D01*
X030061Y037507D01*
X030087Y037511D01*
X030113Y037511D01*
X030139Y037507D01*
X030165Y037499D01*
X030189Y037487D01*
X030210Y037472D01*
X030230Y037454D01*
X030246Y037434D01*
X030259Y037411D01*
X030269Y037386D01*
X030275Y037360D01*
X030277Y037334D01*
X030275Y037308D01*
X030269Y037282D01*
X030259Y037257D01*
X030246Y037234D01*
X030230Y037214D01*
X030210Y037196D01*
X030188Y037181D01*
X030165Y037169D01*
X030139Y037161D01*
X030113Y037157D01*
X030087Y037157D01*
X030061Y037161D01*
X030035Y037169D01*
X030011Y037181D01*
X029990Y037196D01*
X029970Y037214D01*
X029954Y037234D01*
X029941Y037257D01*
X029931Y037282D01*
X029925Y037308D01*
X029923Y037334D01*
X047884Y034425D02*
X047886Y034473D01*
X047892Y034521D01*
X047902Y034568D01*
X047915Y034614D01*
X047933Y034659D01*
X047953Y034703D01*
X047978Y034745D01*
X048006Y034784D01*
X048036Y034821D01*
X048070Y034855D01*
X048107Y034887D01*
X048145Y034916D01*
X048186Y034941D01*
X048229Y034963D01*
X048274Y034981D01*
X048320Y034995D01*
X048367Y035006D01*
X048415Y035013D01*
X048463Y035016D01*
X048511Y035015D01*
X048559Y035010D01*
X048607Y035001D01*
X048653Y034989D01*
X048698Y034972D01*
X048742Y034952D01*
X048784Y034929D01*
X048824Y034902D01*
X048862Y034872D01*
X048897Y034839D01*
X048929Y034803D01*
X048959Y034765D01*
X048985Y034724D01*
X049007Y034681D01*
X049027Y034637D01*
X049042Y034592D01*
X049054Y034545D01*
X049062Y034497D01*
X049066Y034449D01*
X049066Y034401D01*
X049062Y034353D01*
X049054Y034305D01*
X049042Y034258D01*
X049027Y034213D01*
X049007Y034169D01*
X048985Y034126D01*
X048959Y034085D01*
X048929Y034047D01*
X048897Y034011D01*
X048862Y033978D01*
X048824Y033948D01*
X048784Y033921D01*
X048742Y033898D01*
X048698Y033878D01*
X048653Y033861D01*
X048607Y033849D01*
X048559Y033840D01*
X048511Y033835D01*
X048463Y033834D01*
X048415Y033837D01*
X048367Y033844D01*
X048320Y033855D01*
X048274Y033869D01*
X048229Y033887D01*
X048186Y033909D01*
X048145Y033934D01*
X048107Y033963D01*
X048070Y033995D01*
X048036Y034029D01*
X048006Y034066D01*
X047978Y034105D01*
X047953Y034147D01*
X047933Y034191D01*
X047915Y034236D01*
X047902Y034282D01*
X047892Y034329D01*
X047886Y034377D01*
X047884Y034425D01*
X047884Y063550D02*
X047886Y063598D01*
X047892Y063646D01*
X047902Y063693D01*
X047915Y063739D01*
X047933Y063784D01*
X047953Y063828D01*
X047978Y063870D01*
X048006Y063909D01*
X048036Y063946D01*
X048070Y063980D01*
X048107Y064012D01*
X048145Y064041D01*
X048186Y064066D01*
X048229Y064088D01*
X048274Y064106D01*
X048320Y064120D01*
X048367Y064131D01*
X048415Y064138D01*
X048463Y064141D01*
X048511Y064140D01*
X048559Y064135D01*
X048607Y064126D01*
X048653Y064114D01*
X048698Y064097D01*
X048742Y064077D01*
X048784Y064054D01*
X048824Y064027D01*
X048862Y063997D01*
X048897Y063964D01*
X048929Y063928D01*
X048959Y063890D01*
X048985Y063849D01*
X049007Y063806D01*
X049027Y063762D01*
X049042Y063717D01*
X049054Y063670D01*
X049062Y063622D01*
X049066Y063574D01*
X049066Y063526D01*
X049062Y063478D01*
X049054Y063430D01*
X049042Y063383D01*
X049027Y063338D01*
X049007Y063294D01*
X048985Y063251D01*
X048959Y063210D01*
X048929Y063172D01*
X048897Y063136D01*
X048862Y063103D01*
X048824Y063073D01*
X048784Y063046D01*
X048742Y063023D01*
X048698Y063003D01*
X048653Y062986D01*
X048607Y062974D01*
X048559Y062965D01*
X048511Y062960D01*
X048463Y062959D01*
X048415Y062962D01*
X048367Y062969D01*
X048320Y062980D01*
X048274Y062994D01*
X048229Y063012D01*
X048186Y063034D01*
X048145Y063059D01*
X048107Y063088D01*
X048070Y063120D01*
X048036Y063154D01*
X048006Y063191D01*
X047978Y063230D01*
X047953Y063272D01*
X047933Y063316D01*
X047915Y063361D01*
X047902Y063407D01*
X047892Y063454D01*
X047886Y063502D01*
X047884Y063550D01*
X001134Y063425D02*
X001136Y063473D01*
X001142Y063521D01*
X001152Y063568D01*
X001165Y063614D01*
X001183Y063659D01*
X001203Y063703D01*
X001228Y063745D01*
X001256Y063784D01*
X001286Y063821D01*
X001320Y063855D01*
X001357Y063887D01*
X001395Y063916D01*
X001436Y063941D01*
X001479Y063963D01*
X001524Y063981D01*
X001570Y063995D01*
X001617Y064006D01*
X001665Y064013D01*
X001713Y064016D01*
X001761Y064015D01*
X001809Y064010D01*
X001857Y064001D01*
X001903Y063989D01*
X001948Y063972D01*
X001992Y063952D01*
X002034Y063929D01*
X002074Y063902D01*
X002112Y063872D01*
X002147Y063839D01*
X002179Y063803D01*
X002209Y063765D01*
X002235Y063724D01*
X002257Y063681D01*
X002277Y063637D01*
X002292Y063592D01*
X002304Y063545D01*
X002312Y063497D01*
X002316Y063449D01*
X002316Y063401D01*
X002312Y063353D01*
X002304Y063305D01*
X002292Y063258D01*
X002277Y063213D01*
X002257Y063169D01*
X002235Y063126D01*
X002209Y063085D01*
X002179Y063047D01*
X002147Y063011D01*
X002112Y062978D01*
X002074Y062948D01*
X002034Y062921D01*
X001992Y062898D01*
X001948Y062878D01*
X001903Y062861D01*
X001857Y062849D01*
X001809Y062840D01*
X001761Y062835D01*
X001713Y062834D01*
X001665Y062837D01*
X001617Y062844D01*
X001570Y062855D01*
X001524Y062869D01*
X001479Y062887D01*
X001436Y062909D01*
X001395Y062934D01*
X001357Y062963D01*
X001320Y062995D01*
X001286Y063029D01*
X001256Y063066D01*
X001228Y063105D01*
X001203Y063147D01*
X001183Y063191D01*
X001165Y063236D01*
X001152Y063282D01*
X001142Y063329D01*
X001136Y063377D01*
X001134Y063425D01*
X047884Y001800D02*
X047886Y001848D01*
X047892Y001896D01*
X047902Y001943D01*
X047915Y001989D01*
X047933Y002034D01*
X047953Y002078D01*
X047978Y002120D01*
X048006Y002159D01*
X048036Y002196D01*
X048070Y002230D01*
X048107Y002262D01*
X048145Y002291D01*
X048186Y002316D01*
X048229Y002338D01*
X048274Y002356D01*
X048320Y002370D01*
X048367Y002381D01*
X048415Y002388D01*
X048463Y002391D01*
X048511Y002390D01*
X048559Y002385D01*
X048607Y002376D01*
X048653Y002364D01*
X048698Y002347D01*
X048742Y002327D01*
X048784Y002304D01*
X048824Y002277D01*
X048862Y002247D01*
X048897Y002214D01*
X048929Y002178D01*
X048959Y002140D01*
X048985Y002099D01*
X049007Y002056D01*
X049027Y002012D01*
X049042Y001967D01*
X049054Y001920D01*
X049062Y001872D01*
X049066Y001824D01*
X049066Y001776D01*
X049062Y001728D01*
X049054Y001680D01*
X049042Y001633D01*
X049027Y001588D01*
X049007Y001544D01*
X048985Y001501D01*
X048959Y001460D01*
X048929Y001422D01*
X048897Y001386D01*
X048862Y001353D01*
X048824Y001323D01*
X048784Y001296D01*
X048742Y001273D01*
X048698Y001253D01*
X048653Y001236D01*
X048607Y001224D01*
X048559Y001215D01*
X048511Y001210D01*
X048463Y001209D01*
X048415Y001212D01*
X048367Y001219D01*
X048320Y001230D01*
X048274Y001244D01*
X048229Y001262D01*
X048186Y001284D01*
X048145Y001309D01*
X048107Y001338D01*
X048070Y001370D01*
X048036Y001404D01*
X048006Y001441D01*
X047978Y001480D01*
X047953Y001522D01*
X047933Y001566D01*
X047915Y001611D01*
X047902Y001657D01*
X047892Y001704D01*
X047886Y001752D01*
X047884Y001800D01*
D11*
X027225Y062675D03*
D12*
X027225Y059395D03*
X027895Y059395D03*
X028565Y059395D03*
X026555Y059395D03*
X025885Y059395D03*
D13*
X027850Y058475D03*
X027850Y057875D03*
X028475Y057875D03*
X028475Y058475D03*
X021225Y044975D03*
X021225Y044375D03*
X027850Y033475D03*
X027850Y032875D03*
X028475Y028600D03*
X028475Y028000D03*
X030975Y028000D03*
X030975Y028600D03*
X026475Y023725D03*
X026475Y023125D03*
X025850Y023125D03*
X025850Y023725D03*
X025225Y023725D03*
X025225Y023125D03*
X024600Y023125D03*
X024600Y023725D03*
X023975Y023725D03*
X023975Y023125D03*
X023350Y023125D03*
X023350Y023725D03*
X022725Y023725D03*
X022725Y023125D03*
X022100Y023125D03*
X022100Y023725D03*
X021475Y023725D03*
X021475Y023125D03*
X011225Y029625D03*
X011225Y030225D03*
X011225Y033250D03*
X011225Y033850D03*
X011225Y036875D03*
X011225Y037475D03*
X012475Y038750D03*
X012475Y039350D03*
X011225Y040500D03*
X011225Y041100D03*
X011225Y044125D03*
X011225Y044725D03*
X011225Y047750D03*
X011225Y048350D03*
X005975Y047975D03*
X005975Y047375D03*
X005975Y044350D03*
X005975Y043750D03*
X005975Y040725D03*
X005975Y040125D03*
X005975Y037100D03*
X005975Y036500D03*
X005975Y033475D03*
X005975Y032875D03*
X031725Y038500D03*
X031725Y039100D03*
X042975Y039125D03*
X042975Y039725D03*
X042975Y038475D03*
X042975Y037875D03*
X045725Y038250D03*
X045725Y038850D03*
X046725Y033100D03*
X046725Y032500D03*
X046725Y045125D03*
X046725Y045725D03*
X046725Y046375D03*
X046725Y046975D03*
X043975Y045725D03*
X043975Y045125D03*
X040788Y019288D03*
X040788Y018688D03*
X038913Y018538D03*
X038913Y017938D03*
X038288Y017938D03*
X038288Y018538D03*
X037663Y018538D03*
X037663Y017938D03*
X044288Y017038D03*
X044288Y016438D03*
X044288Y015288D03*
X044288Y014688D03*
D14*
X028404Y054925D03*
X024546Y054925D03*
D15*
X039913Y017713D03*
X040413Y017713D03*
X040913Y017713D03*
X041413Y017713D03*
X041913Y017713D03*
X042413Y017713D03*
X042913Y017713D03*
X043413Y017713D03*
X043413Y014013D03*
X042913Y014013D03*
X042413Y014013D03*
X041913Y014013D03*
X041413Y014013D03*
X040913Y014013D03*
X040413Y014013D03*
X039913Y014013D03*
X039038Y015018D03*
X038538Y015018D03*
X038038Y015018D03*
X037538Y015018D03*
X037538Y016958D03*
X038038Y016958D03*
X038538Y016958D03*
X039038Y016958D03*
D16*
X038588Y014113D03*
X037988Y014113D03*
X041363Y018613D03*
X041963Y018613D03*
X042613Y018613D03*
X043213Y018613D03*
X041150Y021425D03*
X040550Y021425D03*
X039400Y021425D03*
X038800Y021425D03*
X038800Y023675D03*
X039400Y023675D03*
X040300Y023675D03*
X040900Y023675D03*
X039525Y026425D03*
X038925Y026425D03*
X038925Y028925D03*
X039525Y028925D03*
X039525Y031425D03*
X038925Y031425D03*
X038925Y032050D03*
X039525Y032050D03*
X039525Y034550D03*
X038925Y034550D03*
X038925Y035175D03*
X039525Y035175D03*
X039525Y037675D03*
X038925Y037675D03*
X038925Y038300D03*
X039525Y038300D03*
X039525Y040800D03*
X038925Y040800D03*
X038925Y041425D03*
X039525Y041425D03*
X036525Y038925D03*
X035925Y038925D03*
X035925Y036425D03*
X036525Y036425D03*
X036525Y033925D03*
X035925Y033925D03*
X035925Y031425D03*
X036525Y031425D03*
X032838Y029363D03*
X032238Y029363D03*
X031588Y029363D03*
X030988Y029363D03*
X030338Y029363D03*
X029738Y029363D03*
X029088Y029363D03*
X028488Y029363D03*
X028550Y027300D03*
X029150Y027300D03*
X031050Y027300D03*
X031650Y027300D03*
X030400Y035175D03*
X029800Y035175D03*
X029800Y035800D03*
X030400Y035800D03*
X028025Y035800D03*
X027425Y035800D03*
X027425Y035175D03*
X028025Y035175D03*
X025650Y035175D03*
X025650Y035800D03*
X025050Y035800D03*
X025050Y035175D03*
X023275Y035175D03*
X022675Y035175D03*
X022675Y035800D03*
X023275Y035800D03*
X016525Y036175D03*
X015925Y036175D03*
X017300Y045175D03*
X017900Y045175D03*
X017900Y047675D03*
X017300Y047675D03*
X017300Y050050D03*
X017900Y050050D03*
X031925Y039800D03*
X032525Y039800D03*
X036613Y048863D03*
X037213Y048863D03*
X043300Y041175D03*
X043900Y041175D03*
X044800Y041175D03*
X045400Y041175D03*
X045800Y048425D03*
X046400Y048425D03*
X044900Y048425D03*
X044300Y048425D03*
X006025Y030300D03*
X005425Y030300D03*
D17*
X036538Y049594D03*
X037287Y049594D03*
X036913Y050381D03*
D18*
X019413Y035283D03*
X018913Y035283D03*
X018413Y035283D03*
X017913Y035283D03*
X017413Y035283D03*
X016913Y035283D03*
X016413Y035283D03*
X016413Y033343D03*
X016913Y033343D03*
X017413Y033343D03*
X017913Y033343D03*
X018413Y033343D03*
X018913Y033343D03*
X019413Y033343D03*
D19*
X022298Y049223D03*
X023198Y049223D03*
X024098Y049223D03*
D20*
X023188Y051703D03*
D21*
X024938Y050838D03*
X024938Y050038D03*
X021313Y050163D03*
X021313Y050963D03*
X043225Y042700D03*
X043975Y042700D03*
X043975Y041900D03*
X043225Y041900D03*
X044725Y041900D03*
X045475Y041900D03*
X045475Y042700D03*
X044725Y042700D03*
X044975Y049150D03*
X044225Y049150D03*
X044225Y049950D03*
X044975Y049950D03*
X045725Y049950D03*
X046475Y049950D03*
X046475Y049150D03*
X045725Y049150D03*
D22*
X029667Y039362D03*
X027292Y039362D03*
X024917Y039362D03*
X022542Y039362D03*
X022542Y036488D03*
X024917Y036488D03*
X027292Y036488D03*
X029667Y036488D03*
X005975Y035819D03*
X005975Y035031D03*
X005975Y032194D03*
X005975Y031406D03*
X005975Y038656D03*
X005975Y039444D03*
X005975Y042281D03*
X005975Y043069D03*
X005975Y045906D03*
X005975Y046694D03*
X005975Y049531D03*
X005975Y050319D03*
D23*
X012948Y040324D03*
X013204Y040324D03*
X013460Y040324D03*
X013716Y040324D03*
X013972Y040324D03*
X014228Y040324D03*
X014484Y040324D03*
X014740Y040324D03*
X014996Y040324D03*
X015252Y040324D03*
X015252Y038026D03*
X014996Y038026D03*
X014740Y038026D03*
X014484Y038026D03*
X014228Y038026D03*
X013972Y038026D03*
X013716Y038026D03*
X013460Y038026D03*
X013204Y038026D03*
X012948Y038026D03*
D24*
X018850Y038845D03*
X018850Y036755D03*
D25*
X031831Y037051D03*
X031831Y037799D03*
X032619Y037425D03*
X038706Y022924D03*
X039494Y022550D03*
X038706Y022176D03*
X040206Y022176D03*
X040994Y022550D03*
X040206Y022924D03*
D26*
X032765Y027930D03*
X032765Y028300D03*
X032765Y028670D03*
X031685Y028670D03*
X031685Y027930D03*
X030265Y027930D03*
X030265Y028300D03*
X030265Y028670D03*
X029185Y028670D03*
X029185Y027930D03*
X020515Y044305D03*
X020515Y045045D03*
X019435Y045045D03*
X019435Y044675D03*
X019435Y044305D03*
D27*
X017970Y045885D03*
X017230Y045885D03*
X017230Y046965D03*
X017600Y046965D03*
X017970Y046965D03*
X017970Y048385D03*
X017230Y048385D03*
X017230Y049465D03*
X017600Y049465D03*
X017970Y049465D03*
X035855Y040715D03*
X036225Y040715D03*
X036595Y040715D03*
X036595Y039635D03*
X035855Y039635D03*
X035855Y038215D03*
X036225Y038215D03*
X036595Y038215D03*
X036595Y037135D03*
X035855Y037135D03*
X035855Y035715D03*
X036225Y035715D03*
X036595Y035715D03*
X036595Y034635D03*
X035855Y034635D03*
X035855Y033215D03*
X036225Y033215D03*
X036595Y033215D03*
X036595Y032135D03*
X035855Y032135D03*
X038855Y032760D03*
X039595Y032760D03*
X039595Y033840D03*
X039225Y033840D03*
X038855Y033840D03*
X038855Y035885D03*
X039595Y035885D03*
X039595Y036965D03*
X039225Y036965D03*
X038855Y036965D03*
X038855Y039010D03*
X039595Y039010D03*
X039595Y040090D03*
X039225Y040090D03*
X038855Y040090D03*
X038855Y042135D03*
X039595Y042135D03*
X039595Y043215D03*
X039225Y043215D03*
X038855Y043215D03*
X038855Y030715D03*
X039225Y030715D03*
X039595Y030715D03*
X039595Y029635D03*
X038855Y029635D03*
X038855Y028215D03*
X039225Y028215D03*
X039595Y028215D03*
X039595Y027135D03*
X038855Y027135D03*
D28*
X043470Y037500D03*
X043730Y037500D03*
X043970Y037500D03*
X044230Y037500D03*
X044470Y037500D03*
X044730Y037500D03*
X044970Y037500D03*
X045230Y037500D03*
X045230Y039600D03*
X044970Y039600D03*
X044730Y039600D03*
X044470Y039600D03*
X044230Y039600D03*
X043970Y039600D03*
X043730Y039600D03*
X043470Y039600D03*
X044470Y044750D03*
X044730Y044750D03*
X044970Y044750D03*
X045230Y044750D03*
X045470Y044750D03*
X045730Y044750D03*
X045970Y044750D03*
X046230Y044750D03*
X046230Y046850D03*
X045970Y046850D03*
X045730Y046850D03*
X045470Y046850D03*
X045230Y046850D03*
X044970Y046850D03*
X044730Y046850D03*
X044470Y046850D03*
D29*
X044200Y047675D03*
X045000Y047675D03*
X045700Y047675D03*
X046500Y047675D03*
X045500Y040425D03*
X044700Y040425D03*
X044000Y040425D03*
X043200Y040425D03*
D30*
X043225Y031695D03*
X043725Y031695D03*
X044225Y031695D03*
X044725Y031695D03*
X045225Y031695D03*
X045725Y031695D03*
X046225Y031695D03*
X046725Y031695D03*
X046725Y029655D03*
X046225Y029655D03*
X045725Y029655D03*
X045225Y029655D03*
X044725Y029655D03*
X044225Y029655D03*
X043725Y029655D03*
X043225Y029655D03*
D31*
X027120Y032065D03*
X026860Y032065D03*
X026610Y032065D03*
X026350Y032065D03*
X026090Y032065D03*
X025840Y032065D03*
X025580Y032065D03*
X025580Y034285D03*
X025840Y034285D03*
X026090Y034285D03*
X026350Y034285D03*
X026610Y034285D03*
X026860Y034285D03*
X027120Y034285D03*
D32*
X027036Y037039D03*
X027036Y038220D03*
X027036Y038811D03*
X024661Y038811D03*
X024661Y038220D03*
X024661Y037039D03*
X022286Y037039D03*
X022286Y038220D03*
X022286Y038811D03*
X029411Y038811D03*
X029411Y038220D03*
X029411Y037039D03*
D33*
X030494Y036488D03*
X028119Y036488D03*
X025744Y036488D03*
X023369Y036488D03*
X023369Y039362D03*
X025744Y039362D03*
X028119Y039362D03*
X030494Y039362D03*
M02*
