%
M48
M72
T01C0.0150
T02C0.0197
T03C0.0236
T04C0.0276
T05C0.0315
T06C0.0320
T07C0.0354
T08C0.0394
T09C0.0400
T10C0.0433
T11C0.0590
T12C0.1063
T13C0.1181
%
T01
X20350Y25175
X20100Y26675
X23350Y22675
X25225Y22675
X26475Y22675
X28850Y26800
X30225Y27425
X30975Y30425
X32350Y32875
X30975Y34050
X29725Y33300
X28475Y30425
X26350Y31425
X25725Y31425
X25350Y31050
X25975Y32675
X26600Y32800
X24850Y34550
X23225Y34550
X22725Y34550
X22350Y34675
X22100Y35050
X21850Y36675
X21725Y37425
X21350Y37550
X24475Y39175
X26850Y36300
X26850Y39175
X29225Y39175
X32350Y39050
X36975Y38675
X40475Y40050
X40475Y41925
X40475Y42675
X38850Y46050
X38475Y47550
X38100Y47425
X37350Y46675
X37225Y48300
X34100Y50050
X44100Y44425
X45725Y46175
X46725Y44425
X46850Y48425
X40850Y24050
X41100Y23050
X40100Y21675
X39600Y23175
X39350Y24050
X37850Y25800
X37600Y26050
X37350Y26300
X37100Y26550
X38475Y29300
X38475Y30175
X38475Y31050
X35350Y32800
X38350Y21425
X38350Y19175
X37100Y17550
X37100Y16300
X24975Y27300
X18975Y34300
X17975Y34425
X17475Y34175
X16975Y34050
X15850Y32925
X17350Y36050
X13100Y38800
X18850Y45050
X20975Y43800
X21850Y40800
X22225Y40800
X22600Y40800
X16725Y50300
X16350Y51175
X15475Y50925
X14725Y51675
X12850Y51300
X12725Y50925
X10850Y51800
X9850Y51050
X9475Y50300
T02
X17350Y51675
X17600Y48300
X17600Y45800
X20600Y44675
X29100Y28300
X31600Y28300
T03
X36225Y37175
X36225Y34675
X36225Y32175
X39225Y32800
X39225Y35925
X39225Y39050
X39225Y42175
X36225Y39675
X39225Y29675
X39225Y27175
X46225Y30675
T04
X43975Y46300
T05
X15225Y29050
X31850Y41175
X33725Y30800
X32725Y27175
X36475Y24675
X31725Y21800
X31725Y15175
X43413Y15925
X43975Y38800
X21350Y49175
X16913Y39738
T06
X7100Y30300
X7100Y31300
X7100Y32300
X7100Y33925
X7100Y34925
X7100Y35925
X7100Y37550
X7100Y38550
X7100Y39550
X7100Y41175
X7100Y42175
X7100Y43175
X7100Y44800
X7100Y45800
X7100Y46800
X7100Y48425
X7100Y49425
X7100Y50425
X10100Y50425
X10100Y49425
X10100Y48425
X10100Y46800
X10100Y45800
X10100Y44800
X10100Y43175
X10100Y42175
X10100Y41175
X10100Y39550
X10100Y38550
X10100Y37550
X10100Y35925
X10100Y34925
X10100Y33925
X10100Y32300
X10100Y31300
X10100Y30300
X28425Y50675
X27025Y50675
T07
X19475Y58175
X26725Y54925
X27725Y38516
X27725Y37334
X30100Y37334
X30100Y38516
X25350Y38516
X25350Y37334
X22975Y37334
X22975Y38516
T08
X18638Y13763
X18638Y14763
X18638Y15763
X18638Y16763
X18638Y17763
X18638Y18763
X18638Y19763
X18638Y20763
X18638Y21763
X18638Y22763
X18638Y23763
X19638Y23763
X19638Y22763
X19638Y21763
X19638Y20763
X19638Y19763
X19638Y18763
X19638Y17763
X19638Y16763
X19638Y15763
X19638Y14763
X19638Y13763
X20975Y24800
X20975Y25800
X21975Y25800
X21975Y24800
X22975Y24800
X22975Y25800
X23975Y25800
X23975Y24800
X24975Y24800
X24975Y25800
X25975Y25800
X25975Y24800
X26975Y24800
X26975Y25800
X27975Y25800
X27975Y24800
X28975Y24800
X28975Y25800
X29975Y25800
X29975Y24800
X30975Y24800
X30975Y25800
X33252Y22806
X33252Y21806
X34252Y21806
X34252Y22806
X34252Y20806
X34252Y19806
X34252Y18806
X34252Y17806
X34252Y16806
X34252Y15806
X33252Y15806
X33252Y16806
X33252Y17806
X33252Y18806
X33252Y19806
X33252Y20806
X33250Y14550
X33250Y13550
X33250Y12550
X33250Y11550
X33250Y10550
X33250Y9550
X33250Y8550
X33250Y7550
X33250Y6550
X34250Y6550
X34250Y7550
X34250Y8550
X34250Y9550
X34250Y10550
X34250Y11550
X34250Y12550
X34250Y13550
X34250Y14550
T09
X22725Y63863
X22725Y61863
T10
X6149Y52576
X6149Y54150
X7606Y54150
X8984Y54150
X9968Y54150
X10952Y54150
X11937Y54150
X12921Y54150
X13905Y54150
X14889Y54150
X15874Y54150
X16858Y54150
X17842Y54150
X17842Y52576
X16858Y52576
X15874Y52576
X14889Y52576
X13905Y52576
X12921Y52576
X11937Y52576
X10952Y52576
X9968Y52576
X8984Y52576
X7606Y52576
X7606Y55725
X8984Y55725
X9968Y55725
X10952Y55725
X11937Y55725
X12921Y55725
X13905Y55725
X14889Y55725
X15874Y55725
X16858Y55725
X17842Y55725
X17842Y57300
X16858Y57300
X15874Y57300
X14889Y57300
X13905Y57300
X12921Y57300
X11937Y57300
X10952Y57300
X9968Y57300
X8984Y57300
X7606Y57300
X6149Y57300
X6149Y55725
X32524Y52576
X32524Y54150
X33981Y54150
X33981Y52576
X35359Y52576
X36343Y52576
X37327Y52576
X38312Y52576
X39296Y52576
X40280Y52576
X41264Y52576
X42249Y52576
X43233Y52576
X44217Y52576
X44217Y54150
X43233Y54150
X42249Y54150
X41264Y54150
X40280Y54150
X39296Y54150
X38312Y54150
X37327Y54150
X36343Y54150
X35359Y54150
X35359Y55725
X36343Y55725
X37327Y55725
X38312Y55725
X39296Y55725
X40280Y55725
X41264Y55725
X42249Y55725
X43233Y55725
X44217Y55725
X44217Y57300
X43233Y57300
X42249Y57300
X41264Y57300
X40280Y57300
X39296Y57300
X38312Y57300
X37327Y57300
X36343Y57300
X35359Y57300
X33981Y57300
X33981Y55725
X32524Y55725
X32524Y57300
T11
X22100Y53925
X22100Y59925
T12
X4496Y56119
X19496Y56119
X30871Y56119
X45871Y56119
T13
X1725Y1800
X1725Y34425
X48475Y34425
X48475Y63550
X1725Y63425
X48475Y1800
M30
