G75*
G70*
%OFA0B0*%
%FSLAX24Y24*%
%IPPOS*%
%LPD*%
%AMOC8*
5,1,8,0,0,1.08239X$1,22.5*
%
%ADD10C,0.0000*%
%ADD11C,0.0100*%
%ADD12C,0.0050*%
%ADD13C,0.0080*%
%ADD14C,0.0090*%
%ADD15C,0.0040*%
%ADD16R,0.0158X0.0551*%
%ADD17C,0.0060*%
%ADD18C,0.0020*%
%ADD19R,0.2913X0.5039*%
%ADD20R,0.0394X0.0039*%
%ADD21R,0.0394X0.5000*%
%ADD22R,0.0660X0.0380*%
%ADD23C,0.0010*%
D10*
X000100Y000444D02*
X000100Y030003D01*
X078840Y030003D01*
X078840Y000444D01*
X000100Y000444D01*
X001134Y002069D02*
X001136Y002117D01*
X001142Y002165D01*
X001152Y002212D01*
X001165Y002258D01*
X001183Y002303D01*
X001203Y002347D01*
X001228Y002389D01*
X001256Y002428D01*
X001286Y002465D01*
X001320Y002499D01*
X001357Y002531D01*
X001395Y002560D01*
X001436Y002585D01*
X001479Y002607D01*
X001524Y002625D01*
X001570Y002639D01*
X001617Y002650D01*
X001665Y002657D01*
X001713Y002660D01*
X001761Y002659D01*
X001809Y002654D01*
X001857Y002645D01*
X001903Y002633D01*
X001948Y002616D01*
X001992Y002596D01*
X002034Y002573D01*
X002074Y002546D01*
X002112Y002516D01*
X002147Y002483D01*
X002179Y002447D01*
X002209Y002409D01*
X002235Y002368D01*
X002257Y002325D01*
X002277Y002281D01*
X002292Y002236D01*
X002304Y002189D01*
X002312Y002141D01*
X002316Y002093D01*
X002316Y002045D01*
X002312Y001997D01*
X002304Y001949D01*
X002292Y001902D01*
X002277Y001857D01*
X002257Y001813D01*
X002235Y001770D01*
X002209Y001729D01*
X002179Y001691D01*
X002147Y001655D01*
X002112Y001622D01*
X002074Y001592D01*
X002034Y001565D01*
X001992Y001542D01*
X001948Y001522D01*
X001903Y001505D01*
X001857Y001493D01*
X001809Y001484D01*
X001761Y001479D01*
X001713Y001478D01*
X001665Y001481D01*
X001617Y001488D01*
X001570Y001499D01*
X001524Y001513D01*
X001479Y001531D01*
X001436Y001553D01*
X001395Y001578D01*
X001357Y001607D01*
X001320Y001639D01*
X001286Y001673D01*
X001256Y001710D01*
X001228Y001749D01*
X001203Y001791D01*
X001183Y001835D01*
X001165Y001880D01*
X001152Y001926D01*
X001142Y001973D01*
X001136Y002021D01*
X001134Y002069D01*
X056351Y006944D02*
X056353Y006992D01*
X056359Y007040D01*
X056369Y007087D01*
X056382Y007133D01*
X056400Y007178D01*
X056420Y007222D01*
X056445Y007264D01*
X056473Y007303D01*
X056503Y007340D01*
X056537Y007374D01*
X056574Y007406D01*
X056612Y007435D01*
X056653Y007460D01*
X056696Y007482D01*
X056741Y007500D01*
X056787Y007514D01*
X056834Y007525D01*
X056882Y007532D01*
X056930Y007535D01*
X056978Y007534D01*
X057026Y007529D01*
X057074Y007520D01*
X057120Y007508D01*
X057165Y007491D01*
X057209Y007471D01*
X057251Y007448D01*
X057291Y007421D01*
X057329Y007391D01*
X057364Y007358D01*
X057396Y007322D01*
X057426Y007284D01*
X057452Y007243D01*
X057474Y007200D01*
X057494Y007156D01*
X057509Y007111D01*
X057521Y007064D01*
X057529Y007016D01*
X057533Y006968D01*
X057533Y006920D01*
X057529Y006872D01*
X057521Y006824D01*
X057509Y006777D01*
X057494Y006732D01*
X057474Y006688D01*
X057452Y006645D01*
X057426Y006604D01*
X057396Y006566D01*
X057364Y006530D01*
X057329Y006497D01*
X057291Y006467D01*
X057251Y006440D01*
X057209Y006417D01*
X057165Y006397D01*
X057120Y006380D01*
X057074Y006368D01*
X057026Y006359D01*
X056978Y006354D01*
X056930Y006353D01*
X056882Y006356D01*
X056834Y006363D01*
X056787Y006374D01*
X056741Y006388D01*
X056696Y006406D01*
X056653Y006428D01*
X056612Y006453D01*
X056574Y006482D01*
X056537Y006514D01*
X056503Y006548D01*
X056473Y006585D01*
X056445Y006624D01*
X056420Y006666D01*
X056400Y006710D01*
X056382Y006755D01*
X056369Y006801D01*
X056359Y006848D01*
X056353Y006896D01*
X056351Y006944D01*
X076634Y002069D02*
X076636Y002117D01*
X076642Y002165D01*
X076652Y002212D01*
X076665Y002258D01*
X076683Y002303D01*
X076703Y002347D01*
X076728Y002389D01*
X076756Y002428D01*
X076786Y002465D01*
X076820Y002499D01*
X076857Y002531D01*
X076895Y002560D01*
X076936Y002585D01*
X076979Y002607D01*
X077024Y002625D01*
X077070Y002639D01*
X077117Y002650D01*
X077165Y002657D01*
X077213Y002660D01*
X077261Y002659D01*
X077309Y002654D01*
X077357Y002645D01*
X077403Y002633D01*
X077448Y002616D01*
X077492Y002596D01*
X077534Y002573D01*
X077574Y002546D01*
X077612Y002516D01*
X077647Y002483D01*
X077679Y002447D01*
X077709Y002409D01*
X077735Y002368D01*
X077757Y002325D01*
X077777Y002281D01*
X077792Y002236D01*
X077804Y002189D01*
X077812Y002141D01*
X077816Y002093D01*
X077816Y002045D01*
X077812Y001997D01*
X077804Y001949D01*
X077792Y001902D01*
X077777Y001857D01*
X077757Y001813D01*
X077735Y001770D01*
X077709Y001729D01*
X077679Y001691D01*
X077647Y001655D01*
X077612Y001622D01*
X077574Y001592D01*
X077534Y001565D01*
X077492Y001542D01*
X077448Y001522D01*
X077403Y001505D01*
X077357Y001493D01*
X077309Y001484D01*
X077261Y001479D01*
X077213Y001478D01*
X077165Y001481D01*
X077117Y001488D01*
X077070Y001499D01*
X077024Y001513D01*
X076979Y001531D01*
X076936Y001553D01*
X076895Y001578D01*
X076857Y001607D01*
X076820Y001639D01*
X076786Y001673D01*
X076756Y001710D01*
X076728Y001749D01*
X076703Y001791D01*
X076683Y001835D01*
X076665Y001880D01*
X076652Y001926D01*
X076642Y001973D01*
X076636Y002021D01*
X076634Y002069D01*
X076634Y028319D02*
X076636Y028367D01*
X076642Y028415D01*
X076652Y028462D01*
X076665Y028508D01*
X076683Y028553D01*
X076703Y028597D01*
X076728Y028639D01*
X076756Y028678D01*
X076786Y028715D01*
X076820Y028749D01*
X076857Y028781D01*
X076895Y028810D01*
X076936Y028835D01*
X076979Y028857D01*
X077024Y028875D01*
X077070Y028889D01*
X077117Y028900D01*
X077165Y028907D01*
X077213Y028910D01*
X077261Y028909D01*
X077309Y028904D01*
X077357Y028895D01*
X077403Y028883D01*
X077448Y028866D01*
X077492Y028846D01*
X077534Y028823D01*
X077574Y028796D01*
X077612Y028766D01*
X077647Y028733D01*
X077679Y028697D01*
X077709Y028659D01*
X077735Y028618D01*
X077757Y028575D01*
X077777Y028531D01*
X077792Y028486D01*
X077804Y028439D01*
X077812Y028391D01*
X077816Y028343D01*
X077816Y028295D01*
X077812Y028247D01*
X077804Y028199D01*
X077792Y028152D01*
X077777Y028107D01*
X077757Y028063D01*
X077735Y028020D01*
X077709Y027979D01*
X077679Y027941D01*
X077647Y027905D01*
X077612Y027872D01*
X077574Y027842D01*
X077534Y027815D01*
X077492Y027792D01*
X077448Y027772D01*
X077403Y027755D01*
X077357Y027743D01*
X077309Y027734D01*
X077261Y027729D01*
X077213Y027728D01*
X077165Y027731D01*
X077117Y027738D01*
X077070Y027749D01*
X077024Y027763D01*
X076979Y027781D01*
X076936Y027803D01*
X076895Y027828D01*
X076857Y027857D01*
X076820Y027889D01*
X076786Y027923D01*
X076756Y027960D01*
X076728Y027999D01*
X076703Y028041D01*
X076683Y028085D01*
X076665Y028130D01*
X076652Y028176D01*
X076642Y028223D01*
X076636Y028271D01*
X076634Y028319D01*
X001134Y028319D02*
X001136Y028367D01*
X001142Y028415D01*
X001152Y028462D01*
X001165Y028508D01*
X001183Y028553D01*
X001203Y028597D01*
X001228Y028639D01*
X001256Y028678D01*
X001286Y028715D01*
X001320Y028749D01*
X001357Y028781D01*
X001395Y028810D01*
X001436Y028835D01*
X001479Y028857D01*
X001524Y028875D01*
X001570Y028889D01*
X001617Y028900D01*
X001665Y028907D01*
X001713Y028910D01*
X001761Y028909D01*
X001809Y028904D01*
X001857Y028895D01*
X001903Y028883D01*
X001948Y028866D01*
X001992Y028846D01*
X002034Y028823D01*
X002074Y028796D01*
X002112Y028766D01*
X002147Y028733D01*
X002179Y028697D01*
X002209Y028659D01*
X002235Y028618D01*
X002257Y028575D01*
X002277Y028531D01*
X002292Y028486D01*
X002304Y028439D01*
X002312Y028391D01*
X002316Y028343D01*
X002316Y028295D01*
X002312Y028247D01*
X002304Y028199D01*
X002292Y028152D01*
X002277Y028107D01*
X002257Y028063D01*
X002235Y028020D01*
X002209Y027979D01*
X002179Y027941D01*
X002147Y027905D01*
X002112Y027872D01*
X002074Y027842D01*
X002034Y027815D01*
X001992Y027792D01*
X001948Y027772D01*
X001903Y027755D01*
X001857Y027743D01*
X001809Y027734D01*
X001761Y027729D01*
X001713Y027728D01*
X001665Y027731D01*
X001617Y027738D01*
X001570Y027749D01*
X001524Y027763D01*
X001479Y027781D01*
X001436Y027803D01*
X001395Y027828D01*
X001357Y027857D01*
X001320Y027889D01*
X001286Y027923D01*
X001256Y027960D01*
X001228Y027999D01*
X001203Y028041D01*
X001183Y028085D01*
X001165Y028130D01*
X001152Y028176D01*
X001142Y028223D01*
X001136Y028271D01*
X001134Y028319D01*
D11*
X057485Y024159D02*
X057485Y023659D01*
X057735Y023409D01*
X059235Y023409D01*
X059485Y023659D01*
X059485Y024159D01*
X059235Y024409D01*
X057735Y024409D01*
X057485Y024159D01*
X057735Y023409D02*
X057485Y023159D01*
X057485Y022659D01*
X057735Y022409D01*
X059235Y022409D01*
X059485Y022659D01*
X059485Y023159D01*
X059235Y023409D01*
X059235Y022409D02*
X059485Y022159D01*
X059485Y021659D01*
X059235Y021409D01*
X057735Y021409D01*
X057485Y021159D01*
X057485Y020659D01*
X057735Y020409D01*
X059235Y020409D01*
X059485Y020659D01*
X059485Y021159D01*
X059235Y021409D01*
X057735Y021409D02*
X057485Y021659D01*
X057485Y022159D01*
X057735Y022409D01*
X057735Y020409D02*
X057485Y020159D01*
X057485Y019659D01*
X057735Y019409D01*
X059235Y019409D01*
X059485Y019659D01*
X059485Y020159D01*
X059235Y020409D01*
X059235Y019409D02*
X059485Y019159D01*
X059485Y018659D01*
X059235Y018409D01*
X057735Y018409D01*
X057485Y018159D01*
X057485Y017659D01*
X057735Y017409D01*
X059235Y017409D01*
X059485Y017659D01*
X059485Y018159D01*
X059235Y018409D01*
X057735Y018409D02*
X057485Y018659D01*
X057485Y019159D01*
X057735Y019409D01*
X057735Y017409D02*
X057485Y017159D01*
X057485Y016659D01*
X057735Y016409D01*
X059235Y016409D01*
X059485Y016659D01*
X059485Y017159D01*
X059235Y017409D01*
X059235Y016409D02*
X059485Y016159D01*
X059485Y015659D01*
X059235Y015409D01*
X057735Y015409D01*
X057485Y015159D01*
X057485Y014659D01*
X057735Y014409D01*
X058235Y014409D01*
X058485Y014159D01*
X058485Y013659D01*
X058235Y013409D01*
X059235Y013409D01*
X059485Y013659D01*
X059485Y014159D01*
X059235Y014409D01*
X058235Y014409D01*
X057735Y014409D02*
X057485Y014159D01*
X057485Y013659D01*
X057735Y013409D01*
X058235Y013409D01*
X059235Y014409D02*
X059485Y014659D01*
X059485Y015159D01*
X059235Y015409D01*
X057735Y015409D02*
X057485Y015659D01*
X057485Y016159D01*
X057735Y016409D01*
X059773Y024746D02*
X060273Y024746D01*
X060523Y024996D01*
X060523Y025996D01*
X060273Y025746D01*
X059773Y025746D01*
X059523Y025996D01*
X059523Y024996D01*
X059773Y024746D01*
X060523Y024996D02*
X060773Y024746D01*
X061273Y024746D01*
X061523Y024996D01*
X061523Y026496D01*
X061273Y026746D01*
X060773Y026746D01*
X060523Y026496D01*
X060523Y025996D01*
X060523Y026496D02*
X060273Y026746D01*
X059773Y026746D01*
X059523Y026496D01*
X059523Y025996D01*
X061523Y026496D02*
X061773Y026746D01*
X062273Y026746D01*
X062523Y026496D01*
X062523Y024996D01*
X062773Y024746D01*
X063273Y024746D01*
X063523Y024996D01*
X063523Y026496D01*
X063273Y026746D01*
X062773Y026746D01*
X062523Y026496D01*
X063523Y026496D02*
X063773Y026746D01*
X064273Y026746D01*
X064523Y026496D01*
X064523Y024996D01*
X064773Y024746D01*
X065273Y024746D01*
X065523Y024996D01*
X065523Y026496D01*
X065273Y026746D01*
X064773Y026746D01*
X064523Y026496D01*
X065523Y026496D02*
X065773Y026746D01*
X066273Y026746D01*
X066523Y026496D01*
X066523Y024996D01*
X066773Y024746D01*
X067273Y024746D01*
X067523Y024996D01*
X067523Y026496D01*
X067273Y026746D01*
X066773Y026746D01*
X066523Y026496D01*
X067523Y026496D02*
X067773Y026746D01*
X068273Y026746D01*
X068523Y026496D01*
X068523Y024996D01*
X068773Y024746D01*
X069273Y024746D01*
X069523Y024996D01*
X069523Y026496D01*
X069273Y026746D01*
X068773Y026746D01*
X068523Y026496D01*
X069523Y026496D02*
X069773Y026746D01*
X070273Y026746D01*
X070523Y026496D01*
X070523Y024996D01*
X070273Y024746D01*
X069773Y024746D01*
X069523Y024996D01*
X068523Y024996D02*
X068273Y024746D01*
X067773Y024746D01*
X067523Y024996D01*
X066523Y024996D02*
X066273Y024746D01*
X065773Y024746D01*
X065523Y024996D01*
X064523Y024996D02*
X064273Y024746D01*
X063773Y024746D01*
X063523Y024996D01*
X062523Y024996D02*
X062273Y024746D01*
X061773Y024746D01*
X061523Y024996D01*
D12*
X057298Y027084D02*
X057298Y009959D01*
X081485Y009959D01*
X081485Y027084D01*
X057298Y027084D01*
X054972Y022884D02*
X054972Y022508D01*
X054897Y022433D01*
X054746Y022433D01*
X054671Y022508D01*
X054671Y022884D01*
X054511Y022808D02*
X054436Y022884D01*
X054286Y022884D01*
X054211Y022808D01*
X054051Y022808D02*
X053976Y022884D01*
X053826Y022884D01*
X053751Y022808D01*
X053751Y022733D01*
X053826Y022658D01*
X053751Y022583D01*
X053751Y022508D01*
X053826Y022433D01*
X053976Y022433D01*
X054051Y022508D01*
X054211Y022508D02*
X054211Y022583D01*
X054286Y022658D01*
X054436Y022658D01*
X054511Y022733D01*
X054511Y022808D01*
X054361Y022959D02*
X054361Y022358D01*
X054286Y022433D02*
X054211Y022508D01*
X054286Y022433D02*
X054436Y022433D01*
X054511Y022508D01*
X053901Y022658D02*
X053826Y022658D01*
X053590Y022658D02*
X053365Y022658D01*
X053290Y022583D01*
X053290Y022508D01*
X053365Y022433D01*
X053515Y022433D01*
X053590Y022508D01*
X053590Y022658D01*
X053440Y022808D01*
X053290Y022884D01*
X040597Y021384D02*
X040597Y021008D01*
X040522Y020933D01*
X040371Y020933D01*
X040296Y021008D01*
X040296Y021384D01*
X040136Y021308D02*
X040061Y021384D01*
X039911Y021384D01*
X039836Y021308D01*
X039676Y021308D02*
X039601Y021384D01*
X039451Y021384D01*
X039376Y021308D01*
X039376Y021233D01*
X039451Y021158D01*
X039376Y021083D01*
X039376Y021008D01*
X039451Y020933D01*
X039601Y020933D01*
X039676Y021008D01*
X039836Y021008D02*
X039836Y021083D01*
X039911Y021158D01*
X040061Y021158D01*
X040136Y021233D01*
X040136Y021308D01*
X039986Y021459D02*
X039986Y020858D01*
X039911Y020933D02*
X039836Y021008D01*
X039911Y020933D02*
X040061Y020933D01*
X040136Y021008D01*
X039526Y021158D02*
X039451Y021158D01*
X039215Y021008D02*
X039140Y020933D01*
X038990Y020933D01*
X038915Y021008D01*
X038915Y021083D01*
X038990Y021158D01*
X039065Y021158D01*
X038990Y021158D02*
X038915Y021233D01*
X038915Y021308D01*
X038990Y021384D01*
X039140Y021384D01*
X039215Y021308D01*
X025222Y022508D02*
X025147Y022433D01*
X024996Y022433D01*
X024921Y022508D01*
X024921Y022884D01*
X024761Y022808D02*
X024686Y022884D01*
X024536Y022884D01*
X024461Y022808D01*
X024301Y022808D02*
X024226Y022884D01*
X024076Y022884D01*
X024001Y022808D01*
X024001Y022733D01*
X024076Y022658D01*
X024001Y022583D01*
X024001Y022508D01*
X024076Y022433D01*
X024226Y022433D01*
X024301Y022508D01*
X024461Y022508D02*
X024461Y022583D01*
X024536Y022658D01*
X024686Y022658D01*
X024761Y022733D01*
X024761Y022808D01*
X024611Y022959D02*
X024611Y022358D01*
X024536Y022433D02*
X024461Y022508D01*
X024536Y022433D02*
X024686Y022433D01*
X024761Y022508D01*
X025222Y022508D02*
X025222Y022884D01*
X024151Y022658D02*
X024076Y022658D01*
X023840Y022508D02*
X023840Y022808D01*
X023765Y022884D01*
X023615Y022884D01*
X023540Y022808D01*
X023840Y022508D01*
X023765Y022433D01*
X023615Y022433D01*
X023540Y022508D01*
X023540Y022808D01*
X026286Y014205D02*
X026286Y013905D01*
X026286Y014055D02*
X026736Y014055D01*
X026586Y013905D01*
X026511Y013745D02*
X026361Y013745D01*
X026286Y013670D01*
X026286Y013520D01*
X026361Y013445D01*
X026511Y013445D02*
X026586Y013595D01*
X026586Y013670D01*
X026511Y013745D01*
X026736Y013745D02*
X026736Y013445D01*
X026511Y013445D01*
X026436Y013284D02*
X026511Y013209D01*
X026511Y013059D01*
X026586Y012984D01*
X026661Y012984D01*
X026736Y013059D01*
X026736Y013209D01*
X026661Y013284D01*
X026811Y013134D02*
X026211Y013134D01*
X026286Y013059D02*
X026286Y013209D01*
X026361Y013284D01*
X026436Y013284D01*
X026286Y013059D02*
X026361Y012984D01*
X026361Y012824D02*
X026736Y012824D01*
X026736Y012524D02*
X026361Y012524D01*
X026286Y012599D01*
X026286Y012749D01*
X026361Y012824D01*
X048849Y004831D02*
X048849Y003807D01*
X050601Y003807D02*
X050601Y004831D01*
X060479Y010382D02*
X060729Y010132D01*
X061229Y010132D01*
X061479Y010382D01*
X061479Y011882D01*
X061229Y012132D01*
X060729Y012132D01*
X060479Y011882D01*
X060479Y010382D01*
X061479Y010382D02*
X061729Y010132D01*
X062229Y010132D01*
X062479Y010382D01*
X062479Y011882D01*
X062229Y012132D01*
X061729Y012132D01*
X061479Y011882D01*
X062479Y011882D02*
X062729Y012132D01*
X063229Y012132D01*
X063479Y011882D01*
X063479Y010382D01*
X063729Y010132D01*
X064229Y010132D01*
X064479Y010382D01*
X064479Y011882D01*
X064229Y012132D01*
X063729Y012132D01*
X063479Y011882D01*
X064479Y011882D02*
X064729Y012132D01*
X065229Y012132D01*
X065479Y011882D01*
X065479Y010382D01*
X065729Y010132D01*
X066229Y010132D01*
X066479Y010382D01*
X066479Y011882D01*
X066229Y012132D01*
X065729Y012132D01*
X065479Y011882D01*
X066479Y011882D02*
X066729Y012132D01*
X067229Y012132D01*
X067479Y011882D01*
X067479Y010882D01*
X067479Y010382D01*
X067729Y010132D01*
X068229Y010132D01*
X068479Y010382D01*
X068479Y010882D01*
X068229Y011132D01*
X067729Y011132D01*
X067479Y010882D01*
X068479Y010882D02*
X068479Y011882D01*
X068229Y012132D01*
X067729Y012132D01*
X067479Y011882D01*
X068735Y011884D02*
X068735Y010384D01*
X068985Y010134D01*
X069485Y010134D01*
X069735Y010384D01*
X069735Y011884D01*
X069485Y012134D01*
X068985Y012134D01*
X068735Y011884D01*
X069735Y011884D02*
X069985Y012134D01*
X070485Y012134D01*
X070735Y011884D01*
X070735Y010384D01*
X070985Y010134D01*
X071485Y010134D01*
X071735Y010384D01*
X071735Y011884D01*
X071485Y012134D01*
X070985Y012134D01*
X070735Y011884D01*
X071735Y011884D02*
X071985Y012134D01*
X072485Y012134D01*
X072735Y011884D01*
X072735Y010384D01*
X072985Y010134D01*
X073485Y010134D01*
X073735Y010384D01*
X073735Y011884D01*
X073485Y012134D01*
X072985Y012134D01*
X072735Y011884D01*
X073735Y011884D02*
X073985Y012134D01*
X074485Y012134D01*
X074735Y011884D01*
X074735Y010384D01*
X074985Y010134D01*
X075485Y010134D01*
X075735Y010384D01*
X075735Y011884D01*
X075485Y012134D01*
X074985Y012134D01*
X074735Y011884D01*
X075735Y011884D02*
X075985Y012134D01*
X076485Y012134D01*
X076735Y011884D01*
X076735Y010884D01*
X076735Y010384D01*
X076985Y010134D01*
X077485Y010134D01*
X077735Y010384D01*
X077735Y010884D01*
X077485Y011134D01*
X076985Y011134D01*
X076735Y010884D01*
X077735Y010884D02*
X077735Y011884D01*
X077485Y012134D01*
X076985Y012134D01*
X076735Y011884D01*
X076735Y010384D02*
X076485Y010134D01*
X075985Y010134D01*
X075735Y010384D01*
X074735Y010384D02*
X074485Y010134D01*
X073985Y010134D01*
X073735Y010384D01*
X072735Y010384D02*
X072485Y010134D01*
X071985Y010134D01*
X071735Y010384D01*
X070735Y010384D02*
X070485Y010134D01*
X069985Y010134D01*
X069735Y010384D01*
X067479Y010382D02*
X067229Y010132D01*
X066729Y010132D01*
X066479Y010382D01*
X065479Y010382D02*
X065229Y010132D01*
X064729Y010132D01*
X064479Y010382D01*
X063479Y010382D02*
X063229Y010132D01*
X062729Y010132D01*
X062479Y010382D01*
X075596Y008189D02*
X075896Y008189D01*
X075746Y008189D02*
X075746Y008639D01*
X075896Y008489D01*
X076056Y008639D02*
X076357Y008189D01*
X076056Y008189D02*
X076357Y008639D01*
X076250Y007718D02*
X076250Y007418D01*
X076250Y007568D02*
X076700Y007568D01*
X076550Y007418D01*
X076550Y005768D02*
X076625Y005768D01*
X076700Y005693D01*
X076700Y005543D01*
X076625Y005468D01*
X076550Y005768D02*
X076250Y005468D01*
X076250Y005768D01*
D13*
X074647Y005647D02*
X074647Y007103D01*
X074431Y008304D02*
X074399Y008393D01*
X074362Y008480D01*
X074322Y008566D01*
X074277Y008649D01*
X074228Y008730D01*
X074176Y008809D01*
X074119Y008884D01*
X074059Y008957D01*
X073995Y009027D01*
X073929Y009094D01*
X073858Y009157D01*
X073785Y009217D01*
X073709Y009273D01*
X073631Y009326D01*
X073549Y009374D01*
X073466Y009419D01*
X073381Y009459D01*
X073293Y009495D01*
X073204Y009527D01*
X073114Y009554D01*
X073022Y009577D01*
X072929Y009596D01*
X072836Y009610D01*
X072742Y009619D01*
X072647Y009623D01*
X072553Y009623D01*
X072458Y009619D01*
X072364Y009610D01*
X072271Y009596D01*
X072178Y009577D01*
X072086Y009554D01*
X071996Y009527D01*
X071907Y009495D01*
X071819Y009459D01*
X071734Y009419D01*
X071651Y009374D01*
X071569Y009326D01*
X071491Y009273D01*
X071415Y009217D01*
X071342Y009157D01*
X071271Y009094D01*
X071205Y009027D01*
X071141Y008957D01*
X071081Y008884D01*
X071024Y008809D01*
X070972Y008730D01*
X070923Y008649D01*
X070878Y008566D01*
X070838Y008480D01*
X070801Y008393D01*
X070769Y008304D01*
X070553Y008284D02*
X070553Y009387D01*
X070907Y009741D01*
X074647Y009741D01*
X074647Y008284D01*
X075500Y008244D02*
X075500Y009894D01*
X077950Y009894D01*
X077950Y008244D01*
X075500Y008244D01*
X074431Y007084D02*
X074399Y006995D01*
X074362Y006908D01*
X074322Y006822D01*
X074277Y006739D01*
X074228Y006658D01*
X074176Y006579D01*
X074119Y006504D01*
X074059Y006431D01*
X073995Y006361D01*
X073929Y006294D01*
X073858Y006231D01*
X073785Y006171D01*
X073709Y006115D01*
X073631Y006062D01*
X073549Y006014D01*
X073466Y005969D01*
X073381Y005929D01*
X073293Y005893D01*
X073204Y005861D01*
X073114Y005834D01*
X073022Y005811D01*
X072929Y005792D01*
X072836Y005778D01*
X072742Y005769D01*
X072647Y005765D01*
X072553Y005765D01*
X072458Y005769D01*
X072364Y005778D01*
X072271Y005792D01*
X072178Y005811D01*
X072086Y005834D01*
X071996Y005861D01*
X071907Y005893D01*
X071819Y005929D01*
X071734Y005969D01*
X071651Y006014D01*
X071569Y006062D01*
X071491Y006115D01*
X071415Y006171D01*
X071342Y006231D01*
X071271Y006294D01*
X071205Y006361D01*
X071141Y006431D01*
X071081Y006504D01*
X071024Y006579D01*
X070972Y006658D01*
X070923Y006739D01*
X070878Y006822D01*
X070838Y006908D01*
X070801Y006995D01*
X070769Y007084D01*
X070553Y007103D02*
X070553Y006001D01*
X070907Y005647D01*
X074647Y005647D01*
X071962Y005306D02*
X071962Y004322D01*
X071962Y005306D02*
X067238Y005306D01*
X067238Y004322D01*
X065897Y004637D02*
X065543Y004991D01*
X061803Y004991D01*
X061803Y003534D01*
X062019Y002334D02*
X062051Y002245D01*
X062088Y002158D01*
X062128Y002072D01*
X062173Y001989D01*
X062222Y001908D01*
X062274Y001829D01*
X062331Y001754D01*
X062391Y001681D01*
X062455Y001611D01*
X062521Y001544D01*
X062592Y001481D01*
X062665Y001421D01*
X062741Y001365D01*
X062819Y001312D01*
X062901Y001264D01*
X062984Y001219D01*
X063069Y001179D01*
X063157Y001143D01*
X063246Y001111D01*
X063336Y001084D01*
X063428Y001061D01*
X063521Y001042D01*
X063614Y001028D01*
X063708Y001019D01*
X063803Y001015D01*
X063897Y001015D01*
X063992Y001019D01*
X064086Y001028D01*
X064179Y001042D01*
X064272Y001061D01*
X064364Y001084D01*
X064454Y001111D01*
X064543Y001143D01*
X064631Y001179D01*
X064716Y001219D01*
X064799Y001264D01*
X064881Y001312D01*
X064959Y001365D01*
X065035Y001421D01*
X065108Y001481D01*
X065179Y001544D01*
X065245Y001611D01*
X065309Y001681D01*
X065369Y001754D01*
X065426Y001829D01*
X065478Y001908D01*
X065527Y001989D01*
X065572Y002072D01*
X065612Y002158D01*
X065649Y002245D01*
X065681Y002334D01*
X065897Y002353D02*
X065897Y001251D01*
X065543Y000897D01*
X061803Y000897D01*
X061803Y002353D01*
X062019Y003554D02*
X062051Y003643D01*
X062088Y003730D01*
X062128Y003816D01*
X062173Y003899D01*
X062222Y003980D01*
X062274Y004059D01*
X062331Y004134D01*
X062391Y004207D01*
X062455Y004277D01*
X062521Y004344D01*
X062592Y004407D01*
X062665Y004467D01*
X062741Y004523D01*
X062819Y004576D01*
X062901Y004624D01*
X062984Y004669D01*
X063069Y004709D01*
X063157Y004745D01*
X063246Y004777D01*
X063336Y004804D01*
X063428Y004827D01*
X063521Y004846D01*
X063614Y004860D01*
X063708Y004869D01*
X063803Y004873D01*
X063897Y004873D01*
X063992Y004869D01*
X064086Y004860D01*
X064179Y004846D01*
X064272Y004827D01*
X064364Y004804D01*
X064454Y004777D01*
X064543Y004745D01*
X064631Y004709D01*
X064716Y004669D01*
X064799Y004624D01*
X064881Y004576D01*
X064959Y004523D01*
X065035Y004467D01*
X065108Y004407D01*
X065179Y004344D01*
X065245Y004277D01*
X065309Y004207D01*
X065369Y004134D01*
X065426Y004059D01*
X065478Y003980D01*
X065527Y003899D01*
X065572Y003816D01*
X065612Y003730D01*
X065649Y003643D01*
X065681Y003554D01*
X065897Y003534D02*
X065897Y004637D01*
X065234Y005688D02*
X065234Y009699D01*
X067350Y008019D02*
X067850Y008019D01*
X067850Y006869D01*
X067350Y006869D01*
X067350Y008019D01*
X068456Y006868D02*
X068850Y007271D01*
X069244Y006868D01*
X068456Y006868D01*
X067850Y006769D02*
X067350Y006769D01*
X067350Y005619D01*
X067850Y005619D01*
X067850Y006769D01*
X067238Y001566D02*
X067238Y000582D01*
X071962Y000582D01*
X071962Y001566D01*
X049575Y001069D02*
X048875Y001069D01*
X048875Y002569D01*
X049575Y002569D01*
X049575Y001069D01*
X046975Y003244D02*
X046475Y003244D01*
X046475Y004394D01*
X046975Y004394D01*
X046975Y003244D01*
X047154Y003504D02*
X047154Y004134D01*
X047548Y004134D02*
X047902Y004134D01*
X048296Y004134D02*
X048296Y003504D01*
X047975Y004744D02*
X047475Y004744D01*
X047475Y005894D01*
X047975Y005894D01*
X047975Y004744D01*
X047075Y004569D02*
X046375Y004569D01*
X046375Y006069D01*
X047075Y006069D01*
X047075Y004569D01*
X026475Y010744D02*
X026475Y011894D01*
X025975Y011894D01*
X025975Y010744D01*
X026475Y010744D01*
X026350Y014744D02*
X025850Y014744D01*
X025850Y015894D01*
X026350Y015894D01*
X026350Y014744D01*
X040850Y020494D02*
X041350Y020494D01*
X041350Y021644D01*
X040850Y021644D01*
X040850Y020494D01*
X038100Y021494D02*
X037600Y021494D01*
X037600Y022644D01*
X038100Y022644D01*
X038100Y021494D01*
X027175Y022569D02*
X027175Y023069D01*
X026025Y023069D01*
X026025Y022569D01*
X027175Y022569D01*
X023100Y022994D02*
X022600Y022994D01*
X022600Y024144D01*
X023100Y024144D01*
X023100Y022994D01*
X043975Y026344D02*
X043975Y027044D01*
X045475Y027044D01*
X045475Y026344D01*
X043975Y026344D01*
X043975Y027219D02*
X043975Y027919D01*
X045475Y027919D01*
X045475Y027219D01*
X043975Y027219D01*
X046975Y027394D02*
X046975Y026244D01*
X047475Y026244D01*
X047475Y027394D01*
X046975Y027394D01*
X047625Y027694D02*
X048325Y027694D01*
X048325Y026194D01*
X047625Y026194D01*
X047625Y027694D01*
X052600Y024144D02*
X052600Y022994D01*
X053100Y022994D01*
X053100Y024144D01*
X052600Y024144D01*
X054525Y022444D02*
X054525Y021944D01*
X055675Y021944D01*
X055675Y022444D01*
X054525Y022444D01*
X055775Y022444D02*
X055775Y021944D01*
X056925Y021944D01*
X056925Y022444D01*
X055775Y022444D01*
D14*
X055680Y022399D02*
X055475Y022399D01*
X055406Y022331D01*
X055406Y022194D01*
X055475Y022126D01*
X055680Y022126D01*
X055543Y022126D02*
X055406Y021989D01*
X055220Y022057D02*
X055220Y022126D01*
X055151Y022194D01*
X055014Y022194D01*
X054946Y022126D01*
X054946Y022057D01*
X055014Y021989D01*
X055151Y021989D01*
X055220Y022057D01*
X055151Y022194D02*
X055220Y022262D01*
X055220Y022331D01*
X055151Y022399D01*
X055014Y022399D01*
X054946Y022331D01*
X054946Y022262D01*
X055014Y022194D01*
X054726Y022274D02*
X054521Y022274D01*
X054452Y022206D01*
X054452Y022069D01*
X054521Y022001D01*
X054726Y022001D01*
X054589Y022001D02*
X054452Y021864D01*
X054265Y021864D02*
X054265Y021932D01*
X053992Y022206D01*
X053992Y022274D01*
X054265Y022274D01*
X054726Y022274D02*
X054726Y021864D01*
X055680Y021989D02*
X055680Y022399D01*
X052680Y023364D02*
X052680Y023569D01*
X052612Y023637D01*
X052475Y023637D01*
X052407Y023569D01*
X052407Y023364D01*
X052407Y023501D02*
X052270Y023637D01*
X052338Y023824D02*
X052270Y023893D01*
X052270Y024029D01*
X052338Y024098D01*
X052407Y024098D01*
X052475Y024029D01*
X052475Y023824D01*
X052338Y023824D01*
X052475Y023824D02*
X052612Y023961D01*
X052680Y024098D01*
X052680Y023364D02*
X052270Y023364D01*
X044055Y026557D02*
X043987Y026489D01*
X043713Y026489D01*
X043645Y026557D01*
X043645Y026694D01*
X043713Y026762D01*
X043713Y026949D02*
X043645Y027018D01*
X043645Y027154D01*
X043713Y027223D01*
X043782Y027223D01*
X043850Y027154D01*
X043850Y026949D01*
X043713Y026949D01*
X043850Y026949D02*
X043987Y027086D01*
X044055Y027223D01*
X043987Y027364D02*
X043713Y027364D01*
X043645Y027432D01*
X043645Y027569D01*
X043713Y027637D01*
X043713Y027824D02*
X043645Y027824D01*
X043713Y027824D02*
X043987Y028098D01*
X044055Y028098D01*
X044055Y027824D01*
X043987Y027637D02*
X044055Y027569D01*
X044055Y027432D01*
X043987Y027364D01*
X043987Y026762D02*
X044055Y026694D01*
X044055Y026557D01*
X047117Y027432D02*
X047185Y027364D01*
X047322Y027364D01*
X047390Y027432D01*
X047390Y027501D01*
X047322Y027569D01*
X047185Y027569D01*
X047117Y027501D01*
X047117Y027432D01*
X047185Y027569D02*
X047117Y027637D01*
X047117Y027706D01*
X047185Y027774D01*
X047322Y027774D01*
X047390Y027706D01*
X047390Y027637D01*
X047322Y027569D01*
X047577Y027432D02*
X047646Y027364D01*
X047782Y027364D01*
X047851Y027432D01*
X047851Y027706D01*
X047782Y027774D01*
X047646Y027774D01*
X047577Y027706D01*
X047867Y027682D02*
X047867Y027956D01*
X047935Y028024D01*
X048072Y028024D01*
X048140Y027956D01*
X048140Y027887D01*
X048072Y027819D01*
X047867Y027819D01*
X047867Y027682D02*
X047935Y027614D01*
X048072Y027614D01*
X048140Y027682D01*
X048327Y027614D02*
X048464Y027751D01*
X048396Y027751D02*
X048601Y027751D01*
X048601Y027614D02*
X048601Y028024D01*
X048396Y028024D01*
X048327Y027956D01*
X048327Y027819D01*
X048396Y027751D01*
X040680Y021427D02*
X040612Y021427D01*
X040338Y021153D01*
X040270Y021153D01*
X040270Y020967D02*
X040270Y020693D01*
X040270Y020830D02*
X040680Y020830D01*
X040544Y020693D01*
X040612Y020506D02*
X040680Y020438D01*
X040680Y020301D01*
X040612Y020233D01*
X040338Y020233D01*
X040270Y020301D01*
X040270Y020438D01*
X040338Y020506D01*
X040680Y021153D02*
X040680Y021427D01*
X038476Y021399D02*
X038476Y020989D01*
X038476Y021126D02*
X038271Y021126D01*
X038202Y021194D01*
X038202Y021331D01*
X038271Y021399D01*
X038476Y021399D01*
X038339Y021126D02*
X038202Y020989D01*
X038015Y021057D02*
X037947Y020989D01*
X037810Y020989D01*
X037742Y021057D01*
X037742Y021194D01*
X037810Y021262D01*
X037879Y021262D01*
X038015Y021194D01*
X038015Y021399D01*
X037742Y021399D01*
X027436Y022057D02*
X027368Y021989D01*
X027231Y021989D01*
X027163Y022057D01*
X026976Y021989D02*
X026702Y021989D01*
X026839Y021989D02*
X026839Y022399D01*
X026976Y022262D01*
X027163Y022331D02*
X027231Y022399D01*
X027368Y022399D01*
X027436Y022331D01*
X027436Y022057D01*
X026515Y022057D02*
X026447Y021989D01*
X026310Y021989D01*
X026242Y022057D01*
X026242Y022126D01*
X026310Y022194D01*
X026515Y022194D01*
X026515Y022057D01*
X026515Y022194D02*
X026379Y022331D01*
X026242Y022399D01*
X022430Y022943D02*
X022430Y023148D01*
X022362Y023217D01*
X022225Y023217D01*
X022157Y023148D01*
X022157Y022943D01*
X022157Y023080D02*
X022020Y023217D01*
X022020Y022943D02*
X022430Y022943D01*
X022225Y023403D02*
X022225Y023677D01*
X022020Y023609D02*
X022430Y023609D01*
X022225Y023403D01*
X046520Y006973D02*
X046520Y006699D01*
X046794Y006973D01*
X046862Y006973D01*
X046930Y006904D01*
X046930Y006768D01*
X046862Y006699D01*
X046862Y006512D02*
X046930Y006444D01*
X046930Y006307D01*
X046862Y006239D01*
X046588Y006239D01*
X046520Y006307D01*
X046520Y006444D01*
X046588Y006512D01*
X047645Y006643D02*
X047713Y006574D01*
X047645Y006643D02*
X047645Y006779D01*
X047713Y006848D01*
X047782Y006848D01*
X047850Y006779D01*
X047850Y006711D01*
X047850Y006779D02*
X047919Y006848D01*
X047987Y006848D01*
X048055Y006779D01*
X048055Y006643D01*
X047987Y006574D01*
X047987Y006387D02*
X048055Y006319D01*
X048055Y006182D01*
X047987Y006114D01*
X047713Y006114D01*
X047645Y006182D01*
X047645Y006319D01*
X047713Y006387D01*
X046020Y004348D02*
X046020Y004074D01*
X046020Y004211D02*
X046430Y004211D01*
X046294Y004074D01*
X046362Y003887D02*
X046225Y003887D01*
X046157Y003819D01*
X046157Y003614D01*
X046157Y003751D02*
X046020Y003887D01*
X046020Y003614D02*
X046430Y003614D01*
X046430Y003819D01*
X046362Y003887D01*
X047204Y002899D02*
X047204Y002489D01*
X047340Y002489D02*
X047067Y002489D01*
X047340Y002762D02*
X047204Y002899D01*
X047527Y002899D02*
X047527Y002557D01*
X047596Y002489D01*
X047732Y002489D01*
X047801Y002557D01*
X047801Y002899D01*
X049770Y002348D02*
X049770Y002074D01*
X049770Y002211D02*
X050180Y002211D01*
X050044Y002074D01*
X050112Y001887D02*
X050180Y001819D01*
X050180Y001682D01*
X050112Y001614D01*
X049838Y001614D01*
X049770Y001682D01*
X049770Y001819D01*
X049838Y001887D01*
D15*
X047638Y001443D02*
X047638Y000983D01*
X047408Y000983D01*
X047331Y001059D01*
X047331Y001366D01*
X047408Y001443D01*
X047638Y001443D01*
X047178Y001289D02*
X047024Y001443D01*
X047024Y000983D01*
X046871Y000983D02*
X047178Y000983D01*
X050870Y003964D02*
X050870Y004271D01*
X050870Y004424D02*
X050870Y004731D01*
X050870Y004578D02*
X051330Y004578D01*
X051177Y004424D01*
X051330Y003964D02*
X050870Y003964D01*
X061901Y000747D02*
X062054Y000670D01*
X062208Y000517D01*
X061978Y000517D01*
X061901Y000440D01*
X061901Y000363D01*
X061978Y000287D01*
X062131Y000287D01*
X062208Y000363D01*
X062208Y000517D01*
X062361Y000594D02*
X062361Y000670D01*
X062438Y000747D01*
X062591Y000747D01*
X062668Y000670D01*
X062822Y000670D02*
X062898Y000747D01*
X063052Y000747D01*
X063129Y000670D01*
X063129Y000363D01*
X063052Y000287D01*
X062898Y000287D01*
X062822Y000363D01*
X062668Y000287D02*
X062361Y000594D01*
X062361Y000287D02*
X062668Y000287D01*
X068100Y006054D02*
X068100Y007834D01*
X067904Y007660D02*
X067827Y007660D01*
X067750Y007584D01*
X067673Y007660D01*
X067597Y007660D01*
X067520Y007584D01*
X067520Y007430D01*
X067597Y007353D01*
X067597Y007200D02*
X067904Y007200D01*
X067980Y007123D01*
X067980Y006893D01*
X067520Y006893D01*
X067520Y007123D01*
X067597Y007200D01*
X067904Y007353D02*
X067980Y007430D01*
X067980Y007584D01*
X067904Y007660D01*
X067750Y007584D02*
X067750Y007507D01*
X069600Y007834D02*
X069600Y006054D01*
X066280Y009914D02*
X066127Y009914D01*
X066203Y009914D02*
X066203Y010374D01*
X066127Y010374D02*
X066280Y010374D01*
X065973Y010297D02*
X065973Y009991D01*
X065896Y009914D01*
X065743Y009914D01*
X065666Y009991D01*
X065513Y009914D02*
X065206Y009914D01*
X065359Y009914D02*
X065359Y010374D01*
X065513Y010221D01*
X065666Y010297D02*
X065743Y010374D01*
X065896Y010374D01*
X065973Y010297D01*
X073435Y010351D02*
X073742Y010351D01*
X073742Y010121D01*
X073588Y010198D01*
X073512Y010198D01*
X073435Y010121D01*
X073435Y009968D01*
X073512Y009891D01*
X073665Y009891D01*
X073742Y009968D01*
X073895Y009891D02*
X074202Y009891D01*
X073895Y010198D01*
X073895Y010275D01*
X073972Y010351D01*
X074126Y010351D01*
X074202Y010275D01*
X074356Y010275D02*
X074432Y010351D01*
X074586Y010351D01*
X074663Y010275D01*
X074663Y009968D01*
X074586Y009891D01*
X074432Y009891D01*
X074356Y009968D01*
D16*
X049725Y004319D03*
D17*
X066935Y006135D02*
X067195Y006135D01*
X067195Y006265D01*
X067152Y006308D01*
X067065Y006308D01*
X067022Y006265D01*
X067022Y006135D01*
X067022Y006221D02*
X066935Y006308D01*
X066935Y006429D02*
X067108Y006603D01*
X067152Y006603D01*
X067195Y006559D01*
X067195Y006473D01*
X067152Y006429D01*
X066935Y006429D02*
X066935Y006603D01*
X066935Y007385D02*
X067195Y007385D01*
X067195Y007515D01*
X067152Y007558D01*
X067065Y007558D01*
X067022Y007515D01*
X067022Y007385D01*
X067022Y007471D02*
X066935Y007558D01*
X066978Y007679D02*
X066935Y007723D01*
X066935Y007809D01*
X066978Y007853D01*
X067022Y007853D01*
X067065Y007809D01*
X067065Y007766D01*
X067065Y007809D02*
X067108Y007853D01*
X067152Y007853D01*
X067195Y007809D01*
X067195Y007723D01*
X067152Y007679D01*
X075505Y008033D02*
X075585Y008033D01*
X075585Y004103D01*
X078185Y004103D01*
X079125Y004103D01*
X079125Y008033D01*
X078185Y008033D01*
X075585Y008033D01*
X075653Y008039D02*
X075653Y007779D01*
X075740Y007779D02*
X075566Y007779D01*
X075740Y007952D02*
X075653Y008039D01*
X075505Y008033D02*
X075505Y004103D01*
X075585Y004103D01*
X075905Y005083D02*
X075907Y005111D01*
X075913Y005138D01*
X075922Y005164D01*
X075935Y005189D01*
X075952Y005212D01*
X075971Y005232D01*
X075993Y005249D01*
X076017Y005263D01*
X076043Y005273D01*
X076070Y005280D01*
X076098Y005283D01*
X076126Y005282D01*
X076153Y005277D01*
X076180Y005268D01*
X076205Y005256D01*
X076228Y005241D01*
X076249Y005222D01*
X076267Y005201D01*
X076282Y005177D01*
X076293Y005151D01*
X076301Y005125D01*
X076305Y005097D01*
X076305Y005069D01*
X076301Y005041D01*
X076293Y005015D01*
X076282Y004989D01*
X076267Y004965D01*
X076249Y004944D01*
X076228Y004925D01*
X076205Y004910D01*
X076180Y004898D01*
X076153Y004889D01*
X076126Y004884D01*
X076098Y004883D01*
X076070Y004886D01*
X076043Y004893D01*
X076017Y004903D01*
X075993Y004917D01*
X075971Y004934D01*
X075952Y004954D01*
X075935Y004977D01*
X075922Y005002D01*
X075913Y005028D01*
X075907Y005055D01*
X075905Y005083D01*
X078185Y004733D02*
X078185Y004103D01*
X078185Y005433D02*
X078185Y006703D01*
X078185Y007403D02*
X078185Y008033D01*
X076624Y008039D02*
X076624Y007779D01*
X076624Y007866D02*
X076493Y007866D01*
X076450Y007909D01*
X076450Y007996D01*
X076493Y008039D01*
X076624Y008039D01*
X076329Y008039D02*
X076155Y008039D01*
X076242Y008039D02*
X076242Y007779D01*
X076034Y007822D02*
X075991Y007779D01*
X075904Y007779D01*
X075861Y007822D01*
X076034Y007822D02*
X076034Y007996D01*
X075991Y008039D01*
X075904Y008039D01*
X075861Y007996D01*
X075905Y007053D02*
X075907Y007081D01*
X075913Y007108D01*
X075922Y007134D01*
X075935Y007159D01*
X075952Y007182D01*
X075971Y007202D01*
X075993Y007219D01*
X076017Y007233D01*
X076043Y007243D01*
X076070Y007250D01*
X076098Y007253D01*
X076126Y007252D01*
X076153Y007247D01*
X076180Y007238D01*
X076205Y007226D01*
X076228Y007211D01*
X076249Y007192D01*
X076267Y007171D01*
X076282Y007147D01*
X076293Y007121D01*
X076301Y007095D01*
X076305Y007067D01*
X076305Y007039D01*
X076301Y007011D01*
X076293Y006985D01*
X076282Y006959D01*
X076267Y006935D01*
X076249Y006914D01*
X076228Y006895D01*
X076205Y006880D01*
X076180Y006868D01*
X076153Y006859D01*
X076126Y006854D01*
X076098Y006853D01*
X076070Y006856D01*
X076043Y006863D01*
X076017Y006873D01*
X075993Y006887D01*
X075971Y006904D01*
X075952Y006924D01*
X075935Y006947D01*
X075922Y006972D01*
X075913Y006998D01*
X075907Y007025D01*
X075905Y007053D01*
X040624Y021558D02*
X038826Y021558D01*
X038826Y025330D01*
X040624Y025330D01*
X040624Y021558D01*
X039065Y022036D02*
X039067Y022062D01*
X039073Y022088D01*
X039082Y022112D01*
X039095Y022135D01*
X039111Y022156D01*
X039130Y022174D01*
X039151Y022190D01*
X039175Y022202D01*
X039199Y022210D01*
X039225Y022215D01*
X039252Y022216D01*
X039278Y022213D01*
X039303Y022206D01*
X039327Y022196D01*
X039350Y022182D01*
X039370Y022166D01*
X039387Y022146D01*
X039402Y022124D01*
X039413Y022100D01*
X039421Y022075D01*
X039425Y022049D01*
X039425Y022023D01*
X039421Y021997D01*
X039413Y021972D01*
X039402Y021948D01*
X039387Y021926D01*
X039370Y021906D01*
X039350Y021890D01*
X039327Y021876D01*
X039303Y021866D01*
X039278Y021859D01*
X039252Y021856D01*
X039225Y021857D01*
X039199Y021862D01*
X039175Y021870D01*
X039151Y021882D01*
X039130Y021898D01*
X039111Y021916D01*
X039095Y021937D01*
X039082Y021960D01*
X039073Y021984D01*
X039067Y022010D01*
X039065Y022036D01*
X025624Y023058D02*
X025624Y026830D01*
X023826Y026830D01*
X023826Y023058D01*
X025624Y023058D01*
X024065Y023536D02*
X024067Y023562D01*
X024073Y023588D01*
X024082Y023612D01*
X024095Y023635D01*
X024111Y023656D01*
X024130Y023674D01*
X024151Y023690D01*
X024175Y023702D01*
X024199Y023710D01*
X024225Y023715D01*
X024252Y023716D01*
X024278Y023713D01*
X024303Y023706D01*
X024327Y023696D01*
X024350Y023682D01*
X024370Y023666D01*
X024387Y023646D01*
X024402Y023624D01*
X024413Y023600D01*
X024421Y023575D01*
X024425Y023549D01*
X024425Y023523D01*
X024421Y023497D01*
X024413Y023472D01*
X024402Y023448D01*
X024387Y023426D01*
X024370Y023406D01*
X024350Y023390D01*
X024327Y023376D01*
X024303Y023366D01*
X024278Y023359D01*
X024252Y023356D01*
X024225Y023357D01*
X024199Y023362D01*
X024175Y023370D01*
X024151Y023382D01*
X024130Y023398D01*
X024111Y023416D01*
X024095Y023437D01*
X024082Y023460D01*
X024073Y023484D01*
X024067Y023510D01*
X024065Y023536D01*
X026548Y015612D02*
X026505Y015568D01*
X026505Y015482D01*
X026548Y015438D01*
X026635Y015438D02*
X026678Y015525D01*
X026678Y015568D01*
X026635Y015612D01*
X026548Y015612D01*
X026635Y015438D02*
X026765Y015438D01*
X026765Y015612D01*
X026765Y015230D02*
X026505Y015230D01*
X026505Y015143D02*
X026505Y015317D01*
X026678Y015143D02*
X026765Y015230D01*
X026722Y015022D02*
X026765Y014979D01*
X026765Y014892D01*
X026722Y014849D01*
X026548Y014849D01*
X026505Y014892D01*
X026505Y014979D01*
X026548Y015022D01*
X026111Y014218D02*
X026111Y012420D01*
X022339Y012420D01*
X022339Y014218D01*
X026111Y014218D01*
X025453Y012839D02*
X025455Y012865D01*
X025461Y012891D01*
X025470Y012915D01*
X025483Y012938D01*
X025499Y012959D01*
X025518Y012977D01*
X025539Y012993D01*
X025563Y013005D01*
X025587Y013013D01*
X025613Y013018D01*
X025640Y013019D01*
X025666Y013016D01*
X025691Y013009D01*
X025715Y012999D01*
X025738Y012985D01*
X025758Y012969D01*
X025775Y012949D01*
X025790Y012927D01*
X025801Y012903D01*
X025809Y012878D01*
X025813Y012852D01*
X025813Y012826D01*
X025809Y012800D01*
X025801Y012775D01*
X025790Y012751D01*
X025775Y012729D01*
X025758Y012709D01*
X025738Y012693D01*
X025715Y012679D01*
X025691Y012669D01*
X025666Y012662D01*
X025640Y012659D01*
X025613Y012660D01*
X025587Y012665D01*
X025563Y012673D01*
X025539Y012685D01*
X025518Y012701D01*
X025499Y012719D01*
X025483Y012740D01*
X025470Y012763D01*
X025461Y012787D01*
X025455Y012813D01*
X025453Y012839D01*
X025603Y011728D02*
X025560Y011684D01*
X025560Y011598D01*
X025603Y011554D01*
X025690Y011554D02*
X025733Y011641D01*
X025733Y011684D01*
X025690Y011728D01*
X025603Y011728D01*
X025690Y011554D02*
X025820Y011554D01*
X025820Y011728D01*
X025820Y011346D02*
X025560Y011346D01*
X025560Y011260D02*
X025560Y011433D01*
X025733Y011260D02*
X025820Y011346D01*
X025777Y011138D02*
X025690Y011138D01*
X025647Y011095D01*
X025647Y010965D01*
X025647Y011052D02*
X025560Y011138D01*
X025560Y010965D02*
X025820Y010965D01*
X025820Y011095D01*
X025777Y011138D01*
X053826Y023058D02*
X055624Y023058D01*
X055624Y026830D01*
X053826Y026830D01*
X053826Y023058D01*
X054065Y023536D02*
X054067Y023562D01*
X054073Y023588D01*
X054082Y023612D01*
X054095Y023635D01*
X054111Y023656D01*
X054130Y023674D01*
X054151Y023690D01*
X054175Y023702D01*
X054199Y023710D01*
X054225Y023715D01*
X054252Y023716D01*
X054278Y023713D01*
X054303Y023706D01*
X054327Y023696D01*
X054350Y023682D01*
X054370Y023666D01*
X054387Y023646D01*
X054402Y023624D01*
X054413Y023600D01*
X054421Y023575D01*
X054425Y023549D01*
X054425Y023523D01*
X054421Y023497D01*
X054413Y023472D01*
X054402Y023448D01*
X054387Y023426D01*
X054370Y023406D01*
X054350Y023390D01*
X054327Y023376D01*
X054303Y023366D01*
X054278Y023359D01*
X054252Y023356D01*
X054225Y023357D01*
X054199Y023362D01*
X054175Y023370D01*
X054151Y023382D01*
X054130Y023398D01*
X054111Y023416D01*
X054095Y023437D01*
X054082Y023460D01*
X054073Y023484D01*
X054067Y023510D01*
X054065Y023536D01*
D18*
X053916Y023148D02*
X055534Y023148D01*
X055534Y026740D01*
X053916Y026740D01*
X053916Y023148D01*
X040534Y021648D02*
X038916Y021648D01*
X038916Y025240D01*
X040534Y025240D01*
X040534Y021648D01*
X025534Y023148D02*
X023916Y023148D01*
X023916Y026740D01*
X025534Y026740D01*
X025534Y023148D01*
X026021Y014128D02*
X022429Y014128D01*
X022429Y012510D01*
X026021Y012510D01*
X026021Y014128D01*
D19*
X057178Y006944D03*
D20*
X055524Y004444D03*
D21*
X055524Y006964D03*
D22*
X065530Y007024D03*
X065530Y007694D03*
X065530Y008364D03*
X065530Y009034D03*
X065530Y006354D03*
D23*
X070105Y002196D02*
X070105Y002096D01*
X070205Y002196D01*
X070230Y002196D01*
X070255Y002171D01*
X070255Y002121D01*
X070230Y002096D01*
X070105Y002049D02*
X070105Y001949D01*
X070255Y001949D01*
M02*
