G75*
G70*
%OFA0B0*%
%FSLAX24Y24*%
%IPPOS*%
%LPD*%
%AMOC8*
5,1,8,0,0,1.08239X$1,22.5*
%
%ADD10OC8,0.0740*%
%ADD11C,0.0500*%
%ADD12C,0.1660*%
%ADD13C,0.1502*%
%ADD14C,0.0660*%
%ADD15C,0.0290*%
%ADD16C,0.0100*%
%ADD17C,0.0120*%
%ADD18C,0.0472*%
%ADD19C,0.0240*%
%ADD20C,0.0160*%
D10*
X020225Y005170D03*
X021225Y005170D03*
X021225Y006170D03*
X021225Y007170D03*
X020225Y007170D03*
X020225Y006170D03*
X020225Y008170D03*
X020225Y009170D03*
X021225Y009170D03*
X021225Y008170D03*
X021225Y010170D03*
X021225Y011170D03*
X020225Y011170D03*
X020225Y010170D03*
X020225Y012170D03*
X020225Y013170D03*
X020225Y014170D03*
X021225Y014170D03*
X021225Y013170D03*
X021225Y012170D03*
X021225Y015170D03*
X021225Y016170D03*
X020225Y016170D03*
X020225Y015170D03*
X020225Y017170D03*
X020225Y018170D03*
X021225Y018170D03*
X021225Y017170D03*
X021225Y019170D03*
X021225Y020170D03*
X020225Y020170D03*
X020225Y019170D03*
X020225Y021170D03*
X020225Y022170D03*
X021225Y022170D03*
X021225Y021170D03*
X021225Y023170D03*
X021225Y024170D03*
X020225Y024170D03*
X020225Y023170D03*
D11*
X023494Y022844D03*
X023494Y022056D03*
X023494Y021269D03*
X023494Y020481D03*
X023494Y019694D03*
X023494Y018907D03*
X023494Y023631D03*
X023494Y024419D03*
X023494Y025206D03*
X023494Y025993D03*
X032156Y025993D03*
X032156Y025206D03*
X032156Y024419D03*
X032156Y023631D03*
X032156Y022844D03*
X032156Y022056D03*
X032156Y021269D03*
X032156Y020481D03*
X032156Y019694D03*
X032156Y018907D03*
X009656Y018907D03*
X009656Y019694D03*
X009656Y020481D03*
X009656Y021269D03*
X009656Y022056D03*
X009656Y022844D03*
X009656Y023631D03*
X009656Y024419D03*
X009656Y025206D03*
X009656Y025993D03*
X000994Y025993D03*
X000994Y025206D03*
X000994Y024419D03*
X000994Y023631D03*
X000994Y022844D03*
X000994Y022056D03*
X000994Y021269D03*
X000994Y020481D03*
X000994Y019694D03*
X000994Y018907D03*
D12*
X007275Y005854D03*
D13*
X009165Y004732D03*
X007275Y003394D03*
D14*
X007545Y007850D02*
X008205Y007850D01*
X008205Y008850D02*
X007545Y008850D01*
X007545Y009850D02*
X008205Y009850D01*
D15*
X009575Y012400D03*
X009375Y012725D03*
X010625Y013150D03*
X010875Y013400D03*
X011125Y013150D03*
X010875Y014150D03*
X011375Y014150D03*
X011875Y014150D03*
X012625Y013900D03*
X013125Y013900D03*
X013625Y013900D03*
X013825Y013650D03*
X014075Y013400D03*
X014075Y012900D03*
X014075Y012400D03*
X013650Y012275D03*
X014075Y011900D03*
X014075Y010150D03*
X012575Y009900D03*
X012075Y010150D03*
X009475Y013775D03*
X012625Y016150D03*
X013125Y016150D03*
X013625Y016150D03*
X014125Y016150D03*
X016575Y014950D03*
X017075Y014950D03*
X025075Y020700D03*
X012900Y021775D03*
X011800Y022850D03*
X005375Y026275D03*
X004500Y026275D03*
X002775Y021425D03*
D16*
X002879Y001335D02*
X002688Y001225D01*
X032739Y001225D01*
X032390Y001503D01*
X032390Y001503D01*
X032390Y001503D01*
X032113Y001909D01*
X032113Y001909D01*
X031968Y002379D01*
X031968Y002871D01*
X032113Y003341D01*
X032113Y003341D01*
X032390Y003747D01*
X032390Y003747D01*
X032390Y003747D01*
X032775Y004054D01*
X032775Y004054D01*
X033233Y004234D01*
X033233Y004234D01*
X033723Y004270D01*
X033723Y004270D01*
X034203Y004161D01*
X034203Y004161D01*
X034629Y003915D01*
X034629Y003915D01*
X034963Y003554D01*
X034963Y003554D01*
X035177Y003111D01*
X035177Y003111D01*
X035200Y002957D01*
X035200Y026427D01*
X035088Y026196D01*
X035088Y026196D01*
X034754Y025835D01*
X034754Y025835D01*
X034328Y025589D01*
X034328Y025589D01*
X033848Y025480D01*
X033848Y025480D01*
X033358Y025516D01*
X033358Y025516D01*
X032900Y025696D01*
X032900Y025696D01*
X032516Y026003D01*
X032516Y025922D01*
X032461Y025789D01*
X032360Y025688D01*
X032227Y025633D01*
X032084Y025633D01*
X031952Y025688D01*
X031851Y025789D01*
X031796Y025922D01*
X031796Y026065D01*
X031851Y026197D01*
X031952Y026298D01*
X032084Y026353D01*
X032227Y026353D01*
X032296Y026325D01*
X032238Y026409D01*
X032238Y026409D01*
X032093Y026879D01*
X032093Y027371D01*
X032093Y027371D01*
X032238Y027841D01*
X032515Y028247D01*
X032515Y028247D01*
X032900Y028554D01*
X032954Y028575D01*
X003477Y028575D01*
X003754Y028415D01*
X003754Y028415D01*
X004088Y028054D01*
X004088Y028054D01*
X004302Y027611D01*
X004302Y027611D01*
X004375Y027125D01*
X004302Y026639D01*
X004302Y026639D01*
X004088Y026196D01*
X004088Y026196D01*
X003754Y025835D01*
X003754Y025835D01*
X003754Y025835D01*
X003328Y025589D01*
X003328Y025589D01*
X002848Y025480D01*
X002848Y025480D01*
X002358Y025516D01*
X002358Y025516D01*
X001900Y025696D01*
X001900Y025696D01*
X001515Y026003D01*
X001515Y026003D01*
X001515Y026003D01*
X001238Y026409D01*
X001238Y026409D01*
X001093Y026879D01*
X001093Y027371D01*
X001238Y027841D01*
X001238Y027841D01*
X001515Y028247D01*
X001515Y028247D01*
X001515Y028247D01*
X001900Y028554D01*
X001900Y028554D01*
X001954Y028575D01*
X000350Y028575D01*
X000350Y015350D01*
X001733Y015350D01*
X001850Y015233D01*
X001850Y011567D01*
X001733Y011450D01*
X000350Y011450D01*
X000350Y003297D01*
X000363Y003341D01*
X000363Y003341D01*
X000640Y003747D01*
X000640Y003747D01*
X000640Y003747D01*
X001025Y004054D01*
X001025Y004054D01*
X001483Y004234D01*
X001483Y004234D01*
X001973Y004270D01*
X001973Y004270D01*
X002453Y004161D01*
X002453Y004161D01*
X002879Y003915D01*
X002879Y003915D01*
X003213Y003554D01*
X003427Y003111D01*
X003500Y002625D01*
X003500Y002625D01*
X003427Y002139D01*
X003427Y002139D01*
X003213Y001696D01*
X003213Y001696D01*
X002879Y001335D01*
X002879Y001335D01*
X002890Y001348D02*
X032585Y001348D01*
X032462Y001446D02*
X002982Y001446D01*
X003073Y001545D02*
X032362Y001545D01*
X032295Y001643D02*
X021067Y001643D01*
X020898Y001605D02*
X021378Y001714D01*
X021804Y001960D01*
X022138Y002321D01*
X022352Y002764D01*
X022425Y003250D01*
X022352Y003736D01*
X022352Y003736D01*
X022138Y004179D01*
X022138Y004179D01*
X021804Y004540D01*
X021804Y004540D01*
X021468Y004734D01*
X021705Y004971D01*
X021705Y005369D01*
X021424Y005650D01*
X021026Y005650D01*
X020745Y005369D01*
X020745Y004971D01*
X020826Y004890D01*
X020669Y004878D01*
X020745Y004955D01*
X020745Y005120D01*
X020275Y005120D01*
X020275Y005220D01*
X020175Y005220D01*
X020175Y005690D01*
X020010Y005690D01*
X019705Y005385D01*
X019705Y005220D01*
X020175Y005220D01*
X020175Y005120D01*
X019705Y005120D01*
X019705Y004955D01*
X019972Y004688D01*
X019950Y004679D01*
X019565Y004372D01*
X019288Y003966D01*
X019143Y003496D01*
X019143Y003004D01*
X019288Y002534D01*
X019565Y002128D01*
X019565Y002128D01*
X019565Y002128D01*
X019950Y001821D01*
X020408Y001641D01*
X020898Y001605D01*
X020898Y001605D01*
X020408Y001641D02*
X020408Y001641D01*
X020404Y001643D02*
X012017Y001643D01*
X011848Y001605D02*
X012328Y001714D01*
X012754Y001960D01*
X013088Y002321D01*
X013302Y002764D01*
X013375Y003250D01*
X013302Y003736D01*
X013302Y003736D01*
X013088Y004179D01*
X013088Y004179D01*
X012754Y004540D01*
X012754Y004540D01*
X012328Y004786D01*
X012328Y004786D01*
X011848Y004895D01*
X011358Y004859D01*
X010900Y004679D01*
X010515Y004372D01*
X010238Y003966D01*
X010093Y003496D01*
X010093Y003004D01*
X010238Y002534D01*
X010515Y002128D01*
X010515Y002128D01*
X010515Y002128D01*
X010900Y001821D01*
X011358Y001641D01*
X011848Y001605D01*
X011848Y001605D01*
X012328Y001714D02*
X012328Y001714D01*
X012375Y001742D02*
X020153Y001742D01*
X019950Y001821D02*
X019950Y001821D01*
X019926Y001840D02*
X012546Y001840D01*
X012717Y001939D02*
X019803Y001939D01*
X019679Y002037D02*
X012825Y002037D01*
X012754Y001960D02*
X012754Y001960D01*
X012917Y002136D02*
X019560Y002136D01*
X019493Y002234D02*
X013008Y002234D01*
X013088Y002321D02*
X013088Y002321D01*
X013094Y002333D02*
X019426Y002333D01*
X019359Y002431D02*
X013142Y002431D01*
X013189Y002530D02*
X015051Y002530D01*
X014984Y002557D02*
X015130Y002497D01*
X015288Y002497D01*
X015434Y002557D01*
X015545Y002669D01*
X015606Y002815D01*
X015606Y002973D01*
X015545Y003118D01*
X015434Y003230D01*
X015288Y003291D01*
X015130Y003291D01*
X014984Y003230D01*
X014872Y003118D01*
X014812Y002973D01*
X014812Y002815D01*
X014872Y002669D01*
X014984Y002557D01*
X014913Y002628D02*
X013236Y002628D01*
X013284Y002727D02*
X014849Y002727D01*
X014812Y002825D02*
X013311Y002825D01*
X013302Y002764D02*
X013302Y002764D01*
X013326Y002924D02*
X014812Y002924D01*
X014832Y003022D02*
X013341Y003022D01*
X013355Y003121D02*
X014874Y003121D01*
X014973Y003219D02*
X013370Y003219D01*
X013365Y003318D02*
X019143Y003318D01*
X019143Y003416D02*
X013350Y003416D01*
X013335Y003515D02*
X019149Y003515D01*
X019180Y003613D02*
X013320Y003613D01*
X013305Y003712D02*
X019210Y003712D01*
X019240Y003810D02*
X013266Y003810D01*
X013219Y003909D02*
X019271Y003909D01*
X019288Y003966D02*
X019288Y003966D01*
X019316Y004007D02*
X013171Y004007D01*
X013124Y004106D02*
X019384Y004106D01*
X019451Y004204D02*
X013066Y004204D01*
X012974Y004303D02*
X019518Y004303D01*
X019565Y004372D02*
X019565Y004372D01*
X019601Y004401D02*
X012883Y004401D01*
X012791Y004500D02*
X019725Y004500D01*
X019849Y004598D02*
X012653Y004598D01*
X012483Y004697D02*
X019963Y004697D01*
X019950Y004679D02*
X019950Y004679D01*
X019865Y004795D02*
X012288Y004795D01*
X011856Y004894D02*
X019766Y004894D01*
X019705Y004992D02*
X010028Y004992D01*
X010020Y005023D02*
X009975Y005132D01*
X009916Y005234D01*
X009844Y005328D01*
X009760Y005411D01*
X009667Y005483D01*
X009564Y005542D01*
X009455Y005587D01*
X009341Y005618D01*
X009224Y005633D01*
X009215Y005633D01*
X009215Y004782D01*
X010066Y004782D01*
X010066Y004791D01*
X010051Y004908D01*
X010020Y005023D01*
X009992Y005091D02*
X019705Y005091D01*
X019705Y005288D02*
X009875Y005288D01*
X009942Y005189D02*
X020175Y005189D01*
X020175Y005120D02*
X020175Y004767D01*
X020275Y004806D01*
X020275Y005120D01*
X020175Y005120D01*
X020175Y005091D02*
X020275Y005091D01*
X020275Y005189D02*
X020745Y005189D01*
X020745Y005220D02*
X020275Y005220D01*
X020275Y005690D01*
X020440Y005690D01*
X020745Y005385D01*
X020745Y005220D01*
X020745Y005288D02*
X020745Y005288D01*
X020744Y005386D02*
X020762Y005386D01*
X020861Y005485D02*
X020646Y005485D01*
X020547Y005583D02*
X020959Y005583D01*
X021026Y005690D02*
X020745Y005971D01*
X020745Y006369D01*
X021026Y006650D01*
X021424Y006650D01*
X021705Y006369D01*
X021705Y005971D01*
X021424Y005690D01*
X021026Y005690D01*
X020936Y005780D02*
X020514Y005780D01*
X020449Y005682D02*
X035200Y005682D01*
X035200Y005780D02*
X021514Y005780D01*
X021612Y005879D02*
X035200Y005879D01*
X035200Y005977D02*
X021705Y005977D01*
X021705Y006076D02*
X035200Y006076D01*
X035200Y006174D02*
X021705Y006174D01*
X021705Y006273D02*
X035200Y006273D01*
X035200Y006371D02*
X021703Y006371D01*
X021604Y006470D02*
X035200Y006470D01*
X035200Y006568D02*
X021506Y006568D01*
X021424Y006690D02*
X021026Y006690D01*
X020745Y006971D01*
X020745Y007369D01*
X021026Y007650D01*
X021424Y007650D01*
X021705Y007369D01*
X021705Y006971D01*
X021424Y006690D01*
X021499Y006765D02*
X035200Y006765D01*
X035200Y006667D02*
X007770Y006667D01*
X007807Y006651D02*
X007462Y006794D01*
X007088Y006794D01*
X006743Y006651D01*
X006478Y006387D01*
X006335Y006041D01*
X006335Y005667D01*
X006478Y005322D01*
X006743Y005058D01*
X007088Y004914D01*
X007462Y004914D01*
X007807Y005058D01*
X008072Y005322D01*
X008215Y005667D01*
X008215Y006041D01*
X008072Y006387D01*
X007807Y006651D01*
X007891Y006568D02*
X019944Y006568D01*
X020026Y006650D02*
X019745Y006369D01*
X019745Y005971D01*
X020026Y005690D01*
X020424Y005690D01*
X020705Y005971D01*
X020705Y006369D01*
X020424Y006650D01*
X020026Y006650D01*
X020026Y006690D02*
X020424Y006690D01*
X020705Y006971D01*
X020705Y007369D01*
X020424Y007650D01*
X020026Y007650D01*
X019745Y007369D01*
X019745Y006971D01*
X020026Y006690D01*
X019951Y006765D02*
X007533Y006765D01*
X007989Y006470D02*
X019846Y006470D01*
X019747Y006371D02*
X008078Y006371D01*
X008119Y006273D02*
X019745Y006273D01*
X019745Y006174D02*
X008160Y006174D01*
X008201Y006076D02*
X019745Y006076D01*
X019745Y005977D02*
X008215Y005977D01*
X008215Y005879D02*
X019838Y005879D01*
X019936Y005780D02*
X008215Y005780D01*
X008215Y005682D02*
X020001Y005682D01*
X019903Y005583D02*
X009466Y005583D01*
X009664Y005485D02*
X019804Y005485D01*
X019706Y005386D02*
X009785Y005386D01*
X010052Y004894D02*
X011823Y004894D01*
X011848Y004895D02*
X011848Y004895D01*
X011358Y004859D02*
X011358Y004859D01*
X011196Y004795D02*
X010065Y004795D01*
X010066Y004682D02*
X009215Y004682D01*
X009215Y004782D01*
X009115Y004782D01*
X009115Y004682D01*
X009215Y004682D01*
X009215Y003831D01*
X009224Y003831D01*
X009341Y003847D01*
X009455Y003877D01*
X009564Y003922D01*
X009667Y003981D01*
X009760Y004053D01*
X009844Y004137D01*
X009916Y004231D01*
X009975Y004333D01*
X010020Y004442D01*
X010051Y004556D01*
X010066Y004673D01*
X010066Y004682D01*
X010056Y004598D02*
X010799Y004598D01*
X010900Y004679D02*
X010900Y004679D01*
X010945Y004697D02*
X009215Y004697D01*
X009215Y004795D02*
X009115Y004795D01*
X009115Y004782D02*
X009115Y005633D01*
X009106Y005633D01*
X008989Y005618D01*
X008874Y005587D01*
X008765Y005542D01*
X008663Y005483D01*
X008569Y005411D01*
X008486Y005328D01*
X008414Y005234D01*
X008355Y005132D01*
X008310Y005023D01*
X008279Y004908D01*
X008264Y004791D01*
X008264Y004782D01*
X009115Y004782D01*
X009115Y004697D02*
X000350Y004697D01*
X000350Y004795D02*
X008264Y004795D01*
X008277Y004894D02*
X000350Y004894D01*
X000350Y004992D02*
X006901Y004992D01*
X006710Y005091D02*
X000350Y005091D01*
X000350Y005189D02*
X006611Y005189D01*
X006513Y005288D02*
X000350Y005288D01*
X000350Y005386D02*
X006452Y005386D01*
X006411Y005485D02*
X000350Y005485D01*
X000350Y005583D02*
X006370Y005583D01*
X006335Y005682D02*
X000350Y005682D01*
X000350Y005780D02*
X006335Y005780D01*
X006335Y005879D02*
X000350Y005879D01*
X000350Y005977D02*
X006335Y005977D01*
X006349Y006076D02*
X000350Y006076D01*
X000350Y006174D02*
X006390Y006174D01*
X006431Y006273D02*
X000350Y006273D01*
X000350Y006371D02*
X006472Y006371D01*
X006561Y006470D02*
X000350Y006470D01*
X000350Y006568D02*
X006659Y006568D01*
X006780Y006667D02*
X000350Y006667D01*
X000350Y006765D02*
X007017Y006765D01*
X007296Y007477D02*
X007457Y007410D01*
X008293Y007410D01*
X008454Y007477D01*
X008578Y007601D01*
X008645Y007762D01*
X008645Y007938D01*
X008578Y008099D01*
X008454Y008223D01*
X008293Y008290D01*
X007457Y008290D01*
X007296Y008223D01*
X007172Y008099D01*
X007105Y007938D01*
X007105Y007762D01*
X007172Y007601D01*
X007296Y007477D01*
X007350Y007455D02*
X000350Y007455D01*
X000350Y007553D02*
X007220Y007553D01*
X007151Y007652D02*
X000350Y007652D01*
X000350Y007750D02*
X007110Y007750D01*
X007105Y007849D02*
X002294Y007849D01*
X002380Y007872D02*
X002620Y008010D01*
X002815Y008205D01*
X002953Y008445D01*
X003025Y008712D01*
X003025Y008988D01*
X002953Y009255D01*
X002815Y009495D01*
X002620Y009690D01*
X002380Y009828D01*
X002113Y009900D01*
X001837Y009900D01*
X001570Y009828D01*
X001330Y009690D01*
X001135Y009495D01*
X000997Y009255D01*
X000925Y008988D01*
X000925Y008712D01*
X000997Y008445D01*
X001135Y008205D01*
X001330Y008010D01*
X001570Y007872D01*
X001837Y007800D01*
X002113Y007800D01*
X002380Y007872D01*
X002511Y007947D02*
X007109Y007947D01*
X007150Y008046D02*
X002655Y008046D01*
X002754Y008144D02*
X007217Y008144D01*
X007343Y008243D02*
X002837Y008243D01*
X002894Y008341D02*
X019745Y008341D01*
X019745Y008369D02*
X019745Y007971D01*
X020026Y007690D01*
X020424Y007690D01*
X020705Y007971D01*
X020705Y008369D01*
X020424Y008650D01*
X020026Y008650D01*
X019745Y008369D01*
X019816Y008440D02*
X008364Y008440D01*
X008293Y008410D02*
X008454Y008477D01*
X008578Y008601D01*
X008645Y008762D01*
X008645Y008938D01*
X008578Y009099D01*
X008454Y009223D01*
X008293Y009290D01*
X007457Y009290D01*
X007296Y009223D01*
X007172Y009099D01*
X007105Y008938D01*
X007105Y008762D01*
X007172Y008601D01*
X007296Y008477D01*
X007457Y008410D01*
X008293Y008410D01*
X008407Y008243D02*
X019745Y008243D01*
X019745Y008144D02*
X008533Y008144D01*
X008600Y008046D02*
X019745Y008046D01*
X019769Y007947D02*
X008641Y007947D01*
X008645Y007849D02*
X019868Y007849D01*
X019966Y007750D02*
X008640Y007750D01*
X008599Y007652D02*
X021008Y007652D01*
X021010Y007650D02*
X020705Y007955D01*
X020705Y008120D01*
X021175Y008120D01*
X021175Y008220D01*
X021175Y008690D01*
X021010Y008690D01*
X020705Y008385D01*
X020705Y008220D01*
X021175Y008220D01*
X021275Y008220D01*
X021275Y008690D01*
X021440Y008690D01*
X021745Y008385D01*
X021745Y008220D01*
X021275Y008220D01*
X021275Y008120D01*
X021745Y008120D01*
X021745Y007955D01*
X021440Y007650D01*
X021275Y007650D01*
X021275Y008120D01*
X021175Y008120D01*
X021175Y007650D01*
X021010Y007650D01*
X020929Y007553D02*
X020521Y007553D01*
X020619Y007455D02*
X020831Y007455D01*
X020745Y007356D02*
X020705Y007356D01*
X020705Y007258D02*
X020745Y007258D01*
X020745Y007159D02*
X020705Y007159D01*
X020705Y007061D02*
X020745Y007061D01*
X020754Y006962D02*
X020696Y006962D01*
X020597Y006864D02*
X020853Y006864D01*
X020951Y006765D02*
X020499Y006765D01*
X020506Y006568D02*
X020944Y006568D01*
X020846Y006470D02*
X020604Y006470D01*
X020703Y006371D02*
X020747Y006371D01*
X020745Y006273D02*
X020705Y006273D01*
X020705Y006174D02*
X020745Y006174D01*
X020745Y006076D02*
X020705Y006076D01*
X020705Y005977D02*
X020745Y005977D01*
X020838Y005879D02*
X020612Y005879D01*
X020275Y005682D02*
X020175Y005682D01*
X020175Y005583D02*
X020275Y005583D01*
X020275Y005485D02*
X020175Y005485D01*
X020175Y005386D02*
X020275Y005386D01*
X020275Y005288D02*
X020175Y005288D01*
X020175Y004992D02*
X020275Y004992D01*
X020275Y004894D02*
X020175Y004894D01*
X020175Y004795D02*
X020246Y004795D01*
X020684Y004894D02*
X020823Y004894D01*
X020745Y004992D02*
X020745Y004992D01*
X020745Y005091D02*
X020745Y005091D01*
X021529Y004795D02*
X035200Y004795D01*
X035200Y004697D02*
X021533Y004697D01*
X021703Y004598D02*
X035200Y004598D01*
X035200Y004500D02*
X021841Y004500D01*
X021933Y004401D02*
X035200Y004401D01*
X035200Y004303D02*
X022024Y004303D01*
X022116Y004204D02*
X033157Y004204D01*
X032906Y004106D02*
X022174Y004106D01*
X022221Y004007D02*
X032716Y004007D01*
X032593Y003909D02*
X022269Y003909D01*
X022316Y003810D02*
X032469Y003810D01*
X032366Y003712D02*
X022355Y003712D01*
X022370Y003613D02*
X032299Y003613D01*
X032232Y003515D02*
X022385Y003515D01*
X022400Y003416D02*
X032165Y003416D01*
X032106Y003318D02*
X022415Y003318D01*
X022425Y003250D02*
X022425Y003250D01*
X022420Y003219D02*
X032076Y003219D01*
X032045Y003121D02*
X022405Y003121D01*
X022391Y003022D02*
X032015Y003022D01*
X031985Y002924D02*
X022376Y002924D01*
X022361Y002825D02*
X031968Y002825D01*
X031968Y002727D02*
X022334Y002727D01*
X022286Y002628D02*
X031968Y002628D01*
X031968Y002530D02*
X022239Y002530D01*
X022192Y002431D02*
X031968Y002431D01*
X031983Y002333D02*
X022144Y002333D01*
X022058Y002234D02*
X032013Y002234D01*
X032044Y002136D02*
X021967Y002136D01*
X021875Y002037D02*
X032074Y002037D01*
X032104Y001939D02*
X021767Y001939D01*
X021804Y001960D02*
X021804Y001960D01*
X021804Y001960D01*
X021596Y001840D02*
X032160Y001840D01*
X032228Y001742D02*
X021425Y001742D01*
X021378Y001714D02*
X021378Y001714D01*
X019292Y002530D02*
X017099Y002530D01*
X017166Y002557D02*
X017278Y002669D01*
X017338Y002815D01*
X017338Y002973D01*
X017278Y003118D01*
X017166Y003230D01*
X017020Y003291D01*
X016862Y003291D01*
X016716Y003230D01*
X016605Y003118D01*
X016544Y002973D01*
X016544Y002815D01*
X016605Y002669D01*
X016716Y002557D01*
X016862Y002497D01*
X017020Y002497D01*
X017166Y002557D01*
X017237Y002628D02*
X019259Y002628D01*
X019288Y002534D02*
X019288Y002534D01*
X019229Y002727D02*
X017301Y002727D01*
X017338Y002825D02*
X019199Y002825D01*
X019168Y002924D02*
X017338Y002924D01*
X017318Y003022D02*
X019143Y003022D01*
X019143Y003121D02*
X017276Y003121D01*
X017177Y003219D02*
X019143Y003219D01*
X016783Y002530D02*
X015367Y002530D01*
X015504Y002628D02*
X016646Y002628D01*
X016581Y002727D02*
X015569Y002727D01*
X015606Y002825D02*
X016544Y002825D01*
X016544Y002924D02*
X015606Y002924D01*
X015585Y003022D02*
X016565Y003022D01*
X016607Y003121D02*
X015543Y003121D01*
X015445Y003219D02*
X016705Y003219D01*
X019853Y006864D02*
X000350Y006864D01*
X000350Y006962D02*
X019754Y006962D01*
X019745Y007061D02*
X000350Y007061D01*
X000350Y007159D02*
X019745Y007159D01*
X019745Y007258D02*
X000350Y007258D01*
X000350Y007356D02*
X019745Y007356D01*
X019831Y007455D02*
X008400Y007455D01*
X008530Y007553D02*
X019929Y007553D01*
X020484Y007750D02*
X020910Y007750D01*
X020811Y007849D02*
X020582Y007849D01*
X020681Y007947D02*
X020713Y007947D01*
X020705Y008046D02*
X020705Y008046D01*
X020705Y008144D02*
X021175Y008144D01*
X021175Y008046D02*
X021275Y008046D01*
X021275Y008144D02*
X035200Y008144D01*
X035200Y008046D02*
X021745Y008046D01*
X021737Y007947D02*
X035200Y007947D01*
X035200Y007849D02*
X021639Y007849D01*
X021540Y007750D02*
X035200Y007750D01*
X035200Y007652D02*
X021442Y007652D01*
X021521Y007553D02*
X035200Y007553D01*
X035200Y007455D02*
X021619Y007455D01*
X021705Y007356D02*
X035200Y007356D01*
X035200Y007258D02*
X021705Y007258D01*
X021705Y007159D02*
X035200Y007159D01*
X035200Y007061D02*
X021705Y007061D01*
X021696Y006962D02*
X035200Y006962D01*
X035200Y006864D02*
X021597Y006864D01*
X021275Y007652D02*
X021175Y007652D01*
X021175Y007750D02*
X021275Y007750D01*
X021275Y007849D02*
X021175Y007849D01*
X021175Y007947D02*
X021275Y007947D01*
X021275Y008243D02*
X021175Y008243D01*
X021175Y008341D02*
X021275Y008341D01*
X021275Y008440D02*
X021175Y008440D01*
X021175Y008538D02*
X021275Y008538D01*
X021275Y008637D02*
X021175Y008637D01*
X021026Y008690D02*
X021424Y008690D01*
X021705Y008971D01*
X021705Y009369D01*
X021424Y009650D01*
X021026Y009650D01*
X020745Y009369D01*
X020745Y008971D01*
X021026Y008690D01*
X020981Y008735D02*
X020469Y008735D01*
X020424Y008690D02*
X020705Y008971D01*
X020705Y009369D01*
X020424Y009650D01*
X020026Y009650D01*
X019745Y009369D01*
X019745Y008971D01*
X020026Y008690D01*
X020424Y008690D01*
X020437Y008637D02*
X020956Y008637D01*
X020858Y008538D02*
X020536Y008538D01*
X020634Y008440D02*
X020759Y008440D01*
X020705Y008341D02*
X020705Y008341D01*
X020705Y008243D02*
X020705Y008243D01*
X020567Y008834D02*
X020883Y008834D01*
X020784Y008932D02*
X020666Y008932D01*
X020705Y009031D02*
X020745Y009031D01*
X020745Y009129D02*
X020705Y009129D01*
X020705Y009228D02*
X020745Y009228D01*
X020745Y009326D02*
X020705Y009326D01*
X020649Y009425D02*
X020801Y009425D01*
X020899Y009523D02*
X020551Y009523D01*
X020452Y009622D02*
X020998Y009622D01*
X021010Y009650D02*
X020705Y009955D01*
X020705Y010120D01*
X021175Y010120D01*
X021175Y010220D01*
X021175Y010690D01*
X021010Y010690D01*
X020705Y010385D01*
X020705Y010220D01*
X021175Y010220D01*
X021275Y010220D01*
X021275Y010690D01*
X021440Y010690D01*
X021745Y010385D01*
X021745Y010220D01*
X021275Y010220D01*
X021275Y010120D01*
X021745Y010120D01*
X021745Y009955D01*
X021440Y009650D01*
X021275Y009650D01*
X021275Y010120D01*
X021175Y010120D01*
X021175Y009650D01*
X021010Y009650D01*
X020940Y009720D02*
X020454Y009720D01*
X020424Y009690D02*
X020705Y009971D01*
X020705Y010369D01*
X020424Y010650D01*
X020026Y010650D01*
X019745Y010369D01*
X019745Y009971D01*
X020026Y009690D01*
X020424Y009690D01*
X020552Y009819D02*
X020841Y009819D01*
X020743Y009917D02*
X020651Y009917D01*
X020705Y010016D02*
X020705Y010016D01*
X020705Y010114D02*
X020705Y010114D01*
X020705Y010213D02*
X021175Y010213D01*
X021175Y010311D02*
X021275Y010311D01*
X021275Y010213D02*
X035200Y010213D01*
X035200Y010311D02*
X021745Y010311D01*
X021721Y010410D02*
X035200Y010410D01*
X035200Y010508D02*
X021622Y010508D01*
X021524Y010607D02*
X035200Y010607D01*
X035200Y010705D02*
X021439Y010705D01*
X021424Y010690D02*
X021026Y010690D01*
X020745Y010971D01*
X020745Y011369D01*
X021026Y011650D01*
X021424Y011650D01*
X021705Y011369D01*
X021705Y010971D01*
X021424Y010690D01*
X021537Y010804D02*
X035200Y010804D01*
X035200Y010902D02*
X021636Y010902D01*
X021705Y011001D02*
X035200Y011001D01*
X035200Y011099D02*
X021705Y011099D01*
X021705Y011198D02*
X035200Y011198D01*
X035200Y011296D02*
X021705Y011296D01*
X021679Y011395D02*
X035200Y011395D01*
X035200Y011493D02*
X021581Y011493D01*
X021482Y011592D02*
X035200Y011592D01*
X035200Y011690D02*
X021424Y011690D01*
X021705Y011971D01*
X021705Y012369D01*
X021424Y012650D01*
X021026Y012650D01*
X020745Y012369D01*
X020745Y011971D01*
X021026Y011690D01*
X020480Y011690D01*
X020440Y011650D02*
X020745Y011955D01*
X020745Y012120D01*
X020275Y012120D01*
X020275Y012220D01*
X020175Y012220D01*
X020175Y012690D01*
X020010Y012690D01*
X019705Y012385D01*
X019705Y012220D01*
X020175Y012220D01*
X020175Y012120D01*
X019705Y012120D01*
X019705Y011955D01*
X020010Y011650D01*
X020175Y011650D01*
X020175Y012120D01*
X020275Y012120D01*
X020275Y011650D01*
X020440Y011650D01*
X020424Y011650D02*
X020026Y011650D01*
X019745Y011369D01*
X019745Y010971D01*
X020026Y010690D01*
X020424Y010690D01*
X020705Y010971D01*
X020705Y011369D01*
X020424Y011650D01*
X020482Y011592D02*
X020968Y011592D01*
X021026Y011690D02*
X021424Y011690D01*
X021522Y011789D02*
X035200Y011789D01*
X035200Y011887D02*
X021621Y011887D01*
X021705Y011986D02*
X035200Y011986D01*
X035200Y012084D02*
X021705Y012084D01*
X021705Y012183D02*
X035200Y012183D01*
X035200Y012281D02*
X021705Y012281D01*
X021694Y012380D02*
X035200Y012380D01*
X035200Y012478D02*
X021596Y012478D01*
X021497Y012577D02*
X035200Y012577D01*
X035200Y012675D02*
X020455Y012675D01*
X020440Y012690D02*
X020275Y012690D01*
X020275Y012220D01*
X020745Y012220D01*
X020745Y012385D01*
X020440Y012690D01*
X020424Y012690D02*
X020705Y012971D01*
X020705Y013369D01*
X020424Y013650D01*
X020026Y013650D01*
X019745Y013369D01*
X019745Y012971D01*
X020026Y012690D01*
X020424Y012690D01*
X020507Y012774D02*
X020943Y012774D01*
X021026Y012690D02*
X020745Y012971D01*
X020745Y013369D01*
X021026Y013650D01*
X021424Y013650D01*
X021705Y013369D01*
X021705Y012971D01*
X021424Y012690D01*
X021026Y012690D01*
X020953Y012577D02*
X020554Y012577D01*
X020652Y012478D02*
X020854Y012478D01*
X020756Y012380D02*
X020745Y012380D01*
X020745Y012281D02*
X020745Y012281D01*
X020745Y012183D02*
X020275Y012183D01*
X020275Y012281D02*
X020175Y012281D01*
X020175Y012183D02*
X013888Y012183D01*
X013905Y012224D02*
X013905Y012326D01*
X013866Y012419D01*
X013794Y012491D01*
X013701Y012530D01*
X013664Y012530D01*
X012229Y013965D01*
X009646Y013965D01*
X009619Y013991D01*
X009526Y014030D01*
X009424Y014030D01*
X009331Y013991D01*
X009259Y013919D01*
X009220Y013826D01*
X009220Y013724D01*
X009259Y013631D01*
X009331Y013559D01*
X009424Y013520D01*
X009526Y013520D01*
X009619Y013559D01*
X009646Y013585D01*
X012071Y013585D01*
X013395Y012261D01*
X013395Y012224D01*
X013434Y012131D01*
X013506Y012059D01*
X013599Y012020D01*
X013701Y012020D01*
X013794Y012059D01*
X013866Y012131D01*
X013905Y012224D01*
X013905Y012281D02*
X019705Y012281D01*
X019705Y012380D02*
X013883Y012380D01*
X013808Y012478D02*
X019798Y012478D01*
X019896Y012577D02*
X013617Y012577D01*
X013519Y012675D02*
X019995Y012675D01*
X019943Y012774D02*
X013420Y012774D01*
X013322Y012872D02*
X019844Y012872D01*
X019746Y012971D02*
X013223Y012971D01*
X013125Y013069D02*
X019745Y013069D01*
X019745Y013168D02*
X013026Y013168D01*
X012928Y013266D02*
X019745Y013266D01*
X019745Y013365D02*
X012829Y013365D01*
X012731Y013463D02*
X019839Y013463D01*
X019938Y013562D02*
X012632Y013562D01*
X012534Y013660D02*
X035200Y013660D01*
X035200Y013562D02*
X021512Y013562D01*
X021611Y013463D02*
X035200Y013463D01*
X035200Y013365D02*
X021705Y013365D01*
X021705Y013266D02*
X035200Y013266D01*
X035200Y013168D02*
X021705Y013168D01*
X021705Y013069D02*
X035200Y013069D01*
X035200Y012971D02*
X021704Y012971D01*
X021606Y012872D02*
X035200Y012872D01*
X035200Y012774D02*
X021507Y012774D01*
X020844Y012872D02*
X020606Y012872D01*
X020704Y012971D02*
X020746Y012971D01*
X020745Y013069D02*
X020705Y013069D01*
X020705Y013168D02*
X020745Y013168D01*
X020745Y013266D02*
X020705Y013266D01*
X020705Y013365D02*
X020745Y013365D01*
X020839Y013463D02*
X020611Y013463D01*
X020512Y013562D02*
X020938Y013562D01*
X021026Y013690D02*
X021424Y013690D01*
X021705Y013971D01*
X021705Y014369D01*
X021569Y014505D01*
X022120Y014505D01*
X025145Y017530D01*
X025245Y017630D01*
X025245Y020509D01*
X025291Y020556D01*
X025330Y020649D01*
X025330Y020751D01*
X025291Y020844D01*
X025219Y020916D01*
X025126Y020955D01*
X025024Y020955D01*
X024931Y020916D01*
X024859Y020844D01*
X024820Y020751D01*
X024820Y020649D01*
X024859Y020556D01*
X024905Y020509D01*
X024905Y017770D01*
X021980Y014845D01*
X021635Y014845D01*
X021745Y014955D01*
X021745Y015120D01*
X021275Y015120D01*
X021275Y015220D01*
X021175Y015220D01*
X021175Y015690D01*
X021010Y015690D01*
X020705Y015385D01*
X020705Y015220D01*
X021175Y015220D01*
X021175Y015120D01*
X020705Y015120D01*
X020705Y014955D01*
X020815Y014845D01*
X020579Y014845D01*
X020705Y014971D01*
X020705Y015369D01*
X020424Y015650D01*
X020026Y015650D01*
X019745Y015369D01*
X019745Y014971D01*
X019871Y014845D01*
X017420Y014845D01*
X017330Y014935D01*
X017330Y015001D01*
X017291Y015094D01*
X017219Y015166D01*
X017126Y015205D01*
X017024Y015205D01*
X016931Y015166D01*
X016859Y015094D01*
X016825Y015013D01*
X016791Y015094D01*
X016719Y015166D01*
X016626Y015205D01*
X016589Y015205D01*
X013379Y018415D01*
X009579Y018415D01*
X009115Y018879D01*
X009115Y019679D01*
X009004Y019790D01*
X007179Y021615D01*
X002946Y021615D01*
X002919Y021641D01*
X002826Y021680D01*
X002724Y021680D01*
X002631Y021641D01*
X002559Y021569D01*
X002520Y021476D01*
X002520Y021374D01*
X002559Y021281D01*
X002631Y021209D01*
X002724Y021170D01*
X002826Y021170D01*
X002919Y021209D01*
X002946Y021235D01*
X007021Y021235D01*
X008735Y019521D01*
X008735Y018721D01*
X009310Y018146D01*
X009421Y018035D01*
X013221Y018035D01*
X016320Y014936D01*
X016320Y014899D01*
X016359Y014806D01*
X016431Y014734D01*
X016524Y014695D01*
X016626Y014695D01*
X016719Y014734D01*
X016791Y014806D01*
X016825Y014887D01*
X016859Y014806D01*
X016931Y014734D01*
X017024Y014695D01*
X017090Y014695D01*
X017180Y014605D01*
X017280Y014505D01*
X019881Y014505D01*
X019745Y014369D01*
X019745Y013971D01*
X020026Y013690D01*
X020424Y013690D01*
X020705Y013971D01*
X020705Y014369D01*
X020569Y014505D01*
X020881Y014505D01*
X020745Y014369D01*
X020745Y013971D01*
X021026Y013690D01*
X020958Y013759D02*
X020492Y013759D01*
X020591Y013857D02*
X020859Y013857D01*
X020761Y013956D02*
X020689Y013956D01*
X020705Y014054D02*
X020745Y014054D01*
X020745Y014153D02*
X020705Y014153D01*
X020705Y014251D02*
X020745Y014251D01*
X020745Y014350D02*
X020705Y014350D01*
X020626Y014448D02*
X020824Y014448D01*
X020719Y014941D02*
X020674Y014941D01*
X020705Y015039D02*
X020705Y015039D01*
X020705Y015138D02*
X021175Y015138D01*
X021175Y015120D02*
X021175Y014845D01*
X021275Y014845D01*
X021275Y015120D01*
X021175Y015120D01*
X021175Y015039D02*
X021275Y015039D01*
X021275Y014941D02*
X021175Y014941D01*
X021275Y015138D02*
X022272Y015138D01*
X022371Y015236D02*
X021745Y015236D01*
X021745Y015220D02*
X021745Y015385D01*
X021440Y015690D01*
X021275Y015690D01*
X021275Y015220D01*
X021745Y015220D01*
X021745Y015335D02*
X022469Y015335D01*
X022568Y015433D02*
X021697Y015433D01*
X021599Y015532D02*
X022666Y015532D01*
X022765Y015630D02*
X021500Y015630D01*
X021424Y015690D02*
X021705Y015971D01*
X021705Y016369D01*
X021424Y016650D01*
X021026Y016650D01*
X020745Y016369D01*
X020745Y015971D01*
X021026Y015690D01*
X021424Y015690D01*
X021462Y015729D02*
X022863Y015729D01*
X022962Y015827D02*
X021561Y015827D01*
X021659Y015926D02*
X023060Y015926D01*
X023159Y016024D02*
X021705Y016024D01*
X021705Y016123D02*
X023257Y016123D01*
X023356Y016221D02*
X021705Y016221D01*
X021705Y016320D02*
X023454Y016320D01*
X023553Y016418D02*
X021656Y016418D01*
X021557Y016517D02*
X023651Y016517D01*
X023750Y016615D02*
X021459Y016615D01*
X021424Y016690D02*
X021705Y016971D01*
X021705Y017369D01*
X021424Y017650D01*
X021026Y017650D01*
X020745Y017369D01*
X020745Y016971D01*
X021026Y016690D01*
X021424Y016690D01*
X021447Y016714D02*
X023848Y016714D01*
X023947Y016812D02*
X021546Y016812D01*
X021644Y016911D02*
X024045Y016911D01*
X024144Y017009D02*
X021705Y017009D01*
X021705Y017108D02*
X024242Y017108D01*
X024341Y017206D02*
X021705Y017206D01*
X021705Y017305D02*
X024439Y017305D01*
X024538Y017403D02*
X021671Y017403D01*
X021572Y017502D02*
X024636Y017502D01*
X024735Y017600D02*
X021474Y017600D01*
X021440Y017650D02*
X021275Y017650D01*
X021275Y018120D01*
X021275Y018220D01*
X021175Y018220D01*
X021175Y018690D01*
X021010Y018690D01*
X020705Y018385D01*
X020705Y018220D01*
X021175Y018220D01*
X021175Y018120D01*
X020705Y018120D01*
X020705Y017955D01*
X021010Y017650D01*
X021175Y017650D01*
X021175Y018120D01*
X021275Y018120D01*
X021745Y018120D01*
X021745Y017955D01*
X021440Y017650D01*
X021489Y017699D02*
X024833Y017699D01*
X024905Y017797D02*
X021587Y017797D01*
X021686Y017896D02*
X024905Y017896D01*
X024905Y017994D02*
X021745Y017994D01*
X021745Y018093D02*
X024905Y018093D01*
X024905Y018191D02*
X021275Y018191D01*
X021275Y018220D02*
X021745Y018220D01*
X021745Y018385D01*
X021440Y018690D01*
X021275Y018690D01*
X021275Y018220D01*
X021275Y018290D02*
X021175Y018290D01*
X021175Y018388D02*
X021275Y018388D01*
X021275Y018487D02*
X021175Y018487D01*
X021175Y018585D02*
X021275Y018585D01*
X021275Y018684D02*
X021175Y018684D01*
X021026Y018690D02*
X021424Y018690D01*
X021705Y018971D01*
X021705Y019369D01*
X021424Y019650D01*
X021026Y019650D01*
X020745Y019369D01*
X020745Y018971D01*
X021026Y018690D01*
X021003Y018684D02*
X009942Y018684D01*
X009961Y018703D02*
X009860Y018601D01*
X009727Y018547D01*
X009584Y018547D01*
X009452Y018601D01*
X009351Y018703D01*
X009296Y018835D01*
X009296Y018978D01*
X009351Y019111D01*
X009452Y019212D01*
X009584Y019267D01*
X009727Y019267D01*
X009860Y019212D01*
X009961Y019111D01*
X010016Y018978D01*
X010016Y018835D01*
X009961Y018703D01*
X009994Y018782D02*
X019934Y018782D01*
X020026Y018690D02*
X020424Y018690D01*
X020705Y018971D01*
X020705Y019369D01*
X020424Y019650D01*
X020026Y019650D01*
X019745Y019369D01*
X019745Y018971D01*
X020026Y018690D01*
X020026Y018650D02*
X019745Y018369D01*
X019745Y017971D01*
X020026Y017690D01*
X020424Y017690D01*
X020705Y017971D01*
X020705Y018369D01*
X020424Y018650D01*
X020026Y018650D01*
X019961Y018585D02*
X009820Y018585D01*
X009507Y018487D02*
X019863Y018487D01*
X019764Y018388D02*
X013406Y018388D01*
X013504Y018290D02*
X019745Y018290D01*
X019745Y018191D02*
X013603Y018191D01*
X013701Y018093D02*
X019745Y018093D01*
X019745Y017994D02*
X013800Y017994D01*
X013898Y017896D02*
X019821Y017896D01*
X019919Y017797D02*
X013997Y017797D01*
X014095Y017699D02*
X020018Y017699D01*
X020026Y017650D02*
X019745Y017369D01*
X019745Y016971D01*
X020026Y016690D01*
X020424Y016690D01*
X020705Y016971D01*
X020705Y017369D01*
X020424Y017650D01*
X020026Y017650D01*
X019976Y017600D02*
X014194Y017600D01*
X014292Y017502D02*
X019878Y017502D01*
X019779Y017403D02*
X014391Y017403D01*
X014489Y017305D02*
X019745Y017305D01*
X019745Y017206D02*
X014588Y017206D01*
X014686Y017108D02*
X019745Y017108D01*
X019745Y017009D02*
X014785Y017009D01*
X014883Y016911D02*
X019806Y016911D01*
X019904Y016812D02*
X014982Y016812D01*
X015080Y016714D02*
X020003Y016714D01*
X020026Y016650D02*
X019745Y016369D01*
X019745Y015971D01*
X020026Y015690D01*
X020424Y015690D01*
X020705Y015971D01*
X020705Y016369D01*
X020424Y016650D01*
X020026Y016650D01*
X019991Y016615D02*
X015179Y016615D01*
X015277Y016517D02*
X019893Y016517D01*
X019794Y016418D02*
X015376Y016418D01*
X015474Y016320D02*
X019745Y016320D01*
X019745Y016221D02*
X015573Y016221D01*
X015671Y016123D02*
X019745Y016123D01*
X019745Y016024D02*
X015770Y016024D01*
X015868Y015926D02*
X019791Y015926D01*
X019889Y015827D02*
X015967Y015827D01*
X016065Y015729D02*
X019988Y015729D01*
X020006Y015630D02*
X016164Y015630D01*
X016262Y015532D02*
X019908Y015532D01*
X019809Y015433D02*
X016361Y015433D01*
X016459Y015335D02*
X019745Y015335D01*
X019745Y015236D02*
X016558Y015236D01*
X016748Y015138D02*
X016902Y015138D01*
X016836Y015039D02*
X016814Y015039D01*
X016806Y014842D02*
X016844Y014842D01*
X016921Y014744D02*
X016729Y014744D01*
X016421Y014744D02*
X001850Y014744D01*
X001850Y014842D02*
X016344Y014842D01*
X016316Y014941D02*
X001850Y014941D01*
X001850Y015039D02*
X016217Y015039D01*
X016119Y015138D02*
X001850Y015138D01*
X001847Y015236D02*
X016020Y015236D01*
X015922Y015335D02*
X001748Y015335D01*
X001850Y014645D02*
X017140Y014645D01*
X017238Y014547D02*
X001850Y014547D01*
X001850Y014448D02*
X019824Y014448D01*
X019745Y014350D02*
X001850Y014350D01*
X001850Y014251D02*
X019745Y014251D01*
X019745Y014153D02*
X001850Y014153D01*
X001850Y014054D02*
X019745Y014054D01*
X019761Y013956D02*
X012238Y013956D01*
X012337Y013857D02*
X019859Y013857D01*
X019958Y013759D02*
X012435Y013759D01*
X012193Y013463D02*
X001850Y013463D01*
X001850Y013365D02*
X012292Y013365D01*
X012390Y013266D02*
X001850Y013266D01*
X001850Y013168D02*
X012489Y013168D01*
X012587Y013069D02*
X001850Y013069D01*
X001850Y012971D02*
X012686Y012971D01*
X012784Y012872D02*
X001850Y012872D01*
X001850Y012774D02*
X012883Y012774D01*
X012981Y012675D02*
X001850Y012675D01*
X001850Y012577D02*
X013080Y012577D01*
X013178Y012478D02*
X001850Y012478D01*
X001850Y012380D02*
X013277Y012380D01*
X013375Y012281D02*
X001850Y012281D01*
X001850Y012183D02*
X013412Y012183D01*
X013480Y012084D02*
X001850Y012084D01*
X001850Y011986D02*
X019705Y011986D01*
X019705Y012084D02*
X013820Y012084D01*
X012095Y013562D02*
X009622Y013562D01*
X009328Y013562D02*
X001850Y013562D01*
X001850Y013660D02*
X009247Y013660D01*
X009220Y013759D02*
X001850Y013759D01*
X001850Y013857D02*
X009233Y013857D01*
X009295Y013956D02*
X001850Y013956D01*
X000350Y015433D02*
X015823Y015433D01*
X015725Y015532D02*
X000350Y015532D01*
X000350Y015630D02*
X015626Y015630D01*
X015528Y015729D02*
X000350Y015729D01*
X000350Y015827D02*
X015429Y015827D01*
X015331Y015926D02*
X000350Y015926D01*
X000350Y016024D02*
X015232Y016024D01*
X015134Y016123D02*
X000350Y016123D01*
X000350Y016221D02*
X015035Y016221D01*
X014937Y016320D02*
X000350Y016320D01*
X000350Y016418D02*
X014838Y016418D01*
X014740Y016517D02*
X000350Y016517D01*
X000350Y016615D02*
X014641Y016615D01*
X014543Y016714D02*
X000350Y016714D01*
X000350Y016812D02*
X014444Y016812D01*
X014346Y016911D02*
X000350Y016911D01*
X000350Y017009D02*
X014247Y017009D01*
X014149Y017108D02*
X000350Y017108D01*
X000350Y017206D02*
X014050Y017206D01*
X013952Y017305D02*
X000350Y017305D01*
X000350Y017403D02*
X013853Y017403D01*
X013755Y017502D02*
X000350Y017502D01*
X000350Y017600D02*
X013656Y017600D01*
X013558Y017699D02*
X000350Y017699D01*
X000350Y017797D02*
X013459Y017797D01*
X013361Y017896D02*
X000350Y017896D01*
X000350Y017994D02*
X013262Y017994D01*
X010016Y018881D02*
X019836Y018881D01*
X019745Y018979D02*
X010015Y018979D01*
X009975Y019078D02*
X019745Y019078D01*
X019745Y019176D02*
X009895Y019176D01*
X009821Y019373D02*
X019749Y019373D01*
X019745Y019275D02*
X009115Y019275D01*
X009115Y019373D02*
X009490Y019373D01*
X009452Y019389D02*
X009584Y019334D01*
X009727Y019334D01*
X009860Y019389D01*
X009961Y019490D01*
X010016Y019622D01*
X010016Y019766D01*
X009961Y019898D01*
X009860Y019999D01*
X009727Y020054D01*
X009584Y020054D01*
X009452Y019999D01*
X009351Y019898D01*
X009296Y019766D01*
X009296Y019622D01*
X009351Y019490D01*
X009452Y019389D01*
X009369Y019472D02*
X009115Y019472D01*
X009115Y019570D02*
X009317Y019570D01*
X009296Y019669D02*
X009115Y019669D01*
X009027Y019767D02*
X009296Y019767D01*
X009337Y019866D02*
X008928Y019866D01*
X008830Y019964D02*
X009417Y019964D01*
X009489Y020161D02*
X008633Y020161D01*
X008731Y020063D02*
X019705Y020063D01*
X019705Y020120D02*
X019705Y019955D01*
X020010Y019650D01*
X020175Y019650D01*
X020175Y020120D01*
X019705Y020120D01*
X019705Y020220D02*
X020175Y020220D01*
X020175Y020690D01*
X020010Y020690D01*
X019705Y020385D01*
X019705Y020220D01*
X019705Y020260D02*
X009943Y020260D01*
X009961Y020278D02*
X009860Y020176D01*
X009727Y020121D01*
X009584Y020121D01*
X009452Y020176D01*
X009351Y020278D01*
X009296Y020410D01*
X009296Y020553D01*
X009351Y020685D01*
X009452Y020787D01*
X009584Y020841D01*
X009727Y020841D01*
X009860Y020787D01*
X009961Y020685D01*
X010016Y020553D01*
X010016Y020410D01*
X009961Y020278D01*
X009994Y020358D02*
X019705Y020358D01*
X019776Y020457D02*
X010016Y020457D01*
X010015Y020555D02*
X019875Y020555D01*
X019973Y020654D02*
X009974Y020654D01*
X009894Y020752D02*
X019964Y020752D01*
X020026Y020690D02*
X020424Y020690D01*
X020705Y020971D01*
X020705Y021369D01*
X020424Y021650D01*
X020026Y021650D01*
X019745Y021369D01*
X019745Y020971D01*
X020026Y020690D01*
X020175Y020654D02*
X020275Y020654D01*
X020275Y020690D02*
X020275Y020220D01*
X020175Y020220D01*
X020175Y020120D01*
X020275Y020120D01*
X020275Y020220D01*
X020745Y020220D01*
X020745Y020385D01*
X020440Y020690D01*
X020275Y020690D01*
X020275Y020555D02*
X020175Y020555D01*
X020175Y020457D02*
X020275Y020457D01*
X020275Y020358D02*
X020175Y020358D01*
X020175Y020260D02*
X020275Y020260D01*
X020275Y020161D02*
X020745Y020161D01*
X020745Y020120D02*
X020275Y020120D01*
X020275Y019650D01*
X020440Y019650D01*
X020745Y019955D01*
X020745Y020120D01*
X020745Y020063D02*
X020745Y020063D01*
X020745Y019971D02*
X021026Y019690D01*
X021424Y019690D01*
X021705Y019971D01*
X021705Y020369D01*
X021696Y020378D01*
X022362Y021000D01*
X022365Y021000D01*
X022413Y021048D01*
X022463Y021094D01*
X022463Y021097D01*
X022895Y021530D01*
X022995Y021630D01*
X022995Y024466D01*
X023389Y024860D01*
X023423Y024846D01*
X023566Y024846D01*
X023698Y024901D01*
X023799Y025002D01*
X023854Y025134D01*
X023854Y025278D01*
X023799Y025410D01*
X023698Y025511D01*
X023566Y025566D01*
X023423Y025566D01*
X023290Y025511D01*
X023189Y025410D01*
X023134Y025278D01*
X023134Y025134D01*
X023148Y025100D01*
X022655Y024607D01*
X022655Y021770D01*
X022177Y021292D01*
X021456Y020618D01*
X021424Y020650D01*
X021026Y020650D01*
X020745Y020369D01*
X020745Y019971D01*
X020745Y019964D02*
X020752Y019964D01*
X020656Y019866D02*
X020851Y019866D01*
X020949Y019767D02*
X020557Y019767D01*
X020459Y019669D02*
X023134Y019669D01*
X023134Y019622D02*
X023134Y019766D01*
X023189Y019898D01*
X023290Y019999D01*
X023423Y020054D01*
X023566Y020054D01*
X023698Y019999D01*
X023799Y019898D01*
X023854Y019766D01*
X023854Y019622D01*
X023799Y019490D01*
X023698Y019389D01*
X023566Y019334D01*
X023423Y019334D01*
X023290Y019389D01*
X023189Y019490D01*
X023134Y019622D01*
X023156Y019570D02*
X021504Y019570D01*
X021602Y019472D02*
X023208Y019472D01*
X023329Y019373D02*
X021701Y019373D01*
X021705Y019275D02*
X023337Y019275D01*
X023305Y019261D02*
X023239Y019217D01*
X023184Y019162D01*
X023140Y019096D01*
X023110Y019023D01*
X023094Y018946D01*
X023094Y018935D01*
X023466Y018935D01*
X023466Y018878D01*
X023523Y018878D01*
X023523Y018935D01*
X023894Y018935D01*
X023894Y018946D01*
X023879Y019023D01*
X023849Y019096D01*
X023805Y019162D01*
X023749Y019217D01*
X023684Y019261D01*
X023611Y019291D01*
X023534Y019307D01*
X023523Y019307D01*
X023523Y018935D01*
X023466Y018935D01*
X023466Y019307D01*
X023455Y019307D01*
X023378Y019291D01*
X023305Y019261D01*
X023198Y019176D02*
X021705Y019176D01*
X021705Y019078D02*
X023132Y019078D01*
X023101Y018979D02*
X021705Y018979D01*
X021614Y018881D02*
X023466Y018881D01*
X023466Y018878D02*
X023094Y018878D01*
X023094Y018867D01*
X023110Y018790D01*
X023140Y018717D01*
X023184Y018652D01*
X023239Y018596D01*
X023305Y018552D01*
X023378Y018522D01*
X023455Y018507D01*
X023466Y018507D01*
X023466Y018878D01*
X023523Y018878D02*
X023523Y018507D01*
X023534Y018507D01*
X023611Y018522D01*
X023684Y018552D01*
X023749Y018596D01*
X023805Y018652D01*
X023849Y018717D01*
X023879Y018790D01*
X023894Y018867D01*
X023894Y018878D01*
X023523Y018878D01*
X023523Y018881D02*
X024905Y018881D01*
X024905Y018979D02*
X023888Y018979D01*
X023856Y019078D02*
X024905Y019078D01*
X024905Y019176D02*
X023791Y019176D01*
X023651Y019275D02*
X024905Y019275D01*
X024905Y019373D02*
X023660Y019373D01*
X023781Y019472D02*
X024905Y019472D01*
X024905Y019570D02*
X023833Y019570D01*
X023854Y019669D02*
X024905Y019669D01*
X024905Y019767D02*
X023854Y019767D01*
X023813Y019866D02*
X024905Y019866D01*
X024905Y019964D02*
X023733Y019964D01*
X023661Y020161D02*
X024905Y020161D01*
X024905Y020063D02*
X021705Y020063D01*
X021705Y020161D02*
X023327Y020161D01*
X023290Y020176D02*
X023423Y020121D01*
X023566Y020121D01*
X023698Y020176D01*
X023799Y020278D01*
X023854Y020410D01*
X023854Y020553D01*
X023799Y020685D01*
X023698Y020787D01*
X023566Y020841D01*
X023423Y020841D01*
X023290Y020787D01*
X023189Y020685D01*
X023134Y020553D01*
X023134Y020410D01*
X023189Y020278D01*
X023290Y020176D01*
X023207Y020260D02*
X021705Y020260D01*
X021705Y020358D02*
X023156Y020358D01*
X023134Y020457D02*
X021781Y020457D01*
X021886Y020555D02*
X023135Y020555D01*
X023176Y020654D02*
X021991Y020654D01*
X022097Y020752D02*
X023256Y020752D01*
X023326Y020949D02*
X022308Y020949D01*
X022413Y021048D02*
X023207Y021048D01*
X023189Y021065D02*
X023290Y020964D01*
X023423Y020909D01*
X023566Y020909D01*
X023698Y020964D01*
X023799Y021065D01*
X023854Y021197D01*
X023854Y021341D01*
X023799Y021473D01*
X023698Y021574D01*
X023566Y021629D01*
X023423Y021629D01*
X023290Y021574D01*
X023189Y021473D01*
X023134Y021341D01*
X023134Y021197D01*
X023189Y021065D01*
X023156Y021146D02*
X022511Y021146D01*
X022610Y021245D02*
X023134Y021245D01*
X023135Y021343D02*
X022708Y021343D01*
X022807Y021442D02*
X023176Y021442D01*
X023256Y021540D02*
X022905Y021540D01*
X022995Y021639D02*
X035200Y021639D01*
X035200Y021737D02*
X032326Y021737D01*
X032360Y021751D02*
X032227Y021696D01*
X032084Y021696D01*
X031952Y021751D01*
X031851Y021852D01*
X031796Y021985D01*
X031796Y022128D01*
X031851Y022260D01*
X031952Y022361D01*
X032084Y022416D01*
X032227Y022416D01*
X032360Y022361D01*
X032461Y022260D01*
X032516Y022128D01*
X032516Y021985D01*
X032461Y021852D01*
X032360Y021751D01*
X032444Y021836D02*
X035200Y021836D01*
X035200Y021934D02*
X032495Y021934D01*
X032516Y022033D02*
X035200Y022033D01*
X035200Y022131D02*
X032514Y022131D01*
X032474Y022230D02*
X035200Y022230D01*
X035200Y022328D02*
X032393Y022328D01*
X032327Y022525D02*
X035200Y022525D01*
X035200Y022427D02*
X022995Y022427D01*
X022995Y022525D02*
X023323Y022525D01*
X023290Y022539D02*
X023423Y022484D01*
X023566Y022484D01*
X023698Y022539D01*
X023799Y022640D01*
X023854Y022772D01*
X023854Y022915D01*
X023799Y023048D01*
X023698Y023149D01*
X023566Y023204D01*
X023423Y023204D01*
X023290Y023149D01*
X023189Y023048D01*
X023134Y022915D01*
X023134Y022772D01*
X023189Y022640D01*
X023290Y022539D01*
X023205Y022624D02*
X022995Y022624D01*
X022995Y022722D02*
X023155Y022722D01*
X023134Y022821D02*
X022995Y022821D01*
X022995Y022919D02*
X023136Y022919D01*
X023177Y023018D02*
X022995Y023018D01*
X022995Y023116D02*
X023258Y023116D01*
X023321Y023313D02*
X022995Y023313D01*
X022995Y023215D02*
X035200Y023215D01*
X035200Y023313D02*
X032329Y023313D01*
X032360Y023326D02*
X032227Y023271D01*
X032084Y023271D01*
X031952Y023326D01*
X031851Y023427D01*
X031796Y023559D01*
X031796Y023703D01*
X031851Y023835D01*
X031952Y023936D01*
X032084Y023991D01*
X032227Y023991D01*
X032360Y023936D01*
X032461Y023835D01*
X032516Y023703D01*
X032516Y023559D01*
X032461Y023427D01*
X032360Y023326D01*
X032445Y023412D02*
X035200Y023412D01*
X035200Y023510D02*
X032495Y023510D01*
X032516Y023609D02*
X035200Y023609D01*
X035200Y023707D02*
X032514Y023707D01*
X032473Y023806D02*
X035200Y023806D01*
X035200Y023904D02*
X032392Y023904D01*
X032330Y024101D02*
X035200Y024101D01*
X035200Y024003D02*
X022995Y024003D01*
X022995Y024101D02*
X023320Y024101D01*
X023290Y024113D02*
X023423Y024059D01*
X023566Y024059D01*
X023698Y024113D01*
X023799Y024215D01*
X023854Y024347D01*
X023854Y024490D01*
X023799Y024622D01*
X023698Y024724D01*
X023566Y024779D01*
X023423Y024779D01*
X023290Y024724D01*
X023189Y024622D01*
X023134Y024490D01*
X023134Y024347D01*
X023189Y024215D01*
X023290Y024113D01*
X023204Y024200D02*
X022995Y024200D01*
X022995Y024298D02*
X023155Y024298D01*
X023134Y024397D02*
X022995Y024397D01*
X023024Y024495D02*
X023136Y024495D01*
X023122Y024594D02*
X023177Y024594D01*
X023221Y024692D02*
X023259Y024692D01*
X023319Y024791D02*
X035200Y024791D01*
X035200Y024889D02*
X032332Y024889D01*
X032360Y024901D02*
X032227Y024846D01*
X032084Y024846D01*
X031952Y024901D01*
X031851Y025002D01*
X031796Y025134D01*
X031796Y025278D01*
X031851Y025410D01*
X031952Y025511D01*
X032084Y025566D01*
X032227Y025566D01*
X032360Y025511D01*
X032461Y025410D01*
X032516Y025278D01*
X032516Y025134D01*
X032461Y025002D01*
X032360Y024901D01*
X032446Y024988D02*
X035200Y024988D01*
X035200Y025086D02*
X032496Y025086D01*
X032516Y025185D02*
X035200Y025185D01*
X035200Y025283D02*
X032513Y025283D01*
X032473Y025382D02*
X035200Y025382D01*
X035200Y025480D02*
X033850Y025480D01*
X033842Y025480D02*
X032391Y025480D01*
X032333Y025677D02*
X032948Y025677D01*
X032800Y025776D02*
X032447Y025776D01*
X032496Y025874D02*
X032677Y025874D01*
X032553Y025973D02*
X032516Y025973D01*
X032267Y026367D02*
X021885Y026367D01*
X021870Y026465D02*
X032221Y026465D01*
X032191Y026564D02*
X021855Y026564D01*
X021852Y026586D02*
X021852Y026586D01*
X021925Y026100D01*
X021852Y025614D01*
X021852Y025614D01*
X021638Y025171D01*
X021638Y025171D01*
X021304Y024810D01*
X021304Y024810D01*
X021304Y024810D01*
X021027Y024650D01*
X021424Y024650D01*
X021705Y024369D01*
X021705Y023971D01*
X021424Y023690D01*
X021395Y023690D01*
X021395Y023650D01*
X021424Y023650D01*
X021705Y023369D01*
X021705Y022971D01*
X021424Y022690D01*
X021026Y022690D01*
X021006Y022710D01*
X020788Y022493D01*
X020581Y022493D01*
X020705Y022369D01*
X020705Y021971D01*
X020424Y021690D01*
X020026Y021690D01*
X019745Y021971D01*
X019745Y022369D01*
X019796Y022420D01*
X019620Y022420D01*
X018496Y021296D01*
X018496Y021206D01*
X018444Y021079D01*
X018346Y020981D01*
X018219Y020929D01*
X018081Y020929D01*
X017954Y020981D01*
X017856Y021079D01*
X017804Y021206D01*
X017804Y021344D01*
X017856Y021471D01*
X017954Y021569D01*
X018081Y021621D01*
X018171Y021621D01*
X019430Y022880D01*
X019836Y022880D01*
X019745Y022971D01*
X019745Y023369D01*
X020026Y023650D01*
X020424Y023650D01*
X020705Y023369D01*
X020705Y022971D01*
X020566Y022832D01*
X020647Y022832D01*
X020765Y022951D01*
X020745Y022971D01*
X020745Y023369D01*
X021026Y023650D01*
X021055Y023650D01*
X021055Y023690D01*
X021026Y023690D01*
X020745Y023971D01*
X020745Y024369D01*
X021026Y024649D01*
X020878Y024564D01*
X020878Y024564D01*
X020578Y024496D01*
X020705Y024369D01*
X020705Y023971D01*
X020424Y023690D01*
X020026Y023690D01*
X019745Y023971D01*
X019745Y024369D01*
X019879Y024503D01*
X019450Y024671D01*
X019450Y024671D01*
X019065Y024978D01*
X019065Y024978D01*
X019065Y024978D01*
X018788Y025384D01*
X018788Y025384D01*
X018643Y025854D01*
X018643Y026346D01*
X018788Y026816D01*
X018788Y026816D01*
X019065Y027222D01*
X019065Y027222D01*
X019065Y027222D01*
X019450Y027529D01*
X019450Y027529D01*
X019908Y027709D01*
X019908Y027709D01*
X020398Y027745D01*
X020398Y027745D01*
X020878Y027636D01*
X020878Y027636D01*
X021304Y027390D01*
X021304Y027390D01*
X021638Y027029D01*
X021638Y027029D01*
X021852Y026586D01*
X021815Y026662D02*
X032160Y026662D01*
X032130Y026761D02*
X021768Y026761D01*
X021720Y026859D02*
X032100Y026859D01*
X032093Y026958D02*
X021673Y026958D01*
X021614Y027056D02*
X032093Y027056D01*
X032093Y027155D02*
X021522Y027155D01*
X021431Y027253D02*
X032093Y027253D01*
X032093Y027352D02*
X021339Y027352D01*
X021200Y027450D02*
X032118Y027450D01*
X032148Y027549D02*
X021029Y027549D01*
X020829Y027647D02*
X032179Y027647D01*
X032209Y027746D02*
X004237Y027746D01*
X004190Y027844D02*
X032241Y027844D01*
X032308Y027943D02*
X004142Y027943D01*
X004095Y028041D02*
X032375Y028041D01*
X032442Y028140D02*
X004009Y028140D01*
X003918Y028238D02*
X032509Y028238D01*
X032627Y028337D02*
X003827Y028337D01*
X003719Y028435D02*
X032751Y028435D01*
X032874Y028534D02*
X003548Y028534D01*
X004284Y027647D02*
X011328Y027647D01*
X011358Y027659D02*
X010900Y027479D01*
X010515Y027172D01*
X010238Y026766D01*
X010093Y026296D01*
X010093Y025804D01*
X010238Y025334D01*
X010515Y024928D01*
X010515Y024928D01*
X010900Y024621D01*
X011358Y024441D01*
X011848Y024405D01*
X011848Y024405D01*
X012328Y024514D01*
X012754Y024760D01*
X013088Y025121D01*
X013302Y025564D01*
X013375Y026050D01*
X013302Y026536D01*
X013302Y026536D01*
X013088Y026979D01*
X013088Y026979D01*
X012754Y027340D01*
X012754Y027340D01*
X012328Y027586D01*
X012328Y027586D01*
X011848Y027695D01*
X011358Y027659D01*
X011358Y027659D01*
X011077Y027549D02*
X004311Y027549D01*
X004326Y027450D02*
X010864Y027450D01*
X010900Y027479D02*
X010900Y027479D01*
X010740Y027352D02*
X004341Y027352D01*
X004356Y027253D02*
X010617Y027253D01*
X010515Y027172D02*
X010515Y027172D01*
X010503Y027155D02*
X004371Y027155D01*
X004365Y027056D02*
X010436Y027056D01*
X010369Y026958D02*
X004350Y026958D01*
X004335Y026859D02*
X010302Y026859D01*
X010238Y026766D02*
X010238Y026766D01*
X010237Y026761D02*
X004320Y026761D01*
X004305Y026662D02*
X010206Y026662D01*
X010176Y026564D02*
X004266Y026564D01*
X004218Y026465D02*
X010146Y026465D01*
X010115Y026367D02*
X004171Y026367D01*
X004123Y026268D02*
X009421Y026268D01*
X009452Y026298D02*
X009351Y026197D01*
X009296Y026065D01*
X009296Y025922D01*
X009351Y025789D01*
X009452Y025688D01*
X009584Y025633D01*
X009727Y025633D01*
X009860Y025688D01*
X009961Y025789D01*
X010016Y025922D01*
X010016Y026065D01*
X009961Y026197D01*
X009860Y026298D01*
X009727Y026353D01*
X009584Y026353D01*
X009452Y026298D01*
X009339Y026170D02*
X004064Y026170D01*
X003973Y026071D02*
X009298Y026071D01*
X009296Y025973D02*
X003881Y025973D01*
X003790Y025874D02*
X009315Y025874D01*
X009364Y025776D02*
X003651Y025776D01*
X003480Y025677D02*
X009478Y025677D01*
X009584Y025566D02*
X009452Y025511D01*
X009351Y025410D01*
X009296Y025278D01*
X009296Y025134D01*
X009351Y025002D01*
X009452Y024901D01*
X009584Y024846D01*
X009727Y024846D01*
X009860Y024901D01*
X009961Y025002D01*
X010016Y025134D01*
X010016Y025278D01*
X009961Y025410D01*
X009860Y025511D01*
X009727Y025566D01*
X009584Y025566D01*
X009421Y025480D02*
X002850Y025480D01*
X002842Y025480D02*
X001229Y025480D01*
X001198Y025511D02*
X001066Y025566D01*
X000923Y025566D01*
X000790Y025511D01*
X000689Y025410D01*
X000634Y025278D01*
X000634Y025134D01*
X000689Y025002D01*
X000790Y024901D01*
X000923Y024846D01*
X001066Y024846D01*
X001198Y024901D01*
X001299Y025002D01*
X001354Y025134D01*
X001354Y025278D01*
X001299Y025410D01*
X001198Y025511D01*
X001172Y025677D02*
X001948Y025677D01*
X001800Y025776D02*
X001286Y025776D01*
X001299Y025789D02*
X001354Y025922D01*
X001354Y026065D01*
X001299Y026197D01*
X001198Y026298D01*
X001066Y026353D01*
X000923Y026353D01*
X000790Y026298D01*
X000689Y026197D01*
X000634Y026065D01*
X000634Y025922D01*
X000689Y025789D01*
X000790Y025688D01*
X000923Y025633D01*
X001066Y025633D01*
X001198Y025688D01*
X001299Y025789D01*
X001335Y025874D02*
X001677Y025874D01*
X001553Y025973D02*
X001354Y025973D01*
X001352Y026071D02*
X001469Y026071D01*
X001402Y026170D02*
X001311Y026170D01*
X001335Y026268D02*
X001229Y026268D01*
X001267Y026367D02*
X000350Y026367D01*
X000350Y026465D02*
X001221Y026465D01*
X001191Y026564D02*
X000350Y026564D01*
X000350Y026662D02*
X001160Y026662D01*
X001130Y026761D02*
X000350Y026761D01*
X000350Y026859D02*
X001100Y026859D01*
X001093Y026958D02*
X000350Y026958D01*
X000350Y027056D02*
X001093Y027056D01*
X001093Y027155D02*
X000350Y027155D01*
X000350Y027253D02*
X001093Y027253D01*
X001093Y027352D02*
X000350Y027352D01*
X000350Y027450D02*
X001118Y027450D01*
X001148Y027549D02*
X000350Y027549D01*
X000350Y027647D02*
X001179Y027647D01*
X001209Y027746D02*
X000350Y027746D01*
X000350Y027844D02*
X001241Y027844D01*
X001308Y027943D02*
X000350Y027943D01*
X000350Y028041D02*
X001375Y028041D01*
X001442Y028140D02*
X000350Y028140D01*
X000350Y028238D02*
X001509Y028238D01*
X001627Y028337D02*
X000350Y028337D01*
X000350Y028435D02*
X001751Y028435D01*
X001874Y028534D02*
X000350Y028534D01*
X000350Y026268D02*
X000760Y026268D01*
X000678Y026170D02*
X000350Y026170D01*
X000350Y026071D02*
X000637Y026071D01*
X000634Y025973D02*
X000350Y025973D01*
X000350Y025874D02*
X000654Y025874D01*
X000703Y025776D02*
X000350Y025776D01*
X000350Y025677D02*
X000817Y025677D01*
X000759Y025480D02*
X000350Y025480D01*
X000350Y025382D02*
X000677Y025382D01*
X000637Y025283D02*
X000350Y025283D01*
X000350Y025185D02*
X000634Y025185D01*
X000654Y025086D02*
X000350Y025086D01*
X000350Y024988D02*
X000704Y024988D01*
X000818Y024889D02*
X000350Y024889D01*
X000350Y024791D02*
X010687Y024791D01*
X010564Y024889D02*
X009832Y024889D01*
X009946Y024988D02*
X010475Y024988D01*
X010408Y025086D02*
X009996Y025086D01*
X010016Y025185D02*
X010340Y025185D01*
X010273Y025283D02*
X010013Y025283D01*
X009973Y025382D02*
X010224Y025382D01*
X010193Y025480D02*
X009891Y025480D01*
X009833Y025677D02*
X010133Y025677D01*
X010163Y025579D02*
X003282Y025579D01*
X002199Y025579D02*
X000350Y025579D01*
X000350Y024692D02*
X000759Y024692D01*
X000790Y024724D02*
X000689Y024622D01*
X000634Y024490D01*
X000634Y024347D01*
X000689Y024215D01*
X000790Y024113D01*
X000923Y024059D01*
X001066Y024059D01*
X001198Y024113D01*
X001299Y024215D01*
X001354Y024347D01*
X001354Y024490D01*
X001299Y024622D01*
X001198Y024724D01*
X001066Y024779D01*
X000923Y024779D01*
X000790Y024724D01*
X000677Y024594D02*
X000350Y024594D01*
X000350Y024495D02*
X000636Y024495D01*
X000634Y024397D02*
X000350Y024397D01*
X000350Y024298D02*
X000655Y024298D01*
X000704Y024200D02*
X000350Y024200D01*
X000350Y024101D02*
X000820Y024101D01*
X000923Y023991D02*
X000790Y023936D01*
X000689Y023835D01*
X000634Y023703D01*
X000634Y023559D01*
X000689Y023427D01*
X000790Y023326D01*
X000923Y023271D01*
X001066Y023271D01*
X001198Y023326D01*
X001299Y023427D01*
X001354Y023559D01*
X001354Y023703D01*
X001299Y023835D01*
X001198Y023936D01*
X001066Y023991D01*
X000923Y023991D01*
X000758Y023904D02*
X000350Y023904D01*
X000350Y023806D02*
X000677Y023806D01*
X000636Y023707D02*
X000350Y023707D01*
X000350Y023609D02*
X000634Y023609D01*
X000655Y023510D02*
X000350Y023510D01*
X000350Y023412D02*
X000705Y023412D01*
X000821Y023313D02*
X000350Y023313D01*
X000350Y023215D02*
X019745Y023215D01*
X019745Y023313D02*
X009829Y023313D01*
X009860Y023326D02*
X009961Y023427D01*
X010016Y023559D01*
X010016Y023703D01*
X009961Y023835D01*
X009860Y023936D01*
X009727Y023991D01*
X009584Y023991D01*
X009452Y023936D01*
X009351Y023835D01*
X009296Y023703D01*
X009296Y023559D01*
X009351Y023427D01*
X009452Y023326D01*
X009584Y023271D01*
X009727Y023271D01*
X009860Y023326D01*
X009945Y023412D02*
X019788Y023412D01*
X019886Y023510D02*
X009995Y023510D01*
X010016Y023609D02*
X019985Y023609D01*
X020009Y023707D02*
X010014Y023707D01*
X009973Y023806D02*
X019911Y023806D01*
X019812Y023904D02*
X009892Y023904D01*
X009830Y024101D02*
X019745Y024101D01*
X019745Y024003D02*
X000350Y024003D01*
X000790Y023149D02*
X000689Y023048D01*
X000634Y022915D01*
X000634Y022772D01*
X000689Y022640D01*
X000790Y022539D01*
X000923Y022484D01*
X001066Y022484D01*
X001198Y022539D01*
X001299Y022640D01*
X001354Y022772D01*
X001354Y022915D01*
X001299Y023048D01*
X001198Y023149D01*
X001066Y023204D01*
X000923Y023204D01*
X000790Y023149D01*
X000758Y023116D02*
X000350Y023116D01*
X000350Y023018D02*
X000677Y023018D01*
X000636Y022919D02*
X000350Y022919D01*
X000350Y022821D02*
X000634Y022821D01*
X000655Y022722D02*
X000350Y022722D01*
X000350Y022624D02*
X000705Y022624D01*
X000823Y022525D02*
X000350Y022525D01*
X000350Y022427D02*
X011983Y022427D01*
X011885Y022525D02*
X009827Y022525D01*
X009860Y022539D02*
X009961Y022640D01*
X010016Y022772D01*
X010016Y022915D01*
X009961Y023048D01*
X009860Y023149D01*
X009727Y023204D01*
X009584Y023204D01*
X009452Y023149D01*
X009351Y023048D01*
X009296Y022915D01*
X009296Y022772D01*
X009351Y022640D01*
X009452Y022539D01*
X009584Y022484D01*
X009727Y022484D01*
X009860Y022539D01*
X009945Y022624D02*
X011680Y022624D01*
X011656Y022634D02*
X011749Y022595D01*
X011815Y022595D01*
X012645Y021765D01*
X012645Y021724D01*
X012684Y021631D01*
X012756Y021559D01*
X012849Y021520D01*
X012951Y021520D01*
X013044Y021559D01*
X013116Y021631D01*
X013155Y021724D01*
X013155Y021826D01*
X013116Y021919D01*
X013044Y021991D01*
X012951Y022030D01*
X012860Y022030D01*
X012055Y022835D01*
X012055Y022901D01*
X012016Y022994D01*
X011944Y023066D01*
X011851Y023105D01*
X011749Y023105D01*
X011656Y023066D01*
X011584Y022994D01*
X011545Y022901D01*
X011545Y022799D01*
X011584Y022706D01*
X011656Y022634D01*
X011577Y022722D02*
X009995Y022722D01*
X010016Y022821D02*
X011545Y022821D01*
X011553Y022919D02*
X010014Y022919D01*
X009973Y023018D02*
X011607Y023018D01*
X011993Y023018D02*
X019745Y023018D01*
X019745Y023116D02*
X009892Y023116D01*
X009483Y023313D02*
X001167Y023313D01*
X001284Y023412D02*
X009366Y023412D01*
X009316Y023510D02*
X001334Y023510D01*
X001354Y023609D02*
X009296Y023609D01*
X009298Y023707D02*
X001352Y023707D01*
X001312Y023806D02*
X009338Y023806D01*
X009420Y023904D02*
X001230Y023904D01*
X001169Y024101D02*
X009481Y024101D01*
X009452Y024113D02*
X009584Y024059D01*
X009727Y024059D01*
X009860Y024113D01*
X009961Y024215D01*
X010016Y024347D01*
X010016Y024490D01*
X009961Y024622D01*
X009860Y024724D01*
X009727Y024779D01*
X009584Y024779D01*
X009452Y024724D01*
X009351Y024622D01*
X009296Y024490D01*
X009296Y024347D01*
X009351Y024215D01*
X009452Y024113D01*
X009366Y024200D02*
X001284Y024200D01*
X001334Y024298D02*
X009316Y024298D01*
X009296Y024397D02*
X001354Y024397D01*
X001352Y024495D02*
X009298Y024495D01*
X009339Y024594D02*
X001311Y024594D01*
X001230Y024692D02*
X009420Y024692D01*
X009480Y024889D02*
X001170Y024889D01*
X001285Y024988D02*
X009365Y024988D01*
X009316Y025086D02*
X001334Y025086D01*
X001354Y025185D02*
X009296Y025185D01*
X009298Y025283D02*
X001352Y025283D01*
X001311Y025382D02*
X009339Y025382D01*
X009947Y025776D02*
X010102Y025776D01*
X010093Y025874D02*
X009996Y025874D01*
X010016Y025973D02*
X010093Y025973D01*
X010093Y026071D02*
X010013Y026071D01*
X009972Y026170D02*
X010093Y026170D01*
X010093Y026268D02*
X009890Y026268D01*
X009891Y024692D02*
X010811Y024692D01*
X010900Y024621D02*
X010900Y024621D01*
X010970Y024594D02*
X009973Y024594D01*
X010014Y024495D02*
X011221Y024495D01*
X011358Y024441D02*
X011358Y024441D01*
X012245Y024495D02*
X019871Y024495D01*
X019773Y024397D02*
X010016Y024397D01*
X009995Y024298D02*
X019745Y024298D01*
X019745Y024200D02*
X009946Y024200D01*
X009419Y023116D02*
X001231Y023116D01*
X001312Y023018D02*
X009338Y023018D01*
X009297Y022919D02*
X001353Y022919D01*
X001354Y022821D02*
X009296Y022821D01*
X009316Y022722D02*
X001334Y022722D01*
X001283Y022624D02*
X009367Y022624D01*
X009484Y022525D02*
X001166Y022525D01*
X001066Y022416D02*
X001198Y022361D01*
X001299Y022260D01*
X001354Y022128D01*
X001354Y021985D01*
X001299Y021852D01*
X001198Y021751D01*
X001066Y021696D01*
X000923Y021696D01*
X000790Y021751D01*
X000689Y021852D01*
X000634Y021985D01*
X000634Y022128D01*
X000689Y022260D01*
X000790Y022361D01*
X000923Y022416D01*
X001066Y022416D01*
X001232Y022328D02*
X009418Y022328D01*
X009452Y022361D02*
X009351Y022260D01*
X009296Y022128D01*
X009296Y021985D01*
X009351Y021852D01*
X009452Y021751D01*
X009584Y021696D01*
X009727Y021696D01*
X009860Y021751D01*
X009961Y021852D01*
X010016Y021985D01*
X010016Y022128D01*
X009961Y022260D01*
X009860Y022361D01*
X009727Y022416D01*
X009584Y022416D01*
X009452Y022361D01*
X009338Y022230D02*
X001312Y022230D01*
X001353Y022131D02*
X009297Y022131D01*
X009296Y022033D02*
X001354Y022033D01*
X001333Y021934D02*
X009317Y021934D01*
X009367Y021836D02*
X001283Y021836D01*
X001164Y021737D02*
X009486Y021737D01*
X009584Y021629D02*
X009452Y021574D01*
X009351Y021473D01*
X009296Y021341D01*
X009296Y021197D01*
X009351Y021065D01*
X009452Y020964D01*
X009584Y020909D01*
X009727Y020909D01*
X009860Y020964D01*
X009961Y021065D01*
X010016Y021197D01*
X010016Y021341D01*
X009961Y021473D01*
X009860Y021574D01*
X009727Y021629D01*
X009584Y021629D01*
X009418Y021540D02*
X007254Y021540D01*
X007352Y021442D02*
X009338Y021442D01*
X009297Y021343D02*
X007451Y021343D01*
X007549Y021245D02*
X009296Y021245D01*
X009317Y021146D02*
X007648Y021146D01*
X007746Y021048D02*
X009368Y021048D01*
X009487Y020949D02*
X007845Y020949D01*
X007943Y020851D02*
X019866Y020851D01*
X019767Y020949D02*
X018268Y020949D01*
X018412Y021048D02*
X019745Y021048D01*
X019745Y021146D02*
X018471Y021146D01*
X018496Y021245D02*
X019745Y021245D01*
X019745Y021343D02*
X018543Y021343D01*
X018642Y021442D02*
X019818Y021442D01*
X019916Y021540D02*
X018740Y021540D01*
X018839Y021639D02*
X020015Y021639D01*
X019979Y021737D02*
X018937Y021737D01*
X019036Y021836D02*
X019881Y021836D01*
X019782Y021934D02*
X019134Y021934D01*
X019233Y022033D02*
X019745Y022033D01*
X019745Y022131D02*
X019331Y022131D01*
X019430Y022230D02*
X019745Y022230D01*
X019745Y022328D02*
X019528Y022328D01*
X019173Y022624D02*
X012267Y022624D01*
X012168Y022722D02*
X019272Y022722D01*
X019370Y022821D02*
X012070Y022821D01*
X012047Y022919D02*
X019797Y022919D01*
X019075Y022525D02*
X012365Y022525D01*
X012464Y022427D02*
X018976Y022427D01*
X018878Y022328D02*
X012562Y022328D01*
X012661Y022230D02*
X018779Y022230D01*
X018681Y022131D02*
X012759Y022131D01*
X012858Y022033D02*
X018582Y022033D01*
X018484Y021934D02*
X013102Y021934D01*
X013151Y021836D02*
X018385Y021836D01*
X018287Y021737D02*
X013155Y021737D01*
X013119Y021639D02*
X018188Y021639D01*
X017925Y021540D02*
X012999Y021540D01*
X012801Y021540D02*
X009894Y021540D01*
X009974Y021442D02*
X017844Y021442D01*
X017804Y021343D02*
X010015Y021343D01*
X010016Y021245D02*
X017804Y021245D01*
X017829Y021146D02*
X009994Y021146D01*
X009943Y021048D02*
X017888Y021048D01*
X018032Y020949D02*
X009824Y020949D01*
X009417Y020752D02*
X008042Y020752D01*
X008140Y020654D02*
X009337Y020654D01*
X009297Y020555D02*
X008239Y020555D01*
X008337Y020457D02*
X009296Y020457D01*
X009317Y020358D02*
X008436Y020358D01*
X008534Y020260D02*
X009369Y020260D01*
X009823Y020161D02*
X020175Y020161D01*
X020175Y020063D02*
X020275Y020063D01*
X020275Y019964D02*
X020175Y019964D01*
X020175Y019866D02*
X020275Y019866D01*
X020275Y019767D02*
X020175Y019767D01*
X020175Y019669D02*
X020275Y019669D01*
X020504Y019570D02*
X020946Y019570D01*
X020848Y019472D02*
X020602Y019472D01*
X020701Y019373D02*
X020749Y019373D01*
X020745Y019275D02*
X020705Y019275D01*
X020705Y019176D02*
X020745Y019176D01*
X020745Y019078D02*
X020705Y019078D01*
X020705Y018979D02*
X020745Y018979D01*
X020836Y018881D02*
X020614Y018881D01*
X020516Y018782D02*
X020934Y018782D01*
X020905Y018585D02*
X020489Y018585D01*
X020587Y018487D02*
X020806Y018487D01*
X020708Y018388D02*
X020686Y018388D01*
X020705Y018290D02*
X020705Y018290D01*
X020705Y018191D02*
X021175Y018191D01*
X021175Y018093D02*
X021275Y018093D01*
X021275Y017994D02*
X021175Y017994D01*
X021175Y017896D02*
X021275Y017896D01*
X021275Y017797D02*
X021175Y017797D01*
X021175Y017699D02*
X021275Y017699D01*
X020961Y017699D02*
X020432Y017699D01*
X020474Y017600D02*
X020976Y017600D01*
X020878Y017502D02*
X020572Y017502D01*
X020671Y017403D02*
X020779Y017403D01*
X020745Y017305D02*
X020705Y017305D01*
X020705Y017206D02*
X020745Y017206D01*
X020745Y017108D02*
X020705Y017108D01*
X020705Y017009D02*
X020745Y017009D01*
X020806Y016911D02*
X020644Y016911D01*
X020546Y016812D02*
X020904Y016812D01*
X021003Y016714D02*
X020447Y016714D01*
X020459Y016615D02*
X020991Y016615D01*
X020893Y016517D02*
X020557Y016517D01*
X020656Y016418D02*
X020794Y016418D01*
X020745Y016320D02*
X020705Y016320D01*
X020705Y016221D02*
X020745Y016221D01*
X020745Y016123D02*
X020705Y016123D01*
X020705Y016024D02*
X020745Y016024D01*
X020791Y015926D02*
X020659Y015926D01*
X020561Y015827D02*
X020889Y015827D01*
X020988Y015729D02*
X020462Y015729D01*
X020444Y015630D02*
X020950Y015630D01*
X020851Y015532D02*
X020542Y015532D01*
X020641Y015433D02*
X020753Y015433D01*
X020705Y015335D02*
X020705Y015335D01*
X020705Y015236D02*
X020705Y015236D01*
X021175Y015236D02*
X021275Y015236D01*
X021275Y015335D02*
X021175Y015335D01*
X021175Y015433D02*
X021275Y015433D01*
X021275Y015532D02*
X021175Y015532D01*
X021175Y015630D02*
X021275Y015630D01*
X021745Y015039D02*
X022174Y015039D01*
X022075Y014941D02*
X021731Y014941D01*
X022162Y014547D02*
X035200Y014547D01*
X035200Y014645D02*
X022260Y014645D01*
X022359Y014744D02*
X035200Y014744D01*
X035200Y014842D02*
X022457Y014842D01*
X022556Y014941D02*
X035200Y014941D01*
X035200Y015039D02*
X022654Y015039D01*
X022753Y015138D02*
X035200Y015138D01*
X035200Y015236D02*
X022851Y015236D01*
X022950Y015335D02*
X035200Y015335D01*
X035200Y015433D02*
X023048Y015433D01*
X023147Y015532D02*
X035200Y015532D01*
X035200Y015630D02*
X023245Y015630D01*
X023344Y015729D02*
X035200Y015729D01*
X035200Y015827D02*
X023442Y015827D01*
X023541Y015926D02*
X035200Y015926D01*
X035200Y016024D02*
X023639Y016024D01*
X023738Y016123D02*
X035200Y016123D01*
X035200Y016221D02*
X023836Y016221D01*
X023935Y016320D02*
X035200Y016320D01*
X035200Y016418D02*
X024033Y016418D01*
X024132Y016517D02*
X035200Y016517D01*
X035200Y016615D02*
X024230Y016615D01*
X024329Y016714D02*
X035200Y016714D01*
X035200Y016812D02*
X024427Y016812D01*
X024526Y016911D02*
X035200Y016911D01*
X035200Y017009D02*
X024624Y017009D01*
X024723Y017108D02*
X035200Y017108D01*
X035200Y017206D02*
X024821Y017206D01*
X024920Y017305D02*
X035200Y017305D01*
X035200Y017403D02*
X025018Y017403D01*
X025117Y017502D02*
X035200Y017502D01*
X035200Y017600D02*
X025215Y017600D01*
X025245Y017699D02*
X035200Y017699D01*
X035200Y017797D02*
X025245Y017797D01*
X025245Y017896D02*
X035200Y017896D01*
X035200Y017994D02*
X025245Y017994D01*
X025245Y018093D02*
X035200Y018093D01*
X035200Y018191D02*
X025245Y018191D01*
X025245Y018290D02*
X035200Y018290D01*
X035200Y018388D02*
X025245Y018388D01*
X025245Y018487D02*
X035200Y018487D01*
X035200Y018585D02*
X032320Y018585D01*
X032360Y018601D02*
X032227Y018547D01*
X032084Y018547D01*
X031952Y018601D01*
X031851Y018703D01*
X031796Y018835D01*
X031796Y018978D01*
X031851Y019111D01*
X031952Y019212D01*
X032084Y019267D01*
X032227Y019267D01*
X032360Y019212D01*
X032461Y019111D01*
X032516Y018978D01*
X032516Y018835D01*
X032461Y018703D01*
X032360Y018601D01*
X032442Y018684D02*
X035200Y018684D01*
X035200Y018782D02*
X032494Y018782D01*
X032516Y018881D02*
X035200Y018881D01*
X035200Y018979D02*
X032515Y018979D01*
X032475Y019078D02*
X035200Y019078D01*
X035200Y019176D02*
X032395Y019176D01*
X032321Y019373D02*
X035200Y019373D01*
X035200Y019275D02*
X025245Y019275D01*
X025245Y019373D02*
X031990Y019373D01*
X031952Y019389D02*
X032084Y019334D01*
X032227Y019334D01*
X032360Y019389D01*
X032461Y019490D01*
X032516Y019622D01*
X032516Y019766D01*
X032461Y019898D01*
X032360Y019999D01*
X032227Y020054D01*
X032084Y020054D01*
X031952Y019999D01*
X031851Y019898D01*
X031796Y019766D01*
X031796Y019622D01*
X031851Y019490D01*
X031952Y019389D01*
X031869Y019472D02*
X025245Y019472D01*
X025245Y019570D02*
X031817Y019570D01*
X031796Y019669D02*
X025245Y019669D01*
X025245Y019767D02*
X031796Y019767D01*
X031837Y019866D02*
X025245Y019866D01*
X025245Y019964D02*
X031917Y019964D01*
X031989Y020161D02*
X025245Y020161D01*
X025245Y020063D02*
X035200Y020063D01*
X035200Y020161D02*
X032323Y020161D01*
X032360Y020176D02*
X032227Y020121D01*
X032084Y020121D01*
X031952Y020176D01*
X031851Y020278D01*
X031796Y020410D01*
X031796Y020553D01*
X031851Y020685D01*
X031952Y020787D01*
X032084Y020841D01*
X032227Y020841D01*
X032360Y020787D01*
X032461Y020685D01*
X032516Y020553D01*
X032516Y020410D01*
X032461Y020278D01*
X032360Y020176D01*
X032443Y020260D02*
X035200Y020260D01*
X035200Y020358D02*
X032494Y020358D01*
X032516Y020457D02*
X035200Y020457D01*
X035200Y020555D02*
X032515Y020555D01*
X032474Y020654D02*
X035200Y020654D01*
X035200Y020752D02*
X032394Y020752D01*
X032324Y020949D02*
X035200Y020949D01*
X035200Y020851D02*
X025285Y020851D01*
X025329Y020752D02*
X031917Y020752D01*
X031837Y020654D02*
X025330Y020654D01*
X025291Y020555D02*
X031797Y020555D01*
X031796Y020457D02*
X025245Y020457D01*
X025245Y020358D02*
X031817Y020358D01*
X031869Y020260D02*
X025245Y020260D01*
X024905Y020260D02*
X023781Y020260D01*
X023833Y020358D02*
X024905Y020358D01*
X024905Y020457D02*
X023854Y020457D01*
X023853Y020555D02*
X024859Y020555D01*
X024820Y020654D02*
X023813Y020654D01*
X023733Y020752D02*
X024821Y020752D01*
X024865Y020851D02*
X022202Y020851D01*
X022020Y021146D02*
X021705Y021146D01*
X021705Y021048D02*
X021915Y021048D01*
X021810Y020949D02*
X021683Y020949D01*
X021705Y020971D02*
X021424Y020690D01*
X021026Y020690D01*
X020745Y020971D01*
X020745Y021369D01*
X021026Y021650D01*
X021424Y021650D01*
X021705Y021369D01*
X021705Y020971D01*
X021704Y020851D02*
X021584Y020851D01*
X021599Y020752D02*
X021486Y020752D01*
X021493Y020654D02*
X020477Y020654D01*
X020486Y020752D02*
X020964Y020752D01*
X020866Y020851D02*
X020584Y020851D01*
X020683Y020949D02*
X020767Y020949D01*
X020745Y021048D02*
X020705Y021048D01*
X020705Y021146D02*
X020745Y021146D01*
X020745Y021245D02*
X020705Y021245D01*
X020705Y021343D02*
X020745Y021343D01*
X020818Y021442D02*
X020632Y021442D01*
X020534Y021540D02*
X020916Y021540D01*
X021015Y021639D02*
X020435Y021639D01*
X020471Y021737D02*
X020923Y021737D01*
X021010Y021650D02*
X020705Y021955D01*
X020705Y022120D01*
X021175Y022120D01*
X021175Y022220D01*
X021175Y022690D01*
X021010Y022690D01*
X020705Y022385D01*
X020705Y022220D01*
X021175Y022220D01*
X021275Y022220D01*
X021275Y022690D01*
X021440Y022690D01*
X021745Y022385D01*
X021745Y022220D01*
X021275Y022220D01*
X021275Y022120D01*
X021745Y022120D01*
X021745Y021955D01*
X021440Y021650D01*
X021275Y021650D01*
X021275Y022120D01*
X021175Y022120D01*
X021175Y021650D01*
X021010Y021650D01*
X021175Y021737D02*
X021275Y021737D01*
X021275Y021836D02*
X021175Y021836D01*
X021175Y021934D02*
X021275Y021934D01*
X021275Y022033D02*
X021175Y022033D01*
X021175Y022131D02*
X020705Y022131D01*
X020705Y022033D02*
X020705Y022033D01*
X020726Y021934D02*
X020668Y021934D01*
X020569Y021836D02*
X020824Y021836D01*
X020705Y022230D02*
X020705Y022230D01*
X020705Y022328D02*
X020705Y022328D01*
X020746Y022427D02*
X020647Y022427D01*
X020820Y022525D02*
X020845Y022525D01*
X020919Y022624D02*
X020943Y022624D01*
X021175Y022624D02*
X021275Y022624D01*
X021275Y022525D02*
X021175Y022525D01*
X021175Y022427D02*
X021275Y022427D01*
X021275Y022328D02*
X021175Y022328D01*
X021175Y022230D02*
X021275Y022230D01*
X021275Y022131D02*
X022655Y022131D01*
X022655Y022033D02*
X021745Y022033D01*
X021724Y021934D02*
X022655Y021934D01*
X022655Y021836D02*
X021626Y021836D01*
X021527Y021737D02*
X022622Y021737D01*
X022523Y021639D02*
X021435Y021639D01*
X021534Y021540D02*
X022425Y021540D01*
X022326Y021442D02*
X021632Y021442D01*
X021705Y021343D02*
X022228Y021343D01*
X022126Y021245D02*
X021705Y021245D01*
X021745Y022230D02*
X022655Y022230D01*
X022655Y022328D02*
X021745Y022328D01*
X021704Y022427D02*
X022655Y022427D01*
X022655Y022525D02*
X021605Y022525D01*
X021507Y022624D02*
X022655Y022624D01*
X022655Y022722D02*
X021456Y022722D01*
X021554Y022821D02*
X022655Y022821D01*
X022655Y022919D02*
X021653Y022919D01*
X021705Y023018D02*
X022655Y023018D01*
X022655Y023116D02*
X021705Y023116D01*
X021705Y023215D02*
X022655Y023215D01*
X022655Y023313D02*
X021705Y023313D01*
X021662Y023412D02*
X022655Y023412D01*
X022655Y023510D02*
X021564Y023510D01*
X021465Y023609D02*
X022655Y023609D01*
X022655Y023707D02*
X021441Y023707D01*
X021539Y023806D02*
X022655Y023806D01*
X022655Y023904D02*
X021638Y023904D01*
X021705Y024003D02*
X022655Y024003D01*
X022655Y024101D02*
X021705Y024101D01*
X021705Y024200D02*
X022655Y024200D01*
X022655Y024298D02*
X021705Y024298D01*
X021677Y024397D02*
X022655Y024397D01*
X022655Y024495D02*
X021579Y024495D01*
X021480Y024594D02*
X022655Y024594D01*
X022740Y024692D02*
X021100Y024692D01*
X020970Y024594D02*
X020929Y024594D01*
X020871Y024495D02*
X020579Y024495D01*
X020677Y024397D02*
X020773Y024397D01*
X020745Y024298D02*
X020705Y024298D01*
X020705Y024200D02*
X020745Y024200D01*
X020745Y024101D02*
X020705Y024101D01*
X020705Y024003D02*
X020745Y024003D01*
X020812Y023904D02*
X020638Y023904D01*
X020539Y023806D02*
X020911Y023806D01*
X021009Y023707D02*
X020441Y023707D01*
X020465Y023609D02*
X020985Y023609D01*
X020886Y023510D02*
X020564Y023510D01*
X020662Y023412D02*
X020788Y023412D01*
X020745Y023313D02*
X020705Y023313D01*
X020705Y023215D02*
X020745Y023215D01*
X020745Y023116D02*
X020705Y023116D01*
X020705Y023018D02*
X020745Y023018D01*
X020734Y022919D02*
X020653Y022919D01*
X019647Y024594D02*
X012466Y024594D01*
X012328Y024514D02*
X012328Y024514D01*
X012636Y024692D02*
X019424Y024692D01*
X019300Y024791D02*
X012782Y024791D01*
X012754Y024760D02*
X012754Y024760D01*
X012874Y024889D02*
X019177Y024889D01*
X019059Y024988D02*
X012965Y024988D01*
X013056Y025086D02*
X018992Y025086D01*
X018924Y025185D02*
X013119Y025185D01*
X013088Y025121D02*
X013088Y025121D01*
X013167Y025283D02*
X018857Y025283D01*
X018790Y025382D02*
X013214Y025382D01*
X013261Y025480D02*
X018759Y025480D01*
X018728Y025579D02*
X013304Y025579D01*
X013302Y025564D02*
X013302Y025564D01*
X013319Y025677D02*
X018698Y025677D01*
X018668Y025776D02*
X013334Y025776D01*
X013348Y025874D02*
X018643Y025874D01*
X018643Y025973D02*
X013363Y025973D01*
X013372Y026071D02*
X018643Y026071D01*
X018643Y026170D02*
X013357Y026170D01*
X013342Y026268D02*
X018643Y026268D01*
X018650Y026367D02*
X013327Y026367D01*
X013312Y026465D02*
X018680Y026465D01*
X018711Y026564D02*
X013289Y026564D01*
X013241Y026662D02*
X018741Y026662D01*
X018771Y026761D02*
X013194Y026761D01*
X013146Y026859D02*
X018818Y026859D01*
X018885Y026958D02*
X013099Y026958D01*
X013017Y027056D02*
X018952Y027056D01*
X019019Y027155D02*
X012926Y027155D01*
X012834Y027253D02*
X019104Y027253D01*
X019228Y027352D02*
X012734Y027352D01*
X012563Y027450D02*
X019351Y027450D01*
X019500Y027549D02*
X012393Y027549D01*
X012060Y027647D02*
X019751Y027647D01*
X021900Y026268D02*
X023260Y026268D01*
X023290Y026298D02*
X023189Y026197D01*
X023134Y026065D01*
X023134Y025922D01*
X023189Y025789D01*
X023290Y025688D01*
X023423Y025633D01*
X023566Y025633D01*
X023698Y025688D01*
X023799Y025789D01*
X023854Y025922D01*
X023854Y026065D01*
X023799Y026197D01*
X023698Y026298D01*
X023566Y026353D01*
X023423Y026353D01*
X023290Y026298D01*
X023178Y026170D02*
X021915Y026170D01*
X021921Y026071D02*
X023137Y026071D01*
X023134Y025973D02*
X021906Y025973D01*
X021891Y025874D02*
X023154Y025874D01*
X023203Y025776D02*
X021876Y025776D01*
X021861Y025677D02*
X023317Y025677D01*
X023259Y025480D02*
X021787Y025480D01*
X021740Y025382D02*
X023177Y025382D01*
X023137Y025283D02*
X021692Y025283D01*
X021645Y025185D02*
X023134Y025185D01*
X023134Y025086D02*
X021560Y025086D01*
X021469Y024988D02*
X023036Y024988D01*
X022937Y024889D02*
X021377Y024889D01*
X021270Y024791D02*
X022839Y024791D01*
X023670Y024889D02*
X031980Y024889D01*
X031865Y024988D02*
X023785Y024988D01*
X023834Y025086D02*
X031816Y025086D01*
X031796Y025185D02*
X023854Y025185D01*
X023852Y025283D02*
X031798Y025283D01*
X031839Y025382D02*
X023811Y025382D01*
X023729Y025480D02*
X031921Y025480D01*
X031978Y025677D02*
X023672Y025677D01*
X023786Y025776D02*
X031864Y025776D01*
X031815Y025874D02*
X023835Y025874D01*
X023854Y025973D02*
X031796Y025973D01*
X031798Y026071D02*
X023852Y026071D01*
X023811Y026170D02*
X031839Y026170D01*
X031921Y026268D02*
X023729Y026268D01*
X023730Y024692D02*
X031920Y024692D01*
X031952Y024724D02*
X031851Y024622D01*
X031796Y024490D01*
X031796Y024347D01*
X031851Y024215D01*
X031952Y024113D01*
X032084Y024059D01*
X032227Y024059D01*
X032360Y024113D01*
X032461Y024215D01*
X032516Y024347D01*
X032516Y024490D01*
X032461Y024622D01*
X032360Y024724D01*
X032227Y024779D01*
X032084Y024779D01*
X031952Y024724D01*
X031839Y024594D02*
X023811Y024594D01*
X023852Y024495D02*
X031798Y024495D01*
X031796Y024397D02*
X023854Y024397D01*
X023834Y024298D02*
X031816Y024298D01*
X031866Y024200D02*
X023784Y024200D01*
X023669Y024101D02*
X031981Y024101D01*
X031920Y023904D02*
X023730Y023904D01*
X023698Y023936D02*
X023566Y023991D01*
X023423Y023991D01*
X023290Y023936D01*
X023189Y023835D01*
X023134Y023703D01*
X023134Y023559D01*
X023189Y023427D01*
X023290Y023326D01*
X023423Y023271D01*
X023566Y023271D01*
X023698Y023326D01*
X023799Y023427D01*
X023854Y023559D01*
X023854Y023703D01*
X023799Y023835D01*
X023698Y023936D01*
X023812Y023806D02*
X031838Y023806D01*
X031798Y023707D02*
X023852Y023707D01*
X023854Y023609D02*
X031796Y023609D01*
X031816Y023510D02*
X023834Y023510D01*
X023784Y023412D02*
X031866Y023412D01*
X031983Y023313D02*
X023667Y023313D01*
X023731Y023116D02*
X031919Y023116D01*
X031952Y023149D02*
X031851Y023048D01*
X031796Y022915D01*
X031796Y022772D01*
X031851Y022640D01*
X031952Y022539D01*
X032084Y022484D01*
X032227Y022484D01*
X032360Y022539D01*
X032461Y022640D01*
X032516Y022772D01*
X032516Y022915D01*
X032461Y023048D01*
X032360Y023149D01*
X032227Y023204D01*
X032084Y023204D01*
X031952Y023149D01*
X031838Y023018D02*
X023812Y023018D01*
X023853Y022919D02*
X031797Y022919D01*
X031796Y022821D02*
X023854Y022821D01*
X023834Y022722D02*
X031816Y022722D01*
X031867Y022624D02*
X023783Y022624D01*
X023666Y022525D02*
X031984Y022525D01*
X031918Y022328D02*
X023732Y022328D01*
X023698Y022361D02*
X023566Y022416D01*
X023423Y022416D01*
X023290Y022361D01*
X023189Y022260D01*
X023134Y022128D01*
X023134Y021985D01*
X023189Y021852D01*
X023290Y021751D01*
X023423Y021696D01*
X023566Y021696D01*
X023698Y021751D01*
X023799Y021852D01*
X023854Y021985D01*
X023854Y022128D01*
X023799Y022260D01*
X023698Y022361D01*
X023812Y022230D02*
X031838Y022230D01*
X031797Y022131D02*
X023853Y022131D01*
X023854Y022033D02*
X031796Y022033D01*
X031817Y021934D02*
X023833Y021934D01*
X023783Y021836D02*
X031867Y021836D01*
X031986Y021737D02*
X023664Y021737D01*
X023732Y021540D02*
X031918Y021540D01*
X031952Y021574D02*
X031851Y021473D01*
X031796Y021341D01*
X031796Y021197D01*
X031851Y021065D01*
X031952Y020964D01*
X032084Y020909D01*
X032227Y020909D01*
X032360Y020964D01*
X032461Y021065D01*
X032516Y021197D01*
X032516Y021341D01*
X032461Y021473D01*
X032360Y021574D01*
X032227Y021629D01*
X032084Y021629D01*
X031952Y021574D01*
X031838Y021442D02*
X023812Y021442D01*
X023853Y021343D02*
X031797Y021343D01*
X031796Y021245D02*
X023854Y021245D01*
X023833Y021146D02*
X031817Y021146D01*
X031868Y021048D02*
X023782Y021048D01*
X023663Y020949D02*
X025010Y020949D01*
X025140Y020949D02*
X031987Y020949D01*
X032443Y021048D02*
X035200Y021048D01*
X035200Y021146D02*
X032494Y021146D01*
X032516Y021245D02*
X035200Y021245D01*
X035200Y021343D02*
X032515Y021343D01*
X032474Y021442D02*
X035200Y021442D01*
X035200Y021540D02*
X032394Y021540D01*
X032445Y022624D02*
X035200Y022624D01*
X035200Y022722D02*
X032495Y022722D01*
X032516Y022821D02*
X035200Y022821D01*
X035200Y022919D02*
X032514Y022919D01*
X032473Y023018D02*
X035200Y023018D01*
X035200Y023116D02*
X032392Y023116D01*
X032446Y024200D02*
X035200Y024200D01*
X035200Y024298D02*
X032495Y024298D01*
X032516Y024397D02*
X035200Y024397D01*
X035200Y024495D02*
X032514Y024495D01*
X032473Y024594D02*
X035200Y024594D01*
X035200Y024692D02*
X032391Y024692D01*
X033199Y025579D02*
X021835Y025579D01*
X022995Y023904D02*
X023258Y023904D01*
X023177Y023806D02*
X022995Y023806D01*
X022995Y023707D02*
X023136Y023707D01*
X023134Y023609D02*
X022995Y023609D01*
X022995Y023510D02*
X023155Y023510D01*
X023205Y023412D02*
X022995Y023412D01*
X022995Y022328D02*
X023257Y022328D01*
X023176Y022230D02*
X022995Y022230D01*
X022995Y022131D02*
X023136Y022131D01*
X023134Y022033D02*
X022995Y022033D01*
X022995Y021934D02*
X023155Y021934D01*
X023206Y021836D02*
X022995Y021836D01*
X022995Y021737D02*
X023324Y021737D01*
X023255Y019964D02*
X021698Y019964D01*
X021599Y019866D02*
X023176Y019866D01*
X023135Y019767D02*
X021501Y019767D01*
X020745Y020260D02*
X020745Y020260D01*
X020745Y020358D02*
X020745Y020358D01*
X020674Y020457D02*
X020833Y020457D01*
X020931Y020555D02*
X020575Y020555D01*
X019705Y019964D02*
X009895Y019964D01*
X009974Y019866D02*
X019794Y019866D01*
X019893Y019767D02*
X010015Y019767D01*
X010016Y019669D02*
X019991Y019669D01*
X019946Y019570D02*
X009994Y019570D01*
X009942Y019472D02*
X019848Y019472D01*
X020705Y018093D02*
X020705Y018093D01*
X020705Y017994D02*
X020705Y017994D01*
X020764Y017896D02*
X020629Y017896D01*
X020531Y017797D02*
X020863Y017797D01*
X021644Y018487D02*
X024905Y018487D01*
X024905Y018585D02*
X023733Y018585D01*
X023826Y018684D02*
X024905Y018684D01*
X024905Y018782D02*
X023876Y018782D01*
X023523Y018782D02*
X023466Y018782D01*
X023466Y018684D02*
X023523Y018684D01*
X023523Y018585D02*
X023466Y018585D01*
X023256Y018585D02*
X021545Y018585D01*
X021447Y018684D02*
X023162Y018684D01*
X023113Y018782D02*
X021516Y018782D01*
X021742Y018388D02*
X024905Y018388D01*
X024905Y018290D02*
X021745Y018290D01*
X023466Y018979D02*
X023523Y018979D01*
X023523Y019078D02*
X023466Y019078D01*
X023466Y019176D02*
X023523Y019176D01*
X023523Y019275D02*
X023466Y019275D01*
X025245Y019176D02*
X031916Y019176D01*
X031837Y019078D02*
X025245Y019078D01*
X025245Y018979D02*
X031796Y018979D01*
X031796Y018881D02*
X025245Y018881D01*
X025245Y018782D02*
X031818Y018782D01*
X031870Y018684D02*
X025245Y018684D01*
X025245Y018585D02*
X031991Y018585D01*
X032442Y019472D02*
X035200Y019472D01*
X035200Y019570D02*
X032494Y019570D01*
X032516Y019669D02*
X035200Y019669D01*
X035200Y019767D02*
X032515Y019767D01*
X032474Y019866D02*
X035200Y019866D01*
X035200Y019964D02*
X032395Y019964D01*
X034282Y025579D02*
X035200Y025579D01*
X035200Y025677D02*
X034480Y025677D01*
X034651Y025776D02*
X035200Y025776D01*
X035200Y025874D02*
X034790Y025874D01*
X034881Y025973D02*
X035200Y025973D01*
X035200Y026071D02*
X034973Y026071D01*
X035064Y026170D02*
X035200Y026170D01*
X035200Y026268D02*
X035123Y026268D01*
X035171Y026367D02*
X035200Y026367D01*
X035200Y014448D02*
X021626Y014448D01*
X021705Y014350D02*
X035200Y014350D01*
X035200Y014251D02*
X021705Y014251D01*
X021705Y014153D02*
X035200Y014153D01*
X035200Y014054D02*
X021705Y014054D01*
X021689Y013956D02*
X035200Y013956D01*
X035200Y013857D02*
X021591Y013857D01*
X021492Y013759D02*
X035200Y013759D01*
X035200Y010114D02*
X021745Y010114D01*
X021745Y010016D02*
X035200Y010016D01*
X035200Y009917D02*
X021707Y009917D01*
X021609Y009819D02*
X035200Y009819D01*
X035200Y009720D02*
X021510Y009720D01*
X021452Y009622D02*
X035200Y009622D01*
X035200Y009523D02*
X021551Y009523D01*
X021649Y009425D02*
X035200Y009425D01*
X035200Y009326D02*
X021705Y009326D01*
X021705Y009228D02*
X035200Y009228D01*
X035200Y009129D02*
X021705Y009129D01*
X021705Y009031D02*
X035200Y009031D01*
X035200Y008932D02*
X021666Y008932D01*
X021567Y008834D02*
X035200Y008834D01*
X035200Y008735D02*
X021469Y008735D01*
X021494Y008637D02*
X035200Y008637D01*
X035200Y008538D02*
X021592Y008538D01*
X021691Y008440D02*
X035200Y008440D01*
X035200Y008341D02*
X021745Y008341D01*
X021745Y008243D02*
X035200Y008243D01*
X035200Y005583D02*
X021491Y005583D01*
X021589Y005485D02*
X035200Y005485D01*
X035200Y005386D02*
X021688Y005386D01*
X021705Y005288D02*
X035200Y005288D01*
X035200Y005189D02*
X021705Y005189D01*
X021705Y005091D02*
X035200Y005091D01*
X035200Y004992D02*
X021705Y004992D01*
X021627Y004894D02*
X035200Y004894D01*
X035200Y004204D02*
X034014Y004204D01*
X034299Y004106D02*
X035200Y004106D01*
X035200Y004007D02*
X034469Y004007D01*
X034635Y003909D02*
X035200Y003909D01*
X035200Y003810D02*
X034726Y003810D01*
X034818Y003712D02*
X035200Y003712D01*
X035200Y003613D02*
X034909Y003613D01*
X034983Y003515D02*
X035200Y003515D01*
X035200Y003416D02*
X035030Y003416D01*
X035077Y003318D02*
X035200Y003318D01*
X035200Y003219D02*
X035125Y003219D01*
X035172Y003121D02*
X035200Y003121D01*
X035190Y003022D02*
X035200Y003022D01*
X032709Y001249D02*
X002730Y001249D01*
X003165Y001643D02*
X011354Y001643D01*
X011358Y001641D02*
X011358Y001641D01*
X011103Y001742D02*
X003235Y001742D01*
X003283Y001840D02*
X010876Y001840D01*
X010900Y001821D02*
X010900Y001821D01*
X010753Y001939D02*
X003330Y001939D01*
X003378Y002037D02*
X010629Y002037D01*
X010510Y002136D02*
X003425Y002136D01*
X003441Y002234D02*
X010443Y002234D01*
X010376Y002333D02*
X003456Y002333D01*
X003471Y002431D02*
X010309Y002431D01*
X010242Y002530D02*
X007532Y002530D01*
X007565Y002539D02*
X007674Y002584D01*
X007777Y002643D01*
X007870Y002715D01*
X007954Y002798D01*
X008026Y002892D01*
X008085Y002994D01*
X008130Y003103D01*
X008161Y003218D01*
X008176Y003335D01*
X008176Y003344D01*
X007325Y003344D01*
X007325Y003444D01*
X007225Y003444D01*
X007225Y004295D01*
X007216Y004295D01*
X007099Y004279D01*
X006985Y004249D01*
X006876Y004204D01*
X002264Y004204D01*
X002549Y004106D02*
X006722Y004106D01*
X006680Y004073D02*
X006596Y003989D01*
X006524Y003895D01*
X006465Y003793D01*
X006420Y003684D01*
X006389Y003570D01*
X006374Y003453D01*
X006374Y003444D01*
X007225Y003444D01*
X007225Y003344D01*
X006374Y003344D01*
X006374Y003335D01*
X006389Y003218D01*
X006420Y003103D01*
X006465Y002994D01*
X006524Y002892D01*
X006596Y002798D01*
X006680Y002715D01*
X006773Y002643D01*
X006876Y002584D01*
X006985Y002539D01*
X007099Y002508D01*
X007216Y002493D01*
X007225Y002493D01*
X007225Y003344D01*
X007325Y003344D01*
X007325Y002493D01*
X007334Y002493D01*
X007451Y002508D01*
X007565Y002539D01*
X007751Y002628D02*
X010209Y002628D01*
X010238Y002534D02*
X010238Y002534D01*
X010179Y002727D02*
X007882Y002727D01*
X007975Y002825D02*
X010149Y002825D01*
X010118Y002924D02*
X008044Y002924D01*
X008096Y003022D02*
X010093Y003022D01*
X010093Y003121D02*
X008135Y003121D01*
X008161Y003219D02*
X010093Y003219D01*
X010093Y003318D02*
X008174Y003318D01*
X008176Y003444D02*
X008176Y003453D01*
X008161Y003570D01*
X008130Y003684D01*
X008085Y003793D01*
X008026Y003895D01*
X007954Y003989D01*
X007870Y004073D01*
X007777Y004145D01*
X007674Y004204D01*
X008434Y004204D01*
X008414Y004231D02*
X008486Y004137D01*
X008569Y004053D01*
X008663Y003981D01*
X008765Y003922D01*
X008874Y003877D01*
X008989Y003847D01*
X009106Y003831D01*
X009115Y003831D01*
X009115Y004682D01*
X008264Y004682D01*
X008264Y004673D01*
X008279Y004556D01*
X008310Y004442D01*
X008355Y004333D01*
X008414Y004231D01*
X008372Y004303D02*
X000350Y004303D01*
X000350Y004401D02*
X008327Y004401D01*
X008294Y004500D02*
X000350Y004500D01*
X000350Y004598D02*
X008273Y004598D01*
X008517Y004106D02*
X007828Y004106D01*
X007936Y004007D02*
X008630Y004007D01*
X008799Y003909D02*
X008016Y003909D01*
X008075Y003810D02*
X010190Y003810D01*
X010160Y003712D02*
X008119Y003712D01*
X008149Y003613D02*
X010130Y003613D01*
X010099Y003515D02*
X008168Y003515D01*
X008176Y003444D02*
X007325Y003444D01*
X007325Y004295D01*
X007334Y004295D01*
X007451Y004279D01*
X007565Y004249D01*
X007674Y004204D01*
X007325Y004204D02*
X007225Y004204D01*
X007225Y004106D02*
X007325Y004106D01*
X007325Y004007D02*
X007225Y004007D01*
X007225Y003909D02*
X007325Y003909D01*
X007325Y003810D02*
X007225Y003810D01*
X007225Y003712D02*
X007325Y003712D01*
X007325Y003613D02*
X007225Y003613D01*
X007225Y003515D02*
X007325Y003515D01*
X007325Y003416D02*
X010093Y003416D01*
X010221Y003909D02*
X009531Y003909D01*
X009700Y004007D02*
X010266Y004007D01*
X010238Y003966D02*
X010238Y003966D01*
X010334Y004106D02*
X009812Y004106D01*
X009895Y004204D02*
X010401Y004204D01*
X010468Y004303D02*
X009957Y004303D01*
X010003Y004401D02*
X010551Y004401D01*
X010515Y004372D02*
X010515Y004372D01*
X010515Y004372D01*
X010675Y004500D02*
X010035Y004500D01*
X009215Y004500D02*
X009115Y004500D01*
X009115Y004598D02*
X009215Y004598D01*
X009215Y004401D02*
X009115Y004401D01*
X009115Y004303D02*
X009215Y004303D01*
X009215Y004204D02*
X009115Y004204D01*
X009115Y004106D02*
X009215Y004106D01*
X009215Y004007D02*
X009115Y004007D01*
X009115Y003909D02*
X009215Y003909D01*
X009215Y004894D02*
X009115Y004894D01*
X009115Y004992D02*
X009215Y004992D01*
X009215Y005091D02*
X009115Y005091D01*
X009115Y005189D02*
X009215Y005189D01*
X009215Y005288D02*
X009115Y005288D01*
X009115Y005386D02*
X009215Y005386D01*
X009215Y005485D02*
X009115Y005485D01*
X009115Y005583D02*
X009215Y005583D01*
X008864Y005583D02*
X008180Y005583D01*
X008139Y005485D02*
X008665Y005485D01*
X008544Y005386D02*
X008098Y005386D01*
X008037Y005288D02*
X008455Y005288D01*
X008388Y005189D02*
X007939Y005189D01*
X007840Y005091D02*
X008338Y005091D01*
X008301Y004992D02*
X007649Y004992D01*
X006876Y004204D02*
X006773Y004145D01*
X006680Y004073D01*
X006614Y004007D02*
X002719Y004007D01*
X002885Y003909D02*
X006534Y003909D01*
X006475Y003810D02*
X002976Y003810D01*
X003068Y003712D02*
X006431Y003712D01*
X006401Y003613D02*
X003159Y003613D01*
X003233Y003515D02*
X006382Y003515D01*
X006376Y003318D02*
X003327Y003318D01*
X003280Y003416D02*
X007225Y003416D01*
X007225Y003318D02*
X007325Y003318D01*
X007325Y003219D02*
X007225Y003219D01*
X007225Y003121D02*
X007325Y003121D01*
X007325Y003022D02*
X007225Y003022D01*
X007225Y002924D02*
X007325Y002924D01*
X007325Y002825D02*
X007225Y002825D01*
X007225Y002727D02*
X007325Y002727D01*
X007325Y002628D02*
X007225Y002628D01*
X007225Y002530D02*
X007325Y002530D01*
X007018Y002530D02*
X003486Y002530D01*
X003500Y002628D02*
X006799Y002628D01*
X006668Y002727D02*
X003485Y002727D01*
X003470Y002825D02*
X006575Y002825D01*
X006506Y002924D02*
X003455Y002924D01*
X003440Y003022D02*
X006454Y003022D01*
X006415Y003121D02*
X003422Y003121D01*
X003375Y003219D02*
X006389Y003219D01*
X001407Y004204D02*
X000350Y004204D01*
X000350Y004106D02*
X001156Y004106D01*
X000966Y004007D02*
X000350Y004007D01*
X000350Y003909D02*
X000843Y003909D01*
X000719Y003810D02*
X000350Y003810D01*
X000350Y003712D02*
X000616Y003712D01*
X000549Y003613D02*
X000350Y003613D01*
X000350Y003515D02*
X000482Y003515D01*
X000415Y003416D02*
X000350Y003416D01*
X000350Y003318D02*
X000356Y003318D01*
X000350Y007849D02*
X001656Y007849D01*
X001439Y007947D02*
X000350Y007947D01*
X000350Y008046D02*
X001295Y008046D01*
X001196Y008144D02*
X000350Y008144D01*
X000350Y008243D02*
X001113Y008243D01*
X001056Y008341D02*
X000350Y008341D01*
X000350Y008440D02*
X001000Y008440D01*
X000972Y008538D02*
X000350Y008538D01*
X000350Y008637D02*
X000945Y008637D01*
X000925Y008735D02*
X000350Y008735D01*
X000350Y008834D02*
X000925Y008834D01*
X000925Y008932D02*
X000350Y008932D01*
X000350Y009031D02*
X000936Y009031D01*
X000963Y009129D02*
X000350Y009129D01*
X000350Y009228D02*
X000989Y009228D01*
X001037Y009326D02*
X000350Y009326D01*
X000350Y009425D02*
X001094Y009425D01*
X001163Y009523D02*
X000350Y009523D01*
X000350Y009622D02*
X001262Y009622D01*
X001382Y009720D02*
X000350Y009720D01*
X000350Y009819D02*
X001553Y009819D01*
X002397Y009819D02*
X007105Y009819D01*
X007105Y009762D02*
X007172Y009601D01*
X007296Y009477D01*
X007457Y009410D01*
X008293Y009410D01*
X008454Y009477D01*
X008578Y009601D01*
X008645Y009762D01*
X008645Y009938D01*
X008578Y010099D01*
X008454Y010223D01*
X008293Y010290D01*
X007457Y010290D01*
X007296Y010223D01*
X007172Y010099D01*
X007105Y009938D01*
X007105Y009762D01*
X007123Y009720D02*
X002568Y009720D01*
X002688Y009622D02*
X007163Y009622D01*
X007250Y009523D02*
X002787Y009523D01*
X002856Y009425D02*
X007422Y009425D01*
X007307Y009228D02*
X002961Y009228D01*
X002987Y009129D02*
X007202Y009129D01*
X007144Y009031D02*
X003014Y009031D01*
X003025Y008932D02*
X007105Y008932D01*
X007105Y008834D02*
X003025Y008834D01*
X003025Y008735D02*
X007116Y008735D01*
X007157Y008637D02*
X003005Y008637D01*
X002978Y008538D02*
X007235Y008538D01*
X007386Y008440D02*
X002950Y008440D01*
X002913Y009326D02*
X019745Y009326D01*
X019745Y009228D02*
X008443Y009228D01*
X008548Y009129D02*
X019745Y009129D01*
X019745Y009031D02*
X008606Y009031D01*
X008645Y008932D02*
X019784Y008932D01*
X019883Y008834D02*
X008645Y008834D01*
X008634Y008735D02*
X019981Y008735D01*
X020013Y008637D02*
X008593Y008637D01*
X008515Y008538D02*
X019914Y008538D01*
X019801Y009425D02*
X008328Y009425D01*
X008500Y009523D02*
X019899Y009523D01*
X019998Y009622D02*
X008587Y009622D01*
X008627Y009720D02*
X019996Y009720D01*
X019898Y009819D02*
X008645Y009819D01*
X008645Y009917D02*
X019799Y009917D01*
X019745Y010016D02*
X008613Y010016D01*
X008563Y010114D02*
X019745Y010114D01*
X019745Y010213D02*
X008465Y010213D01*
X007285Y010213D02*
X000350Y010213D01*
X000350Y010311D02*
X019745Y010311D01*
X019786Y010410D02*
X000350Y010410D01*
X000350Y010508D02*
X019884Y010508D01*
X019983Y010607D02*
X000350Y010607D01*
X000350Y010705D02*
X020011Y010705D01*
X019913Y010804D02*
X000350Y010804D01*
X000350Y010902D02*
X019814Y010902D01*
X019745Y011001D02*
X000350Y011001D01*
X000350Y011099D02*
X019745Y011099D01*
X019745Y011198D02*
X000350Y011198D01*
X000350Y011296D02*
X019745Y011296D01*
X019771Y011395D02*
X000350Y011395D01*
X001776Y011493D02*
X019869Y011493D01*
X019968Y011592D02*
X001850Y011592D01*
X001850Y011690D02*
X019970Y011690D01*
X019871Y011789D02*
X001850Y011789D01*
X001850Y011887D02*
X019773Y011887D01*
X020175Y011887D02*
X020275Y011887D01*
X020275Y011789D02*
X020175Y011789D01*
X020175Y011690D02*
X020275Y011690D01*
X020275Y011986D02*
X020175Y011986D01*
X020175Y012084D02*
X020275Y012084D01*
X020275Y012380D02*
X020175Y012380D01*
X020175Y012478D02*
X020275Y012478D01*
X020275Y012577D02*
X020175Y012577D01*
X020175Y012675D02*
X020275Y012675D01*
X020745Y012084D02*
X020745Y012084D01*
X020745Y011986D02*
X020745Y011986D01*
X020677Y011887D02*
X020829Y011887D01*
X020928Y011789D02*
X020579Y011789D01*
X020581Y011493D02*
X020869Y011493D01*
X020771Y011395D02*
X020679Y011395D01*
X020705Y011296D02*
X020745Y011296D01*
X020745Y011198D02*
X020705Y011198D01*
X020705Y011099D02*
X020745Y011099D01*
X020745Y011001D02*
X020705Y011001D01*
X020636Y010902D02*
X020814Y010902D01*
X020913Y010804D02*
X020537Y010804D01*
X020439Y010705D02*
X021011Y010705D01*
X020926Y010607D02*
X020467Y010607D01*
X020566Y010508D02*
X020828Y010508D01*
X020729Y010410D02*
X020664Y010410D01*
X020705Y010311D02*
X020705Y010311D01*
X021175Y010410D02*
X021275Y010410D01*
X021275Y010508D02*
X021175Y010508D01*
X021175Y010607D02*
X021275Y010607D01*
X021275Y010114D02*
X021175Y010114D01*
X021175Y010016D02*
X021275Y010016D01*
X021275Y009917D02*
X021175Y009917D01*
X021175Y009819D02*
X021275Y009819D01*
X021275Y009720D02*
X021175Y009720D01*
X019776Y014941D02*
X017330Y014941D01*
X017314Y015039D02*
X019745Y015039D01*
X019745Y015138D02*
X017248Y015138D01*
X012681Y021639D02*
X002922Y021639D01*
X002628Y021639D02*
X000350Y021639D01*
X000350Y021737D02*
X000824Y021737D01*
X000923Y021629D02*
X000790Y021574D01*
X000689Y021473D01*
X000634Y021341D01*
X000634Y021197D01*
X000689Y021065D01*
X000790Y020964D01*
X000923Y020909D01*
X001066Y020909D01*
X001198Y020964D01*
X001299Y021065D01*
X001354Y021197D01*
X001354Y021341D01*
X001299Y021473D01*
X001198Y021574D01*
X001066Y021629D01*
X000923Y021629D01*
X000756Y021540D02*
X000350Y021540D01*
X000350Y021442D02*
X000676Y021442D01*
X000635Y021343D02*
X000350Y021343D01*
X000350Y021245D02*
X000634Y021245D01*
X000656Y021146D02*
X000350Y021146D01*
X000350Y021048D02*
X000707Y021048D01*
X000826Y020949D02*
X000350Y020949D01*
X000350Y020851D02*
X007406Y020851D01*
X007307Y020949D02*
X001163Y020949D01*
X001066Y020841D02*
X001198Y020787D01*
X001299Y020685D01*
X001354Y020553D01*
X001354Y020410D01*
X001299Y020278D01*
X001198Y020176D01*
X001066Y020121D01*
X000923Y020121D01*
X000790Y020176D01*
X000689Y020278D01*
X000634Y020410D01*
X000634Y020553D01*
X000689Y020685D01*
X000790Y020787D01*
X000923Y020841D01*
X001066Y020841D01*
X001233Y020752D02*
X007504Y020752D01*
X007603Y020654D02*
X001313Y020654D01*
X001353Y020555D02*
X007701Y020555D01*
X007800Y020457D02*
X001354Y020457D01*
X001333Y020358D02*
X007898Y020358D01*
X007997Y020260D02*
X001281Y020260D01*
X001161Y020161D02*
X008095Y020161D01*
X008194Y020063D02*
X000350Y020063D01*
X000350Y020161D02*
X000827Y020161D01*
X000923Y020054D02*
X000790Y019999D01*
X000689Y019898D01*
X000634Y019766D01*
X000634Y019622D01*
X000689Y019490D01*
X000790Y019389D01*
X000923Y019334D01*
X001066Y019334D01*
X001198Y019389D01*
X001299Y019490D01*
X001354Y019622D01*
X001354Y019766D01*
X001299Y019898D01*
X001198Y019999D01*
X001066Y020054D01*
X000923Y020054D01*
X000755Y019964D02*
X000350Y019964D01*
X000350Y019866D02*
X000676Y019866D01*
X000635Y019767D02*
X000350Y019767D01*
X000350Y019669D02*
X000634Y019669D01*
X000656Y019570D02*
X000350Y019570D01*
X000350Y019472D02*
X000708Y019472D01*
X000829Y019373D02*
X000350Y019373D01*
X000350Y019275D02*
X000837Y019275D01*
X000805Y019261D02*
X000739Y019217D01*
X000684Y019162D01*
X000640Y019096D01*
X000610Y019023D01*
X000594Y018946D01*
X000594Y018935D01*
X000966Y018935D01*
X000966Y018878D01*
X001023Y018878D01*
X001023Y018935D01*
X001394Y018935D01*
X001394Y018946D01*
X001379Y019023D01*
X001349Y019096D01*
X001305Y019162D01*
X001249Y019217D01*
X001184Y019261D01*
X001111Y019291D01*
X001034Y019307D01*
X001023Y019307D01*
X001023Y018935D01*
X000966Y018935D01*
X000966Y019307D01*
X000955Y019307D01*
X000878Y019291D01*
X000805Y019261D01*
X000698Y019176D02*
X000350Y019176D01*
X000350Y019078D02*
X000632Y019078D01*
X000601Y018979D02*
X000350Y018979D01*
X000350Y018881D02*
X000966Y018881D01*
X000966Y018878D02*
X000594Y018878D01*
X000594Y018867D01*
X000610Y018790D01*
X000640Y018717D01*
X000684Y018652D01*
X000739Y018596D01*
X000805Y018552D01*
X000878Y018522D01*
X000955Y018507D01*
X000966Y018507D01*
X000966Y018878D01*
X001023Y018878D02*
X001023Y018507D01*
X001034Y018507D01*
X001111Y018522D01*
X001184Y018552D01*
X001249Y018596D01*
X001305Y018652D01*
X001349Y018717D01*
X001379Y018790D01*
X001394Y018867D01*
X001394Y018878D01*
X001023Y018878D01*
X001023Y018881D02*
X008735Y018881D01*
X008735Y018979D02*
X001388Y018979D01*
X001356Y019078D02*
X008735Y019078D01*
X008735Y019176D02*
X001291Y019176D01*
X001151Y019275D02*
X008735Y019275D01*
X008735Y019373D02*
X001160Y019373D01*
X001281Y019472D02*
X008735Y019472D01*
X008686Y019570D02*
X001333Y019570D01*
X001354Y019669D02*
X008588Y019669D01*
X008489Y019767D02*
X001354Y019767D01*
X001313Y019866D02*
X008391Y019866D01*
X008292Y019964D02*
X001233Y019964D01*
X000707Y020260D02*
X000350Y020260D01*
X000350Y020358D02*
X000656Y020358D01*
X000634Y020457D02*
X000350Y020457D01*
X000350Y020555D02*
X000635Y020555D01*
X000676Y020654D02*
X000350Y020654D01*
X000350Y020752D02*
X000756Y020752D01*
X001282Y021048D02*
X007209Y021048D01*
X007110Y021146D02*
X001333Y021146D01*
X001354Y021245D02*
X002595Y021245D01*
X002533Y021343D02*
X001353Y021343D01*
X001312Y021442D02*
X002520Y021442D01*
X002547Y021540D02*
X001232Y021540D01*
X000706Y021836D02*
X000350Y021836D01*
X000350Y021934D02*
X000655Y021934D01*
X000634Y022033D02*
X000350Y022033D01*
X000350Y022131D02*
X000636Y022131D01*
X000676Y022230D02*
X000350Y022230D01*
X000350Y022328D02*
X000757Y022328D01*
X000966Y019275D02*
X001023Y019275D01*
X001023Y019176D02*
X000966Y019176D01*
X000966Y019078D02*
X001023Y019078D01*
X001023Y018979D02*
X000966Y018979D01*
X000966Y018782D02*
X001023Y018782D01*
X001023Y018684D02*
X000966Y018684D01*
X000966Y018585D02*
X001023Y018585D01*
X001233Y018585D02*
X008871Y018585D01*
X008773Y018684D02*
X001326Y018684D01*
X001376Y018782D02*
X008735Y018782D01*
X008970Y018487D02*
X000350Y018487D01*
X000350Y018585D02*
X000756Y018585D01*
X000662Y018684D02*
X000350Y018684D01*
X000350Y018782D02*
X000613Y018782D01*
X000350Y018388D02*
X009068Y018388D01*
X009167Y018290D02*
X000350Y018290D01*
X000350Y018191D02*
X009265Y018191D01*
X009364Y018093D02*
X000350Y018093D01*
X009115Y018881D02*
X009296Y018881D01*
X009296Y018979D02*
X009115Y018979D01*
X009115Y019078D02*
X009337Y019078D01*
X009416Y019176D02*
X009115Y019176D01*
X009212Y018782D02*
X009318Y018782D01*
X009310Y018684D02*
X009370Y018684D01*
X009409Y018585D02*
X009491Y018585D01*
X009826Y021737D02*
X012645Y021737D01*
X012574Y021836D02*
X009944Y021836D01*
X009995Y021934D02*
X012476Y021934D01*
X012377Y022033D02*
X010016Y022033D01*
X010014Y022131D02*
X012279Y022131D01*
X012180Y022230D02*
X009974Y022230D01*
X009893Y022328D02*
X012082Y022328D01*
X011848Y027695D02*
X011848Y027695D01*
X007187Y010114D02*
X000350Y010114D01*
X000350Y010016D02*
X007137Y010016D01*
X007105Y009917D02*
X000350Y009917D01*
D17*
X012875Y021775D02*
X011800Y022850D01*
X012875Y021775D02*
X012900Y021775D01*
X019775Y022650D02*
X019788Y022663D01*
X020718Y022663D01*
X021225Y023170D01*
X021225Y024170D01*
X022825Y024537D02*
X023494Y025206D01*
X022825Y024537D02*
X022825Y021700D01*
X022295Y021170D01*
X021225Y020170D01*
X025075Y020700D02*
X025075Y017700D01*
X022050Y014675D01*
X017350Y014675D01*
X017075Y014950D01*
D18*
X018150Y021275D03*
D19*
X019525Y022650D01*
X019775Y022650D01*
D20*
X013300Y018225D02*
X016575Y014950D01*
X013650Y012275D02*
X012150Y013775D01*
X009475Y013775D01*
X009500Y018225D02*
X013300Y018225D01*
X009500Y018225D02*
X008925Y018800D01*
X008925Y019600D01*
X007100Y021425D01*
X002775Y021425D01*
M02*
