G75*
G70*
%OFA0B0*%
%FSLAX24Y24*%
%IPPOS*%
%LPD*%
%AMOC8*
5,1,8,0,0,1.08239X$1,22.5*
%
%ADD10C,0.1241*%
%ADD11R,0.0375X0.0375*%
%ADD12C,0.0414*%
%ADD13R,0.1155X0.1155*%
%ADD14C,0.3603*%
%ADD15C,0.1060*%
%ADD16C,0.1320*%
%ADD17OC8,0.0651*%
%ADD18OC8,0.0660*%
%ADD19R,0.2422X0.1044*%
%ADD20R,0.1044X0.0454*%
%ADD21C,0.0720*%
%ADD22C,0.0436*%
%ADD23C,0.0330*%
%ADD24C,0.0350*%
D10*
X001599Y001160D03*
X023224Y001660D03*
X023724Y015910D03*
D11*
X018391Y007763D03*
X017965Y007763D03*
X017965Y007163D03*
X018391Y007163D03*
X015588Y004811D03*
X014988Y004811D03*
X015083Y002625D03*
X015683Y002625D03*
D12*
X007219Y006558D03*
X006038Y006558D03*
X002450Y013602D03*
X002450Y015335D03*
D13*
X003074Y007535D03*
X003074Y002335D03*
D14*
X003074Y004935D03*
D15*
X004536Y009633D03*
X005718Y009633D03*
X005718Y010814D03*
X004536Y010814D03*
D16*
X002765Y010223D03*
D17*
X008150Y012256D03*
X009150Y012256D03*
X010150Y012256D03*
X011150Y012256D03*
X012150Y012256D03*
X012150Y013256D03*
X011150Y013256D03*
X010150Y013256D03*
X009150Y013256D03*
X008150Y013256D03*
D18*
X012050Y015444D03*
X013050Y015444D03*
X014050Y015444D03*
X015050Y015444D03*
X016050Y015444D03*
X017050Y015444D03*
X018050Y015444D03*
X019050Y015444D03*
X020050Y015444D03*
X021050Y015444D03*
X022050Y015444D03*
X022050Y016444D03*
X021050Y016444D03*
X020050Y016444D03*
X019050Y016444D03*
X018050Y016444D03*
X017050Y016444D03*
X016050Y016444D03*
X015050Y016444D03*
X014050Y016444D03*
X013050Y016444D03*
X012050Y016444D03*
X022101Y014110D03*
X023100Y014106D03*
X024100Y014106D03*
X024100Y013106D03*
X023100Y013106D03*
X023100Y012106D03*
X024100Y012106D03*
X024100Y011106D03*
X023100Y011106D03*
X023100Y010106D03*
X024100Y010106D03*
X024100Y009106D03*
X023100Y009106D03*
X023100Y008106D03*
X024100Y008106D03*
X024100Y007106D03*
X023100Y007106D03*
X023100Y006106D03*
X024100Y006106D03*
X024100Y005106D03*
X023100Y005106D03*
X023100Y004106D03*
X024100Y004106D03*
X021100Y001831D03*
X020100Y001831D03*
X019100Y001831D03*
X018100Y001831D03*
X017100Y001831D03*
X016100Y001831D03*
X015100Y001831D03*
X014100Y001831D03*
X012850Y001831D03*
X011850Y001831D03*
X010850Y001831D03*
X009850Y001831D03*
X008850Y001831D03*
X007850Y001831D03*
X006850Y001831D03*
X005850Y001831D03*
X004850Y001831D03*
X004850Y000831D03*
X005850Y000831D03*
X006850Y000831D03*
X007850Y000831D03*
X008850Y000831D03*
X009850Y000831D03*
X010850Y000831D03*
X011850Y000831D03*
X012850Y000831D03*
X014100Y000831D03*
X015100Y000831D03*
X016100Y000831D03*
X017100Y000831D03*
X018100Y000831D03*
X019100Y000831D03*
X020100Y000831D03*
X021100Y000831D03*
D19*
X013049Y003810D03*
D20*
X015411Y003310D03*
X015411Y004310D03*
D21*
X022104Y003273D03*
D22*
X021659Y003901D03*
X019100Y002815D03*
X014770Y006069D03*
X017038Y006919D03*
X018900Y006744D03*
X020499Y006115D03*
X019590Y008832D03*
X016050Y011281D03*
X014238Y011756D03*
X014350Y012985D03*
X011638Y012909D03*
X010650Y012922D03*
X009650Y012922D03*
X008650Y012922D03*
X009000Y011406D03*
X009613Y011356D03*
X006415Y014306D03*
X005425Y014156D03*
X002400Y016297D03*
X002400Y016797D03*
X004900Y016797D03*
X008150Y016547D03*
X008525Y015797D03*
X008525Y015297D03*
X008525Y014797D03*
X006109Y008526D03*
X023610Y012724D03*
D23*
X017912Y006799D03*
X016945Y005388D03*
X016379Y003042D03*
D24*
X016125Y004309D03*
X015950Y005094D03*
X017578Y004384D03*
X016663Y006747D03*
X015144Y007842D03*
X015119Y008842D03*
X012963Y009944D03*
X012588Y009944D03*
X012213Y009944D03*
X011337Y009573D03*
X012950Y010681D03*
X013325Y010681D03*
X013700Y010681D03*
X009606Y007843D03*
X007174Y010060D03*
X006424Y009635D03*
X005600Y005756D03*
M02*
