G75*
G70*
%OFA0B0*%
%FSLAX24Y24*%
%IPPOS*%
%LPD*%
%AMOC8*
5,1,8,0,0,1.08239X$1,22.5*
%
%ADD10C,0.0000*%
D10*
X000599Y000160D02*
X000599Y017278D01*
X000600Y017276D02*
X024780Y017276D01*
X024780Y000156D01*
X024779Y000160D02*
X000599Y000160D01*
X001008Y001160D02*
X001010Y001208D01*
X001016Y001256D01*
X001026Y001303D01*
X001039Y001349D01*
X001057Y001394D01*
X001077Y001438D01*
X001102Y001480D01*
X001130Y001519D01*
X001160Y001556D01*
X001194Y001590D01*
X001231Y001622D01*
X001269Y001651D01*
X001310Y001676D01*
X001353Y001698D01*
X001398Y001716D01*
X001444Y001730D01*
X001491Y001741D01*
X001539Y001748D01*
X001587Y001751D01*
X001635Y001750D01*
X001683Y001745D01*
X001731Y001736D01*
X001777Y001724D01*
X001822Y001707D01*
X001866Y001687D01*
X001908Y001664D01*
X001948Y001637D01*
X001986Y001607D01*
X002021Y001574D01*
X002053Y001538D01*
X002083Y001500D01*
X002109Y001459D01*
X002131Y001416D01*
X002151Y001372D01*
X002166Y001327D01*
X002178Y001280D01*
X002186Y001232D01*
X002190Y001184D01*
X002190Y001136D01*
X002186Y001088D01*
X002178Y001040D01*
X002166Y000993D01*
X002151Y000948D01*
X002131Y000904D01*
X002109Y000861D01*
X002083Y000820D01*
X002053Y000782D01*
X002021Y000746D01*
X001986Y000713D01*
X001948Y000683D01*
X001908Y000656D01*
X001866Y000633D01*
X001822Y000613D01*
X001777Y000596D01*
X001731Y000584D01*
X001683Y000575D01*
X001635Y000570D01*
X001587Y000569D01*
X001539Y000572D01*
X001491Y000579D01*
X001444Y000590D01*
X001398Y000604D01*
X001353Y000622D01*
X001310Y000644D01*
X001269Y000669D01*
X001231Y000698D01*
X001194Y000730D01*
X001160Y000764D01*
X001130Y000801D01*
X001102Y000840D01*
X001077Y000882D01*
X001057Y000926D01*
X001039Y000971D01*
X001026Y001017D01*
X001016Y001064D01*
X001010Y001112D01*
X001008Y001160D01*
X005861Y006558D02*
X005863Y006584D01*
X005869Y006610D01*
X005879Y006635D01*
X005892Y006658D01*
X005908Y006678D01*
X005928Y006696D01*
X005950Y006711D01*
X005973Y006723D01*
X005999Y006731D01*
X006025Y006735D01*
X006051Y006735D01*
X006077Y006731D01*
X006103Y006723D01*
X006127Y006711D01*
X006148Y006696D01*
X006168Y006678D01*
X006184Y006658D01*
X006197Y006635D01*
X006207Y006610D01*
X006213Y006584D01*
X006215Y006558D01*
X006213Y006532D01*
X006207Y006506D01*
X006197Y006481D01*
X006184Y006458D01*
X006168Y006438D01*
X006148Y006420D01*
X006126Y006405D01*
X006103Y006393D01*
X006077Y006385D01*
X006051Y006381D01*
X006025Y006381D01*
X005999Y006385D01*
X005973Y006393D01*
X005949Y006405D01*
X005928Y006420D01*
X005908Y006438D01*
X005892Y006458D01*
X005879Y006481D01*
X005869Y006506D01*
X005863Y006532D01*
X005861Y006558D01*
X007042Y006558D02*
X007044Y006584D01*
X007050Y006610D01*
X007060Y006635D01*
X007073Y006658D01*
X007089Y006678D01*
X007109Y006696D01*
X007131Y006711D01*
X007154Y006723D01*
X007180Y006731D01*
X007206Y006735D01*
X007232Y006735D01*
X007258Y006731D01*
X007284Y006723D01*
X007308Y006711D01*
X007329Y006696D01*
X007349Y006678D01*
X007365Y006658D01*
X007378Y006635D01*
X007388Y006610D01*
X007394Y006584D01*
X007396Y006558D01*
X007394Y006532D01*
X007388Y006506D01*
X007378Y006481D01*
X007365Y006458D01*
X007349Y006438D01*
X007329Y006420D01*
X007307Y006405D01*
X007284Y006393D01*
X007258Y006385D01*
X007232Y006381D01*
X007206Y006381D01*
X007180Y006385D01*
X007154Y006393D01*
X007130Y006405D01*
X007109Y006420D01*
X007089Y006438D01*
X007073Y006458D01*
X007060Y006481D01*
X007050Y006506D01*
X007044Y006532D01*
X007042Y006558D01*
X002135Y010223D02*
X002137Y010273D01*
X002143Y010323D01*
X002153Y010372D01*
X002167Y010420D01*
X002184Y010467D01*
X002205Y010512D01*
X002230Y010556D01*
X002258Y010597D01*
X002290Y010636D01*
X002324Y010673D01*
X002361Y010707D01*
X002401Y010737D01*
X002443Y010764D01*
X002487Y010788D01*
X002533Y010809D01*
X002580Y010825D01*
X002628Y010838D01*
X002678Y010847D01*
X002727Y010852D01*
X002778Y010853D01*
X002828Y010850D01*
X002877Y010843D01*
X002926Y010832D01*
X002974Y010817D01*
X003020Y010799D01*
X003065Y010777D01*
X003108Y010751D01*
X003149Y010722D01*
X003188Y010690D01*
X003224Y010655D01*
X003256Y010617D01*
X003286Y010577D01*
X003313Y010534D01*
X003336Y010490D01*
X003355Y010444D01*
X003371Y010396D01*
X003383Y010347D01*
X003391Y010298D01*
X003395Y010248D01*
X003395Y010198D01*
X003391Y010148D01*
X003383Y010099D01*
X003371Y010050D01*
X003355Y010002D01*
X003336Y009956D01*
X003313Y009912D01*
X003286Y009869D01*
X003256Y009829D01*
X003224Y009791D01*
X003188Y009756D01*
X003149Y009724D01*
X003108Y009695D01*
X003065Y009669D01*
X003020Y009647D01*
X002974Y009629D01*
X002926Y009614D01*
X002877Y009603D01*
X002828Y009596D01*
X002778Y009593D01*
X002727Y009594D01*
X002678Y009599D01*
X002628Y009608D01*
X002580Y009621D01*
X002533Y009637D01*
X002487Y009658D01*
X002443Y009682D01*
X002401Y009709D01*
X002361Y009739D01*
X002324Y009773D01*
X002290Y009810D01*
X002258Y009849D01*
X002230Y009890D01*
X002205Y009934D01*
X002184Y009979D01*
X002167Y010026D01*
X002153Y010074D01*
X002143Y010123D01*
X002137Y010173D01*
X002135Y010223D01*
X002273Y013602D02*
X002275Y013628D01*
X002281Y013654D01*
X002291Y013679D01*
X002304Y013702D01*
X002320Y013722D01*
X002340Y013740D01*
X002362Y013755D01*
X002385Y013767D01*
X002411Y013775D01*
X002437Y013779D01*
X002463Y013779D01*
X002489Y013775D01*
X002515Y013767D01*
X002539Y013755D01*
X002560Y013740D01*
X002580Y013722D01*
X002596Y013702D01*
X002609Y013679D01*
X002619Y013654D01*
X002625Y013628D01*
X002627Y013602D01*
X002625Y013576D01*
X002619Y013550D01*
X002609Y013525D01*
X002596Y013502D01*
X002580Y013482D01*
X002560Y013464D01*
X002538Y013449D01*
X002515Y013437D01*
X002489Y013429D01*
X002463Y013425D01*
X002437Y013425D01*
X002411Y013429D01*
X002385Y013437D01*
X002361Y013449D01*
X002340Y013464D01*
X002320Y013482D01*
X002304Y013502D01*
X002291Y013525D01*
X002281Y013550D01*
X002275Y013576D01*
X002273Y013602D01*
X002273Y015335D02*
X002275Y015361D01*
X002281Y015387D01*
X002291Y015412D01*
X002304Y015435D01*
X002320Y015455D01*
X002340Y015473D01*
X002362Y015488D01*
X002385Y015500D01*
X002411Y015508D01*
X002437Y015512D01*
X002463Y015512D01*
X002489Y015508D01*
X002515Y015500D01*
X002539Y015488D01*
X002560Y015473D01*
X002580Y015455D01*
X002596Y015435D01*
X002609Y015412D01*
X002619Y015387D01*
X002625Y015361D01*
X002627Y015335D01*
X002625Y015309D01*
X002619Y015283D01*
X002609Y015258D01*
X002596Y015235D01*
X002580Y015215D01*
X002560Y015197D01*
X002538Y015182D01*
X002515Y015170D01*
X002489Y015162D01*
X002463Y015158D01*
X002437Y015158D01*
X002411Y015162D01*
X002385Y015170D01*
X002361Y015182D01*
X002340Y015197D01*
X002320Y015215D01*
X002304Y015235D01*
X002291Y015258D01*
X002281Y015283D01*
X002275Y015309D01*
X002273Y015335D01*
X022633Y001660D02*
X022635Y001708D01*
X022641Y001756D01*
X022651Y001803D01*
X022664Y001849D01*
X022682Y001894D01*
X022702Y001938D01*
X022727Y001980D01*
X022755Y002019D01*
X022785Y002056D01*
X022819Y002090D01*
X022856Y002122D01*
X022894Y002151D01*
X022935Y002176D01*
X022978Y002198D01*
X023023Y002216D01*
X023069Y002230D01*
X023116Y002241D01*
X023164Y002248D01*
X023212Y002251D01*
X023260Y002250D01*
X023308Y002245D01*
X023356Y002236D01*
X023402Y002224D01*
X023447Y002207D01*
X023491Y002187D01*
X023533Y002164D01*
X023573Y002137D01*
X023611Y002107D01*
X023646Y002074D01*
X023678Y002038D01*
X023708Y002000D01*
X023734Y001959D01*
X023756Y001916D01*
X023776Y001872D01*
X023791Y001827D01*
X023803Y001780D01*
X023811Y001732D01*
X023815Y001684D01*
X023815Y001636D01*
X023811Y001588D01*
X023803Y001540D01*
X023791Y001493D01*
X023776Y001448D01*
X023756Y001404D01*
X023734Y001361D01*
X023708Y001320D01*
X023678Y001282D01*
X023646Y001246D01*
X023611Y001213D01*
X023573Y001183D01*
X023533Y001156D01*
X023491Y001133D01*
X023447Y001113D01*
X023402Y001096D01*
X023356Y001084D01*
X023308Y001075D01*
X023260Y001070D01*
X023212Y001069D01*
X023164Y001072D01*
X023116Y001079D01*
X023069Y001090D01*
X023023Y001104D01*
X022978Y001122D01*
X022935Y001144D01*
X022894Y001169D01*
X022856Y001198D01*
X022819Y001230D01*
X022785Y001264D01*
X022755Y001301D01*
X022727Y001340D01*
X022702Y001382D01*
X022682Y001426D01*
X022664Y001471D01*
X022651Y001517D01*
X022641Y001564D01*
X022635Y001612D01*
X022633Y001660D01*
X023133Y015910D02*
X023135Y015958D01*
X023141Y016006D01*
X023151Y016053D01*
X023164Y016099D01*
X023182Y016144D01*
X023202Y016188D01*
X023227Y016230D01*
X023255Y016269D01*
X023285Y016306D01*
X023319Y016340D01*
X023356Y016372D01*
X023394Y016401D01*
X023435Y016426D01*
X023478Y016448D01*
X023523Y016466D01*
X023569Y016480D01*
X023616Y016491D01*
X023664Y016498D01*
X023712Y016501D01*
X023760Y016500D01*
X023808Y016495D01*
X023856Y016486D01*
X023902Y016474D01*
X023947Y016457D01*
X023991Y016437D01*
X024033Y016414D01*
X024073Y016387D01*
X024111Y016357D01*
X024146Y016324D01*
X024178Y016288D01*
X024208Y016250D01*
X024234Y016209D01*
X024256Y016166D01*
X024276Y016122D01*
X024291Y016077D01*
X024303Y016030D01*
X024311Y015982D01*
X024315Y015934D01*
X024315Y015886D01*
X024311Y015838D01*
X024303Y015790D01*
X024291Y015743D01*
X024276Y015698D01*
X024256Y015654D01*
X024234Y015611D01*
X024208Y015570D01*
X024178Y015532D01*
X024146Y015496D01*
X024111Y015463D01*
X024073Y015433D01*
X024033Y015406D01*
X023991Y015383D01*
X023947Y015363D01*
X023902Y015346D01*
X023856Y015334D01*
X023808Y015325D01*
X023760Y015320D01*
X023712Y015319D01*
X023664Y015322D01*
X023616Y015329D01*
X023569Y015340D01*
X023523Y015354D01*
X023478Y015372D01*
X023435Y015394D01*
X023394Y015419D01*
X023356Y015448D01*
X023319Y015480D01*
X023285Y015514D01*
X023255Y015551D01*
X023227Y015590D01*
X023202Y015632D01*
X023182Y015676D01*
X023164Y015721D01*
X023151Y015767D01*
X023141Y015814D01*
X023135Y015862D01*
X023133Y015910D01*
M02*
