G75*
G70*
%OFA0B0*%
%FSLAX24Y24*%
%IPPOS*%
%LPD*%
%AMOC8*
5,1,8,0,0,1.08239X$1,22.5*
%
%ADD10R,0.0315X0.0315*%
%ADD11R,0.1095X0.1095*%
%ADD12C,0.3543*%
%ADD13C,0.1000*%
%ADD14OC8,0.0591*%
%ADD15OC8,0.0600*%
%ADD16R,0.2362X0.0984*%
%ADD17R,0.0984X0.0394*%
%ADD18C,0.0660*%
%ADD19C,0.0376*%
%ADD20C,0.0270*%
%ADD21C,0.0120*%
%ADD22C,0.0290*%
D10*
X014988Y004811D03*
X015588Y004811D03*
X015683Y002625D03*
X015083Y002625D03*
X017965Y007163D03*
X018391Y007163D03*
X018391Y007763D03*
X017965Y007763D03*
D11*
X003074Y007535D03*
X003074Y002335D03*
D12*
X003074Y004935D03*
D13*
X004536Y009633D03*
X005718Y009633D03*
X005718Y010814D03*
X004536Y010814D03*
D14*
X008150Y012256D03*
X009150Y012256D03*
X010150Y012256D03*
X011150Y012256D03*
X012150Y012256D03*
X012150Y013256D03*
X011150Y013256D03*
X010150Y013256D03*
X009150Y013256D03*
X008150Y013256D03*
D15*
X012050Y015444D03*
X013050Y015444D03*
X014050Y015444D03*
X015050Y015444D03*
X016050Y015444D03*
X017050Y015444D03*
X018050Y015444D03*
X019050Y015444D03*
X020050Y015444D03*
X021050Y015444D03*
X022050Y015444D03*
X022050Y016444D03*
X021050Y016444D03*
X020050Y016444D03*
X019050Y016444D03*
X018050Y016444D03*
X017050Y016444D03*
X016050Y016444D03*
X015050Y016444D03*
X014050Y016444D03*
X013050Y016444D03*
X012050Y016444D03*
X022101Y014110D03*
X023100Y014106D03*
X024100Y014106D03*
X024100Y013106D03*
X023100Y013106D03*
X023100Y012106D03*
X024100Y012106D03*
X024100Y011106D03*
X023100Y011106D03*
X023100Y010106D03*
X024100Y010106D03*
X024100Y009106D03*
X023100Y009106D03*
X023100Y008106D03*
X024100Y008106D03*
X024100Y007106D03*
X023100Y007106D03*
X023100Y006106D03*
X024100Y006106D03*
X024100Y005106D03*
X023100Y005106D03*
X023100Y004106D03*
X024100Y004106D03*
X021100Y001831D03*
X020100Y001831D03*
X019100Y001831D03*
X018100Y001831D03*
X017100Y001831D03*
X016100Y001831D03*
X015100Y001831D03*
X014100Y001831D03*
X012850Y001831D03*
X011850Y001831D03*
X010850Y001831D03*
X009850Y001831D03*
X008850Y001831D03*
X007850Y001831D03*
X006850Y001831D03*
X005850Y001831D03*
X004850Y001831D03*
X004850Y000831D03*
X005850Y000831D03*
X006850Y000831D03*
X007850Y000831D03*
X008850Y000831D03*
X009850Y000831D03*
X010850Y000831D03*
X011850Y000831D03*
X012850Y000831D03*
X014100Y000831D03*
X015100Y000831D03*
X016100Y000831D03*
X017100Y000831D03*
X018100Y000831D03*
X019100Y000831D03*
X020100Y000831D03*
X021100Y000831D03*
D16*
X013049Y003810D03*
D17*
X015411Y003310D03*
X015411Y004310D03*
D18*
X022104Y003273D03*
D19*
X021659Y003901D03*
X019100Y002815D03*
X014770Y006069D03*
X017038Y006919D03*
X018900Y006744D03*
X020499Y006115D03*
X019590Y008832D03*
X016050Y011281D03*
X014238Y011756D03*
X014350Y012985D03*
X011638Y012909D03*
X010650Y012922D03*
X009650Y012922D03*
X008650Y012922D03*
X009000Y011406D03*
X009613Y011356D03*
X006415Y014306D03*
X005425Y014156D03*
X002400Y016297D03*
X002400Y016797D03*
X004900Y016797D03*
X008150Y016547D03*
X008525Y015797D03*
X008525Y015297D03*
X008525Y014797D03*
X006109Y008526D03*
X023610Y012724D03*
D20*
X017912Y006799D03*
X016945Y005388D03*
X016379Y003042D03*
D21*
X000809Y001345D02*
X000809Y017066D01*
X024570Y017066D01*
X024570Y000370D01*
X001784Y000370D01*
X002053Y000481D01*
X002278Y000707D01*
X002400Y001001D01*
X002400Y001319D01*
X002278Y001613D01*
X002053Y001839D01*
X001758Y001961D01*
X001440Y001961D01*
X001146Y001839D01*
X000920Y001613D01*
X000809Y001345D01*
X000809Y001457D02*
X000856Y001457D01*
X000809Y001576D02*
X000905Y001576D01*
X000809Y001694D02*
X001001Y001694D01*
X001119Y001813D02*
X000809Y001813D01*
X000809Y001931D02*
X001369Y001931D01*
X001830Y001931D02*
X002407Y001931D01*
X002407Y001813D02*
X002079Y001813D01*
X002197Y001694D02*
X002450Y001694D01*
X002477Y001668D02*
X003671Y001668D01*
X003742Y001738D01*
X003742Y002198D01*
X003804Y002260D01*
X006461Y004917D01*
X014670Y004914D01*
X014670Y004830D01*
X014969Y004830D01*
X014969Y004792D01*
X014670Y004792D01*
X014670Y004632D01*
X014681Y004592D01*
X014702Y004555D01*
X014732Y004525D01*
X014768Y004504D01*
X014799Y004496D01*
X014799Y004063D01*
X014869Y003993D01*
X015953Y003993D01*
X016023Y004063D01*
X016023Y004065D01*
X016072Y004044D01*
X016178Y004044D01*
X016219Y004061D01*
X016219Y003585D01*
X016125Y003490D01*
X016023Y003490D01*
X016023Y003557D01*
X015953Y003627D01*
X014869Y003627D01*
X014799Y003557D01*
X014799Y003063D01*
X014869Y002993D01*
X015503Y002993D01*
X015503Y002909D01*
X015503Y002902D01*
X015475Y002902D01*
X015405Y002832D01*
X015405Y002418D01*
X015475Y002348D01*
X015890Y002348D01*
X015960Y002418D01*
X015960Y002832D01*
X015890Y002902D01*
X015863Y002902D01*
X015863Y002908D01*
X015863Y002983D01*
X015863Y002993D01*
X015953Y002993D01*
X016023Y003063D01*
X016023Y003130D01*
X016274Y003130D01*
X016474Y003330D01*
X016579Y003435D01*
X016579Y004635D01*
X016789Y004845D01*
X016842Y004898D01*
X016842Y004971D01*
X016842Y006552D01*
X016887Y006596D01*
X016927Y006694D01*
X016927Y006799D01*
X016887Y006897D01*
X016813Y006971D01*
X016715Y007012D01*
X016610Y007012D01*
X016529Y006978D01*
X016529Y006985D01*
X016599Y007055D01*
X017325Y007055D01*
X017397Y006983D01*
X017397Y004578D01*
X017353Y004534D01*
X017313Y004436D01*
X017313Y004331D01*
X017353Y004233D01*
X017427Y004159D01*
X017525Y004119D01*
X017630Y004119D01*
X017728Y004159D01*
X017802Y004233D01*
X017842Y004331D01*
X017842Y004436D01*
X017802Y004534D01*
X017757Y004578D01*
X017757Y006594D01*
X017768Y006583D01*
X017861Y006544D01*
X017963Y006544D01*
X018057Y006583D01*
X018128Y006655D01*
X018167Y006748D01*
X018167Y006850D01*
X018152Y006885D01*
X018172Y006885D01*
X018178Y006891D01*
X018184Y006885D01*
X018598Y006885D01*
X018668Y006956D01*
X018668Y007370D01*
X018598Y007440D01*
X018184Y007440D01*
X018178Y007435D01*
X018172Y007440D01*
X017758Y007440D01*
X017688Y007370D01*
X017688Y007201D01*
X017474Y007415D01*
X016450Y007415D01*
X016344Y007310D01*
X016169Y007135D01*
X016169Y005980D01*
X016130Y005940D01*
X005795Y005936D01*
X005750Y005981D01*
X005653Y006021D01*
X005547Y006021D01*
X005450Y005981D01*
X005375Y005906D01*
X005335Y005809D01*
X005335Y005703D01*
X005375Y005606D01*
X005450Y005531D01*
X005547Y005491D01*
X005653Y005491D01*
X005750Y005531D01*
X005795Y005576D01*
X016205Y005580D01*
X016279Y005580D01*
X016331Y005632D01*
X016424Y005725D01*
X016482Y005783D01*
X016482Y005047D01*
X016219Y004785D01*
X016219Y004557D01*
X016178Y004574D01*
X016072Y004574D01*
X016023Y004554D01*
X016023Y004557D01*
X015953Y004627D01*
X015865Y004627D01*
X015865Y004842D01*
X015897Y004829D01*
X016003Y004829D01*
X016100Y004869D01*
X016175Y004943D01*
X016215Y005041D01*
X016215Y005146D01*
X016175Y005244D01*
X016100Y005318D01*
X016003Y005359D01*
X015897Y005359D01*
X015800Y005318D01*
X015755Y005274D01*
X006461Y005277D01*
X006461Y005277D01*
X006388Y005277D01*
X006312Y005278D01*
X006312Y005277D01*
X006259Y005224D01*
X006207Y005172D01*
X003742Y002707D01*
X003742Y002932D01*
X003671Y003002D01*
X002477Y003002D01*
X002407Y002932D01*
X002407Y001738D01*
X002477Y001668D01*
X002294Y001576D02*
X004512Y001576D01*
X004430Y001657D02*
X004676Y001411D01*
X005024Y001411D01*
X005270Y001657D01*
X005270Y002005D01*
X005024Y002251D01*
X004676Y002251D01*
X004430Y002005D01*
X004430Y001657D01*
X004430Y001694D02*
X003698Y001694D01*
X003742Y001813D02*
X004430Y001813D01*
X004430Y001931D02*
X003742Y001931D01*
X003742Y002050D02*
X004474Y002050D01*
X004593Y002168D02*
X003742Y002168D01*
X003830Y002287D02*
X012655Y002287D01*
X012659Y002291D02*
X012390Y002022D01*
X012390Y001871D01*
X012810Y001871D01*
X012810Y001791D01*
X012890Y001791D01*
X012890Y001371D01*
X013041Y001371D01*
X013310Y001641D01*
X013310Y001791D01*
X012890Y001791D01*
X012890Y001871D01*
X013310Y001871D01*
X013310Y002022D01*
X013041Y002291D01*
X012890Y002291D01*
X012890Y001871D01*
X012810Y001871D01*
X012810Y002291D01*
X012659Y002291D01*
X012810Y002287D02*
X012890Y002287D01*
X012890Y002168D02*
X012810Y002168D01*
X012810Y002050D02*
X012890Y002050D01*
X012890Y001931D02*
X012810Y001931D01*
X012810Y001813D02*
X012270Y001813D01*
X012270Y001931D02*
X012390Y001931D01*
X012418Y002050D02*
X012226Y002050D01*
X012270Y002005D02*
X012024Y002251D01*
X011676Y002251D01*
X011430Y002005D01*
X011430Y001657D01*
X011676Y001411D01*
X012024Y001411D01*
X012270Y001657D01*
X012270Y002005D01*
X012107Y002168D02*
X012536Y002168D01*
X012390Y001791D02*
X012390Y001641D01*
X012659Y001371D01*
X012810Y001371D01*
X012810Y001791D01*
X012390Y001791D01*
X012390Y001694D02*
X012270Y001694D01*
X012188Y001576D02*
X012455Y001576D01*
X012574Y001457D02*
X012070Y001457D01*
X012024Y001251D02*
X011676Y001251D01*
X011430Y001005D01*
X011430Y000657D01*
X011676Y000411D01*
X012024Y000411D01*
X012270Y000657D01*
X012270Y001005D01*
X012024Y001251D01*
X012055Y001220D02*
X012645Y001220D01*
X012676Y001251D02*
X012430Y001005D01*
X012430Y000657D01*
X012676Y000411D01*
X013024Y000411D01*
X013270Y000657D01*
X013270Y001005D01*
X013024Y001251D01*
X012676Y001251D01*
X012526Y001102D02*
X012174Y001102D01*
X012270Y000983D02*
X012430Y000983D01*
X012430Y000865D02*
X012270Y000865D01*
X012270Y000746D02*
X012430Y000746D01*
X012460Y000628D02*
X012240Y000628D01*
X012122Y000509D02*
X012578Y000509D01*
X013122Y000509D02*
X013828Y000509D01*
X013926Y000411D02*
X014274Y000411D01*
X014520Y000657D01*
X014520Y001005D01*
X014274Y001251D01*
X013926Y001251D01*
X013680Y001005D01*
X013680Y000657D01*
X013926Y000411D01*
X013710Y000628D02*
X013240Y000628D01*
X013270Y000746D02*
X013680Y000746D01*
X013680Y000865D02*
X013270Y000865D01*
X013270Y000983D02*
X013680Y000983D01*
X013776Y001102D02*
X013174Y001102D01*
X013055Y001220D02*
X013895Y001220D01*
X013926Y001411D02*
X014274Y001411D01*
X014520Y001657D01*
X014520Y002005D01*
X014274Y002251D01*
X013926Y002251D01*
X013680Y002005D01*
X013680Y001657D01*
X013926Y001411D01*
X013880Y001457D02*
X013126Y001457D01*
X013245Y001576D02*
X013762Y001576D01*
X013680Y001694D02*
X013310Y001694D01*
X013680Y001813D02*
X012890Y001813D01*
X012890Y001694D02*
X012810Y001694D01*
X012810Y001576D02*
X012890Y001576D01*
X012890Y001457D02*
X012810Y001457D01*
X013310Y001931D02*
X013680Y001931D01*
X013724Y002050D02*
X013282Y002050D01*
X013164Y002168D02*
X013843Y002168D01*
X014357Y002168D02*
X014843Y002168D01*
X014926Y002251D02*
X014680Y002005D01*
X014680Y001657D01*
X014926Y001411D01*
X015274Y001411D01*
X015520Y001657D01*
X015520Y002005D01*
X015274Y002251D01*
X014926Y002251D01*
X014904Y002308D02*
X015064Y002308D01*
X015064Y002606D01*
X015101Y002606D01*
X015101Y002308D01*
X015261Y002308D01*
X015302Y002318D01*
X015338Y002339D01*
X015368Y002369D01*
X015389Y002406D01*
X015400Y002446D01*
X015400Y002606D01*
X015101Y002606D01*
X015101Y002644D01*
X015064Y002644D01*
X015064Y002942D01*
X014904Y002942D01*
X014863Y002932D01*
X014827Y002911D01*
X014797Y002881D01*
X014776Y002844D01*
X014765Y002804D01*
X014765Y002644D01*
X015064Y002644D01*
X015064Y002606D01*
X014765Y002606D01*
X014765Y002446D01*
X014776Y002406D01*
X014797Y002369D01*
X014827Y002339D01*
X014863Y002318D01*
X014904Y002308D01*
X014776Y002405D02*
X003949Y002405D01*
X004067Y002524D02*
X014765Y002524D01*
X014765Y002761D02*
X004304Y002761D01*
X004423Y002879D02*
X014796Y002879D01*
X014865Y002998D02*
X004541Y002998D01*
X004660Y003116D02*
X014799Y003116D01*
X014799Y003235D02*
X014316Y003235D01*
X014350Y003268D02*
X014279Y003198D01*
X011818Y003198D01*
X011747Y003268D01*
X011747Y004352D01*
X011818Y004422D01*
X014279Y004422D01*
X014350Y004352D01*
X014350Y003268D01*
X014350Y003353D02*
X014799Y003353D01*
X014799Y003472D02*
X014350Y003472D01*
X014350Y003590D02*
X014832Y003590D01*
X014350Y003709D02*
X016219Y003709D01*
X016219Y003827D02*
X014350Y003827D01*
X014350Y003946D02*
X016219Y003946D01*
X016024Y004064D02*
X016023Y004064D01*
X016125Y004309D02*
X015632Y004310D01*
X015632Y004698D01*
X015588Y004811D01*
X015865Y004775D02*
X016219Y004775D01*
X016219Y004657D02*
X015865Y004657D01*
X016125Y004894D02*
X016328Y004894D01*
X016447Y005012D02*
X016203Y005012D01*
X016215Y005131D02*
X016482Y005131D01*
X016482Y005249D02*
X016169Y005249D01*
X015950Y005094D02*
X006387Y005098D01*
X003624Y002335D01*
X003074Y002335D01*
X003742Y002761D02*
X003795Y002761D01*
X003742Y002879D02*
X003914Y002879D01*
X004032Y002998D02*
X003676Y002998D01*
X003656Y003091D02*
X003814Y003149D01*
X003967Y003220D01*
X004113Y003304D01*
X004251Y003401D01*
X004380Y003509D01*
X004500Y003629D01*
X004608Y003758D01*
X004705Y003896D01*
X004789Y004042D01*
X004860Y004195D01*
X004918Y004354D01*
X004962Y004517D01*
X004991Y004683D01*
X005006Y004851D01*
X005006Y004875D01*
X003134Y004875D01*
X003134Y003003D01*
X003158Y003003D01*
X003327Y003018D01*
X003493Y003047D01*
X003656Y003091D01*
X003724Y003116D02*
X004151Y003116D01*
X004269Y003235D02*
X003992Y003235D01*
X004183Y003353D02*
X004388Y003353D01*
X004335Y003472D02*
X004506Y003472D01*
X004461Y003590D02*
X004625Y003590D01*
X004567Y003709D02*
X004743Y003709D01*
X004656Y003827D02*
X004862Y003827D01*
X004980Y003946D02*
X004733Y003946D01*
X004799Y004064D02*
X005099Y004064D01*
X005217Y004183D02*
X004855Y004183D01*
X004899Y004301D02*
X005336Y004301D01*
X005454Y004420D02*
X004936Y004420D01*
X004966Y004538D02*
X005573Y004538D01*
X005691Y004657D02*
X004986Y004657D01*
X004999Y004775D02*
X005810Y004775D01*
X005928Y004894D02*
X003134Y004894D01*
X003134Y004875D02*
X003134Y004995D01*
X003014Y004995D01*
X003014Y004875D01*
X001142Y004875D01*
X001142Y004851D01*
X001157Y004683D01*
X001186Y004517D01*
X001230Y004354D01*
X001288Y004195D01*
X001359Y004042D01*
X001443Y003896D01*
X001540Y003758D01*
X001649Y003629D01*
X001768Y003509D01*
X001897Y003401D01*
X002035Y003304D01*
X002181Y003220D01*
X002334Y003149D01*
X002493Y003091D01*
X002656Y003047D01*
X002822Y003018D01*
X002990Y003003D01*
X003014Y003003D01*
X003014Y004875D01*
X003134Y004875D01*
X003134Y004775D02*
X003014Y004775D01*
X003014Y004657D02*
X003134Y004657D01*
X003134Y004538D02*
X003014Y004538D01*
X003014Y004420D02*
X003134Y004420D01*
X003134Y004301D02*
X003014Y004301D01*
X003014Y004183D02*
X003134Y004183D01*
X003134Y004064D02*
X003014Y004064D01*
X003014Y003946D02*
X003134Y003946D01*
X003134Y003827D02*
X003014Y003827D01*
X003014Y003709D02*
X003134Y003709D01*
X003134Y003590D02*
X003014Y003590D01*
X003014Y003472D02*
X003134Y003472D01*
X003134Y003353D02*
X003014Y003353D01*
X003014Y003235D02*
X003134Y003235D01*
X003134Y003116D02*
X003014Y003116D01*
X002472Y002998D02*
X000809Y002998D01*
X000809Y003116D02*
X002424Y003116D01*
X002407Y002879D02*
X000809Y002879D01*
X000809Y002761D02*
X002407Y002761D01*
X002407Y002642D02*
X000809Y002642D01*
X000809Y002524D02*
X002407Y002524D01*
X002407Y002405D02*
X000809Y002405D01*
X000809Y002287D02*
X002407Y002287D01*
X002407Y002168D02*
X000809Y002168D01*
X000809Y002050D02*
X002407Y002050D01*
X002343Y001457D02*
X004630Y001457D01*
X004676Y001251D02*
X004430Y001005D01*
X004430Y000657D01*
X004676Y000411D01*
X005024Y000411D01*
X005270Y000657D01*
X005270Y001005D01*
X005024Y001251D01*
X004676Y001251D01*
X004645Y001220D02*
X002400Y001220D01*
X002400Y001102D02*
X004526Y001102D01*
X004430Y000983D02*
X002392Y000983D01*
X002343Y000865D02*
X004430Y000865D01*
X004430Y000746D02*
X002294Y000746D01*
X002199Y000628D02*
X004460Y000628D01*
X004578Y000509D02*
X002080Y000509D01*
X001833Y000391D02*
X016890Y000391D01*
X016909Y000371D02*
X017060Y000371D01*
X017060Y000791D01*
X017140Y000791D01*
X017140Y000371D01*
X017291Y000371D01*
X017560Y000641D01*
X017560Y000791D01*
X017140Y000791D01*
X017140Y000871D01*
X017560Y000871D01*
X017560Y001022D01*
X017291Y001291D01*
X017140Y001291D01*
X017140Y000871D01*
X017060Y000871D01*
X017060Y000791D01*
X016640Y000791D01*
X016640Y000641D01*
X016909Y000371D01*
X017060Y000391D02*
X017140Y000391D01*
X017140Y000509D02*
X017060Y000509D01*
X017060Y000628D02*
X017140Y000628D01*
X017140Y000746D02*
X017060Y000746D01*
X017060Y000865D02*
X016520Y000865D01*
X016520Y000983D02*
X016640Y000983D01*
X016640Y001022D02*
X016640Y000871D01*
X017060Y000871D01*
X017060Y001291D01*
X016909Y001291D01*
X016640Y001022D01*
X016720Y001102D02*
X016424Y001102D01*
X016520Y001005D02*
X016274Y001251D01*
X015926Y001251D01*
X015680Y001005D01*
X015680Y000657D01*
X015926Y000411D01*
X016274Y000411D01*
X016520Y000657D01*
X016520Y001005D01*
X016520Y000746D02*
X016640Y000746D01*
X016653Y000628D02*
X016490Y000628D01*
X016372Y000509D02*
X016772Y000509D01*
X017140Y000865D02*
X017680Y000865D01*
X017680Y000983D02*
X017560Y000983D01*
X017680Y001005D02*
X017680Y000657D01*
X017926Y000411D01*
X018274Y000411D01*
X018520Y000657D01*
X018520Y001005D01*
X018274Y001251D01*
X017926Y001251D01*
X017680Y001005D01*
X017776Y001102D02*
X017480Y001102D01*
X017362Y001220D02*
X017895Y001220D01*
X017926Y001411D02*
X018274Y001411D01*
X018520Y001657D01*
X018520Y002005D01*
X018274Y002251D01*
X017926Y002251D01*
X017680Y002005D01*
X017680Y001657D01*
X017926Y001411D01*
X017880Y001457D02*
X017376Y001457D01*
X017291Y001371D02*
X017140Y001371D01*
X017140Y001791D01*
X017060Y001791D01*
X017060Y001371D01*
X016909Y001371D01*
X016640Y001641D01*
X016640Y001791D01*
X017060Y001791D01*
X017060Y001871D01*
X016640Y001871D01*
X016640Y002022D01*
X016909Y002291D01*
X017060Y002291D01*
X017060Y001871D01*
X017140Y001871D01*
X017560Y001871D01*
X017560Y002022D01*
X017291Y002291D01*
X017140Y002291D01*
X017140Y001871D01*
X017140Y001791D01*
X017560Y001791D01*
X017560Y001641D01*
X017291Y001371D01*
X017140Y001457D02*
X017060Y001457D01*
X017060Y001576D02*
X017140Y001576D01*
X017140Y001694D02*
X017060Y001694D01*
X017060Y001813D02*
X016520Y001813D01*
X016520Y001931D02*
X016640Y001931D01*
X016668Y002050D02*
X016476Y002050D01*
X016520Y002005D02*
X016274Y002251D01*
X015926Y002251D01*
X015680Y002005D01*
X015680Y001657D01*
X015926Y001411D01*
X016274Y001411D01*
X016520Y001657D01*
X016520Y002005D01*
X016357Y002168D02*
X016786Y002168D01*
X016905Y002287D02*
X013045Y002287D01*
X014476Y002050D02*
X014724Y002050D01*
X014680Y001931D02*
X014520Y001931D01*
X014520Y001813D02*
X014680Y001813D01*
X014680Y001694D02*
X014520Y001694D01*
X014438Y001576D02*
X014762Y001576D01*
X014880Y001457D02*
X014320Y001457D01*
X014305Y001220D02*
X014895Y001220D01*
X014926Y001251D02*
X014680Y001005D01*
X014680Y000657D01*
X014926Y000411D01*
X015274Y000411D01*
X015520Y000657D01*
X015520Y001005D01*
X015274Y001251D01*
X014926Y001251D01*
X014776Y001102D02*
X014424Y001102D01*
X014520Y000983D02*
X014680Y000983D01*
X014680Y000865D02*
X014520Y000865D01*
X014520Y000746D02*
X014680Y000746D01*
X014710Y000628D02*
X014490Y000628D01*
X014372Y000509D02*
X014828Y000509D01*
X015372Y000509D02*
X015828Y000509D01*
X015710Y000628D02*
X015490Y000628D01*
X015520Y000746D02*
X015680Y000746D01*
X015680Y000865D02*
X015520Y000865D01*
X015520Y000983D02*
X015680Y000983D01*
X015776Y001102D02*
X015424Y001102D01*
X015305Y001220D02*
X015895Y001220D01*
X015880Y001457D02*
X015320Y001457D01*
X015438Y001576D02*
X015762Y001576D01*
X015680Y001694D02*
X015520Y001694D01*
X015520Y001813D02*
X015680Y001813D01*
X015680Y001931D02*
X015520Y001931D01*
X015476Y002050D02*
X015724Y002050D01*
X015843Y002168D02*
X015357Y002168D01*
X015389Y002405D02*
X015418Y002405D01*
X015405Y002524D02*
X015400Y002524D01*
X015405Y002642D02*
X015101Y002642D01*
X015101Y002644D02*
X015400Y002644D01*
X015400Y002804D01*
X015389Y002844D01*
X015368Y002881D01*
X015338Y002911D01*
X015302Y002932D01*
X015261Y002942D01*
X015101Y002942D01*
X015101Y002644D01*
X015064Y002642D02*
X004186Y002642D01*
X004778Y003235D02*
X011781Y003235D01*
X011747Y003353D02*
X004897Y003353D01*
X005015Y003472D02*
X011747Y003472D01*
X011747Y003590D02*
X005134Y003590D01*
X005252Y003709D02*
X011747Y003709D01*
X011747Y003827D02*
X005371Y003827D01*
X005489Y003946D02*
X011747Y003946D01*
X011747Y004064D02*
X005608Y004064D01*
X005726Y004183D02*
X011747Y004183D01*
X011747Y004301D02*
X005845Y004301D01*
X005963Y004420D02*
X011815Y004420D01*
X014282Y004420D02*
X014799Y004420D01*
X014799Y004301D02*
X014350Y004301D01*
X014350Y004183D02*
X014799Y004183D01*
X014799Y004064D02*
X014350Y004064D01*
X014719Y004538D02*
X006082Y004538D01*
X006200Y004657D02*
X014670Y004657D01*
X014670Y004775D02*
X006319Y004775D01*
X006437Y004894D02*
X014670Y004894D01*
X015006Y004830D02*
X015305Y004830D01*
X015305Y004914D01*
X015310Y004914D01*
X015310Y004627D01*
X015304Y004627D01*
X015305Y004632D01*
X015305Y004792D01*
X015006Y004792D01*
X015006Y004830D01*
X015305Y004775D02*
X015310Y004775D01*
X015305Y004657D02*
X015310Y004657D01*
X015305Y004894D02*
X015310Y004894D01*
X015412Y004348D02*
X015411Y004310D01*
X015632Y004310D01*
X016399Y004710D02*
X016399Y003510D01*
X016199Y003310D01*
X015683Y003310D01*
X015683Y002909D01*
X015683Y002625D01*
X015960Y002642D02*
X024570Y002642D01*
X024570Y002524D02*
X015960Y002524D01*
X015947Y002405D02*
X022931Y002405D01*
X023065Y002461D02*
X022771Y002339D01*
X022545Y002113D01*
X022424Y001819D01*
X022424Y001501D01*
X022545Y001207D01*
X022771Y000981D01*
X023065Y000859D01*
X023383Y000859D01*
X023678Y000981D01*
X023903Y001207D01*
X024025Y001501D01*
X024025Y001819D01*
X023903Y002113D01*
X023678Y002339D01*
X023383Y002461D01*
X023065Y002461D01*
X022718Y002287D02*
X021295Y002287D01*
X021291Y002291D02*
X021140Y002291D01*
X021140Y001871D01*
X021560Y001871D01*
X021560Y002022D01*
X021291Y002291D01*
X021140Y002287D02*
X021060Y002287D01*
X021060Y002291D02*
X020909Y002291D01*
X020640Y002022D01*
X020640Y001871D01*
X021060Y001871D01*
X021060Y001791D01*
X021140Y001791D01*
X021140Y001371D01*
X021291Y001371D01*
X021560Y001641D01*
X021560Y001791D01*
X021140Y001791D01*
X021140Y001871D01*
X021060Y001871D01*
X021060Y002291D01*
X021060Y002168D02*
X021140Y002168D01*
X021140Y002050D02*
X021060Y002050D01*
X021060Y001931D02*
X021140Y001931D01*
X021140Y001813D02*
X022424Y001813D01*
X022424Y001694D02*
X021560Y001694D01*
X021495Y001576D02*
X022424Y001576D01*
X022442Y001457D02*
X021376Y001457D01*
X021274Y001251D02*
X020926Y001251D01*
X020680Y001005D01*
X020680Y000657D01*
X020926Y000411D01*
X021274Y000411D01*
X021520Y000657D01*
X021520Y001005D01*
X021274Y001251D01*
X021305Y001220D02*
X022540Y001220D01*
X022491Y001339D02*
X002392Y001339D01*
X002156Y003235D02*
X000809Y003235D01*
X000809Y003353D02*
X001966Y003353D01*
X001813Y003472D02*
X000809Y003472D01*
X000809Y003590D02*
X001687Y003590D01*
X001582Y003709D02*
X000809Y003709D01*
X000809Y003827D02*
X001492Y003827D01*
X001415Y003946D02*
X000809Y003946D01*
X000809Y004064D02*
X001349Y004064D01*
X001294Y004183D02*
X000809Y004183D01*
X000809Y004301D02*
X001249Y004301D01*
X001212Y004420D02*
X000809Y004420D01*
X000809Y004538D02*
X001183Y004538D01*
X001162Y004657D02*
X000809Y004657D01*
X000809Y004775D02*
X001149Y004775D01*
X001142Y004995D02*
X003014Y004995D01*
X003014Y006867D01*
X002990Y006867D01*
X002822Y006852D01*
X002656Y006823D01*
X002493Y006779D01*
X002334Y006721D01*
X002181Y006650D01*
X002035Y006566D01*
X001897Y006469D01*
X001768Y006361D01*
X001649Y006241D01*
X001540Y006112D01*
X001443Y005974D01*
X001359Y005828D01*
X001288Y005675D01*
X001230Y005516D01*
X001186Y005353D01*
X001157Y005187D01*
X001142Y005019D01*
X001142Y004995D01*
X001142Y005012D02*
X000809Y005012D01*
X000809Y004894D02*
X003014Y004894D01*
X003014Y005012D02*
X003134Y005012D01*
X003134Y004995D02*
X003134Y006867D01*
X003158Y006867D01*
X003327Y006852D01*
X003493Y006823D01*
X003656Y006779D01*
X003814Y006721D01*
X003967Y006650D01*
X004113Y006566D01*
X004251Y006469D01*
X004380Y006361D01*
X004500Y006241D01*
X004608Y006112D01*
X004705Y005974D01*
X004789Y005828D01*
X004860Y005675D01*
X004918Y005516D01*
X004962Y005353D01*
X004991Y005187D01*
X005006Y005019D01*
X005006Y004995D01*
X003134Y004995D01*
X003134Y005131D02*
X003014Y005131D01*
X003014Y005249D02*
X003134Y005249D01*
X003134Y005368D02*
X003014Y005368D01*
X003014Y005486D02*
X003134Y005486D01*
X003134Y005605D02*
X003014Y005605D01*
X003014Y005723D02*
X003134Y005723D01*
X003134Y005842D02*
X003014Y005842D01*
X003014Y005960D02*
X003134Y005960D01*
X003134Y006079D02*
X003014Y006079D01*
X003014Y006197D02*
X003134Y006197D01*
X003134Y006316D02*
X003014Y006316D01*
X003014Y006434D02*
X003134Y006434D01*
X003134Y006553D02*
X003014Y006553D01*
X003014Y006671D02*
X003134Y006671D01*
X003134Y006790D02*
X003014Y006790D01*
X002532Y006790D02*
X000809Y006790D01*
X000809Y006908D02*
X002436Y006908D01*
X002407Y006938D02*
X002477Y006868D01*
X003671Y006868D01*
X003742Y006938D01*
X003742Y008132D01*
X003671Y008202D01*
X002477Y008202D01*
X002407Y008132D01*
X002407Y006938D01*
X002407Y007027D02*
X000809Y007027D01*
X000809Y007145D02*
X002407Y007145D01*
X002407Y007264D02*
X000809Y007264D01*
X000809Y007382D02*
X002407Y007382D01*
X002407Y007501D02*
X000809Y007501D01*
X000809Y007619D02*
X002407Y007619D01*
X002407Y007738D02*
X000809Y007738D01*
X000809Y007856D02*
X002407Y007856D01*
X002407Y007975D02*
X000809Y007975D01*
X000809Y008093D02*
X002407Y008093D01*
X003742Y008093D02*
X009518Y008093D01*
X009553Y008107D02*
X009456Y008067D01*
X009381Y007993D01*
X009341Y007895D01*
X009341Y007790D01*
X009381Y007692D01*
X009456Y007618D01*
X009553Y007578D01*
X009659Y007578D01*
X009756Y007618D01*
X009801Y007662D01*
X014949Y007662D01*
X014994Y007617D01*
X015091Y007577D01*
X015197Y007577D01*
X015294Y007617D01*
X015369Y007691D01*
X015409Y007789D01*
X015409Y007894D01*
X015369Y007992D01*
X015294Y008066D01*
X015197Y008107D01*
X015091Y008107D01*
X014994Y008066D01*
X014949Y008022D01*
X009801Y008022D01*
X009756Y008067D01*
X009659Y008107D01*
X009553Y008107D01*
X009694Y008093D02*
X015058Y008093D01*
X015230Y008093D02*
X022680Y008093D01*
X022680Y007975D02*
X018699Y007975D01*
X018697Y007982D02*
X018676Y008019D01*
X018646Y008048D01*
X018610Y008069D01*
X018569Y008080D01*
X018410Y008080D01*
X018410Y007782D01*
X018708Y007782D01*
X018708Y007941D01*
X018697Y007982D01*
X018708Y007856D02*
X022756Y007856D01*
X022680Y007932D02*
X022926Y007686D01*
X023274Y007686D01*
X023520Y007932D01*
X023520Y008280D01*
X023274Y008526D01*
X022926Y008526D01*
X022680Y008280D01*
X022680Y007932D01*
X022875Y007738D02*
X018708Y007738D01*
X018708Y007744D02*
X018410Y007744D01*
X018410Y007782D01*
X018372Y007782D01*
X018372Y008080D01*
X018212Y008080D01*
X018178Y008071D01*
X018144Y008080D01*
X017984Y008080D01*
X017984Y007782D01*
X017947Y007782D01*
X017947Y008080D01*
X017787Y008080D01*
X017746Y008069D01*
X017710Y008048D01*
X017680Y008019D01*
X017659Y007982D01*
X017648Y007941D01*
X017648Y007782D01*
X017947Y007782D01*
X017947Y007744D01*
X017984Y007744D01*
X017984Y007445D01*
X018144Y007445D01*
X018178Y007455D01*
X018212Y007445D01*
X018372Y007445D01*
X018372Y007744D01*
X018410Y007744D01*
X018410Y007445D01*
X018569Y007445D01*
X018610Y007456D01*
X018646Y007477D01*
X018676Y007507D01*
X018697Y007544D01*
X018708Y007584D01*
X018708Y007744D01*
X018708Y007619D02*
X024570Y007619D01*
X024570Y007501D02*
X024300Y007501D01*
X024274Y007526D02*
X023926Y007526D01*
X023680Y007280D01*
X023680Y006932D01*
X023926Y006686D01*
X024274Y006686D01*
X024520Y006932D01*
X024520Y007280D01*
X024274Y007526D01*
X024274Y007686D02*
X024520Y007932D01*
X024520Y008280D01*
X024274Y008526D01*
X023926Y008526D01*
X023680Y008280D01*
X023680Y007932D01*
X023926Y007686D01*
X024274Y007686D01*
X024325Y007738D02*
X024570Y007738D01*
X024570Y007856D02*
X024444Y007856D01*
X024520Y007975D02*
X024570Y007975D01*
X024570Y008093D02*
X024520Y008093D01*
X024520Y008212D02*
X024570Y008212D01*
X024570Y008330D02*
X024470Y008330D01*
X024570Y008449D02*
X024352Y008449D01*
X024570Y008567D02*
X000809Y008567D01*
X000809Y008449D02*
X022848Y008449D01*
X022730Y008330D02*
X000809Y008330D01*
X000809Y008212D02*
X022680Y008212D01*
X022926Y008686D02*
X023274Y008686D01*
X023520Y008932D01*
X023520Y009280D01*
X023274Y009526D01*
X022926Y009526D01*
X022680Y009280D01*
X022680Y008932D01*
X022926Y008686D01*
X022808Y008804D02*
X015384Y008804D01*
X015384Y008789D02*
X015384Y008894D01*
X015344Y008992D01*
X015269Y009066D01*
X015172Y009107D01*
X015066Y009107D01*
X014969Y009066D01*
X014925Y009022D01*
X011636Y009027D01*
X011356Y009308D01*
X011389Y009308D01*
X011487Y009348D01*
X011561Y009422D01*
X011602Y009520D01*
X011602Y009583D01*
X011948Y009929D01*
X011948Y009891D01*
X011988Y009793D01*
X012062Y009719D01*
X012160Y009679D01*
X012265Y009679D01*
X012363Y009719D01*
X012400Y009756D01*
X012437Y009719D01*
X012535Y009679D01*
X012640Y009679D01*
X012738Y009719D01*
X012775Y009756D01*
X012812Y009719D01*
X012910Y009679D01*
X013015Y009679D01*
X013113Y009719D01*
X013187Y009793D01*
X013227Y009891D01*
X013227Y009954D01*
X013690Y010416D01*
X013753Y010416D01*
X013850Y010456D01*
X013925Y010531D01*
X013965Y010628D01*
X013965Y010734D01*
X013925Y010831D01*
X013850Y010906D01*
X013753Y010946D01*
X013647Y010946D01*
X013550Y010906D01*
X013512Y010868D01*
X013475Y010906D01*
X013378Y010946D01*
X013272Y010946D01*
X013175Y010906D01*
X013137Y010868D01*
X013100Y010906D01*
X013003Y010946D01*
X012897Y010946D01*
X012800Y010906D01*
X012725Y010831D01*
X012685Y010734D01*
X012685Y010671D01*
X012330Y010316D01*
X012330Y011849D01*
X012565Y012084D01*
X012565Y012428D01*
X012322Y012671D01*
X011978Y012671D01*
X011735Y012428D01*
X011735Y012084D01*
X011970Y011849D01*
X011970Y010460D01*
X011347Y009837D01*
X011284Y009837D01*
X011187Y009797D01*
X011112Y009723D01*
X011072Y009625D01*
X011072Y009591D01*
X009308Y011353D01*
X009308Y011467D01*
X009261Y011581D01*
X009175Y011667D01*
X009061Y011714D01*
X008939Y011714D01*
X008825Y011667D01*
X008739Y011581D01*
X008692Y011467D01*
X008692Y011345D01*
X008739Y011232D01*
X008825Y011145D01*
X008939Y011098D01*
X009054Y011098D01*
X011434Y008720D01*
X011487Y008668D01*
X011487Y008667D01*
X011562Y008668D01*
X014924Y008662D01*
X014969Y008617D01*
X015066Y008577D01*
X015172Y008577D01*
X015269Y008617D01*
X015344Y008691D01*
X015384Y008789D01*
X015338Y008686D02*
X024570Y008686D01*
X024570Y008804D02*
X024392Y008804D01*
X024274Y008686D02*
X024520Y008932D01*
X024520Y009280D01*
X024274Y009526D01*
X023926Y009526D01*
X023680Y009280D01*
X023680Y008932D01*
X023926Y008686D01*
X024274Y008686D01*
X024510Y008923D02*
X024570Y008923D01*
X024570Y009041D02*
X024520Y009041D01*
X024520Y009160D02*
X024570Y009160D01*
X024570Y009278D02*
X024520Y009278D01*
X024570Y009397D02*
X024404Y009397D01*
X024285Y009515D02*
X024570Y009515D01*
X024570Y009634D02*
X011652Y009634D01*
X011600Y009515D02*
X022915Y009515D01*
X022796Y009397D02*
X011535Y009397D01*
X011385Y009278D02*
X022680Y009278D01*
X022680Y009160D02*
X011504Y009160D01*
X011623Y009041D02*
X014944Y009041D01*
X015119Y008842D02*
X011562Y008848D01*
X009000Y011406D01*
X008714Y011293D02*
X006116Y011293D01*
X006069Y011340D02*
X006243Y011165D01*
X006337Y010937D01*
X009215Y010937D01*
X009334Y010819D02*
X006337Y010819D01*
X006337Y010937D02*
X006337Y010691D01*
X006243Y010463D01*
X009689Y010463D01*
X009571Y010582D02*
X006292Y010582D01*
X006337Y010700D02*
X009452Y010700D01*
X009724Y010937D02*
X011970Y010937D01*
X011970Y010819D02*
X009843Y010819D01*
X009962Y010700D02*
X011970Y010700D01*
X011970Y010582D02*
X010080Y010582D01*
X010199Y010463D02*
X011970Y010463D01*
X011854Y010345D02*
X010318Y010345D01*
X010436Y010226D02*
X011736Y010226D01*
X011617Y010108D02*
X010555Y010108D01*
X010673Y009989D02*
X011499Y009989D01*
X011380Y009871D02*
X010792Y009871D01*
X010911Y009752D02*
X011141Y009752D01*
X011075Y009634D02*
X011029Y009634D01*
X011337Y009573D02*
X012150Y010386D01*
X012150Y012256D01*
X011784Y012478D02*
X011516Y012478D01*
X011565Y012428D02*
X011322Y012671D01*
X010978Y012671D01*
X010735Y012428D01*
X010735Y012084D01*
X010978Y011841D01*
X011322Y011841D01*
X011565Y012084D01*
X011565Y012428D01*
X011565Y012359D02*
X011735Y012359D01*
X011735Y012241D02*
X011565Y012241D01*
X011565Y012122D02*
X011735Y012122D01*
X011815Y012004D02*
X011485Y012004D01*
X011366Y011885D02*
X011934Y011885D01*
X011970Y011767D02*
X000809Y011767D01*
X000809Y011885D02*
X007934Y011885D01*
X007978Y011841D02*
X007735Y012084D01*
X007735Y012428D01*
X007978Y012671D01*
X008322Y012671D01*
X008565Y012428D01*
X008565Y012084D01*
X008322Y011841D01*
X007978Y011841D01*
X007815Y012004D02*
X000809Y012004D01*
X000809Y012122D02*
X007735Y012122D01*
X007735Y012241D02*
X000809Y012241D01*
X000809Y012359D02*
X007735Y012359D01*
X007784Y012478D02*
X000809Y012478D01*
X000809Y012596D02*
X007903Y012596D01*
X007978Y012841D02*
X008322Y012841D01*
X008565Y013084D01*
X008565Y013428D01*
X008322Y013671D01*
X007978Y013671D01*
X007735Y013428D01*
X007735Y013084D01*
X007978Y012841D01*
X007867Y012952D02*
X000809Y012952D01*
X000809Y013070D02*
X007749Y013070D01*
X007735Y013189D02*
X000809Y013189D01*
X000809Y013307D02*
X002198Y013307D01*
X002231Y013274D02*
X002373Y013215D01*
X002527Y013215D01*
X002669Y013274D01*
X002778Y013383D01*
X002837Y013525D01*
X002837Y013679D01*
X002778Y013822D01*
X002669Y013931D01*
X002527Y013990D01*
X002373Y013990D01*
X002231Y013931D01*
X002122Y013822D01*
X002063Y013679D01*
X002063Y013525D01*
X002122Y013383D01*
X002231Y013274D01*
X002104Y013426D02*
X000809Y013426D01*
X000809Y013544D02*
X002063Y013544D01*
X002063Y013663D02*
X000809Y013663D01*
X000809Y013781D02*
X002105Y013781D01*
X002200Y013900D02*
X000809Y013900D01*
X000809Y014018D02*
X005149Y014018D01*
X005164Y013982D02*
X005250Y013895D01*
X005364Y013848D01*
X005486Y013848D01*
X005600Y013895D01*
X005681Y013976D01*
X006335Y013976D01*
X006357Y013998D01*
X006477Y013998D01*
X006590Y014045D01*
X006677Y014132D01*
X006724Y014245D01*
X006724Y014367D01*
X006677Y014481D01*
X006590Y014567D01*
X006477Y014614D01*
X006354Y014614D01*
X006241Y014567D01*
X006154Y014481D01*
X006107Y014367D01*
X006107Y014336D01*
X005681Y014336D01*
X005600Y014417D01*
X005486Y014464D01*
X005364Y014464D01*
X005250Y014417D01*
X005164Y014331D01*
X005117Y014217D01*
X005117Y014095D01*
X005164Y013982D01*
X005246Y013900D02*
X002700Y013900D01*
X002795Y013781D02*
X011970Y013781D01*
X011970Y013663D02*
X011735Y013428D01*
X011735Y013084D01*
X011978Y012841D01*
X012322Y012841D01*
X012565Y013084D01*
X012565Y013428D01*
X012330Y013664D01*
X012329Y015129D01*
X012470Y015270D01*
X012470Y015618D01*
X012224Y015864D01*
X011876Y015864D01*
X011630Y015618D01*
X011630Y015270D01*
X011876Y015024D01*
X011969Y015024D01*
X011970Y013663D01*
X011969Y013663D02*
X011387Y013663D01*
X011339Y013711D02*
X011188Y013711D01*
X011188Y013295D01*
X011112Y013295D01*
X011112Y013711D01*
X010961Y013711D01*
X010695Y013445D01*
X010695Y013295D01*
X011112Y013295D01*
X011112Y013218D01*
X011188Y013218D01*
X011188Y012801D01*
X011339Y012801D01*
X011605Y013068D01*
X011605Y013218D01*
X011188Y013218D01*
X011188Y013295D01*
X011605Y013295D01*
X011605Y013445D01*
X011339Y013711D01*
X011188Y013663D02*
X011112Y013663D01*
X011112Y013544D02*
X011188Y013544D01*
X011188Y013426D02*
X011112Y013426D01*
X011112Y013307D02*
X011188Y013307D01*
X011112Y013218D02*
X010695Y013218D01*
X010695Y013068D01*
X010961Y012801D01*
X011112Y012801D01*
X011112Y013218D01*
X011112Y013189D02*
X011188Y013189D01*
X011188Y013070D02*
X011112Y013070D01*
X011112Y012952D02*
X011188Y012952D01*
X011188Y012833D02*
X011112Y012833D01*
X010929Y012833D02*
X010371Y012833D01*
X010339Y012801D02*
X010605Y013068D01*
X010605Y013218D01*
X010188Y013218D01*
X010188Y012801D01*
X010339Y012801D01*
X010322Y012671D02*
X009978Y012671D01*
X009735Y012428D01*
X009735Y012084D01*
X009978Y011841D01*
X010322Y011841D01*
X010565Y012084D01*
X010565Y012428D01*
X010322Y012671D01*
X010397Y012596D02*
X010903Y012596D01*
X010784Y012478D02*
X010516Y012478D01*
X010565Y012359D02*
X010735Y012359D01*
X010735Y012241D02*
X010565Y012241D01*
X010565Y012122D02*
X010735Y012122D01*
X010815Y012004D02*
X010485Y012004D01*
X010366Y011885D02*
X010934Y011885D01*
X011397Y012596D02*
X011903Y012596D01*
X011867Y012952D02*
X011489Y012952D01*
X011605Y013070D02*
X011749Y013070D01*
X011735Y013189D02*
X011605Y013189D01*
X011605Y013307D02*
X011735Y013307D01*
X011735Y013426D02*
X011605Y013426D01*
X011506Y013544D02*
X011851Y013544D01*
X011970Y013900D02*
X005604Y013900D01*
X005425Y014156D02*
X006261Y014156D01*
X006265Y014160D01*
X006415Y014306D01*
X006166Y014492D02*
X000809Y014492D01*
X000809Y014374D02*
X005207Y014374D01*
X005132Y014255D02*
X000809Y014255D01*
X000809Y014137D02*
X005117Y014137D01*
X005643Y014374D02*
X006110Y014374D01*
X006345Y014611D02*
X000809Y014611D01*
X000809Y014729D02*
X011969Y014729D01*
X011969Y014611D02*
X006486Y014611D01*
X006665Y014492D02*
X011969Y014492D01*
X011970Y014374D02*
X006721Y014374D01*
X006724Y014255D02*
X011970Y014255D01*
X011970Y014137D02*
X006679Y014137D01*
X006525Y014018D02*
X011970Y014018D01*
X012330Y014018D02*
X021641Y014018D01*
X021641Y014070D02*
X021641Y013919D01*
X021911Y013650D01*
X022061Y013650D01*
X022061Y014070D01*
X021641Y014070D01*
X021641Y014150D02*
X022061Y014150D01*
X022061Y014070D01*
X022141Y014070D01*
X022141Y013650D01*
X022292Y013650D01*
X022561Y013919D01*
X022561Y014070D01*
X022141Y014070D01*
X022141Y014150D01*
X022061Y014150D01*
X022061Y014570D01*
X021911Y014570D01*
X021641Y014301D01*
X021641Y014150D01*
X021641Y014255D02*
X012330Y014255D01*
X012330Y014137D02*
X022061Y014137D01*
X022141Y014137D02*
X022680Y014137D01*
X022680Y014255D02*
X022561Y014255D01*
X022561Y014301D02*
X022292Y014570D01*
X022141Y014570D01*
X022141Y014150D01*
X022561Y014150D01*
X022561Y014301D01*
X022488Y014374D02*
X022773Y014374D01*
X022680Y014280D02*
X022680Y013932D01*
X022926Y013686D01*
X023274Y013686D01*
X023520Y013932D01*
X023520Y014280D01*
X023274Y014526D01*
X022926Y014526D01*
X022680Y014280D01*
X022680Y014018D02*
X022561Y014018D01*
X022541Y013900D02*
X022713Y013900D01*
X022831Y013781D02*
X022423Y013781D01*
X022304Y013663D02*
X024570Y013663D01*
X024570Y013781D02*
X024369Y013781D01*
X024274Y013686D02*
X024520Y013932D01*
X024520Y014280D01*
X024274Y014526D01*
X023926Y014526D01*
X023680Y014280D01*
X023680Y013932D01*
X023926Y013686D01*
X024274Y013686D01*
X024291Y013566D02*
X024140Y013566D01*
X024140Y013146D01*
X024560Y013146D01*
X024560Y013297D01*
X024291Y013566D01*
X024313Y013544D02*
X024570Y013544D01*
X024570Y013426D02*
X024431Y013426D01*
X024550Y013307D02*
X024570Y013307D01*
X024560Y013189D02*
X024570Y013189D01*
X024570Y013070D02*
X024140Y013070D01*
X024140Y013066D02*
X024140Y013146D01*
X024060Y013146D01*
X024060Y013066D01*
X024140Y013066D01*
X024140Y012646D01*
X024291Y012646D01*
X024560Y012916D01*
X024560Y013066D01*
X024140Y013066D01*
X024060Y013066D02*
X024060Y012646D01*
X023909Y012646D01*
X023640Y012916D01*
X023640Y013066D01*
X024060Y013066D01*
X024060Y013070D02*
X023140Y013070D01*
X023140Y013066D02*
X023140Y013146D01*
X023560Y013146D01*
X023560Y013297D01*
X023291Y013566D01*
X023140Y013566D01*
X023140Y013146D01*
X023060Y013146D01*
X023060Y013066D01*
X023140Y013066D01*
X023140Y012646D01*
X023291Y012646D01*
X023560Y012916D01*
X023560Y013066D01*
X023140Y013066D01*
X023060Y013066D02*
X023060Y012646D01*
X022909Y012646D01*
X022640Y012916D01*
X022640Y013066D01*
X023060Y013066D01*
X023060Y013070D02*
X012551Y013070D01*
X012565Y013189D02*
X022640Y013189D01*
X022640Y013146D02*
X023060Y013146D01*
X023060Y013566D01*
X022909Y013566D01*
X022640Y013297D01*
X022640Y013146D01*
X022650Y013307D02*
X012565Y013307D01*
X012565Y013426D02*
X022769Y013426D01*
X022887Y013544D02*
X012449Y013544D01*
X012331Y013663D02*
X021898Y013663D01*
X022061Y013663D02*
X022141Y013663D01*
X022141Y013781D02*
X022061Y013781D01*
X022061Y013900D02*
X022141Y013900D01*
X022141Y014018D02*
X022061Y014018D01*
X022061Y014255D02*
X022141Y014255D01*
X022141Y014374D02*
X022061Y014374D01*
X022061Y014492D02*
X022141Y014492D01*
X022370Y014492D02*
X022892Y014492D01*
X023308Y014492D02*
X023892Y014492D01*
X023773Y014374D02*
X023427Y014374D01*
X023520Y014255D02*
X023680Y014255D01*
X023680Y014137D02*
X023520Y014137D01*
X023520Y014018D02*
X023680Y014018D01*
X023713Y013900D02*
X023487Y013900D01*
X023369Y013781D02*
X023831Y013781D01*
X023909Y013566D02*
X023640Y013297D01*
X023640Y013146D01*
X024060Y013146D01*
X024060Y013566D01*
X023909Y013566D01*
X023887Y013544D02*
X023313Y013544D01*
X023431Y013426D02*
X023769Y013426D01*
X023650Y013307D02*
X023550Y013307D01*
X023560Y013189D02*
X023640Y013189D01*
X023640Y012952D02*
X023560Y012952D01*
X023477Y012833D02*
X023723Y012833D01*
X023841Y012715D02*
X023359Y012715D01*
X023274Y012526D02*
X022926Y012526D01*
X022680Y012280D01*
X022680Y011932D01*
X022926Y011686D01*
X023274Y011686D01*
X023520Y011932D01*
X023520Y012280D01*
X023274Y012526D01*
X023323Y012478D02*
X023877Y012478D01*
X023926Y012526D02*
X023680Y012280D01*
X023680Y011932D01*
X023926Y011686D01*
X024274Y011686D01*
X024520Y011932D01*
X024520Y012280D01*
X024274Y012526D01*
X023926Y012526D01*
X024060Y012715D02*
X024140Y012715D01*
X024140Y012833D02*
X024060Y012833D01*
X024060Y012952D02*
X024140Y012952D01*
X024140Y013189D02*
X024060Y013189D01*
X024060Y013307D02*
X024140Y013307D01*
X024140Y013426D02*
X024060Y013426D01*
X024060Y013544D02*
X024140Y013544D01*
X024487Y013900D02*
X024570Y013900D01*
X024570Y014018D02*
X024520Y014018D01*
X024520Y014137D02*
X024570Y014137D01*
X024570Y014255D02*
X024520Y014255D01*
X024570Y014374D02*
X024427Y014374D01*
X024308Y014492D02*
X024570Y014492D01*
X024570Y014611D02*
X012329Y014611D01*
X012329Y014729D02*
X024570Y014729D01*
X024570Y014848D02*
X012329Y014848D01*
X012329Y014966D02*
X024570Y014966D01*
X024570Y015085D02*
X022285Y015085D01*
X022224Y015024D02*
X022470Y015270D01*
X022470Y015618D01*
X022224Y015864D01*
X021876Y015864D01*
X021630Y015618D01*
X021630Y015270D01*
X021876Y015024D01*
X022224Y015024D01*
X022403Y015203D02*
X023339Y015203D01*
X023271Y015231D02*
X023565Y015109D01*
X023883Y015109D01*
X024178Y015231D01*
X024403Y015457D01*
X024525Y015751D01*
X024525Y016069D01*
X024403Y016363D01*
X024178Y016589D01*
X023883Y016711D01*
X023565Y016711D01*
X023271Y016589D01*
X023045Y016363D01*
X022924Y016069D01*
X022924Y015751D01*
X023045Y015457D01*
X023271Y015231D01*
X023180Y015322D02*
X022470Y015322D01*
X022470Y015440D02*
X023062Y015440D01*
X023003Y015559D02*
X022470Y015559D01*
X022411Y015677D02*
X022954Y015677D01*
X022924Y015796D02*
X022292Y015796D01*
X022224Y016024D02*
X022470Y016270D01*
X022470Y016618D01*
X022224Y016864D01*
X021876Y016864D01*
X021630Y016618D01*
X021630Y016270D01*
X021876Y016024D01*
X022224Y016024D01*
X022233Y016033D02*
X022924Y016033D01*
X022924Y015914D02*
X000809Y015914D01*
X000809Y015796D02*
X011808Y015796D01*
X011689Y015677D02*
X002635Y015677D01*
X002669Y015663D02*
X002527Y015722D01*
X002373Y015722D01*
X002231Y015663D01*
X002122Y015554D01*
X002063Y015412D01*
X002063Y015258D01*
X002122Y015115D01*
X002231Y015007D01*
X002373Y014948D01*
X002527Y014948D01*
X002669Y015007D01*
X002778Y015115D01*
X002837Y015258D01*
X002837Y015412D01*
X002778Y015554D01*
X002669Y015663D01*
X002774Y015559D02*
X011630Y015559D01*
X011630Y015440D02*
X002825Y015440D01*
X002837Y015322D02*
X011630Y015322D01*
X011697Y015203D02*
X002815Y015203D01*
X002747Y015085D02*
X011815Y015085D01*
X011969Y014966D02*
X002572Y014966D01*
X002328Y014966D02*
X000809Y014966D01*
X000809Y014848D02*
X011969Y014848D01*
X012329Y015085D02*
X012759Y015085D01*
X012859Y014984D02*
X012590Y015253D01*
X012590Y015404D01*
X013010Y015404D01*
X013010Y015484D01*
X013010Y015904D01*
X012859Y015904D01*
X012590Y015634D01*
X012590Y015484D01*
X013010Y015484D01*
X013090Y015484D01*
X013090Y015904D01*
X013241Y015904D01*
X013510Y015634D01*
X013510Y015484D01*
X013090Y015484D01*
X013090Y015404D01*
X013510Y015404D01*
X013510Y015253D01*
X013241Y014984D01*
X013090Y014984D01*
X013090Y015404D01*
X013010Y015404D01*
X013010Y014984D01*
X012859Y014984D01*
X013010Y015085D02*
X013090Y015085D01*
X013090Y015203D02*
X013010Y015203D01*
X013010Y015322D02*
X013090Y015322D01*
X013090Y015440D02*
X013630Y015440D01*
X013630Y015322D02*
X013510Y015322D01*
X013460Y015203D02*
X013697Y015203D01*
X013630Y015270D02*
X013876Y015024D01*
X014224Y015024D01*
X014470Y015270D01*
X014470Y015618D01*
X014224Y015864D01*
X013876Y015864D01*
X013630Y015618D01*
X013630Y015270D01*
X013815Y015085D02*
X013341Y015085D01*
X013010Y015440D02*
X012470Y015440D01*
X012470Y015322D02*
X012590Y015322D01*
X012640Y015203D02*
X012403Y015203D01*
X012149Y015348D02*
X012050Y015444D01*
X012149Y015348D02*
X012150Y013256D01*
X012433Y012952D02*
X022640Y012952D01*
X022723Y012833D02*
X011371Y012833D01*
X010811Y012952D02*
X010489Y012952D01*
X010605Y013070D02*
X010695Y013070D01*
X010695Y013189D02*
X010605Y013189D01*
X010605Y013295D02*
X010605Y013445D01*
X010339Y013711D01*
X010188Y013711D01*
X010188Y013295D01*
X010112Y013295D01*
X010112Y013711D01*
X009961Y013711D01*
X009695Y013445D01*
X009695Y013295D01*
X010112Y013295D01*
X010112Y013218D01*
X010188Y013218D01*
X010188Y013295D01*
X010605Y013295D01*
X010605Y013307D02*
X010695Y013307D01*
X010695Y013426D02*
X010605Y013426D01*
X010506Y013544D02*
X010794Y013544D01*
X010913Y013663D02*
X010387Y013663D01*
X010188Y013663D02*
X010112Y013663D01*
X010112Y013544D02*
X010188Y013544D01*
X010188Y013426D02*
X010112Y013426D01*
X010112Y013307D02*
X010188Y013307D01*
X010112Y013218D02*
X009695Y013218D01*
X009695Y013068D01*
X009961Y012801D01*
X010112Y012801D01*
X010112Y013218D01*
X010112Y013189D02*
X010188Y013189D01*
X010188Y013070D02*
X010112Y013070D01*
X010112Y012952D02*
X010188Y012952D01*
X010188Y012833D02*
X010112Y012833D01*
X009929Y012833D02*
X009371Y012833D01*
X009339Y012801D02*
X009605Y013068D01*
X009605Y013218D01*
X009188Y013218D01*
X009188Y012801D01*
X009339Y012801D01*
X009322Y012671D02*
X008978Y012671D01*
X008735Y012428D01*
X008735Y012084D01*
X008978Y011841D01*
X009322Y011841D01*
X009565Y012084D01*
X009565Y012428D01*
X009322Y012671D01*
X009397Y012596D02*
X009903Y012596D01*
X009784Y012478D02*
X009516Y012478D01*
X009565Y012359D02*
X009735Y012359D01*
X009735Y012241D02*
X009565Y012241D01*
X009565Y012122D02*
X009735Y012122D01*
X009815Y012004D02*
X009485Y012004D01*
X009366Y011885D02*
X009934Y011885D01*
X009282Y011530D02*
X011970Y011530D01*
X011970Y011648D02*
X009194Y011648D01*
X009308Y011411D02*
X011970Y011411D01*
X011970Y011293D02*
X009368Y011293D01*
X009487Y011174D02*
X011970Y011174D01*
X011970Y011056D02*
X009606Y011056D01*
X009096Y011056D02*
X006289Y011056D01*
X006234Y011174D02*
X008796Y011174D01*
X008692Y011411D02*
X005896Y011411D01*
X005841Y011434D02*
X005594Y011434D01*
X005366Y011340D01*
X005192Y011165D01*
X005149Y011061D01*
X005130Y011107D01*
X005086Y011181D01*
X005034Y011250D01*
X004972Y011311D01*
X004904Y011364D01*
X004829Y011407D01*
X004749Y011440D01*
X004665Y011463D01*
X004580Y011474D01*
X004575Y011474D01*
X004575Y010852D01*
X004498Y010852D01*
X004498Y010776D01*
X003876Y010776D01*
X003876Y010771D01*
X003888Y010685D01*
X003910Y010601D01*
X003943Y010521D01*
X003986Y010447D01*
X004039Y010378D01*
X004100Y010317D01*
X004169Y010264D01*
X004239Y010223D01*
X004169Y010183D01*
X004100Y010130D01*
X004039Y010069D01*
X003986Y010000D01*
X003943Y009925D01*
X003910Y009846D01*
X003888Y009762D01*
X003876Y009676D01*
X003876Y009671D01*
X004498Y009671D01*
X004498Y009594D01*
X004575Y009594D01*
X004575Y008973D01*
X004580Y008973D01*
X004665Y008984D01*
X004749Y009007D01*
X004829Y009040D01*
X004904Y009083D01*
X004972Y009136D01*
X005034Y009197D01*
X005086Y009265D01*
X005130Y009340D01*
X005149Y009386D01*
X005192Y009282D01*
X005366Y009107D01*
X005594Y009013D01*
X005841Y009013D01*
X006069Y009107D01*
X006243Y009282D01*
X006293Y009402D01*
X006371Y009370D01*
X006477Y009370D01*
X006574Y009410D01*
X006649Y009485D01*
X006689Y009582D01*
X006689Y009645D01*
X006924Y009880D01*
X006979Y009880D01*
X007024Y009835D01*
X007121Y009795D01*
X007227Y009795D01*
X007324Y009835D01*
X007399Y009910D01*
X007439Y010007D01*
X007439Y010113D01*
X007399Y010210D01*
X007324Y010285D01*
X007227Y010325D01*
X007121Y010325D01*
X007024Y010285D01*
X006979Y010240D01*
X006775Y010240D01*
X006435Y009900D01*
X006371Y009900D01*
X006292Y009867D01*
X006243Y009984D01*
X006069Y010159D01*
X005912Y010223D01*
X006069Y010288D01*
X006243Y010463D01*
X006125Y010345D02*
X009808Y010345D01*
X009927Y010226D02*
X007383Y010226D01*
X007439Y010108D02*
X010045Y010108D01*
X010164Y009989D02*
X007432Y009989D01*
X007359Y009871D02*
X010283Y009871D01*
X010401Y009752D02*
X006796Y009752D01*
X006689Y009634D02*
X010520Y009634D01*
X010639Y009515D02*
X006661Y009515D01*
X006541Y009397D02*
X010757Y009397D01*
X010876Y009278D02*
X006239Y009278D01*
X006291Y009397D02*
X006307Y009397D01*
X006121Y009160D02*
X010995Y009160D01*
X011113Y009041D02*
X005909Y009041D01*
X005526Y009041D02*
X004831Y009041D01*
X004996Y009160D02*
X005314Y009160D01*
X005196Y009278D02*
X005094Y009278D01*
X004575Y009278D02*
X004498Y009278D01*
X004498Y009160D02*
X004575Y009160D01*
X004575Y009041D02*
X004498Y009041D01*
X004498Y008973D02*
X004498Y009594D01*
X003876Y009594D01*
X003876Y009590D01*
X003888Y009504D01*
X003910Y009420D01*
X003943Y009340D01*
X003986Y009265D01*
X004039Y009197D01*
X004100Y009136D01*
X004169Y009083D01*
X004244Y009040D01*
X004324Y009007D01*
X004407Y008984D01*
X004493Y008973D01*
X004498Y008973D01*
X004242Y009041D02*
X000809Y009041D01*
X000809Y008923D02*
X011232Y008923D01*
X011350Y008804D02*
X000809Y008804D01*
X000809Y008686D02*
X011469Y008686D01*
X011487Y008668D02*
X011487Y008668D01*
X011771Y009752D02*
X012029Y009752D01*
X011956Y009871D02*
X011889Y009871D01*
X012213Y009944D02*
X012950Y010681D01*
X012685Y010700D02*
X012330Y010700D01*
X012330Y010582D02*
X012596Y010582D01*
X012477Y010463D02*
X012330Y010463D01*
X012330Y010345D02*
X012359Y010345D01*
X012588Y009944D02*
X013325Y010681D01*
X013250Y010937D02*
X013025Y010937D01*
X012875Y010937D02*
X012330Y010937D01*
X012330Y010819D02*
X012720Y010819D01*
X012330Y011056D02*
X015839Y011056D01*
X015875Y011019D02*
X015989Y010972D01*
X016111Y010972D01*
X016225Y011019D01*
X016311Y011106D01*
X016358Y011219D01*
X016358Y011342D01*
X016311Y011455D01*
X016225Y011542D01*
X016111Y011589D01*
X015989Y011589D01*
X015875Y011542D01*
X015794Y011461D01*
X014791Y011461D01*
X014751Y011500D01*
X014699Y011552D01*
X014698Y011552D01*
X014546Y011704D01*
X014546Y011817D01*
X014499Y011931D01*
X014412Y012017D01*
X014299Y012064D01*
X014176Y012064D01*
X014063Y012017D01*
X013976Y011931D01*
X013929Y011817D01*
X013929Y011695D01*
X013976Y011582D01*
X014063Y011495D01*
X014176Y011448D01*
X014292Y011448D01*
X014497Y011245D01*
X014536Y011206D01*
X014641Y011101D01*
X015794Y011101D01*
X015875Y011019D01*
X016050Y011281D02*
X014716Y011281D01*
X014624Y011373D01*
X014238Y011756D01*
X014028Y011530D02*
X012330Y011530D01*
X012330Y011648D02*
X013949Y011648D01*
X013929Y011767D02*
X012330Y011767D01*
X012366Y011885D02*
X013957Y011885D01*
X014049Y012004D02*
X012485Y012004D01*
X012565Y012122D02*
X022680Y012122D01*
X022680Y012004D02*
X014426Y012004D01*
X014518Y011885D02*
X022727Y011885D01*
X022846Y011767D02*
X014546Y011767D01*
X014602Y011648D02*
X024570Y011648D01*
X024570Y011530D02*
X016237Y011530D01*
X016329Y011411D02*
X022811Y011411D01*
X022926Y011526D02*
X022680Y011280D01*
X022680Y010932D01*
X022926Y010686D01*
X023274Y010686D01*
X023520Y010932D01*
X023520Y011280D01*
X023274Y011526D01*
X022926Y011526D01*
X022692Y011293D02*
X016358Y011293D01*
X016339Y011174D02*
X022680Y011174D01*
X022680Y011056D02*
X016261Y011056D01*
X015863Y011530D02*
X014722Y011530D01*
X014330Y011411D02*
X012330Y011411D01*
X012330Y011293D02*
X014449Y011293D01*
X014568Y011174D02*
X012330Y011174D01*
X013400Y010937D02*
X013625Y010937D01*
X013775Y010937D02*
X022680Y010937D01*
X022794Y010819D02*
X013930Y010819D01*
X013965Y010700D02*
X022912Y010700D01*
X022926Y010526D02*
X022680Y010280D01*
X022680Y009932D01*
X022926Y009686D01*
X023274Y009686D01*
X023520Y009932D01*
X023520Y010280D01*
X023274Y010526D01*
X022926Y010526D01*
X022863Y010463D02*
X013857Y010463D01*
X013946Y010582D02*
X024570Y010582D01*
X024570Y010700D02*
X024288Y010700D01*
X024274Y010686D02*
X024520Y010932D01*
X024520Y011280D01*
X024274Y011526D01*
X023926Y011526D01*
X023680Y011280D01*
X023680Y010932D01*
X023926Y010686D01*
X024274Y010686D01*
X024274Y010526D02*
X023926Y010526D01*
X023680Y010280D01*
X023680Y009932D01*
X023926Y009686D01*
X024274Y009686D01*
X024520Y009932D01*
X024520Y010280D01*
X024274Y010526D01*
X024337Y010463D02*
X024570Y010463D01*
X024570Y010345D02*
X024456Y010345D01*
X024520Y010226D02*
X024570Y010226D01*
X024570Y010108D02*
X024520Y010108D01*
X024520Y009989D02*
X024570Y009989D01*
X024570Y009871D02*
X024458Y009871D01*
X024570Y009752D02*
X024340Y009752D01*
X023860Y009752D02*
X023340Y009752D01*
X023458Y009871D02*
X023742Y009871D01*
X023680Y009989D02*
X023520Y009989D01*
X023520Y010108D02*
X023680Y010108D01*
X023680Y010226D02*
X023520Y010226D01*
X023456Y010345D02*
X023744Y010345D01*
X023863Y010463D02*
X023337Y010463D01*
X023288Y010700D02*
X023912Y010700D01*
X023794Y010819D02*
X023406Y010819D01*
X023520Y010937D02*
X023680Y010937D01*
X023680Y011056D02*
X023520Y011056D01*
X023520Y011174D02*
X023680Y011174D01*
X023692Y011293D02*
X023508Y011293D01*
X023389Y011411D02*
X023811Y011411D01*
X023846Y011767D02*
X023354Y011767D01*
X023473Y011885D02*
X023727Y011885D01*
X023680Y012004D02*
X023520Y012004D01*
X023520Y012122D02*
X023680Y012122D01*
X023680Y012241D02*
X023520Y012241D01*
X023441Y012359D02*
X023759Y012359D01*
X024323Y012478D02*
X024570Y012478D01*
X024570Y012596D02*
X012397Y012596D01*
X012516Y012478D02*
X022877Y012478D01*
X022759Y012359D02*
X012565Y012359D01*
X012565Y012241D02*
X022680Y012241D01*
X022841Y012715D02*
X000809Y012715D01*
X000809Y012833D02*
X008929Y012833D01*
X008961Y012801D02*
X009112Y012801D01*
X009112Y013218D01*
X009188Y013218D01*
X009188Y013295D01*
X009112Y013295D01*
X009112Y013711D01*
X008961Y013711D01*
X008695Y013445D01*
X008695Y013295D01*
X009112Y013295D01*
X009112Y013218D01*
X008695Y013218D01*
X008695Y013068D01*
X008961Y012801D01*
X009112Y012833D02*
X009188Y012833D01*
X009188Y012952D02*
X009112Y012952D01*
X009112Y013070D02*
X009188Y013070D01*
X009188Y013189D02*
X009112Y013189D01*
X009112Y013307D02*
X009188Y013307D01*
X009188Y013295D02*
X009188Y013711D01*
X009339Y013711D01*
X009605Y013445D01*
X009605Y013295D01*
X009188Y013295D01*
X009188Y013426D02*
X009112Y013426D01*
X009112Y013544D02*
X009188Y013544D01*
X009188Y013663D02*
X009112Y013663D01*
X008913Y013663D02*
X008331Y013663D01*
X008449Y013544D02*
X008794Y013544D01*
X008695Y013426D02*
X008565Y013426D01*
X008565Y013307D02*
X008695Y013307D01*
X008695Y013189D02*
X008565Y013189D01*
X008551Y013070D02*
X008695Y013070D01*
X008811Y012952D02*
X008433Y012952D01*
X008397Y012596D02*
X008903Y012596D01*
X008784Y012478D02*
X008516Y012478D01*
X008565Y012359D02*
X008735Y012359D01*
X008735Y012241D02*
X008565Y012241D01*
X008565Y012122D02*
X008735Y012122D01*
X008815Y012004D02*
X008485Y012004D01*
X008366Y011885D02*
X008934Y011885D01*
X008806Y011648D02*
X000809Y011648D01*
X000809Y011530D02*
X008718Y011530D01*
X009489Y012952D02*
X009811Y012952D01*
X009695Y013070D02*
X009605Y013070D01*
X009605Y013189D02*
X009695Y013189D01*
X009695Y013307D02*
X009605Y013307D01*
X009605Y013426D02*
X009695Y013426D01*
X009794Y013544D02*
X009506Y013544D01*
X009387Y013663D02*
X009913Y013663D01*
X007969Y013663D02*
X002837Y013663D01*
X002837Y013544D02*
X007851Y013544D01*
X007735Y013426D02*
X002796Y013426D01*
X002702Y013307D02*
X007735Y013307D01*
X006069Y011340D02*
X005841Y011434D01*
X005539Y011411D02*
X004820Y011411D01*
X004991Y011293D02*
X005319Y011293D01*
X005201Y011174D02*
X005091Y011174D01*
X004575Y011174D02*
X004498Y011174D01*
X004498Y011056D02*
X004575Y011056D01*
X004575Y010937D02*
X004498Y010937D01*
X004498Y010852D02*
X004498Y011474D01*
X004493Y011474D01*
X004407Y011463D01*
X004324Y011440D01*
X004244Y011407D01*
X004169Y011364D01*
X004100Y011311D01*
X004039Y011250D01*
X003986Y011181D01*
X003943Y011107D01*
X003910Y011027D01*
X003888Y010943D01*
X003876Y010857D01*
X003876Y010852D01*
X004498Y010852D01*
X004498Y010819D02*
X003358Y010819D01*
X003241Y010936D02*
X003477Y010699D01*
X003605Y010391D01*
X003605Y010056D01*
X003477Y009748D01*
X003241Y009511D01*
X002932Y009384D01*
X002598Y009384D01*
X002289Y009511D01*
X002053Y009748D01*
X001925Y010056D01*
X001925Y010391D01*
X002053Y010699D01*
X002289Y010936D01*
X002598Y011063D01*
X002932Y011063D01*
X003241Y010936D01*
X003237Y010937D02*
X003887Y010937D01*
X003922Y011056D02*
X002951Y011056D01*
X002579Y011056D02*
X000809Y011056D01*
X000809Y011174D02*
X003982Y011174D01*
X004082Y011293D02*
X000809Y011293D01*
X000809Y011411D02*
X004253Y011411D01*
X004498Y011411D02*
X004575Y011411D01*
X004575Y011293D02*
X004498Y011293D01*
X004498Y010776D02*
X004575Y010776D01*
X004575Y009671D01*
X004498Y009671D01*
X004498Y010293D01*
X004498Y010776D01*
X004498Y010700D02*
X004575Y010700D01*
X004575Y010582D02*
X004498Y010582D01*
X004498Y010463D02*
X004575Y010463D01*
X004575Y010345D02*
X004498Y010345D01*
X004498Y010226D02*
X004575Y010226D01*
X004575Y010108D02*
X004498Y010108D01*
X004498Y009989D02*
X004575Y009989D01*
X004575Y009871D02*
X004498Y009871D01*
X004498Y009752D02*
X004575Y009752D01*
X004498Y009634D02*
X003363Y009634D01*
X003479Y009752D02*
X003886Y009752D01*
X003920Y009871D02*
X003528Y009871D01*
X003577Y009989D02*
X003980Y009989D01*
X004078Y010108D02*
X003605Y010108D01*
X003605Y010226D02*
X004235Y010226D01*
X004073Y010345D02*
X003605Y010345D01*
X003575Y010463D02*
X003977Y010463D01*
X003918Y010582D02*
X003526Y010582D01*
X003476Y010700D02*
X003886Y010700D01*
X002293Y010937D02*
X000809Y010937D01*
X000809Y010819D02*
X002172Y010819D01*
X002053Y010700D02*
X000809Y010700D01*
X000809Y010582D02*
X002004Y010582D01*
X001955Y010463D02*
X000809Y010463D01*
X000809Y010345D02*
X001925Y010345D01*
X001925Y010226D02*
X000809Y010226D01*
X000809Y010108D02*
X001925Y010108D01*
X001953Y009989D02*
X000809Y009989D01*
X000809Y009871D02*
X002002Y009871D01*
X002051Y009752D02*
X000809Y009752D01*
X000809Y009634D02*
X002167Y009634D01*
X002285Y009515D02*
X000809Y009515D01*
X000809Y009397D02*
X002566Y009397D01*
X002963Y009397D02*
X003920Y009397D01*
X003886Y009515D02*
X003244Y009515D01*
X003979Y009278D02*
X000809Y009278D01*
X000809Y009160D02*
X004076Y009160D01*
X004498Y009397D02*
X004575Y009397D01*
X004575Y009515D02*
X004498Y009515D01*
X005918Y010226D02*
X006761Y010226D01*
X006642Y010108D02*
X006120Y010108D01*
X006238Y009989D02*
X006524Y009989D01*
X006300Y009871D02*
X006290Y009871D01*
X006424Y009635D02*
X006849Y010060D01*
X007174Y010060D01*
X006989Y009871D02*
X006914Y009871D01*
X009374Y007975D02*
X003742Y007975D01*
X003742Y007856D02*
X009341Y007856D01*
X009363Y007738D02*
X003742Y007738D01*
X003742Y007619D02*
X009455Y007619D01*
X009606Y007843D02*
X015144Y007842D01*
X015388Y007738D02*
X017648Y007738D01*
X017648Y007744D02*
X017648Y007584D01*
X017659Y007544D01*
X017680Y007507D01*
X017710Y007477D01*
X017746Y007456D01*
X017787Y007445D01*
X017947Y007445D01*
X017947Y007744D01*
X017648Y007744D01*
X017648Y007856D02*
X015409Y007856D01*
X015376Y007975D02*
X017657Y007975D01*
X017947Y007975D02*
X017984Y007975D01*
X017984Y007856D02*
X017947Y007856D01*
X017984Y007782D02*
X018073Y007782D01*
X018073Y007782D01*
X018372Y007782D01*
X018372Y007744D01*
X018283Y007744D01*
X017984Y007744D01*
X017984Y007782D01*
X017984Y007738D02*
X017947Y007738D01*
X017947Y007619D02*
X017984Y007619D01*
X017984Y007501D02*
X017947Y007501D01*
X017686Y007501D02*
X003742Y007501D01*
X003742Y007382D02*
X016417Y007382D01*
X016298Y007264D02*
X003742Y007264D01*
X003742Y007145D02*
X016180Y007145D01*
X016169Y007027D02*
X003742Y007027D01*
X003712Y006908D02*
X005871Y006908D01*
X005818Y006886D02*
X005709Y006777D01*
X005650Y006635D01*
X005650Y006481D01*
X005709Y006339D01*
X005818Y006230D01*
X005961Y006171D01*
X006115Y006171D01*
X006257Y006230D01*
X006366Y006339D01*
X006425Y006481D01*
X006425Y006635D01*
X006366Y006777D01*
X006257Y006886D01*
X006115Y006945D01*
X005961Y006945D01*
X005818Y006886D01*
X005722Y006790D02*
X003616Y006790D01*
X003922Y006671D02*
X005665Y006671D01*
X005650Y006553D02*
X004132Y006553D01*
X004293Y006434D02*
X005670Y006434D01*
X005733Y006316D02*
X004425Y006316D01*
X004537Y006197D02*
X005897Y006197D01*
X005771Y005960D02*
X016150Y005960D01*
X016169Y006079D02*
X004632Y006079D01*
X004713Y005960D02*
X005429Y005960D01*
X005349Y005842D02*
X004781Y005842D01*
X004838Y005723D02*
X005335Y005723D01*
X005377Y005605D02*
X004886Y005605D01*
X004926Y005486D02*
X016482Y005486D01*
X016482Y005368D02*
X004958Y005368D01*
X004980Y005249D02*
X006284Y005249D01*
X006312Y005277D02*
X006312Y005277D01*
X006207Y005172D02*
X006207Y005172D01*
X006165Y005131D02*
X004996Y005131D01*
X005006Y005012D02*
X006047Y005012D01*
X005600Y005756D02*
X016204Y005760D01*
X016349Y005905D01*
X016349Y007060D01*
X016524Y007235D01*
X017399Y007235D01*
X017577Y007058D01*
X017578Y004384D01*
X017830Y004301D02*
X022701Y004301D01*
X022680Y004280D02*
X022680Y003932D01*
X022926Y003686D01*
X023274Y003686D01*
X023520Y003932D01*
X023520Y004280D01*
X023274Y004526D01*
X022926Y004526D01*
X022680Y004280D01*
X022680Y004183D02*
X017751Y004183D01*
X017404Y004183D02*
X016579Y004183D01*
X016579Y004301D02*
X017325Y004301D01*
X017313Y004420D02*
X016579Y004420D01*
X016579Y004538D02*
X017357Y004538D01*
X017397Y004657D02*
X016600Y004657D01*
X016719Y004775D02*
X017397Y004775D01*
X017397Y004894D02*
X016837Y004894D01*
X016842Y004898D02*
X016842Y004898D01*
X016842Y004898D01*
X016842Y005012D02*
X017397Y005012D01*
X017397Y005131D02*
X016842Y005131D01*
X016842Y005249D02*
X017397Y005249D01*
X017397Y005368D02*
X016842Y005368D01*
X016842Y005486D02*
X017397Y005486D01*
X017397Y005605D02*
X016842Y005605D01*
X016842Y005723D02*
X017397Y005723D01*
X017397Y005842D02*
X016842Y005842D01*
X016842Y005960D02*
X017397Y005960D01*
X017397Y006079D02*
X016842Y006079D01*
X016842Y006197D02*
X017397Y006197D01*
X017397Y006316D02*
X016842Y006316D01*
X016842Y006434D02*
X017397Y006434D01*
X017397Y006553D02*
X016843Y006553D01*
X016918Y006671D02*
X017397Y006671D01*
X017397Y006790D02*
X016927Y006790D01*
X016876Y006908D02*
X017397Y006908D01*
X017353Y007027D02*
X016570Y007027D01*
X016663Y006747D02*
X016662Y004973D01*
X016399Y004710D01*
X016579Y004064D02*
X022680Y004064D01*
X022680Y003946D02*
X016579Y003946D01*
X016579Y003827D02*
X022785Y003827D01*
X022904Y003709D02*
X022327Y003709D01*
X022360Y003692D02*
X022292Y003727D01*
X022218Y003751D01*
X022142Y003763D01*
X022142Y003763D01*
X022142Y003311D01*
X022593Y003311D01*
X022593Y003311D01*
X022581Y003387D01*
X022558Y003461D01*
X022523Y003529D01*
X022477Y003592D01*
X022423Y003646D01*
X022360Y003692D01*
X022479Y003590D02*
X024570Y003590D01*
X024570Y003472D02*
X022552Y003472D01*
X022587Y003353D02*
X024570Y003353D01*
X024570Y003235D02*
X022142Y003235D01*
X022142Y003234D02*
X022142Y003311D01*
X022065Y003311D01*
X022065Y003234D01*
X022142Y003234D01*
X022142Y002783D01*
X022218Y002795D01*
X022292Y002819D01*
X022360Y002854D01*
X022423Y002899D01*
X022477Y002953D01*
X022523Y003016D01*
X022558Y003085D01*
X022581Y003158D01*
X022593Y003234D01*
X022593Y003234D01*
X022142Y003234D01*
X022065Y003234D02*
X022065Y002783D01*
X021989Y002795D01*
X021915Y002819D01*
X021847Y002854D01*
X021784Y002899D01*
X021730Y002953D01*
X021684Y003016D01*
X021649Y003085D01*
X021626Y003158D01*
X021614Y003234D01*
X021614Y003234D01*
X022065Y003234D01*
X022065Y003235D02*
X016378Y003235D01*
X016497Y003353D02*
X021620Y003353D01*
X021626Y003387D02*
X021614Y003311D01*
X022065Y003311D01*
X022065Y003763D01*
X021989Y003751D01*
X021915Y003727D01*
X021847Y003692D01*
X021784Y003646D01*
X021730Y003592D01*
X021684Y003529D01*
X021649Y003461D01*
X021626Y003387D01*
X021614Y003311D02*
X021614Y003311D01*
X021655Y003472D02*
X016579Y003472D01*
X016579Y003590D02*
X021728Y003590D01*
X021880Y003709D02*
X016579Y003709D01*
X016219Y003590D02*
X015989Y003590D01*
X015683Y003310D02*
X015411Y003310D01*
X015452Y002879D02*
X015369Y002879D01*
X015400Y002761D02*
X015405Y002761D01*
X015101Y002761D02*
X015064Y002761D01*
X015064Y002879D02*
X015101Y002879D01*
X015101Y002524D02*
X015064Y002524D01*
X015064Y002405D02*
X015101Y002405D01*
X015960Y002761D02*
X024570Y002761D01*
X024570Y002879D02*
X022395Y002879D01*
X022509Y002998D02*
X024570Y002998D01*
X024570Y003116D02*
X022568Y003116D01*
X022142Y003116D02*
X022065Y003116D01*
X022065Y002998D02*
X022142Y002998D01*
X022142Y002879D02*
X022065Y002879D01*
X022065Y002783D02*
X022065Y002783D01*
X022142Y002783D02*
X022142Y002783D01*
X021812Y002879D02*
X015913Y002879D01*
X015863Y002983D02*
X015863Y002983D01*
X015957Y002998D02*
X021698Y002998D01*
X021639Y003116D02*
X016023Y003116D01*
X017060Y002287D02*
X017140Y002287D01*
X017140Y002168D02*
X017060Y002168D01*
X017060Y002050D02*
X017140Y002050D01*
X017140Y001931D02*
X017060Y001931D01*
X017140Y001813D02*
X017680Y001813D01*
X017680Y001931D02*
X017560Y001931D01*
X017532Y002050D02*
X017724Y002050D01*
X017843Y002168D02*
X017414Y002168D01*
X017295Y002287D02*
X020905Y002287D01*
X020786Y002168D02*
X020357Y002168D01*
X020274Y002251D02*
X019926Y002251D01*
X019680Y002005D01*
X019680Y001657D01*
X019926Y001411D01*
X020274Y001411D01*
X020520Y001657D01*
X020520Y002005D01*
X020274Y002251D01*
X020476Y002050D02*
X020668Y002050D01*
X020640Y001931D02*
X020520Y001931D01*
X020520Y001813D02*
X021060Y001813D01*
X021060Y001791D02*
X020640Y001791D01*
X020640Y001641D01*
X020909Y001371D01*
X021060Y001371D01*
X021060Y001791D01*
X021060Y001694D02*
X021140Y001694D01*
X021140Y001576D02*
X021060Y001576D01*
X021060Y001457D02*
X021140Y001457D01*
X020824Y001457D02*
X020320Y001457D01*
X020438Y001576D02*
X020705Y001576D01*
X020640Y001694D02*
X020520Y001694D01*
X020274Y001251D02*
X019926Y001251D01*
X019680Y001005D01*
X019680Y000657D01*
X019926Y000411D01*
X020274Y000411D01*
X020520Y000657D01*
X020520Y001005D01*
X020274Y001251D01*
X020305Y001220D02*
X020895Y001220D01*
X020776Y001102D02*
X020424Y001102D01*
X020520Y000983D02*
X020680Y000983D01*
X020680Y000865D02*
X020520Y000865D01*
X020520Y000746D02*
X020680Y000746D01*
X020710Y000628D02*
X020490Y000628D01*
X020372Y000509D02*
X020828Y000509D01*
X021372Y000509D02*
X024570Y000509D01*
X024570Y000391D02*
X017310Y000391D01*
X017428Y000509D02*
X017828Y000509D01*
X017710Y000628D02*
X017547Y000628D01*
X017560Y000746D02*
X017680Y000746D01*
X017140Y000983D02*
X017060Y000983D01*
X017060Y001102D02*
X017140Y001102D01*
X017140Y001220D02*
X017060Y001220D01*
X016838Y001220D02*
X016305Y001220D01*
X016320Y001457D02*
X016824Y001457D01*
X016705Y001576D02*
X016438Y001576D01*
X016520Y001694D02*
X016640Y001694D01*
X017495Y001576D02*
X017762Y001576D01*
X017680Y001694D02*
X017560Y001694D01*
X018320Y001457D02*
X018880Y001457D01*
X018926Y001411D02*
X019274Y001411D01*
X019520Y001657D01*
X019520Y002005D01*
X019274Y002251D01*
X018926Y002251D01*
X018680Y002005D01*
X018680Y001657D01*
X018926Y001411D01*
X018926Y001251D02*
X018680Y001005D01*
X018680Y000657D01*
X018926Y000411D01*
X019274Y000411D01*
X019520Y000657D01*
X019520Y001005D01*
X019274Y001251D01*
X018926Y001251D01*
X018895Y001220D02*
X018305Y001220D01*
X018424Y001102D02*
X018776Y001102D01*
X018680Y000983D02*
X018520Y000983D01*
X018520Y000865D02*
X018680Y000865D01*
X018680Y000746D02*
X018520Y000746D01*
X018490Y000628D02*
X018710Y000628D01*
X018828Y000509D02*
X018372Y000509D01*
X019372Y000509D02*
X019828Y000509D01*
X019710Y000628D02*
X019490Y000628D01*
X019520Y000746D02*
X019680Y000746D01*
X019680Y000865D02*
X019520Y000865D01*
X019520Y000983D02*
X019680Y000983D01*
X019776Y001102D02*
X019424Y001102D01*
X019305Y001220D02*
X019895Y001220D01*
X019880Y001457D02*
X019320Y001457D01*
X019438Y001576D02*
X019762Y001576D01*
X019680Y001694D02*
X019520Y001694D01*
X019520Y001813D02*
X019680Y001813D01*
X019680Y001931D02*
X019520Y001931D01*
X019476Y002050D02*
X019724Y002050D01*
X019843Y002168D02*
X019357Y002168D01*
X018843Y002168D02*
X018357Y002168D01*
X018476Y002050D02*
X018724Y002050D01*
X018680Y001931D02*
X018520Y001931D01*
X018520Y001813D02*
X018680Y001813D01*
X018680Y001694D02*
X018520Y001694D01*
X018438Y001576D02*
X018762Y001576D01*
X021424Y001102D02*
X022650Y001102D01*
X022769Y000983D02*
X021520Y000983D01*
X021520Y000865D02*
X023053Y000865D01*
X023396Y000865D02*
X024570Y000865D01*
X024570Y000983D02*
X023679Y000983D01*
X023798Y001102D02*
X024570Y001102D01*
X024570Y001220D02*
X023908Y001220D01*
X023957Y001339D02*
X024570Y001339D01*
X024570Y001457D02*
X024007Y001457D01*
X024025Y001576D02*
X024570Y001576D01*
X024570Y001694D02*
X024025Y001694D01*
X024025Y001813D02*
X024570Y001813D01*
X024570Y001931D02*
X023978Y001931D01*
X023929Y002050D02*
X024570Y002050D01*
X024570Y002168D02*
X023848Y002168D01*
X023730Y002287D02*
X024570Y002287D01*
X024570Y002405D02*
X023517Y002405D01*
X022600Y002168D02*
X021414Y002168D01*
X021532Y002050D02*
X022519Y002050D01*
X022470Y001931D02*
X021560Y001931D01*
X021520Y000746D02*
X024570Y000746D01*
X024570Y000628D02*
X021490Y000628D01*
X022065Y003353D02*
X022142Y003353D01*
X022142Y003472D02*
X022065Y003472D01*
X022065Y003590D02*
X022142Y003590D01*
X022142Y003709D02*
X022065Y003709D01*
X022065Y003763D02*
X022065Y003763D01*
X022819Y004420D02*
X017842Y004420D01*
X017798Y004538D02*
X024570Y004538D01*
X024570Y004420D02*
X024381Y004420D01*
X024274Y004526D02*
X023926Y004526D01*
X023680Y004280D01*
X023680Y003932D01*
X023926Y003686D01*
X024274Y003686D01*
X024520Y003932D01*
X024520Y004280D01*
X024274Y004526D01*
X024274Y004686D02*
X024520Y004932D01*
X024520Y005280D01*
X024274Y005526D01*
X023926Y005526D01*
X023680Y005280D01*
X023680Y004932D01*
X023926Y004686D01*
X024274Y004686D01*
X024363Y004775D02*
X024570Y004775D01*
X024570Y004657D02*
X017757Y004657D01*
X017757Y004775D02*
X022837Y004775D01*
X022926Y004686D02*
X022680Y004932D01*
X022680Y005280D01*
X022926Y005526D01*
X023274Y005526D01*
X023520Y005280D01*
X023520Y004932D01*
X023274Y004686D01*
X022926Y004686D01*
X022719Y004894D02*
X017757Y004894D01*
X017757Y005012D02*
X022680Y005012D01*
X022680Y005131D02*
X017757Y005131D01*
X017757Y005249D02*
X022680Y005249D01*
X022767Y005368D02*
X017757Y005368D01*
X017757Y005486D02*
X022886Y005486D01*
X022926Y005686D02*
X023274Y005686D01*
X023520Y005932D01*
X023520Y006280D01*
X023274Y006526D01*
X022926Y006526D01*
X022680Y006280D01*
X022680Y005932D01*
X022926Y005686D01*
X022889Y005723D02*
X017757Y005723D01*
X017757Y005605D02*
X024570Y005605D01*
X024570Y005723D02*
X024311Y005723D01*
X024274Y005686D02*
X024520Y005932D01*
X024520Y006280D01*
X024274Y006526D01*
X023926Y006526D01*
X023680Y006280D01*
X023680Y005932D01*
X023926Y005686D01*
X024274Y005686D01*
X024314Y005486D02*
X024570Y005486D01*
X024570Y005368D02*
X024433Y005368D01*
X024520Y005249D02*
X024570Y005249D01*
X024570Y005131D02*
X024520Y005131D01*
X024520Y005012D02*
X024570Y005012D01*
X024570Y004894D02*
X024481Y004894D01*
X023837Y004775D02*
X023363Y004775D01*
X023481Y004894D02*
X023719Y004894D01*
X023680Y005012D02*
X023520Y005012D01*
X023520Y005131D02*
X023680Y005131D01*
X023680Y005249D02*
X023520Y005249D01*
X023433Y005368D02*
X023767Y005368D01*
X023886Y005486D02*
X023314Y005486D01*
X023311Y005723D02*
X023889Y005723D01*
X023771Y005842D02*
X023429Y005842D01*
X023520Y005960D02*
X023680Y005960D01*
X023680Y006079D02*
X023520Y006079D01*
X023520Y006197D02*
X023680Y006197D01*
X023715Y006316D02*
X023485Y006316D01*
X023366Y006434D02*
X023834Y006434D01*
X023823Y006790D02*
X023377Y006790D01*
X023274Y006686D02*
X023520Y006932D01*
X023520Y007280D01*
X023274Y007526D01*
X022926Y007526D01*
X022680Y007280D01*
X022680Y006932D01*
X022926Y006686D01*
X023274Y006686D01*
X023496Y006908D02*
X023704Y006908D01*
X023680Y007027D02*
X023520Y007027D01*
X023520Y007145D02*
X023680Y007145D01*
X023680Y007264D02*
X023520Y007264D01*
X023418Y007382D02*
X023782Y007382D01*
X023900Y007501D02*
X023300Y007501D01*
X023325Y007738D02*
X023875Y007738D01*
X023756Y007856D02*
X023444Y007856D01*
X023520Y007975D02*
X023680Y007975D01*
X023680Y008093D02*
X023520Y008093D01*
X023520Y008212D02*
X023680Y008212D01*
X023730Y008330D02*
X023470Y008330D01*
X023352Y008449D02*
X023848Y008449D01*
X023808Y008804D02*
X023392Y008804D01*
X023510Y008923D02*
X023690Y008923D01*
X023680Y009041D02*
X023520Y009041D01*
X023520Y009160D02*
X023680Y009160D01*
X023680Y009278D02*
X023520Y009278D01*
X023404Y009397D02*
X023796Y009397D01*
X023915Y009515D02*
X023285Y009515D01*
X022860Y009752D02*
X013146Y009752D01*
X013219Y009871D02*
X022742Y009871D01*
X022680Y009989D02*
X013262Y009989D01*
X013381Y010108D02*
X022680Y010108D01*
X022680Y010226D02*
X013499Y010226D01*
X013618Y010345D02*
X022744Y010345D01*
X024406Y010819D02*
X024570Y010819D01*
X024570Y010937D02*
X024520Y010937D01*
X024520Y011056D02*
X024570Y011056D01*
X024570Y011174D02*
X024520Y011174D01*
X024508Y011293D02*
X024570Y011293D01*
X024570Y011411D02*
X024389Y011411D01*
X024354Y011767D02*
X024570Y011767D01*
X024570Y011885D02*
X024473Y011885D01*
X024520Y012004D02*
X024570Y012004D01*
X024570Y012122D02*
X024520Y012122D01*
X024520Y012241D02*
X024570Y012241D01*
X024570Y012359D02*
X024441Y012359D01*
X024359Y012715D02*
X024570Y012715D01*
X024570Y012833D02*
X024477Y012833D01*
X024560Y012952D02*
X024570Y012952D01*
X023140Y012952D02*
X023060Y012952D01*
X023060Y012833D02*
X023140Y012833D01*
X023140Y012715D02*
X023060Y012715D01*
X023060Y013189D02*
X023140Y013189D01*
X023140Y013307D02*
X023060Y013307D01*
X023060Y013426D02*
X023140Y013426D01*
X023140Y013544D02*
X023060Y013544D01*
X021780Y013781D02*
X012330Y013781D01*
X012330Y013900D02*
X021661Y013900D01*
X021714Y014374D02*
X012330Y014374D01*
X012329Y014492D02*
X021833Y014492D01*
X021815Y015085D02*
X021285Y015085D01*
X021224Y015024D02*
X021470Y015270D01*
X021470Y015618D01*
X021224Y015864D01*
X020876Y015864D01*
X020630Y015618D01*
X020630Y015270D01*
X020876Y015024D01*
X021224Y015024D01*
X021403Y015203D02*
X021697Y015203D01*
X021630Y015322D02*
X021470Y015322D01*
X021470Y015440D02*
X021630Y015440D01*
X021630Y015559D02*
X021470Y015559D01*
X021411Y015677D02*
X021689Y015677D01*
X021808Y015796D02*
X021292Y015796D01*
X021224Y016024D02*
X021470Y016270D01*
X021470Y016618D01*
X021224Y016864D01*
X020876Y016864D01*
X020630Y016618D01*
X020630Y016270D01*
X020876Y016024D01*
X021224Y016024D01*
X021233Y016033D02*
X021867Y016033D01*
X021749Y016151D02*
X021351Y016151D01*
X021470Y016270D02*
X021630Y016270D01*
X021630Y016388D02*
X021470Y016388D01*
X021470Y016507D02*
X021630Y016507D01*
X021637Y016625D02*
X021463Y016625D01*
X021344Y016744D02*
X021756Y016744D01*
X021874Y016862D02*
X021226Y016862D01*
X020874Y016862D02*
X020226Y016862D01*
X020224Y016864D02*
X019876Y016864D01*
X019630Y016618D01*
X019630Y016270D01*
X019876Y016024D01*
X020224Y016024D01*
X020470Y016270D01*
X020470Y016618D01*
X020224Y016864D01*
X020344Y016744D02*
X020756Y016744D01*
X020637Y016625D02*
X020463Y016625D01*
X020470Y016507D02*
X020630Y016507D01*
X020630Y016388D02*
X020470Y016388D01*
X020470Y016270D02*
X020630Y016270D01*
X020749Y016151D02*
X020351Y016151D01*
X020233Y016033D02*
X020867Y016033D01*
X020808Y015796D02*
X020292Y015796D01*
X020224Y015864D02*
X020470Y015618D01*
X020470Y015270D01*
X020224Y015024D01*
X019876Y015024D01*
X019630Y015270D01*
X019630Y015618D01*
X019876Y015864D01*
X020224Y015864D01*
X020411Y015677D02*
X020689Y015677D01*
X020630Y015559D02*
X020470Y015559D01*
X020470Y015440D02*
X020630Y015440D01*
X020630Y015322D02*
X020470Y015322D01*
X020403Y015203D02*
X020697Y015203D01*
X020815Y015085D02*
X020285Y015085D01*
X019815Y015085D02*
X019285Y015085D01*
X019224Y015024D02*
X019470Y015270D01*
X019470Y015618D01*
X019224Y015864D01*
X018876Y015864D01*
X018630Y015618D01*
X018630Y015270D01*
X018876Y015024D01*
X019224Y015024D01*
X019403Y015203D02*
X019697Y015203D01*
X019630Y015322D02*
X019470Y015322D01*
X019470Y015440D02*
X019630Y015440D01*
X019630Y015559D02*
X019470Y015559D01*
X019411Y015677D02*
X019689Y015677D01*
X019808Y015796D02*
X019292Y015796D01*
X019224Y016024D02*
X019470Y016270D01*
X019470Y016618D01*
X019224Y016864D01*
X018876Y016864D01*
X018630Y016618D01*
X018630Y016270D01*
X018876Y016024D01*
X019224Y016024D01*
X019233Y016033D02*
X019867Y016033D01*
X019749Y016151D02*
X019351Y016151D01*
X019470Y016270D02*
X019630Y016270D01*
X019630Y016388D02*
X019470Y016388D01*
X019470Y016507D02*
X019630Y016507D01*
X019637Y016625D02*
X019463Y016625D01*
X019344Y016744D02*
X019756Y016744D01*
X019874Y016862D02*
X019226Y016862D01*
X018874Y016862D02*
X018226Y016862D01*
X018224Y016864D02*
X017876Y016864D01*
X017630Y016618D01*
X017630Y016270D01*
X017876Y016024D01*
X018224Y016024D01*
X018470Y016270D01*
X018470Y016618D01*
X018224Y016864D01*
X018344Y016744D02*
X018756Y016744D01*
X018637Y016625D02*
X018463Y016625D01*
X018470Y016507D02*
X018630Y016507D01*
X018630Y016388D02*
X018470Y016388D01*
X018470Y016270D02*
X018630Y016270D01*
X018749Y016151D02*
X018351Y016151D01*
X018233Y016033D02*
X018867Y016033D01*
X018808Y015796D02*
X018292Y015796D01*
X018224Y015864D02*
X018470Y015618D01*
X018470Y015270D01*
X018224Y015024D01*
X017876Y015024D01*
X017630Y015270D01*
X017630Y015618D01*
X017876Y015864D01*
X018224Y015864D01*
X018411Y015677D02*
X018689Y015677D01*
X018630Y015559D02*
X018470Y015559D01*
X018470Y015440D02*
X018630Y015440D01*
X018630Y015322D02*
X018470Y015322D01*
X018403Y015203D02*
X018697Y015203D01*
X018815Y015085D02*
X018285Y015085D01*
X017815Y015085D02*
X017285Y015085D01*
X017224Y015024D02*
X017470Y015270D01*
X017470Y015618D01*
X017224Y015864D01*
X016876Y015864D01*
X016630Y015618D01*
X016630Y015270D01*
X016876Y015024D01*
X017224Y015024D01*
X017403Y015203D02*
X017697Y015203D01*
X017630Y015322D02*
X017470Y015322D01*
X017470Y015440D02*
X017630Y015440D01*
X017630Y015559D02*
X017470Y015559D01*
X017411Y015677D02*
X017689Y015677D01*
X017808Y015796D02*
X017292Y015796D01*
X017224Y016024D02*
X017470Y016270D01*
X017470Y016618D01*
X017224Y016864D01*
X016876Y016864D01*
X016630Y016618D01*
X016630Y016270D01*
X016876Y016024D01*
X017224Y016024D01*
X017233Y016033D02*
X017867Y016033D01*
X017749Y016151D02*
X017351Y016151D01*
X017470Y016270D02*
X017630Y016270D01*
X017630Y016388D02*
X017470Y016388D01*
X017470Y016507D02*
X017630Y016507D01*
X017637Y016625D02*
X017463Y016625D01*
X017344Y016744D02*
X017756Y016744D01*
X017874Y016862D02*
X017226Y016862D01*
X016874Y016862D02*
X016226Y016862D01*
X016224Y016864D02*
X015876Y016864D01*
X015630Y016618D01*
X015630Y016270D01*
X015876Y016024D01*
X016224Y016024D01*
X016470Y016270D01*
X016470Y016618D01*
X016224Y016864D01*
X016344Y016744D02*
X016756Y016744D01*
X016637Y016625D02*
X016463Y016625D01*
X016470Y016507D02*
X016630Y016507D01*
X016630Y016388D02*
X016470Y016388D01*
X016470Y016270D02*
X016630Y016270D01*
X016749Y016151D02*
X016351Y016151D01*
X016233Y016033D02*
X016867Y016033D01*
X016808Y015796D02*
X016292Y015796D01*
X016224Y015864D02*
X016470Y015618D01*
X016470Y015270D01*
X016224Y015024D01*
X015876Y015024D01*
X015630Y015270D01*
X015630Y015618D01*
X015876Y015864D01*
X016224Y015864D01*
X016411Y015677D02*
X016689Y015677D01*
X016630Y015559D02*
X016470Y015559D01*
X016470Y015440D02*
X016630Y015440D01*
X016630Y015322D02*
X016470Y015322D01*
X016403Y015203D02*
X016697Y015203D01*
X016815Y015085D02*
X016285Y015085D01*
X015815Y015085D02*
X015285Y015085D01*
X015224Y015024D02*
X015470Y015270D01*
X015470Y015618D01*
X015224Y015864D01*
X014876Y015864D01*
X014630Y015618D01*
X014630Y015270D01*
X014876Y015024D01*
X015224Y015024D01*
X015403Y015203D02*
X015697Y015203D01*
X015630Y015322D02*
X015470Y015322D01*
X015470Y015440D02*
X015630Y015440D01*
X015630Y015559D02*
X015470Y015559D01*
X015411Y015677D02*
X015689Y015677D01*
X015808Y015796D02*
X015292Y015796D01*
X015224Y016024D02*
X015470Y016270D01*
X015470Y016618D01*
X015224Y016864D01*
X014876Y016864D01*
X014630Y016618D01*
X014630Y016270D01*
X014876Y016024D01*
X015224Y016024D01*
X015233Y016033D02*
X015867Y016033D01*
X015749Y016151D02*
X015351Y016151D01*
X015470Y016270D02*
X015630Y016270D01*
X015630Y016388D02*
X015470Y016388D01*
X015470Y016507D02*
X015630Y016507D01*
X015637Y016625D02*
X015463Y016625D01*
X015344Y016744D02*
X015756Y016744D01*
X015874Y016862D02*
X015226Y016862D01*
X014874Y016862D02*
X014226Y016862D01*
X014224Y016864D02*
X013876Y016864D01*
X013630Y016618D01*
X013630Y016270D01*
X013876Y016024D01*
X014224Y016024D01*
X014470Y016270D01*
X014470Y016618D01*
X014224Y016864D01*
X014344Y016744D02*
X014756Y016744D01*
X014637Y016625D02*
X014463Y016625D01*
X014470Y016507D02*
X014630Y016507D01*
X014630Y016388D02*
X014470Y016388D01*
X014470Y016270D02*
X014630Y016270D01*
X014749Y016151D02*
X014351Y016151D01*
X014233Y016033D02*
X014867Y016033D01*
X014808Y015796D02*
X014292Y015796D01*
X014411Y015677D02*
X014689Y015677D01*
X014630Y015559D02*
X014470Y015559D01*
X014470Y015440D02*
X014630Y015440D01*
X014630Y015322D02*
X014470Y015322D01*
X014403Y015203D02*
X014697Y015203D01*
X014815Y015085D02*
X014285Y015085D01*
X013630Y015559D02*
X013510Y015559D01*
X013467Y015677D02*
X013689Y015677D01*
X013808Y015796D02*
X013349Y015796D01*
X013241Y015984D02*
X013510Y016253D01*
X013510Y016404D01*
X013090Y016404D01*
X013090Y016484D01*
X013010Y016484D01*
X013010Y016904D01*
X012859Y016904D01*
X012590Y016634D01*
X012590Y016484D01*
X013010Y016484D01*
X013010Y016404D01*
X012590Y016404D01*
X012590Y016253D01*
X012859Y015984D01*
X013010Y015984D01*
X013010Y016404D01*
X013090Y016404D01*
X013090Y015984D01*
X013241Y015984D01*
X013289Y016033D02*
X013867Y016033D01*
X013749Y016151D02*
X013408Y016151D01*
X013510Y016270D02*
X013630Y016270D01*
X013630Y016388D02*
X013510Y016388D01*
X013510Y016484D02*
X013510Y016634D01*
X013241Y016904D01*
X013090Y016904D01*
X013090Y016484D01*
X013510Y016484D01*
X013510Y016507D02*
X013630Y016507D01*
X013637Y016625D02*
X013510Y016625D01*
X013401Y016744D02*
X013756Y016744D01*
X013874Y016862D02*
X013282Y016862D01*
X013090Y016862D02*
X013010Y016862D01*
X013010Y016744D02*
X013090Y016744D01*
X013090Y016625D02*
X013010Y016625D01*
X013010Y016507D02*
X013090Y016507D01*
X013090Y016388D02*
X013010Y016388D01*
X013010Y016270D02*
X013090Y016270D01*
X013090Y016151D02*
X013010Y016151D01*
X013010Y016033D02*
X013090Y016033D01*
X013090Y015796D02*
X013010Y015796D01*
X013010Y015677D02*
X013090Y015677D01*
X013090Y015559D02*
X013010Y015559D01*
X012751Y015796D02*
X012292Y015796D01*
X012411Y015677D02*
X012633Y015677D01*
X012590Y015559D02*
X012470Y015559D01*
X012224Y016024D02*
X011876Y016024D01*
X011630Y016270D01*
X011630Y016618D01*
X011876Y016864D01*
X012224Y016864D01*
X012470Y016618D01*
X012470Y016270D01*
X012224Y016024D01*
X012233Y016033D02*
X012811Y016033D01*
X012692Y016151D02*
X012351Y016151D01*
X012470Y016270D02*
X012590Y016270D01*
X012590Y016388D02*
X012470Y016388D01*
X012470Y016507D02*
X012590Y016507D01*
X012590Y016625D02*
X012463Y016625D01*
X012344Y016744D02*
X012699Y016744D01*
X012818Y016862D02*
X012226Y016862D01*
X011874Y016862D02*
X000809Y016862D01*
X000809Y016744D02*
X011756Y016744D01*
X011637Y016625D02*
X000809Y016625D01*
X000809Y016507D02*
X011630Y016507D01*
X011630Y016388D02*
X000809Y016388D01*
X000809Y016270D02*
X011630Y016270D01*
X011749Y016151D02*
X000809Y016151D01*
X000809Y016033D02*
X011867Y016033D01*
X013700Y010681D02*
X012963Y009944D01*
X012779Y009752D02*
X012771Y009752D01*
X012404Y009752D02*
X012396Y009752D01*
X015294Y009041D02*
X022680Y009041D01*
X022690Y008923D02*
X015372Y008923D01*
X015296Y007619D02*
X017648Y007619D01*
X017700Y007382D02*
X017507Y007382D01*
X017625Y007264D02*
X017688Y007264D01*
X017912Y007163D02*
X017912Y006799D01*
X018167Y006790D02*
X022823Y006790D01*
X022704Y006908D02*
X018621Y006908D01*
X018668Y007027D02*
X022680Y007027D01*
X022680Y007145D02*
X018668Y007145D01*
X018668Y007264D02*
X022680Y007264D01*
X022782Y007382D02*
X018656Y007382D01*
X018670Y007501D02*
X022900Y007501D01*
X022834Y006434D02*
X017757Y006434D01*
X017757Y006316D02*
X022715Y006316D01*
X022680Y006197D02*
X017757Y006197D01*
X017757Y006079D02*
X022680Y006079D01*
X022680Y005960D02*
X017757Y005960D01*
X017757Y005842D02*
X022771Y005842D01*
X024429Y005842D02*
X024570Y005842D01*
X024570Y005960D02*
X024520Y005960D01*
X024520Y006079D02*
X024570Y006079D01*
X024570Y006197D02*
X024520Y006197D01*
X024485Y006316D02*
X024570Y006316D01*
X024570Y006434D02*
X024366Y006434D01*
X024570Y006553D02*
X017983Y006553D01*
X017841Y006553D02*
X017757Y006553D01*
X018135Y006671D02*
X024570Y006671D01*
X024570Y006790D02*
X024377Y006790D01*
X024496Y006908D02*
X024570Y006908D01*
X024570Y007027D02*
X024520Y007027D01*
X024520Y007145D02*
X024570Y007145D01*
X024570Y007264D02*
X024520Y007264D01*
X024570Y007382D02*
X024418Y007382D01*
X023819Y004420D02*
X023381Y004420D01*
X023499Y004301D02*
X023701Y004301D01*
X023680Y004183D02*
X023520Y004183D01*
X023520Y004064D02*
X023680Y004064D01*
X023680Y003946D02*
X023520Y003946D01*
X023415Y003827D02*
X023785Y003827D01*
X023904Y003709D02*
X023296Y003709D01*
X024296Y003709D02*
X024570Y003709D01*
X024570Y003827D02*
X024415Y003827D01*
X024520Y003946D02*
X024570Y003946D01*
X024570Y004064D02*
X024520Y004064D01*
X024520Y004183D02*
X024570Y004183D01*
X024570Y004301D02*
X024499Y004301D01*
X018391Y007163D02*
X017965Y007163D01*
X017912Y007163D01*
X017965Y007163D02*
X017965Y007163D01*
X018372Y007501D02*
X018410Y007501D01*
X018410Y007619D02*
X018372Y007619D01*
X018372Y007738D02*
X018410Y007738D01*
X018410Y007856D02*
X018372Y007856D01*
X018372Y007975D02*
X018410Y007975D01*
X018283Y007744D02*
X018283Y007744D01*
X016169Y006908D02*
X007385Y006908D01*
X007438Y006886D02*
X007296Y006945D01*
X007142Y006945D01*
X006999Y006886D01*
X006890Y006777D01*
X006832Y006635D01*
X006832Y006481D01*
X006890Y006339D01*
X006999Y006230D01*
X007142Y006171D01*
X007296Y006171D01*
X007438Y006230D01*
X007547Y006339D01*
X007606Y006481D01*
X007606Y006635D01*
X007547Y006777D01*
X007438Y006886D01*
X007535Y006790D02*
X016169Y006790D01*
X016169Y006671D02*
X007591Y006671D01*
X007606Y006553D02*
X016169Y006553D01*
X016169Y006434D02*
X007586Y006434D01*
X007524Y006316D02*
X016169Y006316D01*
X016169Y006197D02*
X007359Y006197D01*
X007078Y006197D02*
X006178Y006197D01*
X006343Y006316D02*
X006914Y006316D01*
X006851Y006434D02*
X006405Y006434D01*
X006425Y006553D02*
X006832Y006553D01*
X006846Y006671D02*
X006410Y006671D01*
X006354Y006790D02*
X006903Y006790D01*
X007052Y006908D02*
X006204Y006908D01*
X009757Y007619D02*
X014992Y007619D01*
X016422Y005723D02*
X016482Y005723D01*
X016482Y005605D02*
X016303Y005605D01*
X016279Y005580D02*
X016279Y005580D01*
X016279Y005580D01*
X011593Y002168D02*
X011107Y002168D01*
X011024Y002251D02*
X010676Y002251D01*
X010430Y002005D01*
X010430Y001657D01*
X010676Y001411D01*
X011024Y001411D01*
X011270Y001657D01*
X011270Y002005D01*
X011024Y002251D01*
X011226Y002050D02*
X011474Y002050D01*
X011430Y001931D02*
X011270Y001931D01*
X011270Y001813D02*
X011430Y001813D01*
X011430Y001694D02*
X011270Y001694D01*
X011188Y001576D02*
X011512Y001576D01*
X011630Y001457D02*
X011070Y001457D01*
X011024Y001251D02*
X010676Y001251D01*
X010430Y001005D01*
X010430Y000657D01*
X010676Y000411D01*
X011024Y000411D01*
X011270Y000657D01*
X011270Y001005D01*
X011024Y001251D01*
X011055Y001220D02*
X011645Y001220D01*
X011526Y001102D02*
X011174Y001102D01*
X011270Y000983D02*
X011430Y000983D01*
X011430Y000865D02*
X011270Y000865D01*
X011270Y000746D02*
X011430Y000746D01*
X011460Y000628D02*
X011240Y000628D01*
X011122Y000509D02*
X011578Y000509D01*
X010578Y000509D02*
X010122Y000509D01*
X010024Y000411D02*
X010270Y000657D01*
X010270Y001005D01*
X010024Y001251D01*
X009676Y001251D01*
X009430Y001005D01*
X009430Y000657D01*
X009676Y000411D01*
X010024Y000411D01*
X010240Y000628D02*
X010460Y000628D01*
X010430Y000746D02*
X010270Y000746D01*
X010270Y000865D02*
X010430Y000865D01*
X010430Y000983D02*
X010270Y000983D01*
X010174Y001102D02*
X010526Y001102D01*
X010645Y001220D02*
X010055Y001220D01*
X010024Y001411D02*
X009676Y001411D01*
X009430Y001657D01*
X009430Y002005D01*
X009676Y002251D01*
X010024Y002251D01*
X010270Y002005D01*
X010270Y001657D01*
X010024Y001411D01*
X010070Y001457D02*
X010630Y001457D01*
X010512Y001576D02*
X010188Y001576D01*
X010270Y001694D02*
X010430Y001694D01*
X010430Y001813D02*
X010270Y001813D01*
X010270Y001931D02*
X010430Y001931D01*
X010474Y002050D02*
X010226Y002050D01*
X010107Y002168D02*
X010593Y002168D01*
X009593Y002168D02*
X009107Y002168D01*
X009024Y002251D02*
X008676Y002251D01*
X008430Y002005D01*
X008430Y001657D01*
X008676Y001411D01*
X009024Y001411D01*
X009270Y001657D01*
X009270Y002005D01*
X009024Y002251D01*
X009226Y002050D02*
X009474Y002050D01*
X009430Y001931D02*
X009270Y001931D01*
X009270Y001813D02*
X009430Y001813D01*
X009430Y001694D02*
X009270Y001694D01*
X009188Y001576D02*
X009512Y001576D01*
X009630Y001457D02*
X009070Y001457D01*
X009024Y001251D02*
X008676Y001251D01*
X008430Y001005D01*
X008430Y000657D01*
X008676Y000411D01*
X009024Y000411D01*
X009270Y000657D01*
X009270Y001005D01*
X009024Y001251D01*
X009055Y001220D02*
X009645Y001220D01*
X009526Y001102D02*
X009174Y001102D01*
X009270Y000983D02*
X009430Y000983D01*
X009430Y000865D02*
X009270Y000865D01*
X009270Y000746D02*
X009430Y000746D01*
X009460Y000628D02*
X009240Y000628D01*
X009122Y000509D02*
X009578Y000509D01*
X008578Y000509D02*
X008122Y000509D01*
X008024Y000411D02*
X008270Y000657D01*
X008270Y001005D01*
X008024Y001251D01*
X007676Y001251D01*
X007430Y001005D01*
X007430Y000657D01*
X007676Y000411D01*
X008024Y000411D01*
X008240Y000628D02*
X008460Y000628D01*
X008430Y000746D02*
X008270Y000746D01*
X008270Y000865D02*
X008430Y000865D01*
X008430Y000983D02*
X008270Y000983D01*
X008174Y001102D02*
X008526Y001102D01*
X008645Y001220D02*
X008055Y001220D01*
X008024Y001411D02*
X007676Y001411D01*
X007430Y001657D01*
X007430Y002005D01*
X007676Y002251D01*
X008024Y002251D01*
X008270Y002005D01*
X008270Y001657D01*
X008024Y001411D01*
X008070Y001457D02*
X008630Y001457D01*
X008512Y001576D02*
X008188Y001576D01*
X008270Y001694D02*
X008430Y001694D01*
X008430Y001813D02*
X008270Y001813D01*
X008270Y001931D02*
X008430Y001931D01*
X008474Y002050D02*
X008226Y002050D01*
X008107Y002168D02*
X008593Y002168D01*
X007593Y002168D02*
X007107Y002168D01*
X007024Y002251D02*
X006676Y002251D01*
X006430Y002005D01*
X006430Y001657D01*
X006676Y001411D01*
X007024Y001411D01*
X007270Y001657D01*
X007270Y002005D01*
X007024Y002251D01*
X007226Y002050D02*
X007474Y002050D01*
X007430Y001931D02*
X007270Y001931D01*
X007270Y001813D02*
X007430Y001813D01*
X007430Y001694D02*
X007270Y001694D01*
X007188Y001576D02*
X007512Y001576D01*
X007630Y001457D02*
X007070Y001457D01*
X007024Y001251D02*
X006676Y001251D01*
X006430Y001005D01*
X006430Y000657D01*
X006676Y000411D01*
X007024Y000411D01*
X007270Y000657D01*
X007270Y001005D01*
X007024Y001251D01*
X007055Y001220D02*
X007645Y001220D01*
X007526Y001102D02*
X007174Y001102D01*
X007270Y000983D02*
X007430Y000983D01*
X007430Y000865D02*
X007270Y000865D01*
X007270Y000746D02*
X007430Y000746D01*
X007460Y000628D02*
X007240Y000628D01*
X007122Y000509D02*
X007578Y000509D01*
X006578Y000509D02*
X006122Y000509D01*
X006024Y000411D02*
X006270Y000657D01*
X006270Y001005D01*
X006024Y001251D01*
X005676Y001251D01*
X005430Y001005D01*
X005430Y000657D01*
X005676Y000411D01*
X006024Y000411D01*
X006240Y000628D02*
X006460Y000628D01*
X006430Y000746D02*
X006270Y000746D01*
X006270Y000865D02*
X006430Y000865D01*
X006430Y000983D02*
X006270Y000983D01*
X006174Y001102D02*
X006526Y001102D01*
X006645Y001220D02*
X006055Y001220D01*
X006024Y001411D02*
X005676Y001411D01*
X005430Y001657D01*
X005430Y002005D01*
X005676Y002251D01*
X006024Y002251D01*
X006270Y002005D01*
X006270Y001657D01*
X006024Y001411D01*
X006070Y001457D02*
X006630Y001457D01*
X006512Y001576D02*
X006188Y001576D01*
X006270Y001694D02*
X006430Y001694D01*
X006430Y001813D02*
X006270Y001813D01*
X006270Y001931D02*
X006430Y001931D01*
X006474Y002050D02*
X006226Y002050D01*
X006107Y002168D02*
X006593Y002168D01*
X005593Y002168D02*
X005107Y002168D01*
X005226Y002050D02*
X005474Y002050D01*
X005430Y001931D02*
X005270Y001931D01*
X005270Y001813D02*
X005430Y001813D01*
X005430Y001694D02*
X005270Y001694D01*
X005188Y001576D02*
X005512Y001576D01*
X005630Y001457D02*
X005070Y001457D01*
X005055Y001220D02*
X005645Y001220D01*
X005526Y001102D02*
X005174Y001102D01*
X005270Y000983D02*
X005430Y000983D01*
X005430Y000865D02*
X005270Y000865D01*
X005270Y000746D02*
X005430Y000746D01*
X005460Y000628D02*
X005240Y000628D01*
X005122Y000509D02*
X005578Y000509D01*
X001152Y005131D02*
X000809Y005131D01*
X000809Y005249D02*
X001168Y005249D01*
X001190Y005368D02*
X000809Y005368D01*
X000809Y005486D02*
X001222Y005486D01*
X001262Y005605D02*
X000809Y005605D01*
X000809Y005723D02*
X001310Y005723D01*
X001367Y005842D02*
X000809Y005842D01*
X000809Y005960D02*
X001435Y005960D01*
X001517Y006079D02*
X000809Y006079D01*
X000809Y006197D02*
X001611Y006197D01*
X001723Y006316D02*
X000809Y006316D01*
X000809Y006434D02*
X001855Y006434D01*
X002016Y006553D02*
X000809Y006553D01*
X000809Y006671D02*
X002226Y006671D01*
X002153Y015085D02*
X000809Y015085D01*
X000809Y015203D02*
X002085Y015203D01*
X002063Y015322D02*
X000809Y015322D01*
X000809Y015440D02*
X002075Y015440D01*
X002126Y015559D02*
X000809Y015559D01*
X000809Y015677D02*
X002265Y015677D01*
X000809Y016981D02*
X024570Y016981D01*
X024570Y016862D02*
X022226Y016862D01*
X022344Y016744D02*
X024570Y016744D01*
X024570Y016625D02*
X024090Y016625D01*
X024260Y016507D02*
X024570Y016507D01*
X024570Y016388D02*
X024378Y016388D01*
X024442Y016270D02*
X024570Y016270D01*
X024570Y016151D02*
X024491Y016151D01*
X024525Y016033D02*
X024570Y016033D01*
X024570Y015914D02*
X024525Y015914D01*
X024525Y015796D02*
X024570Y015796D01*
X024570Y015677D02*
X024494Y015677D01*
X024445Y015559D02*
X024570Y015559D01*
X024570Y015440D02*
X024386Y015440D01*
X024268Y015322D02*
X024570Y015322D01*
X024570Y015203D02*
X024109Y015203D01*
X022957Y016151D02*
X022351Y016151D01*
X022470Y016270D02*
X023007Y016270D01*
X023070Y016388D02*
X022470Y016388D01*
X022470Y016507D02*
X023189Y016507D01*
X023358Y016625D02*
X022463Y016625D01*
D22*
X013700Y010681D03*
X013325Y010681D03*
X012950Y010681D03*
X012963Y009944D03*
X012588Y009944D03*
X012213Y009944D03*
X011337Y009573D03*
X009606Y007843D03*
X007174Y010060D03*
X006424Y009635D03*
X005600Y005756D03*
X015144Y007842D03*
X015119Y008842D03*
X016663Y006747D03*
X015950Y005094D03*
X016125Y004309D03*
X017578Y004384D03*
M02*
