G75*
G70*
%OFA0B0*%
%FSLAX24Y24*%
%IPPOS*%
%LPD*%
%AMOC8*
5,1,8,0,0,1.08239X$1,22.5*
%
%ADD10C,0.0120*%
%ADD11R,0.0984X0.0787*%
%ADD12R,0.1299X0.0787*%
%ADD13R,0.1220X0.0197*%
%ADD14C,0.0000*%
%ADD15R,0.0217X0.0472*%
%ADD16R,0.0315X0.0354*%
%ADD17R,0.0512X0.0472*%
%ADD18R,0.0354X0.0315*%
%ADD19R,0.0472X0.0512*%
%ADD20R,0.0630X0.0709*%
%ADD21R,0.0790X0.0590*%
%ADD22R,0.0790X0.1500*%
%ADD23R,0.0160X0.0480*%
%ADD24R,0.0866X0.0591*%
%ADD25R,0.0200X0.0480*%
%ADD26R,0.0709X0.0630*%
%ADD27R,0.1000X0.1000*%
%ADD28R,0.0394X0.0500*%
%ADD29R,0.0866X0.0236*%
D10*
X000624Y000160D02*
X000624Y029688D01*
X039994Y029688D01*
X039994Y000160D01*
X000624Y000160D01*
D11*
X039220Y006058D03*
X039220Y009562D03*
D12*
X036898Y009562D03*
X036898Y006058D03*
D13*
X036858Y007180D03*
X036858Y007495D03*
X036858Y007810D03*
X036858Y008125D03*
X036858Y008440D03*
D14*
X037862Y008676D02*
X037864Y008702D01*
X037870Y008728D01*
X037880Y008753D01*
X037893Y008776D01*
X037909Y008796D01*
X037929Y008814D01*
X037951Y008829D01*
X037974Y008841D01*
X038000Y008849D01*
X038026Y008853D01*
X038052Y008853D01*
X038078Y008849D01*
X038104Y008841D01*
X038128Y008829D01*
X038149Y008814D01*
X038169Y008796D01*
X038185Y008776D01*
X038198Y008753D01*
X038208Y008728D01*
X038214Y008702D01*
X038216Y008676D01*
X038214Y008650D01*
X038208Y008624D01*
X038198Y008599D01*
X038185Y008576D01*
X038169Y008556D01*
X038149Y008538D01*
X038127Y008523D01*
X038104Y008511D01*
X038078Y008503D01*
X038052Y008499D01*
X038026Y008499D01*
X038000Y008503D01*
X037974Y008511D01*
X037950Y008523D01*
X037929Y008538D01*
X037909Y008556D01*
X037893Y008576D01*
X037880Y008599D01*
X037870Y008624D01*
X037864Y008650D01*
X037862Y008676D01*
X037862Y006944D02*
X037864Y006970D01*
X037870Y006996D01*
X037880Y007021D01*
X037893Y007044D01*
X037909Y007064D01*
X037929Y007082D01*
X037951Y007097D01*
X037974Y007109D01*
X038000Y007117D01*
X038026Y007121D01*
X038052Y007121D01*
X038078Y007117D01*
X038104Y007109D01*
X038128Y007097D01*
X038149Y007082D01*
X038169Y007064D01*
X038185Y007044D01*
X038198Y007021D01*
X038208Y006996D01*
X038214Y006970D01*
X038216Y006944D01*
X038214Y006918D01*
X038208Y006892D01*
X038198Y006867D01*
X038185Y006844D01*
X038169Y006824D01*
X038149Y006806D01*
X038127Y006791D01*
X038104Y006779D01*
X038078Y006771D01*
X038052Y006767D01*
X038026Y006767D01*
X038000Y006771D01*
X037974Y006779D01*
X037950Y006791D01*
X037929Y006806D01*
X037909Y006824D01*
X037893Y006844D01*
X037880Y006867D01*
X037870Y006892D01*
X037864Y006918D01*
X037862Y006944D01*
X012283Y009785D02*
X012285Y009833D01*
X012291Y009881D01*
X012301Y009928D01*
X012314Y009974D01*
X012332Y010019D01*
X012352Y010063D01*
X012377Y010105D01*
X012405Y010144D01*
X012435Y010181D01*
X012469Y010215D01*
X012506Y010247D01*
X012544Y010276D01*
X012585Y010301D01*
X012628Y010323D01*
X012673Y010341D01*
X012719Y010355D01*
X012766Y010366D01*
X012814Y010373D01*
X012862Y010376D01*
X012910Y010375D01*
X012958Y010370D01*
X013006Y010361D01*
X013052Y010349D01*
X013097Y010332D01*
X013141Y010312D01*
X013183Y010289D01*
X013223Y010262D01*
X013261Y010232D01*
X013296Y010199D01*
X013328Y010163D01*
X013358Y010125D01*
X013384Y010084D01*
X013406Y010041D01*
X013426Y009997D01*
X013441Y009952D01*
X013453Y009905D01*
X013461Y009857D01*
X013465Y009809D01*
X013465Y009761D01*
X013461Y009713D01*
X013453Y009665D01*
X013441Y009618D01*
X013426Y009573D01*
X013406Y009529D01*
X013384Y009486D01*
X013358Y009445D01*
X013328Y009407D01*
X013296Y009371D01*
X013261Y009338D01*
X013223Y009308D01*
X013183Y009281D01*
X013141Y009258D01*
X013097Y009238D01*
X013052Y009221D01*
X013006Y009209D01*
X012958Y009200D01*
X012910Y009195D01*
X012862Y009194D01*
X012814Y009197D01*
X012766Y009204D01*
X012719Y009215D01*
X012673Y009229D01*
X012628Y009247D01*
X012585Y009269D01*
X012544Y009294D01*
X012506Y009323D01*
X012469Y009355D01*
X012435Y009389D01*
X012405Y009426D01*
X012377Y009465D01*
X012352Y009507D01*
X012332Y009551D01*
X012314Y009596D01*
X012301Y009642D01*
X012291Y009689D01*
X012285Y009737D01*
X012283Y009785D01*
X012283Y002035D02*
X012285Y002083D01*
X012291Y002131D01*
X012301Y002178D01*
X012314Y002224D01*
X012332Y002269D01*
X012352Y002313D01*
X012377Y002355D01*
X012405Y002394D01*
X012435Y002431D01*
X012469Y002465D01*
X012506Y002497D01*
X012544Y002526D01*
X012585Y002551D01*
X012628Y002573D01*
X012673Y002591D01*
X012719Y002605D01*
X012766Y002616D01*
X012814Y002623D01*
X012862Y002626D01*
X012910Y002625D01*
X012958Y002620D01*
X013006Y002611D01*
X013052Y002599D01*
X013097Y002582D01*
X013141Y002562D01*
X013183Y002539D01*
X013223Y002512D01*
X013261Y002482D01*
X013296Y002449D01*
X013328Y002413D01*
X013358Y002375D01*
X013384Y002334D01*
X013406Y002291D01*
X013426Y002247D01*
X013441Y002202D01*
X013453Y002155D01*
X013461Y002107D01*
X013465Y002059D01*
X013465Y002011D01*
X013461Y001963D01*
X013453Y001915D01*
X013441Y001868D01*
X013426Y001823D01*
X013406Y001779D01*
X013384Y001736D01*
X013358Y001695D01*
X013328Y001657D01*
X013296Y001621D01*
X013261Y001588D01*
X013223Y001558D01*
X013183Y001531D01*
X013141Y001508D01*
X013097Y001488D01*
X013052Y001471D01*
X013006Y001459D01*
X012958Y001450D01*
X012910Y001445D01*
X012862Y001444D01*
X012814Y001447D01*
X012766Y001454D01*
X012719Y001465D01*
X012673Y001479D01*
X012628Y001497D01*
X012585Y001519D01*
X012544Y001544D01*
X012506Y001573D01*
X012469Y001605D01*
X012435Y001639D01*
X012405Y001676D01*
X012377Y001715D01*
X012352Y001757D01*
X012332Y001801D01*
X012314Y001846D01*
X012301Y001892D01*
X012291Y001939D01*
X012285Y001987D01*
X012283Y002035D01*
D15*
X035725Y012870D03*
X036099Y012870D03*
X036473Y012870D03*
X036473Y013894D03*
X035725Y013894D03*
D16*
X035677Y014598D03*
X035677Y015198D03*
X030374Y016360D03*
X029874Y016360D03*
X029374Y016360D03*
X029374Y016960D03*
X029874Y016960D03*
X030374Y016960D03*
X028499Y015585D03*
X028499Y014985D03*
X028249Y021735D03*
X028249Y022335D03*
X025749Y022460D03*
X025749Y021860D03*
D17*
X023374Y016685D03*
X023374Y015885D03*
X023374Y015060D03*
X023374Y014260D03*
X033874Y015885D03*
X033874Y016685D03*
X037124Y014310D03*
X037124Y013510D03*
X035574Y007060D03*
X035574Y006260D03*
D18*
X031174Y013910D03*
X030574Y013910D03*
X029924Y013910D03*
X029324Y013910D03*
X029324Y017660D03*
X029924Y017660D03*
X034949Y021910D03*
X035549Y021910D03*
X033299Y022535D03*
X032699Y022535D03*
X036449Y015660D03*
X037049Y015660D03*
X037049Y014910D03*
X036449Y014910D03*
X005049Y014785D03*
X004449Y014785D03*
X004449Y012910D03*
X005049Y012910D03*
X005049Y011910D03*
X004449Y011910D03*
D19*
X035724Y012160D03*
X036524Y012160D03*
D20*
X036448Y016410D03*
X037550Y016410D03*
D21*
X024384Y016800D03*
X024384Y015900D03*
X024384Y015000D03*
D22*
X026864Y015910D03*
D23*
X029244Y015640D03*
X029494Y015640D03*
X029754Y015640D03*
X030004Y015640D03*
X030004Y014680D03*
X029754Y014680D03*
X029494Y014680D03*
X029244Y014680D03*
D24*
X032124Y014577D03*
X032124Y016743D03*
D25*
X032004Y013650D03*
X032374Y013650D03*
X032744Y013650D03*
X032744Y012670D03*
X032374Y012670D03*
X032004Y012670D03*
D26*
X029624Y012961D03*
X028624Y012961D03*
X028624Y011859D03*
X029624Y011859D03*
D27*
X030949Y011660D03*
X032799Y011660D03*
X030624Y021485D03*
X030624Y023335D03*
D28*
X027373Y022429D03*
X026625Y022429D03*
X026999Y021641D03*
D29*
X031975Y021410D03*
X031975Y020910D03*
X031975Y020410D03*
X034023Y020410D03*
X034023Y020910D03*
X034023Y021410D03*
X034023Y021910D03*
X031975Y021910D03*
M02*
