G75*
G70*
%OFA0B0*%
%FSLAX24Y24*%
%IPPOS*%
%LPD*%
%AMOC8*
5,1,8,0,0,1.08239X$1,22.5*
%
%ADD10C,0.0650*%
%ADD11C,0.1463*%
%ADD12OC8,0.0591*%
%ADD13OC8,0.0630*%
%ADD14C,0.0630*%
%ADD15C,0.0600*%
%ADD16C,0.0480*%
%ADD17C,0.0160*%
%ADD18OC8,0.0290*%
%ADD19OC8,0.0337*%
%ADD20C,0.0240*%
%ADD21OC8,0.0472*%
%ADD22C,0.0320*%
%ADD23OC8,0.0376*%
%ADD24C,0.0200*%
D10*
X020993Y030401D03*
X020993Y031975D03*
X022449Y031975D03*
X023827Y031975D03*
X024811Y031975D03*
X025796Y031975D03*
X026780Y031975D03*
X027764Y031975D03*
X028748Y031975D03*
X029733Y031975D03*
X030717Y031975D03*
X031701Y031975D03*
X032685Y031975D03*
X032685Y030401D03*
X031701Y030401D03*
X030717Y030401D03*
X029733Y030401D03*
X028748Y030401D03*
X027764Y030401D03*
X026780Y030401D03*
X025796Y030401D03*
X024811Y030401D03*
X023827Y030401D03*
X022449Y030401D03*
X022449Y033550D03*
X023827Y033550D03*
X024811Y033550D03*
X025796Y033550D03*
X026780Y033550D03*
X027764Y033550D03*
X028748Y033550D03*
X029733Y033550D03*
X030717Y033550D03*
X031701Y033550D03*
X032685Y033550D03*
X032685Y035125D03*
X031701Y035125D03*
X030717Y035125D03*
X029733Y035125D03*
X028748Y035125D03*
X027764Y035125D03*
X026780Y035125D03*
X025796Y035125D03*
X024811Y035125D03*
X023827Y035125D03*
X022449Y035125D03*
X020993Y035125D03*
X020993Y033550D03*
D11*
X019339Y033944D03*
X034339Y033944D03*
D12*
X031193Y023625D03*
X031193Y022625D03*
X030193Y022625D03*
X029193Y022625D03*
X028193Y022625D03*
X027193Y022625D03*
X027193Y023625D03*
X028193Y023625D03*
X029193Y023625D03*
X030193Y023625D03*
X033470Y020631D03*
X033470Y019631D03*
X033470Y018631D03*
X034470Y018631D03*
X034470Y019631D03*
X034470Y020631D03*
X036568Y020750D03*
X037568Y020750D03*
X037568Y021750D03*
X036568Y021750D03*
X036568Y022750D03*
X037568Y022750D03*
X034470Y017631D03*
X033470Y017631D03*
X033470Y016631D03*
X033470Y015631D03*
X034470Y015631D03*
X034470Y016631D03*
X034470Y014631D03*
X033470Y014631D03*
X033470Y013631D03*
X034470Y013631D03*
X034468Y012375D03*
X033468Y012375D03*
X033468Y011375D03*
X034468Y011375D03*
X034468Y010375D03*
X033468Y010375D03*
X033468Y009375D03*
X033468Y008375D03*
X033468Y007375D03*
X034468Y007375D03*
X034468Y008375D03*
X034468Y009375D03*
X034468Y006375D03*
X033468Y006375D03*
X033468Y005375D03*
X033468Y004375D03*
X034468Y004375D03*
X034468Y005375D03*
X019856Y011588D03*
X018856Y011588D03*
X018856Y012588D03*
X018856Y013588D03*
X018856Y014588D03*
X018856Y015588D03*
X019856Y015588D03*
X019856Y014588D03*
X019856Y013588D03*
X019856Y012588D03*
X019856Y016588D03*
X019856Y017588D03*
X019856Y018588D03*
X018856Y018588D03*
X018856Y017588D03*
X018856Y016588D03*
X018856Y019588D03*
X018856Y020588D03*
X018856Y021588D03*
X019856Y021588D03*
X019856Y020588D03*
X019856Y019588D03*
X021193Y022625D03*
X021193Y023625D03*
X022193Y023625D03*
X022193Y022625D03*
X023193Y022625D03*
X023193Y023625D03*
X024193Y023625D03*
X024193Y022625D03*
X025193Y022625D03*
X025193Y023625D03*
X026193Y023625D03*
X026193Y022625D03*
D13*
X016193Y036700D03*
X010568Y035125D03*
D14*
X011568Y035125D03*
X016193Y035300D03*
D15*
X008818Y032175D02*
X008818Y031575D01*
X008818Y027175D02*
X008818Y026575D01*
D16*
X010818Y018730D02*
X010818Y018250D01*
X011818Y018250D02*
X011818Y018730D01*
X012818Y018730D02*
X012818Y018250D01*
X014068Y018250D02*
X014068Y018730D01*
X015068Y018730D02*
X015068Y018250D01*
X016068Y018250D02*
X016068Y018730D01*
X016068Y015250D02*
X016068Y014770D01*
X015068Y014770D02*
X015068Y015250D01*
X014068Y015250D02*
X014068Y014770D01*
X012818Y014770D02*
X012818Y015250D01*
X011818Y015250D02*
X011818Y014770D01*
X010818Y014770D02*
X010818Y015250D01*
D17*
X007548Y006083D02*
X007548Y040667D01*
X007555Y040646D01*
X007837Y040232D01*
X008228Y039920D01*
X008228Y039920D01*
X008694Y039737D01*
X008694Y039737D01*
X009194Y039700D01*
X009682Y039811D01*
X010116Y040062D01*
X010456Y040429D01*
X010674Y040880D01*
X010748Y041375D01*
X010748Y041375D01*
X010674Y041870D01*
X010674Y041870D01*
X010456Y042321D01*
X010456Y042321D01*
X010116Y042688D01*
X009983Y042765D01*
X036272Y042765D01*
X035962Y042518D01*
X035962Y042518D01*
X035962Y042518D01*
X035680Y042104D01*
X035532Y041625D01*
X035532Y041125D01*
X035680Y040646D01*
X035962Y040232D01*
X036353Y039920D01*
X036353Y039920D01*
X036819Y039737D01*
X036819Y039737D01*
X037319Y039700D01*
X037807Y039811D01*
X038241Y040062D01*
X038455Y040293D01*
X038455Y006457D01*
X038241Y006688D01*
X037807Y006939D01*
X037319Y007050D01*
X037319Y007050D01*
X036819Y007013D01*
X036528Y006898D01*
X036534Y006905D01*
X036663Y007034D01*
X036663Y007192D01*
X036728Y007257D01*
X036728Y007493D01*
X036561Y007660D01*
X036325Y007660D01*
X036193Y007528D01*
X036061Y007660D01*
X035825Y007660D01*
X035658Y007493D01*
X035658Y007257D01*
X035711Y007204D01*
X034973Y006466D01*
X034973Y005216D01*
X034852Y005095D01*
X034804Y005095D01*
X034904Y005195D01*
X034904Y005555D01*
X034649Y005810D01*
X034288Y005810D01*
X034033Y005555D01*
X034033Y005195D01*
X034133Y005095D01*
X033877Y005095D01*
X033748Y004966D01*
X033592Y004810D01*
X033288Y004810D01*
X033033Y004555D01*
X033033Y004195D01*
X033288Y003940D01*
X033649Y003940D01*
X033904Y004195D01*
X033904Y004499D01*
X034059Y004655D01*
X034133Y004655D01*
X034033Y004555D01*
X034033Y004195D01*
X034288Y003940D01*
X034649Y003940D01*
X034864Y004155D01*
X035034Y004155D01*
X035534Y004655D01*
X035643Y004764D01*
X035680Y004646D01*
X035962Y004232D01*
X036353Y003920D01*
X036353Y003920D01*
X036519Y003855D01*
X009758Y003855D01*
X010116Y004062D01*
X010456Y004429D01*
X010674Y004880D01*
X010748Y005375D01*
X010674Y005870D01*
X010674Y005870D01*
X010456Y006321D01*
X010456Y006321D01*
X010116Y006688D01*
X009682Y006939D01*
X009194Y007050D01*
X008694Y007013D01*
X008228Y006830D01*
X007837Y006518D01*
X007555Y006104D01*
X007548Y006083D01*
X007555Y006104D02*
X007555Y006104D01*
X007548Y006126D02*
X007570Y006126D01*
X007548Y006285D02*
X007678Y006285D01*
X007786Y006443D02*
X007548Y006443D01*
X007548Y006602D02*
X007942Y006602D01*
X007837Y006518D02*
X007837Y006518D01*
X007548Y006760D02*
X008141Y006760D01*
X008228Y006830D02*
X008228Y006830D01*
X008454Y006919D02*
X007548Y006919D01*
X007548Y007077D02*
X033151Y007077D01*
X033033Y007195D02*
X033288Y006940D01*
X033649Y006940D01*
X033904Y007195D01*
X033904Y007555D01*
X033649Y007810D01*
X033288Y007810D01*
X033033Y007555D01*
X033033Y007195D01*
X033033Y007236D02*
X007548Y007236D01*
X007548Y007394D02*
X033033Y007394D01*
X033033Y007553D02*
X007548Y007553D01*
X007548Y007711D02*
X011954Y007711D01*
X011908Y007757D02*
X012075Y007590D01*
X012311Y007590D01*
X012443Y007722D01*
X012575Y007590D01*
X012811Y007590D01*
X012943Y007722D01*
X013075Y007590D01*
X013311Y007590D01*
X013478Y007757D01*
X013478Y007993D01*
X013413Y008058D01*
X013413Y009034D01*
X013973Y009594D01*
X013973Y008058D01*
X013908Y007993D01*
X013908Y007757D01*
X014075Y007590D01*
X014311Y007590D01*
X014478Y007757D01*
X014478Y007993D01*
X014413Y008058D01*
X014413Y009659D01*
X014719Y009965D01*
X014811Y009965D01*
X014943Y010097D01*
X015075Y009965D01*
X015311Y009965D01*
X015478Y010132D01*
X015478Y010368D01*
X015413Y010433D01*
X015413Y011216D01*
X014978Y011651D01*
X014978Y011743D01*
X014811Y011910D01*
X014789Y011910D01*
X015219Y012340D01*
X015311Y012340D01*
X015478Y012507D01*
X015478Y012743D01*
X015316Y012905D01*
X016385Y012905D01*
X016450Y012840D01*
X016686Y012840D01*
X016853Y013007D01*
X016853Y013243D01*
X016686Y013410D01*
X016450Y013410D01*
X016385Y013345D01*
X014977Y013345D01*
X014848Y013216D01*
X014167Y012535D01*
X014075Y012535D01*
X013908Y012368D01*
X013908Y012132D01*
X014075Y011965D01*
X014222Y011965D01*
X013973Y011716D01*
X013973Y010498D01*
X013936Y010535D01*
X013700Y010535D01*
X013533Y010368D01*
X013533Y010276D01*
X012602Y009345D01*
X012473Y009216D01*
X012473Y008058D01*
X012443Y008028D01*
X012413Y008058D01*
X012413Y010659D01*
X013284Y011530D01*
X013413Y011659D01*
X013413Y012442D01*
X013478Y012507D01*
X013478Y012743D01*
X013311Y012910D01*
X013075Y012910D01*
X012908Y012743D01*
X012908Y012507D01*
X012973Y012442D01*
X012973Y011841D01*
X011973Y010841D01*
X011973Y008058D01*
X011908Y007993D01*
X011908Y007757D01*
X011908Y007870D02*
X007548Y007870D01*
X007548Y008028D02*
X011943Y008028D01*
X011973Y008187D02*
X007548Y008187D01*
X007548Y008345D02*
X011973Y008345D01*
X011973Y008504D02*
X007548Y008504D01*
X007548Y008662D02*
X011973Y008662D01*
X011973Y008821D02*
X007548Y008821D01*
X007548Y008979D02*
X011973Y008979D01*
X011973Y009138D02*
X007548Y009138D01*
X007548Y009296D02*
X011973Y009296D01*
X011973Y009455D02*
X007548Y009455D01*
X007548Y009613D02*
X011973Y009613D01*
X011973Y009772D02*
X007548Y009772D01*
X007548Y009930D02*
X011973Y009930D01*
X011973Y010089D02*
X007548Y010089D01*
X007548Y010247D02*
X011973Y010247D01*
X011973Y010406D02*
X007548Y010406D01*
X007548Y010564D02*
X011973Y010564D01*
X011973Y010723D02*
X007548Y010723D01*
X007548Y010881D02*
X012013Y010881D01*
X012193Y010750D02*
X013193Y011750D01*
X013193Y012625D01*
X012908Y012625D02*
X009879Y012625D01*
X009726Y012471D02*
X010847Y013593D01*
X016540Y013593D01*
X018421Y011712D01*
X018421Y011407D01*
X018676Y011152D01*
X019036Y011152D01*
X019211Y011328D01*
X019500Y011328D01*
X019676Y011152D01*
X020036Y011152D01*
X020211Y011328D01*
X031995Y011328D01*
X032091Y011367D01*
X032091Y011368D01*
X032997Y011368D01*
X033033Y011404D01*
X033033Y011195D01*
X033288Y010940D01*
X033649Y010940D01*
X033904Y011195D01*
X033904Y011555D01*
X033804Y011655D01*
X034133Y011655D01*
X034033Y011555D01*
X034033Y011195D01*
X034288Y010940D01*
X034649Y010940D01*
X034904Y011195D01*
X034904Y011555D01*
X034804Y011655D01*
X036135Y011655D01*
X036200Y011590D01*
X036436Y011590D01*
X036473Y011627D01*
X036473Y010466D01*
X036102Y010095D01*
X034804Y010095D01*
X034904Y010195D01*
X034904Y010555D01*
X034649Y010810D01*
X034288Y010810D01*
X034033Y010555D01*
X034033Y010195D01*
X034133Y010095D01*
X033877Y010095D01*
X033748Y009966D01*
X033592Y009810D01*
X033288Y009810D01*
X033033Y009555D01*
X033033Y009195D01*
X033288Y008940D01*
X033649Y008940D01*
X033904Y009195D01*
X033904Y009499D01*
X034059Y009655D01*
X034133Y009655D01*
X034033Y009555D01*
X034033Y009195D01*
X034288Y008940D01*
X034649Y008940D01*
X034864Y009155D01*
X037659Y009155D01*
X038159Y009655D01*
X038288Y009784D01*
X038288Y013817D01*
X038353Y013882D01*
X038353Y014118D01*
X038186Y014285D01*
X037950Y014285D01*
X037783Y014118D01*
X037783Y013882D01*
X037848Y013817D01*
X037848Y009966D01*
X037477Y009595D01*
X034864Y009595D01*
X034804Y009655D01*
X036284Y009655D01*
X036784Y010155D01*
X036913Y010284D01*
X036913Y012091D01*
X036788Y012216D01*
X036788Y013817D01*
X036853Y013882D01*
X036853Y014118D01*
X036686Y014285D01*
X036450Y014285D01*
X036283Y014118D01*
X036283Y013882D01*
X036348Y013817D01*
X036348Y012160D01*
X036200Y012160D01*
X036135Y012095D01*
X034804Y012095D01*
X034904Y012195D01*
X034904Y012555D01*
X034649Y012810D01*
X034288Y012810D01*
X034033Y012555D01*
X034033Y012195D01*
X034133Y012095D01*
X033860Y012095D01*
X033944Y012178D01*
X033944Y012357D01*
X033487Y012357D01*
X033487Y012393D01*
X033944Y012393D01*
X033944Y012572D01*
X033665Y012850D01*
X033487Y012850D01*
X033487Y012393D01*
X033450Y012393D01*
X033450Y012357D01*
X032993Y012357D01*
X032993Y012178D01*
X033089Y012082D01*
X032973Y011966D01*
X032815Y011807D01*
X032203Y011807D01*
X032203Y016962D01*
X032325Y016840D01*
X032561Y016840D01*
X032626Y016905D01*
X033072Y016905D01*
X032995Y016828D01*
X032995Y016649D01*
X033452Y016649D01*
X033452Y016613D01*
X032995Y016613D01*
X032995Y016434D01*
X033273Y016156D01*
X033452Y016156D01*
X033452Y016613D01*
X033489Y016613D01*
X033489Y016649D01*
X033946Y016649D01*
X033946Y016828D01*
X033868Y016905D01*
X034072Y016905D01*
X033995Y016828D01*
X033995Y016649D01*
X034452Y016649D01*
X034452Y016613D01*
X033995Y016613D01*
X033995Y016434D01*
X034273Y016156D01*
X034452Y016156D01*
X034452Y016613D01*
X034489Y016613D01*
X034489Y016649D01*
X034946Y016649D01*
X034946Y016828D01*
X034868Y016905D01*
X035659Y016905D01*
X035788Y017034D01*
X036469Y017715D01*
X036561Y017715D01*
X036728Y017882D01*
X036728Y018118D01*
X036596Y018250D01*
X036603Y018257D01*
X036603Y018493D01*
X036436Y018660D01*
X036200Y018660D01*
X036033Y018493D01*
X036033Y018401D01*
X035977Y018345D01*
X034800Y018345D01*
X034906Y018451D01*
X034906Y018811D01*
X034651Y019066D01*
X034290Y019066D01*
X034035Y018811D01*
X034035Y018451D01*
X034141Y018345D01*
X033800Y018345D01*
X033906Y018451D01*
X033906Y018811D01*
X033651Y019066D01*
X033290Y019066D01*
X033035Y018811D01*
X033035Y018451D01*
X033141Y018345D01*
X032751Y018345D01*
X032686Y018410D01*
X032450Y018410D01*
X032283Y018243D01*
X032283Y018007D01*
X032450Y017840D01*
X032686Y017840D01*
X032751Y017905D01*
X033129Y017905D01*
X033035Y017811D01*
X033035Y017451D01*
X033141Y017345D01*
X032626Y017345D01*
X032561Y017410D01*
X032325Y017410D01*
X032203Y017288D01*
X032203Y018267D01*
X032664Y018728D01*
X032703Y018823D01*
X032703Y023842D01*
X033435Y024574D01*
X033599Y024574D01*
X033820Y024794D01*
X033820Y025106D01*
X033599Y025326D01*
X033287Y025326D01*
X033067Y025106D01*
X033067Y024941D01*
X032296Y024170D01*
X032223Y024097D01*
X032183Y024002D01*
X032183Y018983D01*
X031796Y018595D01*
X031723Y018522D01*
X031683Y018427D01*
X031683Y011847D01*
X020211Y011847D01*
X020036Y012023D01*
X019676Y012023D01*
X019500Y011847D01*
X019211Y011847D01*
X019036Y012023D01*
X018732Y012023D01*
X016851Y013904D01*
X016722Y014032D01*
X010665Y014032D01*
X010536Y013904D01*
X009286Y012654D01*
X009286Y012121D01*
X009221Y012056D01*
X009221Y011819D01*
X009388Y011653D01*
X009624Y011653D01*
X009791Y011819D01*
X009791Y012056D01*
X009726Y012121D01*
X009726Y012471D01*
X009726Y012466D02*
X012949Y012466D01*
X012973Y012308D02*
X009726Y012308D01*
X009726Y012149D02*
X012973Y012149D01*
X012973Y011991D02*
X009791Y011991D01*
X009791Y011832D02*
X012964Y011832D01*
X012806Y011674D02*
X009645Y011674D01*
X009367Y011674D02*
X007548Y011674D01*
X007548Y011832D02*
X009221Y011832D01*
X009221Y011991D02*
X007548Y011991D01*
X007548Y012149D02*
X009286Y012149D01*
X009286Y012308D02*
X007548Y012308D01*
X007548Y012466D02*
X009286Y012466D01*
X009286Y012625D02*
X007548Y012625D01*
X007548Y012783D02*
X009415Y012783D01*
X009574Y012942D02*
X007548Y012942D01*
X007548Y013100D02*
X009732Y013100D01*
X009891Y013259D02*
X007548Y013259D01*
X007548Y013417D02*
X008998Y013417D01*
X009075Y013340D02*
X009311Y013340D01*
X009478Y013507D01*
X009478Y013743D01*
X009413Y013808D01*
X009413Y015909D01*
X009598Y016094D01*
X009598Y013808D01*
X009533Y013743D01*
X009533Y013507D01*
X009700Y013340D01*
X009936Y013340D01*
X010103Y013507D01*
X010103Y013743D01*
X010038Y013808D01*
X010038Y016159D01*
X010409Y016530D01*
X017659Y016530D01*
X017788Y016659D01*
X018131Y017001D01*
X018421Y016712D01*
X018421Y016407D01*
X018676Y016152D01*
X019036Y016152D01*
X019291Y016407D01*
X019291Y016768D01*
X019036Y017023D01*
X018732Y017023D01*
X018442Y017313D01*
X018479Y017349D01*
X018676Y017152D01*
X019036Y017152D01*
X019291Y017407D01*
X019291Y017768D01*
X019036Y018023D01*
X018676Y018023D01*
X018538Y017886D01*
X018538Y018289D01*
X018676Y018152D01*
X019036Y018152D01*
X019291Y018407D01*
X019291Y018768D01*
X019036Y019023D01*
X018676Y019023D01*
X018538Y018886D01*
X018538Y019289D01*
X018676Y019152D01*
X019036Y019152D01*
X019291Y019407D01*
X019291Y019768D01*
X019036Y020023D01*
X018676Y020023D01*
X018538Y019886D01*
X018538Y020289D01*
X018676Y020152D01*
X019036Y020152D01*
X019291Y020407D01*
X019291Y020768D01*
X019036Y021023D01*
X018676Y021023D01*
X018538Y020886D01*
X018538Y021289D01*
X018676Y021152D01*
X019036Y021152D01*
X019291Y021407D01*
X019291Y021768D01*
X019036Y022023D01*
X018676Y022023D01*
X018538Y021886D01*
X018538Y021909D01*
X019533Y022904D01*
X019533Y022757D01*
X019636Y022654D01*
X019636Y021983D01*
X019421Y021768D01*
X019421Y021407D01*
X019676Y021152D01*
X020036Y021152D01*
X020098Y021214D01*
X020098Y021141D01*
X019980Y021023D01*
X019676Y021023D01*
X019421Y020768D01*
X019421Y020407D01*
X019676Y020152D01*
X020036Y020152D01*
X020291Y020407D01*
X020291Y020712D01*
X020409Y020830D01*
X020433Y020854D01*
X020433Y020698D01*
X020473Y020603D01*
X020546Y020530D01*
X020635Y020441D01*
X020635Y020372D01*
X020816Y020192D01*
X021071Y020192D01*
X021252Y020372D01*
X021252Y020628D01*
X021071Y020808D01*
X021003Y020808D01*
X020953Y020858D01*
X020953Y022249D01*
X021013Y022190D01*
X021374Y022190D01*
X021629Y022445D01*
X021629Y022805D01*
X021374Y023060D01*
X021013Y023060D01*
X020953Y023001D01*
X020953Y023249D01*
X021013Y023190D01*
X021374Y023190D01*
X021629Y023445D01*
X021629Y023805D01*
X021374Y024060D01*
X021013Y024060D01*
X020758Y023805D01*
X020758Y023678D01*
X020752Y023684D01*
X020752Y023753D01*
X020571Y023933D01*
X020563Y023933D01*
X021034Y024405D01*
X023034Y024405D01*
X023607Y024978D01*
X023607Y024785D01*
X023575Y024785D01*
X023408Y024618D01*
X023408Y024382D01*
X023575Y024215D01*
X023722Y024215D01*
X023602Y024095D01*
X023473Y023966D01*
X023473Y023961D01*
X023374Y024060D01*
X023013Y024060D01*
X022758Y023805D01*
X022758Y023445D01*
X023013Y023190D01*
X023374Y023190D01*
X023473Y023289D01*
X023473Y022961D01*
X023374Y023060D01*
X023013Y023060D01*
X022758Y022805D01*
X022758Y022445D01*
X023013Y022190D01*
X023374Y022190D01*
X023473Y022289D01*
X023473Y017509D01*
X024458Y016524D01*
X024458Y016432D01*
X024625Y016265D01*
X024861Y016265D01*
X025028Y016432D01*
X025028Y016668D01*
X024861Y016835D01*
X024769Y016835D01*
X023913Y017691D01*
X023913Y022289D01*
X024013Y022190D01*
X024374Y022190D01*
X024473Y022289D01*
X024473Y019284D01*
X024602Y019155D01*
X025152Y018605D01*
X025152Y018513D01*
X025319Y018346D01*
X025555Y018346D01*
X025722Y018513D01*
X025722Y018749D01*
X025555Y018916D01*
X025463Y018916D01*
X024913Y019466D01*
X024913Y022289D01*
X025013Y022190D01*
X025374Y022190D01*
X025473Y022289D01*
X025473Y019234D01*
X025602Y019105D01*
X025608Y019099D01*
X025608Y019007D01*
X025775Y018840D01*
X026011Y018840D01*
X026178Y019007D01*
X026178Y019243D01*
X026011Y019410D01*
X025919Y019410D01*
X025913Y019416D01*
X025913Y021277D01*
X025975Y021215D01*
X026211Y021215D01*
X026276Y021280D01*
X027109Y021280D01*
X027238Y021409D01*
X027413Y021584D01*
X027413Y022229D01*
X027629Y022445D01*
X027629Y022805D01*
X027374Y023060D01*
X027013Y023060D01*
X026913Y022961D01*
X026913Y023289D01*
X027013Y023190D01*
X027374Y023190D01*
X027629Y023445D01*
X027629Y023805D01*
X027374Y024060D01*
X027013Y024060D01*
X026913Y023961D01*
X026913Y029591D01*
X026784Y029720D01*
X026501Y030004D01*
X026501Y030022D01*
X026517Y030007D01*
X026687Y029936D01*
X026872Y029936D01*
X027043Y030007D01*
X027174Y030137D01*
X027245Y030308D01*
X027245Y030493D01*
X027174Y030664D01*
X027043Y030795D01*
X026872Y030865D01*
X026687Y030865D01*
X026517Y030795D01*
X026501Y030779D01*
X026501Y031385D01*
X026644Y031529D01*
X026687Y031511D01*
X026872Y031511D01*
X027043Y031581D01*
X027174Y031712D01*
X027245Y031883D01*
X027245Y032068D01*
X027174Y032239D01*
X027043Y032369D01*
X026872Y032440D01*
X026687Y032440D01*
X026517Y032369D01*
X026386Y032239D01*
X026315Y032068D01*
X026315Y031883D01*
X026333Y031840D01*
X026252Y031758D01*
X026264Y031782D01*
X026288Y031857D01*
X026300Y031936D01*
X026300Y031947D01*
X025824Y031947D01*
X025824Y031471D01*
X025835Y031471D01*
X025914Y031483D01*
X025989Y031508D01*
X026060Y031544D01*
X026061Y031544D01*
X026061Y030793D01*
X026059Y030795D01*
X025888Y030865D01*
X025703Y030865D01*
X025538Y030797D01*
X025538Y031540D01*
X025602Y031508D01*
X025677Y031483D01*
X025756Y031471D01*
X025767Y031471D01*
X025767Y031947D01*
X025824Y031947D01*
X025824Y032004D01*
X025767Y032004D01*
X025767Y032480D01*
X025756Y032480D01*
X025677Y032468D01*
X025602Y032443D01*
X025538Y032411D01*
X025538Y032982D01*
X025660Y033103D01*
X025703Y033085D01*
X025888Y033085D01*
X026059Y033156D01*
X026190Y033287D01*
X026260Y033458D01*
X026260Y033643D01*
X026190Y033813D01*
X026059Y033944D01*
X025888Y034015D01*
X025703Y034015D01*
X025532Y033944D01*
X025402Y033813D01*
X025331Y033643D01*
X025331Y033458D01*
X025349Y033414D01*
X025098Y033164D01*
X025098Y032346D01*
X025075Y032369D01*
X024904Y032440D01*
X024719Y032440D01*
X024548Y032369D01*
X024417Y032239D01*
X024347Y032068D01*
X024347Y031883D01*
X024417Y031712D01*
X024548Y031581D01*
X024719Y031511D01*
X024904Y031511D01*
X025075Y031581D01*
X025098Y031605D01*
X025098Y030771D01*
X025075Y030795D01*
X024904Y030865D01*
X024719Y030865D01*
X024548Y030795D01*
X024417Y030664D01*
X024347Y030493D01*
X024347Y030308D01*
X024417Y030137D01*
X024548Y030007D01*
X024719Y029936D01*
X024904Y029936D01*
X025075Y030007D01*
X025098Y030030D01*
X025098Y026023D01*
X025036Y026085D01*
X024800Y026085D01*
X024633Y025918D01*
X024633Y025682D01*
X024698Y025617D01*
X024698Y025091D01*
X023952Y024345D01*
X023941Y024345D01*
X023978Y024382D01*
X023978Y024474D01*
X024047Y024543D01*
X024047Y029989D01*
X024090Y030007D01*
X024221Y030137D01*
X024292Y030308D01*
X024292Y030493D01*
X024221Y030664D01*
X024090Y030795D01*
X023920Y030865D01*
X023735Y030865D01*
X023564Y030795D01*
X023551Y030782D01*
X023551Y031388D01*
X023691Y031529D01*
X023735Y031511D01*
X023920Y031511D01*
X024090Y031581D01*
X024221Y031712D01*
X024292Y031883D01*
X024292Y032068D01*
X024221Y032239D01*
X024090Y032369D01*
X024005Y032405D01*
X024034Y032405D01*
X024409Y032780D01*
X024538Y032909D01*
X024538Y033166D01*
X024548Y033156D01*
X024719Y033085D01*
X024904Y033085D01*
X025075Y033156D01*
X025205Y033287D01*
X025276Y033458D01*
X025276Y033643D01*
X025205Y033813D01*
X025075Y033944D01*
X024904Y034015D01*
X024719Y034015D01*
X024548Y033944D01*
X024538Y033934D01*
X024538Y034541D01*
X024676Y034678D01*
X024719Y034660D01*
X024904Y034660D01*
X025075Y034731D01*
X025205Y034862D01*
X025276Y035033D01*
X025276Y035217D01*
X025205Y035388D01*
X025075Y035519D01*
X024904Y035590D01*
X024719Y035590D01*
X024548Y035519D01*
X024417Y035388D01*
X024347Y035217D01*
X024347Y035033D01*
X024365Y034989D01*
X024098Y034723D01*
X024098Y033977D01*
X024092Y033982D01*
X024021Y034018D01*
X023945Y034043D01*
X023867Y034055D01*
X023855Y034055D01*
X023855Y033578D01*
X023799Y033578D01*
X023799Y034055D01*
X023787Y034055D01*
X023709Y034043D01*
X023633Y034018D01*
X023563Y033982D01*
X023498Y033935D01*
X023442Y033879D01*
X023395Y033815D01*
X023359Y033744D01*
X023335Y033668D01*
X023328Y033627D01*
X023328Y034258D01*
X023731Y034662D01*
X023735Y034660D01*
X023920Y034660D01*
X024090Y034731D01*
X024221Y034862D01*
X024292Y035033D01*
X024292Y035217D01*
X024221Y035388D01*
X024090Y035519D01*
X024087Y035520D01*
X024087Y035950D01*
X027464Y035950D01*
X027464Y035482D01*
X027370Y035388D01*
X027299Y035217D01*
X027299Y035033D01*
X027370Y034862D01*
X027501Y034731D01*
X027672Y034660D01*
X027857Y034660D01*
X028027Y034731D01*
X028158Y034862D01*
X028229Y035033D01*
X028229Y035217D01*
X028158Y035388D01*
X028064Y035482D01*
X028064Y035950D01*
X036069Y035950D01*
X037818Y034201D01*
X037818Y029243D01*
X037706Y029356D01*
X037706Y029356D01*
X037527Y029430D01*
X037358Y029430D01*
X037350Y029431D01*
X037333Y029438D01*
X037321Y029450D01*
X037314Y029466D01*
X037313Y029475D01*
X037313Y030016D01*
X034257Y033072D01*
X034512Y033072D01*
X034833Y033205D01*
X035078Y033450D01*
X035210Y033771D01*
X035210Y034117D01*
X035078Y034438D01*
X034833Y034683D01*
X034512Y034815D01*
X034166Y034815D01*
X033845Y034683D01*
X033609Y034446D01*
X033509Y034545D01*
X033359Y034695D01*
X032862Y034695D01*
X032949Y034731D01*
X033079Y034862D01*
X033150Y035033D01*
X033150Y035217D01*
X033079Y035388D01*
X032949Y035519D01*
X032778Y035590D01*
X032593Y035590D01*
X032422Y035519D01*
X032291Y035388D01*
X032221Y035217D01*
X032221Y035033D01*
X032291Y034862D01*
X032422Y034731D01*
X032509Y034695D01*
X031968Y034695D01*
X032030Y034740D01*
X032086Y034796D01*
X032133Y034860D01*
X032169Y034931D01*
X032194Y035007D01*
X032206Y035085D01*
X032206Y035097D01*
X031729Y035097D01*
X031729Y035153D01*
X031673Y035153D01*
X031673Y035097D01*
X031196Y035097D01*
X031196Y035085D01*
X031209Y035007D01*
X031233Y034931D01*
X031269Y034860D01*
X031316Y034796D01*
X031372Y034740D01*
X031434Y034695D01*
X030893Y034695D01*
X030980Y034731D01*
X031111Y034862D01*
X031182Y035033D01*
X031182Y035217D01*
X031111Y035388D01*
X030980Y035519D01*
X030809Y035590D01*
X030624Y035590D01*
X030454Y035519D01*
X030323Y035388D01*
X030252Y035217D01*
X030252Y035033D01*
X030323Y034862D01*
X030454Y034731D01*
X030540Y034695D01*
X029977Y034695D01*
X029848Y034566D01*
X029513Y034230D01*
X029513Y033962D01*
X029469Y033944D01*
X029339Y033813D01*
X029268Y033643D01*
X029268Y033458D01*
X029339Y033287D01*
X029469Y033156D01*
X029640Y033085D01*
X029825Y033085D01*
X029940Y033133D01*
X029513Y032705D01*
X029513Y032387D01*
X029469Y032369D01*
X029463Y032363D01*
X029463Y033146D01*
X029195Y033414D01*
X029213Y033458D01*
X029213Y033643D01*
X029142Y033813D01*
X029012Y033944D01*
X028841Y034015D01*
X028656Y034015D01*
X028485Y033944D01*
X028354Y033813D01*
X028284Y033643D01*
X028284Y033458D01*
X028354Y033287D01*
X028485Y033156D01*
X028656Y033085D01*
X028841Y033085D01*
X028884Y033103D01*
X029023Y032964D01*
X029023Y032358D01*
X029012Y032369D01*
X028841Y032440D01*
X028656Y032440D01*
X028485Y032369D01*
X028354Y032239D01*
X028284Y032068D01*
X028284Y031883D01*
X028354Y031712D01*
X028485Y031581D01*
X028656Y031511D01*
X028841Y031511D01*
X029012Y031581D01*
X029023Y031593D01*
X029023Y030783D01*
X029012Y030795D01*
X028841Y030865D01*
X028656Y030865D01*
X028485Y030795D01*
X028354Y030664D01*
X028284Y030493D01*
X028284Y030308D01*
X028354Y030137D01*
X028485Y030007D01*
X028656Y029936D01*
X028841Y029936D01*
X029012Y030007D01*
X029023Y030018D01*
X029023Y028871D01*
X028908Y028756D01*
X028908Y028519D01*
X029075Y028353D01*
X029311Y028353D01*
X029478Y028519D01*
X029478Y028756D01*
X029463Y028771D01*
X029463Y030013D01*
X029469Y030007D01*
X029640Y029936D01*
X029825Y029936D01*
X029996Y030007D01*
X030011Y030021D01*
X030011Y028984D01*
X030140Y028855D01*
X030235Y028760D01*
X030013Y028760D01*
X029846Y028593D01*
X029846Y028357D01*
X029911Y028292D01*
X029911Y024404D01*
X029602Y024095D01*
X029473Y023966D01*
X029473Y023961D01*
X029374Y024060D01*
X029013Y024060D01*
X028758Y023805D01*
X028758Y023445D01*
X029013Y023190D01*
X029374Y023190D01*
X029473Y023289D01*
X029473Y023034D01*
X029602Y022905D01*
X029602Y022905D01*
X029758Y022749D01*
X029758Y022445D01*
X030013Y022190D01*
X030374Y022190D01*
X030629Y022445D01*
X030629Y022805D01*
X030374Y023060D01*
X030069Y023060D01*
X029913Y023216D01*
X029913Y023289D01*
X030013Y023190D01*
X030374Y023190D01*
X030497Y023313D01*
X030497Y023010D01*
X030758Y022749D01*
X030758Y022445D01*
X031013Y022190D01*
X031374Y022190D01*
X031473Y022289D01*
X031473Y021966D01*
X030348Y020841D01*
X030348Y016723D01*
X030186Y016885D01*
X030068Y016885D01*
X026753Y020153D01*
X026753Y020243D01*
X026586Y020410D01*
X026350Y020410D01*
X026183Y020243D01*
X026183Y020007D01*
X026350Y019840D01*
X026444Y019840D01*
X029783Y016547D01*
X029783Y016482D01*
X029950Y016315D01*
X030186Y016315D01*
X030348Y016477D01*
X030348Y015091D01*
X029917Y014660D01*
X029825Y014660D01*
X029658Y014493D01*
X029658Y014257D01*
X029825Y014090D01*
X030061Y014090D01*
X030228Y014257D01*
X030228Y014349D01*
X030598Y014719D01*
X030598Y013841D01*
X029917Y013160D01*
X029825Y013160D01*
X029658Y012993D01*
X029658Y012757D01*
X029825Y012590D01*
X030061Y012590D01*
X030228Y012757D01*
X030228Y012849D01*
X030909Y013530D01*
X031038Y013659D01*
X031038Y020534D01*
X032034Y021530D01*
X032163Y021659D01*
X032183Y021659D01*
X032163Y021659D02*
X032163Y028284D01*
X032284Y028405D01*
X032413Y028534D01*
X032413Y028817D01*
X032478Y028882D01*
X032478Y029118D01*
X032311Y029285D01*
X032075Y029285D01*
X031913Y029123D01*
X031913Y029159D01*
X032284Y029530D01*
X032413Y029659D01*
X032413Y030015D01*
X032422Y030007D01*
X032593Y029936D01*
X032778Y029936D01*
X032949Y030007D01*
X033079Y030137D01*
X033150Y030308D01*
X033150Y030493D01*
X033079Y030664D01*
X032949Y030795D01*
X032778Y030865D01*
X032593Y030865D01*
X032422Y030795D01*
X032413Y030786D01*
X032413Y031590D01*
X032422Y031581D01*
X032593Y031511D01*
X032778Y031511D01*
X032949Y031581D01*
X033079Y031712D01*
X033150Y031883D01*
X033150Y032068D01*
X033079Y032239D01*
X032949Y032369D01*
X032778Y032440D01*
X032593Y032440D01*
X032422Y032369D01*
X032413Y032361D01*
X032413Y033149D01*
X032148Y033414D01*
X032166Y033458D01*
X032166Y033643D01*
X032095Y033813D01*
X031964Y033944D01*
X031878Y033980D01*
X032509Y033980D01*
X032422Y033944D01*
X032291Y033813D01*
X032221Y033643D01*
X032221Y033458D01*
X032291Y033287D01*
X032422Y033156D01*
X032593Y033085D01*
X032778Y033085D01*
X032949Y033156D01*
X033062Y033270D01*
X036348Y029984D01*
X036348Y023966D01*
X035902Y023520D01*
X035773Y023391D01*
X035773Y022234D01*
X036133Y021874D01*
X036133Y021626D01*
X035852Y021345D01*
X035723Y021216D01*
X035723Y019784D01*
X036848Y018659D01*
X036848Y016183D01*
X036783Y016118D01*
X036783Y015882D01*
X036950Y015715D01*
X037186Y015715D01*
X037318Y015847D01*
X037450Y015715D01*
X037686Y015715D01*
X037853Y015882D01*
X037853Y016118D01*
X037788Y016183D01*
X037788Y019159D01*
X038413Y019784D01*
X038413Y021216D01*
X038284Y021345D01*
X038004Y021626D01*
X038004Y021930D01*
X037749Y022185D01*
X037444Y022185D01*
X037313Y022316D01*
X037313Y022389D01*
X037388Y022315D01*
X037749Y022315D01*
X038004Y022570D01*
X038004Y022761D01*
X038373Y023130D01*
X038418Y023240D01*
X038418Y034385D01*
X038373Y034495D01*
X036448Y036420D01*
X036363Y036504D01*
X036253Y036550D01*
X022058Y036550D01*
X021948Y036504D01*
X021863Y036420D01*
X021033Y035590D01*
X020900Y035590D01*
X020729Y035519D01*
X020635Y035425D01*
X017759Y035425D01*
X017648Y035379D01*
X017564Y035295D01*
X016819Y034550D01*
X012568Y034550D01*
X012023Y035094D01*
X012023Y035216D01*
X011954Y035383D01*
X011826Y035511D01*
X011659Y035580D01*
X011478Y035580D01*
X011311Y035511D01*
X011183Y035383D01*
X011113Y035216D01*
X011113Y035034D01*
X011183Y034867D01*
X011311Y034739D01*
X011478Y034670D01*
X011599Y034670D01*
X012273Y033996D01*
X012384Y033950D01*
X017003Y033950D01*
X017113Y033996D01*
X017198Y034080D01*
X017943Y034825D01*
X020635Y034825D01*
X020729Y034731D01*
X020900Y034660D01*
X021085Y034660D01*
X021256Y034731D01*
X021387Y034862D01*
X021457Y035033D01*
X021457Y035166D01*
X022242Y035950D01*
X023567Y035950D01*
X023567Y035520D01*
X023564Y035519D01*
X023433Y035388D01*
X023362Y035217D01*
X023362Y035033D01*
X023364Y035029D01*
X022921Y034587D01*
X022848Y034513D01*
X022808Y034418D01*
X022808Y033848D01*
X022713Y033944D01*
X022542Y034015D01*
X022357Y034015D01*
X022186Y033944D01*
X022055Y033813D01*
X021984Y033643D01*
X021984Y033510D01*
X021650Y033175D01*
X021275Y033175D01*
X021387Y033287D01*
X021457Y033458D01*
X021457Y033643D01*
X021387Y033813D01*
X021256Y033944D01*
X021085Y034015D01*
X020900Y034015D01*
X020729Y033944D01*
X020635Y033850D01*
X020559Y033850D01*
X020449Y033805D01*
X018569Y031925D01*
X017384Y031925D01*
X017273Y031879D01*
X017189Y031795D01*
X014314Y028920D01*
X014268Y028810D01*
X014268Y021999D01*
X013819Y021550D01*
X013800Y021550D01*
X013724Y021626D01*
X013412Y021626D01*
X013192Y021406D01*
X013192Y021094D01*
X013412Y020874D01*
X013724Y020874D01*
X013800Y020950D01*
X014003Y020950D01*
X014113Y020996D01*
X014738Y021621D01*
X014823Y021705D01*
X014868Y021815D01*
X014868Y028626D01*
X017568Y031325D01*
X018719Y031325D01*
X018694Y031300D01*
X017634Y031300D01*
X017523Y031254D01*
X014939Y028670D01*
X014893Y028560D01*
X014893Y021482D01*
X014817Y021406D01*
X014817Y021094D01*
X015037Y020874D01*
X015349Y020874D01*
X015570Y021094D01*
X015570Y021406D01*
X015493Y021482D01*
X015493Y024264D01*
X015723Y024034D01*
X015723Y020284D01*
X017408Y018599D01*
X017408Y018507D01*
X017575Y018340D01*
X017811Y018340D01*
X017848Y018377D01*
X017848Y017716D01*
X017728Y017596D01*
X017728Y017618D01*
X017561Y017785D01*
X017325Y017785D01*
X017158Y017618D01*
X017158Y017382D01*
X017320Y017220D01*
X010102Y017220D01*
X008973Y016091D01*
X008973Y013808D01*
X008908Y013743D01*
X008908Y013507D01*
X009075Y013340D01*
X008908Y013576D02*
X007548Y013576D01*
X007548Y013734D02*
X008908Y013734D01*
X008973Y013893D02*
X007548Y013893D01*
X007548Y014051D02*
X008973Y014051D01*
X008973Y014210D02*
X007548Y014210D01*
X007548Y014368D02*
X008973Y014368D01*
X008973Y014527D02*
X007548Y014527D01*
X007548Y014685D02*
X008973Y014685D01*
X008973Y014844D02*
X007548Y014844D01*
X007548Y015002D02*
X008973Y015002D01*
X008973Y015161D02*
X007548Y015161D01*
X007548Y015319D02*
X008973Y015319D01*
X008973Y015478D02*
X007548Y015478D01*
X007548Y015636D02*
X008973Y015636D01*
X008973Y015795D02*
X007548Y015795D01*
X007548Y015953D02*
X008973Y015953D01*
X008994Y016112D02*
X007548Y016112D01*
X007548Y016270D02*
X009152Y016270D01*
X009311Y016429D02*
X007548Y016429D01*
X007548Y016587D02*
X009469Y016587D01*
X009628Y016746D02*
X007548Y016746D01*
X007548Y016904D02*
X009786Y016904D01*
X009945Y017063D02*
X007548Y017063D01*
X007548Y017221D02*
X017319Y017221D01*
X017161Y017380D02*
X007548Y017380D01*
X007548Y017538D02*
X017158Y017538D01*
X017237Y017697D02*
X007548Y017697D01*
X007548Y017855D02*
X017848Y017855D01*
X017848Y018014D02*
X016369Y018014D01*
X016390Y018035D02*
X016448Y018174D01*
X016448Y018806D01*
X017201Y018806D01*
X017043Y018965D02*
X016371Y018965D01*
X016390Y018945D02*
X016284Y019052D01*
X016144Y019110D01*
X015993Y019110D01*
X015853Y019052D01*
X015746Y018945D01*
X015688Y018806D01*
X015689Y018806D02*
X015448Y018806D01*
X015390Y018945D01*
X015284Y019052D01*
X015144Y019110D01*
X014993Y019110D01*
X014853Y019052D01*
X014746Y018945D01*
X014688Y018806D01*
X014689Y018806D02*
X014448Y018806D01*
X014390Y018945D01*
X014284Y019052D01*
X014144Y019110D01*
X013993Y019110D01*
X013853Y019052D01*
X013746Y018945D01*
X013688Y018806D01*
X013689Y018806D02*
X013198Y018806D01*
X013140Y018945D01*
X013034Y019052D01*
X012894Y019110D01*
X012743Y019110D01*
X012603Y019052D01*
X012496Y018945D01*
X012438Y018806D01*
X012439Y018806D02*
X012198Y018806D01*
X012140Y018945D01*
X012034Y019052D01*
X011894Y019110D01*
X011743Y019110D01*
X011603Y019052D01*
X011496Y018945D01*
X011438Y018806D01*
X011439Y018806D02*
X011198Y018806D01*
X011140Y018945D01*
X011034Y019052D01*
X010894Y019110D01*
X010743Y019110D01*
X010603Y019052D01*
X010496Y018945D01*
X010438Y018806D01*
X010439Y018806D02*
X007548Y018806D01*
X007548Y018648D02*
X010438Y018648D01*
X010438Y018806D02*
X010438Y018174D01*
X010496Y018035D01*
X010603Y017928D01*
X010743Y017870D01*
X010894Y017870D01*
X011034Y017928D01*
X011140Y018035D01*
X011198Y018174D01*
X011198Y018806D01*
X011198Y018648D02*
X011438Y018648D01*
X011438Y018806D02*
X011438Y018174D01*
X011496Y018035D01*
X011603Y017928D01*
X011743Y017870D01*
X011894Y017870D01*
X012034Y017928D01*
X012140Y018035D01*
X012198Y018174D01*
X012198Y018806D01*
X012198Y018648D02*
X012438Y018648D01*
X012438Y018806D02*
X012438Y018174D01*
X012496Y018035D01*
X012603Y017928D01*
X012743Y017870D01*
X012894Y017870D01*
X013034Y017928D01*
X013140Y018035D01*
X013198Y018174D01*
X013198Y018806D01*
X013198Y018648D02*
X013688Y018648D01*
X013688Y018806D02*
X013688Y018174D01*
X013746Y018035D01*
X013853Y017928D01*
X013993Y017870D01*
X014144Y017870D01*
X014284Y017928D01*
X014390Y018035D01*
X014448Y018174D01*
X014448Y018806D01*
X014448Y018648D02*
X014688Y018648D01*
X014688Y018806D02*
X014688Y018174D01*
X014746Y018035D01*
X014853Y017928D01*
X014993Y017870D01*
X015144Y017870D01*
X015284Y017928D01*
X015390Y018035D01*
X015448Y018174D01*
X015448Y018806D01*
X015448Y018648D02*
X015688Y018648D01*
X015688Y018806D02*
X015688Y018174D01*
X015746Y018035D01*
X015853Y017928D01*
X015993Y017870D01*
X016144Y017870D01*
X016284Y017928D01*
X016390Y018035D01*
X016447Y018172D02*
X017848Y018172D01*
X017848Y018331D02*
X016448Y018331D01*
X016448Y018489D02*
X017426Y018489D01*
X017360Y018648D02*
X016448Y018648D01*
X016448Y018806D02*
X016390Y018945D01*
X016726Y019282D02*
X007548Y019282D01*
X007548Y019440D02*
X016567Y019440D01*
X016409Y019599D02*
X007548Y019599D01*
X007548Y019757D02*
X016250Y019757D01*
X016092Y019916D02*
X007548Y019916D01*
X007548Y020074D02*
X015933Y020074D01*
X015775Y020233D02*
X007548Y020233D01*
X007548Y020391D02*
X015723Y020391D01*
X015723Y020550D02*
X007548Y020550D01*
X007548Y020708D02*
X015723Y020708D01*
X015723Y020867D02*
X007548Y020867D01*
X007548Y021025D02*
X013261Y021025D01*
X013192Y021184D02*
X007548Y021184D01*
X007548Y021342D02*
X013192Y021342D01*
X013287Y021501D02*
X007548Y021501D01*
X007548Y021659D02*
X013928Y021659D01*
X014087Y021818D02*
X007548Y021818D01*
X007548Y021976D02*
X014245Y021976D01*
X014268Y022135D02*
X007548Y022135D01*
X007548Y022293D02*
X014268Y022293D01*
X014268Y022452D02*
X007548Y022452D01*
X007548Y022610D02*
X014268Y022610D01*
X014268Y022769D02*
X007548Y022769D01*
X007548Y022927D02*
X014268Y022927D01*
X014268Y023086D02*
X007548Y023086D01*
X007548Y023244D02*
X014268Y023244D01*
X014268Y023403D02*
X007548Y023403D01*
X007548Y023561D02*
X014268Y023561D01*
X014268Y023720D02*
X007548Y023720D01*
X007548Y023878D02*
X014268Y023878D01*
X014268Y024037D02*
X007548Y024037D01*
X007548Y024195D02*
X014268Y024195D01*
X014268Y024354D02*
X007548Y024354D01*
X007548Y024512D02*
X014268Y024512D01*
X014268Y024671D02*
X007548Y024671D01*
X007548Y024829D02*
X014268Y024829D01*
X014268Y024988D02*
X007548Y024988D01*
X007548Y025146D02*
X014268Y025146D01*
X014268Y025305D02*
X007548Y025305D01*
X007548Y025463D02*
X014268Y025463D01*
X014268Y025622D02*
X007548Y025622D01*
X007548Y025780D02*
X014268Y025780D01*
X014268Y025939D02*
X007548Y025939D01*
X007548Y026097D02*
X008768Y026097D01*
X008781Y026095D02*
X008706Y026107D01*
X008634Y026130D01*
X008567Y026164D01*
X008506Y026209D01*
X008452Y026262D01*
X008408Y026323D01*
X008373Y026391D01*
X008350Y026463D01*
X008338Y026537D01*
X008338Y026855D01*
X008798Y026855D01*
X008798Y026895D01*
X008338Y026895D01*
X008338Y027213D01*
X008350Y027287D01*
X008373Y027359D01*
X008408Y027427D01*
X008452Y027488D01*
X008506Y027541D01*
X008567Y027586D01*
X008634Y027620D01*
X008706Y027643D01*
X008781Y027655D01*
X008798Y027655D01*
X008798Y026895D01*
X008838Y026895D01*
X008838Y027655D01*
X008856Y027655D01*
X008931Y027643D01*
X009003Y027620D01*
X009070Y027586D01*
X009131Y027541D01*
X009184Y027488D01*
X009229Y027427D01*
X009263Y027359D01*
X009287Y027287D01*
X009298Y027213D01*
X009298Y026895D01*
X008838Y026895D01*
X008838Y026855D01*
X008838Y026095D01*
X008856Y026095D01*
X008931Y026107D01*
X009003Y026130D01*
X009070Y026164D01*
X009131Y026209D01*
X009184Y026262D01*
X009229Y026323D01*
X009263Y026391D01*
X009287Y026463D01*
X009298Y026537D01*
X009298Y026855D01*
X008838Y026855D01*
X008798Y026855D01*
X008798Y026095D01*
X008781Y026095D01*
X008798Y026097D02*
X008838Y026097D01*
X008869Y026097D02*
X014268Y026097D01*
X014268Y026256D02*
X009178Y026256D01*
X009271Y026414D02*
X014268Y026414D01*
X014268Y026573D02*
X009298Y026573D01*
X009298Y026731D02*
X014268Y026731D01*
X014268Y026890D02*
X008838Y026890D01*
X008798Y026890D02*
X007548Y026890D01*
X007548Y027048D02*
X008338Y027048D01*
X008338Y027207D02*
X007548Y027207D01*
X007548Y027365D02*
X008376Y027365D01*
X008488Y027524D02*
X007548Y027524D01*
X007548Y027682D02*
X014268Y027682D01*
X014268Y027524D02*
X009149Y027524D01*
X009260Y027365D02*
X014268Y027365D01*
X014268Y027207D02*
X009298Y027207D01*
X009298Y027048D02*
X014268Y027048D01*
X014868Y027048D02*
X014893Y027048D01*
X014893Y026890D02*
X014868Y026890D01*
X014868Y026731D02*
X014893Y026731D01*
X014893Y026573D02*
X014868Y026573D01*
X014868Y026414D02*
X014893Y026414D01*
X014893Y026256D02*
X014868Y026256D01*
X014868Y026097D02*
X014893Y026097D01*
X014893Y025939D02*
X014868Y025939D01*
X014868Y025780D02*
X014893Y025780D01*
X014893Y025622D02*
X014868Y025622D01*
X014868Y025463D02*
X014893Y025463D01*
X014893Y025305D02*
X014868Y025305D01*
X014868Y025146D02*
X014893Y025146D01*
X014893Y024988D02*
X014868Y024988D01*
X014868Y024829D02*
X014893Y024829D01*
X014893Y024671D02*
X014868Y024671D01*
X014868Y024512D02*
X014893Y024512D01*
X014893Y024354D02*
X014868Y024354D01*
X014868Y024195D02*
X014893Y024195D01*
X014893Y024037D02*
X014868Y024037D01*
X014868Y023878D02*
X014893Y023878D01*
X014893Y023720D02*
X014868Y023720D01*
X014868Y023561D02*
X014893Y023561D01*
X014893Y023403D02*
X014868Y023403D01*
X014868Y023244D02*
X014893Y023244D01*
X014893Y023086D02*
X014868Y023086D01*
X014868Y022927D02*
X014893Y022927D01*
X014893Y022769D02*
X014868Y022769D01*
X014868Y022610D02*
X014893Y022610D01*
X014893Y022452D02*
X014868Y022452D01*
X014868Y022293D02*
X014893Y022293D01*
X014893Y022135D02*
X014868Y022135D01*
X014868Y021976D02*
X014893Y021976D01*
X014893Y021818D02*
X014868Y021818D01*
X014893Y021659D02*
X014777Y021659D01*
X014893Y021501D02*
X014618Y021501D01*
X014460Y021342D02*
X014817Y021342D01*
X014817Y021184D02*
X014301Y021184D01*
X014143Y021025D02*
X014886Y021025D01*
X015500Y021025D02*
X015723Y021025D01*
X015723Y021184D02*
X015570Y021184D01*
X015570Y021342D02*
X015723Y021342D01*
X015723Y021501D02*
X015493Y021501D01*
X015493Y021659D02*
X015723Y021659D01*
X015723Y021818D02*
X015493Y021818D01*
X015493Y021976D02*
X015723Y021976D01*
X015723Y022135D02*
X015493Y022135D01*
X015493Y022293D02*
X015723Y022293D01*
X015723Y022452D02*
X015493Y022452D01*
X015493Y022610D02*
X015723Y022610D01*
X015723Y022769D02*
X015493Y022769D01*
X015493Y022927D02*
X015723Y022927D01*
X015723Y023086D02*
X015493Y023086D01*
X015493Y023244D02*
X015723Y023244D01*
X015723Y023403D02*
X015493Y023403D01*
X015493Y023561D02*
X015723Y023561D01*
X015723Y023720D02*
X015493Y023720D01*
X015493Y023878D02*
X015723Y023878D01*
X015721Y024037D02*
X015493Y024037D01*
X015493Y024195D02*
X015562Y024195D01*
X015693Y024375D02*
X015943Y024125D01*
X015943Y020375D01*
X017693Y018625D01*
X018538Y018965D02*
X018617Y018965D01*
X018538Y019123D02*
X023473Y019123D01*
X023473Y018965D02*
X020094Y018965D01*
X020036Y019023D02*
X019676Y019023D01*
X019421Y018768D01*
X019421Y018407D01*
X019676Y018152D01*
X020036Y018152D01*
X020291Y018407D01*
X020291Y018768D01*
X020036Y019023D01*
X020036Y019152D02*
X019676Y019152D01*
X019421Y019407D01*
X019421Y019768D01*
X019676Y020023D01*
X020036Y020023D01*
X020291Y019768D01*
X020291Y019407D01*
X020036Y019152D01*
X020165Y019282D02*
X023473Y019282D01*
X023473Y019440D02*
X020291Y019440D01*
X020291Y019599D02*
X023473Y019599D01*
X023473Y019757D02*
X020291Y019757D01*
X020143Y019916D02*
X023473Y019916D01*
X023473Y020074D02*
X018538Y020074D01*
X018538Y019916D02*
X018568Y019916D01*
X018538Y020233D02*
X018595Y020233D01*
X019116Y020233D02*
X019595Y020233D01*
X019437Y020391D02*
X019275Y020391D01*
X019291Y020550D02*
X019421Y020550D01*
X019421Y020708D02*
X019291Y020708D01*
X019192Y020867D02*
X019519Y020867D01*
X019644Y021184D02*
X019067Y021184D01*
X019226Y021342D02*
X019486Y021342D01*
X019421Y021501D02*
X019291Y021501D01*
X019291Y021659D02*
X019421Y021659D01*
X019470Y021818D02*
X019241Y021818D01*
X019083Y021976D02*
X019629Y021976D01*
X019636Y022135D02*
X018764Y022135D01*
X018629Y021976D02*
X018605Y021976D01*
X018318Y022000D02*
X020943Y024625D01*
X022943Y024625D01*
X023568Y025250D01*
X023568Y029750D01*
X023331Y029988D01*
X023331Y031479D01*
X023827Y031975D01*
X024154Y031645D02*
X024485Y031645D01*
X024380Y031803D02*
X024259Y031803D01*
X024292Y031962D02*
X024347Y031962D01*
X024368Y032120D02*
X024270Y032120D01*
X024181Y032279D02*
X024457Y032279D01*
X024711Y032437D02*
X024067Y032437D01*
X024225Y032596D02*
X025098Y032596D01*
X025098Y032754D02*
X024384Y032754D01*
X024538Y032913D02*
X025098Y032913D01*
X025098Y033071D02*
X024538Y033071D01*
X024318Y033000D02*
X024318Y034632D01*
X024811Y035125D01*
X024347Y035132D02*
X024292Y035132D01*
X024267Y034973D02*
X024348Y034973D01*
X024190Y034815D02*
X024174Y034815D01*
X024098Y034656D02*
X023726Y034656D01*
X023567Y034498D02*
X024098Y034498D01*
X024098Y034339D02*
X023409Y034339D01*
X023328Y034181D02*
X024098Y034181D01*
X024098Y034022D02*
X024009Y034022D01*
X023855Y034022D02*
X023799Y034022D01*
X023646Y034022D02*
X023328Y034022D01*
X023328Y033864D02*
X023431Y033864D01*
X023347Y033705D02*
X023328Y033705D01*
X023328Y033473D02*
X023335Y033432D01*
X023359Y033356D01*
X023395Y033286D01*
X023442Y033221D01*
X023498Y033165D01*
X023563Y033118D01*
X023633Y033082D01*
X023709Y033058D01*
X023787Y033045D01*
X023799Y033045D01*
X023799Y033522D01*
X023855Y033522D01*
X023855Y033045D01*
X023867Y033045D01*
X023945Y033058D01*
X024021Y033082D01*
X024092Y033118D01*
X024098Y033123D01*
X024098Y033091D01*
X023852Y032845D01*
X023626Y032845D01*
X023561Y032910D01*
X023328Y032910D01*
X023328Y033473D01*
X023328Y033388D02*
X023349Y033388D01*
X023328Y033230D02*
X023436Y033230D01*
X023328Y033071D02*
X023668Y033071D01*
X023799Y033071D02*
X023855Y033071D01*
X023986Y033071D02*
X024078Y033071D01*
X023920Y032913D02*
X023328Y032913D01*
X023443Y032625D02*
X023943Y032625D01*
X024318Y033000D01*
X023855Y033230D02*
X023799Y033230D01*
X023799Y033388D02*
X023855Y033388D01*
X023855Y033705D02*
X023799Y033705D01*
X023799Y033864D02*
X023855Y033864D01*
X024538Y034022D02*
X026599Y034022D01*
X026586Y034018D02*
X026515Y033982D01*
X026451Y033935D01*
X026395Y033879D01*
X026348Y033815D01*
X026312Y033744D01*
X026288Y033668D01*
X026275Y033590D01*
X026275Y033578D01*
X026752Y033578D01*
X026752Y033522D01*
X026808Y033522D01*
X026808Y033045D01*
X026820Y033045D01*
X026898Y033058D01*
X026974Y033082D01*
X027045Y033118D01*
X027109Y033165D01*
X027165Y033221D01*
X027212Y033286D01*
X027248Y033356D01*
X027272Y033431D01*
X027296Y033356D01*
X027332Y033286D01*
X027379Y033221D01*
X027435Y033165D01*
X027500Y033118D01*
X027570Y033082D01*
X027646Y033058D01*
X027724Y033045D01*
X027736Y033045D01*
X027736Y033522D01*
X027792Y033522D01*
X027792Y033045D01*
X027804Y033045D01*
X027882Y033058D01*
X027958Y033082D01*
X028029Y033118D01*
X028093Y033165D01*
X028149Y033221D01*
X028196Y033286D01*
X028232Y033356D01*
X028257Y033432D01*
X028269Y033510D01*
X028269Y033522D01*
X027792Y033522D01*
X027792Y033578D01*
X027736Y033578D01*
X027736Y033522D01*
X026808Y033522D01*
X026808Y033578D01*
X027285Y033578D01*
X027736Y033578D01*
X027736Y034055D01*
X027724Y034055D01*
X027646Y034043D01*
X027570Y034018D01*
X027500Y033982D01*
X027435Y033935D01*
X027379Y033879D01*
X027332Y033815D01*
X027296Y033744D01*
X027272Y033669D01*
X027248Y033744D01*
X027212Y033815D01*
X027165Y033879D01*
X027109Y033935D01*
X027045Y033982D01*
X026974Y034018D01*
X026898Y034043D01*
X026820Y034055D01*
X026808Y034055D01*
X026808Y033578D01*
X026752Y033578D01*
X026752Y034055D01*
X026740Y034055D01*
X026662Y034043D01*
X026586Y034018D01*
X026752Y034022D02*
X026808Y034022D01*
X026961Y034022D02*
X027583Y034022D01*
X027736Y034022D02*
X027792Y034022D01*
X027792Y034055D02*
X027792Y033578D01*
X028269Y033578D01*
X028269Y033590D01*
X028257Y033668D01*
X028232Y033744D01*
X028196Y033815D01*
X028149Y033879D01*
X028093Y033935D01*
X028029Y033982D01*
X027958Y034018D01*
X027882Y034043D01*
X027804Y034055D01*
X027792Y034055D01*
X027946Y034022D02*
X029513Y034022D01*
X029513Y034181D02*
X024538Y034181D01*
X024538Y034339D02*
X029621Y034339D01*
X029780Y034498D02*
X024538Y034498D01*
X024654Y034656D02*
X028558Y034656D01*
X028555Y034657D02*
X028630Y034633D01*
X028709Y034620D01*
X028720Y034620D01*
X028720Y035097D01*
X028244Y035097D01*
X028244Y035085D01*
X028256Y035007D01*
X028281Y034931D01*
X028317Y034860D01*
X028363Y034796D01*
X028420Y034740D01*
X028484Y034693D01*
X028555Y034657D01*
X028720Y034656D02*
X028777Y034656D01*
X028777Y034620D02*
X028788Y034620D01*
X028867Y034633D01*
X028942Y034657D01*
X029013Y034693D01*
X029077Y034740D01*
X029133Y034796D01*
X029180Y034860D01*
X029216Y034931D01*
X029241Y035007D01*
X029253Y035085D01*
X029253Y035097D01*
X028777Y035097D01*
X028777Y035153D01*
X029253Y035153D01*
X029253Y035165D01*
X029241Y035243D01*
X029216Y035319D01*
X029180Y035390D01*
X029133Y035454D01*
X029077Y035510D01*
X029013Y035557D01*
X028942Y035593D01*
X028867Y035617D01*
X028788Y035630D01*
X028777Y035630D01*
X028777Y035153D01*
X028720Y035153D01*
X028720Y035097D01*
X028777Y035097D01*
X028777Y034620D01*
X028939Y034656D02*
X029938Y034656D01*
X029996Y034731D02*
X030127Y034862D01*
X030198Y035033D01*
X030198Y035217D01*
X030127Y035388D01*
X029996Y035519D01*
X029825Y035590D01*
X029640Y035590D01*
X029469Y035519D01*
X029339Y035388D01*
X029268Y035217D01*
X029268Y035033D01*
X029339Y034862D01*
X029469Y034731D01*
X029640Y034660D01*
X029825Y034660D01*
X029996Y034731D01*
X030080Y034815D02*
X030370Y034815D01*
X030277Y034973D02*
X030173Y034973D01*
X030198Y035132D02*
X030252Y035132D01*
X030282Y035290D02*
X030167Y035290D01*
X030066Y035449D02*
X030383Y035449D01*
X031051Y035449D02*
X031312Y035449D01*
X031316Y035454D02*
X031269Y035390D01*
X031233Y035319D01*
X031209Y035243D01*
X031196Y035165D01*
X031196Y035153D01*
X031673Y035153D01*
X031673Y035630D01*
X031661Y035630D01*
X031583Y035617D01*
X031507Y035593D01*
X031437Y035557D01*
X031372Y035510D01*
X031316Y035454D01*
X031224Y035290D02*
X031152Y035290D01*
X031182Y035132D02*
X031673Y035132D01*
X031729Y035132D02*
X032221Y035132D01*
X032206Y035153D02*
X032206Y035165D01*
X032194Y035243D01*
X032169Y035319D01*
X032133Y035390D01*
X032086Y035454D01*
X032030Y035510D01*
X031966Y035557D01*
X031895Y035593D01*
X031819Y035617D01*
X031741Y035630D01*
X031729Y035630D01*
X031729Y035153D01*
X032206Y035153D01*
X032178Y035290D02*
X032251Y035290D01*
X032352Y035449D02*
X032090Y035449D01*
X031851Y035607D02*
X036412Y035607D01*
X036571Y035449D02*
X033019Y035449D01*
X033120Y035290D02*
X036729Y035290D01*
X036888Y035132D02*
X033150Y035132D01*
X033126Y034973D02*
X037046Y034973D01*
X037205Y034815D02*
X034514Y034815D01*
X034164Y034815D02*
X033032Y034815D01*
X033398Y034656D02*
X033819Y034656D01*
X033660Y034498D02*
X033557Y034498D01*
X033418Y034325D02*
X033418Y033600D01*
X037093Y029925D01*
X037093Y029475D01*
X036873Y029426D02*
X036788Y029426D01*
X036873Y029379D02*
X036873Y029834D01*
X036788Y029919D01*
X036788Y023784D01*
X036213Y023209D01*
X036213Y023067D01*
X036371Y023225D01*
X036550Y023225D01*
X036550Y022768D01*
X036587Y022768D01*
X036587Y023225D01*
X036765Y023225D01*
X036873Y023117D01*
X036873Y028490D01*
X036947Y028668D01*
X036947Y028668D01*
X037084Y028805D01*
X037084Y028805D01*
X037262Y028879D01*
X037431Y028879D01*
X037440Y028879D01*
X037456Y028886D01*
X037468Y028899D01*
X037475Y028915D01*
X037476Y028924D01*
X037476Y028945D01*
X037475Y028954D01*
X037468Y028970D01*
X037456Y028982D01*
X037440Y028989D01*
X037431Y028990D01*
X037262Y028990D01*
X037084Y029064D01*
X037084Y029064D01*
X036947Y029200D01*
X036947Y029200D01*
X036873Y029379D01*
X036920Y029267D02*
X036788Y029267D01*
X036788Y029109D02*
X037039Y029109D01*
X036788Y028950D02*
X037475Y028950D01*
X037696Y028945D02*
X037694Y028975D01*
X037689Y029004D01*
X037681Y029033D01*
X037670Y029060D01*
X037655Y029086D01*
X037638Y029110D01*
X037618Y029132D01*
X037596Y029152D01*
X037572Y029169D01*
X037546Y029184D01*
X037519Y029195D01*
X037490Y029203D01*
X037461Y029208D01*
X037431Y029210D01*
X037358Y029210D01*
X037328Y029212D01*
X037299Y029217D01*
X037270Y029225D01*
X037243Y029236D01*
X037217Y029251D01*
X037193Y029268D01*
X037171Y029288D01*
X037151Y029310D01*
X037134Y029334D01*
X037119Y029360D01*
X037108Y029387D01*
X037100Y029416D01*
X037095Y029445D01*
X037093Y029475D01*
X036873Y029584D02*
X036788Y029584D01*
X036788Y029743D02*
X036873Y029743D01*
X036806Y029901D02*
X036788Y029901D01*
X036568Y030075D02*
X036568Y023875D01*
X035993Y023300D01*
X035993Y022325D01*
X036568Y021750D01*
X035943Y021125D01*
X035943Y019875D01*
X037068Y018750D01*
X037068Y016000D01*
X036871Y015795D02*
X034906Y015795D01*
X034906Y015811D02*
X034651Y016066D01*
X034290Y016066D01*
X034035Y015811D01*
X034035Y015451D01*
X034290Y015196D01*
X034651Y015196D01*
X034906Y015451D01*
X034906Y015811D01*
X034906Y015636D02*
X038455Y015636D01*
X038455Y015478D02*
X034906Y015478D01*
X034774Y015319D02*
X038455Y015319D01*
X038455Y015161D02*
X032203Y015161D01*
X032203Y015319D02*
X033167Y015319D01*
X033290Y015196D02*
X033651Y015196D01*
X033906Y015451D01*
X033906Y015811D01*
X033651Y016066D01*
X033290Y016066D01*
X033035Y015811D01*
X033035Y015451D01*
X033290Y015196D01*
X033290Y015066D02*
X033035Y014811D01*
X033035Y014451D01*
X033290Y014196D01*
X033651Y014196D01*
X033906Y014451D01*
X033906Y014811D01*
X033651Y015066D01*
X033290Y015066D01*
X033226Y015002D02*
X032203Y015002D01*
X032203Y014844D02*
X033067Y014844D01*
X033035Y014685D02*
X032203Y014685D01*
X032203Y014527D02*
X033035Y014527D01*
X033118Y014368D02*
X032203Y014368D01*
X032203Y014210D02*
X033276Y014210D01*
X033290Y014066D02*
X033035Y013811D01*
X033035Y013451D01*
X033290Y013196D01*
X033651Y013196D01*
X033906Y013451D01*
X033906Y013811D01*
X033651Y014066D01*
X033290Y014066D01*
X033275Y014051D02*
X032203Y014051D01*
X032203Y013893D02*
X033116Y013893D01*
X033035Y013734D02*
X032203Y013734D01*
X032203Y013576D02*
X033035Y013576D01*
X033069Y013417D02*
X032203Y013417D01*
X032203Y013259D02*
X033227Y013259D01*
X033271Y012850D02*
X032993Y012572D01*
X032993Y012393D01*
X033450Y012393D01*
X033450Y012850D01*
X033271Y012850D01*
X033204Y012783D02*
X032203Y012783D01*
X032203Y012625D02*
X033046Y012625D01*
X032993Y012466D02*
X032203Y012466D01*
X032203Y012308D02*
X032993Y012308D01*
X033022Y012149D02*
X032203Y012149D01*
X032203Y011991D02*
X032998Y011991D01*
X032839Y011832D02*
X032203Y011832D01*
X031943Y011588D02*
X032906Y011588D01*
X033193Y011875D01*
X036318Y011875D01*
X036189Y012149D02*
X034858Y012149D01*
X034904Y012308D02*
X036348Y012308D01*
X036348Y012466D02*
X034904Y012466D01*
X034834Y012625D02*
X036348Y012625D01*
X036348Y012783D02*
X034676Y012783D01*
X034651Y013196D02*
X034290Y013196D01*
X034035Y013451D01*
X034035Y013811D01*
X034290Y014066D01*
X034651Y014066D01*
X034906Y013811D01*
X034906Y013451D01*
X034651Y013196D01*
X034713Y013259D02*
X036348Y013259D01*
X036348Y013417D02*
X034872Y013417D01*
X034906Y013576D02*
X036348Y013576D01*
X036348Y013734D02*
X034906Y013734D01*
X034824Y013893D02*
X036283Y013893D01*
X036283Y014051D02*
X034666Y014051D01*
X034651Y014196D02*
X034906Y014451D01*
X034906Y014811D01*
X034651Y015066D01*
X034290Y015066D01*
X034035Y014811D01*
X034035Y014451D01*
X034290Y014196D01*
X034651Y014196D01*
X034664Y014210D02*
X036375Y014210D01*
X036568Y014000D02*
X036568Y012125D01*
X036693Y012000D01*
X036693Y010375D01*
X036193Y009875D01*
X033968Y009875D01*
X033468Y009375D01*
X033033Y009296D02*
X014413Y009296D01*
X014413Y009138D02*
X033090Y009138D01*
X033249Y008979D02*
X014413Y008979D01*
X014413Y008821D02*
X038455Y008821D01*
X038455Y008979D02*
X034688Y008979D01*
X034649Y008810D02*
X034288Y008810D01*
X034033Y008555D01*
X034033Y008195D01*
X034288Y007940D01*
X034649Y007940D01*
X034904Y008195D01*
X034904Y008555D01*
X034649Y008810D01*
X034797Y008662D02*
X038455Y008662D01*
X038455Y008504D02*
X034904Y008504D01*
X034904Y008345D02*
X038455Y008345D01*
X038455Y008187D02*
X034895Y008187D01*
X034737Y008028D02*
X038455Y008028D01*
X038455Y007870D02*
X014478Y007870D01*
X014443Y008028D02*
X033200Y008028D01*
X033288Y007940D02*
X033649Y007940D01*
X033904Y008195D01*
X033904Y008555D01*
X033649Y008810D01*
X033288Y008810D01*
X033033Y008555D01*
X033033Y008195D01*
X033288Y007940D01*
X033189Y007711D02*
X014432Y007711D01*
X014193Y007875D02*
X014193Y009750D01*
X014693Y010250D01*
X014935Y010089D02*
X014952Y010089D01*
X015193Y010250D02*
X015193Y011125D01*
X014693Y011625D01*
X014889Y011832D02*
X018300Y011832D01*
X018421Y011674D02*
X014978Y011674D01*
X015114Y011515D02*
X018421Y011515D01*
X018471Y011357D02*
X015273Y011357D01*
X015413Y011198D02*
X018630Y011198D01*
X018856Y011588D02*
X016631Y013813D01*
X010756Y013813D01*
X009506Y012563D01*
X009506Y011938D01*
X010037Y012783D02*
X012948Y012783D01*
X013438Y012783D02*
X014415Y012783D01*
X014257Y012625D02*
X013478Y012625D01*
X013437Y012466D02*
X014006Y012466D01*
X013908Y012308D02*
X013413Y012308D01*
X013413Y012149D02*
X013908Y012149D01*
X014050Y011991D02*
X013413Y011991D01*
X013413Y011832D02*
X014089Y011832D01*
X013973Y011674D02*
X013413Y011674D01*
X013269Y011515D02*
X013973Y011515D01*
X013973Y011357D02*
X013111Y011357D01*
X012952Y011198D02*
X013973Y011198D01*
X013973Y011040D02*
X012794Y011040D01*
X012635Y010881D02*
X013973Y010881D01*
X013973Y010723D02*
X012477Y010723D01*
X012413Y010564D02*
X013973Y010564D01*
X013818Y010250D02*
X012693Y009125D01*
X012693Y007875D01*
X012454Y007711D02*
X012432Y007711D01*
X012193Y007875D02*
X012193Y010750D01*
X012172Y011040D02*
X007548Y011040D01*
X007548Y011198D02*
X012330Y011198D01*
X012489Y011357D02*
X007548Y011357D01*
X007548Y011515D02*
X012647Y011515D01*
X012413Y010406D02*
X013571Y010406D01*
X013504Y010247D02*
X012413Y010247D01*
X012413Y010089D02*
X013346Y010089D01*
X013187Y009930D02*
X012413Y009930D01*
X012413Y009772D02*
X013029Y009772D01*
X012870Y009613D02*
X012413Y009613D01*
X012413Y009455D02*
X012712Y009455D01*
X012553Y009296D02*
X012413Y009296D01*
X012413Y009138D02*
X012473Y009138D01*
X012473Y008979D02*
X012413Y008979D01*
X012413Y008821D02*
X012473Y008821D01*
X012473Y008662D02*
X012413Y008662D01*
X012413Y008504D02*
X012473Y008504D01*
X012473Y008345D02*
X012413Y008345D01*
X012413Y008187D02*
X012473Y008187D01*
X012932Y007711D02*
X012954Y007711D01*
X013193Y007875D02*
X013193Y009125D01*
X014193Y010125D01*
X014193Y011625D01*
X015193Y012625D01*
X015478Y012625D02*
X017508Y012625D01*
X017349Y012783D02*
X015438Y012783D01*
X015437Y012466D02*
X017666Y012466D01*
X017825Y012308D02*
X015187Y012308D01*
X015028Y012149D02*
X017983Y012149D01*
X018142Y011991D02*
X014870Y011991D01*
X014193Y012250D02*
X015068Y013125D01*
X016568Y013125D01*
X016788Y012942D02*
X017191Y012942D01*
X017032Y013100D02*
X016853Y013100D01*
X016838Y013259D02*
X016874Y013259D01*
X016715Y013417D02*
X010671Y013417D01*
X010513Y013259D02*
X014891Y013259D01*
X014732Y013100D02*
X010354Y013100D01*
X010196Y012942D02*
X014574Y012942D01*
X014970Y014360D02*
X015035Y014350D01*
X015068Y014350D01*
X015068Y015250D01*
X014648Y015250D01*
X014648Y014737D01*
X014659Y014672D01*
X014679Y014609D01*
X014709Y014550D01*
X014748Y014496D01*
X014795Y014450D01*
X014848Y014411D01*
X014907Y014381D01*
X014970Y014360D01*
X014946Y014368D02*
X011940Y014368D01*
X011917Y014360D02*
X011980Y014381D01*
X012038Y014411D01*
X012092Y014450D01*
X012139Y014496D01*
X012178Y014550D01*
X012208Y014609D01*
X012228Y014672D01*
X012238Y014737D01*
X012238Y015250D01*
X011818Y015250D01*
X011398Y015250D01*
X011398Y014737D01*
X011409Y014672D01*
X011429Y014609D01*
X011459Y014550D01*
X011498Y014496D01*
X011545Y014450D01*
X011598Y014411D01*
X011657Y014381D01*
X011720Y014360D01*
X011785Y014350D01*
X011818Y014350D01*
X011818Y015250D01*
X011818Y015250D01*
X011398Y015250D01*
X011398Y015283D01*
X011409Y015348D01*
X011429Y015411D01*
X011459Y015470D01*
X011498Y015524D01*
X011545Y015570D01*
X011598Y015609D01*
X011657Y015639D01*
X011720Y015660D01*
X011785Y015670D01*
X011818Y015670D01*
X011818Y015250D01*
X011818Y015250D01*
X011818Y015250D01*
X011818Y015670D01*
X011851Y015670D01*
X011917Y015660D01*
X011980Y015639D01*
X012038Y015609D01*
X012092Y015570D01*
X012139Y015524D01*
X012178Y015470D01*
X012208Y015411D01*
X012228Y015348D01*
X012238Y015283D01*
X012238Y015250D01*
X011818Y015250D01*
X011818Y014350D01*
X011851Y014350D01*
X011917Y014360D01*
X011818Y014368D02*
X011818Y014368D01*
X011696Y014368D02*
X010038Y014368D01*
X010038Y014210D02*
X018618Y014210D01*
X018676Y014152D02*
X019036Y014152D01*
X019291Y014407D01*
X019291Y014768D01*
X019036Y015023D01*
X018676Y015023D01*
X018421Y014768D01*
X018421Y014407D01*
X018676Y014152D01*
X018676Y014023D02*
X018421Y013768D01*
X018421Y013407D01*
X018676Y013152D01*
X019036Y013152D01*
X019291Y013407D01*
X019291Y013768D01*
X019036Y014023D01*
X018676Y014023D01*
X018545Y013893D02*
X016862Y013893D01*
X017020Y013734D02*
X018421Y013734D01*
X018421Y013576D02*
X017179Y013576D01*
X017337Y013417D02*
X018421Y013417D01*
X018569Y013259D02*
X017496Y013259D01*
X017654Y013100D02*
X029765Y013100D01*
X029658Y012942D02*
X020174Y012942D01*
X020053Y013063D02*
X020331Y012784D01*
X020331Y012606D01*
X019874Y012606D01*
X019837Y012606D01*
X019837Y012569D01*
X019381Y012569D01*
X019381Y012391D01*
X019659Y012112D01*
X019837Y012112D01*
X019837Y012569D01*
X019874Y012569D01*
X019874Y012112D01*
X020053Y012112D01*
X020331Y012391D01*
X020331Y012569D01*
X019874Y012569D01*
X019874Y012606D01*
X019874Y013063D01*
X020053Y013063D01*
X020036Y013152D02*
X020291Y013407D01*
X020291Y013768D01*
X020036Y014023D01*
X019676Y014023D01*
X019421Y013768D01*
X019421Y013407D01*
X019676Y013152D01*
X020036Y013152D01*
X020142Y013259D02*
X030016Y013259D01*
X030174Y013417D02*
X020291Y013417D01*
X020291Y013576D02*
X030333Y013576D01*
X030491Y013734D02*
X020291Y013734D01*
X020166Y013893D02*
X030598Y013893D01*
X030598Y014051D02*
X010038Y014051D01*
X010038Y013893D02*
X010525Y013893D01*
X010366Y013734D02*
X010103Y013734D01*
X010103Y013576D02*
X010208Y013576D01*
X010049Y013417D02*
X010013Y013417D01*
X009818Y013625D02*
X009818Y016250D01*
X010318Y016750D01*
X017568Y016750D01*
X018131Y017313D01*
X018856Y016588D01*
X019155Y016904D02*
X019557Y016904D01*
X019676Y017023D02*
X019421Y016768D01*
X019421Y016407D01*
X019676Y016152D01*
X020036Y016152D01*
X020291Y016407D01*
X020291Y016768D01*
X020036Y017023D01*
X019676Y017023D01*
X019676Y017152D02*
X020036Y017152D01*
X020291Y017407D01*
X020291Y017768D01*
X020036Y018023D01*
X019676Y018023D01*
X019421Y017768D01*
X019421Y017407D01*
X019676Y017152D01*
X019607Y017221D02*
X019105Y017221D01*
X019263Y017380D02*
X019448Y017380D01*
X019421Y017538D02*
X019291Y017538D01*
X019291Y017697D02*
X019421Y017697D01*
X019508Y017855D02*
X019204Y017855D01*
X019045Y018014D02*
X019666Y018014D01*
X019656Y018172D02*
X019056Y018172D01*
X019214Y018331D02*
X019497Y018331D01*
X019421Y018489D02*
X019291Y018489D01*
X019291Y018648D02*
X019421Y018648D01*
X019459Y018806D02*
X019253Y018806D01*
X019094Y018965D02*
X019617Y018965D01*
X019546Y019282D02*
X019165Y019282D01*
X019291Y019440D02*
X019421Y019440D01*
X019421Y019599D02*
X019291Y019599D01*
X019291Y019757D02*
X019421Y019757D01*
X019568Y019916D02*
X019143Y019916D01*
X018546Y019282D02*
X018538Y019282D01*
X017848Y019873D02*
X017811Y019910D01*
X017719Y019910D01*
X016538Y021091D01*
X016538Y024341D01*
X016409Y024470D01*
X016226Y024654D01*
X016226Y025090D01*
X016436Y025090D01*
X016501Y025155D01*
X016977Y025155D01*
X017473Y024659D01*
X017473Y020933D01*
X017408Y020868D01*
X017408Y020632D01*
X017575Y020465D01*
X017811Y020465D01*
X017848Y020502D01*
X017848Y019873D01*
X017848Y019916D02*
X017714Y019916D01*
X017848Y020074D02*
X017555Y020074D01*
X017397Y020233D02*
X017848Y020233D01*
X017848Y020391D02*
X017238Y020391D01*
X017080Y020550D02*
X017491Y020550D01*
X017408Y020708D02*
X016921Y020708D01*
X016763Y020867D02*
X017408Y020867D01*
X017473Y021025D02*
X016604Y021025D01*
X016538Y021184D02*
X017473Y021184D01*
X017473Y021342D02*
X016538Y021342D01*
X016538Y021501D02*
X017473Y021501D01*
X017473Y021659D02*
X016538Y021659D01*
X016538Y021818D02*
X017473Y021818D01*
X017473Y021976D02*
X016538Y021976D01*
X016538Y022135D02*
X017473Y022135D01*
X017473Y022293D02*
X016538Y022293D01*
X016538Y022452D02*
X017473Y022452D01*
X017473Y022610D02*
X016538Y022610D01*
X016538Y022769D02*
X017473Y022769D01*
X017473Y022927D02*
X016538Y022927D01*
X016538Y023086D02*
X017473Y023086D01*
X017473Y023244D02*
X016538Y023244D01*
X016538Y023403D02*
X017473Y023403D01*
X017473Y023561D02*
X016538Y023561D01*
X016538Y023720D02*
X017473Y023720D01*
X017473Y023878D02*
X016538Y023878D01*
X016538Y024037D02*
X017473Y024037D01*
X017473Y024195D02*
X016538Y024195D01*
X016526Y024354D02*
X017473Y024354D01*
X017473Y024512D02*
X016367Y024512D01*
X016226Y024671D02*
X017462Y024671D01*
X017303Y024829D02*
X016226Y024829D01*
X016318Y024875D02*
X016693Y024875D01*
X017193Y024375D01*
X017145Y024988D02*
X016226Y024988D01*
X016492Y025146D02*
X016986Y025146D01*
X017068Y025375D02*
X017693Y024750D01*
X017693Y020750D01*
X018538Y021025D02*
X019982Y021025D01*
X020067Y021184D02*
X020098Y021184D01*
X020318Y021050D02*
X019856Y020588D01*
X020291Y020550D02*
X020526Y020550D01*
X020433Y020708D02*
X020291Y020708D01*
X020275Y020391D02*
X020635Y020391D01*
X020775Y020233D02*
X020116Y020233D01*
X020318Y021050D02*
X020318Y023125D01*
X019856Y022838D02*
X019856Y021588D01*
X019636Y022293D02*
X018922Y022293D01*
X019081Y022452D02*
X019636Y022452D01*
X019636Y022610D02*
X019239Y022610D01*
X019398Y022769D02*
X019533Y022769D01*
X019818Y022875D02*
X019856Y022838D01*
X019193Y023561D02*
X019157Y023561D01*
X019228Y023632D02*
X019228Y023840D01*
X019436Y023840D01*
X019603Y024007D01*
X019603Y024243D01*
X019530Y024317D01*
X019571Y024317D01*
X019752Y024497D01*
X019752Y024594D01*
X020329Y025172D01*
X020397Y025239D01*
X020433Y025327D01*
X020433Y025554D01*
X020502Y025622D01*
X020502Y025878D01*
X020321Y026058D01*
X020066Y026058D01*
X019885Y025878D01*
X019885Y025622D01*
X019953Y025554D01*
X019953Y025474D01*
X019412Y024933D01*
X019316Y024933D01*
X019135Y024753D01*
X019135Y024620D01*
X016353Y027401D01*
X016353Y027493D01*
X016186Y027660D01*
X015950Y027660D01*
X015783Y027493D01*
X015783Y027257D01*
X015880Y027160D01*
X015825Y027160D01*
X015658Y026993D01*
X015658Y026757D01*
X015723Y026692D01*
X015723Y026409D01*
X015972Y026160D01*
X015825Y026160D01*
X015658Y025993D01*
X015658Y025901D01*
X015602Y025845D01*
X015493Y025736D01*
X015493Y028376D01*
X017818Y030700D01*
X018878Y030700D01*
X018988Y030746D01*
X020818Y032575D01*
X021834Y032575D01*
X021944Y032621D01*
X022409Y033085D01*
X022542Y033085D01*
X022713Y033156D01*
X022808Y033252D01*
X022808Y032274D01*
X022713Y032369D01*
X022542Y032440D01*
X022357Y032440D01*
X022186Y032369D01*
X022055Y032239D01*
X021984Y032068D01*
X021984Y031883D01*
X022002Y031840D01*
X021602Y031439D01*
X021473Y031311D01*
X021473Y025841D01*
X017913Y022281D01*
X017913Y024719D01*
X018711Y023921D01*
X018658Y023868D01*
X018658Y023632D01*
X018825Y023465D01*
X019061Y023465D01*
X019228Y023632D01*
X019228Y023720D02*
X019352Y023720D01*
X019474Y023878D02*
X019510Y023878D01*
X019603Y024037D02*
X019669Y024037D01*
X019603Y024195D02*
X019827Y024195D01*
X019986Y024354D02*
X019608Y024354D01*
X019752Y024512D02*
X020144Y024512D01*
X020303Y024671D02*
X019828Y024671D01*
X019987Y024829D02*
X020461Y024829D01*
X020620Y024988D02*
X020145Y024988D01*
X020304Y025146D02*
X020778Y025146D01*
X020937Y025305D02*
X020424Y025305D01*
X020433Y025463D02*
X021095Y025463D01*
X021254Y025622D02*
X020501Y025622D01*
X020502Y025780D02*
X021412Y025780D01*
X021473Y025939D02*
X020441Y025939D01*
X019946Y025939D02*
X017816Y025939D01*
X017657Y026097D02*
X021473Y026097D01*
X021473Y026256D02*
X017499Y026256D01*
X017340Y026414D02*
X021473Y026414D01*
X021473Y026573D02*
X017182Y026573D01*
X017023Y026731D02*
X021473Y026731D01*
X021473Y026890D02*
X016865Y026890D01*
X016706Y027048D02*
X021473Y027048D01*
X021473Y027207D02*
X016548Y027207D01*
X016389Y027365D02*
X021473Y027365D01*
X021473Y027524D02*
X016323Y027524D01*
X016068Y027375D02*
X019318Y024125D01*
X018943Y024000D02*
X018943Y023750D01*
X018943Y024000D02*
X016568Y026375D01*
X016318Y026125D02*
X016318Y025813D01*
X016006Y025500D01*
X016006Y024563D01*
X016318Y024250D01*
X016318Y021000D01*
X017693Y019625D01*
X016884Y019123D02*
X007548Y019123D01*
X007548Y018965D02*
X010515Y018965D01*
X010438Y018489D02*
X007548Y018489D01*
X007548Y018331D02*
X010438Y018331D01*
X010439Y018172D02*
X007548Y018172D01*
X007548Y018014D02*
X010517Y018014D01*
X011119Y018014D02*
X011517Y018014D01*
X011439Y018172D02*
X011197Y018172D01*
X011198Y018331D02*
X011438Y018331D01*
X011438Y018489D02*
X011198Y018489D01*
X011121Y018965D02*
X011515Y018965D01*
X012121Y018965D02*
X012515Y018965D01*
X012438Y018489D02*
X012198Y018489D01*
X012198Y018331D02*
X012438Y018331D01*
X012439Y018172D02*
X012197Y018172D01*
X012119Y018014D02*
X012517Y018014D01*
X013119Y018014D02*
X013767Y018014D01*
X013689Y018172D02*
X013197Y018172D01*
X013198Y018331D02*
X013688Y018331D01*
X013688Y018489D02*
X013198Y018489D01*
X013121Y018965D02*
X013765Y018965D01*
X014371Y018965D02*
X014765Y018965D01*
X014688Y018489D02*
X014448Y018489D01*
X014448Y018331D02*
X014688Y018331D01*
X014689Y018172D02*
X014447Y018172D01*
X014369Y018014D02*
X014767Y018014D01*
X015369Y018014D02*
X015767Y018014D01*
X015689Y018172D02*
X015447Y018172D01*
X015448Y018331D02*
X015688Y018331D01*
X015688Y018489D02*
X015448Y018489D01*
X015371Y018965D02*
X015765Y018965D01*
X017443Y017500D02*
X017693Y017250D01*
X018068Y017625D01*
X018068Y022125D01*
X021693Y025750D01*
X021693Y031219D01*
X022449Y031975D01*
X022776Y031645D02*
X022808Y031645D01*
X022808Y031677D02*
X022808Y030699D01*
X022713Y030795D01*
X022542Y030865D01*
X022357Y030865D01*
X022186Y030795D01*
X022055Y030664D01*
X021984Y030493D01*
X021984Y030308D01*
X022055Y030137D01*
X022186Y030007D01*
X022357Y029936D01*
X022542Y029936D01*
X022713Y030007D01*
X022808Y030102D01*
X022808Y027079D01*
X022740Y027011D01*
X022740Y026739D01*
X022808Y026671D01*
X022808Y025983D01*
X022529Y025703D01*
X022432Y025703D01*
X022240Y025511D01*
X022240Y025239D01*
X022432Y025047D01*
X022704Y025047D01*
X022896Y025239D01*
X022896Y025335D01*
X023289Y025728D01*
X023328Y025823D01*
X023328Y026671D01*
X023348Y026691D01*
X023348Y025341D01*
X022852Y024845D01*
X021099Y024845D01*
X021784Y025530D01*
X021913Y025659D01*
X021913Y031128D01*
X022313Y031529D01*
X022357Y031511D01*
X022542Y031511D01*
X022713Y031581D01*
X022808Y031677D01*
X022808Y031486D02*
X022271Y031486D01*
X022113Y031328D02*
X022808Y031328D01*
X022808Y031169D02*
X021954Y031169D01*
X021913Y031011D02*
X022808Y031011D01*
X022808Y030852D02*
X022574Y030852D01*
X022325Y030852D02*
X021913Y030852D01*
X021913Y030694D02*
X022085Y030694D01*
X022002Y030535D02*
X021913Y030535D01*
X021913Y030377D02*
X021984Y030377D01*
X022022Y030218D02*
X021913Y030218D01*
X021913Y030060D02*
X022133Y030060D01*
X021913Y029901D02*
X022808Y029901D01*
X022808Y029743D02*
X021913Y029743D01*
X021913Y029584D02*
X022808Y029584D01*
X022808Y029426D02*
X021913Y029426D01*
X021913Y029267D02*
X022808Y029267D01*
X022808Y029109D02*
X021913Y029109D01*
X021913Y028950D02*
X022808Y028950D01*
X022808Y028792D02*
X021913Y028792D01*
X021913Y028633D02*
X022808Y028633D01*
X022808Y028475D02*
X021913Y028475D01*
X021913Y028316D02*
X022808Y028316D01*
X022808Y028158D02*
X021913Y028158D01*
X021913Y027999D02*
X022808Y027999D01*
X022808Y027841D02*
X021913Y027841D01*
X021913Y027682D02*
X022808Y027682D01*
X022808Y027524D02*
X021913Y027524D01*
X021913Y027365D02*
X022808Y027365D01*
X022808Y027207D02*
X021913Y027207D01*
X021913Y027048D02*
X022777Y027048D01*
X022740Y026890D02*
X021913Y026890D01*
X021913Y026731D02*
X022748Y026731D01*
X022808Y026573D02*
X021913Y026573D01*
X021913Y026414D02*
X022808Y026414D01*
X022808Y026256D02*
X021913Y026256D01*
X021913Y026097D02*
X022808Y026097D01*
X022764Y025939D02*
X021913Y025939D01*
X021913Y025780D02*
X022606Y025780D01*
X022351Y025622D02*
X021876Y025622D01*
X021718Y025463D02*
X022240Y025463D01*
X022240Y025305D02*
X021559Y025305D01*
X021401Y025146D02*
X022333Y025146D01*
X022803Y025146D02*
X023153Y025146D01*
X022995Y024988D02*
X021242Y024988D01*
X020983Y024354D02*
X023437Y024354D01*
X023408Y024512D02*
X023142Y024512D01*
X023300Y024671D02*
X023461Y024671D01*
X023459Y024829D02*
X023607Y024829D01*
X023827Y024634D02*
X023827Y030401D01*
X024255Y030218D02*
X024384Y030218D01*
X024347Y030377D02*
X024292Y030377D01*
X024275Y030535D02*
X024364Y030535D01*
X024447Y030694D02*
X024192Y030694D01*
X023952Y030852D02*
X024687Y030852D01*
X024936Y030852D02*
X025098Y030852D01*
X025098Y031011D02*
X023551Y031011D01*
X023551Y031169D02*
X025098Y031169D01*
X025098Y031328D02*
X023551Y031328D01*
X023649Y031486D02*
X025098Y031486D01*
X025538Y031486D02*
X025668Y031486D01*
X025767Y031486D02*
X025824Y031486D01*
X025923Y031486D02*
X026061Y031486D01*
X026061Y031328D02*
X025538Y031328D01*
X025538Y031169D02*
X026061Y031169D01*
X026061Y031011D02*
X025538Y031011D01*
X025538Y030852D02*
X025671Y030852D01*
X025920Y030852D02*
X026061Y030852D01*
X026501Y030852D02*
X026655Y030852D01*
X026501Y031011D02*
X029023Y031011D01*
X029023Y031169D02*
X026501Y031169D01*
X026501Y031328D02*
X029023Y031328D01*
X029023Y031486D02*
X026602Y031486D01*
X026281Y031476D02*
X026780Y031975D01*
X027106Y031645D02*
X027438Y031645D01*
X027501Y031581D02*
X027370Y031712D01*
X027299Y031883D01*
X027299Y032068D01*
X027370Y032239D01*
X027501Y032369D01*
X027672Y032440D01*
X027857Y032440D01*
X028027Y032369D01*
X028158Y032239D01*
X028229Y032068D01*
X028229Y031883D01*
X028158Y031712D01*
X028027Y031581D01*
X027857Y031511D01*
X027672Y031511D01*
X027501Y031581D01*
X027332Y031803D02*
X027212Y031803D01*
X027245Y031962D02*
X027299Y031962D01*
X027321Y032120D02*
X027223Y032120D01*
X027134Y032279D02*
X027410Y032279D01*
X027664Y032437D02*
X026880Y032437D01*
X026680Y032437D02*
X026002Y032437D01*
X025989Y032443D02*
X025914Y032468D01*
X025835Y032480D01*
X025824Y032480D01*
X025824Y032004D01*
X026300Y032004D01*
X026300Y032015D01*
X026288Y032094D01*
X026264Y032169D01*
X026227Y032240D01*
X026181Y032304D01*
X026125Y032360D01*
X026060Y032407D01*
X025989Y032443D01*
X025824Y032437D02*
X025767Y032437D01*
X025767Y032279D02*
X025824Y032279D01*
X025824Y032120D02*
X025767Y032120D01*
X025824Y031962D02*
X026315Y031962D01*
X026337Y032120D02*
X026279Y032120D01*
X026199Y032279D02*
X026426Y032279D01*
X026296Y031803D02*
X026270Y031803D01*
X026281Y031476D02*
X026281Y029913D01*
X026693Y029500D01*
X026693Y021900D01*
X027018Y021500D02*
X026093Y021500D01*
X025913Y021184D02*
X030691Y021184D01*
X030849Y021342D02*
X027171Y021342D01*
X027018Y021500D02*
X027193Y021675D01*
X027193Y022625D01*
X027507Y022927D02*
X027880Y022927D01*
X027758Y022805D02*
X027758Y022445D01*
X028013Y022190D01*
X028374Y022190D01*
X028629Y022445D01*
X028629Y022805D01*
X028374Y023060D01*
X028013Y023060D01*
X027758Y022805D01*
X027758Y022769D02*
X027629Y022769D01*
X027629Y022610D02*
X027758Y022610D01*
X027758Y022452D02*
X027629Y022452D01*
X027477Y022293D02*
X027910Y022293D01*
X027413Y022135D02*
X031473Y022135D01*
X031473Y021976D02*
X027413Y021976D01*
X027413Y021818D02*
X031325Y021818D01*
X031166Y021659D02*
X027413Y021659D01*
X027330Y021501D02*
X031008Y021501D01*
X030532Y021025D02*
X025913Y021025D01*
X025913Y020867D02*
X030374Y020867D01*
X030348Y020708D02*
X025913Y020708D01*
X025913Y020550D02*
X030348Y020550D01*
X030348Y020391D02*
X026605Y020391D01*
X026753Y020233D02*
X030348Y020233D01*
X030348Y020074D02*
X026833Y020074D01*
X026994Y019916D02*
X030348Y019916D01*
X030348Y019757D02*
X027155Y019757D01*
X027316Y019599D02*
X030348Y019599D01*
X030348Y019440D02*
X027476Y019440D01*
X027637Y019282D02*
X030348Y019282D01*
X030348Y019123D02*
X027798Y019123D01*
X027959Y018965D02*
X030348Y018965D01*
X030348Y018806D02*
X028119Y018806D01*
X028280Y018648D02*
X030348Y018648D01*
X030348Y018489D02*
X028441Y018489D01*
X028602Y018331D02*
X030348Y018331D01*
X030348Y018172D02*
X028762Y018172D01*
X028923Y018014D02*
X030348Y018014D01*
X030348Y017855D02*
X029084Y017855D01*
X029245Y017697D02*
X030348Y017697D01*
X030348Y017538D02*
X029405Y017538D01*
X029566Y017380D02*
X030348Y017380D01*
X030348Y017221D02*
X029727Y017221D01*
X029888Y017063D02*
X030348Y017063D01*
X030348Y016904D02*
X030048Y016904D01*
X030043Y016600D02*
X030068Y016600D01*
X030043Y016600D02*
X026468Y020125D01*
X026275Y019916D02*
X025913Y019916D01*
X025913Y020074D02*
X026183Y020074D01*
X026183Y020233D02*
X025913Y020233D01*
X025913Y020391D02*
X026331Y020391D01*
X026528Y019757D02*
X025913Y019757D01*
X025913Y019599D02*
X026689Y019599D01*
X026850Y019440D02*
X025913Y019440D01*
X025693Y019325D02*
X025893Y019125D01*
X025693Y019325D02*
X025693Y024750D01*
X025796Y024852D01*
X025796Y030401D01*
X026016Y029989D02*
X026059Y030007D01*
X026061Y030008D01*
X026061Y029821D01*
X026473Y029409D01*
X026473Y023961D01*
X026374Y024060D01*
X026013Y024060D01*
X025913Y023961D01*
X025913Y024659D01*
X026016Y024761D01*
X026016Y029989D01*
X026016Y029901D02*
X026061Y029901D01*
X026016Y029743D02*
X026140Y029743D01*
X026016Y029584D02*
X026298Y029584D01*
X026457Y029426D02*
X026016Y029426D01*
X026016Y029267D02*
X026473Y029267D01*
X026473Y029109D02*
X026016Y029109D01*
X026016Y028950D02*
X026473Y028950D01*
X026473Y028792D02*
X026016Y028792D01*
X026016Y028633D02*
X026473Y028633D01*
X026473Y028475D02*
X026016Y028475D01*
X026016Y028316D02*
X026473Y028316D01*
X026473Y028158D02*
X026016Y028158D01*
X026016Y027999D02*
X026473Y027999D01*
X026473Y027841D02*
X026016Y027841D01*
X026016Y027682D02*
X026473Y027682D01*
X026473Y027524D02*
X026016Y027524D01*
X026016Y027365D02*
X026473Y027365D01*
X026473Y027207D02*
X026016Y027207D01*
X026016Y027048D02*
X026473Y027048D01*
X026473Y026890D02*
X026016Y026890D01*
X026016Y026731D02*
X026473Y026731D01*
X026473Y026573D02*
X026016Y026573D01*
X026016Y026414D02*
X026473Y026414D01*
X026473Y026256D02*
X026016Y026256D01*
X026016Y026097D02*
X026473Y026097D01*
X026473Y025939D02*
X026016Y025939D01*
X026016Y025780D02*
X026473Y025780D01*
X026473Y025622D02*
X026016Y025622D01*
X026016Y025463D02*
X026473Y025463D01*
X026473Y025305D02*
X026016Y025305D01*
X026016Y025146D02*
X026473Y025146D01*
X026473Y024988D02*
X026016Y024988D01*
X026016Y024829D02*
X026473Y024829D01*
X026473Y024671D02*
X025925Y024671D01*
X025913Y024512D02*
X026473Y024512D01*
X026473Y024354D02*
X025913Y024354D01*
X025913Y024195D02*
X026473Y024195D01*
X026473Y024037D02*
X026397Y024037D01*
X025989Y024037D02*
X025913Y024037D01*
X026913Y024037D02*
X026989Y024037D01*
X026913Y024195D02*
X029702Y024195D01*
X029544Y024037D02*
X029397Y024037D01*
X029693Y023875D02*
X029693Y023125D01*
X030193Y022625D01*
X029758Y022610D02*
X029629Y022610D01*
X029629Y022452D02*
X029758Y022452D01*
X029629Y022445D02*
X029374Y022190D01*
X029013Y022190D01*
X028758Y022445D01*
X028758Y022805D01*
X029013Y023060D01*
X029374Y023060D01*
X029629Y022805D01*
X029629Y022445D01*
X029477Y022293D02*
X029910Y022293D01*
X029739Y022769D02*
X029629Y022769D01*
X029580Y022927D02*
X029507Y022927D01*
X029473Y023086D02*
X026913Y023086D01*
X026913Y023244D02*
X026959Y023244D01*
X027428Y023244D02*
X027959Y023244D01*
X028013Y023190D02*
X028374Y023190D01*
X028629Y023445D01*
X028629Y023805D01*
X028374Y024060D01*
X028013Y024060D01*
X027758Y023805D01*
X027758Y023445D01*
X028013Y023190D01*
X027800Y023403D02*
X027586Y023403D01*
X027629Y023561D02*
X027758Y023561D01*
X027758Y023720D02*
X027629Y023720D01*
X027556Y023878D02*
X027831Y023878D01*
X027989Y024037D02*
X027397Y024037D01*
X026913Y024354D02*
X029861Y024354D01*
X029911Y024512D02*
X026913Y024512D01*
X026913Y024671D02*
X029911Y024671D01*
X029911Y024829D02*
X026913Y024829D01*
X026913Y024988D02*
X029911Y024988D01*
X029911Y025146D02*
X026913Y025146D01*
X026913Y025305D02*
X029911Y025305D01*
X029911Y025463D02*
X026913Y025463D01*
X026913Y025622D02*
X029911Y025622D01*
X029911Y025780D02*
X026913Y025780D01*
X026913Y025939D02*
X029911Y025939D01*
X029911Y026097D02*
X026913Y026097D01*
X026913Y026256D02*
X029911Y026256D01*
X029911Y026414D02*
X026913Y026414D01*
X026913Y026573D02*
X029911Y026573D01*
X029911Y026731D02*
X026913Y026731D01*
X026913Y026890D02*
X029911Y026890D01*
X029911Y027048D02*
X026913Y027048D01*
X026913Y027207D02*
X029911Y027207D01*
X029911Y027365D02*
X026913Y027365D01*
X026913Y027524D02*
X029911Y027524D01*
X029911Y027682D02*
X026913Y027682D01*
X026913Y027841D02*
X029911Y027841D01*
X029911Y027999D02*
X026913Y027999D01*
X026913Y028158D02*
X029911Y028158D01*
X029887Y028316D02*
X026913Y028316D01*
X026913Y028475D02*
X028953Y028475D01*
X028908Y028633D02*
X026913Y028633D01*
X026913Y028792D02*
X028944Y028792D01*
X029023Y028950D02*
X026913Y028950D01*
X026913Y029109D02*
X029023Y029109D01*
X029023Y029267D02*
X026913Y029267D01*
X026913Y029426D02*
X029023Y029426D01*
X029023Y029584D02*
X026913Y029584D01*
X026762Y029743D02*
X029023Y029743D01*
X029023Y029901D02*
X026603Y029901D01*
X027096Y030060D02*
X027448Y030060D01*
X027501Y030007D02*
X027672Y029936D01*
X027857Y029936D01*
X028027Y030007D01*
X028158Y030137D01*
X028229Y030308D01*
X028229Y030493D01*
X028158Y030664D01*
X028027Y030795D01*
X027857Y030865D01*
X027672Y030865D01*
X027501Y030795D01*
X027370Y030664D01*
X027299Y030493D01*
X027299Y030308D01*
X027370Y030137D01*
X027501Y030007D01*
X027337Y030218D02*
X027207Y030218D01*
X027245Y030377D02*
X027299Y030377D01*
X027317Y030535D02*
X027227Y030535D01*
X027144Y030694D02*
X027400Y030694D01*
X027640Y030852D02*
X026905Y030852D01*
X027889Y030852D02*
X028624Y030852D01*
X028873Y030852D02*
X029023Y030852D01*
X028384Y030694D02*
X028129Y030694D01*
X028212Y030535D02*
X028301Y030535D01*
X028284Y030377D02*
X028229Y030377D01*
X028192Y030218D02*
X028321Y030218D01*
X028432Y030060D02*
X028080Y030060D01*
X029463Y029901D02*
X030011Y029901D01*
X030011Y029743D02*
X029463Y029743D01*
X029463Y029584D02*
X030011Y029584D01*
X030011Y029426D02*
X029463Y029426D01*
X029463Y029267D02*
X030011Y029267D01*
X030011Y029109D02*
X029463Y029109D01*
X029463Y028950D02*
X030045Y028950D01*
X030203Y028792D02*
X029463Y028792D01*
X029478Y028633D02*
X029886Y028633D01*
X029846Y028475D02*
X029433Y028475D01*
X029243Y028688D02*
X029243Y033055D01*
X028748Y033550D01*
X028284Y033547D02*
X027792Y033547D01*
X027736Y033547D02*
X026808Y033547D01*
X026752Y033547D02*
X026260Y033547D01*
X026275Y033522D02*
X026275Y033510D01*
X026288Y033432D01*
X026312Y033356D01*
X026348Y033286D01*
X026395Y033221D01*
X026451Y033165D01*
X026515Y033118D01*
X026586Y033082D01*
X026662Y033058D01*
X026740Y033045D01*
X026752Y033045D01*
X026752Y033522D01*
X026275Y033522D01*
X026302Y033388D02*
X026232Y033388D01*
X026132Y033230D02*
X026389Y033230D01*
X026621Y033071D02*
X025628Y033071D01*
X025538Y032913D02*
X029023Y032913D01*
X029023Y032754D02*
X025538Y032754D01*
X025538Y032596D02*
X029023Y032596D01*
X029023Y032437D02*
X028848Y032437D01*
X028648Y032437D02*
X027864Y032437D01*
X028118Y032279D02*
X028394Y032279D01*
X028305Y032120D02*
X028207Y032120D01*
X028229Y031962D02*
X028284Y031962D01*
X028317Y031803D02*
X028196Y031803D01*
X028091Y031645D02*
X028422Y031645D01*
X029463Y032437D02*
X029513Y032437D01*
X029513Y032596D02*
X029463Y032596D01*
X029463Y032754D02*
X029561Y032754D01*
X029463Y032913D02*
X029720Y032913D01*
X029878Y033071D02*
X029463Y033071D01*
X029396Y033230D02*
X029380Y033230D01*
X029297Y033388D02*
X029222Y033388D01*
X029213Y033547D02*
X029268Y033547D01*
X029294Y033705D02*
X029187Y033705D01*
X029092Y033864D02*
X029389Y033864D01*
X029733Y034139D02*
X030068Y034475D01*
X033268Y034475D01*
X033418Y034325D01*
X033168Y034125D02*
X033168Y033475D01*
X036568Y030075D01*
X036348Y029901D02*
X032413Y029901D01*
X032413Y029743D02*
X036348Y029743D01*
X036348Y029584D02*
X032339Y029584D01*
X032193Y029750D02*
X032193Y033058D01*
X031701Y033550D01*
X031236Y033547D02*
X031182Y033547D01*
X031182Y033458D02*
X031182Y033643D01*
X031111Y033813D01*
X030980Y033944D01*
X030894Y033980D01*
X031524Y033980D01*
X031438Y033944D01*
X031307Y033813D01*
X031236Y033643D01*
X031236Y033458D01*
X031307Y033287D01*
X031438Y033156D01*
X031609Y033085D01*
X031794Y033085D01*
X031837Y033103D01*
X031973Y032967D01*
X031973Y032361D01*
X031964Y032369D01*
X031794Y032440D01*
X031609Y032440D01*
X031438Y032369D01*
X031307Y032239D01*
X031236Y032068D01*
X031236Y031883D01*
X031307Y031712D01*
X031438Y031581D01*
X031609Y031511D01*
X031794Y031511D01*
X031964Y031581D01*
X031973Y031590D01*
X031973Y030827D01*
X031966Y030832D01*
X031895Y030868D01*
X031819Y030893D01*
X031741Y030905D01*
X031729Y030905D01*
X031729Y030429D01*
X031673Y030429D01*
X031673Y030905D01*
X031661Y030905D01*
X031583Y030893D01*
X031507Y030868D01*
X031437Y030832D01*
X031413Y030815D01*
X031413Y031590D01*
X031164Y031840D01*
X031182Y031883D01*
X031182Y032068D01*
X031111Y032239D01*
X030980Y032369D01*
X030809Y032440D01*
X030795Y032440D01*
X030808Y032454D01*
X030937Y032582D01*
X030937Y033138D01*
X030980Y033156D01*
X031111Y033287D01*
X031182Y033458D01*
X031153Y033388D02*
X031265Y033388D01*
X031365Y033230D02*
X031054Y033230D01*
X030937Y033071D02*
X031869Y033071D01*
X031973Y032913D02*
X030937Y032913D01*
X030937Y032754D02*
X031973Y032754D01*
X031973Y032596D02*
X030937Y032596D01*
X030817Y032437D02*
X031601Y032437D01*
X031801Y032437D02*
X031973Y032437D01*
X032413Y032437D02*
X032585Y032437D01*
X032785Y032437D02*
X033895Y032437D01*
X033737Y032596D02*
X032413Y032596D01*
X032413Y032754D02*
X033578Y032754D01*
X033420Y032913D02*
X032413Y032913D01*
X032413Y033071D02*
X033261Y033071D01*
X033103Y033230D02*
X033022Y033230D01*
X032349Y033230D02*
X032333Y033230D01*
X032250Y033388D02*
X032174Y033388D01*
X032166Y033547D02*
X032221Y033547D01*
X032247Y033705D02*
X032140Y033705D01*
X032045Y033864D02*
X032341Y033864D01*
X033093Y034200D02*
X033168Y034125D01*
X033093Y034200D02*
X030468Y034200D01*
X030218Y033950D01*
X030218Y033100D01*
X029733Y032614D01*
X029733Y031975D01*
X030231Y032188D02*
X030717Y032674D01*
X030717Y033550D01*
X031061Y033864D02*
X031357Y033864D01*
X031262Y033705D02*
X031156Y033705D01*
X031064Y034815D02*
X031303Y034815D01*
X031220Y034973D02*
X031157Y034973D01*
X031673Y035290D02*
X031729Y035290D01*
X031729Y035449D02*
X031673Y035449D01*
X031673Y035607D02*
X031729Y035607D01*
X031551Y035607D02*
X028898Y035607D01*
X028777Y035607D02*
X028720Y035607D01*
X028720Y035630D02*
X028709Y035630D01*
X028630Y035617D01*
X028555Y035593D01*
X028484Y035557D01*
X028420Y035510D01*
X028363Y035454D01*
X028317Y035390D01*
X028281Y035319D01*
X028256Y035243D01*
X028244Y035165D01*
X028244Y035153D01*
X028720Y035153D01*
X028720Y035630D01*
X028599Y035607D02*
X028064Y035607D01*
X028064Y035766D02*
X036254Y035766D01*
X036095Y035924D02*
X028064Y035924D01*
X028098Y035449D02*
X028360Y035449D01*
X028271Y035290D02*
X028199Y035290D01*
X028229Y035132D02*
X028720Y035132D01*
X028777Y035132D02*
X029268Y035132D01*
X029293Y034973D02*
X029230Y034973D01*
X029147Y034815D02*
X029386Y034815D01*
X029298Y035290D02*
X029226Y035290D01*
X029137Y035449D02*
X029399Y035449D01*
X028777Y035449D02*
X028720Y035449D01*
X028720Y035290D02*
X028777Y035290D01*
X028777Y034973D02*
X028720Y034973D01*
X028720Y034815D02*
X028777Y034815D01*
X028350Y034815D02*
X028111Y034815D01*
X028204Y034973D02*
X028267Y034973D01*
X027417Y034815D02*
X027127Y034815D01*
X027174Y034862D02*
X027043Y034731D01*
X026872Y034660D01*
X026687Y034660D01*
X026517Y034731D01*
X026386Y034862D01*
X026315Y035033D01*
X026315Y035217D01*
X026386Y035388D01*
X026517Y035519D01*
X026687Y035590D01*
X026872Y035590D01*
X027043Y035519D01*
X027174Y035388D01*
X027245Y035217D01*
X027245Y035033D01*
X027174Y034862D01*
X027220Y034973D02*
X027324Y034973D01*
X027299Y035132D02*
X027245Y035132D01*
X027215Y035290D02*
X027329Y035290D01*
X027430Y035449D02*
X027114Y035449D01*
X027464Y035607D02*
X024087Y035607D01*
X024087Y035766D02*
X027464Y035766D01*
X027464Y035924D02*
X024087Y035924D01*
X024161Y035449D02*
X024478Y035449D01*
X024377Y035290D02*
X024262Y035290D01*
X023567Y035607D02*
X022599Y035607D01*
X022567Y035617D02*
X022489Y035630D01*
X022478Y035630D01*
X022478Y035153D01*
X022954Y035153D01*
X022954Y035165D01*
X022942Y035243D01*
X022917Y035319D01*
X022881Y035390D01*
X022834Y035454D01*
X022778Y035510D01*
X022714Y035557D01*
X022643Y035593D01*
X022567Y035617D01*
X022478Y035607D02*
X022421Y035607D01*
X022421Y035630D02*
X022410Y035630D01*
X022331Y035617D01*
X022255Y035593D01*
X022185Y035557D01*
X022120Y035510D01*
X022064Y035454D01*
X022017Y035390D01*
X021981Y035319D01*
X021957Y035243D01*
X021944Y035165D01*
X021944Y035153D01*
X022421Y035153D01*
X022421Y035097D01*
X021944Y035097D01*
X021944Y035085D01*
X021957Y035007D01*
X021981Y034931D01*
X022017Y034860D01*
X022064Y034796D01*
X022120Y034740D01*
X022185Y034693D01*
X022255Y034657D01*
X022331Y034633D01*
X022410Y034620D01*
X022421Y034620D01*
X022421Y035097D01*
X022478Y035097D01*
X022478Y035153D01*
X022421Y035153D01*
X022421Y035630D01*
X022299Y035607D02*
X021899Y035607D01*
X022057Y035766D02*
X023567Y035766D01*
X023567Y035924D02*
X022216Y035924D01*
X022060Y035449D02*
X021740Y035449D01*
X021582Y035290D02*
X021972Y035290D01*
X021968Y034973D02*
X021433Y034973D01*
X021457Y035132D02*
X022421Y035132D01*
X022478Y035132D02*
X023362Y035132D01*
X023392Y035290D02*
X022926Y035290D01*
X022838Y035449D02*
X023493Y035449D01*
X023308Y034973D02*
X022931Y034973D01*
X022942Y035007D02*
X022954Y035085D01*
X022954Y035097D01*
X022478Y035097D01*
X022478Y034620D01*
X022489Y034620D01*
X022567Y034633D01*
X022643Y034657D01*
X022714Y034693D01*
X022778Y034740D01*
X022834Y034796D01*
X022881Y034860D01*
X022917Y034931D01*
X022942Y035007D01*
X022848Y034815D02*
X023149Y034815D01*
X022991Y034656D02*
X022640Y034656D01*
X022478Y034656D02*
X022421Y034656D01*
X022421Y034815D02*
X022478Y034815D01*
X022478Y034973D02*
X022421Y034973D01*
X022421Y035290D02*
X022478Y035290D01*
X022478Y035449D02*
X022421Y035449D01*
X022051Y034815D02*
X021339Y034815D01*
X020646Y034815D02*
X019514Y034815D01*
X019512Y034815D02*
X019166Y034815D01*
X018845Y034683D01*
X018600Y034438D01*
X018468Y034117D01*
X018468Y033771D01*
X018600Y033450D01*
X018845Y033205D01*
X019166Y033072D01*
X019512Y033072D01*
X019833Y033205D01*
X020078Y033450D01*
X020210Y033771D01*
X020210Y034117D01*
X020078Y034438D01*
X019833Y034683D01*
X019512Y034815D01*
X019164Y034815D02*
X017932Y034815D01*
X017774Y034656D02*
X018819Y034656D01*
X018660Y034498D02*
X017615Y034498D01*
X017457Y034339D02*
X018559Y034339D01*
X018494Y034181D02*
X017298Y034181D01*
X017140Y034022D02*
X018468Y034022D01*
X018468Y033864D02*
X007548Y033864D01*
X007548Y034022D02*
X012247Y034022D01*
X012089Y034181D02*
X007548Y034181D01*
X007548Y034339D02*
X011930Y034339D01*
X011772Y034498D02*
X007548Y034498D01*
X007548Y034656D02*
X010337Y034656D01*
X010363Y034630D02*
X010568Y034630D01*
X010568Y035125D01*
X010073Y035125D01*
X010073Y034920D01*
X010363Y034630D01*
X010568Y034630D02*
X010773Y034630D01*
X011063Y034920D01*
X011063Y035125D01*
X011063Y035330D01*
X010773Y035620D01*
X010568Y035620D01*
X010363Y035620D01*
X010073Y035330D01*
X010073Y035125D01*
X010568Y035125D01*
X010568Y035125D01*
X010568Y035125D01*
X010568Y035620D01*
X010568Y035125D01*
X010568Y035125D01*
X010568Y034630D01*
X010568Y034656D02*
X010568Y034656D01*
X010568Y034815D02*
X010568Y034815D01*
X010568Y034973D02*
X010568Y034973D01*
X010568Y035125D02*
X010568Y035125D01*
X011063Y035125D01*
X010568Y035125D01*
X010568Y035132D02*
X010568Y035132D01*
X010568Y035290D02*
X010568Y035290D01*
X010568Y035449D02*
X010568Y035449D01*
X010568Y035607D02*
X010568Y035607D01*
X010350Y035607D02*
X007548Y035607D01*
X007548Y035449D02*
X010192Y035449D01*
X010073Y035290D02*
X007548Y035290D01*
X007548Y035132D02*
X010073Y035132D01*
X010073Y034973D02*
X007548Y034973D01*
X007548Y034815D02*
X010179Y034815D01*
X010799Y034656D02*
X011613Y034656D01*
X011235Y034815D02*
X010958Y034815D01*
X011063Y034973D02*
X011139Y034973D01*
X011113Y035132D02*
X011063Y035132D01*
X011063Y035290D02*
X011144Y035290D01*
X011248Y035449D02*
X010945Y035449D01*
X010786Y035607D02*
X015857Y035607D01*
X015808Y035558D02*
X015738Y035391D01*
X015738Y035209D01*
X015808Y035042D01*
X015936Y034914D01*
X016103Y034845D01*
X016284Y034845D01*
X016451Y034914D01*
X016579Y035042D01*
X016648Y035209D01*
X016648Y035391D01*
X016579Y035558D01*
X016451Y035686D01*
X016284Y035755D01*
X016103Y035755D01*
X015936Y035686D01*
X015808Y035558D01*
X015762Y035449D02*
X011888Y035449D01*
X011992Y035290D02*
X015738Y035290D01*
X015771Y035132D02*
X012023Y035132D01*
X012145Y034973D02*
X015877Y034973D01*
X016510Y034973D02*
X017242Y034973D01*
X017084Y034815D02*
X012303Y034815D01*
X012462Y034656D02*
X016925Y034656D01*
X016616Y035132D02*
X017401Y035132D01*
X017559Y035290D02*
X016648Y035290D01*
X016624Y035449D02*
X020659Y035449D01*
X021050Y035607D02*
X016530Y035607D01*
X016398Y036205D02*
X016193Y036205D01*
X016193Y036700D01*
X015698Y036700D01*
X015698Y036495D01*
X015988Y036205D01*
X016193Y036205D01*
X016193Y036700D01*
X016193Y036700D01*
X015698Y036700D01*
X015698Y036905D01*
X015988Y037195D01*
X016193Y037195D01*
X016193Y036700D01*
X016193Y036700D01*
X016193Y036700D01*
X016193Y037195D01*
X016398Y037195D01*
X016688Y036905D01*
X016688Y036700D01*
X016193Y036700D01*
X016688Y036700D01*
X016688Y036495D01*
X016398Y036205D01*
X016434Y036241D02*
X021684Y036241D01*
X021526Y036083D02*
X007548Y036083D01*
X007548Y036241D02*
X015952Y036241D01*
X015794Y036400D02*
X007548Y036400D01*
X007548Y036558D02*
X015698Y036558D01*
X015698Y036717D02*
X007548Y036717D01*
X007548Y036875D02*
X015698Y036875D01*
X015827Y037034D02*
X007548Y037034D01*
X007548Y037192D02*
X015985Y037192D01*
X016193Y037192D02*
X016193Y037192D01*
X016193Y037034D02*
X016193Y037034D01*
X016193Y036875D02*
X016193Y036875D01*
X016193Y036717D02*
X016193Y036717D01*
X016193Y036700D02*
X016193Y036700D01*
X016193Y036558D02*
X016193Y036558D01*
X016193Y036400D02*
X016193Y036400D01*
X016193Y036241D02*
X016193Y036241D01*
X016593Y036400D02*
X021843Y036400D01*
X021367Y035924D02*
X007548Y035924D01*
X007548Y035766D02*
X021209Y035766D01*
X022259Y034656D02*
X019859Y034656D01*
X020018Y034498D02*
X022841Y034498D01*
X022921Y034587D02*
X022921Y034587D01*
X022808Y034339D02*
X020119Y034339D01*
X020184Y034181D02*
X022808Y034181D01*
X022808Y034022D02*
X020210Y034022D01*
X020210Y033864D02*
X020649Y033864D01*
X020349Y033705D02*
X020183Y033705D01*
X020191Y033547D02*
X020118Y033547D01*
X020032Y033388D02*
X020016Y033388D01*
X019874Y033230D02*
X019857Y033230D01*
X019715Y033071D02*
X007548Y033071D01*
X007548Y032913D02*
X019557Y032913D01*
X019398Y032754D02*
X007548Y032754D01*
X007548Y032596D02*
X008684Y032596D01*
X008731Y032615D02*
X008569Y032548D01*
X008445Y032424D01*
X008378Y032263D01*
X008378Y031487D01*
X008445Y031326D01*
X008569Y031202D01*
X008731Y031135D01*
X008906Y031135D01*
X009068Y031202D01*
X009191Y031326D01*
X009258Y031487D01*
X009258Y032263D01*
X009191Y032424D01*
X009068Y032548D01*
X008906Y032615D01*
X008731Y032615D01*
X008953Y032596D02*
X019240Y032596D01*
X019081Y032437D02*
X009179Y032437D01*
X009252Y032279D02*
X018923Y032279D01*
X018764Y032120D02*
X009258Y032120D01*
X009258Y031962D02*
X018606Y031962D01*
X019412Y031169D02*
X019847Y031169D01*
X020005Y031328D02*
X019570Y031328D01*
X019729Y031486D02*
X020164Y031486D01*
X020322Y031645D02*
X019887Y031645D01*
X020046Y031803D02*
X020481Y031803D01*
X020537Y031860D02*
X018365Y029687D01*
X018328Y029599D01*
X018328Y028321D01*
X018260Y028253D01*
X018260Y027997D01*
X018441Y027817D01*
X018696Y027817D01*
X018877Y027997D01*
X018877Y028253D01*
X018808Y028321D01*
X018808Y029452D01*
X020877Y031520D01*
X020900Y031511D01*
X021085Y031511D01*
X021256Y031581D01*
X021387Y031712D01*
X021457Y031883D01*
X021457Y032068D01*
X021387Y032239D01*
X021256Y032369D01*
X021085Y032440D01*
X020900Y032440D01*
X020729Y032369D01*
X020599Y032239D01*
X020528Y032068D01*
X020528Y031883D01*
X020537Y031860D01*
X020528Y031962D02*
X020204Y031962D01*
X020363Y032120D02*
X020549Y032120D01*
X020521Y032279D02*
X020638Y032279D01*
X020680Y032437D02*
X020893Y032437D01*
X021093Y032437D02*
X022349Y032437D01*
X022549Y032437D02*
X022808Y032437D01*
X022803Y032279D02*
X022808Y032279D01*
X022808Y032596D02*
X021883Y032596D01*
X022077Y032754D02*
X022808Y032754D01*
X022808Y032913D02*
X022236Y032913D01*
X022394Y033071D02*
X022808Y033071D01*
X022808Y033230D02*
X022786Y033230D01*
X022793Y033864D02*
X022808Y033864D01*
X022105Y033864D02*
X021337Y033864D01*
X021431Y033705D02*
X022010Y033705D01*
X021984Y033547D02*
X021457Y033547D01*
X021428Y033388D02*
X021863Y033388D01*
X021704Y033230D02*
X021329Y033230D01*
X021347Y032279D02*
X022095Y032279D01*
X022006Y032120D02*
X021436Y032120D01*
X021457Y031962D02*
X021984Y031962D01*
X021966Y031803D02*
X021424Y031803D01*
X021319Y031645D02*
X021807Y031645D01*
X021649Y031486D02*
X020843Y031486D01*
X020684Y031328D02*
X021490Y031328D01*
X021473Y031169D02*
X020526Y031169D01*
X020367Y031011D02*
X021473Y031011D01*
X021473Y030852D02*
X021117Y030852D01*
X021085Y030865D02*
X020900Y030865D01*
X020729Y030795D01*
X020599Y030664D01*
X020528Y030493D01*
X020528Y030308D01*
X020599Y030137D01*
X020729Y030007D01*
X020900Y029936D01*
X021085Y029936D01*
X021256Y030007D01*
X021387Y030137D01*
X021457Y030308D01*
X021457Y030493D01*
X021387Y030664D01*
X021256Y030795D01*
X021085Y030865D01*
X020868Y030852D02*
X020209Y030852D01*
X020050Y030694D02*
X020628Y030694D01*
X020545Y030535D02*
X019892Y030535D01*
X019733Y030377D02*
X020528Y030377D01*
X020565Y030218D02*
X019575Y030218D01*
X019416Y030060D02*
X020676Y030060D01*
X021309Y030060D02*
X021473Y030060D01*
X021473Y030218D02*
X021420Y030218D01*
X021457Y030377D02*
X021473Y030377D01*
X021473Y030535D02*
X021440Y030535D01*
X021473Y030694D02*
X021357Y030694D01*
X021473Y029901D02*
X019258Y029901D01*
X019099Y029743D02*
X021473Y029743D01*
X021473Y029584D02*
X018941Y029584D01*
X018808Y029426D02*
X021473Y029426D01*
X021473Y029267D02*
X018808Y029267D01*
X018808Y029109D02*
X021473Y029109D01*
X021473Y028950D02*
X018808Y028950D01*
X018808Y028792D02*
X021473Y028792D01*
X021473Y028633D02*
X018808Y028633D01*
X018808Y028475D02*
X021473Y028475D01*
X021473Y028316D02*
X018813Y028316D01*
X018877Y028158D02*
X021473Y028158D01*
X021473Y027999D02*
X018877Y027999D01*
X018720Y027841D02*
X021473Y027841D01*
X021473Y027682D02*
X015493Y027682D01*
X015493Y027524D02*
X015814Y027524D01*
X015783Y027365D02*
X015493Y027365D01*
X015493Y027207D02*
X015834Y027207D01*
X015713Y027048D02*
X015493Y027048D01*
X015493Y026890D02*
X015658Y026890D01*
X015684Y026731D02*
X015493Y026731D01*
X015493Y026573D02*
X015723Y026573D01*
X015723Y026414D02*
X015493Y026414D01*
X015493Y026256D02*
X015877Y026256D01*
X015762Y026097D02*
X015493Y026097D01*
X015493Y025939D02*
X015658Y025939D01*
X015537Y025780D02*
X015493Y025780D01*
X015693Y025625D02*
X015693Y024375D01*
X016318Y025375D02*
X017068Y025375D01*
X016318Y026125D02*
X015943Y026500D01*
X015943Y026875D01*
X015493Y027841D02*
X018417Y027841D01*
X018260Y027999D02*
X015493Y027999D01*
X015493Y028158D02*
X018260Y028158D01*
X018323Y028316D02*
X015493Y028316D01*
X015592Y028475D02*
X018328Y028475D01*
X018328Y028633D02*
X015751Y028633D01*
X015909Y028792D02*
X018328Y028792D01*
X018328Y028950D02*
X016068Y028950D01*
X016226Y029109D02*
X018328Y029109D01*
X018328Y029267D02*
X016385Y029267D01*
X016543Y029426D02*
X018328Y029426D01*
X018328Y029584D02*
X016702Y029584D01*
X016860Y029743D02*
X018420Y029743D01*
X018579Y029901D02*
X017019Y029901D01*
X017177Y030060D02*
X018737Y030060D01*
X018896Y030218D02*
X017336Y030218D01*
X017494Y030377D02*
X019054Y030377D01*
X019213Y030535D02*
X017653Y030535D01*
X017811Y030694D02*
X019371Y030694D01*
X019530Y030852D02*
X019095Y030852D01*
X019253Y031011D02*
X019688Y031011D01*
X017438Y031169D02*
X017412Y031169D01*
X017280Y031011D02*
X017253Y031011D01*
X017121Y030852D02*
X017095Y030852D01*
X016963Y030694D02*
X016936Y030694D01*
X016804Y030535D02*
X016778Y030535D01*
X016646Y030377D02*
X016619Y030377D01*
X016487Y030218D02*
X016461Y030218D01*
X016329Y030060D02*
X016302Y030060D01*
X016170Y029901D02*
X016144Y029901D01*
X016012Y029743D02*
X015985Y029743D01*
X015853Y029584D02*
X015827Y029584D01*
X015695Y029426D02*
X015668Y029426D01*
X015536Y029267D02*
X015510Y029267D01*
X015378Y029109D02*
X015351Y029109D01*
X015219Y028950D02*
X015193Y028950D01*
X015061Y028792D02*
X015034Y028792D01*
X014924Y028633D02*
X014876Y028633D01*
X014868Y028475D02*
X014893Y028475D01*
X014893Y028316D02*
X014868Y028316D01*
X014868Y028158D02*
X014893Y028158D01*
X014893Y027999D02*
X014868Y027999D01*
X014868Y027841D02*
X014893Y027841D01*
X014893Y027682D02*
X014868Y027682D01*
X014868Y027524D02*
X014893Y027524D01*
X014893Y027365D02*
X014868Y027365D01*
X014868Y027207D02*
X014893Y027207D01*
X014268Y027841D02*
X007548Y027841D01*
X007548Y027999D02*
X014268Y027999D01*
X014268Y028158D02*
X007548Y028158D01*
X007548Y028316D02*
X014268Y028316D01*
X014268Y028475D02*
X007548Y028475D01*
X007548Y028633D02*
X014268Y028633D01*
X014268Y028792D02*
X007548Y028792D01*
X007548Y028950D02*
X014344Y028950D01*
X014503Y029109D02*
X007548Y029109D01*
X007548Y029267D02*
X014661Y029267D01*
X014820Y029426D02*
X007548Y029426D01*
X007548Y029584D02*
X014978Y029584D01*
X015137Y029743D02*
X007548Y029743D01*
X007548Y029901D02*
X015295Y029901D01*
X015454Y030060D02*
X007548Y030060D01*
X007548Y030218D02*
X015612Y030218D01*
X015771Y030377D02*
X007548Y030377D01*
X007548Y030535D02*
X015929Y030535D01*
X016088Y030694D02*
X007548Y030694D01*
X007548Y030852D02*
X016246Y030852D01*
X016405Y031011D02*
X007548Y031011D01*
X007548Y031169D02*
X008649Y031169D01*
X008445Y031328D02*
X007548Y031328D01*
X007548Y031486D02*
X008379Y031486D01*
X008378Y031645D02*
X007548Y031645D01*
X007548Y031803D02*
X008378Y031803D01*
X008378Y031962D02*
X007548Y031962D01*
X007548Y032120D02*
X008378Y032120D01*
X008385Y032279D02*
X007548Y032279D01*
X007548Y032437D02*
X008458Y032437D01*
X009258Y031803D02*
X017197Y031803D01*
X017039Y031645D02*
X009258Y031645D01*
X009258Y031486D02*
X016880Y031486D01*
X016722Y031328D02*
X009192Y031328D01*
X008988Y031169D02*
X016563Y031169D01*
X018821Y033230D02*
X007548Y033230D01*
X007548Y033388D02*
X018662Y033388D01*
X018560Y033547D02*
X007548Y033547D01*
X007548Y033705D02*
X018495Y033705D01*
X016688Y036558D02*
X038455Y036558D01*
X038455Y036400D02*
X036468Y036400D01*
X036627Y036241D02*
X038455Y036241D01*
X038455Y036083D02*
X036785Y036083D01*
X036944Y035924D02*
X038455Y035924D01*
X038455Y035766D02*
X037102Y035766D01*
X037261Y035607D02*
X038455Y035607D01*
X038455Y035449D02*
X037419Y035449D01*
X037578Y035290D02*
X038455Y035290D01*
X038455Y035132D02*
X037736Y035132D01*
X037895Y034973D02*
X038455Y034973D01*
X038455Y034815D02*
X038053Y034815D01*
X038212Y034656D02*
X038455Y034656D01*
X038455Y034498D02*
X038370Y034498D01*
X038418Y034339D02*
X038455Y034339D01*
X038455Y034181D02*
X038418Y034181D01*
X038418Y034022D02*
X038455Y034022D01*
X038455Y033864D02*
X038418Y033864D01*
X038418Y033705D02*
X038455Y033705D01*
X038455Y033547D02*
X038418Y033547D01*
X038418Y033388D02*
X038455Y033388D01*
X038455Y033230D02*
X038418Y033230D01*
X038418Y033071D02*
X038455Y033071D01*
X038455Y032913D02*
X038418Y032913D01*
X038418Y032754D02*
X038455Y032754D01*
X038455Y032596D02*
X038418Y032596D01*
X038418Y032437D02*
X038455Y032437D01*
X038455Y032279D02*
X038418Y032279D01*
X038418Y032120D02*
X038455Y032120D01*
X038455Y031962D02*
X038418Y031962D01*
X038418Y031803D02*
X038455Y031803D01*
X038455Y031645D02*
X038418Y031645D01*
X038418Y031486D02*
X038455Y031486D01*
X038455Y031328D02*
X038418Y031328D01*
X038418Y031169D02*
X038455Y031169D01*
X038455Y031011D02*
X038418Y031011D01*
X038418Y030852D02*
X038455Y030852D01*
X038455Y030694D02*
X038418Y030694D01*
X038418Y030535D02*
X038455Y030535D01*
X038455Y030377D02*
X038418Y030377D01*
X038418Y030218D02*
X038455Y030218D01*
X038455Y030060D02*
X038418Y030060D01*
X038418Y029901D02*
X038455Y029901D01*
X038455Y029743D02*
X038418Y029743D01*
X038418Y029584D02*
X038455Y029584D01*
X038455Y029426D02*
X038418Y029426D01*
X038418Y029267D02*
X038455Y029267D01*
X038455Y029109D02*
X038418Y029109D01*
X038418Y028950D02*
X038455Y028950D01*
X038455Y028792D02*
X038418Y028792D01*
X038418Y028633D02*
X038455Y028633D01*
X038455Y028475D02*
X038418Y028475D01*
X038418Y028316D02*
X038455Y028316D01*
X038455Y028158D02*
X038418Y028158D01*
X038418Y027999D02*
X038455Y027999D01*
X038455Y027841D02*
X038418Y027841D01*
X038418Y027682D02*
X038455Y027682D01*
X038455Y027524D02*
X038418Y027524D01*
X038418Y027365D02*
X038455Y027365D01*
X038455Y027207D02*
X038418Y027207D01*
X038418Y027048D02*
X038455Y027048D01*
X038455Y026890D02*
X038418Y026890D01*
X038418Y026731D02*
X038455Y026731D01*
X038455Y026573D02*
X038418Y026573D01*
X038418Y026414D02*
X038455Y026414D01*
X038455Y026256D02*
X038418Y026256D01*
X038418Y026097D02*
X038455Y026097D01*
X038455Y025939D02*
X038418Y025939D01*
X038418Y025780D02*
X038455Y025780D01*
X038455Y025622D02*
X038418Y025622D01*
X038418Y025463D02*
X038455Y025463D01*
X038455Y025305D02*
X038418Y025305D01*
X038418Y025146D02*
X038455Y025146D01*
X038455Y024988D02*
X038418Y024988D01*
X038418Y024829D02*
X038455Y024829D01*
X038455Y024671D02*
X038418Y024671D01*
X038418Y024512D02*
X038455Y024512D01*
X038455Y024354D02*
X038418Y024354D01*
X038418Y024195D02*
X038455Y024195D01*
X038455Y024037D02*
X038418Y024037D01*
X038418Y023878D02*
X038455Y023878D01*
X038455Y023720D02*
X038418Y023720D01*
X038418Y023561D02*
X038455Y023561D01*
X038455Y023403D02*
X038418Y023403D01*
X038418Y023244D02*
X038455Y023244D01*
X038455Y023086D02*
X038328Y023086D01*
X038455Y022927D02*
X038170Y022927D01*
X038011Y022769D02*
X038455Y022769D01*
X038455Y022610D02*
X038004Y022610D01*
X037885Y022452D02*
X038455Y022452D01*
X038455Y022293D02*
X037336Y022293D01*
X037093Y022225D02*
X037568Y021750D01*
X038193Y021125D01*
X038193Y019875D01*
X037568Y019250D01*
X037568Y016000D01*
X037371Y015795D02*
X037266Y015795D01*
X037318Y016153D02*
X037288Y016183D01*
X037288Y018841D01*
X037159Y018970D01*
X036163Y019966D01*
X036163Y020539D01*
X036388Y020315D01*
X036749Y020315D01*
X037004Y020570D01*
X037004Y020930D01*
X036749Y021185D01*
X036388Y021185D01*
X036163Y020961D01*
X036163Y021034D01*
X036444Y021315D01*
X036749Y021315D01*
X037004Y021570D01*
X037004Y021930D01*
X036749Y022185D01*
X036444Y022185D01*
X036213Y022416D01*
X036213Y022433D01*
X036371Y022275D01*
X036550Y022275D01*
X036550Y022732D01*
X036587Y022732D01*
X036587Y022275D01*
X036765Y022275D01*
X036873Y022383D01*
X036873Y022134D01*
X037002Y022005D01*
X037133Y021874D01*
X037133Y021570D01*
X037388Y021315D01*
X037692Y021315D01*
X037973Y021034D01*
X037973Y020961D01*
X037749Y021185D01*
X037388Y021185D01*
X037133Y020930D01*
X037133Y020570D01*
X037388Y020315D01*
X037749Y020315D01*
X037973Y020539D01*
X037973Y019966D01*
X037477Y019470D01*
X037348Y019341D01*
X037348Y016183D01*
X037318Y016153D01*
X037288Y016270D02*
X037348Y016270D01*
X037348Y016429D02*
X037288Y016429D01*
X037288Y016587D02*
X037348Y016587D01*
X037348Y016746D02*
X037288Y016746D01*
X037288Y016904D02*
X037348Y016904D01*
X037348Y017063D02*
X037288Y017063D01*
X037288Y017221D02*
X037348Y017221D01*
X037348Y017380D02*
X037288Y017380D01*
X037288Y017538D02*
X037348Y017538D01*
X037348Y017697D02*
X037288Y017697D01*
X037288Y017855D02*
X037348Y017855D01*
X037348Y018014D02*
X037288Y018014D01*
X037288Y018172D02*
X037348Y018172D01*
X037348Y018331D02*
X037288Y018331D01*
X037288Y018489D02*
X037348Y018489D01*
X037348Y018648D02*
X037288Y018648D01*
X037288Y018806D02*
X037348Y018806D01*
X037348Y018965D02*
X037165Y018965D01*
X037006Y019123D02*
X037348Y019123D01*
X037348Y019282D02*
X036848Y019282D01*
X036689Y019440D02*
X037447Y019440D01*
X037606Y019599D02*
X036531Y019599D01*
X036372Y019757D02*
X037764Y019757D01*
X037923Y019916D02*
X036214Y019916D01*
X036163Y020074D02*
X037973Y020074D01*
X037973Y020233D02*
X036163Y020233D01*
X036163Y020391D02*
X036312Y020391D01*
X035723Y020391D02*
X034846Y020391D01*
X034906Y020451D02*
X034651Y020196D01*
X034290Y020196D01*
X034035Y020451D01*
X034035Y020811D01*
X034290Y021066D01*
X034651Y021066D01*
X034906Y020811D01*
X034906Y020451D01*
X034906Y020550D02*
X035723Y020550D01*
X035723Y020708D02*
X034906Y020708D01*
X034850Y020867D02*
X035723Y020867D01*
X035723Y021025D02*
X034692Y021025D01*
X034249Y021025D02*
X033748Y021025D01*
X033667Y021106D02*
X033946Y020828D01*
X033946Y020649D01*
X033489Y020649D01*
X033489Y020613D01*
X033946Y020613D01*
X033946Y020434D01*
X033667Y020156D01*
X033489Y020156D01*
X033489Y020613D01*
X033452Y020613D01*
X032995Y020613D01*
X032995Y020434D01*
X033273Y020156D01*
X033452Y020156D01*
X033452Y020613D01*
X033452Y020649D01*
X032995Y020649D01*
X032995Y020828D01*
X033273Y021106D01*
X033452Y021106D01*
X033452Y020649D01*
X033489Y020649D01*
X033489Y021106D01*
X033667Y021106D01*
X033489Y021025D02*
X033452Y021025D01*
X033452Y020867D02*
X033489Y020867D01*
X033489Y020708D02*
X033452Y020708D01*
X033452Y020550D02*
X033489Y020550D01*
X033489Y020391D02*
X033452Y020391D01*
X033452Y020233D02*
X033489Y020233D01*
X033651Y020066D02*
X033290Y020066D01*
X033035Y019811D01*
X033035Y019451D01*
X033290Y019196D01*
X033651Y019196D01*
X033906Y019451D01*
X033906Y019811D01*
X033651Y020066D01*
X033744Y020233D02*
X034253Y020233D01*
X034290Y020066D02*
X034035Y019811D01*
X034035Y019451D01*
X034290Y019196D01*
X034651Y019196D01*
X034906Y019451D01*
X034906Y019811D01*
X034651Y020066D01*
X034290Y020066D01*
X034139Y019916D02*
X033801Y019916D01*
X033906Y019757D02*
X034035Y019757D01*
X034035Y019599D02*
X033906Y019599D01*
X033895Y019440D02*
X034046Y019440D01*
X034204Y019282D02*
X033736Y019282D01*
X033752Y018965D02*
X034188Y018965D01*
X034035Y018806D02*
X033906Y018806D01*
X033906Y018648D02*
X034035Y018648D01*
X034035Y018489D02*
X033906Y018489D01*
X033188Y018965D02*
X032703Y018965D01*
X032703Y019123D02*
X036384Y019123D01*
X036226Y019282D02*
X034736Y019282D01*
X034895Y019440D02*
X036067Y019440D01*
X035909Y019599D02*
X034906Y019599D01*
X034906Y019757D02*
X035750Y019757D01*
X035723Y019916D02*
X034801Y019916D01*
X034687Y020233D02*
X035723Y020233D01*
X035723Y020074D02*
X032703Y020074D01*
X032703Y019916D02*
X033139Y019916D01*
X033035Y019757D02*
X032703Y019757D01*
X032703Y019599D02*
X033035Y019599D01*
X033046Y019440D02*
X032703Y019440D01*
X032703Y019282D02*
X033204Y019282D01*
X033035Y018806D02*
X032696Y018806D01*
X032584Y018648D02*
X033035Y018648D01*
X033035Y018489D02*
X032425Y018489D01*
X032371Y018331D02*
X032267Y018331D01*
X032283Y018172D02*
X032203Y018172D01*
X032203Y018014D02*
X032283Y018014D01*
X032203Y017855D02*
X032435Y017855D01*
X032701Y017855D02*
X033079Y017855D01*
X033035Y017697D02*
X032203Y017697D01*
X032203Y017538D02*
X033035Y017538D01*
X033106Y017380D02*
X032592Y017380D01*
X032443Y017125D02*
X035568Y017125D01*
X036443Y018000D01*
X036728Y018014D02*
X036848Y018014D01*
X036848Y018172D02*
X036674Y018172D01*
X036603Y018331D02*
X036848Y018331D01*
X036848Y018489D02*
X036603Y018489D01*
X036449Y018648D02*
X036848Y018648D01*
X036701Y018806D02*
X034906Y018806D01*
X034906Y018648D02*
X036188Y018648D01*
X036033Y018489D02*
X034906Y018489D01*
X034752Y018965D02*
X036543Y018965D01*
X036318Y018375D02*
X036068Y018125D01*
X032568Y018125D01*
X032295Y017380D02*
X032203Y017380D01*
X032203Y016904D02*
X032261Y016904D01*
X032203Y016746D02*
X032995Y016746D01*
X032995Y016587D02*
X032203Y016587D01*
X032203Y016429D02*
X033001Y016429D01*
X033159Y016270D02*
X032203Y016270D01*
X032203Y016112D02*
X036783Y016112D01*
X036783Y015953D02*
X034764Y015953D01*
X034667Y016156D02*
X034489Y016156D01*
X034489Y016613D01*
X034946Y016613D01*
X034946Y016434D01*
X034667Y016156D01*
X034782Y016270D02*
X036848Y016270D01*
X036848Y016429D02*
X034940Y016429D01*
X034946Y016587D02*
X036848Y016587D01*
X036848Y016746D02*
X034946Y016746D01*
X034869Y016904D02*
X036848Y016904D01*
X036848Y017063D02*
X035817Y017063D01*
X035975Y017221D02*
X036848Y017221D01*
X036848Y017380D02*
X036134Y017380D01*
X036292Y017538D02*
X036848Y017538D01*
X036848Y017697D02*
X036451Y017697D01*
X036701Y017855D02*
X036848Y017855D01*
X037788Y017855D02*
X038455Y017855D01*
X038455Y017697D02*
X037788Y017697D01*
X037788Y017538D02*
X038455Y017538D01*
X038455Y017380D02*
X037788Y017380D01*
X037788Y017221D02*
X038455Y017221D01*
X038455Y017063D02*
X037788Y017063D01*
X037788Y016904D02*
X038455Y016904D01*
X038455Y016746D02*
X037788Y016746D01*
X037788Y016587D02*
X038455Y016587D01*
X038455Y016429D02*
X037788Y016429D01*
X037788Y016270D02*
X038455Y016270D01*
X038455Y016112D02*
X037853Y016112D01*
X037853Y015953D02*
X038455Y015953D01*
X038455Y015795D02*
X037766Y015795D01*
X038455Y015002D02*
X034715Y015002D01*
X034873Y014844D02*
X038455Y014844D01*
X038455Y014685D02*
X034906Y014685D01*
X034906Y014527D02*
X038455Y014527D01*
X038455Y014368D02*
X034823Y014368D01*
X034276Y014210D02*
X033664Y014210D01*
X033666Y014051D02*
X034275Y014051D01*
X034116Y013893D02*
X033824Y013893D01*
X033906Y013734D02*
X034035Y013734D01*
X034035Y013576D02*
X033906Y013576D01*
X033872Y013417D02*
X034069Y013417D01*
X034227Y013259D02*
X033713Y013259D01*
X033732Y012783D02*
X034261Y012783D01*
X034102Y012625D02*
X033891Y012625D01*
X033944Y012466D02*
X034033Y012466D01*
X034033Y012308D02*
X033944Y012308D01*
X033914Y012149D02*
X034079Y012149D01*
X033487Y012466D02*
X033450Y012466D01*
X033450Y012625D02*
X033487Y012625D01*
X033487Y012783D02*
X033450Y012783D01*
X032203Y012942D02*
X036348Y012942D01*
X036348Y013100D02*
X032203Y013100D01*
X031683Y013100D02*
X030479Y013100D01*
X030321Y012942D02*
X031683Y012942D01*
X031683Y012783D02*
X030228Y012783D01*
X030096Y012625D02*
X031683Y012625D01*
X031683Y012466D02*
X020331Y012466D01*
X020331Y012625D02*
X029791Y012625D01*
X029658Y012783D02*
X020331Y012783D01*
X019874Y012783D02*
X019837Y012783D01*
X019837Y012625D02*
X019874Y012625D01*
X019837Y012606D02*
X019837Y013063D01*
X019659Y013063D01*
X019381Y012784D01*
X019381Y012606D01*
X019837Y012606D01*
X019837Y012466D02*
X019874Y012466D01*
X019874Y012308D02*
X019837Y012308D01*
X019837Y012149D02*
X019874Y012149D01*
X020089Y012149D02*
X031683Y012149D01*
X031683Y011991D02*
X020068Y011991D01*
X020248Y012308D02*
X031683Y012308D01*
X031683Y013259D02*
X030638Y013259D01*
X030796Y013417D02*
X031683Y013417D01*
X031683Y013576D02*
X030955Y013576D01*
X031038Y013734D02*
X031683Y013734D01*
X031683Y013893D02*
X031038Y013893D01*
X031038Y014051D02*
X031683Y014051D01*
X031683Y014210D02*
X031038Y014210D01*
X031038Y014368D02*
X031683Y014368D01*
X031683Y014527D02*
X031038Y014527D01*
X031038Y014685D02*
X031683Y014685D01*
X031683Y014844D02*
X031038Y014844D01*
X031038Y015002D02*
X031683Y015002D01*
X031683Y015161D02*
X031038Y015161D01*
X031038Y015319D02*
X031683Y015319D01*
X031683Y015478D02*
X031038Y015478D01*
X031038Y015636D02*
X031683Y015636D01*
X031683Y015795D02*
X031038Y015795D01*
X031038Y015953D02*
X031683Y015953D01*
X031683Y016112D02*
X031038Y016112D01*
X031038Y016270D02*
X031683Y016270D01*
X031683Y016429D02*
X031038Y016429D01*
X031038Y016587D02*
X031683Y016587D01*
X031683Y016746D02*
X031038Y016746D01*
X031038Y016904D02*
X031683Y016904D01*
X031683Y017063D02*
X031038Y017063D01*
X031038Y017221D02*
X031683Y017221D01*
X031683Y017380D02*
X031038Y017380D01*
X031038Y017538D02*
X031683Y017538D01*
X031683Y017697D02*
X031038Y017697D01*
X031038Y017855D02*
X031683Y017855D01*
X031683Y018014D02*
X031038Y018014D01*
X031038Y018172D02*
X031683Y018172D01*
X031683Y018331D02*
X031038Y018331D01*
X031038Y018489D02*
X031709Y018489D01*
X031848Y018648D02*
X031038Y018648D01*
X031038Y018806D02*
X032007Y018806D01*
X032165Y018965D02*
X031038Y018965D01*
X031038Y019123D02*
X032183Y019123D01*
X032183Y019282D02*
X031038Y019282D01*
X031038Y019440D02*
X032183Y019440D01*
X032183Y019599D02*
X031038Y019599D01*
X031038Y019757D02*
X032183Y019757D01*
X032183Y019916D02*
X031038Y019916D01*
X031038Y020074D02*
X032183Y020074D01*
X032183Y020233D02*
X031038Y020233D01*
X031038Y020391D02*
X032183Y020391D01*
X032183Y020550D02*
X031054Y020550D01*
X031212Y020708D02*
X032183Y020708D01*
X032183Y020867D02*
X031371Y020867D01*
X031529Y021025D02*
X032183Y021025D01*
X032183Y021184D02*
X031688Y021184D01*
X031846Y021342D02*
X032183Y021342D01*
X032183Y021501D02*
X032005Y021501D01*
X031943Y021750D02*
X031943Y028375D01*
X032193Y028625D01*
X032193Y029000D01*
X032478Y028950D02*
X036348Y028950D01*
X036348Y028792D02*
X032413Y028792D01*
X032413Y028633D02*
X036348Y028633D01*
X036348Y028475D02*
X032354Y028475D01*
X032196Y028316D02*
X036348Y028316D01*
X036348Y028158D02*
X032163Y028158D01*
X032163Y027999D02*
X036348Y027999D01*
X036348Y027841D02*
X032163Y027841D01*
X032163Y027682D02*
X036348Y027682D01*
X036348Y027524D02*
X032163Y027524D01*
X032163Y027365D02*
X036348Y027365D01*
X036348Y027207D02*
X032163Y027207D01*
X032163Y027048D02*
X036348Y027048D01*
X036348Y026890D02*
X032163Y026890D01*
X032163Y026731D02*
X036348Y026731D01*
X036348Y026573D02*
X032163Y026573D01*
X032163Y026414D02*
X036348Y026414D01*
X036348Y026256D02*
X032163Y026256D01*
X032163Y026097D02*
X036348Y026097D01*
X036348Y025939D02*
X032163Y025939D01*
X032163Y025780D02*
X036348Y025780D01*
X036348Y025622D02*
X032163Y025622D01*
X032163Y025463D02*
X036348Y025463D01*
X036348Y025305D02*
X033621Y025305D01*
X033779Y025146D02*
X036348Y025146D01*
X036348Y024988D02*
X033820Y024988D01*
X033820Y024829D02*
X036348Y024829D01*
X036348Y024671D02*
X033696Y024671D01*
X033373Y024512D02*
X036348Y024512D01*
X036348Y024354D02*
X033215Y024354D01*
X033056Y024195D02*
X036348Y024195D01*
X036348Y024037D02*
X032898Y024037D01*
X032739Y023878D02*
X036260Y023878D01*
X036102Y023720D02*
X032703Y023720D01*
X032703Y023561D02*
X035943Y023561D01*
X035785Y023403D02*
X032703Y023403D01*
X032703Y023244D02*
X035773Y023244D01*
X035773Y023086D02*
X032703Y023086D01*
X032703Y022927D02*
X035773Y022927D01*
X035773Y022769D02*
X032703Y022769D01*
X032703Y022610D02*
X035773Y022610D01*
X035773Y022452D02*
X032703Y022452D01*
X032703Y022293D02*
X035773Y022293D01*
X035873Y022135D02*
X032703Y022135D01*
X032703Y021976D02*
X036031Y021976D01*
X036133Y021818D02*
X032703Y021818D01*
X032703Y021659D02*
X036133Y021659D01*
X036008Y021501D02*
X032703Y021501D01*
X032703Y021342D02*
X035849Y021342D01*
X035723Y021184D02*
X032703Y021184D01*
X032703Y021025D02*
X033192Y021025D01*
X033034Y020867D02*
X032703Y020867D01*
X032703Y020708D02*
X032995Y020708D01*
X032995Y020550D02*
X032703Y020550D01*
X032703Y020391D02*
X033038Y020391D01*
X033197Y020233D02*
X032703Y020233D01*
X033903Y020391D02*
X034095Y020391D01*
X034035Y020550D02*
X033946Y020550D01*
X033946Y020708D02*
X034035Y020708D01*
X034090Y020867D02*
X033907Y020867D01*
X032183Y021818D02*
X032163Y021818D01*
X032163Y021976D02*
X032183Y021976D01*
X032183Y022135D02*
X032163Y022135D01*
X032163Y022293D02*
X032183Y022293D01*
X032183Y022452D02*
X032163Y022452D01*
X032163Y022610D02*
X032183Y022610D01*
X032183Y022769D02*
X032163Y022769D01*
X032163Y022927D02*
X032183Y022927D01*
X032183Y023086D02*
X032163Y023086D01*
X032163Y023244D02*
X032183Y023244D01*
X032183Y023403D02*
X032163Y023403D01*
X032163Y023561D02*
X032183Y023561D01*
X032183Y023720D02*
X032163Y023720D01*
X032163Y023878D02*
X032183Y023878D01*
X032198Y024037D02*
X032163Y024037D01*
X032163Y024195D02*
X032321Y024195D01*
X032296Y024170D02*
X032296Y024170D01*
X032163Y024354D02*
X032479Y024354D01*
X032638Y024512D02*
X032163Y024512D01*
X032163Y024671D02*
X032796Y024671D01*
X032955Y024829D02*
X032163Y024829D01*
X032163Y024988D02*
X033067Y024988D01*
X033107Y025146D02*
X032163Y025146D01*
X032163Y025305D02*
X033266Y025305D01*
X031473Y025305D02*
X031413Y025305D01*
X031413Y025463D02*
X031473Y025463D01*
X031473Y025622D02*
X031413Y025622D01*
X031413Y025780D02*
X031473Y025780D01*
X031473Y025939D02*
X031413Y025939D01*
X031413Y026097D02*
X031473Y026097D01*
X031473Y026256D02*
X031413Y026256D01*
X031413Y026414D02*
X031473Y026414D01*
X031473Y026573D02*
X031413Y026573D01*
X031413Y026731D02*
X031473Y026731D01*
X031473Y026890D02*
X031413Y026890D01*
X031413Y027048D02*
X031473Y027048D01*
X031473Y027207D02*
X031413Y027207D01*
X031413Y027365D02*
X031473Y027365D01*
X031473Y027524D02*
X031413Y027524D01*
X031413Y027682D02*
X031473Y027682D01*
X031473Y027841D02*
X031413Y027841D01*
X031413Y027999D02*
X031473Y027999D01*
X031473Y028158D02*
X031413Y028158D01*
X031413Y028316D02*
X031473Y028316D01*
X031473Y028475D02*
X031413Y028475D01*
X031413Y028633D02*
X031473Y028633D01*
X031473Y028792D02*
X031413Y028792D01*
X031413Y028950D02*
X031473Y028950D01*
X031473Y029109D02*
X031413Y029109D01*
X031413Y029267D02*
X031473Y029267D01*
X031473Y029341D02*
X031973Y029841D01*
X031973Y029974D01*
X031966Y029969D01*
X031895Y029933D01*
X031819Y029908D01*
X031741Y029896D01*
X031729Y029896D01*
X031729Y030372D01*
X031673Y030372D01*
X031673Y029896D01*
X031661Y029896D01*
X031583Y029908D01*
X031507Y029933D01*
X031437Y029969D01*
X031413Y029986D01*
X031413Y024021D01*
X031473Y023961D01*
X031473Y029341D01*
X031413Y029426D02*
X031558Y029426D01*
X031413Y029584D02*
X031716Y029584D01*
X031875Y029743D02*
X031413Y029743D01*
X031413Y029901D02*
X031628Y029901D01*
X031673Y029901D02*
X031729Y029901D01*
X031774Y029901D02*
X031973Y029901D01*
X032193Y029750D02*
X031693Y029250D01*
X031693Y021875D01*
X030568Y020750D01*
X030568Y015000D01*
X029943Y014375D01*
X029658Y014368D02*
X020252Y014368D01*
X020291Y014407D02*
X020036Y014152D01*
X019676Y014152D01*
X019421Y014407D01*
X019421Y014768D01*
X019676Y015023D01*
X020036Y015023D01*
X020291Y014768D01*
X020291Y014407D01*
X020291Y014527D02*
X029692Y014527D01*
X029942Y014685D02*
X020291Y014685D01*
X020215Y014844D02*
X030101Y014844D01*
X030259Y015002D02*
X020057Y015002D01*
X020036Y015152D02*
X020291Y015407D01*
X020291Y015768D01*
X020036Y016023D01*
X019676Y016023D01*
X019421Y015768D01*
X019421Y015407D01*
X019676Y015152D01*
X020036Y015152D01*
X020044Y015161D02*
X030348Y015161D01*
X030348Y015319D02*
X020203Y015319D01*
X020291Y015478D02*
X030348Y015478D01*
X030348Y015636D02*
X020291Y015636D01*
X020264Y015795D02*
X030348Y015795D01*
X030348Y015953D02*
X020106Y015953D01*
X020154Y016270D02*
X024620Y016270D01*
X024462Y016429D02*
X020291Y016429D01*
X020291Y016587D02*
X024395Y016587D01*
X024237Y016746D02*
X020291Y016746D01*
X020155Y016904D02*
X024078Y016904D01*
X023920Y017063D02*
X018692Y017063D01*
X018607Y017221D02*
X018533Y017221D01*
X018318Y017500D02*
X018318Y022000D01*
X017925Y022293D02*
X017913Y022293D01*
X017913Y022452D02*
X018084Y022452D01*
X018242Y022610D02*
X017913Y022610D01*
X017913Y022769D02*
X018401Y022769D01*
X018559Y022927D02*
X017913Y022927D01*
X017913Y023086D02*
X018718Y023086D01*
X018876Y023244D02*
X017913Y023244D01*
X017913Y023403D02*
X019035Y023403D01*
X018729Y023561D02*
X017913Y023561D01*
X017913Y023720D02*
X018658Y023720D01*
X018668Y023878D02*
X017913Y023878D01*
X017913Y024037D02*
X018596Y024037D01*
X018437Y024195D02*
X017913Y024195D01*
X017913Y024354D02*
X018279Y024354D01*
X018120Y024512D02*
X017913Y024512D01*
X017913Y024671D02*
X017962Y024671D01*
X018450Y025305D02*
X019783Y025305D01*
X019625Y025146D02*
X018608Y025146D01*
X018767Y024988D02*
X019466Y024988D01*
X019211Y024829D02*
X018925Y024829D01*
X019084Y024671D02*
X019135Y024671D01*
X019942Y025463D02*
X018291Y025463D01*
X018133Y025622D02*
X019886Y025622D01*
X019885Y025780D02*
X017974Y025780D01*
X015943Y025875D02*
X015693Y025625D01*
X018538Y021184D02*
X018644Y021184D01*
X020953Y021184D02*
X023473Y021184D01*
X023473Y021342D02*
X020953Y021342D01*
X020953Y021501D02*
X023473Y021501D01*
X023473Y021659D02*
X020953Y021659D01*
X020953Y021818D02*
X023473Y021818D01*
X023473Y021976D02*
X020953Y021976D01*
X020953Y022135D02*
X023473Y022135D01*
X023913Y022135D02*
X024473Y022135D01*
X024473Y021976D02*
X023913Y021976D01*
X023913Y021818D02*
X024473Y021818D01*
X024473Y021659D02*
X023913Y021659D01*
X023913Y021501D02*
X024473Y021501D01*
X024473Y021342D02*
X023913Y021342D01*
X023913Y021184D02*
X024473Y021184D01*
X024473Y021025D02*
X023913Y021025D01*
X023913Y020867D02*
X024473Y020867D01*
X024473Y020708D02*
X023913Y020708D01*
X023913Y020550D02*
X024473Y020550D01*
X024473Y020391D02*
X023913Y020391D01*
X023913Y020233D02*
X024473Y020233D01*
X024473Y020074D02*
X023913Y020074D01*
X023913Y019916D02*
X024473Y019916D01*
X024473Y019757D02*
X023913Y019757D01*
X023913Y019599D02*
X024473Y019599D01*
X024473Y019440D02*
X023913Y019440D01*
X023913Y019282D02*
X024476Y019282D01*
X024634Y019123D02*
X023913Y019123D01*
X023913Y018965D02*
X024793Y018965D01*
X024951Y018806D02*
X023913Y018806D01*
X023913Y018648D02*
X025110Y018648D01*
X025176Y018489D02*
X023913Y018489D01*
X023913Y018331D02*
X027975Y018331D01*
X027814Y018489D02*
X025698Y018489D01*
X025722Y018648D02*
X027653Y018648D01*
X027493Y018806D02*
X025665Y018806D01*
X025651Y018965D02*
X025415Y018965D01*
X025256Y019123D02*
X025584Y019123D01*
X025473Y019282D02*
X025098Y019282D01*
X024939Y019440D02*
X025473Y019440D01*
X025473Y019599D02*
X024913Y019599D01*
X024913Y019757D02*
X025473Y019757D01*
X025473Y019916D02*
X024913Y019916D01*
X024913Y020074D02*
X025473Y020074D01*
X025473Y020233D02*
X024913Y020233D01*
X024913Y020391D02*
X025473Y020391D01*
X025473Y020550D02*
X024913Y020550D01*
X024913Y020708D02*
X025473Y020708D01*
X025473Y020867D02*
X024913Y020867D01*
X024913Y021025D02*
X025473Y021025D01*
X025473Y021184D02*
X024913Y021184D01*
X024913Y021342D02*
X025473Y021342D01*
X025473Y021501D02*
X024913Y021501D01*
X024913Y021659D02*
X025473Y021659D01*
X025473Y021818D02*
X024913Y021818D01*
X024913Y021976D02*
X025473Y021976D01*
X025473Y022135D02*
X024913Y022135D01*
X023473Y023086D02*
X022405Y023086D01*
X022390Y023100D02*
X022212Y023100D01*
X022212Y022643D01*
X022669Y022643D01*
X022669Y022822D01*
X022390Y023100D01*
X022390Y023150D02*
X022669Y023428D01*
X022669Y023607D01*
X022212Y023607D01*
X022212Y023643D01*
X022669Y023643D01*
X022669Y023822D01*
X022390Y024100D01*
X022212Y024100D01*
X022212Y023643D01*
X022175Y023643D01*
X022175Y023607D01*
X021718Y023607D01*
X021718Y023428D01*
X021996Y023150D01*
X022175Y023150D01*
X022175Y023607D01*
X022212Y023607D01*
X022212Y023150D01*
X022390Y023150D01*
X022485Y023244D02*
X022959Y023244D01*
X022800Y023403D02*
X022643Y023403D01*
X022669Y023561D02*
X022758Y023561D01*
X022758Y023720D02*
X022669Y023720D01*
X022612Y023878D02*
X022831Y023878D01*
X022989Y024037D02*
X022454Y024037D01*
X022212Y024037D02*
X022175Y024037D01*
X022175Y024100D02*
X021996Y024100D01*
X021718Y023822D01*
X021718Y023643D01*
X022175Y023643D01*
X022175Y024100D01*
X022175Y023878D02*
X022212Y023878D01*
X022212Y023720D02*
X022175Y023720D01*
X022175Y023561D02*
X022212Y023561D01*
X022212Y023403D02*
X022175Y023403D01*
X022175Y023244D02*
X022212Y023244D01*
X022175Y023100D02*
X021996Y023100D01*
X021718Y022822D01*
X021718Y022643D01*
X022175Y022643D01*
X022175Y022607D01*
X021718Y022607D01*
X021718Y022428D01*
X021996Y022150D01*
X022175Y022150D01*
X022175Y022607D01*
X022212Y022607D01*
X022212Y022643D01*
X022175Y022643D01*
X022175Y023100D01*
X022175Y023086D02*
X022212Y023086D01*
X022212Y022927D02*
X022175Y022927D01*
X022175Y022769D02*
X022212Y022769D01*
X022212Y022610D02*
X022758Y022610D01*
X022669Y022607D02*
X022212Y022607D01*
X022212Y022150D01*
X022390Y022150D01*
X022669Y022428D01*
X022669Y022607D01*
X022669Y022452D02*
X022758Y022452D01*
X022910Y022293D02*
X022534Y022293D01*
X022212Y022293D02*
X022175Y022293D01*
X022175Y022452D02*
X022212Y022452D01*
X022175Y022610D02*
X021629Y022610D01*
X021629Y022452D02*
X021718Y022452D01*
X021853Y022293D02*
X021477Y022293D01*
X021629Y022769D02*
X021718Y022769D01*
X021823Y022927D02*
X021507Y022927D01*
X021428Y023244D02*
X021902Y023244D01*
X021982Y023086D02*
X020953Y023086D01*
X020953Y023244D02*
X020959Y023244D01*
X020758Y023720D02*
X020752Y023720D01*
X020831Y023878D02*
X020626Y023878D01*
X020666Y024037D02*
X020989Y024037D01*
X020825Y024195D02*
X023702Y024195D01*
X023602Y024095D02*
X023602Y024095D01*
X023544Y024037D02*
X023397Y024037D01*
X023693Y023875D02*
X023693Y017600D01*
X024743Y016550D01*
X024951Y016746D02*
X029582Y016746D01*
X029422Y016904D02*
X024700Y016904D01*
X024542Y017063D02*
X029261Y017063D01*
X029100Y017221D02*
X024383Y017221D01*
X024225Y017380D02*
X028939Y017380D01*
X028779Y017538D02*
X024066Y017538D01*
X023913Y017697D02*
X028618Y017697D01*
X028457Y017855D02*
X023913Y017855D01*
X023913Y018014D02*
X028296Y018014D01*
X028136Y018172D02*
X023913Y018172D01*
X023473Y018172D02*
X020056Y018172D01*
X020045Y018014D02*
X023473Y018014D01*
X023473Y017855D02*
X020204Y017855D01*
X020291Y017697D02*
X023473Y017697D01*
X023473Y017538D02*
X020291Y017538D01*
X020263Y017380D02*
X023603Y017380D01*
X023761Y017221D02*
X020105Y017221D01*
X019421Y016746D02*
X019291Y016746D01*
X019291Y016587D02*
X019421Y016587D01*
X019421Y016429D02*
X019291Y016429D01*
X019154Y016270D02*
X019558Y016270D01*
X019606Y015953D02*
X019106Y015953D01*
X019036Y016023D02*
X018676Y016023D01*
X018421Y015768D01*
X018421Y015407D01*
X018676Y015152D01*
X019036Y015152D01*
X019291Y015407D01*
X019291Y015768D01*
X019036Y016023D01*
X019264Y015795D02*
X019447Y015795D01*
X019421Y015636D02*
X019291Y015636D01*
X019291Y015478D02*
X019421Y015478D01*
X019509Y015319D02*
X019203Y015319D01*
X019044Y015161D02*
X019667Y015161D01*
X019655Y015002D02*
X019057Y015002D01*
X019215Y014844D02*
X019496Y014844D01*
X019421Y014685D02*
X019291Y014685D01*
X019291Y014527D02*
X019421Y014527D01*
X019460Y014368D02*
X019252Y014368D01*
X019093Y014210D02*
X019618Y014210D01*
X019545Y013893D02*
X019166Y013893D01*
X019291Y013734D02*
X019421Y013734D01*
X019421Y013576D02*
X019291Y013576D01*
X019291Y013417D02*
X019421Y013417D01*
X019569Y013259D02*
X019142Y013259D01*
X019053Y013063D02*
X018874Y013063D01*
X018874Y012606D01*
X018837Y012606D01*
X018837Y012569D01*
X018381Y012569D01*
X018381Y012391D01*
X018659Y012112D01*
X018837Y012112D01*
X018837Y012569D01*
X018874Y012569D01*
X018874Y012112D01*
X019053Y012112D01*
X019331Y012391D01*
X019331Y012569D01*
X018874Y012569D01*
X018874Y012606D01*
X019331Y012606D01*
X019331Y012784D01*
X019053Y013063D01*
X019174Y012942D02*
X019538Y012942D01*
X019381Y012783D02*
X019331Y012783D01*
X019331Y012625D02*
X019381Y012625D01*
X019381Y012466D02*
X019331Y012466D01*
X019248Y012308D02*
X019464Y012308D01*
X019622Y012149D02*
X019089Y012149D01*
X019068Y011991D02*
X019643Y011991D01*
X018874Y012149D02*
X018837Y012149D01*
X018837Y012308D02*
X018874Y012308D01*
X018874Y012466D02*
X018837Y012466D01*
X018837Y012606D02*
X018381Y012606D01*
X018381Y012784D01*
X018659Y013063D01*
X018837Y013063D01*
X018837Y012606D01*
X018837Y012625D02*
X018874Y012625D01*
X018874Y012783D02*
X018837Y012783D01*
X018837Y012942D02*
X018874Y012942D01*
X018538Y012942D02*
X017813Y012942D01*
X017971Y012783D02*
X018381Y012783D01*
X018381Y012625D02*
X018130Y012625D01*
X018288Y012466D02*
X018381Y012466D01*
X018447Y012308D02*
X018464Y012308D01*
X018605Y012149D02*
X018622Y012149D01*
X019082Y011198D02*
X019630Y011198D01*
X020082Y011198D02*
X033033Y011198D01*
X033033Y011357D02*
X032065Y011357D01*
X033188Y011040D02*
X015413Y011040D01*
X015413Y010881D02*
X036473Y010881D01*
X036473Y010723D02*
X034736Y010723D01*
X034895Y010564D02*
X036473Y010564D01*
X036413Y010406D02*
X034904Y010406D01*
X034904Y010247D02*
X036254Y010247D01*
X036559Y009930D02*
X037812Y009930D01*
X037848Y010089D02*
X036718Y010089D01*
X036876Y010247D02*
X037848Y010247D01*
X037848Y010406D02*
X036913Y010406D01*
X036913Y010564D02*
X037848Y010564D01*
X037848Y010723D02*
X036913Y010723D01*
X036913Y010881D02*
X037848Y010881D01*
X037848Y011040D02*
X036913Y011040D01*
X036913Y011198D02*
X037848Y011198D01*
X037848Y011357D02*
X036913Y011357D01*
X036913Y011515D02*
X037848Y011515D01*
X037848Y011674D02*
X036913Y011674D01*
X036913Y011832D02*
X037848Y011832D01*
X037848Y011991D02*
X036913Y011991D01*
X036855Y012149D02*
X037848Y012149D01*
X037848Y012308D02*
X036788Y012308D01*
X036788Y012466D02*
X037848Y012466D01*
X037848Y012625D02*
X036788Y012625D01*
X036788Y012783D02*
X037848Y012783D01*
X037848Y012942D02*
X036788Y012942D01*
X036788Y013100D02*
X037848Y013100D01*
X037848Y013259D02*
X036788Y013259D01*
X036788Y013417D02*
X037848Y013417D01*
X037848Y013576D02*
X036788Y013576D01*
X036788Y013734D02*
X037848Y013734D01*
X037783Y013893D02*
X036853Y013893D01*
X036853Y014051D02*
X037783Y014051D01*
X037875Y014210D02*
X036762Y014210D01*
X038068Y014000D02*
X038068Y009875D01*
X037568Y009375D01*
X034468Y009375D01*
X034033Y009296D02*
X033904Y009296D01*
X033904Y009455D02*
X034033Y009455D01*
X034017Y009613D02*
X034091Y009613D01*
X034090Y009138D02*
X033846Y009138D01*
X033688Y008979D02*
X034249Y008979D01*
X034140Y008662D02*
X033797Y008662D01*
X033904Y008504D02*
X034033Y008504D01*
X034033Y008345D02*
X033904Y008345D01*
X033895Y008187D02*
X034041Y008187D01*
X034200Y008028D02*
X033737Y008028D01*
X033748Y007711D02*
X034189Y007711D01*
X034288Y007810D02*
X034033Y007555D01*
X034033Y007195D01*
X034288Y006940D01*
X034649Y006940D01*
X034904Y007195D01*
X034904Y007555D01*
X034649Y007810D01*
X034288Y007810D01*
X034033Y007553D02*
X033904Y007553D01*
X033904Y007394D02*
X034033Y007394D01*
X034033Y007236D02*
X033904Y007236D01*
X033786Y007077D02*
X034151Y007077D01*
X034288Y006810D02*
X034033Y006555D01*
X034033Y006195D01*
X034288Y005940D01*
X034649Y005940D01*
X034904Y006195D01*
X034904Y006555D01*
X034649Y006810D01*
X034288Y006810D01*
X034238Y006760D02*
X033699Y006760D01*
X033649Y006810D02*
X033288Y006810D01*
X033033Y006555D01*
X033033Y006195D01*
X033288Y005940D01*
X033649Y005940D01*
X033904Y006195D01*
X033904Y006555D01*
X033649Y006810D01*
X033857Y006602D02*
X034079Y006602D01*
X034033Y006443D02*
X033904Y006443D01*
X033904Y006285D02*
X034033Y006285D01*
X034102Y006126D02*
X033835Y006126D01*
X033676Y005968D02*
X034260Y005968D01*
X034287Y005809D02*
X033650Y005809D01*
X033649Y005810D02*
X033288Y005810D01*
X033033Y005555D01*
X033033Y005195D01*
X033288Y004940D01*
X033649Y004940D01*
X033904Y005195D01*
X033904Y005555D01*
X033649Y005810D01*
X033808Y005651D02*
X034128Y005651D01*
X034033Y005492D02*
X033904Y005492D01*
X033904Y005334D02*
X034033Y005334D01*
X034053Y005175D02*
X033884Y005175D01*
X033799Y005017D02*
X033725Y005017D01*
X033640Y004858D02*
X010663Y004858D01*
X010674Y004880D02*
X010674Y004880D01*
X010694Y005017D02*
X033211Y005017D01*
X033053Y005175D02*
X010718Y005175D01*
X010742Y005334D02*
X033033Y005334D01*
X033033Y005492D02*
X010731Y005492D01*
X010707Y005651D02*
X033128Y005651D01*
X033287Y005809D02*
X010683Y005809D01*
X010627Y005968D02*
X033260Y005968D01*
X033102Y006126D02*
X010550Y006126D01*
X010474Y006285D02*
X033033Y006285D01*
X033033Y006443D02*
X010344Y006443D01*
X010196Y006602D02*
X033079Y006602D01*
X033238Y006760D02*
X009992Y006760D01*
X010116Y006688D02*
X010116Y006688D01*
X009717Y006919D02*
X035426Y006919D01*
X035584Y007077D02*
X034786Y007077D01*
X034904Y007236D02*
X035680Y007236D01*
X035658Y007394D02*
X034904Y007394D01*
X034904Y007553D02*
X035718Y007553D01*
X035943Y007375D02*
X035943Y007125D01*
X035193Y006375D01*
X035193Y005125D01*
X034943Y004875D01*
X033968Y004875D01*
X033468Y004375D01*
X033033Y004383D02*
X010414Y004383D01*
X010456Y004429D02*
X010456Y004429D01*
X010511Y004541D02*
X033033Y004541D01*
X033177Y004700D02*
X010587Y004700D01*
X010267Y004224D02*
X033033Y004224D01*
X033162Y004066D02*
X010119Y004066D01*
X010116Y004062D02*
X010116Y004062D01*
X009848Y003907D02*
X036387Y003907D01*
X036171Y004066D02*
X034774Y004066D01*
X034943Y004375D02*
X034468Y004375D01*
X034033Y004383D02*
X033904Y004383D01*
X033904Y004224D02*
X034033Y004224D01*
X034162Y004066D02*
X033774Y004066D01*
X033945Y004541D02*
X034033Y004541D01*
X034943Y004375D02*
X035443Y004875D01*
X035443Y006125D01*
X036443Y007125D01*
X036443Y007375D01*
X036728Y007394D02*
X038455Y007394D01*
X038455Y007236D02*
X036707Y007236D01*
X036663Y007077D02*
X038455Y007077D01*
X038455Y006919D02*
X037842Y006919D01*
X037807Y006939D02*
X037807Y006939D01*
X038117Y006760D02*
X038455Y006760D01*
X038455Y006602D02*
X038321Y006602D01*
X038241Y006688D02*
X038241Y006688D01*
X038455Y007553D02*
X036669Y007553D01*
X036218Y007553D02*
X036169Y007553D01*
X036548Y006919D02*
X036579Y006919D01*
X036819Y007013D02*
X036819Y007013D01*
X038455Y007711D02*
X034748Y007711D01*
X034699Y006760D02*
X035267Y006760D01*
X035109Y006602D02*
X034857Y006602D01*
X034904Y006443D02*
X034973Y006443D01*
X034973Y006285D02*
X034904Y006285D01*
X034835Y006126D02*
X034973Y006126D01*
X034973Y005968D02*
X034676Y005968D01*
X034650Y005809D02*
X034973Y005809D01*
X034973Y005651D02*
X034808Y005651D01*
X034904Y005492D02*
X034973Y005492D01*
X034973Y005334D02*
X034904Y005334D01*
X034884Y005175D02*
X034932Y005175D01*
X035420Y004541D02*
X035751Y004541D01*
X035680Y004646D02*
X035680Y004646D01*
X035663Y004700D02*
X035579Y004700D01*
X035859Y004383D02*
X035262Y004383D01*
X035103Y004224D02*
X035972Y004224D01*
X035962Y004232D02*
X035962Y004232D01*
X035962Y004232D01*
X033041Y008187D02*
X014413Y008187D01*
X014413Y008345D02*
X033033Y008345D01*
X033033Y008504D02*
X014413Y008504D01*
X014413Y008662D02*
X033140Y008662D01*
X033033Y009455D02*
X014413Y009455D01*
X014413Y009613D02*
X033091Y009613D01*
X033249Y009772D02*
X014526Y009772D01*
X014684Y009930D02*
X033712Y009930D01*
X033649Y009940D02*
X033904Y010195D01*
X033904Y010555D01*
X033649Y010810D01*
X033288Y010810D01*
X033033Y010555D01*
X033033Y010195D01*
X033288Y009940D01*
X033649Y009940D01*
X033797Y010089D02*
X033871Y010089D01*
X033904Y010247D02*
X034033Y010247D01*
X034033Y010406D02*
X033904Y010406D01*
X033895Y010564D02*
X034042Y010564D01*
X034200Y010723D02*
X033736Y010723D01*
X033748Y011040D02*
X034188Y011040D01*
X034033Y011198D02*
X033904Y011198D01*
X033904Y011357D02*
X034033Y011357D01*
X034033Y011515D02*
X033904Y011515D01*
X034748Y011040D02*
X036473Y011040D01*
X036473Y011198D02*
X034904Y011198D01*
X034904Y011357D02*
X036473Y011357D01*
X036473Y011515D02*
X034904Y011515D01*
X033200Y010723D02*
X015413Y010723D01*
X015413Y010564D02*
X033042Y010564D01*
X033033Y010406D02*
X015441Y010406D01*
X015478Y010247D02*
X033033Y010247D01*
X033139Y010089D02*
X015435Y010089D01*
X013973Y009455D02*
X013834Y009455D01*
X013973Y009296D02*
X013675Y009296D01*
X013517Y009138D02*
X013973Y009138D01*
X013973Y008979D02*
X013413Y008979D01*
X013413Y008821D02*
X013973Y008821D01*
X013973Y008662D02*
X013413Y008662D01*
X013413Y008504D02*
X013973Y008504D01*
X013973Y008345D02*
X013413Y008345D01*
X013413Y008187D02*
X013973Y008187D01*
X013943Y008028D02*
X013443Y008028D01*
X013478Y007870D02*
X013908Y007870D01*
X013954Y007711D02*
X013432Y007711D01*
X009682Y006939D02*
X009682Y006939D01*
X009623Y013417D02*
X009388Y013417D01*
X009478Y013576D02*
X009533Y013576D01*
X009533Y013734D02*
X009478Y013734D01*
X009413Y013893D02*
X009598Y013893D01*
X009598Y014051D02*
X009413Y014051D01*
X009413Y014210D02*
X009598Y014210D01*
X009598Y014368D02*
X009413Y014368D01*
X009413Y014527D02*
X009598Y014527D01*
X009598Y014685D02*
X009413Y014685D01*
X009413Y014844D02*
X009598Y014844D01*
X009598Y015002D02*
X009413Y015002D01*
X009413Y015161D02*
X009598Y015161D01*
X009598Y015319D02*
X009413Y015319D01*
X009413Y015478D02*
X009598Y015478D01*
X009598Y015636D02*
X009413Y015636D01*
X009413Y015795D02*
X009598Y015795D01*
X009598Y015953D02*
X009457Y015953D01*
X009193Y016000D02*
X010193Y017000D01*
X017443Y017000D01*
X017693Y017250D01*
X018131Y017313D02*
X018318Y017500D01*
X017829Y017697D02*
X017650Y017697D01*
X018033Y016904D02*
X018228Y016904D01*
X018387Y016746D02*
X017875Y016746D01*
X017788Y016659D02*
X017788Y016659D01*
X017716Y016587D02*
X018421Y016587D01*
X018421Y016429D02*
X010308Y016429D01*
X010149Y016270D02*
X018558Y016270D01*
X018606Y015953D02*
X010038Y015953D01*
X010038Y015795D02*
X018447Y015795D01*
X018421Y015636D02*
X015236Y015636D01*
X015230Y015639D02*
X015167Y015660D01*
X015101Y015670D01*
X015068Y015670D01*
X015035Y015670D01*
X014970Y015660D01*
X014907Y015639D01*
X014848Y015609D01*
X014795Y015570D01*
X014748Y015524D01*
X014709Y015470D01*
X014679Y015411D01*
X014659Y015348D01*
X014648Y015283D01*
X014648Y015250D01*
X015068Y015250D01*
X015068Y015250D01*
X015068Y015670D01*
X015068Y015250D01*
X015068Y015250D01*
X015068Y015250D01*
X015068Y014350D01*
X015101Y014350D01*
X015167Y014360D01*
X015230Y014381D01*
X015288Y014411D01*
X015342Y014450D01*
X015389Y014496D01*
X015428Y014550D01*
X015458Y014609D01*
X015478Y014672D01*
X015488Y014737D01*
X015488Y015250D01*
X015068Y015250D01*
X015488Y015250D01*
X015488Y015283D01*
X015478Y015348D01*
X015458Y015411D01*
X015428Y015470D01*
X015389Y015524D01*
X015342Y015570D01*
X015288Y015609D01*
X015230Y015639D01*
X015068Y015636D02*
X015068Y015636D01*
X015068Y015478D02*
X015068Y015478D01*
X015068Y015319D02*
X015068Y015319D01*
X015068Y015250D02*
X015068Y015250D01*
X015068Y015161D02*
X015068Y015161D01*
X015068Y015002D02*
X015068Y015002D01*
X015068Y014844D02*
X015068Y014844D01*
X015068Y014685D02*
X015068Y014685D01*
X015068Y014527D02*
X015068Y014527D01*
X015068Y014368D02*
X015068Y014368D01*
X015190Y014368D02*
X018460Y014368D01*
X018421Y014527D02*
X016362Y014527D01*
X016390Y014555D02*
X016448Y014694D01*
X016448Y015326D01*
X016390Y015465D01*
X016284Y015572D01*
X016144Y015630D01*
X015993Y015630D01*
X015853Y015572D01*
X015746Y015465D01*
X015688Y015326D01*
X015688Y014694D01*
X015746Y014555D01*
X015853Y014448D01*
X015993Y014390D01*
X016144Y014390D01*
X016284Y014448D01*
X016390Y014555D01*
X016444Y014685D02*
X018421Y014685D01*
X018496Y014844D02*
X016448Y014844D01*
X016448Y015002D02*
X018655Y015002D01*
X018667Y015161D02*
X016448Y015161D01*
X016448Y015319D02*
X018509Y015319D01*
X018421Y015478D02*
X016378Y015478D01*
X015758Y015478D02*
X015422Y015478D01*
X015483Y015319D02*
X015688Y015319D01*
X015688Y015161D02*
X015488Y015161D01*
X015488Y015002D02*
X015688Y015002D01*
X015688Y014844D02*
X015488Y014844D01*
X015480Y014685D02*
X015692Y014685D01*
X015774Y014527D02*
X015411Y014527D01*
X014726Y014527D02*
X014362Y014527D01*
X014390Y014555D02*
X014448Y014694D01*
X014448Y015326D01*
X014390Y015465D01*
X014284Y015572D01*
X014144Y015630D01*
X013993Y015630D01*
X013853Y015572D01*
X013746Y015465D01*
X013688Y015326D01*
X013688Y014694D01*
X013746Y014555D01*
X013853Y014448D01*
X013993Y014390D01*
X014144Y014390D01*
X014284Y014448D01*
X014390Y014555D01*
X014444Y014685D02*
X014657Y014685D01*
X014648Y014844D02*
X014448Y014844D01*
X014448Y015002D02*
X014648Y015002D01*
X014648Y015161D02*
X014448Y015161D01*
X014448Y015319D02*
X014654Y015319D01*
X014714Y015478D02*
X014378Y015478D01*
X013758Y015478D02*
X013128Y015478D01*
X013140Y015465D02*
X013034Y015572D01*
X012894Y015630D01*
X012743Y015630D01*
X012603Y015572D01*
X012496Y015465D01*
X012438Y015326D01*
X012438Y014694D01*
X012496Y014555D01*
X012603Y014448D01*
X012743Y014390D01*
X012894Y014390D01*
X013034Y014448D01*
X013140Y014555D01*
X013198Y014694D01*
X013198Y015326D01*
X013140Y015465D01*
X013198Y015319D02*
X013688Y015319D01*
X013688Y015161D02*
X013198Y015161D01*
X013198Y015002D02*
X013688Y015002D01*
X013688Y014844D02*
X013198Y014844D01*
X013194Y014685D02*
X013692Y014685D01*
X013774Y014527D02*
X013112Y014527D01*
X012524Y014527D02*
X012161Y014527D01*
X012230Y014685D02*
X012442Y014685D01*
X012438Y014844D02*
X012238Y014844D01*
X012238Y015002D02*
X012438Y015002D01*
X012438Y015161D02*
X012238Y015161D01*
X012233Y015319D02*
X012438Y015319D01*
X012508Y015478D02*
X012172Y015478D01*
X011986Y015636D02*
X014901Y015636D01*
X016557Y013576D02*
X010830Y013576D01*
X010894Y014390D02*
X011034Y014448D01*
X011140Y014555D01*
X011198Y014694D01*
X011198Y015326D01*
X011140Y015465D01*
X011034Y015572D01*
X010894Y015630D01*
X010743Y015630D01*
X010603Y015572D01*
X010496Y015465D01*
X010438Y015326D01*
X010438Y014694D01*
X010496Y014555D01*
X010603Y014448D01*
X010743Y014390D01*
X010894Y014390D01*
X011112Y014527D02*
X011476Y014527D01*
X011407Y014685D02*
X011194Y014685D01*
X011198Y014844D02*
X011398Y014844D01*
X011398Y015002D02*
X011198Y015002D01*
X011198Y015161D02*
X011398Y015161D01*
X011404Y015319D02*
X011198Y015319D01*
X011128Y015478D02*
X011464Y015478D01*
X011651Y015636D02*
X010038Y015636D01*
X010038Y015478D02*
X010508Y015478D01*
X010438Y015319D02*
X010038Y015319D01*
X010038Y015161D02*
X010438Y015161D01*
X010438Y015002D02*
X010038Y015002D01*
X010038Y014844D02*
X010438Y014844D01*
X010442Y014685D02*
X010038Y014685D01*
X010038Y014527D02*
X010524Y014527D01*
X011818Y014527D02*
X011818Y014527D01*
X011818Y014685D02*
X011818Y014685D01*
X011818Y014844D02*
X011818Y014844D01*
X011818Y015002D02*
X011818Y015002D01*
X011818Y015161D02*
X011818Y015161D01*
X011818Y015250D02*
X011818Y015250D01*
X011818Y015319D02*
X011818Y015319D01*
X011818Y015478D02*
X011818Y015478D01*
X011818Y015636D02*
X011818Y015636D01*
X010038Y016112D02*
X030348Y016112D01*
X030348Y016270D02*
X024866Y016270D01*
X025025Y016429D02*
X029837Y016429D01*
X029743Y016587D02*
X025028Y016587D01*
X023473Y018331D02*
X020214Y018331D01*
X020291Y018489D02*
X023473Y018489D01*
X023473Y018648D02*
X020291Y018648D01*
X020253Y018806D02*
X023473Y018806D01*
X024693Y019375D02*
X024693Y024375D01*
X025318Y025000D01*
X025318Y033073D01*
X025796Y033550D01*
X025331Y033547D02*
X025276Y033547D01*
X025250Y033705D02*
X025357Y033705D01*
X025452Y033864D02*
X025155Y033864D01*
X025247Y033388D02*
X025322Y033388D01*
X025164Y033230D02*
X025148Y033230D01*
X025098Y032437D02*
X024911Y032437D01*
X025538Y032437D02*
X025590Y032437D01*
X025767Y031803D02*
X025824Y031803D01*
X025824Y031645D02*
X025767Y031645D01*
X026752Y033071D02*
X026808Y033071D01*
X026939Y033071D02*
X027605Y033071D01*
X027736Y033071D02*
X027792Y033071D01*
X027923Y033071D02*
X028916Y033071D01*
X028412Y033230D02*
X028155Y033230D01*
X028242Y033388D02*
X028313Y033388D01*
X028309Y033705D02*
X028245Y033705D01*
X028160Y033864D02*
X028404Y033864D01*
X027792Y033864D02*
X027736Y033864D01*
X027736Y033705D02*
X027792Y033705D01*
X027792Y033388D02*
X027736Y033388D01*
X027736Y033230D02*
X027792Y033230D01*
X027373Y033230D02*
X027171Y033230D01*
X027258Y033388D02*
X027286Y033388D01*
X027284Y033705D02*
X027260Y033705D01*
X027176Y033864D02*
X027368Y033864D01*
X026808Y033864D02*
X026752Y033864D01*
X026752Y033705D02*
X026808Y033705D01*
X026808Y033388D02*
X026752Y033388D01*
X026752Y033230D02*
X026808Y033230D01*
X026299Y033705D02*
X026235Y033705D01*
X026140Y033864D02*
X026384Y033864D01*
X026059Y034731D02*
X026190Y034862D01*
X026260Y035033D01*
X026260Y035217D01*
X026190Y035388D01*
X026059Y035519D01*
X025888Y035590D01*
X025703Y035590D01*
X025532Y035519D01*
X025402Y035388D01*
X025331Y035217D01*
X025331Y035033D01*
X025402Y034862D01*
X025532Y034731D01*
X025703Y034660D01*
X025888Y034660D01*
X026059Y034731D01*
X026143Y034815D02*
X026433Y034815D01*
X026340Y034973D02*
X026236Y034973D01*
X026260Y035132D02*
X026315Y035132D01*
X026345Y035290D02*
X026230Y035290D01*
X026129Y035449D02*
X026446Y035449D01*
X025462Y035449D02*
X025145Y035449D01*
X025246Y035290D02*
X025361Y035290D01*
X025331Y035132D02*
X025276Y035132D01*
X025252Y034973D02*
X025356Y034973D01*
X025449Y034815D02*
X025158Y034815D01*
X023703Y030852D02*
X023551Y030852D01*
X024143Y030060D02*
X024495Y030060D01*
X024047Y029901D02*
X025098Y029901D01*
X025098Y029743D02*
X024047Y029743D01*
X024047Y029584D02*
X025098Y029584D01*
X025098Y029426D02*
X024047Y029426D01*
X024047Y029267D02*
X025098Y029267D01*
X025098Y029109D02*
X024047Y029109D01*
X024047Y028950D02*
X025098Y028950D01*
X025098Y028792D02*
X024047Y028792D01*
X024047Y028633D02*
X025098Y028633D01*
X025098Y028475D02*
X024047Y028475D01*
X024047Y028316D02*
X025098Y028316D01*
X025098Y028158D02*
X024047Y028158D01*
X024047Y027999D02*
X025098Y027999D01*
X025098Y027841D02*
X024047Y027841D01*
X024047Y027682D02*
X025098Y027682D01*
X025098Y027524D02*
X024047Y027524D01*
X024047Y027365D02*
X025098Y027365D01*
X025098Y027207D02*
X024047Y027207D01*
X024047Y027048D02*
X025098Y027048D01*
X025098Y026890D02*
X024047Y026890D01*
X024047Y026731D02*
X025098Y026731D01*
X025098Y026573D02*
X024047Y026573D01*
X024047Y026414D02*
X025098Y026414D01*
X025098Y026256D02*
X024047Y026256D01*
X024047Y026097D02*
X025098Y026097D01*
X024918Y025800D02*
X024918Y025000D01*
X024043Y024125D01*
X023943Y024125D01*
X023693Y023875D01*
X023950Y024354D02*
X023961Y024354D01*
X024017Y024512D02*
X024119Y024512D01*
X024047Y024671D02*
X024278Y024671D01*
X024436Y024829D02*
X024047Y024829D01*
X024047Y024988D02*
X024595Y024988D01*
X024698Y025146D02*
X024047Y025146D01*
X024047Y025305D02*
X024698Y025305D01*
X024698Y025463D02*
X024047Y025463D01*
X024047Y025622D02*
X024694Y025622D01*
X024633Y025780D02*
X024047Y025780D01*
X024047Y025939D02*
X024654Y025939D01*
X023348Y025939D02*
X023328Y025939D01*
X023328Y026097D02*
X023348Y026097D01*
X023348Y026256D02*
X023328Y026256D01*
X023328Y026414D02*
X023348Y026414D01*
X023348Y026573D02*
X023328Y026573D01*
X023310Y025780D02*
X023348Y025780D01*
X023348Y025622D02*
X023183Y025622D01*
X023024Y025463D02*
X023348Y025463D01*
X023312Y025305D02*
X022896Y025305D01*
X023693Y024500D02*
X023827Y024634D01*
X023473Y023244D02*
X023428Y023244D01*
X022880Y022927D02*
X022563Y022927D01*
X022669Y022769D02*
X022758Y022769D01*
X021744Y023403D02*
X021586Y023403D01*
X021629Y023561D02*
X021718Y023561D01*
X021718Y023720D02*
X021629Y023720D01*
X021556Y023878D02*
X021774Y023878D01*
X021933Y024037D02*
X021397Y024037D01*
X020953Y021025D02*
X023473Y021025D01*
X023473Y020867D02*
X020953Y020867D01*
X021171Y020708D02*
X023473Y020708D01*
X023473Y020550D02*
X021252Y020550D01*
X021252Y020391D02*
X023473Y020391D01*
X023473Y020233D02*
X021112Y020233D01*
X018656Y018172D02*
X018538Y018172D01*
X018538Y018014D02*
X018666Y018014D01*
X020093Y014210D02*
X029706Y014210D01*
X030181Y014210D02*
X030598Y014210D01*
X030598Y014368D02*
X030247Y014368D01*
X030406Y014527D02*
X030598Y014527D01*
X030598Y014685D02*
X030564Y014685D01*
X030818Y013750D02*
X030818Y020625D01*
X031943Y021750D01*
X031193Y022625D02*
X030717Y023101D01*
X030717Y030401D01*
X030842Y030852D02*
X030973Y030852D01*
X030973Y030797D02*
X030809Y030865D01*
X030624Y030865D01*
X030454Y030795D01*
X030451Y030792D01*
X030451Y031584D01*
X030454Y031581D01*
X030624Y031511D01*
X030809Y031511D01*
X030853Y031529D01*
X030973Y031408D01*
X030973Y030797D01*
X030973Y031011D02*
X030451Y031011D01*
X030451Y031169D02*
X030973Y031169D01*
X030973Y031328D02*
X030451Y031328D01*
X030451Y031486D02*
X030895Y031486D01*
X031193Y031499D02*
X030717Y031975D01*
X031182Y031962D02*
X031236Y031962D01*
X031258Y032120D02*
X031160Y032120D01*
X031071Y032279D02*
X031347Y032279D01*
X031269Y031803D02*
X031200Y031803D01*
X031359Y031645D02*
X031375Y031645D01*
X031413Y031486D02*
X031973Y031486D01*
X031973Y031328D02*
X031413Y031328D01*
X031413Y031169D02*
X031973Y031169D01*
X031973Y031011D02*
X031413Y031011D01*
X031413Y030852D02*
X031475Y030852D01*
X031673Y030852D02*
X031729Y030852D01*
X031729Y030694D02*
X031673Y030694D01*
X031673Y030535D02*
X031729Y030535D01*
X031729Y030218D02*
X031673Y030218D01*
X031673Y030060D02*
X031729Y030060D01*
X032180Y029426D02*
X036348Y029426D01*
X036348Y029267D02*
X032329Y029267D01*
X032478Y029109D02*
X036348Y029109D01*
X036788Y028792D02*
X037070Y028792D01*
X036933Y028633D02*
X036788Y028633D01*
X036788Y028475D02*
X036873Y028475D01*
X036873Y028316D02*
X036788Y028316D01*
X036788Y028158D02*
X036873Y028158D01*
X036873Y027999D02*
X036788Y027999D01*
X036788Y027841D02*
X036873Y027841D01*
X036873Y027682D02*
X036788Y027682D01*
X036788Y027524D02*
X036873Y027524D01*
X036873Y027365D02*
X036788Y027365D01*
X036788Y027207D02*
X036873Y027207D01*
X036873Y027048D02*
X036788Y027048D01*
X036788Y026890D02*
X036873Y026890D01*
X036873Y026731D02*
X036788Y026731D01*
X036788Y026573D02*
X036873Y026573D01*
X036873Y026414D02*
X036788Y026414D01*
X036788Y026256D02*
X036873Y026256D01*
X036873Y026097D02*
X036788Y026097D01*
X036788Y025939D02*
X036873Y025939D01*
X036873Y025780D02*
X036788Y025780D01*
X036788Y025622D02*
X036873Y025622D01*
X036873Y025463D02*
X036788Y025463D01*
X036788Y025305D02*
X036873Y025305D01*
X036873Y025146D02*
X036788Y025146D01*
X036788Y024988D02*
X036873Y024988D01*
X036873Y024829D02*
X036788Y024829D01*
X036788Y024671D02*
X036873Y024671D01*
X036873Y024512D02*
X036788Y024512D01*
X036788Y024354D02*
X036873Y024354D01*
X036873Y024195D02*
X036788Y024195D01*
X036788Y024037D02*
X036873Y024037D01*
X036873Y023878D02*
X036788Y023878D01*
X036724Y023720D02*
X036873Y023720D01*
X036873Y023561D02*
X036566Y023561D01*
X036407Y023403D02*
X036873Y023403D01*
X036873Y023244D02*
X036249Y023244D01*
X036232Y023086D02*
X036213Y023086D01*
X036550Y023086D02*
X036587Y023086D01*
X036587Y022927D02*
X036550Y022927D01*
X036550Y022769D02*
X036587Y022769D01*
X036587Y022610D02*
X036550Y022610D01*
X036550Y022452D02*
X036587Y022452D01*
X036587Y022293D02*
X036550Y022293D01*
X036353Y022293D02*
X036336Y022293D01*
X036784Y022293D02*
X036873Y022293D01*
X036873Y022135D02*
X036799Y022135D01*
X036958Y021976D02*
X037031Y021976D01*
X037004Y021818D02*
X037133Y021818D01*
X037133Y021659D02*
X037004Y021659D01*
X036934Y021501D02*
X037202Y021501D01*
X037361Y021342D02*
X036776Y021342D01*
X036750Y021184D02*
X037386Y021184D01*
X037228Y021025D02*
X036909Y021025D01*
X037004Y020867D02*
X037133Y020867D01*
X037133Y020708D02*
X037004Y020708D01*
X036983Y020550D02*
X037153Y020550D01*
X037312Y020391D02*
X036825Y020391D01*
X036386Y021184D02*
X036313Y021184D01*
X036228Y021025D02*
X036163Y021025D01*
X037093Y022225D02*
X037093Y028394D01*
X037313Y028394D02*
X037314Y028402D01*
X037321Y028419D01*
X037333Y028431D01*
X037350Y028438D01*
X037358Y028439D01*
X037527Y028439D01*
X037706Y028512D01*
X037818Y028625D01*
X037818Y023424D01*
X037579Y023185D01*
X037388Y023185D01*
X037313Y023111D01*
X037313Y028394D01*
X037093Y028394D02*
X037095Y028424D01*
X037100Y028453D01*
X037108Y028482D01*
X037119Y028509D01*
X037134Y028535D01*
X037151Y028559D01*
X037171Y028581D01*
X037193Y028601D01*
X037217Y028618D01*
X037243Y028633D01*
X037270Y028644D01*
X037299Y028652D01*
X037328Y028657D01*
X037358Y028659D01*
X037431Y028659D01*
X037614Y028475D02*
X037818Y028475D01*
X037706Y028512D02*
X037706Y028512D01*
X037818Y028316D02*
X037313Y028316D01*
X037313Y028158D02*
X037818Y028158D01*
X037818Y027999D02*
X037313Y027999D01*
X037313Y027841D02*
X037818Y027841D01*
X037818Y027682D02*
X037313Y027682D01*
X037313Y027524D02*
X037818Y027524D01*
X037818Y027365D02*
X037313Y027365D01*
X037313Y027207D02*
X037818Y027207D01*
X037818Y027048D02*
X037313Y027048D01*
X037313Y026890D02*
X037818Y026890D01*
X037818Y026731D02*
X037313Y026731D01*
X037313Y026573D02*
X037818Y026573D01*
X037818Y026414D02*
X037313Y026414D01*
X037313Y026256D02*
X037818Y026256D01*
X037818Y026097D02*
X037313Y026097D01*
X037313Y025939D02*
X037818Y025939D01*
X037818Y025780D02*
X037313Y025780D01*
X037313Y025622D02*
X037818Y025622D01*
X037818Y025463D02*
X037313Y025463D01*
X037313Y025305D02*
X037818Y025305D01*
X037818Y025146D02*
X037313Y025146D01*
X037313Y024988D02*
X037818Y024988D01*
X037818Y024829D02*
X037313Y024829D01*
X037313Y024671D02*
X037818Y024671D01*
X037818Y024512D02*
X037313Y024512D01*
X037313Y024354D02*
X037818Y024354D01*
X037818Y024195D02*
X037313Y024195D01*
X037313Y024037D02*
X037818Y024037D01*
X037818Y023878D02*
X037313Y023878D01*
X037313Y023720D02*
X037818Y023720D01*
X037818Y023561D02*
X037313Y023561D01*
X037313Y023403D02*
X037797Y023403D01*
X037638Y023244D02*
X037313Y023244D01*
X037799Y022135D02*
X038455Y022135D01*
X038455Y021976D02*
X037958Y021976D01*
X038004Y021818D02*
X038455Y021818D01*
X038455Y021659D02*
X038004Y021659D01*
X038129Y021501D02*
X038455Y021501D01*
X038455Y021342D02*
X038287Y021342D01*
X038413Y021184D02*
X038455Y021184D01*
X038455Y021025D02*
X038413Y021025D01*
X038413Y020867D02*
X038455Y020867D01*
X038455Y020708D02*
X038413Y020708D01*
X038413Y020550D02*
X038455Y020550D01*
X038455Y020391D02*
X038413Y020391D01*
X038413Y020233D02*
X038455Y020233D01*
X038455Y020074D02*
X038413Y020074D01*
X038413Y019916D02*
X038455Y019916D01*
X038455Y019757D02*
X038386Y019757D01*
X038455Y019599D02*
X038228Y019599D01*
X038069Y019440D02*
X038455Y019440D01*
X038455Y019282D02*
X037911Y019282D01*
X037788Y019123D02*
X038455Y019123D01*
X038455Y018965D02*
X037788Y018965D01*
X037788Y018806D02*
X038455Y018806D01*
X038455Y018648D02*
X037788Y018648D01*
X037788Y018489D02*
X038455Y018489D01*
X038455Y018331D02*
X037788Y018331D01*
X037788Y018172D02*
X038455Y018172D01*
X038455Y018014D02*
X037788Y018014D01*
X037825Y020391D02*
X037973Y020391D01*
X037973Y021025D02*
X037909Y021025D01*
X037824Y021184D02*
X037750Y021184D01*
X034071Y016904D02*
X033869Y016904D01*
X033946Y016746D02*
X033995Y016746D01*
X033946Y016613D02*
X033489Y016613D01*
X033489Y016156D01*
X033667Y016156D01*
X033946Y016434D01*
X033946Y016613D01*
X033946Y016587D02*
X033995Y016587D01*
X034001Y016429D02*
X033940Y016429D01*
X033782Y016270D02*
X034159Y016270D01*
X034452Y016270D02*
X034489Y016270D01*
X034489Y016429D02*
X034452Y016429D01*
X034452Y016587D02*
X034489Y016587D01*
X034177Y015953D02*
X033764Y015953D01*
X033906Y015795D02*
X034035Y015795D01*
X034035Y015636D02*
X033906Y015636D01*
X033906Y015478D02*
X034035Y015478D01*
X034167Y015319D02*
X033774Y015319D01*
X033715Y015002D02*
X034226Y015002D01*
X034067Y014844D02*
X033873Y014844D01*
X033906Y014685D02*
X034035Y014685D01*
X034035Y014527D02*
X033906Y014527D01*
X033823Y014368D02*
X034118Y014368D01*
X033035Y015478D02*
X032203Y015478D01*
X032203Y015636D02*
X033035Y015636D01*
X033035Y015795D02*
X032203Y015795D01*
X032203Y015953D02*
X033177Y015953D01*
X033452Y016270D02*
X033489Y016270D01*
X033489Y016429D02*
X033452Y016429D01*
X033452Y016587D02*
X033489Y016587D01*
X033071Y016904D02*
X032625Y016904D01*
X030348Y016746D02*
X030326Y016746D01*
X030348Y016429D02*
X030300Y016429D01*
X030818Y013750D02*
X029943Y012875D01*
X034846Y009613D02*
X037495Y009613D01*
X037654Y009772D02*
X036401Y009772D01*
X037800Y009296D02*
X038455Y009296D01*
X038455Y009138D02*
X034846Y009138D01*
X037959Y009455D02*
X038455Y009455D01*
X038455Y009613D02*
X038117Y009613D01*
X038276Y009772D02*
X038455Y009772D01*
X038455Y009930D02*
X038288Y009930D01*
X038288Y010089D02*
X038455Y010089D01*
X038455Y010247D02*
X038288Y010247D01*
X038288Y010406D02*
X038455Y010406D01*
X038455Y010564D02*
X038288Y010564D01*
X038288Y010723D02*
X038455Y010723D01*
X038455Y010881D02*
X038288Y010881D01*
X038288Y011040D02*
X038455Y011040D01*
X038455Y011198D02*
X038288Y011198D01*
X038288Y011357D02*
X038455Y011357D01*
X038455Y011515D02*
X038288Y011515D01*
X038288Y011674D02*
X038455Y011674D01*
X038455Y011832D02*
X038288Y011832D01*
X038288Y011991D02*
X038455Y011991D01*
X038455Y012149D02*
X038288Y012149D01*
X038288Y012308D02*
X038455Y012308D01*
X038455Y012466D02*
X038288Y012466D01*
X038288Y012625D02*
X038455Y012625D01*
X038455Y012783D02*
X038288Y012783D01*
X038288Y012942D02*
X038455Y012942D01*
X038455Y013100D02*
X038288Y013100D01*
X038288Y013259D02*
X038455Y013259D01*
X038455Y013417D02*
X038288Y013417D01*
X038288Y013576D02*
X038455Y013576D01*
X038455Y013734D02*
X038288Y013734D01*
X038353Y013893D02*
X038455Y013893D01*
X038455Y014051D02*
X038353Y014051D01*
X038262Y014210D02*
X038455Y014210D01*
X030910Y022293D02*
X030477Y022293D01*
X030629Y022452D02*
X030758Y022452D01*
X030758Y022610D02*
X030629Y022610D01*
X030629Y022769D02*
X030739Y022769D01*
X030580Y022927D02*
X030507Y022927D01*
X030497Y023086D02*
X030044Y023086D01*
X029959Y023244D02*
X029913Y023244D01*
X029473Y023244D02*
X029428Y023244D01*
X028959Y023244D02*
X028428Y023244D01*
X028586Y023403D02*
X028800Y023403D01*
X028758Y023561D02*
X028629Y023561D01*
X028629Y023720D02*
X028758Y023720D01*
X028831Y023878D02*
X028556Y023878D01*
X028397Y024037D02*
X028989Y024037D01*
X029693Y023875D02*
X030131Y024313D01*
X030131Y028475D01*
X030468Y028838D02*
X030468Y023900D01*
X030193Y023625D01*
X030428Y023244D02*
X030497Y023244D01*
X031193Y023625D02*
X031193Y031499D01*
X031927Y030852D02*
X031973Y030852D01*
X032413Y030852D02*
X032561Y030852D01*
X032413Y031011D02*
X035322Y031011D01*
X035163Y031169D02*
X032413Y031169D01*
X032413Y031328D02*
X035005Y031328D01*
X034846Y031486D02*
X032413Y031486D01*
X032810Y030852D02*
X035480Y030852D01*
X035639Y030694D02*
X033050Y030694D01*
X033133Y030535D02*
X035797Y030535D01*
X035956Y030377D02*
X033150Y030377D01*
X033113Y030218D02*
X036114Y030218D01*
X036273Y030060D02*
X033002Y030060D01*
X032057Y029267D02*
X032022Y029267D01*
X030468Y028838D02*
X030231Y029075D01*
X030231Y032188D01*
X030451Y030852D02*
X030592Y030852D01*
X029243Y028688D02*
X029193Y028638D01*
X031413Y025146D02*
X031473Y025146D01*
X031473Y024988D02*
X031413Y024988D01*
X031413Y024829D02*
X031473Y024829D01*
X031473Y024671D02*
X031413Y024671D01*
X031413Y024512D02*
X031473Y024512D01*
X031473Y024354D02*
X031413Y024354D01*
X031413Y024195D02*
X031473Y024195D01*
X031473Y024037D02*
X031413Y024037D01*
X028880Y022927D02*
X028507Y022927D01*
X028629Y022769D02*
X028758Y022769D01*
X028758Y022610D02*
X028629Y022610D01*
X028629Y022452D02*
X028758Y022452D01*
X028910Y022293D02*
X028477Y022293D01*
X027010Y019282D02*
X026140Y019282D01*
X026178Y019123D02*
X027171Y019123D01*
X027332Y018965D02*
X026136Y018965D01*
X025437Y018631D02*
X024693Y019375D01*
X019874Y012942D02*
X019837Y012942D01*
X009193Y013625D02*
X009193Y016000D01*
X008838Y026256D02*
X008798Y026256D01*
X008798Y026414D02*
X008838Y026414D01*
X008838Y026573D02*
X008798Y026573D01*
X008798Y026731D02*
X008838Y026731D01*
X008838Y027048D02*
X008798Y027048D01*
X008798Y027207D02*
X008838Y027207D01*
X008838Y027365D02*
X008798Y027365D01*
X008798Y027524D02*
X008838Y027524D01*
X008338Y026731D02*
X007548Y026731D01*
X007548Y026573D02*
X008338Y026573D01*
X008366Y026414D02*
X007548Y026414D01*
X007548Y026256D02*
X008459Y026256D01*
X016688Y036717D02*
X038455Y036717D01*
X038455Y036875D02*
X016688Y036875D01*
X016560Y037034D02*
X038455Y037034D01*
X038455Y037192D02*
X016401Y037192D01*
X010577Y040679D02*
X035670Y040679D01*
X035680Y040646D02*
X035680Y040646D01*
X035765Y040521D02*
X010501Y040521D01*
X010395Y040362D02*
X035873Y040362D01*
X035962Y040232D02*
X035962Y040232D01*
X035962Y040232D01*
X035998Y040204D02*
X010248Y040204D01*
X010116Y040062D02*
X010116Y040062D01*
X010116Y040062D01*
X010087Y040045D02*
X036197Y040045D01*
X036439Y039887D02*
X009813Y039887D01*
X009682Y039811D02*
X009682Y039811D01*
X009318Y039728D02*
X036940Y039728D01*
X037319Y039700D02*
X037319Y039700D01*
X037443Y039728D02*
X038455Y039728D01*
X038455Y039570D02*
X007548Y039570D01*
X007548Y039728D02*
X008815Y039728D01*
X009194Y039700D02*
X009194Y039700D01*
X008314Y039887D02*
X007548Y039887D01*
X007548Y040045D02*
X008072Y040045D01*
X007873Y040204D02*
X007548Y040204D01*
X007548Y040362D02*
X007748Y040362D01*
X007837Y040232D02*
X007837Y040232D01*
X007837Y040232D01*
X007640Y040521D02*
X007548Y040521D01*
X007555Y040646D02*
X007555Y040646D01*
X007548Y039411D02*
X038455Y039411D01*
X038455Y039253D02*
X007548Y039253D01*
X007548Y039094D02*
X038455Y039094D01*
X038455Y038936D02*
X007548Y038936D01*
X007548Y038777D02*
X038455Y038777D01*
X038455Y038619D02*
X007548Y038619D01*
X007548Y038460D02*
X038455Y038460D01*
X038455Y038302D02*
X007548Y038302D01*
X007548Y038143D02*
X038455Y038143D01*
X038455Y037985D02*
X007548Y037985D01*
X007548Y037826D02*
X038455Y037826D01*
X038455Y037668D02*
X007548Y037668D01*
X007548Y037509D02*
X038455Y037509D01*
X038455Y037351D02*
X007548Y037351D01*
X010653Y040838D02*
X035621Y040838D01*
X035572Y040996D02*
X010691Y040996D01*
X010715Y041155D02*
X035532Y041155D01*
X035532Y041313D02*
X010739Y041313D01*
X010734Y041472D02*
X035532Y041472D01*
X035534Y041630D02*
X010710Y041630D01*
X010686Y041789D02*
X035582Y041789D01*
X035631Y041947D02*
X010637Y041947D01*
X010560Y042106D02*
X035681Y042106D01*
X035680Y042104D02*
X035680Y042104D01*
X035789Y042264D02*
X010484Y042264D01*
X010363Y042423D02*
X035897Y042423D01*
X036041Y042581D02*
X010215Y042581D01*
X010116Y042688D02*
X010116Y042688D01*
X010027Y042740D02*
X036240Y042740D01*
X038373Y040204D02*
X038455Y040204D01*
X038455Y040045D02*
X038212Y040045D01*
X038241Y040062D02*
X038241Y040062D01*
X038455Y039887D02*
X037938Y039887D01*
X037807Y039811D02*
X037807Y039811D01*
X037363Y034656D02*
X034859Y034656D01*
X035018Y034498D02*
X037522Y034498D01*
X037680Y034339D02*
X035119Y034339D01*
X035184Y034181D02*
X037818Y034181D01*
X037818Y034022D02*
X035210Y034022D01*
X035210Y033864D02*
X037818Y033864D01*
X037818Y033705D02*
X035183Y033705D01*
X035118Y033547D02*
X037818Y033547D01*
X037818Y033388D02*
X035016Y033388D01*
X034857Y033230D02*
X037818Y033230D01*
X037818Y033071D02*
X034258Y033071D01*
X034417Y032913D02*
X037818Y032913D01*
X037818Y032754D02*
X034575Y032754D01*
X034734Y032596D02*
X037818Y032596D01*
X037818Y032437D02*
X034892Y032437D01*
X035051Y032279D02*
X037818Y032279D01*
X037818Y032120D02*
X035209Y032120D01*
X035368Y031962D02*
X037818Y031962D01*
X037818Y031803D02*
X035526Y031803D01*
X035685Y031645D02*
X037818Y031645D01*
X037818Y031486D02*
X035843Y031486D01*
X036002Y031328D02*
X037818Y031328D01*
X037818Y031169D02*
X036160Y031169D01*
X036319Y031011D02*
X037818Y031011D01*
X037818Y030852D02*
X036477Y030852D01*
X036636Y030694D02*
X037818Y030694D01*
X037818Y030535D02*
X036794Y030535D01*
X036953Y030377D02*
X037818Y030377D01*
X037818Y030218D02*
X037111Y030218D01*
X037270Y030060D02*
X037818Y030060D01*
X037818Y029901D02*
X037313Y029901D01*
X037313Y029743D02*
X037818Y029743D01*
X037818Y029584D02*
X037313Y029584D01*
X037538Y029426D02*
X037818Y029426D01*
X037818Y029267D02*
X037795Y029267D01*
X037696Y028945D02*
X037696Y028924D01*
X037694Y028894D01*
X037689Y028865D01*
X037681Y028836D01*
X037670Y028809D01*
X037655Y028783D01*
X037638Y028759D01*
X037618Y028737D01*
X037596Y028717D01*
X037572Y028700D01*
X037546Y028685D01*
X037519Y028674D01*
X037490Y028666D01*
X037461Y028661D01*
X037431Y028659D01*
X034688Y031645D02*
X033012Y031645D01*
X033117Y031803D02*
X034529Y031803D01*
X034371Y031962D02*
X033150Y031962D01*
X033129Y032120D02*
X034212Y032120D01*
X034054Y032279D02*
X033040Y032279D01*
X032339Y034815D02*
X032100Y034815D01*
X032183Y034973D02*
X032245Y034973D01*
X029733Y034139D02*
X029733Y033550D01*
X022808Y030060D02*
X022766Y030060D01*
D18*
X022443Y031125D03*
X021568Y031625D03*
X021318Y031375D03*
X020943Y031375D03*
X020693Y031125D03*
X020443Y030875D03*
X020193Y030625D03*
X019943Y030375D03*
X019693Y030125D03*
X019443Y029875D03*
X019193Y029625D03*
X018943Y029375D03*
X018193Y029375D03*
X018193Y029750D03*
X018443Y030000D03*
X018693Y030250D03*
X018943Y030500D03*
X019193Y030750D03*
X019443Y031000D03*
X019693Y031250D03*
X019943Y031500D03*
X020193Y031750D03*
X020443Y032000D03*
X021443Y032375D03*
X021568Y032000D03*
X023443Y032625D03*
X026318Y028875D03*
X029193Y028638D03*
X030131Y028475D03*
X032193Y029000D03*
X033693Y027625D03*
X033818Y026625D03*
X037643Y027600D03*
X037493Y023875D03*
X036318Y018375D03*
X036443Y018000D03*
X036568Y017250D03*
X037068Y016000D03*
X037568Y016000D03*
X038068Y014000D03*
X036568Y014000D03*
X036318Y011875D03*
X036443Y007375D03*
X035943Y007375D03*
X029943Y012875D03*
X029943Y014375D03*
X030068Y016600D03*
X032443Y017125D03*
X032568Y018125D03*
X026468Y020125D03*
X025893Y019125D03*
X025437Y018631D03*
X024743Y016550D03*
X025193Y020850D03*
X026093Y021500D03*
X026693Y021900D03*
X023693Y024500D03*
X024918Y025800D03*
X022193Y025875D03*
X020693Y025750D03*
X020693Y026250D03*
X020693Y026750D03*
X020193Y026750D03*
X020193Y027250D03*
X020693Y027250D03*
X022193Y028375D03*
X018943Y028375D03*
X018943Y028000D03*
X018693Y027750D03*
X018318Y027500D03*
X017943Y026875D03*
X017693Y028250D03*
X017193Y028250D03*
X016693Y028250D03*
X016193Y028250D03*
X015693Y028250D03*
X016068Y027375D03*
X015943Y026875D03*
X016568Y026375D03*
X015943Y025875D03*
X016318Y025375D03*
X018943Y023750D03*
X019318Y024125D03*
X020318Y023125D03*
X019818Y022875D03*
X017693Y020750D03*
X017693Y019625D03*
X017693Y018625D03*
X017443Y017500D03*
X015818Y013500D03*
X016568Y013125D03*
X016318Y012500D03*
X015193Y012625D03*
X014193Y012250D03*
X013693Y011625D03*
X014693Y011625D03*
X014693Y010250D03*
X015193Y010250D03*
X015818Y009125D03*
X016193Y008750D03*
X014193Y007875D03*
X013193Y007875D03*
X012693Y007875D03*
X012193Y007875D03*
X013193Y010250D03*
X013818Y010250D03*
X012568Y012125D03*
X013193Y012625D03*
X009818Y013625D03*
X009193Y013625D03*
X009506Y011938D03*
X015568Y022500D03*
X016818Y022500D03*
X012693Y023750D03*
X012193Y023750D03*
X011693Y023750D03*
X011193Y023750D03*
X010693Y023750D03*
X010193Y023750D03*
X018193Y028250D03*
X014818Y037875D03*
X014318Y037875D03*
X013818Y037875D03*
X013318Y037875D03*
X012818Y037875D03*
X012318Y037875D03*
X011818Y037875D03*
X011318Y037875D03*
X010818Y037875D03*
X010568Y038375D03*
X010568Y038875D03*
X010568Y039375D03*
X010568Y039875D03*
X010568Y040375D03*
X010568Y042625D03*
X015318Y042625D03*
X015318Y042125D03*
X015318Y041625D03*
X015318Y041125D03*
X015318Y040625D03*
X015318Y040125D03*
X015318Y039625D03*
X015318Y039125D03*
X015318Y038625D03*
X015318Y038125D03*
X027943Y025000D03*
X028568Y025000D03*
X029193Y025000D03*
X030693Y031250D03*
D19*
X020193Y025750D03*
X019443Y024625D03*
X020443Y023625D03*
X020943Y020500D03*
X017193Y024375D03*
X016318Y024875D03*
X018568Y028125D03*
D20*
X022568Y025375D02*
X023068Y025875D01*
X023068Y026875D01*
X023068Y034366D01*
X023827Y035125D01*
X023827Y036134D01*
X023943Y036250D01*
X033443Y024950D02*
X032443Y023950D01*
X032443Y018875D01*
X031943Y018375D01*
X031943Y011588D01*
X019856Y011588D01*
X018856Y011588D01*
X020943Y020500D02*
X020693Y020750D01*
X020693Y023375D01*
X020443Y023625D01*
D21*
X015193Y021250D03*
X013568Y021250D03*
X033443Y024950D03*
D22*
X037568Y022750D02*
X038118Y023300D01*
X038118Y034325D01*
X036193Y036250D01*
X027818Y036250D01*
X023943Y036250D01*
X022118Y036250D01*
X020993Y035125D01*
X017818Y035125D01*
X016943Y034250D01*
X012443Y034250D01*
X011568Y035125D01*
X017443Y031625D02*
X018693Y031625D01*
X020619Y033550D01*
X020993Y033550D01*
X020693Y032875D02*
X021774Y032875D01*
X022449Y033550D01*
X020693Y032875D02*
X018818Y031000D01*
X017693Y031000D01*
X015193Y028500D01*
X015193Y021250D01*
X014568Y021875D02*
X014568Y028750D01*
X017443Y031625D01*
X014568Y021875D02*
X013943Y021250D01*
X013568Y021250D01*
X027764Y035125D02*
X027764Y036196D01*
X027818Y036250D01*
D23*
X023068Y026875D03*
X022568Y025375D03*
D24*
X020193Y025375D02*
X020193Y025750D01*
X020193Y025375D02*
X019443Y024625D01*
X018568Y028125D02*
X018568Y029551D01*
X020993Y031975D01*
M02*
