%
M48
M72
T01C0.0150
T02C0.0236
T03C0.0315
T04C0.0354
T05C0.0394
T06C0.0400
T07C0.0402
T08C0.0470
T09C0.1181
%
T01
X28581Y12663
X28956Y13288
X29206Y13913
X27706Y16788
X27706Y17288
X26206Y16788
X31113Y16695
X28956Y19663
X28706Y20288
X28331Y20913
X27331Y21788
X27581Y22038
X27831Y22288
X28081Y22538
X28331Y22788
X29956Y23163
X29706Y23788
X29331Y24413
X30831Y26038
X31206Y25788
X30456Y26288
X32206Y26913
X32456Y27288
X32706Y27663
X30206Y28413
X27831Y28913
X27206Y29163
X26581Y29538
X23581Y28538
X24206Y28163
X24831Y27913
X30206Y30163
X30831Y30038
X32581Y29163
X33206Y29413
X33831Y29913
X36206Y28413
X35581Y28163
X36831Y28788
X38206Y27038
X39206Y26663
X40206Y26413
X42206Y25413
X42456Y25788
X42706Y26163
X43206Y27413
X42206Y27663
X41206Y28163
X43581Y28538
X45331Y27913
X47206Y27663
X48206Y27913
X49206Y28413
X45831Y29913
X45206Y29913
X40706Y30288
X45206Y26913
X45456Y26538
X45456Y26038
X45456Y25538
X44831Y25038
X41581Y24663
X41081Y24663
X40581Y24663
X38831Y24663
X37831Y24663
X37831Y21163
X38831Y20913
X40581Y19913
X41081Y20413
X41581Y18913
X27081Y21538
X24331Y22788
X24081Y22538
X23831Y22288
X23581Y22038
X23456Y21663
X23581Y21288
X21831Y21163
X20831Y21163
X20081Y20163
X19206Y20163
X19581Y21163
X22456Y19413
X30206Y10413
X29956Y9788
X29581Y9163
X70706Y20288
X70706Y21288
X69456Y21788
X70706Y22288
X69456Y22788
X60831Y26538
X59831Y27538
X59956Y29038
X57831Y28913
X57206Y29163
X56581Y29663
X54831Y27913
X54206Y28163
X53581Y28538
X52206Y27288
X51206Y26913
X50206Y26663
X60206Y30163
X60831Y30163
X62581Y29163
X63206Y29413
X63831Y29913
X62956Y28163
X66206Y31663
X66831Y31663
X59581Y31663
X29581Y31663
T02
X71831Y13038
T03
X37706Y29288
X38706Y29288
X39706Y29288
X40706Y29288
X41706Y29288
X42706Y29288
X43706Y29288
X44706Y29288
X45706Y29288
X46706Y29288
X47706Y29288
X48706Y29288
X49706Y29288
X50706Y29288
X51706Y29288
X52706Y29288
X47706Y25038
X52706Y5288
X51706Y5288
X50706Y5288
X39706Y5288
X38706Y5288
X37706Y5288
T04
X71831Y8663
T05
X66460Y14101
X67460Y14101
X68460Y14101
X69460Y14101
X70460Y14101
X71460Y14101
X72460Y14101
X73460Y14101
X74716Y14103
X75716Y14103
X76716Y14103
X77716Y14103
X78716Y14103
X79716Y14103
X80716Y14103
X81716Y14103
X82716Y14103
X82716Y15103
X81716Y15103
X80716Y15103
X79716Y15103
X78716Y15103
X77716Y15103
X76716Y15103
X75716Y15103
X74716Y15103
X73460Y15101
X72460Y15101
X71460Y15101
X70460Y15101
X69460Y15101
X68460Y15101
X67460Y15101
X66460Y15101
X64466Y17378
X63466Y17378
X63466Y18378
X64466Y18378
X64466Y19378
X63466Y19378
X63466Y20378
X64466Y20378
X64466Y21378
X63466Y21378
X63466Y22378
X64466Y22378
X64466Y23378
X63466Y23378
X63466Y24378
X64466Y24378
X64466Y25378
X63466Y25378
X63466Y26378
X64466Y26378
X64466Y27378
X63466Y27378
X65503Y28715
X66503Y28715
X67503Y28715
X68503Y28715
X69503Y28715
X70503Y28715
X71503Y28715
X72503Y28715
X73503Y28715
X74503Y28715
X75503Y28715
X75503Y29715
X74503Y29715
X73503Y29715
X72503Y29715
X71503Y29715
X70503Y29715
X69503Y29715
X68503Y29715
X67503Y29715
X66503Y29715
X65503Y29715
T06
X10176Y15398
X12736Y15398
X12736Y17178
X10176Y17178
X16676Y17178
X19236Y17178
X19236Y15398
X16676Y15398
X15986Y21273
X13426Y21273
X13426Y23053
X12346Y24133
X10566Y24133
X10566Y26693
X12346Y26693
X13426Y27773
X15986Y27773
X17066Y26693
X18846Y26693
X18846Y24133
X17066Y24133
X15986Y23053
X15986Y29553
X13426Y29553
X79456Y16413
X79456Y17413
T07
X64157Y10413
X65338Y10413
X65338Y11594
X64157Y11594
X64157Y9232
X65338Y9232
T08
X82956Y10522
X82956Y8554
T09
X7206Y31788
X62456Y10413
X82706Y5538
X82706Y31788
X7206Y5538
M30
