G75*
G70*
%OFA0B0*%
%FSLAX24Y24*%
%IPPOS*%
%LPD*%
%AMOC8*
5,1,8,0,0,1.08239X$1,22.5*
%
%ADD10C,0.0030*%
%ADD11C,0.0040*%
%ADD12R,0.0012X0.0006*%
%ADD13R,0.0024X0.0006*%
%ADD14R,0.0036X0.0006*%
%ADD15R,0.0060X0.0006*%
%ADD16R,0.0078X0.0006*%
%ADD17R,0.0102X0.0006*%
%ADD18R,0.0126X0.0006*%
%ADD19R,0.0162X0.0006*%
%ADD20R,0.0186X0.0006*%
%ADD21R,0.0228X0.0006*%
%ADD22R,0.0258X0.0006*%
%ADD23R,0.0306X0.0006*%
%ADD24R,0.0348X0.0006*%
%ADD25R,0.0396X0.0006*%
%ADD26R,0.0450X0.0006*%
%ADD27R,0.0510X0.0006*%
%ADD28R,0.0564X0.0006*%
%ADD29R,0.0630X0.0006*%
%ADD30R,0.0702X0.0006*%
%ADD31R,0.0768X0.0006*%
%ADD32R,0.0852X0.0006*%
%ADD33R,0.0930X0.0006*%
%ADD34R,0.1020X0.0006*%
%ADD35R,0.1116X0.0006*%
%ADD36R,0.1212X0.0006*%
%ADD37R,0.1314X0.0006*%
%ADD38R,0.1428X0.0006*%
%ADD39R,0.1548X0.0006*%
%ADD40R,0.1674X0.0006*%
%ADD41R,0.1812X0.0006*%
%ADD42R,0.1950X0.0006*%
%ADD43R,0.2100X0.0006*%
%ADD44R,0.2268X0.0006*%
%ADD45R,0.2436X0.0006*%
%ADD46R,0.2622X0.0006*%
%ADD47R,0.2820X0.0006*%
%ADD48R,0.3042X0.0006*%
%ADD49R,0.3276X0.0006*%
%ADD50R,0.3534X0.0006*%
%ADD51R,0.3828X0.0006*%
%ADD52R,0.4164X0.0006*%
%ADD53R,0.4572X0.0006*%
%ADD54R,0.0120X0.0006*%
%ADD55R,0.0108X0.0006*%
%ADD56R,0.0246X0.0006*%
%ADD57R,0.0240X0.0006*%
%ADD58R,0.0114X0.0006*%
%ADD59R,0.0168X0.0006*%
%ADD60R,0.0150X0.0006*%
%ADD61R,0.0096X0.0006*%
%ADD62R,0.0774X0.0006*%
%ADD63R,0.0252X0.0006*%
%ADD64R,0.0132X0.0006*%
%ADD65R,0.0204X0.0006*%
%ADD66R,0.0180X0.0006*%
%ADD67R,0.0234X0.0006*%
%ADD68R,0.0132X0.0006*%
%ADD69R,0.0204X0.0006*%
%ADD70R,0.0780X0.0006*%
%ADD71R,0.0282X0.0006*%
%ADD72R,0.0138X0.0006*%
%ADD73R,0.0294X0.0006*%
%ADD74R,0.0144X0.0006*%
%ADD75R,0.0252X0.0006*%
%ADD76R,0.0318X0.0006*%
%ADD77R,0.0276X0.0006*%
%ADD78R,0.0330X0.0006*%
%ADD79R,0.0288X0.0006*%
%ADD80R,0.0342X0.0006*%
%ADD81R,0.0156X0.0006*%
%ADD82R,0.0300X0.0006*%
%ADD83R,0.0354X0.0006*%
%ADD84R,0.0312X0.0006*%
%ADD85R,0.0366X0.0006*%
%ADD86R,0.0324X0.0006*%
%ADD87R,0.0378X0.0006*%
%ADD88R,0.0390X0.0006*%
%ADD89R,0.0174X0.0006*%
%ADD90R,0.0774X0.0006*%
%ADD91R,0.0456X0.0006*%
%ADD92R,0.0408X0.0006*%
%ADD93R,0.0420X0.0006*%
%ADD94R,0.0462X0.0006*%
%ADD95R,0.0192X0.0006*%
%ADD96R,0.0222X0.0006*%
%ADD97R,0.0174X0.0006*%
%ADD98R,0.0198X0.0006*%
%ADD99R,0.0162X0.0006*%
%ADD100R,0.0144X0.0006*%
%ADD101R,0.0210X0.0006*%
%ADD102R,0.0444X0.0006*%
%ADD103R,0.0438X0.0006*%
%ADD104R,0.0216X0.0006*%
%ADD105R,0.0432X0.0006*%
%ADD106R,0.0426X0.0006*%
%ADD107R,0.0414X0.0006*%
%ADD108R,0.0402X0.0006*%
%ADD109R,0.0090X0.0006*%
%ADD110R,0.0066X0.0006*%
%ADD111R,0.0384X0.0006*%
%ADD112R,0.0030X0.0006*%
%ADD113R,0.0264X0.0006*%
%ADD114R,0.0006X0.0006*%
%ADD115R,0.0270X0.0006*%
%ADD116R,0.0114X0.0006*%
%ADD117R,0.0264X0.0006*%
%ADD118R,0.0018X0.0006*%
%ADD119R,0.0042X0.0006*%
%ADD120R,0.0072X0.0006*%
%ADD121R,0.0234X0.0006*%
%ADD122R,0.0372X0.0006*%
%ADD123R,0.0810X0.0006*%
%ADD124R,0.0804X0.0006*%
%ADD125R,0.0798X0.0006*%
%ADD126R,0.0786X0.0006*%
%ADD127R,0.0792X0.0006*%
%ADD128R,0.0816X0.0006*%
%ADD129R,0.0840X0.0006*%
%ADD130R,0.0864X0.0006*%
%ADD131R,0.0870X0.0006*%
%ADD132R,0.0882X0.0006*%
%ADD133R,0.0888X0.0006*%
%ADD134R,0.0900X0.0006*%
%ADD135R,0.0912X0.0006*%
%ADD136R,0.0924X0.0006*%
%ADD137R,0.0936X0.0006*%
%ADD138R,0.0942X0.0006*%
%ADD139R,0.0948X0.0006*%
%ADD140R,0.0960X0.0006*%
%ADD141R,0.0966X0.0006*%
%ADD142R,0.0972X0.0006*%
%ADD143R,0.0972X0.0006*%
%ADD144R,0.0978X0.0006*%
%ADD145R,0.0984X0.0006*%
%ADD146R,0.0990X0.0006*%
%ADD147R,0.0996X0.0006*%
%ADD148R,0.0324X0.0006*%
%ADD149R,0.0312X0.0006*%
%ADD150R,0.0048X0.0006*%
%ADD151R,0.0222X0.0006*%
%ADD152R,0.0024X0.0006*%
%ADD153R,0.0054X0.0006*%
%ADD154R,0.0054X0.0006*%
%ADD155R,0.0042X0.0006*%
%ADD156R,0.0012X0.0006*%
%ADD157R,0.0282X0.0006*%
%ADD158R,0.0192X0.0006*%
%ADD159R,0.0342X0.0006*%
%ADD160R,0.0360X0.0006*%
%ADD161R,0.0648X0.0006*%
%ADD162R,0.0672X0.0006*%
%ADD163R,0.0876X0.0006*%
%ADD164R,0.0864X0.0006*%
%ADD165R,0.0858X0.0006*%
%ADD166R,0.0834X0.0006*%
%ADD167R,0.0828X0.0006*%
%ADD168R,0.0762X0.0006*%
%ADD169R,0.0744X0.0006*%
%ADD170R,0.0726X0.0006*%
%ADD171R,0.0708X0.0006*%
%ADD172R,0.0690X0.0006*%
%ADD173R,0.0666X0.0006*%
%ADD174R,0.0636X0.0006*%
%ADD175R,0.0606X0.0006*%
%ADD176R,0.0546X0.0006*%
%ADD177C,0.0080*%
%ADD178C,0.0100*%
%ADD179C,0.0060*%
%ADD180C,0.0020*%
%ADD181C,0.0050*%
%ADD182C,0.0160*%
%ADD183R,0.0128X0.0167*%
%ADD184R,0.0138X0.0138*%
%ADD185C,0.0010*%
D10*
X001550Y004670D02*
X001550Y004960D01*
X001695Y004960D01*
X001744Y004912D01*
X001744Y004815D01*
X001695Y004767D01*
X001550Y004767D01*
X001647Y004767D02*
X001744Y004670D01*
X001845Y004670D02*
X002038Y004670D01*
X002139Y004718D02*
X002188Y004670D01*
X002285Y004670D01*
X002333Y004718D01*
X002333Y004767D01*
X002285Y004815D01*
X002188Y004815D01*
X002139Y004863D01*
X002139Y004912D01*
X002188Y004960D01*
X002285Y004960D01*
X002333Y004912D01*
X002434Y004960D02*
X002434Y004670D01*
X002628Y004670D01*
X002531Y004815D02*
X002434Y004815D01*
X002434Y004960D02*
X002628Y004960D01*
X002729Y004960D02*
X002922Y004960D01*
X002825Y004960D02*
X002825Y004670D01*
X002038Y004960D02*
X001845Y004960D01*
X001845Y004670D01*
X001845Y004815D02*
X001942Y004815D01*
X007303Y005546D02*
X007448Y005546D01*
X007497Y005594D01*
X007497Y005643D01*
X007448Y005691D01*
X007303Y005691D01*
X007303Y005546D02*
X007303Y005836D01*
X007448Y005836D01*
X007497Y005788D01*
X007497Y005739D01*
X007448Y005691D01*
X007598Y005594D02*
X007646Y005546D01*
X007743Y005546D01*
X007791Y005594D01*
X007791Y005788D01*
X007743Y005836D01*
X007646Y005836D01*
X007598Y005788D01*
X007598Y005594D01*
X007892Y005594D02*
X007941Y005546D01*
X008038Y005546D01*
X008086Y005594D01*
X008086Y005788D01*
X008038Y005836D01*
X007941Y005836D01*
X007892Y005788D01*
X007892Y005594D01*
X008187Y005836D02*
X008381Y005836D01*
X008284Y005836D02*
X008284Y005546D01*
X010459Y007902D02*
X010773Y008215D01*
X010773Y008058D02*
X010459Y008058D01*
X010459Y008215D02*
X010773Y007902D01*
X010616Y007902D02*
X010616Y008215D01*
X010575Y014838D02*
X010285Y014838D01*
X010575Y014838D02*
X010575Y015031D01*
X010575Y015133D02*
X010575Y015326D01*
X010575Y015427D02*
X010285Y015427D01*
X010285Y015572D01*
X010333Y015621D01*
X010527Y015621D01*
X010575Y015572D01*
X010575Y015427D01*
X010430Y015229D02*
X010430Y015133D01*
X010285Y015133D02*
X010575Y015133D01*
X010285Y015133D02*
X010285Y015326D01*
X010382Y015722D02*
X010285Y015819D01*
X010575Y015819D01*
X010575Y015915D02*
X010575Y015722D01*
D11*
X015786Y014420D02*
X015786Y014037D01*
X015863Y013960D01*
X016016Y013960D01*
X016093Y014037D01*
X016093Y014420D01*
X016247Y014344D02*
X016247Y014267D01*
X016323Y014190D01*
X016477Y014190D01*
X016553Y014113D01*
X016553Y014037D01*
X016477Y013960D01*
X016323Y013960D01*
X016247Y014037D01*
X016247Y014344D02*
X016323Y014420D01*
X016477Y014420D01*
X016553Y014344D01*
X016707Y014267D02*
X016860Y014420D01*
X017014Y014267D01*
X017014Y013960D01*
X017167Y013960D02*
X017167Y014420D01*
X017398Y014420D01*
X017474Y014344D01*
X017474Y014190D01*
X017398Y014113D01*
X017167Y014113D01*
X017321Y014113D02*
X017474Y013960D01*
X017014Y014190D02*
X016707Y014190D01*
X016707Y014267D02*
X016707Y013960D01*
X017628Y014420D02*
X017935Y014420D01*
X017781Y014420D02*
X017781Y013960D01*
X018088Y014037D02*
X018165Y013960D01*
X018318Y013960D01*
X018395Y014037D01*
X018395Y014113D01*
X018318Y014190D01*
X018242Y014190D01*
X018318Y014190D02*
X018395Y014267D01*
X018395Y014344D01*
X018318Y014420D01*
X018165Y014420D01*
X018088Y014344D01*
X019009Y014420D02*
X019009Y013960D01*
X019162Y013960D01*
X019316Y014037D02*
X019393Y013960D01*
X019546Y013960D01*
X019623Y014037D01*
X019623Y014190D01*
X019469Y014190D01*
X019316Y014037D02*
X019316Y014344D01*
X019393Y014420D01*
X019546Y014420D01*
X019623Y014344D01*
X019776Y014420D02*
X019776Y013960D01*
X019930Y013960D02*
X019930Y014420D01*
X020160Y014420D01*
X020237Y014344D01*
X020237Y014190D01*
X020160Y014113D01*
X019930Y014113D01*
X020083Y014113D02*
X020237Y013960D01*
X020390Y013960D02*
X020390Y014420D01*
X020544Y014420D02*
X020850Y014420D01*
X020697Y014420D02*
X020697Y013960D01*
X021004Y013960D02*
X021157Y013960D01*
X021157Y014420D01*
X021004Y014420D01*
X021771Y014420D02*
X022078Y014190D01*
X021771Y013960D01*
X020638Y012356D02*
X020638Y011895D01*
X020791Y011895D02*
X020484Y011895D01*
X020331Y011972D02*
X020331Y012356D01*
X020484Y012202D02*
X020638Y012356D01*
X020331Y011972D02*
X020254Y011895D01*
X020101Y011895D01*
X020024Y011972D01*
X020024Y012356D01*
X019162Y014420D02*
X019009Y014420D01*
X012514Y010969D02*
X012438Y011045D01*
X012284Y011045D01*
X012207Y010969D01*
X012207Y010662D01*
X012284Y010585D01*
X012438Y010585D01*
X012514Y010662D01*
X012514Y010815D01*
X012361Y010815D01*
X012054Y010815D02*
X011747Y010815D01*
X011747Y010892D02*
X011747Y010585D01*
X011440Y010585D02*
X011440Y011045D01*
X011287Y011045D02*
X011593Y011045D01*
X011747Y010892D02*
X011900Y011045D01*
X012054Y010892D01*
X012054Y010585D01*
X011056Y010662D02*
X011056Y011045D01*
X010980Y011045D02*
X011133Y011045D01*
X011056Y010662D02*
X010980Y010585D01*
X010903Y010585D01*
X010826Y010662D01*
X003819Y013283D02*
X003819Y013672D01*
X003799Y013672D02*
X003063Y013672D01*
X002859Y013753D02*
X002859Y015184D01*
X002857Y015200D01*
X002853Y015215D01*
X002845Y015230D01*
X002835Y015242D01*
X002823Y015252D01*
X002808Y015260D01*
X002793Y015264D01*
X002777Y015266D01*
X002777Y015266D01*
X002777Y015265D02*
X002757Y015263D01*
X002738Y015257D01*
X002720Y015248D01*
X002705Y015235D01*
X002692Y015220D01*
X002683Y015202D01*
X002677Y015183D01*
X002675Y015163D01*
X002675Y015164D02*
X002675Y013774D01*
X002677Y013754D01*
X002683Y013735D01*
X002692Y013717D01*
X002705Y013702D01*
X002720Y013689D01*
X002738Y013680D01*
X002757Y013674D01*
X002777Y013672D01*
X002777Y013671D02*
X002793Y013673D01*
X002808Y013677D01*
X002823Y013685D01*
X002835Y013695D01*
X002845Y013707D01*
X002853Y013722D01*
X002857Y013737D01*
X002859Y013753D01*
X002327Y014142D02*
X002327Y014796D01*
X002328Y014796D02*
X002325Y014814D01*
X002318Y014831D01*
X002309Y014846D01*
X002296Y014859D01*
X002281Y014868D01*
X002264Y014875D01*
X002246Y014878D01*
X002246Y014877D02*
X000651Y014959D01*
X000635Y014957D01*
X000620Y014953D01*
X000605Y014945D01*
X000593Y014935D01*
X000583Y014923D01*
X000575Y014908D01*
X000571Y014893D01*
X000569Y014877D01*
X000570Y014877D02*
X000570Y014877D01*
X000569Y014877D02*
X000571Y014861D01*
X000575Y014846D01*
X000583Y014831D01*
X000593Y014819D01*
X000605Y014809D01*
X000620Y014801D01*
X000635Y014797D01*
X000651Y014795D01*
X000651Y014796D02*
X002000Y014714D01*
X002000Y014223D01*
X000651Y014142D01*
X000635Y014140D01*
X000620Y014136D01*
X000605Y014128D01*
X000593Y014118D01*
X000583Y014106D01*
X000575Y014091D01*
X000571Y014076D01*
X000569Y014060D01*
X000571Y014044D01*
X000575Y014029D01*
X000583Y014014D01*
X000593Y014002D01*
X000605Y013992D01*
X000620Y013984D01*
X000635Y013980D01*
X000651Y013978D01*
X002246Y014060D01*
X002246Y014059D02*
X002264Y014062D01*
X002281Y014069D01*
X002296Y014078D01*
X002309Y014091D01*
X002318Y014106D01*
X002325Y014123D01*
X002328Y014141D01*
X001735Y013876D02*
X001735Y013794D01*
X000794Y013692D01*
X000794Y013488D01*
X001735Y013385D01*
X001735Y013304D01*
X000651Y013385D01*
X000632Y013389D01*
X000613Y013395D01*
X000596Y013405D01*
X000580Y013417D01*
X000567Y013432D01*
X000556Y013449D01*
X000549Y013467D01*
X000549Y013692D02*
X000556Y013710D01*
X000567Y013727D01*
X000580Y013742D01*
X000596Y013754D01*
X000613Y013764D01*
X000632Y013770D01*
X000651Y013774D01*
X001735Y013876D01*
X000550Y013692D02*
X000541Y013655D01*
X000535Y013618D01*
X000533Y013580D01*
X000535Y013542D01*
X000541Y013505D01*
X000550Y013468D01*
X000712Y012956D02*
X000120Y012956D01*
X000120Y012956D01*
X000120Y015981D01*
X000712Y015981D01*
X000651Y015552D02*
X001735Y015634D01*
X001735Y015552D01*
X000794Y015450D01*
X000794Y015245D01*
X001735Y015143D01*
X001735Y015061D01*
X000651Y015164D01*
X000651Y015163D02*
X000632Y015167D01*
X000613Y015173D01*
X000596Y015183D01*
X000580Y015195D01*
X000567Y015210D01*
X000556Y015227D01*
X000549Y015245D01*
X000549Y015470D02*
X000556Y015488D01*
X000567Y015505D01*
X000580Y015520D01*
X000596Y015532D01*
X000613Y015542D01*
X000632Y015548D01*
X000651Y015552D01*
X000550Y015470D02*
X000541Y015433D01*
X000535Y015396D01*
X000533Y015358D01*
X000535Y015320D01*
X000541Y015283D01*
X000550Y015246D01*
X001827Y015981D02*
X002736Y015981D01*
X002720Y015983D01*
X002705Y015987D01*
X002690Y015995D01*
X002678Y016005D01*
X002668Y016017D01*
X002660Y016032D01*
X002656Y016047D01*
X002654Y016063D01*
X002654Y016124D01*
X003656Y015654D02*
X003799Y015654D01*
X003819Y015654D02*
X003819Y015266D01*
X003799Y015266D02*
X003063Y015266D01*
X003656Y013283D02*
X003799Y013283D01*
X002736Y012956D02*
X001827Y012956D01*
X001960Y012637D02*
X002267Y012177D01*
X002420Y012177D02*
X002727Y012177D01*
X002574Y012177D02*
X002574Y012637D01*
X002420Y012484D01*
X002267Y012637D02*
X001960Y012177D01*
X002654Y012813D02*
X002654Y012875D01*
X002656Y012891D01*
X002660Y012906D01*
X002668Y012921D01*
X002678Y012933D01*
X002690Y012943D01*
X002705Y012951D01*
X002720Y012955D01*
X002736Y012957D01*
X002162Y008111D02*
X002162Y007651D01*
X001855Y008111D01*
X001855Y007651D01*
X001701Y007651D02*
X001701Y007958D01*
X001548Y008111D01*
X001395Y007958D01*
X001395Y007651D01*
X001241Y007728D02*
X001164Y007651D01*
X001011Y007651D01*
X000934Y007728D01*
X000934Y008035D01*
X001011Y008111D01*
X001164Y008111D01*
X001241Y008035D01*
X001395Y007881D02*
X001701Y007881D01*
X005955Y003097D02*
X005868Y003011D01*
X005868Y002664D01*
X005955Y002577D01*
X006128Y002577D01*
X006215Y002664D01*
X006384Y002750D02*
X006644Y002750D01*
X006731Y002837D01*
X006731Y003011D01*
X006644Y003097D01*
X006384Y003097D01*
X006384Y002577D01*
X006899Y002664D02*
X006986Y002577D01*
X007160Y002577D01*
X007246Y002664D01*
X007246Y003097D01*
X006899Y003097D02*
X006899Y002664D01*
X006215Y003011D02*
X006128Y003097D01*
X005955Y003097D01*
X007931Y003097D02*
X007931Y002577D01*
X008191Y002577D01*
X008278Y002664D01*
X008278Y002750D01*
X008191Y002837D01*
X007931Y002837D01*
X008191Y002837D02*
X008278Y002924D01*
X008278Y003011D01*
X008191Y003097D01*
X007931Y003097D01*
X008446Y002837D02*
X008446Y002664D01*
X008533Y002577D01*
X008707Y002577D01*
X008793Y002664D01*
X008793Y002837D01*
X008707Y002924D01*
X008533Y002924D01*
X008446Y002837D01*
X008962Y002664D02*
X009049Y002750D01*
X009309Y002750D01*
X009309Y002837D02*
X009222Y002924D01*
X009049Y002924D01*
X009309Y002837D02*
X009309Y002577D01*
X009049Y002577D01*
X008962Y002664D01*
X009478Y002750D02*
X009651Y002924D01*
X009738Y002924D01*
X009907Y002837D02*
X009907Y002664D01*
X009994Y002577D01*
X010254Y002577D01*
X010254Y003097D01*
X010254Y002924D02*
X009994Y002924D01*
X009907Y002837D01*
X009478Y002924D02*
X009478Y002577D01*
X010939Y002750D02*
X011112Y002577D01*
X011286Y002750D01*
X011286Y003097D01*
X010939Y003097D02*
X010939Y002750D01*
X011970Y002577D02*
X012317Y002924D01*
X012317Y003011D01*
X012230Y003097D01*
X012057Y003097D01*
X011970Y003011D01*
X012486Y002664D02*
X012572Y002664D01*
X012572Y002577D01*
X012486Y002577D01*
X012486Y002664D01*
X012317Y002577D02*
X011970Y002577D01*
X012743Y002664D02*
X012743Y003011D01*
X012830Y003097D01*
X013004Y003097D01*
X013090Y003011D01*
X012743Y002664D01*
X012830Y002577D01*
X013004Y002577D01*
X013090Y002664D01*
X013090Y003011D01*
D12*
X005956Y003263D03*
D13*
X005962Y003269D03*
X009112Y003977D03*
D14*
X008008Y004565D03*
X008002Y004571D03*
X007996Y004601D03*
X007996Y004607D03*
X007996Y004613D03*
X007936Y004727D03*
X005974Y003275D03*
D15*
X005986Y003281D03*
X008008Y005003D03*
X009130Y003989D03*
D16*
X005995Y003287D03*
D17*
X006013Y003293D03*
D18*
X006025Y003299D03*
X008413Y004181D03*
X008479Y004001D03*
X008485Y003983D03*
X008491Y003965D03*
X008497Y003953D03*
X008497Y003947D03*
X008503Y003935D03*
X008503Y003929D03*
X008509Y003917D03*
X008509Y003911D03*
X008515Y003899D03*
X008515Y003893D03*
X008521Y003881D03*
X008521Y003875D03*
X008527Y003863D03*
X008527Y003857D03*
X008533Y003851D03*
X008533Y003845D03*
X008533Y003839D03*
X008539Y003833D03*
X008539Y003827D03*
X008575Y003719D03*
X008581Y003701D03*
X008587Y003683D03*
X008593Y003665D03*
X008617Y003599D03*
X008791Y003857D03*
X008791Y003863D03*
X008791Y003869D03*
X008791Y003875D03*
X008791Y003905D03*
X008791Y003911D03*
X008791Y003917D03*
X008791Y003923D03*
X009643Y003923D03*
X009643Y003929D03*
X009643Y003935D03*
X009643Y003941D03*
X009643Y003947D03*
X009643Y003953D03*
X009643Y003959D03*
X009643Y003917D03*
X009643Y003911D03*
X009643Y003905D03*
X009643Y003899D03*
X009643Y003893D03*
X009643Y003887D03*
X009643Y003881D03*
X009643Y003875D03*
X009643Y003869D03*
X009643Y003863D03*
X009643Y003857D03*
X009643Y003851D03*
X009643Y003845D03*
X009643Y003839D03*
X009643Y003833D03*
X009643Y003827D03*
X009643Y003821D03*
X009643Y003815D03*
X009643Y003809D03*
X009643Y003803D03*
X009643Y003797D03*
X009643Y003791D03*
X009643Y003785D03*
X009643Y003779D03*
X009643Y003773D03*
X009643Y003767D03*
X009643Y003761D03*
X009643Y003755D03*
X009643Y003749D03*
X009643Y003743D03*
X009643Y003737D03*
X009643Y003731D03*
X009643Y003725D03*
X009643Y003719D03*
X009643Y003713D03*
X009643Y003707D03*
X009643Y003701D03*
X009643Y003695D03*
X009643Y003689D03*
X009643Y003683D03*
X009643Y003677D03*
X009643Y003671D03*
X009643Y003665D03*
X009643Y003659D03*
X009643Y003653D03*
X009643Y003647D03*
X009643Y003641D03*
X009643Y003635D03*
X009643Y003629D03*
X009643Y003623D03*
X009643Y003617D03*
X009643Y003611D03*
X009643Y003605D03*
X010015Y003605D03*
X010015Y003827D03*
X010015Y003833D03*
X010015Y003839D03*
X010015Y003845D03*
X010015Y003851D03*
X010015Y003857D03*
X010015Y003863D03*
X010015Y003869D03*
X010015Y003875D03*
X010015Y003881D03*
X010015Y003887D03*
X010015Y003893D03*
X010015Y003899D03*
X010015Y003905D03*
X010015Y003911D03*
X010015Y003917D03*
X010015Y003923D03*
X010015Y003929D03*
X010015Y003935D03*
X010015Y003941D03*
X010015Y003947D03*
X010015Y003953D03*
X010015Y003959D03*
X010015Y003965D03*
X010015Y003971D03*
X010015Y003977D03*
X010015Y003983D03*
X010015Y003989D03*
X010015Y003995D03*
X010015Y004001D03*
X010015Y004007D03*
X010015Y004013D03*
X010015Y004019D03*
X010015Y004025D03*
X010015Y004031D03*
X010015Y004037D03*
X010015Y004043D03*
X010015Y004049D03*
X010015Y004055D03*
X010015Y004061D03*
X010015Y004067D03*
X010015Y004073D03*
X010015Y004079D03*
X010015Y004085D03*
X010015Y004091D03*
X010015Y004097D03*
X010015Y004103D03*
X010015Y004109D03*
X010015Y004115D03*
X010015Y004121D03*
X010015Y004127D03*
X010015Y004133D03*
X010015Y004139D03*
X010015Y004145D03*
X010015Y004151D03*
X010015Y004157D03*
X010015Y004163D03*
X010015Y004169D03*
X010015Y004175D03*
X010231Y003929D03*
X010231Y003923D03*
X010231Y003863D03*
X010615Y003791D03*
X010615Y003785D03*
X009649Y004181D03*
X008311Y004913D03*
D19*
X008413Y004127D03*
X008851Y004073D03*
X009121Y004073D03*
X009127Y004067D03*
X008851Y003707D03*
X009661Y004133D03*
X009661Y004139D03*
X009997Y003659D03*
X009997Y003653D03*
X010597Y003725D03*
X010561Y004073D03*
X007243Y004913D03*
X007237Y004895D03*
X006043Y003305D03*
D20*
X006061Y003311D03*
X008413Y004091D03*
X008413Y004097D03*
X009103Y003695D03*
X009673Y004097D03*
X009673Y004103D03*
X009985Y003695D03*
X009985Y003689D03*
X010303Y004079D03*
X010585Y003707D03*
X008287Y004895D03*
D21*
X008230Y004991D03*
X008230Y004997D03*
X008248Y004679D03*
X008248Y004673D03*
X008248Y004667D03*
X008206Y004559D03*
X008416Y004037D03*
X008416Y004031D03*
X007336Y004409D03*
X007336Y004415D03*
X007336Y004421D03*
X007342Y004427D03*
X007342Y004433D03*
X007348Y004445D03*
X007348Y004451D03*
X007354Y004463D03*
X007354Y004469D03*
X007360Y004475D03*
X007360Y004481D03*
X007360Y004487D03*
X007366Y004493D03*
X007366Y004499D03*
X007372Y004511D03*
X007372Y004517D03*
X007378Y004529D03*
X007378Y004535D03*
X007384Y004547D03*
X007384Y004553D03*
X007390Y004559D03*
X007390Y004565D03*
X007396Y004577D03*
X007396Y004583D03*
X007402Y004595D03*
X007408Y004613D03*
X007414Y004625D03*
X007420Y004643D03*
X007330Y004403D03*
X007330Y004397D03*
X006082Y003317D03*
X009694Y004037D03*
X009964Y003755D03*
X010408Y003617D03*
X010564Y003797D03*
X010564Y003803D03*
X010564Y003809D03*
X010564Y003815D03*
X010564Y003821D03*
X010564Y003827D03*
X010564Y003833D03*
X010564Y003839D03*
X010564Y003845D03*
X010564Y003851D03*
X010564Y003857D03*
X010564Y003863D03*
X010564Y003869D03*
X010564Y003875D03*
X010564Y003881D03*
X010564Y003887D03*
D22*
X010429Y004163D03*
X009949Y003803D03*
X009949Y003797D03*
X009709Y003989D03*
X008989Y004163D03*
X008989Y003617D03*
X010405Y003629D03*
X007519Y004877D03*
X007513Y004865D03*
X007507Y004853D03*
X007339Y004391D03*
X006103Y003323D03*
D23*
X006127Y003329D03*
X008065Y004397D03*
X008137Y004499D03*
X008137Y004505D03*
X007567Y004949D03*
X010429Y004145D03*
D24*
X008032Y004379D03*
X006148Y003335D03*
D25*
X006178Y003341D03*
X007630Y005003D03*
X008986Y004103D03*
X008986Y003677D03*
X008416Y003797D03*
X010426Y004103D03*
D26*
X010453Y003671D03*
X006205Y003347D03*
D27*
X006235Y003353D03*
X007465Y004379D03*
D28*
X006268Y003359D03*
D29*
X006301Y003365D03*
D30*
X006337Y003371D03*
D31*
X006376Y003377D03*
X007852Y005099D03*
D32*
X007876Y005051D03*
X006418Y003383D03*
D33*
X006463Y003389D03*
X007639Y004289D03*
D34*
X006508Y003395D03*
D35*
X006556Y003401D03*
D36*
X006610Y003407D03*
D37*
X006661Y003413D03*
D38*
X006718Y003419D03*
D39*
X006784Y003425D03*
D40*
X006847Y003431D03*
D41*
X006916Y003437D03*
D42*
X006991Y003443D03*
D43*
X007066Y003449D03*
D44*
X007150Y003455D03*
D45*
X007240Y003461D03*
D46*
X007333Y003467D03*
D47*
X007438Y003473D03*
D48*
X007549Y003479D03*
D49*
X007666Y003485D03*
D50*
X007801Y003491D03*
D51*
X007948Y003497D03*
D52*
X008116Y003503D03*
D53*
X008326Y003509D03*
D54*
X008212Y003611D03*
X008212Y003617D03*
X008218Y003623D03*
X008218Y003629D03*
X008218Y003635D03*
X008224Y003641D03*
X008224Y003647D03*
X008224Y003653D03*
X008230Y003659D03*
X008230Y003665D03*
X008230Y003671D03*
X008236Y003677D03*
X008236Y003683D03*
X008236Y003689D03*
X008242Y003695D03*
X008242Y003701D03*
X008248Y003713D03*
X008248Y003719D03*
X008290Y003839D03*
X008296Y003851D03*
X008296Y003857D03*
X008302Y003869D03*
X008302Y003875D03*
X008308Y003887D03*
X008308Y003893D03*
X008314Y003905D03*
X008320Y003923D03*
X008326Y003941D03*
X008332Y003959D03*
X008338Y003977D03*
X008344Y003995D03*
X008350Y004007D03*
X008476Y004007D03*
X008476Y004013D03*
X008482Y003995D03*
X008482Y003989D03*
X008488Y003977D03*
X008488Y003971D03*
X008494Y003959D03*
X008500Y003941D03*
X008506Y003923D03*
X008512Y003905D03*
X008518Y003887D03*
X008524Y003869D03*
X008992Y003593D03*
X009166Y003791D03*
X009394Y003599D03*
X009394Y004181D03*
X008992Y004187D03*
X008218Y004955D03*
X010432Y004187D03*
X010594Y004001D03*
D55*
X010624Y003665D03*
X010624Y003659D03*
X010624Y003653D03*
X010624Y003647D03*
X010624Y003641D03*
X010624Y003635D03*
X010624Y003629D03*
X010624Y003623D03*
X010624Y003617D03*
X010624Y003611D03*
X010624Y003605D03*
X010414Y003593D03*
X009148Y004001D03*
X008320Y004919D03*
X006796Y004403D03*
X006586Y003827D03*
D56*
X007075Y003665D03*
X007069Y003647D03*
X007063Y003629D03*
X007057Y003617D03*
X007051Y003599D03*
X007081Y003683D03*
X007087Y003695D03*
X007093Y003713D03*
X007099Y003731D03*
X007105Y003749D03*
X007117Y003779D03*
X007123Y003797D03*
X007129Y003815D03*
X007141Y003845D03*
X007147Y003863D03*
X007153Y003881D03*
X007165Y003911D03*
X007171Y003929D03*
X007177Y003947D03*
X007189Y003977D03*
X007195Y003995D03*
X007201Y004013D03*
X007219Y004061D03*
X007225Y004079D03*
X007243Y004127D03*
X007249Y004145D03*
X007831Y004157D03*
X007831Y004163D03*
X007837Y004127D03*
X007837Y004121D03*
X007843Y004097D03*
X007843Y004091D03*
X007849Y004067D03*
X007849Y004061D03*
X007849Y004055D03*
X007855Y004031D03*
X007855Y004025D03*
X007861Y004001D03*
X007861Y003995D03*
X007867Y003971D03*
X007867Y003965D03*
X007867Y003959D03*
X007873Y003935D03*
X007873Y003929D03*
X007879Y003905D03*
X007879Y003899D03*
X007879Y003893D03*
X007885Y003875D03*
X007885Y003869D03*
X007885Y003863D03*
X007891Y003839D03*
X007891Y003833D03*
X007897Y003809D03*
X007897Y003803D03*
X007897Y003797D03*
X007903Y003773D03*
X007903Y003767D03*
X007909Y003743D03*
X007909Y003737D03*
X007909Y003731D03*
X007915Y003713D03*
X007915Y003707D03*
X007915Y003701D03*
X007921Y003677D03*
X007921Y003671D03*
X007927Y003647D03*
X007927Y003641D03*
X007927Y003635D03*
X007933Y003617D03*
X007933Y003611D03*
X007933Y003605D03*
X008263Y004781D03*
X008263Y004787D03*
X008263Y004793D03*
X008263Y004799D03*
X008263Y004805D03*
X008263Y004811D03*
X008263Y004817D03*
X008263Y004823D03*
X008263Y004829D03*
X008263Y004835D03*
X008263Y004841D03*
X008263Y004847D03*
X008263Y004853D03*
X008263Y004859D03*
X008257Y004871D03*
X007495Y004829D03*
X007489Y004817D03*
X007489Y004811D03*
X007483Y004805D03*
X007483Y004799D03*
X007477Y004787D03*
X009703Y004013D03*
X009703Y004007D03*
X009955Y003785D03*
X009955Y003779D03*
X010405Y003623D03*
D57*
X009958Y003773D03*
X009700Y004019D03*
X008416Y004019D03*
X007876Y003923D03*
X007876Y003917D03*
X007876Y003911D03*
X007882Y003887D03*
X007882Y003881D03*
X007888Y003857D03*
X007888Y003851D03*
X007888Y003845D03*
X007894Y003827D03*
X007894Y003821D03*
X007894Y003815D03*
X007900Y003791D03*
X007900Y003785D03*
X007900Y003779D03*
X007906Y003761D03*
X007906Y003755D03*
X007906Y003749D03*
X007912Y003725D03*
X007912Y003719D03*
X007918Y003695D03*
X007918Y003689D03*
X007918Y003683D03*
X007924Y003665D03*
X007924Y003659D03*
X007924Y003653D03*
X007930Y003629D03*
X007930Y003623D03*
X007936Y003599D03*
X007870Y003941D03*
X007870Y003947D03*
X007870Y003953D03*
X007864Y003977D03*
X007864Y003983D03*
X007864Y003989D03*
X007858Y004007D03*
X007858Y004013D03*
X007858Y004019D03*
X007852Y004037D03*
X007852Y004043D03*
X007852Y004049D03*
X007846Y004073D03*
X007846Y004079D03*
X007846Y004085D03*
X007840Y004103D03*
X007840Y004109D03*
X007840Y004115D03*
X007834Y004133D03*
X007834Y004139D03*
X007834Y004145D03*
X007834Y004151D03*
X007828Y004169D03*
X007828Y004175D03*
X007444Y004703D03*
X007450Y004721D03*
X007456Y004733D03*
X007456Y004739D03*
X007462Y004745D03*
X007462Y004751D03*
X007468Y004757D03*
X007468Y004763D03*
X007468Y004769D03*
X007474Y004775D03*
X007474Y004781D03*
X007480Y004793D03*
X008230Y004985D03*
X008260Y004775D03*
X008260Y004769D03*
X008260Y004763D03*
X008260Y004757D03*
X008260Y004751D03*
X008260Y004745D03*
X008260Y004739D03*
X008254Y004709D03*
D58*
X008005Y005009D03*
X008353Y004013D03*
X008341Y003989D03*
X008341Y003983D03*
X008335Y003971D03*
X008335Y003965D03*
X008329Y003953D03*
X008329Y003947D03*
X008323Y003935D03*
X008323Y003929D03*
X008311Y003899D03*
X008305Y003881D03*
X008299Y003863D03*
X008293Y003845D03*
X008251Y003725D03*
X008245Y003707D03*
X008209Y003605D03*
X008209Y003599D03*
X006781Y004355D03*
X006781Y004361D03*
X006781Y004367D03*
X006793Y004391D03*
X006793Y004397D03*
X006601Y003863D03*
X006595Y003857D03*
X006595Y003851D03*
X006595Y003845D03*
X006589Y003839D03*
X006589Y003833D03*
X006583Y003821D03*
X006583Y003815D03*
X009643Y003599D03*
X010015Y003599D03*
X010015Y004181D03*
D59*
X010294Y004073D03*
X010432Y004181D03*
X010552Y004079D03*
X010594Y003719D03*
X009994Y003665D03*
X009664Y004127D03*
X009118Y003701D03*
X008992Y003599D03*
X008992Y004181D03*
X008416Y004121D03*
X008416Y004115D03*
X008296Y004901D03*
X008254Y004967D03*
X007252Y004937D03*
X007252Y004931D03*
X007246Y004925D03*
X007246Y004919D03*
X007240Y004907D03*
X007240Y004901D03*
D60*
X008413Y004145D03*
X008833Y004055D03*
X008839Y004061D03*
X009133Y004061D03*
X009139Y004055D03*
X009133Y003713D03*
X008833Y003725D03*
X009655Y004151D03*
X009655Y004157D03*
X009793Y003947D03*
X009805Y003929D03*
X009817Y003911D03*
X009829Y003893D03*
X009841Y003875D03*
X009853Y003857D03*
X009865Y003839D03*
X010003Y003641D03*
X010261Y003743D03*
X010267Y003737D03*
X010267Y003731D03*
X010273Y003725D03*
X010411Y003599D03*
X010603Y003737D03*
X010573Y004061D03*
X010567Y004067D03*
X010279Y004061D03*
X010273Y004055D03*
D61*
X010624Y003599D03*
X006406Y004403D03*
X006400Y004385D03*
X006394Y004373D03*
X006394Y004367D03*
X006388Y004355D03*
X006202Y003839D03*
D62*
X006499Y003707D03*
X006505Y003725D03*
X006511Y003743D03*
X006523Y003773D03*
X006529Y003791D03*
X006535Y003809D03*
X006559Y003875D03*
X006583Y003941D03*
X006631Y004073D03*
X006481Y003659D03*
X006475Y003641D03*
X006469Y003623D03*
X006463Y003611D03*
X006463Y003605D03*
D63*
X007054Y003605D03*
X007054Y003611D03*
X007060Y003623D03*
X007084Y003689D03*
X007090Y003701D03*
X007090Y003707D03*
X007114Y003767D03*
X007114Y003773D03*
X007120Y003785D03*
X007120Y003791D03*
X007144Y003851D03*
X007144Y003857D03*
X007150Y003869D03*
X007150Y003875D03*
X007174Y003935D03*
X007174Y003941D03*
X007180Y003953D03*
X007180Y003959D03*
X007204Y004019D03*
X007204Y004025D03*
X007210Y004031D03*
X007210Y004037D03*
X007210Y004043D03*
X007234Y004097D03*
X007234Y004103D03*
X007234Y004109D03*
X007240Y004115D03*
X007240Y004121D03*
X007504Y004841D03*
X007504Y004847D03*
X007510Y004859D03*
X008260Y004865D03*
D64*
X009394Y004175D03*
X009394Y004169D03*
X009394Y004163D03*
X009394Y004157D03*
X009394Y004151D03*
X009394Y004145D03*
X009394Y004139D03*
X009394Y004133D03*
X009394Y004127D03*
X009394Y004121D03*
X009394Y004115D03*
X009394Y004109D03*
X009394Y004103D03*
X009394Y004097D03*
X009394Y004091D03*
X009394Y004085D03*
X009394Y004079D03*
X009394Y004073D03*
X009394Y004067D03*
X009394Y004061D03*
X009394Y004055D03*
X009394Y004049D03*
X009394Y004043D03*
X009394Y004037D03*
X009394Y004031D03*
X009394Y004025D03*
X009394Y004019D03*
X009394Y004013D03*
X009394Y004007D03*
X009394Y004001D03*
X009394Y003995D03*
X009394Y003989D03*
X009394Y003983D03*
X009394Y003977D03*
X009394Y003971D03*
X009394Y003965D03*
X009394Y003959D03*
X009394Y003953D03*
X009394Y003947D03*
X009394Y003941D03*
X009394Y003935D03*
X009394Y003929D03*
X009394Y003923D03*
X009394Y003917D03*
X009394Y003911D03*
X009394Y003905D03*
X009394Y003899D03*
X009394Y003893D03*
X009394Y003887D03*
X009394Y003881D03*
X009394Y003875D03*
X009394Y003869D03*
X009394Y003863D03*
X009394Y003857D03*
X009394Y003851D03*
X009394Y003845D03*
X009394Y003839D03*
X009394Y003833D03*
X009394Y003827D03*
X009394Y003821D03*
X009394Y003815D03*
X009394Y003809D03*
X009394Y003803D03*
X009394Y003797D03*
X009394Y003791D03*
X009394Y003785D03*
X009394Y003779D03*
X009394Y003773D03*
X009394Y003767D03*
X009394Y003761D03*
X009394Y003755D03*
X009394Y003749D03*
X009394Y003743D03*
X009394Y003737D03*
X009394Y003731D03*
X009394Y003725D03*
X009394Y003719D03*
X009394Y003713D03*
X009394Y003707D03*
X009394Y003701D03*
X009394Y003695D03*
X009394Y003689D03*
X009394Y003683D03*
X009394Y003677D03*
X009394Y003671D03*
X009394Y003665D03*
X009394Y003659D03*
X009394Y003653D03*
X009394Y003647D03*
X009394Y003641D03*
X009394Y003635D03*
X009394Y003629D03*
X009394Y003623D03*
X009394Y003617D03*
X009394Y003611D03*
X009394Y003605D03*
X009154Y003749D03*
X009160Y003761D03*
X009160Y003767D03*
X009160Y004007D03*
X008800Y003989D03*
X008800Y003983D03*
X008800Y003977D03*
X008800Y003971D03*
X008794Y003965D03*
X008794Y003959D03*
X008794Y003953D03*
X008794Y003947D03*
X008794Y003941D03*
X008794Y003935D03*
X008794Y003929D03*
X008794Y003851D03*
X008794Y003845D03*
X008794Y003839D03*
X008794Y003833D03*
X008794Y003827D03*
X008794Y003821D03*
X008794Y003815D03*
X008800Y003809D03*
X008800Y003803D03*
X008800Y003797D03*
X008584Y003695D03*
X008584Y003689D03*
X008590Y003677D03*
X008590Y003671D03*
X008614Y003611D03*
X008614Y003605D03*
X010234Y003821D03*
X010234Y003827D03*
X010234Y003833D03*
X010234Y003839D03*
X010234Y003845D03*
X010234Y003851D03*
X010234Y003857D03*
X010240Y003809D03*
X010240Y003803D03*
X010240Y003797D03*
X010234Y003935D03*
X010234Y003941D03*
X010234Y003947D03*
X010234Y003953D03*
X010234Y003959D03*
X010234Y003965D03*
X010240Y003971D03*
X010240Y003977D03*
X010240Y003983D03*
X010240Y003989D03*
X010594Y004019D03*
X010594Y004025D03*
X010600Y004013D03*
X010600Y004007D03*
D65*
X010432Y004175D03*
X010312Y003695D03*
X009682Y004073D03*
X008992Y004175D03*
X008992Y003605D03*
D66*
X008860Y004079D03*
X008416Y004103D03*
X009670Y004109D03*
X009988Y003683D03*
X010300Y003701D03*
X010408Y003605D03*
D67*
X009961Y003761D03*
X009961Y003767D03*
X010429Y004169D03*
X008989Y004169D03*
X008413Y004025D03*
X008251Y004685D03*
X008251Y004691D03*
X008251Y004697D03*
X008251Y004703D03*
X008263Y004877D03*
X008233Y004979D03*
X007453Y004727D03*
X007441Y004697D03*
X007441Y004691D03*
X007435Y004685D03*
X007435Y004679D03*
X007429Y004673D03*
X007429Y004667D03*
X007429Y004661D03*
X007423Y004655D03*
X007423Y004649D03*
X007411Y004619D03*
X007405Y004607D03*
X007405Y004601D03*
X007399Y004589D03*
X007393Y004571D03*
X007381Y004541D03*
X007375Y004523D03*
X007369Y004505D03*
X007351Y004457D03*
X007345Y004439D03*
X008989Y003611D03*
D68*
X009166Y003773D03*
X009166Y003779D03*
X009166Y003785D03*
X008806Y003779D03*
X008788Y003881D03*
X008788Y003887D03*
X008788Y003893D03*
X008788Y003899D03*
X008806Y003995D03*
X008806Y004001D03*
X008572Y003725D03*
X008578Y003713D03*
X008578Y003707D03*
X008596Y003659D03*
X008596Y003653D03*
X008602Y003647D03*
X008602Y003641D03*
X008602Y003635D03*
X008608Y003629D03*
X008608Y003623D03*
X008608Y003617D03*
X008416Y004169D03*
X008416Y004175D03*
X010012Y003617D03*
X010012Y003611D03*
X010246Y003779D03*
X010228Y003869D03*
X010228Y003875D03*
X010228Y003881D03*
X010228Y003887D03*
X010228Y003893D03*
X010228Y003899D03*
X010228Y003905D03*
X010228Y003911D03*
X010228Y003917D03*
X010246Y004001D03*
X010612Y003779D03*
X010612Y003773D03*
X010612Y003767D03*
D69*
X010408Y003611D03*
X009976Y003719D03*
X008416Y004067D03*
X008416Y004073D03*
X008224Y005021D03*
D70*
X007858Y005093D03*
X007018Y005141D03*
X007006Y005111D03*
X007000Y005093D03*
X006994Y005075D03*
X006982Y005045D03*
X006976Y005027D03*
X006970Y005009D03*
X006964Y004991D03*
X006958Y004979D03*
X006952Y004961D03*
X006922Y004877D03*
X006916Y004859D03*
X006910Y004847D03*
X006910Y004841D03*
X006904Y004829D03*
X006898Y004811D03*
X006892Y004793D03*
X006886Y004781D03*
X006886Y004775D03*
X006880Y004763D03*
X006880Y004757D03*
X006874Y004745D03*
X006868Y004727D03*
X006862Y004715D03*
X006862Y004709D03*
X006856Y004697D03*
X006856Y004691D03*
X006826Y004613D03*
X006826Y004607D03*
X006820Y004595D03*
X006814Y004583D03*
X006814Y004577D03*
X006808Y004565D03*
X006808Y004559D03*
X006802Y004547D03*
X006802Y004541D03*
X006796Y004529D03*
X006790Y004517D03*
X006790Y004511D03*
X006784Y004499D03*
X006784Y004493D03*
X006778Y004481D03*
X006778Y004475D03*
X006772Y004463D03*
X006772Y004457D03*
X006766Y004451D03*
X006766Y004445D03*
X006760Y004433D03*
X006760Y004427D03*
X006754Y004415D03*
X006754Y004409D03*
X006730Y004349D03*
X006730Y004343D03*
X006724Y004331D03*
X006724Y004325D03*
X006718Y004319D03*
X006718Y004313D03*
X006718Y004307D03*
X006712Y004301D03*
X006712Y004295D03*
X006706Y004283D03*
X006706Y004277D03*
X006700Y004265D03*
X006700Y004259D03*
X006694Y004253D03*
X006694Y004247D03*
X006694Y004241D03*
X006688Y004235D03*
X006688Y004229D03*
X006682Y004217D03*
X006682Y004211D03*
X006676Y004199D03*
X006676Y004193D03*
X006670Y004187D03*
X006670Y004181D03*
X006670Y004175D03*
X006664Y004169D03*
X006664Y004163D03*
X006664Y004157D03*
X006658Y004151D03*
X006628Y004067D03*
X006628Y004061D03*
X006622Y004055D03*
X006622Y004049D03*
X006622Y004043D03*
X006616Y004037D03*
X006616Y004031D03*
X006616Y004025D03*
X006610Y004019D03*
X006610Y004013D03*
X006604Y004001D03*
X006604Y003995D03*
X006598Y003989D03*
X006598Y003983D03*
X006598Y003977D03*
X006592Y003971D03*
X006592Y003965D03*
X006592Y003959D03*
X006586Y003953D03*
X006586Y003947D03*
X006580Y003935D03*
X006580Y003929D03*
X006574Y003917D03*
X006574Y003911D03*
X006568Y003905D03*
X006568Y003899D03*
X006568Y003893D03*
X006562Y003887D03*
X006562Y003881D03*
X006556Y003869D03*
X006532Y003803D03*
X006532Y003797D03*
X006526Y003785D03*
X006526Y003779D03*
X006520Y003767D03*
X006520Y003761D03*
X006514Y003755D03*
X006514Y003749D03*
X006508Y003737D03*
X006508Y003731D03*
X006502Y003719D03*
X006502Y003713D03*
X006496Y003701D03*
X006496Y003695D03*
X006490Y003689D03*
X006490Y003683D03*
X006484Y003671D03*
X006484Y003665D03*
X006478Y003653D03*
X006478Y003647D03*
X006472Y003635D03*
X006472Y003629D03*
X006466Y003617D03*
D71*
X007549Y004925D03*
X008989Y003623D03*
D72*
X009145Y003731D03*
X009151Y003743D03*
X009157Y003755D03*
X008821Y003743D03*
X008815Y003755D03*
X008815Y003761D03*
X008809Y003767D03*
X008809Y003773D03*
X008803Y003785D03*
X008803Y003791D03*
X008809Y004007D03*
X008809Y004013D03*
X008815Y004019D03*
X008815Y004025D03*
X008821Y004037D03*
X009151Y004031D03*
X009151Y004025D03*
X009157Y004019D03*
X009157Y004013D03*
X009649Y004169D03*
X009649Y004175D03*
X010243Y003995D03*
X010249Y004007D03*
X010249Y004013D03*
X010255Y004019D03*
X010255Y004025D03*
X010585Y004037D03*
X010585Y004043D03*
X010591Y004031D03*
X010609Y003761D03*
X010609Y003755D03*
X010249Y003767D03*
X010249Y003773D03*
X010243Y003785D03*
X010243Y003791D03*
X010237Y003815D03*
X010009Y003623D03*
X008413Y004163D03*
D73*
X008101Y004433D03*
X008095Y004427D03*
X008089Y004421D03*
X008083Y004415D03*
X008113Y004451D03*
X008119Y004463D03*
X008125Y004469D03*
X008125Y004475D03*
X007555Y004937D03*
X008989Y003629D03*
X010429Y004151D03*
D74*
X010576Y004055D03*
X010270Y004049D03*
X010264Y004043D03*
X010264Y004037D03*
X010258Y004031D03*
X010258Y003755D03*
X010258Y003749D03*
X010006Y003635D03*
X010006Y003629D03*
X009874Y003827D03*
X009868Y003833D03*
X009856Y003851D03*
X009850Y003863D03*
X009844Y003869D03*
X009838Y003881D03*
X009826Y003899D03*
X009820Y003905D03*
X009814Y003917D03*
X009808Y003923D03*
X009796Y003941D03*
X009790Y003953D03*
X009784Y003959D03*
X009148Y004037D03*
X008830Y004049D03*
X008824Y004043D03*
X008818Y004031D03*
X008818Y003749D03*
X008824Y003737D03*
X008830Y003731D03*
X009136Y003719D03*
X009148Y003737D03*
X008416Y004151D03*
X008416Y004157D03*
X008236Y004961D03*
X010606Y003749D03*
X010606Y003743D03*
D75*
X009952Y003791D03*
X009706Y003995D03*
X009706Y004001D03*
X007498Y004835D03*
X007492Y004823D03*
X007258Y004175D03*
X007258Y004169D03*
X007258Y004163D03*
X007252Y004157D03*
X007252Y004151D03*
X007246Y004139D03*
X007246Y004133D03*
X007228Y004091D03*
X007228Y004085D03*
X007222Y004073D03*
X007222Y004067D03*
X007216Y004055D03*
X007216Y004049D03*
X007198Y004007D03*
X007198Y004001D03*
X007192Y003989D03*
X007192Y003983D03*
X007186Y003971D03*
X007186Y003965D03*
X007168Y003923D03*
X007168Y003917D03*
X007162Y003905D03*
X007162Y003899D03*
X007156Y003893D03*
X007156Y003887D03*
X007138Y003839D03*
X007138Y003833D03*
X007132Y003827D03*
X007132Y003821D03*
X007126Y003809D03*
X007126Y003803D03*
X007108Y003761D03*
X007108Y003755D03*
X007102Y003743D03*
X007102Y003737D03*
X007096Y003725D03*
X007096Y003719D03*
X007078Y003677D03*
X007078Y003671D03*
X007072Y003659D03*
X007072Y003653D03*
X007066Y003641D03*
X007066Y003635D03*
D76*
X008149Y004535D03*
X007579Y004961D03*
X008989Y003635D03*
D77*
X008992Y004157D03*
X009718Y003965D03*
X009940Y003821D03*
X010402Y003635D03*
X010432Y004157D03*
X007540Y004913D03*
D78*
X007591Y004973D03*
X008989Y004139D03*
X008989Y003641D03*
X010399Y003665D03*
X010429Y004139D03*
D79*
X010402Y003641D03*
X008116Y004457D03*
X008110Y004445D03*
X008104Y004439D03*
X007552Y004931D03*
D80*
X008989Y004133D03*
X008989Y003647D03*
X010429Y004133D03*
D81*
X010600Y003731D03*
X010000Y003647D03*
X009658Y004145D03*
X009124Y003707D03*
X008842Y003713D03*
X008836Y003719D03*
X008416Y004133D03*
X008416Y004139D03*
D82*
X008080Y004409D03*
X008074Y004403D03*
X008128Y004481D03*
X008134Y004487D03*
X008134Y004493D03*
X007564Y004943D03*
X008992Y004151D03*
X010402Y003647D03*
D83*
X010429Y004127D03*
X008989Y004127D03*
X008989Y003653D03*
X007603Y004985D03*
D84*
X008146Y004529D03*
X008146Y004523D03*
X008056Y004391D03*
X008992Y004145D03*
X010402Y003653D03*
D85*
X010429Y004121D03*
X008989Y004121D03*
X008989Y003659D03*
D86*
X008152Y004541D03*
X008152Y004547D03*
X008152Y004553D03*
X007582Y004967D03*
X010402Y003659D03*
D87*
X008989Y003665D03*
X008989Y004115D03*
X008413Y003821D03*
D88*
X008413Y003803D03*
X008989Y003671D03*
X008989Y004109D03*
D89*
X009115Y004079D03*
X008413Y004109D03*
X009991Y003677D03*
X009991Y003671D03*
X010291Y003707D03*
X010591Y003713D03*
D90*
X006607Y004007D03*
X006577Y003923D03*
X006487Y003677D03*
D91*
X010450Y003677D03*
X010450Y003683D03*
D92*
X010426Y004091D03*
X010426Y004097D03*
X008986Y004097D03*
X008986Y003683D03*
X008416Y003779D03*
D93*
X008416Y003761D03*
X008986Y003689D03*
X008986Y004085D03*
X010426Y004085D03*
X007420Y004385D03*
D94*
X010447Y003689D03*
D95*
X009982Y003701D03*
X009676Y004091D03*
X008872Y003695D03*
X008416Y004085D03*
D96*
X008413Y004043D03*
X008227Y005003D03*
X009691Y004049D03*
X009691Y004043D03*
X009967Y003749D03*
X009967Y003743D03*
X010567Y003695D03*
D97*
X009667Y004115D03*
X009667Y004121D03*
X008857Y003701D03*
D98*
X008413Y004079D03*
X008281Y004889D03*
X009679Y004085D03*
X009679Y004079D03*
X009979Y003713D03*
X009979Y003707D03*
X010579Y003701D03*
D99*
X010285Y003713D03*
X010279Y003719D03*
X010285Y004067D03*
X008845Y004067D03*
X007255Y004943D03*
D100*
X008302Y004907D03*
X009142Y004049D03*
X009142Y004043D03*
X009142Y003725D03*
X009652Y004163D03*
X009802Y003935D03*
X009832Y003887D03*
X009862Y003845D03*
X010252Y003761D03*
X010582Y004049D03*
D101*
X009973Y003731D03*
X009973Y003725D03*
X009685Y004061D03*
X009685Y004067D03*
X008413Y004061D03*
X008233Y004607D03*
X008227Y005015D03*
D102*
X008416Y003731D03*
D103*
X008413Y003737D03*
D104*
X008416Y004049D03*
X008416Y004055D03*
X008218Y004577D03*
X008224Y004583D03*
X008224Y004589D03*
X008230Y004595D03*
X008230Y004601D03*
X008236Y004613D03*
X008236Y004619D03*
X008236Y004625D03*
X008242Y004637D03*
X008272Y004883D03*
X008230Y005009D03*
X009688Y004055D03*
X009970Y003737D03*
D105*
X008416Y003743D03*
X008416Y003749D03*
D106*
X008413Y003755D03*
D107*
X008413Y003767D03*
X008413Y003773D03*
X008989Y004091D03*
X007645Y005009D03*
D108*
X008413Y003791D03*
X008413Y003785D03*
D109*
X009151Y003797D03*
X009139Y003995D03*
X008329Y004925D03*
X008203Y004949D03*
X006403Y004397D03*
X006403Y004391D03*
X006397Y004379D03*
X006391Y004361D03*
X006211Y003863D03*
X006211Y003857D03*
X006205Y003851D03*
X006205Y003845D03*
X006199Y003833D03*
X006199Y003827D03*
X006193Y003821D03*
X006193Y003815D03*
X010585Y003995D03*
D110*
X009139Y003803D03*
X008335Y004931D03*
X008185Y004943D03*
D111*
X008416Y003815D03*
X008416Y003809D03*
X010426Y004109D03*
D112*
X009127Y003809D03*
X007999Y004577D03*
X007999Y004583D03*
X007933Y004733D03*
X008353Y004943D03*
D113*
X007528Y004895D03*
X007516Y004871D03*
X009946Y003809D03*
D114*
X009115Y003815D03*
X008359Y004949D03*
D115*
X007537Y004907D03*
X007531Y004901D03*
X007525Y004889D03*
X009715Y003971D03*
X009943Y003815D03*
D116*
X008347Y004001D03*
X008317Y003917D03*
X008317Y003911D03*
X008287Y003833D03*
X008287Y003827D03*
X006787Y004373D03*
X006787Y004379D03*
X006787Y004385D03*
D117*
X007522Y004883D03*
X009712Y003983D03*
X009712Y003977D03*
D118*
X010555Y003977D03*
X008149Y004931D03*
X007927Y004745D03*
D119*
X007951Y004709D03*
X007993Y004631D03*
X007993Y004625D03*
X007993Y004619D03*
X008167Y004937D03*
X009121Y003983D03*
X010567Y003983D03*
D120*
X010576Y003989D03*
D121*
X009697Y004025D03*
X009697Y004031D03*
X008257Y004715D03*
X008257Y004721D03*
X008257Y004727D03*
X008257Y004733D03*
X007447Y004715D03*
X007447Y004709D03*
X007417Y004637D03*
X007417Y004631D03*
D122*
X007618Y004997D03*
X010426Y004115D03*
D123*
X007867Y005075D03*
X007543Y004187D03*
X007543Y004181D03*
D124*
X007546Y004193D03*
X007864Y005081D03*
D125*
X007861Y005087D03*
X007543Y004205D03*
X007543Y004199D03*
D126*
X006775Y004469D03*
X006781Y004487D03*
X006787Y004505D03*
X006793Y004523D03*
X006799Y004535D03*
X006805Y004553D03*
X006811Y004571D03*
X006817Y004589D03*
X006823Y004601D03*
X006859Y004703D03*
X006865Y004721D03*
X006871Y004733D03*
X006871Y004739D03*
X006877Y004751D03*
X006883Y004769D03*
X006889Y004787D03*
X006895Y004799D03*
X006895Y004805D03*
X006901Y004817D03*
X006901Y004823D03*
X006907Y004835D03*
X006913Y004853D03*
X006919Y004865D03*
X006919Y004871D03*
X006925Y004883D03*
X006925Y004889D03*
X006949Y004949D03*
X006949Y004955D03*
X006955Y004967D03*
X006955Y004973D03*
X006961Y004985D03*
X006967Y004997D03*
X006967Y005003D03*
X006973Y005015D03*
X006973Y005021D03*
X006979Y005033D03*
X006979Y005039D03*
X006985Y005051D03*
X006985Y005057D03*
X006991Y005063D03*
X006991Y005069D03*
X006997Y005081D03*
X006997Y005087D03*
X007003Y005099D03*
X007003Y005105D03*
X007009Y005117D03*
X007009Y005123D03*
X007015Y005129D03*
X007015Y005135D03*
X007021Y005147D03*
X007021Y005153D03*
X006763Y004439D03*
X006757Y004421D03*
X006727Y004337D03*
X006709Y004289D03*
X006703Y004271D03*
X006685Y004223D03*
X006679Y004205D03*
D127*
X007546Y004211D03*
X007546Y004217D03*
X007546Y004223D03*
D128*
X007564Y004229D03*
D129*
X007576Y004235D03*
X007876Y005057D03*
D130*
X007588Y004241D03*
D131*
X007597Y004247D03*
D132*
X007603Y004253D03*
D133*
X007612Y004259D03*
D134*
X007618Y004265D03*
D135*
X007624Y004271D03*
X007630Y004277D03*
D136*
X007636Y004283D03*
D137*
X007648Y004295D03*
D138*
X007651Y004301D03*
D139*
X007654Y004307D03*
X007660Y004313D03*
D140*
X007666Y004319D03*
D141*
X007669Y004325D03*
X007675Y004331D03*
D142*
X007678Y004337D03*
D143*
X007684Y004343D03*
D144*
X007687Y004349D03*
D145*
X007690Y004355D03*
X007696Y004361D03*
D146*
X007699Y004367D03*
D147*
X007702Y004373D03*
D148*
X008044Y004385D03*
D149*
X008140Y004511D03*
X008140Y004517D03*
X007570Y004955D03*
D150*
X007954Y004703D03*
X007960Y004697D03*
X007966Y004691D03*
X007990Y004643D03*
X007990Y004637D03*
X008014Y004559D03*
X008344Y004937D03*
D151*
X008245Y004661D03*
X008245Y004655D03*
X008245Y004649D03*
X008245Y004643D03*
X008239Y004631D03*
X008215Y004571D03*
X008209Y004565D03*
D152*
X007996Y004589D03*
X007996Y004595D03*
X007930Y004739D03*
D153*
X007987Y004655D03*
X007987Y004649D03*
D154*
X007981Y004661D03*
X007981Y004667D03*
X007975Y004673D03*
X007975Y004679D03*
X007969Y004685D03*
D155*
X007945Y004715D03*
X007939Y004721D03*
D156*
X007924Y004751D03*
D157*
X007543Y004919D03*
D158*
X008260Y004973D03*
D159*
X007597Y004979D03*
D160*
X007612Y004991D03*
D161*
X007762Y005015D03*
D162*
X007774Y005021D03*
D163*
X007882Y005027D03*
X007882Y005033D03*
D164*
X007882Y005039D03*
D165*
X007879Y005045D03*
D166*
X007873Y005063D03*
D167*
X007870Y005069D03*
D168*
X007849Y005105D03*
D169*
X007846Y005111D03*
D170*
X007837Y005117D03*
D171*
X007834Y005123D03*
D172*
X007825Y005129D03*
D173*
X007813Y005135D03*
D174*
X007804Y005141D03*
D175*
X007789Y005147D03*
D176*
X007759Y005153D03*
D177*
X007947Y006046D02*
X007947Y007070D01*
X005309Y007070D01*
X005309Y006046D01*
X007947Y006046D01*
X008776Y007533D02*
X008976Y007533D01*
X007849Y008535D02*
X007349Y008535D01*
X007349Y009685D01*
X007849Y009685D01*
X007849Y008535D01*
X007849Y009785D02*
X007349Y009785D01*
X007349Y010935D01*
X007849Y010935D01*
X007849Y009785D01*
X008787Y010360D02*
X008787Y010860D01*
X009937Y010860D01*
X009937Y010360D01*
X008787Y010360D01*
X010974Y009144D02*
X010974Y008526D01*
X011098Y008403D01*
X011345Y008403D01*
X011468Y008526D01*
X011468Y009144D01*
X011729Y009020D02*
X011853Y009144D01*
X012100Y009144D01*
X012223Y009020D01*
X012223Y008897D01*
X011729Y008403D01*
X012223Y008403D01*
X014057Y006357D02*
X014057Y006157D01*
X014804Y006389D02*
X014804Y011673D01*
X020092Y011673D01*
X020092Y006389D01*
X014804Y006389D01*
X016712Y004579D02*
X016912Y004579D01*
X018815Y004677D02*
X019015Y004677D01*
X019191Y004677D02*
X019391Y004677D01*
X019572Y004677D02*
X019772Y004677D01*
X019948Y004677D02*
X020148Y004677D01*
X020324Y004677D02*
X020524Y004677D01*
X021210Y006589D02*
X021398Y006658D01*
X017034Y002698D02*
X017034Y002498D01*
X014170Y011142D02*
X006130Y011142D01*
X006445Y011457D01*
X006445Y014055D01*
X006130Y014370D01*
X006130Y011142D01*
X006445Y011457D02*
X013855Y011457D01*
X014170Y011142D01*
X014170Y014370D01*
X013855Y014055D01*
X010898Y014055D01*
X010898Y014063D02*
X010898Y014343D01*
X009402Y014343D02*
X009402Y014063D01*
X009402Y014055D02*
X006445Y014055D01*
X006130Y014370D02*
X014170Y014370D01*
X013855Y014055D02*
X013855Y011457D01*
X014875Y012895D02*
X015075Y012895D01*
X015475Y012897D02*
X015675Y012897D01*
X010506Y016480D02*
X010306Y016480D01*
X006410Y016298D02*
X006410Y015510D01*
X004520Y015510D01*
X004520Y016298D01*
X006410Y016298D01*
X006066Y016598D02*
X006066Y016798D01*
X006053Y015323D02*
X006053Y015123D01*
X004895Y015059D02*
X004895Y015259D01*
X004874Y008181D02*
X004874Y007981D01*
X003795Y006433D02*
X001630Y006433D01*
X001630Y006432D02*
X001613Y006431D01*
X001596Y006426D01*
X001581Y006419D01*
X001567Y006409D01*
X001555Y006397D01*
X001545Y006383D01*
X001538Y006368D01*
X001533Y006351D01*
X001532Y006334D01*
X001531Y006334D02*
X001531Y006177D01*
X002122Y006039D02*
X002122Y005448D01*
X003303Y005448D01*
X003303Y006039D01*
X002122Y006039D01*
X001531Y005311D02*
X001531Y005153D01*
X001532Y005153D02*
X001533Y005136D01*
X001538Y005119D01*
X001545Y005104D01*
X001555Y005090D01*
X001567Y005078D01*
X001581Y005068D01*
X001596Y005061D01*
X001613Y005056D01*
X001630Y005055D01*
X003795Y005055D01*
X003812Y005056D01*
X003829Y005061D01*
X003844Y005068D01*
X003858Y005078D01*
X003870Y005090D01*
X003880Y005104D01*
X003887Y005119D01*
X003892Y005136D01*
X003893Y005153D01*
X003894Y005153D02*
X003894Y005311D01*
X003894Y006177D02*
X003894Y006334D01*
X003893Y006334D02*
X003892Y006351D01*
X003887Y006368D01*
X003880Y006383D01*
X003870Y006397D01*
X003858Y006409D01*
X003844Y006419D01*
X003829Y006426D01*
X003812Y006431D01*
X003795Y006432D01*
X021363Y011194D02*
X021363Y011394D01*
X021367Y011619D02*
X021367Y011819D01*
D178*
X014990Y006866D02*
X014992Y006900D01*
X014998Y006934D01*
X015008Y006967D01*
X015021Y006998D01*
X015039Y007028D01*
X015059Y007056D01*
X015083Y007081D01*
X015109Y007103D01*
X015137Y007121D01*
X015168Y007137D01*
X015200Y007149D01*
X015234Y007157D01*
X015268Y007161D01*
X015302Y007161D01*
X015336Y007157D01*
X015370Y007149D01*
X015402Y007137D01*
X015432Y007121D01*
X015461Y007103D01*
X015487Y007081D01*
X015511Y007056D01*
X015531Y007028D01*
X015549Y006998D01*
X015562Y006967D01*
X015572Y006934D01*
X015578Y006900D01*
X015580Y006866D01*
X015578Y006832D01*
X015572Y006798D01*
X015562Y006765D01*
X015549Y006734D01*
X015531Y006704D01*
X015511Y006676D01*
X015487Y006651D01*
X015461Y006629D01*
X015433Y006611D01*
X015402Y006595D01*
X015370Y006583D01*
X015336Y006575D01*
X015302Y006571D01*
X015268Y006571D01*
X015234Y006575D01*
X015200Y006583D01*
X015168Y006595D01*
X015137Y006611D01*
X015109Y006629D01*
X015083Y006651D01*
X015059Y006676D01*
X015039Y006704D01*
X015021Y006734D01*
X015008Y006765D01*
X014998Y006798D01*
X014992Y006832D01*
X014990Y006866D01*
D179*
X004350Y002081D02*
X004350Y000581D01*
X004600Y000331D01*
X005100Y000331D01*
X005350Y000581D01*
X005350Y002081D01*
X005600Y002331D01*
X006100Y002331D01*
X006350Y002081D01*
X006350Y000581D01*
X006600Y000331D01*
X007100Y000331D01*
X007350Y000581D01*
X007350Y002081D01*
X007600Y002331D01*
X008100Y002331D01*
X008350Y002081D01*
X008350Y000581D01*
X008600Y000331D01*
X009100Y000331D01*
X009350Y000581D01*
X009350Y002081D01*
X009600Y002331D01*
X010100Y002331D01*
X010350Y002081D01*
X010350Y000581D01*
X010600Y000331D01*
X011100Y000331D01*
X011350Y000581D01*
X011350Y002081D01*
X011600Y002331D01*
X012100Y002331D01*
X012350Y002081D01*
X012600Y002331D01*
X013100Y002331D01*
X013350Y002081D01*
X013350Y000581D01*
X013100Y000331D01*
X012600Y000331D01*
X012350Y000581D01*
X012350Y002081D01*
X011350Y002081D02*
X011100Y002331D01*
X010600Y002331D01*
X010350Y002081D01*
X009350Y002081D02*
X009100Y002331D01*
X008600Y002331D01*
X008350Y002081D01*
X007350Y002081D02*
X007100Y002331D01*
X006600Y002331D01*
X006350Y002081D01*
X005350Y002081D02*
X005100Y002331D01*
X004600Y002331D01*
X004350Y002081D01*
X005350Y000581D02*
X005600Y000331D01*
X006100Y000331D01*
X006350Y000581D01*
X007350Y000581D02*
X007600Y000331D01*
X008100Y000331D01*
X008350Y000581D01*
X009350Y000581D02*
X009600Y000331D01*
X010100Y000331D01*
X010350Y000581D01*
X011350Y000581D02*
X011600Y000331D01*
X012100Y000331D01*
X012350Y000581D01*
X013600Y000581D02*
X013600Y002081D01*
X013850Y002331D01*
X014350Y002331D01*
X014600Y002081D01*
X014600Y000581D01*
X014850Y000331D01*
X015350Y000331D01*
X015600Y000581D01*
X015600Y002081D01*
X015850Y002331D01*
X016350Y002331D01*
X016600Y002081D01*
X016600Y000581D01*
X016850Y000331D01*
X017350Y000331D01*
X017600Y000581D01*
X017600Y002081D01*
X017850Y002331D01*
X018350Y002331D01*
X018600Y002081D01*
X018600Y000581D01*
X018850Y000331D01*
X019350Y000331D01*
X019600Y000581D01*
X019600Y002081D01*
X019850Y002331D01*
X020350Y002331D01*
X020600Y002081D01*
X020850Y002331D01*
X021350Y002331D01*
X021600Y002081D01*
X021600Y000581D01*
X021350Y000331D01*
X020850Y000331D01*
X020600Y000581D01*
X020600Y002081D01*
X019600Y002081D02*
X019350Y002331D01*
X018850Y002331D01*
X018600Y002081D01*
X018351Y002451D02*
X018351Y002711D01*
X018221Y002581D01*
X018394Y002581D01*
X018100Y002451D02*
X017926Y002451D01*
X018013Y002451D02*
X018013Y002711D01*
X017926Y002625D01*
X017805Y002668D02*
X017762Y002711D01*
X017675Y002711D01*
X017631Y002668D01*
X017631Y002494D01*
X017675Y002451D01*
X017762Y002451D01*
X017805Y002494D01*
X017600Y002081D02*
X017350Y002331D01*
X016850Y002331D01*
X016600Y002081D01*
X015600Y002081D02*
X015350Y002331D01*
X014850Y002331D01*
X014600Y002081D01*
X016224Y003287D02*
X016268Y003287D01*
X016354Y003374D01*
X016484Y003374D01*
X016354Y003374D02*
X016268Y003460D01*
X016224Y003460D01*
X016311Y003582D02*
X016224Y003668D01*
X016484Y003668D01*
X016484Y003582D02*
X016484Y003755D01*
X017320Y004641D02*
X017493Y004641D01*
X017537Y004685D01*
X017537Y004772D01*
X017493Y004815D01*
X017537Y004936D02*
X017537Y005110D01*
X017537Y005023D02*
X017276Y005023D01*
X017363Y004936D01*
X017320Y004815D02*
X017276Y004772D01*
X017276Y004685D01*
X017320Y004641D01*
X017276Y005231D02*
X017406Y005231D01*
X017363Y005317D01*
X017363Y005361D01*
X017406Y005404D01*
X017493Y005404D01*
X017537Y005361D01*
X017537Y005274D01*
X017493Y005231D01*
X017276Y005231D02*
X017276Y005404D01*
X019192Y003968D02*
X019192Y003881D01*
X019235Y003838D01*
X019192Y003968D02*
X019235Y004011D01*
X019279Y004011D01*
X019452Y003838D01*
X019452Y004011D01*
X019569Y003969D02*
X019612Y004012D01*
X019655Y004012D01*
X019699Y003969D01*
X019742Y004012D01*
X019785Y004012D01*
X019829Y003969D01*
X019829Y003882D01*
X019785Y003839D01*
X019699Y003925D02*
X019699Y003969D01*
X019569Y003969D02*
X019569Y003882D01*
X019612Y003839D01*
X019452Y003717D02*
X019452Y003543D01*
X019452Y003630D02*
X019192Y003630D01*
X019279Y003543D01*
X019235Y003422D02*
X019192Y003379D01*
X019192Y003292D01*
X019235Y003248D01*
X019409Y003248D01*
X019452Y003292D01*
X019452Y003379D01*
X019409Y003422D01*
X019569Y003380D02*
X019569Y003293D01*
X019612Y003249D01*
X019785Y003249D01*
X019829Y003293D01*
X019829Y003380D01*
X019785Y003423D01*
X019829Y003544D02*
X019829Y003718D01*
X019829Y003631D02*
X019569Y003631D01*
X019655Y003544D01*
X019612Y003423D02*
X019569Y003380D01*
X019943Y003380D02*
X019943Y003293D01*
X019986Y003249D01*
X020160Y003249D01*
X020203Y003293D01*
X020203Y003380D01*
X020160Y003423D01*
X020160Y003544D02*
X020203Y003587D01*
X020203Y003674D01*
X020160Y003718D01*
X020117Y003718D01*
X020073Y003674D01*
X020073Y003631D01*
X020073Y003674D02*
X020030Y003718D01*
X019986Y003718D01*
X019943Y003674D01*
X019943Y003587D01*
X019986Y003544D01*
X019986Y003423D02*
X019943Y003380D01*
X020330Y003379D02*
X020330Y003292D01*
X020373Y003248D01*
X020546Y003248D01*
X020590Y003292D01*
X020590Y003379D01*
X020546Y003422D01*
X020460Y003543D02*
X020460Y003717D01*
X020590Y003673D02*
X020330Y003673D01*
X020460Y003543D01*
X020373Y003422D02*
X020330Y003379D01*
X019069Y003379D02*
X019069Y003292D01*
X019025Y003248D01*
X018852Y003248D01*
X018809Y003292D01*
X018809Y003379D01*
X018852Y003422D01*
X018852Y003543D02*
X018895Y003543D01*
X018939Y003586D01*
X018939Y003717D01*
X019025Y003717D02*
X018852Y003717D01*
X018809Y003673D01*
X018809Y003586D01*
X018852Y003543D01*
X019025Y003543D02*
X019069Y003586D01*
X019069Y003673D01*
X019025Y003717D01*
X019025Y003422D02*
X019069Y003379D01*
X021614Y002798D02*
X021787Y002798D01*
X021700Y002798D02*
X021700Y002538D01*
X021908Y002538D02*
X021908Y002798D01*
X022038Y002798D01*
X022082Y002754D01*
X022082Y002668D01*
X022038Y002624D01*
X021908Y002624D01*
X022203Y002538D02*
X022376Y002538D01*
X022290Y002538D02*
X022290Y002798D01*
X022203Y002711D01*
X022850Y003606D02*
X022600Y003856D01*
X022600Y004356D01*
X022850Y004606D01*
X024350Y004606D01*
X024600Y004856D01*
X024600Y005356D01*
X024350Y005606D01*
X022850Y005606D01*
X022600Y005856D01*
X022600Y006356D01*
X022850Y006606D01*
X024350Y006606D01*
X024600Y006856D01*
X024600Y007356D01*
X024350Y007606D01*
X022850Y007606D01*
X022600Y007856D01*
X022600Y008356D01*
X022850Y008606D01*
X024350Y008606D01*
X024600Y008856D01*
X024600Y009356D01*
X024350Y009606D01*
X022850Y009606D01*
X022600Y009856D01*
X022600Y010356D01*
X022850Y010606D01*
X024350Y010606D01*
X024600Y010356D01*
X024600Y009856D01*
X024350Y009606D01*
X024350Y010606D02*
X024600Y010856D01*
X024600Y011356D01*
X024350Y011606D01*
X022850Y011606D01*
X022600Y011856D01*
X022600Y012356D01*
X022850Y012606D01*
X024350Y012606D01*
X024600Y012356D01*
X024600Y011856D01*
X024350Y011606D01*
X024350Y012606D02*
X024600Y012856D01*
X024600Y013356D01*
X024350Y013606D01*
X024600Y013856D01*
X024600Y014356D01*
X024350Y014606D01*
X022850Y014606D01*
X022600Y014356D01*
X022600Y013856D01*
X022850Y013606D01*
X024350Y013606D01*
X022850Y013606D02*
X022600Y013356D01*
X022600Y012856D01*
X022850Y012606D01*
X022401Y011874D02*
X022228Y011874D01*
X022106Y011831D02*
X022063Y011874D01*
X021976Y011874D01*
X021933Y011831D01*
X021933Y011657D01*
X021976Y011614D01*
X022063Y011614D01*
X022106Y011657D01*
X022228Y011657D02*
X022228Y011614D01*
X022228Y011657D02*
X022401Y011831D01*
X022401Y011874D01*
X022850Y011606D02*
X022600Y011356D01*
X022600Y010856D01*
X022850Y010606D01*
X022392Y011153D02*
X022219Y011153D01*
X022392Y011326D01*
X022392Y011369D01*
X022349Y011413D01*
X022262Y011413D01*
X022219Y011369D01*
X022097Y011369D02*
X022054Y011413D01*
X021967Y011413D01*
X021924Y011369D01*
X021924Y011196D01*
X021967Y011153D01*
X022054Y011153D01*
X022097Y011196D01*
X022850Y009606D02*
X022600Y009356D01*
X022600Y008856D01*
X022850Y008606D01*
X022850Y007606D02*
X022600Y007356D01*
X022600Y006856D01*
X022850Y006606D01*
X021879Y006643D02*
X021853Y006588D01*
X021812Y006573D01*
X021756Y006599D01*
X021727Y006680D01*
X021753Y006736D01*
X021793Y006751D01*
X021849Y006725D01*
X021879Y006643D01*
X021756Y006599D02*
X021731Y006543D01*
X021690Y006528D01*
X021634Y006554D01*
X021605Y006636D01*
X021630Y006691D01*
X021671Y006706D01*
X021727Y006680D01*
X021752Y006865D02*
X021778Y006920D01*
X021748Y007002D01*
X021693Y007028D01*
X021530Y006968D01*
X021504Y006913D01*
X021533Y006831D01*
X021589Y006805D01*
X022850Y005606D02*
X022600Y005356D01*
X022600Y004856D01*
X022850Y004606D01*
X022850Y003606D02*
X024350Y003606D01*
X024600Y003856D01*
X024600Y004356D01*
X024350Y004606D01*
X024350Y005606D02*
X024600Y005856D01*
X024600Y006356D01*
X024350Y006606D01*
X024350Y007606D02*
X024600Y007856D01*
X024600Y008356D01*
X024350Y008606D01*
X022351Y013610D02*
X021851Y013610D01*
X021601Y013860D01*
X021601Y014360D01*
X021851Y014610D01*
X022351Y014610D01*
X022601Y014360D01*
X022601Y013860D01*
X022351Y013610D01*
X022300Y014944D02*
X021800Y014944D01*
X021550Y015194D01*
X021550Y016694D01*
X021300Y016944D01*
X020800Y016944D01*
X020550Y016694D01*
X020550Y015194D01*
X020300Y014944D01*
X019800Y014944D01*
X019550Y015194D01*
X019550Y016694D01*
X019300Y016944D01*
X018800Y016944D01*
X018550Y016694D01*
X018550Y015194D01*
X018300Y014944D01*
X017800Y014944D01*
X017550Y015194D01*
X017550Y016694D01*
X017300Y016944D01*
X016800Y016944D01*
X016550Y016694D01*
X016550Y015194D01*
X016300Y014944D01*
X015800Y014944D01*
X015550Y015194D01*
X015550Y016694D01*
X015800Y016944D01*
X016300Y016944D01*
X016550Y016694D01*
X015550Y016694D02*
X015300Y016944D01*
X014800Y016944D01*
X014550Y016694D01*
X014550Y015194D01*
X014300Y014944D01*
X013800Y014944D01*
X013550Y015194D01*
X013550Y016694D01*
X013800Y016944D01*
X014300Y016944D01*
X014550Y016694D01*
X013550Y016694D02*
X013300Y016944D01*
X012800Y016944D01*
X012550Y016694D01*
X012300Y016944D01*
X011800Y016944D01*
X011550Y016694D01*
X011550Y015194D01*
X011800Y014944D01*
X012300Y014944D01*
X012550Y015194D01*
X012550Y016694D01*
X011176Y016736D02*
X011132Y016692D01*
X011046Y016692D01*
X011002Y016736D01*
X011089Y016822D02*
X011132Y016822D01*
X011176Y016779D01*
X011176Y016736D01*
X011132Y016822D02*
X011176Y016866D01*
X011176Y016909D01*
X011132Y016953D01*
X011046Y016953D01*
X011002Y016909D01*
X010881Y016909D02*
X010881Y016822D01*
X010838Y016779D01*
X010708Y016779D01*
X010794Y016779D02*
X010881Y016692D01*
X010708Y016692D02*
X010708Y016953D01*
X010838Y016953D01*
X010881Y016909D01*
X009181Y016999D02*
X009181Y014539D01*
X007819Y014539D01*
X007819Y016999D01*
X009181Y016999D01*
X006482Y014982D02*
X006482Y014938D01*
X006309Y014765D01*
X006309Y014721D01*
X006188Y014721D02*
X006014Y014721D01*
X006101Y014721D02*
X006101Y014982D01*
X006014Y014895D01*
X005893Y014938D02*
X005850Y014982D01*
X005763Y014982D01*
X005720Y014938D01*
X005720Y014765D01*
X005763Y014721D01*
X005850Y014721D01*
X005893Y014765D01*
X006309Y014982D02*
X006482Y014982D01*
X005271Y014929D02*
X005184Y014885D01*
X005098Y014799D01*
X005228Y014799D01*
X005271Y014755D01*
X005271Y014712D01*
X005228Y014669D01*
X005141Y014669D01*
X005098Y014712D01*
X005098Y014799D01*
X004976Y014669D02*
X004803Y014669D01*
X004890Y014669D02*
X004890Y014929D01*
X004803Y014842D01*
X004682Y014885D02*
X004638Y014929D01*
X004552Y014929D01*
X004508Y014885D01*
X004508Y014712D01*
X004552Y014669D01*
X004638Y014669D01*
X004682Y014712D01*
X005184Y016362D02*
X005358Y016362D01*
X005401Y016405D01*
X005401Y016492D01*
X005358Y016536D01*
X005401Y016657D02*
X005401Y016830D01*
X005401Y016744D02*
X005141Y016744D01*
X005228Y016657D01*
X005184Y016536D02*
X005141Y016492D01*
X005141Y016405D01*
X005184Y016362D01*
X004508Y016809D02*
X004335Y016809D01*
X004421Y016809D02*
X004421Y017069D01*
X004335Y016982D01*
X004213Y017025D02*
X004170Y017069D01*
X004083Y017069D01*
X004040Y017025D01*
X004040Y016852D01*
X004083Y016809D01*
X004170Y016809D01*
X004213Y016852D01*
X003919Y017069D02*
X003745Y017069D01*
X003832Y017069D02*
X003832Y016809D01*
X003624Y016939D02*
X003581Y016895D01*
X003451Y016895D01*
X003451Y016809D02*
X003451Y017069D01*
X003581Y017069D01*
X003624Y017025D01*
X003624Y016939D01*
X005141Y016995D02*
X005141Y017082D01*
X005184Y017125D01*
X005228Y017125D01*
X005271Y017082D01*
X005271Y016995D01*
X005228Y016951D01*
X005184Y016951D01*
X005141Y016995D01*
X005271Y016995D02*
X005314Y016951D01*
X005358Y016951D01*
X005401Y016995D01*
X005401Y017082D01*
X005358Y017125D01*
X005314Y017125D01*
X005271Y017082D01*
X005483Y013071D02*
X005376Y012965D01*
X005376Y012751D01*
X005483Y012644D01*
X005376Y012427D02*
X006016Y012000D01*
X006016Y012427D02*
X005376Y012000D01*
X006016Y012644D02*
X005589Y013071D01*
X005483Y013071D01*
X006016Y013071D02*
X006016Y012644D01*
X008004Y010725D02*
X008134Y010595D01*
X008134Y010769D01*
X008264Y010725D02*
X008004Y010725D01*
X008047Y010474D02*
X008134Y010474D01*
X008177Y010431D01*
X008177Y010301D01*
X008177Y010387D02*
X008264Y010474D01*
X008264Y010301D02*
X008004Y010301D01*
X008004Y010431D01*
X008047Y010474D01*
X008938Y010199D02*
X010038Y010199D01*
X010035Y010365D02*
X009992Y010408D01*
X009992Y010582D01*
X010035Y010625D01*
X010122Y010625D01*
X010165Y010582D01*
X010286Y010582D02*
X010330Y010625D01*
X010416Y010625D01*
X010460Y010582D01*
X010460Y010538D01*
X010286Y010365D01*
X010460Y010365D01*
X010581Y010365D02*
X010754Y010365D01*
X010668Y010365D02*
X010668Y010625D01*
X010581Y010538D01*
X010165Y010408D02*
X010122Y010365D01*
X010035Y010365D01*
X010038Y008239D02*
X009608Y008239D01*
X009368Y008239D01*
X008938Y008239D01*
X009368Y008239D02*
X009370Y008260D01*
X009375Y008280D01*
X009384Y008299D01*
X009396Y008316D01*
X009411Y008331D01*
X009428Y008343D01*
X009447Y008352D01*
X009467Y008357D01*
X009488Y008359D01*
X009509Y008357D01*
X009529Y008352D01*
X009548Y008343D01*
X009565Y008331D01*
X009580Y008316D01*
X009592Y008299D01*
X009601Y008280D01*
X009606Y008260D01*
X009608Y008239D01*
X009457Y007530D02*
X009457Y007357D01*
X009457Y007444D02*
X009196Y007444D01*
X009283Y007357D01*
X009240Y007236D02*
X009326Y007236D01*
X009370Y007192D01*
X009370Y007062D01*
X009457Y007062D02*
X009196Y007062D01*
X009196Y007192D01*
X009240Y007236D01*
X009370Y007149D02*
X009457Y007236D01*
X007194Y008640D02*
X006934Y008640D01*
X006934Y008770D01*
X006977Y008813D01*
X007064Y008813D01*
X007107Y008770D01*
X007107Y008640D01*
X007107Y008727D02*
X007194Y008813D01*
X007151Y008935D02*
X007194Y008978D01*
X007194Y009065D01*
X007151Y009108D01*
X007064Y009108D01*
X007021Y009065D01*
X007021Y009021D01*
X007064Y008935D01*
X006934Y008935D01*
X006934Y009108D01*
X006061Y008202D02*
X006018Y008245D01*
X005931Y008245D01*
X005888Y008202D01*
X005767Y008202D02*
X005767Y008115D01*
X005723Y008072D01*
X005593Y008072D01*
X005680Y008072D02*
X005767Y007985D01*
X005888Y007985D02*
X006061Y008158D01*
X006061Y008202D01*
X005767Y008202D02*
X005723Y008245D01*
X005593Y008245D01*
X005593Y007985D01*
X005888Y007985D02*
X006061Y007985D01*
X013795Y005827D02*
X013795Y005653D01*
X013839Y005610D01*
X013925Y005610D01*
X013969Y005653D01*
X014090Y005653D02*
X014133Y005610D01*
X014220Y005610D01*
X014263Y005653D01*
X014263Y005740D01*
X014220Y005783D01*
X014177Y005783D01*
X014090Y005740D01*
X014090Y005870D01*
X014263Y005870D01*
X013969Y005827D02*
X013925Y005870D01*
X013839Y005870D01*
X013795Y005827D01*
X013600Y000581D02*
X013850Y000331D01*
X014350Y000331D01*
X014600Y000581D01*
X015600Y000581D02*
X015850Y000331D01*
X016350Y000331D01*
X016600Y000581D01*
X017600Y000581D02*
X017850Y000331D01*
X018350Y000331D01*
X018600Y000581D01*
X019600Y000581D02*
X019850Y000331D01*
X020350Y000331D01*
X020600Y000581D01*
X015547Y013534D02*
X015373Y013534D01*
X015330Y013577D01*
X015330Y013664D01*
X015373Y013708D01*
X015416Y013829D02*
X015330Y013915D01*
X015590Y013915D01*
X015590Y013829D02*
X015590Y014002D01*
X015547Y013708D02*
X015590Y013664D01*
X015590Y013577D01*
X015547Y013534D01*
X015088Y013592D02*
X015088Y013679D01*
X015045Y013723D01*
X015045Y013844D02*
X014958Y013844D01*
X014958Y013974D01*
X015002Y014017D01*
X015045Y014017D01*
X015088Y013974D01*
X015088Y013887D01*
X015045Y013844D01*
X014958Y013844D02*
X014872Y013930D01*
X014828Y014017D01*
X014872Y013723D02*
X014828Y013679D01*
X014828Y013592D01*
X014872Y013549D01*
X015045Y013549D01*
X015088Y013592D01*
X015300Y014944D02*
X014800Y014944D01*
X014550Y015194D01*
X015300Y014944D02*
X015550Y015194D01*
X016550Y015194D02*
X016800Y014944D01*
X017300Y014944D01*
X017550Y015194D01*
X018550Y015194D02*
X018800Y014944D01*
X019300Y014944D01*
X019550Y015194D01*
X020550Y015194D02*
X020800Y014944D01*
X021300Y014944D01*
X021550Y015194D01*
X022300Y014944D02*
X022550Y015194D01*
X022550Y016694D01*
X022300Y016944D01*
X021800Y016944D01*
X021550Y016694D01*
X020550Y016694D02*
X020300Y016944D01*
X019800Y016944D01*
X019550Y016694D01*
X018550Y016694D02*
X018300Y016944D01*
X017800Y016944D01*
X017550Y016694D01*
X013550Y015194D02*
X013300Y014944D01*
X012800Y014944D01*
X012550Y015194D01*
D180*
X003721Y004946D02*
X003721Y004666D01*
X003814Y004666D02*
X003627Y004666D01*
X003538Y004713D02*
X003491Y004666D01*
X003398Y004666D01*
X003351Y004713D01*
X003398Y004806D02*
X003491Y004806D01*
X003538Y004760D01*
X003538Y004713D01*
X003627Y004853D02*
X003721Y004946D01*
X003538Y004900D02*
X003491Y004946D01*
X003398Y004946D01*
X003351Y004900D01*
X003351Y004853D01*
X003398Y004806D01*
D181*
X004525Y003056D02*
X004675Y003056D01*
X004600Y003056D02*
X004600Y002681D01*
X004525Y002606D01*
X004450Y002606D01*
X004375Y002681D01*
X004835Y002606D02*
X004835Y003056D01*
X005061Y003056D01*
X005136Y002981D01*
X005136Y002831D01*
X005061Y002756D01*
X004835Y002756D01*
X005296Y002681D02*
X005371Y002606D01*
X005521Y002606D01*
X005596Y002681D01*
X005596Y002756D01*
X005521Y002831D01*
X005446Y002831D01*
X005521Y002831D02*
X005596Y002906D01*
X005596Y002981D01*
X005521Y003056D01*
X005371Y003056D01*
X005296Y002981D01*
X013625Y002681D02*
X013700Y002606D01*
X013775Y002606D01*
X013850Y002681D01*
X013850Y003056D01*
X013775Y003056D02*
X013925Y003056D01*
X014085Y003056D02*
X014311Y003056D01*
X014386Y002981D01*
X014386Y002831D01*
X014311Y002756D01*
X014085Y002756D01*
X014085Y002606D02*
X014085Y003056D01*
X014546Y002831D02*
X014846Y002831D01*
X014771Y002606D02*
X014771Y003056D01*
X014546Y002831D01*
X016599Y002861D02*
X017583Y002861D01*
X017583Y004042D01*
X016599Y004042D01*
X016599Y002861D01*
X021875Y003781D02*
X021875Y003931D01*
X021875Y003856D02*
X022250Y003856D01*
X022325Y003781D01*
X022325Y003706D01*
X022250Y003631D01*
X022325Y004092D02*
X021875Y004092D01*
X021875Y004317D01*
X021950Y004392D01*
X022100Y004392D01*
X022175Y004317D01*
X022175Y004092D01*
X022325Y004552D02*
X022325Y004852D01*
X022325Y004702D02*
X021875Y004702D01*
X022025Y004552D01*
X021442Y013163D02*
X021517Y013238D01*
X021517Y013313D01*
X021442Y013388D01*
X021217Y013388D01*
X021217Y013238D01*
X021292Y013163D01*
X021442Y013163D01*
X021217Y013388D02*
X021367Y013538D01*
X021517Y013613D01*
X021057Y013538D02*
X021057Y013388D01*
X020982Y013313D01*
X020756Y013313D01*
X020756Y013163D02*
X020756Y013613D01*
X020982Y013613D01*
X021057Y013538D01*
X020596Y013613D02*
X020446Y013613D01*
X020521Y013613D02*
X020521Y013238D01*
X020446Y013163D01*
X020371Y013163D01*
X020296Y013238D01*
X013376Y014453D02*
X013076Y014453D01*
X013376Y014753D01*
X013376Y014828D01*
X013301Y014903D01*
X013151Y014903D01*
X013076Y014828D01*
X012916Y014828D02*
X012841Y014903D01*
X012616Y014903D01*
X012616Y014453D01*
X012616Y014603D02*
X012841Y014603D01*
X012916Y014678D01*
X012916Y014828D01*
X012456Y014903D02*
X012305Y014903D01*
X012381Y014903D02*
X012381Y014528D01*
X012305Y014453D01*
X012230Y014453D01*
X012155Y014528D01*
X010379Y014457D02*
X010079Y014457D01*
X010229Y014457D02*
X010229Y014907D01*
X010079Y014757D01*
X009919Y014832D02*
X009844Y014907D01*
X009694Y014907D01*
X009618Y014832D01*
X009618Y014532D01*
X009694Y014457D01*
X009844Y014457D01*
X009919Y014532D01*
X009462Y014457D02*
X009312Y014457D01*
X009387Y014457D02*
X009387Y014907D01*
X009312Y014907D02*
X009462Y014907D01*
D182*
X012552Y013532D02*
X013103Y013532D01*
X012827Y013953D01*
X012552Y013532D01*
D183*
X011271Y015360D03*
X010729Y015360D03*
D184*
X011000Y015512D03*
D185*
X008638Y006596D02*
X008588Y006596D01*
X008563Y006571D01*
X008516Y006571D02*
X008516Y006546D01*
X008491Y006521D01*
X008516Y006496D01*
X008516Y006471D01*
X008491Y006446D01*
X008441Y006446D01*
X008416Y006471D01*
X008369Y006471D02*
X008369Y006496D01*
X008344Y006521D01*
X008294Y006521D01*
X008269Y006546D01*
X008269Y006571D01*
X008294Y006596D01*
X008344Y006596D01*
X008369Y006571D01*
X008416Y006571D02*
X008441Y006596D01*
X008491Y006596D01*
X008516Y006571D01*
X008491Y006521D02*
X008466Y006521D01*
X008369Y006471D02*
X008344Y006446D01*
X008294Y006446D01*
X008269Y006471D01*
X008221Y006471D02*
X008196Y006446D01*
X008146Y006446D01*
X008121Y006471D01*
X008121Y006596D01*
X008221Y006596D02*
X008221Y006471D01*
X008319Y006421D02*
X008319Y006621D01*
X008563Y006446D02*
X008663Y006546D01*
X008663Y006571D01*
X008638Y006596D01*
X008663Y006446D02*
X008563Y006446D01*
M02*
