G75*
G70*
%OFA0B0*%
%FSLAX24Y24*%
%IPPOS*%
%LPD*%
%AMOC8*
5,1,8,0,0,1.08239X$1,22.5*
%
%ADD10C,0.0000*%
%ADD11R,0.0118X0.0630*%
%ADD12R,0.0630X0.0118*%
%ADD13R,0.0315X0.0315*%
%ADD14R,0.0315X0.0315*%
%ADD15R,0.0906X0.0630*%
%ADD16R,0.0984X0.0787*%
%ADD17R,0.1299X0.0787*%
%ADD18R,0.1220X0.0197*%
%ADD19R,0.1095X0.1095*%
%ADD20R,0.0790X0.0590*%
%ADD21R,0.0790X0.1500*%
%ADD22R,0.0780X0.0210*%
%ADD23C,0.1000*%
%ADD24OC8,0.0591*%
%ADD25OC8,0.0600*%
%ADD26R,0.0315X0.0354*%
%ADD27C,0.0660*%
%ADD28R,0.0591X0.0591*%
%ADD29R,0.0630X0.0709*%
%ADD30R,0.0394X0.0315*%
%ADD31R,0.0276X0.0591*%
%ADD32R,0.0354X0.0315*%
%ADD33C,0.0120*%
%ADD34C,0.0376*%
%ADD35C,0.0270*%
%ADD36C,0.0100*%
%ADD37C,0.0200*%
%ADD38C,0.0240*%
%ADD39C,0.0320*%
%ADD40C,0.0290*%
D10*
X000599Y000160D02*
X000599Y017278D01*
X000600Y017276D02*
X024780Y017276D01*
X024780Y000156D01*
X024779Y000160D02*
X000599Y000160D01*
X001008Y001160D02*
X001010Y001208D01*
X001016Y001256D01*
X001026Y001303D01*
X001039Y001349D01*
X001057Y001394D01*
X001077Y001438D01*
X001102Y001480D01*
X001130Y001519D01*
X001160Y001556D01*
X001194Y001590D01*
X001231Y001622D01*
X001269Y001651D01*
X001310Y001676D01*
X001353Y001698D01*
X001398Y001716D01*
X001444Y001730D01*
X001491Y001741D01*
X001539Y001748D01*
X001587Y001751D01*
X001635Y001750D01*
X001683Y001745D01*
X001731Y001736D01*
X001777Y001724D01*
X001822Y001707D01*
X001866Y001687D01*
X001908Y001664D01*
X001948Y001637D01*
X001986Y001607D01*
X002021Y001574D01*
X002053Y001538D01*
X002083Y001500D01*
X002109Y001459D01*
X002131Y001416D01*
X002151Y001372D01*
X002166Y001327D01*
X002178Y001280D01*
X002186Y001232D01*
X002190Y001184D01*
X002190Y001136D01*
X002186Y001088D01*
X002178Y001040D01*
X002166Y000993D01*
X002151Y000948D01*
X002131Y000904D01*
X002109Y000861D01*
X002083Y000820D01*
X002053Y000782D01*
X002021Y000746D01*
X001986Y000713D01*
X001948Y000683D01*
X001908Y000656D01*
X001866Y000633D01*
X001822Y000613D01*
X001777Y000596D01*
X001731Y000584D01*
X001683Y000575D01*
X001635Y000570D01*
X001587Y000569D01*
X001539Y000572D01*
X001491Y000579D01*
X001444Y000590D01*
X001398Y000604D01*
X001353Y000622D01*
X001310Y000644D01*
X001269Y000669D01*
X001231Y000698D01*
X001194Y000730D01*
X001160Y000764D01*
X001130Y000801D01*
X001102Y000840D01*
X001077Y000882D01*
X001057Y000926D01*
X001039Y000971D01*
X001026Y001017D01*
X001016Y001064D01*
X001010Y001112D01*
X001008Y001160D01*
X005861Y006558D02*
X005863Y006584D01*
X005869Y006610D01*
X005879Y006635D01*
X005892Y006658D01*
X005908Y006678D01*
X005928Y006696D01*
X005950Y006711D01*
X005973Y006723D01*
X005999Y006731D01*
X006025Y006735D01*
X006051Y006735D01*
X006077Y006731D01*
X006103Y006723D01*
X006127Y006711D01*
X006148Y006696D01*
X006168Y006678D01*
X006184Y006658D01*
X006197Y006635D01*
X006207Y006610D01*
X006213Y006584D01*
X006215Y006558D01*
X006213Y006532D01*
X006207Y006506D01*
X006197Y006481D01*
X006184Y006458D01*
X006168Y006438D01*
X006148Y006420D01*
X006126Y006405D01*
X006103Y006393D01*
X006077Y006385D01*
X006051Y006381D01*
X006025Y006381D01*
X005999Y006385D01*
X005973Y006393D01*
X005949Y006405D01*
X005928Y006420D01*
X005908Y006438D01*
X005892Y006458D01*
X005879Y006481D01*
X005869Y006506D01*
X005863Y006532D01*
X005861Y006558D01*
X007042Y006558D02*
X007044Y006584D01*
X007050Y006610D01*
X007060Y006635D01*
X007073Y006658D01*
X007089Y006678D01*
X007109Y006696D01*
X007131Y006711D01*
X007154Y006723D01*
X007180Y006731D01*
X007206Y006735D01*
X007232Y006735D01*
X007258Y006731D01*
X007284Y006723D01*
X007308Y006711D01*
X007329Y006696D01*
X007349Y006678D01*
X007365Y006658D01*
X007378Y006635D01*
X007388Y006610D01*
X007394Y006584D01*
X007396Y006558D01*
X007394Y006532D01*
X007388Y006506D01*
X007378Y006481D01*
X007365Y006458D01*
X007349Y006438D01*
X007329Y006420D01*
X007307Y006405D01*
X007284Y006393D01*
X007258Y006385D01*
X007232Y006381D01*
X007206Y006381D01*
X007180Y006385D01*
X007154Y006393D01*
X007130Y006405D01*
X007109Y006420D01*
X007089Y006438D01*
X007073Y006458D01*
X007060Y006481D01*
X007050Y006506D01*
X007044Y006532D01*
X007042Y006558D01*
X002135Y010223D02*
X002137Y010273D01*
X002143Y010323D01*
X002153Y010372D01*
X002167Y010420D01*
X002184Y010467D01*
X002205Y010512D01*
X002230Y010556D01*
X002258Y010597D01*
X002290Y010636D01*
X002324Y010673D01*
X002361Y010707D01*
X002401Y010737D01*
X002443Y010764D01*
X002487Y010788D01*
X002533Y010809D01*
X002580Y010825D01*
X002628Y010838D01*
X002678Y010847D01*
X002727Y010852D01*
X002778Y010853D01*
X002828Y010850D01*
X002877Y010843D01*
X002926Y010832D01*
X002974Y010817D01*
X003020Y010799D01*
X003065Y010777D01*
X003108Y010751D01*
X003149Y010722D01*
X003188Y010690D01*
X003224Y010655D01*
X003256Y010617D01*
X003286Y010577D01*
X003313Y010534D01*
X003336Y010490D01*
X003355Y010444D01*
X003371Y010396D01*
X003383Y010347D01*
X003391Y010298D01*
X003395Y010248D01*
X003395Y010198D01*
X003391Y010148D01*
X003383Y010099D01*
X003371Y010050D01*
X003355Y010002D01*
X003336Y009956D01*
X003313Y009912D01*
X003286Y009869D01*
X003256Y009829D01*
X003224Y009791D01*
X003188Y009756D01*
X003149Y009724D01*
X003108Y009695D01*
X003065Y009669D01*
X003020Y009647D01*
X002974Y009629D01*
X002926Y009614D01*
X002877Y009603D01*
X002828Y009596D01*
X002778Y009593D01*
X002727Y009594D01*
X002678Y009599D01*
X002628Y009608D01*
X002580Y009621D01*
X002533Y009637D01*
X002487Y009658D01*
X002443Y009682D01*
X002401Y009709D01*
X002361Y009739D01*
X002324Y009773D01*
X002290Y009810D01*
X002258Y009849D01*
X002230Y009890D01*
X002205Y009934D01*
X002184Y009979D01*
X002167Y010026D01*
X002153Y010074D01*
X002143Y010123D01*
X002137Y010173D01*
X002135Y010223D01*
X002273Y013602D02*
X002275Y013628D01*
X002281Y013654D01*
X002291Y013679D01*
X002304Y013702D01*
X002320Y013722D01*
X002340Y013740D01*
X002362Y013755D01*
X002385Y013767D01*
X002411Y013775D01*
X002437Y013779D01*
X002463Y013779D01*
X002489Y013775D01*
X002515Y013767D01*
X002539Y013755D01*
X002560Y013740D01*
X002580Y013722D01*
X002596Y013702D01*
X002609Y013679D01*
X002619Y013654D01*
X002625Y013628D01*
X002627Y013602D01*
X002625Y013576D01*
X002619Y013550D01*
X002609Y013525D01*
X002596Y013502D01*
X002580Y013482D01*
X002560Y013464D01*
X002538Y013449D01*
X002515Y013437D01*
X002489Y013429D01*
X002463Y013425D01*
X002437Y013425D01*
X002411Y013429D01*
X002385Y013437D01*
X002361Y013449D01*
X002340Y013464D01*
X002320Y013482D01*
X002304Y013502D01*
X002291Y013525D01*
X002281Y013550D01*
X002275Y013576D01*
X002273Y013602D01*
X002273Y015335D02*
X002275Y015361D01*
X002281Y015387D01*
X002291Y015412D01*
X002304Y015435D01*
X002320Y015455D01*
X002340Y015473D01*
X002362Y015488D01*
X002385Y015500D01*
X002411Y015508D01*
X002437Y015512D01*
X002463Y015512D01*
X002489Y015508D01*
X002515Y015500D01*
X002539Y015488D01*
X002560Y015473D01*
X002580Y015455D01*
X002596Y015435D01*
X002609Y015412D01*
X002619Y015387D01*
X002625Y015361D01*
X002627Y015335D01*
X002625Y015309D01*
X002619Y015283D01*
X002609Y015258D01*
X002596Y015235D01*
X002580Y015215D01*
X002560Y015197D01*
X002538Y015182D01*
X002515Y015170D01*
X002489Y015162D01*
X002463Y015158D01*
X002437Y015158D01*
X002411Y015162D01*
X002385Y015170D01*
X002361Y015182D01*
X002340Y015197D01*
X002320Y015215D01*
X002304Y015235D01*
X002291Y015258D01*
X002281Y015283D01*
X002275Y015309D01*
X002273Y015335D01*
X022633Y001660D02*
X022635Y001708D01*
X022641Y001756D01*
X022651Y001803D01*
X022664Y001849D01*
X022682Y001894D01*
X022702Y001938D01*
X022727Y001980D01*
X022755Y002019D01*
X022785Y002056D01*
X022819Y002090D01*
X022856Y002122D01*
X022894Y002151D01*
X022935Y002176D01*
X022978Y002198D01*
X023023Y002216D01*
X023069Y002230D01*
X023116Y002241D01*
X023164Y002248D01*
X023212Y002251D01*
X023260Y002250D01*
X023308Y002245D01*
X023356Y002236D01*
X023402Y002224D01*
X023447Y002207D01*
X023491Y002187D01*
X023533Y002164D01*
X023573Y002137D01*
X023611Y002107D01*
X023646Y002074D01*
X023678Y002038D01*
X023708Y002000D01*
X023734Y001959D01*
X023756Y001916D01*
X023776Y001872D01*
X023791Y001827D01*
X023803Y001780D01*
X023811Y001732D01*
X023815Y001684D01*
X023815Y001636D01*
X023811Y001588D01*
X023803Y001540D01*
X023791Y001493D01*
X023776Y001448D01*
X023756Y001404D01*
X023734Y001361D01*
X023708Y001320D01*
X023678Y001282D01*
X023646Y001246D01*
X023611Y001213D01*
X023573Y001183D01*
X023533Y001156D01*
X023491Y001133D01*
X023447Y001113D01*
X023402Y001096D01*
X023356Y001084D01*
X023308Y001075D01*
X023260Y001070D01*
X023212Y001069D01*
X023164Y001072D01*
X023116Y001079D01*
X023069Y001090D01*
X023023Y001104D01*
X022978Y001122D01*
X022935Y001144D01*
X022894Y001169D01*
X022856Y001198D01*
X022819Y001230D01*
X022785Y001264D01*
X022755Y001301D01*
X022727Y001340D01*
X022702Y001382D01*
X022682Y001426D01*
X022664Y001471D01*
X022651Y001517D01*
X022641Y001564D01*
X022635Y001612D01*
X022633Y001660D01*
X023133Y015910D02*
X023135Y015958D01*
X023141Y016006D01*
X023151Y016053D01*
X023164Y016099D01*
X023182Y016144D01*
X023202Y016188D01*
X023227Y016230D01*
X023255Y016269D01*
X023285Y016306D01*
X023319Y016340D01*
X023356Y016372D01*
X023394Y016401D01*
X023435Y016426D01*
X023478Y016448D01*
X023523Y016466D01*
X023569Y016480D01*
X023616Y016491D01*
X023664Y016498D01*
X023712Y016501D01*
X023760Y016500D01*
X023808Y016495D01*
X023856Y016486D01*
X023902Y016474D01*
X023947Y016457D01*
X023991Y016437D01*
X024033Y016414D01*
X024073Y016387D01*
X024111Y016357D01*
X024146Y016324D01*
X024178Y016288D01*
X024208Y016250D01*
X024234Y016209D01*
X024256Y016166D01*
X024276Y016122D01*
X024291Y016077D01*
X024303Y016030D01*
X024311Y015982D01*
X024315Y015934D01*
X024315Y015886D01*
X024311Y015838D01*
X024303Y015790D01*
X024291Y015743D01*
X024276Y015698D01*
X024256Y015654D01*
X024234Y015611D01*
X024208Y015570D01*
X024178Y015532D01*
X024146Y015496D01*
X024111Y015463D01*
X024073Y015433D01*
X024033Y015406D01*
X023991Y015383D01*
X023947Y015363D01*
X023902Y015346D01*
X023856Y015334D01*
X023808Y015325D01*
X023760Y015320D01*
X023712Y015319D01*
X023664Y015322D01*
X023616Y015329D01*
X023569Y015340D01*
X023523Y015354D01*
X023478Y015372D01*
X023435Y015394D01*
X023394Y015419D01*
X023356Y015448D01*
X023319Y015480D01*
X023285Y015514D01*
X023255Y015551D01*
X023227Y015590D01*
X023202Y015632D01*
X023182Y015676D01*
X023164Y015721D01*
X023151Y015767D01*
X023141Y015814D01*
X023135Y015862D01*
X023133Y015910D01*
D11*
X019812Y012023D03*
X019615Y012023D03*
X019419Y012023D03*
X019222Y012023D03*
X019025Y012023D03*
X018828Y012023D03*
X018631Y012023D03*
X018434Y012023D03*
X018237Y012023D03*
X018041Y012023D03*
X017844Y012023D03*
X017647Y012023D03*
X017450Y012023D03*
X017253Y012023D03*
X017056Y012023D03*
X016859Y012023D03*
X016663Y012023D03*
X016466Y012023D03*
X016269Y012023D03*
X016072Y012023D03*
X015875Y012023D03*
X015678Y012023D03*
X015481Y012023D03*
X015285Y012023D03*
X015088Y012023D03*
X015088Y006039D03*
X015285Y006039D03*
X015481Y006039D03*
X015678Y006039D03*
X015875Y006039D03*
X016072Y006039D03*
X016269Y006039D03*
X016466Y006039D03*
X016663Y006039D03*
X016859Y006039D03*
X017056Y006039D03*
X017253Y006039D03*
X017450Y006039D03*
X017647Y006039D03*
X017844Y006039D03*
X018041Y006039D03*
X018237Y006039D03*
X018434Y006039D03*
X018631Y006039D03*
X018828Y006039D03*
X019025Y006039D03*
X019222Y006039D03*
X019419Y006039D03*
X019615Y006039D03*
X019812Y006039D03*
D12*
X020442Y006669D03*
X020442Y006866D03*
X020442Y007063D03*
X020442Y007259D03*
X020442Y007456D03*
X020442Y007653D03*
X020442Y007850D03*
X020442Y008047D03*
X020442Y008244D03*
X020442Y008441D03*
X020442Y008637D03*
X020442Y008834D03*
X020442Y009031D03*
X020442Y009228D03*
X020442Y009425D03*
X020442Y009622D03*
X020442Y009819D03*
X020442Y010015D03*
X020442Y010212D03*
X020442Y010409D03*
X020442Y010606D03*
X020442Y010803D03*
X020442Y011000D03*
X020442Y011196D03*
X020442Y011393D03*
X014458Y011393D03*
X014458Y011196D03*
X014458Y011000D03*
X014458Y010803D03*
X014458Y010606D03*
X014458Y010409D03*
X014458Y010212D03*
X014458Y010015D03*
X014458Y009819D03*
X014458Y009622D03*
X014458Y009425D03*
X014458Y009228D03*
X014458Y009031D03*
X014458Y008834D03*
X014458Y008637D03*
X014458Y008441D03*
X014458Y008244D03*
X014458Y008047D03*
X014458Y007850D03*
X014458Y007653D03*
X014458Y007456D03*
X014458Y007259D03*
X014458Y007063D03*
X014458Y006866D03*
X014458Y006669D03*
D13*
X014357Y006257D03*
X013757Y006257D03*
X016812Y004879D03*
X016812Y004279D03*
X018915Y004377D03*
X019291Y004377D03*
X019672Y004377D03*
X020048Y004377D03*
X020424Y004377D03*
X020424Y004977D03*
X020048Y004977D03*
X019672Y004977D03*
X019291Y004977D03*
X018915Y004977D03*
X017334Y002598D03*
X016734Y002598D03*
X008876Y007233D03*
X008876Y007833D03*
X005174Y008081D03*
X004574Y008081D03*
X004595Y015159D03*
X005195Y015159D03*
X005753Y015223D03*
X006353Y015223D03*
X006366Y016698D03*
X005766Y016698D03*
X010406Y016780D03*
X010406Y016180D03*
X014975Y013195D03*
X014975Y012595D03*
X015575Y012597D03*
X015575Y013197D03*
X021067Y011719D03*
X021667Y011719D03*
X021663Y011294D03*
X021063Y011294D03*
D14*
G36*
X021108Y006704D02*
X021000Y006998D01*
X021294Y007106D01*
X021402Y006812D01*
X021108Y006704D01*
G37*
G36*
X021313Y006140D02*
X021205Y006434D01*
X021499Y006542D01*
X021607Y006248D01*
X021313Y006140D01*
G37*
D15*
X003953Y005744D03*
X001472Y005744D03*
D16*
X001269Y012717D03*
X001269Y016221D03*
D17*
X003592Y016221D03*
X003592Y012717D03*
D18*
X003631Y013839D03*
X003631Y014154D03*
X003631Y014469D03*
X003631Y014784D03*
X003631Y015099D03*
D19*
X003074Y007535D03*
X003074Y002335D03*
D20*
X007260Y014859D03*
X007260Y015759D03*
X007260Y016659D03*
D21*
X009740Y015769D03*
D22*
X010458Y009969D03*
X010458Y009469D03*
X010458Y008969D03*
X010458Y008469D03*
X008518Y008469D03*
X008518Y008969D03*
X008518Y009469D03*
X008518Y009969D03*
D23*
X005718Y009633D03*
X004536Y009633D03*
X004536Y010814D03*
X005718Y010814D03*
D24*
X008150Y012256D03*
X009150Y012256D03*
X010150Y012256D03*
X011150Y012256D03*
X012150Y012256D03*
X012150Y013256D03*
X011150Y013256D03*
X010150Y013256D03*
X009150Y013256D03*
X008150Y013256D03*
D25*
X012050Y015444D03*
X013050Y015444D03*
X014050Y015444D03*
X015050Y015444D03*
X016050Y015444D03*
X017050Y015444D03*
X018050Y015444D03*
X019050Y015444D03*
X020050Y015444D03*
X021050Y015444D03*
X022050Y015444D03*
X022050Y016444D03*
X021050Y016444D03*
X020050Y016444D03*
X019050Y016444D03*
X018050Y016444D03*
X017050Y016444D03*
X016050Y016444D03*
X015050Y016444D03*
X014050Y016444D03*
X013050Y016444D03*
X012050Y016444D03*
X022101Y014110D03*
X023100Y014106D03*
X024100Y014106D03*
X024100Y013106D03*
X023100Y013106D03*
X023100Y012106D03*
X024100Y012106D03*
X024100Y011106D03*
X023100Y011106D03*
X023100Y010106D03*
X024100Y010106D03*
X024100Y009106D03*
X023100Y009106D03*
X023100Y008106D03*
X024100Y008106D03*
X024100Y007106D03*
X023100Y007106D03*
X023100Y006106D03*
X024100Y006106D03*
X024100Y005106D03*
X023100Y005106D03*
X023100Y004106D03*
X024100Y004106D03*
X021100Y001831D03*
X020100Y001831D03*
X019100Y001831D03*
X018100Y001831D03*
X017100Y001831D03*
X016100Y001831D03*
X015100Y001831D03*
X014100Y001831D03*
X012850Y001831D03*
X011850Y001831D03*
X010850Y001831D03*
X009850Y001831D03*
X008850Y001831D03*
X007850Y001831D03*
X006850Y001831D03*
X005850Y001831D03*
X004850Y001831D03*
X004850Y000831D03*
X005850Y000831D03*
X006850Y000831D03*
X007850Y000831D03*
X008850Y000831D03*
X009850Y000831D03*
X010850Y000831D03*
X011850Y000831D03*
X012850Y000831D03*
X014100Y000831D03*
X015100Y000831D03*
X016100Y000831D03*
X017100Y000831D03*
X018100Y000831D03*
X019100Y000831D03*
X020100Y000831D03*
X021100Y000831D03*
D26*
X017337Y003126D03*
X016845Y003126D03*
X016845Y003776D03*
X017337Y003776D03*
X007599Y008810D03*
X007599Y009410D03*
X007599Y010060D03*
X007599Y010660D03*
D27*
X022104Y003273D03*
D28*
X011000Y014892D03*
X011000Y016270D03*
D29*
X006016Y015904D03*
X004914Y015904D03*
D30*
X004994Y006991D03*
X004994Y006125D03*
X008262Y006125D03*
X008262Y006991D03*
D31*
X007514Y007444D03*
X006923Y007444D03*
X005742Y007444D03*
D32*
X009062Y010610D03*
X009662Y010610D03*
D33*
X009680Y010629D02*
X009643Y010629D01*
X009643Y010927D01*
X009463Y010927D01*
X009423Y010917D01*
X009386Y010896D01*
X009356Y010866D01*
X009340Y010836D01*
X009289Y010887D01*
X008835Y010887D01*
X008764Y010817D01*
X008764Y010403D01*
X008835Y010333D01*
X008957Y010333D01*
X008957Y010194D01*
X008320Y010194D01*
X007877Y010637D01*
X007877Y010887D01*
X007806Y010957D01*
X007392Y010957D01*
X007322Y010887D01*
X007322Y010433D01*
X007392Y010363D01*
X007642Y010363D01*
X007647Y010357D01*
X007392Y010357D01*
X007322Y010287D01*
X007322Y010286D01*
X007227Y010325D01*
X007121Y010325D01*
X007029Y010287D01*
X007029Y010672D01*
X006817Y010885D01*
X006711Y010990D01*
X006316Y010990D01*
X006243Y011165D01*
X006069Y011340D01*
X005841Y011434D01*
X005594Y011434D01*
X005366Y011340D01*
X005192Y011165D01*
X005149Y011061D01*
X005130Y011107D01*
X005086Y011181D01*
X005034Y011250D01*
X004972Y011311D01*
X004904Y011364D01*
X004829Y011407D01*
X004749Y011440D01*
X004665Y011463D01*
X004580Y011474D01*
X004575Y011474D01*
X004575Y010852D01*
X004498Y010852D01*
X004498Y011474D01*
X004493Y011474D01*
X004407Y011463D01*
X004324Y011440D01*
X004244Y011407D01*
X004169Y011364D01*
X004100Y011311D01*
X004039Y011250D01*
X004004Y011204D01*
X004004Y011248D01*
X004549Y011793D01*
X005549Y011793D01*
X005654Y011898D01*
X006832Y013076D01*
X007743Y013076D01*
X007978Y012841D01*
X008322Y012841D01*
X008565Y013084D01*
X008565Y013428D01*
X008376Y013618D01*
X008868Y013618D01*
X008695Y013445D01*
X008695Y013295D01*
X009112Y013295D01*
X009112Y013218D01*
X009188Y013218D01*
X009188Y012801D01*
X009339Y012801D01*
X009605Y013068D01*
X009605Y013218D01*
X009188Y013218D01*
X009188Y013295D01*
X009605Y013295D01*
X009605Y013445D01*
X009432Y013618D01*
X009868Y013618D01*
X009695Y013445D01*
X009695Y013295D01*
X010112Y013295D01*
X010112Y013218D01*
X010188Y013218D01*
X010188Y012801D01*
X010339Y012801D01*
X010605Y013068D01*
X010605Y013218D01*
X010188Y013218D01*
X010188Y013295D01*
X010605Y013295D01*
X010605Y013445D01*
X010432Y013618D01*
X010868Y013618D01*
X010695Y013445D01*
X010695Y013295D01*
X011112Y013295D01*
X011112Y013218D01*
X011188Y013218D01*
X011188Y012801D01*
X011339Y012801D01*
X011605Y013068D01*
X011605Y013218D01*
X011188Y013218D01*
X011188Y013295D01*
X011605Y013295D01*
X011605Y013445D01*
X011432Y013618D01*
X011924Y013618D01*
X011735Y013428D01*
X011735Y013084D01*
X011910Y012909D01*
X011910Y012603D01*
X011735Y012428D01*
X011735Y012084D01*
X011883Y011936D01*
X011725Y011936D01*
X011565Y012095D01*
X011565Y012428D01*
X011322Y012671D01*
X010978Y012671D01*
X010735Y012428D01*
X010735Y012084D01*
X010978Y011841D01*
X011311Y011841D01*
X011399Y011752D01*
X010908Y011752D01*
X010565Y012095D01*
X010565Y012428D01*
X010322Y012671D01*
X009978Y012671D01*
X009735Y012428D01*
X009735Y012084D01*
X009978Y011841D01*
X010311Y011841D01*
X010587Y011565D01*
X010096Y011565D01*
X009565Y012095D01*
X009565Y012428D01*
X009322Y012671D01*
X008978Y012671D01*
X008735Y012428D01*
X008735Y012084D01*
X008978Y011841D01*
X009311Y011841D01*
X009841Y011310D01*
X009947Y011205D01*
X013215Y011205D01*
X012959Y010946D01*
X012897Y010946D01*
X012800Y010906D01*
X012725Y010831D01*
X012685Y010734D01*
X012685Y010628D01*
X012701Y010589D01*
X011961Y010589D01*
X011521Y010149D01*
X010942Y010149D01*
X010897Y010194D01*
X010018Y010194D01*
X009948Y010123D01*
X009948Y009814D01*
X010018Y009744D01*
X010897Y009744D01*
X010942Y009789D01*
X011178Y009789D01*
X011112Y009723D01*
X011081Y009649D01*
X010942Y009649D01*
X010897Y009694D01*
X010018Y009694D01*
X009973Y009649D01*
X009908Y009649D01*
X009662Y009402D01*
X009557Y009297D01*
X009557Y008485D01*
X009425Y008352D01*
X009067Y008352D01*
X009067Y008469D01*
X009067Y008555D01*
X009086Y008555D01*
X009211Y008680D01*
X009317Y008785D01*
X009317Y010361D01*
X009340Y010384D01*
X009356Y010354D01*
X009386Y010324D01*
X009423Y010303D01*
X009463Y010293D01*
X009643Y010293D01*
X009643Y010591D01*
X009680Y010591D01*
X009680Y010293D01*
X009860Y010293D01*
X009901Y010303D01*
X009937Y010324D01*
X009967Y010354D01*
X009988Y010391D01*
X009999Y010431D01*
X009999Y010591D01*
X009680Y010591D01*
X009680Y010629D01*
X009680Y010927D01*
X009860Y010927D01*
X009901Y010917D01*
X009937Y010896D01*
X009967Y010866D01*
X009988Y010829D01*
X009999Y010789D01*
X009999Y010629D01*
X009680Y010629D01*
X009680Y010582D02*
X009643Y010582D01*
X009643Y010700D02*
X009680Y010700D01*
X009680Y010819D02*
X009643Y010819D01*
X009991Y010819D02*
X012720Y010819D01*
X012685Y010700D02*
X009999Y010700D01*
X009999Y010582D02*
X011954Y010582D01*
X011835Y010463D02*
X009999Y010463D01*
X009957Y010345D02*
X011717Y010345D01*
X011598Y010226D02*
X009317Y010226D01*
X009317Y010108D02*
X009948Y010108D01*
X009948Y009989D02*
X009317Y009989D01*
X009317Y009871D02*
X009948Y009871D01*
X010009Y009752D02*
X009317Y009752D01*
X009317Y009634D02*
X009893Y009634D01*
X009775Y009515D02*
X009317Y009515D01*
X009317Y009397D02*
X009656Y009397D01*
X009557Y009278D02*
X009317Y009278D01*
X009317Y009160D02*
X009557Y009160D01*
X009557Y009041D02*
X009317Y009041D01*
X009317Y008923D02*
X009557Y008923D01*
X009557Y008804D02*
X009317Y008804D01*
X009217Y008686D02*
X009557Y008686D01*
X009557Y008567D02*
X009098Y008567D01*
X009067Y008469D02*
X008518Y008469D01*
X008518Y008469D01*
X009067Y008469D01*
X009067Y008449D02*
X009521Y008449D01*
X009737Y008410D02*
X009499Y008173D01*
X005742Y008173D01*
X005174Y008173D01*
X005174Y008081D01*
X004897Y008093D02*
X004851Y008093D01*
X004851Y007975D02*
X004897Y007975D01*
X004897Y007873D02*
X004967Y007803D01*
X005381Y007803D01*
X005451Y007873D01*
X005451Y007993D01*
X005562Y007993D01*
X005562Y007859D01*
X005555Y007859D01*
X005485Y007789D01*
X005485Y007099D01*
X005555Y007029D01*
X005930Y007029D01*
X006000Y007099D01*
X006000Y007789D01*
X005930Y007859D01*
X005922Y007859D01*
X005922Y007993D01*
X006927Y007993D01*
X006849Y007914D01*
X006794Y007859D01*
X006736Y007859D01*
X006666Y007789D01*
X006666Y007099D01*
X006736Y007029D01*
X007111Y007029D01*
X007181Y007099D01*
X007181Y007730D01*
X007256Y007730D01*
X007256Y007099D01*
X007326Y007029D01*
X007701Y007029D01*
X007772Y007099D01*
X007772Y007730D01*
X007900Y007730D01*
X007977Y007653D01*
X008599Y007653D01*
X008599Y007625D01*
X008669Y007555D01*
X009083Y007555D01*
X009153Y007625D01*
X009153Y007663D01*
X009411Y007663D01*
X009456Y007618D01*
X009553Y007578D01*
X009659Y007578D01*
X009756Y007618D01*
X009831Y007692D01*
X009871Y007790D01*
X009871Y007895D01*
X009831Y007993D01*
X009756Y008067D01*
X009680Y008099D01*
X009917Y008335D01*
X009917Y008808D01*
X009918Y008802D01*
X009939Y008765D01*
X009969Y008736D01*
X010006Y008715D01*
X010046Y008704D01*
X010457Y008704D01*
X010457Y008969D01*
X010457Y009234D01*
X010046Y009234D01*
X010006Y009223D01*
X009972Y009203D01*
X010015Y009246D01*
X010018Y009244D01*
X010897Y009244D01*
X010942Y009289D01*
X011307Y009289D01*
X011326Y009308D01*
X011389Y009308D01*
X011487Y009348D01*
X011561Y009422D01*
X011602Y009520D01*
X011602Y009625D01*
X011561Y009723D01*
X011495Y009789D01*
X011670Y009789D01*
X011757Y009875D01*
X011757Y009522D01*
X010913Y008678D01*
X010897Y008694D01*
X010018Y008694D01*
X009948Y008623D01*
X009948Y008314D01*
X010018Y008244D01*
X010741Y008244D01*
X008579Y006082D01*
X008579Y006332D01*
X008509Y006402D01*
X008015Y006402D01*
X007945Y006332D01*
X007945Y005918D01*
X008015Y005847D01*
X008345Y005847D01*
X004975Y002477D01*
X004537Y002477D01*
X004312Y002252D01*
X004207Y002147D01*
X004207Y001298D01*
X004206Y001224D01*
X004207Y001223D01*
X004259Y001170D01*
X004430Y000998D01*
X004430Y000657D01*
X004676Y000411D01*
X005024Y000411D01*
X005270Y000657D01*
X005270Y001005D01*
X005024Y001251D01*
X004686Y001251D01*
X004567Y001372D01*
X004567Y001521D01*
X004676Y001411D01*
X005024Y001411D01*
X005169Y001556D01*
X005169Y001335D01*
X005169Y001261D01*
X005169Y001261D01*
X005169Y001260D01*
X005222Y001208D01*
X005430Y000998D01*
X005430Y000657D01*
X005676Y000411D01*
X006024Y000411D01*
X006270Y000657D01*
X006270Y001005D01*
X006024Y001251D01*
X005686Y001251D01*
X005529Y001409D01*
X005529Y001558D01*
X005676Y001411D01*
X006024Y001411D01*
X006169Y001556D01*
X006169Y001335D01*
X006169Y001261D01*
X006169Y001261D01*
X006169Y001260D01*
X006222Y001208D01*
X006430Y000998D01*
X006430Y000657D01*
X006676Y000411D01*
X007024Y000411D01*
X007270Y000657D01*
X007270Y001005D01*
X007024Y001251D01*
X006686Y001251D01*
X006529Y001409D01*
X006529Y001558D01*
X006676Y001411D01*
X007024Y001411D01*
X007169Y001556D01*
X007169Y001335D01*
X007169Y001261D01*
X007169Y001261D01*
X007169Y001260D01*
X007222Y001208D01*
X007430Y000998D01*
X007430Y000657D01*
X007676Y000411D01*
X008024Y000411D01*
X008270Y000657D01*
X008270Y001005D01*
X008024Y001251D01*
X007686Y001251D01*
X007529Y001409D01*
X007529Y001558D01*
X007676Y001411D01*
X008024Y001411D01*
X008169Y001556D01*
X008169Y001335D01*
X008169Y001261D01*
X008169Y001261D01*
X008169Y001260D01*
X008222Y001208D01*
X008430Y000998D01*
X008430Y000657D01*
X008676Y000411D01*
X009024Y000411D01*
X009270Y000657D01*
X009270Y001005D01*
X009024Y001251D01*
X008686Y001251D01*
X008529Y001409D01*
X008529Y001558D01*
X008676Y001411D01*
X009024Y001411D01*
X009169Y001556D01*
X009169Y001335D01*
X009169Y001261D01*
X009169Y001261D01*
X009169Y001260D01*
X009222Y001208D01*
X009430Y000998D01*
X009430Y000657D01*
X009676Y000411D01*
X010024Y000411D01*
X010270Y000657D01*
X010270Y001005D01*
X010024Y001251D01*
X009686Y001251D01*
X009529Y001409D01*
X009529Y001558D01*
X009676Y001411D01*
X010024Y001411D01*
X010169Y001556D01*
X010169Y001335D01*
X010169Y001261D01*
X010169Y001261D01*
X010169Y001260D01*
X010222Y001208D01*
X010430Y000998D01*
X010430Y000657D01*
X010676Y000411D01*
X011024Y000411D01*
X011270Y000657D01*
X011270Y001005D01*
X011024Y001251D01*
X010686Y001251D01*
X010529Y001409D01*
X010529Y001558D01*
X010676Y001411D01*
X011024Y001411D01*
X011169Y001556D01*
X011169Y001335D01*
X011169Y001261D01*
X011169Y001261D01*
X011169Y001260D01*
X011222Y001208D01*
X011430Y000998D01*
X011430Y000657D01*
X011676Y000411D01*
X012024Y000411D01*
X012270Y000657D01*
X012270Y001005D01*
X012024Y001251D01*
X011686Y001251D01*
X011529Y001409D01*
X011529Y001558D01*
X011676Y001411D01*
X012024Y001411D01*
X012169Y001556D01*
X012169Y001335D01*
X012169Y001261D01*
X012169Y001261D01*
X012169Y001260D01*
X012222Y001208D01*
X012430Y000998D01*
X012430Y000657D01*
X012676Y000411D01*
X013024Y000411D01*
X013270Y000657D01*
X013270Y001005D01*
X013024Y001251D01*
X012686Y001251D01*
X012529Y001409D01*
X012529Y001501D01*
X012659Y001371D01*
X012810Y001371D01*
X012810Y001791D01*
X012890Y001791D01*
X012890Y001371D01*
X013041Y001371D01*
X013310Y001641D01*
X013310Y001791D01*
X012890Y001791D01*
X012890Y001871D01*
X013310Y001871D01*
X013310Y002022D01*
X013041Y002291D01*
X012890Y002291D01*
X012890Y001871D01*
X012810Y001871D01*
X012810Y002291D01*
X012659Y002291D01*
X012529Y002161D01*
X012529Y005323D01*
X013440Y006233D01*
X013440Y006078D01*
X013450Y006037D01*
X013471Y006001D01*
X013501Y005971D01*
X013538Y005950D01*
X013578Y005939D01*
X013738Y005939D01*
X013738Y006238D01*
X013776Y006238D01*
X013776Y006275D01*
X014074Y006275D01*
X014074Y006435D01*
X014064Y006476D01*
X014043Y006512D01*
X014013Y006542D01*
X013976Y006563D01*
X013936Y006574D01*
X013780Y006574D01*
X013985Y006779D01*
X013994Y006745D01*
X014015Y006708D01*
X014023Y006700D01*
X014023Y006560D01*
X014093Y006490D01*
X014106Y006490D01*
X014080Y006464D01*
X014080Y006049D01*
X014150Y005979D01*
X014564Y005979D01*
X014634Y006049D01*
X014634Y006464D01*
X014608Y006490D01*
X014823Y006490D01*
X014825Y006492D01*
X014875Y006493D01*
X014949Y006493D01*
X014950Y006493D01*
X014951Y006493D01*
X015002Y006546D01*
X015549Y007093D01*
X015654Y007198D01*
X015654Y008330D01*
X018769Y008330D01*
X018769Y006988D01*
X018875Y006883D01*
X019042Y006883D01*
X019042Y006474D01*
X018993Y006474D01*
X018985Y006482D01*
X018949Y006503D01*
X018908Y006514D01*
X018828Y006514D01*
X018828Y006039D01*
X018828Y006039D01*
X018827Y006532D01*
X018900Y006744D01*
X019042Y006790D02*
X018618Y006790D01*
X018534Y006874D02*
X018429Y006979D01*
X018093Y006979D01*
X018057Y007015D01*
X017963Y007054D01*
X017861Y007054D01*
X017768Y007015D01*
X017696Y006943D01*
X017657Y006850D01*
X017657Y006799D01*
X017649Y006790D01*
X017168Y006790D01*
X017153Y006800D01*
X017095Y006790D01*
X017037Y006790D01*
X017024Y006777D01*
X017006Y006774D01*
X016973Y006726D01*
X016932Y006685D01*
X016932Y006666D01*
X016917Y006644D01*
X016900Y006628D01*
X016927Y006694D01*
X016927Y006799D01*
X016887Y006897D01*
X016813Y006971D01*
X016715Y007012D01*
X016610Y007012D01*
X016512Y006971D01*
X016438Y006897D01*
X016398Y006799D01*
X016398Y006694D01*
X016438Y006596D01*
X016482Y006552D01*
X016482Y006474D01*
X014979Y006474D01*
X014909Y006404D01*
X014909Y006115D01*
X014908Y006114D01*
X014907Y005748D01*
X013525Y004365D01*
X013419Y004260D01*
X013419Y001335D01*
X013419Y001261D01*
X013419Y001261D01*
X013419Y001260D01*
X013472Y001208D01*
X013680Y000998D01*
X013680Y000657D01*
X013926Y000411D01*
X014274Y000411D01*
X014520Y000657D01*
X014520Y001005D01*
X014274Y001251D01*
X013936Y001251D01*
X013779Y001409D01*
X013779Y001558D01*
X013926Y001411D01*
X014274Y001411D01*
X014419Y001556D01*
X014419Y001335D01*
X014419Y001261D01*
X014419Y001261D01*
X014419Y001260D01*
X014472Y001208D01*
X014680Y000998D01*
X014680Y000657D01*
X014926Y000411D01*
X015274Y000411D01*
X015520Y000657D01*
X015520Y001005D01*
X015274Y001251D01*
X014936Y001251D01*
X014779Y001409D01*
X014779Y001558D01*
X014926Y001411D01*
X015274Y001411D01*
X015419Y001556D01*
X015419Y001335D01*
X015419Y001261D01*
X015419Y001261D01*
X015419Y001260D01*
X015472Y001208D01*
X015680Y000998D01*
X015680Y000657D01*
X015926Y000411D01*
X016274Y000411D01*
X016520Y000657D01*
X016520Y001005D01*
X016274Y001251D01*
X015936Y001251D01*
X015779Y001409D01*
X015779Y001558D01*
X015926Y001411D01*
X016274Y001411D01*
X016520Y001657D01*
X016520Y002005D01*
X016280Y002245D01*
X016279Y003796D01*
X016279Y003872D01*
X016279Y003872D01*
X016279Y003872D01*
X016226Y003925D01*
X016107Y004044D01*
X016178Y004044D01*
X016275Y004084D01*
X016350Y004159D01*
X016390Y004256D01*
X016390Y004321D01*
X016535Y004468D01*
X016535Y004071D01*
X016585Y004021D01*
X016567Y004003D01*
X016567Y003549D01*
X016638Y003479D01*
X017052Y003479D01*
X017091Y003518D01*
X017130Y003479D01*
X017505Y003479D01*
X017505Y003423D01*
X017130Y003423D01*
X017091Y003385D01*
X017052Y003423D01*
X016638Y003423D01*
X016567Y003353D01*
X016279Y003353D01*
X016279Y003235D02*
X016567Y003235D01*
X016567Y003353D02*
X016567Y002915D01*
X016556Y002915D01*
X016515Y002904D01*
X016479Y002883D01*
X016449Y002853D01*
X016428Y002817D01*
X016417Y002776D01*
X016417Y002616D01*
X016716Y002616D01*
X016716Y002579D01*
X016753Y002579D01*
X016753Y002280D01*
X016898Y002280D01*
X016640Y002022D01*
X016640Y001871D01*
X017060Y001871D01*
X017060Y001791D01*
X017140Y001791D01*
X017140Y001371D01*
X017291Y001371D01*
X017419Y001500D01*
X017419Y001335D01*
X017419Y001261D01*
X017419Y001261D01*
X017419Y001260D01*
X017472Y001208D01*
X017680Y000998D01*
X017680Y000657D01*
X017926Y000411D01*
X018274Y000411D01*
X018520Y000657D01*
X018520Y001005D01*
X018274Y001251D01*
X017936Y001251D01*
X017779Y001409D01*
X017779Y001558D01*
X017926Y001411D01*
X018274Y001411D01*
X018419Y001556D01*
X018419Y001335D01*
X018419Y001261D01*
X018419Y001261D01*
X018419Y001260D01*
X018472Y001208D01*
X018680Y000998D01*
X018680Y000657D01*
X018926Y000411D01*
X019274Y000411D01*
X019520Y000657D01*
X019520Y001005D01*
X019274Y001251D01*
X018936Y001251D01*
X018779Y001409D01*
X018779Y001558D01*
X018926Y001411D01*
X019274Y001411D01*
X019421Y001558D01*
X019421Y001255D01*
X019680Y000997D01*
X019680Y000657D01*
X019926Y000411D01*
X020274Y000411D01*
X020520Y000657D01*
X020520Y001005D01*
X020274Y001251D01*
X019935Y001251D01*
X019781Y001405D01*
X019781Y001556D01*
X019926Y001411D01*
X020274Y001411D01*
X020420Y001557D01*
X020420Y001256D01*
X020680Y000997D01*
X020680Y000657D01*
X020926Y000411D01*
X021274Y000411D01*
X021520Y000657D01*
X021520Y001005D01*
X021274Y001251D01*
X020935Y001251D01*
X020780Y001406D01*
X020780Y001500D01*
X020909Y001371D01*
X021060Y001371D01*
X021060Y001791D01*
X021140Y001791D01*
X021140Y001371D01*
X021291Y001371D01*
X021560Y001641D01*
X021560Y001791D01*
X021140Y001791D01*
X021140Y001871D01*
X021560Y001871D01*
X021560Y002022D01*
X021291Y002291D01*
X021140Y002291D01*
X021140Y001871D01*
X021060Y001871D01*
X021060Y002291D01*
X020909Y002291D01*
X020780Y002162D01*
X020780Y002480D01*
X021398Y003098D01*
X021398Y004806D01*
X021475Y004730D01*
X022787Y003418D01*
X023586Y003418D01*
X023660Y003417D01*
X023661Y003418D01*
X023714Y003470D01*
X023932Y003686D01*
X024274Y003686D01*
X024520Y003932D01*
X024520Y004280D01*
X024274Y004526D01*
X023926Y004526D01*
X023680Y004280D01*
X023680Y003943D01*
X023513Y003777D01*
X023365Y003777D01*
X023520Y003932D01*
X023520Y004280D01*
X023370Y004430D01*
X023599Y004430D01*
X023673Y004430D01*
X023674Y004430D01*
X023726Y004482D01*
X023932Y004686D01*
X024274Y004686D01*
X024520Y004932D01*
X024520Y005280D01*
X024274Y005526D01*
X023926Y005526D01*
X023680Y005280D01*
X023680Y004943D01*
X023525Y004790D01*
X023378Y004790D01*
X023520Y004932D01*
X023520Y005280D01*
X023370Y005430D01*
X023599Y005430D01*
X023673Y005430D01*
X023674Y005430D01*
X023726Y005482D01*
X023932Y005686D01*
X024274Y005686D01*
X024520Y005932D01*
X024520Y006280D01*
X024274Y006526D01*
X023926Y006526D01*
X023680Y006280D01*
X023680Y005943D01*
X023525Y005790D01*
X023378Y005790D01*
X023520Y005932D01*
X023520Y006280D01*
X023370Y006430D01*
X023599Y006430D01*
X023673Y006430D01*
X023674Y006430D01*
X023726Y006482D01*
X023932Y006686D01*
X024274Y006686D01*
X024520Y006932D01*
X024520Y007280D01*
X024274Y007526D01*
X023926Y007526D01*
X023680Y007280D01*
X023680Y006943D01*
X023525Y006790D01*
X023378Y006790D01*
X023520Y006932D01*
X023520Y007280D01*
X023370Y007430D01*
X023599Y007430D01*
X023673Y007430D01*
X023674Y007430D01*
X023726Y007482D01*
X023932Y007686D01*
X024274Y007686D01*
X024520Y007932D01*
X024520Y008280D01*
X024274Y008526D01*
X023926Y008526D01*
X023680Y008280D01*
X023680Y007943D01*
X023525Y007790D01*
X023378Y007790D01*
X023520Y007932D01*
X023520Y008280D01*
X023370Y008430D01*
X023599Y008430D01*
X023673Y008430D01*
X023674Y008430D01*
X023726Y008482D01*
X023932Y008686D01*
X024274Y008686D01*
X024520Y008932D01*
X024520Y009280D01*
X024274Y009526D01*
X023926Y009526D01*
X023680Y009280D01*
X023680Y008943D01*
X023525Y008790D01*
X023378Y008790D01*
X023520Y008932D01*
X023520Y009280D01*
X023358Y009442D01*
X023690Y009442D01*
X023935Y009686D01*
X024274Y009686D01*
X024520Y009932D01*
X024520Y010280D01*
X024274Y010526D01*
X023926Y010526D01*
X023680Y010280D01*
X023680Y009941D01*
X023541Y009802D01*
X023390Y009802D01*
X023520Y009932D01*
X023520Y010280D01*
X023370Y010430D01*
X023599Y010430D01*
X023673Y010430D01*
X023674Y010430D01*
X023726Y010482D01*
X023932Y010686D01*
X024274Y010686D01*
X024520Y010932D01*
X024520Y011280D01*
X024274Y011526D01*
X023926Y011526D01*
X023680Y011280D01*
X023680Y010943D01*
X023525Y010790D01*
X023378Y010790D01*
X023520Y010932D01*
X023520Y011280D01*
X023370Y011430D01*
X023599Y011430D01*
X023673Y011430D01*
X023674Y011430D01*
X023726Y011482D01*
X023932Y011686D01*
X024274Y011686D01*
X024520Y011932D01*
X024520Y012280D01*
X024274Y012526D01*
X023926Y012526D01*
X023680Y012280D01*
X023680Y011943D01*
X023525Y011790D01*
X023378Y011790D01*
X023520Y011932D01*
X023520Y012280D01*
X023274Y012526D01*
X022926Y012526D01*
X022680Y012280D01*
X022680Y011943D01*
X022479Y011744D01*
X022479Y012969D01*
X022656Y013146D01*
X023060Y013146D01*
X023060Y013066D01*
X023140Y013066D01*
X023140Y012646D01*
X023291Y012646D01*
X023560Y012916D01*
X023560Y013066D01*
X023140Y013066D01*
X023140Y013146D01*
X023560Y013146D01*
X023560Y013297D01*
X023447Y013410D01*
X023658Y013410D01*
X023764Y013515D01*
X023935Y013686D01*
X024274Y013686D01*
X024520Y013932D01*
X024520Y014280D01*
X024274Y014526D01*
X023926Y014526D01*
X023680Y014280D01*
X023680Y013941D01*
X023509Y013770D01*
X023358Y013770D01*
X023520Y013932D01*
X023520Y014280D01*
X023274Y014526D01*
X022926Y014526D01*
X022680Y014280D01*
X022680Y013941D01*
X021932Y013192D01*
X021932Y011995D01*
X021923Y012004D01*
X021886Y012025D01*
X021846Y012036D01*
X021686Y012036D01*
X021686Y011737D01*
X021648Y011737D01*
X021648Y011700D01*
X021350Y011700D01*
X021350Y011540D01*
X021357Y011514D01*
X021356Y011513D01*
X021346Y011473D01*
X021346Y011313D01*
X021644Y011313D01*
X021644Y011275D01*
X021346Y011275D01*
X021346Y011180D01*
X021340Y011180D01*
X021340Y011501D01*
X021337Y011504D01*
X021344Y011511D01*
X021344Y011926D01*
X021274Y011996D01*
X020860Y011996D01*
X020790Y011926D01*
X020790Y011799D01*
X020784Y011793D01*
X020564Y011573D01*
X019295Y011573D01*
X018875Y011152D01*
X018875Y011152D01*
X018769Y011047D01*
X018769Y008690D01*
X015654Y008690D01*
X015654Y010997D01*
X015549Y011102D01*
X015267Y011384D01*
X015267Y011548D01*
X015285Y011548D01*
X015365Y011548D01*
X015405Y011559D01*
X015442Y011580D01*
X015450Y011588D01*
X015498Y011588D01*
X015498Y011531D01*
X015497Y011530D01*
X015497Y011456D01*
X015497Y011382D01*
X015498Y011382D01*
X015498Y011381D01*
X015550Y011329D01*
X015603Y011276D01*
X015727Y011153D01*
X015780Y011100D01*
X015795Y011100D01*
X015875Y011019D01*
X015989Y010972D01*
X016111Y010972D01*
X016225Y011019D01*
X016311Y011106D01*
X016358Y011219D01*
X016358Y011342D01*
X016311Y011455D01*
X016225Y011542D01*
X016112Y011588D01*
X019921Y011588D01*
X019991Y011659D01*
X019991Y011948D01*
X019992Y011949D01*
X019991Y012873D01*
X021886Y014768D01*
X022361Y014768D01*
X022624Y015030D01*
X022729Y015135D01*
X022729Y015873D01*
X022729Y015873D01*
X022729Y015948D01*
X022729Y016022D01*
X022729Y016022D01*
X022729Y016023D01*
X022676Y016075D01*
X022624Y016127D01*
X022623Y016127D01*
X022470Y016280D01*
X022470Y016618D01*
X022224Y016864D01*
X021876Y016864D01*
X021630Y016618D01*
X021630Y016270D01*
X021876Y016024D01*
X022217Y016024D01*
X022369Y015873D01*
X022369Y015718D01*
X022224Y015864D01*
X021876Y015864D01*
X021729Y015717D01*
X021729Y015873D01*
X021729Y015873D01*
X021729Y015948D01*
X021729Y016022D01*
X021729Y016022D01*
X021729Y016023D01*
X021676Y016075D01*
X021624Y016127D01*
X021623Y016127D01*
X021470Y016280D01*
X021470Y016618D01*
X021224Y016864D01*
X020876Y016864D01*
X020630Y016618D01*
X020630Y016270D01*
X020876Y016024D01*
X021217Y016024D01*
X021369Y015873D01*
X021369Y015718D01*
X021224Y015864D01*
X020876Y015864D01*
X020729Y015717D01*
X020729Y015873D01*
X020729Y015873D01*
X020729Y015948D01*
X020729Y016022D01*
X020729Y016022D01*
X020729Y016023D01*
X020676Y016075D01*
X020624Y016127D01*
X020623Y016127D01*
X020470Y016280D01*
X020470Y016618D01*
X020224Y016864D01*
X019876Y016864D01*
X019630Y016618D01*
X019630Y016270D01*
X019876Y016024D01*
X020217Y016024D01*
X020369Y015873D01*
X020369Y015718D01*
X020224Y015864D01*
X019876Y015864D01*
X019729Y015717D01*
X019729Y015873D01*
X019729Y015873D01*
X019729Y015948D01*
X019729Y016022D01*
X019729Y016022D01*
X019729Y016023D01*
X019676Y016075D01*
X019624Y016127D01*
X019623Y016127D01*
X019470Y016280D01*
X019470Y016618D01*
X019224Y016864D01*
X018876Y016864D01*
X018630Y016618D01*
X018630Y016270D01*
X018876Y016024D01*
X019217Y016024D01*
X019369Y015873D01*
X019369Y015718D01*
X019224Y015864D01*
X018876Y015864D01*
X018729Y015717D01*
X018729Y015873D01*
X018729Y015873D01*
X018729Y015948D01*
X018729Y016022D01*
X018729Y016022D01*
X018729Y016023D01*
X018676Y016075D01*
X018624Y016127D01*
X018623Y016127D01*
X018470Y016280D01*
X018470Y016618D01*
X018224Y016864D01*
X017876Y016864D01*
X017630Y016618D01*
X017630Y016270D01*
X017876Y016024D01*
X018217Y016024D01*
X018369Y015873D01*
X018369Y015718D01*
X018224Y015864D01*
X017876Y015864D01*
X017729Y015717D01*
X017729Y015873D01*
X017729Y015873D01*
X017729Y015948D01*
X017729Y016022D01*
X017729Y016022D01*
X017729Y016023D01*
X017676Y016075D01*
X017624Y016127D01*
X017623Y016127D01*
X017470Y016280D01*
X017470Y016618D01*
X017224Y016864D01*
X016876Y016864D01*
X016630Y016618D01*
X016630Y016270D01*
X016876Y016024D01*
X017217Y016024D01*
X017369Y015873D01*
X017369Y015718D01*
X017224Y015864D01*
X016876Y015864D01*
X016729Y015717D01*
X016729Y015873D01*
X016729Y015873D01*
X016729Y015948D01*
X016729Y016022D01*
X016729Y016022D01*
X016729Y016023D01*
X016676Y016075D01*
X016624Y016127D01*
X016623Y016127D01*
X016470Y016280D01*
X016470Y016618D01*
X016224Y016864D01*
X015876Y016864D01*
X015630Y016618D01*
X015630Y016270D01*
X015876Y016024D01*
X016217Y016024D01*
X016369Y015873D01*
X016369Y015718D01*
X016224Y015864D01*
X015876Y015864D01*
X015729Y015717D01*
X015729Y015873D01*
X015729Y015873D01*
X015729Y015948D01*
X015729Y016022D01*
X015729Y016022D01*
X015729Y016023D01*
X015676Y016075D01*
X015624Y016127D01*
X015623Y016127D01*
X015470Y016280D01*
X015470Y016618D01*
X015224Y016864D01*
X014876Y016864D01*
X014630Y016618D01*
X014630Y016270D01*
X014876Y016024D01*
X015217Y016024D01*
X015369Y015873D01*
X015369Y015718D01*
X015224Y015864D01*
X014876Y015864D01*
X014729Y015717D01*
X014729Y015873D01*
X014729Y015873D01*
X014729Y015948D01*
X014729Y016022D01*
X014729Y016022D01*
X014729Y016023D01*
X014676Y016075D01*
X014624Y016127D01*
X014623Y016127D01*
X014470Y016280D01*
X014470Y016618D01*
X014224Y016864D01*
X013876Y016864D01*
X013630Y016618D01*
X013630Y016270D01*
X013876Y016024D01*
X014217Y016024D01*
X014369Y015873D01*
X014369Y015718D01*
X014224Y015864D01*
X013876Y015864D01*
X013630Y015618D01*
X013630Y015270D01*
X013876Y015024D01*
X014216Y015024D01*
X014889Y014352D01*
X006724Y014352D01*
X006724Y014367D01*
X006677Y014481D01*
X006590Y014567D01*
X006477Y014614D01*
X006354Y014614D01*
X006241Y014567D01*
X006154Y014481D01*
X006126Y014413D01*
X005677Y014862D01*
X005677Y014862D01*
X005633Y014906D01*
X005734Y014906D01*
X005734Y015205D01*
X005772Y015205D01*
X005772Y015242D01*
X006071Y015242D01*
X006071Y015402D01*
X006063Y015430D01*
X006076Y015430D01*
X006076Y015016D01*
X006146Y014946D01*
X006319Y014946D01*
X006498Y014767D01*
X006627Y014639D01*
X006745Y014639D01*
X006745Y014514D01*
X006815Y014444D01*
X007705Y014444D01*
X007775Y014514D01*
X007775Y015203D01*
X009225Y015203D01*
X009225Y015085D02*
X007775Y015085D01*
X007775Y015203D02*
X007705Y015274D01*
X006815Y015274D01*
X006745Y015203D01*
X006684Y015203D01*
X006745Y015203D02*
X006745Y015143D01*
X006631Y015257D01*
X006631Y015431D01*
X006573Y015488D01*
X006573Y015658D01*
X006451Y015780D01*
X006451Y015928D01*
X006745Y015635D01*
X006745Y015414D01*
X006815Y015344D01*
X007705Y015344D01*
X007775Y015414D01*
X007775Y015522D01*
X007952Y015523D01*
X007999Y015523D01*
X008000Y015523D01*
X008001Y015523D01*
X008044Y015541D01*
X008088Y015559D01*
X008088Y015560D01*
X008089Y015560D01*
X008122Y015593D01*
X009068Y016540D01*
X009225Y016540D01*
X009225Y014969D01*
X009295Y014899D01*
X010185Y014899D01*
X010255Y014969D01*
X010255Y015902D01*
X010608Y015902D01*
X010655Y015855D01*
X011345Y015855D01*
X011415Y015925D01*
X011415Y016540D01*
X011615Y016540D01*
X011630Y016524D01*
X011630Y016270D01*
X011810Y016090D01*
X011810Y015798D01*
X011630Y015618D01*
X011630Y015270D01*
X011876Y015024D01*
X012224Y015024D01*
X012470Y015270D01*
X012470Y015618D01*
X012290Y015798D01*
X012290Y016090D01*
X012470Y016270D01*
X012470Y016618D01*
X012224Y016864D01*
X011969Y016864D01*
X011850Y016983D01*
X011762Y017020D01*
X010651Y017020D01*
X010613Y017057D01*
X010199Y017057D01*
X010161Y017020D01*
X008921Y017020D01*
X008833Y016983D01*
X007852Y016002D01*
X007775Y016002D01*
X007775Y016103D01*
X007705Y016174D01*
X006815Y016174D01*
X006779Y016137D01*
X006779Y016228D01*
X006803Y016215D01*
X006844Y016204D01*
X007200Y016204D01*
X007200Y016599D01*
X006720Y016599D01*
X006643Y016675D01*
X006643Y016906D01*
X006573Y016976D01*
X006158Y016976D01*
X006088Y016906D01*
X006088Y016491D01*
X006158Y016421D01*
X006388Y016421D01*
X006419Y016390D01*
X006419Y016340D01*
X006381Y016378D01*
X005652Y016378D01*
X005581Y016308D01*
X005581Y015541D01*
X005574Y015541D01*
X005534Y015530D01*
X005497Y015509D01*
X005468Y015479D01*
X005448Y015446D01*
X005414Y015466D01*
X005374Y015477D01*
X005326Y015477D01*
X005349Y015500D01*
X005349Y016308D01*
X005279Y016378D01*
X004549Y016378D01*
X004479Y016308D01*
X004479Y015780D01*
X004375Y015676D01*
X004375Y015424D01*
X004318Y015366D01*
X004318Y015319D01*
X003540Y015319D01*
X003538Y015317D01*
X002971Y015317D01*
X002901Y015247D01*
X002901Y014950D01*
X002910Y014941D01*
X002901Y014932D01*
X002901Y014635D01*
X002910Y014626D01*
X002901Y014617D01*
X002901Y014320D01*
X002910Y014311D01*
X002901Y014302D01*
X002901Y014043D01*
X002893Y014035D01*
X002872Y013999D01*
X002861Y013958D01*
X002861Y013839D01*
X003631Y013839D01*
X003631Y013839D01*
X004401Y013839D01*
X004401Y013958D01*
X004397Y013975D01*
X005168Y013977D01*
X005250Y013895D01*
X005364Y013848D01*
X005486Y013848D01*
X005600Y013895D01*
X005686Y013982D01*
X005715Y014052D01*
X006150Y013618D01*
X007924Y013618D01*
X007743Y013436D01*
X006683Y013436D01*
X006578Y013331D01*
X006578Y013331D01*
X005400Y012152D01*
X004400Y012152D01*
X003749Y011502D01*
X003644Y011397D01*
X003644Y008202D01*
X002477Y008202D01*
X002407Y008132D01*
X002407Y006938D01*
X002477Y006868D01*
X003644Y006868D01*
X003644Y006179D01*
X003450Y006179D01*
X003380Y006108D01*
X003380Y005379D01*
X003450Y005309D01*
X004455Y005309D01*
X004525Y005379D01*
X004525Y005577D01*
X004796Y005577D01*
X005405Y005576D01*
X005450Y005531D01*
X005547Y005491D01*
X005653Y005491D01*
X005750Y005531D01*
X005825Y005606D01*
X005865Y005703D01*
X005865Y005809D01*
X005825Y005906D01*
X005750Y005981D01*
X005653Y006021D01*
X005547Y006021D01*
X005450Y005981D01*
X005406Y005936D01*
X005311Y005937D01*
X005311Y006332D01*
X005241Y006402D01*
X004748Y006402D01*
X004677Y006332D01*
X004677Y005937D01*
X004525Y005937D01*
X004525Y006108D01*
X004455Y006179D01*
X004004Y006179D01*
X004004Y007901D01*
X004297Y007901D01*
X004297Y007873D01*
X004367Y007803D01*
X004781Y007803D01*
X004851Y007873D01*
X004851Y008288D01*
X004781Y008358D01*
X004367Y008358D01*
X004297Y008288D01*
X004297Y008261D01*
X004004Y008261D01*
X004004Y009243D01*
X004039Y009197D01*
X004100Y009136D01*
X004169Y009083D01*
X004244Y009040D01*
X004324Y009007D01*
X004407Y008984D01*
X004493Y008973D01*
X004498Y008973D01*
X004498Y009594D01*
X004575Y009594D01*
X004575Y008973D01*
X004580Y008973D01*
X004665Y008984D01*
X004749Y009007D01*
X004829Y009040D01*
X004904Y009083D01*
X004972Y009136D01*
X005034Y009197D01*
X005086Y009265D01*
X005130Y009340D01*
X005149Y009386D01*
X005192Y009282D01*
X005366Y009107D01*
X005594Y009013D01*
X005841Y009013D01*
X006069Y009107D01*
X006243Y009282D01*
X006293Y009402D01*
X006371Y009370D01*
X006477Y009370D01*
X006574Y009410D01*
X006649Y009485D01*
X006669Y009534D01*
X006669Y009448D01*
X006775Y009343D01*
X006887Y009230D01*
X007322Y009230D01*
X007322Y009183D01*
X007392Y009113D01*
X007642Y009113D01*
X007647Y009107D01*
X007392Y009107D01*
X007322Y009037D01*
X007322Y008583D01*
X007392Y008513D01*
X007806Y008513D01*
X007848Y008555D01*
X007968Y008555D01*
X007968Y008469D01*
X008517Y008469D01*
X008517Y008469D01*
X007968Y008469D01*
X007968Y008352D01*
X005387Y008352D01*
X005381Y008358D01*
X004967Y008358D01*
X004897Y008288D01*
X004897Y007873D01*
X004914Y007856D02*
X004834Y007856D01*
X004574Y008081D02*
X003824Y008081D01*
X003824Y005560D01*
X003849Y005535D01*
X003824Y005753D02*
X003750Y005753D01*
X003953Y005744D01*
X003824Y005775D01*
X003750Y005753D02*
X003649Y005757D01*
X004796Y005757D01*
X005600Y005756D01*
X005851Y005842D02*
X008339Y005842D01*
X008220Y005723D02*
X005865Y005723D01*
X005823Y005605D02*
X008102Y005605D01*
X007983Y005486D02*
X004525Y005486D01*
X004514Y005368D02*
X007865Y005368D01*
X007746Y005249D02*
X000809Y005249D01*
X000892Y005330D02*
X000921Y005301D01*
X000958Y005280D01*
X000999Y005269D01*
X001412Y005269D01*
X001412Y005684D01*
X000860Y005684D01*
X000860Y005408D01*
X000870Y005367D01*
X000892Y005330D01*
X000870Y005368D02*
X000809Y005368D01*
X000809Y005486D02*
X000860Y005486D01*
X000860Y005605D02*
X000809Y005605D01*
X000809Y005723D02*
X001412Y005723D01*
X001412Y005684D02*
X001412Y005804D01*
X001412Y006219D01*
X000999Y006219D01*
X000958Y006208D01*
X000921Y006187D01*
X000892Y006157D01*
X000870Y006120D01*
X000860Y006080D01*
X000860Y005804D01*
X001412Y005804D01*
X001532Y005804D01*
X001532Y006219D01*
X001946Y006219D01*
X001987Y006208D01*
X002023Y006187D01*
X002053Y006157D01*
X002074Y006120D01*
X002085Y006080D01*
X002085Y005804D01*
X001532Y005804D01*
X001532Y005684D01*
X002085Y005684D01*
X002085Y005408D01*
X002074Y005367D01*
X002053Y005330D01*
X002023Y005301D01*
X001987Y005280D01*
X001946Y005269D01*
X001532Y005269D01*
X001532Y005684D01*
X001412Y005684D01*
X001412Y005605D02*
X001532Y005605D01*
X001532Y005723D02*
X003380Y005723D01*
X003380Y005605D02*
X002085Y005605D01*
X002085Y005486D02*
X003380Y005486D01*
X003391Y005368D02*
X002074Y005368D01*
X001532Y005368D02*
X001412Y005368D01*
X001412Y005486D02*
X001532Y005486D01*
X001532Y005842D02*
X001412Y005842D01*
X001412Y005960D02*
X001532Y005960D01*
X001532Y006079D02*
X001412Y006079D01*
X001412Y006197D02*
X001532Y006197D01*
X002005Y006197D02*
X003644Y006197D01*
X003644Y006316D02*
X000809Y006316D01*
X000809Y006434D02*
X003644Y006434D01*
X003644Y006553D02*
X000809Y006553D01*
X000809Y006671D02*
X003644Y006671D01*
X003644Y006790D02*
X000809Y006790D01*
X000809Y006908D02*
X002436Y006908D01*
X002407Y007027D02*
X000809Y007027D01*
X000809Y007145D02*
X002407Y007145D01*
X002407Y007264D02*
X000809Y007264D01*
X000809Y007382D02*
X002407Y007382D01*
X002407Y007501D02*
X000809Y007501D01*
X000809Y007619D02*
X002407Y007619D01*
X002407Y007738D02*
X000809Y007738D01*
X000809Y007856D02*
X002407Y007856D01*
X002407Y007975D02*
X000809Y007975D01*
X000809Y008093D02*
X002407Y008093D01*
X003644Y008212D02*
X000809Y008212D01*
X000809Y008330D02*
X003644Y008330D01*
X003644Y008449D02*
X000809Y008449D01*
X000809Y008567D02*
X003644Y008567D01*
X003644Y008686D02*
X000809Y008686D01*
X000809Y008804D02*
X003644Y008804D01*
X003644Y008923D02*
X000809Y008923D01*
X000809Y009041D02*
X003644Y009041D01*
X003644Y009160D02*
X000809Y009160D01*
X000809Y009278D02*
X003644Y009278D01*
X003644Y009397D02*
X002963Y009397D01*
X002932Y009384D02*
X003241Y009511D01*
X003477Y009748D01*
X003605Y010056D01*
X003605Y010391D01*
X003477Y010699D01*
X003241Y010936D01*
X002932Y011063D01*
X002598Y011063D01*
X002289Y010936D01*
X002053Y010699D01*
X001925Y010391D01*
X001925Y010056D01*
X002053Y009748D01*
X002289Y009511D01*
X002598Y009384D01*
X002932Y009384D01*
X003244Y009515D02*
X003644Y009515D01*
X003644Y009634D02*
X003363Y009634D01*
X003479Y009752D02*
X003644Y009752D01*
X003644Y009871D02*
X003528Y009871D01*
X003577Y009989D02*
X003644Y009989D01*
X003644Y010108D02*
X003605Y010108D01*
X003605Y010226D02*
X003644Y010226D01*
X003644Y010345D02*
X003605Y010345D01*
X003575Y010463D02*
X003644Y010463D01*
X003644Y010582D02*
X003526Y010582D01*
X003476Y010700D02*
X003644Y010700D01*
X003644Y010819D02*
X003358Y010819D01*
X003237Y010937D02*
X003644Y010937D01*
X003644Y011056D02*
X002951Y011056D01*
X002579Y011056D02*
X000809Y011056D01*
X000809Y011174D02*
X003644Y011174D01*
X003644Y011293D02*
X000809Y011293D01*
X000809Y011411D02*
X003658Y011411D01*
X003777Y011530D02*
X000809Y011530D01*
X000809Y011648D02*
X003895Y011648D01*
X004014Y011767D02*
X000809Y011767D01*
X000809Y011885D02*
X004132Y011885D01*
X004251Y012004D02*
X000809Y012004D01*
X000809Y012122D02*
X004369Y012122D01*
X004340Y012195D02*
X004369Y012225D01*
X004390Y012261D01*
X004401Y012302D01*
X004401Y012657D01*
X003652Y012657D01*
X003652Y012777D01*
X003532Y012777D01*
X003532Y013270D01*
X002921Y013270D01*
X002880Y013259D01*
X002844Y013238D01*
X002814Y013209D01*
X002793Y013172D01*
X002782Y013131D01*
X002782Y012777D01*
X003532Y012777D01*
X003532Y012657D01*
X002782Y012657D01*
X002782Y012302D01*
X002793Y012261D01*
X002814Y012225D01*
X002844Y012195D01*
X002880Y012174D01*
X002921Y012163D01*
X003532Y012163D01*
X003532Y012657D01*
X003652Y012657D01*
X003652Y012163D01*
X004262Y012163D01*
X004303Y012174D01*
X004340Y012195D01*
X004379Y012241D02*
X005488Y012241D01*
X005606Y012359D02*
X004401Y012359D01*
X004401Y012478D02*
X005725Y012478D01*
X005843Y012596D02*
X004401Y012596D01*
X004401Y012777D02*
X004401Y013131D01*
X004390Y013172D01*
X004369Y013209D01*
X004340Y013238D01*
X004303Y013259D01*
X004262Y013270D01*
X003652Y013270D01*
X003652Y012777D01*
X004401Y012777D01*
X004401Y012833D02*
X006080Y012833D01*
X005962Y012715D02*
X003652Y012715D01*
X003652Y012833D02*
X003532Y012833D01*
X003532Y012715D02*
X001329Y012715D01*
X001329Y012657D02*
X001329Y012777D01*
X001209Y012777D01*
X001209Y013270D01*
X000809Y013270D01*
X000809Y015667D01*
X001209Y015667D01*
X001209Y016161D01*
X001329Y016161D01*
X001329Y016281D01*
X001209Y016281D01*
X001209Y016774D01*
X000809Y016774D01*
X000809Y017066D01*
X006751Y017066D01*
X006737Y017052D01*
X006716Y017015D01*
X006705Y016975D01*
X006705Y016719D01*
X007200Y016719D01*
X007200Y017066D01*
X007320Y017066D01*
X007320Y016719D01*
X007200Y016719D01*
X007200Y016599D01*
X007320Y016599D01*
X007320Y016719D01*
X007815Y016719D01*
X007815Y016975D01*
X007804Y017015D01*
X007783Y017052D01*
X007769Y017066D01*
X024570Y017066D01*
X024570Y000370D01*
X001784Y000370D01*
X002053Y000481D01*
X002278Y000707D01*
X002400Y001001D01*
X002400Y001319D01*
X002278Y001613D01*
X002053Y001839D01*
X001758Y001961D01*
X001440Y001961D01*
X001146Y001839D01*
X000920Y001613D01*
X000809Y001345D01*
X000809Y012163D01*
X001209Y012163D01*
X001209Y012657D01*
X001329Y012657D01*
X001921Y012657D01*
X001921Y012302D01*
X001910Y012261D01*
X001889Y012225D01*
X001859Y012195D01*
X001823Y012174D01*
X001782Y012163D01*
X001329Y012163D01*
X001329Y012657D01*
X001329Y012596D02*
X001209Y012596D01*
X001209Y012478D02*
X001329Y012478D01*
X001329Y012359D02*
X001209Y012359D01*
X001209Y012241D02*
X001329Y012241D01*
X001898Y012241D02*
X002805Y012241D01*
X002782Y012359D02*
X001921Y012359D01*
X001921Y012478D02*
X002782Y012478D01*
X002782Y012596D02*
X001921Y012596D01*
X001921Y012777D02*
X001921Y013131D01*
X001910Y013172D01*
X001889Y013209D01*
X001859Y013238D01*
X001823Y013259D01*
X001782Y013270D01*
X001329Y013270D01*
X001329Y012777D01*
X001921Y012777D01*
X001921Y012833D02*
X002782Y012833D01*
X002782Y012952D02*
X001921Y012952D01*
X001921Y013070D02*
X002782Y013070D01*
X002803Y013189D02*
X001901Y013189D01*
X002122Y013383D02*
X002231Y013274D01*
X002373Y013215D01*
X002527Y013215D01*
X002669Y013274D01*
X002778Y013383D01*
X002837Y013525D01*
X002837Y013679D01*
X002778Y013822D01*
X002669Y013931D01*
X002527Y013990D01*
X002373Y013990D01*
X002231Y013931D01*
X002122Y013822D01*
X002063Y013679D01*
X002063Y013525D01*
X002122Y013383D01*
X002104Y013426D02*
X000809Y013426D01*
X000809Y013544D02*
X002063Y013544D01*
X002063Y013663D02*
X000809Y013663D01*
X000809Y013781D02*
X002105Y013781D01*
X002200Y013900D02*
X000809Y013900D01*
X000809Y014018D02*
X002883Y014018D01*
X002901Y014137D02*
X000809Y014137D01*
X000809Y014255D02*
X002901Y014255D01*
X002901Y014374D02*
X000809Y014374D01*
X000809Y014492D02*
X002901Y014492D01*
X002901Y014611D02*
X000809Y014611D01*
X000809Y014729D02*
X002901Y014729D01*
X002901Y014848D02*
X000809Y014848D01*
X000809Y014966D02*
X002328Y014966D01*
X002373Y014948D02*
X002527Y014948D01*
X002669Y015007D01*
X002778Y015115D01*
X002837Y015258D01*
X002837Y015412D01*
X002778Y015554D01*
X002669Y015663D01*
X002527Y015722D01*
X002373Y015722D01*
X002231Y015663D01*
X002122Y015554D01*
X002063Y015412D01*
X002063Y015258D01*
X002122Y015115D01*
X002231Y015007D01*
X002373Y014948D01*
X002572Y014966D02*
X002901Y014966D01*
X002901Y015085D02*
X002747Y015085D01*
X002815Y015203D02*
X002901Y015203D01*
X002837Y015322D02*
X004318Y015322D01*
X004375Y015440D02*
X002825Y015440D01*
X002774Y015559D02*
X004375Y015559D01*
X004376Y015677D02*
X004300Y015677D01*
X004303Y015678D02*
X004340Y015699D01*
X004369Y015729D01*
X004390Y015765D01*
X004401Y015806D01*
X004401Y016161D01*
X003652Y016161D01*
X003652Y016281D01*
X003532Y016281D01*
X003532Y016774D01*
X002921Y016774D01*
X002880Y016763D01*
X002844Y016742D01*
X002814Y016713D01*
X002793Y016676D01*
X002782Y016635D01*
X002782Y016281D01*
X003532Y016281D01*
X003532Y016161D01*
X002782Y016161D01*
X002782Y015806D01*
X002793Y015765D01*
X002814Y015729D01*
X002844Y015699D01*
X002880Y015678D01*
X002921Y015667D01*
X003532Y015667D01*
X003532Y016161D01*
X003652Y016161D01*
X003652Y015667D01*
X004262Y015667D01*
X004303Y015678D01*
X004399Y015796D02*
X004479Y015796D01*
X004479Y015914D02*
X004401Y015914D01*
X004401Y016033D02*
X004479Y016033D01*
X004479Y016151D02*
X004401Y016151D01*
X004401Y016281D02*
X004401Y016635D01*
X004390Y016676D01*
X004369Y016713D01*
X004340Y016742D01*
X004303Y016763D01*
X004262Y016774D01*
X003652Y016774D01*
X003652Y016281D01*
X004401Y016281D01*
X004479Y016270D02*
X003652Y016270D01*
X003652Y016388D02*
X003532Y016388D01*
X003532Y016270D02*
X001329Y016270D01*
X001329Y016281D02*
X001921Y016281D01*
X001921Y016635D01*
X001910Y016676D01*
X001889Y016713D01*
X001859Y016742D01*
X001823Y016763D01*
X001782Y016774D01*
X001329Y016774D01*
X001329Y016281D01*
X001329Y016388D02*
X001209Y016388D01*
X001209Y016507D02*
X001329Y016507D01*
X001329Y016625D02*
X001209Y016625D01*
X001209Y016744D02*
X001329Y016744D01*
X001857Y016744D02*
X002846Y016744D01*
X002782Y016625D02*
X001921Y016625D01*
X001921Y016507D02*
X002782Y016507D01*
X002782Y016388D02*
X001921Y016388D01*
X001921Y016161D02*
X001329Y016161D01*
X001329Y015667D01*
X001782Y015667D01*
X001823Y015678D01*
X001859Y015699D01*
X001889Y015729D01*
X001910Y015765D01*
X001921Y015806D01*
X001921Y016161D01*
X001921Y016151D02*
X002782Y016151D01*
X002782Y016033D02*
X001921Y016033D01*
X001921Y015914D02*
X002782Y015914D01*
X002785Y015796D02*
X001918Y015796D01*
X001820Y015677D02*
X002265Y015677D01*
X002126Y015559D02*
X000809Y015559D01*
X000809Y015440D02*
X002075Y015440D01*
X002063Y015322D02*
X000809Y015322D01*
X000809Y015203D02*
X002085Y015203D01*
X002153Y015085D02*
X000809Y015085D01*
X001209Y015677D02*
X001329Y015677D01*
X001329Y015796D02*
X001209Y015796D01*
X001209Y015914D02*
X001329Y015914D01*
X001329Y016033D02*
X001209Y016033D01*
X001209Y016151D02*
X001329Y016151D01*
X000809Y016862D02*
X005448Y016862D01*
X005448Y016877D02*
X005448Y016717D01*
X005747Y016717D01*
X005747Y017016D01*
X005587Y017016D01*
X005546Y017005D01*
X005510Y016984D01*
X005480Y016954D01*
X005459Y016918D01*
X005448Y016877D01*
X005506Y016981D02*
X000809Y016981D01*
X002635Y015677D02*
X002883Y015677D01*
X003532Y015677D02*
X003652Y015677D01*
X003652Y015796D02*
X003532Y015796D01*
X003532Y015914D02*
X003652Y015914D01*
X003652Y016033D02*
X003532Y016033D01*
X003532Y016151D02*
X003652Y016151D01*
X003652Y016507D02*
X003532Y016507D01*
X003532Y016625D02*
X003652Y016625D01*
X003652Y016744D02*
X003532Y016744D01*
X004337Y016744D02*
X005448Y016744D01*
X005448Y016680D02*
X005448Y016520D01*
X005459Y016479D01*
X005480Y016443D01*
X005510Y016413D01*
X005546Y016392D01*
X005587Y016381D01*
X005747Y016381D01*
X005747Y016680D01*
X005448Y016680D01*
X005448Y016625D02*
X004401Y016625D01*
X004401Y016507D02*
X005452Y016507D01*
X005560Y016388D02*
X004401Y016388D01*
X005349Y016270D02*
X005581Y016270D01*
X005581Y016151D02*
X005349Y016151D01*
X005349Y016033D02*
X005581Y016033D01*
X005581Y015914D02*
X005349Y015914D01*
X005349Y015796D02*
X005581Y015796D01*
X005581Y015677D02*
X005349Y015677D01*
X005349Y015559D02*
X005581Y015559D01*
X005753Y015223D02*
X005753Y014881D01*
X005849Y014785D01*
X005810Y014729D02*
X006536Y014729D01*
X006486Y014611D02*
X006745Y014611D01*
X006767Y014492D02*
X006665Y014492D01*
X006721Y014374D02*
X014868Y014374D01*
X014749Y014492D02*
X011417Y014492D01*
X011423Y014499D02*
X011444Y014535D01*
X011455Y014576D01*
X011455Y014832D01*
X011060Y014832D01*
X011060Y014437D01*
X011316Y014437D01*
X011357Y014448D01*
X011394Y014469D01*
X011423Y014499D01*
X011455Y014611D02*
X014630Y014611D01*
X014512Y014729D02*
X011455Y014729D01*
X011455Y014952D02*
X011060Y014952D01*
X011060Y014832D01*
X010940Y014832D01*
X010940Y014437D01*
X010684Y014437D01*
X010643Y014448D01*
X010606Y014469D01*
X010577Y014499D01*
X010556Y014535D01*
X010545Y014576D01*
X010545Y014832D01*
X010940Y014832D01*
X010940Y014952D01*
X010545Y014952D01*
X010545Y015208D01*
X010556Y015249D01*
X010577Y015286D01*
X010606Y015315D01*
X010643Y015337D01*
X010684Y015347D01*
X010940Y015347D01*
X010940Y014952D01*
X011060Y014952D01*
X011060Y015347D01*
X011316Y015347D01*
X011357Y015337D01*
X011394Y015315D01*
X011423Y015286D01*
X011444Y015249D01*
X011455Y015208D01*
X011455Y014952D01*
X011455Y014966D02*
X014274Y014966D01*
X014393Y014848D02*
X011060Y014848D01*
X011060Y014966D02*
X010940Y014966D01*
X010940Y014848D02*
X007775Y014848D01*
X007775Y014966D02*
X009228Y014966D01*
X009225Y015322D02*
X006631Y015322D01*
X006621Y015440D02*
X006745Y015440D01*
X006745Y015559D02*
X006573Y015559D01*
X006554Y015677D02*
X006703Y015677D01*
X006584Y015796D02*
X006451Y015796D01*
X006451Y015914D02*
X006466Y015914D01*
X006599Y016035D02*
X006599Y016465D01*
X006366Y016698D01*
X006643Y016744D02*
X006705Y016744D01*
X006705Y016862D02*
X006643Y016862D01*
X006707Y016981D02*
X006025Y016981D01*
X006021Y016984D02*
X005985Y017005D01*
X005944Y017016D01*
X005784Y017016D01*
X005784Y016717D01*
X005747Y016717D01*
X005747Y016680D01*
X005784Y016680D01*
X005784Y016717D01*
X006083Y016717D01*
X006083Y016877D01*
X006072Y016918D01*
X006051Y016954D01*
X006021Y016984D01*
X006083Y016862D02*
X006088Y016862D01*
X006083Y016744D02*
X006088Y016744D01*
X006083Y016680D02*
X005784Y016680D01*
X005784Y016381D01*
X005944Y016381D01*
X005985Y016392D01*
X006021Y016413D01*
X006051Y016443D01*
X006072Y016479D01*
X006083Y016520D01*
X006083Y016680D01*
X006083Y016625D02*
X006088Y016625D01*
X006079Y016507D02*
X006088Y016507D01*
X005971Y016388D02*
X006419Y016388D01*
X006693Y016625D02*
X007200Y016625D01*
X007200Y016507D02*
X007320Y016507D01*
X007320Y016599D02*
X007320Y016204D01*
X007676Y016204D01*
X007717Y016215D01*
X007753Y016236D01*
X007783Y016265D01*
X007804Y016302D01*
X007815Y016343D01*
X007815Y016599D01*
X007320Y016599D01*
X007320Y016625D02*
X008475Y016625D01*
X008593Y016744D02*
X007815Y016744D01*
X007815Y016862D02*
X008712Y016862D01*
X008830Y016981D02*
X007813Y016981D01*
X007320Y016981D02*
X007200Y016981D01*
X007200Y016862D02*
X007320Y016862D01*
X007320Y016744D02*
X007200Y016744D01*
X007200Y016388D02*
X007320Y016388D01*
X007320Y016270D02*
X007200Y016270D01*
X006793Y016151D02*
X006779Y016151D01*
X006599Y016035D02*
X006876Y015759D01*
X007260Y015759D01*
X007775Y016033D02*
X007882Y016033D01*
X008001Y016151D02*
X007727Y016151D01*
X007785Y016270D02*
X008119Y016270D01*
X008238Y016388D02*
X007815Y016388D01*
X007815Y016507D02*
X008356Y016507D01*
X008680Y016151D02*
X009225Y016151D01*
X009225Y016033D02*
X008561Y016033D01*
X008443Y015914D02*
X009225Y015914D01*
X009225Y015796D02*
X008324Y015796D01*
X008206Y015677D02*
X009225Y015677D01*
X009225Y015559D02*
X008086Y015559D01*
X007775Y015440D02*
X009225Y015440D01*
X010252Y014966D02*
X010545Y014966D01*
X010545Y015085D02*
X010255Y015085D01*
X010255Y015203D02*
X010545Y015203D01*
X010617Y015322D02*
X010255Y015322D01*
X010255Y015440D02*
X011630Y015440D01*
X011630Y015322D02*
X011383Y015322D01*
X011455Y015203D02*
X011697Y015203D01*
X011815Y015085D02*
X011455Y015085D01*
X011060Y015085D02*
X010940Y015085D01*
X010940Y015203D02*
X011060Y015203D01*
X011060Y015322D02*
X010940Y015322D01*
X010255Y015559D02*
X011630Y015559D01*
X011689Y015677D02*
X010255Y015677D01*
X010255Y015796D02*
X011808Y015796D01*
X011810Y015914D02*
X011404Y015914D01*
X011415Y016033D02*
X011810Y016033D01*
X011749Y016151D02*
X011415Y016151D01*
X011415Y016270D02*
X011630Y016270D01*
X011630Y016388D02*
X011415Y016388D01*
X011415Y016507D02*
X011630Y016507D01*
X012226Y016862D02*
X012818Y016862D01*
X012859Y016904D02*
X012590Y016634D01*
X012590Y016484D01*
X013010Y016484D01*
X013010Y016904D01*
X012859Y016904D01*
X013010Y016862D02*
X013090Y016862D01*
X013090Y016904D02*
X013241Y016904D01*
X013510Y016634D01*
X013510Y016484D01*
X013090Y016484D01*
X013010Y016484D01*
X013010Y016404D01*
X012590Y016404D01*
X012590Y016253D01*
X012859Y015984D01*
X013010Y015984D01*
X013010Y016404D01*
X013090Y016404D01*
X013090Y016484D01*
X013090Y016904D01*
X013090Y016744D02*
X013010Y016744D01*
X013010Y016625D02*
X013090Y016625D01*
X013090Y016507D02*
X013010Y016507D01*
X013010Y016388D02*
X013090Y016388D01*
X013090Y016404D02*
X013090Y015984D01*
X013241Y015984D01*
X013510Y016253D01*
X013510Y016404D01*
X013090Y016404D01*
X013090Y016270D02*
X013010Y016270D01*
X013010Y016151D02*
X013090Y016151D01*
X013090Y016033D02*
X013010Y016033D01*
X013010Y015904D02*
X012859Y015904D01*
X012590Y015634D01*
X012590Y015484D01*
X013010Y015484D01*
X013010Y015904D01*
X013090Y015904D02*
X013241Y015904D01*
X013510Y015634D01*
X013510Y015484D01*
X013090Y015484D01*
X013010Y015484D01*
X013010Y015404D01*
X012590Y015404D01*
X012590Y015253D01*
X012859Y014984D01*
X013010Y014984D01*
X013010Y015404D01*
X013090Y015404D01*
X013090Y015484D01*
X013090Y015904D01*
X013090Y015796D02*
X013010Y015796D01*
X013010Y015677D02*
X013090Y015677D01*
X013090Y015559D02*
X013010Y015559D01*
X013010Y015440D02*
X012470Y015440D01*
X012470Y015322D02*
X012590Y015322D01*
X012640Y015203D02*
X012403Y015203D01*
X012285Y015085D02*
X012759Y015085D01*
X013010Y015085D02*
X013090Y015085D01*
X013090Y014984D02*
X013241Y014984D01*
X013510Y015253D01*
X013510Y015404D01*
X013090Y015404D01*
X013090Y014984D01*
X013341Y015085D02*
X013815Y015085D01*
X013697Y015203D02*
X013460Y015203D01*
X013510Y015322D02*
X013630Y015322D01*
X013630Y015440D02*
X013090Y015440D01*
X013090Y015322D02*
X013010Y015322D01*
X013010Y015203D02*
X013090Y015203D01*
X013510Y015559D02*
X013630Y015559D01*
X013689Y015677D02*
X013467Y015677D01*
X013349Y015796D02*
X013808Y015796D01*
X013867Y016033D02*
X013289Y016033D01*
X013408Y016151D02*
X013749Y016151D01*
X013630Y016270D02*
X013510Y016270D01*
X013510Y016388D02*
X013630Y016388D01*
X013630Y016507D02*
X013510Y016507D01*
X013510Y016625D02*
X013637Y016625D01*
X013756Y016744D02*
X013401Y016744D01*
X013282Y016862D02*
X013874Y016862D01*
X014226Y016862D02*
X014874Y016862D01*
X014756Y016744D02*
X014344Y016744D01*
X014463Y016625D02*
X014637Y016625D01*
X014630Y016507D02*
X014470Y016507D01*
X014470Y016388D02*
X014630Y016388D01*
X014630Y016270D02*
X014480Y016270D01*
X014600Y016151D02*
X014749Y016151D01*
X014719Y016033D02*
X014867Y016033D01*
X014729Y015914D02*
X015327Y015914D01*
X015292Y015796D02*
X015369Y015796D01*
X015549Y015948D02*
X015050Y016444D01*
X015344Y016744D02*
X015756Y016744D01*
X015874Y016862D02*
X015226Y016862D01*
X015463Y016625D02*
X015637Y016625D01*
X015630Y016507D02*
X015470Y016507D01*
X015470Y016388D02*
X015630Y016388D01*
X015630Y016270D02*
X015480Y016270D01*
X015600Y016151D02*
X015749Y016151D01*
X015719Y016033D02*
X015867Y016033D01*
X015729Y015914D02*
X016327Y015914D01*
X016292Y015796D02*
X016369Y015796D01*
X016549Y015948D02*
X016050Y016444D01*
X016344Y016744D02*
X016756Y016744D01*
X016874Y016862D02*
X016226Y016862D01*
X016463Y016625D02*
X016637Y016625D01*
X016630Y016507D02*
X016470Y016507D01*
X016470Y016388D02*
X016630Y016388D01*
X016630Y016270D02*
X016480Y016270D01*
X016600Y016151D02*
X016749Y016151D01*
X016719Y016033D02*
X016867Y016033D01*
X016729Y015914D02*
X017327Y015914D01*
X017292Y015796D02*
X017369Y015796D01*
X017549Y015948D02*
X017050Y016444D01*
X017344Y016744D02*
X017756Y016744D01*
X017874Y016862D02*
X017226Y016862D01*
X017463Y016625D02*
X017637Y016625D01*
X017630Y016507D02*
X017470Y016507D01*
X017470Y016388D02*
X017630Y016388D01*
X017630Y016270D02*
X017480Y016270D01*
X017600Y016151D02*
X017749Y016151D01*
X017719Y016033D02*
X017867Y016033D01*
X017729Y015914D02*
X018327Y015914D01*
X018292Y015796D02*
X018369Y015796D01*
X018549Y015948D02*
X018050Y016444D01*
X018344Y016744D02*
X018756Y016744D01*
X018874Y016862D02*
X018226Y016862D01*
X018463Y016625D02*
X018637Y016625D01*
X018630Y016507D02*
X018470Y016507D01*
X018470Y016388D02*
X018630Y016388D01*
X018630Y016270D02*
X018480Y016270D01*
X018600Y016151D02*
X018749Y016151D01*
X018719Y016033D02*
X018867Y016033D01*
X018729Y015914D02*
X019327Y015914D01*
X019292Y015796D02*
X019369Y015796D01*
X019549Y015948D02*
X019050Y016444D01*
X019344Y016744D02*
X019756Y016744D01*
X019874Y016862D02*
X019226Y016862D01*
X019463Y016625D02*
X019637Y016625D01*
X019630Y016507D02*
X019470Y016507D01*
X019470Y016388D02*
X019630Y016388D01*
X019630Y016270D02*
X019480Y016270D01*
X019600Y016151D02*
X019749Y016151D01*
X019719Y016033D02*
X019867Y016033D01*
X019729Y015914D02*
X020327Y015914D01*
X020292Y015796D02*
X020369Y015796D01*
X020549Y015948D02*
X020050Y016444D01*
X020344Y016744D02*
X020756Y016744D01*
X020874Y016862D02*
X020226Y016862D01*
X020463Y016625D02*
X020637Y016625D01*
X020630Y016507D02*
X020470Y016507D01*
X020470Y016388D02*
X020630Y016388D01*
X020630Y016270D02*
X020480Y016270D01*
X020600Y016151D02*
X020749Y016151D01*
X020719Y016033D02*
X020867Y016033D01*
X020729Y015914D02*
X021327Y015914D01*
X021292Y015796D02*
X021369Y015796D01*
X021549Y015948D02*
X021050Y016444D01*
X021344Y016744D02*
X021756Y016744D01*
X021874Y016862D02*
X021226Y016862D01*
X021463Y016625D02*
X021637Y016625D01*
X021630Y016507D02*
X021470Y016507D01*
X021470Y016388D02*
X021630Y016388D01*
X021630Y016270D02*
X021480Y016270D01*
X021600Y016151D02*
X021749Y016151D01*
X021719Y016033D02*
X021867Y016033D01*
X021729Y015914D02*
X022327Y015914D01*
X022292Y015796D02*
X022369Y015796D01*
X022549Y015948D02*
X022050Y016444D01*
X022344Y016744D02*
X024570Y016744D01*
X024570Y016862D02*
X022226Y016862D01*
X022463Y016625D02*
X023358Y016625D01*
X023271Y016589D02*
X023045Y016363D01*
X022924Y016069D01*
X022924Y015751D01*
X023045Y015457D01*
X023271Y015231D01*
X023565Y015109D01*
X023883Y015109D01*
X024178Y015231D01*
X024403Y015457D01*
X024525Y015751D01*
X024525Y016069D01*
X024403Y016363D01*
X024178Y016589D01*
X023883Y016711D01*
X023565Y016711D01*
X023271Y016589D01*
X023189Y016507D02*
X022470Y016507D01*
X022470Y016388D02*
X023070Y016388D01*
X023007Y016270D02*
X022480Y016270D01*
X022600Y016151D02*
X022957Y016151D01*
X022924Y016033D02*
X022719Y016033D01*
X022729Y015914D02*
X022924Y015914D01*
X022924Y015796D02*
X022729Y015796D01*
X022729Y015677D02*
X022954Y015677D01*
X023003Y015559D02*
X022729Y015559D01*
X022729Y015440D02*
X023062Y015440D01*
X023180Y015322D02*
X022729Y015322D01*
X022729Y015203D02*
X023339Y015203D01*
X022678Y015085D02*
X024570Y015085D01*
X024570Y015203D02*
X024109Y015203D01*
X024268Y015322D02*
X024570Y015322D01*
X024570Y015440D02*
X024386Y015440D01*
X024445Y015559D02*
X024570Y015559D01*
X024570Y015677D02*
X024494Y015677D01*
X024525Y015796D02*
X024570Y015796D01*
X024570Y015914D02*
X024525Y015914D01*
X024525Y016033D02*
X024570Y016033D01*
X024570Y016151D02*
X024491Y016151D01*
X024442Y016270D02*
X024570Y016270D01*
X024570Y016388D02*
X024378Y016388D01*
X024260Y016507D02*
X024570Y016507D01*
X024570Y016625D02*
X024090Y016625D01*
X024570Y016981D02*
X011852Y016981D01*
X012344Y016744D02*
X012699Y016744D01*
X012590Y016625D02*
X012463Y016625D01*
X012470Y016507D02*
X012590Y016507D01*
X012590Y016388D02*
X012470Y016388D01*
X012470Y016270D02*
X012590Y016270D01*
X012692Y016151D02*
X012351Y016151D01*
X012290Y016033D02*
X012811Y016033D01*
X012751Y015796D02*
X012292Y015796D01*
X012290Y015914D02*
X014327Y015914D01*
X014292Y015796D02*
X014369Y015796D01*
X014549Y015948D02*
X014050Y016444D01*
X014549Y015948D02*
X014549Y015210D01*
X015212Y014548D01*
X015999Y014548D01*
X016662Y013885D01*
X016663Y012023D01*
X016859Y012023D02*
X016859Y013951D01*
X016074Y014735D01*
X015762Y014735D01*
X015050Y015444D01*
X014808Y015796D02*
X014729Y015796D01*
X014050Y015444D02*
X015137Y014360D01*
X015924Y014360D01*
X016465Y013819D01*
X016466Y012023D01*
X016269Y012023D02*
X016268Y013754D01*
X015849Y014173D01*
X006552Y014173D01*
X006415Y014306D01*
X006166Y014492D02*
X006047Y014492D01*
X005928Y014611D02*
X006345Y014611D01*
X006418Y014848D02*
X005691Y014848D01*
X005772Y014906D02*
X005932Y014906D01*
X005972Y014917D01*
X006009Y014938D01*
X006039Y014968D01*
X006060Y015004D01*
X006071Y015045D01*
X006071Y015205D01*
X005772Y015205D01*
X005772Y014906D01*
X005772Y014966D02*
X005734Y014966D01*
X005734Y015085D02*
X005772Y015085D01*
X005772Y015203D02*
X005734Y015203D01*
X006071Y015203D02*
X006076Y015203D01*
X006071Y015085D02*
X006076Y015085D01*
X006037Y014966D02*
X006126Y014966D01*
X006076Y015322D02*
X006071Y015322D01*
X005497Y014787D02*
X006299Y013985D01*
X015774Y013985D01*
X016071Y013688D01*
X016072Y012023D01*
X015875Y012023D02*
X015874Y013622D01*
X015699Y013798D01*
X014274Y013798D01*
X014274Y013618D02*
X015625Y013618D01*
X015694Y013548D01*
X015694Y013515D01*
X015594Y013515D01*
X015594Y013216D01*
X015557Y013216D01*
X015557Y013515D01*
X015397Y013515D01*
X015356Y013504D01*
X015320Y013483D01*
X015290Y013453D01*
X015275Y013426D01*
X015261Y013451D01*
X015231Y013481D01*
X015194Y013502D01*
X015154Y013513D01*
X014994Y013513D01*
X014994Y013214D01*
X015292Y013214D01*
X015292Y013216D01*
X015557Y013216D01*
X015557Y013178D01*
X015594Y013178D01*
X015594Y012880D01*
X015695Y012880D01*
X015695Y012875D01*
X015368Y012875D01*
X015298Y012804D01*
X015298Y012498D01*
X015285Y012498D01*
X015285Y012023D01*
X015285Y011548D01*
X015285Y012023D01*
X015285Y012023D01*
X015284Y011535D01*
X015462Y011357D01*
X015462Y011323D01*
X015497Y011411D02*
X015267Y011411D01*
X015267Y011530D02*
X015497Y011530D01*
X015324Y011535D02*
X015284Y011535D01*
X015285Y011648D02*
X015285Y011648D01*
X015285Y011767D02*
X015285Y011767D01*
X015285Y011885D02*
X015285Y011885D01*
X015285Y012004D02*
X015285Y012004D01*
X015285Y012023D02*
X015285Y012498D01*
X015268Y012498D01*
X015268Y012557D01*
X015252Y012572D01*
X015252Y012802D01*
X015182Y012873D01*
X014768Y012873D01*
X014698Y012802D01*
X014698Y012775D01*
X012390Y012775D01*
X012390Y012909D01*
X012565Y013084D01*
X012565Y013428D01*
X012376Y013618D01*
X013356Y013618D01*
X013368Y013616D01*
X013388Y013604D01*
X013399Y013584D01*
X013401Y013573D01*
X013401Y013464D01*
X013509Y013276D01*
X013509Y013276D01*
X013509Y013276D01*
X013697Y013168D01*
X013933Y013168D01*
X014121Y013276D01*
X014229Y013464D01*
X014229Y013573D01*
X014231Y013584D01*
X014242Y013604D01*
X014262Y013616D01*
X014274Y013618D01*
X014274Y013798D02*
X014247Y013796D01*
X014220Y013791D01*
X014194Y013783D01*
X014169Y013772D01*
X014146Y013758D01*
X014125Y013741D01*
X014106Y013722D01*
X014089Y013701D01*
X014075Y013678D01*
X014064Y013653D01*
X014056Y013627D01*
X014051Y013600D01*
X014049Y013573D01*
X014229Y013544D02*
X015694Y013544D01*
X015594Y013426D02*
X015557Y013426D01*
X015557Y013307D02*
X015594Y013307D01*
X015557Y013189D02*
X014994Y013189D01*
X014994Y013176D02*
X014994Y013214D01*
X014956Y013214D01*
X014956Y013176D01*
X014994Y013176D01*
X014994Y012878D01*
X015154Y012878D01*
X015194Y012889D01*
X015231Y012910D01*
X015261Y012939D01*
X015276Y012966D01*
X015290Y012941D01*
X015320Y012912D01*
X015356Y012891D01*
X015397Y012880D01*
X015557Y012880D01*
X015557Y013178D01*
X015258Y013178D01*
X015258Y013176D01*
X014994Y013176D01*
X014975Y013195D02*
X015284Y013085D01*
X015268Y012952D02*
X015284Y012952D01*
X015327Y012833D02*
X015222Y012833D01*
X015252Y012715D02*
X015298Y012715D01*
X015298Y012596D02*
X015252Y012596D01*
X015285Y012478D02*
X015285Y012478D01*
X015285Y012359D02*
X015285Y012359D01*
X015285Y012241D02*
X015285Y012241D01*
X015285Y012122D02*
X015285Y012122D01*
X015285Y012023D02*
X015285Y012023D01*
X015481Y012023D02*
X015481Y012503D01*
X015575Y012597D01*
X015557Y012952D02*
X015594Y012952D01*
X015594Y013070D02*
X015557Y013070D01*
X014994Y013070D02*
X014956Y013070D01*
X014956Y013176D02*
X014956Y012878D01*
X014796Y012878D01*
X014756Y012889D01*
X014719Y012910D01*
X014689Y012939D01*
X014668Y012976D01*
X014658Y013017D01*
X014658Y013176D01*
X014956Y013176D01*
X014956Y013189D02*
X013969Y013189D01*
X014121Y013276D02*
X014121Y013276D01*
X014121Y013276D01*
X014139Y013307D02*
X014658Y013307D01*
X014658Y013374D02*
X014658Y013214D01*
X014956Y013214D01*
X014956Y013513D01*
X014796Y013513D01*
X014756Y013502D01*
X014719Y013481D01*
X014689Y013451D01*
X014668Y013414D01*
X014658Y013374D01*
X014675Y013426D02*
X014207Y013426D01*
X013824Y013348D02*
X013806Y013348D01*
X013661Y013189D02*
X012565Y013189D01*
X012565Y013307D02*
X013492Y013307D01*
X013423Y013426D02*
X012565Y013426D01*
X012449Y013544D02*
X013401Y013544D01*
X013581Y013573D02*
X013579Y013600D01*
X013574Y013627D01*
X013566Y013653D01*
X013555Y013678D01*
X013541Y013701D01*
X013524Y013722D01*
X013505Y013741D01*
X013484Y013758D01*
X013461Y013772D01*
X013436Y013783D01*
X013410Y013791D01*
X013383Y013796D01*
X013356Y013798D01*
X006224Y013798D01*
X005549Y014473D01*
X003631Y014469D01*
X003631Y014154D02*
X005422Y014158D01*
X005425Y014156D01*
X005701Y014018D02*
X005749Y014018D01*
X005868Y013900D02*
X005604Y013900D01*
X005986Y013781D02*
X004401Y013781D01*
X004401Y013839D02*
X004401Y013719D01*
X004390Y013679D01*
X004369Y013642D01*
X004340Y013612D01*
X004303Y013591D01*
X004262Y013580D01*
X003631Y013580D01*
X003631Y013839D01*
X003631Y013839D01*
X002861Y013839D01*
X002861Y013719D01*
X002872Y013679D01*
X002893Y013642D01*
X002923Y013612D01*
X002959Y013591D01*
X003000Y013580D01*
X003631Y013580D01*
X003631Y013839D01*
X003631Y013839D01*
X004401Y013839D01*
X004401Y013900D02*
X005246Y013900D01*
X006105Y013663D02*
X004381Y013663D01*
X004381Y013189D02*
X006436Y013189D01*
X006554Y013307D02*
X002702Y013307D01*
X002796Y013426D02*
X006673Y013426D01*
X006758Y013256D02*
X005474Y011973D01*
X004474Y011973D01*
X003824Y011322D01*
X003824Y008081D01*
X004004Y007856D02*
X004314Y007856D01*
X004004Y007738D02*
X005485Y007738D01*
X005485Y007619D02*
X004004Y007619D01*
X004004Y007501D02*
X005485Y007501D01*
X005485Y007382D02*
X004004Y007382D01*
X004004Y007264D02*
X004743Y007264D01*
X004748Y007269D02*
X004677Y007198D01*
X004677Y006784D01*
X004748Y006714D01*
X005241Y006714D01*
X005311Y006784D01*
X005311Y007198D01*
X005241Y007269D01*
X004748Y007269D01*
X004677Y007145D02*
X004004Y007145D01*
X004004Y007027D02*
X004677Y007027D01*
X004677Y006908D02*
X004004Y006908D01*
X004004Y006790D02*
X004677Y006790D01*
X004677Y006316D02*
X004004Y006316D01*
X004004Y006434D02*
X005670Y006434D01*
X005650Y006481D02*
X005709Y006339D01*
X005818Y006230D01*
X005961Y006171D01*
X006115Y006171D01*
X006257Y006230D01*
X006366Y006339D01*
X006425Y006481D01*
X006425Y006635D01*
X006366Y006777D01*
X006257Y006886D01*
X006115Y006945D01*
X005961Y006945D01*
X005818Y006886D01*
X005709Y006777D01*
X005650Y006635D01*
X005650Y006481D01*
X005650Y006553D02*
X004004Y006553D01*
X004004Y006671D02*
X005665Y006671D01*
X005722Y006790D02*
X005311Y006790D01*
X005311Y006908D02*
X005871Y006908D01*
X006000Y007145D02*
X006666Y007145D01*
X006666Y007264D02*
X006000Y007264D01*
X006000Y007382D02*
X006666Y007382D01*
X006666Y007501D02*
X006000Y007501D01*
X006000Y007619D02*
X006666Y007619D01*
X006666Y007738D02*
X006000Y007738D01*
X005933Y007856D02*
X006733Y007856D01*
X006909Y007975D02*
X005922Y007975D01*
X005742Y008173D02*
X005742Y007444D01*
X005485Y007264D02*
X005246Y007264D01*
X005311Y007145D02*
X005485Y007145D01*
X005311Y007027D02*
X007945Y007027D01*
X007945Y007145D02*
X007772Y007145D01*
X007772Y007264D02*
X008010Y007264D01*
X008015Y007269D02*
X007945Y007198D01*
X007945Y006784D01*
X008015Y006714D01*
X008509Y006714D01*
X008579Y006784D01*
X008579Y006997D01*
X008590Y006977D01*
X008620Y006947D01*
X008657Y006926D01*
X008697Y006915D01*
X008857Y006915D01*
X008857Y007214D01*
X008563Y007214D01*
X008509Y007269D01*
X008015Y007269D01*
X007772Y007382D02*
X008559Y007382D01*
X008559Y007411D02*
X008559Y007251D01*
X008857Y007251D01*
X008857Y007214D01*
X008895Y007214D01*
X008895Y007251D01*
X009193Y007251D01*
X009193Y007411D01*
X009183Y007452D01*
X009162Y007488D01*
X009132Y007518D01*
X009095Y007539D01*
X009055Y007550D01*
X008895Y007550D01*
X008895Y007251D01*
X008857Y007251D01*
X008857Y007550D01*
X008697Y007550D01*
X008657Y007539D01*
X008620Y007518D01*
X008590Y007488D01*
X008569Y007452D01*
X008559Y007411D01*
X008603Y007501D02*
X007772Y007501D01*
X007772Y007619D02*
X008605Y007619D01*
X008857Y007501D02*
X008895Y007501D01*
X008895Y007382D02*
X008857Y007382D01*
X008857Y007264D02*
X008895Y007264D01*
X008895Y007214D02*
X009193Y007214D01*
X009193Y007054D01*
X009183Y007013D01*
X009162Y006977D01*
X009132Y006947D01*
X009095Y006926D01*
X009055Y006915D01*
X008895Y006915D01*
X008895Y007214D01*
X008895Y007145D02*
X008857Y007145D01*
X008857Y007027D02*
X008895Y007027D01*
X009186Y007027D02*
X009524Y007027D01*
X009642Y007145D02*
X009193Y007145D01*
X009193Y007264D02*
X009761Y007264D01*
X009879Y007382D02*
X009193Y007382D01*
X009149Y007501D02*
X009998Y007501D01*
X010116Y007619D02*
X009757Y007619D01*
X009849Y007738D02*
X010235Y007738D01*
X010353Y007856D02*
X009871Y007856D01*
X009838Y007975D02*
X010472Y007975D01*
X010590Y008093D02*
X009694Y008093D01*
X009793Y008212D02*
X010709Y008212D01*
X010958Y008469D02*
X010458Y008469D01*
X010458Y008704D02*
X010869Y008704D01*
X010909Y008715D01*
X010946Y008736D01*
X010976Y008765D01*
X010997Y008802D01*
X011007Y008843D01*
X011007Y008969D01*
X011007Y009095D01*
X010997Y009135D01*
X010976Y009172D01*
X010946Y009202D01*
X010909Y009223D01*
X010869Y009234D01*
X010458Y009234D01*
X010458Y008969D01*
X011007Y008969D01*
X010458Y008969D01*
X010458Y008969D01*
X010457Y008969D01*
X010458Y008969D01*
X010458Y008704D01*
X010457Y008804D02*
X010458Y008804D01*
X010457Y008923D02*
X010458Y008923D01*
X010457Y009041D02*
X010458Y009041D01*
X010457Y009160D02*
X010458Y009160D01*
X010458Y009469D02*
X009983Y009469D01*
X009737Y009223D01*
X009737Y008410D01*
X009917Y008449D02*
X009948Y008449D01*
X009948Y008567D02*
X009917Y008567D01*
X009917Y008686D02*
X010010Y008686D01*
X009918Y008804D02*
X009917Y008804D01*
X009911Y008330D02*
X009948Y008330D01*
X009606Y007843D02*
X008886Y007843D01*
X008876Y007833D01*
X008052Y007833D01*
X007974Y007910D01*
X007099Y007910D01*
X006923Y007734D01*
X006923Y007444D01*
X007181Y007501D02*
X007256Y007501D01*
X007256Y007619D02*
X007181Y007619D01*
X007181Y007382D02*
X007256Y007382D01*
X007256Y007264D02*
X007181Y007264D01*
X007181Y007145D02*
X007256Y007145D01*
X007296Y006945D02*
X007142Y006945D01*
X006999Y006886D01*
X006890Y006777D01*
X006832Y006635D01*
X006832Y006481D01*
X006890Y006339D01*
X006999Y006230D01*
X007142Y006171D01*
X007296Y006171D01*
X007438Y006230D01*
X007547Y006339D01*
X007606Y006481D01*
X007606Y006635D01*
X007547Y006777D01*
X007438Y006886D01*
X007296Y006945D01*
X007385Y006908D02*
X007945Y006908D01*
X007945Y006790D02*
X007535Y006790D01*
X007591Y006671D02*
X009168Y006671D01*
X009050Y006553D02*
X007606Y006553D01*
X007586Y006434D02*
X008931Y006434D01*
X008813Y006316D02*
X008579Y006316D01*
X008579Y006197D02*
X008694Y006197D01*
X008579Y006790D02*
X009287Y006790D01*
X009405Y006908D02*
X008579Y006908D01*
X008559Y007264D02*
X008514Y007264D01*
X009147Y007619D02*
X009455Y007619D01*
X007968Y008449D02*
X004004Y008449D01*
X004004Y008567D02*
X007338Y008567D01*
X007322Y008686D02*
X004004Y008686D01*
X004004Y008804D02*
X007322Y008804D01*
X007322Y008923D02*
X004004Y008923D01*
X004004Y009041D02*
X004242Y009041D01*
X004076Y009160D02*
X004004Y009160D01*
X004498Y009160D02*
X004575Y009160D01*
X004575Y009278D02*
X004498Y009278D01*
X004498Y009397D02*
X004575Y009397D01*
X004575Y009515D02*
X004498Y009515D01*
X004498Y009671D02*
X004498Y010293D01*
X004498Y010776D01*
X004575Y010776D01*
X004575Y009671D01*
X004498Y009671D01*
X004498Y009752D02*
X004575Y009752D01*
X004575Y009871D02*
X004498Y009871D01*
X004498Y009989D02*
X004575Y009989D01*
X004575Y010108D02*
X004498Y010108D01*
X004498Y010226D02*
X004575Y010226D01*
X004575Y010345D02*
X004498Y010345D01*
X004498Y010463D02*
X004575Y010463D01*
X004575Y010582D02*
X004498Y010582D01*
X004498Y010700D02*
X004575Y010700D01*
X004575Y010937D02*
X004498Y010937D01*
X004498Y011056D02*
X004575Y011056D01*
X004575Y011174D02*
X004498Y011174D01*
X004498Y011293D02*
X004575Y011293D01*
X004575Y011411D02*
X004498Y011411D01*
X004286Y011530D02*
X008622Y011530D01*
X008692Y011460D02*
X008311Y011841D01*
X007978Y011841D01*
X007735Y012084D01*
X007735Y012428D01*
X007978Y012671D01*
X008322Y012671D01*
X008565Y012428D01*
X008565Y012095D01*
X008946Y011714D01*
X009061Y011714D01*
X009175Y011667D01*
X009261Y011581D01*
X009308Y011467D01*
X009308Y011345D01*
X009261Y011232D01*
X009175Y011145D01*
X009061Y011098D01*
X008939Y011098D01*
X008825Y011145D01*
X008739Y011232D01*
X008692Y011345D01*
X008692Y011460D01*
X008692Y011411D02*
X005896Y011411D01*
X006116Y011293D02*
X008714Y011293D01*
X008796Y011174D02*
X006234Y011174D01*
X006289Y011056D02*
X013067Y011056D01*
X013185Y011174D02*
X009204Y011174D01*
X009286Y011293D02*
X009859Y011293D01*
X009741Y011411D02*
X009308Y011411D01*
X009282Y011530D02*
X009622Y011530D01*
X009504Y011648D02*
X009194Y011648D01*
X009385Y011767D02*
X008894Y011767D01*
X008934Y011885D02*
X008776Y011885D01*
X008815Y012004D02*
X008657Y012004D01*
X008735Y012122D02*
X008565Y012122D01*
X008565Y012241D02*
X008735Y012241D01*
X008735Y012359D02*
X008565Y012359D01*
X008516Y012478D02*
X008784Y012478D01*
X008903Y012596D02*
X008397Y012596D01*
X008433Y012952D02*
X008811Y012952D01*
X008695Y013068D02*
X008695Y013218D01*
X009112Y013218D01*
X009112Y012801D01*
X008961Y012801D01*
X008695Y013068D01*
X008695Y013070D02*
X008551Y013070D01*
X008565Y013189D02*
X008695Y013189D01*
X008695Y013307D02*
X008565Y013307D01*
X008565Y013426D02*
X008695Y013426D01*
X008794Y013544D02*
X008449Y013544D01*
X008150Y013256D02*
X006758Y013256D01*
X006826Y013070D02*
X007749Y013070D01*
X007867Y012952D02*
X006708Y012952D01*
X006589Y012833D02*
X008929Y012833D01*
X009112Y012833D02*
X009188Y012833D01*
X009188Y012952D02*
X009112Y012952D01*
X009112Y013070D02*
X009188Y013070D01*
X009188Y013189D02*
X009112Y013189D01*
X009489Y012952D02*
X009811Y012952D01*
X009695Y013068D02*
X009695Y013218D01*
X010112Y013218D01*
X010112Y012801D01*
X009961Y012801D01*
X009695Y013068D01*
X009695Y013070D02*
X009605Y013070D01*
X009605Y013189D02*
X009695Y013189D01*
X009695Y013307D02*
X009605Y013307D01*
X009605Y013426D02*
X009695Y013426D01*
X009794Y013544D02*
X009506Y013544D01*
X010112Y013189D02*
X010188Y013189D01*
X010188Y013070D02*
X010112Y013070D01*
X010112Y012952D02*
X010188Y012952D01*
X010188Y012833D02*
X010112Y012833D01*
X009929Y012833D02*
X009371Y012833D01*
X009397Y012596D02*
X009903Y012596D01*
X009784Y012478D02*
X009516Y012478D01*
X009565Y012359D02*
X009735Y012359D01*
X009735Y012241D02*
X009565Y012241D01*
X009565Y012122D02*
X009735Y012122D01*
X009657Y012004D02*
X009815Y012004D01*
X009776Y011885D02*
X009934Y011885D01*
X009894Y011767D02*
X010385Y011767D01*
X010504Y011648D02*
X010013Y011648D01*
X010021Y011385D02*
X013899Y011385D01*
X014088Y011196D01*
X014458Y011196D01*
X014458Y011000D02*
X014022Y011000D01*
X013874Y011148D01*
X013412Y011148D01*
X012950Y010681D01*
X012875Y010937D02*
X007826Y010937D01*
X007877Y010819D02*
X008766Y010819D01*
X008764Y010700D02*
X007877Y010700D01*
X007932Y010582D02*
X008764Y010582D01*
X008764Y010463D02*
X008051Y010463D01*
X008169Y010345D02*
X008823Y010345D01*
X008957Y010226D02*
X008288Y010226D01*
X008291Y009969D02*
X007599Y010660D01*
X007322Y010700D02*
X007001Y010700D01*
X007029Y010582D02*
X007322Y010582D01*
X007322Y010463D02*
X007029Y010463D01*
X007029Y010345D02*
X007379Y010345D01*
X007174Y010060D02*
X007599Y010060D01*
X008191Y009469D01*
X008518Y009469D01*
X008518Y009969D02*
X008291Y009969D01*
X008518Y009969D02*
X009137Y009969D01*
X009137Y010535D01*
X009062Y010610D01*
X009317Y010345D02*
X009366Y010345D01*
X009643Y010345D02*
X009680Y010345D01*
X009680Y010463D02*
X009643Y010463D01*
X009137Y009969D02*
X009137Y008860D01*
X009012Y008735D01*
X007674Y008735D01*
X007599Y008810D01*
X007326Y009041D02*
X005909Y009041D01*
X006121Y009160D02*
X007345Y009160D01*
X007599Y009410D02*
X006962Y009410D01*
X006849Y009523D01*
X006849Y010598D01*
X006637Y010810D01*
X005722Y010810D01*
X005718Y010814D01*
X005319Y011293D02*
X004991Y011293D01*
X005091Y011174D02*
X005201Y011174D01*
X005539Y011411D02*
X004820Y011411D01*
X004523Y011767D02*
X008385Y011767D01*
X008504Y011648D02*
X004404Y011648D01*
X004253Y011411D02*
X004167Y011411D01*
X004082Y011293D02*
X004049Y011293D01*
X003652Y012241D02*
X003532Y012241D01*
X003532Y012359D02*
X003652Y012359D01*
X003652Y012478D02*
X003532Y012478D01*
X003532Y012596D02*
X003652Y012596D01*
X003652Y012952D02*
X003532Y012952D01*
X003532Y013070D02*
X003652Y013070D01*
X003652Y013189D02*
X003532Y013189D01*
X003631Y013663D02*
X003631Y013663D01*
X003631Y013781D02*
X003631Y013781D01*
X002881Y013663D02*
X002837Y013663D01*
X002837Y013544D02*
X007851Y013544D01*
X007903Y012596D02*
X006352Y012596D01*
X006234Y012478D02*
X007784Y012478D01*
X007735Y012359D02*
X006115Y012359D01*
X005997Y012241D02*
X007735Y012241D01*
X007735Y012122D02*
X005878Y012122D01*
X005760Y012004D02*
X007815Y012004D01*
X007934Y011885D02*
X005641Y011885D01*
X005654Y011898D02*
X005654Y011898D01*
X006471Y012715D02*
X011910Y012715D01*
X011910Y012833D02*
X011371Y012833D01*
X011489Y012952D02*
X011867Y012952D01*
X011749Y013070D02*
X011605Y013070D01*
X011605Y013189D02*
X011735Y013189D01*
X011735Y013307D02*
X011605Y013307D01*
X011605Y013426D02*
X011735Y013426D01*
X011851Y013544D02*
X011506Y013544D01*
X011188Y013189D02*
X011112Y013189D01*
X011112Y013218D02*
X011112Y012801D01*
X010961Y012801D01*
X010695Y013068D01*
X010695Y013218D01*
X011112Y013218D01*
X011112Y013070D02*
X011188Y013070D01*
X011188Y012952D02*
X011112Y012952D01*
X011112Y012833D02*
X011188Y012833D01*
X010929Y012833D02*
X010371Y012833D01*
X010489Y012952D02*
X010811Y012952D01*
X010695Y013070D02*
X010605Y013070D01*
X010605Y013189D02*
X010695Y013189D01*
X010695Y013307D02*
X010605Y013307D01*
X010605Y013426D02*
X010695Y013426D01*
X010794Y013544D02*
X010506Y013544D01*
X010397Y012596D02*
X010903Y012596D01*
X010784Y012478D02*
X010516Y012478D01*
X010565Y012359D02*
X010735Y012359D01*
X010735Y012241D02*
X010565Y012241D01*
X010565Y012122D02*
X010735Y012122D01*
X010657Y012004D02*
X010815Y012004D01*
X010776Y011885D02*
X010934Y011885D01*
X010894Y011767D02*
X011385Y011767D01*
X011650Y011756D02*
X014238Y011756D01*
X013974Y011573D02*
X010834Y011573D01*
X010150Y012256D01*
X010021Y011385D02*
X009150Y012256D01*
X009000Y011406D02*
X008150Y012256D01*
X006317Y013070D02*
X004401Y013070D01*
X004401Y012952D02*
X006199Y012952D01*
X007753Y014492D02*
X010583Y014492D01*
X010545Y014611D02*
X007775Y014611D01*
X007775Y014729D02*
X010545Y014729D01*
X010940Y014729D02*
X011060Y014729D01*
X011060Y014611D02*
X010940Y014611D01*
X010940Y014492D02*
X011060Y014492D01*
X012470Y015559D02*
X012590Y015559D01*
X012633Y015677D02*
X012411Y015677D01*
X011000Y016270D02*
X010910Y016180D01*
X010406Y016180D01*
X009225Y016270D02*
X008798Y016270D01*
X008917Y016388D02*
X009225Y016388D01*
X009225Y016507D02*
X009035Y016507D01*
X005784Y016507D02*
X005747Y016507D01*
X005747Y016625D02*
X005784Y016625D01*
X005784Y016744D02*
X005747Y016744D01*
X005747Y016862D02*
X005784Y016862D01*
X005784Y016981D02*
X005747Y016981D01*
X005747Y016388D02*
X005784Y016388D01*
X004925Y015430D02*
X004910Y015415D01*
X004889Y015378D01*
X004878Y015338D01*
X004878Y015178D01*
X005176Y015178D01*
X005176Y015140D01*
X004878Y015140D01*
X004878Y014981D01*
X004882Y014966D01*
X004873Y014966D01*
X004873Y015366D01*
X004815Y015424D01*
X004815Y015430D01*
X004925Y015430D01*
X004878Y015322D02*
X004873Y015322D01*
X004873Y015203D02*
X004878Y015203D01*
X004873Y015085D02*
X004878Y015085D01*
X005497Y014787D02*
X003631Y014784D01*
X002861Y013900D02*
X002700Y013900D01*
X002795Y013781D02*
X002861Y013781D01*
X002198Y013307D02*
X000809Y013307D01*
X001209Y013189D02*
X001329Y013189D01*
X001329Y013070D02*
X001209Y013070D01*
X001209Y012952D02*
X001329Y012952D01*
X001329Y012833D02*
X001209Y012833D01*
X000809Y010937D02*
X002293Y010937D01*
X002172Y010819D02*
X000809Y010819D01*
X000809Y010700D02*
X002053Y010700D01*
X002004Y010582D02*
X000809Y010582D01*
X000809Y010463D02*
X001955Y010463D01*
X001925Y010345D02*
X000809Y010345D01*
X000809Y010226D02*
X001925Y010226D01*
X001925Y010108D02*
X000809Y010108D01*
X000809Y009989D02*
X001953Y009989D01*
X002002Y009871D02*
X000809Y009871D01*
X000809Y009752D02*
X002051Y009752D01*
X002167Y009634D02*
X000809Y009634D01*
X000809Y009515D02*
X002285Y009515D01*
X002566Y009397D02*
X000809Y009397D01*
X004004Y008330D02*
X004339Y008330D01*
X004809Y008330D02*
X004939Y008330D01*
X004897Y008212D02*
X004851Y008212D01*
X005451Y007975D02*
X005562Y007975D01*
X005552Y007856D02*
X005434Y007856D01*
X005526Y009041D02*
X004831Y009041D01*
X004996Y009160D02*
X005314Y009160D01*
X005196Y009278D02*
X005094Y009278D01*
X004575Y009041D02*
X004498Y009041D01*
X005718Y009633D02*
X005720Y009635D01*
X006424Y009635D01*
X006661Y009515D02*
X006669Y009515D01*
X006721Y009397D02*
X006541Y009397D01*
X006307Y009397D02*
X006291Y009397D01*
X006239Y009278D02*
X006839Y009278D01*
X007599Y009410D02*
X008041Y008969D01*
X008518Y008969D01*
X010458Y009469D02*
X011233Y009469D01*
X011337Y009573D01*
X011532Y009752D02*
X011757Y009752D01*
X011757Y009634D02*
X011598Y009634D01*
X011600Y009515D02*
X011750Y009515D01*
X011631Y009397D02*
X011535Y009397D01*
X011513Y009278D02*
X010932Y009278D01*
X010983Y009160D02*
X011394Y009160D01*
X011276Y009041D02*
X011007Y009041D01*
X011007Y008923D02*
X011157Y008923D01*
X011039Y008804D02*
X010997Y008804D01*
X010920Y008686D02*
X010905Y008686D01*
X010958Y008469D02*
X011937Y009448D01*
X011937Y010048D01*
X012101Y010212D01*
X014458Y010212D01*
X014458Y010015D02*
X013554Y010015D01*
X005849Y002310D01*
X005850Y001831D01*
X006070Y001457D02*
X006169Y001457D01*
X006169Y001339D02*
X005599Y001339D01*
X005630Y001457D02*
X005529Y001457D01*
X005349Y001335D02*
X005850Y000831D01*
X006240Y000628D02*
X006460Y000628D01*
X006430Y000746D02*
X006270Y000746D01*
X006270Y000865D02*
X006430Y000865D01*
X006430Y000983D02*
X006270Y000983D01*
X006327Y001102D02*
X006174Y001102D01*
X006210Y001220D02*
X006055Y001220D01*
X006349Y001335D02*
X006349Y002548D01*
X013620Y009819D01*
X014458Y009819D01*
X014458Y009622D02*
X013686Y009622D01*
X006849Y002785D01*
X006850Y001831D01*
X007070Y001457D02*
X007169Y001457D01*
X007169Y001339D02*
X006599Y001339D01*
X006630Y001457D02*
X006529Y001457D01*
X006349Y001335D02*
X006850Y000831D01*
X007240Y000628D02*
X007460Y000628D01*
X007430Y000746D02*
X007270Y000746D01*
X007270Y000865D02*
X007430Y000865D01*
X007430Y000983D02*
X007270Y000983D01*
X007327Y001102D02*
X007174Y001102D01*
X007210Y001220D02*
X007055Y001220D01*
X007349Y001335D02*
X007349Y003023D01*
X013751Y009425D01*
X014458Y009425D01*
X014458Y009228D02*
X013817Y009228D01*
X007849Y003260D01*
X007850Y001831D01*
X008070Y001457D02*
X008169Y001457D01*
X008169Y001339D02*
X007599Y001339D01*
X007630Y001457D02*
X007529Y001457D01*
X007349Y001335D02*
X007850Y000831D01*
X008240Y000628D02*
X008460Y000628D01*
X008430Y000746D02*
X008270Y000746D01*
X008270Y000865D02*
X008430Y000865D01*
X008430Y000983D02*
X008270Y000983D01*
X008327Y001102D02*
X008174Y001102D01*
X008210Y001220D02*
X008055Y001220D01*
X008349Y001335D02*
X008349Y003498D01*
X013883Y009031D01*
X014458Y009031D01*
X014458Y008834D02*
X015109Y008836D01*
X015119Y008842D01*
X015474Y008510D02*
X015474Y007273D01*
X014874Y006673D01*
X014458Y006669D01*
X014357Y006568D01*
X014357Y006257D01*
X014074Y006238D02*
X014074Y006078D01*
X014064Y006037D01*
X014043Y006001D01*
X014013Y005971D01*
X013976Y005950D01*
X013936Y005939D01*
X013776Y005939D01*
X013776Y006238D01*
X014074Y006238D01*
X014074Y006197D02*
X014080Y006197D01*
X014074Y006079D02*
X014080Y006079D01*
X013994Y005960D02*
X014908Y005960D01*
X014907Y005842D02*
X013048Y005842D01*
X013166Y005960D02*
X013520Y005960D01*
X013440Y006079D02*
X013285Y006079D01*
X013403Y006197D02*
X013440Y006197D01*
X013738Y006197D02*
X013776Y006197D01*
X013757Y006257D02*
X013757Y006548D01*
X014073Y006866D01*
X014458Y006866D01*
X014072Y006866D01*
X014072Y006866D01*
X014458Y006866D01*
X014458Y006866D01*
X014458Y007063D02*
X014014Y007063D01*
X012349Y005398D01*
X012349Y001335D01*
X012850Y000831D01*
X013240Y000628D02*
X013710Y000628D01*
X013680Y000746D02*
X013270Y000746D01*
X013270Y000865D02*
X013680Y000865D01*
X013680Y000983D02*
X013270Y000983D01*
X013174Y001102D02*
X013577Y001102D01*
X013460Y001220D02*
X013055Y001220D01*
X013419Y001339D02*
X012599Y001339D01*
X012574Y001457D02*
X012529Y001457D01*
X012810Y001457D02*
X012890Y001457D01*
X012890Y001576D02*
X012810Y001576D01*
X012810Y001694D02*
X012890Y001694D01*
X012890Y001813D02*
X013419Y001813D01*
X013419Y001931D02*
X013310Y001931D01*
X013282Y002050D02*
X013419Y002050D01*
X013419Y002168D02*
X013164Y002168D01*
X013045Y002287D02*
X013419Y002287D01*
X013419Y002405D02*
X012529Y002405D01*
X012529Y002287D02*
X012655Y002287D01*
X012810Y002287D02*
X012890Y002287D01*
X012890Y002168D02*
X012810Y002168D01*
X012810Y002050D02*
X012890Y002050D01*
X012890Y001931D02*
X012810Y001931D01*
X012536Y002168D02*
X012529Y002168D01*
X012529Y002524D02*
X013419Y002524D01*
X013419Y002642D02*
X012529Y002642D01*
X012529Y002761D02*
X013419Y002761D01*
X013419Y002879D02*
X012529Y002879D01*
X012529Y002998D02*
X013419Y002998D01*
X013419Y003116D02*
X012529Y003116D01*
X012529Y003235D02*
X013419Y003235D01*
X013419Y003353D02*
X012529Y003353D01*
X012529Y003472D02*
X013419Y003472D01*
X013419Y003590D02*
X012529Y003590D01*
X012529Y003709D02*
X013419Y003709D01*
X013419Y003827D02*
X012529Y003827D01*
X012529Y003946D02*
X013419Y003946D01*
X013419Y004064D02*
X012529Y004064D01*
X012529Y004183D02*
X013419Y004183D01*
X013461Y004301D02*
X012529Y004301D01*
X012529Y004420D02*
X013579Y004420D01*
X013698Y004538D02*
X012529Y004538D01*
X012529Y004657D02*
X013816Y004657D01*
X013935Y004775D02*
X012529Y004775D01*
X012529Y004894D02*
X014053Y004894D01*
X014172Y005012D02*
X012529Y005012D01*
X012529Y005131D02*
X014290Y005131D01*
X014409Y005249D02*
X012529Y005249D01*
X012574Y005368D02*
X014527Y005368D01*
X014646Y005486D02*
X012692Y005486D01*
X012811Y005605D02*
X014764Y005605D01*
X014883Y005723D02*
X012929Y005723D01*
X013738Y005960D02*
X013776Y005960D01*
X013776Y006079D02*
X013738Y006079D01*
X013738Y006275D02*
X013738Y006532D01*
X013776Y006570D01*
X013776Y006275D01*
X013738Y006275D01*
X013738Y006316D02*
X013776Y006316D01*
X013776Y006434D02*
X013738Y006434D01*
X013759Y006553D02*
X013776Y006553D01*
X013877Y006671D02*
X014023Y006671D01*
X014031Y006553D02*
X013995Y006553D01*
X014074Y006434D02*
X014080Y006434D01*
X014074Y006316D02*
X014080Y006316D01*
X014634Y006316D02*
X014909Y006316D01*
X014909Y006197D02*
X014634Y006197D01*
X014634Y006079D02*
X014908Y006079D01*
X015088Y006039D02*
X015087Y005673D01*
X013599Y004185D01*
X013599Y001335D01*
X014100Y000831D01*
X014490Y000628D02*
X014710Y000628D01*
X014680Y000746D02*
X014520Y000746D01*
X014520Y000865D02*
X014680Y000865D01*
X014680Y000983D02*
X014520Y000983D01*
X014577Y001102D02*
X014424Y001102D01*
X014460Y001220D02*
X014305Y001220D01*
X014419Y001339D02*
X013849Y001339D01*
X013880Y001457D02*
X013779Y001457D01*
X013419Y001457D02*
X013126Y001457D01*
X013245Y001576D02*
X013419Y001576D01*
X013419Y001694D02*
X013310Y001694D01*
X014100Y001831D02*
X014099Y004423D01*
X015284Y005607D01*
X015285Y006039D01*
X015481Y006039D02*
X015481Y005541D01*
X014599Y004660D01*
X014599Y001335D01*
X015100Y000831D01*
X015490Y000628D02*
X015710Y000628D01*
X015680Y000746D02*
X015520Y000746D01*
X015520Y000865D02*
X015680Y000865D01*
X015680Y000983D02*
X015520Y000983D01*
X015577Y001102D02*
X015424Y001102D01*
X015460Y001220D02*
X015305Y001220D01*
X015419Y001339D02*
X014849Y001339D01*
X014880Y001457D02*
X014779Y001457D01*
X014419Y001457D02*
X014320Y001457D01*
X015100Y001831D02*
X015099Y004898D01*
X015677Y005476D01*
X015678Y006039D01*
X015875Y006039D02*
X015874Y005410D01*
X015599Y005135D01*
X015599Y001335D01*
X016100Y000831D01*
X016490Y000628D02*
X016653Y000628D01*
X016640Y000641D02*
X016909Y000371D01*
X017060Y000371D01*
X017060Y000791D01*
X017140Y000791D01*
X017140Y000371D01*
X017291Y000371D01*
X017560Y000641D01*
X017560Y000791D01*
X017140Y000791D01*
X017140Y000871D01*
X017560Y000871D01*
X017560Y001022D01*
X017291Y001291D01*
X017140Y001291D01*
X017140Y000871D01*
X017060Y000871D01*
X017060Y000791D01*
X016640Y000791D01*
X016640Y000641D01*
X016640Y000746D02*
X016520Y000746D01*
X016520Y000865D02*
X017060Y000865D01*
X017060Y000871D02*
X016640Y000871D01*
X016640Y001022D01*
X016909Y001291D01*
X017060Y001291D01*
X017060Y000871D01*
X017140Y000865D02*
X017680Y000865D01*
X017680Y000983D02*
X017560Y000983D01*
X017577Y001102D02*
X017480Y001102D01*
X017460Y001220D02*
X017362Y001220D01*
X017419Y001339D02*
X015849Y001339D01*
X015880Y001457D02*
X015779Y001457D01*
X015419Y001457D02*
X015320Y001457D01*
X016100Y001831D02*
X016099Y003798D01*
X015849Y004048D01*
X015849Y004610D01*
X016268Y005029D01*
X016269Y006039D01*
X016466Y006039D02*
X016465Y004654D01*
X016125Y004309D01*
X016226Y004064D02*
X016542Y004064D01*
X016535Y004183D02*
X016359Y004183D01*
X016390Y004301D02*
X016535Y004301D01*
X016535Y004420D02*
X016487Y004420D01*
X016622Y004556D02*
X016628Y004563D01*
X016634Y004561D01*
X016794Y004561D01*
X016794Y004860D01*
X016831Y004860D01*
X016831Y004561D01*
X016928Y004561D01*
X016928Y004556D01*
X016622Y004556D01*
X016794Y004657D02*
X016831Y004657D01*
X016831Y004775D02*
X016794Y004775D01*
X016794Y004897D02*
X016794Y005196D01*
X016645Y005196D01*
X016645Y005604D01*
X016694Y005604D01*
X016702Y005596D01*
X016739Y005575D01*
X016779Y005564D01*
X016859Y005564D01*
X016859Y006039D01*
X016859Y006514D01*
X016842Y006514D01*
X016842Y006551D01*
X016875Y006584D01*
X016865Y006570D01*
X016875Y006514D01*
X016859Y006514D01*
X016859Y006039D01*
X016859Y006039D01*
X016859Y006039D01*
X016859Y005564D01*
X016940Y005564D01*
X016980Y005575D01*
X017017Y005596D01*
X017025Y005604D01*
X017066Y005604D01*
X017060Y005169D01*
X017031Y005185D01*
X016991Y005196D01*
X016831Y005196D01*
X016831Y004897D01*
X016794Y004897D01*
X016794Y005012D02*
X016831Y005012D01*
X016831Y005131D02*
X016794Y005131D01*
X016645Y005249D02*
X017061Y005249D01*
X017063Y005368D02*
X016645Y005368D01*
X016645Y005486D02*
X017065Y005486D01*
X016859Y005605D02*
X016859Y005605D01*
X016859Y005723D02*
X016859Y005723D01*
X016859Y005842D02*
X016859Y005842D01*
X016859Y005960D02*
X016859Y005960D01*
X016859Y006079D02*
X016859Y006079D01*
X016859Y006197D02*
X016859Y006197D01*
X016859Y006316D02*
X016859Y006316D01*
X016859Y006434D02*
X016859Y006434D01*
X016868Y006553D02*
X016843Y006553D01*
X016918Y006671D02*
X016932Y006671D01*
X016927Y006790D02*
X017037Y006790D01*
X017112Y006610D02*
X017723Y006610D01*
X017912Y006799D01*
X018354Y006799D01*
X018631Y006522D01*
X018631Y006039D01*
X018631Y005261D01*
X018915Y004977D01*
X018635Y005002D02*
X018614Y005023D01*
X018613Y004605D01*
X018629Y004632D01*
X018659Y004662D01*
X018696Y004683D01*
X018736Y004694D01*
X018896Y004694D01*
X018896Y004395D01*
X018934Y004395D01*
X019272Y004395D01*
X019272Y004358D01*
X019309Y004358D01*
X019309Y004059D01*
X019469Y004059D01*
X019481Y004062D01*
X019493Y004059D01*
X019653Y004059D01*
X019653Y004358D01*
X019355Y004358D01*
X019309Y004358D01*
X019309Y004395D01*
X019653Y004395D01*
X019653Y004358D01*
X019691Y004358D01*
X019691Y004395D01*
X019989Y004395D01*
X019989Y004395D01*
X020029Y004395D01*
X020029Y004358D01*
X020066Y004358D01*
X020066Y004059D01*
X020226Y004059D01*
X020236Y004062D01*
X020245Y004059D01*
X020405Y004059D01*
X020405Y004358D01*
X020365Y004358D01*
X020066Y004358D01*
X020066Y004395D01*
X020107Y004395D01*
X020405Y004395D01*
X020405Y004358D01*
X020443Y004358D01*
X020443Y004059D01*
X020603Y004059D01*
X020643Y004070D01*
X020673Y004087D01*
X020673Y003405D01*
X019527Y002258D01*
X019421Y002153D01*
X019421Y002104D01*
X019274Y002251D01*
X018935Y002251D01*
X018803Y002383D01*
X018803Y004059D01*
X018896Y004059D01*
X018896Y004358D01*
X018934Y004358D01*
X018934Y004395D01*
X018934Y004694D01*
X019094Y004694D01*
X019103Y004692D01*
X019112Y004694D01*
X019272Y004694D01*
X019272Y004395D01*
X019309Y004395D01*
X019309Y004694D01*
X019469Y004694D01*
X019481Y004691D01*
X019493Y004694D01*
X019653Y004694D01*
X019653Y004395D01*
X019691Y004395D01*
X019691Y004694D01*
X019851Y004694D01*
X019860Y004692D01*
X019869Y004694D01*
X020029Y004694D01*
X020029Y004395D01*
X020066Y004395D01*
X020066Y004694D01*
X020226Y004694D01*
X020236Y004691D01*
X020245Y004694D01*
X020405Y004694D01*
X020405Y004395D01*
X020443Y004395D01*
X020443Y004694D01*
X020603Y004694D01*
X020643Y004683D01*
X020673Y004666D01*
X020673Y004741D01*
X020631Y004699D01*
X020486Y004699D01*
X020480Y004697D01*
X020368Y004697D01*
X020368Y004697D01*
X020103Y004697D01*
X020103Y004697D01*
X018859Y004697D01*
X018853Y004699D01*
X018708Y004699D01*
X018638Y004769D01*
X018638Y004915D01*
X018635Y004921D01*
X018635Y005002D01*
X018625Y005012D02*
X018614Y005012D01*
X018614Y004894D02*
X018638Y004894D01*
X018638Y004775D02*
X018614Y004775D01*
X018613Y004657D02*
X018654Y004657D01*
X018896Y004657D02*
X018934Y004657D01*
X018934Y004538D02*
X018896Y004538D01*
X018896Y004420D02*
X018934Y004420D01*
X018934Y004358D02*
X018973Y004358D01*
X019272Y004358D01*
X019272Y004059D01*
X019112Y004059D01*
X019103Y004062D01*
X019094Y004059D01*
X018934Y004059D01*
X018934Y004358D01*
X018934Y004301D02*
X018896Y004301D01*
X018896Y004183D02*
X018934Y004183D01*
X018934Y004064D02*
X018896Y004064D01*
X018803Y003946D02*
X020673Y003946D01*
X020673Y004064D02*
X020621Y004064D01*
X020443Y004064D02*
X020405Y004064D01*
X020405Y004183D02*
X020443Y004183D01*
X020443Y004301D02*
X020405Y004301D01*
X020365Y004358D02*
X020365Y004358D01*
X020405Y004420D02*
X020443Y004420D01*
X020443Y004538D02*
X020405Y004538D01*
X020405Y004657D02*
X020443Y004657D01*
X020066Y004657D02*
X020029Y004657D01*
X020029Y004538D02*
X020066Y004538D01*
X020066Y004420D02*
X020029Y004420D01*
X020029Y004358D02*
X019730Y004358D01*
X019730Y004358D01*
X019691Y004358D01*
X019691Y004059D01*
X019851Y004059D01*
X019860Y004062D01*
X019869Y004059D01*
X020029Y004059D01*
X020029Y004358D01*
X020029Y004301D02*
X020066Y004301D01*
X020107Y004395D02*
X020107Y004395D01*
X020066Y004183D02*
X020029Y004183D01*
X020029Y004064D02*
X020066Y004064D01*
X019691Y004064D02*
X019653Y004064D01*
X019653Y004183D02*
X019691Y004183D01*
X019691Y004301D02*
X019653Y004301D01*
X019653Y004420D02*
X019691Y004420D01*
X019691Y004538D02*
X019653Y004538D01*
X019653Y004657D02*
X019691Y004657D01*
X019309Y004657D02*
X019272Y004657D01*
X019272Y004538D02*
X019309Y004538D01*
X019309Y004420D02*
X019272Y004420D01*
X019272Y004301D02*
X019309Y004301D01*
X019309Y004183D02*
X019272Y004183D01*
X019272Y004064D02*
X019309Y004064D01*
X018803Y003827D02*
X020673Y003827D01*
X020673Y003709D02*
X018803Y003709D01*
X018803Y003590D02*
X020673Y003590D01*
X020673Y003472D02*
X018803Y003472D01*
X018803Y003353D02*
X020622Y003353D01*
X020503Y003235D02*
X018803Y003235D01*
X018803Y003116D02*
X020385Y003116D01*
X020266Y002998D02*
X018803Y002998D01*
X018803Y002879D02*
X020148Y002879D01*
X020029Y002761D02*
X018803Y002761D01*
X018803Y002642D02*
X019911Y002642D01*
X019792Y002524D02*
X018803Y002524D01*
X018803Y002405D02*
X019674Y002405D01*
X019555Y002287D02*
X018899Y002287D01*
X018623Y002308D02*
X019100Y001831D01*
X019357Y002168D02*
X019437Y002168D01*
X019601Y002078D02*
X019601Y001330D01*
X020100Y000831D01*
X020490Y000628D02*
X020710Y000628D01*
X020680Y000746D02*
X020520Y000746D01*
X020520Y000865D02*
X020680Y000865D01*
X020680Y000983D02*
X020520Y000983D01*
X020575Y001102D02*
X020424Y001102D01*
X020457Y001220D02*
X020305Y001220D01*
X020420Y001339D02*
X019847Y001339D01*
X019880Y001457D02*
X019781Y001457D01*
X019421Y001457D02*
X019320Y001457D01*
X019421Y001339D02*
X018849Y001339D01*
X018880Y001457D02*
X018779Y001457D01*
X018599Y001335D02*
X018599Y002041D01*
X018442Y002198D01*
X018442Y004242D01*
X018237Y004448D01*
X018237Y006039D01*
X018041Y006039D02*
X018040Y004382D01*
X018262Y004160D01*
X018262Y003010D01*
X018099Y002848D01*
X018100Y001831D01*
X018320Y001457D02*
X018419Y001457D01*
X018419Y001339D02*
X017849Y001339D01*
X017880Y001457D02*
X017779Y001457D01*
X017599Y001335D02*
X018100Y000831D01*
X018490Y000628D02*
X018710Y000628D01*
X018680Y000746D02*
X018520Y000746D01*
X018520Y000865D02*
X018680Y000865D01*
X018680Y000983D02*
X018520Y000983D01*
X018577Y001102D02*
X018424Y001102D01*
X018460Y001220D02*
X018305Y001220D01*
X018599Y001335D02*
X019100Y000831D01*
X019490Y000628D02*
X019710Y000628D01*
X019680Y000746D02*
X019520Y000746D01*
X019520Y000865D02*
X019680Y000865D01*
X019680Y000983D02*
X019520Y000983D01*
X019575Y001102D02*
X019424Y001102D01*
X019457Y001220D02*
X019305Y001220D01*
X019372Y000509D02*
X019828Y000509D01*
X020372Y000509D02*
X020828Y000509D01*
X021100Y000831D02*
X020600Y001331D01*
X020600Y002555D01*
X021218Y003173D01*
X021218Y005331D01*
X020764Y005785D01*
X019812Y005785D01*
X019812Y006039D01*
X019992Y006079D02*
X020779Y006079D01*
X020839Y005965D02*
X019992Y005965D01*
X019992Y006114D01*
X019991Y006114D01*
X019991Y006404D01*
X019921Y006474D01*
X019402Y006474D01*
X019402Y006883D01*
X019967Y006883D01*
X019967Y006866D01*
X020442Y006866D01*
X020442Y006866D01*
X020917Y006866D01*
X020917Y006875D01*
X021011Y006616D01*
X021101Y006574D01*
X021491Y006715D01*
X021530Y006800D01*
X021557Y006773D01*
X021557Y006694D01*
X021549Y006697D01*
X021508Y006705D01*
X021466Y006701D01*
X021315Y006646D01*
X021418Y006366D01*
X021382Y006353D01*
X021280Y006633D01*
X021130Y006579D01*
X021096Y006555D01*
X021068Y006522D01*
X021051Y006484D01*
X021043Y006443D01*
X021047Y006401D01*
X021093Y006274D01*
X020842Y006525D01*
X020877Y006560D01*
X020877Y006700D01*
X020885Y006708D01*
X020906Y006745D01*
X020917Y006786D01*
X020917Y006866D01*
X020442Y006866D01*
X020442Y006866D01*
X019967Y006866D01*
X019967Y006786D01*
X019978Y006745D01*
X019999Y006708D01*
X020007Y006700D01*
X020007Y006560D01*
X020077Y006490D01*
X020367Y006490D01*
X021369Y005490D01*
X021369Y005435D01*
X021293Y005511D01*
X020839Y005965D01*
X020844Y005960D02*
X020898Y005960D01*
X020962Y005842D02*
X021017Y005842D01*
X021081Y005723D02*
X021136Y005723D01*
X021199Y005605D02*
X021255Y005605D01*
X021318Y005486D02*
X021369Y005486D01*
X021549Y005565D02*
X021549Y004910D01*
X022862Y003598D01*
X023587Y003598D01*
X024100Y004106D01*
X024499Y004301D02*
X024570Y004301D01*
X024570Y004183D02*
X024520Y004183D01*
X024520Y004064D02*
X024570Y004064D01*
X024570Y003946D02*
X024520Y003946D01*
X024570Y003827D02*
X024415Y003827D01*
X024296Y003709D02*
X024570Y003709D01*
X024570Y003590D02*
X023835Y003590D01*
X023715Y003472D02*
X024570Y003472D01*
X024570Y003353D02*
X022587Y003353D01*
X022581Y003387D02*
X022558Y003461D01*
X022523Y003529D01*
X022477Y003592D01*
X022423Y003646D01*
X022360Y003692D01*
X022292Y003727D01*
X022218Y003751D01*
X022142Y003763D01*
X022142Y003763D01*
X022142Y003311D01*
X022593Y003311D01*
X022593Y003311D01*
X022581Y003387D01*
X022552Y003472D02*
X022733Y003472D01*
X022615Y003590D02*
X022479Y003590D01*
X022496Y003709D02*
X022327Y003709D01*
X022378Y003827D02*
X021398Y003827D01*
X021398Y003709D02*
X021880Y003709D01*
X021847Y003692D02*
X021784Y003646D01*
X021730Y003592D01*
X021684Y003529D01*
X021649Y003461D01*
X021626Y003387D01*
X021614Y003311D01*
X022065Y003311D01*
X022065Y003234D01*
X022142Y003234D01*
X022142Y002783D01*
X022218Y002795D01*
X022292Y002819D01*
X022360Y002854D01*
X022423Y002899D01*
X022477Y002953D01*
X022523Y003016D01*
X022558Y003085D01*
X022581Y003158D01*
X022593Y003234D01*
X022593Y003234D01*
X022142Y003234D01*
X022142Y003311D01*
X022065Y003311D01*
X022065Y003763D01*
X021989Y003751D01*
X021915Y003727D01*
X021847Y003692D01*
X021728Y003590D02*
X021398Y003590D01*
X021398Y003472D02*
X021655Y003472D01*
X021620Y003353D02*
X021398Y003353D01*
X021398Y003235D02*
X022065Y003235D01*
X022065Y003234D02*
X021614Y003234D01*
X021626Y003158D01*
X021649Y003085D01*
X021684Y003016D01*
X021730Y002953D01*
X021784Y002899D01*
X021847Y002854D01*
X021915Y002819D01*
X021989Y002795D01*
X022065Y002783D01*
X022065Y002783D01*
X022065Y003234D01*
X022142Y003235D02*
X024570Y003235D01*
X024570Y003116D02*
X022568Y003116D01*
X022509Y002998D02*
X024570Y002998D01*
X024570Y002879D02*
X022395Y002879D01*
X022142Y002879D02*
X022065Y002879D01*
X022065Y002998D02*
X022142Y002998D01*
X022142Y003116D02*
X022065Y003116D01*
X021812Y002879D02*
X021179Y002879D01*
X021297Y002998D02*
X021698Y002998D01*
X021639Y003116D02*
X021398Y003116D01*
X021614Y003234D02*
X021614Y003234D01*
X021614Y003311D02*
X021614Y003311D01*
X022065Y003353D02*
X022142Y003353D01*
X022142Y003472D02*
X022065Y003472D01*
X022065Y003590D02*
X022142Y003590D01*
X022142Y003709D02*
X022065Y003709D01*
X022065Y003763D02*
X022065Y003763D01*
X022259Y003946D02*
X021398Y003946D01*
X021398Y004064D02*
X022141Y004064D01*
X022022Y004183D02*
X021398Y004183D01*
X021398Y004301D02*
X021904Y004301D01*
X021785Y004420D02*
X021398Y004420D01*
X021398Y004538D02*
X021667Y004538D01*
X021548Y004657D02*
X021398Y004657D01*
X021398Y004775D02*
X021430Y004775D01*
X020853Y005179D02*
X020853Y003330D01*
X019601Y002078D01*
X020100Y002314D02*
X021037Y003251D01*
X021037Y005251D01*
X020685Y005603D01*
X019652Y005603D01*
X019615Y005640D01*
X019615Y006039D01*
X019419Y006039D02*
X019419Y005582D01*
X019577Y005423D01*
X020609Y005423D01*
X020853Y005179D01*
X021549Y005565D02*
X020442Y006669D01*
X020015Y006553D02*
X019402Y006553D01*
X019402Y006671D02*
X020007Y006671D01*
X019967Y006790D02*
X019402Y006790D01*
X019042Y006671D02*
X018737Y006671D01*
X018811Y006597D02*
X018534Y006874D01*
X018500Y006908D02*
X018849Y006908D01*
X018769Y007027D02*
X018029Y007027D01*
X017795Y007027D02*
X015483Y007027D01*
X015549Y007093D02*
X015549Y007093D01*
X015601Y007145D02*
X018769Y007145D01*
X018769Y007264D02*
X015654Y007264D01*
X015654Y007382D02*
X018769Y007382D01*
X018769Y007501D02*
X015654Y007501D01*
X015654Y007619D02*
X018769Y007619D01*
X018769Y007738D02*
X015654Y007738D01*
X015654Y007856D02*
X018769Y007856D01*
X018769Y007975D02*
X015654Y007975D01*
X015654Y008093D02*
X018769Y008093D01*
X018769Y008212D02*
X015654Y008212D01*
X015474Y008510D02*
X018949Y008510D01*
X018949Y007063D01*
X019222Y007063D01*
X020442Y007063D01*
X021044Y007063D01*
X021201Y006905D01*
X020948Y006790D02*
X020917Y006790D01*
X020877Y006671D02*
X020991Y006671D01*
X021094Y006553D02*
X020869Y006553D01*
X020933Y006434D02*
X021044Y006434D01*
X021051Y006316D02*
X021078Y006316D01*
X021353Y006434D02*
X021393Y006434D01*
X021430Y006330D02*
X021533Y006050D01*
X021557Y006058D01*
X021557Y005812D01*
X021375Y005992D01*
X021497Y006037D01*
X021395Y006317D01*
X021430Y006330D01*
X021436Y006316D02*
X021396Y006316D01*
X021439Y006197D02*
X021479Y006197D01*
X021482Y006079D02*
X021522Y006079D01*
X021557Y005960D02*
X021408Y005960D01*
X021527Y005842D02*
X021557Y005842D01*
X021924Y005685D02*
X022999Y004610D01*
X023599Y004610D01*
X024100Y005106D01*
X024433Y005368D02*
X024570Y005368D01*
X024570Y005486D02*
X024314Y005486D01*
X024311Y005723D02*
X024570Y005723D01*
X024570Y005605D02*
X023849Y005605D01*
X023886Y005486D02*
X023730Y005486D01*
X023673Y005430D02*
X023673Y005430D01*
X023767Y005368D02*
X023433Y005368D01*
X023520Y005249D02*
X023680Y005249D01*
X023680Y005131D02*
X023520Y005131D01*
X023520Y005012D02*
X023680Y005012D01*
X023630Y004894D02*
X023481Y004894D01*
X023100Y005106D02*
X022112Y006098D01*
X022112Y006998D01*
X021456Y007653D01*
X020442Y007653D01*
X020442Y007456D02*
X021390Y007456D01*
X021924Y006923D01*
X021924Y005685D01*
X021737Y005473D02*
X023100Y004106D01*
X023499Y004301D02*
X023701Y004301D01*
X023680Y004183D02*
X023520Y004183D01*
X023520Y004064D02*
X023680Y004064D01*
X023680Y003946D02*
X023520Y003946D01*
X023563Y003827D02*
X023415Y003827D01*
X023661Y003418D02*
X023661Y003418D01*
X024570Y002761D02*
X021060Y002761D01*
X020942Y002642D02*
X024570Y002642D01*
X024570Y002524D02*
X020823Y002524D01*
X020780Y002405D02*
X022931Y002405D01*
X023065Y002461D02*
X022771Y002339D01*
X022545Y002113D01*
X022424Y001819D01*
X022424Y001501D01*
X022545Y001207D01*
X022771Y000981D01*
X023065Y000859D01*
X023383Y000859D01*
X023678Y000981D01*
X023903Y001207D01*
X024025Y001501D01*
X024025Y001819D01*
X023903Y002113D01*
X023678Y002339D01*
X023383Y002461D01*
X023065Y002461D01*
X022718Y002287D02*
X021295Y002287D01*
X021140Y002287D02*
X021060Y002287D01*
X021060Y002168D02*
X021140Y002168D01*
X021140Y002050D02*
X021060Y002050D01*
X021060Y001931D02*
X021140Y001931D01*
X021140Y001813D02*
X022424Y001813D01*
X022424Y001694D02*
X021560Y001694D01*
X021495Y001576D02*
X022424Y001576D01*
X022442Y001457D02*
X021376Y001457D01*
X021140Y001457D02*
X021060Y001457D01*
X021060Y001576D02*
X021140Y001576D01*
X021140Y001694D02*
X021060Y001694D01*
X020824Y001457D02*
X020780Y001457D01*
X020847Y001339D02*
X022491Y001339D01*
X022540Y001220D02*
X021305Y001220D01*
X021424Y001102D02*
X022650Y001102D01*
X022769Y000983D02*
X021520Y000983D01*
X021520Y000865D02*
X023053Y000865D01*
X023396Y000865D02*
X024570Y000865D01*
X024570Y000983D02*
X023679Y000983D01*
X023798Y001102D02*
X024570Y001102D01*
X024570Y001220D02*
X023908Y001220D01*
X023957Y001339D02*
X024570Y001339D01*
X024570Y001457D02*
X024007Y001457D01*
X024025Y001576D02*
X024570Y001576D01*
X024570Y001694D02*
X024025Y001694D01*
X024025Y001813D02*
X024570Y001813D01*
X024570Y001931D02*
X023978Y001931D01*
X023929Y002050D02*
X024570Y002050D01*
X024570Y002168D02*
X023848Y002168D01*
X023730Y002287D02*
X024570Y002287D01*
X024570Y002405D02*
X023517Y002405D01*
X022600Y002168D02*
X021414Y002168D01*
X021532Y002050D02*
X022519Y002050D01*
X022470Y001931D02*
X021560Y001931D01*
X020905Y002287D02*
X020780Y002287D01*
X020780Y002168D02*
X020786Y002168D01*
X020100Y002314D02*
X020100Y001831D01*
X020320Y001457D02*
X020420Y001457D01*
X021520Y000746D02*
X024570Y000746D01*
X024570Y000628D02*
X021490Y000628D01*
X021372Y000509D02*
X024570Y000509D01*
X024570Y000391D02*
X017310Y000391D01*
X017428Y000509D02*
X017828Y000509D01*
X017710Y000628D02*
X017547Y000628D01*
X017560Y000746D02*
X017680Y000746D01*
X017140Y000746D02*
X017060Y000746D01*
X017060Y000628D02*
X017140Y000628D01*
X017140Y000509D02*
X017060Y000509D01*
X017060Y000391D02*
X017140Y000391D01*
X016890Y000391D02*
X001833Y000391D01*
X002080Y000509D02*
X004578Y000509D01*
X004460Y000628D02*
X002199Y000628D01*
X002294Y000746D02*
X004430Y000746D01*
X004430Y000865D02*
X002343Y000865D01*
X002392Y000983D02*
X004430Y000983D01*
X004328Y001102D02*
X002400Y001102D01*
X002400Y001220D02*
X004210Y001220D01*
X004207Y001223D02*
X004207Y001223D01*
X004207Y001339D02*
X002392Y001339D01*
X002343Y001457D02*
X004207Y001457D01*
X004207Y001576D02*
X002294Y001576D01*
X002197Y001694D02*
X002450Y001694D01*
X002477Y001668D02*
X002407Y001738D01*
X002407Y002932D01*
X002477Y003002D01*
X003671Y003002D01*
X003742Y002932D01*
X003742Y001738D01*
X003671Y001668D01*
X002477Y001668D01*
X002407Y001813D02*
X002079Y001813D01*
X001830Y001931D02*
X002407Y001931D01*
X002407Y002050D02*
X000809Y002050D01*
X000809Y002168D02*
X002407Y002168D01*
X002407Y002287D02*
X000809Y002287D01*
X000809Y002405D02*
X002407Y002405D01*
X002407Y002524D02*
X000809Y002524D01*
X000809Y002642D02*
X002407Y002642D01*
X002407Y002761D02*
X000809Y002761D01*
X000809Y002879D02*
X002407Y002879D01*
X002472Y002998D02*
X000809Y002998D01*
X000809Y003116D02*
X005613Y003116D01*
X005495Y002998D02*
X003676Y002998D01*
X003742Y002879D02*
X005376Y002879D01*
X005258Y002761D02*
X003742Y002761D01*
X003742Y002642D02*
X005139Y002642D01*
X005021Y002524D02*
X003742Y002524D01*
X003742Y002405D02*
X004465Y002405D01*
X004346Y002287D02*
X003742Y002287D01*
X003742Y002168D02*
X004228Y002168D01*
X004207Y002050D02*
X003742Y002050D01*
X003742Y001931D02*
X004207Y001931D01*
X004207Y001813D02*
X003742Y001813D01*
X003698Y001694D02*
X004207Y001694D01*
X004387Y002073D02*
X004387Y001298D01*
X004850Y000831D01*
X005240Y000628D02*
X005460Y000628D01*
X005430Y000746D02*
X005270Y000746D01*
X005270Y000865D02*
X005430Y000865D01*
X005430Y000983D02*
X005270Y000983D01*
X005327Y001102D02*
X005174Y001102D01*
X005210Y001220D02*
X005055Y001220D01*
X005169Y001339D02*
X004600Y001339D01*
X004630Y001457D02*
X004567Y001457D01*
X004850Y001831D02*
X012587Y009573D01*
X012588Y009944D01*
X012963Y009944D02*
X012962Y009685D01*
X005349Y002073D01*
X005349Y001335D01*
X005169Y001457D02*
X005070Y001457D01*
X004387Y002073D02*
X004612Y002298D01*
X005049Y002298D01*
X012213Y009461D01*
X012213Y009944D01*
X011757Y009871D02*
X011752Y009871D01*
X011595Y009969D02*
X010458Y009969D01*
X010906Y009752D02*
X011141Y009752D01*
X011595Y009969D02*
X012036Y010409D01*
X014458Y010409D01*
X014458Y010606D02*
X013775Y010606D01*
X013700Y010681D01*
X013956Y010803D02*
X013799Y010960D01*
X013599Y010960D01*
X013325Y010681D01*
X013956Y010803D02*
X014458Y010803D01*
X015087Y011310D02*
X015474Y010923D01*
X015474Y008510D01*
X015654Y008804D02*
X018769Y008804D01*
X018769Y008923D02*
X015654Y008923D01*
X015654Y009041D02*
X018769Y009041D01*
X018769Y009160D02*
X015654Y009160D01*
X015654Y009278D02*
X018769Y009278D01*
X018769Y009397D02*
X015654Y009397D01*
X015654Y009515D02*
X018769Y009515D01*
X018769Y009634D02*
X015654Y009634D01*
X015654Y009752D02*
X018769Y009752D01*
X018769Y009871D02*
X015654Y009871D01*
X015654Y009989D02*
X018769Y009989D01*
X018769Y010108D02*
X015654Y010108D01*
X015654Y010226D02*
X018769Y010226D01*
X018769Y010345D02*
X015654Y010345D01*
X015654Y010463D02*
X018769Y010463D01*
X018769Y010582D02*
X015654Y010582D01*
X015654Y010700D02*
X018769Y010700D01*
X018769Y010819D02*
X015654Y010819D01*
X015654Y010937D02*
X018769Y010937D01*
X018778Y011056D02*
X016261Y011056D01*
X016339Y011174D02*
X018896Y011174D01*
X019015Y011293D02*
X016358Y011293D01*
X016329Y011411D02*
X019133Y011411D01*
X019252Y011530D02*
X016237Y011530D01*
X016050Y011281D02*
X015854Y011280D01*
X015677Y011456D01*
X015678Y012023D01*
X015088Y012023D02*
X015088Y012482D01*
X014975Y012595D01*
X012150Y012595D01*
X011903Y012596D02*
X011397Y012596D01*
X011516Y012478D02*
X011784Y012478D01*
X011735Y012359D02*
X011565Y012359D01*
X011565Y012241D02*
X011735Y012241D01*
X011735Y012122D02*
X011565Y012122D01*
X011657Y012004D02*
X011815Y012004D01*
X011650Y011756D02*
X011150Y012256D01*
X012390Y012833D02*
X014728Y012833D01*
X014682Y012952D02*
X012433Y012952D01*
X012551Y013070D02*
X014658Y013070D01*
X014956Y012952D02*
X014994Y012952D01*
X014994Y013307D02*
X014956Y013307D01*
X014956Y013426D02*
X014994Y013426D01*
X014049Y013573D02*
X014047Y013546D01*
X014042Y013519D01*
X014034Y013493D01*
X014023Y013468D01*
X014009Y013445D01*
X013992Y013424D01*
X013973Y013405D01*
X013952Y013388D01*
X013929Y013374D01*
X013904Y013363D01*
X013878Y013355D01*
X013851Y013350D01*
X013824Y013348D01*
X013806Y013348D02*
X013779Y013350D01*
X013752Y013355D01*
X013726Y013363D01*
X013701Y013374D01*
X013678Y013388D01*
X013657Y013405D01*
X013638Y013424D01*
X013621Y013445D01*
X013607Y013468D01*
X013596Y013493D01*
X013588Y013519D01*
X013583Y013546D01*
X013581Y013573D01*
X015088Y012023D02*
X015087Y011310D01*
X015359Y011293D02*
X015586Y011293D01*
X015603Y011276D02*
X015603Y011276D01*
X015706Y011174D02*
X015477Y011174D01*
X015596Y011056D02*
X015839Y011056D01*
X015780Y011100D02*
X015780Y011100D01*
X015780Y011100D01*
X017056Y012023D02*
X017055Y014016D01*
X016149Y014923D01*
X015837Y014923D01*
X015549Y015210D01*
X015549Y015948D01*
X015729Y015796D02*
X015808Y015796D01*
X016050Y015444D02*
X017252Y014244D01*
X017253Y012023D01*
X017450Y012023D02*
X017449Y014310D01*
X016549Y015210D01*
X016549Y015948D01*
X016729Y015796D02*
X016808Y015796D01*
X017050Y015444D02*
X017646Y014851D01*
X017647Y012023D01*
X017844Y012023D02*
X017843Y014916D01*
X017549Y015210D01*
X017549Y015948D01*
X017729Y015796D02*
X017808Y015796D01*
X018050Y015444D02*
X018041Y015434D01*
X018041Y012023D01*
X018237Y012023D02*
X018237Y014897D01*
X018549Y015210D01*
X018549Y015948D01*
X018729Y015796D02*
X018808Y015796D01*
X019050Y015444D02*
X018433Y014832D01*
X018434Y012023D01*
X018631Y012023D02*
X018630Y014291D01*
X019549Y015210D01*
X019549Y015948D01*
X019729Y015796D02*
X019808Y015796D01*
X020050Y015444D02*
X018827Y014225D01*
X018828Y012023D01*
X019025Y012023D02*
X019024Y013685D01*
X020549Y015210D01*
X020549Y015948D01*
X020729Y015796D02*
X020808Y015796D01*
X021050Y015444D02*
X019221Y013619D01*
X019222Y012023D01*
X019419Y012023D02*
X019418Y013079D01*
X021549Y015210D01*
X021549Y015948D01*
X021729Y015796D02*
X021808Y015796D01*
X022050Y015444D02*
X019614Y013013D01*
X019615Y012023D01*
X019812Y012023D02*
X019811Y012947D01*
X021812Y014948D01*
X022287Y014948D01*
X022549Y015210D01*
X022549Y015948D01*
X022560Y014966D02*
X024570Y014966D01*
X024570Y014848D02*
X022441Y014848D01*
X022292Y014570D02*
X022141Y014570D01*
X022141Y014150D01*
X022061Y014150D01*
X022061Y014070D01*
X021641Y014070D01*
X021641Y013919D01*
X021911Y013650D01*
X022061Y013650D01*
X022061Y014070D01*
X022141Y014070D01*
X022141Y013650D01*
X022292Y013650D01*
X022561Y013919D01*
X022561Y014070D01*
X022141Y014070D01*
X022141Y014150D01*
X022561Y014150D01*
X022561Y014301D01*
X022292Y014570D01*
X022370Y014492D02*
X022892Y014492D01*
X022773Y014374D02*
X022488Y014374D01*
X022561Y014255D02*
X022680Y014255D01*
X022680Y014137D02*
X022141Y014137D01*
X022061Y014137D02*
X021255Y014137D01*
X021374Y014255D02*
X021641Y014255D01*
X021641Y014301D02*
X021641Y014150D01*
X022061Y014150D01*
X022061Y014570D01*
X021911Y014570D01*
X021641Y014301D01*
X021714Y014374D02*
X021492Y014374D01*
X021611Y014492D02*
X021833Y014492D01*
X021729Y014611D02*
X024570Y014611D01*
X024570Y014729D02*
X021848Y014729D01*
X022061Y014492D02*
X022141Y014492D01*
X022141Y014374D02*
X022061Y014374D01*
X022061Y014255D02*
X022141Y014255D01*
X022141Y014018D02*
X022061Y014018D01*
X022061Y013900D02*
X022141Y013900D01*
X022141Y013781D02*
X022061Y013781D01*
X022061Y013663D02*
X022141Y013663D01*
X022304Y013663D02*
X022402Y013663D01*
X022423Y013781D02*
X022520Y013781D01*
X022541Y013900D02*
X022639Y013900D01*
X022680Y014018D02*
X022561Y014018D01*
X023100Y014106D02*
X022112Y013118D01*
X022112Y011223D01*
X021889Y011000D01*
X020442Y011000D01*
X020442Y011196D02*
X021063Y011196D01*
X021063Y011294D01*
X021340Y011293D02*
X021644Y011293D01*
X021644Y011313D02*
X021644Y011401D01*
X021648Y011401D01*
X021648Y011700D01*
X021686Y011700D01*
X021686Y011612D01*
X021682Y011612D01*
X021682Y011313D01*
X021644Y011313D01*
X021648Y011411D02*
X021682Y011411D01*
X021682Y011530D02*
X021648Y011530D01*
X021648Y011648D02*
X021686Y011648D01*
X021648Y011737D02*
X021350Y011737D01*
X021350Y011897D01*
X021360Y011938D01*
X021381Y011974D01*
X021411Y012004D01*
X021448Y012025D01*
X021488Y012036D01*
X021648Y012036D01*
X021648Y011737D01*
X021648Y011767D02*
X021686Y011767D01*
X021686Y011885D02*
X021648Y011885D01*
X021648Y012004D02*
X021686Y012004D01*
X021923Y012004D02*
X021932Y012004D01*
X021932Y012122D02*
X019992Y012122D01*
X019992Y012004D02*
X021411Y012004D01*
X021350Y011885D02*
X021344Y011885D01*
X021344Y011767D02*
X021350Y011767D01*
X021344Y011648D02*
X021350Y011648D01*
X021344Y011530D02*
X021352Y011530D01*
X021340Y011411D02*
X021346Y011411D01*
X021067Y011719D02*
X020964Y011719D01*
X020638Y011393D01*
X020442Y011393D01*
X019370Y011393D01*
X018949Y010973D01*
X018949Y008510D01*
X019129Y008567D02*
X020007Y008567D01*
X020007Y008669D02*
X020007Y007243D01*
X019147Y007243D01*
X019129Y007243D01*
X019129Y010898D01*
X019445Y011213D01*
X020007Y011213D01*
X020007Y009000D01*
X019999Y008992D01*
X019978Y008955D01*
X019967Y008914D01*
X019967Y008834D01*
X019967Y008754D01*
X019978Y008713D01*
X019999Y008677D01*
X020007Y008669D01*
X019994Y008686D02*
X019129Y008686D01*
X019129Y008804D02*
X019967Y008804D01*
X019967Y008834D02*
X020442Y008834D01*
X020442Y008834D01*
X020442Y008834D01*
X020917Y008834D01*
X020917Y008817D01*
X022046Y008817D01*
X022680Y008184D01*
X022680Y008272D01*
X022100Y008851D01*
X020917Y008851D01*
X020917Y008834D01*
X020442Y008834D01*
X019967Y008834D01*
X019969Y008923D02*
X019129Y008923D01*
X019129Y009041D02*
X020007Y009041D01*
X020007Y009160D02*
X019129Y009160D01*
X019129Y009278D02*
X020007Y009278D01*
X020007Y009397D02*
X019129Y009397D01*
X019129Y009515D02*
X020007Y009515D01*
X020007Y009634D02*
X019129Y009634D01*
X019129Y009752D02*
X020007Y009752D01*
X020007Y009871D02*
X019129Y009871D01*
X019129Y009989D02*
X020007Y009989D01*
X020007Y010108D02*
X019129Y010108D01*
X019129Y010226D02*
X020007Y010226D01*
X020007Y010345D02*
X019129Y010345D01*
X019129Y010463D02*
X020007Y010463D01*
X020007Y010582D02*
X019129Y010582D01*
X019129Y010700D02*
X020007Y010700D01*
X020007Y010819D02*
X019129Y010819D01*
X019168Y010937D02*
X020007Y010937D01*
X020007Y011056D02*
X019287Y011056D01*
X019405Y011174D02*
X020007Y011174D01*
X019981Y011648D02*
X020639Y011648D01*
X020757Y011767D02*
X019991Y011767D01*
X019991Y011885D02*
X020790Y011885D01*
X019992Y012241D02*
X021932Y012241D01*
X021932Y012359D02*
X019992Y012359D01*
X019992Y012478D02*
X021932Y012478D01*
X021932Y012596D02*
X019992Y012596D01*
X019992Y012715D02*
X021932Y012715D01*
X021932Y012833D02*
X019991Y012833D01*
X020070Y012952D02*
X021932Y012952D01*
X021932Y013070D02*
X020189Y013070D01*
X020307Y013189D02*
X021932Y013189D01*
X022046Y013307D02*
X020426Y013307D01*
X020544Y013426D02*
X022165Y013426D01*
X022283Y013544D02*
X020663Y013544D01*
X020781Y013663D02*
X021898Y013663D01*
X021780Y013781D02*
X020900Y013781D01*
X021018Y013900D02*
X021661Y013900D01*
X021641Y014018D02*
X021137Y014018D01*
X022299Y013044D02*
X022845Y013590D01*
X023584Y013590D01*
X024100Y014106D01*
X024487Y013900D02*
X024570Y013900D01*
X024570Y014018D02*
X024520Y014018D01*
X024520Y014137D02*
X024570Y014137D01*
X024570Y014255D02*
X024520Y014255D01*
X024570Y014374D02*
X024427Y014374D01*
X024308Y014492D02*
X024570Y014492D01*
X023892Y014492D02*
X023308Y014492D01*
X023427Y014374D02*
X023773Y014374D01*
X023680Y014255D02*
X023520Y014255D01*
X023520Y014137D02*
X023680Y014137D01*
X023680Y014018D02*
X023520Y014018D01*
X023487Y013900D02*
X023639Y013900D01*
X023520Y013781D02*
X023369Y013781D01*
X023674Y013426D02*
X023769Y013426D01*
X023792Y013544D02*
X023887Y013544D01*
X023909Y013566D02*
X023640Y013297D01*
X023640Y013146D01*
X024060Y013146D01*
X024060Y013066D01*
X024140Y013066D01*
X024140Y012646D01*
X024291Y012646D01*
X024560Y012916D01*
X024560Y013066D01*
X024140Y013066D01*
X024140Y013146D01*
X024560Y013146D01*
X024560Y013297D01*
X024291Y013566D01*
X024140Y013566D01*
X024140Y013146D01*
X024060Y013146D01*
X024060Y013566D01*
X023909Y013566D01*
X023911Y013663D02*
X024570Y013663D01*
X024570Y013781D02*
X024369Y013781D01*
X024313Y013544D02*
X024570Y013544D01*
X024570Y013426D02*
X024431Y013426D01*
X024550Y013307D02*
X024570Y013307D01*
X024560Y013189D02*
X024570Y013189D01*
X024570Y013070D02*
X024140Y013070D01*
X024060Y013070D02*
X023140Y013070D01*
X023060Y013070D02*
X022580Y013070D01*
X022640Y013066D02*
X022640Y012916D01*
X022909Y012646D01*
X023060Y012646D01*
X023060Y013066D01*
X022640Y013066D01*
X022640Y012952D02*
X022479Y012952D01*
X022479Y012833D02*
X022723Y012833D01*
X022841Y012715D02*
X022479Y012715D01*
X022479Y012596D02*
X024570Y012596D01*
X024570Y012478D02*
X024323Y012478D01*
X024441Y012359D02*
X024570Y012359D01*
X024570Y012241D02*
X024520Y012241D01*
X024520Y012122D02*
X024570Y012122D01*
X024570Y012004D02*
X024520Y012004D01*
X024473Y011885D02*
X024570Y011885D01*
X024570Y011767D02*
X024354Y011767D01*
X024570Y011648D02*
X023893Y011648D01*
X023774Y011530D02*
X024570Y011530D01*
X024570Y011411D02*
X024389Y011411D01*
X024508Y011293D02*
X024570Y011293D01*
X024570Y011174D02*
X024520Y011174D01*
X024520Y011056D02*
X024570Y011056D01*
X024570Y010937D02*
X024520Y010937D01*
X024570Y010819D02*
X024406Y010819D01*
X024288Y010700D02*
X024570Y010700D01*
X024570Y010582D02*
X023826Y010582D01*
X023863Y010463D02*
X023707Y010463D01*
X023673Y010430D02*
X023673Y010430D01*
X023744Y010345D02*
X023456Y010345D01*
X023520Y010226D02*
X023680Y010226D01*
X023680Y010108D02*
X023520Y010108D01*
X023520Y009989D02*
X023680Y009989D01*
X023610Y009871D02*
X023458Y009871D01*
X023616Y009622D02*
X024100Y010106D01*
X024458Y009871D02*
X024570Y009871D01*
X024570Y009989D02*
X024520Y009989D01*
X024520Y010108D02*
X024570Y010108D01*
X024570Y010226D02*
X024520Y010226D01*
X024570Y010345D02*
X024456Y010345D01*
X024570Y010463D02*
X024337Y010463D01*
X024100Y011106D02*
X023599Y010610D01*
X022999Y010610D01*
X022404Y010015D01*
X020442Y010015D01*
X020442Y009819D02*
X022812Y009819D01*
X023100Y010106D01*
X023616Y009622D02*
X020442Y009622D01*
X020442Y009425D02*
X022777Y009425D01*
X022780Y009429D01*
X023100Y009106D01*
X023404Y009397D02*
X023796Y009397D01*
X023763Y009515D02*
X023915Y009515D01*
X023882Y009634D02*
X024570Y009634D01*
X024570Y009752D02*
X024340Y009752D01*
X024285Y009515D02*
X024570Y009515D01*
X024570Y009397D02*
X024404Y009397D01*
X024520Y009278D02*
X024570Y009278D01*
X024570Y009160D02*
X024520Y009160D01*
X024520Y009041D02*
X024570Y009041D01*
X024570Y008923D02*
X024510Y008923D01*
X024570Y008804D02*
X024392Y008804D01*
X024570Y008686D02*
X023931Y008686D01*
X023812Y008567D02*
X024570Y008567D01*
X024570Y008449D02*
X024352Y008449D01*
X024470Y008330D02*
X024570Y008330D01*
X024570Y008212D02*
X024520Y008212D01*
X024520Y008093D02*
X024570Y008093D01*
X024570Y007975D02*
X024520Y007975D01*
X024570Y007856D02*
X024444Y007856D01*
X024325Y007738D02*
X024570Y007738D01*
X024570Y007619D02*
X023864Y007619D01*
X023900Y007501D02*
X023744Y007501D01*
X023673Y007430D02*
X023673Y007430D01*
X023782Y007382D02*
X023418Y007382D01*
X023520Y007264D02*
X023680Y007264D01*
X023680Y007145D02*
X023520Y007145D01*
X023520Y007027D02*
X023680Y007027D01*
X023644Y006908D02*
X023496Y006908D01*
X023100Y007106D02*
X021766Y008441D01*
X020442Y008441D01*
X020442Y008637D02*
X021972Y008637D01*
X022999Y007610D01*
X023599Y007610D01*
X024100Y008106D01*
X023680Y008093D02*
X023520Y008093D01*
X023520Y007975D02*
X023680Y007975D01*
X023592Y007856D02*
X023444Y007856D01*
X023100Y008106D02*
X022175Y009031D01*
X020442Y009031D01*
X020442Y008834D02*
X019837Y008838D01*
X019837Y008835D01*
X020007Y008449D02*
X019129Y008449D01*
X019129Y008330D02*
X020007Y008330D01*
X020007Y008212D02*
X019129Y008212D01*
X019129Y008093D02*
X020007Y008093D01*
X020007Y007975D02*
X019129Y007975D01*
X019129Y007856D02*
X020007Y007856D01*
X020007Y007738D02*
X019129Y007738D01*
X019129Y007619D02*
X020007Y007619D01*
X020007Y007501D02*
X019129Y007501D01*
X019129Y007382D02*
X020007Y007382D01*
X020007Y007264D02*
X019129Y007264D01*
X019222Y007063D02*
X019222Y006039D01*
X018828Y006039D02*
X018828Y005564D01*
X018845Y005564D01*
X018845Y005301D01*
X018811Y005335D01*
X018811Y005564D01*
X018828Y005564D01*
X018828Y006039D01*
X018828Y006039D01*
X018828Y006514D01*
X018811Y006514D01*
X018811Y006597D01*
X018811Y006553D02*
X019042Y006553D01*
X018828Y006434D02*
X018828Y006434D01*
X018828Y006316D02*
X018828Y006316D01*
X018828Y006197D02*
X018828Y006197D01*
X018828Y006079D02*
X018828Y006079D01*
X018828Y005960D02*
X018828Y005960D01*
X018828Y005842D02*
X018828Y005842D01*
X018828Y005723D02*
X018828Y005723D01*
X018828Y005605D02*
X018828Y005605D01*
X018811Y005486D02*
X018845Y005486D01*
X018845Y005368D02*
X018811Y005368D01*
X018434Y006039D02*
X018433Y004513D01*
X018623Y004324D01*
X018623Y002308D01*
X017887Y002373D02*
X017887Y002898D01*
X018074Y003085D01*
X018074Y004085D01*
X017843Y004316D01*
X017844Y006039D01*
X017647Y006039D02*
X017646Y004482D01*
X017578Y004384D01*
X017450Y004633D02*
X017311Y004494D01*
X017311Y004272D01*
X017484Y004099D01*
X017579Y004099D01*
X017685Y003993D01*
X017685Y003222D01*
X017589Y003126D01*
X017337Y003126D01*
X017336Y003126D01*
X017334Y002598D01*
X017057Y002642D02*
X017052Y002642D01*
X017052Y002616D02*
X017052Y002776D01*
X017041Y002817D01*
X017034Y002829D01*
X017052Y002829D01*
X017091Y002868D01*
X017106Y002853D01*
X017057Y002805D01*
X017057Y002390D01*
X017127Y002320D01*
X017542Y002320D01*
X017612Y002390D01*
X017612Y002805D01*
X017566Y002851D01*
X017615Y002899D01*
X017615Y002946D01*
X017664Y002946D01*
X017769Y003052D01*
X017865Y003147D01*
X017865Y004039D01*
X017894Y004010D01*
X017894Y003160D01*
X017812Y003077D01*
X017707Y002972D01*
X017707Y002447D01*
X017525Y002265D01*
X017421Y002161D01*
X017291Y002291D01*
X017140Y002291D01*
X017140Y001871D01*
X017060Y001871D01*
X017060Y002291D01*
X016954Y002291D01*
X016990Y002312D01*
X017020Y002342D01*
X017041Y002378D01*
X017052Y002419D01*
X017052Y002579D01*
X016753Y002579D01*
X016753Y002616D01*
X017052Y002616D01*
X017052Y002524D02*
X017057Y002524D01*
X017048Y002405D02*
X017057Y002405D01*
X017060Y002287D02*
X017140Y002287D01*
X017140Y002168D02*
X017060Y002168D01*
X017060Y002050D02*
X017140Y002050D01*
X017140Y001931D02*
X017060Y001931D01*
X017060Y001813D02*
X016520Y001813D01*
X016520Y001931D02*
X016640Y001931D01*
X016668Y002050D02*
X016476Y002050D01*
X016357Y002168D02*
X016786Y002168D01*
X016753Y002287D02*
X016716Y002287D01*
X016716Y002280D02*
X016716Y002579D01*
X016417Y002579D01*
X016417Y002419D01*
X016428Y002378D01*
X016449Y002342D01*
X016479Y002312D01*
X016515Y002291D01*
X016556Y002280D01*
X016716Y002280D01*
X016716Y002405D02*
X016753Y002405D01*
X016753Y002524D02*
X016716Y002524D01*
X016417Y002524D02*
X016280Y002524D01*
X016280Y002642D02*
X016417Y002642D01*
X016417Y002761D02*
X016280Y002761D01*
X016280Y002879D02*
X016475Y002879D01*
X016567Y002998D02*
X016279Y002998D01*
X016279Y003116D02*
X016567Y003116D01*
X016279Y003472D02*
X017505Y003472D01*
X017865Y003472D02*
X017894Y003472D01*
X017894Y003590D02*
X017865Y003590D01*
X017865Y003709D02*
X017894Y003709D01*
X017894Y003827D02*
X017865Y003827D01*
X017865Y003946D02*
X017894Y003946D01*
X017865Y003353D02*
X017894Y003353D01*
X017894Y003235D02*
X017865Y003235D01*
X017851Y003116D02*
X017834Y003116D01*
X017732Y002998D02*
X017715Y002998D01*
X017707Y002879D02*
X017594Y002879D01*
X017612Y002761D02*
X017707Y002761D01*
X017707Y002642D02*
X017612Y002642D01*
X017612Y002524D02*
X017707Y002524D01*
X017665Y002405D02*
X017612Y002405D01*
X017546Y002287D02*
X017295Y002287D01*
X017414Y002168D02*
X017428Y002168D01*
X017599Y002085D02*
X017599Y001335D01*
X017419Y001457D02*
X017376Y001457D01*
X017140Y001457D02*
X017060Y001457D01*
X017060Y001371D02*
X016909Y001371D01*
X016640Y001641D01*
X016640Y001791D01*
X017060Y001791D01*
X017060Y001371D01*
X017060Y001220D02*
X017140Y001220D01*
X017140Y001102D02*
X017060Y001102D01*
X017060Y000983D02*
X017140Y000983D01*
X016838Y001220D02*
X016305Y001220D01*
X016424Y001102D02*
X016720Y001102D01*
X016640Y000983D02*
X016520Y000983D01*
X016372Y000509D02*
X016772Y000509D01*
X015828Y000509D02*
X015372Y000509D01*
X014828Y000509D02*
X014372Y000509D01*
X013828Y000509D02*
X013122Y000509D01*
X012578Y000509D02*
X012122Y000509D01*
X012240Y000628D02*
X012460Y000628D01*
X012430Y000746D02*
X012270Y000746D01*
X012270Y000865D02*
X012430Y000865D01*
X012430Y000983D02*
X012270Y000983D01*
X012327Y001102D02*
X012174Y001102D01*
X012210Y001220D02*
X012055Y001220D01*
X012169Y001339D02*
X011599Y001339D01*
X011630Y001457D02*
X011529Y001457D01*
X011349Y001335D02*
X011349Y004923D01*
X013883Y007456D01*
X014458Y007456D01*
X014458Y007259D02*
X013949Y007259D01*
X011849Y005160D01*
X011850Y001831D01*
X012070Y001457D02*
X012169Y001457D01*
X011850Y000831D02*
X011349Y001335D01*
X011169Y001339D02*
X010599Y001339D01*
X010630Y001457D02*
X010529Y001457D01*
X010349Y001335D02*
X010349Y004448D01*
X013948Y008047D01*
X014458Y008047D01*
X014458Y008244D02*
X013883Y008244D01*
X009849Y004210D01*
X009850Y001831D01*
X010070Y001457D02*
X010169Y001457D01*
X010169Y001339D02*
X009599Y001339D01*
X009630Y001457D02*
X009529Y001457D01*
X009349Y001335D02*
X009349Y003973D01*
X013817Y008441D01*
X014458Y008441D01*
X014458Y008637D02*
X013752Y008637D01*
X008849Y003735D01*
X008850Y001831D01*
X009070Y001457D02*
X009169Y001457D01*
X009169Y001339D02*
X008599Y001339D01*
X008630Y001457D02*
X008529Y001457D01*
X008349Y001335D02*
X008850Y000831D01*
X009240Y000628D02*
X009460Y000628D01*
X009430Y000746D02*
X009270Y000746D01*
X009270Y000865D02*
X009430Y000865D01*
X009430Y000983D02*
X009270Y000983D01*
X009327Y001102D02*
X009174Y001102D01*
X009210Y001220D02*
X009055Y001220D01*
X009349Y001335D02*
X009850Y000831D01*
X010240Y000628D02*
X010460Y000628D01*
X010430Y000746D02*
X010270Y000746D01*
X010270Y000865D02*
X010430Y000865D01*
X010430Y000983D02*
X010270Y000983D01*
X010327Y001102D02*
X010174Y001102D01*
X010210Y001220D02*
X010055Y001220D01*
X010349Y001335D02*
X010850Y000831D01*
X011240Y000628D02*
X011460Y000628D01*
X011430Y000746D02*
X011270Y000746D01*
X011270Y000865D02*
X011430Y000865D01*
X011430Y000983D02*
X011270Y000983D01*
X011327Y001102D02*
X011174Y001102D01*
X011210Y001220D02*
X011055Y001220D01*
X011070Y001457D02*
X011169Y001457D01*
X010850Y001831D02*
X010849Y004685D01*
X013817Y007653D01*
X014458Y007653D01*
X014458Y007850D02*
X015137Y007852D01*
X015141Y007850D01*
X015143Y007846D01*
X015144Y007841D01*
X015364Y006908D02*
X016449Y006908D01*
X016398Y006790D02*
X015246Y006790D01*
X015127Y006671D02*
X016407Y006671D01*
X016482Y006553D02*
X015009Y006553D01*
X014939Y006434D02*
X014634Y006434D01*
X016072Y006039D02*
X016071Y005220D01*
X015950Y005094D01*
X016663Y006039D02*
X016662Y006748D01*
X016663Y006747D01*
X016876Y006908D02*
X017681Y006908D01*
X017112Y006610D02*
X017055Y006529D01*
X017056Y006039D01*
X017253Y006039D02*
X017234Y004801D01*
X017108Y004675D01*
X017108Y004361D01*
X017026Y004279D01*
X016812Y004279D01*
X016845Y004246D01*
X016845Y003776D01*
X016567Y003827D02*
X016279Y003827D01*
X016279Y003709D02*
X016567Y003709D01*
X016567Y003590D02*
X016279Y003590D01*
X016206Y003946D02*
X016567Y003946D01*
X017450Y004633D02*
X017450Y006039D01*
X019961Y006434D02*
X020423Y006434D01*
X020542Y006316D02*
X019991Y006316D01*
X019991Y006197D02*
X020660Y006197D01*
X021310Y006553D02*
X021350Y006553D01*
X021369Y006671D02*
X021384Y006671D01*
X021525Y006790D02*
X021540Y006790D01*
X021737Y006848D02*
X021325Y007259D01*
X020442Y007259D01*
X020442Y007850D02*
X021522Y007850D01*
X022299Y007073D01*
X022299Y006310D01*
X022999Y005610D01*
X023599Y005610D01*
X024100Y006106D01*
X024366Y006434D02*
X024570Y006434D01*
X024570Y006316D02*
X024485Y006316D01*
X024520Y006197D02*
X024570Y006197D01*
X024570Y006079D02*
X024520Y006079D01*
X024520Y005960D02*
X024570Y005960D01*
X024570Y005842D02*
X024429Y005842D01*
X024520Y005249D02*
X024570Y005249D01*
X024570Y005131D02*
X024520Y005131D01*
X024520Y005012D02*
X024570Y005012D01*
X024570Y004894D02*
X024481Y004894D01*
X024570Y004775D02*
X024363Y004775D01*
X024570Y004657D02*
X023902Y004657D01*
X023782Y004538D02*
X024570Y004538D01*
X024570Y004420D02*
X024381Y004420D01*
X023819Y004420D02*
X023381Y004420D01*
X023673Y004430D02*
X023673Y004430D01*
X023577Y005842D02*
X023429Y005842D01*
X023520Y005960D02*
X023680Y005960D01*
X023680Y006079D02*
X023520Y006079D01*
X023520Y006197D02*
X023680Y006197D01*
X023715Y006316D02*
X023485Y006316D01*
X023673Y006430D02*
X023673Y006430D01*
X023678Y006434D02*
X023834Y006434D01*
X023797Y006553D02*
X024570Y006553D01*
X024570Y006671D02*
X023917Y006671D01*
X023599Y006610D02*
X022999Y006610D01*
X022674Y006935D01*
X022674Y007273D01*
X021703Y008244D01*
X020442Y008244D01*
X020442Y008047D02*
X021612Y008047D01*
X022487Y007173D01*
X022487Y006723D01*
X023100Y006106D01*
X023599Y006610D02*
X024100Y007106D01*
X024496Y006908D02*
X024570Y006908D01*
X024570Y006790D02*
X024377Y006790D01*
X024520Y007027D02*
X024570Y007027D01*
X024570Y007145D02*
X024520Y007145D01*
X024520Y007264D02*
X024570Y007264D01*
X024570Y007382D02*
X024418Y007382D01*
X024300Y007501D02*
X024570Y007501D01*
X023680Y008212D02*
X023520Y008212D01*
X023470Y008330D02*
X023730Y008330D01*
X023673Y008430D02*
X023673Y008430D01*
X023692Y008449D02*
X023848Y008449D01*
X023599Y008610D02*
X022862Y008610D01*
X022244Y009228D01*
X020442Y009228D01*
X020442Y010212D02*
X022206Y010212D01*
X023100Y011106D01*
X023406Y010819D02*
X023554Y010819D01*
X023520Y010937D02*
X023674Y010937D01*
X023680Y011056D02*
X023520Y011056D01*
X023520Y011174D02*
X023680Y011174D01*
X023692Y011293D02*
X023508Y011293D01*
X023389Y011411D02*
X023811Y011411D01*
X023673Y011430D02*
X023673Y011430D01*
X023599Y011610D02*
X022999Y011610D01*
X022674Y011285D01*
X022674Y010998D01*
X022086Y010409D01*
X020442Y010409D01*
X020442Y010606D02*
X022020Y010606D01*
X022487Y011073D01*
X022487Y011498D01*
X023100Y012106D01*
X023441Y012359D02*
X023759Y012359D01*
X023680Y012241D02*
X023520Y012241D01*
X023520Y012122D02*
X023680Y012122D01*
X023680Y012004D02*
X023520Y012004D01*
X023473Y011885D02*
X023621Y011885D01*
X023599Y011610D02*
X024100Y012106D01*
X023877Y012478D02*
X023323Y012478D01*
X023359Y012715D02*
X023841Y012715D01*
X023909Y012646D02*
X023640Y012916D01*
X023640Y013066D01*
X024060Y013066D01*
X024060Y012646D01*
X023909Y012646D01*
X024060Y012715D02*
X024140Y012715D01*
X024140Y012833D02*
X024060Y012833D01*
X024060Y012952D02*
X024140Y012952D01*
X024140Y013189D02*
X024060Y013189D01*
X024060Y013307D02*
X024140Y013307D01*
X024140Y013426D02*
X024060Y013426D01*
X024060Y013544D02*
X024140Y013544D01*
X023650Y013307D02*
X023550Y013307D01*
X023560Y013189D02*
X023640Y013189D01*
X023640Y012952D02*
X023560Y012952D01*
X023477Y012833D02*
X023723Y012833D01*
X023140Y012833D02*
X023060Y012833D01*
X023060Y012715D02*
X023140Y012715D01*
X022877Y012478D02*
X022479Y012478D01*
X022479Y012359D02*
X022759Y012359D01*
X022680Y012241D02*
X022479Y012241D01*
X022479Y012122D02*
X022680Y012122D01*
X022680Y012004D02*
X022479Y012004D01*
X022479Y011885D02*
X022622Y011885D01*
X022502Y011767D02*
X022479Y011767D01*
X022299Y011148D02*
X022299Y013044D01*
X023060Y012952D02*
X023140Y012952D01*
X024359Y012715D02*
X024570Y012715D01*
X024570Y012833D02*
X024477Y012833D01*
X024560Y012952D02*
X024570Y012952D01*
X022299Y011148D02*
X021954Y010803D01*
X020442Y010803D01*
X022060Y008804D02*
X022148Y008804D01*
X022178Y008686D02*
X022266Y008686D01*
X022297Y008567D02*
X022385Y008567D01*
X022415Y008449D02*
X022503Y008449D01*
X022534Y008330D02*
X022622Y008330D01*
X022652Y008212D02*
X022680Y008212D01*
X023392Y008804D02*
X023539Y008804D01*
X023510Y008923D02*
X023659Y008923D01*
X023680Y009041D02*
X023520Y009041D01*
X023520Y009160D02*
X023680Y009160D01*
X023680Y009278D02*
X023520Y009278D01*
X024100Y009106D02*
X023599Y008610D01*
X021737Y006848D02*
X021737Y005473D01*
X022142Y002783D02*
X022142Y002783D01*
X018828Y000509D02*
X018372Y000509D01*
X016824Y001457D02*
X016320Y001457D01*
X016438Y001576D02*
X016705Y001576D01*
X016640Y001694D02*
X016520Y001694D01*
X017060Y001694D02*
X017140Y001694D01*
X017140Y001576D02*
X017060Y001576D01*
X017599Y002085D02*
X017887Y002373D01*
X017057Y002761D02*
X017052Y002761D01*
X016532Y002287D02*
X016280Y002287D01*
X016280Y002405D02*
X016421Y002405D01*
X011578Y000509D02*
X011122Y000509D01*
X010578Y000509D02*
X010122Y000509D01*
X009578Y000509D02*
X009122Y000509D01*
X008578Y000509D02*
X008122Y000509D01*
X007578Y000509D02*
X007122Y000509D01*
X006578Y000509D02*
X006122Y000509D01*
X005578Y000509D02*
X005122Y000509D01*
X001369Y001931D02*
X000809Y001931D01*
X000809Y001813D02*
X001119Y001813D01*
X001001Y001694D02*
X000809Y001694D01*
X000809Y001576D02*
X000905Y001576D01*
X000856Y001457D02*
X000809Y001457D01*
X000809Y003235D02*
X005732Y003235D01*
X005850Y003353D02*
X000809Y003353D01*
X000809Y003472D02*
X005969Y003472D01*
X006087Y003590D02*
X000809Y003590D01*
X000809Y003709D02*
X006206Y003709D01*
X006324Y003827D02*
X000809Y003827D01*
X000809Y003946D02*
X006443Y003946D01*
X006561Y004064D02*
X000809Y004064D01*
X000809Y004183D02*
X006680Y004183D01*
X006798Y004301D02*
X000809Y004301D01*
X000809Y004420D02*
X006917Y004420D01*
X007035Y004538D02*
X000809Y004538D01*
X000809Y004657D02*
X007154Y004657D01*
X007272Y004775D02*
X000809Y004775D01*
X000809Y004894D02*
X007391Y004894D01*
X007509Y005012D02*
X000809Y005012D01*
X000809Y005131D02*
X007628Y005131D01*
X007945Y005960D02*
X005771Y005960D01*
X005897Y006197D02*
X005311Y006197D01*
X005311Y006079D02*
X007945Y006079D01*
X007945Y006197D02*
X007359Y006197D01*
X007524Y006316D02*
X007945Y006316D01*
X007078Y006197D02*
X006178Y006197D01*
X006343Y006316D02*
X006914Y006316D01*
X006851Y006434D02*
X006405Y006434D01*
X006425Y006553D02*
X006832Y006553D01*
X006846Y006671D02*
X006410Y006671D01*
X006354Y006790D02*
X006903Y006790D01*
X007052Y006908D02*
X006204Y006908D01*
X005733Y006316D02*
X005311Y006316D01*
X005311Y005960D02*
X005429Y005960D01*
X004677Y005960D02*
X004525Y005960D01*
X004525Y006079D02*
X004677Y006079D01*
X004677Y006197D02*
X004004Y006197D01*
X003380Y006079D02*
X002085Y006079D01*
X002085Y005960D02*
X003380Y005960D01*
X003380Y005842D02*
X002085Y005842D01*
X000939Y006197D02*
X000809Y006197D01*
X000809Y006079D02*
X000860Y006079D01*
X000860Y005960D02*
X000809Y005960D01*
X000809Y005842D02*
X000860Y005842D01*
X006764Y010937D02*
X007372Y010937D01*
X007322Y010819D02*
X006883Y010819D01*
X013974Y011573D02*
X014153Y011393D01*
X014458Y011393D01*
D34*
X014238Y011756D03*
X014350Y012985D03*
X016050Y011281D03*
X019590Y008832D03*
X017038Y006919D03*
X018900Y006744D03*
X020499Y006115D03*
X021659Y003901D03*
X019100Y002815D03*
X014770Y006069D03*
X009613Y011356D03*
X009000Y011406D03*
X008650Y012922D03*
X009650Y012922D03*
X010650Y012922D03*
X011638Y012909D03*
X008525Y014797D03*
X008525Y015297D03*
X008525Y015797D03*
X008150Y016547D03*
X006415Y014306D03*
X005425Y014156D03*
X002400Y016297D03*
X002400Y016797D03*
X004900Y016797D03*
X006109Y008526D03*
X023610Y012724D03*
D35*
X017912Y006799D03*
X016945Y005388D03*
X016379Y003042D03*
D36*
X016862Y006043D02*
X016862Y006585D01*
X016962Y006698D01*
X017038Y006919D01*
X019025Y006039D02*
X019025Y005942D01*
X019125Y005942D01*
X019222Y006039D02*
X019025Y006039D01*
D37*
X007260Y014859D02*
X006718Y014859D01*
X006353Y015223D01*
X006353Y015567D01*
X006016Y015904D01*
X005753Y015223D02*
X005689Y015159D01*
X005195Y015159D01*
X004595Y015159D02*
X004595Y015585D01*
X004914Y015904D01*
X004595Y015159D02*
X004535Y015099D01*
X003631Y015099D01*
D38*
X007260Y015759D02*
X007952Y015763D01*
X008969Y016780D01*
X010406Y016780D01*
X011714Y016780D01*
X012050Y016444D01*
X012050Y015444D01*
X012150Y013256D02*
X012150Y012595D01*
X012150Y012256D01*
D39*
X019125Y005942D02*
X019125Y004977D01*
X018915Y004977D01*
X019125Y004977D02*
X019291Y004977D01*
X019672Y004977D01*
X020047Y004977D01*
X020048Y004977D02*
X020424Y004977D01*
X020424Y004977D01*
X020048Y004977D02*
X020047Y004977D01*
D40*
X017578Y004384D03*
X016125Y004309D03*
X015950Y005094D03*
X016663Y006747D03*
X015144Y007842D03*
X015119Y008842D03*
X012963Y009944D03*
X012588Y009944D03*
X012213Y009944D03*
X011337Y009573D03*
X012950Y010681D03*
X013325Y010681D03*
X013700Y010681D03*
X009606Y007843D03*
X007174Y010060D03*
X006424Y009635D03*
X005600Y005756D03*
M02*
