G75*
G70*
%OFA0B0*%
%FSLAX24Y24*%
%IPPOS*%
%LPD*%
%AMOC8*
5,1,8,0,0,1.08239X$1,22.5*
%
%ADD10C,0.0000*%
%ADD11R,0.0512X0.0264*%
%ADD12R,0.2067X0.4055*%
%ADD13R,0.2067X0.2453*%
%ADD14R,0.0790X0.0590*%
%ADD15R,0.0790X0.1500*%
%ADD16R,0.0472X0.0512*%
%ADD17R,0.0354X0.0315*%
D10*
X000180Y000180D02*
X000180Y025425D01*
X028172Y025425D01*
X028172Y000180D01*
X000180Y000180D01*
X001214Y001805D02*
X001216Y001853D01*
X001222Y001901D01*
X001232Y001948D01*
X001245Y001994D01*
X001263Y002039D01*
X001283Y002083D01*
X001308Y002125D01*
X001336Y002164D01*
X001366Y002201D01*
X001400Y002235D01*
X001437Y002267D01*
X001475Y002296D01*
X001516Y002321D01*
X001559Y002343D01*
X001604Y002361D01*
X001650Y002375D01*
X001697Y002386D01*
X001745Y002393D01*
X001793Y002396D01*
X001841Y002395D01*
X001889Y002390D01*
X001937Y002381D01*
X001983Y002369D01*
X002028Y002352D01*
X002072Y002332D01*
X002114Y002309D01*
X002154Y002282D01*
X002192Y002252D01*
X002227Y002219D01*
X002259Y002183D01*
X002289Y002145D01*
X002315Y002104D01*
X002337Y002061D01*
X002357Y002017D01*
X002372Y001972D01*
X002384Y001925D01*
X002392Y001877D01*
X002396Y001829D01*
X002396Y001781D01*
X002392Y001733D01*
X002384Y001685D01*
X002372Y001638D01*
X002357Y001593D01*
X002337Y001549D01*
X002315Y001506D01*
X002289Y001465D01*
X002259Y001427D01*
X002227Y001391D01*
X002192Y001358D01*
X002154Y001328D01*
X002114Y001301D01*
X002072Y001278D01*
X002028Y001258D01*
X001983Y001241D01*
X001937Y001229D01*
X001889Y001220D01*
X001841Y001215D01*
X001793Y001214D01*
X001745Y001217D01*
X001697Y001224D01*
X001650Y001235D01*
X001604Y001249D01*
X001559Y001267D01*
X001516Y001289D01*
X001475Y001314D01*
X001437Y001343D01*
X001400Y001375D01*
X001366Y001409D01*
X001336Y001446D01*
X001308Y001485D01*
X001283Y001527D01*
X001263Y001571D01*
X001245Y001616D01*
X001232Y001662D01*
X001222Y001709D01*
X001216Y001757D01*
X001214Y001805D01*
X001214Y023805D02*
X001216Y023853D01*
X001222Y023901D01*
X001232Y023948D01*
X001245Y023994D01*
X001263Y024039D01*
X001283Y024083D01*
X001308Y024125D01*
X001336Y024164D01*
X001366Y024201D01*
X001400Y024235D01*
X001437Y024267D01*
X001475Y024296D01*
X001516Y024321D01*
X001559Y024343D01*
X001604Y024361D01*
X001650Y024375D01*
X001697Y024386D01*
X001745Y024393D01*
X001793Y024396D01*
X001841Y024395D01*
X001889Y024390D01*
X001937Y024381D01*
X001983Y024369D01*
X002028Y024352D01*
X002072Y024332D01*
X002114Y024309D01*
X002154Y024282D01*
X002192Y024252D01*
X002227Y024219D01*
X002259Y024183D01*
X002289Y024145D01*
X002315Y024104D01*
X002337Y024061D01*
X002357Y024017D01*
X002372Y023972D01*
X002384Y023925D01*
X002392Y023877D01*
X002396Y023829D01*
X002396Y023781D01*
X002392Y023733D01*
X002384Y023685D01*
X002372Y023638D01*
X002357Y023593D01*
X002337Y023549D01*
X002315Y023506D01*
X002289Y023465D01*
X002259Y023427D01*
X002227Y023391D01*
X002192Y023358D01*
X002154Y023328D01*
X002114Y023301D01*
X002072Y023278D01*
X002028Y023258D01*
X001983Y023241D01*
X001937Y023229D01*
X001889Y023220D01*
X001841Y023215D01*
X001793Y023214D01*
X001745Y023217D01*
X001697Y023224D01*
X001650Y023235D01*
X001604Y023249D01*
X001559Y023267D01*
X001516Y023289D01*
X001475Y023314D01*
X001437Y023343D01*
X001400Y023375D01*
X001366Y023409D01*
X001336Y023446D01*
X001308Y023485D01*
X001283Y023527D01*
X001263Y023571D01*
X001245Y023616D01*
X001232Y023662D01*
X001222Y023709D01*
X001216Y023757D01*
X001214Y023805D01*
X025964Y023805D02*
X025966Y023853D01*
X025972Y023901D01*
X025982Y023948D01*
X025995Y023994D01*
X026013Y024039D01*
X026033Y024083D01*
X026058Y024125D01*
X026086Y024164D01*
X026116Y024201D01*
X026150Y024235D01*
X026187Y024267D01*
X026225Y024296D01*
X026266Y024321D01*
X026309Y024343D01*
X026354Y024361D01*
X026400Y024375D01*
X026447Y024386D01*
X026495Y024393D01*
X026543Y024396D01*
X026591Y024395D01*
X026639Y024390D01*
X026687Y024381D01*
X026733Y024369D01*
X026778Y024352D01*
X026822Y024332D01*
X026864Y024309D01*
X026904Y024282D01*
X026942Y024252D01*
X026977Y024219D01*
X027009Y024183D01*
X027039Y024145D01*
X027065Y024104D01*
X027087Y024061D01*
X027107Y024017D01*
X027122Y023972D01*
X027134Y023925D01*
X027142Y023877D01*
X027146Y023829D01*
X027146Y023781D01*
X027142Y023733D01*
X027134Y023685D01*
X027122Y023638D01*
X027107Y023593D01*
X027087Y023549D01*
X027065Y023506D01*
X027039Y023465D01*
X027009Y023427D01*
X026977Y023391D01*
X026942Y023358D01*
X026904Y023328D01*
X026864Y023301D01*
X026822Y023278D01*
X026778Y023258D01*
X026733Y023241D01*
X026687Y023229D01*
X026639Y023220D01*
X026591Y023215D01*
X026543Y023214D01*
X026495Y023217D01*
X026447Y023224D01*
X026400Y023235D01*
X026354Y023249D01*
X026309Y023267D01*
X026266Y023289D01*
X026225Y023314D01*
X026187Y023343D01*
X026150Y023375D01*
X026116Y023409D01*
X026086Y023446D01*
X026058Y023485D01*
X026033Y023527D01*
X026013Y023571D01*
X025995Y023616D01*
X025982Y023662D01*
X025972Y023709D01*
X025966Y023757D01*
X025964Y023805D01*
X025964Y001805D02*
X025966Y001853D01*
X025972Y001901D01*
X025982Y001948D01*
X025995Y001994D01*
X026013Y002039D01*
X026033Y002083D01*
X026058Y002125D01*
X026086Y002164D01*
X026116Y002201D01*
X026150Y002235D01*
X026187Y002267D01*
X026225Y002296D01*
X026266Y002321D01*
X026309Y002343D01*
X026354Y002361D01*
X026400Y002375D01*
X026447Y002386D01*
X026495Y002393D01*
X026543Y002396D01*
X026591Y002395D01*
X026639Y002390D01*
X026687Y002381D01*
X026733Y002369D01*
X026778Y002352D01*
X026822Y002332D01*
X026864Y002309D01*
X026904Y002282D01*
X026942Y002252D01*
X026977Y002219D01*
X027009Y002183D01*
X027039Y002145D01*
X027065Y002104D01*
X027087Y002061D01*
X027107Y002017D01*
X027122Y001972D01*
X027134Y001925D01*
X027142Y001877D01*
X027146Y001829D01*
X027146Y001781D01*
X027142Y001733D01*
X027134Y001685D01*
X027122Y001638D01*
X027107Y001593D01*
X027087Y001549D01*
X027065Y001506D01*
X027039Y001465D01*
X027009Y001427D01*
X026977Y001391D01*
X026942Y001358D01*
X026904Y001328D01*
X026864Y001301D01*
X026822Y001278D01*
X026778Y001258D01*
X026733Y001241D01*
X026687Y001229D01*
X026639Y001220D01*
X026591Y001215D01*
X026543Y001214D01*
X026495Y001217D01*
X026447Y001224D01*
X026400Y001235D01*
X026354Y001249D01*
X026309Y001267D01*
X026266Y001289D01*
X026225Y001314D01*
X026187Y001343D01*
X026150Y001375D01*
X026116Y001409D01*
X026086Y001446D01*
X026058Y001485D01*
X026033Y001527D01*
X026013Y001571D01*
X025995Y001616D01*
X025982Y001662D01*
X025972Y001709D01*
X025966Y001757D01*
X025964Y001805D01*
D11*
X012138Y005174D03*
X012138Y005568D03*
X012138Y005961D03*
X012138Y006355D03*
X012138Y006749D03*
X012138Y007143D03*
X012138Y007536D03*
X012138Y007930D03*
X012138Y008324D03*
X012138Y008717D03*
X012138Y009111D03*
X012138Y009505D03*
X012138Y009899D03*
X012138Y010292D03*
X012138Y010686D03*
X012138Y014924D03*
X012138Y015318D03*
X012138Y015711D03*
X012138Y016105D03*
X012138Y016499D03*
X012138Y016893D03*
X012138Y017286D03*
X012138Y017680D03*
X012138Y018074D03*
X012138Y018467D03*
X012138Y018861D03*
X012138Y019255D03*
X012138Y019649D03*
X012138Y020042D03*
X012138Y020436D03*
X004972Y020436D03*
X004972Y020042D03*
X004972Y019649D03*
X004972Y019255D03*
X004972Y018861D03*
X004972Y018467D03*
X004972Y018074D03*
X004972Y017680D03*
X004972Y017286D03*
X004972Y016893D03*
X004972Y016499D03*
X004972Y016105D03*
X004972Y015711D03*
X004972Y015318D03*
X004972Y014924D03*
X004972Y010686D03*
X004972Y010292D03*
X004972Y009899D03*
X004972Y009505D03*
X004972Y009111D03*
X004972Y008717D03*
X004972Y008324D03*
X004972Y007930D03*
X004972Y007536D03*
X004972Y007143D03*
X004972Y006749D03*
X004972Y006355D03*
X004972Y005961D03*
X004972Y005568D03*
X004972Y005174D03*
D12*
X009756Y007930D03*
X009756Y017680D03*
D13*
X007354Y016040D03*
X007354Y019320D03*
X007354Y009570D03*
X007354Y006290D03*
D14*
X025065Y018395D03*
X025065Y019295D03*
X025065Y020195D03*
D15*
X027545Y019305D03*
D16*
X026705Y021055D03*
X025905Y021055D03*
X025905Y017555D03*
X026705Y017555D03*
D17*
X013730Y017680D03*
X013130Y017680D03*
X013130Y017055D03*
X013730Y017055D03*
X013730Y016430D03*
X013130Y016430D03*
X013130Y018305D03*
X013730Y018305D03*
X013730Y018930D03*
X013130Y018930D03*
X013130Y009180D03*
X013730Y009180D03*
X013730Y008555D03*
X013130Y008555D03*
X013130Y007930D03*
X013730Y007930D03*
X013730Y007305D03*
X013130Y007305D03*
X013130Y006680D03*
X013730Y006680D03*
M02*
