G75*
%MOIN*%
%OFA0B0*%
%FSLAX25Y25*%
%IPPOS*%
%LPD*%
%AMOC8*
5,1,8,0,0,1.08239X$1,22.5*
%
%ADD10C,0.00000*%
%ADD11C,0.00800*%
D10*
X0020494Y0005500D02*
X0020494Y0399201D01*
X0650415Y0399201D01*
X0650415Y0005500D01*
X0020494Y0005500D01*
X0035213Y0054250D02*
X0035215Y0054403D01*
X0035221Y0054557D01*
X0035231Y0054710D01*
X0035245Y0054862D01*
X0035263Y0055015D01*
X0035285Y0055166D01*
X0035310Y0055317D01*
X0035340Y0055468D01*
X0035374Y0055618D01*
X0035411Y0055766D01*
X0035452Y0055914D01*
X0035497Y0056060D01*
X0035546Y0056206D01*
X0035599Y0056350D01*
X0035655Y0056492D01*
X0035715Y0056633D01*
X0035779Y0056773D01*
X0035846Y0056911D01*
X0035917Y0057047D01*
X0035992Y0057181D01*
X0036069Y0057313D01*
X0036151Y0057443D01*
X0036235Y0057571D01*
X0036323Y0057697D01*
X0036414Y0057820D01*
X0036508Y0057941D01*
X0036606Y0058059D01*
X0036706Y0058175D01*
X0036810Y0058288D01*
X0036916Y0058399D01*
X0037025Y0058507D01*
X0037137Y0058612D01*
X0037251Y0058713D01*
X0037369Y0058812D01*
X0037488Y0058908D01*
X0037610Y0059001D01*
X0037735Y0059090D01*
X0037862Y0059177D01*
X0037991Y0059259D01*
X0038122Y0059339D01*
X0038255Y0059415D01*
X0038390Y0059488D01*
X0038527Y0059557D01*
X0038666Y0059622D01*
X0038806Y0059684D01*
X0038948Y0059742D01*
X0039091Y0059797D01*
X0039236Y0059848D01*
X0039382Y0059895D01*
X0039529Y0059938D01*
X0039677Y0059977D01*
X0039826Y0060013D01*
X0039976Y0060044D01*
X0040127Y0060072D01*
X0040278Y0060096D01*
X0040431Y0060116D01*
X0040583Y0060132D01*
X0040736Y0060144D01*
X0040889Y0060152D01*
X0041042Y0060156D01*
X0041196Y0060156D01*
X0041349Y0060152D01*
X0041502Y0060144D01*
X0041655Y0060132D01*
X0041807Y0060116D01*
X0041960Y0060096D01*
X0042111Y0060072D01*
X0042262Y0060044D01*
X0042412Y0060013D01*
X0042561Y0059977D01*
X0042709Y0059938D01*
X0042856Y0059895D01*
X0043002Y0059848D01*
X0043147Y0059797D01*
X0043290Y0059742D01*
X0043432Y0059684D01*
X0043572Y0059622D01*
X0043711Y0059557D01*
X0043848Y0059488D01*
X0043983Y0059415D01*
X0044116Y0059339D01*
X0044247Y0059259D01*
X0044376Y0059177D01*
X0044503Y0059090D01*
X0044628Y0059001D01*
X0044750Y0058908D01*
X0044869Y0058812D01*
X0044987Y0058713D01*
X0045101Y0058612D01*
X0045213Y0058507D01*
X0045322Y0058399D01*
X0045428Y0058288D01*
X0045532Y0058175D01*
X0045632Y0058059D01*
X0045730Y0057941D01*
X0045824Y0057820D01*
X0045915Y0057697D01*
X0046003Y0057571D01*
X0046087Y0057443D01*
X0046169Y0057313D01*
X0046246Y0057181D01*
X0046321Y0057047D01*
X0046392Y0056911D01*
X0046459Y0056773D01*
X0046523Y0056633D01*
X0046583Y0056492D01*
X0046639Y0056350D01*
X0046692Y0056206D01*
X0046741Y0056060D01*
X0046786Y0055914D01*
X0046827Y0055766D01*
X0046864Y0055618D01*
X0046898Y0055468D01*
X0046928Y0055317D01*
X0046953Y0055166D01*
X0046975Y0055015D01*
X0046993Y0054862D01*
X0047007Y0054710D01*
X0047017Y0054557D01*
X0047023Y0054403D01*
X0047025Y0054250D01*
X0047023Y0054097D01*
X0047017Y0053943D01*
X0047007Y0053790D01*
X0046993Y0053638D01*
X0046975Y0053485D01*
X0046953Y0053334D01*
X0046928Y0053183D01*
X0046898Y0053032D01*
X0046864Y0052882D01*
X0046827Y0052734D01*
X0046786Y0052586D01*
X0046741Y0052440D01*
X0046692Y0052294D01*
X0046639Y0052150D01*
X0046583Y0052008D01*
X0046523Y0051867D01*
X0046459Y0051727D01*
X0046392Y0051589D01*
X0046321Y0051453D01*
X0046246Y0051319D01*
X0046169Y0051187D01*
X0046087Y0051057D01*
X0046003Y0050929D01*
X0045915Y0050803D01*
X0045824Y0050680D01*
X0045730Y0050559D01*
X0045632Y0050441D01*
X0045532Y0050325D01*
X0045428Y0050212D01*
X0045322Y0050101D01*
X0045213Y0049993D01*
X0045101Y0049888D01*
X0044987Y0049787D01*
X0044869Y0049688D01*
X0044750Y0049592D01*
X0044628Y0049499D01*
X0044503Y0049410D01*
X0044376Y0049323D01*
X0044247Y0049241D01*
X0044116Y0049161D01*
X0043983Y0049085D01*
X0043848Y0049012D01*
X0043711Y0048943D01*
X0043572Y0048878D01*
X0043432Y0048816D01*
X0043290Y0048758D01*
X0043147Y0048703D01*
X0043002Y0048652D01*
X0042856Y0048605D01*
X0042709Y0048562D01*
X0042561Y0048523D01*
X0042412Y0048487D01*
X0042262Y0048456D01*
X0042111Y0048428D01*
X0041960Y0048404D01*
X0041807Y0048384D01*
X0041655Y0048368D01*
X0041502Y0048356D01*
X0041349Y0048348D01*
X0041196Y0048344D01*
X0041042Y0048344D01*
X0040889Y0048348D01*
X0040736Y0048356D01*
X0040583Y0048368D01*
X0040431Y0048384D01*
X0040278Y0048404D01*
X0040127Y0048428D01*
X0039976Y0048456D01*
X0039826Y0048487D01*
X0039677Y0048523D01*
X0039529Y0048562D01*
X0039382Y0048605D01*
X0039236Y0048652D01*
X0039091Y0048703D01*
X0038948Y0048758D01*
X0038806Y0048816D01*
X0038666Y0048878D01*
X0038527Y0048943D01*
X0038390Y0049012D01*
X0038255Y0049085D01*
X0038122Y0049161D01*
X0037991Y0049241D01*
X0037862Y0049323D01*
X0037735Y0049410D01*
X0037610Y0049499D01*
X0037488Y0049592D01*
X0037369Y0049688D01*
X0037251Y0049787D01*
X0037137Y0049888D01*
X0037025Y0049993D01*
X0036916Y0050101D01*
X0036810Y0050212D01*
X0036706Y0050325D01*
X0036606Y0050441D01*
X0036508Y0050559D01*
X0036414Y0050680D01*
X0036323Y0050803D01*
X0036235Y0050929D01*
X0036151Y0051057D01*
X0036069Y0051187D01*
X0035992Y0051319D01*
X0035917Y0051453D01*
X0035846Y0051589D01*
X0035779Y0051727D01*
X0035715Y0051867D01*
X0035655Y0052008D01*
X0035599Y0052150D01*
X0035546Y0052294D01*
X0035497Y0052440D01*
X0035452Y0052586D01*
X0035411Y0052734D01*
X0035374Y0052882D01*
X0035340Y0053032D01*
X0035310Y0053183D01*
X0035285Y0053334D01*
X0035263Y0053485D01*
X0035245Y0053638D01*
X0035231Y0053790D01*
X0035221Y0053943D01*
X0035215Y0054097D01*
X0035213Y0054250D01*
X0153063Y0012567D02*
X0153065Y0012636D01*
X0153071Y0012704D01*
X0153081Y0012772D01*
X0153095Y0012839D01*
X0153113Y0012906D01*
X0153134Y0012971D01*
X0153160Y0013035D01*
X0153189Y0013097D01*
X0153221Y0013157D01*
X0153257Y0013216D01*
X0153297Y0013272D01*
X0153339Y0013326D01*
X0153385Y0013377D01*
X0153434Y0013426D01*
X0153485Y0013472D01*
X0153539Y0013514D01*
X0153595Y0013554D01*
X0153653Y0013590D01*
X0153714Y0013622D01*
X0153776Y0013651D01*
X0153840Y0013677D01*
X0153905Y0013698D01*
X0153972Y0013716D01*
X0154039Y0013730D01*
X0154107Y0013740D01*
X0154175Y0013746D01*
X0154244Y0013748D01*
X0154313Y0013746D01*
X0154381Y0013740D01*
X0154449Y0013730D01*
X0154516Y0013716D01*
X0154583Y0013698D01*
X0154648Y0013677D01*
X0154712Y0013651D01*
X0154774Y0013622D01*
X0154834Y0013590D01*
X0154893Y0013554D01*
X0154949Y0013514D01*
X0155003Y0013472D01*
X0155054Y0013426D01*
X0155103Y0013377D01*
X0155149Y0013326D01*
X0155191Y0013272D01*
X0155231Y0013216D01*
X0155267Y0013157D01*
X0155299Y0013097D01*
X0155328Y0013035D01*
X0155354Y0012971D01*
X0155375Y0012906D01*
X0155393Y0012839D01*
X0155407Y0012772D01*
X0155417Y0012704D01*
X0155423Y0012636D01*
X0155425Y0012567D01*
X0155423Y0012498D01*
X0155417Y0012430D01*
X0155407Y0012362D01*
X0155393Y0012295D01*
X0155375Y0012228D01*
X0155354Y0012163D01*
X0155328Y0012099D01*
X0155299Y0012037D01*
X0155267Y0011976D01*
X0155231Y0011918D01*
X0155191Y0011862D01*
X0155149Y0011808D01*
X0155103Y0011757D01*
X0155054Y0011708D01*
X0155003Y0011662D01*
X0154949Y0011620D01*
X0154893Y0011580D01*
X0154835Y0011544D01*
X0154774Y0011512D01*
X0154712Y0011483D01*
X0154648Y0011457D01*
X0154583Y0011436D01*
X0154516Y0011418D01*
X0154449Y0011404D01*
X0154381Y0011394D01*
X0154313Y0011388D01*
X0154244Y0011386D01*
X0154175Y0011388D01*
X0154107Y0011394D01*
X0154039Y0011404D01*
X0153972Y0011418D01*
X0153905Y0011436D01*
X0153840Y0011457D01*
X0153776Y0011483D01*
X0153714Y0011512D01*
X0153653Y0011544D01*
X0153595Y0011580D01*
X0153539Y0011620D01*
X0153485Y0011662D01*
X0153434Y0011708D01*
X0153385Y0011757D01*
X0153339Y0011808D01*
X0153297Y0011862D01*
X0153257Y0011918D01*
X0153221Y0011976D01*
X0153189Y0012037D01*
X0153160Y0012099D01*
X0153134Y0012163D01*
X0153113Y0012228D01*
X0153095Y0012295D01*
X0153081Y0012362D01*
X0153071Y0012430D01*
X0153065Y0012498D01*
X0153063Y0012567D01*
X0416060Y0195726D02*
X0416062Y0195866D01*
X0416068Y0196006D01*
X0416078Y0196145D01*
X0416092Y0196284D01*
X0416110Y0196423D01*
X0416131Y0196561D01*
X0416157Y0196699D01*
X0416187Y0196836D01*
X0416220Y0196971D01*
X0416258Y0197106D01*
X0416299Y0197240D01*
X0416344Y0197373D01*
X0416392Y0197504D01*
X0416445Y0197633D01*
X0416501Y0197762D01*
X0416560Y0197888D01*
X0416624Y0198013D01*
X0416690Y0198136D01*
X0416761Y0198257D01*
X0416834Y0198376D01*
X0416911Y0198493D01*
X0416992Y0198607D01*
X0417075Y0198719D01*
X0417162Y0198829D01*
X0417252Y0198937D01*
X0417344Y0199041D01*
X0417440Y0199143D01*
X0417539Y0199243D01*
X0417640Y0199339D01*
X0417744Y0199433D01*
X0417851Y0199523D01*
X0417960Y0199610D01*
X0418072Y0199695D01*
X0418186Y0199776D01*
X0418302Y0199854D01*
X0418420Y0199928D01*
X0418541Y0199999D01*
X0418663Y0200067D01*
X0418788Y0200131D01*
X0418914Y0200192D01*
X0419041Y0200249D01*
X0419171Y0200302D01*
X0419302Y0200352D01*
X0419434Y0200397D01*
X0419567Y0200440D01*
X0419702Y0200478D01*
X0419837Y0200512D01*
X0419974Y0200543D01*
X0420111Y0200570D01*
X0420249Y0200592D01*
X0420388Y0200611D01*
X0420527Y0200626D01*
X0420666Y0200637D01*
X0420806Y0200644D01*
X0420946Y0200647D01*
X0421086Y0200646D01*
X0421226Y0200641D01*
X0421365Y0200632D01*
X0421505Y0200619D01*
X0421644Y0200602D01*
X0421782Y0200581D01*
X0421920Y0200557D01*
X0422057Y0200528D01*
X0422193Y0200496D01*
X0422328Y0200459D01*
X0422462Y0200419D01*
X0422595Y0200375D01*
X0422726Y0200327D01*
X0422856Y0200276D01*
X0422985Y0200221D01*
X0423112Y0200162D01*
X0423237Y0200099D01*
X0423360Y0200034D01*
X0423482Y0199964D01*
X0423601Y0199891D01*
X0423719Y0199815D01*
X0423834Y0199736D01*
X0423947Y0199653D01*
X0424057Y0199567D01*
X0424165Y0199478D01*
X0424270Y0199386D01*
X0424373Y0199291D01*
X0424473Y0199193D01*
X0424570Y0199093D01*
X0424664Y0198989D01*
X0424756Y0198883D01*
X0424844Y0198775D01*
X0424929Y0198664D01*
X0425011Y0198550D01*
X0425090Y0198434D01*
X0425165Y0198317D01*
X0425237Y0198197D01*
X0425305Y0198075D01*
X0425370Y0197951D01*
X0425432Y0197825D01*
X0425490Y0197698D01*
X0425544Y0197569D01*
X0425595Y0197438D01*
X0425641Y0197306D01*
X0425684Y0197173D01*
X0425724Y0197039D01*
X0425759Y0196904D01*
X0425791Y0196767D01*
X0425818Y0196630D01*
X0425842Y0196492D01*
X0425862Y0196354D01*
X0425878Y0196215D01*
X0425890Y0196075D01*
X0425898Y0195936D01*
X0425902Y0195796D01*
X0425902Y0195656D01*
X0425898Y0195516D01*
X0425890Y0195377D01*
X0425878Y0195237D01*
X0425862Y0195098D01*
X0425842Y0194960D01*
X0425818Y0194822D01*
X0425791Y0194685D01*
X0425759Y0194548D01*
X0425724Y0194413D01*
X0425684Y0194279D01*
X0425641Y0194146D01*
X0425595Y0194014D01*
X0425544Y0193883D01*
X0425490Y0193754D01*
X0425432Y0193627D01*
X0425370Y0193501D01*
X0425305Y0193377D01*
X0425237Y0193255D01*
X0425165Y0193135D01*
X0425090Y0193018D01*
X0425011Y0192902D01*
X0424929Y0192788D01*
X0424844Y0192677D01*
X0424756Y0192569D01*
X0424664Y0192463D01*
X0424570Y0192359D01*
X0424473Y0192259D01*
X0424373Y0192161D01*
X0424270Y0192066D01*
X0424165Y0191974D01*
X0424057Y0191885D01*
X0423947Y0191799D01*
X0423834Y0191716D01*
X0423719Y0191637D01*
X0423601Y0191561D01*
X0423482Y0191488D01*
X0423360Y0191418D01*
X0423237Y0191353D01*
X0423112Y0191290D01*
X0422985Y0191231D01*
X0422856Y0191176D01*
X0422726Y0191125D01*
X0422595Y0191077D01*
X0422462Y0191033D01*
X0422328Y0190993D01*
X0422193Y0190956D01*
X0422057Y0190924D01*
X0421920Y0190895D01*
X0421782Y0190871D01*
X0421644Y0190850D01*
X0421505Y0190833D01*
X0421365Y0190820D01*
X0421226Y0190811D01*
X0421086Y0190806D01*
X0420946Y0190805D01*
X0420806Y0190808D01*
X0420666Y0190815D01*
X0420527Y0190826D01*
X0420388Y0190841D01*
X0420249Y0190860D01*
X0420111Y0190882D01*
X0419974Y0190909D01*
X0419837Y0190940D01*
X0419702Y0190974D01*
X0419567Y0191012D01*
X0419434Y0191055D01*
X0419302Y0191100D01*
X0419171Y0191150D01*
X0419041Y0191203D01*
X0418914Y0191260D01*
X0418788Y0191321D01*
X0418663Y0191385D01*
X0418541Y0191453D01*
X0418420Y0191524D01*
X0418302Y0191598D01*
X0418186Y0191676D01*
X0418072Y0191757D01*
X0417960Y0191842D01*
X0417851Y0191929D01*
X0417744Y0192019D01*
X0417640Y0192113D01*
X0417539Y0192209D01*
X0417440Y0192309D01*
X0417344Y0192411D01*
X0417252Y0192515D01*
X0417162Y0192623D01*
X0417075Y0192733D01*
X0416992Y0192845D01*
X0416911Y0192959D01*
X0416834Y0193076D01*
X0416761Y0193195D01*
X0416690Y0193316D01*
X0416624Y0193439D01*
X0416560Y0193564D01*
X0416501Y0193690D01*
X0416445Y0193819D01*
X0416392Y0193948D01*
X0416344Y0194079D01*
X0416299Y0194212D01*
X0416258Y0194346D01*
X0416220Y0194481D01*
X0416187Y0194616D01*
X0416157Y0194753D01*
X0416131Y0194891D01*
X0416110Y0195029D01*
X0416092Y0195168D01*
X0416078Y0195307D01*
X0416068Y0195446D01*
X0416062Y0195586D01*
X0416060Y0195726D01*
X0416060Y0317774D02*
X0416062Y0317914D01*
X0416068Y0318054D01*
X0416078Y0318193D01*
X0416092Y0318332D01*
X0416110Y0318471D01*
X0416131Y0318609D01*
X0416157Y0318747D01*
X0416187Y0318884D01*
X0416220Y0319019D01*
X0416258Y0319154D01*
X0416299Y0319288D01*
X0416344Y0319421D01*
X0416392Y0319552D01*
X0416445Y0319681D01*
X0416501Y0319810D01*
X0416560Y0319936D01*
X0416624Y0320061D01*
X0416690Y0320184D01*
X0416761Y0320305D01*
X0416834Y0320424D01*
X0416911Y0320541D01*
X0416992Y0320655D01*
X0417075Y0320767D01*
X0417162Y0320877D01*
X0417252Y0320985D01*
X0417344Y0321089D01*
X0417440Y0321191D01*
X0417539Y0321291D01*
X0417640Y0321387D01*
X0417744Y0321481D01*
X0417851Y0321571D01*
X0417960Y0321658D01*
X0418072Y0321743D01*
X0418186Y0321824D01*
X0418302Y0321902D01*
X0418420Y0321976D01*
X0418541Y0322047D01*
X0418663Y0322115D01*
X0418788Y0322179D01*
X0418914Y0322240D01*
X0419041Y0322297D01*
X0419171Y0322350D01*
X0419302Y0322400D01*
X0419434Y0322445D01*
X0419567Y0322488D01*
X0419702Y0322526D01*
X0419837Y0322560D01*
X0419974Y0322591D01*
X0420111Y0322618D01*
X0420249Y0322640D01*
X0420388Y0322659D01*
X0420527Y0322674D01*
X0420666Y0322685D01*
X0420806Y0322692D01*
X0420946Y0322695D01*
X0421086Y0322694D01*
X0421226Y0322689D01*
X0421365Y0322680D01*
X0421505Y0322667D01*
X0421644Y0322650D01*
X0421782Y0322629D01*
X0421920Y0322605D01*
X0422057Y0322576D01*
X0422193Y0322544D01*
X0422328Y0322507D01*
X0422462Y0322467D01*
X0422595Y0322423D01*
X0422726Y0322375D01*
X0422856Y0322324D01*
X0422985Y0322269D01*
X0423112Y0322210D01*
X0423237Y0322147D01*
X0423360Y0322082D01*
X0423482Y0322012D01*
X0423601Y0321939D01*
X0423719Y0321863D01*
X0423834Y0321784D01*
X0423947Y0321701D01*
X0424057Y0321615D01*
X0424165Y0321526D01*
X0424270Y0321434D01*
X0424373Y0321339D01*
X0424473Y0321241D01*
X0424570Y0321141D01*
X0424664Y0321037D01*
X0424756Y0320931D01*
X0424844Y0320823D01*
X0424929Y0320712D01*
X0425011Y0320598D01*
X0425090Y0320482D01*
X0425165Y0320365D01*
X0425237Y0320245D01*
X0425305Y0320123D01*
X0425370Y0319999D01*
X0425432Y0319873D01*
X0425490Y0319746D01*
X0425544Y0319617D01*
X0425595Y0319486D01*
X0425641Y0319354D01*
X0425684Y0319221D01*
X0425724Y0319087D01*
X0425759Y0318952D01*
X0425791Y0318815D01*
X0425818Y0318678D01*
X0425842Y0318540D01*
X0425862Y0318402D01*
X0425878Y0318263D01*
X0425890Y0318123D01*
X0425898Y0317984D01*
X0425902Y0317844D01*
X0425902Y0317704D01*
X0425898Y0317564D01*
X0425890Y0317425D01*
X0425878Y0317285D01*
X0425862Y0317146D01*
X0425842Y0317008D01*
X0425818Y0316870D01*
X0425791Y0316733D01*
X0425759Y0316596D01*
X0425724Y0316461D01*
X0425684Y0316327D01*
X0425641Y0316194D01*
X0425595Y0316062D01*
X0425544Y0315931D01*
X0425490Y0315802D01*
X0425432Y0315675D01*
X0425370Y0315549D01*
X0425305Y0315425D01*
X0425237Y0315303D01*
X0425165Y0315183D01*
X0425090Y0315066D01*
X0425011Y0314950D01*
X0424929Y0314836D01*
X0424844Y0314725D01*
X0424756Y0314617D01*
X0424664Y0314511D01*
X0424570Y0314407D01*
X0424473Y0314307D01*
X0424373Y0314209D01*
X0424270Y0314114D01*
X0424165Y0314022D01*
X0424057Y0313933D01*
X0423947Y0313847D01*
X0423834Y0313764D01*
X0423719Y0313685D01*
X0423601Y0313609D01*
X0423482Y0313536D01*
X0423360Y0313466D01*
X0423237Y0313401D01*
X0423112Y0313338D01*
X0422985Y0313279D01*
X0422856Y0313224D01*
X0422726Y0313173D01*
X0422595Y0313125D01*
X0422462Y0313081D01*
X0422328Y0313041D01*
X0422193Y0313004D01*
X0422057Y0312972D01*
X0421920Y0312943D01*
X0421782Y0312919D01*
X0421644Y0312898D01*
X0421505Y0312881D01*
X0421365Y0312868D01*
X0421226Y0312859D01*
X0421086Y0312854D01*
X0420946Y0312853D01*
X0420806Y0312856D01*
X0420666Y0312863D01*
X0420527Y0312874D01*
X0420388Y0312889D01*
X0420249Y0312908D01*
X0420111Y0312930D01*
X0419974Y0312957D01*
X0419837Y0312988D01*
X0419702Y0313022D01*
X0419567Y0313060D01*
X0419434Y0313103D01*
X0419302Y0313148D01*
X0419171Y0313198D01*
X0419041Y0313251D01*
X0418914Y0313308D01*
X0418788Y0313369D01*
X0418663Y0313433D01*
X0418541Y0313501D01*
X0418420Y0313572D01*
X0418302Y0313646D01*
X0418186Y0313724D01*
X0418072Y0313805D01*
X0417960Y0313890D01*
X0417851Y0313977D01*
X0417744Y0314067D01*
X0417640Y0314161D01*
X0417539Y0314257D01*
X0417440Y0314357D01*
X0417344Y0314459D01*
X0417252Y0314563D01*
X0417162Y0314671D01*
X0417075Y0314781D01*
X0416992Y0314893D01*
X0416911Y0315007D01*
X0416834Y0315124D01*
X0416761Y0315243D01*
X0416690Y0315364D01*
X0416624Y0315487D01*
X0416560Y0315612D01*
X0416501Y0315738D01*
X0416445Y0315867D01*
X0416392Y0315996D01*
X0416344Y0316127D01*
X0416299Y0316260D01*
X0416258Y0316394D01*
X0416220Y0316529D01*
X0416187Y0316664D01*
X0416157Y0316801D01*
X0416131Y0316939D01*
X0416110Y0317077D01*
X0416092Y0317216D01*
X0416078Y0317355D01*
X0416068Y0317494D01*
X0416062Y0317634D01*
X0416060Y0317774D01*
X0448757Y0365815D02*
X0448759Y0365912D01*
X0448765Y0366009D01*
X0448775Y0366105D01*
X0448789Y0366201D01*
X0448807Y0366297D01*
X0448828Y0366391D01*
X0448854Y0366485D01*
X0448883Y0366577D01*
X0448917Y0366668D01*
X0448953Y0366758D01*
X0448994Y0366846D01*
X0449038Y0366932D01*
X0449086Y0367017D01*
X0449137Y0367099D01*
X0449191Y0367180D01*
X0449249Y0367258D01*
X0449310Y0367333D01*
X0449373Y0367406D01*
X0449440Y0367477D01*
X0449510Y0367544D01*
X0449582Y0367609D01*
X0449657Y0367670D01*
X0449735Y0367729D01*
X0449814Y0367784D01*
X0449896Y0367836D01*
X0449980Y0367884D01*
X0450066Y0367929D01*
X0450154Y0367971D01*
X0450243Y0368009D01*
X0450334Y0368043D01*
X0450426Y0368073D01*
X0450519Y0368100D01*
X0450614Y0368122D01*
X0450709Y0368141D01*
X0450805Y0368156D01*
X0450901Y0368167D01*
X0450998Y0368174D01*
X0451095Y0368177D01*
X0451192Y0368176D01*
X0451289Y0368171D01*
X0451385Y0368162D01*
X0451481Y0368149D01*
X0451577Y0368132D01*
X0451672Y0368111D01*
X0451765Y0368087D01*
X0451858Y0368058D01*
X0451950Y0368026D01*
X0452040Y0367990D01*
X0452128Y0367951D01*
X0452215Y0367907D01*
X0452300Y0367861D01*
X0452383Y0367810D01*
X0452464Y0367757D01*
X0452542Y0367700D01*
X0452619Y0367640D01*
X0452692Y0367577D01*
X0452763Y0367511D01*
X0452831Y0367442D01*
X0452897Y0367370D01*
X0452959Y0367296D01*
X0453018Y0367219D01*
X0453074Y0367140D01*
X0453127Y0367058D01*
X0453177Y0366975D01*
X0453222Y0366889D01*
X0453265Y0366802D01*
X0453304Y0366713D01*
X0453339Y0366623D01*
X0453370Y0366531D01*
X0453397Y0366438D01*
X0453421Y0366344D01*
X0453441Y0366249D01*
X0453457Y0366153D01*
X0453469Y0366057D01*
X0453477Y0365960D01*
X0453481Y0365863D01*
X0453481Y0365767D01*
X0453477Y0365670D01*
X0453469Y0365573D01*
X0453457Y0365477D01*
X0453441Y0365381D01*
X0453421Y0365286D01*
X0453397Y0365192D01*
X0453370Y0365099D01*
X0453339Y0365007D01*
X0453304Y0364917D01*
X0453265Y0364828D01*
X0453222Y0364741D01*
X0453177Y0364655D01*
X0453127Y0364572D01*
X0453074Y0364490D01*
X0453018Y0364411D01*
X0452959Y0364334D01*
X0452897Y0364260D01*
X0452831Y0364188D01*
X0452763Y0364119D01*
X0452692Y0364053D01*
X0452619Y0363990D01*
X0452542Y0363930D01*
X0452464Y0363873D01*
X0452383Y0363820D01*
X0452300Y0363769D01*
X0452215Y0363723D01*
X0452128Y0363679D01*
X0452040Y0363640D01*
X0451950Y0363604D01*
X0451858Y0363572D01*
X0451765Y0363543D01*
X0451672Y0363519D01*
X0451577Y0363498D01*
X0451481Y0363481D01*
X0451385Y0363468D01*
X0451289Y0363459D01*
X0451192Y0363454D01*
X0451095Y0363453D01*
X0450998Y0363456D01*
X0450901Y0363463D01*
X0450805Y0363474D01*
X0450709Y0363489D01*
X0450614Y0363508D01*
X0450519Y0363530D01*
X0450426Y0363557D01*
X0450334Y0363587D01*
X0450243Y0363621D01*
X0450154Y0363659D01*
X0450066Y0363701D01*
X0449980Y0363746D01*
X0449896Y0363794D01*
X0449814Y0363846D01*
X0449735Y0363901D01*
X0449657Y0363960D01*
X0449582Y0364021D01*
X0449510Y0364086D01*
X0449440Y0364153D01*
X0449373Y0364224D01*
X0449310Y0364297D01*
X0449249Y0364372D01*
X0449191Y0364450D01*
X0449137Y0364531D01*
X0449086Y0364613D01*
X0449038Y0364698D01*
X0448994Y0364784D01*
X0448953Y0364872D01*
X0448917Y0364962D01*
X0448883Y0365053D01*
X0448854Y0365145D01*
X0448828Y0365239D01*
X0448807Y0365333D01*
X0448789Y0365429D01*
X0448775Y0365525D01*
X0448765Y0365621D01*
X0448759Y0365718D01*
X0448757Y0365815D01*
X0429072Y0385500D02*
X0429074Y0385597D01*
X0429080Y0385694D01*
X0429090Y0385790D01*
X0429104Y0385886D01*
X0429122Y0385982D01*
X0429143Y0386076D01*
X0429169Y0386170D01*
X0429198Y0386262D01*
X0429232Y0386353D01*
X0429268Y0386443D01*
X0429309Y0386531D01*
X0429353Y0386617D01*
X0429401Y0386702D01*
X0429452Y0386784D01*
X0429506Y0386865D01*
X0429564Y0386943D01*
X0429625Y0387018D01*
X0429688Y0387091D01*
X0429755Y0387162D01*
X0429825Y0387229D01*
X0429897Y0387294D01*
X0429972Y0387355D01*
X0430050Y0387414D01*
X0430129Y0387469D01*
X0430211Y0387521D01*
X0430295Y0387569D01*
X0430381Y0387614D01*
X0430469Y0387656D01*
X0430558Y0387694D01*
X0430649Y0387728D01*
X0430741Y0387758D01*
X0430834Y0387785D01*
X0430929Y0387807D01*
X0431024Y0387826D01*
X0431120Y0387841D01*
X0431216Y0387852D01*
X0431313Y0387859D01*
X0431410Y0387862D01*
X0431507Y0387861D01*
X0431604Y0387856D01*
X0431700Y0387847D01*
X0431796Y0387834D01*
X0431892Y0387817D01*
X0431987Y0387796D01*
X0432080Y0387772D01*
X0432173Y0387743D01*
X0432265Y0387711D01*
X0432355Y0387675D01*
X0432443Y0387636D01*
X0432530Y0387592D01*
X0432615Y0387546D01*
X0432698Y0387495D01*
X0432779Y0387442D01*
X0432857Y0387385D01*
X0432934Y0387325D01*
X0433007Y0387262D01*
X0433078Y0387196D01*
X0433146Y0387127D01*
X0433212Y0387055D01*
X0433274Y0386981D01*
X0433333Y0386904D01*
X0433389Y0386825D01*
X0433442Y0386743D01*
X0433492Y0386660D01*
X0433537Y0386574D01*
X0433580Y0386487D01*
X0433619Y0386398D01*
X0433654Y0386308D01*
X0433685Y0386216D01*
X0433712Y0386123D01*
X0433736Y0386029D01*
X0433756Y0385934D01*
X0433772Y0385838D01*
X0433784Y0385742D01*
X0433792Y0385645D01*
X0433796Y0385548D01*
X0433796Y0385452D01*
X0433792Y0385355D01*
X0433784Y0385258D01*
X0433772Y0385162D01*
X0433756Y0385066D01*
X0433736Y0384971D01*
X0433712Y0384877D01*
X0433685Y0384784D01*
X0433654Y0384692D01*
X0433619Y0384602D01*
X0433580Y0384513D01*
X0433537Y0384426D01*
X0433492Y0384340D01*
X0433442Y0384257D01*
X0433389Y0384175D01*
X0433333Y0384096D01*
X0433274Y0384019D01*
X0433212Y0383945D01*
X0433146Y0383873D01*
X0433078Y0383804D01*
X0433007Y0383738D01*
X0432934Y0383675D01*
X0432857Y0383615D01*
X0432779Y0383558D01*
X0432698Y0383505D01*
X0432615Y0383454D01*
X0432530Y0383408D01*
X0432443Y0383364D01*
X0432355Y0383325D01*
X0432265Y0383289D01*
X0432173Y0383257D01*
X0432080Y0383228D01*
X0431987Y0383204D01*
X0431892Y0383183D01*
X0431796Y0383166D01*
X0431700Y0383153D01*
X0431604Y0383144D01*
X0431507Y0383139D01*
X0431410Y0383138D01*
X0431313Y0383141D01*
X0431216Y0383148D01*
X0431120Y0383159D01*
X0431024Y0383174D01*
X0430929Y0383193D01*
X0430834Y0383215D01*
X0430741Y0383242D01*
X0430649Y0383272D01*
X0430558Y0383306D01*
X0430469Y0383344D01*
X0430381Y0383386D01*
X0430295Y0383431D01*
X0430211Y0383479D01*
X0430129Y0383531D01*
X0430050Y0383586D01*
X0429972Y0383645D01*
X0429897Y0383706D01*
X0429825Y0383771D01*
X0429755Y0383838D01*
X0429688Y0383909D01*
X0429625Y0383982D01*
X0429564Y0384057D01*
X0429506Y0384135D01*
X0429452Y0384216D01*
X0429401Y0384298D01*
X0429353Y0384383D01*
X0429309Y0384469D01*
X0429268Y0384557D01*
X0429232Y0384647D01*
X0429198Y0384738D01*
X0429169Y0384830D01*
X0429143Y0384924D01*
X0429122Y0385018D01*
X0429104Y0385114D01*
X0429090Y0385210D01*
X0429080Y0385306D01*
X0429074Y0385403D01*
X0429072Y0385500D01*
X0429072Y0395343D02*
X0429074Y0395440D01*
X0429080Y0395537D01*
X0429090Y0395633D01*
X0429104Y0395729D01*
X0429122Y0395825D01*
X0429143Y0395919D01*
X0429169Y0396013D01*
X0429198Y0396105D01*
X0429232Y0396196D01*
X0429268Y0396286D01*
X0429309Y0396374D01*
X0429353Y0396460D01*
X0429401Y0396545D01*
X0429452Y0396627D01*
X0429506Y0396708D01*
X0429564Y0396786D01*
X0429625Y0396861D01*
X0429688Y0396934D01*
X0429755Y0397005D01*
X0429825Y0397072D01*
X0429897Y0397137D01*
X0429972Y0397198D01*
X0430050Y0397257D01*
X0430129Y0397312D01*
X0430211Y0397364D01*
X0430295Y0397412D01*
X0430381Y0397457D01*
X0430469Y0397499D01*
X0430558Y0397537D01*
X0430649Y0397571D01*
X0430741Y0397601D01*
X0430834Y0397628D01*
X0430929Y0397650D01*
X0431024Y0397669D01*
X0431120Y0397684D01*
X0431216Y0397695D01*
X0431313Y0397702D01*
X0431410Y0397705D01*
X0431507Y0397704D01*
X0431604Y0397699D01*
X0431700Y0397690D01*
X0431796Y0397677D01*
X0431892Y0397660D01*
X0431987Y0397639D01*
X0432080Y0397615D01*
X0432173Y0397586D01*
X0432265Y0397554D01*
X0432355Y0397518D01*
X0432443Y0397479D01*
X0432530Y0397435D01*
X0432615Y0397389D01*
X0432698Y0397338D01*
X0432779Y0397285D01*
X0432857Y0397228D01*
X0432934Y0397168D01*
X0433007Y0397105D01*
X0433078Y0397039D01*
X0433146Y0396970D01*
X0433212Y0396898D01*
X0433274Y0396824D01*
X0433333Y0396747D01*
X0433389Y0396668D01*
X0433442Y0396586D01*
X0433492Y0396503D01*
X0433537Y0396417D01*
X0433580Y0396330D01*
X0433619Y0396241D01*
X0433654Y0396151D01*
X0433685Y0396059D01*
X0433712Y0395966D01*
X0433736Y0395872D01*
X0433756Y0395777D01*
X0433772Y0395681D01*
X0433784Y0395585D01*
X0433792Y0395488D01*
X0433796Y0395391D01*
X0433796Y0395295D01*
X0433792Y0395198D01*
X0433784Y0395101D01*
X0433772Y0395005D01*
X0433756Y0394909D01*
X0433736Y0394814D01*
X0433712Y0394720D01*
X0433685Y0394627D01*
X0433654Y0394535D01*
X0433619Y0394445D01*
X0433580Y0394356D01*
X0433537Y0394269D01*
X0433492Y0394183D01*
X0433442Y0394100D01*
X0433389Y0394018D01*
X0433333Y0393939D01*
X0433274Y0393862D01*
X0433212Y0393788D01*
X0433146Y0393716D01*
X0433078Y0393647D01*
X0433007Y0393581D01*
X0432934Y0393518D01*
X0432857Y0393458D01*
X0432779Y0393401D01*
X0432698Y0393348D01*
X0432615Y0393297D01*
X0432530Y0393251D01*
X0432443Y0393207D01*
X0432355Y0393168D01*
X0432265Y0393132D01*
X0432173Y0393100D01*
X0432080Y0393071D01*
X0431987Y0393047D01*
X0431892Y0393026D01*
X0431796Y0393009D01*
X0431700Y0392996D01*
X0431604Y0392987D01*
X0431507Y0392982D01*
X0431410Y0392981D01*
X0431313Y0392984D01*
X0431216Y0392991D01*
X0431120Y0393002D01*
X0431024Y0393017D01*
X0430929Y0393036D01*
X0430834Y0393058D01*
X0430741Y0393085D01*
X0430649Y0393115D01*
X0430558Y0393149D01*
X0430469Y0393187D01*
X0430381Y0393229D01*
X0430295Y0393274D01*
X0430211Y0393322D01*
X0430129Y0393374D01*
X0430050Y0393429D01*
X0429972Y0393488D01*
X0429897Y0393549D01*
X0429825Y0393614D01*
X0429755Y0393681D01*
X0429688Y0393752D01*
X0429625Y0393825D01*
X0429564Y0393900D01*
X0429506Y0393978D01*
X0429452Y0394059D01*
X0429401Y0394141D01*
X0429353Y0394226D01*
X0429309Y0394312D01*
X0429268Y0394400D01*
X0429232Y0394490D01*
X0429198Y0394581D01*
X0429169Y0394673D01*
X0429143Y0394767D01*
X0429122Y0394861D01*
X0429104Y0394957D01*
X0429090Y0395053D01*
X0429080Y0395149D01*
X0429074Y0395246D01*
X0429072Y0395343D01*
X0468442Y0395343D02*
X0468444Y0395440D01*
X0468450Y0395537D01*
X0468460Y0395633D01*
X0468474Y0395729D01*
X0468492Y0395825D01*
X0468513Y0395919D01*
X0468539Y0396013D01*
X0468568Y0396105D01*
X0468602Y0396196D01*
X0468638Y0396286D01*
X0468679Y0396374D01*
X0468723Y0396460D01*
X0468771Y0396545D01*
X0468822Y0396627D01*
X0468876Y0396708D01*
X0468934Y0396786D01*
X0468995Y0396861D01*
X0469058Y0396934D01*
X0469125Y0397005D01*
X0469195Y0397072D01*
X0469267Y0397137D01*
X0469342Y0397198D01*
X0469420Y0397257D01*
X0469499Y0397312D01*
X0469581Y0397364D01*
X0469665Y0397412D01*
X0469751Y0397457D01*
X0469839Y0397499D01*
X0469928Y0397537D01*
X0470019Y0397571D01*
X0470111Y0397601D01*
X0470204Y0397628D01*
X0470299Y0397650D01*
X0470394Y0397669D01*
X0470490Y0397684D01*
X0470586Y0397695D01*
X0470683Y0397702D01*
X0470780Y0397705D01*
X0470877Y0397704D01*
X0470974Y0397699D01*
X0471070Y0397690D01*
X0471166Y0397677D01*
X0471262Y0397660D01*
X0471357Y0397639D01*
X0471450Y0397615D01*
X0471543Y0397586D01*
X0471635Y0397554D01*
X0471725Y0397518D01*
X0471813Y0397479D01*
X0471900Y0397435D01*
X0471985Y0397389D01*
X0472068Y0397338D01*
X0472149Y0397285D01*
X0472227Y0397228D01*
X0472304Y0397168D01*
X0472377Y0397105D01*
X0472448Y0397039D01*
X0472516Y0396970D01*
X0472582Y0396898D01*
X0472644Y0396824D01*
X0472703Y0396747D01*
X0472759Y0396668D01*
X0472812Y0396586D01*
X0472862Y0396503D01*
X0472907Y0396417D01*
X0472950Y0396330D01*
X0472989Y0396241D01*
X0473024Y0396151D01*
X0473055Y0396059D01*
X0473082Y0395966D01*
X0473106Y0395872D01*
X0473126Y0395777D01*
X0473142Y0395681D01*
X0473154Y0395585D01*
X0473162Y0395488D01*
X0473166Y0395391D01*
X0473166Y0395295D01*
X0473162Y0395198D01*
X0473154Y0395101D01*
X0473142Y0395005D01*
X0473126Y0394909D01*
X0473106Y0394814D01*
X0473082Y0394720D01*
X0473055Y0394627D01*
X0473024Y0394535D01*
X0472989Y0394445D01*
X0472950Y0394356D01*
X0472907Y0394269D01*
X0472862Y0394183D01*
X0472812Y0394100D01*
X0472759Y0394018D01*
X0472703Y0393939D01*
X0472644Y0393862D01*
X0472582Y0393788D01*
X0472516Y0393716D01*
X0472448Y0393647D01*
X0472377Y0393581D01*
X0472304Y0393518D01*
X0472227Y0393458D01*
X0472149Y0393401D01*
X0472068Y0393348D01*
X0471985Y0393297D01*
X0471900Y0393251D01*
X0471813Y0393207D01*
X0471725Y0393168D01*
X0471635Y0393132D01*
X0471543Y0393100D01*
X0471450Y0393071D01*
X0471357Y0393047D01*
X0471262Y0393026D01*
X0471166Y0393009D01*
X0471070Y0392996D01*
X0470974Y0392987D01*
X0470877Y0392982D01*
X0470780Y0392981D01*
X0470683Y0392984D01*
X0470586Y0392991D01*
X0470490Y0393002D01*
X0470394Y0393017D01*
X0470299Y0393036D01*
X0470204Y0393058D01*
X0470111Y0393085D01*
X0470019Y0393115D01*
X0469928Y0393149D01*
X0469839Y0393187D01*
X0469751Y0393229D01*
X0469665Y0393274D01*
X0469581Y0393322D01*
X0469499Y0393374D01*
X0469420Y0393429D01*
X0469342Y0393488D01*
X0469267Y0393549D01*
X0469195Y0393614D01*
X0469125Y0393681D01*
X0469058Y0393752D01*
X0468995Y0393825D01*
X0468934Y0393900D01*
X0468876Y0393978D01*
X0468822Y0394059D01*
X0468771Y0394141D01*
X0468723Y0394226D01*
X0468679Y0394312D01*
X0468638Y0394400D01*
X0468602Y0394490D01*
X0468568Y0394581D01*
X0468539Y0394673D01*
X0468513Y0394767D01*
X0468492Y0394861D01*
X0468474Y0394957D01*
X0468460Y0395053D01*
X0468450Y0395149D01*
X0468444Y0395246D01*
X0468442Y0395343D01*
X0468442Y0385500D02*
X0468444Y0385597D01*
X0468450Y0385694D01*
X0468460Y0385790D01*
X0468474Y0385886D01*
X0468492Y0385982D01*
X0468513Y0386076D01*
X0468539Y0386170D01*
X0468568Y0386262D01*
X0468602Y0386353D01*
X0468638Y0386443D01*
X0468679Y0386531D01*
X0468723Y0386617D01*
X0468771Y0386702D01*
X0468822Y0386784D01*
X0468876Y0386865D01*
X0468934Y0386943D01*
X0468995Y0387018D01*
X0469058Y0387091D01*
X0469125Y0387162D01*
X0469195Y0387229D01*
X0469267Y0387294D01*
X0469342Y0387355D01*
X0469420Y0387414D01*
X0469499Y0387469D01*
X0469581Y0387521D01*
X0469665Y0387569D01*
X0469751Y0387614D01*
X0469839Y0387656D01*
X0469928Y0387694D01*
X0470019Y0387728D01*
X0470111Y0387758D01*
X0470204Y0387785D01*
X0470299Y0387807D01*
X0470394Y0387826D01*
X0470490Y0387841D01*
X0470586Y0387852D01*
X0470683Y0387859D01*
X0470780Y0387862D01*
X0470877Y0387861D01*
X0470974Y0387856D01*
X0471070Y0387847D01*
X0471166Y0387834D01*
X0471262Y0387817D01*
X0471357Y0387796D01*
X0471450Y0387772D01*
X0471543Y0387743D01*
X0471635Y0387711D01*
X0471725Y0387675D01*
X0471813Y0387636D01*
X0471900Y0387592D01*
X0471985Y0387546D01*
X0472068Y0387495D01*
X0472149Y0387442D01*
X0472227Y0387385D01*
X0472304Y0387325D01*
X0472377Y0387262D01*
X0472448Y0387196D01*
X0472516Y0387127D01*
X0472582Y0387055D01*
X0472644Y0386981D01*
X0472703Y0386904D01*
X0472759Y0386825D01*
X0472812Y0386743D01*
X0472862Y0386660D01*
X0472907Y0386574D01*
X0472950Y0386487D01*
X0472989Y0386398D01*
X0473024Y0386308D01*
X0473055Y0386216D01*
X0473082Y0386123D01*
X0473106Y0386029D01*
X0473126Y0385934D01*
X0473142Y0385838D01*
X0473154Y0385742D01*
X0473162Y0385645D01*
X0473166Y0385548D01*
X0473166Y0385452D01*
X0473162Y0385355D01*
X0473154Y0385258D01*
X0473142Y0385162D01*
X0473126Y0385066D01*
X0473106Y0384971D01*
X0473082Y0384877D01*
X0473055Y0384784D01*
X0473024Y0384692D01*
X0472989Y0384602D01*
X0472950Y0384513D01*
X0472907Y0384426D01*
X0472862Y0384340D01*
X0472812Y0384257D01*
X0472759Y0384175D01*
X0472703Y0384096D01*
X0472644Y0384019D01*
X0472582Y0383945D01*
X0472516Y0383873D01*
X0472448Y0383804D01*
X0472377Y0383738D01*
X0472304Y0383675D01*
X0472227Y0383615D01*
X0472149Y0383558D01*
X0472068Y0383505D01*
X0471985Y0383454D01*
X0471900Y0383408D01*
X0471813Y0383364D01*
X0471725Y0383325D01*
X0471635Y0383289D01*
X0471543Y0383257D01*
X0471450Y0383228D01*
X0471357Y0383204D01*
X0471262Y0383183D01*
X0471166Y0383166D01*
X0471070Y0383153D01*
X0470974Y0383144D01*
X0470877Y0383139D01*
X0470780Y0383138D01*
X0470683Y0383141D01*
X0470586Y0383148D01*
X0470490Y0383159D01*
X0470394Y0383174D01*
X0470299Y0383193D01*
X0470204Y0383215D01*
X0470111Y0383242D01*
X0470019Y0383272D01*
X0469928Y0383306D01*
X0469839Y0383344D01*
X0469751Y0383386D01*
X0469665Y0383431D01*
X0469581Y0383479D01*
X0469499Y0383531D01*
X0469420Y0383586D01*
X0469342Y0383645D01*
X0469267Y0383706D01*
X0469195Y0383771D01*
X0469125Y0383838D01*
X0469058Y0383909D01*
X0468995Y0383982D01*
X0468934Y0384057D01*
X0468876Y0384135D01*
X0468822Y0384216D01*
X0468771Y0384298D01*
X0468723Y0384383D01*
X0468679Y0384469D01*
X0468638Y0384557D01*
X0468602Y0384647D01*
X0468568Y0384738D01*
X0468539Y0384830D01*
X0468513Y0384924D01*
X0468492Y0385018D01*
X0468474Y0385114D01*
X0468460Y0385210D01*
X0468450Y0385306D01*
X0468444Y0385403D01*
X0468442Y0385500D01*
X0480947Y0385500D02*
X0480949Y0385597D01*
X0480955Y0385694D01*
X0480965Y0385790D01*
X0480979Y0385886D01*
X0480997Y0385982D01*
X0481018Y0386076D01*
X0481044Y0386170D01*
X0481073Y0386262D01*
X0481107Y0386353D01*
X0481143Y0386443D01*
X0481184Y0386531D01*
X0481228Y0386617D01*
X0481276Y0386702D01*
X0481327Y0386784D01*
X0481381Y0386865D01*
X0481439Y0386943D01*
X0481500Y0387018D01*
X0481563Y0387091D01*
X0481630Y0387162D01*
X0481700Y0387229D01*
X0481772Y0387294D01*
X0481847Y0387355D01*
X0481925Y0387414D01*
X0482004Y0387469D01*
X0482086Y0387521D01*
X0482170Y0387569D01*
X0482256Y0387614D01*
X0482344Y0387656D01*
X0482433Y0387694D01*
X0482524Y0387728D01*
X0482616Y0387758D01*
X0482709Y0387785D01*
X0482804Y0387807D01*
X0482899Y0387826D01*
X0482995Y0387841D01*
X0483091Y0387852D01*
X0483188Y0387859D01*
X0483285Y0387862D01*
X0483382Y0387861D01*
X0483479Y0387856D01*
X0483575Y0387847D01*
X0483671Y0387834D01*
X0483767Y0387817D01*
X0483862Y0387796D01*
X0483955Y0387772D01*
X0484048Y0387743D01*
X0484140Y0387711D01*
X0484230Y0387675D01*
X0484318Y0387636D01*
X0484405Y0387592D01*
X0484490Y0387546D01*
X0484573Y0387495D01*
X0484654Y0387442D01*
X0484732Y0387385D01*
X0484809Y0387325D01*
X0484882Y0387262D01*
X0484953Y0387196D01*
X0485021Y0387127D01*
X0485087Y0387055D01*
X0485149Y0386981D01*
X0485208Y0386904D01*
X0485264Y0386825D01*
X0485317Y0386743D01*
X0485367Y0386660D01*
X0485412Y0386574D01*
X0485455Y0386487D01*
X0485494Y0386398D01*
X0485529Y0386308D01*
X0485560Y0386216D01*
X0485587Y0386123D01*
X0485611Y0386029D01*
X0485631Y0385934D01*
X0485647Y0385838D01*
X0485659Y0385742D01*
X0485667Y0385645D01*
X0485671Y0385548D01*
X0485671Y0385452D01*
X0485667Y0385355D01*
X0485659Y0385258D01*
X0485647Y0385162D01*
X0485631Y0385066D01*
X0485611Y0384971D01*
X0485587Y0384877D01*
X0485560Y0384784D01*
X0485529Y0384692D01*
X0485494Y0384602D01*
X0485455Y0384513D01*
X0485412Y0384426D01*
X0485367Y0384340D01*
X0485317Y0384257D01*
X0485264Y0384175D01*
X0485208Y0384096D01*
X0485149Y0384019D01*
X0485087Y0383945D01*
X0485021Y0383873D01*
X0484953Y0383804D01*
X0484882Y0383738D01*
X0484809Y0383675D01*
X0484732Y0383615D01*
X0484654Y0383558D01*
X0484573Y0383505D01*
X0484490Y0383454D01*
X0484405Y0383408D01*
X0484318Y0383364D01*
X0484230Y0383325D01*
X0484140Y0383289D01*
X0484048Y0383257D01*
X0483955Y0383228D01*
X0483862Y0383204D01*
X0483767Y0383183D01*
X0483671Y0383166D01*
X0483575Y0383153D01*
X0483479Y0383144D01*
X0483382Y0383139D01*
X0483285Y0383138D01*
X0483188Y0383141D01*
X0483091Y0383148D01*
X0482995Y0383159D01*
X0482899Y0383174D01*
X0482804Y0383193D01*
X0482709Y0383215D01*
X0482616Y0383242D01*
X0482524Y0383272D01*
X0482433Y0383306D01*
X0482344Y0383344D01*
X0482256Y0383386D01*
X0482170Y0383431D01*
X0482086Y0383479D01*
X0482004Y0383531D01*
X0481925Y0383586D01*
X0481847Y0383645D01*
X0481772Y0383706D01*
X0481700Y0383771D01*
X0481630Y0383838D01*
X0481563Y0383909D01*
X0481500Y0383982D01*
X0481439Y0384057D01*
X0481381Y0384135D01*
X0481327Y0384216D01*
X0481276Y0384298D01*
X0481228Y0384383D01*
X0481184Y0384469D01*
X0481143Y0384557D01*
X0481107Y0384647D01*
X0481073Y0384738D01*
X0481044Y0384830D01*
X0481018Y0384924D01*
X0480997Y0385018D01*
X0480979Y0385114D01*
X0480965Y0385210D01*
X0480955Y0385306D01*
X0480949Y0385403D01*
X0480947Y0385500D01*
X0480947Y0395343D02*
X0480949Y0395440D01*
X0480955Y0395537D01*
X0480965Y0395633D01*
X0480979Y0395729D01*
X0480997Y0395825D01*
X0481018Y0395919D01*
X0481044Y0396013D01*
X0481073Y0396105D01*
X0481107Y0396196D01*
X0481143Y0396286D01*
X0481184Y0396374D01*
X0481228Y0396460D01*
X0481276Y0396545D01*
X0481327Y0396627D01*
X0481381Y0396708D01*
X0481439Y0396786D01*
X0481500Y0396861D01*
X0481563Y0396934D01*
X0481630Y0397005D01*
X0481700Y0397072D01*
X0481772Y0397137D01*
X0481847Y0397198D01*
X0481925Y0397257D01*
X0482004Y0397312D01*
X0482086Y0397364D01*
X0482170Y0397412D01*
X0482256Y0397457D01*
X0482344Y0397499D01*
X0482433Y0397537D01*
X0482524Y0397571D01*
X0482616Y0397601D01*
X0482709Y0397628D01*
X0482804Y0397650D01*
X0482899Y0397669D01*
X0482995Y0397684D01*
X0483091Y0397695D01*
X0483188Y0397702D01*
X0483285Y0397705D01*
X0483382Y0397704D01*
X0483479Y0397699D01*
X0483575Y0397690D01*
X0483671Y0397677D01*
X0483767Y0397660D01*
X0483862Y0397639D01*
X0483955Y0397615D01*
X0484048Y0397586D01*
X0484140Y0397554D01*
X0484230Y0397518D01*
X0484318Y0397479D01*
X0484405Y0397435D01*
X0484490Y0397389D01*
X0484573Y0397338D01*
X0484654Y0397285D01*
X0484732Y0397228D01*
X0484809Y0397168D01*
X0484882Y0397105D01*
X0484953Y0397039D01*
X0485021Y0396970D01*
X0485087Y0396898D01*
X0485149Y0396824D01*
X0485208Y0396747D01*
X0485264Y0396668D01*
X0485317Y0396586D01*
X0485367Y0396503D01*
X0485412Y0396417D01*
X0485455Y0396330D01*
X0485494Y0396241D01*
X0485529Y0396151D01*
X0485560Y0396059D01*
X0485587Y0395966D01*
X0485611Y0395872D01*
X0485631Y0395777D01*
X0485647Y0395681D01*
X0485659Y0395585D01*
X0485667Y0395488D01*
X0485671Y0395391D01*
X0485671Y0395295D01*
X0485667Y0395198D01*
X0485659Y0395101D01*
X0485647Y0395005D01*
X0485631Y0394909D01*
X0485611Y0394814D01*
X0485587Y0394720D01*
X0485560Y0394627D01*
X0485529Y0394535D01*
X0485494Y0394445D01*
X0485455Y0394356D01*
X0485412Y0394269D01*
X0485367Y0394183D01*
X0485317Y0394100D01*
X0485264Y0394018D01*
X0485208Y0393939D01*
X0485149Y0393862D01*
X0485087Y0393788D01*
X0485021Y0393716D01*
X0484953Y0393647D01*
X0484882Y0393581D01*
X0484809Y0393518D01*
X0484732Y0393458D01*
X0484654Y0393401D01*
X0484573Y0393348D01*
X0484490Y0393297D01*
X0484405Y0393251D01*
X0484318Y0393207D01*
X0484230Y0393168D01*
X0484140Y0393132D01*
X0484048Y0393100D01*
X0483955Y0393071D01*
X0483862Y0393047D01*
X0483767Y0393026D01*
X0483671Y0393009D01*
X0483575Y0392996D01*
X0483479Y0392987D01*
X0483382Y0392982D01*
X0483285Y0392981D01*
X0483188Y0392984D01*
X0483091Y0392991D01*
X0482995Y0393002D01*
X0482899Y0393017D01*
X0482804Y0393036D01*
X0482709Y0393058D01*
X0482616Y0393085D01*
X0482524Y0393115D01*
X0482433Y0393149D01*
X0482344Y0393187D01*
X0482256Y0393229D01*
X0482170Y0393274D01*
X0482086Y0393322D01*
X0482004Y0393374D01*
X0481925Y0393429D01*
X0481847Y0393488D01*
X0481772Y0393549D01*
X0481700Y0393614D01*
X0481630Y0393681D01*
X0481563Y0393752D01*
X0481500Y0393825D01*
X0481439Y0393900D01*
X0481381Y0393978D01*
X0481327Y0394059D01*
X0481276Y0394141D01*
X0481228Y0394226D01*
X0481184Y0394312D01*
X0481143Y0394400D01*
X0481107Y0394490D01*
X0481073Y0394581D01*
X0481044Y0394673D01*
X0481018Y0394767D01*
X0480997Y0394861D01*
X0480979Y0394957D01*
X0480965Y0395053D01*
X0480955Y0395149D01*
X0480949Y0395246D01*
X0480947Y0395343D01*
X0520317Y0395343D02*
X0520319Y0395440D01*
X0520325Y0395537D01*
X0520335Y0395633D01*
X0520349Y0395729D01*
X0520367Y0395825D01*
X0520388Y0395919D01*
X0520414Y0396013D01*
X0520443Y0396105D01*
X0520477Y0396196D01*
X0520513Y0396286D01*
X0520554Y0396374D01*
X0520598Y0396460D01*
X0520646Y0396545D01*
X0520697Y0396627D01*
X0520751Y0396708D01*
X0520809Y0396786D01*
X0520870Y0396861D01*
X0520933Y0396934D01*
X0521000Y0397005D01*
X0521070Y0397072D01*
X0521142Y0397137D01*
X0521217Y0397198D01*
X0521295Y0397257D01*
X0521374Y0397312D01*
X0521456Y0397364D01*
X0521540Y0397412D01*
X0521626Y0397457D01*
X0521714Y0397499D01*
X0521803Y0397537D01*
X0521894Y0397571D01*
X0521986Y0397601D01*
X0522079Y0397628D01*
X0522174Y0397650D01*
X0522269Y0397669D01*
X0522365Y0397684D01*
X0522461Y0397695D01*
X0522558Y0397702D01*
X0522655Y0397705D01*
X0522752Y0397704D01*
X0522849Y0397699D01*
X0522945Y0397690D01*
X0523041Y0397677D01*
X0523137Y0397660D01*
X0523232Y0397639D01*
X0523325Y0397615D01*
X0523418Y0397586D01*
X0523510Y0397554D01*
X0523600Y0397518D01*
X0523688Y0397479D01*
X0523775Y0397435D01*
X0523860Y0397389D01*
X0523943Y0397338D01*
X0524024Y0397285D01*
X0524102Y0397228D01*
X0524179Y0397168D01*
X0524252Y0397105D01*
X0524323Y0397039D01*
X0524391Y0396970D01*
X0524457Y0396898D01*
X0524519Y0396824D01*
X0524578Y0396747D01*
X0524634Y0396668D01*
X0524687Y0396586D01*
X0524737Y0396503D01*
X0524782Y0396417D01*
X0524825Y0396330D01*
X0524864Y0396241D01*
X0524899Y0396151D01*
X0524930Y0396059D01*
X0524957Y0395966D01*
X0524981Y0395872D01*
X0525001Y0395777D01*
X0525017Y0395681D01*
X0525029Y0395585D01*
X0525037Y0395488D01*
X0525041Y0395391D01*
X0525041Y0395295D01*
X0525037Y0395198D01*
X0525029Y0395101D01*
X0525017Y0395005D01*
X0525001Y0394909D01*
X0524981Y0394814D01*
X0524957Y0394720D01*
X0524930Y0394627D01*
X0524899Y0394535D01*
X0524864Y0394445D01*
X0524825Y0394356D01*
X0524782Y0394269D01*
X0524737Y0394183D01*
X0524687Y0394100D01*
X0524634Y0394018D01*
X0524578Y0393939D01*
X0524519Y0393862D01*
X0524457Y0393788D01*
X0524391Y0393716D01*
X0524323Y0393647D01*
X0524252Y0393581D01*
X0524179Y0393518D01*
X0524102Y0393458D01*
X0524024Y0393401D01*
X0523943Y0393348D01*
X0523860Y0393297D01*
X0523775Y0393251D01*
X0523688Y0393207D01*
X0523600Y0393168D01*
X0523510Y0393132D01*
X0523418Y0393100D01*
X0523325Y0393071D01*
X0523232Y0393047D01*
X0523137Y0393026D01*
X0523041Y0393009D01*
X0522945Y0392996D01*
X0522849Y0392987D01*
X0522752Y0392982D01*
X0522655Y0392981D01*
X0522558Y0392984D01*
X0522461Y0392991D01*
X0522365Y0393002D01*
X0522269Y0393017D01*
X0522174Y0393036D01*
X0522079Y0393058D01*
X0521986Y0393085D01*
X0521894Y0393115D01*
X0521803Y0393149D01*
X0521714Y0393187D01*
X0521626Y0393229D01*
X0521540Y0393274D01*
X0521456Y0393322D01*
X0521374Y0393374D01*
X0521295Y0393429D01*
X0521217Y0393488D01*
X0521142Y0393549D01*
X0521070Y0393614D01*
X0521000Y0393681D01*
X0520933Y0393752D01*
X0520870Y0393825D01*
X0520809Y0393900D01*
X0520751Y0393978D01*
X0520697Y0394059D01*
X0520646Y0394141D01*
X0520598Y0394226D01*
X0520554Y0394312D01*
X0520513Y0394400D01*
X0520477Y0394490D01*
X0520443Y0394581D01*
X0520414Y0394673D01*
X0520388Y0394767D01*
X0520367Y0394861D01*
X0520349Y0394957D01*
X0520335Y0395053D01*
X0520325Y0395149D01*
X0520319Y0395246D01*
X0520317Y0395343D01*
X0520317Y0385500D02*
X0520319Y0385597D01*
X0520325Y0385694D01*
X0520335Y0385790D01*
X0520349Y0385886D01*
X0520367Y0385982D01*
X0520388Y0386076D01*
X0520414Y0386170D01*
X0520443Y0386262D01*
X0520477Y0386353D01*
X0520513Y0386443D01*
X0520554Y0386531D01*
X0520598Y0386617D01*
X0520646Y0386702D01*
X0520697Y0386784D01*
X0520751Y0386865D01*
X0520809Y0386943D01*
X0520870Y0387018D01*
X0520933Y0387091D01*
X0521000Y0387162D01*
X0521070Y0387229D01*
X0521142Y0387294D01*
X0521217Y0387355D01*
X0521295Y0387414D01*
X0521374Y0387469D01*
X0521456Y0387521D01*
X0521540Y0387569D01*
X0521626Y0387614D01*
X0521714Y0387656D01*
X0521803Y0387694D01*
X0521894Y0387728D01*
X0521986Y0387758D01*
X0522079Y0387785D01*
X0522174Y0387807D01*
X0522269Y0387826D01*
X0522365Y0387841D01*
X0522461Y0387852D01*
X0522558Y0387859D01*
X0522655Y0387862D01*
X0522752Y0387861D01*
X0522849Y0387856D01*
X0522945Y0387847D01*
X0523041Y0387834D01*
X0523137Y0387817D01*
X0523232Y0387796D01*
X0523325Y0387772D01*
X0523418Y0387743D01*
X0523510Y0387711D01*
X0523600Y0387675D01*
X0523688Y0387636D01*
X0523775Y0387592D01*
X0523860Y0387546D01*
X0523943Y0387495D01*
X0524024Y0387442D01*
X0524102Y0387385D01*
X0524179Y0387325D01*
X0524252Y0387262D01*
X0524323Y0387196D01*
X0524391Y0387127D01*
X0524457Y0387055D01*
X0524519Y0386981D01*
X0524578Y0386904D01*
X0524634Y0386825D01*
X0524687Y0386743D01*
X0524737Y0386660D01*
X0524782Y0386574D01*
X0524825Y0386487D01*
X0524864Y0386398D01*
X0524899Y0386308D01*
X0524930Y0386216D01*
X0524957Y0386123D01*
X0524981Y0386029D01*
X0525001Y0385934D01*
X0525017Y0385838D01*
X0525029Y0385742D01*
X0525037Y0385645D01*
X0525041Y0385548D01*
X0525041Y0385452D01*
X0525037Y0385355D01*
X0525029Y0385258D01*
X0525017Y0385162D01*
X0525001Y0385066D01*
X0524981Y0384971D01*
X0524957Y0384877D01*
X0524930Y0384784D01*
X0524899Y0384692D01*
X0524864Y0384602D01*
X0524825Y0384513D01*
X0524782Y0384426D01*
X0524737Y0384340D01*
X0524687Y0384257D01*
X0524634Y0384175D01*
X0524578Y0384096D01*
X0524519Y0384019D01*
X0524457Y0383945D01*
X0524391Y0383873D01*
X0524323Y0383804D01*
X0524252Y0383738D01*
X0524179Y0383675D01*
X0524102Y0383615D01*
X0524024Y0383558D01*
X0523943Y0383505D01*
X0523860Y0383454D01*
X0523775Y0383408D01*
X0523688Y0383364D01*
X0523600Y0383325D01*
X0523510Y0383289D01*
X0523418Y0383257D01*
X0523325Y0383228D01*
X0523232Y0383204D01*
X0523137Y0383183D01*
X0523041Y0383166D01*
X0522945Y0383153D01*
X0522849Y0383144D01*
X0522752Y0383139D01*
X0522655Y0383138D01*
X0522558Y0383141D01*
X0522461Y0383148D01*
X0522365Y0383159D01*
X0522269Y0383174D01*
X0522174Y0383193D01*
X0522079Y0383215D01*
X0521986Y0383242D01*
X0521894Y0383272D01*
X0521803Y0383306D01*
X0521714Y0383344D01*
X0521626Y0383386D01*
X0521540Y0383431D01*
X0521456Y0383479D01*
X0521374Y0383531D01*
X0521295Y0383586D01*
X0521217Y0383645D01*
X0521142Y0383706D01*
X0521070Y0383771D01*
X0521000Y0383838D01*
X0520933Y0383909D01*
X0520870Y0383982D01*
X0520809Y0384057D01*
X0520751Y0384135D01*
X0520697Y0384216D01*
X0520646Y0384298D01*
X0520598Y0384383D01*
X0520554Y0384469D01*
X0520513Y0384557D01*
X0520477Y0384647D01*
X0520443Y0384738D01*
X0520414Y0384830D01*
X0520388Y0384924D01*
X0520367Y0385018D01*
X0520349Y0385114D01*
X0520335Y0385210D01*
X0520325Y0385306D01*
X0520319Y0385403D01*
X0520317Y0385500D01*
X0545213Y0387375D02*
X0545215Y0387528D01*
X0545221Y0387682D01*
X0545231Y0387835D01*
X0545245Y0387987D01*
X0545263Y0388140D01*
X0545285Y0388291D01*
X0545310Y0388442D01*
X0545340Y0388593D01*
X0545374Y0388743D01*
X0545411Y0388891D01*
X0545452Y0389039D01*
X0545497Y0389185D01*
X0545546Y0389331D01*
X0545599Y0389475D01*
X0545655Y0389617D01*
X0545715Y0389758D01*
X0545779Y0389898D01*
X0545846Y0390036D01*
X0545917Y0390172D01*
X0545992Y0390306D01*
X0546069Y0390438D01*
X0546151Y0390568D01*
X0546235Y0390696D01*
X0546323Y0390822D01*
X0546414Y0390945D01*
X0546508Y0391066D01*
X0546606Y0391184D01*
X0546706Y0391300D01*
X0546810Y0391413D01*
X0546916Y0391524D01*
X0547025Y0391632D01*
X0547137Y0391737D01*
X0547251Y0391838D01*
X0547369Y0391937D01*
X0547488Y0392033D01*
X0547610Y0392126D01*
X0547735Y0392215D01*
X0547862Y0392302D01*
X0547991Y0392384D01*
X0548122Y0392464D01*
X0548255Y0392540D01*
X0548390Y0392613D01*
X0548527Y0392682D01*
X0548666Y0392747D01*
X0548806Y0392809D01*
X0548948Y0392867D01*
X0549091Y0392922D01*
X0549236Y0392973D01*
X0549382Y0393020D01*
X0549529Y0393063D01*
X0549677Y0393102D01*
X0549826Y0393138D01*
X0549976Y0393169D01*
X0550127Y0393197D01*
X0550278Y0393221D01*
X0550431Y0393241D01*
X0550583Y0393257D01*
X0550736Y0393269D01*
X0550889Y0393277D01*
X0551042Y0393281D01*
X0551196Y0393281D01*
X0551349Y0393277D01*
X0551502Y0393269D01*
X0551655Y0393257D01*
X0551807Y0393241D01*
X0551960Y0393221D01*
X0552111Y0393197D01*
X0552262Y0393169D01*
X0552412Y0393138D01*
X0552561Y0393102D01*
X0552709Y0393063D01*
X0552856Y0393020D01*
X0553002Y0392973D01*
X0553147Y0392922D01*
X0553290Y0392867D01*
X0553432Y0392809D01*
X0553572Y0392747D01*
X0553711Y0392682D01*
X0553848Y0392613D01*
X0553983Y0392540D01*
X0554116Y0392464D01*
X0554247Y0392384D01*
X0554376Y0392302D01*
X0554503Y0392215D01*
X0554628Y0392126D01*
X0554750Y0392033D01*
X0554869Y0391937D01*
X0554987Y0391838D01*
X0555101Y0391737D01*
X0555213Y0391632D01*
X0555322Y0391524D01*
X0555428Y0391413D01*
X0555532Y0391300D01*
X0555632Y0391184D01*
X0555730Y0391066D01*
X0555824Y0390945D01*
X0555915Y0390822D01*
X0556003Y0390696D01*
X0556087Y0390568D01*
X0556169Y0390438D01*
X0556246Y0390306D01*
X0556321Y0390172D01*
X0556392Y0390036D01*
X0556459Y0389898D01*
X0556523Y0389758D01*
X0556583Y0389617D01*
X0556639Y0389475D01*
X0556692Y0389331D01*
X0556741Y0389185D01*
X0556786Y0389039D01*
X0556827Y0388891D01*
X0556864Y0388743D01*
X0556898Y0388593D01*
X0556928Y0388442D01*
X0556953Y0388291D01*
X0556975Y0388140D01*
X0556993Y0387987D01*
X0557007Y0387835D01*
X0557017Y0387682D01*
X0557023Y0387528D01*
X0557025Y0387375D01*
X0557023Y0387222D01*
X0557017Y0387068D01*
X0557007Y0386915D01*
X0556993Y0386763D01*
X0556975Y0386610D01*
X0556953Y0386459D01*
X0556928Y0386308D01*
X0556898Y0386157D01*
X0556864Y0386007D01*
X0556827Y0385859D01*
X0556786Y0385711D01*
X0556741Y0385565D01*
X0556692Y0385419D01*
X0556639Y0385275D01*
X0556583Y0385133D01*
X0556523Y0384992D01*
X0556459Y0384852D01*
X0556392Y0384714D01*
X0556321Y0384578D01*
X0556246Y0384444D01*
X0556169Y0384312D01*
X0556087Y0384182D01*
X0556003Y0384054D01*
X0555915Y0383928D01*
X0555824Y0383805D01*
X0555730Y0383684D01*
X0555632Y0383566D01*
X0555532Y0383450D01*
X0555428Y0383337D01*
X0555322Y0383226D01*
X0555213Y0383118D01*
X0555101Y0383013D01*
X0554987Y0382912D01*
X0554869Y0382813D01*
X0554750Y0382717D01*
X0554628Y0382624D01*
X0554503Y0382535D01*
X0554376Y0382448D01*
X0554247Y0382366D01*
X0554116Y0382286D01*
X0553983Y0382210D01*
X0553848Y0382137D01*
X0553711Y0382068D01*
X0553572Y0382003D01*
X0553432Y0381941D01*
X0553290Y0381883D01*
X0553147Y0381828D01*
X0553002Y0381777D01*
X0552856Y0381730D01*
X0552709Y0381687D01*
X0552561Y0381648D01*
X0552412Y0381612D01*
X0552262Y0381581D01*
X0552111Y0381553D01*
X0551960Y0381529D01*
X0551807Y0381509D01*
X0551655Y0381493D01*
X0551502Y0381481D01*
X0551349Y0381473D01*
X0551196Y0381469D01*
X0551042Y0381469D01*
X0550889Y0381473D01*
X0550736Y0381481D01*
X0550583Y0381493D01*
X0550431Y0381509D01*
X0550278Y0381529D01*
X0550127Y0381553D01*
X0549976Y0381581D01*
X0549826Y0381612D01*
X0549677Y0381648D01*
X0549529Y0381687D01*
X0549382Y0381730D01*
X0549236Y0381777D01*
X0549091Y0381828D01*
X0548948Y0381883D01*
X0548806Y0381941D01*
X0548666Y0382003D01*
X0548527Y0382068D01*
X0548390Y0382137D01*
X0548255Y0382210D01*
X0548122Y0382286D01*
X0547991Y0382366D01*
X0547862Y0382448D01*
X0547735Y0382535D01*
X0547610Y0382624D01*
X0547488Y0382717D01*
X0547369Y0382813D01*
X0547251Y0382912D01*
X0547137Y0383013D01*
X0547025Y0383118D01*
X0546916Y0383226D01*
X0546810Y0383337D01*
X0546706Y0383450D01*
X0546606Y0383566D01*
X0546508Y0383684D01*
X0546414Y0383805D01*
X0546323Y0383928D01*
X0546235Y0384054D01*
X0546151Y0384182D01*
X0546069Y0384312D01*
X0545992Y0384444D01*
X0545917Y0384578D01*
X0545846Y0384714D01*
X0545779Y0384852D01*
X0545715Y0384992D01*
X0545655Y0385133D01*
X0545599Y0385275D01*
X0545546Y0385419D01*
X0545497Y0385565D01*
X0545452Y0385711D01*
X0545411Y0385859D01*
X0545374Y0386007D01*
X0545340Y0386157D01*
X0545310Y0386308D01*
X0545285Y0386459D01*
X0545263Y0386610D01*
X0545245Y0386763D01*
X0545231Y0386915D01*
X0545221Y0387068D01*
X0545215Y0387222D01*
X0545213Y0387375D01*
X0500632Y0365815D02*
X0500634Y0365912D01*
X0500640Y0366009D01*
X0500650Y0366105D01*
X0500664Y0366201D01*
X0500682Y0366297D01*
X0500703Y0366391D01*
X0500729Y0366485D01*
X0500758Y0366577D01*
X0500792Y0366668D01*
X0500828Y0366758D01*
X0500869Y0366846D01*
X0500913Y0366932D01*
X0500961Y0367017D01*
X0501012Y0367099D01*
X0501066Y0367180D01*
X0501124Y0367258D01*
X0501185Y0367333D01*
X0501248Y0367406D01*
X0501315Y0367477D01*
X0501385Y0367544D01*
X0501457Y0367609D01*
X0501532Y0367670D01*
X0501610Y0367729D01*
X0501689Y0367784D01*
X0501771Y0367836D01*
X0501855Y0367884D01*
X0501941Y0367929D01*
X0502029Y0367971D01*
X0502118Y0368009D01*
X0502209Y0368043D01*
X0502301Y0368073D01*
X0502394Y0368100D01*
X0502489Y0368122D01*
X0502584Y0368141D01*
X0502680Y0368156D01*
X0502776Y0368167D01*
X0502873Y0368174D01*
X0502970Y0368177D01*
X0503067Y0368176D01*
X0503164Y0368171D01*
X0503260Y0368162D01*
X0503356Y0368149D01*
X0503452Y0368132D01*
X0503547Y0368111D01*
X0503640Y0368087D01*
X0503733Y0368058D01*
X0503825Y0368026D01*
X0503915Y0367990D01*
X0504003Y0367951D01*
X0504090Y0367907D01*
X0504175Y0367861D01*
X0504258Y0367810D01*
X0504339Y0367757D01*
X0504417Y0367700D01*
X0504494Y0367640D01*
X0504567Y0367577D01*
X0504638Y0367511D01*
X0504706Y0367442D01*
X0504772Y0367370D01*
X0504834Y0367296D01*
X0504893Y0367219D01*
X0504949Y0367140D01*
X0505002Y0367058D01*
X0505052Y0366975D01*
X0505097Y0366889D01*
X0505140Y0366802D01*
X0505179Y0366713D01*
X0505214Y0366623D01*
X0505245Y0366531D01*
X0505272Y0366438D01*
X0505296Y0366344D01*
X0505316Y0366249D01*
X0505332Y0366153D01*
X0505344Y0366057D01*
X0505352Y0365960D01*
X0505356Y0365863D01*
X0505356Y0365767D01*
X0505352Y0365670D01*
X0505344Y0365573D01*
X0505332Y0365477D01*
X0505316Y0365381D01*
X0505296Y0365286D01*
X0505272Y0365192D01*
X0505245Y0365099D01*
X0505214Y0365007D01*
X0505179Y0364917D01*
X0505140Y0364828D01*
X0505097Y0364741D01*
X0505052Y0364655D01*
X0505002Y0364572D01*
X0504949Y0364490D01*
X0504893Y0364411D01*
X0504834Y0364334D01*
X0504772Y0364260D01*
X0504706Y0364188D01*
X0504638Y0364119D01*
X0504567Y0364053D01*
X0504494Y0363990D01*
X0504417Y0363930D01*
X0504339Y0363873D01*
X0504258Y0363820D01*
X0504175Y0363769D01*
X0504090Y0363723D01*
X0504003Y0363679D01*
X0503915Y0363640D01*
X0503825Y0363604D01*
X0503733Y0363572D01*
X0503640Y0363543D01*
X0503547Y0363519D01*
X0503452Y0363498D01*
X0503356Y0363481D01*
X0503260Y0363468D01*
X0503164Y0363459D01*
X0503067Y0363454D01*
X0502970Y0363453D01*
X0502873Y0363456D01*
X0502776Y0363463D01*
X0502680Y0363474D01*
X0502584Y0363489D01*
X0502489Y0363508D01*
X0502394Y0363530D01*
X0502301Y0363557D01*
X0502209Y0363587D01*
X0502118Y0363621D01*
X0502029Y0363659D01*
X0501941Y0363701D01*
X0501855Y0363746D01*
X0501771Y0363794D01*
X0501689Y0363846D01*
X0501610Y0363901D01*
X0501532Y0363960D01*
X0501457Y0364021D01*
X0501385Y0364086D01*
X0501315Y0364153D01*
X0501248Y0364224D01*
X0501185Y0364297D01*
X0501124Y0364372D01*
X0501066Y0364450D01*
X0501012Y0364531D01*
X0500961Y0364613D01*
X0500913Y0364698D01*
X0500869Y0364784D01*
X0500828Y0364872D01*
X0500792Y0364962D01*
X0500758Y0365053D01*
X0500729Y0365145D01*
X0500703Y0365239D01*
X0500682Y0365333D01*
X0500664Y0365429D01*
X0500650Y0365525D01*
X0500640Y0365621D01*
X0500634Y0365718D01*
X0500632Y0365815D01*
X0628338Y0383000D02*
X0628340Y0383153D01*
X0628346Y0383307D01*
X0628356Y0383460D01*
X0628370Y0383612D01*
X0628388Y0383765D01*
X0628410Y0383916D01*
X0628435Y0384067D01*
X0628465Y0384218D01*
X0628499Y0384368D01*
X0628536Y0384516D01*
X0628577Y0384664D01*
X0628622Y0384810D01*
X0628671Y0384956D01*
X0628724Y0385100D01*
X0628780Y0385242D01*
X0628840Y0385383D01*
X0628904Y0385523D01*
X0628971Y0385661D01*
X0629042Y0385797D01*
X0629117Y0385931D01*
X0629194Y0386063D01*
X0629276Y0386193D01*
X0629360Y0386321D01*
X0629448Y0386447D01*
X0629539Y0386570D01*
X0629633Y0386691D01*
X0629731Y0386809D01*
X0629831Y0386925D01*
X0629935Y0387038D01*
X0630041Y0387149D01*
X0630150Y0387257D01*
X0630262Y0387362D01*
X0630376Y0387463D01*
X0630494Y0387562D01*
X0630613Y0387658D01*
X0630735Y0387751D01*
X0630860Y0387840D01*
X0630987Y0387927D01*
X0631116Y0388009D01*
X0631247Y0388089D01*
X0631380Y0388165D01*
X0631515Y0388238D01*
X0631652Y0388307D01*
X0631791Y0388372D01*
X0631931Y0388434D01*
X0632073Y0388492D01*
X0632216Y0388547D01*
X0632361Y0388598D01*
X0632507Y0388645D01*
X0632654Y0388688D01*
X0632802Y0388727D01*
X0632951Y0388763D01*
X0633101Y0388794D01*
X0633252Y0388822D01*
X0633403Y0388846D01*
X0633556Y0388866D01*
X0633708Y0388882D01*
X0633861Y0388894D01*
X0634014Y0388902D01*
X0634167Y0388906D01*
X0634321Y0388906D01*
X0634474Y0388902D01*
X0634627Y0388894D01*
X0634780Y0388882D01*
X0634932Y0388866D01*
X0635085Y0388846D01*
X0635236Y0388822D01*
X0635387Y0388794D01*
X0635537Y0388763D01*
X0635686Y0388727D01*
X0635834Y0388688D01*
X0635981Y0388645D01*
X0636127Y0388598D01*
X0636272Y0388547D01*
X0636415Y0388492D01*
X0636557Y0388434D01*
X0636697Y0388372D01*
X0636836Y0388307D01*
X0636973Y0388238D01*
X0637108Y0388165D01*
X0637241Y0388089D01*
X0637372Y0388009D01*
X0637501Y0387927D01*
X0637628Y0387840D01*
X0637753Y0387751D01*
X0637875Y0387658D01*
X0637994Y0387562D01*
X0638112Y0387463D01*
X0638226Y0387362D01*
X0638338Y0387257D01*
X0638447Y0387149D01*
X0638553Y0387038D01*
X0638657Y0386925D01*
X0638757Y0386809D01*
X0638855Y0386691D01*
X0638949Y0386570D01*
X0639040Y0386447D01*
X0639128Y0386321D01*
X0639212Y0386193D01*
X0639294Y0386063D01*
X0639371Y0385931D01*
X0639446Y0385797D01*
X0639517Y0385661D01*
X0639584Y0385523D01*
X0639648Y0385383D01*
X0639708Y0385242D01*
X0639764Y0385100D01*
X0639817Y0384956D01*
X0639866Y0384810D01*
X0639911Y0384664D01*
X0639952Y0384516D01*
X0639989Y0384368D01*
X0640023Y0384218D01*
X0640053Y0384067D01*
X0640078Y0383916D01*
X0640100Y0383765D01*
X0640118Y0383612D01*
X0640132Y0383460D01*
X0640142Y0383307D01*
X0640148Y0383153D01*
X0640150Y0383000D01*
X0640148Y0382847D01*
X0640142Y0382693D01*
X0640132Y0382540D01*
X0640118Y0382388D01*
X0640100Y0382235D01*
X0640078Y0382084D01*
X0640053Y0381933D01*
X0640023Y0381782D01*
X0639989Y0381632D01*
X0639952Y0381484D01*
X0639911Y0381336D01*
X0639866Y0381190D01*
X0639817Y0381044D01*
X0639764Y0380900D01*
X0639708Y0380758D01*
X0639648Y0380617D01*
X0639584Y0380477D01*
X0639517Y0380339D01*
X0639446Y0380203D01*
X0639371Y0380069D01*
X0639294Y0379937D01*
X0639212Y0379807D01*
X0639128Y0379679D01*
X0639040Y0379553D01*
X0638949Y0379430D01*
X0638855Y0379309D01*
X0638757Y0379191D01*
X0638657Y0379075D01*
X0638553Y0378962D01*
X0638447Y0378851D01*
X0638338Y0378743D01*
X0638226Y0378638D01*
X0638112Y0378537D01*
X0637994Y0378438D01*
X0637875Y0378342D01*
X0637753Y0378249D01*
X0637628Y0378160D01*
X0637501Y0378073D01*
X0637372Y0377991D01*
X0637241Y0377911D01*
X0637108Y0377835D01*
X0636973Y0377762D01*
X0636836Y0377693D01*
X0636697Y0377628D01*
X0636557Y0377566D01*
X0636415Y0377508D01*
X0636272Y0377453D01*
X0636127Y0377402D01*
X0635981Y0377355D01*
X0635834Y0377312D01*
X0635686Y0377273D01*
X0635537Y0377237D01*
X0635387Y0377206D01*
X0635236Y0377178D01*
X0635085Y0377154D01*
X0634932Y0377134D01*
X0634780Y0377118D01*
X0634627Y0377106D01*
X0634474Y0377098D01*
X0634321Y0377094D01*
X0634167Y0377094D01*
X0634014Y0377098D01*
X0633861Y0377106D01*
X0633708Y0377118D01*
X0633556Y0377134D01*
X0633403Y0377154D01*
X0633252Y0377178D01*
X0633101Y0377206D01*
X0632951Y0377237D01*
X0632802Y0377273D01*
X0632654Y0377312D01*
X0632507Y0377355D01*
X0632361Y0377402D01*
X0632216Y0377453D01*
X0632073Y0377508D01*
X0631931Y0377566D01*
X0631791Y0377628D01*
X0631652Y0377693D01*
X0631515Y0377762D01*
X0631380Y0377835D01*
X0631247Y0377911D01*
X0631116Y0377991D01*
X0630987Y0378073D01*
X0630860Y0378160D01*
X0630735Y0378249D01*
X0630613Y0378342D01*
X0630494Y0378438D01*
X0630376Y0378537D01*
X0630262Y0378638D01*
X0630150Y0378743D01*
X0630041Y0378851D01*
X0629935Y0378962D01*
X0629831Y0379075D01*
X0629731Y0379191D01*
X0629633Y0379309D01*
X0629539Y0379430D01*
X0629448Y0379553D01*
X0629360Y0379679D01*
X0629276Y0379807D01*
X0629194Y0379937D01*
X0629117Y0380069D01*
X0629042Y0380203D01*
X0628971Y0380339D01*
X0628904Y0380477D01*
X0628840Y0380617D01*
X0628780Y0380758D01*
X0628724Y0380900D01*
X0628671Y0381044D01*
X0628622Y0381190D01*
X0628577Y0381336D01*
X0628536Y0381484D01*
X0628499Y0381632D01*
X0628465Y0381782D01*
X0628435Y0381933D01*
X0628410Y0382084D01*
X0628388Y0382235D01*
X0628370Y0382388D01*
X0628356Y0382540D01*
X0628346Y0382693D01*
X0628340Y0382847D01*
X0628338Y0383000D01*
X0711336Y0317774D02*
X0711338Y0317914D01*
X0711344Y0318054D01*
X0711354Y0318193D01*
X0711368Y0318332D01*
X0711386Y0318471D01*
X0711407Y0318609D01*
X0711433Y0318747D01*
X0711463Y0318884D01*
X0711496Y0319019D01*
X0711534Y0319154D01*
X0711575Y0319288D01*
X0711620Y0319421D01*
X0711668Y0319552D01*
X0711721Y0319681D01*
X0711777Y0319810D01*
X0711836Y0319936D01*
X0711900Y0320061D01*
X0711966Y0320184D01*
X0712037Y0320305D01*
X0712110Y0320424D01*
X0712187Y0320541D01*
X0712268Y0320655D01*
X0712351Y0320767D01*
X0712438Y0320877D01*
X0712528Y0320985D01*
X0712620Y0321089D01*
X0712716Y0321191D01*
X0712815Y0321291D01*
X0712916Y0321387D01*
X0713020Y0321481D01*
X0713127Y0321571D01*
X0713236Y0321658D01*
X0713348Y0321743D01*
X0713462Y0321824D01*
X0713578Y0321902D01*
X0713696Y0321976D01*
X0713817Y0322047D01*
X0713939Y0322115D01*
X0714064Y0322179D01*
X0714190Y0322240D01*
X0714317Y0322297D01*
X0714447Y0322350D01*
X0714578Y0322400D01*
X0714710Y0322445D01*
X0714843Y0322488D01*
X0714978Y0322526D01*
X0715113Y0322560D01*
X0715250Y0322591D01*
X0715387Y0322618D01*
X0715525Y0322640D01*
X0715664Y0322659D01*
X0715803Y0322674D01*
X0715942Y0322685D01*
X0716082Y0322692D01*
X0716222Y0322695D01*
X0716362Y0322694D01*
X0716502Y0322689D01*
X0716641Y0322680D01*
X0716781Y0322667D01*
X0716920Y0322650D01*
X0717058Y0322629D01*
X0717196Y0322605D01*
X0717333Y0322576D01*
X0717469Y0322544D01*
X0717604Y0322507D01*
X0717738Y0322467D01*
X0717871Y0322423D01*
X0718002Y0322375D01*
X0718132Y0322324D01*
X0718261Y0322269D01*
X0718388Y0322210D01*
X0718513Y0322147D01*
X0718636Y0322082D01*
X0718758Y0322012D01*
X0718877Y0321939D01*
X0718995Y0321863D01*
X0719110Y0321784D01*
X0719223Y0321701D01*
X0719333Y0321615D01*
X0719441Y0321526D01*
X0719546Y0321434D01*
X0719649Y0321339D01*
X0719749Y0321241D01*
X0719846Y0321141D01*
X0719940Y0321037D01*
X0720032Y0320931D01*
X0720120Y0320823D01*
X0720205Y0320712D01*
X0720287Y0320598D01*
X0720366Y0320482D01*
X0720441Y0320365D01*
X0720513Y0320245D01*
X0720581Y0320123D01*
X0720646Y0319999D01*
X0720708Y0319873D01*
X0720766Y0319746D01*
X0720820Y0319617D01*
X0720871Y0319486D01*
X0720917Y0319354D01*
X0720960Y0319221D01*
X0721000Y0319087D01*
X0721035Y0318952D01*
X0721067Y0318815D01*
X0721094Y0318678D01*
X0721118Y0318540D01*
X0721138Y0318402D01*
X0721154Y0318263D01*
X0721166Y0318123D01*
X0721174Y0317984D01*
X0721178Y0317844D01*
X0721178Y0317704D01*
X0721174Y0317564D01*
X0721166Y0317425D01*
X0721154Y0317285D01*
X0721138Y0317146D01*
X0721118Y0317008D01*
X0721094Y0316870D01*
X0721067Y0316733D01*
X0721035Y0316596D01*
X0721000Y0316461D01*
X0720960Y0316327D01*
X0720917Y0316194D01*
X0720871Y0316062D01*
X0720820Y0315931D01*
X0720766Y0315802D01*
X0720708Y0315675D01*
X0720646Y0315549D01*
X0720581Y0315425D01*
X0720513Y0315303D01*
X0720441Y0315183D01*
X0720366Y0315066D01*
X0720287Y0314950D01*
X0720205Y0314836D01*
X0720120Y0314725D01*
X0720032Y0314617D01*
X0719940Y0314511D01*
X0719846Y0314407D01*
X0719749Y0314307D01*
X0719649Y0314209D01*
X0719546Y0314114D01*
X0719441Y0314022D01*
X0719333Y0313933D01*
X0719223Y0313847D01*
X0719110Y0313764D01*
X0718995Y0313685D01*
X0718877Y0313609D01*
X0718758Y0313536D01*
X0718636Y0313466D01*
X0718513Y0313401D01*
X0718388Y0313338D01*
X0718261Y0313279D01*
X0718132Y0313224D01*
X0718002Y0313173D01*
X0717871Y0313125D01*
X0717738Y0313081D01*
X0717604Y0313041D01*
X0717469Y0313004D01*
X0717333Y0312972D01*
X0717196Y0312943D01*
X0717058Y0312919D01*
X0716920Y0312898D01*
X0716781Y0312881D01*
X0716641Y0312868D01*
X0716502Y0312859D01*
X0716362Y0312854D01*
X0716222Y0312853D01*
X0716082Y0312856D01*
X0715942Y0312863D01*
X0715803Y0312874D01*
X0715664Y0312889D01*
X0715525Y0312908D01*
X0715387Y0312930D01*
X0715250Y0312957D01*
X0715113Y0312988D01*
X0714978Y0313022D01*
X0714843Y0313060D01*
X0714710Y0313103D01*
X0714578Y0313148D01*
X0714447Y0313198D01*
X0714317Y0313251D01*
X0714190Y0313308D01*
X0714064Y0313369D01*
X0713939Y0313433D01*
X0713817Y0313501D01*
X0713696Y0313572D01*
X0713578Y0313646D01*
X0713462Y0313724D01*
X0713348Y0313805D01*
X0713236Y0313890D01*
X0713127Y0313977D01*
X0713020Y0314067D01*
X0712916Y0314161D01*
X0712815Y0314257D01*
X0712716Y0314357D01*
X0712620Y0314459D01*
X0712528Y0314563D01*
X0712438Y0314671D01*
X0712351Y0314781D01*
X0712268Y0314893D01*
X0712187Y0315007D01*
X0712110Y0315124D01*
X0712037Y0315243D01*
X0711966Y0315364D01*
X0711900Y0315487D01*
X0711836Y0315612D01*
X0711777Y0315738D01*
X0711721Y0315867D01*
X0711668Y0315996D01*
X0711620Y0316127D01*
X0711575Y0316260D01*
X0711534Y0316394D01*
X0711496Y0316529D01*
X0711463Y0316664D01*
X0711433Y0316801D01*
X0711407Y0316939D01*
X0711386Y0317077D01*
X0711368Y0317216D01*
X0711354Y0317355D01*
X0711344Y0317494D01*
X0711338Y0317634D01*
X0711336Y0317774D01*
X0711336Y0195726D02*
X0711338Y0195866D01*
X0711344Y0196006D01*
X0711354Y0196145D01*
X0711368Y0196284D01*
X0711386Y0196423D01*
X0711407Y0196561D01*
X0711433Y0196699D01*
X0711463Y0196836D01*
X0711496Y0196971D01*
X0711534Y0197106D01*
X0711575Y0197240D01*
X0711620Y0197373D01*
X0711668Y0197504D01*
X0711721Y0197633D01*
X0711777Y0197762D01*
X0711836Y0197888D01*
X0711900Y0198013D01*
X0711966Y0198136D01*
X0712037Y0198257D01*
X0712110Y0198376D01*
X0712187Y0198493D01*
X0712268Y0198607D01*
X0712351Y0198719D01*
X0712438Y0198829D01*
X0712528Y0198937D01*
X0712620Y0199041D01*
X0712716Y0199143D01*
X0712815Y0199243D01*
X0712916Y0199339D01*
X0713020Y0199433D01*
X0713127Y0199523D01*
X0713236Y0199610D01*
X0713348Y0199695D01*
X0713462Y0199776D01*
X0713578Y0199854D01*
X0713696Y0199928D01*
X0713817Y0199999D01*
X0713939Y0200067D01*
X0714064Y0200131D01*
X0714190Y0200192D01*
X0714317Y0200249D01*
X0714447Y0200302D01*
X0714578Y0200352D01*
X0714710Y0200397D01*
X0714843Y0200440D01*
X0714978Y0200478D01*
X0715113Y0200512D01*
X0715250Y0200543D01*
X0715387Y0200570D01*
X0715525Y0200592D01*
X0715664Y0200611D01*
X0715803Y0200626D01*
X0715942Y0200637D01*
X0716082Y0200644D01*
X0716222Y0200647D01*
X0716362Y0200646D01*
X0716502Y0200641D01*
X0716641Y0200632D01*
X0716781Y0200619D01*
X0716920Y0200602D01*
X0717058Y0200581D01*
X0717196Y0200557D01*
X0717333Y0200528D01*
X0717469Y0200496D01*
X0717604Y0200459D01*
X0717738Y0200419D01*
X0717871Y0200375D01*
X0718002Y0200327D01*
X0718132Y0200276D01*
X0718261Y0200221D01*
X0718388Y0200162D01*
X0718513Y0200099D01*
X0718636Y0200034D01*
X0718758Y0199964D01*
X0718877Y0199891D01*
X0718995Y0199815D01*
X0719110Y0199736D01*
X0719223Y0199653D01*
X0719333Y0199567D01*
X0719441Y0199478D01*
X0719546Y0199386D01*
X0719649Y0199291D01*
X0719749Y0199193D01*
X0719846Y0199093D01*
X0719940Y0198989D01*
X0720032Y0198883D01*
X0720120Y0198775D01*
X0720205Y0198664D01*
X0720287Y0198550D01*
X0720366Y0198434D01*
X0720441Y0198317D01*
X0720513Y0198197D01*
X0720581Y0198075D01*
X0720646Y0197951D01*
X0720708Y0197825D01*
X0720766Y0197698D01*
X0720820Y0197569D01*
X0720871Y0197438D01*
X0720917Y0197306D01*
X0720960Y0197173D01*
X0721000Y0197039D01*
X0721035Y0196904D01*
X0721067Y0196767D01*
X0721094Y0196630D01*
X0721118Y0196492D01*
X0721138Y0196354D01*
X0721154Y0196215D01*
X0721166Y0196075D01*
X0721174Y0195936D01*
X0721178Y0195796D01*
X0721178Y0195656D01*
X0721174Y0195516D01*
X0721166Y0195377D01*
X0721154Y0195237D01*
X0721138Y0195098D01*
X0721118Y0194960D01*
X0721094Y0194822D01*
X0721067Y0194685D01*
X0721035Y0194548D01*
X0721000Y0194413D01*
X0720960Y0194279D01*
X0720917Y0194146D01*
X0720871Y0194014D01*
X0720820Y0193883D01*
X0720766Y0193754D01*
X0720708Y0193627D01*
X0720646Y0193501D01*
X0720581Y0193377D01*
X0720513Y0193255D01*
X0720441Y0193135D01*
X0720366Y0193018D01*
X0720287Y0192902D01*
X0720205Y0192788D01*
X0720120Y0192677D01*
X0720032Y0192569D01*
X0719940Y0192463D01*
X0719846Y0192359D01*
X0719749Y0192259D01*
X0719649Y0192161D01*
X0719546Y0192066D01*
X0719441Y0191974D01*
X0719333Y0191885D01*
X0719223Y0191799D01*
X0719110Y0191716D01*
X0718995Y0191637D01*
X0718877Y0191561D01*
X0718758Y0191488D01*
X0718636Y0191418D01*
X0718513Y0191353D01*
X0718388Y0191290D01*
X0718261Y0191231D01*
X0718132Y0191176D01*
X0718002Y0191125D01*
X0717871Y0191077D01*
X0717738Y0191033D01*
X0717604Y0190993D01*
X0717469Y0190956D01*
X0717333Y0190924D01*
X0717196Y0190895D01*
X0717058Y0190871D01*
X0716920Y0190850D01*
X0716781Y0190833D01*
X0716641Y0190820D01*
X0716502Y0190811D01*
X0716362Y0190806D01*
X0716222Y0190805D01*
X0716082Y0190808D01*
X0715942Y0190815D01*
X0715803Y0190826D01*
X0715664Y0190841D01*
X0715525Y0190860D01*
X0715387Y0190882D01*
X0715250Y0190909D01*
X0715113Y0190940D01*
X0714978Y0190974D01*
X0714843Y0191012D01*
X0714710Y0191055D01*
X0714578Y0191100D01*
X0714447Y0191150D01*
X0714317Y0191203D01*
X0714190Y0191260D01*
X0714064Y0191321D01*
X0713939Y0191385D01*
X0713817Y0191453D01*
X0713696Y0191524D01*
X0713578Y0191598D01*
X0713462Y0191676D01*
X0713348Y0191757D01*
X0713236Y0191842D01*
X0713127Y0191929D01*
X0713020Y0192019D01*
X0712916Y0192113D01*
X0712815Y0192209D01*
X0712716Y0192309D01*
X0712620Y0192411D01*
X0712528Y0192515D01*
X0712438Y0192623D01*
X0712351Y0192733D01*
X0712268Y0192845D01*
X0712187Y0192959D01*
X0712110Y0193076D01*
X0712037Y0193195D01*
X0711966Y0193316D01*
X0711900Y0193439D01*
X0711836Y0193564D01*
X0711777Y0193690D01*
X0711721Y0193819D01*
X0711668Y0193948D01*
X0711620Y0194079D01*
X0711575Y0194212D01*
X0711534Y0194346D01*
X0711496Y0194481D01*
X0711463Y0194616D01*
X0711433Y0194753D01*
X0711407Y0194891D01*
X0711386Y0195029D01*
X0711368Y0195168D01*
X0711354Y0195307D01*
X0711344Y0195446D01*
X0711338Y0195586D01*
X0711336Y0195726D01*
X0628338Y0021750D02*
X0628340Y0021903D01*
X0628346Y0022057D01*
X0628356Y0022210D01*
X0628370Y0022362D01*
X0628388Y0022515D01*
X0628410Y0022666D01*
X0628435Y0022817D01*
X0628465Y0022968D01*
X0628499Y0023118D01*
X0628536Y0023266D01*
X0628577Y0023414D01*
X0628622Y0023560D01*
X0628671Y0023706D01*
X0628724Y0023850D01*
X0628780Y0023992D01*
X0628840Y0024133D01*
X0628904Y0024273D01*
X0628971Y0024411D01*
X0629042Y0024547D01*
X0629117Y0024681D01*
X0629194Y0024813D01*
X0629276Y0024943D01*
X0629360Y0025071D01*
X0629448Y0025197D01*
X0629539Y0025320D01*
X0629633Y0025441D01*
X0629731Y0025559D01*
X0629831Y0025675D01*
X0629935Y0025788D01*
X0630041Y0025899D01*
X0630150Y0026007D01*
X0630262Y0026112D01*
X0630376Y0026213D01*
X0630494Y0026312D01*
X0630613Y0026408D01*
X0630735Y0026501D01*
X0630860Y0026590D01*
X0630987Y0026677D01*
X0631116Y0026759D01*
X0631247Y0026839D01*
X0631380Y0026915D01*
X0631515Y0026988D01*
X0631652Y0027057D01*
X0631791Y0027122D01*
X0631931Y0027184D01*
X0632073Y0027242D01*
X0632216Y0027297D01*
X0632361Y0027348D01*
X0632507Y0027395D01*
X0632654Y0027438D01*
X0632802Y0027477D01*
X0632951Y0027513D01*
X0633101Y0027544D01*
X0633252Y0027572D01*
X0633403Y0027596D01*
X0633556Y0027616D01*
X0633708Y0027632D01*
X0633861Y0027644D01*
X0634014Y0027652D01*
X0634167Y0027656D01*
X0634321Y0027656D01*
X0634474Y0027652D01*
X0634627Y0027644D01*
X0634780Y0027632D01*
X0634932Y0027616D01*
X0635085Y0027596D01*
X0635236Y0027572D01*
X0635387Y0027544D01*
X0635537Y0027513D01*
X0635686Y0027477D01*
X0635834Y0027438D01*
X0635981Y0027395D01*
X0636127Y0027348D01*
X0636272Y0027297D01*
X0636415Y0027242D01*
X0636557Y0027184D01*
X0636697Y0027122D01*
X0636836Y0027057D01*
X0636973Y0026988D01*
X0637108Y0026915D01*
X0637241Y0026839D01*
X0637372Y0026759D01*
X0637501Y0026677D01*
X0637628Y0026590D01*
X0637753Y0026501D01*
X0637875Y0026408D01*
X0637994Y0026312D01*
X0638112Y0026213D01*
X0638226Y0026112D01*
X0638338Y0026007D01*
X0638447Y0025899D01*
X0638553Y0025788D01*
X0638657Y0025675D01*
X0638757Y0025559D01*
X0638855Y0025441D01*
X0638949Y0025320D01*
X0639040Y0025197D01*
X0639128Y0025071D01*
X0639212Y0024943D01*
X0639294Y0024813D01*
X0639371Y0024681D01*
X0639446Y0024547D01*
X0639517Y0024411D01*
X0639584Y0024273D01*
X0639648Y0024133D01*
X0639708Y0023992D01*
X0639764Y0023850D01*
X0639817Y0023706D01*
X0639866Y0023560D01*
X0639911Y0023414D01*
X0639952Y0023266D01*
X0639989Y0023118D01*
X0640023Y0022968D01*
X0640053Y0022817D01*
X0640078Y0022666D01*
X0640100Y0022515D01*
X0640118Y0022362D01*
X0640132Y0022210D01*
X0640142Y0022057D01*
X0640148Y0021903D01*
X0640150Y0021750D01*
X0640148Y0021597D01*
X0640142Y0021443D01*
X0640132Y0021290D01*
X0640118Y0021138D01*
X0640100Y0020985D01*
X0640078Y0020834D01*
X0640053Y0020683D01*
X0640023Y0020532D01*
X0639989Y0020382D01*
X0639952Y0020234D01*
X0639911Y0020086D01*
X0639866Y0019940D01*
X0639817Y0019794D01*
X0639764Y0019650D01*
X0639708Y0019508D01*
X0639648Y0019367D01*
X0639584Y0019227D01*
X0639517Y0019089D01*
X0639446Y0018953D01*
X0639371Y0018819D01*
X0639294Y0018687D01*
X0639212Y0018557D01*
X0639128Y0018429D01*
X0639040Y0018303D01*
X0638949Y0018180D01*
X0638855Y0018059D01*
X0638757Y0017941D01*
X0638657Y0017825D01*
X0638553Y0017712D01*
X0638447Y0017601D01*
X0638338Y0017493D01*
X0638226Y0017388D01*
X0638112Y0017287D01*
X0637994Y0017188D01*
X0637875Y0017092D01*
X0637753Y0016999D01*
X0637628Y0016910D01*
X0637501Y0016823D01*
X0637372Y0016741D01*
X0637241Y0016661D01*
X0637108Y0016585D01*
X0636973Y0016512D01*
X0636836Y0016443D01*
X0636697Y0016378D01*
X0636557Y0016316D01*
X0636415Y0016258D01*
X0636272Y0016203D01*
X0636127Y0016152D01*
X0635981Y0016105D01*
X0635834Y0016062D01*
X0635686Y0016023D01*
X0635537Y0015987D01*
X0635387Y0015956D01*
X0635236Y0015928D01*
X0635085Y0015904D01*
X0634932Y0015884D01*
X0634780Y0015868D01*
X0634627Y0015856D01*
X0634474Y0015848D01*
X0634321Y0015844D01*
X0634167Y0015844D01*
X0634014Y0015848D01*
X0633861Y0015856D01*
X0633708Y0015868D01*
X0633556Y0015884D01*
X0633403Y0015904D01*
X0633252Y0015928D01*
X0633101Y0015956D01*
X0632951Y0015987D01*
X0632802Y0016023D01*
X0632654Y0016062D01*
X0632507Y0016105D01*
X0632361Y0016152D01*
X0632216Y0016203D01*
X0632073Y0016258D01*
X0631931Y0016316D01*
X0631791Y0016378D01*
X0631652Y0016443D01*
X0631515Y0016512D01*
X0631380Y0016585D01*
X0631247Y0016661D01*
X0631116Y0016741D01*
X0630987Y0016823D01*
X0630860Y0016910D01*
X0630735Y0016999D01*
X0630613Y0017092D01*
X0630494Y0017188D01*
X0630376Y0017287D01*
X0630262Y0017388D01*
X0630150Y0017493D01*
X0630041Y0017601D01*
X0629935Y0017712D01*
X0629831Y0017825D01*
X0629731Y0017941D01*
X0629633Y0018059D01*
X0629539Y0018180D01*
X0629448Y0018303D01*
X0629360Y0018429D01*
X0629276Y0018557D01*
X0629194Y0018687D01*
X0629117Y0018819D01*
X0629042Y0018953D01*
X0628971Y0019089D01*
X0628904Y0019227D01*
X0628840Y0019367D01*
X0628780Y0019508D01*
X0628724Y0019650D01*
X0628671Y0019794D01*
X0628622Y0019940D01*
X0628577Y0020086D01*
X0628536Y0020234D01*
X0628499Y0020382D01*
X0628465Y0020532D01*
X0628435Y0020683D01*
X0628410Y0020834D01*
X0628388Y0020985D01*
X0628370Y0021138D01*
X0628356Y0021290D01*
X0628346Y0021443D01*
X0628340Y0021597D01*
X0628338Y0021750D01*
X0152079Y0275559D02*
X0152081Y0275652D01*
X0152087Y0275744D01*
X0152097Y0275836D01*
X0152111Y0275927D01*
X0152128Y0276018D01*
X0152150Y0276108D01*
X0152175Y0276197D01*
X0152204Y0276285D01*
X0152237Y0276371D01*
X0152274Y0276456D01*
X0152314Y0276540D01*
X0152358Y0276621D01*
X0152405Y0276701D01*
X0152455Y0276779D01*
X0152509Y0276854D01*
X0152566Y0276927D01*
X0152626Y0276997D01*
X0152689Y0277065D01*
X0152755Y0277130D01*
X0152823Y0277192D01*
X0152894Y0277252D01*
X0152968Y0277308D01*
X0153044Y0277361D01*
X0153122Y0277410D01*
X0153202Y0277457D01*
X0153284Y0277499D01*
X0153368Y0277539D01*
X0153453Y0277574D01*
X0153540Y0277606D01*
X0153628Y0277635D01*
X0153717Y0277659D01*
X0153807Y0277680D01*
X0153898Y0277696D01*
X0153990Y0277709D01*
X0154082Y0277718D01*
X0154175Y0277723D01*
X0154267Y0277724D01*
X0154360Y0277721D01*
X0154452Y0277714D01*
X0154544Y0277703D01*
X0154635Y0277688D01*
X0154726Y0277670D01*
X0154816Y0277647D01*
X0154904Y0277621D01*
X0154992Y0277591D01*
X0155078Y0277557D01*
X0155162Y0277520D01*
X0155245Y0277478D01*
X0155326Y0277434D01*
X0155406Y0277386D01*
X0155483Y0277335D01*
X0155557Y0277280D01*
X0155630Y0277222D01*
X0155700Y0277162D01*
X0155767Y0277098D01*
X0155831Y0277032D01*
X0155893Y0276962D01*
X0155951Y0276891D01*
X0156006Y0276817D01*
X0156058Y0276740D01*
X0156107Y0276661D01*
X0156153Y0276581D01*
X0156195Y0276498D01*
X0156233Y0276414D01*
X0156268Y0276328D01*
X0156299Y0276241D01*
X0156326Y0276153D01*
X0156349Y0276063D01*
X0156369Y0275973D01*
X0156385Y0275882D01*
X0156397Y0275790D01*
X0156405Y0275698D01*
X0156409Y0275605D01*
X0156409Y0275513D01*
X0156405Y0275420D01*
X0156397Y0275328D01*
X0156385Y0275236D01*
X0156369Y0275145D01*
X0156349Y0275055D01*
X0156326Y0274965D01*
X0156299Y0274877D01*
X0156268Y0274790D01*
X0156233Y0274704D01*
X0156195Y0274620D01*
X0156153Y0274537D01*
X0156107Y0274457D01*
X0156058Y0274378D01*
X0156006Y0274301D01*
X0155951Y0274227D01*
X0155893Y0274156D01*
X0155831Y0274086D01*
X0155767Y0274020D01*
X0155700Y0273956D01*
X0155630Y0273896D01*
X0155557Y0273838D01*
X0155483Y0273783D01*
X0155406Y0273732D01*
X0155327Y0273684D01*
X0155245Y0273640D01*
X0155162Y0273598D01*
X0155078Y0273561D01*
X0154992Y0273527D01*
X0154904Y0273497D01*
X0154816Y0273471D01*
X0154726Y0273448D01*
X0154635Y0273430D01*
X0154544Y0273415D01*
X0154452Y0273404D01*
X0154360Y0273397D01*
X0154267Y0273394D01*
X0154175Y0273395D01*
X0154082Y0273400D01*
X0153990Y0273409D01*
X0153898Y0273422D01*
X0153807Y0273438D01*
X0153717Y0273459D01*
X0153628Y0273483D01*
X0153540Y0273512D01*
X0153453Y0273544D01*
X0153368Y0273579D01*
X0153284Y0273619D01*
X0153202Y0273661D01*
X0153122Y0273708D01*
X0153044Y0273757D01*
X0152968Y0273810D01*
X0152894Y0273866D01*
X0152823Y0273926D01*
X0152755Y0273988D01*
X0152689Y0274053D01*
X0152626Y0274121D01*
X0152566Y0274191D01*
X0152509Y0274264D01*
X0152455Y0274339D01*
X0152405Y0274417D01*
X0152358Y0274497D01*
X0152314Y0274578D01*
X0152274Y0274662D01*
X0152237Y0274747D01*
X0152204Y0274833D01*
X0152175Y0274921D01*
X0152150Y0275010D01*
X0152128Y0275100D01*
X0152111Y0275191D01*
X0152097Y0275282D01*
X0152087Y0275374D01*
X0152081Y0275466D01*
X0152079Y0275559D01*
X0030838Y0346750D02*
X0030840Y0346903D01*
X0030846Y0347057D01*
X0030856Y0347210D01*
X0030870Y0347362D01*
X0030888Y0347515D01*
X0030910Y0347666D01*
X0030935Y0347817D01*
X0030965Y0347968D01*
X0030999Y0348118D01*
X0031036Y0348266D01*
X0031077Y0348414D01*
X0031122Y0348560D01*
X0031171Y0348706D01*
X0031224Y0348850D01*
X0031280Y0348992D01*
X0031340Y0349133D01*
X0031404Y0349273D01*
X0031471Y0349411D01*
X0031542Y0349547D01*
X0031617Y0349681D01*
X0031694Y0349813D01*
X0031776Y0349943D01*
X0031860Y0350071D01*
X0031948Y0350197D01*
X0032039Y0350320D01*
X0032133Y0350441D01*
X0032231Y0350559D01*
X0032331Y0350675D01*
X0032435Y0350788D01*
X0032541Y0350899D01*
X0032650Y0351007D01*
X0032762Y0351112D01*
X0032876Y0351213D01*
X0032994Y0351312D01*
X0033113Y0351408D01*
X0033235Y0351501D01*
X0033360Y0351590D01*
X0033487Y0351677D01*
X0033616Y0351759D01*
X0033747Y0351839D01*
X0033880Y0351915D01*
X0034015Y0351988D01*
X0034152Y0352057D01*
X0034291Y0352122D01*
X0034431Y0352184D01*
X0034573Y0352242D01*
X0034716Y0352297D01*
X0034861Y0352348D01*
X0035007Y0352395D01*
X0035154Y0352438D01*
X0035302Y0352477D01*
X0035451Y0352513D01*
X0035601Y0352544D01*
X0035752Y0352572D01*
X0035903Y0352596D01*
X0036056Y0352616D01*
X0036208Y0352632D01*
X0036361Y0352644D01*
X0036514Y0352652D01*
X0036667Y0352656D01*
X0036821Y0352656D01*
X0036974Y0352652D01*
X0037127Y0352644D01*
X0037280Y0352632D01*
X0037432Y0352616D01*
X0037585Y0352596D01*
X0037736Y0352572D01*
X0037887Y0352544D01*
X0038037Y0352513D01*
X0038186Y0352477D01*
X0038334Y0352438D01*
X0038481Y0352395D01*
X0038627Y0352348D01*
X0038772Y0352297D01*
X0038915Y0352242D01*
X0039057Y0352184D01*
X0039197Y0352122D01*
X0039336Y0352057D01*
X0039473Y0351988D01*
X0039608Y0351915D01*
X0039741Y0351839D01*
X0039872Y0351759D01*
X0040001Y0351677D01*
X0040128Y0351590D01*
X0040253Y0351501D01*
X0040375Y0351408D01*
X0040494Y0351312D01*
X0040612Y0351213D01*
X0040726Y0351112D01*
X0040838Y0351007D01*
X0040947Y0350899D01*
X0041053Y0350788D01*
X0041157Y0350675D01*
X0041257Y0350559D01*
X0041355Y0350441D01*
X0041449Y0350320D01*
X0041540Y0350197D01*
X0041628Y0350071D01*
X0041712Y0349943D01*
X0041794Y0349813D01*
X0041871Y0349681D01*
X0041946Y0349547D01*
X0042017Y0349411D01*
X0042084Y0349273D01*
X0042148Y0349133D01*
X0042208Y0348992D01*
X0042264Y0348850D01*
X0042317Y0348706D01*
X0042366Y0348560D01*
X0042411Y0348414D01*
X0042452Y0348266D01*
X0042489Y0348118D01*
X0042523Y0347968D01*
X0042553Y0347817D01*
X0042578Y0347666D01*
X0042600Y0347515D01*
X0042618Y0347362D01*
X0042632Y0347210D01*
X0042642Y0347057D01*
X0042648Y0346903D01*
X0042650Y0346750D01*
X0042648Y0346597D01*
X0042642Y0346443D01*
X0042632Y0346290D01*
X0042618Y0346138D01*
X0042600Y0345985D01*
X0042578Y0345834D01*
X0042553Y0345683D01*
X0042523Y0345532D01*
X0042489Y0345382D01*
X0042452Y0345234D01*
X0042411Y0345086D01*
X0042366Y0344940D01*
X0042317Y0344794D01*
X0042264Y0344650D01*
X0042208Y0344508D01*
X0042148Y0344367D01*
X0042084Y0344227D01*
X0042017Y0344089D01*
X0041946Y0343953D01*
X0041871Y0343819D01*
X0041794Y0343687D01*
X0041712Y0343557D01*
X0041628Y0343429D01*
X0041540Y0343303D01*
X0041449Y0343180D01*
X0041355Y0343059D01*
X0041257Y0342941D01*
X0041157Y0342825D01*
X0041053Y0342712D01*
X0040947Y0342601D01*
X0040838Y0342493D01*
X0040726Y0342388D01*
X0040612Y0342287D01*
X0040494Y0342188D01*
X0040375Y0342092D01*
X0040253Y0341999D01*
X0040128Y0341910D01*
X0040001Y0341823D01*
X0039872Y0341741D01*
X0039741Y0341661D01*
X0039608Y0341585D01*
X0039473Y0341512D01*
X0039336Y0341443D01*
X0039197Y0341378D01*
X0039057Y0341316D01*
X0038915Y0341258D01*
X0038772Y0341203D01*
X0038627Y0341152D01*
X0038481Y0341105D01*
X0038334Y0341062D01*
X0038186Y0341023D01*
X0038037Y0340987D01*
X0037887Y0340956D01*
X0037736Y0340928D01*
X0037585Y0340904D01*
X0037432Y0340884D01*
X0037280Y0340868D01*
X0037127Y0340856D01*
X0036974Y0340848D01*
X0036821Y0340844D01*
X0036667Y0340844D01*
X0036514Y0340848D01*
X0036361Y0340856D01*
X0036208Y0340868D01*
X0036056Y0340884D01*
X0035903Y0340904D01*
X0035752Y0340928D01*
X0035601Y0340956D01*
X0035451Y0340987D01*
X0035302Y0341023D01*
X0035154Y0341062D01*
X0035007Y0341105D01*
X0034861Y0341152D01*
X0034716Y0341203D01*
X0034573Y0341258D01*
X0034431Y0341316D01*
X0034291Y0341378D01*
X0034152Y0341443D01*
X0034015Y0341512D01*
X0033880Y0341585D01*
X0033747Y0341661D01*
X0033616Y0341741D01*
X0033487Y0341823D01*
X0033360Y0341910D01*
X0033235Y0341999D01*
X0033113Y0342092D01*
X0032994Y0342188D01*
X0032876Y0342287D01*
X0032762Y0342388D01*
X0032650Y0342493D01*
X0032541Y0342601D01*
X0032435Y0342712D01*
X0032331Y0342825D01*
X0032231Y0342941D01*
X0032133Y0343059D01*
X0032039Y0343180D01*
X0031948Y0343303D01*
X0031860Y0343429D01*
X0031776Y0343557D01*
X0031694Y0343687D01*
X0031617Y0343819D01*
X0031542Y0343953D01*
X0031471Y0344089D01*
X0031404Y0344227D01*
X0031340Y0344367D01*
X0031280Y0344508D01*
X0031224Y0344650D01*
X0031171Y0344794D01*
X0031122Y0344940D01*
X0031077Y0345086D01*
X0031036Y0345234D01*
X0030999Y0345382D01*
X0030965Y0345532D01*
X0030935Y0345683D01*
X0030910Y0345834D01*
X0030888Y0345985D01*
X0030870Y0346138D01*
X0030856Y0346290D01*
X0030846Y0346443D01*
X0030840Y0346597D01*
X0030838Y0346750D01*
X0164238Y0379063D02*
X0164240Y0379151D01*
X0164246Y0379239D01*
X0164256Y0379327D01*
X0164270Y0379415D01*
X0164287Y0379501D01*
X0164309Y0379587D01*
X0164334Y0379671D01*
X0164364Y0379755D01*
X0164396Y0379837D01*
X0164433Y0379917D01*
X0164473Y0379996D01*
X0164517Y0380073D01*
X0164564Y0380148D01*
X0164614Y0380220D01*
X0164668Y0380291D01*
X0164724Y0380358D01*
X0164784Y0380424D01*
X0164846Y0380486D01*
X0164912Y0380546D01*
X0164979Y0380602D01*
X0165050Y0380656D01*
X0165122Y0380706D01*
X0165197Y0380753D01*
X0165274Y0380797D01*
X0165353Y0380837D01*
X0165433Y0380874D01*
X0165515Y0380906D01*
X0165599Y0380936D01*
X0165683Y0380961D01*
X0165769Y0380983D01*
X0165855Y0381000D01*
X0165943Y0381014D01*
X0166031Y0381024D01*
X0166119Y0381030D01*
X0166207Y0381032D01*
X0166295Y0381030D01*
X0166383Y0381024D01*
X0166471Y0381014D01*
X0166559Y0381000D01*
X0166645Y0380983D01*
X0166731Y0380961D01*
X0166815Y0380936D01*
X0166899Y0380906D01*
X0166981Y0380874D01*
X0167061Y0380837D01*
X0167140Y0380797D01*
X0167217Y0380753D01*
X0167292Y0380706D01*
X0167364Y0380656D01*
X0167435Y0380602D01*
X0167502Y0380546D01*
X0167568Y0380486D01*
X0167630Y0380424D01*
X0167690Y0380358D01*
X0167746Y0380291D01*
X0167800Y0380220D01*
X0167850Y0380148D01*
X0167897Y0380073D01*
X0167941Y0379996D01*
X0167981Y0379917D01*
X0168018Y0379837D01*
X0168050Y0379755D01*
X0168080Y0379671D01*
X0168105Y0379587D01*
X0168127Y0379501D01*
X0168144Y0379415D01*
X0168158Y0379327D01*
X0168168Y0379239D01*
X0168174Y0379151D01*
X0168176Y0379063D01*
X0168174Y0378975D01*
X0168168Y0378887D01*
X0168158Y0378799D01*
X0168144Y0378711D01*
X0168127Y0378625D01*
X0168105Y0378539D01*
X0168080Y0378455D01*
X0168050Y0378371D01*
X0168018Y0378289D01*
X0167981Y0378209D01*
X0167941Y0378130D01*
X0167897Y0378053D01*
X0167850Y0377978D01*
X0167800Y0377906D01*
X0167746Y0377835D01*
X0167690Y0377768D01*
X0167630Y0377702D01*
X0167568Y0377640D01*
X0167502Y0377580D01*
X0167435Y0377524D01*
X0167364Y0377470D01*
X0167292Y0377420D01*
X0167217Y0377373D01*
X0167140Y0377329D01*
X0167061Y0377289D01*
X0166981Y0377252D01*
X0166899Y0377220D01*
X0166815Y0377190D01*
X0166731Y0377165D01*
X0166645Y0377143D01*
X0166559Y0377126D01*
X0166471Y0377112D01*
X0166383Y0377102D01*
X0166295Y0377096D01*
X0166207Y0377094D01*
X0166119Y0377096D01*
X0166031Y0377102D01*
X0165943Y0377112D01*
X0165855Y0377126D01*
X0165769Y0377143D01*
X0165683Y0377165D01*
X0165599Y0377190D01*
X0165515Y0377220D01*
X0165433Y0377252D01*
X0165353Y0377289D01*
X0165274Y0377329D01*
X0165197Y0377373D01*
X0165122Y0377420D01*
X0165050Y0377470D01*
X0164979Y0377524D01*
X0164912Y0377580D01*
X0164846Y0377640D01*
X0164784Y0377702D01*
X0164724Y0377768D01*
X0164668Y0377835D01*
X0164614Y0377906D01*
X0164564Y0377978D01*
X0164517Y0378053D01*
X0164473Y0378130D01*
X0164433Y0378209D01*
X0164396Y0378289D01*
X0164364Y0378371D01*
X0164334Y0378455D01*
X0164309Y0378539D01*
X0164287Y0378625D01*
X0164270Y0378711D01*
X0164256Y0378799D01*
X0164246Y0378887D01*
X0164240Y0378975D01*
X0164238Y0379063D01*
X0181561Y0379063D02*
X0181563Y0379151D01*
X0181569Y0379239D01*
X0181579Y0379327D01*
X0181593Y0379415D01*
X0181610Y0379501D01*
X0181632Y0379587D01*
X0181657Y0379671D01*
X0181687Y0379755D01*
X0181719Y0379837D01*
X0181756Y0379917D01*
X0181796Y0379996D01*
X0181840Y0380073D01*
X0181887Y0380148D01*
X0181937Y0380220D01*
X0181991Y0380291D01*
X0182047Y0380358D01*
X0182107Y0380424D01*
X0182169Y0380486D01*
X0182235Y0380546D01*
X0182302Y0380602D01*
X0182373Y0380656D01*
X0182445Y0380706D01*
X0182520Y0380753D01*
X0182597Y0380797D01*
X0182676Y0380837D01*
X0182756Y0380874D01*
X0182838Y0380906D01*
X0182922Y0380936D01*
X0183006Y0380961D01*
X0183092Y0380983D01*
X0183178Y0381000D01*
X0183266Y0381014D01*
X0183354Y0381024D01*
X0183442Y0381030D01*
X0183530Y0381032D01*
X0183618Y0381030D01*
X0183706Y0381024D01*
X0183794Y0381014D01*
X0183882Y0381000D01*
X0183968Y0380983D01*
X0184054Y0380961D01*
X0184138Y0380936D01*
X0184222Y0380906D01*
X0184304Y0380874D01*
X0184384Y0380837D01*
X0184463Y0380797D01*
X0184540Y0380753D01*
X0184615Y0380706D01*
X0184687Y0380656D01*
X0184758Y0380602D01*
X0184825Y0380546D01*
X0184891Y0380486D01*
X0184953Y0380424D01*
X0185013Y0380358D01*
X0185069Y0380291D01*
X0185123Y0380220D01*
X0185173Y0380148D01*
X0185220Y0380073D01*
X0185264Y0379996D01*
X0185304Y0379917D01*
X0185341Y0379837D01*
X0185373Y0379755D01*
X0185403Y0379671D01*
X0185428Y0379587D01*
X0185450Y0379501D01*
X0185467Y0379415D01*
X0185481Y0379327D01*
X0185491Y0379239D01*
X0185497Y0379151D01*
X0185499Y0379063D01*
X0185497Y0378975D01*
X0185491Y0378887D01*
X0185481Y0378799D01*
X0185467Y0378711D01*
X0185450Y0378625D01*
X0185428Y0378539D01*
X0185403Y0378455D01*
X0185373Y0378371D01*
X0185341Y0378289D01*
X0185304Y0378209D01*
X0185264Y0378130D01*
X0185220Y0378053D01*
X0185173Y0377978D01*
X0185123Y0377906D01*
X0185069Y0377835D01*
X0185013Y0377768D01*
X0184953Y0377702D01*
X0184891Y0377640D01*
X0184825Y0377580D01*
X0184758Y0377524D01*
X0184687Y0377470D01*
X0184615Y0377420D01*
X0184540Y0377373D01*
X0184463Y0377329D01*
X0184384Y0377289D01*
X0184304Y0377252D01*
X0184222Y0377220D01*
X0184138Y0377190D01*
X0184054Y0377165D01*
X0183968Y0377143D01*
X0183882Y0377126D01*
X0183794Y0377112D01*
X0183706Y0377102D01*
X0183618Y0377096D01*
X0183530Y0377094D01*
X0183442Y0377096D01*
X0183354Y0377102D01*
X0183266Y0377112D01*
X0183178Y0377126D01*
X0183092Y0377143D01*
X0183006Y0377165D01*
X0182922Y0377190D01*
X0182838Y0377220D01*
X0182756Y0377252D01*
X0182676Y0377289D01*
X0182597Y0377329D01*
X0182520Y0377373D01*
X0182445Y0377420D01*
X0182373Y0377470D01*
X0182302Y0377524D01*
X0182235Y0377580D01*
X0182169Y0377640D01*
X0182107Y0377702D01*
X0182047Y0377768D01*
X0181991Y0377835D01*
X0181937Y0377906D01*
X0181887Y0377978D01*
X0181840Y0378053D01*
X0181796Y0378130D01*
X0181756Y0378209D01*
X0181719Y0378289D01*
X0181687Y0378371D01*
X0181657Y0378455D01*
X0181632Y0378539D01*
X0181610Y0378625D01*
X0181593Y0378711D01*
X0181579Y0378799D01*
X0181569Y0378887D01*
X0181563Y0378975D01*
X0181561Y0379063D01*
D11*
X0146960Y0072803D02*
X0139086Y0072803D01*
X0139087Y0072802D02*
X0139013Y0072795D01*
X0138940Y0072784D01*
X0138868Y0072769D01*
X0138796Y0072750D01*
X0138726Y0072727D01*
X0138657Y0072701D01*
X0138589Y0072671D01*
X0138523Y0072637D01*
X0138459Y0072600D01*
X0138397Y0072559D01*
X0138338Y0072516D01*
X0138281Y0072469D01*
X0138226Y0072419D01*
X0138174Y0072366D01*
X0138125Y0072311D01*
X0138079Y0072253D01*
X0138037Y0072192D01*
X0137997Y0072130D01*
X0137961Y0072065D01*
X0137929Y0071999D01*
X0137900Y0071931D01*
X0137875Y0071861D01*
X0137853Y0071790D01*
X0137836Y0071719D01*
X0137822Y0071646D01*
X0137812Y0071573D01*
X0137806Y0071499D01*
X0137804Y0071425D01*
X0137806Y0071351D01*
X0137812Y0071277D01*
X0137822Y0071204D01*
X0137836Y0071131D01*
X0137853Y0071060D01*
X0137875Y0070989D01*
X0137900Y0070919D01*
X0137929Y0070851D01*
X0137961Y0070785D01*
X0137997Y0070720D01*
X0138037Y0070658D01*
X0138079Y0070597D01*
X0138125Y0070539D01*
X0138174Y0070484D01*
X0138226Y0070431D01*
X0138281Y0070381D01*
X0138338Y0070334D01*
X0138397Y0070291D01*
X0138459Y0070250D01*
X0138523Y0070213D01*
X0138589Y0070179D01*
X0138657Y0070149D01*
X0138726Y0070123D01*
X0138796Y0070100D01*
X0138868Y0070081D01*
X0138940Y0070066D01*
X0139013Y0070055D01*
X0139087Y0070048D01*
X0139086Y0070047D02*
X0146960Y0070047D01*
M02*
