G75*
%MOIN*%
%OFA0B0*%
%FSLAX25Y25*%
%IPPOS*%
%LPD*%
%AMOC8*
5,1,8,0,0,1.08239X$1,22.5*
%
%ADD10R,0.03740X0.04134*%
%ADD11R,0.08465X0.10039*%
%ADD12R,0.02559X0.09677*%
%ADD13R,0.10591X0.15591*%
%ADD14C,0.04528*%
%ADD15C,0.12402*%
%ADD16R,0.08465X0.01969*%
%ADD17R,0.18701X0.18307*%
%ADD18C,0.02953*%
%ADD19C,0.04921*%
%ADD20C,0.28150*%
%ADD21R,0.07991X0.07991*%
%ADD22C,0.07991*%
%ADD23C,0.06102*%
%ADD24OC8,0.06102*%
%ADD25R,0.10433X0.05315*%
%ADD26R,0.08071X0.06102*%
%ADD27R,0.06102X0.07677*%
%ADD28R,0.06496X0.03346*%
%ADD29R,0.02791X0.08391*%
%ADD30C,0.05591*%
%ADD31OC8,0.10039*%
%ADD32R,0.01791X0.04491*%
%ADD33R,0.04921X0.04528*%
%ADD34C,0.14764*%
%ADD35C,0.13189*%
%ADD36R,0.05709X0.05709*%
%ADD37R,0.05709X0.14764*%
%ADD38R,0.05315X0.05709*%
%ADD39C,0.05365*%
%ADD40C,0.07191*%
%ADD41C,0.10433*%
%ADD42R,0.04134X0.03740*%
%ADD43C,0.09191*%
%ADD44C,0.05315*%
%ADD45C,0.20591*%
%ADD46C,0.06165*%
%ADD47R,0.06181X0.06181*%
%ADD48C,0.06181*%
%ADD49C,0.04565*%
%ADD50C,0.06890*%
%ADD51C,0.07283*%
%ADD52OC8,0.07191*%
%ADD53OC8,0.07991*%
%ADD54R,0.06496X0.06496*%
%ADD55C,0.03072*%
%ADD56C,0.04843*%
%ADD57C,0.03291*%
D10*
X0369869Y0131250D03*
X0369869Y0137250D03*
X0369869Y0143750D03*
X0369869Y0149750D03*
X0376119Y0161250D03*
X0381119Y0161250D03*
X0381119Y0167250D03*
X0376119Y0167250D03*
X0167369Y0301250D03*
X0167369Y0307250D03*
X0433619Y0310000D03*
X0433619Y0316000D03*
X0634244Y0092875D03*
X0634244Y0086875D03*
X0640494Y0086875D03*
X0640494Y0092875D03*
D11*
X0192192Y0369220D03*
X0157546Y0369220D03*
D12*
X0168570Y0367000D03*
X0171719Y0367000D03*
X0174869Y0367000D03*
X0178018Y0367000D03*
X0181168Y0367000D03*
D13*
X0192192Y0390874D03*
X0157546Y0390874D03*
D14*
X0166207Y0379063D03*
X0183530Y0379063D03*
D15*
X0036744Y0346750D03*
X0041119Y0054250D03*
X0551119Y0387375D03*
X0634244Y0383000D03*
X0634244Y0021750D03*
D16*
X0170385Y0021819D03*
X0170385Y0024181D03*
X0170385Y0026543D03*
X0170385Y0028906D03*
X0170385Y0031268D03*
X0170385Y0033630D03*
X0170385Y0035992D03*
X0170385Y0038354D03*
X0170385Y0040717D03*
X0170385Y0043079D03*
X0170385Y0045441D03*
X0170385Y0047803D03*
X0170385Y0050165D03*
X0170385Y0052528D03*
X0170385Y0054890D03*
X0170385Y0057252D03*
X0170385Y0059614D03*
X0170385Y0061976D03*
X0170385Y0064339D03*
X0170385Y0080874D03*
X0170385Y0083236D03*
X0170385Y0085598D03*
X0170385Y0087961D03*
X0170385Y0090323D03*
X0170385Y0092685D03*
X0170385Y0095047D03*
X0170385Y0097409D03*
X0170385Y0099772D03*
X0170385Y0102134D03*
X0170385Y0104496D03*
X0170385Y0106858D03*
X0170385Y0109220D03*
X0170385Y0111583D03*
X0170385Y0113945D03*
X0170385Y0116307D03*
X0170385Y0118669D03*
X0170385Y0121031D03*
X0170385Y0123394D03*
X0170385Y0125756D03*
X0170385Y0128118D03*
X0170385Y0130480D03*
X0170385Y0132843D03*
X0170385Y0135205D03*
X0170385Y0137567D03*
X0170385Y0139929D03*
X0170385Y0142291D03*
X0170385Y0144654D03*
X0170385Y0147016D03*
X0170385Y0149378D03*
X0170385Y0151740D03*
X0170385Y0154102D03*
X0170385Y0156465D03*
X0170385Y0158827D03*
X0170385Y0161189D03*
X0170385Y0163551D03*
X0170385Y0165913D03*
X0170385Y0168276D03*
X0170385Y0170638D03*
X0170385Y0173000D03*
X0170385Y0175362D03*
X0170385Y0177724D03*
X0170385Y0180087D03*
X0170385Y0182449D03*
X0170385Y0184811D03*
X0170385Y0187173D03*
X0170385Y0189535D03*
X0170385Y0191898D03*
X0170385Y0194260D03*
X0170385Y0196622D03*
X0170385Y0198984D03*
X0170385Y0201346D03*
X0170385Y0203709D03*
X0170385Y0206071D03*
X0170385Y0208433D03*
X0170385Y0210795D03*
X0170385Y0213157D03*
X0170385Y0215520D03*
X0170385Y0217882D03*
X0170385Y0220244D03*
X0170385Y0222606D03*
X0170385Y0224969D03*
X0170385Y0227331D03*
X0170385Y0229693D03*
X0170385Y0232055D03*
X0170385Y0234417D03*
X0170385Y0236780D03*
X0170385Y0239142D03*
X0170385Y0241504D03*
X0170385Y0243866D03*
X0170385Y0246228D03*
X0170385Y0248591D03*
X0170385Y0250953D03*
X0170385Y0253315D03*
X0170385Y0255677D03*
X0170385Y0258039D03*
X0170385Y0260402D03*
X0170385Y0262764D03*
X0170385Y0265126D03*
X0170385Y0267488D03*
X0138102Y0266307D03*
X0138102Y0263945D03*
X0138102Y0261583D03*
X0138102Y0259220D03*
X0138102Y0256858D03*
X0138102Y0254496D03*
X0138102Y0252134D03*
X0138102Y0249772D03*
X0138102Y0247409D03*
X0138102Y0245047D03*
X0138102Y0242685D03*
X0138102Y0240323D03*
X0138102Y0237961D03*
X0138102Y0235598D03*
X0138102Y0233236D03*
X0138102Y0230874D03*
X0138102Y0228512D03*
X0138102Y0226150D03*
X0138102Y0223787D03*
X0138102Y0221425D03*
X0138102Y0219063D03*
X0138102Y0216701D03*
X0138102Y0214339D03*
X0138102Y0211976D03*
X0138102Y0209614D03*
X0138102Y0207252D03*
X0138102Y0204890D03*
X0138102Y0202528D03*
X0138102Y0200165D03*
X0138102Y0197803D03*
X0138102Y0195441D03*
X0138102Y0193079D03*
X0138102Y0190717D03*
X0138102Y0188354D03*
X0138102Y0185992D03*
X0138102Y0183630D03*
X0138102Y0181268D03*
X0138102Y0178906D03*
X0138102Y0176543D03*
X0138102Y0174181D03*
X0138102Y0171819D03*
X0138102Y0169457D03*
X0138102Y0167094D03*
X0138102Y0164732D03*
X0138102Y0162370D03*
X0138102Y0160008D03*
X0138102Y0157646D03*
X0138102Y0155283D03*
X0138102Y0152921D03*
X0138102Y0150559D03*
X0138102Y0148197D03*
X0138102Y0145835D03*
X0138102Y0143472D03*
X0138102Y0141110D03*
X0138102Y0138748D03*
X0138102Y0136386D03*
X0138102Y0134024D03*
X0138102Y0131661D03*
X0138102Y0129299D03*
X0138102Y0126937D03*
X0138102Y0124575D03*
X0138102Y0122213D03*
X0138102Y0119850D03*
X0138102Y0117488D03*
X0138102Y0115126D03*
X0138102Y0112764D03*
X0138102Y0110402D03*
X0138102Y0108039D03*
X0138102Y0105677D03*
X0138102Y0103315D03*
X0138102Y0100953D03*
X0138102Y0098591D03*
X0138102Y0096228D03*
X0138102Y0093866D03*
X0138102Y0091504D03*
X0138102Y0089142D03*
X0138102Y0086780D03*
X0138102Y0084417D03*
X0138102Y0082055D03*
X0138102Y0065520D03*
X0138102Y0063157D03*
X0138102Y0060795D03*
X0138102Y0058433D03*
X0138102Y0056071D03*
X0138102Y0053709D03*
X0138102Y0051346D03*
X0138102Y0048984D03*
X0138102Y0046622D03*
X0138102Y0044260D03*
X0138102Y0041898D03*
X0138102Y0039535D03*
X0138102Y0037173D03*
X0138102Y0034811D03*
X0138102Y0032449D03*
X0138102Y0030087D03*
X0138102Y0027724D03*
X0138102Y0025362D03*
X0138102Y0023000D03*
X0138102Y0020638D03*
X0170385Y0019457D03*
X0138102Y0268669D03*
D17*
X0107000Y0272213D03*
X0107000Y0015913D03*
D18*
X0154244Y0012567D03*
X0155095Y0338625D03*
X0152142Y0338625D03*
X0279244Y0337375D03*
X0284244Y0337375D03*
X0364244Y0377149D03*
X0364244Y0380101D03*
X0446119Y0380101D03*
X0446119Y0380101D03*
X0446119Y0377149D03*
X0497994Y0377149D03*
X0497994Y0380101D03*
D19*
X0154244Y0275559D03*
D20*
X0035494Y0024250D03*
X0035494Y0263000D03*
D21*
X0224244Y0390500D03*
X0339933Y0356784D03*
X0269244Y0318000D03*
X0448776Y0053684D03*
X0458619Y0053684D03*
X0468461Y0053684D03*
X0494401Y0053684D03*
X0504244Y0053684D03*
X0514086Y0053684D03*
X0540026Y0053684D03*
X0549869Y0053684D03*
X0559711Y0053684D03*
X0585651Y0053684D03*
X0595494Y0053684D03*
X0605336Y0053684D03*
D22*
X0383555Y0356784D03*
X0372649Y0356784D03*
X0361744Y0356784D03*
X0350838Y0356784D03*
X0345405Y0367966D03*
X0356311Y0367966D03*
X0367177Y0367966D03*
X0378082Y0367966D03*
X0274244Y0390500D03*
X0264244Y0390500D03*
X0254244Y0390500D03*
X0244244Y0390500D03*
X0234244Y0390500D03*
D23*
X0131119Y0386125D03*
D24*
X0131119Y0376125D03*
X0121119Y0376125D03*
X0111119Y0376125D03*
X0111119Y0386125D03*
X0121119Y0386125D03*
X0101119Y0386125D03*
X0091119Y0386125D03*
X0081119Y0386125D03*
X0081119Y0376125D03*
X0091119Y0376125D03*
X0101119Y0376125D03*
X0071119Y0376125D03*
X0061119Y0376125D03*
X0051119Y0376125D03*
X0051119Y0386125D03*
X0061119Y0386125D03*
X0071119Y0386125D03*
X0041119Y0386125D03*
X0041119Y0376125D03*
X0219244Y0372375D03*
X0229244Y0372375D03*
X0239244Y0372375D03*
X0249244Y0372375D03*
X0259244Y0372375D03*
X0269244Y0372375D03*
X0279244Y0372375D03*
X0279244Y0362375D03*
X0269244Y0362375D03*
X0259244Y0362375D03*
X0249244Y0362375D03*
X0239244Y0362375D03*
X0229244Y0362375D03*
X0219244Y0362375D03*
X0470494Y0179875D03*
X0480494Y0179875D03*
X0490494Y0179875D03*
X0500494Y0179875D03*
X0510494Y0179875D03*
X0520494Y0179875D03*
X0530494Y0179875D03*
X0540494Y0179875D03*
X0550494Y0179875D03*
X0560494Y0179875D03*
X0570494Y0179875D03*
X0580494Y0179875D03*
X0590494Y0179875D03*
X0600494Y0179875D03*
X0600494Y0099875D03*
X0590494Y0099875D03*
X0580494Y0099875D03*
X0570494Y0099875D03*
X0560494Y0099875D03*
X0550494Y0099875D03*
X0540494Y0099875D03*
X0530494Y0099875D03*
X0520494Y0099875D03*
X0510494Y0099875D03*
X0500494Y0099875D03*
X0490494Y0099875D03*
X0480494Y0099875D03*
X0470494Y0099875D03*
D25*
X0169367Y0328782D03*
X0169367Y0338625D03*
X0169367Y0348468D03*
X0137871Y0348468D03*
X0137871Y0338625D03*
X0137871Y0328782D03*
D26*
X0029062Y0120800D03*
X0025518Y0068832D03*
D27*
X0080636Y0090879D03*
X0080636Y0114501D03*
D28*
X0040479Y0112926D03*
X0040479Y0117257D03*
X0038904Y0108595D03*
X0040479Y0104265D03*
X0038904Y0099934D03*
X0040479Y0095603D03*
X0042054Y0091273D03*
X0040479Y0086942D03*
D29*
X0146119Y0294550D03*
X0151119Y0294550D03*
X0156119Y0294550D03*
X0161119Y0294550D03*
X0161119Y0313950D03*
X0156119Y0313950D03*
X0151119Y0313950D03*
X0146119Y0313950D03*
D30*
X0553811Y0173182D03*
X0561685Y0173182D03*
X0569559Y0173182D03*
X0577433Y0173182D03*
X0585307Y0173182D03*
X0593181Y0173182D03*
X0601055Y0173182D03*
X0608929Y0173182D03*
X0616803Y0173182D03*
X0624677Y0173182D03*
X0624677Y0086568D03*
X0616803Y0086568D03*
X0608929Y0086568D03*
X0601055Y0086568D03*
X0593181Y0086568D03*
X0585307Y0086568D03*
X0577433Y0086568D03*
X0569559Y0086568D03*
X0561685Y0086568D03*
X0553811Y0086568D03*
D31*
X0567192Y0026125D03*
X0578171Y0026125D03*
X0612817Y0026125D03*
X0532546Y0026125D03*
X0521567Y0026125D03*
X0486921Y0026125D03*
X0475942Y0026125D03*
X0441296Y0026125D03*
D32*
X0409003Y0129013D03*
X0406444Y0129013D03*
X0403884Y0129013D03*
X0401325Y0129013D03*
X0398766Y0129013D03*
X0396207Y0129013D03*
X0393648Y0129013D03*
X0391089Y0129013D03*
X0388530Y0129013D03*
X0385971Y0129013D03*
X0383412Y0129013D03*
X0380853Y0129013D03*
X0378294Y0129013D03*
X0375735Y0129013D03*
X0375735Y0151987D03*
X0378294Y0151987D03*
X0380853Y0151987D03*
X0383412Y0151987D03*
X0385971Y0151987D03*
X0388530Y0151987D03*
X0391089Y0151987D03*
X0393648Y0151987D03*
X0396207Y0151987D03*
X0398766Y0151987D03*
X0401325Y0151987D03*
X0403884Y0151987D03*
X0406444Y0151987D03*
X0409003Y0151987D03*
D33*
X0419357Y0151263D03*
X0419357Y0155987D03*
X0419357Y0164388D03*
X0419357Y0169112D03*
X0430381Y0169112D03*
X0430381Y0164388D03*
X0430381Y0155987D03*
X0430381Y0151263D03*
X0430381Y0142862D03*
X0430381Y0138138D03*
X0430381Y0129737D03*
X0430381Y0125013D03*
X0430381Y0116612D03*
X0430381Y0111888D03*
X0419357Y0111888D03*
X0419357Y0116612D03*
X0419357Y0125013D03*
X0419357Y0129737D03*
X0419357Y0138138D03*
X0419357Y0142862D03*
D34*
X0599244Y0358832D03*
D35*
X0580346Y0370052D03*
X0599244Y0383438D03*
D36*
X0645627Y0341430D03*
X0645627Y0332375D03*
X0645627Y0323320D03*
X0621877Y0294555D03*
X0621877Y0285500D03*
X0621877Y0276445D03*
D37*
X0597861Y0285500D03*
X0621611Y0332375D03*
D38*
X0629619Y0350500D03*
X0637619Y0350500D03*
X0637619Y0314250D03*
X0629619Y0314250D03*
X0613869Y0303625D03*
X0605869Y0303625D03*
X0605244Y0267375D03*
X0613244Y0267375D03*
D39*
X0587369Y0268738D02*
X0587369Y0273512D01*
X0577369Y0273512D02*
X0577369Y0268738D01*
X0567369Y0268738D02*
X0567369Y0273512D01*
X0557369Y0273512D02*
X0557369Y0268738D01*
X0547369Y0268738D02*
X0547369Y0273512D01*
X0537369Y0273512D02*
X0537369Y0268738D01*
X0527369Y0268738D02*
X0527369Y0273512D01*
X0517369Y0273512D02*
X0517369Y0268738D01*
X0503619Y0268738D02*
X0503619Y0273512D01*
X0493619Y0273512D02*
X0493619Y0268738D01*
X0483619Y0268738D02*
X0483619Y0273512D01*
X0473619Y0273512D02*
X0473619Y0268738D01*
X0463619Y0268738D02*
X0463619Y0273512D01*
X0453619Y0273512D02*
X0453619Y0268738D01*
X0443619Y0268738D02*
X0443619Y0273512D01*
X0433619Y0273512D02*
X0433619Y0268738D01*
X0433619Y0298738D02*
X0433619Y0303512D01*
X0443619Y0303512D02*
X0443619Y0298738D01*
X0453619Y0298738D02*
X0453619Y0303512D01*
X0463619Y0303512D02*
X0463619Y0298738D01*
X0473619Y0298738D02*
X0473619Y0303512D01*
X0483619Y0303512D02*
X0483619Y0298738D01*
X0493619Y0298738D02*
X0493619Y0303512D01*
X0503619Y0303512D02*
X0503619Y0298738D01*
X0517369Y0298738D02*
X0517369Y0303512D01*
X0527369Y0303512D02*
X0527369Y0298738D01*
X0537369Y0298738D02*
X0537369Y0303512D01*
X0547369Y0303512D02*
X0547369Y0298738D01*
X0557369Y0298738D02*
X0557369Y0303512D01*
X0567369Y0303512D02*
X0567369Y0298738D01*
X0577369Y0298738D02*
X0577369Y0303512D01*
X0587369Y0303512D02*
X0587369Y0298738D01*
D40*
X0582634Y0317774D03*
X0592634Y0317774D03*
X0572634Y0317774D03*
X0562634Y0317774D03*
X0552634Y0317774D03*
X0542634Y0317774D03*
X0532634Y0317774D03*
X0522634Y0317774D03*
X0512634Y0317774D03*
X0502634Y0317774D03*
X0492634Y0317774D03*
X0482634Y0317774D03*
X0472634Y0317774D03*
X0462634Y0317774D03*
X0452634Y0317774D03*
X0442634Y0317774D03*
X0308619Y0051125D03*
X0308619Y0041125D03*
X0308619Y0031125D03*
X0277369Y0031125D03*
X0277369Y0041125D03*
X0277369Y0051125D03*
X0246119Y0051125D03*
X0246119Y0041125D03*
X0246119Y0031125D03*
X0214869Y0031125D03*
X0214869Y0041125D03*
X0214869Y0051125D03*
D41*
X0420981Y0195726D03*
X0420981Y0317774D03*
X0716257Y0317774D03*
X0716257Y0195726D03*
D42*
X0526619Y0106750D03*
X0520619Y0106750D03*
X0514119Y0106750D03*
X0508119Y0106750D03*
X0422869Y0089875D03*
X0416869Y0089875D03*
X0395369Y0089875D03*
X0389369Y0089875D03*
X0367244Y0089875D03*
X0361244Y0089875D03*
X0340369Y0089875D03*
X0334369Y0089875D03*
X0311619Y0089875D03*
X0305619Y0089875D03*
X0280369Y0089875D03*
X0274369Y0089875D03*
X0248494Y0089875D03*
X0242494Y0089875D03*
X0217869Y0089875D03*
X0211869Y0089875D03*
X0334369Y0060500D03*
X0340369Y0060500D03*
X0361869Y0060500D03*
X0367869Y0060500D03*
X0389369Y0060500D03*
X0395369Y0060500D03*
X0416869Y0060500D03*
X0422869Y0060500D03*
X0517494Y0309875D03*
X0523494Y0309875D03*
D43*
X0522679Y0365815D03*
X0512836Y0365815D03*
X0493151Y0365815D03*
X0483309Y0365815D03*
X0470804Y0365815D03*
X0460961Y0365815D03*
X0441276Y0365815D03*
X0431434Y0365815D03*
X0451119Y0385500D03*
X0502994Y0385500D03*
D44*
X0522679Y0385500D03*
X0522679Y0395343D03*
X0483309Y0395343D03*
X0483309Y0385500D03*
X0470804Y0385500D03*
X0470804Y0395343D03*
X0431434Y0395343D03*
X0431434Y0385500D03*
X0451119Y0365815D03*
X0502994Y0365815D03*
D45*
X0410956Y0362375D03*
X0312531Y0362375D03*
D46*
X0328469Y0055462D02*
X0328469Y0049888D01*
X0346269Y0049888D02*
X0346269Y0055462D01*
X0355969Y0055462D02*
X0355969Y0049888D01*
X0373769Y0049888D02*
X0373769Y0055462D01*
X0383469Y0055462D02*
X0383469Y0049888D01*
X0401269Y0049888D02*
X0401269Y0055462D01*
X0410969Y0055462D02*
X0410969Y0049888D01*
X0428769Y0049888D02*
X0428769Y0055462D01*
X0428769Y0029862D02*
X0428769Y0024288D01*
X0410969Y0024288D02*
X0410969Y0029862D01*
X0401269Y0029862D02*
X0401269Y0024288D01*
X0383469Y0024288D02*
X0383469Y0029862D01*
X0373769Y0029862D02*
X0373769Y0024288D01*
X0355969Y0024288D02*
X0355969Y0029862D01*
X0346269Y0029862D02*
X0346269Y0024288D01*
X0328469Y0024288D02*
X0328469Y0029862D01*
D47*
X0545213Y0370367D03*
D48*
X0545213Y0358556D03*
X0557024Y0358556D03*
X0557024Y0370367D03*
D49*
X0399244Y0319875D03*
X0399244Y0309875D03*
X0399244Y0299875D03*
D50*
X0072369Y0318625D03*
D51*
X0084569Y0306425D03*
X0060169Y0306425D03*
X0060169Y0330825D03*
X0084569Y0330825D03*
D52*
X0189244Y0317375D03*
X0189244Y0307375D03*
X0189244Y0297375D03*
X0189244Y0287375D03*
X0189244Y0277375D03*
X0189244Y0267375D03*
X0189244Y0257375D03*
X0189244Y0247375D03*
X0189244Y0231375D03*
X0189244Y0221375D03*
X0189244Y0211375D03*
X0189244Y0201375D03*
X0189244Y0191375D03*
X0189244Y0181375D03*
X0189244Y0171375D03*
X0189244Y0161375D03*
X0189244Y0151375D03*
X0189244Y0141375D03*
X0379244Y0177375D03*
X0379244Y0187375D03*
X0379244Y0197375D03*
X0379244Y0207375D03*
X0379244Y0217375D03*
X0379244Y0227375D03*
X0379244Y0237375D03*
X0379244Y0247375D03*
X0379244Y0267375D03*
X0379244Y0277375D03*
X0379244Y0287375D03*
X0379244Y0297375D03*
X0379244Y0307375D03*
X0379244Y0317375D03*
D53*
X0289244Y0318000D03*
X0279244Y0318000D03*
X0279244Y0328000D03*
X0289244Y0328000D03*
X0269244Y0328000D03*
D54*
X0271479Y0082375D03*
X0283259Y0082375D03*
X0302729Y0082375D03*
X0314509Y0082375D03*
X0331479Y0082375D03*
X0343259Y0082375D03*
X0358979Y0082375D03*
X0370759Y0082375D03*
X0386479Y0082375D03*
X0398259Y0082375D03*
X0413979Y0082375D03*
X0425759Y0082375D03*
X0251384Y0082375D03*
X0239604Y0082375D03*
X0220759Y0082375D03*
X0208979Y0082375D03*
X0628619Y0077015D03*
X0639869Y0077015D03*
X0639869Y0065235D03*
X0628619Y0065235D03*
D55*
X0480494Y0108625D03*
X0452994Y0103000D03*
X0452994Y0099250D03*
X0449869Y0106125D03*
X0374869Y0104875D03*
X0374869Y0101125D03*
X0374869Y0108625D03*
X0374869Y0112375D03*
X0374244Y0093625D03*
X0374244Y0089875D03*
X0356744Y0089875D03*
X0329869Y0089875D03*
X0301119Y0089875D03*
X0269869Y0089875D03*
X0237994Y0089875D03*
X0207369Y0089875D03*
X0191744Y0090500D03*
X0189244Y0093000D03*
X0186744Y0095500D03*
X0184244Y0098000D03*
X0181119Y0099875D03*
X0179244Y0102375D03*
X0184244Y0106750D03*
X0189244Y0104875D03*
X0192994Y0108625D03*
X0192994Y0111750D03*
X0192994Y0115500D03*
X0192994Y0119875D03*
X0192994Y0123000D03*
X0192994Y0126125D03*
X0192994Y0129250D03*
X0201744Y0111750D03*
X0201744Y0108625D03*
X0164244Y0134250D03*
X0163619Y0137375D03*
X0162369Y0140500D03*
X0160494Y0143000D03*
X0162994Y0145500D03*
X0156744Y0139250D03*
X0156744Y0124875D03*
X0131119Y0125500D03*
X0151119Y0095500D03*
X0181744Y0064875D03*
X0183619Y0062375D03*
X0181744Y0059250D03*
X0046744Y0091125D03*
X0045494Y0086750D03*
X0045494Y0095500D03*
X0045494Y0104250D03*
X0162994Y0166125D03*
X0163619Y0169250D03*
X0179869Y0165500D03*
X0179869Y0161750D03*
X0176119Y0191750D03*
X0177994Y0194250D03*
X0164244Y0196125D03*
X0161744Y0198625D03*
X0164244Y0201125D03*
X0160494Y0204875D03*
X0241744Y0228000D03*
X0244869Y0228000D03*
X0244869Y0242375D03*
X0241744Y0242375D03*
X0268619Y0201750D03*
X0268619Y0194250D03*
X0369869Y0169250D03*
X0369244Y0164250D03*
X0384869Y0164250D03*
X0380494Y0146750D03*
X0383619Y0146125D03*
X0377369Y0147375D03*
X0594869Y0163625D03*
X0600494Y0158000D03*
X0567369Y0291750D03*
X0557369Y0294250D03*
X0547369Y0308625D03*
X0529869Y0309250D03*
X0537369Y0329875D03*
X0487369Y0327375D03*
X0473619Y0294250D03*
X0483619Y0291750D03*
X0305494Y0329875D03*
X0302369Y0329875D03*
X0302369Y0343000D03*
X0305494Y0343625D03*
X0243619Y0353625D03*
X0239244Y0353625D03*
X0234244Y0361750D03*
X0180494Y0358625D03*
X0172994Y0358625D03*
X0162369Y0348625D03*
X0144869Y0348625D03*
X0113619Y0366750D03*
X0146119Y0286125D03*
X0161119Y0288625D03*
D56*
X0159244Y0281750D03*
X0161744Y0261750D03*
X0137994Y0322375D03*
X0391119Y0369875D03*
X0391119Y0384875D03*
X0433619Y0288000D03*
X0493619Y0288000D03*
X0517369Y0288000D03*
X0577369Y0288000D03*
X0638619Y0332375D03*
X0501744Y0168625D03*
X0446744Y0039875D03*
X0026869Y0100500D03*
D57*
X0045494Y0113000D03*
X0045494Y0116750D03*
X0085494Y0119875D03*
X0154244Y0116750D03*
X0156744Y0119250D03*
X0154244Y0113000D03*
M02*
