G75*
%MOIN*%
%OFA0B0*%
%FSLAX25Y25*%
%IPPOS*%
%LPD*%
%AMOC8*
5,1,8,0,0,1.08239X$1,22.5*
%
%ADD10C,0.00800*%
%ADD11C,0.00500*%
D10*
X0024119Y0083625D02*
X0024119Y0088625D01*
X0035619Y0088625D01*
X0035619Y0083625D01*
X0024119Y0083625D01*
X0024119Y0088625D02*
X0024119Y0093625D01*
X0035619Y0093625D01*
X0035619Y0088625D01*
X0024119Y0088625D01*
X0024119Y0093625D02*
X0024119Y0098625D01*
X0035619Y0098625D01*
X0035619Y0093625D01*
X0024119Y0093625D01*
X0024119Y0109875D02*
X0024119Y0114875D01*
X0024119Y0119875D01*
X0035619Y0119875D01*
X0035619Y0114875D01*
X0024119Y0114875D01*
X0035619Y0114875D01*
X0035619Y0109875D01*
X0024119Y0109875D01*
X0147994Y0346000D02*
X0152994Y0346000D01*
X0152994Y0357500D01*
X0147994Y0357500D01*
X0147994Y0346000D01*
X0154244Y0346000D02*
X0159244Y0346000D01*
X0159244Y0357500D01*
X0154244Y0357500D01*
X0154244Y0346000D01*
X0159369Y0357375D02*
X0147869Y0357375D01*
X0147869Y0362375D01*
X0159369Y0362375D01*
X0159369Y0357375D01*
D11*
X0030347Y0078250D02*
X0028846Y0078250D01*
X0028095Y0079001D01*
X0028095Y0079751D01*
X0028846Y0080502D01*
X0030347Y0080502D01*
X0031098Y0081253D01*
X0031098Y0082003D01*
X0030347Y0082754D01*
X0028846Y0082754D01*
X0028095Y0082003D01*
X0028095Y0081253D01*
X0028846Y0080502D01*
X0030347Y0080502D02*
X0031098Y0079751D01*
X0031098Y0079001D01*
X0030347Y0078250D01*
X0032699Y0078250D02*
X0034200Y0079751D01*
X0033450Y0079751D02*
X0035702Y0079751D01*
X0035702Y0078250D02*
X0035702Y0082754D01*
X0033450Y0082754D01*
X0032699Y0082003D01*
X0032699Y0080502D01*
X0033450Y0079751D01*
X0037596Y0088875D02*
X0039097Y0088875D01*
X0039848Y0089626D01*
X0039848Y0091127D02*
X0038346Y0091878D01*
X0037596Y0091878D01*
X0036845Y0091127D01*
X0036845Y0089626D01*
X0037596Y0088875D01*
X0039848Y0091127D02*
X0039848Y0093379D01*
X0036845Y0093379D01*
X0036971Y0095750D02*
X0036971Y0100254D01*
X0039223Y0098002D01*
X0036220Y0098002D01*
X0040824Y0098002D02*
X0041575Y0097251D01*
X0043827Y0097251D01*
X0043827Y0095750D02*
X0043827Y0100254D01*
X0041575Y0100254D01*
X0040824Y0099503D01*
X0040824Y0098002D01*
X0042325Y0097251D02*
X0040824Y0095750D01*
X0042200Y0093379D02*
X0041449Y0092628D01*
X0041449Y0091127D01*
X0042200Y0090376D01*
X0044452Y0090376D01*
X0044452Y0088875D02*
X0044452Y0093379D01*
X0042200Y0093379D01*
X0042950Y0090376D02*
X0041449Y0088875D01*
X0035931Y0104500D02*
X0035931Y0109004D01*
X0033679Y0109004D01*
X0032928Y0108253D01*
X0032928Y0106752D01*
X0033679Y0106001D01*
X0035931Y0106001D01*
X0034429Y0106001D02*
X0032928Y0104500D01*
X0031327Y0104500D02*
X0028324Y0107503D01*
X0028324Y0108253D01*
X0029075Y0109004D01*
X0030576Y0109004D01*
X0031327Y0108253D01*
X0031327Y0104500D02*
X0028324Y0104500D01*
X0026723Y0104500D02*
X0023720Y0107503D01*
X0023720Y0108253D01*
X0024471Y0109004D01*
X0025972Y0109004D01*
X0026723Y0108253D01*
X0026723Y0104500D02*
X0023720Y0104500D01*
X0029013Y0120750D02*
X0028262Y0121501D01*
X0028262Y0122251D01*
X0029013Y0123002D01*
X0031265Y0123002D01*
X0031265Y0121501D01*
X0030514Y0120750D01*
X0029013Y0120750D01*
X0031265Y0123002D02*
X0029764Y0124503D01*
X0028262Y0125254D01*
X0032866Y0124503D02*
X0032866Y0123002D01*
X0033617Y0122251D01*
X0035869Y0122251D01*
X0035869Y0120750D02*
X0035869Y0125254D01*
X0033617Y0125254D01*
X0032866Y0124503D01*
X0034367Y0122251D02*
X0032866Y0120750D01*
X0135096Y0351375D02*
X0134345Y0352126D01*
X0134345Y0352876D01*
X0135096Y0353627D01*
X0137348Y0353627D01*
X0137348Y0352126D01*
X0136597Y0351375D01*
X0135096Y0351375D01*
X0137348Y0353627D02*
X0135846Y0355128D01*
X0134345Y0355879D01*
X0138949Y0355128D02*
X0139700Y0355879D01*
X0141201Y0355879D01*
X0141952Y0355128D01*
X0143553Y0355128D02*
X0143553Y0353627D01*
X0144304Y0352876D01*
X0146556Y0352876D01*
X0146556Y0351375D02*
X0146556Y0355879D01*
X0144304Y0355879D01*
X0143553Y0355128D01*
X0145054Y0352876D02*
X0143553Y0351375D01*
X0141952Y0351375D02*
X0138949Y0354378D01*
X0138949Y0355128D01*
X0139638Y0358250D02*
X0141139Y0358250D01*
X0141890Y0359001D01*
X0141890Y0360502D02*
X0140389Y0361253D01*
X0139638Y0361253D01*
X0138887Y0360502D01*
X0138887Y0359001D01*
X0139638Y0358250D01*
X0141890Y0360502D02*
X0141890Y0362754D01*
X0138887Y0362754D01*
X0143491Y0362003D02*
X0144242Y0362754D01*
X0145743Y0362754D01*
X0146494Y0362003D01*
X0146494Y0359001D01*
X0145743Y0358250D01*
X0144242Y0358250D01*
X0143491Y0359001D01*
X0141952Y0351375D02*
X0138949Y0351375D01*
X0160595Y0355753D02*
X0163598Y0352751D01*
X0163598Y0352000D01*
X0165199Y0352000D02*
X0166700Y0353501D01*
X0165950Y0353501D02*
X0168202Y0353501D01*
X0168202Y0352000D02*
X0168202Y0356504D01*
X0165950Y0356504D01*
X0165199Y0355753D01*
X0165199Y0354252D01*
X0165950Y0353501D01*
X0163598Y0356504D02*
X0160595Y0356504D01*
X0160595Y0355753D01*
M02*
