G75*
%MOIN*%
%OFA0B0*%
%FSLAX25Y25*%
%IPPOS*%
%LPD*%
%AMOC8*
5,1,8,0,0,1.08239X$1,22.5*
%
%ADD10C,0.04528*%
%ADD11C,0.12402*%
%ADD12C,0.02953*%
%ADD13C,0.04921*%
%ADD14C,0.28150*%
%ADD15R,0.07991X0.07991*%
%ADD16C,0.07991*%
%ADD17C,0.06102*%
%ADD18OC8,0.06102*%
%ADD19R,0.04134X0.03740*%
%ADD20R,0.03740X0.04134*%
%ADD21C,0.05591*%
%ADD22OC8,0.10039*%
%ADD23C,0.14764*%
%ADD24C,0.13189*%
%ADD25C,0.05365*%
%ADD26C,0.07191*%
%ADD27C,0.10433*%
%ADD28C,0.09191*%
%ADD29C,0.05315*%
%ADD30C,0.20591*%
%ADD31C,0.06165*%
%ADD32R,0.06181X0.06181*%
%ADD33C,0.06181*%
%ADD34C,0.04565*%
%ADD35C,0.06890*%
%ADD36C,0.07283*%
%ADD37OC8,0.07191*%
%ADD38OC8,0.07991*%
%ADD39C,0.03072*%
%ADD40C,0.04843*%
%ADD41C,0.03291*%
D10*
X0166207Y0379063D03*
X0183530Y0379063D03*
D11*
X0036744Y0346750D03*
X0041119Y0054250D03*
X0551119Y0387375D03*
X0634244Y0383000D03*
X0634244Y0021750D03*
D12*
X0154244Y0012567D03*
X0155095Y0338625D03*
X0152142Y0338625D03*
X0279244Y0337375D03*
X0284244Y0337375D03*
X0364244Y0377149D03*
X0364244Y0380101D03*
X0446119Y0380101D03*
X0446119Y0380101D03*
X0446119Y0377149D03*
X0497994Y0377149D03*
X0497994Y0380101D03*
D13*
X0154244Y0275559D03*
D14*
X0035494Y0024250D03*
X0035494Y0263000D03*
D15*
X0224244Y0390500D03*
X0339933Y0356784D03*
X0269244Y0318000D03*
X0448776Y0053684D03*
X0458619Y0053684D03*
X0468461Y0053684D03*
X0494401Y0053684D03*
X0504244Y0053684D03*
X0514086Y0053684D03*
X0540026Y0053684D03*
X0549869Y0053684D03*
X0559711Y0053684D03*
X0585651Y0053684D03*
X0595494Y0053684D03*
X0605336Y0053684D03*
D16*
X0383555Y0356784D03*
X0372649Y0356784D03*
X0361744Y0356784D03*
X0350838Y0356784D03*
X0345405Y0367966D03*
X0356311Y0367966D03*
X0367177Y0367966D03*
X0378082Y0367966D03*
X0274244Y0390500D03*
X0264244Y0390500D03*
X0254244Y0390500D03*
X0244244Y0390500D03*
X0234244Y0390500D03*
D17*
X0131119Y0386125D03*
D18*
X0131119Y0376125D03*
X0121119Y0376125D03*
X0111119Y0376125D03*
X0111119Y0386125D03*
X0121119Y0386125D03*
X0101119Y0386125D03*
X0091119Y0386125D03*
X0081119Y0386125D03*
X0081119Y0376125D03*
X0091119Y0376125D03*
X0101119Y0376125D03*
X0071119Y0376125D03*
X0061119Y0376125D03*
X0051119Y0376125D03*
X0051119Y0386125D03*
X0061119Y0386125D03*
X0071119Y0386125D03*
X0041119Y0386125D03*
X0041119Y0376125D03*
X0219244Y0372375D03*
X0229244Y0372375D03*
X0239244Y0372375D03*
X0249244Y0372375D03*
X0259244Y0372375D03*
X0269244Y0372375D03*
X0279244Y0372375D03*
X0279244Y0362375D03*
X0269244Y0362375D03*
X0259244Y0362375D03*
X0249244Y0362375D03*
X0239244Y0362375D03*
X0229244Y0362375D03*
X0219244Y0362375D03*
X0470494Y0179875D03*
X0480494Y0179875D03*
X0490494Y0179875D03*
X0500494Y0179875D03*
X0510494Y0179875D03*
X0520494Y0179875D03*
X0530494Y0179875D03*
X0540494Y0179875D03*
X0550494Y0179875D03*
X0560494Y0179875D03*
X0570494Y0179875D03*
X0580494Y0179875D03*
X0590494Y0179875D03*
X0600494Y0179875D03*
X0600494Y0099875D03*
X0590494Y0099875D03*
X0580494Y0099875D03*
X0570494Y0099875D03*
X0560494Y0099875D03*
X0550494Y0099875D03*
X0540494Y0099875D03*
X0530494Y0099875D03*
X0520494Y0099875D03*
X0510494Y0099875D03*
X0500494Y0099875D03*
X0490494Y0099875D03*
X0480494Y0099875D03*
X0470494Y0099875D03*
D19*
X0032869Y0096125D03*
X0032869Y0091125D03*
X0032869Y0086125D03*
X0026869Y0086125D03*
X0026869Y0091125D03*
X0026869Y0096125D03*
X0026869Y0112375D03*
X0026869Y0117375D03*
X0032869Y0117375D03*
X0032869Y0112375D03*
X0150619Y0359875D03*
X0156619Y0359875D03*
D20*
X0156744Y0354750D03*
X0150494Y0354750D03*
X0150494Y0348750D03*
X0156744Y0348750D03*
D21*
X0553811Y0173182D03*
X0561685Y0173182D03*
X0569559Y0173182D03*
X0577433Y0173182D03*
X0585307Y0173182D03*
X0593181Y0173182D03*
X0601055Y0173182D03*
X0608929Y0173182D03*
X0616803Y0173182D03*
X0624677Y0173182D03*
X0624677Y0086568D03*
X0616803Y0086568D03*
X0608929Y0086568D03*
X0601055Y0086568D03*
X0593181Y0086568D03*
X0585307Y0086568D03*
X0577433Y0086568D03*
X0569559Y0086568D03*
X0561685Y0086568D03*
X0553811Y0086568D03*
D22*
X0567192Y0026125D03*
X0578171Y0026125D03*
X0612817Y0026125D03*
X0532546Y0026125D03*
X0521567Y0026125D03*
X0486921Y0026125D03*
X0475942Y0026125D03*
X0441296Y0026125D03*
D23*
X0599244Y0358832D03*
D24*
X0580346Y0370052D03*
X0599244Y0383438D03*
D25*
X0587369Y0303512D02*
X0587369Y0298738D01*
X0577369Y0298738D02*
X0577369Y0303512D01*
X0567369Y0303512D02*
X0567369Y0298738D01*
X0557369Y0298738D02*
X0557369Y0303512D01*
X0547369Y0303512D02*
X0547369Y0298738D01*
X0537369Y0298738D02*
X0537369Y0303512D01*
X0527369Y0303512D02*
X0527369Y0298738D01*
X0517369Y0298738D02*
X0517369Y0303512D01*
X0503619Y0303512D02*
X0503619Y0298738D01*
X0493619Y0298738D02*
X0493619Y0303512D01*
X0483619Y0303512D02*
X0483619Y0298738D01*
X0473619Y0298738D02*
X0473619Y0303512D01*
X0463619Y0303512D02*
X0463619Y0298738D01*
X0453619Y0298738D02*
X0453619Y0303512D01*
X0443619Y0303512D02*
X0443619Y0298738D01*
X0433619Y0298738D02*
X0433619Y0303512D01*
X0433619Y0273512D02*
X0433619Y0268738D01*
X0443619Y0268738D02*
X0443619Y0273512D01*
X0453619Y0273512D02*
X0453619Y0268738D01*
X0463619Y0268738D02*
X0463619Y0273512D01*
X0473619Y0273512D02*
X0473619Y0268738D01*
X0483619Y0268738D02*
X0483619Y0273512D01*
X0493619Y0273512D02*
X0493619Y0268738D01*
X0503619Y0268738D02*
X0503619Y0273512D01*
X0517369Y0273512D02*
X0517369Y0268738D01*
X0527369Y0268738D02*
X0527369Y0273512D01*
X0537369Y0273512D02*
X0537369Y0268738D01*
X0547369Y0268738D02*
X0547369Y0273512D01*
X0557369Y0273512D02*
X0557369Y0268738D01*
X0567369Y0268738D02*
X0567369Y0273512D01*
X0577369Y0273512D02*
X0577369Y0268738D01*
X0587369Y0268738D02*
X0587369Y0273512D01*
D26*
X0582634Y0317774D03*
X0592634Y0317774D03*
X0572634Y0317774D03*
X0562634Y0317774D03*
X0552634Y0317774D03*
X0542634Y0317774D03*
X0532634Y0317774D03*
X0522634Y0317774D03*
X0512634Y0317774D03*
X0502634Y0317774D03*
X0492634Y0317774D03*
X0482634Y0317774D03*
X0472634Y0317774D03*
X0462634Y0317774D03*
X0452634Y0317774D03*
X0442634Y0317774D03*
X0308619Y0051125D03*
X0308619Y0041125D03*
X0308619Y0031125D03*
X0277369Y0031125D03*
X0277369Y0041125D03*
X0277369Y0051125D03*
X0246119Y0051125D03*
X0246119Y0041125D03*
X0246119Y0031125D03*
X0214869Y0031125D03*
X0214869Y0041125D03*
X0214869Y0051125D03*
D27*
X0420981Y0195726D03*
X0420981Y0317774D03*
X0716257Y0317774D03*
X0716257Y0195726D03*
D28*
X0522679Y0365815D03*
X0512836Y0365815D03*
X0493151Y0365815D03*
X0483309Y0365815D03*
X0470804Y0365815D03*
X0460961Y0365815D03*
X0441276Y0365815D03*
X0431434Y0365815D03*
X0451119Y0385500D03*
X0502994Y0385500D03*
D29*
X0522679Y0385500D03*
X0522679Y0395343D03*
X0483309Y0395343D03*
X0483309Y0385500D03*
X0470804Y0385500D03*
X0470804Y0395343D03*
X0431434Y0395343D03*
X0431434Y0385500D03*
X0451119Y0365815D03*
X0502994Y0365815D03*
D30*
X0410956Y0362375D03*
X0312531Y0362375D03*
D31*
X0328469Y0055462D02*
X0328469Y0049888D01*
X0346269Y0049888D02*
X0346269Y0055462D01*
X0355969Y0055462D02*
X0355969Y0049888D01*
X0373769Y0049888D02*
X0373769Y0055462D01*
X0383469Y0055462D02*
X0383469Y0049888D01*
X0401269Y0049888D02*
X0401269Y0055462D01*
X0410969Y0055462D02*
X0410969Y0049888D01*
X0428769Y0049888D02*
X0428769Y0055462D01*
X0428769Y0029862D02*
X0428769Y0024288D01*
X0410969Y0024288D02*
X0410969Y0029862D01*
X0401269Y0029862D02*
X0401269Y0024288D01*
X0383469Y0024288D02*
X0383469Y0029862D01*
X0373769Y0029862D02*
X0373769Y0024288D01*
X0355969Y0024288D02*
X0355969Y0029862D01*
X0346269Y0029862D02*
X0346269Y0024288D01*
X0328469Y0024288D02*
X0328469Y0029862D01*
D32*
X0545213Y0370367D03*
D33*
X0545213Y0358556D03*
X0557024Y0358556D03*
X0557024Y0370367D03*
D34*
X0399244Y0319875D03*
X0399244Y0309875D03*
X0399244Y0299875D03*
D35*
X0072369Y0318625D03*
D36*
X0084569Y0306425D03*
X0060169Y0306425D03*
X0060169Y0330825D03*
X0084569Y0330825D03*
D37*
X0189244Y0317375D03*
X0189244Y0307375D03*
X0189244Y0297375D03*
X0189244Y0287375D03*
X0189244Y0277375D03*
X0189244Y0267375D03*
X0189244Y0257375D03*
X0189244Y0247375D03*
X0189244Y0231375D03*
X0189244Y0221375D03*
X0189244Y0211375D03*
X0189244Y0201375D03*
X0189244Y0191375D03*
X0189244Y0181375D03*
X0189244Y0171375D03*
X0189244Y0161375D03*
X0189244Y0151375D03*
X0189244Y0141375D03*
X0379244Y0177375D03*
X0379244Y0187375D03*
X0379244Y0197375D03*
X0379244Y0207375D03*
X0379244Y0217375D03*
X0379244Y0227375D03*
X0379244Y0237375D03*
X0379244Y0247375D03*
X0379244Y0267375D03*
X0379244Y0277375D03*
X0379244Y0287375D03*
X0379244Y0297375D03*
X0379244Y0307375D03*
X0379244Y0317375D03*
D38*
X0289244Y0318000D03*
X0279244Y0318000D03*
X0279244Y0328000D03*
X0289244Y0328000D03*
X0269244Y0328000D03*
D39*
X0302369Y0329875D03*
X0305494Y0329875D03*
X0302369Y0343000D03*
X0305494Y0343625D03*
X0243619Y0353625D03*
X0239244Y0353625D03*
X0234244Y0361750D03*
X0180494Y0358625D03*
X0172994Y0358625D03*
X0162369Y0348625D03*
X0144869Y0348625D03*
X0113619Y0366750D03*
X0146119Y0286125D03*
X0161119Y0288625D03*
X0241744Y0242375D03*
X0244869Y0242375D03*
X0244869Y0228000D03*
X0241744Y0228000D03*
X0268619Y0201750D03*
X0268619Y0194250D03*
X0177994Y0194250D03*
X0176119Y0191750D03*
X0164244Y0196125D03*
X0161744Y0198625D03*
X0164244Y0201125D03*
X0160494Y0204875D03*
X0163619Y0169250D03*
X0162994Y0166125D03*
X0179869Y0165500D03*
X0179869Y0161750D03*
X0162994Y0145500D03*
X0160494Y0143000D03*
X0162369Y0140500D03*
X0163619Y0137375D03*
X0164244Y0134250D03*
X0156744Y0139250D03*
X0156744Y0124875D03*
X0131119Y0125500D03*
X0179244Y0102375D03*
X0181119Y0099875D03*
X0184244Y0098000D03*
X0186744Y0095500D03*
X0189244Y0093000D03*
X0191744Y0090500D03*
X0207369Y0089875D03*
X0189244Y0104875D03*
X0192994Y0108625D03*
X0192994Y0111750D03*
X0192994Y0115500D03*
X0192994Y0119875D03*
X0192994Y0123000D03*
X0192994Y0126125D03*
X0192994Y0129250D03*
X0201744Y0111750D03*
X0201744Y0108625D03*
X0184244Y0106750D03*
X0151119Y0095500D03*
X0181744Y0064875D03*
X0183619Y0062375D03*
X0181744Y0059250D03*
X0237994Y0089875D03*
X0269869Y0089875D03*
X0301119Y0089875D03*
X0329869Y0089875D03*
X0356744Y0089875D03*
X0374244Y0089875D03*
X0374244Y0093625D03*
X0374869Y0101125D03*
X0374869Y0104875D03*
X0374869Y0108625D03*
X0374869Y0112375D03*
X0380494Y0146750D03*
X0383619Y0146125D03*
X0377369Y0147375D03*
X0384869Y0164250D03*
X0369244Y0164250D03*
X0369869Y0169250D03*
X0449869Y0106125D03*
X0452994Y0103000D03*
X0452994Y0099250D03*
X0480494Y0108625D03*
X0594869Y0163625D03*
X0600494Y0158000D03*
X0567369Y0291750D03*
X0557369Y0294250D03*
X0547369Y0308625D03*
X0529869Y0309250D03*
X0537369Y0329875D03*
X0487369Y0327375D03*
X0473619Y0294250D03*
X0483619Y0291750D03*
X0045494Y0104250D03*
X0045494Y0095500D03*
X0046744Y0091125D03*
X0045494Y0086750D03*
D40*
X0026869Y0100500D03*
X0161744Y0261750D03*
X0159244Y0281750D03*
X0137994Y0322375D03*
X0391119Y0369875D03*
X0391119Y0384875D03*
X0433619Y0288000D03*
X0493619Y0288000D03*
X0517369Y0288000D03*
X0577369Y0288000D03*
X0638619Y0332375D03*
X0501744Y0168625D03*
X0446744Y0039875D03*
D41*
X0156744Y0119250D03*
X0154244Y0116750D03*
X0154244Y0113000D03*
X0085494Y0119875D03*
X0045494Y0116750D03*
X0045494Y0113000D03*
M02*
