G75*
%MOIN*%
%OFA0B0*%
%FSLAX25Y25*%
%IPPOS*%
%LPD*%
%AMOC8*
5,1,8,0,0,1.08239X$1,22.5*
%
%ADD10R,0.03150X0.03543*%
%ADD11R,0.07874X0.09449*%
%ADD12R,0.01969X0.09087*%
%ADD13R,0.10000X0.15000*%
%ADD14R,0.07874X0.01378*%
%ADD15R,0.18110X0.17717*%
%ADD16R,0.09843X0.04724*%
%ADD17R,0.07480X0.05512*%
%ADD18R,0.05512X0.07087*%
%ADD19R,0.05906X0.02756*%
%ADD20R,0.02200X0.07800*%
%ADD21R,0.01200X0.03900*%
%ADD22R,0.04331X0.03937*%
%ADD23R,0.05118X0.05118*%
%ADD24R,0.05118X0.14173*%
%ADD25R,0.04724X0.05118*%
%ADD26R,0.03543X0.03150*%
%ADD27R,0.05906X0.05906*%
D10*
X0369869Y0131250D03*
X0369869Y0137250D03*
X0369869Y0143750D03*
X0369869Y0149750D03*
X0376119Y0161250D03*
X0381119Y0161250D03*
X0381119Y0167250D03*
X0376119Y0167250D03*
X0167369Y0301250D03*
X0167369Y0307250D03*
X0433619Y0310000D03*
X0433619Y0316000D03*
X0634244Y0092875D03*
X0634244Y0086875D03*
X0640494Y0086875D03*
X0640494Y0092875D03*
D11*
X0192192Y0369220D03*
X0157546Y0369220D03*
D12*
X0168570Y0367000D03*
X0171719Y0367000D03*
X0174869Y0367000D03*
X0178018Y0367000D03*
X0181168Y0367000D03*
D13*
X0192192Y0390874D03*
X0157546Y0390874D03*
D14*
X0138102Y0268669D03*
X0138102Y0266307D03*
X0138102Y0263945D03*
X0138102Y0261583D03*
X0138102Y0259220D03*
X0138102Y0256858D03*
X0138102Y0254496D03*
X0138102Y0252134D03*
X0138102Y0249772D03*
X0138102Y0247409D03*
X0138102Y0245047D03*
X0138102Y0242685D03*
X0138102Y0240323D03*
X0138102Y0237961D03*
X0138102Y0235598D03*
X0138102Y0233236D03*
X0138102Y0230874D03*
X0138102Y0228512D03*
X0138102Y0226150D03*
X0138102Y0223787D03*
X0138102Y0221425D03*
X0138102Y0219063D03*
X0138102Y0216701D03*
X0138102Y0214339D03*
X0138102Y0211976D03*
X0138102Y0209614D03*
X0138102Y0207252D03*
X0138102Y0204890D03*
X0138102Y0202528D03*
X0138102Y0200165D03*
X0138102Y0197803D03*
X0138102Y0195441D03*
X0138102Y0193079D03*
X0138102Y0190717D03*
X0138102Y0188354D03*
X0138102Y0185992D03*
X0138102Y0183630D03*
X0138102Y0181268D03*
X0138102Y0178906D03*
X0138102Y0176543D03*
X0138102Y0174181D03*
X0138102Y0171819D03*
X0138102Y0169457D03*
X0138102Y0167094D03*
X0138102Y0164732D03*
X0138102Y0162370D03*
X0138102Y0160008D03*
X0138102Y0157646D03*
X0138102Y0155283D03*
X0138102Y0152921D03*
X0138102Y0150559D03*
X0138102Y0148197D03*
X0138102Y0145835D03*
X0138102Y0143472D03*
X0138102Y0141110D03*
X0138102Y0138748D03*
X0138102Y0136386D03*
X0138102Y0134024D03*
X0138102Y0131661D03*
X0138102Y0129299D03*
X0138102Y0126937D03*
X0138102Y0124575D03*
X0138102Y0122213D03*
X0138102Y0119850D03*
X0138102Y0117488D03*
X0138102Y0115126D03*
X0138102Y0112764D03*
X0138102Y0110402D03*
X0138102Y0108039D03*
X0138102Y0105677D03*
X0138102Y0103315D03*
X0138102Y0100953D03*
X0138102Y0098591D03*
X0138102Y0096228D03*
X0138102Y0093866D03*
X0138102Y0091504D03*
X0138102Y0089142D03*
X0138102Y0086780D03*
X0138102Y0084417D03*
X0138102Y0082055D03*
X0138102Y0065520D03*
X0138102Y0063157D03*
X0138102Y0060795D03*
X0138102Y0058433D03*
X0138102Y0056071D03*
X0138102Y0053709D03*
X0138102Y0051346D03*
X0138102Y0048984D03*
X0138102Y0046622D03*
X0138102Y0044260D03*
X0138102Y0041898D03*
X0138102Y0039535D03*
X0138102Y0037173D03*
X0138102Y0034811D03*
X0138102Y0032449D03*
X0138102Y0030087D03*
X0138102Y0027724D03*
X0138102Y0025362D03*
X0138102Y0023000D03*
X0138102Y0020638D03*
X0170385Y0021819D03*
X0170385Y0024181D03*
X0170385Y0026543D03*
X0170385Y0028906D03*
X0170385Y0031268D03*
X0170385Y0033630D03*
X0170385Y0035992D03*
X0170385Y0038354D03*
X0170385Y0040717D03*
X0170385Y0043079D03*
X0170385Y0045441D03*
X0170385Y0047803D03*
X0170385Y0050165D03*
X0170385Y0052528D03*
X0170385Y0054890D03*
X0170385Y0057252D03*
X0170385Y0059614D03*
X0170385Y0061976D03*
X0170385Y0064339D03*
X0170385Y0080874D03*
X0170385Y0083236D03*
X0170385Y0085598D03*
X0170385Y0087961D03*
X0170385Y0090323D03*
X0170385Y0092685D03*
X0170385Y0095047D03*
X0170385Y0097409D03*
X0170385Y0099772D03*
X0170385Y0102134D03*
X0170385Y0104496D03*
X0170385Y0106858D03*
X0170385Y0109220D03*
X0170385Y0111583D03*
X0170385Y0113945D03*
X0170385Y0116307D03*
X0170385Y0118669D03*
X0170385Y0121031D03*
X0170385Y0123394D03*
X0170385Y0125756D03*
X0170385Y0128118D03*
X0170385Y0130480D03*
X0170385Y0132843D03*
X0170385Y0135205D03*
X0170385Y0137567D03*
X0170385Y0139929D03*
X0170385Y0142291D03*
X0170385Y0144654D03*
X0170385Y0147016D03*
X0170385Y0149378D03*
X0170385Y0151740D03*
X0170385Y0154102D03*
X0170385Y0156465D03*
X0170385Y0158827D03*
X0170385Y0161189D03*
X0170385Y0163551D03*
X0170385Y0165913D03*
X0170385Y0168276D03*
X0170385Y0170638D03*
X0170385Y0173000D03*
X0170385Y0175362D03*
X0170385Y0177724D03*
X0170385Y0180087D03*
X0170385Y0182449D03*
X0170385Y0184811D03*
X0170385Y0187173D03*
X0170385Y0189535D03*
X0170385Y0191898D03*
X0170385Y0194260D03*
X0170385Y0196622D03*
X0170385Y0198984D03*
X0170385Y0201346D03*
X0170385Y0203709D03*
X0170385Y0206071D03*
X0170385Y0208433D03*
X0170385Y0210795D03*
X0170385Y0213157D03*
X0170385Y0215520D03*
X0170385Y0217882D03*
X0170385Y0220244D03*
X0170385Y0222606D03*
X0170385Y0224969D03*
X0170385Y0227331D03*
X0170385Y0229693D03*
X0170385Y0232055D03*
X0170385Y0234417D03*
X0170385Y0236780D03*
X0170385Y0239142D03*
X0170385Y0241504D03*
X0170385Y0243866D03*
X0170385Y0246228D03*
X0170385Y0248591D03*
X0170385Y0250953D03*
X0170385Y0253315D03*
X0170385Y0255677D03*
X0170385Y0258039D03*
X0170385Y0260402D03*
X0170385Y0262764D03*
X0170385Y0265126D03*
X0170385Y0267488D03*
X0170385Y0019457D03*
D15*
X0107000Y0015913D03*
X0107000Y0272213D03*
D16*
X0137871Y0328782D03*
X0137871Y0338625D03*
X0137871Y0348468D03*
X0169367Y0348468D03*
X0169367Y0338625D03*
X0169367Y0328782D03*
D17*
X0029062Y0120800D03*
X0025518Y0068832D03*
D18*
X0080636Y0090879D03*
X0080636Y0114501D03*
D19*
X0040479Y0112926D03*
X0040479Y0117257D03*
X0038904Y0108595D03*
X0040479Y0104265D03*
X0038904Y0099934D03*
X0040479Y0095603D03*
X0042054Y0091273D03*
X0040479Y0086942D03*
D20*
X0146119Y0294550D03*
X0151119Y0294550D03*
X0156119Y0294550D03*
X0161119Y0294550D03*
X0161119Y0313950D03*
X0156119Y0313950D03*
X0151119Y0313950D03*
X0146119Y0313950D03*
D21*
X0375735Y0151987D03*
X0378294Y0151987D03*
X0380853Y0151987D03*
X0383412Y0151987D03*
X0385971Y0151987D03*
X0388530Y0151987D03*
X0391089Y0151987D03*
X0393648Y0151987D03*
X0396207Y0151987D03*
X0398766Y0151987D03*
X0401325Y0151987D03*
X0403884Y0151987D03*
X0406444Y0151987D03*
X0409003Y0151987D03*
X0409003Y0129013D03*
X0406444Y0129013D03*
X0403884Y0129013D03*
X0401325Y0129013D03*
X0398766Y0129013D03*
X0396207Y0129013D03*
X0393648Y0129013D03*
X0391089Y0129013D03*
X0388530Y0129013D03*
X0385971Y0129013D03*
X0383412Y0129013D03*
X0380853Y0129013D03*
X0378294Y0129013D03*
X0375735Y0129013D03*
D22*
X0419357Y0129737D03*
X0419357Y0125013D03*
X0419357Y0116612D03*
X0419357Y0111888D03*
X0430381Y0111888D03*
X0430381Y0116612D03*
X0430381Y0125013D03*
X0430381Y0129737D03*
X0430381Y0138138D03*
X0430381Y0142862D03*
X0430381Y0151263D03*
X0430381Y0155987D03*
X0430381Y0164388D03*
X0430381Y0169112D03*
X0419357Y0169112D03*
X0419357Y0164388D03*
X0419357Y0155987D03*
X0419357Y0151263D03*
X0419357Y0142862D03*
X0419357Y0138138D03*
D23*
X0621877Y0276445D03*
X0621877Y0285500D03*
X0621877Y0294555D03*
X0645627Y0323320D03*
X0645627Y0332375D03*
X0645627Y0341430D03*
D24*
X0621611Y0332375D03*
X0597861Y0285500D03*
D25*
X0605869Y0303625D03*
X0613869Y0303625D03*
X0629619Y0314250D03*
X0637619Y0314250D03*
X0637619Y0350500D03*
X0629619Y0350500D03*
X0613244Y0267375D03*
X0605244Y0267375D03*
D26*
X0523494Y0309875D03*
X0517494Y0309875D03*
X0520619Y0106750D03*
X0526619Y0106750D03*
X0514119Y0106750D03*
X0508119Y0106750D03*
X0422869Y0089875D03*
X0416869Y0089875D03*
X0395369Y0089875D03*
X0389369Y0089875D03*
X0367244Y0089875D03*
X0361244Y0089875D03*
X0340369Y0089875D03*
X0334369Y0089875D03*
X0311619Y0089875D03*
X0305619Y0089875D03*
X0280369Y0089875D03*
X0274369Y0089875D03*
X0248494Y0089875D03*
X0242494Y0089875D03*
X0217869Y0089875D03*
X0211869Y0089875D03*
X0334369Y0060500D03*
X0340369Y0060500D03*
X0361869Y0060500D03*
X0367869Y0060500D03*
X0389369Y0060500D03*
X0395369Y0060500D03*
X0416869Y0060500D03*
X0422869Y0060500D03*
D27*
X0425759Y0082375D03*
X0413979Y0082375D03*
X0398259Y0082375D03*
X0386479Y0082375D03*
X0370759Y0082375D03*
X0358979Y0082375D03*
X0343259Y0082375D03*
X0331479Y0082375D03*
X0314509Y0082375D03*
X0302729Y0082375D03*
X0283259Y0082375D03*
X0271479Y0082375D03*
X0251384Y0082375D03*
X0239604Y0082375D03*
X0220759Y0082375D03*
X0208979Y0082375D03*
X0628619Y0077015D03*
X0639869Y0077015D03*
X0639869Y0065235D03*
X0628619Y0065235D03*
M02*
