%
M48
M72
T01C0.0118
T02C0.0130
T03C0.0150
T04C0.0236
T05C0.0240
T06C0.0315
T07C0.0320
T08C0.0354
T09C0.0394
T10C0.0400
T11C0.0402
T12C0.0433
T13C0.0472
T14C0.0512
T15C0.0787
T16C0.0984
T17C0.1102
T18C0.1181
T19C0.1260
T20C0.1300
T21C0.1476
%
T01
X15214Y33863
X15510Y33863
X27924Y33738
X28424Y33738
X36424Y37715
X36424Y38010
X44612Y38010
X44612Y38010
X44612Y37715
X49799Y37715
X49799Y38010
T02
X53737Y32988
X52987Y30925
X54737Y30863
X55737Y29425
X56737Y29175
X48737Y32738
X47362Y29425
X48362Y29175
X30549Y32988
X30237Y32988
X30237Y34300
X30549Y34363
X24362Y35363
X23924Y35363
X23424Y36175
X18049Y35863
X17299Y35863
X16237Y34863
X14487Y34863
X11362Y36675
X14612Y28613
X16112Y28863
X24174Y24238
X24487Y24238
X24487Y22800
X24174Y22800
X26862Y20175
X26862Y19425
X17799Y19425
X17612Y19175
X16424Y19613
X16174Y19863
X16424Y20113
X16049Y20488
X16362Y16925
X16299Y16613
X17987Y16550
X17987Y16175
X16299Y14550
X16049Y14300
X16237Y14050
X16362Y13738
X16424Y13425
X15674Y13925
X15674Y12488
X13112Y12550
X17924Y10238
X18112Y9988
X18424Y9800
X18674Y9550
X18924Y9300
X19174Y9050
X20737Y8988
X18924Y10488
X19299Y10863
X19299Y11175
X19299Y11550
X19299Y11988
X19299Y12300
X19299Y12613
X19299Y12925
X20174Y11175
X20174Y10863
X18424Y10675
X15112Y9550
X18174Y6488
X18362Y6238
X18174Y5925
X23799Y8988
X26987Y8988
X30112Y8988
X32987Y8988
X35674Y8988
X37424Y8988
X37424Y9363
X37487Y10113
X37487Y10488
X37487Y10863
X37487Y11238
X38049Y14675
X37737Y14738
X38362Y14613
X38487Y16425
X36924Y16425
X36987Y16925
X44987Y10613
X45299Y10300
X45299Y9925
X48049Y10863
X59487Y16363
X60049Y15800
X4549Y10425
X4549Y9550
X4674Y9113
X4549Y8675
T03
X4549Y11300
X4549Y11675
X8549Y11988
X15424Y11675
X15674Y11925
X15424Y11300
T04
X2687Y10050
X15424Y1257
X44674Y3988
X50174Y16863
X49362Y28800
X51737Y28800
X57737Y28800
X63862Y33238
X43362Y28800
X39112Y36988
X39112Y38488
X16174Y26175
X15924Y28175
X13799Y32238
T05
X39924Y31988
X39924Y30988
X39924Y29988
T06
X55381Y17318
X56168Y17318
X56956Y17318
X57743Y17318
X58531Y17318
X59318Y17318
X60105Y17318
X60893Y17318
X61680Y17318
X62468Y17318
X62468Y8657
X61680Y8657
X60893Y8657
X60105Y8657
X59318Y8657
X58531Y8657
X57743Y8657
X56956Y8657
X56168Y8657
X55381Y8657
T07
X55737Y27113
X54737Y27113
X53737Y27113
X52737Y27113
X51737Y27113
X50362Y27113
X49362Y27113
X48362Y27113
X47362Y27113
X46362Y27113
X45362Y27113
X44362Y27113
X43362Y27113
X43362Y30113
X44362Y30113
X45362Y30113
X46362Y30113
X47362Y30113
X48362Y30113
X49362Y30113
X50362Y30113
X51737Y30113
X52737Y30113
X53737Y30113
X54737Y30113
X55737Y30113
X56737Y30113
X57737Y30113
X58737Y30113
X58737Y27113
X57737Y27113
X56737Y27113
T08
X30862Y5113
X30862Y4113
X30862Y3113
X27737Y3113
X27737Y4113
X27737Y5113
X24612Y5113
X24612Y4113
X24612Y3113
X21487Y3113
X21487Y4113
X21487Y5113
T09
X18924Y14138
X18924Y15138
X18924Y16138
X18924Y17138
X18924Y18138
X18924Y19138
X18924Y20138
X18924Y21138
X18924Y22138
X18924Y23138
X18924Y24738
X18924Y25738
X18924Y26738
X18924Y27738
X18924Y28738
X18924Y29738
X18924Y30738
X18924Y31738
X21924Y36238
X22924Y36238
X23924Y36238
X23924Y37238
X22924Y37238
X21924Y37238
X24924Y37238
X25924Y37238
X26924Y37238
X27924Y37238
X27924Y36238
X26924Y36238
X25924Y36238
X24924Y36238
X18353Y37906
X16621Y37906
X13112Y37613
X13112Y38613
X12112Y38613
X11112Y38613
X10112Y38613
X9112Y38613
X8112Y38613
X7112Y38613
X6112Y38613
X5112Y38613
X4112Y38613
X4112Y37613
X5112Y37613
X6112Y37613
X7112Y37613
X8112Y37613
X9112Y37613
X10112Y37613
X11112Y37613
X12112Y37613
X37924Y31738
X37924Y30738
X37924Y29738
X37924Y28738
X37924Y27738
X37924Y26738
X37924Y24738
X37924Y23738
X37924Y22738
X37924Y21738
X37924Y20738
X37924Y19738
X37924Y18738
X37924Y17738
X47049Y17988
X48049Y17988
X49049Y17988
X50049Y17988
X51049Y17988
X52049Y17988
X53049Y17988
X54049Y17988
X55049Y17988
X56049Y17988
X57049Y17988
X58049Y17988
X59049Y17988
X60049Y17988
X60049Y9988
X59049Y9988
X58049Y9988
X57049Y9988
X56049Y9988
X55049Y9988
X54049Y9988
X53049Y9988
X52049Y9988
X51049Y9988
X50049Y9988
X49049Y9988
X48049Y9988
X47049Y9988
X46846Y5368
X45862Y5368
X44878Y5368
X49440Y5368
X50424Y5368
X51409Y5368
X54003Y5368
X54987Y5368
X55971Y5368
X58565Y5368
X59549Y5368
X60534Y5368
X59263Y31777
X58263Y31777
X57263Y31777
X56263Y31777
X55263Y31777
X54263Y31777
X53263Y31777
X52263Y31777
X51263Y31777
X50263Y31777
X49263Y31777
X48263Y31777
X47263Y31777
X46263Y31777
X45263Y31777
X44263Y31777
T10
X38355Y35678
X37265Y35678
X36174Y35678
X35084Y35678
X33993Y35678
X34541Y36797
X35631Y36797
X36718Y36797
X37808Y36797
X28924Y32800
X27924Y32800
X26924Y32800
X26924Y31800
X27924Y31800
X28924Y31800
X27424Y39050
X26424Y39050
X25424Y39050
X24424Y39050
X23424Y39050
X22424Y39050
X32847Y5268
X34627Y5268
X35597Y5268
X37377Y5268
X38347Y5268
X40127Y5268
X41097Y5268
X42877Y5268
X42877Y2708
X41097Y2708
X40127Y2708
X38347Y2708
X37377Y2708
X35597Y2708
X34627Y2708
X32847Y2708
T11
X54521Y35856
X54521Y37037
X55702Y37037
X55702Y35856
T12
X15424Y27556
T13
X7237Y31863
X43143Y38550
X43143Y39534
X47080Y39534
X47080Y38550
X48331Y38550
X48331Y39534
X52268Y39534
X52268Y38550
X50299Y36581
X45112Y36581
T14
X46096Y36581
X47080Y36581
X48331Y36581
X49315Y36581
X51284Y36581
X52268Y36581
X50299Y38550
X45112Y38550
X44128Y36581
X43143Y36581
X8457Y33083
X6017Y33083
X6017Y30643
X8457Y30643
T15
X44130Y2613
X47594Y2613
X48692Y2613
X52157Y2613
X53255Y2613
X56719Y2613
X57817Y2613
X61282Y2613
T16
X71626Y19573
X71626Y31777
X42098Y31777
X42098Y19573
T17
X58035Y37005
X59924Y38344
T18
X63424Y38300
X55112Y38738
X3674Y34675
X4112Y5425
X63424Y2175
T19
X59924Y35883
T20
X41096Y36238
X31253Y36238
T21
X3549Y2425
X3549Y26300
M30
