G75*
G70*
%OFA0B0*%
%FSLAX24Y24*%
%IPPOS*%
%LPD*%
%AMOC8*
5,1,8,0,0,1.08239X$1,22.5*
%
%ADD10C,0.0560*%
%ADD11R,0.0887X0.0926*%
%ADD12R,0.0887X0.1005*%
%ADD13R,0.1084X0.1202*%
%ADD14R,0.0572X0.0808*%
%ADD15R,0.0611X0.0828*%
%ADD16R,0.0532X0.1753*%
%ADD17R,0.0532X0.0847*%
%ADD18C,0.0611*%
%ADD19C,0.0040*%
%ADD20R,0.0651X0.0651*%
%ADD21R,0.0414X0.0375*%
%ADD22OC8,0.0651*%
%ADD23R,0.4158X0.4312*%
%ADD24R,0.0910X0.0480*%
%ADD25C,0.0910*%
%ADD26OC8,0.0910*%
%ADD27R,0.2186X0.1635*%
%ADD28C,0.0765*%
%ADD29R,0.0454X0.0560*%
%ADD30R,0.0375X0.0414*%
%ADD31R,0.0840X0.0270*%
%ADD32R,0.0493X0.0454*%
%ADD33R,0.0572X0.0532*%
%ADD34C,0.1241*%
%ADD35C,0.0436*%
%ADD36C,0.0350*%
%ADD37C,0.0532*%
%ADD38C,0.0397*%
D10*
X006213Y006021D03*
X007001Y006021D03*
X007788Y006021D03*
X008576Y006021D03*
X009363Y006021D03*
X010150Y006021D03*
X010938Y006021D03*
X011725Y006021D03*
X012513Y006021D03*
X013300Y006021D03*
X013300Y014682D03*
X012513Y014682D03*
X011725Y014682D03*
X010938Y014682D03*
X010150Y014682D03*
X009363Y014682D03*
X008576Y014682D03*
X007788Y014682D03*
X007001Y014682D03*
X006213Y014682D03*
D11*
X018718Y004785D03*
D12*
X018718Y005868D03*
D13*
X029269Y004549D03*
D14*
X029426Y013329D03*
X029426Y015041D03*
X018639Y013506D03*
D15*
X018600Y015592D03*
X019308Y015592D03*
D16*
X020086Y008752D03*
X020726Y008752D03*
X021710Y008752D03*
X022694Y008752D03*
X023678Y008752D03*
X024663Y008752D03*
X025647Y008752D03*
X026631Y008752D03*
D17*
X027615Y008299D03*
D18*
X028757Y006655D03*
X019308Y006655D03*
D19*
X019029Y006809D02*
X018373Y006809D01*
X018373Y006847D02*
X019049Y006847D01*
X019062Y006872D02*
X018983Y006724D01*
X018983Y006655D01*
X018373Y006655D01*
X018373Y007482D01*
X019062Y007482D01*
X019062Y006872D01*
X019062Y006886D02*
X018373Y006886D01*
X018373Y006924D02*
X019062Y006924D01*
X019062Y006963D02*
X018373Y006963D01*
X018373Y007001D02*
X019062Y007001D01*
X019062Y007040D02*
X018373Y007040D01*
X018373Y007078D02*
X019062Y007078D01*
X019062Y007117D02*
X018373Y007117D01*
X018373Y007155D02*
X019062Y007155D01*
X019062Y007194D02*
X018373Y007194D01*
X018373Y007232D02*
X019062Y007232D01*
X019062Y007271D02*
X018373Y007271D01*
X018373Y007309D02*
X019062Y007309D01*
X019062Y007348D02*
X018373Y007348D01*
X018373Y007386D02*
X019062Y007386D01*
X019062Y007425D02*
X018373Y007425D01*
X018373Y007463D02*
X019062Y007463D01*
X019008Y006770D02*
X018373Y006770D01*
X018373Y006732D02*
X018988Y006732D01*
X018983Y006693D02*
X018373Y006693D01*
X029170Y006774D02*
X029170Y007679D01*
X029682Y007679D01*
X029682Y006774D01*
X029170Y006774D01*
X029170Y006809D02*
X029682Y006809D01*
X029682Y006847D02*
X029170Y006847D01*
X029170Y006886D02*
X029682Y006886D01*
X029682Y006924D02*
X029170Y006924D01*
X029170Y006963D02*
X029682Y006963D01*
X029682Y007001D02*
X029170Y007001D01*
X029170Y007040D02*
X029682Y007040D01*
X029682Y007078D02*
X029170Y007078D01*
X029170Y007117D02*
X029682Y007117D01*
X029682Y007155D02*
X029170Y007155D01*
X029170Y007194D02*
X029682Y007194D01*
X029682Y007232D02*
X029170Y007232D01*
X029170Y007271D02*
X029682Y007271D01*
X029682Y007309D02*
X029170Y007309D01*
X029170Y007348D02*
X029682Y007348D01*
X029682Y007386D02*
X029170Y007386D01*
X029170Y007425D02*
X029682Y007425D01*
X029682Y007463D02*
X029170Y007463D01*
X029170Y007502D02*
X029682Y007502D01*
X029682Y007540D02*
X029170Y007540D01*
X029170Y007579D02*
X029682Y007579D01*
X029682Y007617D02*
X029170Y007617D01*
X029170Y007656D02*
X029682Y007656D01*
D20*
X031627Y013621D03*
X031627Y014799D03*
X032867Y014799D03*
X032867Y013621D03*
X010433Y004581D03*
X009255Y004581D03*
D21*
X011854Y004655D03*
X012454Y004655D03*
X016929Y008702D03*
X017529Y008702D03*
X017529Y009883D03*
X016929Y009883D03*
X016929Y011064D03*
X017529Y011064D03*
X017529Y012246D03*
X016929Y012246D03*
X016929Y013427D03*
X017529Y013427D03*
X012411Y015789D03*
X011811Y015789D03*
X010349Y015677D03*
X009749Y015677D03*
X005033Y015757D03*
X004433Y015757D03*
X004433Y017301D03*
X005033Y017301D03*
X011315Y032816D03*
X011915Y032816D03*
X009490Y034427D03*
X008890Y034427D03*
X010236Y036194D03*
X010836Y036194D03*
X010836Y037324D03*
X010236Y037324D03*
D22*
X016813Y037251D03*
X016813Y036251D03*
X016813Y035251D03*
X016813Y034251D03*
X016813Y033251D03*
X016813Y032251D03*
X016813Y031251D03*
X016813Y030251D03*
X016813Y029251D03*
X016813Y028251D03*
X016813Y027251D03*
X017813Y027251D03*
X017813Y028251D03*
X017813Y029251D03*
X017813Y030251D03*
X017813Y031251D03*
X017813Y032251D03*
X017813Y033251D03*
X017813Y034251D03*
X017813Y035251D03*
X017813Y036251D03*
X017813Y037251D03*
X019150Y038289D03*
X019150Y039289D03*
X020150Y039289D03*
X020150Y038289D03*
X021150Y038289D03*
X021150Y039289D03*
X022150Y039289D03*
X022150Y038289D03*
X023150Y038289D03*
X023150Y039289D03*
X024150Y039289D03*
X024150Y038289D03*
X025150Y038289D03*
X025150Y039289D03*
X026150Y039289D03*
X026150Y038289D03*
X027150Y038289D03*
X027150Y039289D03*
X028150Y039289D03*
X028150Y038289D03*
X029150Y038289D03*
X029150Y039289D03*
X031427Y036295D03*
X031427Y035295D03*
X031427Y034295D03*
X031427Y033295D03*
X031427Y032295D03*
X031427Y031295D03*
X031427Y030295D03*
X031427Y029295D03*
X032427Y029295D03*
X032427Y030295D03*
X032427Y031295D03*
X032427Y032295D03*
X032427Y033295D03*
X032427Y034295D03*
X032427Y035295D03*
X032427Y036295D03*
X032425Y028039D03*
X032425Y027039D03*
X031425Y027039D03*
X031425Y028039D03*
X031425Y026039D03*
X031425Y025039D03*
X031425Y024039D03*
X031425Y023039D03*
X031425Y022039D03*
X031425Y021039D03*
X031425Y020039D03*
X032425Y020039D03*
X032425Y021039D03*
X032425Y022039D03*
X032425Y023039D03*
X032425Y024039D03*
X032425Y025039D03*
X032425Y026039D03*
X032257Y010714D03*
X032257Y009714D03*
X032257Y008714D03*
X031257Y008714D03*
X031257Y009714D03*
X031257Y010714D03*
X014446Y023525D03*
X006572Y023525D03*
X004812Y022147D03*
X004812Y021147D03*
X004812Y020147D03*
X003812Y020147D03*
X003812Y021147D03*
X003812Y022147D03*
D23*
X005205Y036655D03*
D24*
X008485Y036655D03*
X008485Y035985D03*
X008485Y035315D03*
X008485Y037325D03*
X008485Y037995D03*
D25*
X003654Y027612D03*
X014599Y021289D03*
D26*
X014599Y015289D03*
X003654Y033612D03*
D27*
X008174Y032679D03*
X008174Y028820D03*
D28*
X013792Y031314D02*
X013792Y032019D01*
X013792Y039314D02*
X013792Y040019D01*
D29*
X010930Y034844D03*
X011304Y034057D03*
X010556Y034057D03*
D30*
X030615Y014908D03*
X030615Y014308D03*
X034040Y014308D03*
X034040Y014908D03*
D31*
X009085Y016448D03*
X009085Y016948D03*
X009085Y017448D03*
X009085Y017948D03*
X007145Y017948D03*
X007145Y017448D03*
X007145Y016948D03*
X007145Y016448D03*
D32*
X005068Y016527D03*
X004398Y016527D03*
D33*
X011324Y016964D03*
X011324Y017764D03*
D34*
X003843Y005159D03*
X003843Y040592D03*
X033371Y040592D03*
X033765Y004765D03*
D35*
X034095Y009950D03*
X034635Y011640D03*
X033645Y012990D03*
X030545Y018020D03*
X027305Y013820D03*
X025225Y013620D03*
X024265Y012000D03*
X024535Y010980D03*
X023915Y010280D03*
X023615Y013480D03*
X020995Y010470D03*
X019075Y009230D03*
X018125Y010450D03*
X016825Y006380D03*
X013525Y004360D03*
X013025Y007790D03*
X013105Y013750D03*
X009975Y017600D03*
X010185Y019360D03*
X011565Y018890D03*
X013275Y022270D03*
X018095Y024070D03*
X015005Y029790D03*
X014315Y029900D03*
X019775Y035700D03*
X024255Y033530D03*
X028655Y040590D03*
X031465Y038560D03*
X026035Y020450D03*
X019755Y017740D03*
X019165Y016850D03*
X025245Y007080D03*
X028795Y010280D03*
X028885Y011910D03*
X006455Y026900D03*
D36*
X011275Y028790D03*
X011324Y030356D03*
X012475Y030690D03*
X012075Y033890D03*
X011715Y035480D03*
X009552Y036734D03*
X002499Y038598D03*
X008735Y015492D03*
D37*
X011324Y031931D03*
X009355Y035986D03*
D38*
X033685Y037280D03*
X034665Y036930D03*
M02*
