%
M48
M72
T01C0.0150
T02C0.0197
T03C0.0236
T04C0.0315
T05C0.0320
T06C0.0394
T07C0.0470
T08C0.0551
T09C0.1181
%
T01
X8735Y15492
X11275Y28790
X11324Y30356
X12475Y30690
X12075Y33890
X11715Y35480
X9552Y36734
X2499Y38598
T02
X33685Y37280
X34665Y36930
T03
X31465Y38560
X28655Y40590
X24255Y33530
X19775Y35700
X15005Y29790
X14315Y29900
X18095Y24070
X13275Y22270
X11565Y18890
X10185Y19360
X9975Y17600
X13105Y13750
X13025Y7790
X13525Y4360
X16825Y6380
X19075Y9230
X18125Y10450
X20995Y10470
X23615Y13480
X24265Y12000
X24535Y10980
X23915Y10280
X25225Y13620
X27305Y13820
X28885Y11910
X28795Y10280
X25245Y7080
X33645Y12990
X34635Y11640
X34095Y9950
X30545Y18020
X26035Y20450
X19755Y17740
X19165Y16850
X6455Y26900
T04
X11324Y31931
X9355Y35986
X9363Y14682
X10150Y14682
X10938Y14682
X11725Y14682
X12513Y14682
X13300Y14682
X8576Y14682
X7788Y14682
X7001Y14682
X6213Y14682
X6213Y6021
X7001Y6021
X7788Y6021
X8576Y6021
X9363Y6021
X10150Y6021
X10938Y6021
X11725Y6021
X12513Y6021
X13300Y6021
T05
X14599Y15289
X14599Y21289
X3654Y27612
X3654Y33612
T06
X6572Y23525
X4812Y22147
X4812Y21147
X4812Y20147
X3812Y20147
X3812Y21147
X3812Y22147
X14446Y23525
X16813Y27251
X17813Y27251
X17813Y28251
X17813Y29251
X17813Y30251
X16813Y30251
X16813Y29251
X16813Y28251
X16813Y31251
X16813Y32251
X16813Y33251
X17813Y33251
X17813Y32251
X17813Y31251
X17813Y34251
X17813Y35251
X17813Y36251
X16813Y36251
X16813Y35251
X16813Y34251
X16813Y37251
X17813Y37251
X19150Y38289
X19150Y39289
X20150Y39289
X20150Y38289
X21150Y38289
X21150Y39289
X22150Y39289
X22150Y38289
X23150Y38289
X23150Y39289
X24150Y39289
X24150Y38289
X25150Y38289
X25150Y39289
X26150Y39289
X26150Y38289
X27150Y38289
X27150Y39289
X28150Y39289
X28150Y38289
X29150Y38289
X29150Y39289
X31427Y36295
X31427Y35295
X31427Y34295
X31427Y33295
X31427Y32295
X31427Y31295
X31427Y30295
X31427Y29295
X32427Y29295
X32427Y30295
X32427Y31295
X32427Y32295
X32427Y33295
X32427Y34295
X32427Y35295
X32427Y36295
X32425Y28039
X32425Y27039
X31425Y27039
X31425Y28039
X31425Y26039
X31425Y25039
X31425Y24039
X31425Y23039
X31425Y22039
X31425Y21039
X31425Y20039
X32425Y20039
X32425Y21039
X32425Y22039
X32425Y23039
X32425Y24039
X32425Y25039
X32425Y26039
X32257Y10714
X32257Y9714
X32257Y8714
X31257Y8714
X31257Y9714
X31257Y10714
T07
X13792Y31667
X13792Y39667
T08
X19308Y6655
X28757Y6655
T09
X3843Y5159
X3843Y40592
X33371Y40592
X33765Y4765
M30
