G75*
%MOIN*%
%OFA0B0*%
%FSLAX25Y25*%
%IPPOS*%
%LPD*%
%AMOC8*
5,1,8,0,0,1.08239X$1,22.5*
%
%ADD10R,0.08875X0.08875*%
%ADD11R,0.01772X0.10039*%
%ADD12C,0.01200*%
%ADD13C,0.02362*%
%ADD14C,0.03543*%
%ADD15C,0.04252*%
%ADD16C,0.02000*%
%ADD17C,0.02559*%
%ADD18C,0.00591*%
D10*
X0190250Y0118125D03*
X0242250Y0118125D03*
D11*
X0241417Y0011004D03*
X0239055Y0011004D03*
X0236693Y0011004D03*
X0234331Y0011004D03*
X0231969Y0011004D03*
X0229606Y0011004D03*
X0227244Y0011004D03*
X0224882Y0011004D03*
X0222520Y0011004D03*
X0220157Y0011004D03*
X0217795Y0011004D03*
X0215433Y0011004D03*
X0213071Y0011004D03*
X0210709Y0011004D03*
X0208346Y0011004D03*
X0205984Y0011004D03*
X0203622Y0011004D03*
X0201260Y0011004D03*
X0198898Y0011004D03*
X0196535Y0011004D03*
X0194173Y0011004D03*
X0191811Y0011004D03*
X0189449Y0011004D03*
X0187087Y0011004D03*
X0184724Y0011004D03*
X0182362Y0011004D03*
X0180000Y0011004D03*
X0177638Y0011004D03*
X0175276Y0011004D03*
X0172913Y0011004D03*
X0170551Y0011004D03*
X0168189Y0011004D03*
X0165827Y0011004D03*
X0163465Y0011004D03*
X0161102Y0011004D03*
X0158740Y0011004D03*
X0156378Y0011004D03*
X0154016Y0011004D03*
X0151654Y0011004D03*
X0149291Y0011004D03*
X0146929Y0011004D03*
X0144567Y0011004D03*
X0142205Y0011004D03*
X0139843Y0011004D03*
X0137480Y0011004D03*
X0135118Y0011004D03*
X0132756Y0011004D03*
X0130394Y0011004D03*
X0128031Y0011004D03*
X0125669Y0011004D03*
X0123307Y0011004D03*
X0120945Y0011004D03*
X0118583Y0011004D03*
X0116220Y0011004D03*
X0113858Y0011004D03*
X0111496Y0011004D03*
X0109134Y0011004D03*
X0106772Y0011004D03*
X0104409Y0011004D03*
X0102047Y0011004D03*
X0099685Y0011004D03*
X0097323Y0011004D03*
X0094961Y0011004D03*
X0092598Y0011004D03*
X0090236Y0011004D03*
X0087874Y0011004D03*
X0085512Y0011004D03*
X0083150Y0011004D03*
X0080787Y0011004D03*
X0078425Y0011004D03*
X0076063Y0011004D03*
X0059528Y0011004D03*
X0057165Y0011004D03*
X0054803Y0011004D03*
X0052441Y0011004D03*
X0050079Y0011004D03*
X0047717Y0011004D03*
X0045354Y0011004D03*
X0042992Y0011004D03*
X0040630Y0011004D03*
X0038268Y0011004D03*
X0035906Y0011004D03*
X0033543Y0011004D03*
X0031181Y0011004D03*
X0028819Y0011004D03*
X0026457Y0011004D03*
X0024094Y0011004D03*
X0021732Y0011004D03*
X0019370Y0011004D03*
X0017008Y0011004D03*
X0014646Y0011004D03*
X0243780Y0011004D03*
X0246142Y0011004D03*
X0248504Y0011004D03*
X0250866Y0011004D03*
X0253228Y0011004D03*
X0255591Y0011004D03*
X0257953Y0011004D03*
X0260315Y0011004D03*
X0262677Y0011004D03*
D12*
X0007031Y0007031D02*
X0007031Y0073939D01*
X0010029Y0075030D01*
X0012705Y0077275D01*
X0014451Y0080300D01*
X0015058Y0083740D01*
X0015058Y0083740D01*
X0014451Y0087180D01*
X0014451Y0087180D01*
X0012705Y0090205D01*
X0010029Y0092451D01*
X0007031Y0093542D01*
X0007031Y0124992D01*
X0007236Y0124394D01*
X0009883Y0120993D01*
X0009883Y0120993D01*
X0013491Y0118636D01*
X0017669Y0117578D01*
X0021964Y0117934D01*
X0025910Y0119665D01*
X0025910Y0119665D01*
X0029081Y0122584D01*
X0031132Y0126374D01*
X0031841Y0130625D01*
X0031841Y0130625D01*
X0031132Y0134876D01*
X0029081Y0138666D01*
X0026802Y0140764D01*
X0249410Y0140764D01*
X0248633Y0140257D01*
X0248633Y0140257D01*
X0248633Y0140257D01*
X0245986Y0136856D01*
X0244587Y0132780D01*
X0244587Y0128470D01*
X0245986Y0124394D01*
X0246486Y0123753D01*
X0237319Y0123753D01*
X0236622Y0123056D01*
X0236622Y0115029D01*
X0229008Y0107416D01*
X0151133Y0107416D01*
X0150084Y0106367D01*
X0145367Y0101649D01*
X0115594Y0101649D01*
X0115290Y0101953D01*
X0114383Y0102329D01*
X0113400Y0102329D01*
X0112492Y0101953D01*
X0111797Y0101258D01*
X0111421Y0100350D01*
X0111421Y0099367D01*
X0111797Y0098460D01*
X0112492Y0097765D01*
X0113400Y0097389D01*
X0114383Y0097389D01*
X0115290Y0097765D01*
X0115594Y0098068D01*
X0146850Y0098068D01*
X0152617Y0103834D01*
X0230492Y0103834D01*
X0239154Y0112497D01*
X0247181Y0112497D01*
X0247878Y0113194D01*
X0247878Y0121964D01*
X0248633Y0120993D01*
X0248633Y0120993D01*
X0248633Y0120993D01*
X0252241Y0118636D01*
X0256419Y0117578D01*
X0260714Y0117934D01*
X0264660Y0119665D01*
X0264660Y0119665D01*
X0267831Y0122584D01*
X0267831Y0122584D01*
X0269111Y0124949D01*
X0269111Y0093542D01*
X0266113Y0092451D01*
X0263437Y0090205D01*
X0261690Y0087180D01*
X0261084Y0083740D01*
X0261690Y0080300D01*
X0263437Y0077275D01*
X0266113Y0075030D01*
X0269111Y0073939D01*
X0269111Y0007031D01*
X0264950Y0007031D01*
X0264950Y0011004D01*
X0264950Y0016206D01*
X0264856Y0016559D01*
X0264673Y0016876D01*
X0264415Y0017134D01*
X0264098Y0017316D01*
X0263746Y0017411D01*
X0262677Y0017411D01*
X0261609Y0017411D01*
X0261496Y0017381D01*
X0261383Y0017411D01*
X0260315Y0017411D01*
X0260315Y0011004D01*
X0260315Y0011004D01*
X0262677Y0011004D01*
X0262677Y0011004D01*
X0262677Y0017411D01*
X0262677Y0011004D01*
X0262677Y0011004D01*
X0260404Y0011004D01*
X0260315Y0011004D01*
X0260315Y0011004D01*
X0260315Y0017411D01*
X0259246Y0017411D01*
X0259134Y0017381D01*
X0259021Y0017411D01*
X0257953Y0017411D01*
X0257953Y0011004D01*
X0260315Y0011004D01*
X0260315Y0011004D01*
X0260226Y0011004D01*
X0257953Y0011004D01*
X0257953Y0011004D01*
X0257953Y0011004D01*
X0257953Y0017411D01*
X0256884Y0017411D01*
X0256772Y0017381D01*
X0256659Y0017411D01*
X0255591Y0017411D01*
X0255591Y0011004D01*
X0257953Y0011004D01*
X0257953Y0011004D01*
X0255680Y0011004D01*
X0255591Y0011004D01*
X0255591Y0011004D01*
X0255590Y0011004D01*
X0255590Y0011004D01*
X0253228Y0011004D01*
X0253228Y0011004D01*
X0250866Y0011004D01*
X0250866Y0011004D01*
X0248504Y0011004D01*
X0248504Y0011004D01*
X0248504Y0017411D01*
X0249572Y0017411D01*
X0249685Y0017381D01*
X0249798Y0017411D01*
X0250866Y0017411D01*
X0250866Y0011004D01*
X0250866Y0011004D01*
X0248593Y0011004D01*
X0248504Y0011004D01*
X0248504Y0011004D01*
X0248504Y0017411D01*
X0247435Y0017411D01*
X0247323Y0017381D01*
X0247210Y0017411D01*
X0246142Y0017411D01*
X0246142Y0011004D01*
X0248504Y0011004D01*
X0248504Y0011004D01*
X0246231Y0011004D01*
X0246142Y0011004D01*
X0246142Y0011004D01*
X0246142Y0011004D01*
X0246142Y0017411D01*
X0245073Y0017411D01*
X0244961Y0017381D01*
X0244848Y0017411D01*
X0243780Y0017411D01*
X0243780Y0011004D01*
X0246142Y0011004D01*
X0246142Y0011004D01*
X0243869Y0011004D01*
X0243780Y0011004D01*
X0243780Y0011004D01*
X0243779Y0011004D01*
X0243779Y0011004D01*
X0241417Y0011004D01*
X0241417Y0011004D01*
X0239055Y0011004D01*
X0239055Y0011004D01*
X0236693Y0011004D01*
X0236693Y0011004D01*
X0236693Y0011004D01*
X0236693Y0017411D01*
X0237761Y0017411D01*
X0237874Y0017381D01*
X0237987Y0017411D01*
X0239055Y0017411D01*
X0239055Y0011004D01*
X0239055Y0011004D01*
X0236782Y0011004D01*
X0236693Y0011004D01*
X0236693Y0017411D01*
X0235624Y0017411D01*
X0235512Y0017381D01*
X0235399Y0017411D01*
X0234331Y0017411D01*
X0234331Y0011004D01*
X0236693Y0011004D01*
X0236693Y0011004D01*
X0234420Y0011004D01*
X0234331Y0011004D01*
X0234331Y0011004D01*
X0234331Y0011004D01*
X0234331Y0017411D01*
X0233262Y0017411D01*
X0233150Y0017381D01*
X0233037Y0017411D01*
X0231969Y0017411D01*
X0231969Y0011004D01*
X0234331Y0011004D01*
X0234331Y0011004D01*
X0232057Y0011004D01*
X0231969Y0011004D01*
X0231969Y0011004D01*
X0231968Y0011004D01*
X0231968Y0011004D01*
X0229606Y0011004D01*
X0229606Y0011004D01*
X0227244Y0011004D01*
X0227244Y0011004D01*
X0224882Y0011004D01*
X0224882Y0011004D01*
X0224882Y0011004D01*
X0224882Y0017411D01*
X0225950Y0017411D01*
X0226063Y0017381D01*
X0226176Y0017411D01*
X0227244Y0017411D01*
X0227244Y0011004D01*
X0227244Y0011004D01*
X0224971Y0011004D01*
X0224882Y0011004D01*
X0224882Y0017411D01*
X0223813Y0017411D01*
X0223701Y0017381D01*
X0223588Y0017411D01*
X0222520Y0017411D01*
X0222520Y0011004D01*
X0224882Y0011004D01*
X0224882Y0011004D01*
X0224793Y0011004D01*
X0222520Y0011004D01*
X0222520Y0011004D01*
X0222520Y0011004D01*
X0222520Y0017411D01*
X0221451Y0017411D01*
X0221339Y0017381D01*
X0221226Y0017411D01*
X0220158Y0017411D01*
X0220158Y0011004D01*
X0222520Y0011004D01*
X0222520Y0011004D01*
X0220246Y0011004D01*
X0220158Y0011004D01*
X0220158Y0011004D01*
X0220157Y0011004D01*
X0220157Y0011004D01*
X0217795Y0011004D01*
X0217795Y0011004D01*
X0215433Y0011004D01*
X0215433Y0017411D01*
X0214365Y0017411D01*
X0214252Y0017381D01*
X0214139Y0017411D01*
X0213071Y0017411D01*
X0213071Y0011004D01*
X0215433Y0011004D01*
X0215433Y0011004D01*
X0215433Y0011004D01*
X0215433Y0017411D01*
X0216502Y0017411D01*
X0216614Y0017381D01*
X0216727Y0017411D01*
X0217795Y0017411D01*
X0217795Y0011004D01*
X0215522Y0011004D01*
X0215433Y0011004D01*
X0213160Y0011004D01*
X0213071Y0011004D01*
X0213071Y0011004D01*
X0213071Y0011004D01*
X0213071Y0017411D01*
X0212002Y0017411D01*
X0211890Y0017381D01*
X0211777Y0017411D01*
X0210709Y0017411D01*
X0210709Y0011004D01*
X0213071Y0011004D01*
X0213071Y0011004D01*
X0210798Y0011004D01*
X0210709Y0011004D01*
X0210709Y0011004D01*
X0210709Y0011004D01*
X0210709Y0017411D01*
X0209640Y0017411D01*
X0209528Y0017381D01*
X0209415Y0017411D01*
X0208347Y0017411D01*
X0208347Y0011004D01*
X0210709Y0011004D01*
X0210709Y0011004D01*
X0208435Y0011004D01*
X0208347Y0011004D01*
X0208347Y0011004D01*
X0208346Y0011004D01*
X0208346Y0011004D01*
X0205984Y0011004D01*
X0205984Y0011004D01*
X0203622Y0011004D01*
X0203622Y0017411D01*
X0202554Y0017411D01*
X0202441Y0017381D01*
X0202328Y0017411D01*
X0201260Y0017411D01*
X0201260Y0011004D01*
X0203622Y0011004D01*
X0203622Y0011004D01*
X0203622Y0011004D01*
X0203622Y0017411D01*
X0204691Y0017411D01*
X0204803Y0017381D01*
X0204916Y0017411D01*
X0205984Y0017411D01*
X0205984Y0011004D01*
X0205984Y0011004D01*
X0203711Y0011004D01*
X0203622Y0011004D01*
X0201349Y0011004D01*
X0201260Y0011004D01*
X0201260Y0011004D01*
X0201260Y0011004D01*
X0201260Y0017411D01*
X0200191Y0017411D01*
X0200079Y0017381D01*
X0199966Y0017411D01*
X0198898Y0017411D01*
X0198898Y0011004D01*
X0201260Y0011004D01*
X0201260Y0011004D01*
X0198987Y0011004D01*
X0198898Y0011004D01*
X0198898Y0011004D01*
X0198898Y0011004D01*
X0198898Y0017411D01*
X0197829Y0017411D01*
X0197717Y0017381D01*
X0197604Y0017411D01*
X0196535Y0017411D01*
X0195467Y0017411D01*
X0195354Y0017381D01*
X0195242Y0017411D01*
X0194173Y0017411D01*
X0193105Y0017411D01*
X0192992Y0017381D01*
X0192880Y0017411D01*
X0191811Y0017411D01*
X0190743Y0017411D01*
X0190630Y0017381D01*
X0190517Y0017411D01*
X0189449Y0017411D01*
X0189449Y0011004D01*
X0191811Y0011004D01*
X0191811Y0017411D01*
X0191811Y0011004D01*
X0191811Y0011004D01*
X0191811Y0011004D01*
X0194173Y0011004D01*
X0194173Y0011004D01*
X0194173Y0017411D01*
X0194173Y0011004D01*
X0194173Y0011004D01*
X0191900Y0011004D01*
X0191811Y0011004D01*
X0191811Y0011004D01*
X0191722Y0011004D01*
X0189449Y0011004D01*
X0189449Y0011004D01*
X0189449Y0011004D01*
X0189449Y0017411D01*
X0188380Y0017411D01*
X0188268Y0017381D01*
X0188155Y0017411D01*
X0187087Y0017411D01*
X0187087Y0011004D01*
X0189449Y0011004D01*
X0189449Y0011004D01*
X0187176Y0011004D01*
X0187087Y0011004D01*
X0187087Y0011004D01*
X0187087Y0011004D01*
X0187087Y0017411D01*
X0186018Y0017411D01*
X0185905Y0017381D01*
X0185793Y0017411D01*
X0184724Y0017411D01*
X0183656Y0017411D01*
X0183543Y0017381D01*
X0183431Y0017411D01*
X0182362Y0017411D01*
X0181294Y0017411D01*
X0181181Y0017381D01*
X0181068Y0017411D01*
X0180000Y0017411D01*
X0180000Y0011004D01*
X0180000Y0011004D01*
X0180000Y0017411D01*
X0178932Y0017411D01*
X0178819Y0017381D01*
X0178706Y0017411D01*
X0177638Y0017411D01*
X0177638Y0011004D01*
X0180000Y0011004D01*
X0182362Y0011004D01*
X0182362Y0011004D01*
X0182362Y0017411D01*
X0182362Y0011004D01*
X0182362Y0011004D01*
X0180089Y0011004D01*
X0180000Y0011004D01*
X0180000Y0011004D01*
X0180000Y0011004D01*
X0177727Y0011004D01*
X0177638Y0011004D01*
X0177638Y0011004D01*
X0177638Y0011004D01*
X0177638Y0017411D01*
X0176569Y0017411D01*
X0176457Y0017381D01*
X0176344Y0017411D01*
X0175276Y0017411D01*
X0175276Y0011004D01*
X0177638Y0011004D01*
X0177638Y0011004D01*
X0175365Y0011004D01*
X0175276Y0011004D01*
X0175276Y0011004D01*
X0175276Y0011004D01*
X0175276Y0017411D01*
X0174207Y0017411D01*
X0174094Y0017381D01*
X0173982Y0017411D01*
X0172913Y0017411D01*
X0171845Y0017411D01*
X0171732Y0017381D01*
X0171620Y0017411D01*
X0170551Y0017411D01*
X0169483Y0017411D01*
X0169370Y0017381D01*
X0169257Y0017411D01*
X0168189Y0017411D01*
X0168189Y0011004D01*
X0168189Y0011004D01*
X0170551Y0011004D01*
X0170551Y0011004D01*
X0170551Y0017411D01*
X0170551Y0011004D01*
X0170551Y0011004D01*
X0168278Y0011004D01*
X0168189Y0011004D01*
X0168189Y0011004D01*
X0168189Y0017411D01*
X0167120Y0017411D01*
X0167008Y0017381D01*
X0166895Y0017411D01*
X0165827Y0017411D01*
X0165827Y0011004D01*
X0168189Y0011004D01*
X0168189Y0011004D01*
X0165916Y0011004D01*
X0165827Y0011004D01*
X0165827Y0011004D01*
X0165827Y0011004D01*
X0165827Y0017411D01*
X0164758Y0017411D01*
X0164646Y0017381D01*
X0164533Y0017411D01*
X0163465Y0017411D01*
X0163465Y0011004D01*
X0165827Y0011004D01*
X0165827Y0011004D01*
X0163554Y0011004D01*
X0163465Y0011004D01*
X0163465Y0011004D01*
X0163464Y0011004D01*
X0163464Y0011004D01*
X0161102Y0011004D01*
X0161102Y0011004D01*
X0158740Y0011004D01*
X0158740Y0011004D01*
X0156378Y0011004D01*
X0156378Y0011004D01*
X0156378Y0017411D01*
X0157446Y0017411D01*
X0157559Y0017381D01*
X0157672Y0017411D01*
X0158740Y0017411D01*
X0158740Y0011004D01*
X0158740Y0011004D01*
X0158651Y0011004D01*
X0156378Y0011004D01*
X0156378Y0011004D01*
X0156378Y0017411D01*
X0155309Y0017411D01*
X0155197Y0017381D01*
X0155084Y0017411D01*
X0154016Y0017411D01*
X0154016Y0011004D01*
X0156378Y0011004D01*
X0156378Y0011004D01*
X0156289Y0011004D01*
X0154016Y0011004D01*
X0154016Y0011004D01*
X0154016Y0011004D01*
X0154016Y0017411D01*
X0152947Y0017411D01*
X0152835Y0017381D01*
X0152722Y0017411D01*
X0151654Y0017411D01*
X0151654Y0011004D01*
X0154016Y0011004D01*
X0154016Y0011004D01*
X0151743Y0011004D01*
X0151654Y0011004D01*
X0151654Y0011004D01*
X0151653Y0011004D01*
X0151653Y0011004D01*
X0149291Y0011004D01*
X0149291Y0011004D01*
X0146929Y0011004D01*
X0146929Y0011004D01*
X0144567Y0011004D01*
X0144567Y0011004D01*
X0144567Y0011004D01*
X0144567Y0017411D01*
X0145635Y0017411D01*
X0145748Y0017381D01*
X0145861Y0017411D01*
X0146929Y0017411D01*
X0146929Y0011004D01*
X0146929Y0011004D01*
X0144656Y0011004D01*
X0144567Y0011004D01*
X0144567Y0017411D01*
X0143498Y0017411D01*
X0143386Y0017381D01*
X0143273Y0017411D01*
X0142205Y0017411D01*
X0142205Y0011004D01*
X0144567Y0011004D01*
X0144567Y0011004D01*
X0142294Y0011004D01*
X0142205Y0011004D01*
X0142205Y0011004D01*
X0142205Y0011004D01*
X0142205Y0017411D01*
X0141136Y0017411D01*
X0141024Y0017381D01*
X0140911Y0017411D01*
X0139843Y0017411D01*
X0139843Y0011004D01*
X0142205Y0011004D01*
X0142205Y0011004D01*
X0139931Y0011004D01*
X0139843Y0011004D01*
X0139843Y0011004D01*
X0139842Y0011004D01*
X0139842Y0011004D01*
X0137480Y0011004D01*
X0137480Y0011004D01*
X0135118Y0011004D01*
X0135118Y0011004D01*
X0135207Y0011004D01*
X0137480Y0011004D01*
X0137480Y0017411D01*
X0136468Y0017411D01*
X0152297Y0033239D01*
X0213978Y0033239D01*
X0215027Y0034288D01*
X0215425Y0034686D01*
X0216474Y0035735D01*
X0216474Y0039325D01*
X0214004Y0041795D01*
X0214004Y0042208D01*
X0180554Y0075658D01*
X0180595Y0075759D01*
X0180595Y0076741D01*
X0180219Y0077649D01*
X0179524Y0078344D01*
X0178616Y0078720D01*
X0177634Y0078720D01*
X0176726Y0078344D01*
X0176031Y0077649D01*
X0175695Y0076837D01*
X0171791Y0080742D01*
X0170742Y0081791D01*
X0116130Y0081791D01*
X0116220Y0082009D01*
X0116220Y0082991D01*
X0115844Y0083899D01*
X0115149Y0084594D01*
X0114241Y0084970D01*
X0113873Y0084970D01*
X0103666Y0095715D01*
X0103666Y0095742D01*
X0103157Y0096250D01*
X0102662Y0096771D01*
X0102636Y0096772D01*
X0102617Y0096791D01*
X0101898Y0096791D01*
X0101179Y0096809D01*
X0101160Y0096791D01*
X0094492Y0096791D01*
X0076367Y0114916D01*
X0054828Y0114916D01*
X0054524Y0115219D01*
X0053616Y0115595D01*
X0052634Y0115595D01*
X0051726Y0115219D01*
X0051031Y0114524D01*
X0050655Y0113616D01*
X0050655Y0112634D01*
X0051031Y0111726D01*
X0051726Y0111031D01*
X0052634Y0110655D01*
X0053616Y0110655D01*
X0054524Y0111031D01*
X0054828Y0111334D01*
X0074883Y0111334D01*
X0093008Y0093209D01*
X0101106Y0093209D01*
X0111280Y0082500D01*
X0111280Y0082009D01*
X0111370Y0081791D01*
X0102617Y0081791D01*
X0099345Y0085062D01*
X0099345Y0085491D01*
X0098969Y0086399D01*
X0098274Y0087094D01*
X0097366Y0087470D01*
X0096384Y0087470D01*
X0095476Y0087094D01*
X0095128Y0086747D01*
X0094965Y0086910D01*
X0094057Y0087286D01*
X0093075Y0087286D01*
X0092167Y0086910D01*
X0091819Y0086562D01*
X0091656Y0086726D01*
X0090748Y0087102D01*
X0089765Y0087102D01*
X0088858Y0086726D01*
X0088163Y0086031D01*
X0087787Y0085123D01*
X0087787Y0084140D01*
X0088163Y0083233D01*
X0088167Y0083229D01*
X0087819Y0082881D01*
X0087741Y0082693D01*
X0083019Y0087416D01*
X0081703Y0087416D01*
X0081399Y0087719D01*
X0080491Y0088095D01*
X0079509Y0088095D01*
X0078601Y0087719D01*
X0077957Y0087075D01*
X0076992Y0088041D01*
X0075935Y0088041D01*
X0075632Y0088344D01*
X0074724Y0088720D01*
X0073741Y0088720D01*
X0072833Y0088344D01*
X0072139Y0087649D01*
X0071763Y0086741D01*
X0071763Y0085759D01*
X0072139Y0084851D01*
X0072833Y0084156D01*
X0073741Y0083780D01*
X0074724Y0083780D01*
X0075632Y0084156D01*
X0075709Y0084234D01*
X0075709Y0082241D01*
X0075739Y0082211D01*
X0075739Y0080711D01*
X0087935Y0068515D01*
X0088984Y0067466D01*
X0163847Y0067466D01*
X0194493Y0036820D01*
X0150813Y0036820D01*
X0149764Y0035772D01*
X0132184Y0018191D01*
X0132184Y0055348D01*
X0124247Y0063286D01*
X0124247Y0064107D01*
X0122857Y0065497D01*
X0120893Y0065497D01*
X0119503Y0064107D01*
X0119503Y0062143D01*
X0120893Y0060753D01*
X0121714Y0060753D01*
X0128603Y0053865D01*
X0128603Y0039554D01*
X0125117Y0043041D01*
X0124063Y0043041D01*
X0123368Y0043736D01*
X0121403Y0043736D01*
X0120014Y0042347D01*
X0120014Y0040382D01*
X0120708Y0039687D01*
X0120128Y0039107D01*
X0120128Y0037143D01*
X0121518Y0035753D01*
X0122339Y0035753D01*
X0123879Y0034214D01*
X0123879Y0032974D01*
X0117997Y0038378D01*
X0117997Y0039107D01*
X0116607Y0040497D01*
X0114643Y0040497D01*
X0113253Y0039107D01*
X0113253Y0037143D01*
X0114643Y0035753D01*
X0115560Y0035753D01*
X0121517Y0030281D01*
X0121517Y0017411D01*
X0120945Y0017411D01*
X0120945Y0011004D01*
X0120945Y0011004D01*
X0120945Y0017411D01*
X0119876Y0017411D01*
X0119764Y0017381D01*
X0119651Y0017411D01*
X0118583Y0017411D01*
X0118583Y0011004D01*
X0120945Y0011004D01*
X0120945Y0011004D01*
X0118672Y0011004D01*
X0118583Y0011004D01*
X0118583Y0011004D01*
X0118583Y0011004D01*
X0118583Y0017411D01*
X0117514Y0017411D01*
X0117232Y0017335D01*
X0117076Y0017490D01*
X0117076Y0022628D01*
X0117459Y0022628D01*
X0118848Y0024018D01*
X0118848Y0025982D01*
X0117459Y0027372D01*
X0115494Y0027372D01*
X0115000Y0026878D01*
X0114506Y0027372D01*
X0112943Y0027372D01*
X0112943Y0034590D01*
X0112218Y0035314D01*
X0111220Y0036606D01*
X0111220Y0037366D01*
X0110844Y0038274D01*
X0110149Y0038969D01*
X0109241Y0039345D01*
X0108259Y0039345D01*
X0107351Y0038969D01*
X0106656Y0038274D01*
X0106280Y0037366D01*
X0106280Y0036384D01*
X0106656Y0035476D01*
X0107351Y0034781D01*
X0108259Y0034405D01*
X0108395Y0034405D01*
X0109081Y0033518D01*
X0109081Y0033387D01*
X0109361Y0033106D01*
X0109361Y0023276D01*
X0109706Y0022932D01*
X0109706Y0017411D01*
X0109134Y0017411D01*
X0109134Y0011004D01*
X0109134Y0011004D01*
X0109134Y0017411D01*
X0108065Y0017411D01*
X0107953Y0017381D01*
X0107840Y0017411D01*
X0106772Y0017411D01*
X0106772Y0011004D01*
X0109134Y0011004D01*
X0109134Y0011004D01*
X0109045Y0011004D01*
X0106772Y0011004D01*
X0106772Y0011004D01*
X0106772Y0011004D01*
X0106772Y0017411D01*
X0105703Y0017411D01*
X0105591Y0017381D01*
X0105478Y0017411D01*
X0104409Y0017411D01*
X0103341Y0017411D01*
X0103228Y0017381D01*
X0103116Y0017411D01*
X0102047Y0017411D01*
X0100979Y0017411D01*
X0100866Y0017381D01*
X0100754Y0017411D01*
X0099685Y0017411D01*
X0098617Y0017411D01*
X0098504Y0017381D01*
X0098391Y0017411D01*
X0097323Y0017411D01*
X0097323Y0011004D01*
X0099685Y0011004D01*
X0099685Y0017411D01*
X0099685Y0011004D01*
X0099685Y0011004D01*
X0099685Y0011004D01*
X0102047Y0011004D01*
X0102047Y0011004D01*
X0102047Y0017411D01*
X0102047Y0011004D01*
X0102047Y0011004D01*
X0099774Y0011004D01*
X0099685Y0011004D01*
X0099685Y0011004D01*
X0097412Y0011004D01*
X0097323Y0011004D01*
X0097323Y0011004D01*
X0097323Y0011004D01*
X0097323Y0017411D01*
X0096254Y0017411D01*
X0096142Y0017381D01*
X0096029Y0017411D01*
X0094961Y0017411D01*
X0094961Y0011004D01*
X0097323Y0011004D01*
X0097323Y0011004D01*
X0095050Y0011004D01*
X0094961Y0011004D01*
X0094961Y0011004D01*
X0094961Y0011004D01*
X0094961Y0017411D01*
X0093892Y0017411D01*
X0093780Y0017381D01*
X0093667Y0017411D01*
X0092598Y0017411D01*
X0091530Y0017411D01*
X0091417Y0017381D01*
X0091305Y0017411D01*
X0090236Y0017411D01*
X0089168Y0017411D01*
X0089055Y0017381D01*
X0088942Y0017411D01*
X0087874Y0017411D01*
X0086806Y0017411D01*
X0086693Y0017381D01*
X0086580Y0017411D01*
X0085512Y0017411D01*
X0085512Y0011004D01*
X0087874Y0011004D01*
X0087874Y0017411D01*
X0087874Y0011004D01*
X0087874Y0011004D01*
X0087874Y0011004D01*
X0090236Y0011004D01*
X0090236Y0011004D01*
X0090236Y0017411D01*
X0090236Y0011004D01*
X0090236Y0011004D01*
X0090147Y0011004D01*
X0087874Y0011004D01*
X0087874Y0011004D01*
X0085601Y0011004D01*
X0085512Y0011004D01*
X0085512Y0011004D01*
X0085512Y0011004D01*
X0085512Y0017411D01*
X0084443Y0017411D01*
X0084331Y0017381D01*
X0084218Y0017411D01*
X0083150Y0017411D01*
X0083150Y0011004D01*
X0085512Y0011004D01*
X0085512Y0011004D01*
X0083239Y0011004D01*
X0083150Y0011004D01*
X0083150Y0011004D01*
X0083150Y0011004D01*
X0083150Y0017411D01*
X0082081Y0017411D01*
X0081968Y0017381D01*
X0081856Y0017411D01*
X0080787Y0017411D01*
X0079719Y0017411D01*
X0079606Y0017381D01*
X0079494Y0017411D01*
X0078425Y0017411D01*
X0077357Y0017411D01*
X0077244Y0017381D01*
X0077131Y0017411D01*
X0076063Y0017411D01*
X0076063Y0011004D01*
X0076063Y0011004D01*
X0076063Y0017411D01*
X0074995Y0017411D01*
X0074642Y0017316D01*
X0074325Y0017134D01*
X0074067Y0016876D01*
X0073884Y0016559D01*
X0073790Y0016206D01*
X0073790Y0011004D01*
X0076063Y0011004D01*
X0078425Y0011004D01*
X0078425Y0011004D01*
X0078425Y0017411D01*
X0078425Y0011004D01*
X0078425Y0011004D01*
X0076152Y0011004D01*
X0076063Y0011004D01*
X0076063Y0011004D01*
X0076063Y0011004D01*
X0073790Y0011004D01*
X0073790Y0007031D01*
X0069630Y0007031D01*
X0069630Y0019851D01*
X0068558Y0021707D01*
X0068558Y0021707D01*
X0068558Y0021707D01*
X0066702Y0022779D01*
X0064558Y0022779D01*
X0062702Y0021707D01*
X0061630Y0019851D01*
X0061630Y0016691D01*
X0061524Y0016876D01*
X0061265Y0017134D01*
X0060949Y0017316D01*
X0060596Y0017411D01*
X0059528Y0017411D01*
X0059528Y0011004D01*
X0059527Y0011004D01*
X0059527Y0011004D01*
X0057165Y0011004D01*
X0057165Y0011004D01*
X0054803Y0011004D01*
X0054803Y0011004D01*
X0052441Y0011004D01*
X0052441Y0011004D01*
X0052441Y0017411D01*
X0053509Y0017411D01*
X0053622Y0017381D01*
X0053735Y0017411D01*
X0054803Y0017411D01*
X0054803Y0011004D01*
X0054803Y0011004D01*
X0052530Y0011004D01*
X0052441Y0011004D01*
X0052441Y0011004D01*
X0052441Y0017411D01*
X0051372Y0017411D01*
X0051260Y0017381D01*
X0051147Y0017411D01*
X0050079Y0017411D01*
X0050079Y0011004D01*
X0052441Y0011004D01*
X0052441Y0011004D01*
X0050168Y0011004D01*
X0050079Y0011004D01*
X0050079Y0011004D01*
X0050079Y0011004D01*
X0050079Y0017411D01*
X0049010Y0017411D01*
X0048898Y0017381D01*
X0048785Y0017411D01*
X0047717Y0017411D01*
X0047717Y0011004D01*
X0050079Y0011004D01*
X0050079Y0011004D01*
X0047806Y0011004D01*
X0047717Y0011004D01*
X0047717Y0011004D01*
X0047716Y0011004D01*
X0047716Y0011004D01*
X0045354Y0011004D01*
X0045354Y0011004D01*
X0042992Y0011004D01*
X0042992Y0011004D01*
X0040630Y0011004D01*
X0040630Y0011004D01*
X0040630Y0011004D01*
X0040630Y0017411D01*
X0041698Y0017411D01*
X0041811Y0017381D01*
X0041924Y0017411D01*
X0042992Y0017411D01*
X0042992Y0011004D01*
X0042992Y0011004D01*
X0042903Y0011004D01*
X0040630Y0011004D01*
X0040630Y0017411D01*
X0039561Y0017411D01*
X0039449Y0017381D01*
X0039336Y0017411D01*
X0038268Y0017411D01*
X0038268Y0011004D01*
X0040630Y0011004D01*
X0040630Y0011004D01*
X0038357Y0011004D01*
X0038268Y0011004D01*
X0038268Y0011004D01*
X0038268Y0011004D01*
X0038268Y0017411D01*
X0037199Y0017411D01*
X0037087Y0017381D01*
X0036974Y0017411D01*
X0035906Y0017411D01*
X0035906Y0011004D01*
X0038268Y0011004D01*
X0038268Y0011004D01*
X0035994Y0011004D01*
X0035906Y0011004D01*
X0035906Y0011004D01*
X0035905Y0011004D01*
X0035905Y0011004D01*
X0033543Y0011004D01*
X0033543Y0011004D01*
X0031181Y0011004D01*
X0031181Y0011004D01*
X0028819Y0011004D01*
X0028819Y0011004D01*
X0028819Y0011004D01*
X0028819Y0017411D01*
X0029887Y0017411D01*
X0030000Y0017381D01*
X0030113Y0017411D01*
X0031181Y0017411D01*
X0031181Y0011004D01*
X0031181Y0011004D01*
X0028908Y0011004D01*
X0028819Y0011004D01*
X0028819Y0017411D01*
X0027750Y0017411D01*
X0027638Y0017381D01*
X0027525Y0017411D01*
X0026457Y0017411D01*
X0026457Y0011004D01*
X0028819Y0011004D01*
X0028819Y0011004D01*
X0026546Y0011004D01*
X0026457Y0011004D01*
X0026457Y0011004D01*
X0026457Y0011004D01*
X0026457Y0017411D01*
X0025388Y0017411D01*
X0025276Y0017381D01*
X0025163Y0017411D01*
X0024095Y0017411D01*
X0024095Y0011004D01*
X0026457Y0011004D01*
X0026457Y0011004D01*
X0026368Y0011004D01*
X0024095Y0011004D01*
X0024095Y0011004D01*
X0024094Y0011004D01*
X0024094Y0011004D01*
X0021732Y0011004D01*
X0021732Y0011004D01*
X0019370Y0011004D01*
X0019370Y0017411D01*
X0018302Y0017411D01*
X0018189Y0017381D01*
X0018076Y0017411D01*
X0017008Y0017411D01*
X0017008Y0011004D01*
X0019370Y0011004D01*
X0019370Y0011004D01*
X0019370Y0011004D01*
X0019370Y0017411D01*
X0020439Y0017411D01*
X0020551Y0017381D01*
X0020664Y0017411D01*
X0021732Y0017411D01*
X0021732Y0011004D01*
X0019459Y0011004D01*
X0019370Y0011004D01*
X0017097Y0011004D01*
X0017008Y0011004D01*
X0017008Y0011004D01*
X0017008Y0011004D01*
X0017008Y0017411D01*
X0015939Y0017411D01*
X0015827Y0017381D01*
X0015714Y0017411D01*
X0014646Y0017411D01*
X0014646Y0011004D01*
X0017008Y0011004D01*
X0017008Y0011004D01*
X0014735Y0011004D01*
X0014646Y0011004D01*
X0014646Y0011004D01*
X0014646Y0011004D01*
X0014646Y0017411D01*
X0013577Y0017411D01*
X0013224Y0017316D01*
X0012908Y0017134D01*
X0012650Y0016876D01*
X0012467Y0016559D01*
X0012372Y0016206D01*
X0012372Y0011004D01*
X0014646Y0011004D01*
X0014646Y0011004D01*
X0012372Y0011004D01*
X0012372Y0007031D01*
X0007031Y0007031D01*
X0007031Y0007397D02*
X0012372Y0007397D01*
X0012372Y0008596D02*
X0007031Y0008596D01*
X0007031Y0009794D02*
X0012372Y0009794D01*
X0012372Y0010993D02*
X0007031Y0010993D01*
X0007031Y0012191D02*
X0012372Y0012191D01*
X0012372Y0013390D02*
X0007031Y0013390D01*
X0007031Y0014588D02*
X0012372Y0014588D01*
X0012372Y0015787D02*
X0007031Y0015787D01*
X0007031Y0016985D02*
X0012759Y0016985D01*
X0014646Y0016985D02*
X0014646Y0016985D01*
X0014646Y0015787D02*
X0014646Y0015787D01*
X0014646Y0014588D02*
X0014646Y0014588D01*
X0014646Y0013390D02*
X0014646Y0013390D01*
X0014646Y0012191D02*
X0014646Y0012191D01*
X0017008Y0012191D02*
X0017008Y0012191D01*
X0017008Y0013390D02*
X0017008Y0013390D01*
X0017008Y0014588D02*
X0017008Y0014588D01*
X0017008Y0015787D02*
X0017008Y0015787D01*
X0017008Y0016985D02*
X0017008Y0016985D01*
X0019370Y0016985D02*
X0019370Y0016985D01*
X0019370Y0015787D02*
X0019370Y0015787D01*
X0019370Y0014588D02*
X0019370Y0014588D01*
X0019370Y0013390D02*
X0019370Y0013390D01*
X0019370Y0012191D02*
X0019370Y0012191D01*
X0019370Y0011004D02*
X0019370Y0011004D01*
X0021732Y0011004D02*
X0021732Y0011004D01*
X0021732Y0017411D01*
X0022801Y0017411D01*
X0022913Y0017381D01*
X0023026Y0017411D01*
X0024094Y0017411D01*
X0024094Y0011004D01*
X0021821Y0011004D01*
X0021732Y0011004D01*
X0021732Y0011004D01*
X0021732Y0012191D02*
X0021732Y0012191D01*
X0021732Y0013390D02*
X0021732Y0013390D01*
X0021732Y0014588D02*
X0021732Y0014588D01*
X0021732Y0015787D02*
X0021732Y0015787D01*
X0021732Y0016985D02*
X0021732Y0016985D01*
X0024094Y0016985D02*
X0024095Y0016985D01*
X0024094Y0015787D02*
X0024095Y0015787D01*
X0024094Y0014588D02*
X0024095Y0014588D01*
X0024094Y0013390D02*
X0024095Y0013390D01*
X0024094Y0012191D02*
X0024095Y0012191D01*
X0026457Y0012191D02*
X0026457Y0012191D01*
X0026457Y0013390D02*
X0026457Y0013390D01*
X0026457Y0014588D02*
X0026457Y0014588D01*
X0026457Y0015787D02*
X0026457Y0015787D01*
X0026457Y0016985D02*
X0026457Y0016985D01*
X0028819Y0016985D02*
X0028819Y0016985D01*
X0028819Y0015787D02*
X0028819Y0015787D01*
X0028819Y0014588D02*
X0028819Y0014588D01*
X0028819Y0013390D02*
X0028819Y0013390D01*
X0028819Y0012191D02*
X0028819Y0012191D01*
X0031181Y0012191D02*
X0031181Y0012191D01*
X0031181Y0011004D02*
X0031181Y0017411D01*
X0032250Y0017411D01*
X0032362Y0017381D01*
X0032475Y0017411D01*
X0033543Y0017411D01*
X0033543Y0011004D01*
X0031270Y0011004D01*
X0031181Y0011004D01*
X0031181Y0011004D01*
X0033543Y0011004D02*
X0033543Y0011004D01*
X0033543Y0017411D01*
X0034612Y0017411D01*
X0034724Y0017381D01*
X0034837Y0017411D01*
X0035905Y0017411D01*
X0035905Y0011004D01*
X0033632Y0011004D01*
X0033543Y0011004D01*
X0033543Y0011004D01*
X0033543Y0012191D02*
X0033543Y0012191D01*
X0033543Y0013390D02*
X0033543Y0013390D01*
X0033543Y0014588D02*
X0033543Y0014588D01*
X0033543Y0015787D02*
X0033543Y0015787D01*
X0033543Y0016985D02*
X0033543Y0016985D01*
X0031181Y0016985D02*
X0031181Y0016985D01*
X0031181Y0015787D02*
X0031181Y0015787D01*
X0031181Y0014588D02*
X0031181Y0014588D01*
X0031181Y0013390D02*
X0031181Y0013390D01*
X0035905Y0013390D02*
X0035906Y0013390D01*
X0035905Y0014588D02*
X0035906Y0014588D01*
X0035905Y0015787D02*
X0035906Y0015787D01*
X0035905Y0016985D02*
X0035906Y0016985D01*
X0038268Y0016985D02*
X0038268Y0016985D01*
X0038268Y0015787D02*
X0038268Y0015787D01*
X0038268Y0014588D02*
X0038268Y0014588D01*
X0038268Y0013390D02*
X0038268Y0013390D01*
X0038268Y0012191D02*
X0038268Y0012191D01*
X0040630Y0012191D02*
X0040630Y0012191D01*
X0040630Y0013390D02*
X0040630Y0013390D01*
X0040630Y0014588D02*
X0040630Y0014588D01*
X0040630Y0015787D02*
X0040630Y0015787D01*
X0040630Y0016985D02*
X0040630Y0016985D01*
X0042992Y0016985D02*
X0042992Y0016985D01*
X0042992Y0017411D02*
X0042992Y0011004D01*
X0042992Y0011004D01*
X0043081Y0011004D01*
X0045354Y0011004D01*
X0045354Y0017411D01*
X0044286Y0017411D01*
X0044173Y0017381D01*
X0044061Y0017411D01*
X0042992Y0017411D01*
X0045354Y0017411D02*
X0045354Y0011004D01*
X0045354Y0011004D01*
X0045354Y0011004D01*
X0045443Y0011004D01*
X0047716Y0011004D01*
X0047716Y0017411D01*
X0046648Y0017411D01*
X0046535Y0017381D01*
X0046423Y0017411D01*
X0045354Y0017411D01*
X0045354Y0016985D02*
X0045354Y0016985D01*
X0045354Y0015787D02*
X0045354Y0015787D01*
X0045354Y0014588D02*
X0045354Y0014588D01*
X0045354Y0013390D02*
X0045354Y0013390D01*
X0045354Y0012191D02*
X0045354Y0012191D01*
X0042992Y0012191D02*
X0042992Y0012191D01*
X0042992Y0013390D02*
X0042992Y0013390D01*
X0042992Y0014588D02*
X0042992Y0014588D01*
X0042992Y0015787D02*
X0042992Y0015787D01*
X0047716Y0015787D02*
X0047717Y0015787D01*
X0047716Y0016985D02*
X0047717Y0016985D01*
X0050079Y0016985D02*
X0050079Y0016985D01*
X0050079Y0015787D02*
X0050079Y0015787D01*
X0050079Y0014588D02*
X0050079Y0014588D01*
X0050079Y0013390D02*
X0050079Y0013390D01*
X0050079Y0012191D02*
X0050079Y0012191D01*
X0052441Y0012191D02*
X0052441Y0012191D01*
X0052441Y0013390D02*
X0052441Y0013390D01*
X0052441Y0014588D02*
X0052441Y0014588D01*
X0052441Y0015787D02*
X0052441Y0015787D01*
X0052441Y0016985D02*
X0052441Y0016985D01*
X0054803Y0016985D02*
X0054803Y0016985D01*
X0054803Y0017411D02*
X0054803Y0011004D01*
X0054803Y0011004D01*
X0054892Y0011004D01*
X0057165Y0011004D01*
X0057165Y0017411D01*
X0056097Y0017411D01*
X0055984Y0017381D01*
X0055872Y0017411D01*
X0054803Y0017411D01*
X0057165Y0017411D02*
X0057165Y0011004D01*
X0057165Y0011004D01*
X0057165Y0011004D01*
X0059439Y0011004D01*
X0059527Y0011004D01*
X0059527Y0017411D01*
X0058459Y0017411D01*
X0058346Y0017381D01*
X0058234Y0017411D01*
X0057165Y0017411D01*
X0057165Y0016985D02*
X0057165Y0016985D01*
X0057165Y0015787D02*
X0057165Y0015787D01*
X0057165Y0014588D02*
X0057165Y0014588D01*
X0057165Y0013390D02*
X0057165Y0013390D01*
X0057165Y0012191D02*
X0057165Y0012191D01*
X0054803Y0012191D02*
X0054803Y0012191D01*
X0054803Y0013390D02*
X0054803Y0013390D01*
X0054803Y0014588D02*
X0054803Y0014588D01*
X0054803Y0015787D02*
X0054803Y0015787D01*
X0059527Y0015787D02*
X0059528Y0015787D01*
X0059527Y0016985D02*
X0059528Y0016985D01*
X0061414Y0016985D02*
X0061630Y0016985D01*
X0061630Y0018184D02*
X0007031Y0018184D01*
X0007031Y0019382D02*
X0061630Y0019382D01*
X0062051Y0020581D02*
X0007031Y0020581D01*
X0007031Y0021779D02*
X0062826Y0021779D01*
X0062702Y0021707D02*
X0062702Y0021707D01*
X0062702Y0021707D01*
X0068434Y0021779D02*
X0109706Y0021779D01*
X0109706Y0020581D02*
X0069208Y0020581D01*
X0069630Y0019382D02*
X0109706Y0019382D01*
X0109706Y0018184D02*
X0069630Y0018184D01*
X0069630Y0016985D02*
X0074177Y0016985D01*
X0073790Y0015787D02*
X0069630Y0015787D01*
X0069630Y0014588D02*
X0073790Y0014588D01*
X0073790Y0013390D02*
X0069630Y0013390D01*
X0069630Y0012191D02*
X0073790Y0012191D01*
X0073790Y0010993D02*
X0069630Y0010993D01*
X0069630Y0009794D02*
X0073790Y0009794D01*
X0073790Y0008596D02*
X0069630Y0008596D01*
X0069630Y0007397D02*
X0073790Y0007397D01*
X0078425Y0011004D02*
X0078425Y0011004D01*
X0080787Y0011004D01*
X0080787Y0011004D01*
X0078514Y0011004D01*
X0078425Y0011004D01*
X0078425Y0012191D02*
X0078425Y0012191D01*
X0078425Y0013390D02*
X0078425Y0013390D01*
X0078425Y0014588D02*
X0078425Y0014588D01*
X0078425Y0015787D02*
X0078425Y0015787D01*
X0078425Y0016985D02*
X0078425Y0016985D01*
X0076063Y0016985D02*
X0076063Y0016985D01*
X0076063Y0015787D02*
X0076063Y0015787D01*
X0076063Y0014588D02*
X0076063Y0014588D01*
X0076063Y0013390D02*
X0076063Y0013390D01*
X0076063Y0012191D02*
X0076063Y0012191D01*
X0080787Y0012191D02*
X0080787Y0012191D01*
X0080787Y0011004D02*
X0080787Y0017411D01*
X0080787Y0011004D01*
X0080787Y0011004D01*
X0080788Y0011004D02*
X0083149Y0011004D01*
X0083149Y0011004D01*
X0080876Y0011004D01*
X0080788Y0011004D01*
X0080788Y0011004D01*
X0083150Y0012191D02*
X0083150Y0012191D01*
X0083150Y0013390D02*
X0083150Y0013390D01*
X0083150Y0014588D02*
X0083150Y0014588D01*
X0083150Y0015787D02*
X0083150Y0015787D01*
X0083150Y0016985D02*
X0083150Y0016985D01*
X0085512Y0016985D02*
X0085512Y0016985D01*
X0085512Y0015787D02*
X0085512Y0015787D01*
X0085512Y0014588D02*
X0085512Y0014588D01*
X0085512Y0013390D02*
X0085512Y0013390D01*
X0085512Y0012191D02*
X0085512Y0012191D01*
X0087874Y0012191D02*
X0087874Y0012191D01*
X0087874Y0013390D02*
X0087874Y0013390D01*
X0087874Y0014588D02*
X0087874Y0014588D01*
X0087874Y0015787D02*
X0087874Y0015787D01*
X0087874Y0016985D02*
X0087874Y0016985D01*
X0090236Y0016985D02*
X0090236Y0016985D01*
X0090236Y0015787D02*
X0090236Y0015787D01*
X0090236Y0014588D02*
X0090236Y0014588D01*
X0090236Y0013390D02*
X0090236Y0013390D01*
X0090236Y0012191D02*
X0090236Y0012191D01*
X0090236Y0011004D02*
X0092598Y0011004D01*
X0092598Y0011004D01*
X0092509Y0011004D01*
X0090236Y0011004D01*
X0090236Y0011004D01*
X0092598Y0011004D02*
X0092598Y0017411D01*
X0092598Y0011004D01*
X0092598Y0011004D01*
X0092599Y0011004D02*
X0094960Y0011004D01*
X0094960Y0011004D01*
X0092687Y0011004D01*
X0092599Y0011004D01*
X0092599Y0011004D01*
X0092598Y0012191D02*
X0092598Y0012191D01*
X0092598Y0013390D02*
X0092598Y0013390D01*
X0092598Y0014588D02*
X0092598Y0014588D01*
X0092598Y0015787D02*
X0092598Y0015787D01*
X0092598Y0016985D02*
X0092598Y0016985D01*
X0094961Y0016985D02*
X0094961Y0016985D01*
X0094961Y0015787D02*
X0094961Y0015787D01*
X0094961Y0014588D02*
X0094961Y0014588D01*
X0094961Y0013390D02*
X0094961Y0013390D01*
X0094961Y0012191D02*
X0094961Y0012191D01*
X0097323Y0012191D02*
X0097323Y0012191D01*
X0097323Y0013390D02*
X0097323Y0013390D01*
X0097323Y0014588D02*
X0097323Y0014588D01*
X0097323Y0015787D02*
X0097323Y0015787D01*
X0097323Y0016985D02*
X0097323Y0016985D01*
X0099685Y0016985D02*
X0099685Y0016985D01*
X0099685Y0015787D02*
X0099685Y0015787D01*
X0099685Y0014588D02*
X0099685Y0014588D01*
X0099685Y0013390D02*
X0099685Y0013390D01*
X0099685Y0012191D02*
X0099685Y0012191D01*
X0102047Y0012191D02*
X0102047Y0012191D01*
X0102047Y0011004D02*
X0104409Y0011004D01*
X0104409Y0011004D01*
X0102136Y0011004D01*
X0102047Y0011004D01*
X0102047Y0011004D01*
X0104409Y0011004D02*
X0104409Y0017411D01*
X0104409Y0011004D01*
X0104409Y0011004D01*
X0104410Y0011004D02*
X0106772Y0011004D01*
X0106772Y0011004D01*
X0104498Y0011004D01*
X0104410Y0011004D01*
X0104410Y0011004D01*
X0104409Y0012191D02*
X0104409Y0012191D01*
X0104409Y0013390D02*
X0104409Y0013390D01*
X0104409Y0014588D02*
X0104409Y0014588D01*
X0104409Y0015787D02*
X0104409Y0015787D01*
X0104409Y0016985D02*
X0104409Y0016985D01*
X0102047Y0016985D02*
X0102047Y0016985D01*
X0102047Y0015787D02*
X0102047Y0015787D01*
X0102047Y0014588D02*
X0102047Y0014588D01*
X0102047Y0013390D02*
X0102047Y0013390D01*
X0106772Y0013390D02*
X0106772Y0013390D01*
X0106772Y0014588D02*
X0106772Y0014588D01*
X0106772Y0015787D02*
X0106772Y0015787D01*
X0106772Y0016985D02*
X0106772Y0016985D01*
X0109134Y0016985D02*
X0109134Y0016985D01*
X0109134Y0015787D02*
X0109134Y0015787D01*
X0109134Y0014588D02*
X0109134Y0014588D01*
X0109134Y0013390D02*
X0109134Y0013390D01*
X0109134Y0012191D02*
X0109134Y0012191D01*
X0106772Y0012191D02*
X0106772Y0012191D01*
X0111496Y0011004D02*
X0111496Y0023674D01*
X0111152Y0024018D01*
X0111152Y0033848D01*
X0110871Y0034129D01*
X0108750Y0036875D01*
X0110560Y0038558D02*
X0113253Y0038558D01*
X0113253Y0037360D02*
X0111220Y0037360D01*
X0111564Y0036161D02*
X0114235Y0036161D01*
X0112569Y0034963D02*
X0116421Y0034963D01*
X0117725Y0033764D02*
X0112943Y0033764D01*
X0112943Y0032566D02*
X0119030Y0032566D01*
X0120334Y0031367D02*
X0112943Y0031367D01*
X0112943Y0030169D02*
X0121517Y0030169D01*
X0121517Y0028970D02*
X0112943Y0028970D01*
X0112943Y0027772D02*
X0121517Y0027772D01*
X0121517Y0026573D02*
X0118257Y0026573D01*
X0118848Y0025375D02*
X0121517Y0025375D01*
X0121517Y0024176D02*
X0118848Y0024176D01*
X0117808Y0022978D02*
X0121517Y0022978D01*
X0121517Y0021779D02*
X0117076Y0021779D01*
X0117076Y0020581D02*
X0121517Y0020581D01*
X0121517Y0019382D02*
X0117076Y0019382D01*
X0117076Y0018184D02*
X0121517Y0018184D01*
X0120945Y0016985D02*
X0120945Y0016985D01*
X0120945Y0015787D02*
X0120945Y0015787D01*
X0120945Y0014588D02*
X0120945Y0014588D01*
X0120945Y0013390D02*
X0120945Y0013390D01*
X0120945Y0012191D02*
X0120945Y0012191D01*
X0118583Y0012191D02*
X0118583Y0012191D01*
X0118583Y0013390D02*
X0118583Y0013390D01*
X0118583Y0014588D02*
X0118583Y0014588D01*
X0118583Y0015787D02*
X0118583Y0015787D01*
X0118583Y0016985D02*
X0118583Y0016985D01*
X0123307Y0011004D02*
X0123307Y0031068D01*
X0115625Y0038125D01*
X0113903Y0039757D02*
X0007031Y0039757D01*
X0007031Y0040955D02*
X0120014Y0040955D01*
X0120014Y0042154D02*
X0007031Y0042154D01*
X0007031Y0043352D02*
X0121019Y0043352D01*
X0122385Y0041365D02*
X0122500Y0041250D01*
X0124375Y0041250D01*
X0128031Y0037594D01*
X0128031Y0011004D01*
X0125669Y0011004D02*
X0125669Y0034956D01*
X0122500Y0038125D01*
X0120128Y0038558D02*
X0117997Y0038558D01*
X0117347Y0039757D02*
X0120639Y0039757D01*
X0120128Y0037360D02*
X0119105Y0037360D01*
X0120409Y0036161D02*
X0121110Y0036161D01*
X0121714Y0034963D02*
X0123130Y0034963D01*
X0123019Y0033764D02*
X0123879Y0033764D01*
X0132184Y0033764D02*
X0147757Y0033764D01*
X0146559Y0032566D02*
X0132184Y0032566D01*
X0132184Y0031367D02*
X0145360Y0031367D01*
X0144162Y0030169D02*
X0132184Y0030169D01*
X0132184Y0028970D02*
X0142963Y0028970D01*
X0141764Y0027772D02*
X0132184Y0027772D01*
X0132184Y0026573D02*
X0140566Y0026573D01*
X0139367Y0025375D02*
X0132184Y0025375D01*
X0132184Y0024176D02*
X0138169Y0024176D01*
X0136970Y0022978D02*
X0132184Y0022978D01*
X0132184Y0021779D02*
X0135772Y0021779D01*
X0134573Y0020581D02*
X0132184Y0020581D01*
X0132184Y0019382D02*
X0133375Y0019382D01*
X0133042Y0016517D02*
X0151555Y0035030D01*
X0213237Y0035030D01*
X0214683Y0036477D01*
X0214683Y0038583D01*
X0212213Y0041053D01*
X0212213Y0041466D01*
X0178125Y0075555D01*
X0178125Y0076250D01*
X0179759Y0078109D02*
X0262955Y0078109D01*
X0263437Y0077275D02*
X0263437Y0077275D01*
X0263871Y0076911D02*
X0180525Y0076911D01*
X0180576Y0075712D02*
X0265299Y0075712D01*
X0266113Y0075030D02*
X0266113Y0075030D01*
X0267531Y0074514D02*
X0181698Y0074514D01*
X0182897Y0073315D02*
X0269111Y0073315D01*
X0269111Y0072117D02*
X0184095Y0072117D01*
X0185294Y0070918D02*
X0269111Y0070918D01*
X0269111Y0069720D02*
X0186492Y0069720D01*
X0187691Y0068521D02*
X0269111Y0068521D01*
X0269111Y0067323D02*
X0188889Y0067323D01*
X0190088Y0066124D02*
X0269111Y0066124D01*
X0269111Y0064926D02*
X0191286Y0064926D01*
X0192485Y0063727D02*
X0269111Y0063727D01*
X0269111Y0062529D02*
X0193684Y0062529D01*
X0194882Y0061330D02*
X0269111Y0061330D01*
X0269111Y0060132D02*
X0196081Y0060132D01*
X0197279Y0058933D02*
X0269111Y0058933D01*
X0269111Y0057734D02*
X0198478Y0057734D01*
X0199676Y0056536D02*
X0269111Y0056536D01*
X0269111Y0055337D02*
X0200875Y0055337D01*
X0202073Y0054139D02*
X0269111Y0054139D01*
X0269111Y0052940D02*
X0203272Y0052940D01*
X0204470Y0051742D02*
X0269111Y0051742D01*
X0269111Y0050543D02*
X0205669Y0050543D01*
X0206867Y0049345D02*
X0269111Y0049345D01*
X0269111Y0048146D02*
X0208066Y0048146D01*
X0209264Y0046948D02*
X0269111Y0046948D01*
X0269111Y0045749D02*
X0210463Y0045749D01*
X0211661Y0044551D02*
X0269111Y0044551D01*
X0269111Y0043352D02*
X0212860Y0043352D01*
X0214004Y0042154D02*
X0269111Y0042154D01*
X0269111Y0040955D02*
X0214843Y0040955D01*
X0216042Y0039757D02*
X0269111Y0039757D01*
X0269111Y0038558D02*
X0216474Y0038558D01*
X0216474Y0037360D02*
X0269111Y0037360D01*
X0269111Y0036161D02*
X0216474Y0036161D01*
X0215702Y0034963D02*
X0269111Y0034963D01*
X0269111Y0033764D02*
X0214503Y0033764D01*
X0212213Y0037500D02*
X0212183Y0037530D01*
X0196316Y0037530D01*
X0164589Y0069257D01*
X0089725Y0069257D01*
X0077530Y0081452D01*
X0077530Y0082953D01*
X0077500Y0082983D01*
X0077500Y0085000D01*
X0076250Y0086250D01*
X0074233Y0086250D01*
X0071952Y0085300D02*
X0014783Y0085300D01*
X0014994Y0084102D02*
X0072964Y0084102D01*
X0075501Y0084102D02*
X0075709Y0084102D01*
X0075709Y0082903D02*
X0014910Y0082903D01*
X0014699Y0081705D02*
X0075739Y0081705D01*
X0075944Y0080506D02*
X0014488Y0080506D01*
X0014451Y0080300D02*
X0014451Y0080300D01*
X0013878Y0079308D02*
X0077142Y0079308D01*
X0078341Y0078109D02*
X0013186Y0078109D01*
X0012705Y0077275D02*
X0012705Y0077275D01*
X0012705Y0077275D01*
X0012271Y0076911D02*
X0079539Y0076911D01*
X0080738Y0075712D02*
X0010842Y0075712D01*
X0010029Y0075030D02*
X0010029Y0075030D01*
X0008611Y0074514D02*
X0081936Y0074514D01*
X0083135Y0073315D02*
X0007031Y0073315D01*
X0007031Y0072117D02*
X0084333Y0072117D01*
X0085532Y0070918D02*
X0007031Y0070918D01*
X0007031Y0069720D02*
X0086730Y0069720D01*
X0087929Y0068521D02*
X0007031Y0068521D01*
X0007031Y0067323D02*
X0163991Y0067323D01*
X0165189Y0066124D02*
X0007031Y0066124D01*
X0007031Y0064926D02*
X0120322Y0064926D01*
X0119503Y0063727D02*
X0007031Y0063727D01*
X0007031Y0062529D02*
X0119503Y0062529D01*
X0120316Y0061330D02*
X0007031Y0061330D01*
X0007031Y0060132D02*
X0122336Y0060132D01*
X0123535Y0058933D02*
X0007031Y0058933D01*
X0007031Y0057734D02*
X0124733Y0057734D01*
X0125932Y0056536D02*
X0007031Y0056536D01*
X0007031Y0055337D02*
X0127130Y0055337D01*
X0128329Y0054139D02*
X0007031Y0054139D01*
X0007031Y0052940D02*
X0128603Y0052940D01*
X0128603Y0051742D02*
X0007031Y0051742D01*
X0007031Y0050543D02*
X0128603Y0050543D01*
X0128603Y0049345D02*
X0007031Y0049345D01*
X0007031Y0048146D02*
X0128603Y0048146D01*
X0128603Y0046948D02*
X0007031Y0046948D01*
X0007031Y0045749D02*
X0128603Y0045749D01*
X0128603Y0044551D02*
X0007031Y0044551D01*
X0007031Y0038558D02*
X0106940Y0038558D01*
X0106280Y0037360D02*
X0007031Y0037360D01*
X0007031Y0036161D02*
X0106372Y0036161D01*
X0107169Y0034963D02*
X0007031Y0034963D01*
X0007031Y0033764D02*
X0108890Y0033764D01*
X0109361Y0032566D02*
X0007031Y0032566D01*
X0007031Y0031367D02*
X0109361Y0031367D01*
X0109361Y0030169D02*
X0007031Y0030169D01*
X0007031Y0028970D02*
X0109361Y0028970D01*
X0109361Y0027772D02*
X0007031Y0027772D01*
X0007031Y0026573D02*
X0109361Y0026573D01*
X0109361Y0025375D02*
X0007031Y0025375D01*
X0007031Y0024176D02*
X0109361Y0024176D01*
X0109660Y0022978D02*
X0007031Y0022978D01*
X0035905Y0012191D02*
X0035906Y0012191D01*
X0047716Y0012191D02*
X0047717Y0012191D01*
X0047716Y0013390D02*
X0047717Y0013390D01*
X0047716Y0014588D02*
X0047717Y0014588D01*
X0059527Y0014588D02*
X0059528Y0014588D01*
X0059527Y0013390D02*
X0059528Y0013390D01*
X0059527Y0012191D02*
X0059528Y0012191D01*
X0080787Y0013390D02*
X0080787Y0013390D01*
X0080787Y0014588D02*
X0080787Y0014588D01*
X0080787Y0015787D02*
X0080787Y0015787D01*
X0080787Y0016985D02*
X0080787Y0016985D01*
X0127202Y0040955D02*
X0128603Y0040955D01*
X0128603Y0039757D02*
X0128400Y0039757D01*
X0132184Y0039757D02*
X0191557Y0039757D01*
X0192755Y0038558D02*
X0132184Y0038558D01*
X0132184Y0037360D02*
X0193954Y0037360D01*
X0196378Y0040000D02*
X0165331Y0071047D01*
X0094323Y0071047D01*
X0082894Y0082475D01*
X0080000Y0082475D01*
X0085134Y0085300D02*
X0087860Y0085300D01*
X0087803Y0084102D02*
X0086333Y0084102D01*
X0087531Y0082903D02*
X0087841Y0082903D01*
X0089913Y0081482D02*
X0096767Y0074628D01*
X0166814Y0074628D01*
X0196442Y0045000D01*
X0204911Y0045000D01*
X0202657Y0047500D02*
X0196475Y0047500D01*
X0167556Y0076419D01*
X0098470Y0076419D01*
X0090257Y0084632D01*
X0088631Y0086499D02*
X0083936Y0086499D01*
X0082277Y0085625D02*
X0095064Y0072838D01*
X0166072Y0072838D01*
X0196380Y0042530D01*
X0207243Y0042530D01*
X0207273Y0042500D01*
X0209743Y0040000D02*
X0196378Y0040000D01*
X0190358Y0040955D02*
X0132184Y0040955D01*
X0132184Y0042154D02*
X0189160Y0042154D01*
X0187961Y0043352D02*
X0132184Y0043352D01*
X0132184Y0044551D02*
X0186762Y0044551D01*
X0185564Y0045749D02*
X0132184Y0045749D01*
X0132184Y0046948D02*
X0184365Y0046948D01*
X0183167Y0048146D02*
X0132184Y0048146D01*
X0132184Y0049345D02*
X0181968Y0049345D01*
X0180770Y0050543D02*
X0132184Y0050543D01*
X0132184Y0051742D02*
X0179571Y0051742D01*
X0178373Y0052940D02*
X0132184Y0052940D01*
X0132184Y0054139D02*
X0177174Y0054139D01*
X0175976Y0055337D02*
X0132184Y0055337D01*
X0130996Y0056536D02*
X0174777Y0056536D01*
X0173579Y0057734D02*
X0129798Y0057734D01*
X0128599Y0058933D02*
X0172380Y0058933D01*
X0171182Y0060132D02*
X0127401Y0060132D01*
X0126202Y0061330D02*
X0169983Y0061330D01*
X0168785Y0062529D02*
X0125004Y0062529D01*
X0124247Y0063727D02*
X0167586Y0063727D01*
X0166388Y0064926D02*
X0123428Y0064926D01*
X0121875Y0063125D02*
X0130394Y0054606D01*
X0130394Y0011004D01*
X0132756Y0011004D02*
X0133042Y0011290D01*
X0133042Y0016517D01*
X0137480Y0016985D02*
X0137480Y0016985D01*
X0137480Y0017411D02*
X0137480Y0011004D01*
X0137480Y0011004D01*
X0137480Y0011004D01*
X0139754Y0011004D01*
X0139842Y0011004D01*
X0139842Y0017411D01*
X0138774Y0017411D01*
X0138661Y0017381D01*
X0138549Y0017411D01*
X0137480Y0017411D01*
X0137241Y0018184D02*
X0269111Y0018184D01*
X0269111Y0019382D02*
X0138439Y0019382D01*
X0139638Y0020581D02*
X0269111Y0020581D01*
X0269111Y0021779D02*
X0140836Y0021779D01*
X0142035Y0022978D02*
X0269111Y0022978D01*
X0269111Y0024176D02*
X0143233Y0024176D01*
X0144432Y0025375D02*
X0269111Y0025375D01*
X0269111Y0026573D02*
X0145630Y0026573D01*
X0146829Y0027772D02*
X0269111Y0027772D01*
X0269111Y0028970D02*
X0148027Y0028970D01*
X0149226Y0030169D02*
X0269111Y0030169D01*
X0269111Y0031367D02*
X0150424Y0031367D01*
X0151623Y0032566D02*
X0269111Y0032566D01*
X0255590Y0017411D02*
X0254522Y0017411D01*
X0254409Y0017381D01*
X0254297Y0017411D01*
X0253228Y0017411D01*
X0252160Y0017411D01*
X0252047Y0017381D01*
X0251935Y0017411D01*
X0250866Y0017411D01*
X0250866Y0011004D01*
X0250866Y0011004D01*
X0250955Y0011004D01*
X0253228Y0011004D01*
X0253228Y0017411D01*
X0253228Y0011004D01*
X0253228Y0011004D01*
X0253228Y0011004D01*
X0253317Y0011004D01*
X0255590Y0011004D01*
X0255590Y0017411D01*
X0255590Y0016985D02*
X0255591Y0016985D01*
X0255590Y0015787D02*
X0255591Y0015787D01*
X0255590Y0014588D02*
X0255591Y0014588D01*
X0255590Y0013390D02*
X0255591Y0013390D01*
X0255590Y0012191D02*
X0255591Y0012191D01*
X0257953Y0012191D02*
X0257953Y0012191D01*
X0257953Y0013390D02*
X0257953Y0013390D01*
X0257953Y0014588D02*
X0257953Y0014588D01*
X0257953Y0015787D02*
X0257953Y0015787D01*
X0257953Y0016985D02*
X0257953Y0016985D01*
X0260315Y0016985D02*
X0260315Y0016985D01*
X0260315Y0015787D02*
X0260315Y0015787D01*
X0260315Y0014588D02*
X0260315Y0014588D01*
X0260315Y0013390D02*
X0260315Y0013390D01*
X0260315Y0012191D02*
X0260315Y0012191D01*
X0262677Y0012191D02*
X0262677Y0012191D01*
X0262677Y0011004D02*
X0264950Y0011004D01*
X0262677Y0011004D01*
X0262677Y0011004D01*
X0264950Y0010993D02*
X0269111Y0010993D01*
X0269111Y0012191D02*
X0264950Y0012191D01*
X0264950Y0013390D02*
X0269111Y0013390D01*
X0269111Y0014588D02*
X0264950Y0014588D01*
X0264950Y0015787D02*
X0269111Y0015787D01*
X0269111Y0016985D02*
X0264564Y0016985D01*
X0262677Y0016985D02*
X0262677Y0016985D01*
X0262677Y0015787D02*
X0262677Y0015787D01*
X0262677Y0014588D02*
X0262677Y0014588D01*
X0262677Y0013390D02*
X0262677Y0013390D01*
X0264950Y0009794D02*
X0269111Y0009794D01*
X0269111Y0008596D02*
X0264950Y0008596D01*
X0264950Y0007397D02*
X0269111Y0007397D01*
X0253228Y0012191D02*
X0253228Y0012191D01*
X0253228Y0013390D02*
X0253228Y0013390D01*
X0253228Y0014588D02*
X0253228Y0014588D01*
X0253228Y0015787D02*
X0253228Y0015787D01*
X0253228Y0016985D02*
X0253228Y0016985D01*
X0250866Y0016985D02*
X0250866Y0016985D01*
X0250866Y0015787D02*
X0250866Y0015787D01*
X0250866Y0014588D02*
X0250866Y0014588D01*
X0250866Y0013390D02*
X0250866Y0013390D01*
X0250866Y0012191D02*
X0250866Y0012191D01*
X0248504Y0012191D02*
X0248504Y0012191D01*
X0248504Y0013390D02*
X0248504Y0013390D01*
X0248504Y0014588D02*
X0248504Y0014588D01*
X0248504Y0015787D02*
X0248504Y0015787D01*
X0248504Y0016985D02*
X0248504Y0016985D01*
X0246142Y0016985D02*
X0246142Y0016985D01*
X0246142Y0015787D02*
X0246142Y0015787D01*
X0246142Y0014588D02*
X0246142Y0014588D01*
X0246142Y0013390D02*
X0246142Y0013390D01*
X0246142Y0012191D02*
X0246142Y0012191D01*
X0243780Y0012191D02*
X0243779Y0012191D01*
X0243779Y0011004D02*
X0243779Y0017411D01*
X0242711Y0017411D01*
X0242598Y0017381D01*
X0242486Y0017411D01*
X0241417Y0017411D01*
X0240349Y0017411D01*
X0240236Y0017381D01*
X0240124Y0017411D01*
X0239055Y0017411D01*
X0239055Y0011004D01*
X0239055Y0011004D01*
X0241328Y0011004D01*
X0241417Y0011004D01*
X0241417Y0017411D01*
X0241417Y0011004D01*
X0241417Y0011004D01*
X0241417Y0011004D01*
X0243691Y0011004D01*
X0243779Y0011004D01*
X0241417Y0012191D02*
X0241417Y0012191D01*
X0241417Y0013390D02*
X0241417Y0013390D01*
X0241417Y0014588D02*
X0241417Y0014588D01*
X0241417Y0015787D02*
X0241417Y0015787D01*
X0241417Y0016985D02*
X0241417Y0016985D01*
X0239055Y0016985D02*
X0239055Y0016985D01*
X0239055Y0015787D02*
X0239055Y0015787D01*
X0239055Y0014588D02*
X0239055Y0014588D01*
X0239055Y0013390D02*
X0239055Y0013390D01*
X0239055Y0012191D02*
X0239055Y0012191D01*
X0236693Y0012191D02*
X0236693Y0012191D01*
X0236693Y0013390D02*
X0236693Y0013390D01*
X0236693Y0014588D02*
X0236693Y0014588D01*
X0236693Y0015787D02*
X0236693Y0015787D01*
X0236693Y0016985D02*
X0236693Y0016985D01*
X0234331Y0016985D02*
X0234331Y0016985D01*
X0234331Y0015787D02*
X0234331Y0015787D01*
X0234331Y0014588D02*
X0234331Y0014588D01*
X0234331Y0013390D02*
X0234331Y0013390D01*
X0234331Y0012191D02*
X0234331Y0012191D01*
X0231969Y0012191D02*
X0231968Y0012191D01*
X0231968Y0011004D02*
X0231968Y0017411D01*
X0230900Y0017411D01*
X0230787Y0017381D01*
X0230675Y0017411D01*
X0229606Y0017411D01*
X0228538Y0017411D01*
X0228425Y0017381D01*
X0228313Y0017411D01*
X0227244Y0017411D01*
X0227244Y0011004D01*
X0227244Y0011004D01*
X0227333Y0011004D01*
X0229606Y0011004D01*
X0229606Y0017411D01*
X0229606Y0011004D01*
X0229606Y0011004D01*
X0229606Y0011004D01*
X0229695Y0011004D01*
X0231968Y0011004D01*
X0229606Y0012191D02*
X0229606Y0012191D01*
X0229606Y0013390D02*
X0229606Y0013390D01*
X0229606Y0014588D02*
X0229606Y0014588D01*
X0229606Y0015787D02*
X0229606Y0015787D01*
X0229606Y0016985D02*
X0229606Y0016985D01*
X0227244Y0016985D02*
X0227244Y0016985D01*
X0227244Y0015787D02*
X0227244Y0015787D01*
X0227244Y0014588D02*
X0227244Y0014588D01*
X0227244Y0013390D02*
X0227244Y0013390D01*
X0227244Y0012191D02*
X0227244Y0012191D01*
X0224882Y0012191D02*
X0224882Y0012191D01*
X0224882Y0013390D02*
X0224882Y0013390D01*
X0224882Y0014588D02*
X0224882Y0014588D01*
X0224882Y0015787D02*
X0224882Y0015787D01*
X0224882Y0016985D02*
X0224882Y0016985D01*
X0222520Y0016985D02*
X0222520Y0016985D01*
X0222520Y0015787D02*
X0222520Y0015787D01*
X0222520Y0014588D02*
X0222520Y0014588D01*
X0222520Y0013390D02*
X0222520Y0013390D01*
X0222520Y0012191D02*
X0222520Y0012191D01*
X0220158Y0012191D02*
X0220157Y0012191D01*
X0220157Y0011004D02*
X0220157Y0017411D01*
X0219089Y0017411D01*
X0218976Y0017381D01*
X0218864Y0017411D01*
X0217795Y0017411D01*
X0217795Y0011004D01*
X0217795Y0011004D01*
X0217795Y0011004D01*
X0217884Y0011004D01*
X0220157Y0011004D01*
X0217795Y0012191D02*
X0217795Y0012191D01*
X0217795Y0013390D02*
X0217795Y0013390D01*
X0217795Y0014588D02*
X0217795Y0014588D01*
X0217795Y0015787D02*
X0217795Y0015787D01*
X0217795Y0016985D02*
X0217795Y0016985D01*
X0215433Y0016985D02*
X0215433Y0016985D01*
X0215433Y0015787D02*
X0215433Y0015787D01*
X0215433Y0014588D02*
X0215433Y0014588D01*
X0215433Y0013390D02*
X0215433Y0013390D01*
X0215433Y0012191D02*
X0215433Y0012191D01*
X0215433Y0011004D02*
X0215433Y0011004D01*
X0213071Y0012191D02*
X0213071Y0012191D01*
X0213071Y0013390D02*
X0213071Y0013390D01*
X0213071Y0014588D02*
X0213071Y0014588D01*
X0213071Y0015787D02*
X0213071Y0015787D01*
X0213071Y0016985D02*
X0213071Y0016985D01*
X0210709Y0016985D02*
X0210709Y0016985D01*
X0210709Y0015787D02*
X0210709Y0015787D01*
X0210709Y0014588D02*
X0210709Y0014588D01*
X0210709Y0013390D02*
X0210709Y0013390D01*
X0210709Y0012191D02*
X0210709Y0012191D01*
X0208347Y0012191D02*
X0208346Y0012191D01*
X0208346Y0011004D02*
X0208346Y0017411D01*
X0207278Y0017411D01*
X0207165Y0017381D01*
X0207053Y0017411D01*
X0205984Y0017411D01*
X0205984Y0011004D01*
X0205984Y0011004D01*
X0208257Y0011004D01*
X0208346Y0011004D01*
X0205984Y0012191D02*
X0205984Y0012191D01*
X0205984Y0013390D02*
X0205984Y0013390D01*
X0205984Y0014588D02*
X0205984Y0014588D01*
X0205984Y0015787D02*
X0205984Y0015787D01*
X0205984Y0016985D02*
X0205984Y0016985D01*
X0203622Y0016985D02*
X0203622Y0016985D01*
X0203622Y0015787D02*
X0203622Y0015787D01*
X0203622Y0014588D02*
X0203622Y0014588D01*
X0203622Y0013390D02*
X0203622Y0013390D01*
X0203622Y0012191D02*
X0203622Y0012191D01*
X0203622Y0011004D02*
X0203622Y0011004D01*
X0201260Y0012191D02*
X0201260Y0012191D01*
X0201260Y0013390D02*
X0201260Y0013390D01*
X0201260Y0014588D02*
X0201260Y0014588D01*
X0201260Y0015787D02*
X0201260Y0015787D01*
X0201260Y0016985D02*
X0201260Y0016985D01*
X0198898Y0016985D02*
X0198898Y0016985D01*
X0198898Y0015787D02*
X0198898Y0015787D01*
X0198898Y0014588D02*
X0198898Y0014588D01*
X0198898Y0013390D02*
X0198898Y0013390D01*
X0198898Y0012191D02*
X0198898Y0012191D01*
X0198898Y0011004D02*
X0198898Y0011004D01*
X0196536Y0011004D01*
X0196536Y0011004D01*
X0196624Y0011004D01*
X0198898Y0011004D01*
X0196535Y0011004D02*
X0196535Y0011004D01*
X0196535Y0011004D01*
X0194173Y0011004D01*
X0194173Y0011004D01*
X0194262Y0011004D01*
X0196535Y0011004D01*
X0196535Y0017411D01*
X0196535Y0011004D01*
X0196535Y0012191D02*
X0196535Y0012191D01*
X0196535Y0013390D02*
X0196535Y0013390D01*
X0196535Y0014588D02*
X0196535Y0014588D01*
X0196535Y0015787D02*
X0196535Y0015787D01*
X0196535Y0016985D02*
X0196535Y0016985D01*
X0194173Y0016985D02*
X0194173Y0016985D01*
X0194173Y0015787D02*
X0194173Y0015787D01*
X0194173Y0014588D02*
X0194173Y0014588D01*
X0194173Y0013390D02*
X0194173Y0013390D01*
X0194173Y0012191D02*
X0194173Y0012191D01*
X0191811Y0012191D02*
X0191811Y0012191D01*
X0191811Y0013390D02*
X0191811Y0013390D01*
X0191811Y0014588D02*
X0191811Y0014588D01*
X0191811Y0015787D02*
X0191811Y0015787D01*
X0191811Y0016985D02*
X0191811Y0016985D01*
X0189449Y0016985D02*
X0189449Y0016985D01*
X0189449Y0015787D02*
X0189449Y0015787D01*
X0189449Y0014588D02*
X0189449Y0014588D01*
X0189449Y0013390D02*
X0189449Y0013390D01*
X0189449Y0012191D02*
X0189449Y0012191D01*
X0187087Y0012191D02*
X0187087Y0012191D01*
X0187086Y0011004D02*
X0184725Y0011004D01*
X0184725Y0011004D01*
X0184813Y0011004D01*
X0187086Y0011004D01*
X0187086Y0011004D01*
X0184724Y0011004D02*
X0184724Y0011004D01*
X0184724Y0011004D01*
X0182362Y0011004D01*
X0182362Y0011004D01*
X0182451Y0011004D01*
X0184724Y0011004D01*
X0184724Y0017411D01*
X0184724Y0011004D01*
X0184724Y0012191D02*
X0184724Y0012191D01*
X0184724Y0013390D02*
X0184724Y0013390D01*
X0184724Y0014588D02*
X0184724Y0014588D01*
X0184724Y0015787D02*
X0184724Y0015787D01*
X0184724Y0016985D02*
X0184724Y0016985D01*
X0182362Y0016985D02*
X0182362Y0016985D01*
X0182362Y0015787D02*
X0182362Y0015787D01*
X0182362Y0014588D02*
X0182362Y0014588D01*
X0182362Y0013390D02*
X0182362Y0013390D01*
X0182362Y0012191D02*
X0182362Y0012191D01*
X0180000Y0012191D02*
X0180000Y0012191D01*
X0180000Y0013390D02*
X0180000Y0013390D01*
X0180000Y0014588D02*
X0180000Y0014588D01*
X0180000Y0015787D02*
X0180000Y0015787D01*
X0180000Y0016985D02*
X0180000Y0016985D01*
X0177638Y0016985D02*
X0177638Y0016985D01*
X0177638Y0015787D02*
X0177638Y0015787D01*
X0177638Y0014588D02*
X0177638Y0014588D01*
X0177638Y0013390D02*
X0177638Y0013390D01*
X0177638Y0012191D02*
X0177638Y0012191D01*
X0175276Y0012191D02*
X0175276Y0012191D01*
X0175275Y0011004D02*
X0172914Y0011004D01*
X0172914Y0011004D01*
X0175187Y0011004D01*
X0175275Y0011004D01*
X0175275Y0011004D01*
X0172913Y0011004D02*
X0172913Y0011004D01*
X0172913Y0011004D01*
X0170551Y0011004D01*
X0170551Y0011004D01*
X0170640Y0011004D01*
X0172913Y0011004D01*
X0172913Y0017411D01*
X0172913Y0011004D01*
X0172913Y0012191D02*
X0172913Y0012191D01*
X0172913Y0013390D02*
X0172913Y0013390D01*
X0172913Y0014588D02*
X0172913Y0014588D01*
X0172913Y0015787D02*
X0172913Y0015787D01*
X0172913Y0016985D02*
X0172913Y0016985D01*
X0170551Y0016985D02*
X0170551Y0016985D01*
X0170551Y0015787D02*
X0170551Y0015787D01*
X0170551Y0014588D02*
X0170551Y0014588D01*
X0170551Y0013390D02*
X0170551Y0013390D01*
X0170551Y0012191D02*
X0170551Y0012191D01*
X0168189Y0012191D02*
X0168189Y0012191D01*
X0168189Y0013390D02*
X0168189Y0013390D01*
X0168189Y0014588D02*
X0168189Y0014588D01*
X0168189Y0015787D02*
X0168189Y0015787D01*
X0168189Y0016985D02*
X0168189Y0016985D01*
X0165827Y0016985D02*
X0165827Y0016985D01*
X0165827Y0015787D02*
X0165827Y0015787D01*
X0165827Y0014588D02*
X0165827Y0014588D01*
X0165827Y0013390D02*
X0165827Y0013390D01*
X0165827Y0012191D02*
X0165827Y0012191D01*
X0163465Y0012191D02*
X0163464Y0012191D01*
X0163464Y0011004D02*
X0163464Y0017411D01*
X0162396Y0017411D01*
X0162283Y0017381D01*
X0162171Y0017411D01*
X0161102Y0017411D01*
X0160034Y0017411D01*
X0159921Y0017381D01*
X0159809Y0017411D01*
X0158740Y0017411D01*
X0158740Y0011004D01*
X0158740Y0011004D01*
X0158829Y0011004D01*
X0161102Y0011004D01*
X0161102Y0017411D01*
X0161102Y0011004D01*
X0161102Y0011004D01*
X0161102Y0011004D01*
X0161191Y0011004D01*
X0163464Y0011004D01*
X0161102Y0012191D02*
X0161102Y0012191D01*
X0161102Y0013390D02*
X0161102Y0013390D01*
X0161102Y0014588D02*
X0161102Y0014588D01*
X0161102Y0015787D02*
X0161102Y0015787D01*
X0161102Y0016985D02*
X0161102Y0016985D01*
X0158740Y0016985D02*
X0158740Y0016985D01*
X0158740Y0015787D02*
X0158740Y0015787D01*
X0158740Y0014588D02*
X0158740Y0014588D01*
X0158740Y0013390D02*
X0158740Y0013390D01*
X0158740Y0012191D02*
X0158740Y0012191D01*
X0156378Y0012191D02*
X0156378Y0012191D01*
X0156378Y0013390D02*
X0156378Y0013390D01*
X0156378Y0014588D02*
X0156378Y0014588D01*
X0156378Y0015787D02*
X0156378Y0015787D01*
X0156378Y0016985D02*
X0156378Y0016985D01*
X0154016Y0016985D02*
X0154016Y0016985D01*
X0154016Y0015787D02*
X0154016Y0015787D01*
X0154016Y0014588D02*
X0154016Y0014588D01*
X0154016Y0013390D02*
X0154016Y0013390D01*
X0154016Y0012191D02*
X0154016Y0012191D01*
X0151654Y0012191D02*
X0151653Y0012191D01*
X0151653Y0011004D02*
X0151653Y0017411D01*
X0150585Y0017411D01*
X0150472Y0017381D01*
X0150360Y0017411D01*
X0149291Y0017411D01*
X0148223Y0017411D01*
X0148110Y0017381D01*
X0147998Y0017411D01*
X0146929Y0017411D01*
X0146929Y0011004D01*
X0146929Y0011004D01*
X0147018Y0011004D01*
X0149291Y0011004D01*
X0149291Y0017411D01*
X0149291Y0011004D01*
X0149291Y0011004D01*
X0149291Y0011004D01*
X0149380Y0011004D01*
X0151653Y0011004D01*
X0149291Y0012191D02*
X0149291Y0012191D01*
X0149291Y0013390D02*
X0149291Y0013390D01*
X0149291Y0014588D02*
X0149291Y0014588D01*
X0149291Y0015787D02*
X0149291Y0015787D01*
X0149291Y0016985D02*
X0149291Y0016985D01*
X0146929Y0016985D02*
X0146929Y0016985D01*
X0146929Y0015787D02*
X0146929Y0015787D01*
X0146929Y0014588D02*
X0146929Y0014588D01*
X0146929Y0013390D02*
X0146929Y0013390D01*
X0146929Y0012191D02*
X0146929Y0012191D01*
X0144567Y0012191D02*
X0144567Y0012191D01*
X0144567Y0013390D02*
X0144567Y0013390D01*
X0144567Y0014588D02*
X0144567Y0014588D01*
X0144567Y0015787D02*
X0144567Y0015787D01*
X0144567Y0016985D02*
X0144567Y0016985D01*
X0142205Y0016985D02*
X0142205Y0016985D01*
X0142205Y0015787D02*
X0142205Y0015787D01*
X0142205Y0014588D02*
X0142205Y0014588D01*
X0142205Y0013390D02*
X0142205Y0013390D01*
X0142205Y0012191D02*
X0142205Y0012191D01*
X0139843Y0012191D02*
X0139842Y0012191D01*
X0139842Y0013390D02*
X0139843Y0013390D01*
X0139842Y0014588D02*
X0139843Y0014588D01*
X0139842Y0015787D02*
X0139843Y0015787D01*
X0139842Y0016985D02*
X0139843Y0016985D01*
X0137480Y0015787D02*
X0137480Y0015787D01*
X0137480Y0014588D02*
X0137480Y0014588D01*
X0137480Y0013390D02*
X0137480Y0013390D01*
X0137480Y0012191D02*
X0137480Y0012191D01*
X0151653Y0013390D02*
X0151654Y0013390D01*
X0151653Y0014588D02*
X0151654Y0014588D01*
X0151653Y0015787D02*
X0151654Y0015787D01*
X0151653Y0016985D02*
X0151654Y0016985D01*
X0163464Y0016985D02*
X0163465Y0016985D01*
X0163464Y0015787D02*
X0163465Y0015787D01*
X0163464Y0014588D02*
X0163465Y0014588D01*
X0163464Y0013390D02*
X0163465Y0013390D01*
X0175276Y0013390D02*
X0175276Y0013390D01*
X0175276Y0014588D02*
X0175276Y0014588D01*
X0175276Y0015787D02*
X0175276Y0015787D01*
X0175276Y0016985D02*
X0175276Y0016985D01*
X0187087Y0016985D02*
X0187087Y0016985D01*
X0187087Y0015787D02*
X0187087Y0015787D01*
X0187087Y0014588D02*
X0187087Y0014588D01*
X0187087Y0013390D02*
X0187087Y0013390D01*
X0208346Y0013390D02*
X0208347Y0013390D01*
X0208346Y0014588D02*
X0208347Y0014588D01*
X0208346Y0015787D02*
X0208347Y0015787D01*
X0208346Y0016985D02*
X0208347Y0016985D01*
X0220157Y0016985D02*
X0220158Y0016985D01*
X0220157Y0015787D02*
X0220158Y0015787D01*
X0220157Y0014588D02*
X0220158Y0014588D01*
X0220157Y0013390D02*
X0220158Y0013390D01*
X0231968Y0013390D02*
X0231969Y0013390D01*
X0231968Y0014588D02*
X0231969Y0014588D01*
X0231968Y0015787D02*
X0231969Y0015787D01*
X0231968Y0016985D02*
X0231969Y0016985D01*
X0243779Y0016985D02*
X0243780Y0016985D01*
X0243779Y0015787D02*
X0243780Y0015787D01*
X0243779Y0014588D02*
X0243780Y0014588D01*
X0243779Y0013390D02*
X0243780Y0013390D01*
X0212213Y0037500D02*
X0212183Y0037530D01*
X0200187Y0050000D02*
X0196507Y0050000D01*
X0168297Y0078209D01*
X0101133Y0078209D01*
X0099343Y0080000D01*
X0098382Y0080000D01*
X0093566Y0084816D01*
X0096875Y0085000D02*
X0101875Y0080000D01*
X0170000Y0080000D01*
X0197500Y0052500D01*
X0175725Y0076911D02*
X0175622Y0076911D01*
X0176491Y0078109D02*
X0174423Y0078109D01*
X0173225Y0079308D02*
X0262263Y0079308D01*
X0261690Y0080300D02*
X0261690Y0080300D01*
X0261654Y0080506D02*
X0172026Y0080506D01*
X0170827Y0081705D02*
X0261443Y0081705D01*
X0261231Y0082903D02*
X0116220Y0082903D01*
X0115641Y0084102D02*
X0261148Y0084102D01*
X0261084Y0083740D02*
X0261084Y0083740D01*
X0261359Y0085300D02*
X0132796Y0085300D01*
X0132464Y0085163D02*
X0133553Y0085614D01*
X0133874Y0085934D01*
X0177157Y0085934D01*
X0178441Y0087218D01*
X0180406Y0089183D01*
X0181285Y0089183D01*
X0182504Y0089688D01*
X0183437Y0090621D01*
X0183942Y0091840D01*
X0183942Y0093160D01*
X0183437Y0094379D01*
X0182504Y0095312D01*
X0181285Y0095817D01*
X0179965Y0095817D01*
X0178746Y0095312D01*
X0177813Y0094379D01*
X0177308Y0093160D01*
X0177308Y0092281D01*
X0175343Y0090316D01*
X0133874Y0090316D01*
X0133553Y0090636D01*
X0132464Y0091087D01*
X0131286Y0091087D01*
X0130197Y0090636D01*
X0129364Y0089803D01*
X0128913Y0088714D01*
X0128913Y0087536D01*
X0129364Y0086447D01*
X0130197Y0085614D01*
X0131286Y0085163D01*
X0132464Y0085163D01*
X0130954Y0085300D02*
X0113559Y0085300D01*
X0112421Y0086499D02*
X0129342Y0086499D01*
X0128913Y0087697D02*
X0111282Y0087697D01*
X0110144Y0088896D02*
X0128988Y0088896D01*
X0129655Y0090094D02*
X0109005Y0090094D01*
X0107867Y0091293D02*
X0176320Y0091293D01*
X0177308Y0092491D02*
X0106728Y0092491D01*
X0105589Y0093690D02*
X0177528Y0093690D01*
X0178323Y0094888D02*
X0104451Y0094888D01*
X0103320Y0096087D02*
X0269111Y0096087D01*
X0269111Y0097285D02*
X0097290Y0097285D01*
X0097285Y0097281D02*
X0097980Y0097976D01*
X0098356Y0098884D01*
X0098356Y0099313D01*
X0104128Y0105084D01*
X0132672Y0105084D01*
X0132976Y0104781D01*
X0133884Y0104405D01*
X0134866Y0104405D01*
X0135774Y0104781D01*
X0136469Y0105476D01*
X0136845Y0106384D01*
X0136845Y0107366D01*
X0136469Y0108274D01*
X0135774Y0108969D01*
X0134866Y0109345D01*
X0133884Y0109345D01*
X0132976Y0108969D01*
X0132672Y0108666D01*
X0102645Y0108666D01*
X0095824Y0101845D01*
X0095395Y0101845D01*
X0094487Y0101469D01*
X0093792Y0100774D01*
X0093416Y0099866D01*
X0093416Y0098884D01*
X0093792Y0097976D01*
X0094487Y0097281D01*
X0095395Y0096905D01*
X0096378Y0096905D01*
X0097285Y0097281D01*
X0098191Y0098484D02*
X0111787Y0098484D01*
X0111421Y0099682D02*
X0098726Y0099682D01*
X0099924Y0100881D02*
X0111641Y0100881D01*
X0112798Y0102079D02*
X0101123Y0102079D01*
X0102321Y0103278D02*
X0146996Y0103278D01*
X0148194Y0104476D02*
X0135039Y0104476D01*
X0133711Y0104476D02*
X0103520Y0104476D01*
X0103386Y0106875D02*
X0095886Y0099375D01*
X0093582Y0098484D02*
X0092798Y0098484D01*
X0093416Y0099682D02*
X0091600Y0099682D01*
X0090401Y0100881D02*
X0093899Y0100881D01*
X0096058Y0102079D02*
X0089203Y0102079D01*
X0088004Y0103278D02*
X0097257Y0103278D01*
X0098455Y0104476D02*
X0086806Y0104476D01*
X0085607Y0105675D02*
X0099654Y0105675D01*
X0100852Y0106873D02*
X0084409Y0106873D01*
X0083210Y0108072D02*
X0102051Y0108072D01*
X0103386Y0106875D02*
X0134375Y0106875D01*
X0136845Y0106873D02*
X0150591Y0106873D01*
X0149393Y0105675D02*
X0136552Y0105675D01*
X0136553Y0108072D02*
X0229665Y0108072D01*
X0230863Y0109270D02*
X0135046Y0109270D01*
X0133704Y0109270D02*
X0082012Y0109270D01*
X0080813Y0110469D02*
X0232062Y0110469D01*
X0233260Y0111668D02*
X0079615Y0111668D01*
X0078416Y0112866D02*
X0184950Y0112866D01*
X0184622Y0113194D02*
X0185319Y0112497D01*
X0195181Y0112497D01*
X0195878Y0113194D01*
X0195878Y0123056D01*
X0195181Y0123753D01*
X0185319Y0123753D01*
X0184622Y0123056D01*
X0184622Y0113194D01*
X0184622Y0114065D02*
X0077218Y0114065D01*
X0075625Y0113125D02*
X0093750Y0095000D01*
X0101875Y0095000D01*
X0113750Y0082500D01*
X0110897Y0082903D02*
X0101504Y0082903D01*
X0100305Y0084102D02*
X0109759Y0084102D01*
X0108620Y0085300D02*
X0099345Y0085300D01*
X0098869Y0086499D02*
X0107481Y0086499D01*
X0106343Y0087697D02*
X0081421Y0087697D01*
X0082277Y0085625D02*
X0080000Y0085625D01*
X0078579Y0087697D02*
X0077335Y0087697D01*
X0072187Y0087697D02*
X0014153Y0087697D01*
X0014571Y0086499D02*
X0071763Y0086499D01*
X0090131Y0096087D02*
X0007031Y0096087D01*
X0007031Y0097285D02*
X0088932Y0097285D01*
X0087734Y0098484D02*
X0007031Y0098484D01*
X0007031Y0099682D02*
X0086535Y0099682D01*
X0085337Y0100881D02*
X0007031Y0100881D01*
X0007031Y0102079D02*
X0084138Y0102079D01*
X0082940Y0103278D02*
X0007031Y0103278D01*
X0007031Y0104476D02*
X0081741Y0104476D01*
X0080543Y0105675D02*
X0007031Y0105675D01*
X0007031Y0106873D02*
X0079344Y0106873D01*
X0078146Y0108072D02*
X0007031Y0108072D01*
X0007031Y0109270D02*
X0076947Y0109270D01*
X0075749Y0110469D02*
X0007031Y0110469D01*
X0007031Y0111668D02*
X0051089Y0111668D01*
X0050655Y0112866D02*
X0007031Y0112866D01*
X0007031Y0114065D02*
X0050841Y0114065D01*
X0051832Y0115263D02*
X0007031Y0115263D01*
X0007031Y0116462D02*
X0184622Y0116462D01*
X0184622Y0117660D02*
X0018656Y0117660D01*
X0017669Y0117578D02*
X0017669Y0117578D01*
X0017346Y0117660D02*
X0007031Y0117660D01*
X0007031Y0118859D02*
X0013151Y0118859D01*
X0013491Y0118636D02*
X0013491Y0118636D01*
X0011316Y0120057D02*
X0007031Y0120057D01*
X0007031Y0121256D02*
X0009679Y0121256D01*
X0008746Y0122454D02*
X0007031Y0122454D01*
X0007031Y0123653D02*
X0007814Y0123653D01*
X0007236Y0124394D02*
X0007236Y0124394D01*
X0007080Y0124851D02*
X0007031Y0124851D01*
X0021964Y0117934D02*
X0021964Y0117934D01*
X0024071Y0118859D02*
X0184622Y0118859D01*
X0184622Y0120057D02*
X0026336Y0120057D01*
X0027638Y0121256D02*
X0184622Y0121256D01*
X0184622Y0122454D02*
X0028940Y0122454D01*
X0029659Y0123653D02*
X0185219Y0123653D01*
X0195281Y0123653D02*
X0237219Y0123653D01*
X0236622Y0122454D02*
X0195878Y0122454D01*
X0195878Y0121256D02*
X0236622Y0121256D01*
X0236622Y0120057D02*
X0195878Y0120057D01*
X0195878Y0118859D02*
X0236622Y0118859D01*
X0236622Y0117660D02*
X0195878Y0117660D01*
X0195878Y0116462D02*
X0236622Y0116462D01*
X0236622Y0115263D02*
X0195878Y0115263D01*
X0195878Y0114065D02*
X0235657Y0114065D01*
X0234459Y0112866D02*
X0195550Y0112866D01*
X0184622Y0115263D02*
X0054418Y0115263D01*
X0053125Y0113125D02*
X0075625Y0113125D01*
X0059668Y0126013D02*
X0058362Y0125472D01*
X0056949Y0125472D01*
X0055643Y0126013D01*
X0054644Y0127013D01*
X0054103Y0128318D01*
X0054103Y0129732D01*
X0054644Y0131037D01*
X0055643Y0132037D01*
X0056949Y0132578D01*
X0058362Y0132578D01*
X0059668Y0132037D01*
X0060667Y0131037D01*
X0061208Y0129732D01*
X0061208Y0128318D01*
X0060667Y0127013D01*
X0059668Y0126013D01*
X0059705Y0126050D02*
X0245418Y0126050D01*
X0245007Y0127248D02*
X0060765Y0127248D01*
X0061208Y0128447D02*
X0244595Y0128447D01*
X0244587Y0129645D02*
X0061208Y0129645D01*
X0060748Y0130844D02*
X0244587Y0130844D01*
X0244587Y0132042D02*
X0059655Y0132042D01*
X0055656Y0132042D02*
X0047844Y0132042D01*
X0047857Y0132037D02*
X0046551Y0132578D01*
X0045138Y0132578D01*
X0043832Y0132037D01*
X0042833Y0131037D01*
X0042292Y0129732D01*
X0042292Y0128318D01*
X0042833Y0127013D01*
X0043832Y0126013D01*
X0045138Y0125472D01*
X0046551Y0125472D01*
X0047857Y0126013D01*
X0048856Y0127013D01*
X0049397Y0128318D01*
X0049397Y0129732D01*
X0048856Y0131037D01*
X0047857Y0132037D01*
X0048937Y0130844D02*
X0054563Y0130844D01*
X0054103Y0129645D02*
X0049397Y0129645D01*
X0049397Y0128447D02*
X0054103Y0128447D01*
X0054546Y0127248D02*
X0048954Y0127248D01*
X0047893Y0126050D02*
X0055607Y0126050D01*
X0043795Y0126050D02*
X0030956Y0126050D01*
X0031278Y0127248D02*
X0042735Y0127248D01*
X0042292Y0128447D02*
X0031478Y0128447D01*
X0031678Y0129645D02*
X0042292Y0129645D01*
X0042752Y0130844D02*
X0031805Y0130844D01*
X0031605Y0132042D02*
X0043845Y0132042D01*
X0031405Y0133241D02*
X0244745Y0133241D01*
X0245157Y0134439D02*
X0031205Y0134439D01*
X0031132Y0134876D02*
X0031132Y0134876D01*
X0030720Y0135638D02*
X0245568Y0135638D01*
X0245980Y0136836D02*
X0030071Y0136836D01*
X0029423Y0138035D02*
X0246904Y0138035D01*
X0245986Y0136856D02*
X0245986Y0136856D01*
X0247837Y0139233D02*
X0028465Y0139233D01*
X0029081Y0138666D02*
X0029081Y0138666D01*
X0027163Y0140432D02*
X0248901Y0140432D01*
X0245830Y0124851D02*
X0030308Y0124851D01*
X0007031Y0094888D02*
X0091329Y0094888D01*
X0092528Y0093690D02*
X0007031Y0093690D01*
X0009917Y0092491D02*
X0101789Y0092491D01*
X0102927Y0091293D02*
X0011409Y0091293D01*
X0012705Y0090205D02*
X0012705Y0090205D01*
X0012769Y0090094D02*
X0104066Y0090094D01*
X0105204Y0088896D02*
X0013461Y0088896D01*
X0010029Y0092451D02*
X0010029Y0092451D01*
X0093997Y0097285D02*
X0094483Y0097285D01*
X0113891Y0099859D02*
X0146109Y0099859D01*
X0151875Y0105625D01*
X0229750Y0105625D01*
X0242250Y0118125D01*
X0247878Y0117660D02*
X0256096Y0117660D01*
X0256419Y0117578D02*
X0256419Y0117578D01*
X0257406Y0117660D02*
X0269111Y0117660D01*
X0269111Y0116462D02*
X0247878Y0116462D01*
X0247878Y0115263D02*
X0269111Y0115263D01*
X0269111Y0114065D02*
X0247878Y0114065D01*
X0247550Y0112866D02*
X0269111Y0112866D01*
X0269111Y0111668D02*
X0238325Y0111668D01*
X0237126Y0110469D02*
X0269111Y0110469D01*
X0269111Y0109270D02*
X0235928Y0109270D01*
X0234729Y0108072D02*
X0269111Y0108072D01*
X0269111Y0106873D02*
X0233531Y0106873D01*
X0232332Y0105675D02*
X0269111Y0105675D01*
X0269111Y0104476D02*
X0231134Y0104476D01*
X0252241Y0118636D02*
X0252241Y0118636D01*
X0251901Y0118859D02*
X0247878Y0118859D01*
X0247878Y0120057D02*
X0250066Y0120057D01*
X0248429Y0121256D02*
X0247878Y0121256D01*
X0245986Y0124394D02*
X0245986Y0124394D01*
X0260714Y0117934D02*
X0260714Y0117934D01*
X0262821Y0118859D02*
X0269111Y0118859D01*
X0269111Y0120057D02*
X0265086Y0120057D01*
X0266388Y0121256D02*
X0269111Y0121256D01*
X0269111Y0122454D02*
X0267690Y0122454D01*
X0268409Y0123653D02*
X0269111Y0123653D01*
X0269111Y0124851D02*
X0269058Y0124851D01*
X0269111Y0103278D02*
X0152060Y0103278D01*
X0150862Y0102079D02*
X0269111Y0102079D01*
X0269111Y0100881D02*
X0149663Y0100881D01*
X0148465Y0099682D02*
X0269111Y0099682D01*
X0269111Y0098484D02*
X0147266Y0098484D01*
X0145797Y0102079D02*
X0114985Y0102079D01*
X0177722Y0086499D02*
X0261570Y0086499D01*
X0261690Y0087180D02*
X0261690Y0087180D01*
X0261989Y0087697D02*
X0178920Y0087697D01*
X0180119Y0088896D02*
X0262681Y0088896D01*
X0263373Y0090094D02*
X0182910Y0090094D01*
X0183715Y0091293D02*
X0264733Y0091293D01*
X0263437Y0090205D02*
X0263437Y0090205D01*
X0263437Y0090205D01*
X0266225Y0092491D02*
X0183942Y0092491D01*
X0183722Y0093690D02*
X0269111Y0093690D01*
X0269111Y0094888D02*
X0182927Y0094888D01*
X0128603Y0043352D02*
X0123752Y0043352D01*
X0126003Y0042154D02*
X0128603Y0042154D01*
X0132184Y0036161D02*
X0150154Y0036161D01*
X0148956Y0034963D02*
X0132184Y0034963D01*
D13*
X0133750Y0031875D03*
X0122500Y0038125D03*
X0122385Y0041365D03*
X0115625Y0038125D03*
X0116476Y0025000D03*
X0113524Y0025000D03*
X0118750Y0018125D03*
X0071250Y0020625D03*
X0091875Y0055625D03*
X0095000Y0055625D03*
X0098125Y0055625D03*
X0098125Y0058750D03*
X0095000Y0058750D03*
X0091875Y0058750D03*
X0091875Y0061875D03*
X0095000Y0061875D03*
X0098125Y0061875D03*
X0101250Y0061875D03*
X0104375Y0061875D03*
X0104375Y0058750D03*
X0101250Y0058750D03*
X0101250Y0055625D03*
X0104375Y0055625D03*
X0121875Y0063125D03*
X0106250Y0086250D03*
X0075000Y0082500D03*
X0056250Y0095000D03*
X0053125Y0095000D03*
X0050000Y0095000D03*
X0050000Y0098125D03*
X0053125Y0098125D03*
X0056250Y0098125D03*
X0056250Y0101250D03*
X0053125Y0101250D03*
X0050000Y0101250D03*
X0050000Y0082500D03*
X0046875Y0082500D03*
X0074375Y0063750D03*
X0098125Y0109375D03*
X0093750Y0115000D03*
X0121250Y0138750D03*
X0124375Y0138750D03*
X0127500Y0138750D03*
X0130625Y0138750D03*
X0133750Y0138750D03*
X0136875Y0138750D03*
X0140000Y0138750D03*
X0237500Y0088750D03*
X0240000Y0091250D03*
X0242500Y0093750D03*
X0245000Y0096250D03*
X0247500Y0098750D03*
X0215000Y0050625D03*
X0217500Y0048125D03*
X0220000Y0045625D03*
X0222500Y0043125D03*
X0222500Y0040000D03*
X0222500Y0036875D03*
X0222500Y0033750D03*
X0222500Y0030625D03*
X0180625Y0025000D03*
X0177500Y0025000D03*
X0177500Y0021875D03*
X0180625Y0021875D03*
X0180625Y0018750D03*
X0177500Y0018750D03*
X0174375Y0018750D03*
X0174375Y0021875D03*
X0174375Y0025000D03*
D14*
X0131875Y0088125D03*
D15*
X0180625Y0092500D03*
D16*
X0176250Y0088125D01*
X0131875Y0088125D01*
D17*
X0113750Y0082500D03*
X0096875Y0085000D03*
X0093566Y0084816D03*
X0090257Y0084632D03*
X0089913Y0081482D03*
X0080000Y0082475D03*
X0080000Y0085625D03*
X0074233Y0086250D03*
X0095886Y0099375D03*
X0113891Y0099859D03*
X0134375Y0106875D03*
X0178125Y0076250D03*
X0197500Y0052500D03*
X0200187Y0050000D03*
X0202657Y0047500D03*
X0204911Y0045000D03*
X0207273Y0042500D03*
X0209743Y0040000D03*
X0212213Y0037500D03*
X0108750Y0036875D03*
X0053125Y0113125D03*
D18*
X0113524Y0025000D02*
X0114409Y0025000D01*
X0114409Y0016875D01*
X0113858Y0016324D01*
X0113858Y0011004D01*
X0116220Y0011004D02*
X0116220Y0016245D01*
X0115591Y0016875D01*
X0115591Y0025000D01*
X0116476Y0025000D01*
M02*
