G75*
%MOIN*%
%OFA0B0*%
%FSLAX25Y25*%
%IPPOS*%
%LPD*%
%AMOC8*
5,1,8,0,0,1.08239X$1,22.5*
%
%ADD10R,0.01772X0.10039*%
D10*
X0014646Y0011004D03*
X0017008Y0011004D03*
X0019370Y0011004D03*
X0021732Y0011004D03*
X0024094Y0011004D03*
X0026457Y0011004D03*
X0028819Y0011004D03*
X0031181Y0011004D03*
X0033543Y0011004D03*
X0035906Y0011004D03*
X0038268Y0011004D03*
X0040630Y0011004D03*
X0042992Y0011004D03*
X0045354Y0011004D03*
X0047717Y0011004D03*
X0050079Y0011004D03*
X0052441Y0011004D03*
X0054803Y0011004D03*
X0057165Y0011004D03*
X0059528Y0011004D03*
X0076063Y0011004D03*
X0078425Y0011004D03*
X0080787Y0011004D03*
X0083150Y0011004D03*
X0085512Y0011004D03*
X0087874Y0011004D03*
X0090236Y0011004D03*
X0092598Y0011004D03*
X0094961Y0011004D03*
X0097323Y0011004D03*
X0099685Y0011004D03*
X0102047Y0011004D03*
X0104409Y0011004D03*
X0106772Y0011004D03*
X0109134Y0011004D03*
X0111496Y0011004D03*
X0113858Y0011004D03*
X0116220Y0011004D03*
X0118583Y0011004D03*
X0120945Y0011004D03*
X0123307Y0011004D03*
X0125669Y0011004D03*
X0128031Y0011004D03*
X0130394Y0011004D03*
X0132756Y0011004D03*
X0135118Y0011004D03*
X0137480Y0011004D03*
X0139843Y0011004D03*
X0142205Y0011004D03*
X0144567Y0011004D03*
X0146929Y0011004D03*
X0149291Y0011004D03*
X0151654Y0011004D03*
X0154016Y0011004D03*
X0156378Y0011004D03*
X0158740Y0011004D03*
X0161102Y0011004D03*
X0163465Y0011004D03*
X0165827Y0011004D03*
X0168189Y0011004D03*
X0170551Y0011004D03*
X0172913Y0011004D03*
X0175276Y0011004D03*
X0177638Y0011004D03*
X0180000Y0011004D03*
X0182362Y0011004D03*
X0184724Y0011004D03*
X0187087Y0011004D03*
X0189449Y0011004D03*
X0191811Y0011004D03*
X0194173Y0011004D03*
X0196535Y0011004D03*
X0198898Y0011004D03*
X0201260Y0011004D03*
X0203622Y0011004D03*
X0205984Y0011004D03*
X0208346Y0011004D03*
X0210709Y0011004D03*
X0213071Y0011004D03*
X0215433Y0011004D03*
X0217795Y0011004D03*
X0220157Y0011004D03*
X0222520Y0011004D03*
X0224882Y0011004D03*
X0227244Y0011004D03*
X0229606Y0011004D03*
X0231969Y0011004D03*
X0234331Y0011004D03*
X0236693Y0011004D03*
X0239055Y0011004D03*
X0241417Y0011004D03*
X0243780Y0011004D03*
X0246142Y0011004D03*
X0248504Y0011004D03*
X0250866Y0011004D03*
X0253228Y0011004D03*
X0255591Y0011004D03*
X0257953Y0011004D03*
X0260315Y0011004D03*
X0262677Y0011004D03*
M02*
