G75*
%MOIN*%
%OFA0B0*%
%FSLAX25Y25*%
%IPPOS*%
%LPD*%
%AMOC8*
5,1,8,0,0,1.08239X$1,22.5*
%
%ADD10R,0.08875X0.08875*%
%ADD11C,0.35433*%
%ADD12R,0.03937X0.03150*%
%ADD13R,0.02756X0.05906*%
%ADD14R,0.01772X0.09055*%
%ADD15C,0.01200*%
%ADD16C,0.02700*%
%ADD17C,0.02362*%
%ADD18C,0.02481*%
D10*
X0185250Y0118750D03*
X0237250Y0118750D03*
D11*
X0211250Y0118750D03*
D12*
X0069589Y0127194D03*
X0069589Y0135856D03*
X0036911Y0135856D03*
X0036911Y0127194D03*
D13*
X0044392Y0122667D03*
X0056203Y0122667D03*
X0062108Y0122667D03*
D14*
X0058346Y0010512D03*
X0055984Y0010512D03*
X0053622Y0010512D03*
X0051260Y0010512D03*
X0048898Y0010512D03*
X0046535Y0010512D03*
X0044173Y0010512D03*
X0041811Y0010512D03*
X0039449Y0010512D03*
X0037087Y0010512D03*
X0034724Y0010512D03*
X0032362Y0010512D03*
X0030000Y0010512D03*
X0027638Y0010512D03*
X0025276Y0010512D03*
X0022913Y0010512D03*
X0020551Y0010512D03*
X0018189Y0010512D03*
X0015827Y0010512D03*
X0013465Y0010512D03*
X0074882Y0010512D03*
X0077244Y0010512D03*
X0079606Y0010512D03*
X0081969Y0010512D03*
X0084331Y0010512D03*
X0086693Y0010512D03*
X0089055Y0010512D03*
X0091417Y0010512D03*
X0093780Y0010512D03*
X0096142Y0010512D03*
X0098504Y0010512D03*
X0100866Y0010512D03*
X0103228Y0010512D03*
X0105591Y0010512D03*
X0107953Y0010512D03*
X0110315Y0010512D03*
X0112677Y0010512D03*
X0115039Y0010512D03*
X0117402Y0010512D03*
X0119764Y0010512D03*
X0122126Y0010512D03*
X0124488Y0010512D03*
X0126850Y0010512D03*
X0129213Y0010512D03*
X0131575Y0010512D03*
X0133937Y0010512D03*
X0136299Y0010512D03*
X0138661Y0010512D03*
X0141024Y0010512D03*
X0143386Y0010512D03*
X0145748Y0010512D03*
X0148110Y0010512D03*
X0150472Y0010512D03*
X0152835Y0010512D03*
X0155197Y0010512D03*
X0157559Y0010512D03*
X0159921Y0010512D03*
X0162283Y0010512D03*
X0164646Y0010512D03*
X0167008Y0010512D03*
X0169370Y0010512D03*
X0171732Y0010512D03*
X0174094Y0010512D03*
X0176457Y0010512D03*
X0178819Y0010512D03*
X0181181Y0010512D03*
X0183543Y0010512D03*
X0185906Y0010512D03*
X0188268Y0010512D03*
X0190630Y0010512D03*
X0192992Y0010512D03*
X0195354Y0010512D03*
X0197717Y0010512D03*
X0200079Y0010512D03*
X0202441Y0010512D03*
X0204803Y0010512D03*
X0207165Y0010512D03*
X0209528Y0010512D03*
X0211890Y0010512D03*
X0214252Y0010512D03*
X0216614Y0010512D03*
X0218976Y0010512D03*
X0221339Y0010512D03*
X0223701Y0010512D03*
X0226063Y0010512D03*
X0228425Y0010512D03*
X0230787Y0010512D03*
X0233150Y0010512D03*
X0235512Y0010512D03*
X0237874Y0010512D03*
X0240236Y0010512D03*
X0242598Y0010512D03*
X0244961Y0010512D03*
X0247323Y0010512D03*
X0249685Y0010512D03*
X0252047Y0010512D03*
X0254409Y0010512D03*
X0256772Y0010512D03*
X0259134Y0010512D03*
X0261496Y0010512D03*
D15*
X0006781Y0006781D02*
X0006781Y0074114D01*
X0009902Y0075250D01*
X0012510Y0077438D01*
X0012510Y0077438D01*
X0012510Y0077438D01*
X0014213Y0080387D01*
X0014804Y0083740D01*
X0014804Y0083740D01*
X0014213Y0087093D01*
X0014213Y0087093D01*
X0012510Y0090042D01*
X0009902Y0092231D01*
X0006781Y0093367D01*
X0006781Y0123846D01*
X0007236Y0122519D01*
X0009883Y0119118D01*
X0009883Y0119118D01*
X0013491Y0116761D01*
X0017669Y0115703D01*
X0021964Y0116059D01*
X0025910Y0117790D01*
X0025910Y0117790D01*
X0029081Y0120709D01*
X0031132Y0124499D01*
X0031841Y0128750D01*
X0031841Y0128750D01*
X0031132Y0133001D01*
X0029081Y0136791D01*
X0025910Y0139710D01*
X0022936Y0141014D01*
X0253329Y0141014D01*
X0252241Y0140739D01*
X0248633Y0138382D01*
X0248633Y0138382D01*
X0248633Y0138382D01*
X0245986Y0134981D01*
X0244587Y0130905D01*
X0244587Y0126595D01*
X0245986Y0122519D01*
X0248633Y0119118D01*
X0248633Y0119118D01*
X0248633Y0119118D01*
X0252241Y0116761D01*
X0256419Y0115703D01*
X0260714Y0116059D01*
X0264660Y0117790D01*
X0264660Y0117790D01*
X0267831Y0120709D01*
X0267831Y0120709D01*
X0269361Y0123536D01*
X0269361Y0093367D01*
X0266240Y0092231D01*
X0263631Y0090042D01*
X0261929Y0087093D01*
X0261338Y0083740D01*
X0261929Y0080387D01*
X0263631Y0077438D01*
X0266240Y0075250D01*
X0269361Y0074114D01*
X0269361Y0006781D01*
X0263769Y0006781D01*
X0263769Y0010512D01*
X0263769Y0015222D01*
X0263675Y0015575D01*
X0263492Y0015891D01*
X0263234Y0016150D01*
X0262917Y0016332D01*
X0262565Y0016427D01*
X0261496Y0016427D01*
X0260428Y0016427D01*
X0260315Y0016397D01*
X0260202Y0016427D01*
X0259134Y0016427D01*
X0259134Y0010512D01*
X0259134Y0010512D01*
X0261496Y0010512D01*
X0261496Y0016427D01*
X0261496Y0010512D01*
X0261496Y0010512D01*
X0261496Y0010512D01*
X0263769Y0010512D01*
X0261496Y0010512D01*
X0261496Y0010512D01*
X0259223Y0010512D01*
X0259134Y0010512D01*
X0259134Y0010512D01*
X0259134Y0016427D01*
X0258065Y0016427D01*
X0257953Y0016397D01*
X0257840Y0016427D01*
X0256772Y0016427D01*
X0256772Y0010512D01*
X0259134Y0010512D01*
X0259134Y0010512D01*
X0256861Y0010512D01*
X0256772Y0010512D01*
X0256772Y0010512D01*
X0256772Y0010512D01*
X0256772Y0016427D01*
X0255703Y0016427D01*
X0255591Y0016397D01*
X0255478Y0016427D01*
X0254409Y0016427D01*
X0253341Y0016427D01*
X0253228Y0016397D01*
X0253116Y0016427D01*
X0252047Y0016427D01*
X0250979Y0016427D01*
X0250866Y0016397D01*
X0250754Y0016427D01*
X0249685Y0016427D01*
X0248617Y0016427D01*
X0248504Y0016397D01*
X0248391Y0016427D01*
X0247323Y0016427D01*
X0247323Y0010512D01*
X0247323Y0010512D01*
X0249685Y0010512D01*
X0249685Y0016427D01*
X0249685Y0010512D01*
X0249685Y0010512D01*
X0249685Y0010512D01*
X0252047Y0010512D01*
X0252047Y0010512D01*
X0252047Y0016427D01*
X0252047Y0010512D01*
X0252047Y0010512D01*
X0251958Y0010512D01*
X0249685Y0010512D01*
X0249685Y0010512D01*
X0249596Y0010512D01*
X0247323Y0010512D01*
X0247323Y0010512D01*
X0247323Y0016427D01*
X0246254Y0016427D01*
X0246142Y0016397D01*
X0246029Y0016427D01*
X0244961Y0016427D01*
X0244961Y0010512D01*
X0247323Y0010512D01*
X0247323Y0010512D01*
X0245050Y0010512D01*
X0244961Y0010512D01*
X0244961Y0010512D01*
X0244961Y0010512D01*
X0244961Y0016427D01*
X0243892Y0016427D01*
X0243780Y0016397D01*
X0243667Y0016427D01*
X0242598Y0016427D01*
X0241530Y0016427D01*
X0241417Y0016397D01*
X0241305Y0016427D01*
X0240236Y0016427D01*
X0239168Y0016427D01*
X0239055Y0016397D01*
X0238942Y0016427D01*
X0237874Y0016427D01*
X0236806Y0016427D01*
X0236693Y0016397D01*
X0236580Y0016427D01*
X0235512Y0016427D01*
X0235512Y0010512D01*
X0237874Y0010512D01*
X0237874Y0016427D01*
X0237874Y0010512D01*
X0237874Y0010512D01*
X0237874Y0010512D01*
X0240236Y0010512D01*
X0240236Y0010512D01*
X0240236Y0016427D01*
X0240236Y0010512D01*
X0240236Y0010512D01*
X0237963Y0010512D01*
X0237874Y0010512D01*
X0237874Y0010512D01*
X0235601Y0010512D01*
X0235512Y0010512D01*
X0235512Y0010512D01*
X0235512Y0010512D01*
X0235512Y0016427D01*
X0234443Y0016427D01*
X0234331Y0016397D01*
X0234218Y0016427D01*
X0233150Y0016427D01*
X0233150Y0010512D01*
X0235512Y0010512D01*
X0235512Y0010512D01*
X0233239Y0010512D01*
X0233150Y0010512D01*
X0233150Y0010512D01*
X0233150Y0010512D01*
X0233150Y0016427D01*
X0232081Y0016427D01*
X0231969Y0016397D01*
X0231856Y0016427D01*
X0230787Y0016427D01*
X0229719Y0016427D01*
X0229606Y0016397D01*
X0229494Y0016427D01*
X0228425Y0016427D01*
X0227357Y0016427D01*
X0227244Y0016397D01*
X0227131Y0016427D01*
X0226063Y0016427D01*
X0226063Y0010512D01*
X0226063Y0010512D01*
X0226063Y0016427D01*
X0224995Y0016427D01*
X0224882Y0016397D01*
X0224769Y0016427D01*
X0223701Y0016427D01*
X0223701Y0010512D01*
X0226063Y0010512D01*
X0228425Y0010512D01*
X0228425Y0016427D01*
X0228425Y0010512D01*
X0228425Y0010512D01*
X0228425Y0010512D01*
X0226152Y0010512D01*
X0226063Y0010512D01*
X0226063Y0010512D01*
X0226063Y0010512D01*
X0223790Y0010512D01*
X0223701Y0010512D01*
X0223701Y0010512D01*
X0223701Y0010512D01*
X0223701Y0016427D01*
X0222632Y0016427D01*
X0222520Y0016397D01*
X0222407Y0016427D01*
X0221339Y0016427D01*
X0221339Y0010512D01*
X0223701Y0010512D01*
X0223701Y0010512D01*
X0221428Y0010512D01*
X0221339Y0010512D01*
X0221339Y0010512D01*
X0221339Y0010512D01*
X0221339Y0016427D01*
X0220270Y0016427D01*
X0220157Y0016397D01*
X0220045Y0016427D01*
X0218976Y0016427D01*
X0217908Y0016427D01*
X0217795Y0016397D01*
X0217683Y0016427D01*
X0216614Y0016427D01*
X0215546Y0016427D01*
X0215433Y0016397D01*
X0215320Y0016427D01*
X0214252Y0016427D01*
X0214252Y0010512D01*
X0214252Y0010512D01*
X0214252Y0016427D01*
X0213183Y0016427D01*
X0213071Y0016397D01*
X0212958Y0016427D01*
X0211890Y0016427D01*
X0211890Y0010512D01*
X0214252Y0010512D01*
X0216614Y0010512D01*
X0216614Y0016427D01*
X0216614Y0010512D01*
X0216614Y0010512D01*
X0216614Y0010512D01*
X0216525Y0010512D01*
X0214252Y0010512D01*
X0214252Y0010512D01*
X0214252Y0010512D01*
X0211979Y0010512D01*
X0211890Y0010512D01*
X0211890Y0010512D01*
X0211890Y0010512D01*
X0211890Y0016427D01*
X0210821Y0016427D01*
X0210709Y0016397D01*
X0210596Y0016427D01*
X0209528Y0016427D01*
X0209528Y0010512D01*
X0211890Y0010512D01*
X0211890Y0010512D01*
X0209617Y0010512D01*
X0209528Y0010512D01*
X0209528Y0010512D01*
X0209527Y0010512D01*
X0209527Y0010512D01*
X0207165Y0010512D01*
X0207165Y0010512D01*
X0204803Y0010512D01*
X0204803Y0016427D01*
X0203735Y0016427D01*
X0203622Y0016397D01*
X0203509Y0016427D01*
X0202441Y0016427D01*
X0202441Y0010512D01*
X0202441Y0010512D01*
X0202441Y0016427D01*
X0201372Y0016427D01*
X0201260Y0016397D01*
X0201147Y0016427D01*
X0200079Y0016427D01*
X0200079Y0010512D01*
X0202441Y0010512D01*
X0204803Y0010512D01*
X0204803Y0010512D01*
X0204803Y0010512D01*
X0204803Y0016427D01*
X0205872Y0016427D01*
X0205984Y0016397D01*
X0206097Y0016427D01*
X0207165Y0016427D01*
X0207165Y0010512D01*
X0207165Y0010512D01*
X0204892Y0010512D01*
X0204803Y0010512D01*
X0202530Y0010512D01*
X0202441Y0010512D01*
X0202441Y0010512D01*
X0202441Y0010512D01*
X0200168Y0010512D01*
X0200079Y0010512D01*
X0200079Y0010512D01*
X0200079Y0010512D01*
X0200079Y0016427D01*
X0199010Y0016427D01*
X0198898Y0016397D01*
X0198785Y0016427D01*
X0197717Y0016427D01*
X0197717Y0010512D01*
X0200079Y0010512D01*
X0200079Y0010512D01*
X0199990Y0010512D01*
X0197717Y0010512D01*
X0197717Y0010512D01*
X0197716Y0010512D01*
X0197716Y0010512D01*
X0195354Y0010512D01*
X0195354Y0010512D01*
X0192992Y0010512D01*
X0192992Y0016427D01*
X0191924Y0016427D01*
X0191811Y0016397D01*
X0191698Y0016427D01*
X0190630Y0016427D01*
X0190630Y0010512D01*
X0190630Y0010512D01*
X0192992Y0010512D01*
X0192992Y0010512D01*
X0192992Y0010512D01*
X0192992Y0016427D01*
X0194061Y0016427D01*
X0194173Y0016397D01*
X0194286Y0016427D01*
X0195354Y0016427D01*
X0195354Y0010512D01*
X0195354Y0010512D01*
X0193081Y0010512D01*
X0192992Y0010512D01*
X0190719Y0010512D01*
X0190630Y0010512D01*
X0190630Y0010512D01*
X0190630Y0016427D01*
X0189561Y0016427D01*
X0189449Y0016397D01*
X0189336Y0016427D01*
X0188268Y0016427D01*
X0188268Y0010512D01*
X0190630Y0010512D01*
X0190630Y0010512D01*
X0188357Y0010512D01*
X0188268Y0010512D01*
X0188268Y0010512D01*
X0188268Y0010512D01*
X0188268Y0016427D01*
X0187199Y0016427D01*
X0187087Y0016397D01*
X0186974Y0016427D01*
X0185906Y0016427D01*
X0185906Y0010512D01*
X0188268Y0010512D01*
X0188268Y0010512D01*
X0185994Y0010512D01*
X0185906Y0010512D01*
X0185906Y0010512D01*
X0185905Y0010512D01*
X0185905Y0010512D01*
X0183543Y0010512D01*
X0183543Y0010512D01*
X0181181Y0010512D01*
X0181181Y0016427D01*
X0180113Y0016427D01*
X0180000Y0016397D01*
X0179887Y0016427D01*
X0178819Y0016427D01*
X0178819Y0010512D01*
X0178819Y0010512D01*
X0181181Y0010512D01*
X0181181Y0010512D01*
X0181181Y0010512D01*
X0181181Y0016427D01*
X0182250Y0016427D01*
X0182362Y0016397D01*
X0182475Y0016427D01*
X0183543Y0016427D01*
X0183543Y0010512D01*
X0183543Y0010512D01*
X0183454Y0010512D01*
X0181181Y0010512D01*
X0181092Y0010512D01*
X0178819Y0010512D01*
X0178819Y0010512D01*
X0178819Y0016427D01*
X0177750Y0016427D01*
X0177638Y0016397D01*
X0177525Y0016427D01*
X0176457Y0016427D01*
X0176457Y0010512D01*
X0178819Y0010512D01*
X0178819Y0010512D01*
X0176546Y0010512D01*
X0176457Y0010512D01*
X0176457Y0010512D01*
X0176457Y0010512D01*
X0176457Y0016427D01*
X0175388Y0016427D01*
X0175276Y0016397D01*
X0175163Y0016427D01*
X0174095Y0016427D01*
X0174095Y0010512D01*
X0176457Y0010512D01*
X0176457Y0010512D01*
X0174183Y0010512D01*
X0174095Y0010512D01*
X0174095Y0010512D01*
X0174094Y0010512D01*
X0174094Y0010512D01*
X0171732Y0010512D01*
X0171732Y0010512D01*
X0169370Y0010512D01*
X0169370Y0016427D01*
X0168302Y0016427D01*
X0168189Y0016397D01*
X0168076Y0016427D01*
X0167008Y0016427D01*
X0167008Y0010512D01*
X0167008Y0010512D01*
X0169370Y0010512D01*
X0169370Y0010512D01*
X0169370Y0016427D01*
X0170439Y0016427D01*
X0170551Y0016397D01*
X0170664Y0016427D01*
X0171732Y0016427D01*
X0171732Y0010512D01*
X0171732Y0010512D01*
X0169459Y0010512D01*
X0169370Y0010512D01*
X0169370Y0010512D01*
X0169370Y0010512D01*
X0167097Y0010512D01*
X0167008Y0010512D01*
X0167008Y0010512D01*
X0167008Y0016427D01*
X0165939Y0016427D01*
X0165827Y0016397D01*
X0165714Y0016427D01*
X0164646Y0016427D01*
X0164646Y0010512D01*
X0167008Y0010512D01*
X0167008Y0010512D01*
X0166919Y0010512D01*
X0164646Y0010512D01*
X0164646Y0010512D01*
X0164646Y0010512D01*
X0164646Y0016427D01*
X0163577Y0016427D01*
X0163465Y0016397D01*
X0163352Y0016427D01*
X0162284Y0016427D01*
X0162284Y0010512D01*
X0164646Y0010512D01*
X0164646Y0010512D01*
X0164557Y0010512D01*
X0162284Y0010512D01*
X0162284Y0010512D01*
X0162283Y0010512D01*
X0162283Y0010512D01*
X0159921Y0010512D01*
X0159921Y0010512D01*
X0157559Y0010512D01*
X0157559Y0016427D01*
X0156491Y0016427D01*
X0156378Y0016397D01*
X0156265Y0016427D01*
X0155197Y0016427D01*
X0155197Y0010512D01*
X0155197Y0010512D01*
X0157559Y0010512D01*
X0157559Y0010512D01*
X0157559Y0016427D01*
X0158628Y0016427D01*
X0158740Y0016397D01*
X0158853Y0016427D01*
X0159921Y0016427D01*
X0159921Y0010512D01*
X0159921Y0010512D01*
X0157648Y0010512D01*
X0157559Y0010512D01*
X0157559Y0010512D01*
X0157559Y0010512D01*
X0155286Y0010512D01*
X0155197Y0010512D01*
X0155197Y0010512D01*
X0155197Y0016427D01*
X0154128Y0016427D01*
X0154016Y0016397D01*
X0153903Y0016427D01*
X0152835Y0016427D01*
X0152835Y0010512D01*
X0155197Y0010512D01*
X0155197Y0010512D01*
X0152924Y0010512D01*
X0152835Y0010512D01*
X0152835Y0010512D01*
X0152835Y0010512D01*
X0152835Y0016427D01*
X0151766Y0016427D01*
X0151654Y0016397D01*
X0151541Y0016427D01*
X0150472Y0016427D01*
X0149404Y0016427D01*
X0149291Y0016397D01*
X0149179Y0016427D01*
X0148110Y0016427D01*
X0147042Y0016427D01*
X0146929Y0016397D01*
X0146817Y0016427D01*
X0145748Y0016427D01*
X0144680Y0016427D01*
X0144567Y0016397D01*
X0144454Y0016427D01*
X0143386Y0016427D01*
X0143386Y0010512D01*
X0145748Y0010512D01*
X0145748Y0016427D01*
X0145748Y0010512D01*
X0145748Y0010512D01*
X0145748Y0010512D01*
X0148110Y0010512D01*
X0148110Y0010512D01*
X0148110Y0016427D01*
X0148110Y0010512D01*
X0148110Y0010512D01*
X0148021Y0010512D01*
X0145748Y0010512D01*
X0145748Y0010512D01*
X0143475Y0010512D01*
X0143386Y0010512D01*
X0143386Y0010512D01*
X0143386Y0010512D01*
X0143386Y0016427D01*
X0142317Y0016427D01*
X0142205Y0016397D01*
X0142092Y0016427D01*
X0141024Y0016427D01*
X0141024Y0010512D01*
X0143386Y0010512D01*
X0143386Y0010512D01*
X0141113Y0010512D01*
X0141024Y0010512D01*
X0141024Y0010512D01*
X0141024Y0010512D01*
X0141024Y0016427D01*
X0139955Y0016427D01*
X0139843Y0016397D01*
X0139730Y0016427D01*
X0138661Y0016427D01*
X0137593Y0016427D01*
X0137480Y0016397D01*
X0137368Y0016427D01*
X0136299Y0016427D01*
X0135231Y0016427D01*
X0135118Y0016397D01*
X0135005Y0016427D01*
X0133937Y0016427D01*
X0133365Y0016427D01*
X0133365Y0038209D01*
X0163633Y0038209D01*
X0165117Y0038209D01*
X0166367Y0039459D01*
X0167416Y0040508D01*
X0167416Y0088008D01*
X0175117Y0095709D01*
X0176166Y0096758D01*
X0176166Y0103633D01*
X0178742Y0106209D01*
X0179255Y0106209D01*
X0180189Y0106596D01*
X0180904Y0107311D01*
X0181291Y0108245D01*
X0181291Y0109255D01*
X0180904Y0110189D01*
X0180189Y0110904D01*
X0179255Y0111291D01*
X0178245Y0111291D01*
X0177311Y0110904D01*
X0176596Y0110189D01*
X0176209Y0109255D01*
X0176209Y0108742D01*
X0172584Y0105117D01*
X0172584Y0098242D01*
X0164883Y0090541D01*
X0163834Y0089492D01*
X0163834Y0041992D01*
X0163633Y0041791D01*
X0161572Y0041791D01*
X0161916Y0042620D01*
X0161916Y0043630D01*
X0161529Y0044564D01*
X0161166Y0044927D01*
X0161166Y0061367D01*
X0160117Y0062416D01*
X0160117Y0062416D01*
X0108691Y0113842D01*
X0107642Y0114891D01*
X0064517Y0114891D01*
X0060884Y0118523D01*
X0063979Y0118523D01*
X0064677Y0119221D01*
X0064677Y0126113D01*
X0063979Y0126810D01*
X0060237Y0126810D01*
X0059540Y0126113D01*
X0059540Y0119867D01*
X0058771Y0120636D01*
X0058771Y0126113D01*
X0058074Y0126810D01*
X0054332Y0126810D01*
X0054312Y0126791D01*
X0053523Y0126791D01*
X0053252Y0127061D01*
X0052359Y0127431D01*
X0051391Y0127431D01*
X0050498Y0127061D01*
X0049814Y0126377D01*
X0049444Y0125484D01*
X0049444Y0124516D01*
X0049468Y0124457D01*
X0046960Y0124457D01*
X0046960Y0126113D01*
X0046263Y0126810D01*
X0042521Y0126810D01*
X0041823Y0126113D01*
X0041823Y0119221D01*
X0042521Y0118523D01*
X0046263Y0118523D01*
X0046960Y0119221D01*
X0046960Y0120876D01*
X0049092Y0120876D01*
X0060508Y0109459D01*
X0103633Y0109459D01*
X0116209Y0096883D01*
X0116209Y0096370D01*
X0116596Y0095436D01*
X0117311Y0094721D01*
X0118245Y0094334D01*
X0119255Y0094334D01*
X0120189Y0094721D01*
X0120904Y0095436D01*
X0121234Y0096234D01*
X0157584Y0059883D01*
X0157584Y0044927D01*
X0157221Y0044564D01*
X0156834Y0043630D01*
X0156834Y0042620D01*
X0157178Y0041791D01*
X0150947Y0041791D01*
X0151291Y0042620D01*
X0151291Y0043630D01*
X0150904Y0044564D01*
X0150189Y0045279D01*
X0149255Y0045666D01*
X0148245Y0045666D01*
X0147311Y0045279D01*
X0146948Y0044916D01*
X0131758Y0044916D01*
X0127422Y0040579D01*
X0127422Y0026796D01*
X0127064Y0027154D01*
X0126130Y0027541D01*
X0125666Y0027541D01*
X0125666Y0028005D01*
X0125279Y0028939D01*
X0124564Y0029654D01*
X0124208Y0029801D01*
X0124291Y0029883D01*
X0124291Y0039883D01*
X0127617Y0043209D01*
X0128666Y0044258D01*
X0128666Y0046323D01*
X0129029Y0046686D01*
X0129416Y0047620D01*
X0129416Y0048027D01*
X0130982Y0048027D01*
X0132372Y0049416D01*
X0132372Y0051381D01*
X0131878Y0051875D01*
X0132372Y0052369D01*
X0132372Y0054334D01*
X0130982Y0055723D01*
X0129247Y0055723D01*
X0129247Y0056607D01*
X0127857Y0057997D01*
X0125893Y0057997D01*
X0125312Y0057416D01*
X0113633Y0057416D01*
X0108524Y0052307D01*
X0108524Y0016427D01*
X0107953Y0016427D01*
X0107953Y0010512D01*
X0107953Y0010512D01*
X0107953Y0016427D01*
X0106884Y0016427D01*
X0106772Y0016397D01*
X0106659Y0016427D01*
X0105591Y0016427D01*
X0105591Y0010512D01*
X0107953Y0010512D01*
X0107953Y0010512D01*
X0105680Y0010512D01*
X0105591Y0010512D01*
X0105591Y0010512D01*
X0105590Y0010512D01*
X0105590Y0010512D01*
X0103228Y0010512D01*
X0103228Y0010512D01*
X0100866Y0010512D01*
X0100866Y0016427D01*
X0099798Y0016427D01*
X0099685Y0016397D01*
X0099572Y0016427D01*
X0098504Y0016427D01*
X0098504Y0010512D01*
X0098504Y0010512D01*
X0100866Y0010512D01*
X0100866Y0010512D01*
X0100866Y0010512D01*
X0100866Y0016427D01*
X0101935Y0016427D01*
X0102047Y0016397D01*
X0102160Y0016427D01*
X0103228Y0016427D01*
X0103228Y0010512D01*
X0103228Y0010512D01*
X0100955Y0010512D01*
X0100866Y0010512D01*
X0098593Y0010512D01*
X0098504Y0010512D01*
X0098504Y0010512D01*
X0098504Y0016427D01*
X0097435Y0016427D01*
X0097323Y0016397D01*
X0097210Y0016427D01*
X0096142Y0016427D01*
X0096142Y0010512D01*
X0098504Y0010512D01*
X0098504Y0010512D01*
X0096231Y0010512D01*
X0096142Y0010512D01*
X0096142Y0010512D01*
X0096142Y0010512D01*
X0096142Y0016427D01*
X0095073Y0016427D01*
X0094961Y0016397D01*
X0094848Y0016427D01*
X0093780Y0016427D01*
X0093780Y0010512D01*
X0096142Y0010512D01*
X0096142Y0010512D01*
X0093869Y0010512D01*
X0093780Y0010512D01*
X0093780Y0010512D01*
X0093779Y0010512D01*
X0093779Y0010512D01*
X0091417Y0010512D01*
X0091417Y0010512D01*
X0089055Y0010512D01*
X0089055Y0016427D01*
X0087987Y0016427D01*
X0087874Y0016397D01*
X0087761Y0016427D01*
X0086693Y0016427D01*
X0086693Y0010512D01*
X0086693Y0010512D01*
X0089055Y0010512D01*
X0089055Y0010512D01*
X0089055Y0010512D01*
X0089055Y0016427D01*
X0090124Y0016427D01*
X0090236Y0016397D01*
X0090349Y0016427D01*
X0091417Y0016427D01*
X0091417Y0010512D01*
X0091417Y0010512D01*
X0089144Y0010512D01*
X0089055Y0010512D01*
X0086782Y0010512D01*
X0086693Y0010512D01*
X0086693Y0010512D01*
X0086693Y0016427D01*
X0085624Y0016427D01*
X0085512Y0016397D01*
X0085399Y0016427D01*
X0084331Y0016427D01*
X0084331Y0010512D01*
X0086693Y0010512D01*
X0086693Y0010512D01*
X0084420Y0010512D01*
X0084331Y0010512D01*
X0084331Y0010512D01*
X0084331Y0010512D01*
X0084331Y0016427D01*
X0083262Y0016427D01*
X0083150Y0016397D01*
X0083037Y0016427D01*
X0081969Y0016427D01*
X0081969Y0010512D01*
X0084331Y0010512D01*
X0084331Y0010512D01*
X0082057Y0010512D01*
X0081969Y0010512D01*
X0081969Y0010512D01*
X0081968Y0010512D01*
X0081968Y0010512D01*
X0079606Y0010512D01*
X0079606Y0010512D01*
X0077244Y0010512D01*
X0077244Y0016427D01*
X0076176Y0016427D01*
X0076063Y0016397D01*
X0075950Y0016427D01*
X0074882Y0016427D01*
X0074882Y0010512D01*
X0074882Y0010512D01*
X0077244Y0010512D01*
X0077244Y0010512D01*
X0077244Y0010512D01*
X0077244Y0016427D01*
X0078313Y0016427D01*
X0078425Y0016397D01*
X0078538Y0016427D01*
X0079606Y0016427D01*
X0079606Y0010512D01*
X0079606Y0010512D01*
X0077333Y0010512D01*
X0077244Y0010512D01*
X0074971Y0010512D01*
X0074882Y0010512D01*
X0074882Y0010512D01*
X0074882Y0016427D01*
X0073813Y0016427D01*
X0073461Y0016332D01*
X0073351Y0016269D01*
X0073351Y0019953D01*
X0072453Y0021508D01*
X0070898Y0022406D01*
X0061632Y0022406D01*
X0059949Y0021434D01*
X0058977Y0019751D01*
X0058977Y0016427D01*
X0058347Y0016427D01*
X0058347Y0010512D01*
X0058346Y0010512D01*
X0058346Y0010512D01*
X0055984Y0010512D01*
X0055984Y0010512D01*
X0053622Y0010512D01*
X0053622Y0016427D01*
X0052554Y0016427D01*
X0052441Y0016397D01*
X0052328Y0016427D01*
X0051260Y0016427D01*
X0051260Y0010512D01*
X0051260Y0010512D01*
X0053622Y0010512D01*
X0053622Y0010512D01*
X0053622Y0016427D01*
X0054691Y0016427D01*
X0054803Y0016397D01*
X0054916Y0016427D01*
X0055984Y0016427D01*
X0055984Y0010512D01*
X0055984Y0010512D01*
X0053711Y0010512D01*
X0053622Y0010512D01*
X0053622Y0010512D01*
X0053622Y0010512D01*
X0051349Y0010512D01*
X0051260Y0010512D01*
X0051260Y0010512D01*
X0051260Y0016427D01*
X0050191Y0016427D01*
X0050079Y0016397D01*
X0049966Y0016427D01*
X0048898Y0016427D01*
X0048898Y0010512D01*
X0051260Y0010512D01*
X0051260Y0010512D01*
X0051171Y0010512D01*
X0048898Y0010512D01*
X0048898Y0010512D01*
X0048898Y0010512D01*
X0048898Y0016427D01*
X0047829Y0016427D01*
X0047717Y0016397D01*
X0047604Y0016427D01*
X0046535Y0016427D01*
X0045467Y0016427D01*
X0045354Y0016397D01*
X0045242Y0016427D01*
X0044173Y0016427D01*
X0043105Y0016427D01*
X0042992Y0016397D01*
X0042880Y0016427D01*
X0041811Y0016427D01*
X0040743Y0016427D01*
X0040630Y0016397D01*
X0040517Y0016427D01*
X0039449Y0016427D01*
X0039449Y0010512D01*
X0041811Y0010512D01*
X0041811Y0016427D01*
X0041811Y0010512D01*
X0041811Y0010512D01*
X0041811Y0010512D01*
X0044173Y0010512D01*
X0044173Y0010512D01*
X0044173Y0016427D01*
X0044173Y0010512D01*
X0044173Y0010512D01*
X0041900Y0010512D01*
X0041811Y0010512D01*
X0041811Y0010512D01*
X0039538Y0010512D01*
X0039449Y0010512D01*
X0039449Y0010512D01*
X0039449Y0010512D01*
X0039449Y0016427D01*
X0038380Y0016427D01*
X0038268Y0016397D01*
X0038155Y0016427D01*
X0037087Y0016427D01*
X0037087Y0010512D01*
X0039449Y0010512D01*
X0039449Y0010512D01*
X0037176Y0010512D01*
X0037087Y0010512D01*
X0037087Y0010512D01*
X0037087Y0010512D01*
X0037087Y0016427D01*
X0036018Y0016427D01*
X0035905Y0016397D01*
X0035793Y0016427D01*
X0034724Y0016427D01*
X0033656Y0016427D01*
X0033543Y0016397D01*
X0033431Y0016427D01*
X0032362Y0016427D01*
X0031294Y0016427D01*
X0031181Y0016397D01*
X0031068Y0016427D01*
X0030000Y0016427D01*
X0028932Y0016427D01*
X0028819Y0016397D01*
X0028706Y0016427D01*
X0027638Y0016427D01*
X0027638Y0010512D01*
X0030000Y0010512D01*
X0030000Y0010512D01*
X0030000Y0016427D01*
X0030000Y0010512D01*
X0032362Y0010512D01*
X0032362Y0010512D01*
X0032362Y0016427D01*
X0032362Y0010512D01*
X0032362Y0010512D01*
X0030089Y0010512D01*
X0030000Y0010512D01*
X0030000Y0010512D01*
X0030000Y0010512D01*
X0027727Y0010512D01*
X0027638Y0010512D01*
X0027638Y0010512D01*
X0027638Y0010512D01*
X0027638Y0016427D01*
X0026569Y0016427D01*
X0026457Y0016397D01*
X0026344Y0016427D01*
X0025276Y0016427D01*
X0025276Y0010512D01*
X0027638Y0010512D01*
X0027638Y0010512D01*
X0025365Y0010512D01*
X0025276Y0010512D01*
X0025276Y0010512D01*
X0025276Y0010512D01*
X0025276Y0016427D01*
X0024207Y0016427D01*
X0024094Y0016397D01*
X0023982Y0016427D01*
X0022913Y0016427D01*
X0021845Y0016427D01*
X0021732Y0016397D01*
X0021620Y0016427D01*
X0020551Y0016427D01*
X0019483Y0016427D01*
X0019370Y0016397D01*
X0019257Y0016427D01*
X0018189Y0016427D01*
X0018189Y0010512D01*
X0018189Y0010512D01*
X0018189Y0016427D01*
X0017120Y0016427D01*
X0017008Y0016397D01*
X0016895Y0016427D01*
X0015827Y0016427D01*
X0015827Y0010512D01*
X0018189Y0010512D01*
X0020551Y0010512D01*
X0020551Y0016427D01*
X0020551Y0010512D01*
X0020551Y0010512D01*
X0020551Y0010512D01*
X0018278Y0010512D01*
X0018189Y0010512D01*
X0018189Y0010512D01*
X0018189Y0010512D01*
X0018100Y0010512D01*
X0015827Y0010512D01*
X0015827Y0010512D01*
X0015827Y0010512D01*
X0015827Y0016427D01*
X0014758Y0016427D01*
X0014646Y0016397D01*
X0014533Y0016427D01*
X0013465Y0016427D01*
X0013465Y0010512D01*
X0015827Y0010512D01*
X0015827Y0010512D01*
X0015738Y0010512D01*
X0013465Y0010512D01*
X0013465Y0010512D01*
X0013464Y0010512D01*
X0013464Y0010512D01*
X0011191Y0010512D01*
X0011191Y0015222D01*
X0011286Y0015575D01*
X0011469Y0015891D01*
X0011727Y0016150D01*
X0012043Y0016332D01*
X0012396Y0016427D01*
X0013464Y0016427D01*
X0013464Y0010512D01*
X0011191Y0010512D01*
X0011191Y0006781D01*
X0006781Y0006781D01*
X0006781Y0007397D02*
X0011191Y0007397D01*
X0011191Y0008596D02*
X0006781Y0008596D01*
X0006781Y0009794D02*
X0011191Y0009794D01*
X0011191Y0010993D02*
X0006781Y0010993D01*
X0006781Y0012191D02*
X0011191Y0012191D01*
X0011191Y0013390D02*
X0006781Y0013390D01*
X0006781Y0014588D02*
X0011191Y0014588D01*
X0011408Y0015787D02*
X0006781Y0015787D01*
X0006781Y0016985D02*
X0058977Y0016985D01*
X0058346Y0016427D02*
X0057278Y0016427D01*
X0057165Y0016397D01*
X0057053Y0016427D01*
X0055984Y0016427D01*
X0055984Y0010512D01*
X0055984Y0010512D01*
X0056073Y0010512D01*
X0058346Y0010512D01*
X0058346Y0016427D01*
X0058346Y0015787D02*
X0058347Y0015787D01*
X0058346Y0014588D02*
X0058347Y0014588D01*
X0058346Y0013390D02*
X0058347Y0013390D01*
X0058346Y0012191D02*
X0058347Y0012191D01*
X0058346Y0010993D02*
X0058347Y0010993D01*
X0055984Y0010993D02*
X0055984Y0010993D01*
X0055984Y0012191D02*
X0055984Y0012191D01*
X0055984Y0013390D02*
X0055984Y0013390D01*
X0055984Y0014588D02*
X0055984Y0014588D01*
X0055984Y0015787D02*
X0055984Y0015787D01*
X0053622Y0015787D02*
X0053622Y0015787D01*
X0053622Y0014588D02*
X0053622Y0014588D01*
X0053622Y0013390D02*
X0053622Y0013390D01*
X0053622Y0012191D02*
X0053622Y0012191D01*
X0053622Y0010993D02*
X0053622Y0010993D01*
X0051260Y0010993D02*
X0051260Y0010993D01*
X0051260Y0012191D02*
X0051260Y0012191D01*
X0051260Y0013390D02*
X0051260Y0013390D01*
X0051260Y0014588D02*
X0051260Y0014588D01*
X0051260Y0015787D02*
X0051260Y0015787D01*
X0048898Y0015787D02*
X0048898Y0015787D01*
X0048898Y0014588D02*
X0048898Y0014588D01*
X0048898Y0013390D02*
X0048898Y0013390D01*
X0048898Y0012191D02*
X0048898Y0012191D01*
X0048898Y0010993D02*
X0048898Y0010993D01*
X0048898Y0010512D02*
X0048898Y0010512D01*
X0046536Y0010512D01*
X0046536Y0010512D01*
X0046624Y0010512D01*
X0048898Y0010512D01*
X0046535Y0010512D02*
X0046535Y0010512D01*
X0046535Y0010512D01*
X0044173Y0010512D01*
X0044173Y0010512D01*
X0044262Y0010512D01*
X0046535Y0010512D01*
X0046535Y0016427D01*
X0046535Y0010512D01*
X0046535Y0010993D02*
X0046535Y0010993D01*
X0046535Y0012191D02*
X0046535Y0012191D01*
X0046535Y0013390D02*
X0046535Y0013390D01*
X0046535Y0014588D02*
X0046535Y0014588D01*
X0046535Y0015787D02*
X0046535Y0015787D01*
X0044173Y0015787D02*
X0044173Y0015787D01*
X0044173Y0014588D02*
X0044173Y0014588D01*
X0044173Y0013390D02*
X0044173Y0013390D01*
X0044173Y0012191D02*
X0044173Y0012191D01*
X0044173Y0010993D02*
X0044173Y0010993D01*
X0041811Y0010993D02*
X0041811Y0010993D01*
X0041811Y0012191D02*
X0041811Y0012191D01*
X0041811Y0013390D02*
X0041811Y0013390D01*
X0041811Y0014588D02*
X0041811Y0014588D01*
X0041811Y0015787D02*
X0041811Y0015787D01*
X0039449Y0015787D02*
X0039449Y0015787D01*
X0039449Y0014588D02*
X0039449Y0014588D01*
X0039449Y0013390D02*
X0039449Y0013390D01*
X0039449Y0012191D02*
X0039449Y0012191D01*
X0039449Y0010993D02*
X0039449Y0010993D01*
X0037087Y0010993D02*
X0037087Y0010993D01*
X0037086Y0010512D02*
X0037086Y0010512D01*
X0034725Y0010512D01*
X0034725Y0010512D01*
X0034813Y0010512D01*
X0037086Y0010512D01*
X0037087Y0012191D02*
X0037087Y0012191D01*
X0037087Y0013390D02*
X0037087Y0013390D01*
X0037087Y0014588D02*
X0037087Y0014588D01*
X0037087Y0015787D02*
X0037087Y0015787D01*
X0034724Y0015787D02*
X0034724Y0015787D01*
X0034724Y0016427D02*
X0034724Y0010512D01*
X0034724Y0010512D01*
X0032362Y0010512D01*
X0032362Y0010512D01*
X0034635Y0010512D01*
X0034724Y0010512D01*
X0034724Y0010512D01*
X0034724Y0016427D01*
X0034724Y0014588D02*
X0034724Y0014588D01*
X0034724Y0013390D02*
X0034724Y0013390D01*
X0034724Y0012191D02*
X0034724Y0012191D01*
X0034724Y0010993D02*
X0034724Y0010993D01*
X0032362Y0010993D02*
X0032362Y0010993D01*
X0032362Y0012191D02*
X0032362Y0012191D01*
X0032362Y0013390D02*
X0032362Y0013390D01*
X0032362Y0014588D02*
X0032362Y0014588D01*
X0032362Y0015787D02*
X0032362Y0015787D01*
X0030000Y0015787D02*
X0030000Y0015787D01*
X0030000Y0014588D02*
X0030000Y0014588D01*
X0030000Y0013390D02*
X0030000Y0013390D01*
X0030000Y0012191D02*
X0030000Y0012191D01*
X0030000Y0010993D02*
X0030000Y0010993D01*
X0027638Y0010993D02*
X0027638Y0010993D01*
X0027638Y0012191D02*
X0027638Y0012191D01*
X0027638Y0013390D02*
X0027638Y0013390D01*
X0027638Y0014588D02*
X0027638Y0014588D01*
X0027638Y0015787D02*
X0027638Y0015787D01*
X0025276Y0015787D02*
X0025276Y0015787D01*
X0025276Y0014588D02*
X0025276Y0014588D01*
X0025276Y0013390D02*
X0025276Y0013390D01*
X0025276Y0012191D02*
X0025276Y0012191D01*
X0025276Y0010993D02*
X0025276Y0010993D01*
X0025275Y0010512D02*
X0025275Y0010512D01*
X0022914Y0010512D01*
X0022914Y0010512D01*
X0023002Y0010512D01*
X0025275Y0010512D01*
X0022913Y0010512D02*
X0022913Y0010512D01*
X0022913Y0010512D01*
X0020551Y0010512D01*
X0020551Y0010512D01*
X0020640Y0010512D01*
X0022913Y0010512D01*
X0022913Y0016427D01*
X0022913Y0010512D01*
X0022913Y0010993D02*
X0022913Y0010993D01*
X0022913Y0012191D02*
X0022913Y0012191D01*
X0022913Y0013390D02*
X0022913Y0013390D01*
X0022913Y0014588D02*
X0022913Y0014588D01*
X0022913Y0015787D02*
X0022913Y0015787D01*
X0020551Y0015787D02*
X0020551Y0015787D01*
X0020551Y0014588D02*
X0020551Y0014588D01*
X0020551Y0013390D02*
X0020551Y0013390D01*
X0020551Y0012191D02*
X0020551Y0012191D01*
X0020551Y0010993D02*
X0020551Y0010993D01*
X0018189Y0010993D02*
X0018189Y0010993D01*
X0018189Y0012191D02*
X0018189Y0012191D01*
X0018189Y0013390D02*
X0018189Y0013390D01*
X0018189Y0014588D02*
X0018189Y0014588D01*
X0018189Y0015787D02*
X0018189Y0015787D01*
X0015827Y0015787D02*
X0015827Y0015787D01*
X0015827Y0014588D02*
X0015827Y0014588D01*
X0015827Y0013390D02*
X0015827Y0013390D01*
X0015827Y0012191D02*
X0015827Y0012191D01*
X0015827Y0010993D02*
X0015827Y0010993D01*
X0013465Y0010993D02*
X0013464Y0010993D01*
X0013464Y0012191D02*
X0013465Y0012191D01*
X0013464Y0013390D02*
X0013465Y0013390D01*
X0013464Y0014588D02*
X0013465Y0014588D01*
X0013464Y0015787D02*
X0013465Y0015787D01*
X0006781Y0018184D02*
X0058977Y0018184D01*
X0058977Y0019382D02*
X0006781Y0019382D01*
X0006781Y0020581D02*
X0059456Y0020581D01*
X0059949Y0021434D02*
X0059949Y0021434D01*
X0059949Y0021434D01*
X0060546Y0021779D02*
X0006781Y0021779D01*
X0006781Y0022978D02*
X0108524Y0022978D01*
X0108524Y0024176D02*
X0006781Y0024176D01*
X0006781Y0025375D02*
X0108524Y0025375D01*
X0108524Y0026573D02*
X0006781Y0026573D01*
X0006781Y0027772D02*
X0108524Y0027772D01*
X0108524Y0028970D02*
X0006781Y0028970D01*
X0006781Y0030169D02*
X0108524Y0030169D01*
X0108524Y0031367D02*
X0006781Y0031367D01*
X0006781Y0032566D02*
X0108524Y0032566D01*
X0108524Y0033764D02*
X0006781Y0033764D01*
X0006781Y0034963D02*
X0108524Y0034963D01*
X0108524Y0036161D02*
X0006781Y0036161D01*
X0006781Y0037360D02*
X0108524Y0037360D01*
X0108524Y0038558D02*
X0006781Y0038558D01*
X0006781Y0039757D02*
X0108524Y0039757D01*
X0108524Y0040955D02*
X0006781Y0040955D01*
X0006781Y0042154D02*
X0108524Y0042154D01*
X0108524Y0043352D02*
X0006781Y0043352D01*
X0006781Y0044551D02*
X0108524Y0044551D01*
X0108524Y0045749D02*
X0006781Y0045749D01*
X0006781Y0046948D02*
X0108524Y0046948D01*
X0108524Y0048146D02*
X0006781Y0048146D01*
X0006781Y0049345D02*
X0108524Y0049345D01*
X0108524Y0050543D02*
X0006781Y0050543D01*
X0006781Y0051742D02*
X0108524Y0051742D01*
X0109158Y0052940D02*
X0006781Y0052940D01*
X0006781Y0054139D02*
X0110357Y0054139D01*
X0111555Y0055337D02*
X0006781Y0055337D01*
X0006781Y0056536D02*
X0112754Y0056536D01*
X0114375Y0055625D02*
X0110315Y0051565D01*
X0110315Y0010512D01*
X0112677Y0010512D02*
X0112677Y0015821D01*
X0112855Y0016250D02*
X0112855Y0049020D01*
X0114645Y0048480D02*
X0114645Y0034730D01*
X0114647Y0034668D01*
X0114653Y0034607D01*
X0114662Y0034546D01*
X0114676Y0034486D01*
X0114693Y0034427D01*
X0114714Y0034369D01*
X0114738Y0034313D01*
X0114766Y0034258D01*
X0114798Y0034205D01*
X0114832Y0034154D01*
X0114870Y0034105D01*
X0114911Y0034059D01*
X0114954Y0034016D01*
X0115000Y0033975D01*
X0115049Y0033937D01*
X0115100Y0033903D01*
X0115153Y0033871D01*
X0115208Y0033843D01*
X0115264Y0033819D01*
X0115322Y0033798D01*
X0115381Y0033781D01*
X0115441Y0033767D01*
X0115502Y0033758D01*
X0115563Y0033752D01*
X0115625Y0033750D01*
X0115693Y0033748D01*
X0115760Y0033743D01*
X0115827Y0033734D01*
X0115894Y0033721D01*
X0115959Y0033704D01*
X0116024Y0033685D01*
X0116088Y0033661D01*
X0116150Y0033634D01*
X0116211Y0033604D01*
X0116269Y0033571D01*
X0116326Y0033535D01*
X0116381Y0033495D01*
X0116434Y0033453D01*
X0116485Y0033407D01*
X0116532Y0033360D01*
X0116578Y0033309D01*
X0116620Y0033256D01*
X0116660Y0033201D01*
X0116696Y0033144D01*
X0116729Y0033086D01*
X0116759Y0033025D01*
X0116786Y0032963D01*
X0116810Y0032899D01*
X0116829Y0032834D01*
X0116846Y0032769D01*
X0116859Y0032702D01*
X0116868Y0032635D01*
X0116873Y0032568D01*
X0116875Y0032500D01*
X0116873Y0032432D01*
X0116868Y0032365D01*
X0116859Y0032298D01*
X0116846Y0032231D01*
X0116829Y0032166D01*
X0116810Y0032101D01*
X0116786Y0032037D01*
X0116759Y0031975D01*
X0116729Y0031914D01*
X0116696Y0031856D01*
X0116660Y0031799D01*
X0116620Y0031744D01*
X0116578Y0031691D01*
X0116532Y0031640D01*
X0116485Y0031593D01*
X0116434Y0031547D01*
X0116381Y0031505D01*
X0116326Y0031465D01*
X0116269Y0031429D01*
X0116211Y0031396D01*
X0116150Y0031366D01*
X0116088Y0031339D01*
X0116024Y0031315D01*
X0115959Y0031296D01*
X0115894Y0031279D01*
X0115827Y0031266D01*
X0115760Y0031257D01*
X0115693Y0031252D01*
X0115625Y0031250D01*
X0115563Y0031248D01*
X0115502Y0031242D01*
X0115441Y0031233D01*
X0115381Y0031219D01*
X0115322Y0031202D01*
X0115264Y0031181D01*
X0115208Y0031157D01*
X0115153Y0031129D01*
X0115100Y0031097D01*
X0115049Y0031063D01*
X0115000Y0031025D01*
X0114954Y0030984D01*
X0114911Y0030941D01*
X0114870Y0030895D01*
X0114832Y0030846D01*
X0114798Y0030795D01*
X0114766Y0030742D01*
X0114738Y0030687D01*
X0114714Y0030631D01*
X0114693Y0030573D01*
X0114676Y0030514D01*
X0114662Y0030454D01*
X0114653Y0030393D01*
X0114647Y0030332D01*
X0114645Y0030270D01*
X0114645Y0016250D01*
X0115039Y0015299D02*
X0115039Y0010512D01*
X0117402Y0010512D02*
X0117402Y0016427D01*
X0117402Y0010512D01*
X0119764Y0010512D01*
X0119764Y0010512D01*
X0119764Y0016427D01*
X0120335Y0016427D01*
X0120335Y0020257D01*
X0119258Y0021334D01*
X0118209Y0022383D01*
X0118209Y0028867D01*
X0119258Y0029916D01*
X0120709Y0031367D01*
X0118482Y0031367D01*
X0118666Y0031685D02*
X0118666Y0033315D01*
X0117851Y0034726D01*
X0117851Y0034726D01*
X0117851Y0034726D01*
X0116440Y0035541D01*
X0116436Y0035541D01*
X0116436Y0048480D01*
X0116460Y0048663D01*
X0116644Y0048981D01*
X0116962Y0049165D01*
X0117145Y0049189D01*
X0124566Y0049189D01*
X0124334Y0048630D01*
X0124334Y0047620D01*
X0124721Y0046686D01*
X0125084Y0046323D01*
X0125084Y0045742D01*
X0120709Y0041367D01*
X0120709Y0031367D01*
X0120709Y0032566D02*
X0118666Y0032566D01*
X0118666Y0031685D02*
X0117851Y0030274D01*
X0117851Y0030274D01*
X0117851Y0030274D01*
X0116440Y0029459D01*
X0116436Y0029459D01*
X0116436Y0016874D01*
X0116621Y0016427D01*
X0117402Y0016427D01*
X0118470Y0016427D01*
X0118583Y0016397D01*
X0118695Y0016427D01*
X0119764Y0016427D01*
X0119764Y0010512D01*
X0119764Y0010512D01*
X0117491Y0010512D01*
X0117402Y0010512D01*
X0117402Y0010512D01*
X0117402Y0010512D01*
X0117402Y0010993D02*
X0117402Y0010993D01*
X0117402Y0012191D02*
X0117402Y0012191D01*
X0117402Y0013390D02*
X0117402Y0013390D01*
X0117402Y0014588D02*
X0117402Y0014588D01*
X0117402Y0015787D02*
X0117402Y0015787D01*
X0116436Y0016985D02*
X0120335Y0016985D01*
X0120335Y0018184D02*
X0116436Y0018184D01*
X0116436Y0019382D02*
X0120335Y0019382D01*
X0120012Y0020581D02*
X0116436Y0020581D01*
X0116436Y0021779D02*
X0118814Y0021779D01*
X0118209Y0022978D02*
X0116436Y0022978D01*
X0116436Y0024176D02*
X0118209Y0024176D01*
X0118209Y0025375D02*
X0116436Y0025375D01*
X0116436Y0026573D02*
X0118209Y0026573D01*
X0118209Y0027772D02*
X0116436Y0027772D01*
X0116436Y0028970D02*
X0118313Y0028970D01*
X0117668Y0030169D02*
X0119512Y0030169D01*
X0120000Y0028125D02*
X0120000Y0023125D01*
X0122126Y0020999D01*
X0122126Y0010512D01*
X0124488Y0010512D02*
X0124488Y0022387D01*
X0122500Y0024375D01*
X0122500Y0026875D01*
X0123125Y0027500D01*
X0125666Y0027772D02*
X0127422Y0027772D01*
X0127422Y0028970D02*
X0125248Y0028970D01*
X0124291Y0030169D02*
X0127422Y0030169D01*
X0127422Y0031367D02*
X0124291Y0031367D01*
X0124291Y0032566D02*
X0127422Y0032566D01*
X0127422Y0033764D02*
X0124291Y0033764D01*
X0124291Y0034963D02*
X0127422Y0034963D01*
X0127422Y0036161D02*
X0124291Y0036161D01*
X0124291Y0037360D02*
X0127422Y0037360D01*
X0127422Y0038558D02*
X0124291Y0038558D01*
X0124291Y0039757D02*
X0127422Y0039757D01*
X0127798Y0040955D02*
X0125363Y0040955D01*
X0126561Y0042154D02*
X0128997Y0042154D01*
X0130195Y0043352D02*
X0127760Y0043352D01*
X0128666Y0044551D02*
X0131394Y0044551D01*
X0132500Y0043125D02*
X0129213Y0039838D01*
X0129213Y0010512D01*
X0131575Y0010512D02*
X0131575Y0039075D01*
X0132500Y0040000D01*
X0164375Y0040000D01*
X0165625Y0041250D01*
X0165625Y0088750D01*
X0174375Y0097500D01*
X0174375Y0104375D01*
X0178750Y0108750D01*
X0180624Y0110469D02*
X0190999Y0110469D01*
X0191959Y0109508D02*
X0191959Y0099242D01*
X0176334Y0083617D01*
X0176334Y0063242D01*
X0170633Y0057541D01*
X0170120Y0057541D01*
X0169186Y0057154D01*
X0168471Y0056439D01*
X0168084Y0055505D01*
X0168084Y0054495D01*
X0168471Y0053561D01*
X0169186Y0052846D01*
X0170120Y0052459D01*
X0171130Y0052459D01*
X0172064Y0052846D01*
X0172779Y0053561D01*
X0173166Y0054495D01*
X0173166Y0055008D01*
X0178867Y0060709D01*
X0179916Y0061758D01*
X0179916Y0082133D01*
X0194492Y0096709D01*
X0195541Y0097758D01*
X0195541Y0107879D01*
X0196079Y0107109D01*
X0197152Y0105831D01*
X0198331Y0104652D01*
X0199609Y0103579D01*
X0200976Y0102623D01*
X0202420Y0101788D01*
X0203932Y0101083D01*
X0205500Y0100513D01*
X0207111Y0100081D01*
X0208754Y0099791D01*
X0210416Y0099646D01*
X0210650Y0099646D01*
X0210650Y0118150D01*
X0192146Y0118150D01*
X0192146Y0117916D01*
X0192291Y0116254D01*
X0192581Y0114611D01*
X0192823Y0113709D01*
X0190878Y0115654D01*
X0190878Y0123681D01*
X0190181Y0124378D01*
X0180319Y0124378D01*
X0179622Y0123681D01*
X0179622Y0113819D01*
X0180319Y0113122D01*
X0188346Y0113122D01*
X0191959Y0109508D01*
X0191959Y0109270D02*
X0181284Y0109270D01*
X0181219Y0108072D02*
X0191959Y0108072D01*
X0191959Y0106873D02*
X0180466Y0106873D01*
X0178207Y0105675D02*
X0191959Y0105675D01*
X0191959Y0104476D02*
X0177009Y0104476D01*
X0176166Y0103278D02*
X0191959Y0103278D01*
X0191959Y0102079D02*
X0176166Y0102079D01*
X0176166Y0100881D02*
X0191959Y0100881D01*
X0191959Y0099682D02*
X0176166Y0099682D01*
X0176166Y0098484D02*
X0191202Y0098484D01*
X0190003Y0097285D02*
X0176166Y0097285D01*
X0175494Y0096087D02*
X0179003Y0096087D01*
X0178561Y0095904D02*
X0177846Y0095189D01*
X0177459Y0094255D01*
X0177459Y0093742D01*
X0170508Y0086791D01*
X0169459Y0085742D01*
X0169459Y0070552D01*
X0169096Y0070189D01*
X0168709Y0069255D01*
X0168709Y0068245D01*
X0169096Y0067311D01*
X0169811Y0066596D01*
X0170745Y0066209D01*
X0171755Y0066209D01*
X0172689Y0066596D01*
X0173404Y0067311D01*
X0173791Y0068245D01*
X0173791Y0069255D01*
X0173404Y0070189D01*
X0173041Y0070552D01*
X0173041Y0084258D01*
X0179992Y0091209D01*
X0180505Y0091209D01*
X0181439Y0091596D01*
X0182154Y0092311D01*
X0182541Y0093245D01*
X0182541Y0094255D01*
X0182154Y0095189D01*
X0181439Y0095904D01*
X0180505Y0096291D01*
X0179495Y0096291D01*
X0178561Y0095904D01*
X0177722Y0094888D02*
X0174296Y0094888D01*
X0175117Y0095709D02*
X0175117Y0095709D01*
X0173097Y0093690D02*
X0177408Y0093690D01*
X0176209Y0092491D02*
X0171899Y0092491D01*
X0170700Y0091293D02*
X0175011Y0091293D01*
X0173812Y0090094D02*
X0169502Y0090094D01*
X0168303Y0088896D02*
X0172614Y0088896D01*
X0171415Y0087697D02*
X0167416Y0087697D01*
X0167416Y0086499D02*
X0170217Y0086499D01*
X0170508Y0086791D02*
X0170508Y0086791D01*
X0169459Y0085300D02*
X0167416Y0085300D01*
X0167416Y0084102D02*
X0169459Y0084102D01*
X0169459Y0082903D02*
X0167416Y0082903D01*
X0167416Y0081705D02*
X0169459Y0081705D01*
X0169459Y0080506D02*
X0167416Y0080506D01*
X0167416Y0079308D02*
X0169459Y0079308D01*
X0169459Y0078109D02*
X0167416Y0078109D01*
X0167416Y0076911D02*
X0169459Y0076911D01*
X0169459Y0075712D02*
X0167416Y0075712D01*
X0167416Y0074514D02*
X0169459Y0074514D01*
X0169459Y0073315D02*
X0167416Y0073315D01*
X0167416Y0072117D02*
X0169459Y0072117D01*
X0169459Y0070918D02*
X0167416Y0070918D01*
X0167416Y0069720D02*
X0168902Y0069720D01*
X0168709Y0068521D02*
X0167416Y0068521D01*
X0167416Y0067323D02*
X0169091Y0067323D01*
X0167416Y0066124D02*
X0176334Y0066124D01*
X0176334Y0064926D02*
X0167416Y0064926D01*
X0167416Y0063727D02*
X0176334Y0063727D01*
X0175621Y0062529D02*
X0167416Y0062529D01*
X0167416Y0061330D02*
X0174423Y0061330D01*
X0173224Y0060132D02*
X0167416Y0060132D01*
X0167416Y0058933D02*
X0172026Y0058933D01*
X0170827Y0057734D02*
X0167416Y0057734D01*
X0167416Y0056536D02*
X0168568Y0056536D01*
X0168084Y0055337D02*
X0167416Y0055337D01*
X0167416Y0054139D02*
X0168232Y0054139D01*
X0167416Y0052940D02*
X0169092Y0052940D01*
X0167416Y0051742D02*
X0181959Y0051742D01*
X0181959Y0052940D02*
X0172158Y0052940D01*
X0173018Y0054139D02*
X0181959Y0054139D01*
X0181959Y0055337D02*
X0173495Y0055337D01*
X0174693Y0056536D02*
X0181959Y0056536D01*
X0181959Y0057734D02*
X0175892Y0057734D01*
X0177090Y0058933D02*
X0181959Y0058933D01*
X0181959Y0060132D02*
X0178289Y0060132D01*
X0179487Y0061330D02*
X0181959Y0061330D01*
X0181959Y0062529D02*
X0179916Y0062529D01*
X0179916Y0063727D02*
X0181959Y0063727D01*
X0181959Y0064926D02*
X0179916Y0064926D01*
X0179916Y0066124D02*
X0181959Y0066124D01*
X0181959Y0067323D02*
X0179916Y0067323D01*
X0179916Y0068521D02*
X0181636Y0068521D01*
X0181596Y0068561D02*
X0181959Y0068198D01*
X0181959Y0038008D01*
X0183008Y0036959D01*
X0195584Y0024383D01*
X0195584Y0023870D01*
X0195971Y0022936D01*
X0196686Y0022221D01*
X0197620Y0021834D01*
X0198630Y0021834D01*
X0199564Y0022221D01*
X0200279Y0022936D01*
X0200666Y0023870D01*
X0200666Y0024880D01*
X0200279Y0025814D01*
X0199843Y0026250D01*
X0200279Y0026686D01*
X0200666Y0027620D01*
X0200666Y0028630D01*
X0200279Y0029564D01*
X0199843Y0030000D01*
X0200279Y0030436D01*
X0200666Y0031370D01*
X0200666Y0032380D01*
X0200279Y0033314D01*
X0199843Y0033750D01*
X0200279Y0034186D01*
X0200666Y0035120D01*
X0200666Y0036130D01*
X0200279Y0037064D01*
X0199843Y0037500D01*
X0200279Y0037936D01*
X0200666Y0038870D01*
X0200666Y0039880D01*
X0200279Y0040814D01*
X0200141Y0040951D01*
X0200189Y0040971D01*
X0200904Y0041686D01*
X0201291Y0042620D01*
X0201291Y0043084D01*
X0201755Y0043084D01*
X0202689Y0043471D01*
X0203404Y0044186D01*
X0203791Y0045120D01*
X0203791Y0046130D01*
X0203404Y0047064D01*
X0202689Y0047779D01*
X0201791Y0048151D01*
X0201791Y0086948D01*
X0202154Y0087311D01*
X0202541Y0088245D01*
X0202541Y0089255D01*
X0202154Y0090189D01*
X0201439Y0090904D01*
X0200505Y0091291D01*
X0199495Y0091291D01*
X0198561Y0090904D01*
X0198125Y0090468D01*
X0197689Y0090904D01*
X0196755Y0091291D01*
X0195745Y0091291D01*
X0194811Y0090904D01*
X0194096Y0090189D01*
X0193975Y0089898D01*
X0193630Y0090041D01*
X0192620Y0090041D01*
X0191686Y0089654D01*
X0190971Y0088939D01*
X0190584Y0088005D01*
X0190584Y0086995D01*
X0190971Y0086061D01*
X0191334Y0085698D01*
X0191334Y0078081D01*
X0191130Y0078166D01*
X0190120Y0078166D01*
X0189186Y0077779D01*
X0188471Y0077064D01*
X0188084Y0076130D01*
X0188084Y0075120D01*
X0188471Y0074186D01*
X0188907Y0073750D01*
X0188750Y0073593D01*
X0188314Y0074029D01*
X0187380Y0074416D01*
X0186370Y0074416D01*
X0185436Y0074029D01*
X0184721Y0073314D01*
X0184380Y0072489D01*
X0184255Y0072541D01*
X0183245Y0072541D01*
X0182311Y0072154D01*
X0181596Y0071439D01*
X0181209Y0070505D01*
X0181209Y0069495D01*
X0181596Y0068561D01*
X0181209Y0069720D02*
X0179916Y0069720D01*
X0179916Y0070918D02*
X0181380Y0070918D01*
X0182274Y0072117D02*
X0179916Y0072117D01*
X0179916Y0073315D02*
X0184722Y0073315D01*
X0186875Y0071875D02*
X0186875Y0039375D01*
X0198125Y0028125D01*
X0200525Y0028970D02*
X0269361Y0028970D01*
X0269361Y0027772D02*
X0200666Y0027772D01*
X0200166Y0026573D02*
X0269361Y0026573D01*
X0269361Y0025375D02*
X0200461Y0025375D01*
X0200666Y0024176D02*
X0269361Y0024176D01*
X0269361Y0022978D02*
X0200296Y0022978D01*
X0198125Y0024375D02*
X0183750Y0038750D01*
X0183750Y0070000D01*
X0190625Y0071875D02*
X0190625Y0039375D01*
X0198125Y0031875D01*
X0200012Y0030169D02*
X0269361Y0030169D01*
X0269361Y0031367D02*
X0200665Y0031367D01*
X0200589Y0032566D02*
X0269361Y0032566D01*
X0269361Y0033764D02*
X0199857Y0033764D01*
X0200601Y0034963D02*
X0269361Y0034963D01*
X0269361Y0036161D02*
X0200653Y0036161D01*
X0199983Y0037360D02*
X0269361Y0037360D01*
X0269361Y0038558D02*
X0200537Y0038558D01*
X0200666Y0039757D02*
X0269361Y0039757D01*
X0269361Y0040955D02*
X0200151Y0040955D01*
X0201098Y0042154D02*
X0269361Y0042154D01*
X0269361Y0043352D02*
X0202402Y0043352D01*
X0203555Y0044551D02*
X0269361Y0044551D01*
X0269361Y0045749D02*
X0203791Y0045749D01*
X0203452Y0046948D02*
X0269361Y0046948D01*
X0269361Y0048146D02*
X0201802Y0048146D01*
X0201791Y0049345D02*
X0269361Y0049345D01*
X0269361Y0050543D02*
X0201791Y0050543D01*
X0201791Y0051742D02*
X0269361Y0051742D01*
X0269361Y0052940D02*
X0201791Y0052940D01*
X0201791Y0054139D02*
X0269361Y0054139D01*
X0269361Y0055337D02*
X0201791Y0055337D01*
X0201791Y0056536D02*
X0269361Y0056536D01*
X0269361Y0057734D02*
X0201791Y0057734D01*
X0201791Y0058933D02*
X0269361Y0058933D01*
X0269361Y0060132D02*
X0201791Y0060132D01*
X0201791Y0061330D02*
X0269361Y0061330D01*
X0269361Y0062529D02*
X0201791Y0062529D01*
X0201791Y0063727D02*
X0269361Y0063727D01*
X0269361Y0064926D02*
X0201791Y0064926D01*
X0201791Y0066124D02*
X0269361Y0066124D01*
X0269361Y0067323D02*
X0201791Y0067323D01*
X0201791Y0068521D02*
X0269361Y0068521D01*
X0269361Y0069720D02*
X0201791Y0069720D01*
X0201791Y0070918D02*
X0269361Y0070918D01*
X0269361Y0072117D02*
X0201791Y0072117D01*
X0201791Y0073315D02*
X0269361Y0073315D01*
X0268262Y0074514D02*
X0201791Y0074514D01*
X0201791Y0075712D02*
X0265688Y0075712D01*
X0266240Y0075250D02*
X0266240Y0075250D01*
X0264260Y0076911D02*
X0201791Y0076911D01*
X0201791Y0078109D02*
X0263244Y0078109D01*
X0263631Y0077438D02*
X0263631Y0077438D01*
X0262552Y0079308D02*
X0201791Y0079308D01*
X0201791Y0080506D02*
X0261908Y0080506D01*
X0261929Y0080387D02*
X0261929Y0080387D01*
X0261697Y0081705D02*
X0201791Y0081705D01*
X0201791Y0082903D02*
X0261485Y0082903D01*
X0261338Y0083740D02*
X0261338Y0083740D01*
X0261401Y0084102D02*
X0201791Y0084102D01*
X0201791Y0085300D02*
X0261613Y0085300D01*
X0261824Y0086499D02*
X0201791Y0086499D01*
X0202314Y0087697D02*
X0209335Y0087697D01*
X0209096Y0087936D02*
X0209811Y0087221D01*
X0210745Y0086834D01*
X0211755Y0086834D01*
X0212689Y0087221D01*
X0213052Y0087584D01*
X0217617Y0087584D01*
X0218742Y0088709D01*
X0219255Y0088709D01*
X0220189Y0089096D01*
X0220904Y0089811D01*
X0221291Y0090745D01*
X0221291Y0091755D01*
X0220904Y0092689D01*
X0220189Y0093404D01*
X0219255Y0093791D01*
X0218245Y0093791D01*
X0217311Y0093404D01*
X0216596Y0092689D01*
X0216209Y0091755D01*
X0216209Y0091242D01*
X0216133Y0091166D01*
X0213052Y0091166D01*
X0212689Y0091529D01*
X0211755Y0091916D01*
X0210745Y0091916D01*
X0209811Y0091529D01*
X0209096Y0090814D01*
X0208709Y0089880D01*
X0208709Y0088870D01*
X0209096Y0087936D01*
X0208709Y0088896D02*
X0202541Y0088896D01*
X0202193Y0090094D02*
X0208798Y0090094D01*
X0209575Y0091293D02*
X0189075Y0091293D01*
X0190274Y0092491D02*
X0216514Y0092491D01*
X0216209Y0091293D02*
X0212925Y0091293D01*
X0211250Y0089375D02*
X0216875Y0089375D01*
X0218750Y0091250D01*
X0219705Y0088896D02*
X0262970Y0088896D01*
X0263631Y0090042D02*
X0263631Y0090042D01*
X0263631Y0090042D01*
X0263694Y0090094D02*
X0221021Y0090094D01*
X0221291Y0091293D02*
X0265122Y0091293D01*
X0266240Y0092231D02*
X0266240Y0092231D01*
X0266956Y0092491D02*
X0220986Y0092491D01*
X0219498Y0093690D02*
X0269361Y0093690D01*
X0269361Y0094888D02*
X0192671Y0094888D01*
X0193869Y0096087D02*
X0269361Y0096087D01*
X0269361Y0097285D02*
X0195068Y0097285D01*
X0195541Y0098484D02*
X0269361Y0098484D01*
X0269361Y0099682D02*
X0212499Y0099682D01*
X0212084Y0099646D02*
X0213746Y0099791D01*
X0215389Y0100081D01*
X0217000Y0100513D01*
X0218568Y0101083D01*
X0220080Y0101788D01*
X0221524Y0102623D01*
X0222891Y0103579D01*
X0224169Y0104652D01*
X0225348Y0105831D01*
X0226421Y0107109D01*
X0227377Y0108476D01*
X0228212Y0109920D01*
X0228917Y0111432D01*
X0229487Y0113000D01*
X0229919Y0114611D01*
X0230209Y0116254D01*
X0230354Y0117916D01*
X0230354Y0118150D01*
X0211850Y0118150D01*
X0211850Y0119350D01*
X0210650Y0119350D01*
X0210650Y0137854D01*
X0210416Y0137854D01*
X0208754Y0137709D01*
X0207111Y0137419D01*
X0205500Y0136987D01*
X0203932Y0136417D01*
X0202420Y0135712D01*
X0200976Y0134877D01*
X0199609Y0133921D01*
X0198331Y0132848D01*
X0197152Y0131669D01*
X0196079Y0130391D01*
X0195123Y0129024D01*
X0194288Y0127580D01*
X0193583Y0126068D01*
X0193013Y0124500D01*
X0192581Y0122889D01*
X0192291Y0121246D01*
X0192146Y0119584D01*
X0192146Y0119350D01*
X0210650Y0119350D01*
X0210650Y0118150D01*
X0211850Y0118150D01*
X0211850Y0099646D01*
X0212084Y0099646D01*
X0211850Y0099682D02*
X0210650Y0099682D01*
X0210001Y0099682D02*
X0195541Y0099682D01*
X0195541Y0100881D02*
X0204489Y0100881D01*
X0201916Y0102079D02*
X0195541Y0102079D01*
X0195541Y0103278D02*
X0200040Y0103278D01*
X0198540Y0104476D02*
X0195541Y0104476D01*
X0195541Y0105675D02*
X0197308Y0105675D01*
X0196277Y0106873D02*
X0195541Y0106873D01*
X0193750Y0110250D02*
X0193750Y0098500D01*
X0178125Y0082875D01*
X0178125Y0062500D01*
X0170625Y0055000D01*
X0163834Y0055337D02*
X0161166Y0055337D01*
X0161166Y0054139D02*
X0163834Y0054139D01*
X0163834Y0052940D02*
X0161166Y0052940D01*
X0161166Y0051742D02*
X0163834Y0051742D01*
X0163834Y0050543D02*
X0161166Y0050543D01*
X0161166Y0049345D02*
X0163834Y0049345D01*
X0163834Y0048146D02*
X0161166Y0048146D01*
X0161166Y0046948D02*
X0163834Y0046948D01*
X0163834Y0045749D02*
X0161166Y0045749D01*
X0161534Y0044551D02*
X0163834Y0044551D01*
X0163834Y0043352D02*
X0161916Y0043352D01*
X0161723Y0042154D02*
X0163834Y0042154D01*
X0167416Y0042154D02*
X0181959Y0042154D01*
X0181959Y0043352D02*
X0167416Y0043352D01*
X0167416Y0044551D02*
X0181959Y0044551D01*
X0181959Y0045749D02*
X0167416Y0045749D01*
X0167416Y0046948D02*
X0181959Y0046948D01*
X0181959Y0048146D02*
X0167416Y0048146D01*
X0167416Y0049345D02*
X0181959Y0049345D01*
X0181959Y0050543D02*
X0167416Y0050543D01*
X0159375Y0043125D02*
X0159375Y0060625D01*
X0106900Y0113100D01*
X0063775Y0113100D01*
X0056875Y0120000D01*
X0056875Y0121994D01*
X0056203Y0122667D01*
X0056203Y0121297D01*
X0056203Y0122667D02*
X0056203Y0125000D01*
X0051875Y0125000D01*
X0050950Y0127248D02*
X0040070Y0127248D01*
X0040070Y0126050D02*
X0041823Y0126050D01*
X0041823Y0124851D02*
X0039795Y0124851D01*
X0040070Y0125126D02*
X0039373Y0124429D01*
X0034450Y0124429D01*
X0033752Y0125126D01*
X0033752Y0129262D01*
X0034450Y0129960D01*
X0039373Y0129960D01*
X0040070Y0129262D01*
X0040070Y0125126D01*
X0041823Y0123653D02*
X0030674Y0123653D01*
X0031191Y0124851D02*
X0034028Y0124851D01*
X0033752Y0126050D02*
X0031391Y0126050D01*
X0031591Y0127248D02*
X0033752Y0127248D01*
X0033752Y0128447D02*
X0031791Y0128447D01*
X0031692Y0129645D02*
X0034135Y0129645D01*
X0031492Y0130844D02*
X0043792Y0130844D01*
X0043792Y0130818D02*
X0044333Y0129513D01*
X0045332Y0128513D01*
X0046638Y0127972D01*
X0048051Y0127972D01*
X0049357Y0128513D01*
X0050356Y0129513D01*
X0050897Y0130818D01*
X0050897Y0132232D01*
X0050356Y0133537D01*
X0049357Y0134537D01*
X0048051Y0135078D01*
X0046638Y0135078D01*
X0045332Y0134537D01*
X0044333Y0133537D01*
X0043792Y0132232D01*
X0043792Y0130818D01*
X0043792Y0132042D02*
X0031292Y0132042D01*
X0031132Y0133001D02*
X0031132Y0133001D01*
X0031002Y0133241D02*
X0034299Y0133241D01*
X0034450Y0133090D02*
X0039373Y0133090D01*
X0040070Y0133788D01*
X0040070Y0137924D01*
X0039373Y0138621D01*
X0034450Y0138621D01*
X0033752Y0137924D01*
X0033752Y0133788D01*
X0034450Y0133090D01*
X0033752Y0134439D02*
X0030354Y0134439D01*
X0029705Y0135638D02*
X0033752Y0135638D01*
X0033752Y0136836D02*
X0029032Y0136836D01*
X0029081Y0136791D02*
X0029081Y0136791D01*
X0027730Y0138035D02*
X0033863Y0138035D01*
X0039959Y0138035D02*
X0066541Y0138035D01*
X0066430Y0137924D02*
X0066430Y0133788D01*
X0067127Y0133090D01*
X0072050Y0133090D01*
X0072748Y0133788D01*
X0072748Y0137924D01*
X0072050Y0138621D01*
X0067127Y0138621D01*
X0066430Y0137924D01*
X0066430Y0136836D02*
X0040070Y0136836D01*
X0040070Y0135638D02*
X0066430Y0135638D01*
X0066430Y0134439D02*
X0061266Y0134439D01*
X0061168Y0134537D02*
X0059862Y0135078D01*
X0058449Y0135078D01*
X0057143Y0134537D01*
X0056144Y0133537D01*
X0055603Y0132232D01*
X0055603Y0130818D01*
X0056144Y0129513D01*
X0057143Y0128513D01*
X0058449Y0127972D01*
X0059862Y0127972D01*
X0061168Y0128513D01*
X0062167Y0129513D01*
X0062708Y0130818D01*
X0062708Y0132232D01*
X0062167Y0133537D01*
X0061168Y0134537D01*
X0062290Y0133241D02*
X0066977Y0133241D01*
X0067127Y0129960D02*
X0066430Y0129262D01*
X0066430Y0125126D01*
X0067127Y0124429D01*
X0072050Y0124429D01*
X0072748Y0125126D01*
X0072748Y0129262D01*
X0072050Y0129960D01*
X0067127Y0129960D01*
X0066812Y0129645D02*
X0062222Y0129645D01*
X0062708Y0130844D02*
X0196459Y0130844D01*
X0195557Y0129645D02*
X0072365Y0129645D01*
X0072748Y0128447D02*
X0194789Y0128447D01*
X0194134Y0127248D02*
X0072748Y0127248D01*
X0072748Y0126050D02*
X0193577Y0126050D01*
X0193141Y0124851D02*
X0072472Y0124851D01*
X0066705Y0124851D02*
X0064677Y0124851D01*
X0064677Y0123653D02*
X0179622Y0123653D01*
X0179622Y0122454D02*
X0064677Y0122454D01*
X0064677Y0121256D02*
X0179622Y0121256D01*
X0179622Y0120057D02*
X0064677Y0120057D01*
X0064315Y0118859D02*
X0179622Y0118859D01*
X0179622Y0117660D02*
X0061747Y0117660D01*
X0062946Y0116462D02*
X0179622Y0116462D01*
X0179622Y0115263D02*
X0064144Y0115263D01*
X0061250Y0111250D02*
X0049833Y0122667D01*
X0044392Y0122667D01*
X0044392Y0123108D01*
X0041823Y0122454D02*
X0030025Y0122454D01*
X0029377Y0121256D02*
X0041823Y0121256D01*
X0041823Y0120057D02*
X0028373Y0120057D01*
X0027071Y0118859D02*
X0042185Y0118859D01*
X0046598Y0118859D02*
X0051109Y0118859D01*
X0049911Y0120057D02*
X0046960Y0120057D01*
X0052308Y0117660D02*
X0025613Y0117660D01*
X0022881Y0116462D02*
X0053506Y0116462D01*
X0054705Y0115263D02*
X0006781Y0115263D01*
X0006781Y0114065D02*
X0055903Y0114065D01*
X0057102Y0112866D02*
X0006781Y0112866D01*
X0006781Y0111668D02*
X0058300Y0111668D01*
X0059499Y0110469D02*
X0006781Y0110469D01*
X0006781Y0109270D02*
X0103822Y0109270D01*
X0105021Y0108072D02*
X0006781Y0108072D01*
X0006781Y0106873D02*
X0106219Y0106873D01*
X0107418Y0105675D02*
X0006781Y0105675D01*
X0006781Y0104476D02*
X0108616Y0104476D01*
X0109815Y0103278D02*
X0006781Y0103278D01*
X0006781Y0102079D02*
X0111013Y0102079D01*
X0112212Y0100881D02*
X0006781Y0100881D01*
X0006781Y0099682D02*
X0113410Y0099682D01*
X0114609Y0098484D02*
X0006781Y0098484D01*
X0006781Y0097285D02*
X0115807Y0097285D01*
X0116327Y0096087D02*
X0006781Y0096087D01*
X0006781Y0094888D02*
X0117144Y0094888D01*
X0118750Y0096875D02*
X0104375Y0111250D01*
X0061250Y0111250D01*
X0059540Y0120057D02*
X0059350Y0120057D01*
X0059540Y0121256D02*
X0058771Y0121256D01*
X0058771Y0122454D02*
X0059540Y0122454D01*
X0059540Y0123653D02*
X0058771Y0123653D01*
X0058771Y0124851D02*
X0059540Y0124851D01*
X0059540Y0126050D02*
X0058771Y0126050D01*
X0056203Y0123797D02*
X0056203Y0122667D01*
X0052800Y0127248D02*
X0066430Y0127248D01*
X0066430Y0126050D02*
X0064677Y0126050D01*
X0066430Y0128447D02*
X0061008Y0128447D01*
X0057303Y0128447D02*
X0049197Y0128447D01*
X0050411Y0129645D02*
X0056089Y0129645D01*
X0055603Y0130844D02*
X0050897Y0130844D01*
X0050897Y0132042D02*
X0055603Y0132042D01*
X0056021Y0133241D02*
X0050479Y0133241D01*
X0049455Y0134439D02*
X0057045Y0134439D01*
X0062708Y0132042D02*
X0197525Y0132042D01*
X0198799Y0133241D02*
X0072201Y0133241D01*
X0072748Y0134439D02*
X0200350Y0134439D01*
X0202293Y0135638D02*
X0072748Y0135638D01*
X0072748Y0136836D02*
X0205085Y0136836D01*
X0210650Y0136836D02*
X0211850Y0136836D01*
X0211850Y0137854D02*
X0211850Y0119350D01*
X0230354Y0119350D01*
X0230354Y0119584D01*
X0230209Y0121246D01*
X0229919Y0122889D01*
X0229487Y0124500D01*
X0228917Y0126068D01*
X0228212Y0127580D01*
X0227377Y0129024D01*
X0226421Y0130391D01*
X0225348Y0131669D01*
X0224169Y0132848D01*
X0222891Y0133921D01*
X0221524Y0134877D01*
X0220080Y0135712D01*
X0218568Y0136417D01*
X0217000Y0136987D01*
X0215389Y0137419D01*
X0213746Y0137709D01*
X0212084Y0137854D01*
X0211850Y0137854D01*
X0211850Y0135638D02*
X0210650Y0135638D01*
X0210650Y0134439D02*
X0211850Y0134439D01*
X0211850Y0133241D02*
X0210650Y0133241D01*
X0210650Y0132042D02*
X0211850Y0132042D01*
X0211850Y0130844D02*
X0210650Y0130844D01*
X0210650Y0129645D02*
X0211850Y0129645D01*
X0211850Y0128447D02*
X0210650Y0128447D01*
X0210650Y0127248D02*
X0211850Y0127248D01*
X0211850Y0126050D02*
X0210650Y0126050D01*
X0210650Y0124851D02*
X0211850Y0124851D01*
X0211850Y0123653D02*
X0210650Y0123653D01*
X0210650Y0122454D02*
X0211850Y0122454D01*
X0211850Y0121256D02*
X0210650Y0121256D01*
X0210650Y0120057D02*
X0211850Y0120057D01*
X0211850Y0118859D02*
X0231622Y0118859D01*
X0231622Y0120057D02*
X0230313Y0120057D01*
X0230207Y0121256D02*
X0231622Y0121256D01*
X0231622Y0122454D02*
X0229995Y0122454D01*
X0229714Y0123653D02*
X0231622Y0123653D01*
X0231622Y0123681D02*
X0232319Y0124378D01*
X0242181Y0124378D01*
X0242878Y0123681D01*
X0242878Y0113819D01*
X0242181Y0113122D01*
X0232319Y0113122D01*
X0231622Y0113819D01*
X0231622Y0123681D01*
X0229359Y0124851D02*
X0245186Y0124851D01*
X0245597Y0123653D02*
X0242878Y0123653D01*
X0242878Y0122454D02*
X0246037Y0122454D01*
X0245986Y0122519D02*
X0245986Y0122519D01*
X0246970Y0121256D02*
X0242878Y0121256D01*
X0242878Y0120057D02*
X0247903Y0120057D01*
X0249031Y0118859D02*
X0242878Y0118859D01*
X0242878Y0117660D02*
X0250865Y0117660D01*
X0252241Y0116761D02*
X0252241Y0116761D01*
X0253425Y0116462D02*
X0242878Y0116462D01*
X0242878Y0115263D02*
X0269361Y0115263D01*
X0269361Y0114065D02*
X0242878Y0114065D01*
X0256419Y0115703D02*
X0256419Y0115703D01*
X0260714Y0116059D02*
X0260714Y0116059D01*
X0261631Y0116462D02*
X0269361Y0116462D01*
X0269361Y0117660D02*
X0264363Y0117660D01*
X0265821Y0118859D02*
X0269361Y0118859D01*
X0269361Y0120057D02*
X0267123Y0120057D01*
X0268127Y0121256D02*
X0269361Y0121256D01*
X0269361Y0122454D02*
X0268775Y0122454D01*
X0269361Y0112866D02*
X0229438Y0112866D01*
X0229772Y0114065D02*
X0231622Y0114065D01*
X0231622Y0115263D02*
X0230034Y0115263D01*
X0230227Y0116462D02*
X0231622Y0116462D01*
X0231622Y0117660D02*
X0230332Y0117660D01*
X0229002Y0111668D02*
X0269361Y0111668D01*
X0269361Y0110469D02*
X0228467Y0110469D01*
X0227836Y0109270D02*
X0269361Y0109270D01*
X0269361Y0108072D02*
X0227095Y0108072D01*
X0226223Y0106873D02*
X0269361Y0106873D01*
X0269361Y0105675D02*
X0225192Y0105675D01*
X0223960Y0104476D02*
X0269361Y0104476D01*
X0269361Y0103278D02*
X0222460Y0103278D01*
X0220584Y0102079D02*
X0269361Y0102079D01*
X0269361Y0100881D02*
X0218011Y0100881D01*
X0211850Y0100881D02*
X0210650Y0100881D01*
X0210650Y0102079D02*
X0211850Y0102079D01*
X0211850Y0103278D02*
X0210650Y0103278D01*
X0210650Y0104476D02*
X0211850Y0104476D01*
X0211850Y0105675D02*
X0210650Y0105675D01*
X0210650Y0106873D02*
X0211850Y0106873D01*
X0211850Y0108072D02*
X0210650Y0108072D01*
X0210650Y0109270D02*
X0211850Y0109270D01*
X0211850Y0110469D02*
X0210650Y0110469D01*
X0210650Y0111668D02*
X0211850Y0111668D01*
X0211850Y0112866D02*
X0210650Y0112866D01*
X0210650Y0114065D02*
X0211850Y0114065D01*
X0211850Y0115263D02*
X0210650Y0115263D01*
X0210650Y0116462D02*
X0211850Y0116462D01*
X0211850Y0117660D02*
X0210650Y0117660D01*
X0210650Y0118859D02*
X0190878Y0118859D01*
X0190878Y0120057D02*
X0192187Y0120057D01*
X0192293Y0121256D02*
X0190878Y0121256D01*
X0190878Y0122454D02*
X0192505Y0122454D01*
X0192786Y0123653D02*
X0190878Y0123653D01*
X0185250Y0118750D02*
X0193750Y0110250D01*
X0192728Y0114065D02*
X0192468Y0114065D01*
X0192466Y0115263D02*
X0191269Y0115263D01*
X0190878Y0116462D02*
X0192273Y0116462D01*
X0192168Y0117660D02*
X0190878Y0117660D01*
X0188602Y0112866D02*
X0109666Y0112866D01*
X0108691Y0113842D02*
X0108691Y0113842D01*
X0108468Y0114065D02*
X0179622Y0114065D01*
X0176876Y0110469D02*
X0112063Y0110469D01*
X0110865Y0111668D02*
X0189800Y0111668D01*
X0176216Y0109270D02*
X0113262Y0109270D01*
X0114460Y0108072D02*
X0175540Y0108072D01*
X0174341Y0106873D02*
X0115659Y0106873D01*
X0116857Y0105675D02*
X0173143Y0105675D01*
X0172584Y0104476D02*
X0118056Y0104476D01*
X0119254Y0103278D02*
X0172584Y0103278D01*
X0172584Y0102079D02*
X0120453Y0102079D01*
X0121651Y0100881D02*
X0172584Y0100881D01*
X0172584Y0099682D02*
X0122850Y0099682D01*
X0124048Y0098484D02*
X0172584Y0098484D01*
X0171628Y0097285D02*
X0125247Y0097285D01*
X0126445Y0096087D02*
X0170430Y0096087D01*
X0169231Y0094888D02*
X0127644Y0094888D01*
X0128842Y0093690D02*
X0168033Y0093690D01*
X0166834Y0092491D02*
X0130041Y0092491D01*
X0131239Y0091293D02*
X0165636Y0091293D01*
X0164883Y0090541D02*
X0164883Y0090541D01*
X0164437Y0090094D02*
X0132438Y0090094D01*
X0133636Y0088896D02*
X0163834Y0088896D01*
X0163834Y0087697D02*
X0134835Y0087697D01*
X0136033Y0086499D02*
X0163834Y0086499D01*
X0163834Y0085300D02*
X0137232Y0085300D01*
X0138430Y0084102D02*
X0163834Y0084102D01*
X0163834Y0082903D02*
X0139629Y0082903D01*
X0140827Y0081705D02*
X0163834Y0081705D01*
X0163834Y0080506D02*
X0142026Y0080506D01*
X0143224Y0079308D02*
X0163834Y0079308D01*
X0163834Y0078109D02*
X0144423Y0078109D01*
X0145622Y0076911D02*
X0163834Y0076911D01*
X0163834Y0075712D02*
X0146820Y0075712D01*
X0148019Y0074514D02*
X0163834Y0074514D01*
X0163834Y0073315D02*
X0149217Y0073315D01*
X0150416Y0072117D02*
X0163834Y0072117D01*
X0163834Y0070918D02*
X0151614Y0070918D01*
X0152813Y0069720D02*
X0163834Y0069720D01*
X0163834Y0068521D02*
X0154011Y0068521D01*
X0155210Y0067323D02*
X0163834Y0067323D01*
X0163834Y0066124D02*
X0156408Y0066124D01*
X0157607Y0064926D02*
X0163834Y0064926D01*
X0163834Y0063727D02*
X0158805Y0063727D01*
X0160004Y0062529D02*
X0163834Y0062529D01*
X0163834Y0061330D02*
X0161166Y0061330D01*
X0161166Y0060132D02*
X0163834Y0060132D01*
X0163834Y0058933D02*
X0161166Y0058933D01*
X0161166Y0057734D02*
X0163834Y0057734D01*
X0163834Y0056536D02*
X0161166Y0056536D01*
X0157584Y0056536D02*
X0129247Y0056536D01*
X0128120Y0057734D02*
X0157584Y0057734D01*
X0157584Y0058933D02*
X0006781Y0058933D01*
X0006781Y0057734D02*
X0125630Y0057734D01*
X0126875Y0055625D02*
X0114375Y0055625D01*
X0116605Y0052770D02*
X0130000Y0052770D01*
X0130000Y0053351D01*
X0130000Y0050980D02*
X0130000Y0050399D01*
X0130000Y0050980D02*
X0117145Y0050980D01*
X0116605Y0052770D02*
X0116485Y0052768D01*
X0116365Y0052762D01*
X0116245Y0052753D01*
X0116125Y0052739D01*
X0116007Y0052722D01*
X0115888Y0052701D01*
X0115771Y0052676D01*
X0115654Y0052647D01*
X0115538Y0052615D01*
X0115423Y0052579D01*
X0115310Y0052539D01*
X0115198Y0052496D01*
X0115087Y0052449D01*
X0114978Y0052399D01*
X0114870Y0052345D01*
X0114765Y0052287D01*
X0114661Y0052227D01*
X0114559Y0052163D01*
X0114460Y0052096D01*
X0114362Y0052025D01*
X0114267Y0051952D01*
X0114174Y0051875D01*
X0114084Y0051796D01*
X0113996Y0051714D01*
X0113911Y0051629D01*
X0113829Y0051541D01*
X0113750Y0051451D01*
X0113673Y0051358D01*
X0113600Y0051263D01*
X0113529Y0051165D01*
X0113462Y0051066D01*
X0113398Y0050964D01*
X0113338Y0050860D01*
X0113280Y0050755D01*
X0113226Y0050647D01*
X0113176Y0050538D01*
X0113129Y0050427D01*
X0113086Y0050315D01*
X0113046Y0050202D01*
X0113010Y0050087D01*
X0112978Y0049971D01*
X0112949Y0049854D01*
X0112924Y0049737D01*
X0112903Y0049618D01*
X0112886Y0049500D01*
X0112872Y0049380D01*
X0112863Y0049260D01*
X0112857Y0049140D01*
X0112855Y0049020D01*
X0116436Y0048146D02*
X0124334Y0048146D01*
X0124613Y0046948D02*
X0116436Y0046948D01*
X0116436Y0045749D02*
X0125084Y0045749D01*
X0123894Y0044551D02*
X0116436Y0044551D01*
X0116436Y0043352D02*
X0122695Y0043352D01*
X0121497Y0042154D02*
X0116436Y0042154D01*
X0116436Y0040955D02*
X0120709Y0040955D01*
X0120709Y0039757D02*
X0116436Y0039757D01*
X0116436Y0038558D02*
X0120709Y0038558D01*
X0120709Y0037360D02*
X0116436Y0037360D01*
X0116436Y0036161D02*
X0120709Y0036161D01*
X0120709Y0034963D02*
X0117440Y0034963D01*
X0118406Y0033764D02*
X0120709Y0033764D01*
X0122500Y0030625D02*
X0122500Y0040625D01*
X0126875Y0045000D01*
X0126875Y0048125D01*
X0129137Y0046948D02*
X0157584Y0046948D01*
X0157584Y0048146D02*
X0131102Y0048146D01*
X0132300Y0049345D02*
X0157584Y0049345D01*
X0157584Y0050543D02*
X0132372Y0050543D01*
X0132011Y0051742D02*
X0157584Y0051742D01*
X0157584Y0052940D02*
X0132372Y0052940D01*
X0132372Y0054139D02*
X0157584Y0054139D01*
X0157584Y0055337D02*
X0131368Y0055337D01*
X0128666Y0045749D02*
X0157584Y0045749D01*
X0157216Y0044551D02*
X0150909Y0044551D01*
X0151291Y0043352D02*
X0156834Y0043352D01*
X0157027Y0042154D02*
X0151098Y0042154D01*
X0148750Y0043125D02*
X0132500Y0043125D01*
X0133365Y0037360D02*
X0182608Y0037360D01*
X0181959Y0038558D02*
X0165466Y0038558D01*
X0166664Y0039757D02*
X0181959Y0039757D01*
X0181959Y0040955D02*
X0167416Y0040955D01*
X0183806Y0036161D02*
X0133365Y0036161D01*
X0133365Y0034963D02*
X0185005Y0034963D01*
X0186203Y0033764D02*
X0133365Y0033764D01*
X0133365Y0032566D02*
X0187402Y0032566D01*
X0188601Y0031367D02*
X0133365Y0031367D01*
X0133365Y0030169D02*
X0189799Y0030169D01*
X0190998Y0028970D02*
X0133365Y0028970D01*
X0133365Y0027772D02*
X0192196Y0027772D01*
X0193395Y0026573D02*
X0133365Y0026573D01*
X0133365Y0025375D02*
X0194593Y0025375D01*
X0195584Y0024176D02*
X0133365Y0024176D01*
X0133365Y0022978D02*
X0195954Y0022978D01*
X0196423Y0016427D02*
X0195354Y0016427D01*
X0195354Y0010512D01*
X0195354Y0010512D01*
X0195443Y0010512D01*
X0197716Y0010512D01*
X0197716Y0016427D01*
X0196648Y0016427D01*
X0196535Y0016397D01*
X0196423Y0016427D01*
X0195354Y0015787D02*
X0195354Y0015787D01*
X0195354Y0014588D02*
X0195354Y0014588D01*
X0195354Y0013390D02*
X0195354Y0013390D01*
X0195354Y0012191D02*
X0195354Y0012191D01*
X0195354Y0010993D02*
X0195354Y0010993D01*
X0192992Y0010993D02*
X0192992Y0010993D01*
X0192992Y0010512D02*
X0192992Y0010512D01*
X0192992Y0012191D02*
X0192992Y0012191D01*
X0192992Y0013390D02*
X0192992Y0013390D01*
X0192992Y0014588D02*
X0192992Y0014588D01*
X0192992Y0015787D02*
X0192992Y0015787D01*
X0190630Y0015787D02*
X0190630Y0015787D01*
X0190630Y0014588D02*
X0190630Y0014588D01*
X0190630Y0013390D02*
X0190630Y0013390D01*
X0190630Y0012191D02*
X0190630Y0012191D01*
X0190630Y0010993D02*
X0190630Y0010993D01*
X0188268Y0010993D02*
X0188268Y0010993D01*
X0188268Y0012191D02*
X0188268Y0012191D01*
X0188268Y0013390D02*
X0188268Y0013390D01*
X0188268Y0014588D02*
X0188268Y0014588D01*
X0188268Y0015787D02*
X0188268Y0015787D01*
X0185906Y0015787D02*
X0185905Y0015787D01*
X0185905Y0016427D02*
X0184837Y0016427D01*
X0184724Y0016397D01*
X0184612Y0016427D01*
X0183543Y0016427D01*
X0183543Y0010512D01*
X0183543Y0010512D01*
X0183632Y0010512D01*
X0185905Y0010512D01*
X0185905Y0016427D01*
X0185905Y0014588D02*
X0185906Y0014588D01*
X0185905Y0013390D02*
X0185906Y0013390D01*
X0185905Y0012191D02*
X0185906Y0012191D01*
X0185905Y0010993D02*
X0185906Y0010993D01*
X0183543Y0010993D02*
X0183543Y0010993D01*
X0183543Y0012191D02*
X0183543Y0012191D01*
X0183543Y0013390D02*
X0183543Y0013390D01*
X0183543Y0014588D02*
X0183543Y0014588D01*
X0183543Y0015787D02*
X0183543Y0015787D01*
X0181181Y0015787D02*
X0181181Y0015787D01*
X0181181Y0014588D02*
X0181181Y0014588D01*
X0181181Y0013390D02*
X0181181Y0013390D01*
X0181181Y0012191D02*
X0181181Y0012191D01*
X0181181Y0010993D02*
X0181181Y0010993D01*
X0181181Y0010512D02*
X0181181Y0010512D01*
X0178819Y0010993D02*
X0178819Y0010993D01*
X0178819Y0012191D02*
X0178819Y0012191D01*
X0178819Y0013390D02*
X0178819Y0013390D01*
X0178819Y0014588D02*
X0178819Y0014588D01*
X0178819Y0015787D02*
X0178819Y0015787D01*
X0176457Y0015787D02*
X0176457Y0015787D01*
X0176457Y0014588D02*
X0176457Y0014588D01*
X0176457Y0013390D02*
X0176457Y0013390D01*
X0176457Y0012191D02*
X0176457Y0012191D01*
X0176457Y0010993D02*
X0176457Y0010993D01*
X0174095Y0010993D02*
X0174094Y0010993D01*
X0174094Y0010512D02*
X0174094Y0016427D01*
X0173026Y0016427D01*
X0172913Y0016397D01*
X0172801Y0016427D01*
X0171732Y0016427D01*
X0171732Y0010512D01*
X0171732Y0010512D01*
X0171821Y0010512D01*
X0174094Y0010512D01*
X0174094Y0012191D02*
X0174095Y0012191D01*
X0174094Y0013390D02*
X0174095Y0013390D01*
X0174094Y0014588D02*
X0174095Y0014588D01*
X0174094Y0015787D02*
X0174095Y0015787D01*
X0171732Y0015787D02*
X0171732Y0015787D01*
X0171732Y0014588D02*
X0171732Y0014588D01*
X0171732Y0013390D02*
X0171732Y0013390D01*
X0171732Y0012191D02*
X0171732Y0012191D01*
X0171732Y0010993D02*
X0171732Y0010993D01*
X0169370Y0010993D02*
X0169370Y0010993D01*
X0169370Y0012191D02*
X0169370Y0012191D01*
X0169370Y0013390D02*
X0169370Y0013390D01*
X0169370Y0014588D02*
X0169370Y0014588D01*
X0169370Y0015787D02*
X0169370Y0015787D01*
X0167008Y0015787D02*
X0167008Y0015787D01*
X0167008Y0014588D02*
X0167008Y0014588D01*
X0167008Y0013390D02*
X0167008Y0013390D01*
X0167008Y0012191D02*
X0167008Y0012191D01*
X0167008Y0010993D02*
X0167008Y0010993D01*
X0164646Y0010993D02*
X0164646Y0010993D01*
X0164646Y0012191D02*
X0164646Y0012191D01*
X0164646Y0013390D02*
X0164646Y0013390D01*
X0164646Y0014588D02*
X0164646Y0014588D01*
X0164646Y0015787D02*
X0164646Y0015787D01*
X0162284Y0015787D02*
X0162283Y0015787D01*
X0162283Y0016427D02*
X0161215Y0016427D01*
X0161102Y0016397D01*
X0160990Y0016427D01*
X0159921Y0016427D01*
X0159921Y0010512D01*
X0159921Y0010512D01*
X0160010Y0010512D01*
X0162283Y0010512D01*
X0162283Y0016427D01*
X0162283Y0014588D02*
X0162284Y0014588D01*
X0162283Y0013390D02*
X0162284Y0013390D01*
X0162283Y0012191D02*
X0162284Y0012191D01*
X0162283Y0010993D02*
X0162284Y0010993D01*
X0159921Y0010993D02*
X0159921Y0010993D01*
X0159921Y0012191D02*
X0159921Y0012191D01*
X0159921Y0013390D02*
X0159921Y0013390D01*
X0159921Y0014588D02*
X0159921Y0014588D01*
X0159921Y0015787D02*
X0159921Y0015787D01*
X0157559Y0015787D02*
X0157559Y0015787D01*
X0157559Y0014588D02*
X0157559Y0014588D01*
X0157559Y0013390D02*
X0157559Y0013390D01*
X0157559Y0012191D02*
X0157559Y0012191D01*
X0157559Y0010993D02*
X0157559Y0010993D01*
X0155197Y0010993D02*
X0155197Y0010993D01*
X0155197Y0012191D02*
X0155197Y0012191D01*
X0155197Y0013390D02*
X0155197Y0013390D01*
X0155197Y0014588D02*
X0155197Y0014588D01*
X0155197Y0015787D02*
X0155197Y0015787D01*
X0152835Y0015787D02*
X0152835Y0015787D01*
X0152835Y0014588D02*
X0152835Y0014588D01*
X0152835Y0013390D02*
X0152835Y0013390D01*
X0152835Y0012191D02*
X0152835Y0012191D01*
X0152835Y0010993D02*
X0152835Y0010993D01*
X0152835Y0010512D02*
X0152835Y0010512D01*
X0150473Y0010512D01*
X0150473Y0010512D01*
X0150561Y0010512D01*
X0152835Y0010512D01*
X0150472Y0010512D02*
X0150472Y0010512D01*
X0150472Y0010512D01*
X0148110Y0010512D01*
X0148110Y0010512D01*
X0148199Y0010512D01*
X0150472Y0010512D01*
X0150472Y0016427D01*
X0150472Y0010512D01*
X0150472Y0010993D02*
X0150472Y0010993D01*
X0150472Y0012191D02*
X0150472Y0012191D01*
X0150472Y0013390D02*
X0150472Y0013390D01*
X0150472Y0014588D02*
X0150472Y0014588D01*
X0150472Y0015787D02*
X0150472Y0015787D01*
X0148110Y0015787D02*
X0148110Y0015787D01*
X0148110Y0014588D02*
X0148110Y0014588D01*
X0148110Y0013390D02*
X0148110Y0013390D01*
X0148110Y0012191D02*
X0148110Y0012191D01*
X0148110Y0010993D02*
X0148110Y0010993D01*
X0145748Y0010993D02*
X0145748Y0010993D01*
X0145748Y0012191D02*
X0145748Y0012191D01*
X0145748Y0013390D02*
X0145748Y0013390D01*
X0145748Y0014588D02*
X0145748Y0014588D01*
X0145748Y0015787D02*
X0145748Y0015787D01*
X0143386Y0015787D02*
X0143386Y0015787D01*
X0143386Y0014588D02*
X0143386Y0014588D01*
X0143386Y0013390D02*
X0143386Y0013390D01*
X0143386Y0012191D02*
X0143386Y0012191D01*
X0143386Y0010993D02*
X0143386Y0010993D01*
X0141024Y0010993D02*
X0141024Y0010993D01*
X0141023Y0010512D02*
X0141023Y0010512D01*
X0138662Y0010512D01*
X0138662Y0010512D01*
X0138750Y0010512D01*
X0141023Y0010512D01*
X0141024Y0012191D02*
X0141024Y0012191D01*
X0141024Y0013390D02*
X0141024Y0013390D01*
X0141024Y0014588D02*
X0141024Y0014588D01*
X0141024Y0015787D02*
X0141024Y0015787D01*
X0138661Y0015787D02*
X0138661Y0015787D01*
X0138661Y0016427D02*
X0138661Y0010512D01*
X0138661Y0010512D01*
X0136299Y0010512D01*
X0136299Y0010512D01*
X0133937Y0010512D01*
X0133937Y0016427D01*
X0133937Y0010512D01*
X0133937Y0010512D01*
X0133937Y0010512D01*
X0134026Y0010512D01*
X0136299Y0010512D01*
X0136299Y0016427D01*
X0136299Y0010512D01*
X0136299Y0010512D01*
X0136299Y0010512D01*
X0136388Y0010512D01*
X0138661Y0010512D01*
X0138661Y0010512D01*
X0138661Y0016427D01*
X0138661Y0014588D02*
X0138661Y0014588D01*
X0138661Y0013390D02*
X0138661Y0013390D01*
X0138661Y0012191D02*
X0138661Y0012191D01*
X0138661Y0010993D02*
X0138661Y0010993D01*
X0136299Y0010993D02*
X0136299Y0010993D01*
X0136299Y0012191D02*
X0136299Y0012191D01*
X0136299Y0013390D02*
X0136299Y0013390D01*
X0136299Y0014588D02*
X0136299Y0014588D01*
X0136299Y0015787D02*
X0136299Y0015787D01*
X0133937Y0015787D02*
X0133937Y0015787D01*
X0133937Y0014588D02*
X0133937Y0014588D01*
X0133937Y0013390D02*
X0133937Y0013390D01*
X0133937Y0012191D02*
X0133937Y0012191D01*
X0133937Y0010993D02*
X0133937Y0010993D01*
X0133365Y0016985D02*
X0269361Y0016985D01*
X0269361Y0015787D02*
X0263552Y0015787D01*
X0263769Y0014588D02*
X0269361Y0014588D01*
X0269361Y0013390D02*
X0263769Y0013390D01*
X0263769Y0012191D02*
X0269361Y0012191D01*
X0269361Y0010993D02*
X0263769Y0010993D01*
X0263769Y0009794D02*
X0269361Y0009794D01*
X0269361Y0008596D02*
X0263769Y0008596D01*
X0263769Y0007397D02*
X0269361Y0007397D01*
X0261496Y0010993D02*
X0261496Y0010993D01*
X0261496Y0012191D02*
X0261496Y0012191D01*
X0261496Y0013390D02*
X0261496Y0013390D01*
X0261496Y0014588D02*
X0261496Y0014588D01*
X0261496Y0015787D02*
X0261496Y0015787D01*
X0259134Y0015787D02*
X0259134Y0015787D01*
X0259134Y0014588D02*
X0259134Y0014588D01*
X0259134Y0013390D02*
X0259134Y0013390D01*
X0259134Y0012191D02*
X0259134Y0012191D01*
X0259134Y0010993D02*
X0259134Y0010993D01*
X0256772Y0010993D02*
X0256772Y0010993D01*
X0256772Y0010512D02*
X0256772Y0010512D01*
X0254410Y0010512D01*
X0254410Y0010512D01*
X0254498Y0010512D01*
X0256772Y0010512D01*
X0256772Y0012191D02*
X0256772Y0012191D01*
X0256772Y0013390D02*
X0256772Y0013390D01*
X0256772Y0014588D02*
X0256772Y0014588D01*
X0256772Y0015787D02*
X0256772Y0015787D01*
X0254409Y0015787D02*
X0254409Y0015787D01*
X0254409Y0016427D02*
X0254409Y0010512D01*
X0254409Y0010512D01*
X0252047Y0010512D01*
X0252047Y0010512D01*
X0252136Y0010512D01*
X0254409Y0010512D01*
X0254409Y0010512D01*
X0254409Y0016427D01*
X0254409Y0014588D02*
X0254409Y0014588D01*
X0254409Y0013390D02*
X0254409Y0013390D01*
X0254409Y0012191D02*
X0254409Y0012191D01*
X0254409Y0010993D02*
X0254409Y0010993D01*
X0252047Y0010993D02*
X0252047Y0010993D01*
X0252047Y0012191D02*
X0252047Y0012191D01*
X0252047Y0013390D02*
X0252047Y0013390D01*
X0252047Y0014588D02*
X0252047Y0014588D01*
X0252047Y0015787D02*
X0252047Y0015787D01*
X0249685Y0015787D02*
X0249685Y0015787D01*
X0249685Y0014588D02*
X0249685Y0014588D01*
X0249685Y0013390D02*
X0249685Y0013390D01*
X0249685Y0012191D02*
X0249685Y0012191D01*
X0249685Y0010993D02*
X0249685Y0010993D01*
X0247323Y0010993D02*
X0247323Y0010993D01*
X0247323Y0012191D02*
X0247323Y0012191D01*
X0247323Y0013390D02*
X0247323Y0013390D01*
X0247323Y0014588D02*
X0247323Y0014588D01*
X0247323Y0015787D02*
X0247323Y0015787D01*
X0244961Y0015787D02*
X0244961Y0015787D01*
X0244961Y0014588D02*
X0244961Y0014588D01*
X0244961Y0013390D02*
X0244961Y0013390D01*
X0244961Y0012191D02*
X0244961Y0012191D01*
X0244961Y0010993D02*
X0244961Y0010993D01*
X0244960Y0010512D02*
X0244960Y0010512D01*
X0242599Y0010512D01*
X0242599Y0010512D01*
X0242687Y0010512D01*
X0244960Y0010512D01*
X0242598Y0010512D02*
X0242598Y0010512D01*
X0242598Y0010512D01*
X0240236Y0010512D01*
X0240236Y0010512D01*
X0240325Y0010512D01*
X0242598Y0010512D01*
X0242598Y0016427D01*
X0242598Y0010512D01*
X0242598Y0010993D02*
X0242598Y0010993D01*
X0242598Y0012191D02*
X0242598Y0012191D01*
X0242598Y0013390D02*
X0242598Y0013390D01*
X0242598Y0014588D02*
X0242598Y0014588D01*
X0242598Y0015787D02*
X0242598Y0015787D01*
X0240236Y0015787D02*
X0240236Y0015787D01*
X0240236Y0014588D02*
X0240236Y0014588D01*
X0240236Y0013390D02*
X0240236Y0013390D01*
X0240236Y0012191D02*
X0240236Y0012191D01*
X0240236Y0010993D02*
X0240236Y0010993D01*
X0237874Y0010993D02*
X0237874Y0010993D01*
X0237874Y0012191D02*
X0237874Y0012191D01*
X0237874Y0013390D02*
X0237874Y0013390D01*
X0237874Y0014588D02*
X0237874Y0014588D01*
X0237874Y0015787D02*
X0237874Y0015787D01*
X0235512Y0015787D02*
X0235512Y0015787D01*
X0235512Y0014588D02*
X0235512Y0014588D01*
X0235512Y0013390D02*
X0235512Y0013390D01*
X0235512Y0012191D02*
X0235512Y0012191D01*
X0235512Y0010993D02*
X0235512Y0010993D01*
X0233150Y0010993D02*
X0233150Y0010993D01*
X0233149Y0010512D02*
X0233149Y0010512D01*
X0230788Y0010512D01*
X0230788Y0010512D01*
X0233061Y0010512D01*
X0233149Y0010512D01*
X0233150Y0012191D02*
X0233150Y0012191D01*
X0233150Y0013390D02*
X0233150Y0013390D01*
X0233150Y0014588D02*
X0233150Y0014588D01*
X0233150Y0015787D02*
X0233150Y0015787D01*
X0230787Y0015787D02*
X0230787Y0015787D01*
X0230787Y0016427D02*
X0230787Y0010512D01*
X0230787Y0010512D01*
X0228425Y0010512D01*
X0228425Y0010512D01*
X0228514Y0010512D01*
X0230787Y0010512D01*
X0230787Y0010512D01*
X0230787Y0016427D01*
X0230787Y0014588D02*
X0230787Y0014588D01*
X0230787Y0013390D02*
X0230787Y0013390D01*
X0230787Y0012191D02*
X0230787Y0012191D01*
X0230787Y0010993D02*
X0230787Y0010993D01*
X0228425Y0010993D02*
X0228425Y0010993D01*
X0228425Y0012191D02*
X0228425Y0012191D01*
X0228425Y0013390D02*
X0228425Y0013390D01*
X0228425Y0014588D02*
X0228425Y0014588D01*
X0228425Y0015787D02*
X0228425Y0015787D01*
X0226063Y0015787D02*
X0226063Y0015787D01*
X0226063Y0014588D02*
X0226063Y0014588D01*
X0226063Y0013390D02*
X0226063Y0013390D01*
X0226063Y0012191D02*
X0226063Y0012191D01*
X0226063Y0010993D02*
X0226063Y0010993D01*
X0223701Y0010993D02*
X0223701Y0010993D01*
X0223701Y0012191D02*
X0223701Y0012191D01*
X0223701Y0013390D02*
X0223701Y0013390D01*
X0223701Y0014588D02*
X0223701Y0014588D01*
X0223701Y0015787D02*
X0223701Y0015787D01*
X0221339Y0015787D02*
X0221339Y0015787D01*
X0221339Y0014588D02*
X0221339Y0014588D01*
X0221339Y0013390D02*
X0221339Y0013390D01*
X0221339Y0012191D02*
X0221339Y0012191D01*
X0221339Y0010993D02*
X0221339Y0010993D01*
X0221338Y0010512D02*
X0221338Y0010512D01*
X0218977Y0010512D01*
X0218977Y0010512D01*
X0219065Y0010512D01*
X0221338Y0010512D01*
X0218976Y0010512D02*
X0218976Y0010512D01*
X0218976Y0010512D01*
X0216614Y0010512D01*
X0216614Y0010512D01*
X0216703Y0010512D01*
X0218976Y0010512D01*
X0218976Y0016427D01*
X0218976Y0010512D01*
X0218976Y0010993D02*
X0218976Y0010993D01*
X0218976Y0012191D02*
X0218976Y0012191D01*
X0218976Y0013390D02*
X0218976Y0013390D01*
X0218976Y0014588D02*
X0218976Y0014588D01*
X0218976Y0015787D02*
X0218976Y0015787D01*
X0216614Y0015787D02*
X0216614Y0015787D01*
X0216614Y0014588D02*
X0216614Y0014588D01*
X0216614Y0013390D02*
X0216614Y0013390D01*
X0216614Y0012191D02*
X0216614Y0012191D01*
X0216614Y0010993D02*
X0216614Y0010993D01*
X0214252Y0010993D02*
X0214252Y0010993D01*
X0214252Y0012191D02*
X0214252Y0012191D01*
X0214252Y0013390D02*
X0214252Y0013390D01*
X0214252Y0014588D02*
X0214252Y0014588D01*
X0214252Y0015787D02*
X0214252Y0015787D01*
X0211890Y0015787D02*
X0211890Y0015787D01*
X0211890Y0014588D02*
X0211890Y0014588D01*
X0211890Y0013390D02*
X0211890Y0013390D01*
X0211890Y0012191D02*
X0211890Y0012191D01*
X0211890Y0010993D02*
X0211890Y0010993D01*
X0209528Y0010993D02*
X0209527Y0010993D01*
X0209527Y0010512D02*
X0209527Y0016427D01*
X0208459Y0016427D01*
X0208346Y0016397D01*
X0208234Y0016427D01*
X0207165Y0016427D01*
X0207165Y0010512D01*
X0207165Y0010512D01*
X0207254Y0010512D01*
X0209527Y0010512D01*
X0209527Y0012191D02*
X0209528Y0012191D01*
X0209527Y0013390D02*
X0209528Y0013390D01*
X0209527Y0014588D02*
X0209528Y0014588D01*
X0209527Y0015787D02*
X0209528Y0015787D01*
X0207165Y0015787D02*
X0207165Y0015787D01*
X0207165Y0014588D02*
X0207165Y0014588D01*
X0207165Y0013390D02*
X0207165Y0013390D01*
X0207165Y0012191D02*
X0207165Y0012191D01*
X0207165Y0010993D02*
X0207165Y0010993D01*
X0204803Y0010993D02*
X0204803Y0010993D01*
X0204803Y0010512D02*
X0204803Y0010512D01*
X0204803Y0012191D02*
X0204803Y0012191D01*
X0204803Y0013390D02*
X0204803Y0013390D01*
X0204803Y0014588D02*
X0204803Y0014588D01*
X0204803Y0015787D02*
X0204803Y0015787D01*
X0202441Y0015787D02*
X0202441Y0015787D01*
X0202441Y0014588D02*
X0202441Y0014588D01*
X0202441Y0013390D02*
X0202441Y0013390D01*
X0202441Y0012191D02*
X0202441Y0012191D01*
X0202441Y0010993D02*
X0202441Y0010993D01*
X0200079Y0010993D02*
X0200079Y0010993D01*
X0200079Y0012191D02*
X0200079Y0012191D01*
X0200079Y0013390D02*
X0200079Y0013390D01*
X0200079Y0014588D02*
X0200079Y0014588D01*
X0200079Y0015787D02*
X0200079Y0015787D01*
X0197717Y0015787D02*
X0197716Y0015787D01*
X0197716Y0014588D02*
X0197717Y0014588D01*
X0197716Y0013390D02*
X0197717Y0013390D01*
X0197716Y0012191D02*
X0197717Y0012191D01*
X0197716Y0010993D02*
X0197717Y0010993D01*
X0198125Y0035625D02*
X0193750Y0040000D01*
X0193750Y0072500D01*
X0190625Y0075625D01*
X0188084Y0075712D02*
X0179916Y0075712D01*
X0179916Y0074514D02*
X0188335Y0074514D01*
X0188408Y0076911D02*
X0179916Y0076911D01*
X0179916Y0078109D02*
X0189984Y0078109D01*
X0191266Y0078109D02*
X0191334Y0078109D01*
X0191334Y0079308D02*
X0179916Y0079308D01*
X0179916Y0080506D02*
X0191334Y0080506D01*
X0191334Y0081705D02*
X0179916Y0081705D01*
X0180685Y0082903D02*
X0191334Y0082903D01*
X0191334Y0084102D02*
X0181884Y0084102D01*
X0183082Y0085300D02*
X0191334Y0085300D01*
X0190790Y0086499D02*
X0184281Y0086499D01*
X0185480Y0087697D02*
X0190584Y0087697D01*
X0190953Y0088896D02*
X0186678Y0088896D01*
X0187877Y0090094D02*
X0194057Y0090094D01*
X0196250Y0088750D02*
X0196250Y0076250D01*
X0197500Y0075000D01*
X0197500Y0044375D01*
X0198750Y0043125D01*
X0195625Y0041875D02*
X0198125Y0039375D01*
X0195625Y0041875D02*
X0195625Y0073750D01*
X0193125Y0076250D01*
X0193125Y0087500D01*
X0200000Y0088750D02*
X0200000Y0046875D01*
X0201250Y0045625D01*
X0176334Y0067323D02*
X0173409Y0067323D01*
X0173791Y0068521D02*
X0176334Y0068521D01*
X0176334Y0069720D02*
X0173598Y0069720D01*
X0173041Y0070918D02*
X0176334Y0070918D01*
X0176334Y0072117D02*
X0173041Y0072117D01*
X0173041Y0073315D02*
X0176334Y0073315D01*
X0176334Y0074514D02*
X0173041Y0074514D01*
X0173041Y0075712D02*
X0176334Y0075712D01*
X0176334Y0076911D02*
X0173041Y0076911D01*
X0173041Y0078109D02*
X0176334Y0078109D01*
X0176334Y0079308D02*
X0173041Y0079308D01*
X0173041Y0080506D02*
X0176334Y0080506D01*
X0176334Y0081705D02*
X0173041Y0081705D01*
X0173041Y0082903D02*
X0176334Y0082903D01*
X0176820Y0084102D02*
X0173041Y0084102D01*
X0174082Y0085300D02*
X0178018Y0085300D01*
X0179217Y0086499D02*
X0175281Y0086499D01*
X0176479Y0087697D02*
X0180415Y0087697D01*
X0181614Y0088896D02*
X0177678Y0088896D01*
X0178877Y0090094D02*
X0182812Y0090094D01*
X0184011Y0091293D02*
X0180707Y0091293D01*
X0182228Y0092491D02*
X0185209Y0092491D01*
X0186408Y0093690D02*
X0182541Y0093690D01*
X0182278Y0094888D02*
X0187606Y0094888D01*
X0188805Y0096087D02*
X0180997Y0096087D01*
X0180000Y0093750D02*
X0171250Y0085000D01*
X0171250Y0068750D01*
X0157336Y0060132D02*
X0006781Y0060132D01*
X0006781Y0061330D02*
X0156138Y0061330D01*
X0154939Y0062529D02*
X0006781Y0062529D01*
X0006781Y0063727D02*
X0153741Y0063727D01*
X0152542Y0064926D02*
X0006781Y0064926D01*
X0006781Y0066124D02*
X0151344Y0066124D01*
X0150145Y0067323D02*
X0006781Y0067323D01*
X0006781Y0068521D02*
X0148947Y0068521D01*
X0147748Y0069720D02*
X0006781Y0069720D01*
X0006781Y0070918D02*
X0146550Y0070918D01*
X0145351Y0072117D02*
X0006781Y0072117D01*
X0006781Y0073315D02*
X0144153Y0073315D01*
X0142954Y0074514D02*
X0007880Y0074514D01*
X0009902Y0075250D02*
X0009902Y0075250D01*
X0010453Y0075712D02*
X0141756Y0075712D01*
X0140557Y0076911D02*
X0011882Y0076911D01*
X0012898Y0078109D02*
X0139359Y0078109D01*
X0138160Y0079308D02*
X0013590Y0079308D01*
X0014213Y0080387D02*
X0014213Y0080387D01*
X0014234Y0080506D02*
X0136962Y0080506D01*
X0135763Y0081705D02*
X0014445Y0081705D01*
X0014656Y0082903D02*
X0134565Y0082903D01*
X0133366Y0084102D02*
X0014740Y0084102D01*
X0014529Y0085300D02*
X0132168Y0085300D01*
X0130969Y0086499D02*
X0014318Y0086499D01*
X0013864Y0087697D02*
X0129770Y0087697D01*
X0128572Y0088896D02*
X0013172Y0088896D01*
X0012510Y0090042D02*
X0012510Y0090042D01*
X0012448Y0090094D02*
X0127373Y0090094D01*
X0126175Y0091293D02*
X0011020Y0091293D01*
X0009902Y0092231D02*
X0009902Y0092231D01*
X0009186Y0092491D02*
X0124976Y0092491D01*
X0123778Y0093690D02*
X0006781Y0093690D01*
X0006781Y0116462D02*
X0014675Y0116462D01*
X0013491Y0116761D02*
X0013491Y0116761D01*
X0012115Y0117660D02*
X0006781Y0117660D01*
X0006781Y0118859D02*
X0010281Y0118859D01*
X0009153Y0120057D02*
X0006781Y0120057D01*
X0006781Y0121256D02*
X0008220Y0121256D01*
X0007287Y0122454D02*
X0006781Y0122454D01*
X0007236Y0122519D02*
X0007236Y0122519D01*
X0006847Y0123653D02*
X0006781Y0123653D01*
X0017669Y0115703D02*
X0017669Y0115703D01*
X0021964Y0116059D02*
X0021964Y0116059D01*
X0040070Y0128447D02*
X0045492Y0128447D01*
X0044278Y0129645D02*
X0039688Y0129645D01*
X0039523Y0133241D02*
X0044210Y0133241D01*
X0045234Y0134439D02*
X0040070Y0134439D01*
X0046960Y0126050D02*
X0049678Y0126050D01*
X0049444Y0124851D02*
X0046960Y0124851D01*
X0026428Y0139233D02*
X0249937Y0139233D01*
X0248363Y0138035D02*
X0072637Y0138035D01*
X0025910Y0139710D02*
X0025910Y0139710D01*
X0024264Y0140432D02*
X0251771Y0140432D01*
X0252241Y0140739D02*
X0252241Y0140739D01*
X0247431Y0136836D02*
X0217415Y0136836D01*
X0220207Y0135638D02*
X0246498Y0135638D01*
X0245986Y0134981D02*
X0245986Y0134981D01*
X0245801Y0134439D02*
X0222150Y0134439D01*
X0223701Y0133241D02*
X0245389Y0133241D01*
X0244978Y0132042D02*
X0224975Y0132042D01*
X0226041Y0130844D02*
X0244587Y0130844D01*
X0244587Y0129645D02*
X0226943Y0129645D01*
X0227711Y0128447D02*
X0244587Y0128447D01*
X0244587Y0127248D02*
X0228366Y0127248D01*
X0228923Y0126050D02*
X0244774Y0126050D01*
X0218002Y0093690D02*
X0191472Y0093690D01*
X0217730Y0087697D02*
X0262278Y0087697D01*
X0261929Y0087093D02*
X0261929Y0087093D01*
X0269361Y0021779D02*
X0133365Y0021779D01*
X0133365Y0020581D02*
X0269361Y0020581D01*
X0269361Y0019382D02*
X0133365Y0019382D01*
X0133365Y0018184D02*
X0269361Y0018184D01*
X0126850Y0023775D02*
X0126850Y0010512D01*
X0119764Y0010993D02*
X0119764Y0010993D01*
X0119764Y0012191D02*
X0119764Y0012191D01*
X0119764Y0013390D02*
X0119764Y0013390D01*
X0119764Y0014588D02*
X0119764Y0014588D01*
X0119764Y0015787D02*
X0119764Y0015787D01*
X0115040Y0015299D02*
X0115038Y0015369D01*
X0115033Y0015440D01*
X0115023Y0015510D01*
X0115011Y0015579D01*
X0114994Y0015647D01*
X0114974Y0015715D01*
X0114951Y0015781D01*
X0114924Y0015846D01*
X0114893Y0015910D01*
X0114860Y0015972D01*
X0114823Y0016032D01*
X0114783Y0016090D01*
X0114740Y0016146D01*
X0114694Y0016200D01*
X0114646Y0016251D01*
X0112854Y0016250D02*
X0112822Y0016215D01*
X0112793Y0016177D01*
X0112766Y0016138D01*
X0112743Y0016096D01*
X0112723Y0016053D01*
X0112707Y0016008D01*
X0112694Y0015962D01*
X0112684Y0015916D01*
X0112679Y0015869D01*
X0112677Y0015821D01*
X0108524Y0016985D02*
X0073351Y0016985D01*
X0073351Y0018184D02*
X0108524Y0018184D01*
X0108524Y0019382D02*
X0073351Y0019382D01*
X0072989Y0020581D02*
X0108524Y0020581D01*
X0108524Y0021779D02*
X0071984Y0021779D01*
X0072453Y0021508D02*
X0072453Y0021508D01*
X0072453Y0021508D01*
X0074882Y0015787D02*
X0074882Y0015787D01*
X0074882Y0014588D02*
X0074882Y0014588D01*
X0074882Y0013390D02*
X0074882Y0013390D01*
X0074882Y0012191D02*
X0074882Y0012191D01*
X0074882Y0010993D02*
X0074882Y0010993D01*
X0077244Y0010993D02*
X0077244Y0010993D01*
X0077244Y0010512D02*
X0077244Y0010512D01*
X0077244Y0012191D02*
X0077244Y0012191D01*
X0077244Y0013390D02*
X0077244Y0013390D01*
X0077244Y0014588D02*
X0077244Y0014588D01*
X0077244Y0015787D02*
X0077244Y0015787D01*
X0079606Y0015787D02*
X0079606Y0015787D01*
X0079606Y0016427D02*
X0079606Y0010512D01*
X0079606Y0010512D01*
X0081880Y0010512D01*
X0081968Y0010512D01*
X0081968Y0016427D01*
X0080900Y0016427D01*
X0080787Y0016397D01*
X0080675Y0016427D01*
X0079606Y0016427D01*
X0079606Y0014588D02*
X0079606Y0014588D01*
X0079606Y0013390D02*
X0079606Y0013390D01*
X0079606Y0012191D02*
X0079606Y0012191D01*
X0079606Y0010993D02*
X0079606Y0010993D01*
X0081968Y0010993D02*
X0081969Y0010993D01*
X0081968Y0012191D02*
X0081969Y0012191D01*
X0081968Y0013390D02*
X0081969Y0013390D01*
X0081968Y0014588D02*
X0081969Y0014588D01*
X0081968Y0015787D02*
X0081969Y0015787D01*
X0084331Y0015787D02*
X0084331Y0015787D01*
X0084331Y0014588D02*
X0084331Y0014588D01*
X0084331Y0013390D02*
X0084331Y0013390D01*
X0084331Y0012191D02*
X0084331Y0012191D01*
X0084331Y0010993D02*
X0084331Y0010993D01*
X0086693Y0010993D02*
X0086693Y0010993D01*
X0086693Y0012191D02*
X0086693Y0012191D01*
X0086693Y0013390D02*
X0086693Y0013390D01*
X0086693Y0014588D02*
X0086693Y0014588D01*
X0086693Y0015787D02*
X0086693Y0015787D01*
X0089055Y0015787D02*
X0089055Y0015787D01*
X0089055Y0014588D02*
X0089055Y0014588D01*
X0089055Y0013390D02*
X0089055Y0013390D01*
X0089055Y0012191D02*
X0089055Y0012191D01*
X0089055Y0010993D02*
X0089055Y0010993D01*
X0089055Y0010512D02*
X0089055Y0010512D01*
X0091417Y0010512D02*
X0091417Y0016427D01*
X0092486Y0016427D01*
X0092598Y0016397D01*
X0092711Y0016427D01*
X0093779Y0016427D01*
X0093779Y0010512D01*
X0091506Y0010512D01*
X0091417Y0010512D01*
X0091417Y0010512D01*
X0091417Y0010993D02*
X0091417Y0010993D01*
X0091417Y0012191D02*
X0091417Y0012191D01*
X0091417Y0013390D02*
X0091417Y0013390D01*
X0091417Y0014588D02*
X0091417Y0014588D01*
X0091417Y0015787D02*
X0091417Y0015787D01*
X0093779Y0015787D02*
X0093780Y0015787D01*
X0093779Y0014588D02*
X0093780Y0014588D01*
X0093779Y0013390D02*
X0093780Y0013390D01*
X0093779Y0012191D02*
X0093780Y0012191D01*
X0093779Y0010993D02*
X0093780Y0010993D01*
X0096142Y0010993D02*
X0096142Y0010993D01*
X0096142Y0012191D02*
X0096142Y0012191D01*
X0096142Y0013390D02*
X0096142Y0013390D01*
X0096142Y0014588D02*
X0096142Y0014588D01*
X0096142Y0015787D02*
X0096142Y0015787D01*
X0098504Y0015787D02*
X0098504Y0015787D01*
X0098504Y0014588D02*
X0098504Y0014588D01*
X0098504Y0013390D02*
X0098504Y0013390D01*
X0098504Y0012191D02*
X0098504Y0012191D01*
X0098504Y0010993D02*
X0098504Y0010993D01*
X0100866Y0010993D02*
X0100866Y0010993D01*
X0100866Y0010512D02*
X0100866Y0010512D01*
X0100866Y0012191D02*
X0100866Y0012191D01*
X0100866Y0013390D02*
X0100866Y0013390D01*
X0100866Y0014588D02*
X0100866Y0014588D01*
X0100866Y0015787D02*
X0100866Y0015787D01*
X0103228Y0015787D02*
X0103228Y0015787D01*
X0103228Y0016427D02*
X0103228Y0010512D01*
X0103228Y0010512D01*
X0103317Y0010512D01*
X0105590Y0010512D01*
X0105590Y0016427D01*
X0104522Y0016427D01*
X0104409Y0016397D01*
X0104297Y0016427D01*
X0103228Y0016427D01*
X0103228Y0014588D02*
X0103228Y0014588D01*
X0103228Y0013390D02*
X0103228Y0013390D01*
X0103228Y0012191D02*
X0103228Y0012191D01*
X0103228Y0010993D02*
X0103228Y0010993D01*
X0105590Y0010993D02*
X0105591Y0010993D01*
X0105590Y0012191D02*
X0105591Y0012191D01*
X0105590Y0013390D02*
X0105591Y0013390D01*
X0105590Y0014588D02*
X0105591Y0014588D01*
X0105590Y0015787D02*
X0105591Y0015787D01*
X0107953Y0015787D02*
X0107953Y0015787D01*
X0107953Y0014588D02*
X0107953Y0014588D01*
X0107953Y0013390D02*
X0107953Y0013390D01*
X0107953Y0012191D02*
X0107953Y0012191D01*
X0107953Y0010993D02*
X0107953Y0010993D01*
X0125625Y0025000D02*
X0126850Y0023775D01*
X0120000Y0028125D02*
X0122500Y0030625D01*
X0114645Y0048480D02*
X0114647Y0048578D01*
X0114653Y0048676D01*
X0114662Y0048774D01*
X0114676Y0048871D01*
X0114693Y0048968D01*
X0114714Y0049064D01*
X0114739Y0049159D01*
X0114767Y0049253D01*
X0114800Y0049345D01*
X0114835Y0049437D01*
X0114875Y0049527D01*
X0114917Y0049615D01*
X0114964Y0049702D01*
X0115013Y0049786D01*
X0115066Y0049869D01*
X0115122Y0049949D01*
X0115182Y0050028D01*
X0115244Y0050104D01*
X0115309Y0050177D01*
X0115377Y0050248D01*
X0115448Y0050316D01*
X0115521Y0050381D01*
X0115597Y0050443D01*
X0115676Y0050503D01*
X0115756Y0050559D01*
X0115839Y0050612D01*
X0115923Y0050661D01*
X0116010Y0050708D01*
X0116098Y0050750D01*
X0116188Y0050790D01*
X0116280Y0050825D01*
X0116372Y0050858D01*
X0116466Y0050886D01*
X0116561Y0050911D01*
X0116657Y0050932D01*
X0116754Y0050949D01*
X0116851Y0050963D01*
X0116949Y0050972D01*
X0117047Y0050978D01*
X0117145Y0050980D01*
X0120356Y0094888D02*
X0122579Y0094888D01*
X0121381Y0096087D02*
X0121173Y0096087D01*
D16*
X0118750Y0096875D03*
X0103750Y0096875D03*
X0103750Y0101475D03*
X0168750Y0102500D03*
X0168750Y0108875D03*
X0176250Y0111875D03*
X0178750Y0108750D03*
X0183750Y0105625D03*
X0197500Y0100000D03*
X0196250Y0088750D03*
X0193125Y0087500D03*
X0200000Y0088750D03*
X0211250Y0089375D03*
X0218750Y0091250D03*
X0218750Y0081875D03*
X0218750Y0076250D03*
X0218750Y0070625D03*
X0209375Y0071875D03*
X0204375Y0071875D03*
X0190625Y0071875D03*
X0186875Y0071875D03*
X0183750Y0070000D03*
X0190625Y0075625D03*
X0171250Y0068750D03*
X0171875Y0060000D03*
X0170625Y0055000D03*
X0162500Y0044375D03*
X0159375Y0043125D03*
X0148750Y0043125D03*
X0126875Y0048125D03*
X0123750Y0046250D03*
X0118125Y0040000D03*
X0118125Y0036250D03*
X0119375Y0031250D03*
X0123125Y0027500D03*
X0125625Y0025000D03*
X0118750Y0019375D03*
X0175000Y0020000D03*
X0198125Y0024375D03*
X0198125Y0028125D03*
X0198125Y0031875D03*
X0198125Y0035625D03*
X0198125Y0039375D03*
X0198750Y0043125D03*
X0201250Y0045625D03*
X0226250Y0053125D03*
X0250625Y0049375D03*
X0260625Y0079375D03*
X0256250Y0083750D03*
X0180000Y0093750D03*
X0226875Y0018125D03*
X0030500Y0109650D03*
D17*
X0107500Y0050625D03*
X0107500Y0040625D03*
X0126875Y0055625D03*
X0130000Y0053351D03*
X0130000Y0050399D03*
X0169375Y0042500D03*
X0150000Y0091875D03*
D18*
X0051875Y0125000D03*
M02*
