G75*
%MOIN*%
%OFA0B0*%
%FSLAX25Y25*%
%IPPOS*%
%LPD*%
%AMOC8*
5,1,8,0,0,1.08239X$1,22.5*
%
%ADD10C,0.10433*%
%ADD11R,0.09465X0.09465*%
%ADD12C,0.04134*%
%ADD13R,0.02362X0.10630*%
%ADD14C,0.02953*%
%ADD15C,0.04843*%
%ADD16C,0.03150*%
D10*
X0018750Y0130625D03*
X0257500Y0130625D03*
D11*
X0242250Y0118125D03*
X0190250Y0118125D03*
D12*
X0131875Y0088125D03*
X0057656Y0129025D03*
X0045844Y0129025D03*
D13*
X0014646Y0011004D03*
X0017008Y0011004D03*
X0019370Y0011004D03*
X0021732Y0011004D03*
X0024094Y0011004D03*
X0026457Y0011004D03*
X0028819Y0011004D03*
X0031181Y0011004D03*
X0033543Y0011004D03*
X0035906Y0011004D03*
X0038268Y0011004D03*
X0040630Y0011004D03*
X0042992Y0011004D03*
X0045354Y0011004D03*
X0047717Y0011004D03*
X0050079Y0011004D03*
X0052441Y0011004D03*
X0054803Y0011004D03*
X0057165Y0011004D03*
X0059528Y0011004D03*
X0076063Y0011004D03*
X0078425Y0011004D03*
X0080787Y0011004D03*
X0083150Y0011004D03*
X0085512Y0011004D03*
X0087874Y0011004D03*
X0090236Y0011004D03*
X0092598Y0011004D03*
X0094961Y0011004D03*
X0097323Y0011004D03*
X0099685Y0011004D03*
X0102047Y0011004D03*
X0104409Y0011004D03*
X0106772Y0011004D03*
X0109134Y0011004D03*
X0111496Y0011004D03*
X0113858Y0011004D03*
X0116220Y0011004D03*
X0118583Y0011004D03*
X0120945Y0011004D03*
X0123307Y0011004D03*
X0125669Y0011004D03*
X0128031Y0011004D03*
X0130394Y0011004D03*
X0132756Y0011004D03*
X0135118Y0011004D03*
X0137480Y0011004D03*
X0139843Y0011004D03*
X0142205Y0011004D03*
X0144567Y0011004D03*
X0146929Y0011004D03*
X0149291Y0011004D03*
X0151654Y0011004D03*
X0154016Y0011004D03*
X0156378Y0011004D03*
X0158740Y0011004D03*
X0161102Y0011004D03*
X0163465Y0011004D03*
X0165827Y0011004D03*
X0168189Y0011004D03*
X0170551Y0011004D03*
X0172913Y0011004D03*
X0175276Y0011004D03*
X0177638Y0011004D03*
X0180000Y0011004D03*
X0182362Y0011004D03*
X0184724Y0011004D03*
X0187087Y0011004D03*
X0189449Y0011004D03*
X0191811Y0011004D03*
X0194173Y0011004D03*
X0196535Y0011004D03*
X0198898Y0011004D03*
X0201260Y0011004D03*
X0203622Y0011004D03*
X0205984Y0011004D03*
X0208346Y0011004D03*
X0210709Y0011004D03*
X0213071Y0011004D03*
X0215433Y0011004D03*
X0217795Y0011004D03*
X0220157Y0011004D03*
X0222520Y0011004D03*
X0224882Y0011004D03*
X0227244Y0011004D03*
X0229606Y0011004D03*
X0231969Y0011004D03*
X0234331Y0011004D03*
X0236693Y0011004D03*
X0239055Y0011004D03*
X0241417Y0011004D03*
X0243780Y0011004D03*
X0246142Y0011004D03*
X0248504Y0011004D03*
X0250866Y0011004D03*
X0253228Y0011004D03*
X0255591Y0011004D03*
X0257953Y0011004D03*
X0260315Y0011004D03*
X0262677Y0011004D03*
D14*
X0222500Y0030625D03*
X0222500Y0033750D03*
X0222500Y0036875D03*
X0222500Y0040000D03*
X0222500Y0043125D03*
X0220000Y0045625D03*
X0217500Y0048125D03*
X0215000Y0050625D03*
X0180625Y0025000D03*
X0177500Y0025000D03*
X0177500Y0021875D03*
X0180625Y0021875D03*
X0180625Y0018750D03*
X0177500Y0018750D03*
X0174375Y0018750D03*
X0174375Y0021875D03*
X0174375Y0025000D03*
X0133750Y0031875D03*
X0122500Y0038125D03*
X0122385Y0041365D03*
X0115625Y0038125D03*
X0116476Y0025000D03*
X0113524Y0025000D03*
X0118750Y0018125D03*
X0071250Y0020625D03*
X0091875Y0055625D03*
X0095000Y0055625D03*
X0098125Y0055625D03*
X0098125Y0058750D03*
X0095000Y0058750D03*
X0091875Y0058750D03*
X0091875Y0061875D03*
X0095000Y0061875D03*
X0098125Y0061875D03*
X0101250Y0061875D03*
X0104375Y0061875D03*
X0104375Y0058750D03*
X0101250Y0058750D03*
X0101250Y0055625D03*
X0104375Y0055625D03*
X0121875Y0063125D03*
X0106250Y0086250D03*
X0075000Y0082500D03*
X0056250Y0095000D03*
X0053125Y0095000D03*
X0050000Y0095000D03*
X0050000Y0098125D03*
X0053125Y0098125D03*
X0056250Y0098125D03*
X0056250Y0101250D03*
X0053125Y0101250D03*
X0050000Y0101250D03*
X0050000Y0082500D03*
X0046875Y0082500D03*
X0074375Y0063750D03*
X0098125Y0109375D03*
X0093750Y0115000D03*
X0121250Y0138750D03*
X0124375Y0138750D03*
X0127500Y0138750D03*
X0130625Y0138750D03*
X0133750Y0138750D03*
X0136875Y0138750D03*
X0140000Y0138750D03*
X0237500Y0088750D03*
X0240000Y0091250D03*
X0242500Y0093750D03*
X0245000Y0096250D03*
X0247500Y0098750D03*
D15*
X0180625Y0092500D03*
D16*
X0178125Y0076250D03*
X0197500Y0052500D03*
X0200187Y0050000D03*
X0202657Y0047500D03*
X0204911Y0045000D03*
X0207273Y0042500D03*
X0209743Y0040000D03*
X0212213Y0037500D03*
X0113750Y0082500D03*
X0096875Y0085000D03*
X0093566Y0084816D03*
X0090257Y0084632D03*
X0089913Y0081482D03*
X0080000Y0082475D03*
X0080000Y0085625D03*
X0074233Y0086250D03*
X0095886Y0099375D03*
X0113891Y0099859D03*
X0134375Y0106875D03*
X0053125Y0113125D03*
X0108750Y0036875D03*
M02*
