G75*
G70*
%OFA0B0*%
%FSLAX24Y24*%
%IPPOS*%
%LPD*%
%AMOC8*
5,1,8,0,0,1.08239X$1,22.5*
%
%ADD10OC8,0.0740*%
%ADD11C,0.0500*%
%ADD12R,0.0315X0.0354*%
%ADD13R,0.0354X0.0315*%
%ADD14R,0.0217X0.0472*%
%ADD15R,0.0472X0.0512*%
%ADD16R,0.0512X0.0472*%
%ADD17R,0.0787X0.0945*%
%ADD18R,0.0197X0.0909*%
%ADD19C,0.1660*%
%ADD20C,0.1502*%
%ADD21R,0.0709X0.0630*%
%ADD22R,0.1102X0.0551*%
%ADD23R,0.0472X0.0551*%
%ADD24C,0.0660*%
%ADD25R,0.0236X0.0866*%
%ADD26R,0.0160X0.0480*%
%ADD27R,0.1000X0.1000*%
%ADD28R,0.0866X0.0591*%
%ADD29R,0.0200X0.0480*%
%ADD30R,0.0670X0.0140*%
%ADD31R,0.1811X0.0394*%
%ADD32R,0.1339X0.0630*%
%ADD33C,0.0120*%
%ADD34C,0.0160*%
%ADD35C,0.0290*%
%ADD36C,0.0100*%
%ADD37C,0.0240*%
%ADD38C,0.0320*%
%ADD39C,0.0472*%
D10*
X020225Y005170D03*
X021225Y005170D03*
X021225Y006170D03*
X021225Y007170D03*
X020225Y007170D03*
X020225Y006170D03*
X020225Y008170D03*
X020225Y009170D03*
X021225Y009170D03*
X021225Y008170D03*
X021225Y010170D03*
X021225Y011170D03*
X020225Y011170D03*
X020225Y010170D03*
X020225Y012170D03*
X020225Y013170D03*
X020225Y014170D03*
X021225Y014170D03*
X021225Y013170D03*
X021225Y012170D03*
X021225Y015170D03*
X021225Y016170D03*
X020225Y016170D03*
X020225Y015170D03*
X020225Y017170D03*
X020225Y018170D03*
X021225Y018170D03*
X021225Y017170D03*
X021225Y019170D03*
X021225Y020170D03*
X020225Y020170D03*
X020225Y019170D03*
X020225Y021170D03*
X020225Y022170D03*
X021225Y022170D03*
X021225Y021170D03*
X021225Y023170D03*
X021225Y024170D03*
X020225Y024170D03*
X020225Y023170D03*
D11*
X023494Y022844D03*
X023494Y022056D03*
X023494Y021269D03*
X023494Y020481D03*
X023494Y019694D03*
X023494Y018907D03*
X023494Y023631D03*
X023494Y024419D03*
X023494Y025206D03*
X023494Y025993D03*
X032156Y025993D03*
X032156Y025206D03*
X032156Y024419D03*
X032156Y023631D03*
X032156Y022844D03*
X032156Y022056D03*
X032156Y021269D03*
X032156Y020481D03*
X032156Y019694D03*
X032156Y018907D03*
X009656Y018907D03*
X009656Y019694D03*
X009656Y020481D03*
X009656Y021269D03*
X009656Y022056D03*
X009656Y022844D03*
X009656Y023631D03*
X009656Y024419D03*
X009656Y025206D03*
X009656Y025993D03*
X000994Y025993D03*
X000994Y025206D03*
X000994Y024419D03*
X000994Y023631D03*
X000994Y022844D03*
X000994Y022056D03*
X000994Y021269D03*
X000994Y020481D03*
X000994Y019694D03*
X000994Y018907D03*
D12*
X007175Y013750D03*
X007175Y013150D03*
X012500Y011075D03*
X013100Y011075D03*
X013100Y010475D03*
X012500Y010475D03*
X013700Y010475D03*
X013700Y011075D03*
X014475Y012025D03*
X014475Y012625D03*
X015325Y016400D03*
X015325Y017000D03*
X009650Y008625D03*
X009650Y008025D03*
X009050Y008025D03*
X009050Y008625D03*
X016000Y006400D03*
X016000Y005800D03*
X004950Y025650D03*
X004950Y026250D03*
D13*
X002290Y022053D03*
X001690Y022053D03*
X001690Y021425D03*
X002290Y021425D03*
X011675Y013325D03*
X012275Y013325D03*
X012925Y013325D03*
X013525Y013325D03*
X013700Y009850D03*
X013100Y009850D03*
X009625Y009275D03*
X009025Y009275D03*
X009050Y007350D03*
X009650Y007350D03*
X014600Y020650D03*
X015200Y020650D03*
X024440Y021430D03*
X025040Y021430D03*
X025040Y022058D03*
X024440Y022058D03*
X024275Y025950D03*
X024875Y025950D03*
D14*
X006574Y013962D03*
X006200Y013962D03*
X005826Y013962D03*
X005826Y012938D03*
X006574Y012938D03*
D15*
X006650Y012175D03*
X005850Y012175D03*
X015225Y005050D03*
X016025Y005050D03*
D16*
X009225Y011100D03*
X009225Y011900D03*
X005825Y014725D03*
X005825Y015525D03*
D17*
X014343Y003878D03*
X014343Y001713D03*
X017807Y001713D03*
X017807Y003878D03*
D18*
X016705Y004100D03*
X016390Y004100D03*
X016075Y004100D03*
X015760Y004100D03*
X015445Y004100D03*
D19*
X007275Y005854D03*
D20*
X009165Y004732D03*
X007275Y003394D03*
D21*
X015250Y005924D03*
X015250Y007026D03*
X013800Y014449D03*
X012900Y014449D03*
X012900Y015551D03*
X013800Y015551D03*
D22*
X010675Y009612D03*
X016450Y008112D03*
D23*
X016017Y007088D03*
X016883Y007088D03*
X011108Y008588D03*
X010242Y008588D03*
D24*
X008205Y008850D02*
X007545Y008850D01*
X007545Y007850D02*
X008205Y007850D01*
X008205Y009850D02*
X007545Y009850D01*
D25*
X016075Y015676D03*
X016575Y015676D03*
X017075Y015676D03*
X017575Y015676D03*
X017575Y017724D03*
X017075Y017724D03*
X016575Y017724D03*
X016075Y017724D03*
D26*
X013630Y012755D03*
X013380Y012755D03*
X013120Y012755D03*
X012870Y012755D03*
X012870Y011795D03*
X013120Y011795D03*
X013380Y011795D03*
X013630Y011795D03*
D27*
X011750Y015275D03*
X009900Y015275D03*
D28*
X010925Y012633D03*
X010925Y010467D03*
D29*
X010220Y013260D03*
X009850Y013260D03*
X009480Y013260D03*
X009480Y014240D03*
X009850Y014240D03*
X010220Y014240D03*
D30*
X013800Y021125D03*
X013800Y021385D03*
X013800Y021645D03*
X013800Y021895D03*
X013800Y022155D03*
X013800Y022405D03*
X013800Y022665D03*
X013800Y022925D03*
X016000Y022925D03*
X016000Y022665D03*
X016000Y022405D03*
X016000Y022155D03*
X016000Y021895D03*
X016000Y021645D03*
X016000Y021385D03*
X016000Y021125D03*
D31*
X004482Y013794D03*
X004482Y013006D03*
D32*
X002434Y012061D03*
X002434Y014739D03*
D33*
X002290Y021425D02*
X002290Y022053D01*
X001690Y022053D02*
X000994Y022053D01*
X000994Y022056D01*
X000994Y022844D02*
X000575Y023263D01*
X000575Y025574D01*
X000994Y025993D01*
X001588Y025400D01*
X003275Y025400D01*
X003475Y025600D01*
X005000Y025600D01*
X004950Y025650D01*
X005000Y025600D02*
X009958Y025600D01*
X009958Y025593D01*
X010150Y025400D01*
X010150Y025150D01*
X010900Y024400D01*
X011158Y024400D01*
X012233Y023325D01*
X015200Y023325D01*
X015200Y022925D01*
X016000Y022925D01*
X016000Y022405D02*
X019460Y022405D01*
X020225Y023170D01*
X020733Y023663D02*
X021463Y023663D01*
X022525Y024725D01*
X022525Y025400D01*
X023118Y025993D01*
X023494Y025993D01*
X024232Y025993D01*
X024275Y025950D01*
X024275Y023624D01*
X023494Y022844D01*
X022825Y022950D02*
X022825Y023749D01*
X023494Y024419D01*
X022825Y022950D02*
X022045Y022170D01*
X021225Y021170D01*
X020210Y022155D02*
X020225Y022170D01*
X020210Y022155D02*
X016000Y022155D01*
X016000Y021125D02*
X015200Y021125D01*
X015200Y022925D01*
X015200Y023325D02*
X019380Y023325D01*
X020225Y024170D01*
X020733Y023663D01*
X023494Y022056D02*
X023495Y022058D01*
X024440Y022058D01*
X025040Y022058D02*
X025040Y021430D01*
X025075Y021430D01*
X025075Y020700D01*
X020225Y016170D02*
X019225Y017170D01*
X018130Y017170D01*
X017900Y017400D01*
X017900Y018275D01*
X017775Y018400D01*
X016275Y018400D01*
X016075Y018200D01*
X016075Y017724D01*
X016075Y017200D01*
X015875Y017000D01*
X015325Y017000D01*
X016575Y017200D02*
X016575Y017724D01*
X017075Y017724D02*
X017075Y017200D01*
X017575Y016700D01*
X018350Y016700D01*
X019650Y015400D01*
X019650Y014745D01*
X020225Y014170D01*
X019400Y013995D02*
X020225Y013170D01*
X019875Y012675D02*
X018100Y014450D01*
X016325Y014450D01*
X016075Y014700D01*
X016075Y015676D01*
X017075Y015676D02*
X017075Y014950D01*
X017325Y016450D02*
X017945Y016450D01*
X019400Y014995D01*
X019400Y013995D01*
X020225Y015170D02*
X018445Y016950D01*
X017825Y016950D01*
X017575Y017200D01*
X017575Y017724D01*
X016575Y017200D02*
X017325Y016450D01*
X020730Y012675D02*
X021225Y013170D01*
X020730Y012675D02*
X019875Y012675D01*
X013700Y011075D02*
X013380Y011395D01*
X013380Y011795D01*
X013120Y011795D02*
X013120Y011095D01*
X013100Y011075D01*
X012500Y011075D01*
X012870Y011795D02*
X012870Y012220D01*
X012925Y012275D01*
X013325Y012275D01*
X013380Y012330D01*
X013380Y012755D01*
X015200Y020650D02*
X015200Y021125D01*
X013800Y021895D02*
X013020Y021895D01*
X012900Y021775D01*
X013800Y022155D02*
X011845Y022155D01*
X009975Y024025D01*
X009500Y024025D01*
X009106Y024419D01*
X000994Y024419D01*
X000994Y025206D02*
X009069Y025206D01*
X009450Y024825D01*
X009825Y024825D01*
X011800Y022850D01*
D34*
X005631Y022844D02*
X000994Y022844D01*
X002290Y021425D02*
X002775Y021425D01*
X009475Y014240D02*
X009475Y013775D01*
X009480Y014240D02*
X009475Y014240D01*
X009850Y014240D02*
X010220Y014240D01*
X010160Y014300D01*
X010050Y014300D01*
X010035Y013260D02*
X009850Y013260D01*
X010035Y013260D02*
X010220Y013260D01*
X010925Y012755D02*
X010925Y012633D01*
X010925Y012755D02*
X012870Y012755D01*
X013120Y012755D02*
X013120Y013130D01*
X012925Y013325D01*
X012275Y013325D01*
X013380Y013180D02*
X013380Y012755D01*
X013630Y012755D02*
X013630Y012295D01*
X013650Y012275D01*
X014475Y012025D02*
X014475Y011850D01*
X013700Y011075D01*
X013100Y010475D02*
X013100Y009850D01*
X012395Y011795D02*
X011150Y010550D01*
X011008Y010550D01*
X010925Y010467D01*
X012395Y011795D02*
X012870Y011795D01*
X013380Y013180D02*
X013525Y013325D01*
X016575Y014950D02*
X016575Y015676D01*
X009025Y009400D02*
X008575Y009850D01*
X007650Y009850D01*
X009025Y009400D02*
X009025Y009275D01*
X009050Y008025D02*
X008875Y007850D01*
X007875Y007850D01*
X009050Y008025D02*
X009050Y007350D01*
X009050Y008025D02*
X009650Y008025D01*
X006963Y012938D02*
X006574Y012938D01*
X006963Y012938D02*
X007175Y013150D01*
D35*
X009375Y012725D03*
X009575Y012400D03*
X010625Y013150D03*
X010875Y013400D03*
X011125Y013150D03*
X010875Y014150D03*
X011375Y014150D03*
X011875Y014150D03*
X012625Y013900D03*
X013125Y013900D03*
X013625Y013900D03*
X013825Y013650D03*
X014075Y013400D03*
X014075Y012900D03*
X014075Y012400D03*
X013650Y012275D03*
X014075Y011900D03*
X014075Y010150D03*
X012575Y009900D03*
X012075Y010150D03*
X009475Y013775D03*
X012625Y016150D03*
X013125Y016150D03*
X013625Y016150D03*
X014125Y016150D03*
X016575Y014950D03*
X017075Y014950D03*
X025075Y020700D03*
X012900Y021775D03*
X011800Y022850D03*
X005375Y026275D03*
X004500Y026275D03*
X002775Y021425D03*
D36*
X002879Y001335D02*
X002688Y001225D01*
X013839Y001225D01*
X013839Y002231D01*
X013903Y002295D01*
X014782Y002295D01*
X014846Y002231D01*
X014846Y001225D01*
X017304Y001225D01*
X017304Y002231D01*
X017368Y002295D01*
X018247Y002295D01*
X018311Y002231D01*
X018311Y001225D01*
X032739Y001225D01*
X032390Y001503D01*
X032390Y001503D01*
X032390Y001503D01*
X032113Y001909D01*
X032113Y001909D01*
X031968Y002379D01*
X031968Y002871D01*
X032113Y003341D01*
X032113Y003341D01*
X032390Y003747D01*
X032390Y003747D01*
X032775Y004054D01*
X032775Y004054D01*
X033233Y004234D01*
X033723Y004270D01*
X033723Y004270D01*
X034203Y004161D01*
X034203Y004161D01*
X034629Y003915D01*
X034629Y003915D01*
X034963Y003554D01*
X034963Y003554D01*
X035177Y003111D01*
X035177Y003111D01*
X035200Y002957D01*
X035200Y026427D01*
X035088Y026196D01*
X035088Y026196D01*
X034754Y025835D01*
X034754Y025835D01*
X034754Y025835D01*
X034328Y025589D01*
X034328Y025589D01*
X033848Y025480D01*
X033848Y025480D01*
X033358Y025516D01*
X033358Y025516D01*
X032900Y025696D01*
X032900Y025696D01*
X032516Y026003D01*
X032516Y025922D01*
X032461Y025789D01*
X032360Y025688D01*
X032227Y025633D01*
X032084Y025633D01*
X031952Y025688D01*
X031851Y025789D01*
X031796Y025922D01*
X031796Y026065D01*
X031851Y026197D01*
X031952Y026298D01*
X032084Y026353D01*
X032227Y026353D01*
X032296Y026325D01*
X032238Y026409D01*
X032238Y026409D01*
X032093Y026879D01*
X032093Y027371D01*
X032238Y027841D01*
X032238Y027841D01*
X032515Y028247D01*
X032515Y028247D01*
X032515Y028247D01*
X032900Y028554D01*
X032900Y028554D01*
X032954Y028575D01*
X003477Y028575D01*
X003754Y028415D01*
X003754Y028415D01*
X004088Y028054D01*
X004088Y028054D01*
X004302Y027611D01*
X004302Y027611D01*
X004375Y027125D01*
X004302Y026639D01*
X004302Y026639D01*
X004088Y026196D01*
X004088Y026196D01*
X003754Y025835D01*
X003754Y025835D01*
X003641Y025770D01*
X004683Y025770D01*
X004683Y025873D01*
X004741Y025931D01*
X004735Y025933D01*
X004700Y025953D01*
X004672Y025981D01*
X004653Y026015D01*
X004643Y026053D01*
X004643Y026221D01*
X004921Y026221D01*
X004921Y026279D01*
X004921Y026577D01*
X004773Y026577D01*
X004735Y026567D01*
X004700Y026547D01*
X004672Y026519D01*
X004653Y026485D01*
X004643Y026447D01*
X004643Y026279D01*
X004921Y026279D01*
X004979Y026279D01*
X004979Y026577D01*
X005127Y026577D01*
X005165Y026567D01*
X005200Y026547D01*
X005228Y026519D01*
X005247Y026485D01*
X005257Y026447D01*
X005257Y026279D01*
X004979Y026279D01*
X004979Y026221D01*
X005257Y026221D01*
X005257Y026053D01*
X005247Y026015D01*
X005228Y025981D01*
X005200Y025953D01*
X005165Y025933D01*
X005159Y025931D01*
X005217Y025873D01*
X005217Y025770D01*
X009370Y025770D01*
X009351Y025789D01*
X009296Y025922D01*
X009296Y026065D01*
X009351Y026197D01*
X009452Y026298D01*
X009584Y026353D01*
X009727Y026353D01*
X009860Y026298D01*
X009961Y026197D01*
X010016Y026065D01*
X010016Y025922D01*
X009961Y025789D01*
X009942Y025770D01*
X010028Y025770D01*
X010127Y025670D01*
X010127Y025663D01*
X010141Y025649D01*
X010093Y025804D01*
X010093Y026296D01*
X010238Y026766D01*
X010238Y026766D01*
X010515Y027172D01*
X010515Y027172D01*
X010900Y027479D01*
X010900Y027479D01*
X011358Y027659D01*
X011358Y027659D01*
X011848Y027695D01*
X011848Y027695D01*
X012328Y027586D01*
X012328Y027586D01*
X012754Y027340D01*
X012754Y027340D01*
X013088Y026979D01*
X013088Y026979D01*
X013302Y026536D01*
X013302Y026536D01*
X013375Y026050D01*
X013302Y025564D01*
X013302Y025564D01*
X013088Y025121D01*
X013088Y025121D01*
X012754Y024760D01*
X012754Y024760D01*
X012328Y024514D01*
X012328Y024514D01*
X011848Y024405D01*
X011848Y024405D01*
X011358Y024441D01*
X011358Y024441D01*
X011356Y024442D01*
X012303Y023495D01*
X019310Y023495D01*
X019765Y023951D01*
X019745Y023971D01*
X019745Y024369D01*
X019879Y024503D01*
X019450Y024671D01*
X019450Y024671D01*
X019065Y024978D01*
X019065Y024978D01*
X019065Y024978D01*
X018788Y025384D01*
X018788Y025384D01*
X018643Y025854D01*
X018643Y026346D01*
X018788Y026816D01*
X018788Y026816D01*
X019065Y027222D01*
X019065Y027222D01*
X019065Y027222D01*
X019450Y027529D01*
X019450Y027529D01*
X019908Y027709D01*
X019908Y027709D01*
X020398Y027745D01*
X020398Y027745D01*
X020878Y027636D01*
X020878Y027636D01*
X021304Y027390D01*
X021304Y027390D01*
X021638Y027029D01*
X021638Y027029D01*
X021852Y026586D01*
X021852Y026586D01*
X021925Y026100D01*
X021852Y025614D01*
X021852Y025614D01*
X021638Y025171D01*
X021638Y025171D01*
X021304Y024810D01*
X021304Y024810D01*
X021304Y024810D01*
X021027Y024650D01*
X021424Y024650D01*
X021705Y024369D01*
X021705Y024145D01*
X022355Y024795D01*
X022355Y025470D01*
X022948Y026064D01*
X023048Y026163D01*
X023175Y026163D01*
X023189Y026197D01*
X023290Y026298D01*
X023423Y026353D01*
X023566Y026353D01*
X023698Y026298D01*
X023799Y026197D01*
X023814Y026163D01*
X023998Y026163D01*
X024052Y026217D01*
X024498Y026217D01*
X024556Y026159D01*
X024558Y026165D01*
X024578Y026200D01*
X024606Y026228D01*
X024640Y026247D01*
X024678Y026257D01*
X024846Y026257D01*
X024846Y025979D01*
X024904Y025979D01*
X024904Y026257D01*
X025072Y026257D01*
X025110Y026247D01*
X025144Y026228D01*
X025172Y026200D01*
X025192Y026165D01*
X025202Y026127D01*
X025202Y025979D01*
X024904Y025979D01*
X024904Y025921D01*
X025202Y025921D01*
X025202Y025773D01*
X025192Y025735D01*
X025172Y025700D01*
X025144Y025672D01*
X025110Y025653D01*
X025072Y025643D01*
X024904Y025643D01*
X024904Y025921D01*
X024846Y025921D01*
X024846Y025643D01*
X024678Y025643D01*
X024640Y025653D01*
X024606Y025672D01*
X024578Y025700D01*
X024558Y025735D01*
X024556Y025741D01*
X024498Y025683D01*
X024445Y025683D01*
X024445Y023554D01*
X024345Y023454D01*
X023840Y022949D01*
X023854Y022915D01*
X023854Y022772D01*
X023799Y022640D01*
X023698Y022539D01*
X023566Y022484D01*
X023423Y022484D01*
X023290Y022539D01*
X023189Y022640D01*
X023134Y022772D01*
X023134Y022915D01*
X023189Y023048D01*
X023290Y023149D01*
X023423Y023204D01*
X023566Y023204D01*
X023600Y023190D01*
X024105Y023695D01*
X024105Y025683D01*
X024052Y025683D01*
X023988Y025747D01*
X023988Y025823D01*
X023814Y025823D01*
X023799Y025789D01*
X023698Y025688D01*
X023566Y025633D01*
X023423Y025633D01*
X023290Y025688D01*
X023189Y025789D01*
X023179Y025814D01*
X022695Y025330D01*
X022695Y024655D01*
X022595Y024555D01*
X021557Y023517D01*
X021705Y023369D01*
X021705Y022971D01*
X021424Y022690D01*
X021026Y022690D01*
X020745Y022971D01*
X020745Y023369D01*
X020869Y023493D01*
X020662Y023493D01*
X020563Y023592D01*
X020444Y023710D01*
X020424Y023690D01*
X020026Y023690D01*
X020006Y023710D01*
X019550Y023255D01*
X019550Y023255D01*
X019450Y023155D01*
X015370Y023155D01*
X015370Y023095D01*
X015609Y023095D01*
X015619Y023105D01*
X016381Y023105D01*
X016445Y023041D01*
X016445Y022809D01*
X016431Y022795D01*
X016445Y022781D01*
X016445Y022575D01*
X019390Y022575D01*
X019765Y022951D01*
X019745Y022971D01*
X019745Y023369D01*
X020026Y023650D01*
X020424Y023650D01*
X020705Y023369D01*
X020705Y022971D01*
X020424Y022690D01*
X020026Y022690D01*
X020006Y022710D01*
X019620Y022325D01*
X019745Y022325D01*
X019745Y022369D01*
X020026Y022650D01*
X020424Y022650D01*
X020705Y022369D01*
X020705Y021971D01*
X020424Y021690D01*
X020026Y021690D01*
X019745Y021971D01*
X019745Y021985D01*
X016445Y021985D01*
X016445Y021817D01*
X016455Y021807D01*
X016475Y021773D01*
X016485Y021735D01*
X016485Y021645D01*
X016000Y021645D01*
X016000Y021645D01*
X016000Y021645D01*
X015515Y021645D01*
X015515Y021735D01*
X015525Y021773D01*
X015545Y021807D01*
X015555Y021817D01*
X015555Y022011D01*
X015569Y022025D01*
X015555Y022039D01*
X015555Y022271D01*
X015564Y022280D01*
X015555Y022289D01*
X015555Y022521D01*
X015569Y022535D01*
X015555Y022549D01*
X015555Y022755D01*
X015370Y022755D01*
X015370Y021295D01*
X015515Y021295D01*
X015515Y021295D01*
X015515Y021385D01*
X016000Y021385D01*
X016000Y021385D01*
X016000Y021605D01*
X016000Y021645D01*
X016000Y021645D01*
X016485Y021645D01*
X016485Y021555D01*
X016475Y021517D01*
X016474Y021515D01*
X016475Y021513D01*
X016485Y021475D01*
X016485Y021385D01*
X016000Y021385D01*
X016000Y021385D01*
X016000Y021385D01*
X016000Y021645D01*
X015515Y021645D01*
X015515Y021555D01*
X015525Y021517D01*
X015526Y021515D01*
X015525Y021513D01*
X015515Y021475D01*
X015515Y021385D01*
X016000Y021385D01*
X016485Y021385D01*
X016485Y021295D01*
X016475Y021257D01*
X016455Y021223D01*
X016445Y021213D01*
X016445Y021009D01*
X016381Y020945D01*
X015619Y020945D01*
X015609Y020955D01*
X015370Y020955D01*
X015370Y020917D01*
X015423Y020917D01*
X015487Y020853D01*
X015487Y020447D01*
X015423Y020383D01*
X014977Y020383D01*
X014919Y020441D01*
X014917Y020435D01*
X014897Y020400D01*
X014869Y020372D01*
X014835Y020353D01*
X014797Y020343D01*
X014629Y020343D01*
X014629Y020621D01*
X014571Y020621D01*
X014571Y020343D01*
X014403Y020343D01*
X014365Y020353D01*
X014331Y020372D01*
X014303Y020400D01*
X014283Y020435D01*
X014273Y020473D01*
X014273Y020621D01*
X014571Y020621D01*
X014571Y020679D01*
X014571Y020957D01*
X014403Y020957D01*
X014365Y020947D01*
X014331Y020928D01*
X014303Y020900D01*
X014283Y020865D01*
X014273Y020827D01*
X014273Y020679D01*
X014571Y020679D01*
X014629Y020679D01*
X014629Y020957D01*
X014797Y020957D01*
X014835Y020947D01*
X014869Y020928D01*
X014897Y020900D01*
X014917Y020865D01*
X014919Y020859D01*
X014977Y020917D01*
X015030Y020917D01*
X015030Y023155D01*
X012162Y023155D01*
X011087Y024230D01*
X010830Y024230D01*
X010730Y024330D01*
X009989Y025070D01*
X009961Y025002D01*
X009925Y024966D01*
X011785Y023105D01*
X011851Y023105D01*
X011944Y023066D01*
X012016Y022994D01*
X012055Y022901D01*
X012055Y022799D01*
X012016Y022706D01*
X011944Y022634D01*
X011851Y022595D01*
X011749Y022595D01*
X011656Y022634D01*
X011584Y022706D01*
X011545Y022799D01*
X011545Y022865D01*
X010016Y024394D01*
X010016Y024347D01*
X009961Y024215D01*
X009941Y024195D01*
X010045Y024195D01*
X011915Y022325D01*
X013355Y022325D01*
X013355Y022521D01*
X013369Y022535D01*
X013355Y022549D01*
X013355Y022753D01*
X013345Y022763D01*
X013325Y022797D01*
X013315Y022835D01*
X013315Y022925D01*
X013800Y022925D01*
X013800Y022925D01*
X013800Y023145D01*
X014155Y023145D01*
X014193Y023135D01*
X014227Y023115D01*
X014255Y023087D01*
X014275Y023053D01*
X014285Y023015D01*
X014285Y022925D01*
X013800Y022925D01*
X013800Y022925D01*
X013800Y022925D01*
X013800Y023145D01*
X013445Y023145D01*
X013407Y023135D01*
X013373Y023115D01*
X013345Y023087D01*
X013325Y023053D01*
X013315Y023015D01*
X013315Y022925D01*
X013800Y022925D01*
X014285Y022925D01*
X014285Y022835D01*
X014275Y022797D01*
X014255Y022763D01*
X014245Y022753D01*
X014245Y022549D01*
X014231Y022535D01*
X014245Y022521D01*
X014245Y022289D01*
X014236Y022280D01*
X014245Y022271D01*
X014245Y022039D01*
X014231Y022025D01*
X014245Y022011D01*
X014245Y021779D01*
X014236Y021770D01*
X014245Y021761D01*
X014245Y021529D01*
X014231Y021515D01*
X014245Y021501D01*
X014245Y021269D01*
X014231Y021255D01*
X014245Y021241D01*
X014245Y021009D01*
X014181Y020945D01*
X013419Y020945D01*
X013355Y021009D01*
X013355Y021241D01*
X013369Y021255D01*
X013355Y021269D01*
X013355Y021501D01*
X013369Y021515D01*
X013355Y021529D01*
X013355Y021725D01*
X013155Y021725D01*
X013155Y021724D01*
X013116Y021631D01*
X013044Y021559D01*
X012951Y021520D01*
X012849Y021520D01*
X012756Y021559D01*
X012684Y021631D01*
X012645Y021724D01*
X012645Y021826D01*
X012684Y021919D01*
X012749Y021985D01*
X011775Y021985D01*
X011675Y022085D01*
X009987Y023773D01*
X010016Y023703D01*
X010016Y023559D01*
X009961Y023427D01*
X009860Y023326D01*
X009727Y023271D01*
X009584Y023271D01*
X009452Y023326D01*
X009351Y023427D01*
X009296Y023559D01*
X009296Y023703D01*
X009351Y023835D01*
X009400Y023885D01*
X009036Y024249D01*
X001314Y024249D01*
X001299Y024215D01*
X001198Y024113D01*
X001066Y024059D01*
X000923Y024059D01*
X000790Y024113D01*
X000745Y024159D01*
X000745Y023891D01*
X000790Y023936D01*
X000923Y023991D01*
X001066Y023991D01*
X001198Y023936D01*
X001299Y023835D01*
X001354Y023703D01*
X001354Y023559D01*
X001299Y023427D01*
X001198Y023326D01*
X001066Y023271D01*
X000923Y023271D01*
X000790Y023326D01*
X000745Y023371D01*
X000745Y023333D01*
X000889Y023190D01*
X000923Y023204D01*
X001066Y023204D01*
X001198Y023149D01*
X001299Y023048D01*
X001305Y023034D01*
X005710Y023034D01*
X005821Y022922D01*
X005821Y022765D01*
X005710Y022654D01*
X001305Y022654D01*
X001299Y022640D01*
X001198Y022539D01*
X001066Y022484D01*
X000923Y022484D01*
X000790Y022539D01*
X000689Y022640D01*
X000634Y022772D01*
X000634Y022915D01*
X000648Y022949D01*
X000505Y023093D01*
X000405Y023193D01*
X000405Y025644D01*
X000505Y025744D01*
X000648Y025888D01*
X000634Y025922D01*
X000634Y026065D01*
X000689Y026197D01*
X000790Y026298D01*
X000923Y026353D01*
X001066Y026353D01*
X001198Y026298D01*
X001299Y026197D01*
X001354Y026065D01*
X001354Y025922D01*
X001340Y025888D01*
X001658Y025570D01*
X002221Y025570D01*
X001900Y025696D01*
X001515Y026003D01*
X001515Y026003D01*
X001238Y026409D01*
X001238Y026409D01*
X001093Y026879D01*
X001093Y027371D01*
X001238Y027841D01*
X001238Y027841D01*
X001515Y028247D01*
X001515Y028247D01*
X001900Y028554D01*
X001900Y028554D01*
X001954Y028575D01*
X000350Y028575D01*
X000350Y015350D01*
X001733Y015350D01*
X001850Y015233D01*
X001850Y015164D01*
X003149Y015164D01*
X003214Y015099D01*
X003214Y014378D01*
X003149Y014314D01*
X001850Y014314D01*
X001850Y012486D01*
X003149Y012486D01*
X003214Y012422D01*
X003214Y011701D01*
X003149Y011636D01*
X001850Y011636D01*
X001850Y011567D01*
X001733Y011450D01*
X000350Y011450D01*
X000350Y003297D01*
X000363Y003341D01*
X000363Y003341D01*
X000640Y003747D01*
X000640Y003747D01*
X001025Y004054D01*
X001025Y004054D01*
X001483Y004234D01*
X001483Y004234D01*
X001973Y004270D01*
X001973Y004270D01*
X002453Y004161D01*
X002453Y004161D01*
X002879Y003915D01*
X002879Y003915D01*
X003213Y003554D01*
X003213Y003554D01*
X003427Y003111D01*
X003427Y003111D01*
X003500Y002625D01*
X003500Y002625D01*
X003427Y002139D01*
X003213Y001696D01*
X003213Y001696D01*
X002879Y001335D01*
X002879Y001335D01*
X002879Y001335D01*
X002890Y001348D02*
X013839Y001348D01*
X013839Y001446D02*
X002982Y001446D01*
X003073Y001545D02*
X013839Y001545D01*
X013839Y001643D02*
X012017Y001643D01*
X011848Y001605D02*
X012328Y001714D01*
X012754Y001960D01*
X013088Y002321D01*
X013302Y002764D01*
X013375Y003250D01*
X013302Y003736D01*
X013302Y003736D01*
X013088Y004179D01*
X013088Y004179D01*
X012754Y004540D01*
X012754Y004540D01*
X012328Y004786D01*
X012328Y004786D01*
X011848Y004895D01*
X011358Y004859D01*
X010900Y004679D01*
X010515Y004372D01*
X010238Y003966D01*
X010093Y003496D01*
X010093Y003004D01*
X010238Y002534D01*
X010515Y002128D01*
X010515Y002128D01*
X010515Y002128D01*
X010900Y001821D01*
X011358Y001641D01*
X011848Y001605D01*
X011848Y001605D01*
X012328Y001714D02*
X012328Y001714D01*
X012375Y001742D02*
X013839Y001742D01*
X013839Y001840D02*
X012546Y001840D01*
X012717Y001939D02*
X013839Y001939D01*
X013839Y002037D02*
X012825Y002037D01*
X012754Y001960D02*
X012754Y001960D01*
X012917Y002136D02*
X013839Y002136D01*
X013842Y002234D02*
X013008Y002234D01*
X013088Y002321D02*
X013088Y002321D01*
X013094Y002333D02*
X019426Y002333D01*
X019359Y002431D02*
X013142Y002431D01*
X013189Y002530D02*
X015051Y002530D01*
X014984Y002557D02*
X015130Y002497D01*
X015288Y002497D01*
X015434Y002557D01*
X015545Y002669D01*
X015606Y002815D01*
X015606Y002973D01*
X015545Y003118D01*
X015434Y003230D01*
X015288Y003291D01*
X015130Y003291D01*
X014984Y003230D01*
X014872Y003118D01*
X014812Y002973D01*
X014812Y002815D01*
X014872Y002669D01*
X014984Y002557D01*
X014913Y002628D02*
X013236Y002628D01*
X013284Y002727D02*
X014849Y002727D01*
X014812Y002825D02*
X013311Y002825D01*
X013302Y002764D02*
X013302Y002764D01*
X013326Y002924D02*
X014812Y002924D01*
X014832Y003022D02*
X013341Y003022D01*
X013355Y003121D02*
X014874Y003121D01*
X014973Y003219D02*
X013370Y003219D01*
X013365Y003318D02*
X013881Y003318D01*
X013903Y003296D02*
X014782Y003296D01*
X014846Y003360D01*
X014846Y004396D01*
X014782Y004460D01*
X013903Y004460D01*
X013839Y004396D01*
X013839Y003360D01*
X013903Y003296D01*
X013839Y003416D02*
X013350Y003416D01*
X013335Y003515D02*
X013839Y003515D01*
X013839Y003613D02*
X013320Y003613D01*
X013305Y003712D02*
X013839Y003712D01*
X013839Y003810D02*
X013266Y003810D01*
X013219Y003909D02*
X013839Y003909D01*
X013839Y004007D02*
X013171Y004007D01*
X013124Y004106D02*
X013839Y004106D01*
X013839Y004204D02*
X013066Y004204D01*
X012974Y004303D02*
X013839Y004303D01*
X013844Y004401D02*
X012883Y004401D01*
X012791Y004500D02*
X015215Y004500D01*
X015215Y004598D02*
X012653Y004598D01*
X012483Y004697D02*
X014931Y004697D01*
X014943Y004684D02*
X015215Y004684D01*
X015215Y004005D01*
X015237Y003983D01*
X015237Y003600D01*
X015301Y003536D01*
X015589Y003536D01*
X015603Y003549D01*
X015616Y003536D01*
X015904Y003536D01*
X015918Y003549D01*
X015931Y003536D01*
X016219Y003536D01*
X016232Y003549D01*
X016246Y003536D01*
X016504Y003536D01*
X016514Y003526D01*
X016549Y003506D01*
X016587Y003496D01*
X016705Y003496D01*
X016823Y003496D01*
X016861Y003506D01*
X016895Y003526D01*
X016923Y003554D01*
X016943Y003588D01*
X016953Y003626D01*
X016953Y004100D01*
X016953Y004574D01*
X016943Y004612D01*
X016923Y004646D01*
X016895Y004674D01*
X016861Y004694D01*
X016823Y004704D01*
X016705Y004704D01*
X016705Y004100D01*
X016953Y004100D01*
X016705Y004100D01*
X016705Y004100D01*
X016705Y004100D01*
X016705Y003496D01*
X016705Y004100D01*
X016705Y004100D01*
X016705Y004704D01*
X016587Y004704D01*
X016549Y004694D01*
X016514Y004674D01*
X016504Y004664D01*
X016336Y004664D01*
X016353Y004674D01*
X016381Y004702D01*
X016401Y004736D01*
X016411Y004774D01*
X016411Y005000D01*
X016075Y005000D01*
X016075Y005100D01*
X015975Y005100D01*
X015975Y005456D01*
X015769Y005456D01*
X015731Y005446D01*
X015697Y005426D01*
X015669Y005398D01*
X015649Y005364D01*
X015639Y005326D01*
X015639Y005100D01*
X015975Y005100D01*
X015975Y005000D01*
X015639Y005000D01*
X015639Y004961D01*
X015571Y005029D01*
X015571Y005351D01*
X015507Y005416D01*
X015455Y005416D01*
X015455Y005499D01*
X015650Y005499D01*
X015708Y005557D01*
X015722Y005531D01*
X015750Y005503D01*
X015785Y005483D01*
X015823Y005473D01*
X015971Y005473D01*
X015971Y005771D01*
X016029Y005771D01*
X016029Y005829D01*
X016307Y005829D01*
X016307Y005997D01*
X016297Y006035D01*
X016278Y006069D01*
X016250Y006097D01*
X016215Y006117D01*
X016209Y006119D01*
X016267Y006177D01*
X016267Y006623D01*
X016247Y006643D01*
X016247Y006703D01*
X016299Y006703D01*
X016363Y006767D01*
X016363Y007409D01*
X016299Y007474D01*
X015735Y007474D01*
X015681Y007420D01*
X015650Y007451D01*
X014850Y007451D01*
X014786Y007387D01*
X014786Y006666D01*
X014850Y006601D01*
X015650Y006601D01*
X015714Y006666D01*
X015714Y006723D01*
X015735Y006703D01*
X015787Y006703D01*
X015787Y006677D01*
X015733Y006623D01*
X015733Y006177D01*
X015791Y006119D01*
X015785Y006117D01*
X015750Y006097D01*
X015722Y006069D01*
X015714Y006055D01*
X015714Y006284D01*
X015650Y006349D01*
X014850Y006349D01*
X014786Y006284D01*
X014786Y005563D01*
X014850Y005499D01*
X014995Y005499D01*
X014995Y005416D01*
X014943Y005416D01*
X014879Y005351D01*
X014879Y004749D01*
X014943Y004684D01*
X014879Y004795D02*
X012288Y004795D01*
X011856Y004894D02*
X014879Y004894D01*
X014879Y004992D02*
X010028Y004992D01*
X010020Y005023D02*
X009975Y005132D01*
X009916Y005234D01*
X009844Y005328D01*
X009760Y005411D01*
X009667Y005483D01*
X009564Y005542D01*
X009455Y005587D01*
X009341Y005618D01*
X009224Y005633D01*
X009215Y005633D01*
X009215Y004782D01*
X010066Y004782D01*
X010066Y004791D01*
X010051Y004908D01*
X010020Y005023D01*
X009992Y005091D02*
X014879Y005091D01*
X014879Y005189D02*
X009942Y005189D01*
X009875Y005288D02*
X014879Y005288D01*
X014913Y005386D02*
X009785Y005386D01*
X009664Y005485D02*
X014995Y005485D01*
X014786Y005583D02*
X009466Y005583D01*
X009215Y005583D02*
X009115Y005583D01*
X009115Y005633D02*
X009106Y005633D01*
X008989Y005618D01*
X008874Y005587D01*
X008765Y005542D01*
X008663Y005483D01*
X008569Y005411D01*
X008486Y005328D01*
X008414Y005234D01*
X008355Y005132D01*
X008310Y005023D01*
X008279Y004908D01*
X008264Y004791D01*
X008264Y004782D01*
X009115Y004782D01*
X009115Y004682D01*
X009215Y004682D01*
X009215Y004782D01*
X009115Y004782D01*
X009115Y005633D01*
X009115Y005485D02*
X009215Y005485D01*
X009215Y005386D02*
X009115Y005386D01*
X009115Y005288D02*
X009215Y005288D01*
X009215Y005189D02*
X009115Y005189D01*
X009115Y005091D02*
X009215Y005091D01*
X009215Y004992D02*
X009115Y004992D01*
X009115Y004894D02*
X009215Y004894D01*
X009215Y004795D02*
X009115Y004795D01*
X009115Y004697D02*
X000350Y004697D01*
X000350Y004795D02*
X008264Y004795D01*
X008277Y004894D02*
X000350Y004894D01*
X000350Y004992D02*
X006901Y004992D01*
X006743Y005058D02*
X006478Y005322D01*
X006335Y005667D01*
X006335Y006041D01*
X006478Y006387D01*
X006743Y006651D01*
X007045Y006776D01*
X007045Y006930D01*
X006545Y007430D01*
X006545Y009745D01*
X006680Y009880D01*
X006880Y010080D01*
X007164Y010080D01*
X007172Y010099D01*
X007296Y010223D01*
X007457Y010290D01*
X008293Y010290D01*
X008454Y010223D01*
X008578Y010099D01*
X008603Y010040D01*
X008654Y010040D01*
X008765Y009929D01*
X009151Y009542D01*
X009248Y009542D01*
X009306Y009484D01*
X009308Y009490D01*
X009328Y009525D01*
X009348Y009545D01*
X009180Y009545D01*
X009045Y009680D01*
X009045Y009680D01*
X008430Y010295D01*
X006680Y010295D01*
X005620Y011355D01*
X005620Y011809D01*
X005568Y011809D01*
X005504Y011874D01*
X005504Y012476D01*
X005568Y012541D01*
X005596Y012541D01*
X005596Y013033D01*
X005608Y013045D01*
X005608Y013220D01*
X005672Y013284D01*
X005980Y013284D01*
X006044Y013220D01*
X006044Y013045D01*
X006056Y013033D01*
X006056Y012541D01*
X006132Y012541D01*
X006196Y012476D01*
X006196Y011874D01*
X006132Y011809D01*
X006080Y011809D01*
X006080Y011545D01*
X006870Y010755D01*
X008620Y010755D01*
X009370Y010005D01*
X010607Y010005D01*
X010615Y009997D01*
X011272Y009997D01*
X011336Y009933D01*
X011336Y009664D01*
X012658Y008342D01*
X015789Y008342D01*
X015789Y008433D01*
X015853Y008497D01*
X017047Y008497D01*
X017111Y008433D01*
X017111Y007791D01*
X017047Y007726D01*
X015853Y007726D01*
X015789Y007791D01*
X015789Y007882D01*
X012468Y007882D01*
X012333Y008017D01*
X011454Y008895D01*
X011454Y008267D01*
X011390Y008203D01*
X010826Y008203D01*
X010762Y008267D01*
X010762Y008909D01*
X010826Y008974D01*
X011376Y008974D01*
X011124Y009226D01*
X010078Y009226D01*
X010014Y009291D01*
X010014Y009545D01*
X009902Y009545D01*
X009922Y009525D01*
X009942Y009490D01*
X009952Y009452D01*
X009952Y009304D01*
X009654Y009304D01*
X009654Y009246D01*
X009952Y009246D01*
X009952Y009098D01*
X009942Y009060D01*
X009922Y009025D01*
X009894Y008997D01*
X009860Y008978D01*
X009822Y008968D01*
X009654Y008968D01*
X009654Y009246D01*
X009596Y009246D01*
X009596Y008968D01*
X009428Y008968D01*
X009390Y008978D01*
X009356Y008997D01*
X009328Y009025D01*
X009308Y009060D01*
X009306Y009066D01*
X009248Y009008D01*
X008802Y009008D01*
X008738Y009072D01*
X008738Y009418D01*
X008567Y009590D01*
X008454Y009477D01*
X008293Y009410D01*
X007457Y009410D01*
X007296Y009477D01*
X007172Y009601D01*
X007164Y009620D01*
X007070Y009620D01*
X007005Y009555D01*
X007005Y007620D01*
X007370Y007255D01*
X007505Y007120D01*
X007505Y006776D01*
X007807Y006651D01*
X008072Y006387D01*
X008215Y006041D01*
X008215Y005667D01*
X008072Y005322D01*
X007807Y005058D01*
X007462Y004914D01*
X007088Y004914D01*
X006743Y005058D01*
X006710Y005091D02*
X000350Y005091D01*
X000350Y005189D02*
X006611Y005189D01*
X006513Y005288D02*
X000350Y005288D01*
X000350Y005386D02*
X006452Y005386D01*
X006411Y005485D02*
X000350Y005485D01*
X000350Y005583D02*
X006370Y005583D01*
X006335Y005682D02*
X000350Y005682D01*
X000350Y005780D02*
X006335Y005780D01*
X006335Y005879D02*
X000350Y005879D01*
X000350Y005977D02*
X006335Y005977D01*
X006349Y006076D02*
X000350Y006076D01*
X000350Y006174D02*
X006390Y006174D01*
X006431Y006273D02*
X000350Y006273D01*
X000350Y006371D02*
X006472Y006371D01*
X006561Y006470D02*
X000350Y006470D01*
X000350Y006568D02*
X006659Y006568D01*
X006780Y006667D02*
X000350Y006667D01*
X000350Y006765D02*
X007017Y006765D01*
X007045Y006864D02*
X000350Y006864D01*
X000350Y006962D02*
X007013Y006962D01*
X006914Y007061D02*
X000350Y007061D01*
X000350Y007159D02*
X006816Y007159D01*
X006717Y007258D02*
X000350Y007258D01*
X000350Y007356D02*
X006619Y007356D01*
X006545Y007455D02*
X000350Y007455D01*
X000350Y007553D02*
X006545Y007553D01*
X006545Y007652D02*
X000350Y007652D01*
X000350Y007750D02*
X006545Y007750D01*
X006545Y007849D02*
X000350Y007849D01*
X000350Y007947D02*
X006545Y007947D01*
X006545Y008046D02*
X002254Y008046D01*
X002144Y008000D02*
X002456Y008129D01*
X002696Y008369D01*
X002825Y008681D01*
X002825Y009019D01*
X002696Y009331D01*
X002456Y009571D01*
X002144Y009700D01*
X001806Y009700D01*
X001494Y009571D01*
X001254Y009331D01*
X001125Y009019D01*
X001125Y008681D01*
X001254Y008369D01*
X001494Y008129D01*
X001806Y008000D01*
X002144Y008000D01*
X002471Y008144D02*
X006545Y008144D01*
X006545Y008243D02*
X002570Y008243D01*
X002668Y008341D02*
X006545Y008341D01*
X006545Y008440D02*
X002725Y008440D01*
X002766Y008538D02*
X006545Y008538D01*
X006545Y008637D02*
X002807Y008637D01*
X002825Y008735D02*
X006545Y008735D01*
X006545Y008834D02*
X002825Y008834D01*
X002825Y008932D02*
X006545Y008932D01*
X006545Y009031D02*
X002820Y009031D01*
X002779Y009129D02*
X006545Y009129D01*
X006545Y009228D02*
X002739Y009228D01*
X002698Y009326D02*
X006545Y009326D01*
X006545Y009425D02*
X002603Y009425D01*
X002504Y009523D02*
X006545Y009523D01*
X006545Y009622D02*
X002334Y009622D01*
X001616Y009622D02*
X000350Y009622D01*
X000350Y009720D02*
X006545Y009720D01*
X006618Y009819D02*
X000350Y009819D01*
X000350Y009917D02*
X006717Y009917D01*
X006815Y010016D02*
X000350Y010016D01*
X000350Y010114D02*
X007187Y010114D01*
X007285Y010213D02*
X000350Y010213D01*
X000350Y010311D02*
X006664Y010311D01*
X006565Y010410D02*
X000350Y010410D01*
X000350Y010508D02*
X006467Y010508D01*
X006368Y010607D02*
X000350Y010607D01*
X000350Y010705D02*
X006270Y010705D01*
X006171Y010804D02*
X000350Y010804D01*
X000350Y010902D02*
X006073Y010902D01*
X005974Y011001D02*
X000350Y011001D01*
X000350Y011099D02*
X005876Y011099D01*
X005777Y011198D02*
X000350Y011198D01*
X000350Y011296D02*
X005679Y011296D01*
X005620Y011395D02*
X000350Y011395D01*
X001776Y011493D02*
X005620Y011493D01*
X005620Y011592D02*
X001850Y011592D01*
X001850Y012577D02*
X005596Y012577D01*
X005596Y012675D02*
X005454Y012675D01*
X005445Y012670D02*
X005479Y012689D01*
X005507Y012717D01*
X005527Y012752D01*
X005537Y012790D01*
X005537Y012958D01*
X004530Y012958D01*
X004530Y013055D01*
X004433Y013055D01*
X004433Y013353D01*
X003556Y013353D01*
X003518Y013343D01*
X003484Y013323D01*
X003456Y013295D01*
X003436Y013261D01*
X003426Y013223D01*
X003426Y013055D01*
X004433Y013055D01*
X004433Y012958D01*
X003426Y012958D01*
X003426Y012790D01*
X003436Y012752D01*
X003456Y012717D01*
X003484Y012689D01*
X003518Y012670D01*
X003556Y012659D01*
X004433Y012659D01*
X004433Y012958D01*
X004530Y012958D01*
X004530Y012659D01*
X005407Y012659D01*
X005445Y012670D01*
X005533Y012774D02*
X005596Y012774D01*
X005596Y012872D02*
X005537Y012872D01*
X005596Y012971D02*
X004530Y012971D01*
X004530Y013055D02*
X005537Y013055D01*
X005537Y013223D01*
X005527Y013261D01*
X005507Y013295D01*
X005479Y013323D01*
X005445Y013343D01*
X005407Y013353D01*
X004530Y013353D01*
X004530Y013055D01*
X004530Y013069D02*
X004433Y013069D01*
X004433Y012971D02*
X001850Y012971D01*
X001850Y013069D02*
X003426Y013069D01*
X003426Y013168D02*
X001850Y013168D01*
X001850Y013266D02*
X003439Y013266D01*
X003531Y013487D02*
X005433Y013487D01*
X005497Y013551D01*
X005497Y013564D01*
X005921Y013564D01*
X005973Y013616D01*
X005980Y013616D01*
X005985Y013620D01*
X006000Y013606D01*
X006034Y013586D01*
X006072Y013576D01*
X006196Y013576D01*
X006196Y013958D01*
X006204Y013958D01*
X006204Y013576D01*
X006328Y013576D01*
X006366Y013586D01*
X006400Y013606D01*
X006415Y013620D01*
X006420Y013616D01*
X006728Y013616D01*
X006792Y013680D01*
X006792Y014244D01*
X006728Y014308D01*
X006420Y014308D01*
X006415Y014303D01*
X006400Y014318D01*
X006366Y014338D01*
X006328Y014348D01*
X006204Y014348D01*
X006204Y013966D01*
X006196Y013966D01*
X006196Y014348D01*
X006072Y014348D01*
X006056Y014344D01*
X006056Y014379D01*
X006126Y014379D01*
X006191Y014443D01*
X006191Y014495D01*
X007605Y014495D01*
X007920Y014180D01*
X007920Y011430D01*
X008055Y011295D01*
X008480Y010870D01*
X008859Y010870D01*
X008859Y010818D01*
X008924Y010754D01*
X009246Y010754D01*
X009628Y010372D01*
X009762Y010237D01*
X010382Y010237D01*
X010382Y010126D01*
X010446Y010062D01*
X011404Y010062D01*
X011468Y010126D01*
X011468Y010599D01*
X012474Y011605D01*
X012680Y011605D01*
X012680Y011509D01*
X012744Y011445D01*
X012950Y011445D01*
X012950Y011362D01*
X012897Y011362D01*
X012833Y011298D01*
X012833Y011245D01*
X012767Y011245D01*
X012767Y011298D01*
X012703Y011362D01*
X012297Y011362D01*
X012233Y011298D01*
X012233Y010852D01*
X012291Y010794D01*
X012285Y010792D01*
X012250Y010772D01*
X012222Y010744D01*
X012203Y010710D01*
X012193Y010672D01*
X012193Y010504D01*
X012471Y010504D01*
X012471Y010446D01*
X012529Y010446D01*
X012529Y010504D01*
X012807Y010504D01*
X012807Y010672D01*
X012797Y010710D01*
X012778Y010744D01*
X012750Y010772D01*
X012715Y010792D01*
X012709Y010794D01*
X012767Y010852D01*
X012767Y010905D01*
X012833Y010905D01*
X012833Y010852D01*
X012897Y010788D01*
X013303Y010788D01*
X013367Y010852D01*
X013367Y011167D01*
X013433Y011102D01*
X013433Y010852D01*
X013491Y010794D01*
X013485Y010792D01*
X013450Y010772D01*
X013422Y010744D01*
X013403Y010710D01*
X013393Y010672D01*
X013393Y010504D01*
X013671Y010504D01*
X013671Y010446D01*
X013393Y010446D01*
X013393Y010278D01*
X013403Y010240D01*
X013422Y010206D01*
X013450Y010178D01*
X013485Y010158D01*
X013495Y010155D01*
X013465Y010147D01*
X013431Y010128D01*
X013403Y010100D01*
X013383Y010065D01*
X013381Y010059D01*
X013323Y010117D01*
X013290Y010117D01*
X013290Y010188D01*
X013303Y010188D01*
X013367Y010252D01*
X013367Y010698D01*
X013303Y010762D01*
X012897Y010762D01*
X012833Y010698D01*
X012833Y010252D01*
X012897Y010188D01*
X012910Y010188D01*
X012910Y010117D01*
X012877Y010117D01*
X012813Y010053D01*
X012813Y009647D01*
X012877Y009583D01*
X013323Y009583D01*
X013381Y009641D01*
X013383Y009635D01*
X013403Y009600D01*
X013431Y009572D01*
X013465Y009553D01*
X013503Y009543D01*
X013671Y009543D01*
X013671Y009821D01*
X013729Y009821D01*
X013729Y009879D01*
X014027Y009879D01*
X014027Y010027D01*
X014017Y010065D01*
X013997Y010100D01*
X013969Y010128D01*
X013935Y010147D01*
X013905Y010155D01*
X013915Y010158D01*
X013950Y010178D01*
X013978Y010206D01*
X013997Y010240D01*
X014007Y010278D01*
X014007Y010446D01*
X013729Y010446D01*
X013729Y010504D01*
X014007Y010504D01*
X014007Y010672D01*
X013997Y010710D01*
X013978Y010744D01*
X013950Y010772D01*
X013915Y010792D01*
X013909Y010794D01*
X013967Y010852D01*
X013967Y011074D01*
X014632Y011738D01*
X014678Y011738D01*
X014742Y011802D01*
X014742Y012248D01*
X014678Y012312D01*
X014272Y012312D01*
X014208Y012248D01*
X014208Y011851D01*
X013845Y011489D01*
X013850Y011497D01*
X013860Y011535D01*
X013860Y011795D01*
X013860Y012055D01*
X013850Y012093D01*
X013842Y012106D01*
X013866Y012131D01*
X013905Y012224D01*
X013905Y012326D01*
X013866Y012419D01*
X013820Y012466D01*
X013820Y013041D01*
X013775Y013085D01*
X013812Y013122D01*
X013812Y013528D01*
X013748Y013592D01*
X013302Y013592D01*
X013238Y013528D01*
X013238Y013307D01*
X013225Y013294D01*
X013212Y013307D01*
X013212Y013528D01*
X013148Y013592D01*
X012702Y013592D01*
X012638Y013528D01*
X012638Y013515D01*
X012562Y013515D01*
X012562Y013528D01*
X012498Y013592D01*
X012052Y013592D01*
X011994Y013534D01*
X011992Y013540D01*
X011972Y013575D01*
X011944Y013603D01*
X011910Y013622D01*
X011872Y013632D01*
X011704Y013632D01*
X011704Y013354D01*
X011646Y013354D01*
X011646Y013632D01*
X011478Y013632D01*
X011440Y013622D01*
X011406Y013603D01*
X011378Y013575D01*
X011358Y013540D01*
X011348Y013502D01*
X011348Y013354D01*
X011646Y013354D01*
X011646Y013296D01*
X011704Y013296D01*
X011704Y013018D01*
X011872Y013018D01*
X011910Y013028D01*
X011944Y013047D01*
X011972Y013075D01*
X011992Y013110D01*
X011994Y013116D01*
X012052Y013058D01*
X012498Y013058D01*
X012562Y013122D01*
X012562Y013135D01*
X012638Y013135D01*
X012638Y013122D01*
X012700Y013060D01*
X012680Y013041D01*
X012680Y012945D01*
X011468Y012945D01*
X011468Y012974D01*
X011404Y013038D01*
X010446Y013038D01*
X010430Y013022D01*
X010430Y013546D01*
X010366Y013610D01*
X010280Y013610D01*
X010280Y013890D01*
X010366Y013890D01*
X010430Y013954D01*
X010430Y014526D01*
X010366Y014590D01*
X010280Y014590D01*
X010280Y014665D01*
X010446Y014665D01*
X010510Y014729D01*
X010510Y015821D01*
X010446Y015885D01*
X009354Y015885D01*
X009290Y015821D01*
X009290Y014729D01*
X009354Y014665D01*
X009820Y014665D01*
X009820Y014590D01*
X009704Y014590D01*
X009665Y014551D01*
X009626Y014590D01*
X009334Y014590D01*
X009270Y014526D01*
X009270Y013954D01*
X009282Y013943D01*
X009259Y013919D01*
X009220Y013826D01*
X009220Y013724D01*
X009259Y013631D01*
X009279Y013611D01*
X009260Y013592D01*
X009240Y013558D01*
X009230Y013520D01*
X009230Y013260D01*
X009480Y013260D01*
X009480Y012870D01*
X009600Y012870D01*
X009638Y012880D01*
X009672Y012900D01*
X009693Y012921D01*
X009704Y012910D01*
X009820Y012910D01*
X009820Y012680D01*
X009955Y012545D01*
X009962Y012537D01*
X010097Y012403D01*
X010382Y012403D01*
X010382Y012292D01*
X010446Y012227D01*
X011404Y012227D01*
X011468Y012292D01*
X011468Y012565D01*
X012680Y012565D01*
X012680Y012469D01*
X012744Y012405D01*
X012815Y012405D01*
X012755Y012345D01*
X012700Y012290D01*
X012700Y012101D01*
X012680Y012081D01*
X012680Y011985D01*
X012316Y011985D01*
X011204Y010873D01*
X010446Y010873D01*
X010382Y010808D01*
X010382Y010697D01*
X009953Y010697D01*
X009591Y011059D01*
X009591Y011382D01*
X009526Y011446D01*
X008924Y011446D01*
X008859Y011382D01*
X008859Y011330D01*
X008670Y011330D01*
X008380Y011620D01*
X008380Y014370D01*
X007930Y014820D01*
X007795Y014955D01*
X006191Y014955D01*
X006191Y015007D01*
X006126Y015071D01*
X005524Y015071D01*
X005459Y015007D01*
X005459Y014443D01*
X005524Y014379D01*
X005596Y014379D01*
X005596Y014024D01*
X005497Y014024D01*
X005497Y014036D01*
X005433Y014101D01*
X003531Y014101D01*
X003466Y014036D01*
X003466Y013551D01*
X003531Y013487D01*
X003466Y013562D02*
X001850Y013562D01*
X001850Y013660D02*
X003466Y013660D01*
X003466Y013759D02*
X001850Y013759D01*
X001850Y013857D02*
X003466Y013857D01*
X003466Y013956D02*
X001850Y013956D01*
X001850Y014054D02*
X003484Y014054D01*
X003185Y014350D02*
X005596Y014350D01*
X005596Y014251D02*
X001850Y014251D01*
X001850Y014153D02*
X005596Y014153D01*
X005596Y014054D02*
X005479Y014054D01*
X005459Y014448D02*
X003214Y014448D01*
X003214Y014547D02*
X005459Y014547D01*
X005459Y014645D02*
X003214Y014645D01*
X003214Y014744D02*
X005459Y014744D01*
X005459Y014842D02*
X003214Y014842D01*
X003214Y014941D02*
X005459Y014941D01*
X005491Y015039D02*
X003214Y015039D01*
X003175Y015138D02*
X009290Y015138D01*
X009290Y015236D02*
X006222Y015236D01*
X006221Y015231D02*
X006231Y015269D01*
X006231Y015475D01*
X005875Y015475D01*
X005875Y015575D01*
X005775Y015575D01*
X005775Y015911D01*
X005549Y015911D01*
X005511Y015901D01*
X005477Y015881D01*
X005449Y015853D01*
X005429Y015819D01*
X005419Y015781D01*
X005419Y015575D01*
X005775Y015575D01*
X005775Y015475D01*
X005875Y015475D01*
X005875Y015139D01*
X006101Y015139D01*
X006139Y015149D01*
X006173Y015169D01*
X006201Y015197D01*
X006221Y015231D01*
X006231Y015335D02*
X009290Y015335D01*
X009290Y015433D02*
X006231Y015433D01*
X006231Y015575D02*
X006231Y015781D01*
X006221Y015819D01*
X006201Y015853D01*
X006173Y015881D01*
X006139Y015901D01*
X006101Y015911D01*
X005875Y015911D01*
X005875Y015575D01*
X006231Y015575D01*
X006231Y015630D02*
X009290Y015630D01*
X009290Y015532D02*
X005875Y015532D01*
X005875Y015630D02*
X005775Y015630D01*
X005775Y015532D02*
X000350Y015532D01*
X000350Y015630D02*
X005419Y015630D01*
X005419Y015729D02*
X000350Y015729D01*
X000350Y015827D02*
X005434Y015827D01*
X005775Y015827D02*
X005875Y015827D01*
X005875Y015729D02*
X005775Y015729D01*
X005775Y015475D02*
X005419Y015475D01*
X005419Y015269D01*
X005429Y015231D01*
X005449Y015197D01*
X005477Y015169D01*
X005511Y015149D01*
X005549Y015139D01*
X005775Y015139D01*
X005775Y015475D01*
X005775Y015433D02*
X005875Y015433D01*
X005875Y015335D02*
X005775Y015335D01*
X005775Y015236D02*
X005875Y015236D01*
X006159Y015039D02*
X009290Y015039D01*
X009290Y014941D02*
X007810Y014941D01*
X007908Y014842D02*
X009290Y014842D01*
X009290Y014744D02*
X008007Y014744D01*
X008105Y014645D02*
X009820Y014645D01*
X010280Y014645D02*
X012055Y014645D01*
X012035Y014665D02*
X012307Y014392D01*
X012347Y014296D01*
X012423Y014220D01*
X012436Y014215D01*
X012436Y014088D01*
X012500Y014024D01*
X013300Y014024D01*
X013350Y014074D01*
X013400Y014024D01*
X013900Y014024D01*
X014245Y013679D01*
X014245Y012885D01*
X014208Y012848D01*
X014208Y012402D01*
X014272Y012338D01*
X014678Y012338D01*
X014742Y012402D01*
X014742Y012848D01*
X014705Y012885D01*
X014705Y013869D01*
X014264Y014310D01*
X014264Y014809D01*
X014200Y014874D01*
X013400Y014874D01*
X013350Y014824D01*
X013300Y014874D01*
X012500Y014874D01*
X012488Y014862D01*
X012360Y014990D01*
X012360Y015821D01*
X012296Y015885D01*
X011980Y015885D01*
X011980Y017780D01*
X013120Y018920D01*
X016120Y018920D01*
X018129Y020929D01*
X018219Y020929D01*
X018346Y020981D01*
X018444Y021079D01*
X018496Y021206D01*
X018496Y021344D01*
X018444Y021471D01*
X018346Y021569D01*
X018219Y021621D01*
X018081Y021621D01*
X017954Y021569D01*
X017856Y021471D01*
X017804Y021344D01*
X017804Y021254D01*
X015930Y019380D01*
X012930Y019380D01*
X012795Y019245D01*
X011520Y017970D01*
X011520Y015885D01*
X011204Y015885D01*
X011140Y015821D01*
X011140Y014729D01*
X011204Y014665D01*
X012035Y014665D01*
X012153Y014547D02*
X010409Y014547D01*
X010430Y014448D02*
X012252Y014448D01*
X012325Y014350D02*
X010430Y014350D01*
X010430Y014251D02*
X012392Y014251D01*
X012436Y014153D02*
X010430Y014153D01*
X010430Y014054D02*
X012470Y014054D01*
X012529Y013562D02*
X012671Y013562D01*
X012691Y013069D02*
X012509Y013069D01*
X012680Y012971D02*
X011468Y012971D01*
X011478Y013018D02*
X011646Y013018D01*
X011646Y013296D01*
X011348Y013296D01*
X011348Y013148D01*
X011358Y013110D01*
X011378Y013075D01*
X011406Y013047D01*
X011440Y013028D01*
X011478Y013018D01*
X011384Y013069D02*
X010430Y013069D01*
X010430Y013168D02*
X011348Y013168D01*
X011348Y013266D02*
X010430Y013266D01*
X010430Y013365D02*
X011348Y013365D01*
X011348Y013463D02*
X010430Y013463D01*
X010414Y013562D02*
X011370Y013562D01*
X011646Y013562D02*
X011704Y013562D01*
X011704Y013463D02*
X011646Y013463D01*
X011646Y013365D02*
X011704Y013365D01*
X011704Y013266D02*
X011646Y013266D01*
X011646Y013168D02*
X011704Y013168D01*
X011704Y013069D02*
X011646Y013069D01*
X011966Y013069D02*
X012041Y013069D01*
X012021Y013562D02*
X011980Y013562D01*
X011468Y012478D02*
X012680Y012478D01*
X012789Y012380D02*
X011468Y012380D01*
X011457Y012281D02*
X012700Y012281D01*
X012700Y012183D02*
X009624Y012183D01*
X009621Y012194D02*
X009601Y012228D01*
X009573Y012256D01*
X009539Y012276D01*
X009501Y012286D01*
X009275Y012286D01*
X009275Y011950D01*
X009175Y011950D01*
X009175Y012286D01*
X008949Y012286D01*
X008911Y012276D01*
X008877Y012256D01*
X008849Y012228D01*
X008829Y012194D01*
X008819Y012156D01*
X008819Y011950D01*
X009175Y011950D01*
X009175Y011850D01*
X009275Y011850D01*
X009275Y011950D01*
X009631Y011950D01*
X009631Y012156D01*
X009621Y012194D01*
X009631Y012084D02*
X012683Y012084D01*
X012680Y011986D02*
X009631Y011986D01*
X009631Y011850D02*
X009275Y011850D01*
X009275Y011514D01*
X009501Y011514D01*
X009539Y011524D01*
X009573Y011544D01*
X009601Y011572D01*
X009621Y011606D01*
X009631Y011644D01*
X009631Y011850D01*
X009631Y011789D02*
X012120Y011789D01*
X012218Y011887D02*
X009275Y011887D01*
X009275Y011789D02*
X009175Y011789D01*
X009175Y011850D02*
X009175Y011514D01*
X008949Y011514D01*
X008911Y011524D01*
X008877Y011544D01*
X008849Y011572D01*
X008829Y011606D01*
X008819Y011644D01*
X008819Y011850D01*
X009175Y011850D01*
X009175Y011887D02*
X008380Y011887D01*
X008380Y011789D02*
X008819Y011789D01*
X008819Y011690D02*
X008380Y011690D01*
X008409Y011592D02*
X008838Y011592D01*
X008872Y011395D02*
X008606Y011395D01*
X008507Y011493D02*
X011824Y011493D01*
X011726Y011395D02*
X009578Y011395D01*
X009591Y011296D02*
X011627Y011296D01*
X011529Y011198D02*
X009591Y011198D01*
X009591Y011099D02*
X011430Y011099D01*
X011332Y011001D02*
X009650Y011001D01*
X009748Y010902D02*
X011233Y010902D01*
X011475Y010607D02*
X012193Y010607D01*
X012201Y010705D02*
X011574Y010705D01*
X011672Y010804D02*
X012281Y010804D01*
X012233Y010902D02*
X011771Y010902D01*
X011869Y011001D02*
X012233Y011001D01*
X012233Y011099D02*
X011968Y011099D01*
X012066Y011198D02*
X012233Y011198D01*
X012233Y011296D02*
X012165Y011296D01*
X012263Y011395D02*
X012950Y011395D01*
X012833Y011296D02*
X012767Y011296D01*
X012696Y011493D02*
X012362Y011493D01*
X012460Y011592D02*
X012680Y011592D01*
X012021Y011690D02*
X009631Y011690D01*
X009612Y011592D02*
X011923Y011592D01*
X012767Y010902D02*
X012833Y010902D01*
X012881Y010804D02*
X012719Y010804D01*
X012799Y010705D02*
X012840Y010705D01*
X012833Y010607D02*
X012807Y010607D01*
X012807Y010508D02*
X012833Y010508D01*
X012807Y010446D02*
X012529Y010446D01*
X012529Y010148D01*
X012677Y010148D01*
X012715Y010158D01*
X012750Y010178D01*
X012778Y010206D01*
X012797Y010240D01*
X012807Y010278D01*
X012807Y010446D01*
X012807Y010410D02*
X012833Y010410D01*
X012833Y010311D02*
X012807Y010311D01*
X012781Y010213D02*
X012872Y010213D01*
X012874Y010114D02*
X011456Y010114D01*
X011468Y010213D02*
X012219Y010213D01*
X012222Y010206D02*
X012250Y010178D01*
X012285Y010158D01*
X012323Y010148D01*
X012471Y010148D01*
X012471Y010446D01*
X012193Y010446D01*
X012193Y010278D01*
X012203Y010240D01*
X012222Y010206D01*
X012193Y010311D02*
X011468Y010311D01*
X011468Y010410D02*
X012193Y010410D01*
X012193Y010508D02*
X011468Y010508D01*
X011336Y009917D02*
X012813Y009917D01*
X012813Y009819D02*
X011336Y009819D01*
X011336Y009720D02*
X012813Y009720D01*
X012838Y009622D02*
X011379Y009622D01*
X011477Y009523D02*
X019899Y009523D01*
X019801Y009425D02*
X011576Y009425D01*
X011674Y009326D02*
X019745Y009326D01*
X019745Y009369D02*
X019745Y008971D01*
X020026Y008690D01*
X020424Y008690D01*
X020705Y008971D01*
X020705Y009369D01*
X020424Y009650D01*
X020026Y009650D01*
X019745Y009369D01*
X019745Y009228D02*
X011773Y009228D01*
X011871Y009129D02*
X019745Y009129D01*
X019745Y009031D02*
X011970Y009031D01*
X012068Y008932D02*
X019784Y008932D01*
X019883Y008834D02*
X012167Y008834D01*
X012265Y008735D02*
X019981Y008735D01*
X020026Y008650D02*
X019745Y008369D01*
X019745Y007971D01*
X020026Y007690D01*
X020424Y007690D01*
X020705Y007971D01*
X020705Y008369D01*
X020424Y008650D01*
X020026Y008650D01*
X020013Y008637D02*
X012364Y008637D01*
X012462Y008538D02*
X019914Y008538D01*
X019816Y008440D02*
X017105Y008440D01*
X017111Y008341D02*
X019745Y008341D01*
X019745Y008243D02*
X017111Y008243D01*
X017111Y008144D02*
X019745Y008144D01*
X019745Y008046D02*
X017111Y008046D01*
X017111Y007947D02*
X019769Y007947D01*
X019868Y007849D02*
X017111Y007849D01*
X017071Y007750D02*
X019966Y007750D01*
X020026Y007650D02*
X019745Y007369D01*
X019745Y006971D01*
X020026Y006690D01*
X020424Y006690D01*
X020705Y006971D01*
X020705Y007369D01*
X020424Y007650D01*
X020026Y007650D01*
X019929Y007553D02*
X009970Y007553D01*
X009967Y007565D02*
X009947Y007600D01*
X009919Y007628D01*
X009885Y007647D01*
X009847Y007657D01*
X009679Y007657D01*
X009679Y007379D01*
X009621Y007379D01*
X009621Y007657D01*
X009453Y007657D01*
X009415Y007647D01*
X009381Y007628D01*
X009353Y007600D01*
X009333Y007565D01*
X009331Y007559D01*
X009273Y007617D01*
X009240Y007617D01*
X009240Y007738D01*
X009253Y007738D01*
X009317Y007802D01*
X009317Y007835D01*
X009383Y007835D01*
X009383Y007802D01*
X009447Y007738D01*
X009853Y007738D01*
X009917Y007802D01*
X009917Y008245D01*
X009960Y008203D01*
X010524Y008203D01*
X010588Y008267D01*
X010588Y008909D01*
X010524Y008974D01*
X009960Y008974D01*
X009896Y008909D01*
X009896Y008869D01*
X009853Y008912D01*
X009447Y008912D01*
X009390Y008855D01*
X009310Y008855D01*
X009253Y008912D01*
X008847Y008912D01*
X008843Y008908D01*
X008670Y009080D01*
X008586Y009080D01*
X008578Y009099D01*
X008454Y009223D01*
X008293Y009290D01*
X007457Y009290D01*
X007296Y009223D01*
X007172Y009099D01*
X007105Y008938D01*
X007105Y008762D01*
X007172Y008601D01*
X007296Y008477D01*
X007457Y008410D01*
X008293Y008410D01*
X008454Y008477D01*
X008535Y008558D01*
X008571Y008472D01*
X008647Y008396D01*
X008746Y008355D01*
X008830Y008355D01*
X008847Y008338D01*
X009253Y008338D01*
X009310Y008395D01*
X009390Y008395D01*
X009447Y008338D01*
X009853Y008338D01*
X009896Y008381D01*
X009896Y008269D01*
X009853Y008312D01*
X009447Y008312D01*
X009383Y008248D01*
X009383Y008215D01*
X009317Y008215D01*
X009317Y008248D01*
X009253Y008312D01*
X008847Y008312D01*
X008783Y008248D01*
X008783Y008040D01*
X008603Y008040D01*
X008578Y008099D01*
X008454Y008223D01*
X008293Y008290D01*
X007457Y008290D01*
X007296Y008223D01*
X007172Y008099D01*
X007105Y007938D01*
X007105Y007762D01*
X007172Y007601D01*
X007296Y007477D01*
X007457Y007410D01*
X008293Y007410D01*
X008454Y007477D01*
X008578Y007601D01*
X008603Y007660D01*
X008860Y007660D01*
X008860Y007617D01*
X008827Y007617D01*
X008763Y007553D01*
X008530Y007553D01*
X008599Y007652D02*
X008860Y007652D01*
X008763Y007553D02*
X008763Y007147D01*
X008827Y007083D01*
X009273Y007083D01*
X009331Y007141D01*
X009333Y007135D01*
X009353Y007100D01*
X009381Y007072D01*
X009415Y007053D01*
X009453Y007043D01*
X009621Y007043D01*
X009621Y007321D01*
X009679Y007321D01*
X009679Y007379D01*
X009977Y007379D01*
X009977Y007527D01*
X009967Y007565D01*
X009977Y007455D02*
X015716Y007455D01*
X015829Y007750D02*
X009865Y007750D01*
X009869Y007652D02*
X021008Y007652D01*
X021010Y007650D02*
X020705Y007955D01*
X020705Y008120D01*
X021175Y008120D01*
X021175Y008220D01*
X021175Y008690D01*
X021010Y008690D01*
X020705Y008385D01*
X020705Y008220D01*
X021175Y008220D01*
X021275Y008220D01*
X021275Y008690D01*
X021440Y008690D01*
X021745Y008385D01*
X021745Y008220D01*
X021275Y008220D01*
X021275Y008120D01*
X021745Y008120D01*
X021745Y007955D01*
X021440Y007650D01*
X021275Y007650D01*
X021275Y008120D01*
X021175Y008120D01*
X021175Y007650D01*
X021010Y007650D01*
X021026Y007650D02*
X020745Y007369D01*
X020745Y006971D01*
X021026Y006690D01*
X021424Y006690D01*
X021705Y006971D01*
X021705Y007369D01*
X021424Y007650D01*
X021026Y007650D01*
X020929Y007553D02*
X020521Y007553D01*
X020619Y007455D02*
X020831Y007455D01*
X020745Y007356D02*
X020705Y007356D01*
X020705Y007258D02*
X020745Y007258D01*
X020745Y007159D02*
X020705Y007159D01*
X020705Y007061D02*
X020745Y007061D01*
X020754Y006962D02*
X020696Y006962D01*
X020597Y006864D02*
X020853Y006864D01*
X020951Y006765D02*
X020499Y006765D01*
X020424Y006650D02*
X020026Y006650D01*
X019745Y006369D01*
X019745Y005971D01*
X020026Y005690D01*
X020424Y005690D01*
X020705Y005971D01*
X020705Y006369D01*
X020424Y006650D01*
X020506Y006568D02*
X020944Y006568D01*
X021026Y006650D02*
X020745Y006369D01*
X020745Y005971D01*
X021026Y005690D01*
X021424Y005690D01*
X021705Y005971D01*
X021705Y006369D01*
X021424Y006650D01*
X021026Y006650D01*
X020846Y006470D02*
X020604Y006470D01*
X020703Y006371D02*
X020747Y006371D01*
X020745Y006273D02*
X020705Y006273D01*
X020705Y006174D02*
X020745Y006174D01*
X020745Y006076D02*
X020705Y006076D01*
X020705Y005977D02*
X020745Y005977D01*
X020838Y005879D02*
X020612Y005879D01*
X020514Y005780D02*
X020936Y005780D01*
X021026Y005650D02*
X020745Y005369D01*
X020745Y004971D01*
X020826Y004890D01*
X020669Y004878D01*
X020745Y004955D01*
X020745Y005120D01*
X020275Y005120D01*
X020275Y005220D01*
X020175Y005220D01*
X020175Y005690D01*
X020010Y005690D01*
X019705Y005385D01*
X019705Y005220D01*
X020175Y005220D01*
X020175Y005120D01*
X019705Y005120D01*
X019705Y004955D01*
X019972Y004688D01*
X019950Y004679D01*
X019565Y004372D01*
X019288Y003966D01*
X019143Y003496D01*
X019143Y003004D01*
X019288Y002534D01*
X019565Y002128D01*
X019565Y002128D01*
X019565Y002128D01*
X019950Y001821D01*
X020408Y001641D01*
X020898Y001605D01*
X020898Y001605D01*
X021378Y001714D01*
X021804Y001960D01*
X022138Y002321D01*
X022352Y002764D01*
X022425Y003250D01*
X022352Y003736D01*
X022352Y003736D01*
X022138Y004179D01*
X022138Y004179D01*
X021804Y004540D01*
X021804Y004540D01*
X021468Y004734D01*
X021705Y004971D01*
X021705Y005369D01*
X021424Y005650D01*
X021026Y005650D01*
X020959Y005583D02*
X020547Y005583D01*
X020449Y005682D02*
X035200Y005682D01*
X035200Y005780D02*
X021514Y005780D01*
X021612Y005879D02*
X035200Y005879D01*
X035200Y005977D02*
X021705Y005977D01*
X021705Y006076D02*
X035200Y006076D01*
X035200Y006174D02*
X021705Y006174D01*
X021705Y006273D02*
X035200Y006273D01*
X035200Y006371D02*
X021703Y006371D01*
X021604Y006470D02*
X035200Y006470D01*
X035200Y006568D02*
X021506Y006568D01*
X021499Y006765D02*
X035200Y006765D01*
X035200Y006667D02*
X016247Y006667D01*
X016267Y006568D02*
X019944Y006568D01*
X019846Y006470D02*
X016267Y006470D01*
X016267Y006371D02*
X019747Y006371D01*
X019745Y006273D02*
X016267Y006273D01*
X016264Y006174D02*
X019745Y006174D01*
X019745Y006076D02*
X016271Y006076D01*
X016307Y005977D02*
X019745Y005977D01*
X019838Y005879D02*
X016307Y005879D01*
X016307Y005771D02*
X016029Y005771D01*
X016029Y005473D01*
X016177Y005473D01*
X016215Y005483D01*
X016250Y005503D01*
X016278Y005531D01*
X016297Y005565D01*
X016307Y005603D01*
X016307Y005771D01*
X016307Y005682D02*
X020001Y005682D01*
X019936Y005780D02*
X016029Y005780D01*
X016029Y005682D02*
X015971Y005682D01*
X015971Y005583D02*
X016029Y005583D01*
X016029Y005485D02*
X015971Y005485D01*
X015975Y005386D02*
X016075Y005386D01*
X016075Y005456D02*
X016075Y005100D01*
X016411Y005100D01*
X016411Y005326D01*
X016401Y005364D01*
X016381Y005398D01*
X016353Y005426D01*
X016319Y005446D01*
X016281Y005456D01*
X016075Y005456D01*
X016218Y005485D02*
X019804Y005485D01*
X019903Y005583D02*
X016302Y005583D01*
X016388Y005386D02*
X019706Y005386D01*
X019705Y005288D02*
X016411Y005288D01*
X016411Y005189D02*
X020175Y005189D01*
X020175Y005120D02*
X020175Y004767D01*
X020275Y004806D01*
X020275Y005120D01*
X020175Y005120D01*
X020175Y005091D02*
X020275Y005091D01*
X020275Y005189D02*
X020745Y005189D01*
X020745Y005220D02*
X020275Y005220D01*
X020275Y005690D01*
X020440Y005690D01*
X020745Y005385D01*
X020745Y005220D01*
X020745Y005288D02*
X020745Y005288D01*
X020744Y005386D02*
X020762Y005386D01*
X020861Y005485D02*
X020646Y005485D01*
X020275Y005485D02*
X020175Y005485D01*
X020175Y005583D02*
X020275Y005583D01*
X020275Y005682D02*
X020175Y005682D01*
X020175Y005386D02*
X020275Y005386D01*
X020275Y005288D02*
X020175Y005288D01*
X020175Y004992D02*
X020275Y004992D01*
X020275Y004894D02*
X020175Y004894D01*
X020175Y004795D02*
X020246Y004795D01*
X019963Y004697D02*
X016852Y004697D01*
X016947Y004598D02*
X019849Y004598D01*
X019950Y004679D02*
X019950Y004679D01*
X019865Y004795D02*
X016411Y004795D01*
X016411Y004894D02*
X019766Y004894D01*
X019705Y004992D02*
X016411Y004992D01*
X016376Y004697D02*
X016558Y004697D01*
X016705Y004697D02*
X016705Y004697D01*
X016705Y004598D02*
X016705Y004598D01*
X016705Y004500D02*
X016705Y004500D01*
X016705Y004401D02*
X016705Y004401D01*
X016705Y004303D02*
X016705Y004303D01*
X016705Y004204D02*
X016705Y004204D01*
X016705Y004106D02*
X016705Y004106D01*
X016705Y004100D02*
X016705Y004100D01*
X016598Y004100D01*
X016705Y004100D01*
X016705Y004007D02*
X016705Y004007D01*
X016705Y003909D02*
X016705Y003909D01*
X016705Y003810D02*
X016705Y003810D01*
X016705Y003712D02*
X016705Y003712D01*
X016705Y003613D02*
X016705Y003613D01*
X016705Y003515D02*
X016705Y003515D01*
X016876Y003515D02*
X017304Y003515D01*
X017304Y003613D02*
X016950Y003613D01*
X016953Y003712D02*
X017304Y003712D01*
X017304Y003810D02*
X016953Y003810D01*
X016953Y003909D02*
X017304Y003909D01*
X017304Y004007D02*
X016953Y004007D01*
X016953Y004106D02*
X017304Y004106D01*
X017304Y004204D02*
X016953Y004204D01*
X016953Y004303D02*
X017304Y004303D01*
X017304Y004396D02*
X017304Y003360D01*
X017368Y003296D01*
X018247Y003296D01*
X018311Y003360D01*
X018311Y004396D01*
X018247Y004460D01*
X017368Y004460D01*
X017304Y004396D01*
X017309Y004401D02*
X016953Y004401D01*
X016953Y004500D02*
X019725Y004500D01*
X019601Y004401D02*
X018306Y004401D01*
X018311Y004303D02*
X019518Y004303D01*
X019565Y004372D02*
X019565Y004372D01*
X019451Y004204D02*
X018311Y004204D01*
X018311Y004106D02*
X019384Y004106D01*
X019316Y004007D02*
X018311Y004007D01*
X018311Y003909D02*
X019271Y003909D01*
X019288Y003966D02*
X019288Y003966D01*
X019240Y003810D02*
X018311Y003810D01*
X018311Y003712D02*
X019210Y003712D01*
X019180Y003613D02*
X018311Y003613D01*
X018311Y003515D02*
X019149Y003515D01*
X019143Y003416D02*
X018311Y003416D01*
X018269Y003318D02*
X019143Y003318D01*
X019143Y003219D02*
X017177Y003219D01*
X017166Y003230D02*
X017020Y003291D01*
X016862Y003291D01*
X016716Y003230D01*
X016605Y003118D01*
X016544Y002973D01*
X016544Y002815D01*
X016605Y002669D01*
X016716Y002557D01*
X016862Y002497D01*
X017020Y002497D01*
X017166Y002557D01*
X017278Y002669D01*
X017338Y002815D01*
X017338Y002973D01*
X017278Y003118D01*
X017166Y003230D01*
X017276Y003121D02*
X019143Y003121D01*
X019143Y003022D02*
X017318Y003022D01*
X017338Y002924D02*
X019168Y002924D01*
X019199Y002825D02*
X017338Y002825D01*
X017301Y002727D02*
X019229Y002727D01*
X019259Y002628D02*
X017237Y002628D01*
X017099Y002530D02*
X019292Y002530D01*
X019288Y002534D02*
X019288Y002534D01*
X019493Y002234D02*
X018308Y002234D01*
X018311Y002136D02*
X019560Y002136D01*
X019679Y002037D02*
X018311Y002037D01*
X018311Y001939D02*
X019803Y001939D01*
X019926Y001840D02*
X018311Y001840D01*
X018311Y001742D02*
X020153Y001742D01*
X019950Y001821D02*
X019950Y001821D01*
X020404Y001643D02*
X018311Y001643D01*
X018311Y001545D02*
X032362Y001545D01*
X032295Y001643D02*
X021067Y001643D01*
X021378Y001714D02*
X021378Y001714D01*
X021425Y001742D02*
X032228Y001742D01*
X032160Y001840D02*
X021596Y001840D01*
X021767Y001939D02*
X032104Y001939D01*
X032074Y002037D02*
X021875Y002037D01*
X021804Y001960D02*
X021804Y001960D01*
X021804Y001960D01*
X021967Y002136D02*
X032044Y002136D01*
X032013Y002234D02*
X022058Y002234D01*
X022144Y002333D02*
X031983Y002333D01*
X031968Y002431D02*
X022192Y002431D01*
X022239Y002530D02*
X031968Y002530D01*
X031968Y002628D02*
X022286Y002628D01*
X022334Y002727D02*
X031968Y002727D01*
X031968Y002825D02*
X022361Y002825D01*
X022376Y002924D02*
X031985Y002924D01*
X032015Y003022D02*
X022391Y003022D01*
X022405Y003121D02*
X032045Y003121D01*
X032076Y003219D02*
X022420Y003219D01*
X022425Y003250D02*
X022425Y003250D01*
X022415Y003318D02*
X032106Y003318D01*
X032165Y003416D02*
X022400Y003416D01*
X022385Y003515D02*
X032232Y003515D01*
X032299Y003613D02*
X022370Y003613D01*
X022355Y003712D02*
X032366Y003712D01*
X032469Y003810D02*
X022316Y003810D01*
X022269Y003909D02*
X032593Y003909D01*
X032716Y004007D02*
X022221Y004007D01*
X022174Y004106D02*
X032906Y004106D01*
X033157Y004204D02*
X022116Y004204D01*
X022024Y004303D02*
X035200Y004303D01*
X035200Y004401D02*
X021933Y004401D01*
X021841Y004500D02*
X035200Y004500D01*
X035200Y004598D02*
X021703Y004598D01*
X021533Y004697D02*
X035200Y004697D01*
X035200Y004795D02*
X021529Y004795D01*
X021627Y004894D02*
X035200Y004894D01*
X035200Y004992D02*
X021705Y004992D01*
X021705Y005091D02*
X035200Y005091D01*
X035200Y005189D02*
X021705Y005189D01*
X021705Y005288D02*
X035200Y005288D01*
X035200Y005386D02*
X021688Y005386D01*
X021589Y005485D02*
X035200Y005485D01*
X035200Y005583D02*
X021491Y005583D01*
X020745Y005091D02*
X020745Y005091D01*
X020745Y004992D02*
X020745Y004992D01*
X020684Y004894D02*
X020823Y004894D01*
X019705Y005091D02*
X016075Y005091D01*
X016075Y005189D02*
X015975Y005189D01*
X015975Y005091D02*
X015571Y005091D01*
X015571Y005189D02*
X015639Y005189D01*
X015639Y005288D02*
X015571Y005288D01*
X015537Y005386D02*
X015662Y005386D01*
X015782Y005485D02*
X015455Y005485D01*
X015608Y004992D02*
X015639Y004992D01*
X015975Y005288D02*
X016075Y005288D01*
X015729Y006076D02*
X015714Y006076D01*
X015714Y006174D02*
X015736Y006174D01*
X015733Y006273D02*
X015714Y006273D01*
X015733Y006371D02*
X008078Y006371D01*
X008119Y006273D02*
X014786Y006273D01*
X014786Y006174D02*
X008160Y006174D01*
X008201Y006076D02*
X014786Y006076D01*
X014786Y005977D02*
X008215Y005977D01*
X008215Y005879D02*
X014786Y005879D01*
X014786Y005780D02*
X008215Y005780D01*
X008215Y005682D02*
X014786Y005682D01*
X015733Y006470D02*
X007989Y006470D01*
X007891Y006568D02*
X015733Y006568D01*
X015714Y006667D02*
X015776Y006667D01*
X016361Y006765D02*
X016539Y006765D01*
X016537Y006767D02*
X016601Y006703D01*
X017165Y006703D01*
X017229Y006767D01*
X017229Y007409D01*
X017165Y007474D01*
X016601Y007474D01*
X016537Y007409D01*
X016537Y006767D01*
X016537Y006864D02*
X016363Y006864D01*
X016363Y006962D02*
X016537Y006962D01*
X016537Y007061D02*
X016363Y007061D01*
X016363Y007159D02*
X016537Y007159D01*
X016537Y007258D02*
X016363Y007258D01*
X016363Y007356D02*
X016537Y007356D01*
X016582Y007455D02*
X016318Y007455D01*
X015789Y007849D02*
X009917Y007849D01*
X009917Y007947D02*
X012403Y007947D01*
X012304Y008046D02*
X009917Y008046D01*
X009917Y008144D02*
X012206Y008144D01*
X012107Y008243D02*
X011430Y008243D01*
X011454Y008341D02*
X012009Y008341D01*
X011910Y008440D02*
X011454Y008440D01*
X011454Y008538D02*
X011812Y008538D01*
X011713Y008637D02*
X011454Y008637D01*
X011454Y008735D02*
X011615Y008735D01*
X011516Y008834D02*
X011454Y008834D01*
X011319Y009031D02*
X009925Y009031D01*
X009918Y008932D02*
X008818Y008932D01*
X008779Y009031D02*
X008720Y009031D01*
X008738Y009129D02*
X008548Y009129D01*
X008443Y009228D02*
X008738Y009228D01*
X008738Y009326D02*
X007005Y009326D01*
X007005Y009228D02*
X007307Y009228D01*
X007202Y009129D02*
X007005Y009129D01*
X007005Y009031D02*
X007144Y009031D01*
X007105Y008932D02*
X007005Y008932D01*
X007005Y008834D02*
X007105Y008834D01*
X007116Y008735D02*
X007005Y008735D01*
X007005Y008637D02*
X007157Y008637D01*
X007235Y008538D02*
X007005Y008538D01*
X007005Y008440D02*
X007386Y008440D01*
X007343Y008243D02*
X007005Y008243D01*
X007005Y008341D02*
X008844Y008341D01*
X008783Y008243D02*
X008407Y008243D01*
X008533Y008144D02*
X008783Y008144D01*
X008783Y008046D02*
X008600Y008046D01*
X009240Y007652D02*
X009431Y007652D01*
X009435Y007750D02*
X009265Y007750D01*
X009621Y007652D02*
X009679Y007652D01*
X009679Y007553D02*
X009621Y007553D01*
X009621Y007455D02*
X009679Y007455D01*
X009679Y007356D02*
X014786Y007356D01*
X014786Y007258D02*
X009977Y007258D01*
X009977Y007321D02*
X009679Y007321D01*
X009679Y007043D01*
X009847Y007043D01*
X009885Y007053D01*
X009919Y007072D01*
X009947Y007100D01*
X009967Y007135D01*
X009977Y007173D01*
X009977Y007321D01*
X009973Y007159D02*
X014786Y007159D01*
X014786Y007061D02*
X009899Y007061D01*
X009679Y007061D02*
X009621Y007061D01*
X009621Y007159D02*
X009679Y007159D01*
X009679Y007258D02*
X009621Y007258D01*
X009401Y007061D02*
X007505Y007061D01*
X007505Y006962D02*
X014786Y006962D01*
X014786Y006864D02*
X007505Y006864D01*
X007533Y006765D02*
X014786Y006765D01*
X014786Y006667D02*
X007770Y006667D01*
X007466Y007159D02*
X008763Y007159D01*
X008763Y007258D02*
X007368Y007258D01*
X007269Y007356D02*
X008763Y007356D01*
X008763Y007455D02*
X008400Y007455D01*
X007350Y007455D02*
X007171Y007455D01*
X007220Y007553D02*
X007072Y007553D01*
X007005Y007652D02*
X007151Y007652D01*
X007110Y007750D02*
X007005Y007750D01*
X007005Y007849D02*
X007105Y007849D01*
X007109Y007947D02*
X007005Y007947D01*
X007005Y008046D02*
X007150Y008046D01*
X007217Y008144D02*
X007005Y008144D01*
X007005Y009425D02*
X007422Y009425D01*
X007250Y009523D02*
X007005Y009523D01*
X008328Y009425D02*
X008732Y009425D01*
X008633Y009523D02*
X008500Y009523D01*
X008875Y009819D02*
X008906Y009819D01*
X008974Y009720D02*
X009005Y009720D01*
X009072Y009622D02*
X009103Y009622D01*
X009267Y009523D02*
X009327Y009523D01*
X009596Y009228D02*
X009654Y009228D01*
X009654Y009129D02*
X009596Y009129D01*
X009596Y009031D02*
X009654Y009031D01*
X009952Y009129D02*
X011221Y009129D01*
X010785Y008932D02*
X010565Y008932D01*
X010588Y008834D02*
X010762Y008834D01*
X010762Y008735D02*
X010588Y008735D01*
X010588Y008637D02*
X010762Y008637D01*
X010762Y008538D02*
X010588Y008538D01*
X010588Y008440D02*
X010762Y008440D01*
X010762Y008341D02*
X010588Y008341D01*
X010564Y008243D02*
X010786Y008243D01*
X009920Y008243D02*
X009917Y008243D01*
X009896Y008341D02*
X009856Y008341D01*
X009444Y008341D02*
X009256Y008341D01*
X009317Y008243D02*
X009383Y008243D01*
X008604Y008440D02*
X008364Y008440D01*
X008515Y008538D02*
X008544Y008538D01*
X009271Y009031D02*
X009325Y009031D01*
X009952Y009228D02*
X010077Y009228D01*
X010014Y009326D02*
X009952Y009326D01*
X009952Y009425D02*
X010014Y009425D01*
X010014Y009523D02*
X009923Y009523D01*
X009360Y010016D02*
X012813Y010016D01*
X012529Y010213D02*
X012471Y010213D01*
X012471Y010311D02*
X012529Y010311D01*
X012529Y010410D02*
X012471Y010410D01*
X013328Y010213D02*
X013419Y010213D01*
X013417Y010114D02*
X013326Y010114D01*
X013367Y010311D02*
X013393Y010311D01*
X013393Y010410D02*
X013367Y010410D01*
X013367Y010508D02*
X013393Y010508D01*
X013393Y010607D02*
X013367Y010607D01*
X013360Y010705D02*
X013401Y010705D01*
X013481Y010804D02*
X013319Y010804D01*
X013367Y010902D02*
X013433Y010902D01*
X013433Y011001D02*
X013367Y011001D01*
X013367Y011099D02*
X013433Y011099D01*
X013653Y011362D02*
X013718Y011362D01*
X013776Y011420D01*
X013768Y011415D01*
X013730Y011405D01*
X013630Y011405D01*
X013630Y011795D01*
X013860Y011795D01*
X013630Y011795D01*
X013630Y011795D01*
X013630Y011795D01*
X013630Y011405D01*
X013610Y011405D01*
X013653Y011362D01*
X013621Y011395D02*
X013751Y011395D01*
X013847Y011493D02*
X013849Y011493D01*
X013860Y011592D02*
X013948Y011592D01*
X013860Y011690D02*
X014046Y011690D01*
X014145Y011789D02*
X013860Y011789D01*
X013860Y011887D02*
X014208Y011887D01*
X014208Y011986D02*
X013860Y011986D01*
X013852Y012084D02*
X014208Y012084D01*
X014208Y012183D02*
X013888Y012183D01*
X013905Y012281D02*
X014241Y012281D01*
X014230Y012380D02*
X013883Y012380D01*
X013820Y012478D02*
X014208Y012478D01*
X014208Y012577D02*
X013820Y012577D01*
X013820Y012675D02*
X014208Y012675D01*
X014208Y012774D02*
X013820Y012774D01*
X013820Y012872D02*
X014232Y012872D01*
X014245Y012971D02*
X013820Y012971D01*
X013792Y013069D02*
X014245Y013069D01*
X014245Y013168D02*
X013812Y013168D01*
X013812Y013266D02*
X014245Y013266D01*
X014245Y013365D02*
X013812Y013365D01*
X013812Y013463D02*
X014245Y013463D01*
X014245Y013562D02*
X013779Y013562D01*
X014067Y013857D02*
X010280Y013857D01*
X010280Y013759D02*
X014165Y013759D01*
X014245Y013660D02*
X010280Y013660D01*
X010430Y013956D02*
X013968Y013956D01*
X014323Y014251D02*
X018059Y014251D01*
X018030Y014280D02*
X019805Y012505D01*
X019825Y012505D01*
X019705Y012385D01*
X019705Y012220D01*
X020175Y012220D01*
X020175Y012505D01*
X020275Y012505D01*
X020275Y012220D01*
X020745Y012220D01*
X020745Y012385D01*
X020625Y012505D01*
X020800Y012505D01*
X020900Y012605D01*
X021006Y012710D01*
X021026Y012690D01*
X021424Y012690D01*
X021705Y012971D01*
X021705Y013369D01*
X021424Y013650D01*
X021026Y013650D01*
X020745Y013369D01*
X020745Y012971D01*
X020765Y012951D01*
X020660Y012845D01*
X020579Y012845D01*
X020705Y012971D01*
X020705Y013369D01*
X020424Y013650D01*
X020026Y013650D01*
X020006Y013630D01*
X019570Y014065D01*
X019570Y014585D01*
X019580Y014575D01*
X019765Y014389D01*
X019745Y014369D01*
X019745Y013971D01*
X020026Y013690D01*
X020424Y013690D01*
X020705Y013971D01*
X020705Y014369D01*
X020424Y014650D01*
X020026Y014650D01*
X020006Y014630D01*
X019820Y014815D01*
X019820Y014896D01*
X020026Y014690D01*
X020424Y014690D01*
X020705Y014971D01*
X020705Y015369D01*
X020424Y015650D01*
X020026Y015650D01*
X020006Y015630D01*
X020005Y015630D01*
X020006Y015630D02*
X018635Y017000D01*
X019155Y017000D01*
X019765Y016389D01*
X019745Y016369D01*
X019745Y015971D01*
X020026Y015690D01*
X020424Y015690D01*
X020705Y015971D01*
X020705Y016369D01*
X020424Y016650D01*
X020026Y016650D01*
X020006Y016630D01*
X019395Y017240D01*
X019295Y017340D01*
X018200Y017340D01*
X018070Y017470D01*
X018070Y018345D01*
X017945Y018470D01*
X017845Y018570D01*
X016205Y018570D01*
X016005Y018370D01*
X015905Y018270D01*
X015905Y018260D01*
X015847Y018202D01*
X015847Y017245D01*
X015863Y017229D01*
X015805Y017170D01*
X015592Y017170D01*
X015592Y017223D01*
X015528Y017287D01*
X015122Y017287D01*
X015058Y017223D01*
X015058Y016777D01*
X015116Y016719D01*
X015110Y016717D01*
X015075Y016697D01*
X015047Y016669D01*
X015028Y016635D01*
X015018Y016597D01*
X015018Y016429D01*
X015296Y016429D01*
X015296Y016371D01*
X015354Y016371D01*
X015354Y016429D01*
X015632Y016429D01*
X015632Y016597D01*
X015622Y016635D01*
X015603Y016669D01*
X015575Y016697D01*
X015540Y016717D01*
X015534Y016719D01*
X015592Y016777D01*
X015592Y016830D01*
X015945Y016830D01*
X016145Y017030D01*
X016245Y017130D01*
X016245Y017187D01*
X016303Y017245D01*
X016303Y018188D01*
X016345Y018230D01*
X016375Y018230D01*
X016347Y018202D01*
X016347Y017245D01*
X016405Y017187D01*
X016405Y017130D01*
X017155Y016380D01*
X017255Y016280D01*
X017875Y016280D01*
X019230Y014925D01*
X019230Y013925D01*
X019765Y013389D01*
X019745Y013369D01*
X019745Y013045D01*
X018170Y014620D01*
X016395Y014620D01*
X016245Y014770D01*
X016245Y015140D01*
X016303Y015198D01*
X016303Y016155D01*
X016239Y016219D01*
X015911Y016219D01*
X015847Y016155D01*
X015847Y015198D01*
X015905Y015140D01*
X015905Y014630D01*
X016005Y014530D01*
X016255Y014280D01*
X018030Y014280D01*
X018157Y014153D02*
X014422Y014153D01*
X014520Y014054D02*
X018256Y014054D01*
X018354Y013956D02*
X014619Y013956D01*
X014705Y013857D02*
X018453Y013857D01*
X018551Y013759D02*
X014705Y013759D01*
X014705Y013660D02*
X018650Y013660D01*
X018748Y013562D02*
X014705Y013562D01*
X014705Y013463D02*
X018847Y013463D01*
X018945Y013365D02*
X014705Y013365D01*
X014705Y013266D02*
X019044Y013266D01*
X019142Y013168D02*
X014705Y013168D01*
X014705Y013069D02*
X019241Y013069D01*
X019339Y012971D02*
X014705Y012971D01*
X014718Y012872D02*
X019438Y012872D01*
X019536Y012774D02*
X014742Y012774D01*
X014742Y012675D02*
X019635Y012675D01*
X019733Y012577D02*
X014742Y012577D01*
X014742Y012478D02*
X019798Y012478D01*
X019705Y012380D02*
X014720Y012380D01*
X014709Y012281D02*
X019705Y012281D01*
X019705Y012120D02*
X019705Y011955D01*
X020010Y011650D01*
X020175Y011650D01*
X020175Y012120D01*
X020275Y012120D01*
X020275Y012220D01*
X020175Y012220D01*
X020175Y012120D01*
X019705Y012120D01*
X019705Y012084D02*
X014742Y012084D01*
X014742Y011986D02*
X019705Y011986D01*
X019773Y011887D02*
X014742Y011887D01*
X014729Y011789D02*
X019871Y011789D01*
X019970Y011690D02*
X014584Y011690D01*
X014485Y011592D02*
X019968Y011592D01*
X020026Y011650D02*
X019745Y011369D01*
X019745Y010971D01*
X020026Y010690D01*
X020424Y010690D01*
X020705Y010971D01*
X020705Y011369D01*
X020424Y011650D01*
X020026Y011650D01*
X020175Y011690D02*
X020275Y011690D01*
X020275Y011650D02*
X020440Y011650D01*
X020745Y011955D01*
X020745Y012120D01*
X020275Y012120D01*
X020275Y011650D01*
X020275Y011789D02*
X020175Y011789D01*
X020175Y011887D02*
X020275Y011887D01*
X020275Y011986D02*
X020175Y011986D01*
X020175Y012084D02*
X020275Y012084D01*
X020275Y012183D02*
X020745Y012183D01*
X020745Y012281D02*
X020745Y012281D01*
X020745Y012369D02*
X020745Y011971D01*
X021026Y011690D01*
X020480Y011690D01*
X020482Y011592D02*
X020968Y011592D01*
X021026Y011650D02*
X020745Y011369D01*
X020745Y010971D01*
X021026Y010690D01*
X021424Y010690D01*
X021705Y010971D01*
X021705Y011369D01*
X021424Y011650D01*
X021026Y011650D01*
X021026Y011690D02*
X021424Y011690D01*
X035200Y011690D01*
X035200Y011592D02*
X021482Y011592D01*
X021424Y011690D02*
X021705Y011971D01*
X021705Y012369D01*
X021424Y012650D01*
X021026Y012650D01*
X020745Y012369D01*
X020745Y012380D02*
X020756Y012380D01*
X020854Y012478D02*
X020652Y012478D01*
X020872Y012577D02*
X020953Y012577D01*
X020970Y012675D02*
X035200Y012675D01*
X035200Y012577D02*
X021497Y012577D01*
X021596Y012478D02*
X035200Y012478D01*
X035200Y012380D02*
X021694Y012380D01*
X021705Y012281D02*
X035200Y012281D01*
X035200Y012183D02*
X021705Y012183D01*
X021705Y012084D02*
X035200Y012084D01*
X035200Y011986D02*
X021705Y011986D01*
X021621Y011887D02*
X035200Y011887D01*
X035200Y011789D02*
X021522Y011789D01*
X021581Y011493D02*
X035200Y011493D01*
X035200Y011395D02*
X021679Y011395D01*
X021705Y011296D02*
X035200Y011296D01*
X035200Y011198D02*
X021705Y011198D01*
X021705Y011099D02*
X035200Y011099D01*
X035200Y011001D02*
X021705Y011001D01*
X021636Y010902D02*
X035200Y010902D01*
X035200Y010804D02*
X021537Y010804D01*
X021439Y010705D02*
X035200Y010705D01*
X035200Y010607D02*
X021524Y010607D01*
X021440Y010690D02*
X021275Y010690D01*
X021275Y010220D01*
X021175Y010220D01*
X021175Y010690D01*
X021010Y010690D01*
X020705Y010385D01*
X020705Y010220D01*
X021175Y010220D01*
X021175Y010120D01*
X020705Y010120D01*
X020705Y009955D01*
X021010Y009650D01*
X021175Y009650D01*
X021175Y010120D01*
X021275Y010120D01*
X021275Y010220D01*
X021745Y010220D01*
X021745Y010385D01*
X021440Y010690D01*
X021275Y010607D02*
X021175Y010607D01*
X021175Y010508D02*
X021275Y010508D01*
X021275Y010410D02*
X021175Y010410D01*
X021175Y010311D02*
X021275Y010311D01*
X021275Y010213D02*
X035200Y010213D01*
X035200Y010311D02*
X021745Y010311D01*
X021721Y010410D02*
X035200Y010410D01*
X035200Y010508D02*
X021622Y010508D01*
X021175Y010213D02*
X020705Y010213D01*
X020705Y010311D02*
X020705Y010311D01*
X020705Y010369D02*
X020424Y010650D01*
X020026Y010650D01*
X019745Y010369D01*
X019745Y009971D01*
X020026Y009690D01*
X020424Y009690D01*
X020705Y009971D01*
X020705Y010369D01*
X020729Y010410D02*
X020664Y010410D01*
X020566Y010508D02*
X020828Y010508D01*
X020926Y010607D02*
X020467Y010607D01*
X020439Y010705D02*
X021011Y010705D01*
X020913Y010804D02*
X020537Y010804D01*
X020636Y010902D02*
X020814Y010902D01*
X020745Y011001D02*
X020705Y011001D01*
X020705Y011099D02*
X020745Y011099D01*
X020745Y011198D02*
X020705Y011198D01*
X020705Y011296D02*
X020745Y011296D01*
X020771Y011395D02*
X020679Y011395D01*
X020581Y011493D02*
X020869Y011493D01*
X020928Y011789D02*
X020579Y011789D01*
X020677Y011887D02*
X020829Y011887D01*
X020745Y011986D02*
X020745Y011986D01*
X020745Y012084D02*
X020745Y012084D01*
X020275Y012281D02*
X020175Y012281D01*
X020175Y012183D02*
X014742Y012183D01*
X014387Y011493D02*
X019869Y011493D01*
X019771Y011395D02*
X014288Y011395D01*
X014190Y011296D02*
X019745Y011296D01*
X019745Y011198D02*
X014091Y011198D01*
X013993Y011099D02*
X019745Y011099D01*
X019745Y011001D02*
X013967Y011001D01*
X013967Y010902D02*
X019814Y010902D01*
X019913Y010804D02*
X013919Y010804D01*
X013999Y010705D02*
X020011Y010705D01*
X019983Y010607D02*
X014007Y010607D01*
X014007Y010508D02*
X019884Y010508D01*
X019786Y010410D02*
X014007Y010410D01*
X014007Y010311D02*
X019745Y010311D01*
X019745Y010213D02*
X013981Y010213D01*
X013983Y010114D02*
X019745Y010114D01*
X019745Y010016D02*
X014027Y010016D01*
X014027Y009917D02*
X019799Y009917D01*
X019898Y009819D02*
X014027Y009819D01*
X014027Y009821D02*
X013729Y009821D01*
X013729Y009543D01*
X013897Y009543D01*
X013935Y009553D01*
X013969Y009572D01*
X013997Y009600D01*
X014017Y009635D01*
X014027Y009673D01*
X014027Y009821D01*
X014027Y009720D02*
X019996Y009720D01*
X019998Y009622D02*
X014009Y009622D01*
X013729Y009622D02*
X013671Y009622D01*
X013671Y009720D02*
X013729Y009720D01*
X013729Y009819D02*
X013671Y009819D01*
X013671Y009879D02*
X013671Y010157D01*
X013671Y010446D01*
X013729Y010446D01*
X013729Y009879D01*
X013671Y009879D01*
X013671Y009917D02*
X013729Y009917D01*
X013729Y010016D02*
X013671Y010016D01*
X013671Y010114D02*
X013729Y010114D01*
X013729Y010213D02*
X013671Y010213D01*
X013671Y010311D02*
X013729Y010311D01*
X013729Y010410D02*
X013671Y010410D01*
X013391Y009622D02*
X013362Y009622D01*
X012561Y008440D02*
X015795Y008440D01*
X017184Y007455D02*
X019831Y007455D01*
X019745Y007356D02*
X017229Y007356D01*
X017229Y007258D02*
X019745Y007258D01*
X019745Y007159D02*
X017229Y007159D01*
X017229Y007061D02*
X019745Y007061D01*
X019754Y006962D02*
X017229Y006962D01*
X017229Y006864D02*
X019853Y006864D01*
X019951Y006765D02*
X017227Y006765D01*
X015215Y004401D02*
X014841Y004401D01*
X014846Y004303D02*
X015215Y004303D01*
X015215Y004204D02*
X014846Y004204D01*
X014846Y004106D02*
X015215Y004106D01*
X015215Y004007D02*
X014846Y004007D01*
X014846Y003909D02*
X015237Y003909D01*
X015237Y003810D02*
X014846Y003810D01*
X014846Y003712D02*
X015237Y003712D01*
X015237Y003613D02*
X014846Y003613D01*
X014846Y003515D02*
X016534Y003515D01*
X016705Y003219D02*
X015445Y003219D01*
X015543Y003121D02*
X016607Y003121D01*
X016565Y003022D02*
X015585Y003022D01*
X015606Y002924D02*
X016544Y002924D01*
X016544Y002825D02*
X015606Y002825D01*
X015569Y002727D02*
X016581Y002727D01*
X016646Y002628D02*
X015504Y002628D01*
X015367Y002530D02*
X016783Y002530D01*
X017307Y002234D02*
X014843Y002234D01*
X014846Y002136D02*
X017304Y002136D01*
X017304Y002037D02*
X014846Y002037D01*
X014846Y001939D02*
X017304Y001939D01*
X017304Y001840D02*
X014846Y001840D01*
X014846Y001742D02*
X017304Y001742D01*
X017304Y001643D02*
X014846Y001643D01*
X014846Y001545D02*
X017304Y001545D01*
X017304Y001446D02*
X014846Y001446D01*
X014846Y001348D02*
X017304Y001348D01*
X017304Y001249D02*
X014846Y001249D01*
X013839Y001249D02*
X002730Y001249D01*
X003165Y001643D02*
X011354Y001643D01*
X011358Y001641D02*
X011358Y001641D01*
X011103Y001742D02*
X003235Y001742D01*
X003283Y001840D02*
X010876Y001840D01*
X010900Y001821D02*
X010900Y001821D01*
X010753Y001939D02*
X003330Y001939D01*
X003378Y002037D02*
X010629Y002037D01*
X010510Y002136D02*
X003425Y002136D01*
X003441Y002234D02*
X010443Y002234D01*
X010376Y002333D02*
X003456Y002333D01*
X003471Y002431D02*
X010309Y002431D01*
X010242Y002530D02*
X007532Y002530D01*
X007565Y002539D02*
X007674Y002584D01*
X007777Y002643D01*
X007870Y002715D01*
X007954Y002798D01*
X008026Y002892D01*
X008085Y002994D01*
X008130Y003103D01*
X008161Y003218D01*
X008176Y003335D01*
X008176Y003344D01*
X007325Y003344D01*
X007325Y003444D01*
X007225Y003444D01*
X007225Y004295D01*
X007216Y004295D01*
X007099Y004279D01*
X006985Y004249D01*
X006876Y004204D01*
X002264Y004204D01*
X002549Y004106D02*
X006722Y004106D01*
X006680Y004073D02*
X006596Y003989D01*
X006524Y003895D01*
X006465Y003793D01*
X006420Y003684D01*
X006389Y003570D01*
X006374Y003453D01*
X006374Y003444D01*
X007225Y003444D01*
X007225Y003344D01*
X006374Y003344D01*
X006374Y003335D01*
X006389Y003218D01*
X006420Y003103D01*
X006465Y002994D01*
X006524Y002892D01*
X006596Y002798D01*
X006680Y002715D01*
X006773Y002643D01*
X006876Y002584D01*
X006985Y002539D01*
X007099Y002508D01*
X007216Y002493D01*
X007225Y002493D01*
X007225Y003344D01*
X007325Y003344D01*
X007325Y002493D01*
X007334Y002493D01*
X007451Y002508D01*
X007565Y002539D01*
X007751Y002628D02*
X010209Y002628D01*
X010238Y002534D02*
X010238Y002534D01*
X010179Y002727D02*
X007882Y002727D01*
X007975Y002825D02*
X010149Y002825D01*
X010118Y002924D02*
X008044Y002924D01*
X008096Y003022D02*
X010093Y003022D01*
X010093Y003121D02*
X008135Y003121D01*
X008161Y003219D02*
X010093Y003219D01*
X010093Y003318D02*
X008174Y003318D01*
X008176Y003444D02*
X008176Y003453D01*
X008161Y003570D01*
X008130Y003684D01*
X008085Y003793D01*
X008026Y003895D01*
X007954Y003989D01*
X007870Y004073D01*
X007777Y004145D01*
X007674Y004204D01*
X008434Y004204D01*
X008414Y004231D02*
X008486Y004137D01*
X008569Y004053D01*
X008663Y003981D01*
X008765Y003922D01*
X008874Y003877D01*
X008989Y003847D01*
X009106Y003831D01*
X009115Y003831D01*
X009115Y004682D01*
X008264Y004682D01*
X008264Y004673D01*
X008279Y004556D01*
X008310Y004442D01*
X008355Y004333D01*
X008414Y004231D01*
X008372Y004303D02*
X000350Y004303D01*
X000350Y004401D02*
X008327Y004401D01*
X008294Y004500D02*
X000350Y004500D01*
X000350Y004598D02*
X008273Y004598D01*
X008517Y004106D02*
X007828Y004106D01*
X007936Y004007D02*
X008630Y004007D01*
X008799Y003909D02*
X008016Y003909D01*
X008075Y003810D02*
X010190Y003810D01*
X010160Y003712D02*
X008119Y003712D01*
X008149Y003613D02*
X010130Y003613D01*
X010099Y003515D02*
X008168Y003515D01*
X008176Y003444D02*
X007325Y003444D01*
X007325Y004295D01*
X007334Y004295D01*
X007451Y004279D01*
X007565Y004249D01*
X007674Y004204D01*
X007325Y004204D02*
X007225Y004204D01*
X007225Y004106D02*
X007325Y004106D01*
X007325Y004007D02*
X007225Y004007D01*
X007225Y003909D02*
X007325Y003909D01*
X007325Y003810D02*
X007225Y003810D01*
X007225Y003712D02*
X007325Y003712D01*
X007325Y003613D02*
X007225Y003613D01*
X007225Y003515D02*
X007325Y003515D01*
X007325Y003416D02*
X010093Y003416D01*
X010221Y003909D02*
X009531Y003909D01*
X009564Y003922D02*
X009667Y003981D01*
X009760Y004053D01*
X009844Y004137D01*
X009916Y004231D01*
X009975Y004333D01*
X010020Y004442D01*
X010051Y004556D01*
X010066Y004673D01*
X010066Y004682D01*
X009215Y004682D01*
X009215Y003831D01*
X009224Y003831D01*
X009341Y003847D01*
X009455Y003877D01*
X009564Y003922D01*
X009700Y004007D02*
X010266Y004007D01*
X010238Y003966D02*
X010238Y003966D01*
X010334Y004106D02*
X009812Y004106D01*
X009895Y004204D02*
X010401Y004204D01*
X010468Y004303D02*
X009957Y004303D01*
X010003Y004401D02*
X010551Y004401D01*
X010515Y004372D02*
X010515Y004372D01*
X010515Y004372D01*
X010675Y004500D02*
X010035Y004500D01*
X010056Y004598D02*
X010799Y004598D01*
X010900Y004679D02*
X010900Y004679D01*
X010945Y004697D02*
X009215Y004697D01*
X009215Y004598D02*
X009115Y004598D01*
X009115Y004500D02*
X009215Y004500D01*
X009215Y004401D02*
X009115Y004401D01*
X009115Y004303D02*
X009215Y004303D01*
X009215Y004204D02*
X009115Y004204D01*
X009115Y004106D02*
X009215Y004106D01*
X009215Y004007D02*
X009115Y004007D01*
X009115Y003909D02*
X009215Y003909D01*
X010065Y004795D02*
X011196Y004795D01*
X011358Y004859D02*
X011358Y004859D01*
X011823Y004894D02*
X010052Y004894D01*
X008864Y005583D02*
X008180Y005583D01*
X008139Y005485D02*
X008665Y005485D01*
X008544Y005386D02*
X008098Y005386D01*
X008037Y005288D02*
X008455Y005288D01*
X008388Y005189D02*
X007939Y005189D01*
X007840Y005091D02*
X008338Y005091D01*
X008301Y004992D02*
X007649Y004992D01*
X006876Y004204D02*
X006773Y004145D01*
X006680Y004073D01*
X006614Y004007D02*
X002719Y004007D01*
X002885Y003909D02*
X006534Y003909D01*
X006475Y003810D02*
X002976Y003810D01*
X003068Y003712D02*
X006431Y003712D01*
X006401Y003613D02*
X003159Y003613D01*
X003233Y003515D02*
X006382Y003515D01*
X006376Y003318D02*
X003327Y003318D01*
X003280Y003416D02*
X007225Y003416D01*
X007225Y003318D02*
X007325Y003318D01*
X007325Y003219D02*
X007225Y003219D01*
X007225Y003121D02*
X007325Y003121D01*
X007325Y003022D02*
X007225Y003022D01*
X007225Y002924D02*
X007325Y002924D01*
X007325Y002825D02*
X007225Y002825D01*
X007225Y002727D02*
X007325Y002727D01*
X007325Y002628D02*
X007225Y002628D01*
X007225Y002530D02*
X007325Y002530D01*
X007018Y002530D02*
X003486Y002530D01*
X003500Y002628D02*
X006799Y002628D01*
X006668Y002727D02*
X003485Y002727D01*
X003470Y002825D02*
X006575Y002825D01*
X006506Y002924D02*
X003455Y002924D01*
X003440Y003022D02*
X006454Y003022D01*
X006415Y003121D02*
X003422Y003121D01*
X003375Y003219D02*
X006389Y003219D01*
X001407Y004204D02*
X000350Y004204D01*
X000350Y004106D02*
X001156Y004106D01*
X000966Y004007D02*
X000350Y004007D01*
X000350Y003909D02*
X000843Y003909D01*
X000719Y003810D02*
X000350Y003810D01*
X000350Y003712D02*
X000616Y003712D01*
X000549Y003613D02*
X000350Y003613D01*
X000350Y003515D02*
X000482Y003515D01*
X000415Y003416D02*
X000350Y003416D01*
X000350Y003318D02*
X000356Y003318D01*
X000350Y008046D02*
X001696Y008046D01*
X001479Y008144D02*
X000350Y008144D01*
X000350Y008243D02*
X001380Y008243D01*
X001282Y008341D02*
X000350Y008341D01*
X000350Y008440D02*
X001225Y008440D01*
X001184Y008538D02*
X000350Y008538D01*
X000350Y008637D02*
X001143Y008637D01*
X001125Y008735D02*
X000350Y008735D01*
X000350Y008834D02*
X001125Y008834D01*
X001125Y008932D02*
X000350Y008932D01*
X000350Y009031D02*
X001130Y009031D01*
X001171Y009129D02*
X000350Y009129D01*
X000350Y009228D02*
X001211Y009228D01*
X001252Y009326D02*
X000350Y009326D01*
X000350Y009425D02*
X001347Y009425D01*
X001446Y009523D02*
X000350Y009523D01*
X003203Y011690D02*
X005620Y011690D01*
X005620Y011789D02*
X003214Y011789D01*
X003214Y011887D02*
X005504Y011887D01*
X005504Y011986D02*
X003214Y011986D01*
X003214Y012084D02*
X005504Y012084D01*
X005504Y012183D02*
X003214Y012183D01*
X003214Y012281D02*
X005504Y012281D01*
X005504Y012380D02*
X003214Y012380D01*
X003158Y012478D02*
X005505Y012478D01*
X006056Y012577D02*
X006378Y012577D01*
X006394Y012581D02*
X006356Y012571D01*
X006322Y012551D01*
X006294Y012523D01*
X006274Y012489D01*
X006264Y012451D01*
X006264Y012225D01*
X006600Y012225D01*
X006600Y012581D01*
X006394Y012581D01*
X006420Y012592D02*
X006356Y012656D01*
X006356Y013220D01*
X006420Y013284D01*
X006728Y013284D01*
X006792Y013220D01*
X006792Y013128D01*
X006884Y013128D01*
X006908Y013151D01*
X006908Y013373D01*
X006966Y013431D01*
X006960Y013433D01*
X006925Y013453D01*
X006897Y013481D01*
X006878Y013515D01*
X006868Y013553D01*
X006868Y013721D01*
X007146Y013721D01*
X007146Y013779D01*
X007146Y014077D01*
X006998Y014077D01*
X006960Y014067D01*
X006925Y014047D01*
X006897Y014019D01*
X006878Y013985D01*
X006868Y013947D01*
X006868Y013779D01*
X007146Y013779D01*
X007204Y013779D01*
X007204Y014077D01*
X007352Y014077D01*
X007390Y014067D01*
X007425Y014047D01*
X007453Y014019D01*
X007472Y013985D01*
X007482Y013947D01*
X007482Y013779D01*
X007204Y013779D01*
X007204Y013721D01*
X007482Y013721D01*
X007482Y013553D01*
X007472Y013515D01*
X007453Y013481D01*
X007425Y013453D01*
X007390Y013433D01*
X007384Y013431D01*
X007442Y013373D01*
X007442Y012927D01*
X007378Y012863D01*
X007157Y012863D01*
X007042Y012748D01*
X006792Y012748D01*
X006792Y012656D01*
X006728Y012592D01*
X006420Y012592D01*
X006356Y012675D02*
X006056Y012675D01*
X006056Y012774D02*
X006356Y012774D01*
X006356Y012872D02*
X006056Y012872D01*
X006056Y012971D02*
X006356Y012971D01*
X006356Y013069D02*
X006044Y013069D01*
X006044Y013168D02*
X006356Y013168D01*
X006402Y013266D02*
X005998Y013266D01*
X005654Y013266D02*
X005524Y013266D01*
X005537Y013168D02*
X005608Y013168D01*
X005608Y013069D02*
X005537Y013069D01*
X005497Y013562D02*
X006868Y013562D01*
X006868Y013660D02*
X006772Y013660D01*
X006792Y013759D02*
X007146Y013759D01*
X007204Y013759D02*
X007920Y013759D01*
X007920Y013857D02*
X007482Y013857D01*
X007480Y013956D02*
X007920Y013956D01*
X007920Y014054D02*
X007413Y014054D01*
X007204Y014054D02*
X007146Y014054D01*
X007146Y013956D02*
X007204Y013956D01*
X007204Y013857D02*
X007146Y013857D01*
X006868Y013857D02*
X006792Y013857D01*
X006792Y013956D02*
X006870Y013956D01*
X006937Y014054D02*
X006792Y014054D01*
X006792Y014153D02*
X007920Y014153D01*
X007849Y014251D02*
X006785Y014251D01*
X006204Y014251D02*
X006196Y014251D01*
X006196Y014153D02*
X006204Y014153D01*
X006196Y014054D02*
X006204Y014054D01*
X006196Y013956D02*
X006204Y013956D01*
X006196Y013857D02*
X006204Y013857D01*
X006196Y013759D02*
X006204Y013759D01*
X006196Y013660D02*
X006204Y013660D01*
X006746Y013266D02*
X006908Y013266D01*
X006908Y013168D02*
X006792Y013168D01*
X006908Y013365D02*
X001850Y013365D01*
X001850Y013463D02*
X006915Y013463D01*
X007435Y013463D02*
X007920Y013463D01*
X007920Y013365D02*
X007442Y013365D01*
X007442Y013266D02*
X007920Y013266D01*
X007920Y013168D02*
X007442Y013168D01*
X007442Y013069D02*
X007920Y013069D01*
X007920Y012971D02*
X007442Y012971D01*
X007387Y012872D02*
X007920Y012872D01*
X007920Y012774D02*
X007067Y012774D01*
X006944Y012571D02*
X006906Y012581D01*
X006700Y012581D01*
X006700Y012225D01*
X006600Y012225D01*
X006600Y012125D01*
X006264Y012125D01*
X006264Y011899D01*
X006274Y011861D01*
X006294Y011827D01*
X006322Y011799D01*
X006356Y011779D01*
X006394Y011769D01*
X006600Y011769D01*
X006600Y012125D01*
X006700Y012125D01*
X006700Y012225D01*
X007036Y012225D01*
X007036Y012451D01*
X007026Y012489D01*
X007006Y012523D01*
X006978Y012551D01*
X006944Y012571D01*
X006922Y012577D02*
X007920Y012577D01*
X007920Y012675D02*
X006792Y012675D01*
X006700Y012577D02*
X006600Y012577D01*
X006600Y012478D02*
X006700Y012478D01*
X006700Y012380D02*
X006600Y012380D01*
X006600Y012281D02*
X006700Y012281D01*
X006700Y012183D02*
X007920Y012183D01*
X007920Y012281D02*
X007036Y012281D01*
X007036Y012380D02*
X007920Y012380D01*
X007920Y012478D02*
X007029Y012478D01*
X006600Y012183D02*
X006196Y012183D01*
X006196Y012281D02*
X006264Y012281D01*
X006264Y012380D02*
X006196Y012380D01*
X006195Y012478D02*
X006271Y012478D01*
X006264Y012084D02*
X006196Y012084D01*
X006196Y011986D02*
X006264Y011986D01*
X006267Y011887D02*
X006196Y011887D01*
X006080Y011789D02*
X006340Y011789D01*
X006600Y011789D02*
X006700Y011789D01*
X006700Y011769D02*
X006906Y011769D01*
X006944Y011779D01*
X006978Y011799D01*
X007006Y011827D01*
X007026Y011861D01*
X007036Y011899D01*
X007036Y012125D01*
X006700Y012125D01*
X006700Y011769D01*
X006700Y011887D02*
X006600Y011887D01*
X006600Y011986D02*
X006700Y011986D01*
X006700Y012084D02*
X006600Y012084D01*
X007036Y012084D02*
X007920Y012084D01*
X007920Y011986D02*
X007036Y011986D01*
X007033Y011887D02*
X007920Y011887D01*
X007920Y011789D02*
X006960Y011789D01*
X006428Y011198D02*
X008152Y011198D01*
X008054Y011296D02*
X006329Y011296D01*
X006231Y011395D02*
X007955Y011395D01*
X007920Y011493D02*
X006132Y011493D01*
X006080Y011592D02*
X007920Y011592D01*
X007920Y011690D02*
X006080Y011690D01*
X006526Y011099D02*
X008251Y011099D01*
X008349Y011001D02*
X006625Y011001D01*
X006723Y010902D02*
X008448Y010902D01*
X008670Y010705D02*
X009295Y010705D01*
X009393Y010607D02*
X008769Y010607D01*
X008867Y010508D02*
X009492Y010508D01*
X009590Y010410D02*
X008966Y010410D01*
X009064Y010311D02*
X009689Y010311D01*
X009628Y010372D02*
X009628Y010372D01*
X009261Y010114D02*
X010394Y010114D01*
X010382Y010213D02*
X009163Y010213D01*
X008808Y009917D02*
X008777Y009917D01*
X008709Y010016D02*
X008678Y010016D01*
X008611Y010114D02*
X008563Y010114D01*
X008512Y010213D02*
X008465Y010213D01*
X008874Y010804D02*
X006822Y010804D01*
X008380Y011986D02*
X008819Y011986D01*
X008819Y012084D02*
X008380Y012084D01*
X008380Y012183D02*
X008826Y012183D01*
X008930Y012281D02*
X008380Y012281D01*
X008380Y012380D02*
X010382Y012380D01*
X010393Y012281D02*
X009520Y012281D01*
X009275Y012281D02*
X009175Y012281D01*
X009175Y012183D02*
X009275Y012183D01*
X009275Y012084D02*
X009175Y012084D01*
X009175Y011986D02*
X009275Y011986D01*
X009275Y011690D02*
X009175Y011690D01*
X009175Y011592D02*
X009275Y011592D01*
X009847Y010804D02*
X010382Y010804D01*
X010382Y010705D02*
X009945Y010705D01*
X010022Y012478D02*
X008380Y012478D01*
X008380Y012577D02*
X009923Y012577D01*
X009955Y012545D02*
X009955Y012545D01*
X009962Y012537D02*
X009962Y012537D01*
X009825Y012675D02*
X008380Y012675D01*
X008380Y012774D02*
X009820Y012774D01*
X009820Y012872D02*
X009607Y012872D01*
X009480Y012872D02*
X009480Y012872D01*
X009480Y012870D02*
X009480Y013260D01*
X009480Y013260D01*
X009480Y013260D01*
X009230Y013260D01*
X009230Y013000D01*
X009240Y012962D01*
X009260Y012928D01*
X009288Y012900D01*
X009322Y012880D01*
X009360Y012870D01*
X009480Y012870D01*
X009480Y012971D02*
X009480Y012971D01*
X009480Y013069D02*
X009480Y013069D01*
X009480Y013168D02*
X009480Y013168D01*
X009230Y013168D02*
X008380Y013168D01*
X008380Y013266D02*
X009230Y013266D01*
X009230Y013365D02*
X008380Y013365D01*
X008380Y013463D02*
X009230Y013463D01*
X009242Y013562D02*
X008380Y013562D01*
X008380Y013660D02*
X009247Y013660D01*
X009220Y013759D02*
X008380Y013759D01*
X008380Y013857D02*
X009233Y013857D01*
X009270Y013956D02*
X008380Y013956D01*
X008380Y014054D02*
X009270Y014054D01*
X009270Y014153D02*
X008380Y014153D01*
X008380Y014251D02*
X009270Y014251D01*
X009270Y014350D02*
X008380Y014350D01*
X008302Y014448D02*
X009270Y014448D01*
X009291Y014547D02*
X008204Y014547D01*
X007750Y014350D02*
X006056Y014350D01*
X006191Y014448D02*
X007652Y014448D01*
X007482Y013660D02*
X007920Y013660D01*
X007920Y013562D02*
X007482Y013562D01*
X008380Y013069D02*
X009230Y013069D01*
X009238Y012971D02*
X008380Y012971D01*
X008380Y012872D02*
X009353Y012872D01*
X010510Y014744D02*
X011140Y014744D01*
X011140Y014842D02*
X010510Y014842D01*
X010510Y014941D02*
X011140Y014941D01*
X011140Y015039D02*
X010510Y015039D01*
X010510Y015138D02*
X011140Y015138D01*
X011140Y015236D02*
X010510Y015236D01*
X010510Y015335D02*
X011140Y015335D01*
X011140Y015433D02*
X010510Y015433D01*
X010510Y015532D02*
X011140Y015532D01*
X011140Y015630D02*
X010510Y015630D01*
X010510Y015729D02*
X011140Y015729D01*
X011146Y015827D02*
X010504Y015827D01*
X011520Y015926D02*
X000350Y015926D01*
X000350Y016024D02*
X011520Y016024D01*
X011520Y016123D02*
X000350Y016123D01*
X000350Y016221D02*
X011520Y016221D01*
X011520Y016320D02*
X000350Y016320D01*
X000350Y016418D02*
X011520Y016418D01*
X011520Y016517D02*
X000350Y016517D01*
X000350Y016615D02*
X011520Y016615D01*
X011520Y016714D02*
X000350Y016714D01*
X000350Y016812D02*
X011520Y016812D01*
X011520Y016911D02*
X000350Y016911D01*
X000350Y017009D02*
X011520Y017009D01*
X011520Y017108D02*
X000350Y017108D01*
X000350Y017206D02*
X011520Y017206D01*
X011520Y017305D02*
X000350Y017305D01*
X000350Y017403D02*
X011520Y017403D01*
X011520Y017502D02*
X000350Y017502D01*
X000350Y017600D02*
X011520Y017600D01*
X011520Y017699D02*
X000350Y017699D01*
X000350Y017797D02*
X011520Y017797D01*
X011520Y017896D02*
X000350Y017896D01*
X000350Y017994D02*
X011544Y017994D01*
X011642Y018093D02*
X000350Y018093D01*
X000350Y018191D02*
X011741Y018191D01*
X011839Y018290D02*
X000350Y018290D01*
X000350Y018388D02*
X011938Y018388D01*
X012036Y018487D02*
X000350Y018487D01*
X000350Y018585D02*
X000756Y018585D01*
X000739Y018596D02*
X000805Y018552D01*
X000878Y018522D01*
X000955Y018507D01*
X000966Y018507D01*
X000966Y018878D01*
X001023Y018878D01*
X001023Y018935D01*
X001394Y018935D01*
X001394Y018946D01*
X001379Y019023D01*
X001349Y019096D01*
X001305Y019162D01*
X001249Y019217D01*
X001184Y019261D01*
X001111Y019291D01*
X001034Y019307D01*
X001023Y019307D01*
X001023Y018935D01*
X000966Y018935D01*
X000966Y018878D01*
X000594Y018878D01*
X000594Y018867D01*
X000610Y018790D01*
X000640Y018717D01*
X000684Y018652D01*
X000739Y018596D01*
X000662Y018684D02*
X000350Y018684D01*
X000350Y018782D02*
X000613Y018782D01*
X000594Y018935D02*
X000966Y018935D01*
X000966Y019307D01*
X000955Y019307D01*
X000878Y019291D01*
X000805Y019261D01*
X000739Y019217D01*
X000684Y019162D01*
X000640Y019096D01*
X000610Y019023D01*
X000594Y018946D01*
X000594Y018935D01*
X000601Y018979D02*
X000350Y018979D01*
X000350Y018881D02*
X000966Y018881D01*
X001023Y018881D02*
X009296Y018881D01*
X009296Y018835D02*
X009351Y018703D01*
X009452Y018601D01*
X009584Y018547D01*
X009727Y018547D01*
X009860Y018601D01*
X009961Y018703D01*
X010016Y018835D01*
X010016Y018978D01*
X009961Y019111D01*
X009860Y019212D01*
X009727Y019267D01*
X009584Y019267D01*
X009452Y019212D01*
X009351Y019111D01*
X009296Y018978D01*
X009296Y018835D01*
X009318Y018782D02*
X001376Y018782D01*
X001379Y018790D02*
X001394Y018867D01*
X001394Y018878D01*
X001023Y018878D01*
X001023Y018507D01*
X001034Y018507D01*
X001111Y018522D01*
X001184Y018552D01*
X001249Y018596D01*
X001305Y018652D01*
X001349Y018717D01*
X001379Y018790D01*
X001326Y018684D02*
X009370Y018684D01*
X009491Y018585D02*
X001233Y018585D01*
X001023Y018585D02*
X000966Y018585D01*
X000966Y018684D02*
X001023Y018684D01*
X001023Y018782D02*
X000966Y018782D01*
X000966Y018979D02*
X001023Y018979D01*
X001023Y019078D02*
X000966Y019078D01*
X000966Y019176D02*
X001023Y019176D01*
X001023Y019275D02*
X000966Y019275D01*
X000923Y019334D02*
X001066Y019334D01*
X001198Y019389D01*
X001299Y019490D01*
X001354Y019622D01*
X001354Y019766D01*
X001299Y019898D01*
X001198Y019999D01*
X001066Y020054D01*
X000923Y020054D01*
X000790Y019999D01*
X000689Y019898D01*
X000634Y019766D01*
X000634Y019622D01*
X000689Y019490D01*
X000790Y019389D01*
X000923Y019334D01*
X000829Y019373D02*
X000350Y019373D01*
X000350Y019275D02*
X000837Y019275D01*
X000698Y019176D02*
X000350Y019176D01*
X000350Y019078D02*
X000632Y019078D01*
X000708Y019472D02*
X000350Y019472D01*
X000350Y019570D02*
X000656Y019570D01*
X000634Y019669D02*
X000350Y019669D01*
X000350Y019767D02*
X000635Y019767D01*
X000676Y019866D02*
X000350Y019866D01*
X000350Y019964D02*
X000755Y019964D01*
X000827Y020161D02*
X000350Y020161D01*
X000350Y020063D02*
X016612Y020063D01*
X016711Y020161D02*
X009823Y020161D01*
X009860Y020176D02*
X009961Y020278D01*
X010016Y020410D01*
X010016Y020553D01*
X009961Y020685D01*
X009860Y020787D01*
X009727Y020841D01*
X009584Y020841D01*
X009452Y020787D01*
X009351Y020685D01*
X009296Y020553D01*
X009296Y020410D01*
X009351Y020278D01*
X009452Y020176D01*
X009584Y020121D01*
X009727Y020121D01*
X009860Y020176D01*
X009943Y020260D02*
X016809Y020260D01*
X016908Y020358D02*
X014844Y020358D01*
X014629Y020358D02*
X014571Y020358D01*
X014571Y020457D02*
X014629Y020457D01*
X014629Y020555D02*
X014571Y020555D01*
X014571Y020654D02*
X009974Y020654D01*
X010015Y020555D02*
X014273Y020555D01*
X014277Y020457D02*
X010016Y020457D01*
X009994Y020358D02*
X014356Y020358D01*
X014273Y020752D02*
X009894Y020752D01*
X009824Y020949D02*
X013415Y020949D01*
X013355Y021048D02*
X009943Y021048D01*
X009961Y021065D02*
X009860Y020964D01*
X009727Y020909D01*
X009584Y020909D01*
X009452Y020964D01*
X009351Y021065D01*
X009296Y021197D01*
X009296Y021341D01*
X009351Y021473D01*
X009452Y021574D01*
X009584Y021629D01*
X009727Y021629D01*
X009860Y021574D01*
X009961Y021473D01*
X010016Y021341D01*
X010016Y021197D01*
X009961Y021065D01*
X009994Y021146D02*
X013355Y021146D01*
X013359Y021245D02*
X010016Y021245D01*
X010015Y021343D02*
X013355Y021343D01*
X013355Y021442D02*
X009974Y021442D01*
X009894Y021540D02*
X012801Y021540D01*
X012681Y021639D02*
X002922Y021639D01*
X002919Y021641D02*
X002826Y021680D01*
X002724Y021680D01*
X002631Y021641D01*
X002604Y021615D01*
X002577Y021615D01*
X002577Y021628D01*
X002513Y021692D01*
X002460Y021692D01*
X002460Y021785D01*
X002513Y021785D01*
X002577Y021849D01*
X002577Y022256D01*
X002513Y022320D01*
X002067Y022320D01*
X002003Y022256D01*
X002003Y021849D01*
X002067Y021785D01*
X002120Y021785D01*
X002120Y021692D01*
X002067Y021692D01*
X002009Y021634D01*
X002007Y021640D01*
X001987Y021675D01*
X001959Y021703D01*
X001925Y021722D01*
X001887Y021732D01*
X001719Y021732D01*
X001719Y021454D01*
X001661Y021454D01*
X001661Y021732D01*
X001493Y021732D01*
X001455Y021722D01*
X001421Y021703D01*
X001393Y021675D01*
X001373Y021640D01*
X001363Y021602D01*
X001363Y021454D01*
X001661Y021454D01*
X001661Y021396D01*
X001719Y021396D01*
X001719Y021118D01*
X001887Y021118D01*
X001925Y021128D01*
X001959Y021147D01*
X001987Y021175D01*
X002007Y021210D01*
X002009Y021216D01*
X002067Y021158D01*
X002513Y021158D01*
X002577Y021222D01*
X002577Y021235D01*
X002604Y021235D01*
X002631Y021209D01*
X002724Y021170D01*
X002826Y021170D01*
X002919Y021209D01*
X002991Y021281D01*
X003030Y021374D01*
X003030Y021476D01*
X002991Y021569D01*
X002919Y021641D01*
X003003Y021540D02*
X009418Y021540D01*
X009338Y021442D02*
X003030Y021442D01*
X003017Y021343D02*
X009297Y021343D01*
X009296Y021245D02*
X002955Y021245D01*
X002628Y021639D02*
X002567Y021639D01*
X002460Y021737D02*
X009486Y021737D01*
X009452Y021751D02*
X009584Y021696D01*
X009727Y021696D01*
X009860Y021751D01*
X009961Y021852D01*
X010016Y021985D01*
X010016Y022128D01*
X009961Y022260D01*
X009860Y022361D01*
X009727Y022416D01*
X009584Y022416D01*
X009452Y022361D01*
X009351Y022260D01*
X009296Y022128D01*
X009296Y021985D01*
X009351Y021852D01*
X009452Y021751D01*
X009367Y021836D02*
X002563Y021836D01*
X002577Y021934D02*
X009317Y021934D01*
X009296Y022033D02*
X002577Y022033D01*
X002577Y022131D02*
X009297Y022131D01*
X009338Y022230D02*
X002577Y022230D01*
X002003Y022230D02*
X001977Y022230D01*
X001977Y022256D02*
X001913Y022320D01*
X001467Y022320D01*
X001403Y022256D01*
X001403Y022222D01*
X001315Y022222D01*
X001299Y022260D01*
X001198Y022361D01*
X001066Y022416D01*
X000923Y022416D01*
X000790Y022361D01*
X000689Y022260D01*
X000634Y022128D01*
X000634Y021985D01*
X000689Y021852D01*
X000790Y021751D01*
X000923Y021696D01*
X001066Y021696D01*
X001198Y021751D01*
X001299Y021852D01*
X001312Y021883D01*
X001403Y021883D01*
X001403Y021849D01*
X001467Y021785D01*
X001913Y021785D01*
X001977Y021849D01*
X001977Y022256D01*
X001977Y022131D02*
X002003Y022131D01*
X002003Y022033D02*
X001977Y022033D01*
X001977Y021934D02*
X002003Y021934D01*
X002017Y021836D02*
X001963Y021836D01*
X002120Y021737D02*
X001164Y021737D01*
X001066Y021629D02*
X000923Y021629D01*
X000790Y021574D01*
X000689Y021473D01*
X000634Y021341D01*
X000634Y021197D01*
X000689Y021065D01*
X000790Y020964D01*
X000923Y020909D01*
X001066Y020909D01*
X001198Y020964D01*
X001299Y021065D01*
X001354Y021197D01*
X001354Y021341D01*
X001299Y021473D01*
X001198Y021574D01*
X001066Y021629D01*
X001232Y021540D02*
X001363Y021540D01*
X001373Y021639D02*
X000350Y021639D01*
X000350Y021737D02*
X000824Y021737D01*
X000706Y021836D02*
X000350Y021836D01*
X000350Y021934D02*
X000655Y021934D01*
X000634Y022033D02*
X000350Y022033D01*
X000350Y022131D02*
X000636Y022131D01*
X000676Y022230D02*
X000350Y022230D01*
X000350Y022328D02*
X000757Y022328D01*
X000823Y022525D02*
X000350Y022525D01*
X000350Y022427D02*
X011333Y022427D01*
X011235Y022525D02*
X009827Y022525D01*
X009860Y022539D02*
X009961Y022640D01*
X010016Y022772D01*
X010016Y022915D01*
X009961Y023048D01*
X009860Y023149D01*
X009727Y023204D01*
X009584Y023204D01*
X009452Y023149D01*
X009351Y023048D01*
X009296Y022915D01*
X009296Y022772D01*
X009351Y022640D01*
X009452Y022539D01*
X009584Y022484D01*
X009727Y022484D01*
X009860Y022539D01*
X009945Y022624D02*
X011136Y022624D01*
X011038Y022722D02*
X009995Y022722D01*
X010016Y022821D02*
X010939Y022821D01*
X010841Y022919D02*
X010014Y022919D01*
X009973Y023018D02*
X010742Y023018D01*
X010644Y023116D02*
X009892Y023116D01*
X009829Y023313D02*
X010447Y023313D01*
X010545Y023215D02*
X000864Y023215D01*
X000821Y023313D02*
X000765Y023313D01*
X000482Y023116D02*
X000350Y023116D01*
X000350Y023018D02*
X000580Y023018D01*
X000636Y022919D02*
X000350Y022919D01*
X000350Y022821D02*
X000634Y022821D01*
X000655Y022722D02*
X000350Y022722D01*
X000350Y022624D02*
X000705Y022624D01*
X001166Y022525D02*
X009484Y022525D01*
X009367Y022624D02*
X001283Y022624D01*
X001232Y022328D02*
X009418Y022328D01*
X009316Y022722D02*
X005778Y022722D01*
X005821Y022821D02*
X009296Y022821D01*
X009297Y022919D02*
X005821Y022919D01*
X005726Y023018D02*
X009338Y023018D01*
X009419Y023116D02*
X001231Y023116D01*
X001167Y023313D02*
X009483Y023313D01*
X009366Y023412D02*
X001284Y023412D01*
X001334Y023510D02*
X009316Y023510D01*
X009296Y023609D02*
X001354Y023609D01*
X001352Y023707D02*
X009298Y023707D01*
X009338Y023806D02*
X001312Y023806D01*
X001230Y023904D02*
X009381Y023904D01*
X009282Y024003D02*
X000745Y024003D01*
X000745Y024101D02*
X000820Y024101D01*
X000758Y023904D02*
X000745Y023904D01*
X000405Y023904D02*
X000350Y023904D01*
X000350Y023806D02*
X000405Y023806D01*
X000405Y023707D02*
X000350Y023707D01*
X000350Y023609D02*
X000405Y023609D01*
X000405Y023510D02*
X000350Y023510D01*
X000350Y023412D02*
X000405Y023412D01*
X000405Y023313D02*
X000350Y023313D01*
X000350Y023215D02*
X000405Y023215D01*
X000405Y024003D02*
X000350Y024003D01*
X000350Y024101D02*
X000405Y024101D01*
X000405Y024200D02*
X000350Y024200D01*
X000350Y024298D02*
X000405Y024298D01*
X000405Y024397D02*
X000350Y024397D01*
X000350Y024495D02*
X000405Y024495D01*
X000405Y024594D02*
X000350Y024594D01*
X000350Y024692D02*
X000405Y024692D01*
X000405Y024791D02*
X000350Y024791D01*
X000350Y024889D02*
X000405Y024889D01*
X000405Y024988D02*
X000350Y024988D01*
X000350Y025086D02*
X000405Y025086D01*
X000405Y025185D02*
X000350Y025185D01*
X000350Y025283D02*
X000405Y025283D01*
X000405Y025382D02*
X000350Y025382D01*
X000350Y025480D02*
X000405Y025480D01*
X000405Y025579D02*
X000350Y025579D01*
X000350Y025677D02*
X000438Y025677D01*
X000350Y025776D02*
X000536Y025776D01*
X000635Y025874D02*
X000350Y025874D01*
X000350Y025973D02*
X000634Y025973D01*
X000637Y026071D02*
X000350Y026071D01*
X000350Y026170D02*
X000678Y026170D01*
X000760Y026268D02*
X000350Y026268D01*
X000350Y026367D02*
X001267Y026367D01*
X001229Y026268D02*
X001335Y026268D01*
X001311Y026170D02*
X001402Y026170D01*
X001352Y026071D02*
X001469Y026071D01*
X001553Y025973D02*
X001354Y025973D01*
X001354Y025874D02*
X001677Y025874D01*
X001800Y025776D02*
X001452Y025776D01*
X001551Y025677D02*
X001948Y025677D01*
X002199Y025579D02*
X001649Y025579D01*
X001221Y026465D02*
X000350Y026465D01*
X000350Y026564D02*
X001191Y026564D01*
X001160Y026662D02*
X000350Y026662D01*
X000350Y026761D02*
X001130Y026761D01*
X001100Y026859D02*
X000350Y026859D01*
X000350Y026958D02*
X001093Y026958D01*
X001093Y027056D02*
X000350Y027056D01*
X000350Y027155D02*
X001093Y027155D01*
X001093Y027253D02*
X000350Y027253D01*
X000350Y027352D02*
X001093Y027352D01*
X001118Y027450D02*
X000350Y027450D01*
X000350Y027549D02*
X001148Y027549D01*
X001179Y027647D02*
X000350Y027647D01*
X000350Y027746D02*
X001209Y027746D01*
X001241Y027844D02*
X000350Y027844D01*
X000350Y027943D02*
X001308Y027943D01*
X001375Y028041D02*
X000350Y028041D01*
X000350Y028140D02*
X001442Y028140D01*
X001509Y028238D02*
X000350Y028238D01*
X000350Y028337D02*
X001627Y028337D01*
X001751Y028435D02*
X000350Y028435D01*
X000350Y028534D02*
X001874Y028534D01*
X003548Y028534D02*
X032874Y028534D01*
X032751Y028435D02*
X003719Y028435D01*
X003827Y028337D02*
X032627Y028337D01*
X032509Y028238D02*
X003918Y028238D01*
X004009Y028140D02*
X032442Y028140D01*
X032375Y028041D02*
X004095Y028041D01*
X004142Y027943D02*
X032308Y027943D01*
X032241Y027844D02*
X004190Y027844D01*
X004237Y027746D02*
X032209Y027746D01*
X032179Y027647D02*
X020829Y027647D01*
X021029Y027549D02*
X032148Y027549D01*
X032118Y027450D02*
X021200Y027450D01*
X021339Y027352D02*
X032093Y027352D01*
X032093Y027253D02*
X021431Y027253D01*
X021522Y027155D02*
X032093Y027155D01*
X032093Y027056D02*
X021614Y027056D01*
X021673Y026958D02*
X032093Y026958D01*
X032100Y026859D02*
X021720Y026859D01*
X021768Y026761D02*
X032130Y026761D01*
X032160Y026662D02*
X021815Y026662D01*
X021855Y026564D02*
X032191Y026564D01*
X032221Y026465D02*
X021870Y026465D01*
X021885Y026367D02*
X032267Y026367D01*
X031921Y026268D02*
X023729Y026268D01*
X023811Y026170D02*
X024004Y026170D01*
X023988Y025776D02*
X023786Y025776D01*
X023672Y025677D02*
X024105Y025677D01*
X024105Y025579D02*
X022944Y025579D01*
X023042Y025677D02*
X023317Y025677D01*
X023203Y025776D02*
X023141Y025776D01*
X023290Y025511D02*
X023189Y025410D01*
X023134Y025278D01*
X023134Y025134D01*
X023189Y025002D01*
X023290Y024901D01*
X023423Y024846D01*
X023566Y024846D01*
X023698Y024901D01*
X023799Y025002D01*
X023854Y025134D01*
X023854Y025278D01*
X023799Y025410D01*
X023698Y025511D01*
X023566Y025566D01*
X023423Y025566D01*
X023290Y025511D01*
X023259Y025480D02*
X022845Y025480D01*
X022747Y025382D02*
X023177Y025382D01*
X023137Y025283D02*
X022695Y025283D01*
X022695Y025185D02*
X023134Y025185D01*
X023154Y025086D02*
X022695Y025086D01*
X022695Y024988D02*
X023204Y024988D01*
X023318Y024889D02*
X022695Y024889D01*
X022695Y024791D02*
X024105Y024791D01*
X024105Y024889D02*
X023670Y024889D01*
X023785Y024988D02*
X024105Y024988D01*
X024105Y025086D02*
X023834Y025086D01*
X023854Y025185D02*
X024105Y025185D01*
X024105Y025283D02*
X023852Y025283D01*
X023811Y025382D02*
X024105Y025382D01*
X024105Y025480D02*
X023729Y025480D01*
X024445Y025480D02*
X031921Y025480D01*
X031952Y025511D02*
X031851Y025410D01*
X031796Y025278D01*
X031796Y025134D01*
X031851Y025002D01*
X031952Y024901D01*
X032084Y024846D01*
X032227Y024846D01*
X032360Y024901D01*
X032461Y025002D01*
X032516Y025134D01*
X032516Y025278D01*
X032461Y025410D01*
X032360Y025511D01*
X032227Y025566D01*
X032084Y025566D01*
X031952Y025511D01*
X031978Y025677D02*
X025149Y025677D01*
X025202Y025776D02*
X031864Y025776D01*
X031815Y025874D02*
X025202Y025874D01*
X025202Y026071D02*
X031798Y026071D01*
X031796Y025973D02*
X024904Y025973D01*
X024904Y026071D02*
X024846Y026071D01*
X024846Y026170D02*
X024904Y026170D01*
X025190Y026170D02*
X031839Y026170D01*
X032333Y025677D02*
X032948Y025677D01*
X032800Y025776D02*
X032447Y025776D01*
X032496Y025874D02*
X032677Y025874D01*
X032553Y025973D02*
X032516Y025973D01*
X032391Y025480D02*
X033842Y025480D01*
X033850Y025480D02*
X035200Y025480D01*
X035200Y025382D02*
X032473Y025382D01*
X032513Y025283D02*
X035200Y025283D01*
X035200Y025185D02*
X032516Y025185D01*
X032496Y025086D02*
X035200Y025086D01*
X035200Y024988D02*
X032446Y024988D01*
X032332Y024889D02*
X035200Y024889D01*
X035200Y024791D02*
X024445Y024791D01*
X024445Y024889D02*
X031980Y024889D01*
X031865Y024988D02*
X024445Y024988D01*
X024445Y025086D02*
X031816Y025086D01*
X031796Y025185D02*
X024445Y025185D01*
X024445Y025283D02*
X031798Y025283D01*
X031839Y025382D02*
X024445Y025382D01*
X024445Y025579D02*
X033199Y025579D01*
X034282Y025579D02*
X035200Y025579D01*
X035200Y025677D02*
X034480Y025677D01*
X034651Y025776D02*
X035200Y025776D01*
X035200Y025874D02*
X034790Y025874D01*
X034881Y025973D02*
X035200Y025973D01*
X035200Y026071D02*
X034973Y026071D01*
X035064Y026170D02*
X035200Y026170D01*
X035200Y026268D02*
X035123Y026268D01*
X035171Y026367D02*
X035200Y026367D01*
X035200Y024692D02*
X032391Y024692D01*
X032360Y024724D02*
X032227Y024779D01*
X032084Y024779D01*
X031952Y024724D01*
X031851Y024622D01*
X031796Y024490D01*
X031796Y024347D01*
X031851Y024215D01*
X031952Y024113D01*
X032084Y024059D01*
X032227Y024059D01*
X032360Y024113D01*
X032461Y024215D01*
X032516Y024347D01*
X032516Y024490D01*
X032461Y024622D01*
X032360Y024724D01*
X032473Y024594D02*
X035200Y024594D01*
X035200Y024495D02*
X032514Y024495D01*
X032516Y024397D02*
X035200Y024397D01*
X035200Y024298D02*
X032495Y024298D01*
X032446Y024200D02*
X035200Y024200D01*
X035200Y024101D02*
X032330Y024101D01*
X032227Y023991D02*
X032084Y023991D01*
X031952Y023936D01*
X031851Y023835D01*
X031796Y023703D01*
X031796Y023559D01*
X031851Y023427D01*
X031952Y023326D01*
X032084Y023271D01*
X032227Y023271D01*
X032360Y023326D01*
X032461Y023427D01*
X032516Y023559D01*
X032516Y023703D01*
X032461Y023835D01*
X032360Y023936D01*
X032227Y023991D01*
X032392Y023904D02*
X035200Y023904D01*
X035200Y023806D02*
X032473Y023806D01*
X032514Y023707D02*
X035200Y023707D01*
X035200Y023609D02*
X032516Y023609D01*
X032495Y023510D02*
X035200Y023510D01*
X035200Y023412D02*
X032445Y023412D01*
X032329Y023313D02*
X035200Y023313D01*
X035200Y023215D02*
X024106Y023215D01*
X024204Y023313D02*
X031983Y023313D01*
X032084Y023204D02*
X031952Y023149D01*
X031851Y023048D01*
X031796Y022915D01*
X031796Y022772D01*
X031851Y022640D01*
X031952Y022539D01*
X032084Y022484D01*
X032227Y022484D01*
X032360Y022539D01*
X032461Y022640D01*
X032516Y022772D01*
X032516Y022915D01*
X032461Y023048D01*
X032360Y023149D01*
X032227Y023204D01*
X032084Y023204D01*
X031919Y023116D02*
X024007Y023116D01*
X023909Y023018D02*
X031838Y023018D01*
X031797Y022919D02*
X023853Y022919D01*
X023854Y022821D02*
X031796Y022821D01*
X031816Y022722D02*
X023834Y022722D01*
X023783Y022624D02*
X031867Y022624D01*
X031984Y022525D02*
X023666Y022525D01*
X023566Y022416D02*
X023423Y022416D01*
X023290Y022361D01*
X023189Y022260D01*
X023134Y022128D01*
X023134Y021985D01*
X023189Y021852D01*
X023290Y021751D01*
X023423Y021696D01*
X023566Y021696D01*
X023698Y021751D01*
X023799Y021852D01*
X023814Y021888D01*
X024153Y021888D01*
X024153Y021854D01*
X024217Y021790D01*
X024663Y021790D01*
X024727Y021854D01*
X024727Y022261D01*
X024663Y022325D01*
X024217Y022325D01*
X024153Y022261D01*
X024153Y022227D01*
X023813Y022227D01*
X023799Y022260D01*
X023698Y022361D01*
X023566Y022416D01*
X023732Y022328D02*
X031918Y022328D01*
X031952Y022361D02*
X031851Y022260D01*
X031796Y022128D01*
X031796Y021985D01*
X031851Y021852D01*
X031952Y021751D01*
X032084Y021696D01*
X032227Y021696D01*
X032360Y021751D01*
X032461Y021852D01*
X032516Y021985D01*
X032516Y022128D01*
X032461Y022260D01*
X032360Y022361D01*
X032227Y022416D01*
X032084Y022416D01*
X031952Y022361D01*
X031838Y022230D02*
X025327Y022230D01*
X025327Y022261D02*
X025263Y022325D01*
X024817Y022325D01*
X024753Y022261D01*
X024753Y021854D01*
X024817Y021790D01*
X024870Y021790D01*
X024870Y021697D01*
X024817Y021697D01*
X024759Y021639D01*
X024757Y021645D01*
X024737Y021680D01*
X024709Y021708D01*
X024675Y021727D01*
X024637Y021737D01*
X024469Y021737D01*
X024411Y021737D01*
X024243Y021737D01*
X024205Y021727D01*
X024171Y021708D01*
X024143Y021680D01*
X024123Y021645D01*
X024113Y021607D01*
X024113Y021459D01*
X024411Y021459D01*
X024411Y021737D01*
X024469Y021737D02*
X024469Y021459D01*
X024411Y021459D01*
X024411Y021401D01*
X024469Y021401D01*
X024469Y021123D01*
X024637Y021123D01*
X024675Y021133D01*
X024709Y021152D01*
X024737Y021180D01*
X024757Y021215D01*
X024759Y021221D01*
X024817Y021163D01*
X024905Y021163D01*
X024905Y020891D01*
X024859Y020844D01*
X024820Y020751D01*
X024820Y020649D01*
X024859Y020556D01*
X024931Y020484D01*
X025024Y020445D01*
X025126Y020445D01*
X025219Y020484D01*
X025291Y020556D01*
X025330Y020649D01*
X025330Y020751D01*
X025291Y020844D01*
X025245Y020891D01*
X025245Y021163D01*
X025263Y021163D01*
X025327Y021227D01*
X025327Y021633D01*
X025263Y021697D01*
X025210Y021697D01*
X025210Y021790D01*
X025263Y021790D01*
X025327Y021854D01*
X025327Y022261D01*
X025327Y022131D02*
X031797Y022131D01*
X031796Y022033D02*
X025327Y022033D01*
X025327Y021934D02*
X031817Y021934D01*
X031867Y021836D02*
X025308Y021836D01*
X025210Y021737D02*
X031986Y021737D01*
X032084Y021629D02*
X031952Y021574D01*
X031851Y021473D01*
X031796Y021341D01*
X031796Y021197D01*
X031851Y021065D01*
X031952Y020964D01*
X032084Y020909D01*
X032227Y020909D01*
X032360Y020964D01*
X032461Y021065D01*
X032516Y021197D01*
X032516Y021341D01*
X032461Y021473D01*
X032360Y021574D01*
X032227Y021629D01*
X032084Y021629D01*
X031918Y021540D02*
X025327Y021540D01*
X025327Y021442D02*
X031838Y021442D01*
X031797Y021343D02*
X025327Y021343D01*
X025327Y021245D02*
X031796Y021245D01*
X031817Y021146D02*
X025245Y021146D01*
X025245Y021048D02*
X031868Y021048D01*
X031987Y020949D02*
X025245Y020949D01*
X025285Y020851D02*
X035200Y020851D01*
X035200Y020949D02*
X032324Y020949D01*
X032227Y020841D02*
X032084Y020841D01*
X031952Y020787D01*
X031851Y020685D01*
X031796Y020553D01*
X031796Y020410D01*
X031851Y020278D01*
X031952Y020176D01*
X032084Y020121D01*
X032227Y020121D01*
X032360Y020176D01*
X032461Y020278D01*
X032516Y020410D01*
X032516Y020553D01*
X032461Y020685D01*
X032360Y020787D01*
X032227Y020841D01*
X032394Y020752D02*
X035200Y020752D01*
X035200Y020654D02*
X032474Y020654D01*
X032515Y020555D02*
X035200Y020555D01*
X035200Y020457D02*
X032516Y020457D01*
X032494Y020358D02*
X035200Y020358D01*
X035200Y020260D02*
X032443Y020260D01*
X032323Y020161D02*
X035200Y020161D01*
X035200Y020063D02*
X021705Y020063D01*
X021705Y019971D02*
X021424Y019690D01*
X021026Y019690D01*
X020745Y019971D01*
X020745Y020369D01*
X021026Y020650D01*
X021424Y020650D01*
X021705Y020369D01*
X021705Y019971D01*
X021698Y019964D02*
X023255Y019964D01*
X023290Y019999D02*
X023189Y019898D01*
X023134Y019766D01*
X023134Y019622D01*
X023189Y019490D01*
X023290Y019389D01*
X023423Y019334D01*
X023566Y019334D01*
X023698Y019389D01*
X023799Y019490D01*
X023854Y019622D01*
X023854Y019766D01*
X023799Y019898D01*
X023698Y019999D01*
X023566Y020054D01*
X023423Y020054D01*
X023290Y019999D01*
X023327Y020161D02*
X021705Y020161D01*
X021705Y020260D02*
X023207Y020260D01*
X023189Y020278D02*
X023290Y020176D01*
X023423Y020121D01*
X023566Y020121D01*
X023698Y020176D01*
X023799Y020278D01*
X023854Y020410D01*
X023854Y020553D01*
X023799Y020685D01*
X023698Y020787D01*
X023566Y020841D01*
X023423Y020841D01*
X023290Y020787D01*
X023189Y020685D01*
X023134Y020553D01*
X023134Y020410D01*
X023189Y020278D01*
X023156Y020358D02*
X021705Y020358D01*
X021617Y020457D02*
X023134Y020457D01*
X023135Y020555D02*
X021519Y020555D01*
X021424Y020690D02*
X021705Y020971D01*
X021705Y021369D01*
X021652Y021422D01*
X022171Y022056D01*
X022895Y022780D01*
X022995Y022880D01*
X022995Y023679D01*
X023389Y024073D01*
X023423Y024059D01*
X023566Y024059D01*
X023698Y024113D01*
X023799Y024215D01*
X023854Y024347D01*
X023854Y024490D01*
X023799Y024622D01*
X023698Y024724D01*
X023566Y024779D01*
X023423Y024779D01*
X023290Y024724D01*
X023189Y024622D01*
X023134Y024490D01*
X023134Y024347D01*
X023148Y024313D01*
X022655Y023820D01*
X022655Y023020D01*
X021968Y022333D01*
X021958Y022332D01*
X021919Y022284D01*
X021875Y022240D01*
X021875Y022231D01*
X021745Y022072D01*
X021745Y022120D01*
X021275Y022120D01*
X021275Y022220D01*
X021175Y022220D01*
X021175Y022690D01*
X021010Y022690D01*
X020705Y022385D01*
X020705Y022220D01*
X021175Y022220D01*
X021175Y022120D01*
X020705Y022120D01*
X020705Y021955D01*
X021010Y021650D01*
X021175Y021650D01*
X021175Y022120D01*
X021275Y022120D01*
X021275Y021650D01*
X021399Y021650D01*
X021399Y021650D01*
X021026Y021650D01*
X020745Y021369D01*
X020745Y020971D01*
X021026Y020690D01*
X021424Y020690D01*
X021486Y020752D02*
X023256Y020752D01*
X023176Y020654D02*
X020477Y020654D01*
X020440Y020690D02*
X020275Y020690D01*
X020275Y020220D01*
X020175Y020220D01*
X020175Y020690D01*
X020010Y020690D01*
X019705Y020385D01*
X019705Y020220D01*
X020175Y020220D01*
X020175Y020120D01*
X019705Y020120D01*
X019705Y019955D01*
X020010Y019650D01*
X020175Y019650D01*
X020175Y020120D01*
X020275Y020120D01*
X020275Y020220D01*
X020745Y020220D01*
X020745Y020385D01*
X020440Y020690D01*
X020424Y020690D02*
X020705Y020971D01*
X020705Y021369D01*
X020424Y021650D01*
X020026Y021650D01*
X019745Y021369D01*
X019745Y020971D01*
X020026Y020690D01*
X020424Y020690D01*
X020486Y020752D02*
X020964Y020752D01*
X020866Y020851D02*
X020584Y020851D01*
X020683Y020949D02*
X020767Y020949D01*
X020745Y021048D02*
X020705Y021048D01*
X020705Y021146D02*
X020745Y021146D01*
X020745Y021245D02*
X020705Y021245D01*
X020705Y021343D02*
X020745Y021343D01*
X020818Y021442D02*
X020632Y021442D01*
X020534Y021540D02*
X020916Y021540D01*
X021015Y021639D02*
X020435Y021639D01*
X020471Y021737D02*
X020923Y021737D01*
X020824Y021836D02*
X020569Y021836D01*
X020668Y021934D02*
X020726Y021934D01*
X020705Y022033D02*
X020705Y022033D01*
X020705Y022131D02*
X021175Y022131D01*
X021175Y022033D02*
X021275Y022033D01*
X021275Y022131D02*
X021793Y022131D01*
X021745Y022220D02*
X021745Y022385D01*
X021440Y022690D01*
X021275Y022690D01*
X021275Y022220D01*
X021745Y022220D01*
X021745Y022230D02*
X021874Y022230D01*
X021955Y022328D02*
X021745Y022328D01*
X021704Y022427D02*
X022061Y022427D01*
X022160Y022525D02*
X021605Y022525D01*
X021507Y022624D02*
X022258Y022624D01*
X022357Y022722D02*
X021456Y022722D01*
X021554Y022821D02*
X022455Y022821D01*
X022554Y022919D02*
X021653Y022919D01*
X021705Y023018D02*
X022652Y023018D01*
X022655Y023116D02*
X021705Y023116D01*
X021705Y023215D02*
X022655Y023215D01*
X022655Y023313D02*
X021705Y023313D01*
X021662Y023412D02*
X022655Y023412D01*
X022655Y023510D02*
X021564Y023510D01*
X021649Y023609D02*
X022655Y023609D01*
X022655Y023707D02*
X021747Y023707D01*
X021846Y023806D02*
X022655Y023806D01*
X022739Y023904D02*
X021944Y023904D01*
X022043Y024003D02*
X022838Y024003D01*
X022936Y024101D02*
X022141Y024101D01*
X022240Y024200D02*
X023035Y024200D01*
X023133Y024298D02*
X022338Y024298D01*
X022437Y024397D02*
X023134Y024397D01*
X023136Y024495D02*
X022535Y024495D01*
X022634Y024594D02*
X023177Y024594D01*
X023259Y024692D02*
X022695Y024692D01*
X022350Y024791D02*
X021270Y024791D01*
X021377Y024889D02*
X022355Y024889D01*
X022355Y024988D02*
X021469Y024988D01*
X021560Y025086D02*
X022355Y025086D01*
X022355Y025185D02*
X021645Y025185D01*
X021692Y025283D02*
X022355Y025283D01*
X022355Y025382D02*
X021740Y025382D01*
X021787Y025480D02*
X022365Y025480D01*
X022463Y025579D02*
X021835Y025579D01*
X021861Y025677D02*
X022562Y025677D01*
X022660Y025776D02*
X021876Y025776D01*
X021891Y025874D02*
X022759Y025874D01*
X022857Y025973D02*
X021906Y025973D01*
X021921Y026071D02*
X022956Y026071D01*
X023178Y026170D02*
X021915Y026170D01*
X021900Y026268D02*
X023260Y026268D01*
X024445Y025677D02*
X024601Y025677D01*
X024846Y025677D02*
X024904Y025677D01*
X024904Y025776D02*
X024846Y025776D01*
X024846Y025874D02*
X024904Y025874D01*
X024560Y026170D02*
X024546Y026170D01*
X024445Y024692D02*
X031920Y024692D01*
X031839Y024594D02*
X024445Y024594D01*
X024445Y024495D02*
X031798Y024495D01*
X031796Y024397D02*
X024445Y024397D01*
X024445Y024298D02*
X031816Y024298D01*
X031866Y024200D02*
X024445Y024200D01*
X024445Y024101D02*
X031981Y024101D01*
X031920Y023904D02*
X024445Y023904D01*
X024445Y023806D02*
X031838Y023806D01*
X031798Y023707D02*
X024445Y023707D01*
X024445Y023609D02*
X031796Y023609D01*
X031816Y023510D02*
X024401Y023510D01*
X024303Y023412D02*
X031866Y023412D01*
X032392Y023116D02*
X035200Y023116D01*
X035200Y023018D02*
X032473Y023018D01*
X032514Y022919D02*
X035200Y022919D01*
X035200Y022821D02*
X032516Y022821D01*
X032495Y022722D02*
X035200Y022722D01*
X035200Y022624D02*
X032445Y022624D01*
X032327Y022525D02*
X035200Y022525D01*
X035200Y022427D02*
X022542Y022427D01*
X022640Y022525D02*
X023323Y022525D01*
X023205Y022624D02*
X022739Y022624D01*
X022837Y022722D02*
X023155Y022722D01*
X023134Y022821D02*
X022936Y022821D01*
X022995Y022919D02*
X023136Y022919D01*
X023177Y023018D02*
X022995Y023018D01*
X022995Y023116D02*
X023258Y023116D01*
X023321Y023313D02*
X022995Y023313D01*
X022995Y023215D02*
X023625Y023215D01*
X023566Y023271D02*
X023698Y023326D01*
X023799Y023427D01*
X023854Y023559D01*
X023854Y023703D01*
X023799Y023835D01*
X023698Y023936D01*
X023566Y023991D01*
X023423Y023991D01*
X023290Y023936D01*
X023189Y023835D01*
X023134Y023703D01*
X023134Y023559D01*
X023189Y023427D01*
X023290Y023326D01*
X023423Y023271D01*
X023566Y023271D01*
X023667Y023313D02*
X023723Y023313D01*
X023784Y023412D02*
X023822Y023412D01*
X023834Y023510D02*
X023920Y023510D01*
X023854Y023609D02*
X024019Y023609D01*
X024105Y023707D02*
X023852Y023707D01*
X023812Y023806D02*
X024105Y023806D01*
X024105Y023904D02*
X023730Y023904D01*
X023669Y024101D02*
X024105Y024101D01*
X024105Y024003D02*
X023319Y024003D01*
X023258Y023904D02*
X023220Y023904D01*
X023177Y023806D02*
X023122Y023806D01*
X023136Y023707D02*
X023023Y023707D01*
X022995Y023609D02*
X023134Y023609D01*
X023155Y023510D02*
X022995Y023510D01*
X022995Y023412D02*
X023205Y023412D01*
X023784Y024200D02*
X024105Y024200D01*
X024105Y024298D02*
X023834Y024298D01*
X023854Y024397D02*
X024105Y024397D01*
X024105Y024495D02*
X023852Y024495D01*
X023811Y024594D02*
X024105Y024594D01*
X024105Y024692D02*
X023730Y024692D01*
X024445Y024003D02*
X035200Y024003D01*
X035200Y022328D02*
X032393Y022328D01*
X032474Y022230D02*
X035200Y022230D01*
X035200Y022131D02*
X032514Y022131D01*
X032516Y022033D02*
X035200Y022033D01*
X035200Y021934D02*
X032495Y021934D01*
X032444Y021836D02*
X035200Y021836D01*
X035200Y021737D02*
X032326Y021737D01*
X032394Y021540D02*
X035200Y021540D01*
X035200Y021442D02*
X032474Y021442D01*
X032515Y021343D02*
X035200Y021343D01*
X035200Y021245D02*
X032516Y021245D01*
X032494Y021146D02*
X035200Y021146D01*
X035200Y021048D02*
X032443Y021048D01*
X031917Y020752D02*
X025329Y020752D01*
X025330Y020654D02*
X031837Y020654D01*
X031797Y020555D02*
X025291Y020555D01*
X025154Y020457D02*
X031796Y020457D01*
X031817Y020358D02*
X023833Y020358D01*
X023854Y020457D02*
X024996Y020457D01*
X024859Y020555D02*
X023853Y020555D01*
X023813Y020654D02*
X024820Y020654D01*
X024821Y020752D02*
X023733Y020752D01*
X023663Y020949D02*
X024905Y020949D01*
X024905Y021048D02*
X023782Y021048D01*
X023799Y021065D02*
X023854Y021197D01*
X023854Y021341D01*
X023799Y021473D01*
X023698Y021574D01*
X023566Y021629D01*
X023423Y021629D01*
X023290Y021574D01*
X023189Y021473D01*
X023134Y021341D01*
X023134Y021197D01*
X023189Y021065D01*
X023290Y020964D01*
X023423Y020909D01*
X023566Y020909D01*
X023698Y020964D01*
X023799Y021065D01*
X023833Y021146D02*
X024182Y021146D01*
X024171Y021152D02*
X024205Y021133D01*
X024243Y021123D01*
X024411Y021123D01*
X024411Y021401D01*
X024113Y021401D01*
X024113Y021253D01*
X024123Y021215D01*
X024143Y021180D01*
X024171Y021152D01*
X024115Y021245D02*
X023854Y021245D01*
X023853Y021343D02*
X024113Y021343D01*
X024113Y021540D02*
X023732Y021540D01*
X023812Y021442D02*
X024411Y021442D01*
X024411Y021540D02*
X024469Y021540D01*
X024469Y021639D02*
X024411Y021639D01*
X024242Y021737D02*
X023664Y021737D01*
X023783Y021836D02*
X024172Y021836D01*
X024121Y021639D02*
X021829Y021639D01*
X021910Y021737D02*
X023324Y021737D01*
X023206Y021836D02*
X021991Y021836D01*
X022071Y021934D02*
X023155Y021934D01*
X023134Y022033D02*
X022152Y022033D01*
X022246Y022131D02*
X023136Y022131D01*
X023176Y022230D02*
X022345Y022230D01*
X022443Y022328D02*
X023257Y022328D01*
X023812Y022230D02*
X024153Y022230D01*
X024727Y022230D02*
X024753Y022230D01*
X024753Y022131D02*
X024727Y022131D01*
X024727Y022033D02*
X024753Y022033D01*
X024753Y021934D02*
X024727Y021934D01*
X024708Y021836D02*
X024772Y021836D01*
X024870Y021737D02*
X024638Y021737D01*
X024469Y021343D02*
X024411Y021343D01*
X024411Y021245D02*
X024469Y021245D01*
X024469Y021146D02*
X024411Y021146D01*
X024698Y021146D02*
X024905Y021146D01*
X024865Y020851D02*
X021584Y020851D01*
X021683Y020949D02*
X023326Y020949D01*
X023207Y021048D02*
X021705Y021048D01*
X021705Y021146D02*
X023156Y021146D01*
X023134Y021245D02*
X021705Y021245D01*
X021705Y021343D02*
X023135Y021343D01*
X023176Y021442D02*
X021668Y021442D01*
X021748Y021540D02*
X023256Y021540D01*
X023781Y020260D02*
X031869Y020260D01*
X031989Y020161D02*
X023661Y020161D01*
X023733Y019964D02*
X031917Y019964D01*
X031952Y019999D02*
X031851Y019898D01*
X031796Y019766D01*
X031796Y019622D01*
X031851Y019490D01*
X031952Y019389D01*
X032084Y019334D01*
X032227Y019334D01*
X032360Y019389D01*
X032461Y019490D01*
X032516Y019622D01*
X032516Y019766D01*
X032461Y019898D01*
X032360Y019999D01*
X032227Y020054D01*
X032084Y020054D01*
X031952Y019999D01*
X031837Y019866D02*
X023813Y019866D01*
X023854Y019767D02*
X031796Y019767D01*
X031796Y019669D02*
X023854Y019669D01*
X023833Y019570D02*
X031817Y019570D01*
X031869Y019472D02*
X023781Y019472D01*
X023660Y019373D02*
X031990Y019373D01*
X032084Y019267D02*
X031952Y019212D01*
X031851Y019111D01*
X031796Y018978D01*
X031796Y018835D01*
X031851Y018703D01*
X031952Y018601D01*
X032084Y018547D01*
X032227Y018547D01*
X032360Y018601D01*
X032461Y018703D01*
X032516Y018835D01*
X032516Y018978D01*
X032461Y019111D01*
X032360Y019212D01*
X032227Y019267D01*
X032084Y019267D01*
X031916Y019176D02*
X023791Y019176D01*
X023805Y019162D02*
X023749Y019217D01*
X023684Y019261D01*
X023611Y019291D01*
X023534Y019307D01*
X023523Y019307D01*
X023523Y018935D01*
X023894Y018935D01*
X023894Y018946D01*
X023879Y019023D01*
X023849Y019096D01*
X023805Y019162D01*
X023856Y019078D02*
X031837Y019078D01*
X031796Y018979D02*
X023888Y018979D01*
X023894Y018878D02*
X023523Y018878D01*
X023523Y018935D01*
X023466Y018935D01*
X023466Y018878D01*
X023523Y018878D01*
X023523Y018507D01*
X023534Y018507D01*
X023611Y018522D01*
X023684Y018552D01*
X023749Y018596D01*
X023805Y018652D01*
X023849Y018717D01*
X023879Y018790D01*
X023894Y018867D01*
X023894Y018878D01*
X023876Y018782D02*
X031818Y018782D01*
X031796Y018881D02*
X023523Y018881D01*
X023466Y018881D02*
X021614Y018881D01*
X021705Y018971D02*
X021424Y018690D01*
X021026Y018690D01*
X020745Y018971D01*
X020745Y019369D01*
X021026Y019650D01*
X021424Y019650D01*
X021705Y019369D01*
X021705Y018971D01*
X021705Y018979D02*
X023101Y018979D01*
X023094Y018946D02*
X023094Y018935D01*
X023466Y018935D01*
X023466Y019307D01*
X023455Y019307D01*
X023378Y019291D01*
X023305Y019261D01*
X023239Y019217D01*
X023184Y019162D01*
X023140Y019096D01*
X023110Y019023D01*
X023094Y018946D01*
X023094Y018878D02*
X023094Y018867D01*
X023110Y018790D01*
X023140Y018717D01*
X023184Y018652D01*
X023239Y018596D01*
X023305Y018552D01*
X023378Y018522D01*
X023455Y018507D01*
X023466Y018507D01*
X023466Y018878D01*
X023094Y018878D01*
X023113Y018782D02*
X021516Y018782D01*
X021440Y018690D02*
X021275Y018690D01*
X021275Y018220D01*
X021175Y018220D01*
X021175Y018690D01*
X021010Y018690D01*
X020705Y018385D01*
X020705Y018220D01*
X021175Y018220D01*
X021175Y018120D01*
X020705Y018120D01*
X020705Y017955D01*
X021010Y017650D01*
X021175Y017650D01*
X021175Y018120D01*
X021275Y018120D01*
X021275Y018220D01*
X021745Y018220D01*
X021745Y018385D01*
X021440Y018690D01*
X021447Y018684D02*
X023162Y018684D01*
X023256Y018585D02*
X021545Y018585D01*
X021644Y018487D02*
X035200Y018487D01*
X035200Y018585D02*
X032320Y018585D01*
X032442Y018684D02*
X035200Y018684D01*
X035200Y018782D02*
X032494Y018782D01*
X032516Y018881D02*
X035200Y018881D01*
X035200Y018979D02*
X032515Y018979D01*
X032475Y019078D02*
X035200Y019078D01*
X035200Y019176D02*
X032395Y019176D01*
X032321Y019373D02*
X035200Y019373D01*
X035200Y019275D02*
X023651Y019275D01*
X023523Y019275D02*
X023466Y019275D01*
X023466Y019176D02*
X023523Y019176D01*
X023523Y019078D02*
X023466Y019078D01*
X023466Y018979D02*
X023523Y018979D01*
X023523Y018782D02*
X023466Y018782D01*
X023466Y018684D02*
X023523Y018684D01*
X023523Y018585D02*
X023466Y018585D01*
X023733Y018585D02*
X031991Y018585D01*
X031870Y018684D02*
X023826Y018684D01*
X023337Y019275D02*
X021705Y019275D01*
X021701Y019373D02*
X023329Y019373D01*
X023208Y019472D02*
X021602Y019472D01*
X021504Y019570D02*
X023156Y019570D01*
X023134Y019669D02*
X020459Y019669D01*
X020440Y019650D02*
X020745Y019955D01*
X020745Y020120D01*
X020275Y020120D01*
X020275Y019650D01*
X020440Y019650D01*
X020424Y019650D02*
X020026Y019650D01*
X019745Y019369D01*
X019745Y018971D01*
X020026Y018690D01*
X020424Y018690D01*
X020705Y018971D01*
X020705Y019369D01*
X020424Y019650D01*
X020504Y019570D02*
X020946Y019570D01*
X020848Y019472D02*
X020602Y019472D01*
X020701Y019373D02*
X020749Y019373D01*
X020745Y019275D02*
X020705Y019275D01*
X020705Y019176D02*
X020745Y019176D01*
X020745Y019078D02*
X020705Y019078D01*
X020705Y018979D02*
X020745Y018979D01*
X020836Y018881D02*
X020614Y018881D01*
X020516Y018782D02*
X020934Y018782D01*
X021003Y018684D02*
X012884Y018684D01*
X012982Y018782D02*
X019934Y018782D01*
X019836Y018881D02*
X013081Y018881D01*
X012785Y018585D02*
X019961Y018585D01*
X020026Y018650D02*
X019745Y018369D01*
X019745Y017971D01*
X020026Y017690D01*
X020424Y017690D01*
X020705Y017971D01*
X020705Y018369D01*
X020424Y018650D01*
X020026Y018650D01*
X019863Y018487D02*
X017929Y018487D01*
X018027Y018388D02*
X019764Y018388D01*
X019745Y018290D02*
X018070Y018290D01*
X018070Y018191D02*
X019745Y018191D01*
X019745Y018093D02*
X018070Y018093D01*
X018070Y017994D02*
X019745Y017994D01*
X019821Y017896D02*
X018070Y017896D01*
X018070Y017797D02*
X019919Y017797D01*
X020018Y017699D02*
X018070Y017699D01*
X018070Y017600D02*
X019976Y017600D01*
X020026Y017650D02*
X019745Y017369D01*
X019745Y016971D01*
X020026Y016690D01*
X020424Y016690D01*
X020705Y016971D01*
X020705Y017369D01*
X020424Y017650D01*
X020026Y017650D01*
X019878Y017502D02*
X018070Y017502D01*
X018137Y017403D02*
X019779Y017403D01*
X019745Y017305D02*
X019331Y017305D01*
X019429Y017206D02*
X019745Y017206D01*
X019745Y017108D02*
X019528Y017108D01*
X019626Y017009D02*
X019745Y017009D01*
X019725Y016911D02*
X019806Y016911D01*
X019823Y016812D02*
X019904Y016812D01*
X019922Y016714D02*
X020003Y016714D01*
X019737Y016418D02*
X019217Y016418D01*
X019119Y016517D02*
X019638Y016517D01*
X019540Y016615D02*
X019020Y016615D01*
X018922Y016714D02*
X019441Y016714D01*
X019343Y016812D02*
X018823Y016812D01*
X018725Y016911D02*
X019244Y016911D01*
X019316Y016320D02*
X019745Y016320D01*
X019745Y016221D02*
X019414Y016221D01*
X019513Y016123D02*
X019745Y016123D01*
X019745Y016024D02*
X019611Y016024D01*
X019710Y015926D02*
X019791Y015926D01*
X019808Y015827D02*
X019889Y015827D01*
X019907Y015729D02*
X019988Y015729D01*
X020444Y015630D02*
X020950Y015630D01*
X021010Y015690D02*
X020705Y015385D01*
X020705Y015220D01*
X021175Y015220D01*
X021175Y015690D01*
X021010Y015690D01*
X021026Y015690D02*
X021424Y015690D01*
X021705Y015971D01*
X021705Y016369D01*
X021424Y016650D01*
X021026Y016650D01*
X020745Y016369D01*
X020745Y015971D01*
X021026Y015690D01*
X020988Y015729D02*
X020462Y015729D01*
X020561Y015827D02*
X020889Y015827D01*
X020791Y015926D02*
X020659Y015926D01*
X020705Y016024D02*
X020745Y016024D01*
X020745Y016123D02*
X020705Y016123D01*
X020705Y016221D02*
X020745Y016221D01*
X020745Y016320D02*
X020705Y016320D01*
X020656Y016418D02*
X020794Y016418D01*
X020893Y016517D02*
X020557Y016517D01*
X020459Y016615D02*
X020991Y016615D01*
X021026Y016690D02*
X021424Y016690D01*
X021705Y016971D01*
X021705Y017369D01*
X021424Y017650D01*
X021026Y017650D01*
X020745Y017369D01*
X020745Y016971D01*
X021026Y016690D01*
X021003Y016714D02*
X020447Y016714D01*
X020546Y016812D02*
X020904Y016812D01*
X020806Y016911D02*
X020644Y016911D01*
X020705Y017009D02*
X020745Y017009D01*
X020745Y017108D02*
X020705Y017108D01*
X020705Y017206D02*
X020745Y017206D01*
X020745Y017305D02*
X020705Y017305D01*
X020671Y017403D02*
X020779Y017403D01*
X020878Y017502D02*
X020572Y017502D01*
X020474Y017600D02*
X020976Y017600D01*
X020961Y017699D02*
X020432Y017699D01*
X020531Y017797D02*
X020863Y017797D01*
X020764Y017896D02*
X020629Y017896D01*
X020705Y017994D02*
X020705Y017994D01*
X020705Y018093D02*
X020705Y018093D01*
X020705Y018191D02*
X021175Y018191D01*
X021175Y018093D02*
X021275Y018093D01*
X021275Y018120D02*
X021275Y017650D01*
X021440Y017650D01*
X021745Y017955D01*
X021745Y018120D01*
X021275Y018120D01*
X021275Y018191D02*
X035200Y018191D01*
X035200Y018093D02*
X021745Y018093D01*
X021745Y017994D02*
X035200Y017994D01*
X035200Y017896D02*
X021686Y017896D01*
X021587Y017797D02*
X035200Y017797D01*
X035200Y017699D02*
X021489Y017699D01*
X021474Y017600D02*
X035200Y017600D01*
X035200Y017502D02*
X021572Y017502D01*
X021671Y017403D02*
X035200Y017403D01*
X035200Y017305D02*
X021705Y017305D01*
X021705Y017206D02*
X035200Y017206D01*
X035200Y017108D02*
X021705Y017108D01*
X021705Y017009D02*
X035200Y017009D01*
X035200Y016911D02*
X021644Y016911D01*
X021546Y016812D02*
X035200Y016812D01*
X035200Y016714D02*
X021447Y016714D01*
X021459Y016615D02*
X035200Y016615D01*
X035200Y016517D02*
X021557Y016517D01*
X021656Y016418D02*
X035200Y016418D01*
X035200Y016320D02*
X021705Y016320D01*
X021705Y016221D02*
X035200Y016221D01*
X035200Y016123D02*
X021705Y016123D01*
X021705Y016024D02*
X035200Y016024D01*
X035200Y015926D02*
X021659Y015926D01*
X021561Y015827D02*
X035200Y015827D01*
X035200Y015729D02*
X021462Y015729D01*
X021440Y015690D02*
X021275Y015690D01*
X021275Y015220D01*
X021175Y015220D01*
X021175Y015120D01*
X020705Y015120D01*
X020705Y014955D01*
X021010Y014650D01*
X021175Y014650D01*
X021175Y015120D01*
X021275Y015120D01*
X021275Y015220D01*
X021745Y015220D01*
X021745Y015385D01*
X021440Y015690D01*
X021500Y015630D02*
X035200Y015630D01*
X035200Y015532D02*
X021599Y015532D01*
X021697Y015433D02*
X035200Y015433D01*
X035200Y015335D02*
X021745Y015335D01*
X021745Y015236D02*
X035200Y015236D01*
X035200Y015138D02*
X021275Y015138D01*
X021275Y015120D02*
X021745Y015120D01*
X021745Y014955D01*
X021440Y014650D01*
X021275Y014650D01*
X021275Y015120D01*
X021275Y015039D02*
X021175Y015039D01*
X021175Y014941D02*
X021275Y014941D01*
X021275Y014842D02*
X021175Y014842D01*
X021175Y014744D02*
X021275Y014744D01*
X021424Y014650D02*
X021026Y014650D01*
X020745Y014369D01*
X020745Y013971D01*
X021026Y013690D01*
X021424Y013690D01*
X021705Y013971D01*
X021705Y014369D01*
X021424Y014650D01*
X021429Y014645D02*
X035200Y014645D01*
X035200Y014547D02*
X021527Y014547D01*
X021626Y014448D02*
X035200Y014448D01*
X035200Y014350D02*
X021705Y014350D01*
X021705Y014251D02*
X035200Y014251D01*
X035200Y014153D02*
X021705Y014153D01*
X021705Y014054D02*
X035200Y014054D01*
X035200Y013956D02*
X021689Y013956D01*
X021591Y013857D02*
X035200Y013857D01*
X035200Y013759D02*
X021492Y013759D01*
X021512Y013562D02*
X035200Y013562D01*
X035200Y013660D02*
X019975Y013660D01*
X019958Y013759D02*
X019877Y013759D01*
X019859Y013857D02*
X019778Y013857D01*
X019761Y013956D02*
X019680Y013956D01*
X019745Y014054D02*
X019581Y014054D01*
X019570Y014153D02*
X019745Y014153D01*
X019745Y014251D02*
X019570Y014251D01*
X019570Y014350D02*
X019745Y014350D01*
X019707Y014448D02*
X019570Y014448D01*
X019570Y014547D02*
X019608Y014547D01*
X019892Y014744D02*
X019973Y014744D01*
X019990Y014645D02*
X020021Y014645D01*
X019874Y014842D02*
X019820Y014842D01*
X019230Y014842D02*
X017306Y014842D01*
X017291Y014806D02*
X017330Y014899D01*
X017330Y015001D01*
X017291Y015094D01*
X017245Y015140D01*
X017303Y015198D01*
X017303Y016155D01*
X017239Y016219D01*
X016911Y016219D01*
X016847Y016155D01*
X016847Y015198D01*
X016905Y015140D01*
X016859Y015094D01*
X016825Y015013D01*
X016791Y015094D01*
X016765Y015121D01*
X016765Y015160D01*
X016803Y015198D01*
X016803Y016155D01*
X016739Y016219D01*
X016411Y016219D01*
X016347Y016155D01*
X016347Y015198D01*
X016385Y015160D01*
X016385Y015121D01*
X016359Y015094D01*
X016320Y015001D01*
X016320Y014899D01*
X016359Y014806D01*
X016431Y014734D01*
X016524Y014695D01*
X016626Y014695D01*
X016719Y014734D01*
X016791Y014806D01*
X016825Y014887D01*
X016859Y014806D01*
X016931Y014734D01*
X017024Y014695D01*
X017126Y014695D01*
X017219Y014734D01*
X017291Y014806D01*
X017229Y014744D02*
X019230Y014744D01*
X019230Y014645D02*
X016370Y014645D01*
X016421Y014744D02*
X016272Y014744D01*
X016245Y014842D02*
X016344Y014842D01*
X016320Y014941D02*
X016245Y014941D01*
X016245Y015039D02*
X016336Y015039D01*
X016385Y015138D02*
X016245Y015138D01*
X016303Y015236D02*
X016347Y015236D01*
X016347Y015335D02*
X016303Y015335D01*
X016303Y015433D02*
X016347Y015433D01*
X016347Y015532D02*
X016303Y015532D01*
X016303Y015630D02*
X016347Y015630D01*
X016347Y015729D02*
X016303Y015729D01*
X016303Y015827D02*
X016347Y015827D01*
X016347Y015926D02*
X016303Y015926D01*
X016303Y016024D02*
X016347Y016024D01*
X016347Y016123D02*
X016303Y016123D01*
X015847Y016123D02*
X015594Y016123D01*
X015603Y016131D02*
X015622Y016165D01*
X015632Y016203D01*
X015632Y016371D01*
X015354Y016371D01*
X015354Y016073D01*
X015502Y016073D01*
X015540Y016083D01*
X015575Y016103D01*
X015603Y016131D01*
X015632Y016221D02*
X017356Y016221D01*
X017365Y016229D02*
X017337Y016202D01*
X017317Y016167D01*
X017307Y016129D01*
X017307Y015685D01*
X017566Y015685D01*
X017566Y015667D01*
X017584Y015667D01*
X017584Y015093D01*
X017713Y015093D01*
X017751Y015104D01*
X017785Y015123D01*
X017813Y015151D01*
X017833Y015185D01*
X017843Y015224D01*
X017843Y015667D01*
X017584Y015667D01*
X017584Y015685D01*
X017843Y015685D01*
X017843Y016129D01*
X017833Y016167D01*
X017813Y016202D01*
X017785Y016229D01*
X017751Y016249D01*
X017713Y016259D01*
X017584Y016259D01*
X017584Y015685D01*
X017566Y015685D01*
X017566Y016259D01*
X017437Y016259D01*
X017399Y016249D01*
X017365Y016229D01*
X017307Y016123D02*
X017303Y016123D01*
X017303Y016024D02*
X017307Y016024D01*
X017303Y015926D02*
X017307Y015926D01*
X017303Y015827D02*
X017307Y015827D01*
X017303Y015729D02*
X017307Y015729D01*
X017307Y015667D02*
X017307Y015224D01*
X017317Y015185D01*
X017337Y015151D01*
X017365Y015123D01*
X017399Y015104D01*
X017437Y015093D01*
X017566Y015093D01*
X017566Y015667D01*
X017307Y015667D01*
X017303Y015630D02*
X017307Y015630D01*
X017303Y015532D02*
X017307Y015532D01*
X017303Y015433D02*
X017307Y015433D01*
X017303Y015335D02*
X017307Y015335D01*
X017303Y015236D02*
X017307Y015236D01*
X017351Y015138D02*
X017248Y015138D01*
X017314Y015039D02*
X019116Y015039D01*
X019214Y014941D02*
X017330Y014941D01*
X017566Y015138D02*
X017584Y015138D01*
X017584Y015236D02*
X017566Y015236D01*
X017566Y015335D02*
X017584Y015335D01*
X017584Y015433D02*
X017566Y015433D01*
X017566Y015532D02*
X017584Y015532D01*
X017584Y015630D02*
X017566Y015630D01*
X017566Y015729D02*
X017584Y015729D01*
X017584Y015827D02*
X017566Y015827D01*
X017566Y015926D02*
X017584Y015926D01*
X017584Y016024D02*
X017566Y016024D01*
X017566Y016123D02*
X017584Y016123D01*
X017584Y016221D02*
X017566Y016221D01*
X017794Y016221D02*
X017934Y016221D01*
X017843Y016123D02*
X018032Y016123D01*
X018131Y016024D02*
X017843Y016024D01*
X017843Y015926D02*
X018229Y015926D01*
X018328Y015827D02*
X017843Y015827D01*
X017843Y015729D02*
X018426Y015729D01*
X018525Y015630D02*
X017843Y015630D01*
X017843Y015532D02*
X018623Y015532D01*
X018722Y015433D02*
X017843Y015433D01*
X017843Y015335D02*
X018820Y015335D01*
X018919Y015236D02*
X017843Y015236D01*
X017799Y015138D02*
X019017Y015138D01*
X019230Y014547D02*
X018244Y014547D01*
X018342Y014448D02*
X019230Y014448D01*
X019230Y014350D02*
X018441Y014350D01*
X018539Y014251D02*
X019230Y014251D01*
X019230Y014153D02*
X018638Y014153D01*
X018736Y014054D02*
X019230Y014054D01*
X019230Y013956D02*
X018835Y013956D01*
X018933Y013857D02*
X019298Y013857D01*
X019396Y013759D02*
X019032Y013759D01*
X019130Y013660D02*
X019495Y013660D01*
X019593Y013562D02*
X019229Y013562D01*
X019327Y013463D02*
X019692Y013463D01*
X019745Y013365D02*
X019426Y013365D01*
X019524Y013266D02*
X019745Y013266D01*
X019745Y013168D02*
X019623Y013168D01*
X019721Y013069D02*
X019745Y013069D01*
X020175Y012478D02*
X020275Y012478D01*
X020275Y012380D02*
X020175Y012380D01*
X020606Y012872D02*
X020687Y012872D01*
X020704Y012971D02*
X020746Y012971D01*
X020745Y013069D02*
X020705Y013069D01*
X020705Y013168D02*
X020745Y013168D01*
X020745Y013266D02*
X020705Y013266D01*
X020705Y013365D02*
X020745Y013365D01*
X020839Y013463D02*
X020611Y013463D01*
X020512Y013562D02*
X020938Y013562D01*
X020958Y013759D02*
X020492Y013759D01*
X020591Y013857D02*
X020859Y013857D01*
X020761Y013956D02*
X020689Y013956D01*
X020705Y014054D02*
X020745Y014054D01*
X020745Y014153D02*
X020705Y014153D01*
X020705Y014251D02*
X020745Y014251D01*
X020745Y014350D02*
X020705Y014350D01*
X020626Y014448D02*
X020824Y014448D01*
X020923Y014547D02*
X020527Y014547D01*
X020429Y014645D02*
X021021Y014645D01*
X020916Y014744D02*
X020477Y014744D01*
X020576Y014842D02*
X020818Y014842D01*
X020719Y014941D02*
X020674Y014941D01*
X020705Y015039D02*
X020705Y015039D01*
X020705Y015138D02*
X021175Y015138D01*
X021175Y015236D02*
X021275Y015236D01*
X021275Y015335D02*
X021175Y015335D01*
X021175Y015433D02*
X021275Y015433D01*
X021275Y015532D02*
X021175Y015532D01*
X021175Y015630D02*
X021275Y015630D01*
X020851Y015532D02*
X020542Y015532D01*
X020641Y015433D02*
X020753Y015433D01*
X020705Y015335D02*
X020705Y015335D01*
X020705Y015236D02*
X020705Y015236D01*
X021534Y014744D02*
X035200Y014744D01*
X035200Y014842D02*
X021632Y014842D01*
X021731Y014941D02*
X035200Y014941D01*
X035200Y015039D02*
X021745Y015039D01*
X021611Y013463D02*
X035200Y013463D01*
X035200Y013365D02*
X021705Y013365D01*
X021705Y013266D02*
X035200Y013266D01*
X035200Y013168D02*
X021705Y013168D01*
X021705Y013069D02*
X035200Y013069D01*
X035200Y012971D02*
X021704Y012971D01*
X021606Y012872D02*
X035200Y012872D01*
X035200Y012774D02*
X021507Y012774D01*
X021745Y010120D02*
X021275Y010120D01*
X021275Y009650D01*
X021440Y009650D01*
X021745Y009955D01*
X021745Y010120D01*
X021745Y010114D02*
X035200Y010114D01*
X035200Y010016D02*
X021745Y010016D01*
X021707Y009917D02*
X035200Y009917D01*
X035200Y009819D02*
X021609Y009819D01*
X021510Y009720D02*
X035200Y009720D01*
X035200Y009622D02*
X021452Y009622D01*
X021424Y009650D02*
X021026Y009650D01*
X020745Y009369D01*
X020745Y008971D01*
X021026Y008690D01*
X021424Y008690D01*
X021705Y008971D01*
X021705Y009369D01*
X021424Y009650D01*
X021275Y009720D02*
X021175Y009720D01*
X021175Y009819D02*
X021275Y009819D01*
X021275Y009917D02*
X021175Y009917D01*
X021175Y010016D02*
X021275Y010016D01*
X021275Y010114D02*
X021175Y010114D01*
X020841Y009819D02*
X020552Y009819D01*
X020651Y009917D02*
X020743Y009917D01*
X020705Y010016D02*
X020705Y010016D01*
X020705Y010114D02*
X020705Y010114D01*
X020940Y009720D02*
X020454Y009720D01*
X020452Y009622D02*
X020998Y009622D01*
X020899Y009523D02*
X020551Y009523D01*
X020649Y009425D02*
X020801Y009425D01*
X020745Y009326D02*
X020705Y009326D01*
X020705Y009228D02*
X020745Y009228D01*
X020745Y009129D02*
X020705Y009129D01*
X020705Y009031D02*
X020745Y009031D01*
X020784Y008932D02*
X020666Y008932D01*
X020567Y008834D02*
X020883Y008834D01*
X020981Y008735D02*
X020469Y008735D01*
X020437Y008637D02*
X020956Y008637D01*
X020858Y008538D02*
X020536Y008538D01*
X020634Y008440D02*
X020759Y008440D01*
X020705Y008341D02*
X020705Y008341D01*
X020705Y008243D02*
X020705Y008243D01*
X020705Y008144D02*
X021175Y008144D01*
X021175Y008046D02*
X021275Y008046D01*
X021275Y008144D02*
X035200Y008144D01*
X035200Y008046D02*
X021745Y008046D01*
X021737Y007947D02*
X035200Y007947D01*
X035200Y007849D02*
X021639Y007849D01*
X021540Y007750D02*
X035200Y007750D01*
X035200Y007652D02*
X021442Y007652D01*
X021521Y007553D02*
X035200Y007553D01*
X035200Y007455D02*
X021619Y007455D01*
X021705Y007356D02*
X035200Y007356D01*
X035200Y007258D02*
X021705Y007258D01*
X021705Y007159D02*
X035200Y007159D01*
X035200Y007061D02*
X021705Y007061D01*
X021696Y006962D02*
X035200Y006962D01*
X035200Y006864D02*
X021597Y006864D01*
X021275Y007652D02*
X021175Y007652D01*
X021175Y007750D02*
X021275Y007750D01*
X021275Y007849D02*
X021175Y007849D01*
X021175Y007947D02*
X021275Y007947D01*
X021275Y008243D02*
X021175Y008243D01*
X021175Y008341D02*
X021275Y008341D01*
X021275Y008440D02*
X021175Y008440D01*
X021175Y008538D02*
X021275Y008538D01*
X021275Y008637D02*
X021175Y008637D01*
X021469Y008735D02*
X035200Y008735D01*
X035200Y008637D02*
X021494Y008637D01*
X021592Y008538D02*
X035200Y008538D01*
X035200Y008440D02*
X021691Y008440D01*
X021745Y008341D02*
X035200Y008341D01*
X035200Y008243D02*
X021745Y008243D01*
X021567Y008834D02*
X035200Y008834D01*
X035200Y008932D02*
X021666Y008932D01*
X021705Y009031D02*
X035200Y009031D01*
X035200Y009129D02*
X021705Y009129D01*
X021705Y009228D02*
X035200Y009228D01*
X035200Y009326D02*
X021705Y009326D01*
X021649Y009425D02*
X035200Y009425D01*
X035200Y009523D02*
X021551Y009523D01*
X020705Y008046D02*
X020705Y008046D01*
X020713Y007947D02*
X020681Y007947D01*
X020582Y007849D02*
X020811Y007849D01*
X020910Y007750D02*
X020484Y007750D01*
X016598Y004100D02*
X016598Y004100D01*
X017304Y003416D02*
X014846Y003416D01*
X014804Y003318D02*
X017346Y003318D01*
X018311Y001446D02*
X032462Y001446D01*
X032585Y001348D02*
X018311Y001348D01*
X018311Y001249D02*
X032709Y001249D01*
X035190Y003022D02*
X035200Y003022D01*
X035200Y003121D02*
X035172Y003121D01*
X035200Y003219D02*
X035125Y003219D01*
X035077Y003318D02*
X035200Y003318D01*
X035200Y003416D02*
X035030Y003416D01*
X034983Y003515D02*
X035200Y003515D01*
X035200Y003613D02*
X034909Y003613D01*
X034818Y003712D02*
X035200Y003712D01*
X035200Y003810D02*
X034726Y003810D01*
X034635Y003909D02*
X035200Y003909D01*
X035200Y004007D02*
X034469Y004007D01*
X034299Y004106D02*
X035200Y004106D01*
X035200Y004204D02*
X034014Y004204D01*
X020408Y001641D02*
X020408Y001641D01*
X011848Y004895D02*
X011848Y004895D01*
X013630Y011493D02*
X013630Y011493D01*
X013630Y011592D02*
X013630Y011592D01*
X013630Y011690D02*
X013630Y011690D01*
X013630Y011789D02*
X013630Y011789D01*
X013238Y013365D02*
X013212Y013365D01*
X013212Y013463D02*
X013238Y013463D01*
X013271Y013562D02*
X013179Y013562D01*
X013330Y014054D02*
X013370Y014054D01*
X013332Y014842D02*
X013368Y014842D01*
X013426Y015086D02*
X013750Y015086D01*
X013750Y015501D01*
X013850Y015501D01*
X013850Y015086D01*
X014174Y015086D01*
X014212Y015096D01*
X014246Y015116D01*
X014274Y015144D01*
X014294Y015178D01*
X014304Y015216D01*
X014304Y015501D01*
X013850Y015501D01*
X013850Y015601D01*
X014304Y015601D01*
X014304Y015886D01*
X014294Y015924D01*
X014274Y015958D01*
X014246Y015986D01*
X014212Y016006D01*
X014174Y016016D01*
X013850Y016016D01*
X013850Y015601D01*
X013750Y015601D01*
X013750Y015501D01*
X013296Y015501D01*
X012950Y015501D01*
X012950Y015086D01*
X013274Y015086D01*
X013312Y015096D01*
X013346Y015116D01*
X013350Y015120D01*
X013354Y015116D01*
X013388Y015096D01*
X013426Y015086D01*
X013750Y015138D02*
X013850Y015138D01*
X013850Y015236D02*
X013750Y015236D01*
X013750Y015335D02*
X013850Y015335D01*
X013850Y015433D02*
X013750Y015433D01*
X013750Y015532D02*
X012950Y015532D01*
X012950Y015501D02*
X012950Y015601D01*
X013750Y015601D01*
X013750Y016016D01*
X013426Y016016D01*
X013388Y016006D01*
X013354Y015986D01*
X013350Y015983D01*
X013346Y015986D01*
X013312Y016006D01*
X013274Y016016D01*
X012950Y016016D01*
X012950Y015601D01*
X012850Y015601D01*
X012850Y015501D01*
X012950Y015501D01*
X012950Y015433D02*
X012850Y015433D01*
X012850Y015501D02*
X012850Y015086D01*
X012526Y015086D01*
X012488Y015096D01*
X012454Y015116D01*
X012426Y015144D01*
X012406Y015178D01*
X012396Y015216D01*
X012396Y015501D01*
X012850Y015501D01*
X012850Y015532D02*
X012360Y015532D01*
X012396Y015601D02*
X012850Y015601D01*
X012850Y016016D01*
X012526Y016016D01*
X012488Y016006D01*
X012454Y015986D01*
X012426Y015958D01*
X012406Y015924D01*
X012396Y015886D01*
X012396Y015601D01*
X012396Y015630D02*
X012360Y015630D01*
X012360Y015729D02*
X012396Y015729D01*
X012396Y015827D02*
X012354Y015827D01*
X012407Y015926D02*
X011980Y015926D01*
X011980Y016024D02*
X015847Y016024D01*
X015847Y015926D02*
X014293Y015926D01*
X014304Y015827D02*
X015847Y015827D01*
X015847Y015729D02*
X014304Y015729D01*
X014304Y015630D02*
X015847Y015630D01*
X015847Y015532D02*
X013850Y015532D01*
X013850Y015630D02*
X013750Y015630D01*
X013750Y015729D02*
X013850Y015729D01*
X013850Y015827D02*
X013750Y015827D01*
X013750Y015926D02*
X013850Y015926D01*
X014304Y015433D02*
X015847Y015433D01*
X015847Y015335D02*
X014304Y015335D01*
X014304Y015236D02*
X015847Y015236D01*
X015905Y015138D02*
X014268Y015138D01*
X014232Y014842D02*
X015905Y014842D01*
X015905Y014744D02*
X014264Y014744D01*
X014264Y014645D02*
X015905Y014645D01*
X015988Y014547D02*
X014264Y014547D01*
X014264Y014448D02*
X016087Y014448D01*
X016185Y014350D02*
X014264Y014350D01*
X012950Y015138D02*
X012850Y015138D01*
X012850Y015236D02*
X012950Y015236D01*
X012950Y015335D02*
X012850Y015335D01*
X012850Y015630D02*
X012950Y015630D01*
X012950Y015729D02*
X012850Y015729D01*
X012850Y015827D02*
X012950Y015827D01*
X012950Y015926D02*
X012850Y015926D01*
X012396Y015433D02*
X012360Y015433D01*
X012360Y015335D02*
X012396Y015335D01*
X012396Y015236D02*
X012360Y015236D01*
X012360Y015138D02*
X012432Y015138D01*
X012360Y015039D02*
X015905Y015039D01*
X015905Y014941D02*
X012410Y014941D01*
X011980Y016123D02*
X015056Y016123D01*
X015047Y016131D02*
X015075Y016103D01*
X015110Y016083D01*
X015148Y016073D01*
X015296Y016073D01*
X015296Y016371D01*
X015018Y016371D01*
X015018Y016203D01*
X015028Y016165D01*
X015047Y016131D01*
X015018Y016221D02*
X011980Y016221D01*
X011980Y016320D02*
X015018Y016320D01*
X015018Y016517D02*
X011980Y016517D01*
X011980Y016615D02*
X015022Y016615D01*
X015104Y016714D02*
X011980Y016714D01*
X011980Y016812D02*
X015058Y016812D01*
X015058Y016911D02*
X011980Y016911D01*
X011980Y017009D02*
X015058Y017009D01*
X015058Y017108D02*
X011980Y017108D01*
X011980Y017206D02*
X015058Y017206D01*
X015592Y017206D02*
X015841Y017206D01*
X015847Y017305D02*
X011980Y017305D01*
X011980Y017403D02*
X015847Y017403D01*
X015847Y017502D02*
X011980Y017502D01*
X011980Y017600D02*
X015847Y017600D01*
X015847Y017699D02*
X011980Y017699D01*
X011997Y017797D02*
X015847Y017797D01*
X015847Y017896D02*
X012096Y017896D01*
X012194Y017994D02*
X015847Y017994D01*
X015847Y018093D02*
X012293Y018093D01*
X012391Y018191D02*
X015847Y018191D01*
X015924Y018290D02*
X012490Y018290D01*
X012588Y018388D02*
X016023Y018388D01*
X016121Y018487D02*
X012687Y018487D01*
X012332Y018782D02*
X009994Y018782D01*
X010016Y018881D02*
X012430Y018881D01*
X012529Y018979D02*
X010015Y018979D01*
X009975Y019078D02*
X012627Y019078D01*
X012726Y019176D02*
X009895Y019176D01*
X009821Y019373D02*
X012923Y019373D01*
X012824Y019275D02*
X001151Y019275D01*
X001160Y019373D02*
X009490Y019373D01*
X009452Y019389D02*
X009584Y019334D01*
X009727Y019334D01*
X009860Y019389D01*
X009961Y019490D01*
X010016Y019622D01*
X010016Y019766D01*
X009961Y019898D01*
X009860Y019999D01*
X009727Y020054D01*
X009584Y020054D01*
X009452Y019999D01*
X009351Y019898D01*
X009296Y019766D01*
X009296Y019622D01*
X009351Y019490D01*
X009452Y019389D01*
X009369Y019472D02*
X001281Y019472D01*
X001333Y019570D02*
X009317Y019570D01*
X009296Y019669D02*
X001354Y019669D01*
X001354Y019767D02*
X009296Y019767D01*
X009337Y019866D02*
X001313Y019866D01*
X001233Y019964D02*
X009417Y019964D01*
X009489Y020161D02*
X001161Y020161D01*
X001198Y020176D02*
X001299Y020278D01*
X001354Y020410D01*
X001354Y020553D01*
X001299Y020685D01*
X001198Y020787D01*
X001066Y020841D01*
X000923Y020841D01*
X000790Y020787D01*
X000689Y020685D01*
X000634Y020553D01*
X000634Y020410D01*
X000689Y020278D01*
X000790Y020176D01*
X000923Y020121D01*
X001066Y020121D01*
X001198Y020176D01*
X001281Y020260D02*
X009369Y020260D01*
X009317Y020358D02*
X001333Y020358D01*
X001354Y020457D02*
X009296Y020457D01*
X009297Y020555D02*
X001353Y020555D01*
X001313Y020654D02*
X009337Y020654D01*
X009417Y020752D02*
X001233Y020752D01*
X001163Y020949D02*
X009487Y020949D01*
X009368Y021048D02*
X001282Y021048D01*
X001333Y021146D02*
X001423Y021146D01*
X001421Y021147D02*
X001455Y021128D01*
X001493Y021118D01*
X001661Y021118D01*
X001661Y021396D01*
X001363Y021396D01*
X001363Y021248D01*
X001373Y021210D01*
X001393Y021175D01*
X001421Y021147D01*
X001364Y021245D02*
X001354Y021245D01*
X001353Y021343D02*
X001363Y021343D01*
X001312Y021442D02*
X001661Y021442D01*
X001661Y021540D02*
X001719Y021540D01*
X001719Y021639D02*
X001661Y021639D01*
X001661Y021343D02*
X001719Y021343D01*
X001719Y021245D02*
X001661Y021245D01*
X001661Y021146D02*
X001719Y021146D01*
X001957Y021146D02*
X009317Y021146D01*
X009826Y021737D02*
X012645Y021737D01*
X012649Y021836D02*
X009944Y021836D01*
X009995Y021934D02*
X012698Y021934D01*
X012999Y021540D02*
X013355Y021540D01*
X013355Y021639D02*
X013119Y021639D01*
X013355Y022328D02*
X011912Y022328D01*
X011814Y022427D02*
X013355Y022427D01*
X013359Y022525D02*
X011715Y022525D01*
X011680Y022624D02*
X011617Y022624D01*
X011577Y022722D02*
X011518Y022722D01*
X011545Y022821D02*
X011420Y022821D01*
X011491Y022919D02*
X011321Y022919D01*
X011392Y023018D02*
X011223Y023018D01*
X011294Y023116D02*
X011124Y023116D01*
X011195Y023215D02*
X011026Y023215D01*
X011097Y023313D02*
X010927Y023313D01*
X010998Y023412D02*
X010829Y023412D01*
X010900Y023510D02*
X010730Y023510D01*
X010801Y023609D02*
X010632Y023609D01*
X010703Y023707D02*
X010533Y023707D01*
X010604Y023806D02*
X010435Y023806D01*
X010506Y023904D02*
X010336Y023904D01*
X010407Y024003D02*
X010238Y024003D01*
X010309Y024101D02*
X010139Y024101D01*
X010210Y024200D02*
X009946Y024200D01*
X009995Y024298D02*
X010112Y024298D01*
X010395Y024495D02*
X010565Y024495D01*
X010494Y024397D02*
X010663Y024397D01*
X010592Y024298D02*
X010762Y024298D01*
X010691Y024200D02*
X011118Y024200D01*
X011216Y024101D02*
X010789Y024101D01*
X010888Y024003D02*
X011315Y024003D01*
X011413Y023904D02*
X010986Y023904D01*
X011085Y023806D02*
X011512Y023806D01*
X011610Y023707D02*
X011183Y023707D01*
X011282Y023609D02*
X011709Y023609D01*
X011807Y023510D02*
X011380Y023510D01*
X011479Y023412D02*
X011906Y023412D01*
X012004Y023313D02*
X011577Y023313D01*
X011676Y023215D02*
X012103Y023215D01*
X011993Y023018D02*
X013316Y023018D01*
X013315Y022919D02*
X012047Y022919D01*
X012055Y022821D02*
X013319Y022821D01*
X013355Y022722D02*
X012023Y022722D01*
X011920Y022624D02*
X013355Y022624D01*
X013375Y023116D02*
X011774Y023116D01*
X012189Y023609D02*
X019423Y023609D01*
X019522Y023707D02*
X012091Y023707D01*
X011992Y023806D02*
X019620Y023806D01*
X019719Y023904D02*
X011894Y023904D01*
X011795Y024003D02*
X019745Y024003D01*
X019745Y024101D02*
X011697Y024101D01*
X011598Y024200D02*
X019745Y024200D01*
X019745Y024298D02*
X011500Y024298D01*
X011401Y024397D02*
X019773Y024397D01*
X019871Y024495D02*
X012245Y024495D01*
X012466Y024594D02*
X019647Y024594D01*
X019424Y024692D02*
X012636Y024692D01*
X012782Y024791D02*
X019300Y024791D01*
X019177Y024889D02*
X012874Y024889D01*
X012965Y024988D02*
X019059Y024988D01*
X018992Y025086D02*
X013056Y025086D01*
X013119Y025185D02*
X018924Y025185D01*
X018857Y025283D02*
X013167Y025283D01*
X013214Y025382D02*
X018790Y025382D01*
X018759Y025480D02*
X013261Y025480D01*
X013304Y025579D02*
X018728Y025579D01*
X018698Y025677D02*
X013319Y025677D01*
X013334Y025776D02*
X018668Y025776D01*
X018643Y025874D02*
X013348Y025874D01*
X013363Y025973D02*
X018643Y025973D01*
X018643Y026071D02*
X013372Y026071D01*
X013357Y026170D02*
X018643Y026170D01*
X018643Y026268D02*
X013342Y026268D01*
X013327Y026367D02*
X018650Y026367D01*
X018680Y026465D02*
X013312Y026465D01*
X013289Y026564D02*
X018711Y026564D01*
X018741Y026662D02*
X013241Y026662D01*
X013194Y026761D02*
X018771Y026761D01*
X018818Y026859D02*
X013146Y026859D01*
X013099Y026958D02*
X018885Y026958D01*
X018952Y027056D02*
X013017Y027056D01*
X012926Y027155D02*
X019019Y027155D01*
X019104Y027253D02*
X012834Y027253D01*
X012734Y027352D02*
X019228Y027352D01*
X019351Y027450D02*
X012563Y027450D01*
X012393Y027549D02*
X019500Y027549D01*
X019751Y027647D02*
X012060Y027647D01*
X011328Y027647D02*
X004284Y027647D01*
X004311Y027549D02*
X011077Y027549D01*
X010864Y027450D02*
X004326Y027450D01*
X004341Y027352D02*
X010740Y027352D01*
X010617Y027253D02*
X004356Y027253D01*
X004371Y027155D02*
X010503Y027155D01*
X010436Y027056D02*
X004365Y027056D01*
X004350Y026958D02*
X010369Y026958D01*
X010302Y026859D02*
X004335Y026859D01*
X004320Y026761D02*
X010237Y026761D01*
X010206Y026662D02*
X004305Y026662D01*
X004266Y026564D02*
X004729Y026564D01*
X004647Y026465D02*
X004218Y026465D01*
X004171Y026367D02*
X004643Y026367D01*
X004643Y026170D02*
X004064Y026170D01*
X004123Y026268D02*
X004921Y026268D01*
X004979Y026268D02*
X009421Y026268D01*
X009339Y026170D02*
X005257Y026170D01*
X005257Y026071D02*
X009298Y026071D01*
X009296Y025973D02*
X005219Y025973D01*
X005216Y025874D02*
X009315Y025874D01*
X009364Y025776D02*
X005217Y025776D01*
X004683Y025776D02*
X003651Y025776D01*
X003790Y025874D02*
X004684Y025874D01*
X004681Y025973D02*
X003881Y025973D01*
X003973Y026071D02*
X004643Y026071D01*
X004921Y026367D02*
X004979Y026367D01*
X004979Y026465D02*
X004921Y026465D01*
X004921Y026564D02*
X004979Y026564D01*
X005171Y026564D02*
X010176Y026564D01*
X010146Y026465D02*
X005253Y026465D01*
X005257Y026367D02*
X010115Y026367D01*
X010093Y026268D02*
X009890Y026268D01*
X009972Y026170D02*
X010093Y026170D01*
X010093Y026071D02*
X010013Y026071D01*
X010016Y025973D02*
X010093Y025973D01*
X010093Y025874D02*
X009996Y025874D01*
X009947Y025776D02*
X010102Y025776D01*
X010121Y025677D02*
X010133Y025677D01*
X010072Y024988D02*
X009946Y024988D01*
X010001Y024889D02*
X010171Y024889D01*
X010100Y024791D02*
X010269Y024791D01*
X010198Y024692D02*
X010368Y024692D01*
X010297Y024594D02*
X010466Y024594D01*
X010053Y023707D02*
X010014Y023707D01*
X010016Y023609D02*
X010151Y023609D01*
X010250Y023510D02*
X009995Y023510D01*
X009945Y023412D02*
X010348Y023412D01*
X009893Y022328D02*
X011432Y022328D01*
X011530Y022230D02*
X009974Y022230D01*
X010014Y022131D02*
X011629Y022131D01*
X011727Y022033D02*
X010016Y022033D01*
X012288Y023510D02*
X019325Y023510D01*
X019608Y023313D02*
X019745Y023313D01*
X019745Y023215D02*
X019510Y023215D01*
X019745Y023116D02*
X015370Y023116D01*
X015030Y023116D02*
X014225Y023116D01*
X014284Y023018D02*
X015030Y023018D01*
X015030Y022919D02*
X014285Y022919D01*
X014281Y022821D02*
X015030Y022821D01*
X015030Y022722D02*
X014245Y022722D01*
X014245Y022624D02*
X015030Y022624D01*
X015030Y022525D02*
X014241Y022525D01*
X014245Y022427D02*
X015030Y022427D01*
X015030Y022328D02*
X014245Y022328D01*
X014245Y022230D02*
X015030Y022230D01*
X015030Y022131D02*
X014245Y022131D01*
X014238Y022033D02*
X015030Y022033D01*
X015030Y021934D02*
X014245Y021934D01*
X014245Y021836D02*
X015030Y021836D01*
X015030Y021737D02*
X014245Y021737D01*
X014245Y021639D02*
X015030Y021639D01*
X015030Y021540D02*
X014245Y021540D01*
X014245Y021442D02*
X015030Y021442D01*
X015030Y021343D02*
X014245Y021343D01*
X014241Y021245D02*
X015030Y021245D01*
X015030Y021146D02*
X014245Y021146D01*
X014245Y021048D02*
X015030Y021048D01*
X015030Y020949D02*
X014828Y020949D01*
X014629Y020949D02*
X014571Y020949D01*
X014571Y020851D02*
X014629Y020851D01*
X014629Y020752D02*
X014571Y020752D01*
X014372Y020949D02*
X014185Y020949D01*
X014279Y020851D02*
X000350Y020851D01*
X000350Y020949D02*
X000826Y020949D01*
X000707Y021048D02*
X000350Y021048D01*
X000350Y021146D02*
X000656Y021146D01*
X000634Y021245D02*
X000350Y021245D01*
X000350Y021343D02*
X000635Y021343D01*
X000676Y021442D02*
X000350Y021442D01*
X000350Y021540D02*
X000756Y021540D01*
X001283Y021836D02*
X001417Y021836D01*
X001403Y022230D02*
X001312Y022230D01*
X002007Y021639D02*
X002013Y021639D01*
X000756Y020752D02*
X000350Y020752D01*
X000350Y020654D02*
X000676Y020654D01*
X000635Y020555D02*
X000350Y020555D01*
X000350Y020457D02*
X000634Y020457D01*
X000656Y020358D02*
X000350Y020358D01*
X000350Y020260D02*
X000707Y020260D01*
X001291Y019176D02*
X009416Y019176D01*
X009337Y019078D02*
X001356Y019078D01*
X001388Y018979D02*
X009296Y018979D01*
X009820Y018585D02*
X012135Y018585D01*
X012233Y018684D02*
X009942Y018684D01*
X009942Y019472D02*
X016021Y019472D01*
X016120Y019570D02*
X009994Y019570D01*
X010016Y019669D02*
X016218Y019669D01*
X016317Y019767D02*
X010015Y019767D01*
X009974Y019866D02*
X016415Y019866D01*
X016514Y019964D02*
X009895Y019964D01*
X013800Y023018D02*
X013800Y023018D01*
X013800Y023116D02*
X013800Y023116D01*
X015370Y022722D02*
X015555Y022722D01*
X015555Y022624D02*
X015370Y022624D01*
X015370Y022525D02*
X015559Y022525D01*
X015555Y022427D02*
X015370Y022427D01*
X015370Y022328D02*
X015555Y022328D01*
X015555Y022230D02*
X015370Y022230D01*
X015370Y022131D02*
X015555Y022131D01*
X015562Y022033D02*
X015370Y022033D01*
X015370Y021934D02*
X015555Y021934D01*
X015555Y021836D02*
X015370Y021836D01*
X015370Y021737D02*
X015516Y021737D01*
X015515Y021639D02*
X015370Y021639D01*
X015370Y021540D02*
X015519Y021540D01*
X015515Y021442D02*
X015370Y021442D01*
X015370Y021343D02*
X015515Y021343D01*
X015615Y020949D02*
X015370Y020949D01*
X015487Y020851D02*
X017400Y020851D01*
X017499Y020949D02*
X016385Y020949D01*
X016445Y021048D02*
X017597Y021048D01*
X017696Y021146D02*
X016445Y021146D01*
X016468Y021245D02*
X017794Y021245D01*
X017804Y021343D02*
X016485Y021343D01*
X016485Y021442D02*
X017844Y021442D01*
X017925Y021540D02*
X016481Y021540D01*
X016485Y021639D02*
X020015Y021639D01*
X019979Y021737D02*
X016484Y021737D01*
X016445Y021836D02*
X019881Y021836D01*
X019782Y021934D02*
X016445Y021934D01*
X016000Y021639D02*
X016000Y021639D01*
X016000Y021540D02*
X016000Y021540D01*
X016000Y021442D02*
X016000Y021442D01*
X015487Y020752D02*
X017302Y020752D01*
X017203Y020654D02*
X015487Y020654D01*
X015487Y020555D02*
X017105Y020555D01*
X017006Y020457D02*
X015487Y020457D01*
X016672Y019472D02*
X019848Y019472D01*
X019946Y019570D02*
X016770Y019570D01*
X016869Y019669D02*
X019991Y019669D01*
X019893Y019767D02*
X016967Y019767D01*
X017066Y019866D02*
X019794Y019866D01*
X019705Y019964D02*
X017164Y019964D01*
X017263Y020063D02*
X019705Y020063D01*
X019705Y020260D02*
X017460Y020260D01*
X017558Y020358D02*
X019705Y020358D01*
X019776Y020457D02*
X017657Y020457D01*
X017755Y020555D02*
X019875Y020555D01*
X019973Y020654D02*
X017854Y020654D01*
X017952Y020752D02*
X019964Y020752D01*
X019866Y020851D02*
X018051Y020851D01*
X018268Y020949D02*
X019767Y020949D01*
X019745Y021048D02*
X018412Y021048D01*
X018471Y021146D02*
X019745Y021146D01*
X019745Y021245D02*
X018496Y021245D01*
X018496Y021343D02*
X019745Y021343D01*
X019818Y021442D02*
X018456Y021442D01*
X018375Y021540D02*
X019916Y021540D01*
X020705Y022230D02*
X020705Y022230D01*
X020705Y022328D02*
X020705Y022328D01*
X020746Y022427D02*
X020647Y022427D01*
X020549Y022525D02*
X020845Y022525D01*
X020943Y022624D02*
X020450Y022624D01*
X020456Y022722D02*
X020994Y022722D01*
X020896Y022821D02*
X020554Y022821D01*
X020653Y022919D02*
X020797Y022919D01*
X020745Y023018D02*
X020705Y023018D01*
X020705Y023116D02*
X020745Y023116D01*
X020745Y023215D02*
X020705Y023215D01*
X020705Y023313D02*
X020745Y023313D01*
X020788Y023412D02*
X020662Y023412D01*
X020645Y023510D02*
X020564Y023510D01*
X020546Y023609D02*
X020465Y023609D01*
X020448Y023707D02*
X020441Y023707D01*
X020009Y023707D02*
X020002Y023707D01*
X019985Y023609D02*
X019904Y023609D01*
X019886Y023510D02*
X019805Y023510D01*
X019788Y023412D02*
X019707Y023412D01*
X019745Y023018D02*
X016445Y023018D01*
X016445Y022919D02*
X019734Y022919D01*
X019635Y022821D02*
X016445Y022821D01*
X016445Y022722D02*
X019537Y022722D01*
X019438Y022624D02*
X016445Y022624D01*
X017361Y020161D02*
X020175Y020161D01*
X020175Y020063D02*
X020275Y020063D01*
X020275Y020161D02*
X020745Y020161D01*
X020745Y020063D02*
X020745Y020063D01*
X020745Y019964D02*
X020752Y019964D01*
X020656Y019866D02*
X020851Y019866D01*
X020949Y019767D02*
X020557Y019767D01*
X020275Y019767D02*
X020175Y019767D01*
X020175Y019669D02*
X020275Y019669D01*
X020275Y019866D02*
X020175Y019866D01*
X020175Y019964D02*
X020275Y019964D01*
X020275Y020260D02*
X020175Y020260D01*
X020175Y020358D02*
X020275Y020358D01*
X020275Y020457D02*
X020175Y020457D01*
X020175Y020555D02*
X020275Y020555D01*
X020275Y020654D02*
X020175Y020654D01*
X020575Y020555D02*
X020931Y020555D01*
X020833Y020457D02*
X020674Y020457D01*
X020745Y020358D02*
X020745Y020358D01*
X020745Y020260D02*
X020745Y020260D01*
X021501Y019767D02*
X023135Y019767D01*
X023176Y019866D02*
X021599Y019866D01*
X021705Y019176D02*
X023198Y019176D01*
X023132Y019078D02*
X021705Y019078D01*
X021275Y018684D02*
X021175Y018684D01*
X021175Y018585D02*
X021275Y018585D01*
X021275Y018487D02*
X021175Y018487D01*
X021175Y018388D02*
X021275Y018388D01*
X021275Y018290D02*
X021175Y018290D01*
X021175Y017994D02*
X021275Y017994D01*
X021275Y017896D02*
X021175Y017896D01*
X021175Y017797D02*
X021275Y017797D01*
X021275Y017699D02*
X021175Y017699D01*
X020705Y018290D02*
X020705Y018290D01*
X020708Y018388D02*
X020686Y018388D01*
X020587Y018487D02*
X020806Y018487D01*
X020905Y018585D02*
X020489Y018585D01*
X019745Y018979D02*
X016179Y018979D01*
X016278Y019078D02*
X019745Y019078D01*
X019745Y019176D02*
X016376Y019176D01*
X016475Y019275D02*
X019745Y019275D01*
X019749Y019373D02*
X016573Y019373D01*
X016347Y018191D02*
X016306Y018191D01*
X016303Y018093D02*
X016347Y018093D01*
X016347Y017994D02*
X016303Y017994D01*
X016303Y017896D02*
X016347Y017896D01*
X016347Y017797D02*
X016303Y017797D01*
X016303Y017699D02*
X016347Y017699D01*
X016347Y017600D02*
X016303Y017600D01*
X016303Y017502D02*
X016347Y017502D01*
X016347Y017403D02*
X016303Y017403D01*
X016303Y017305D02*
X016347Y017305D01*
X016386Y017206D02*
X016264Y017206D01*
X016223Y017108D02*
X016427Y017108D01*
X016526Y017009D02*
X016124Y017009D01*
X016026Y016911D02*
X016624Y016911D01*
X016723Y016812D02*
X015592Y016812D01*
X015546Y016714D02*
X016821Y016714D01*
X016920Y016615D02*
X015628Y016615D01*
X015632Y016517D02*
X017018Y016517D01*
X017117Y016418D02*
X015354Y016418D01*
X015296Y016418D02*
X011980Y016418D01*
X009296Y015827D02*
X006216Y015827D01*
X006231Y015729D02*
X009290Y015729D01*
X005419Y015433D02*
X000350Y015433D01*
X001748Y015335D02*
X005419Y015335D01*
X005428Y015236D02*
X001847Y015236D01*
X004433Y013266D02*
X004530Y013266D01*
X004530Y013168D02*
X004433Y013168D01*
X004433Y012872D02*
X004530Y012872D01*
X004530Y012774D02*
X004433Y012774D01*
X004433Y012675D02*
X004530Y012675D01*
X003509Y012675D02*
X001850Y012675D01*
X001850Y012774D02*
X003431Y012774D01*
X003426Y012872D02*
X001850Y012872D01*
X015296Y016123D02*
X015354Y016123D01*
X015354Y016221D02*
X015296Y016221D01*
X015296Y016320D02*
X015354Y016320D01*
X015632Y016320D02*
X017215Y016320D01*
X016847Y016123D02*
X016803Y016123D01*
X016803Y016024D02*
X016847Y016024D01*
X016847Y015926D02*
X016803Y015926D01*
X016803Y015827D02*
X016847Y015827D01*
X016847Y015729D02*
X016803Y015729D01*
X016803Y015630D02*
X016847Y015630D01*
X016847Y015532D02*
X016803Y015532D01*
X016803Y015433D02*
X016847Y015433D01*
X016847Y015335D02*
X016803Y015335D01*
X016803Y015236D02*
X016847Y015236D01*
X016902Y015138D02*
X016765Y015138D01*
X016814Y015039D02*
X016836Y015039D01*
X016844Y014842D02*
X016806Y014842D01*
X016729Y014744D02*
X016921Y014744D01*
X021745Y018290D02*
X035200Y018290D01*
X035200Y018388D02*
X021742Y018388D01*
X025322Y021639D02*
X035200Y021639D01*
X035200Y019964D02*
X032395Y019964D01*
X032474Y019866D02*
X035200Y019866D01*
X035200Y019767D02*
X032515Y019767D01*
X032516Y019669D02*
X035200Y019669D01*
X035200Y019570D02*
X032494Y019570D01*
X032442Y019472D02*
X035200Y019472D01*
X022252Y024692D02*
X021100Y024692D01*
X021480Y024594D02*
X022153Y024594D01*
X022055Y024495D02*
X021579Y024495D01*
X021677Y024397D02*
X021956Y024397D01*
X021858Y024298D02*
X021705Y024298D01*
X021705Y024200D02*
X021759Y024200D01*
X021275Y022624D02*
X021175Y022624D01*
X021175Y022525D02*
X021275Y022525D01*
X021275Y022427D02*
X021175Y022427D01*
X021175Y022328D02*
X021275Y022328D01*
X021275Y022230D02*
X021175Y022230D01*
X021175Y021934D02*
X021275Y021934D01*
X021275Y021836D02*
X021175Y021836D01*
X021175Y021737D02*
X021275Y021737D01*
X020000Y022624D02*
X019919Y022624D01*
X019901Y022525D02*
X019820Y022525D01*
X019803Y022427D02*
X019722Y022427D01*
X019745Y022328D02*
X019623Y022328D01*
X009184Y024101D02*
X001169Y024101D01*
X001284Y024200D02*
X009085Y024200D01*
D37*
X013025Y019150D02*
X016025Y019150D01*
X018150Y021275D01*
X013025Y019150D02*
X011750Y017875D01*
X011750Y015275D01*
X012576Y014449D01*
X012900Y014449D02*
X013800Y014449D01*
X014475Y013774D01*
X014475Y012625D01*
X010925Y012633D02*
X010192Y012633D01*
X010050Y012775D01*
X010050Y013275D01*
X010050Y014300D01*
X010050Y015125D01*
X010048Y015148D01*
X010043Y015171D01*
X010034Y015193D01*
X010021Y015213D01*
X010006Y015231D01*
X009988Y015246D01*
X009968Y015259D01*
X009946Y015268D01*
X009923Y015273D01*
X009900Y015275D01*
X008150Y014275D02*
X007700Y014725D01*
X005825Y014725D01*
X005826Y014725D02*
X005826Y013962D01*
X005826Y013794D01*
X004482Y013794D01*
X005826Y012938D02*
X005826Y012199D01*
X005850Y012175D02*
X005850Y011450D01*
X006775Y010525D01*
X008525Y010525D01*
X009275Y009775D01*
X010512Y009775D01*
X010675Y009612D01*
X011063Y009612D02*
X012563Y008112D01*
X016450Y008112D01*
X016017Y007088D02*
X015955Y007026D01*
X015250Y007026D01*
X016017Y007088D02*
X016017Y006417D01*
X016000Y006400D01*
X015250Y005924D02*
X015225Y005899D01*
X015225Y005050D01*
X015445Y004830D01*
X015445Y004100D01*
X010242Y008588D02*
X010242Y008625D01*
X009650Y008625D01*
X009050Y008625D01*
X008800Y008625D02*
X008575Y008850D01*
X007875Y008850D01*
X006975Y009850D02*
X006775Y009650D01*
X006775Y007525D01*
X007275Y007025D01*
X007275Y005854D01*
X006975Y009850D02*
X007650Y009850D01*
X008575Y011100D02*
X008150Y011525D01*
X008150Y014275D01*
X008575Y011100D02*
X009225Y011100D01*
X009858Y010467D01*
X010925Y010467D01*
D38*
X010825Y010367D01*
X010675Y009612D02*
X011063Y009612D01*
X009050Y008625D02*
X008800Y008625D01*
X007875Y009850D02*
X007650Y009850D01*
X005850Y012175D02*
X005826Y012199D01*
X005825Y014725D02*
X005826Y014725D01*
X010035Y013260D02*
X010041Y013261D01*
X010046Y013264D01*
X010049Y013269D01*
X010050Y013275D01*
X012576Y014449D02*
X012900Y014449D01*
D39*
X018150Y021275D03*
M02*
